<?xml version="1.0" encoding="utf-8" standalone="no"?>
<!DOCTYPE svg PUBLIC "-//W3C//DTD SVG 1.1//EN"
  "http://www.w3.org/Graphics/SVG/1.1/DTD/svg11.dtd">
<svg xmlns:xlink="http://www.w3.org/1999/xlink" width="432pt" height="288pt" viewBox="0 0 432 288" xmlns="http://www.w3.org/2000/svg" version="1.1">
 <metadata>
  <rdf:RDF xmlns:dc="http://purl.org/dc/elements/1.1/" xmlns:cc="http://creativecommons.org/ns#" xmlns:rdf="http://www.w3.org/1999/02/22-rdf-syntax-ns#">
   <cc:Work>
    <dc:type rdf:resource="http://purl.org/dc/dcmitype/StillImage"/>
    <dc:date>2022-07-08T13:58:13.923260</dc:date>
    <dc:format>image/svg+xml</dc:format>
    <dc:creator>
     <cc:Agent>
      <dc:title>Matplotlib v3.5.1, https://matplotlib.org/</dc:title>
     </cc:Agent>
    </dc:creator>
   </cc:Work>
  </rdf:RDF>
 </metadata>
 <defs>
  <style type="text/css">*{stroke-linejoin: round; stroke-linecap: butt}</style>
 </defs>
 <g id="figure_1">
  <g id="patch_1">
   <path d="M 0 288 
L 432 288 
L 432 0 
L 0 0 
z
" style="fill: #ffffff"/>
  </g>
  <g id="axes_1">
   <g id="patch_2">
    <path d="M 54 252 
L 388.8 252 
L 388.8 34.56 
L 54 34.56 
z
" style="fill: #ffffff"/>
   </g>
   <g id="matplotlib.axis_1">
    <g id="xtick_1">
     <g id="line2d_1">
      <defs>
       <path id="m55d70ad6ee" d="M 0 0 
L 0 6 
" style="stroke: #262626; stroke-width: 1.25"/>
      </defs>
      <g>
       <use xlink:href="#m55d70ad6ee" x="54" y="252" style="fill: #262626; stroke: #262626; stroke-width: 1.25"/>
      </g>
     </g>
     <g id="text_1">
      <!-- 0 -->
      <g style="fill: #262626" transform="translate(50.941484 269.373594)scale(0.11 -0.11)">
       <defs>
        <path id="ArialMT-30" d="M 266 2259 
Q 266 3072 433 3567 
Q 600 4063 929 4331 
Q 1259 4600 1759 4600 
Q 2128 4600 2406 4451 
Q 2684 4303 2865 4023 
Q 3047 3744 3150 3342 
Q 3253 2941 3253 2259 
Q 3253 1453 3087 958 
Q 2922 463 2592 192 
Q 2263 -78 1759 -78 
Q 1097 -78 719 397 
Q 266 969 266 2259 
z
M 844 2259 
Q 844 1131 1108 757 
Q 1372 384 1759 384 
Q 2147 384 2411 759 
Q 2675 1134 2675 2259 
Q 2675 3391 2411 3762 
Q 2147 4134 1753 4134 
Q 1366 4134 1134 3806 
Q 844 3388 844 2259 
z
" transform="scale(0.015625)"/>
       </defs>
       <use xlink:href="#ArialMT-30"/>
      </g>
     </g>
    </g>
    <g id="xtick_2">
     <g id="line2d_2">
      <g>
       <use xlink:href="#m55d70ad6ee" x="120.96" y="252" style="fill: #262626; stroke: #262626; stroke-width: 1.25"/>
      </g>
     </g>
     <g id="text_2">
      <!-- 5 -->
      <g style="fill: #262626" transform="translate(117.901484 269.373594)scale(0.11 -0.11)">
       <defs>
        <path id="ArialMT-35" d="M 266 1200 
L 856 1250 
Q 922 819 1161 601 
Q 1400 384 1738 384 
Q 2144 384 2425 690 
Q 2706 997 2706 1503 
Q 2706 1984 2436 2262 
Q 2166 2541 1728 2541 
Q 1456 2541 1237 2417 
Q 1019 2294 894 2097 
L 366 2166 
L 809 4519 
L 3088 4519 
L 3088 3981 
L 1259 3981 
L 1013 2750 
Q 1425 3038 1878 3038 
Q 2478 3038 2890 2622 
Q 3303 2206 3303 1553 
Q 3303 931 2941 478 
Q 2500 -78 1738 -78 
Q 1113 -78 717 272 
Q 322 622 266 1200 
z
" transform="scale(0.015625)"/>
       </defs>
       <use xlink:href="#ArialMT-35"/>
      </g>
     </g>
    </g>
    <g id="xtick_3">
     <g id="line2d_3">
      <g>
       <use xlink:href="#m55d70ad6ee" x="187.92" y="252" style="fill: #262626; stroke: #262626; stroke-width: 1.25"/>
      </g>
     </g>
     <g id="text_3">
      <!-- 10 -->
      <g style="fill: #262626" transform="translate(181.802969 269.373594)scale(0.11 -0.11)">
       <defs>
        <path id="ArialMT-31" d="M 2384 0 
L 1822 0 
L 1822 3584 
Q 1619 3391 1289 3197 
Q 959 3003 697 2906 
L 697 3450 
Q 1169 3672 1522 3987 
Q 1875 4303 2022 4600 
L 2384 4600 
L 2384 0 
z
" transform="scale(0.015625)"/>
       </defs>
       <use xlink:href="#ArialMT-31"/>
       <use xlink:href="#ArialMT-30" x="55.615234"/>
      </g>
     </g>
    </g>
    <g id="xtick_4">
     <g id="line2d_4">
      <g>
       <use xlink:href="#m55d70ad6ee" x="254.88" y="252" style="fill: #262626; stroke: #262626; stroke-width: 1.25"/>
      </g>
     </g>
     <g id="text_4">
      <!-- 15 -->
      <g style="fill: #262626" transform="translate(248.762969 269.373594)scale(0.11 -0.11)">
       <use xlink:href="#ArialMT-31"/>
       <use xlink:href="#ArialMT-35" x="55.615234"/>
      </g>
     </g>
    </g>
    <g id="xtick_5">
     <g id="line2d_5">
      <g>
       <use xlink:href="#m55d70ad6ee" x="321.84" y="252" style="fill: #262626; stroke: #262626; stroke-width: 1.25"/>
      </g>
     </g>
     <g id="text_5">
      <!-- 20 -->
      <g style="fill: #262626" transform="translate(315.722969 269.373594)scale(0.11 -0.11)">
       <defs>
        <path id="ArialMT-32" d="M 3222 541 
L 3222 0 
L 194 0 
Q 188 203 259 391 
Q 375 700 629 1000 
Q 884 1300 1366 1694 
Q 2113 2306 2375 2664 
Q 2638 3022 2638 3341 
Q 2638 3675 2398 3904 
Q 2159 4134 1775 4134 
Q 1369 4134 1125 3890 
Q 881 3647 878 3216 
L 300 3275 
Q 359 3922 746 4261 
Q 1134 4600 1788 4600 
Q 2447 4600 2831 4234 
Q 3216 3869 3216 3328 
Q 3216 3053 3103 2787 
Q 2991 2522 2730 2228 
Q 2469 1934 1863 1422 
Q 1356 997 1212 845 
Q 1069 694 975 541 
L 3222 541 
z
" transform="scale(0.015625)"/>
       </defs>
       <use xlink:href="#ArialMT-32"/>
       <use xlink:href="#ArialMT-30" x="55.615234"/>
      </g>
     </g>
    </g>
    <g id="xtick_6">
     <g id="line2d_6">
      <g>
       <use xlink:href="#m55d70ad6ee" x="388.8" y="252" style="fill: #262626; stroke: #262626; stroke-width: 1.25"/>
      </g>
     </g>
     <g id="text_6">
      <!-- 25 -->
      <g style="fill: #262626" transform="translate(382.682969 269.373594)scale(0.11 -0.11)">
       <use xlink:href="#ArialMT-32"/>
       <use xlink:href="#ArialMT-35" x="55.615234"/>
      </g>
     </g>
    </g>
    <g id="text_7">
     <!-- Frequency (Hz) -->
     <g style="fill: #262626" transform="translate(180.059063 284.295469)scale(0.12 -0.12)">
      <defs>
       <path id="ArialMT-46" d="M 525 0 
L 525 4581 
L 3616 4581 
L 3616 4041 
L 1131 4041 
L 1131 2622 
L 3281 2622 
L 3281 2081 
L 1131 2081 
L 1131 0 
L 525 0 
z
" transform="scale(0.015625)"/>
       <path id="ArialMT-72" d="M 416 0 
L 416 3319 
L 922 3319 
L 922 2816 
Q 1116 3169 1280 3281 
Q 1444 3394 1641 3394 
Q 1925 3394 2219 3213 
L 2025 2691 
Q 1819 2813 1613 2813 
Q 1428 2813 1281 2702 
Q 1134 2591 1072 2394 
Q 978 2094 978 1738 
L 978 0 
L 416 0 
z
" transform="scale(0.015625)"/>
       <path id="ArialMT-65" d="M 2694 1069 
L 3275 997 
Q 3138 488 2766 206 
Q 2394 -75 1816 -75 
Q 1088 -75 661 373 
Q 234 822 234 1631 
Q 234 2469 665 2931 
Q 1097 3394 1784 3394 
Q 2450 3394 2872 2941 
Q 3294 2488 3294 1666 
Q 3294 1616 3291 1516 
L 816 1516 
Q 847 969 1125 678 
Q 1403 388 1819 388 
Q 2128 388 2347 550 
Q 2566 713 2694 1069 
z
M 847 1978 
L 2700 1978 
Q 2663 2397 2488 2606 
Q 2219 2931 1791 2931 
Q 1403 2931 1139 2672 
Q 875 2413 847 1978 
z
" transform="scale(0.015625)"/>
       <path id="ArialMT-71" d="M 2538 -1272 
L 2538 353 
Q 2406 169 2170 47 
Q 1934 -75 1669 -75 
Q 1078 -75 651 397 
Q 225 869 225 1691 
Q 225 2191 398 2587 
Q 572 2984 901 3189 
Q 1231 3394 1625 3394 
Q 2241 3394 2594 2875 
L 2594 3319 
L 3100 3319 
L 3100 -1272 
L 2538 -1272 
z
M 803 1669 
Q 803 1028 1072 708 
Q 1341 388 1716 388 
Q 2075 388 2334 692 
Q 2594 997 2594 1619 
Q 2594 2281 2320 2615 
Q 2047 2950 1678 2950 
Q 1313 2950 1058 2639 
Q 803 2328 803 1669 
z
" transform="scale(0.015625)"/>
       <path id="ArialMT-75" d="M 2597 0 
L 2597 488 
Q 2209 -75 1544 -75 
Q 1250 -75 995 37 
Q 741 150 617 320 
Q 494 491 444 738 
Q 409 903 409 1263 
L 409 3319 
L 972 3319 
L 972 1478 
Q 972 1038 1006 884 
Q 1059 663 1231 536 
Q 1403 409 1656 409 
Q 1909 409 2131 539 
Q 2353 669 2445 892 
Q 2538 1116 2538 1541 
L 2538 3319 
L 3100 3319 
L 3100 0 
L 2597 0 
z
" transform="scale(0.015625)"/>
       <path id="ArialMT-6e" d="M 422 0 
L 422 3319 
L 928 3319 
L 928 2847 
Q 1294 3394 1984 3394 
Q 2284 3394 2536 3286 
Q 2788 3178 2913 3003 
Q 3038 2828 3088 2588 
Q 3119 2431 3119 2041 
L 3119 0 
L 2556 0 
L 2556 2019 
Q 2556 2363 2490 2533 
Q 2425 2703 2258 2804 
Q 2091 2906 1866 2906 
Q 1506 2906 1245 2678 
Q 984 2450 984 1813 
L 984 0 
L 422 0 
z
" transform="scale(0.015625)"/>
       <path id="ArialMT-63" d="M 2588 1216 
L 3141 1144 
Q 3050 572 2676 248 
Q 2303 -75 1759 -75 
Q 1078 -75 664 370 
Q 250 816 250 1647 
Q 250 2184 428 2587 
Q 606 2991 970 3192 
Q 1334 3394 1763 3394 
Q 2303 3394 2647 3120 
Q 2991 2847 3088 2344 
L 2541 2259 
Q 2463 2594 2264 2762 
Q 2066 2931 1784 2931 
Q 1359 2931 1093 2626 
Q 828 2322 828 1663 
Q 828 994 1084 691 
Q 1341 388 1753 388 
Q 2084 388 2306 591 
Q 2528 794 2588 1216 
z
" transform="scale(0.015625)"/>
       <path id="ArialMT-79" d="M 397 -1278 
L 334 -750 
Q 519 -800 656 -800 
Q 844 -800 956 -737 
Q 1069 -675 1141 -563 
Q 1194 -478 1313 -144 
Q 1328 -97 1363 -6 
L 103 3319 
L 709 3319 
L 1400 1397 
Q 1534 1031 1641 628 
Q 1738 1016 1872 1384 
L 2581 3319 
L 3144 3319 
L 1881 -56 
Q 1678 -603 1566 -809 
Q 1416 -1088 1222 -1217 
Q 1028 -1347 759 -1347 
Q 597 -1347 397 -1278 
z
" transform="scale(0.015625)"/>
       <path id="ArialMT-20" transform="scale(0.015625)"/>
       <path id="ArialMT-28" d="M 1497 -1347 
Q 1031 -759 709 28 
Q 388 816 388 1659 
Q 388 2403 628 3084 
Q 909 3875 1497 4659 
L 1900 4659 
Q 1522 4009 1400 3731 
Q 1209 3300 1100 2831 
Q 966 2247 966 1656 
Q 966 153 1900 -1347 
L 1497 -1347 
z
" transform="scale(0.015625)"/>
       <path id="ArialMT-48" d="M 513 0 
L 513 4581 
L 1119 4581 
L 1119 2700 
L 3500 2700 
L 3500 4581 
L 4106 4581 
L 4106 0 
L 3500 0 
L 3500 2159 
L 1119 2159 
L 1119 0 
L 513 0 
z
" transform="scale(0.015625)"/>
       <path id="ArialMT-7a" d="M 125 0 
L 125 456 
L 2238 2881 
Q 1878 2863 1603 2863 
L 250 2863 
L 250 3319 
L 2963 3319 
L 2963 2947 
L 1166 841 
L 819 456 
Q 1197 484 1528 484 
L 3063 484 
L 3063 0 
L 125 0 
z
" transform="scale(0.015625)"/>
       <path id="ArialMT-29" d="M 791 -1347 
L 388 -1347 
Q 1322 153 1322 1656 
Q 1322 2244 1188 2822 
Q 1081 3291 891 3722 
Q 769 4003 388 4659 
L 791 4659 
Q 1378 3875 1659 3084 
Q 1900 2403 1900 1659 
Q 1900 816 1576 28 
Q 1253 -759 791 -1347 
z
" transform="scale(0.015625)"/>
      </defs>
      <use xlink:href="#ArialMT-46"/>
      <use xlink:href="#ArialMT-72" x="61.083984"/>
      <use xlink:href="#ArialMT-65" x="94.384766"/>
      <use xlink:href="#ArialMT-71" x="150"/>
      <use xlink:href="#ArialMT-75" x="205.615234"/>
      <use xlink:href="#ArialMT-65" x="261.230469"/>
      <use xlink:href="#ArialMT-6e" x="316.845703"/>
      <use xlink:href="#ArialMT-63" x="372.460938"/>
      <use xlink:href="#ArialMT-79" x="422.460938"/>
      <use xlink:href="#ArialMT-20" x="472.460938"/>
      <use xlink:href="#ArialMT-28" x="500.244141"/>
      <use xlink:href="#ArialMT-48" x="533.544922"/>
      <use xlink:href="#ArialMT-7a" x="605.761719"/>
      <use xlink:href="#ArialMT-29" x="655.761719"/>
     </g>
    </g>
   </g>
   <g id="matplotlib.axis_2">
    <g id="ytick_1">
     <g id="line2d_7">
      <defs>
       <path id="mcfaab2d54f" d="M 0 0 
L -6 0 
" style="stroke: #262626; stroke-width: 1.25"/>
      </defs>
      <g>
       <use xlink:href="#mcfaab2d54f" x="54" y="242.116364" style="fill: #262626; stroke: #262626; stroke-width: 1.25"/>
      </g>
     </g>
     <g id="text_8">
      <!-- 0 -->
      <g style="fill: #262626" transform="translate(38.382969 246.053161)scale(0.11 -0.11)">
       <use xlink:href="#ArialMT-30"/>
      </g>
     </g>
    </g>
    <g id="ytick_2">
     <g id="line2d_8">
      <g>
       <use xlink:href="#mcfaab2d54f" x="54" y="205.680854" style="fill: #262626; stroke: #262626; stroke-width: 1.25"/>
      </g>
     </g>
     <g id="text_9">
      <!-- 1000 -->
      <g style="fill: #262626" transform="translate(20.031875 209.617651)scale(0.11 -0.11)">
       <use xlink:href="#ArialMT-31"/>
       <use xlink:href="#ArialMT-30" x="55.615234"/>
       <use xlink:href="#ArialMT-30" x="111.230469"/>
       <use xlink:href="#ArialMT-30" x="166.845703"/>
      </g>
     </g>
    </g>
    <g id="ytick_3">
     <g id="line2d_9">
      <g>
       <use xlink:href="#mcfaab2d54f" x="54" y="169.245345" style="fill: #262626; stroke: #262626; stroke-width: 1.25"/>
      </g>
     </g>
     <g id="text_10">
      <!-- 2000 -->
      <g style="fill: #262626" transform="translate(20.031875 173.182141)scale(0.11 -0.11)">
       <use xlink:href="#ArialMT-32"/>
       <use xlink:href="#ArialMT-30" x="55.615234"/>
       <use xlink:href="#ArialMT-30" x="111.230469"/>
       <use xlink:href="#ArialMT-30" x="166.845703"/>
      </g>
     </g>
    </g>
    <g id="ytick_4">
     <g id="line2d_10">
      <g>
       <use xlink:href="#mcfaab2d54f" x="54" y="132.809835" style="fill: #262626; stroke: #262626; stroke-width: 1.25"/>
      </g>
     </g>
     <g id="text_11">
      <!-- 3000 -->
      <g style="fill: #262626" transform="translate(20.031875 136.746632)scale(0.11 -0.11)">
       <defs>
        <path id="ArialMT-33" d="M 269 1209 
L 831 1284 
Q 928 806 1161 595 
Q 1394 384 1728 384 
Q 2125 384 2398 659 
Q 2672 934 2672 1341 
Q 2672 1728 2419 1979 
Q 2166 2231 1775 2231 
Q 1616 2231 1378 2169 
L 1441 2663 
Q 1497 2656 1531 2656 
Q 1891 2656 2178 2843 
Q 2466 3031 2466 3422 
Q 2466 3731 2256 3934 
Q 2047 4138 1716 4138 
Q 1388 4138 1169 3931 
Q 950 3725 888 3313 
L 325 3413 
Q 428 3978 793 4289 
Q 1159 4600 1703 4600 
Q 2078 4600 2393 4439 
Q 2709 4278 2876 4000 
Q 3044 3722 3044 3409 
Q 3044 3113 2884 2869 
Q 2725 2625 2413 2481 
Q 2819 2388 3044 2092 
Q 3269 1797 3269 1353 
Q 3269 753 2831 336 
Q 2394 -81 1725 -81 
Q 1122 -81 723 278 
Q 325 638 269 1209 
z
" transform="scale(0.015625)"/>
       </defs>
       <use xlink:href="#ArialMT-33"/>
       <use xlink:href="#ArialMT-30" x="55.615234"/>
       <use xlink:href="#ArialMT-30" x="111.230469"/>
       <use xlink:href="#ArialMT-30" x="166.845703"/>
      </g>
     </g>
    </g>
    <g id="ytick_5">
     <g id="line2d_11">
      <g>
       <use xlink:href="#mcfaab2d54f" x="54" y="96.374326" style="fill: #262626; stroke: #262626; stroke-width: 1.25"/>
      </g>
     </g>
     <g id="text_12">
      <!-- 4000 -->
      <g style="fill: #262626" transform="translate(20.031875 100.311122)scale(0.11 -0.11)">
       <defs>
        <path id="ArialMT-34" d="M 2069 0 
L 2069 1097 
L 81 1097 
L 81 1613 
L 2172 4581 
L 2631 4581 
L 2631 1613 
L 3250 1613 
L 3250 1097 
L 2631 1097 
L 2631 0 
L 2069 0 
z
M 2069 1613 
L 2069 3678 
L 634 1613 
L 2069 1613 
z
" transform="scale(0.015625)"/>
       </defs>
       <use xlink:href="#ArialMT-34"/>
       <use xlink:href="#ArialMT-30" x="55.615234"/>
       <use xlink:href="#ArialMT-30" x="111.230469"/>
       <use xlink:href="#ArialMT-30" x="166.845703"/>
      </g>
     </g>
    </g>
    <g id="ytick_6">
     <g id="line2d_12">
      <g>
       <use xlink:href="#mcfaab2d54f" x="54" y="59.938816" style="fill: #262626; stroke: #262626; stroke-width: 1.25"/>
      </g>
     </g>
     <g id="text_13">
      <!-- 5000 -->
      <g style="fill: #262626" transform="translate(20.031875 63.875613)scale(0.11 -0.11)">
       <use xlink:href="#ArialMT-35"/>
       <use xlink:href="#ArialMT-30" x="55.615234"/>
       <use xlink:href="#ArialMT-30" x="111.230469"/>
       <use xlink:href="#ArialMT-30" x="166.845703"/>
      </g>
     </g>
    </g>
   </g>
   <g id="line2d_13">
    <path d="M 54 241.972686 
L 159.618377 241.906524 
L 161.669219 241.834544 
L 163.720061 241.956017 
L 165.770904 241.849106 
L 168.847167 241.683321 
L 170.898009 241.867231 
L 171.92343 241.860876 
L 172.948851 241.436336 
L 173.974273 240.785638 
L 174.999694 241.226622 
L 176.025115 241.196853 
L 177.050536 241.657714 
L 179.101378 241.826676 
L 180.126799 240.951596 
L 181.152221 239.54297 
L 182.177642 240.11707 
L 183.203063 240.12577 
L 184.228484 241.669221 
L 185.253905 241.928707 
L 186.279326 241.256208 
L 187.304747 239.825907 
L 188.330168 237.61592 
L 189.35559 236.823273 
L 191.406432 241.958868 
L 192.431853 242.003742 
L 193.457274 240.62516 
L 194.482695 238.221333 
L 195.508116 237.34149 
L 196.533538 240.309186 
L 197.558959 240.007235 
L 198.58438 241.737216 
L 199.609801 240.797272 
L 200.635222 236.126704 
L 201.660643 236.971036 
L 202.686064 234.426006 
L 203.711485 238.941455 
L 204.736907 241.23371 
L 205.762328 241.695452 
L 206.787749 241.73507 
L 207.81317 237.857935 
L 208.838591 237.989369 
L 209.864012 236.001969 
L 210.889433 238.005564 
L 211.914855 241.313655 
L 212.940276 241.944802 
L 213.965697 241.550141 
L 216.016539 234.965859 
L 217.04196 233.093358 
L 218.067381 240.011572 
L 219.092802 239.463462 
L 220.118224 241.805555 
L 221.143645 240.038579 
L 222.169066 235.993186 
L 223.194487 234.463487 
L 224.219908 228.259047 
L 225.245329 232.667391 
L 226.27075 240.00594 
L 227.296172 241.443918 
L 228.321593 240.418224 
L 229.347014 236.918384 
L 230.372435 235.14664 
L 231.397856 235.420577 
L 232.423277 238.884956 
L 233.448698 238.96658 
L 234.474119 240.147696 
L 235.499541 241.13433 
L 236.524962 240.506558 
L 237.550383 239.144994 
L 238.575804 237.299823 
L 239.601225 239.791104 
L 240.626646 241.637054 
L 241.652067 241.798961 
L 242.677489 240.834055 
L 243.70291 239.510032 
L 244.728331 236.524271 
L 245.753752 236.133398 
L 246.779173 238.941474 
L 247.804594 238.618471 
L 248.830015 240.934722 
L 249.855436 241.616862 
L 250.880858 233.999222 
L 251.906279 236.991367 
L 252.9317 237.094787 
L 253.957121 235.340257 
L 254.982542 237.9742 
L 256.007963 242.09776 
L 257.033384 241.843391 
L 258.058806 241.400188 
L 259.084227 239.417338 
L 260.109648 239.382601 
L 261.135069 236.873809 
L 262.16049 239.595918 
L 263.185911 241.740726 
L 264.211332 241.454984 
L 265.236753 238.889964 
L 266.262175 237.726187 
L 267.287596 236.256295 
L 269.338438 237.487139 
L 270.363859 239.365309 
L 271.38928 241.482513 
L 272.414701 241.253864 
L 273.440123 241.423657 
L 274.465544 238.661793 
L 275.490965 234.85929 
L 276.516386 236.194607 
L 277.541807 234.846726 
L 278.567228 240.513652 
L 279.592649 241.599027 
L 280.61807 239.614016 
L 281.643492 240.31385 
L 282.668913 179.202171 
L 283.694334 240.619258 
L 284.719755 238.184495 
L 285.745176 241.988711 
L 286.770597 241.355966 
L 287.796018 241.864842 
L 288.82144 238.167551 
L 289.846861 235.881722 
L 290.872282 241.496009 
L 291.897703 238.990989 
L 292.923124 237.872911 
L 293.948545 240.609501 
L 294.973966 238.402707 
L 295.999387 236.506362 
L 297.024809 237.107395 
L 298.05023 237.845545 
L 300.101072 241.644382 
L 301.126493 241.881605 
L 302.151914 241.753265 
L 303.177335 236.398791 
L 304.202757 241.36527 
L 305.228178 241.269205 
L 306.253599 241.415735 
L 307.27902 241.940437 
L 309.329862 241.047773 
L 310.355283 238.42441 
L 311.380704 238.658999 
L 312.406126 239.017849 
L 313.431547 240.267885 
L 314.456968 240.906202 
L 315.482389 241.137922 
L 316.50781 240.731779 
L 317.533231 240.777889 
L 318.558652 238.999891 
L 319.584074 236.954159 
L 320.609495 239.823251 
L 321.634916 241.639055 
L 323.685758 241.530411 
L 324.711179 241.83242 
L 325.7366 238.832847 
L 326.762021 241.491079 
L 327.787443 239.199077 
L 328.812864 240.441997 
L 329.838285 241.971065 
L 331.889127 241.905439 
L 332.914548 239.777451 
L 333.939969 238.339108 
L 334.965391 238.343435 
L 335.990812 241.355657 
L 337.016233 241.74157 
L 338.041654 241.540745 
L 339.067075 241.504145 
L 340.092496 241.81767 
L 341.117917 239.093821 
L 342.143338 238.626952 
L 343.16876 241.476835 
L 344.194181 241.775876 
L 345.219602 241.037392 
L 346.245023 241.578443 
L 347.270444 241.668267 
L 348.295865 240.639107 
L 350.346708 239.368653 
L 351.372129 241.93134 
L 352.39755 241.874029 
L 353.422971 241.249366 
L 354.448392 241.810698 
L 355.473813 239.468138 
L 356.499234 239.616328 
L 357.524655 239.383336 
L 358.550077 241.156575 
L 359.575498 241.995222 
L 360.600919 240.748683 
L 361.62634 241.739472 
L 363.677182 238.982677 
L 364.702603 239.322093 
L 365.728025 241.493246 
L 367.778867 241.911723 
L 369.829709 241.338538 
L 370.85513 240.632431 
L 371.880551 241.011615 
L 372.905972 241.221969 
L 373.931394 242.065805 
L 374.956815 241.296078 
L 375.982236 240.704538 
L 377.007657 241.284301 
L 378.033078 240.739969 
L 379.058499 239.410058 
L 380.08392 240.049542 
L 381.109342 241.493302 
L 382.134763 242.044916 
L 383.160184 241.636016 
L 384.185605 241.3533 
L 385.211026 242.035206 
L 386.236447 238.386367 
L 387.261868 240.79139 
L 388.287289 241.976505 
L 389.312711 241.739691 
L 390.338132 241.214498 
L 391.363553 241.541693 
L 392.388974 240.130429 
L 393.414395 241.427343 
L 394.439816 241.30674 
L 395.465237 241.686576 
L 397.51608 241.981903 
L 398.541501 240.002542 
L 399.566922 241.043744 
L 400.592343 241.539261 
L 401.617764 240.93687 
L 402.643185 241.753346 
L 404.694028 241.992777 
L 405.719449 240.650554 
L 406.74487 240.087999 
L 407.770291 241.106492 
L 408.795712 241.07538 
L 409.821133 241.854676 
L 410.846554 242.045687 
L 411.871975 241.979127 
L 412.897397 240.562565 
L 413.922818 240.362796 
L 414.948239 240.553047 
L 415.97366 240.552859 
L 416.999081 241.320379 
L 418.024502 241.1199 
L 419.049923 242.076113 
L 420.075345 241.894483 
L 421.100766 240.88549 
L 422.126187 240.042754 
L 423.151608 240.256218 
L 424.177029 240.809413 
L 425.20245 240.105314 
L 426.227871 241.8742 
L 427.253292 240.794451 
L 428.278714 241.108821 
L 429.304135 240.12028 
L 430.329556 239.765466 
L 431.354977 241.33678 
L 432.380398 241.932749 
L 433 241.904216 
M 433 242.116246 
L -1 242.116246 
L -1 242.116246 
" clip-path="url(#p988343412f)" style="fill: none; stroke: #4c72b0; stroke-opacity: 0.3; stroke-width: 1.5; stroke-linecap: round"/>
   </g>
   <g id="line2d_14">
    <path d="M 54 241.990451 
L 161.669219 241.931526 
L 164.745482 241.770871 
L 166.796325 241.808369 
L 167.821746 241.599797 
L 169.872588 241.798413 
L 171.92343 241.593591 
L 173.974273 241.62284 
L 176.025115 241.441359 
L 177.050536 241.087123 
L 178.075957 240.901951 
L 179.101378 241.354051 
L 180.126799 241.110682 
L 181.152221 241.473405 
L 183.203063 241.436313 
L 184.228484 240.579419 
L 186.279326 240.959213 
L 187.304747 241.605695 
L 188.330168 240.911907 
L 189.35559 240.97712 
L 190.381011 239.760149 
L 191.406432 240.021453 
L 192.431853 239.209702 
L 193.457274 240.263653 
L 194.482695 241.583427 
L 195.508116 241.554933 
L 196.533538 241.331399 
L 197.558959 240.520162 
L 198.58438 240.943831 
L 199.609801 240.360847 
L 201.660643 239.701223 
L 202.686064 239.760176 
L 203.711485 241.059878 
L 204.736907 240.089851 
L 205.762328 239.367839 
L 206.787749 240.831667 
L 207.81317 240.353077 
L 208.838591 241.48108 
L 209.864012 240.278622 
L 210.889433 238.419446 
L 211.914855 239.694361 
L 212.940276 237.656536 
L 213.965697 240.018467 
L 214.991118 240.360472 
L 216.016539 241.553559 
L 217.04196 239.911385 
L 218.067381 241.35511 
L 220.118224 239.07648 
L 221.143645 238.281398 
L 222.169066 240.949541 
L 223.194487 240.842975 
L 224.219908 240.893469 
L 225.245329 240.781752 
L 226.27075 238.499082 
L 227.296172 237.220257 
L 228.321593 238.962991 
L 229.347014 239.728655 
L 231.397856 241.984013 
L 232.423277 240.835386 
L 233.448698 240.415399 
L 234.474119 236.545132 
L 235.499541 239.324074 
L 236.524962 240.635745 
L 237.550383 240.888122 
L 238.575804 241.852314 
L 239.601225 241.859518 
L 240.626646 240.850557 
L 241.652067 239.574241 
L 242.677489 240.924295 
L 243.70291 239.030206 
L 244.728331 239.185062 
L 246.779173 241.58129 
L 247.804594 239.19574 
L 248.830015 240.333303 
L 249.855436 240.056018 
L 250.880858 240.180497 
L 251.906279 240.57871 
L 252.9317 240.621879 
L 253.957121 241.703372 
L 254.982542 240.508101 
L 256.007963 239.784608 
L 257.033384 239.707708 
L 258.058806 240.394867 
L 259.084227 240.629857 
L 260.109648 241.082253 
L 261.135069 241.225732 
L 262.16049 241.689436 
L 263.185911 239.567741 
L 264.211332 240.44178 
L 265.236753 240.474944 
L 266.262175 241.907948 
L 267.287596 241.683141 
L 268.313017 241.94004 
L 269.338438 241.25543 
L 270.363859 241.407899 
L 271.38928 240.011329 
L 272.414701 240.454776 
L 273.440123 241.625014 
L 274.465544 240.30803 
L 275.490965 241.5204 
L 277.541807 240.440807 
L 278.567228 241.631132 
L 279.592649 239.958457 
L 280.61807 240.150218 
L 281.643492 241.853891 
L 282.668913 226.391761 
L 283.694334 239.327016 
L 284.719755 237.352415 
L 285.745176 239.075825 
L 286.770597 240.288121 
L 287.796018 238.118014 
L 289.846861 241.80176 
L 290.872282 240.331749 
L 291.897703 240.183529 
L 292.923124 238.916797 
L 294.973966 242.06755 
L 295.999387 241.95866 
L 297.024809 242.068053 
L 298.05023 241.908105 
L 299.075651 240.335553 
L 300.101072 239.643953 
L 301.126493 240.976107 
L 302.151914 240.696157 
L 303.177335 241.958366 
L 304.202757 240.783466 
L 305.228178 241.624122 
L 306.253599 241.26025 
L 307.27902 241.343381 
L 308.304441 241.907166 
L 309.329862 241.241358 
L 310.355283 241.70091 
L 311.380704 241.507167 
L 313.431547 241.974715 
L 314.456968 241.17902 
L 315.482389 241.149346 
L 318.558652 241.606236 
L 319.584074 241.923844 
L 320.609495 240.482001 
L 321.634916 241.418132 
L 322.660337 241.752126 
L 323.685758 240.2486 
L 324.711179 241.632426 
L 325.7366 240.396496 
L 326.762021 241.592564 
L 327.787443 241.782717 
L 328.812864 239.022994 
L 329.838285 240.435048 
L 330.863706 241.606283 
L 331.889127 240.762883 
L 332.914548 242.06786 
L 333.939969 241.916105 
L 334.965391 241.978816 
L 335.990812 240.738215 
L 337.016233 241.656437 
L 338.041654 241.571202 
L 339.067075 241.240097 
L 340.092496 241.846809 
L 342.143338 241.766543 
L 344.194181 240.920947 
L 345.219602 240.95676 
L 346.245023 240.649449 
L 347.270444 241.887991 
L 349.321286 241.671931 
L 350.346708 241.570782 
L 351.372129 241.208377 
L 352.39755 241.138096 
L 353.422971 241.45471 
L 354.448392 241.221414 
L 355.473813 242.002323 
L 356.499234 241.817174 
L 357.524655 241.482748 
L 358.550077 240.880224 
L 359.575498 241.922954 
L 360.600919 240.928544 
L 361.62634 240.966251 
L 362.651761 241.746358 
L 363.677182 241.623916 
L 365.728025 242.060879 
L 366.753446 241.647731 
L 367.778867 240.856763 
L 368.804288 241.470813 
L 369.829709 240.65021 
L 370.85513 241.676077 
L 371.880551 242.029142 
L 372.905972 241.002618 
L 373.931394 241.210622 
L 374.956815 240.998072 
L 375.982236 242.099007 
L 378.033078 241.661162 
L 379.058499 242.015419 
L 380.08392 241.50502 
L 381.109342 241.912081 
L 382.134763 241.854617 
L 383.160184 240.48261 
L 384.185605 241.768352 
L 385.211026 241.507819 
L 386.236447 241.726303 
L 388.287289 241.91502 
L 389.312711 238.774833 
L 390.338132 240.612242 
L 391.363553 241.413997 
L 392.388974 241.233325 
L 393.414395 241.96319 
L 394.439816 241.005674 
L 395.465237 241.43146 
L 396.490658 241.632751 
L 397.51608 240.944282 
L 398.541501 240.642002 
L 399.566922 240.960503 
L 400.592343 241.520243 
L 401.617764 241.722648 
L 402.643185 241.289909 
L 403.668606 241.275841 
L 404.694028 241.642756 
L 405.719449 241.508222 
L 408.795712 241.938113 
L 409.821133 242.05032 
L 410.846554 240.143972 
L 411.871975 241.592125 
L 412.897397 241.799432 
L 413.922818 239.532193 
L 414.948239 241.074685 
L 415.97366 241.590806 
L 418.024502 242.052002 
L 419.049923 241.9996 
L 420.075345 241.410966 
L 421.100766 240.106239 
L 422.126187 241.943843 
L 423.151608 241.826929 
L 424.177029 241.106061 
L 425.20245 242.09796 
L 426.227871 242.031886 
L 427.253292 241.218886 
L 428.278714 241.279861 
L 429.304135 241.453785 
L 430.329556 241.783314 
L 431.354977 241.850047 
L 433 242.043 
M 433 242.116249 
L -1 242.116249 
L -1 242.116249 
" clip-path="url(#p988343412f)" style="fill: none; stroke: #dd8452; stroke-opacity: 0.3; stroke-width: 1.5; stroke-linecap: round"/>
   </g>
   <g id="line2d_15">
    <path d="M 54 242.116364 
L 433 242.116364 
M 433 242.116364 
L -1 242.116364 
L -1 242.116364 
" clip-path="url(#p988343412f)" style="fill: none; stroke: #55a868; stroke-opacity: 0.3; stroke-width: 1.5; stroke-linecap: round"/>
   </g>
   <g id="line2d_16">
    <path d="M 54 241.964393 
L 161.669219 241.885218 
L 164.745482 241.747742 
L 166.796325 241.834094 
L 168.847167 241.819496 
L 169.872588 241.585777 
L 170.898009 241.718328 
L 171.92343 241.532409 
L 172.948851 241.865981 
L 174.999694 241.381886 
L 176.025115 241.23419 
L 177.050536 240.789601 
L 180.126799 241.843741 
L 181.152221 240.973794 
L 182.177642 240.288519 
L 183.203063 240.61201 
L 184.228484 240.248862 
L 185.253905 241.199451 
L 187.304747 241.505513 
L 188.330168 239.159716 
L 189.35559 240.190283 
L 191.406432 239.033981 
L 192.431853 241.059577 
L 194.482695 241.701302 
L 195.508116 239.644295 
L 196.533538 240.330313 
L 197.558959 239.729756 
L 198.58438 237.884044 
L 199.609801 241.44483 
L 201.660643 240.836303 
L 202.686064 239.861255 
L 203.711485 238.424018 
L 204.736907 239.800409 
L 205.762328 240.522458 
L 206.787749 239.221725 
L 207.81317 240.982085 
L 208.838591 237.930113 
L 209.864012 238.460295 
L 210.889433 236.920101 
L 211.914855 237.878835 
L 212.940276 237.800666 
L 213.965697 240.690951 
L 214.991118 241.083566 
L 216.016539 239.677758 
L 217.04196 241.185555 
L 218.067381 236.886645 
L 219.092802 239.481395 
L 220.118224 239.376347 
L 221.143645 241.145961 
L 222.169066 240.114611 
L 223.194487 240.22334 
L 224.219908 239.727088 
L 225.245329 238.992334 
L 227.296172 238.746069 
L 228.321593 240.964561 
L 229.347014 241.964776 
L 230.372435 241.188624 
L 231.397856 239.257044 
L 232.423277 236.691286 
L 233.448698 237.441577 
L 234.474119 240.747819 
L 235.499541 241.591502 
L 236.524962 239.877823 
L 237.550383 240.19434 
L 238.575804 235.80382 
L 239.601225 235.857701 
L 240.626646 236.565601 
L 241.652067 238.53659 
L 242.677489 241.591427 
L 243.70291 241.538196 
L 244.728331 240.519355 
L 245.753752 239.690928 
L 246.779173 236.692335 
L 247.804594 238.149665 
L 248.830015 240.315458 
L 249.855436 241.121535 
L 250.880858 241.60291 
L 251.906279 239.169026 
L 252.9317 234.60272 
L 253.957121 235.581424 
L 254.982542 235.112388 
L 256.007963 238.178445 
L 257.033384 240.633787 
L 258.058806 241.947693 
L 259.084227 240.76758 
L 260.109648 240.711849 
L 261.135069 238.652553 
L 262.16049 235.319586 
L 263.185911 240.238946 
L 264.211332 239.590194 
L 265.236753 240.13806 
L 266.262175 238.694248 
L 267.287596 240.139363 
L 268.313017 237.077043 
L 269.338438 237.166223 
L 270.363859 239.168311 
L 271.38928 240.781588 
L 272.414701 241.567214 
L 273.440123 240.033711 
L 274.465544 237.945815 
L 275.490965 230.999096 
L 276.516386 234.201508 
L 277.541807 227.914994 
L 278.567228 240.194874 
L 279.592649 241.388547 
L 280.61807 241.132758 
L 281.643492 226.750847 
L 282.668913 109.578026 
L 283.694334 233.799058 
L 284.719755 230.471589 
L 285.745176 239.734243 
L 286.770597 239.703297 
L 288.82144 241.975016 
L 289.846861 240.212439 
L 290.872282 241.2238 
L 291.897703 241.766935 
L 292.923124 241.139002 
L 293.948545 239.464752 
L 294.973966 238.810651 
L 295.999387 239.575878 
L 297.024809 236.108003 
L 298.05023 241.007015 
L 299.075651 241.704885 
L 300.101072 241.023375 
L 301.126493 241.87319 
L 302.151914 241.056027 
L 303.177335 237.132547 
L 304.202757 239.079806 
L 305.228178 240.550848 
L 306.253599 241.109067 
L 307.27902 239.068873 
L 308.304441 242.087034 
L 309.329862 240.952189 
L 310.355283 239.504051 
L 311.380704 240.508818 
L 312.406126 239.553656 
L 313.431547 242.017563 
L 314.456968 241.254051 
L 315.482389 241.80838 
L 316.50781 238.830461 
L 317.533231 240.595966 
L 318.558652 240.381554 
L 319.584074 241.360761 
L 320.609495 241.712669 
L 321.634916 241.904682 
L 322.660337 241.598718 
L 323.685758 241.704757 
L 324.711179 240.773335 
L 325.7366 239.048806 
L 326.762021 239.067806 
L 327.787443 239.88219 
L 328.812864 241.647849 
L 329.838285 241.971125 
L 330.863706 241.721692 
L 331.889127 241.184987 
L 332.914548 239.402064 
L 333.939969 241.942437 
L 334.965391 240.183366 
L 335.990812 240.477289 
L 337.016233 241.912308 
L 338.041654 241.783739 
L 340.092496 241.990352 
L 341.117917 241.61529 
L 342.143338 240.60036 
L 343.16876 240.781695 
L 345.219602 241.961611 
L 346.245023 241.95982 
L 348.295865 241.226891 
L 349.321286 241.030426 
L 350.346708 240.97399 
L 351.372129 241.918902 
L 352.39755 242.052166 
L 353.422971 241.789105 
L 354.448392 240.581591 
L 355.473813 240.958216 
L 356.499234 240.921332 
L 357.524655 241.941768 
L 358.550077 241.47313 
L 359.575498 240.635623 
L 360.600919 241.610535 
L 361.62634 240.6788 
L 362.651761 241.384799 
L 363.677182 240.94077 
L 364.702603 241.239125 
L 365.728025 242.032857 
L 366.753446 241.867315 
L 367.778867 241.975751 
L 368.804288 241.912166 
L 369.829709 241.089613 
L 370.85513 240.999027 
L 371.880551 241.677018 
L 372.905972 241.769463 
L 373.931394 241.664929 
L 374.956815 239.759219 
L 375.982236 242.055008 
L 377.007657 240.665717 
L 378.033078 241.897597 
L 379.058499 240.850084 
L 380.08392 241.878921 
L 381.109342 241.867268 
L 382.134763 241.380819 
L 385.211026 241.639088 
L 386.236447 241.194108 
L 387.261868 241.674049 
L 388.287289 240.26899 
L 389.312711 241.757036 
L 390.338132 241.898995 
L 391.363553 241.408775 
L 392.388974 241.500701 
L 393.414395 241.172741 
L 394.439816 241.838934 
L 395.465237 241.621011 
L 396.490658 241.639154 
L 398.541501 241.828211 
L 400.592343 240.943359 
L 401.617764 241.574597 
L 402.643185 241.795237 
L 403.668606 241.593173 
L 404.694028 241.914005 
L 405.719449 241.791475 
L 406.74487 241.540235 
L 407.770291 241.932002 
L 408.795712 241.431318 
L 409.821133 240.279889 
L 410.846554 241.935727 
L 412.897397 241.602127 
L 413.922818 241.70463 
L 414.948239 240.946427 
L 415.97366 241.576302 
L 416.999081 241.693946 
L 418.024502 240.889136 
L 419.049923 242.062551 
L 420.075345 241.988113 
L 421.100766 241.133925 
L 422.126187 241.866372 
L 423.151608 241.007986 
L 424.177029 240.838315 
L 425.20245 241.048785 
L 426.227871 242.102112 
L 427.253292 242.060978 
L 428.278714 241.276102 
L 429.304135 241.775303 
L 430.329556 241.358801 
L 431.354977 241.145155 
L 432.380398 241.882987 
L 433 241.69917 
M 433 242.116252 
L -1 242.116252 
L -1 242.116252 
" clip-path="url(#p988343412f)" style="fill: none; stroke: #c44e52; stroke-opacity: 0.3; stroke-width: 1.5; stroke-linecap: round"/>
   </g>
   <g id="line2d_17">
    <path d="M 54 241.981502 
L 161.669219 241.916586 
L 167.821746 241.624958 
L 168.847167 241.88719 
L 169.872588 241.633051 
L 170.898009 241.661927 
L 171.92343 241.498405 
L 174.999694 241.456601 
L 176.025115 241.035651 
L 177.050536 240.823109 
L 178.075957 240.940861 
L 179.101378 240.586731 
L 180.126799 240.689593 
L 181.152221 241.28637 
L 183.203063 240.897269 
L 184.228484 240.293376 
L 186.279326 240.992241 
L 187.304747 240.46817 
L 188.330168 241.084005 
L 189.35559 241.517244 
L 191.406432 239.309143 
L 192.431853 241.492208 
L 194.482695 241.091819 
L 195.508116 241.180652 
L 196.533538 239.906505 
L 197.558959 240.209275 
L 198.58438 239.314373 
L 199.609801 241.304525 
L 200.635222 241.811356 
L 201.660643 241.86491 
L 202.686064 241.497309 
L 203.711485 239.11497 
L 204.736907 240.30937 
L 205.762328 240.087811 
L 206.787749 240.583007 
L 207.81317 241.313357 
L 208.838591 238.312328 
L 209.864012 236.319622 
L 210.889433 238.074838 
L 211.914855 237.200084 
L 212.940276 238.026328 
L 213.965697 236.090705 
L 214.991118 240.930778 
L 216.016539 239.697373 
L 217.04196 240.323987 
L 218.067381 238.936984 
L 219.092802 237.737446 
L 220.118224 239.130301 
L 221.143645 238.17122 
L 222.169066 241.575081 
L 223.194487 240.079229 
L 224.219908 238.928528 
L 226.27075 240.253462 
L 227.296172 241.919731 
L 228.321593 240.766396 
L 229.347014 241.596767 
L 230.372435 241.796357 
L 231.397856 240.800696 
L 232.423277 241.36285 
L 233.448698 241.293841 
L 234.474119 240.331682 
L 235.499541 239.527649 
L 236.524962 240.539861 
L 237.550383 240.676914 
L 238.575804 239.652637 
L 239.601225 239.654733 
L 240.626646 238.172675 
L 241.652067 233.007711 
L 242.677489 241.372915 
L 243.70291 238.485938 
L 244.728331 239.290919 
L 245.753752 239.459873 
L 246.779173 237.763593 
L 247.804594 237.887051 
L 248.830015 240.140356 
L 249.855436 241.474729 
L 250.880858 241.385004 
L 251.906279 237.588572 
L 252.9317 241.09828 
L 253.957121 240.841241 
L 254.982542 240.195777 
L 256.007963 241.186383 
L 257.033384 241.629478 
L 258.058806 239.768178 
L 259.084227 238.894891 
L 260.109648 238.581963 
L 261.135069 240.27742 
L 262.16049 239.780818 
L 263.185911 239.437994 
L 264.211332 241.878514 
L 265.236753 240.918649 
L 266.262175 241.308326 
L 267.287596 239.956249 
L 268.313017 239.568235 
L 269.338438 241.175861 
L 270.363859 241.839121 
L 271.38928 241.426612 
L 272.414701 240.4328 
L 274.465544 234.033998 
L 275.490965 230.88055 
L 276.516386 236.379555 
L 277.541807 235.570383 
L 278.567228 240.383303 
L 279.592649 236.452015 
L 280.61807 237.850411 
L 281.643492 217.737651 
L 282.668913 44.443636 
L 283.694334 216.666337 
L 284.719755 218.703643 
L 285.745176 234.918161 
L 286.770597 232.300486 
L 287.796018 226.40662 
L 288.82144 232.344204 
L 289.846861 226.692216 
L 290.872282 227.04395 
L 291.897703 237.553213 
L 292.923124 241.833413 
L 293.948545 241.842269 
L 294.973966 241.993389 
L 295.999387 241.696687 
L 297.024809 239.843277 
L 298.05023 239.234019 
L 299.075651 240.35091 
L 300.101072 241.991364 
L 301.126493 240.890286 
L 302.151914 241.801504 
L 303.177335 240.539987 
L 304.202757 239.953143 
L 305.228178 241.74455 
L 306.253599 242.040905 
L 307.27902 241.900654 
L 308.304441 240.976861 
L 309.329862 241.07107 
L 310.355283 237.418406 
L 311.380704 239.849654 
L 312.406126 241.902077 
L 313.431547 241.361946 
L 314.456968 242.035618 
L 315.482389 241.772553 
L 316.50781 238.254336 
L 317.533231 240.571232 
L 318.558652 241.028614 
L 319.584074 241.285072 
L 320.609495 239.556648 
L 321.634916 240.92748 
L 322.660337 240.260864 
L 323.685758 236.75684 
L 324.711179 241.005912 
L 325.7366 240.05006 
L 326.762021 239.513348 
L 327.787443 240.453018 
L 328.812864 241.633079 
L 329.838285 241.676271 
L 330.863706 241.043605 
L 331.889127 241.990454 
L 332.914548 241.125948 
L 333.939969 239.867636 
L 335.990812 242.092893 
L 338.041654 241.608745 
L 339.067075 240.720245 
L 340.092496 240.308144 
L 341.117917 240.51027 
L 342.143338 241.062368 
L 343.16876 242.066782 
L 344.194181 241.735009 
L 345.219602 241.966454 
L 346.245023 241.451339 
L 347.270444 240.156024 
L 348.295865 241.758543 
L 350.346708 241.975262 
L 351.372129 241.49139 
L 352.39755 241.391543 
L 353.422971 240.621886 
L 354.448392 241.063402 
L 355.473813 238.942434 
L 356.499234 240.818141 
L 358.550077 240.432592 
L 359.575498 241.945665 
L 361.62634 240.924103 
L 362.651761 241.177733 
L 363.677182 241.758333 
L 366.753446 241.121771 
L 367.778867 240.07358 
L 368.804288 241.895063 
L 369.829709 241.505005 
L 370.85513 240.482857 
L 371.880551 241.903571 
L 372.905972 239.89432 
L 373.931394 242.077498 
L 377.007657 241.743973 
L 378.033078 240.872654 
L 379.058499 241.957647 
L 380.08392 241.669254 
L 381.109342 241.92924 
L 383.160184 241.611257 
L 384.185605 239.751526 
L 386.236447 242.004787 
L 387.261868 241.713714 
L 388.287289 242.013981 
L 390.338132 240.661743 
L 392.388974 240.782278 
L 393.414395 241.980104 
L 394.439816 242.081044 
L 395.465237 242.064477 
L 396.490658 240.937836 
L 397.51608 241.540165 
L 400.592343 240.783879 
L 401.617764 241.785855 
L 403.668606 242.015395 
L 404.694028 241.324212 
L 405.719449 240.264102 
L 406.74487 241.83229 
L 407.770291 240.431339 
L 408.795712 241.86659 
L 409.821133 242.007699 
L 410.846554 241.671539 
L 412.897397 241.728006 
L 413.922818 241.045133 
L 414.948239 241.990808 
L 415.97366 241.936979 
L 416.999081 242.07549 
L 418.024502 241.254691 
L 419.049923 242.006933 
L 420.075345 241.230496 
L 421.100766 241.801717 
L 423.151608 240.124015 
L 424.177029 241.832548 
L 425.20245 242.002871 
L 427.253292 241.439741 
L 429.304135 241.487713 
L 430.329556 241.178931 
L 431.354977 241.732604 
L 432.380398 242.00085 
L 433 241.810708 
M 433 242.116245 
L -1 242.116245 
L -1 242.116245 
" clip-path="url(#p988343412f)" style="fill: none; stroke: #8172b3; stroke-opacity: 0.3; stroke-width: 1.5; stroke-linecap: round"/>
   </g>
   <g id="line2d_18">
    <path d="M 54 242.116364 
L 433 242.116364 
M 433 242.116364 
L -1 242.116364 
L -1 242.116364 
" clip-path="url(#p988343412f)" style="fill: none; stroke: #937860; stroke-opacity: 0.3; stroke-width: 1.5; stroke-linecap: round"/>
   </g>
   <g id="line2d_19">
    <path d="M 54 241.990961 
L 161.669219 241.94671 
L 162.69464 241.844057 
L 163.720061 241.915233 
L 166.796325 241.763459 
L 167.821746 241.596185 
L 168.847167 241.734158 
L 169.872588 241.661685 
L 170.898009 241.736077 
L 171.92343 241.694692 
L 172.948851 241.503609 
L 173.974273 241.511885 
L 174.999694 241.749234 
L 176.025115 241.560046 
L 177.050536 241.628548 
L 181.152221 240.897869 
L 182.177642 240.939315 
L 183.203063 241.268605 
L 184.228484 241.312936 
L 185.253905 241.605508 
L 186.279326 241.238273 
L 187.304747 240.623026 
L 188.330168 240.349707 
L 189.35559 239.148862 
L 190.381011 238.723798 
L 191.406432 240.158266 
L 192.431853 240.759046 
L 193.457274 240.769442 
L 194.482695 240.946573 
L 196.533538 239.201766 
L 197.558959 240.616288 
L 198.58438 240.281693 
L 199.609801 241.115158 
L 200.635222 241.003037 
L 202.686064 238.744916 
L 203.711485 237.86952 
L 204.736907 240.417733 
L 205.762328 241.981021 
L 206.787749 241.768445 
L 207.81317 240.367088 
L 208.838591 233.537121 
L 209.864012 237.026689 
L 210.889433 239.781119 
L 211.914855 241.045986 
L 212.940276 241.134328 
L 213.965697 242.031761 
L 214.991118 239.968845 
L 216.016539 236.685395 
L 217.04196 238.595633 
L 219.092802 241.11635 
L 220.118224 240.726365 
L 221.143645 240.075792 
L 222.169066 238.168055 
L 223.194487 239.366659 
L 224.219908 237.097374 
L 225.245329 238.917676 
L 226.27075 241.116377 
L 227.296172 241.654285 
L 228.321593 240.712242 
L 229.347014 239.53916 
L 230.372435 240.412836 
L 231.397856 239.036927 
L 232.423277 241.584031 
L 233.448698 241.949981 
L 234.474119 240.888342 
L 235.499541 236.930933 
L 236.524962 235.978144 
L 237.550383 240.35567 
L 239.601225 239.505114 
L 240.626646 242.090607 
L 241.652067 241.949745 
L 242.677489 240.509048 
L 243.70291 237.153831 
L 244.728331 238.042032 
L 245.753752 236.879495 
L 246.779173 240.556201 
L 247.804594 240.966851 
L 248.830015 241.813661 
L 249.855436 239.545203 
L 250.880858 238.623622 
L 251.906279 238.505556 
L 252.9317 240.606079 
L 253.957121 240.607855 
L 254.982542 241.874872 
L 256.007963 239.464899 
L 257.033384 239.867854 
L 258.058806 237.13121 
L 259.084227 239.498042 
L 260.109648 239.813383 
L 262.16049 241.826034 
L 263.185911 242.006078 
L 264.211332 240.949333 
L 265.236753 239.296019 
L 266.262175 236.953802 
L 267.287596 240.125606 
L 268.313017 241.059788 
L 270.363859 241.833897 
L 271.38928 241.586506 
L 272.414701 237.164072 
L 273.440123 240.541843 
L 274.465544 240.100857 
L 275.490965 241.813469 
L 276.516386 241.84102 
L 278.567228 238.95483 
L 279.592649 239.699024 
L 280.61807 240.147411 
L 281.643492 241.295229 
L 282.668913 235.685985 
L 283.694334 240.992337 
L 284.719755 239.331229 
L 285.745176 241.621151 
L 286.770597 241.828236 
L 287.796018 240.686833 
L 288.82144 240.693895 
L 289.846861 239.818461 
L 290.872282 241.191118 
L 291.897703 239.583089 
L 292.923124 238.739099 
L 293.948545 240.405973 
L 294.973966 241.610741 
L 295.999387 242.006683 
L 299.075651 241.970764 
L 300.101072 238.00419 
L 301.126493 241.074747 
L 302.151914 239.767256 
L 304.202757 241.97654 
L 305.228178 241.881485 
L 306.253599 240.970491 
L 307.27902 241.859681 
L 308.304441 241.538814 
L 309.329862 241.728024 
L 310.355283 241.028866 
L 311.380704 241.802759 
L 312.406126 241.587606 
L 313.431547 241.823913 
L 314.456968 241.293339 
L 315.482389 241.618096 
L 316.50781 240.702716 
L 317.533231 241.760487 
L 318.558652 241.269872 
L 319.584074 240.300452 
L 321.634916 241.609078 
L 322.660337 240.359612 
L 323.685758 241.55424 
L 324.711179 241.576768 
L 325.7366 239.643176 
L 326.762021 241.017981 
L 327.787443 241.530534 
L 328.812864 241.874959 
L 329.838285 242.013669 
L 330.863706 241.351396 
L 331.889127 241.632047 
L 332.914548 240.671509 
L 333.939969 241.92013 
L 334.965391 241.620337 
L 335.990812 241.011895 
L 338.041654 242.065572 
L 339.067075 241.015561 
L 340.092496 240.654507 
L 341.117917 240.695202 
L 342.143338 241.353311 
L 343.16876 241.066859 
L 344.194181 241.433996 
L 345.219602 241.266126 
L 346.245023 240.917494 
L 347.270444 241.223719 
L 348.295865 240.34335 
L 349.321286 240.742152 
L 350.346708 241.449818 
L 351.372129 241.000422 
L 352.39755 241.693988 
L 353.422971 241.72635 
L 354.448392 240.854137 
L 355.473813 241.245397 
L 356.499234 241.941298 
L 357.524655 241.576354 
L 358.550077 241.396784 
L 359.575498 241.836738 
L 361.62634 240.861022 
L 362.651761 241.037511 
L 363.677182 242.075569 
L 364.702603 240.672619 
L 365.728025 242.098445 
L 366.753446 241.560327 
L 367.778867 241.532797 
L 368.804288 240.794201 
L 369.829709 241.822979 
L 370.85513 241.584142 
L 371.880551 240.44826 
L 372.905972 241.770843 
L 373.931394 241.997735 
L 374.956815 241.630209 
L 375.982236 241.106203 
L 377.007657 242.042966 
L 378.033078 241.61904 
L 379.058499 241.701242 
L 380.08392 241.124791 
L 381.109342 242.022535 
L 382.134763 241.81255 
L 383.160184 240.861586 
L 384.185605 241.55199 
L 385.211026 241.548056 
L 386.236447 239.788541 
L 387.261868 241.725554 
L 388.287289 241.898712 
L 390.338132 241.861539 
L 391.363553 241.500314 
L 393.414395 241.688672 
L 394.439816 241.213542 
L 395.465237 241.799819 
L 396.490658 242.084795 
L 397.51608 242.061619 
L 398.541501 241.290417 
L 399.566922 240.995478 
L 400.592343 241.756965 
L 401.617764 242.069553 
L 402.643185 241.7999 
L 403.668606 241.193511 
L 404.694028 241.876219 
L 405.719449 241.249356 
L 406.74487 241.004761 
L 408.795712 242.020179 
L 409.821133 241.676794 
L 410.846554 241.531562 
L 411.871975 241.789487 
L 412.897397 241.295476 
L 413.922818 241.701835 
L 414.948239 240.590219 
L 416.999081 241.902395 
L 418.024502 242.079887 
L 419.049923 241.848387 
L 420.075345 239.88255 
L 421.100766 241.72115 
L 422.126187 241.241098 
L 423.151608 241.718842 
L 424.177029 241.84383 
L 425.20245 241.80805 
L 426.227871 241.475778 
L 427.253292 242.044155 
L 429.304135 240.667231 
L 430.329556 241.904873 
L 431.354977 241.87254 
L 432.380398 240.973991 
L 433 241.639067 
M 433 242.116239 
L -1 242.116239 
L -1 242.116239 
" clip-path="url(#p988343412f)" style="fill: none; stroke: #da8bc3; stroke-opacity: 0.3; stroke-width: 1.5; stroke-linecap: round"/>
   </g>
   <g id="patch_3">
    <path d="M 54 252 
L 54 34.56 
" style="fill: none; stroke: #262626; stroke-width: 1.25; stroke-linejoin: miter; stroke-linecap: square"/>
   </g>
   <g id="patch_4">
    <path d="M 388.8 252 
L 388.8 34.56 
" style="fill: none; stroke: #262626; stroke-width: 1.25; stroke-linejoin: miter; stroke-linecap: square"/>
   </g>
   <g id="patch_5">
    <path d="M 54 252 
L 388.8 252 
" style="fill: none; stroke: #262626; stroke-width: 1.25; stroke-linejoin: miter; stroke-linecap: square"/>
   </g>
   <g id="patch_6">
    <path d="M 54 34.56 
L 388.8 34.56 
" style="fill: none; stroke: #262626; stroke-width: 1.25; stroke-linejoin: miter; stroke-linecap: square"/>
   </g>
   <g id="text_14">
    <!-- patient06_app08 - Power spectrum -->
    <g style="fill: #262626" transform="translate(128.0175 28.56)scale(0.12 -0.12)">
     <defs>
      <path id="ArialMT-70" d="M 422 -1272 
L 422 3319 
L 934 3319 
L 934 2888 
Q 1116 3141 1344 3267 
Q 1572 3394 1897 3394 
Q 2322 3394 2647 3175 
Q 2972 2956 3137 2557 
Q 3303 2159 3303 1684 
Q 3303 1175 3120 767 
Q 2938 359 2589 142 
Q 2241 -75 1856 -75 
Q 1575 -75 1351 44 
Q 1128 163 984 344 
L 984 -1272 
L 422 -1272 
z
M 931 1641 
Q 931 1000 1190 694 
Q 1450 388 1819 388 
Q 2194 388 2461 705 
Q 2728 1022 2728 1688 
Q 2728 2322 2467 2637 
Q 2206 2953 1844 2953 
Q 1484 2953 1207 2617 
Q 931 2281 931 1641 
z
" transform="scale(0.015625)"/>
      <path id="ArialMT-61" d="M 2588 409 
Q 2275 144 1986 34 
Q 1697 -75 1366 -75 
Q 819 -75 525 192 
Q 231 459 231 875 
Q 231 1119 342 1320 
Q 453 1522 633 1644 
Q 813 1766 1038 1828 
Q 1203 1872 1538 1913 
Q 2219 1994 2541 2106 
Q 2544 2222 2544 2253 
Q 2544 2597 2384 2738 
Q 2169 2928 1744 2928 
Q 1347 2928 1158 2789 
Q 969 2650 878 2297 
L 328 2372 
Q 403 2725 575 2942 
Q 747 3159 1072 3276 
Q 1397 3394 1825 3394 
Q 2250 3394 2515 3294 
Q 2781 3194 2906 3042 
Q 3031 2891 3081 2659 
Q 3109 2516 3109 2141 
L 3109 1391 
Q 3109 606 3145 398 
Q 3181 191 3288 0 
L 2700 0 
Q 2613 175 2588 409 
z
M 2541 1666 
Q 2234 1541 1622 1453 
Q 1275 1403 1131 1340 
Q 988 1278 909 1158 
Q 831 1038 831 891 
Q 831 666 1001 516 
Q 1172 366 1500 366 
Q 1825 366 2078 508 
Q 2331 650 2450 897 
Q 2541 1088 2541 1459 
L 2541 1666 
z
" transform="scale(0.015625)"/>
      <path id="ArialMT-74" d="M 1650 503 
L 1731 6 
Q 1494 -44 1306 -44 
Q 1000 -44 831 53 
Q 663 150 594 308 
Q 525 466 525 972 
L 525 2881 
L 113 2881 
L 113 3319 
L 525 3319 
L 525 4141 
L 1084 4478 
L 1084 3319 
L 1650 3319 
L 1650 2881 
L 1084 2881 
L 1084 941 
Q 1084 700 1114 631 
Q 1144 563 1211 522 
Q 1278 481 1403 481 
Q 1497 481 1650 503 
z
" transform="scale(0.015625)"/>
      <path id="ArialMT-69" d="M 425 3934 
L 425 4581 
L 988 4581 
L 988 3934 
L 425 3934 
z
M 425 0 
L 425 3319 
L 988 3319 
L 988 0 
L 425 0 
z
" transform="scale(0.015625)"/>
      <path id="ArialMT-36" d="M 3184 3459 
L 2625 3416 
Q 2550 3747 2413 3897 
Q 2184 4138 1850 4138 
Q 1581 4138 1378 3988 
Q 1113 3794 959 3422 
Q 806 3050 800 2363 
Q 1003 2672 1297 2822 
Q 1591 2972 1913 2972 
Q 2475 2972 2870 2558 
Q 3266 2144 3266 1488 
Q 3266 1056 3080 686 
Q 2894 316 2569 119 
Q 2244 -78 1831 -78 
Q 1128 -78 684 439 
Q 241 956 241 2144 
Q 241 3472 731 4075 
Q 1159 4600 1884 4600 
Q 2425 4600 2770 4297 
Q 3116 3994 3184 3459 
z
M 888 1484 
Q 888 1194 1011 928 
Q 1134 663 1356 523 
Q 1578 384 1822 384 
Q 2178 384 2434 671 
Q 2691 959 2691 1453 
Q 2691 1928 2437 2201 
Q 2184 2475 1800 2475 
Q 1419 2475 1153 2201 
Q 888 1928 888 1484 
z
" transform="scale(0.015625)"/>
      <path id="ArialMT-5f" d="M -97 -1272 
L -97 -866 
L 3631 -866 
L 3631 -1272 
L -97 -1272 
z
" transform="scale(0.015625)"/>
      <path id="ArialMT-38" d="M 1131 2484 
Q 781 2613 612 2850 
Q 444 3088 444 3419 
Q 444 3919 803 4259 
Q 1163 4600 1759 4600 
Q 2359 4600 2725 4251 
Q 3091 3903 3091 3403 
Q 3091 3084 2923 2848 
Q 2756 2613 2416 2484 
Q 2838 2347 3058 2040 
Q 3278 1734 3278 1309 
Q 3278 722 2862 322 
Q 2447 -78 1769 -78 
Q 1091 -78 675 323 
Q 259 725 259 1325 
Q 259 1772 486 2073 
Q 713 2375 1131 2484 
z
M 1019 3438 
Q 1019 3113 1228 2906 
Q 1438 2700 1772 2700 
Q 2097 2700 2305 2904 
Q 2513 3109 2513 3406 
Q 2513 3716 2298 3927 
Q 2084 4138 1766 4138 
Q 1444 4138 1231 3931 
Q 1019 3725 1019 3438 
z
M 838 1322 
Q 838 1081 952 856 
Q 1066 631 1291 507 
Q 1516 384 1775 384 
Q 2178 384 2440 643 
Q 2703 903 2703 1303 
Q 2703 1709 2433 1975 
Q 2163 2241 1756 2241 
Q 1359 2241 1098 1978 
Q 838 1716 838 1322 
z
" transform="scale(0.015625)"/>
      <path id="ArialMT-2d" d="M 203 1375 
L 203 1941 
L 1931 1941 
L 1931 1375 
L 203 1375 
z
" transform="scale(0.015625)"/>
      <path id="ArialMT-50" d="M 494 0 
L 494 4581 
L 2222 4581 
Q 2678 4581 2919 4538 
Q 3256 4481 3484 4323 
Q 3713 4166 3852 3881 
Q 3991 3597 3991 3256 
Q 3991 2672 3619 2267 
Q 3247 1863 2275 1863 
L 1100 1863 
L 1100 0 
L 494 0 
z
M 1100 2403 
L 2284 2403 
Q 2872 2403 3119 2622 
Q 3366 2841 3366 3238 
Q 3366 3525 3220 3729 
Q 3075 3934 2838 4000 
Q 2684 4041 2272 4041 
L 1100 4041 
L 1100 2403 
z
" transform="scale(0.015625)"/>
      <path id="ArialMT-6f" d="M 213 1659 
Q 213 2581 725 3025 
Q 1153 3394 1769 3394 
Q 2453 3394 2887 2945 
Q 3322 2497 3322 1706 
Q 3322 1066 3130 698 
Q 2938 331 2570 128 
Q 2203 -75 1769 -75 
Q 1072 -75 642 372 
Q 213 819 213 1659 
z
M 791 1659 
Q 791 1022 1069 705 
Q 1347 388 1769 388 
Q 2188 388 2466 706 
Q 2744 1025 2744 1678 
Q 2744 2294 2464 2611 
Q 2184 2928 1769 2928 
Q 1347 2928 1069 2612 
Q 791 2297 791 1659 
z
" transform="scale(0.015625)"/>
      <path id="ArialMT-77" d="M 1034 0 
L 19 3319 
L 600 3319 
L 1128 1403 
L 1325 691 
Q 1338 744 1497 1375 
L 2025 3319 
L 2603 3319 
L 3100 1394 
L 3266 759 
L 3456 1400 
L 4025 3319 
L 4572 3319 
L 3534 0 
L 2950 0 
L 2422 1988 
L 2294 2553 
L 1622 0 
L 1034 0 
z
" transform="scale(0.015625)"/>
      <path id="ArialMT-73" d="M 197 991 
L 753 1078 
Q 800 744 1014 566 
Q 1228 388 1613 388 
Q 2000 388 2187 545 
Q 2375 703 2375 916 
Q 2375 1106 2209 1216 
Q 2094 1291 1634 1406 
Q 1016 1563 777 1677 
Q 538 1791 414 1992 
Q 291 2194 291 2438 
Q 291 2659 392 2848 
Q 494 3038 669 3163 
Q 800 3259 1026 3326 
Q 1253 3394 1513 3394 
Q 1903 3394 2198 3281 
Q 2494 3169 2634 2976 
Q 2775 2784 2828 2463 
L 2278 2388 
Q 2241 2644 2061 2787 
Q 1881 2931 1553 2931 
Q 1166 2931 1000 2803 
Q 834 2675 834 2503 
Q 834 2394 903 2306 
Q 972 2216 1119 2156 
Q 1203 2125 1616 2013 
Q 2213 1853 2448 1751 
Q 2684 1650 2818 1456 
Q 2953 1263 2953 975 
Q 2953 694 2789 445 
Q 2625 197 2315 61 
Q 2006 -75 1616 -75 
Q 969 -75 630 194 
Q 291 463 197 991 
z
" transform="scale(0.015625)"/>
      <path id="ArialMT-6d" d="M 422 0 
L 422 3319 
L 925 3319 
L 925 2853 
Q 1081 3097 1340 3245 
Q 1600 3394 1931 3394 
Q 2300 3394 2536 3241 
Q 2772 3088 2869 2813 
Q 3263 3394 3894 3394 
Q 4388 3394 4653 3120 
Q 4919 2847 4919 2278 
L 4919 0 
L 4359 0 
L 4359 2091 
Q 4359 2428 4304 2576 
Q 4250 2725 4106 2815 
Q 3963 2906 3769 2906 
Q 3419 2906 3187 2673 
Q 2956 2441 2956 1928 
L 2956 0 
L 2394 0 
L 2394 2156 
Q 2394 2531 2256 2718 
Q 2119 2906 1806 2906 
Q 1569 2906 1367 2781 
Q 1166 2656 1075 2415 
Q 984 2175 984 1722 
L 984 0 
L 422 0 
z
" transform="scale(0.015625)"/>
     </defs>
     <use xlink:href="#ArialMT-70"/>
     <use xlink:href="#ArialMT-61" x="55.615234"/>
     <use xlink:href="#ArialMT-74" x="111.230469"/>
     <use xlink:href="#ArialMT-69" x="139.013672"/>
     <use xlink:href="#ArialMT-65" x="161.230469"/>
     <use xlink:href="#ArialMT-6e" x="216.845703"/>
     <use xlink:href="#ArialMT-74" x="272.460938"/>
     <use xlink:href="#ArialMT-30" x="300.244141"/>
     <use xlink:href="#ArialMT-36" x="355.859375"/>
     <use xlink:href="#ArialMT-5f" x="411.474609"/>
     <use xlink:href="#ArialMT-61" x="467.089844"/>
     <use xlink:href="#ArialMT-70" x="522.705078"/>
     <use xlink:href="#ArialMT-70" x="578.320312"/>
     <use xlink:href="#ArialMT-30" x="633.935547"/>
     <use xlink:href="#ArialMT-38" x="689.550781"/>
     <use xlink:href="#ArialMT-20" x="745.166016"/>
     <use xlink:href="#ArialMT-2d" x="772.949219"/>
     <use xlink:href="#ArialMT-20" x="806.25"/>
     <use xlink:href="#ArialMT-50" x="834.033203"/>
     <use xlink:href="#ArialMT-6f" x="900.732422"/>
     <use xlink:href="#ArialMT-77" x="956.347656"/>
     <use xlink:href="#ArialMT-65" x="1028.564453"/>
     <use xlink:href="#ArialMT-72" x="1084.179688"/>
     <use xlink:href="#ArialMT-20" x="1117.480469"/>
     <use xlink:href="#ArialMT-73" x="1145.263672"/>
     <use xlink:href="#ArialMT-70" x="1195.263672"/>
     <use xlink:href="#ArialMT-65" x="1250.878906"/>
     <use xlink:href="#ArialMT-63" x="1306.494141"/>
     <use xlink:href="#ArialMT-74" x="1356.494141"/>
     <use xlink:href="#ArialMT-72" x="1384.277344"/>
     <use xlink:href="#ArialMT-75" x="1417.578125"/>
     <use xlink:href="#ArialMT-6d" x="1473.193359"/>
    </g>
   </g>
   <g id="legend_1">
    <g id="patch_7">
     <path d="M 313.503281 152.278906 
L 381.1 152.278906 
Q 383.3 152.278906 383.3 150.078906 
L 383.3 42.26 
Q 383.3 40.06 381.1 40.06 
L 313.503281 40.06 
Q 311.303281 40.06 311.303281 42.26 
L 311.303281 150.078906 
Q 311.303281 152.278906 313.503281 152.278906 
z
" style="fill: #ffffff; opacity: 0.8; stroke: #cccccc; stroke-linejoin: miter"/>
    </g>
    <g id="line2d_20">
     <path d="M 315.703281 48.483594 
L 326.703281 48.483594 
L 337.703281 48.483594 
" style="fill: none; stroke: #4c72b0; stroke-opacity: 0.3; stroke-width: 1.5; stroke-linecap: round"/>
    </g>
    <g id="text_15">
     <!-- IMU9 -->
     <g style="fill: #262626" transform="translate(346.503281 52.333594)scale(0.11 -0.11)">
      <defs>
       <path id="ArialMT-49" d="M 597 0 
L 597 4581 
L 1203 4581 
L 1203 0 
L 597 0 
z
" transform="scale(0.015625)"/>
       <path id="ArialMT-4d" d="M 475 0 
L 475 4581 
L 1388 4581 
L 2472 1338 
Q 2622 884 2691 659 
Q 2769 909 2934 1394 
L 4031 4581 
L 4847 4581 
L 4847 0 
L 4263 0 
L 4263 3834 
L 2931 0 
L 2384 0 
L 1059 3900 
L 1059 0 
L 475 0 
z
" transform="scale(0.015625)"/>
       <path id="ArialMT-55" d="M 3500 4581 
L 4106 4581 
L 4106 1934 
Q 4106 1244 3950 837 
Q 3794 431 3386 176 
Q 2978 -78 2316 -78 
Q 1672 -78 1262 144 
Q 853 366 678 786 
Q 503 1206 503 1934 
L 503 4581 
L 1109 4581 
L 1109 1938 
Q 1109 1341 1220 1058 
Q 1331 775 1601 622 
Q 1872 469 2263 469 
Q 2931 469 3215 772 
Q 3500 1075 3500 1938 
L 3500 4581 
z
" transform="scale(0.015625)"/>
       <path id="ArialMT-39" d="M 350 1059 
L 891 1109 
Q 959 728 1153 556 
Q 1347 384 1650 384 
Q 1909 384 2104 503 
Q 2300 622 2425 820 
Q 2550 1019 2634 1356 
Q 2719 1694 2719 2044 
Q 2719 2081 2716 2156 
Q 2547 1888 2255 1720 
Q 1963 1553 1622 1553 
Q 1053 1553 659 1965 
Q 266 2378 266 3053 
Q 266 3750 677 4175 
Q 1088 4600 1706 4600 
Q 2153 4600 2523 4359 
Q 2894 4119 3086 3673 
Q 3278 3228 3278 2384 
Q 3278 1506 3087 986 
Q 2897 466 2520 194 
Q 2144 -78 1638 -78 
Q 1100 -78 759 220 
Q 419 519 350 1059 
z
M 2653 3081 
Q 2653 3566 2395 3850 
Q 2138 4134 1775 4134 
Q 1400 4134 1122 3828 
Q 844 3522 844 3034 
Q 844 2597 1108 2323 
Q 1372 2050 1759 2050 
Q 2150 2050 2401 2323 
Q 2653 2597 2653 3081 
z
" transform="scale(0.015625)"/>
      </defs>
      <use xlink:href="#ArialMT-49"/>
      <use xlink:href="#ArialMT-4d" x="27.783203"/>
      <use xlink:href="#ArialMT-55" x="111.083984"/>
      <use xlink:href="#ArialMT-39" x="183.300781"/>
     </g>
    </g>
    <g id="line2d_21">
     <path d="M 315.703281 64.043438 
L 326.703281 64.043438 
L 337.703281 64.043438 
" style="fill: none; stroke: #dd8452; stroke-opacity: 0.3; stroke-width: 1.5; stroke-linecap: round"/>
    </g>
    <g id="text_16">
     <!-- IMU10 -->
     <g style="fill: #262626" transform="translate(346.503281 67.893438)scale(0.11 -0.11)">
      <use xlink:href="#ArialMT-49"/>
      <use xlink:href="#ArialMT-4d" x="27.783203"/>
      <use xlink:href="#ArialMT-55" x="111.083984"/>
      <use xlink:href="#ArialMT-31" x="183.300781"/>
      <use xlink:href="#ArialMT-30" x="238.916016"/>
     </g>
    </g>
    <g id="line2d_22">
     <path d="M 315.703281 79.603281 
L 326.703281 79.603281 
L 337.703281 79.603281 
" style="fill: none; stroke: #55a868; stroke-opacity: 0.3; stroke-width: 1.5; stroke-linecap: round"/>
    </g>
    <g id="text_17">
     <!-- IMU11 -->
     <g style="fill: #262626" transform="translate(346.503281 83.453281)scale(0.11 -0.11)">
      <use xlink:href="#ArialMT-49"/>
      <use xlink:href="#ArialMT-4d" x="27.783203"/>
      <use xlink:href="#ArialMT-55" x="111.083984"/>
      <use xlink:href="#ArialMT-31" x="183.300781"/>
      <use xlink:href="#ArialMT-31" x="231.541016"/>
     </g>
    </g>
    <g id="line2d_23">
     <path d="M 315.703281 95.163125 
L 326.703281 95.163125 
L 337.703281 95.163125 
" style="fill: none; stroke: #c44e52; stroke-opacity: 0.3; stroke-width: 1.5; stroke-linecap: round"/>
    </g>
    <g id="text_18">
     <!-- IMU12 -->
     <g style="fill: #262626" transform="translate(346.503281 99.013125)scale(0.11 -0.11)">
      <use xlink:href="#ArialMT-49"/>
      <use xlink:href="#ArialMT-4d" x="27.783203"/>
      <use xlink:href="#ArialMT-55" x="111.083984"/>
      <use xlink:href="#ArialMT-31" x="183.300781"/>
      <use xlink:href="#ArialMT-32" x="238.916016"/>
     </g>
    </g>
    <g id="line2d_24">
     <path d="M 315.703281 110.722969 
L 326.703281 110.722969 
L 337.703281 110.722969 
" style="fill: none; stroke: #8172b3; stroke-opacity: 0.3; stroke-width: 1.5; stroke-linecap: round"/>
    </g>
    <g id="text_19">
     <!-- IMU13 -->
     <g style="fill: #262626" transform="translate(346.503281 114.572969)scale(0.11 -0.11)">
      <use xlink:href="#ArialMT-49"/>
      <use xlink:href="#ArialMT-4d" x="27.783203"/>
      <use xlink:href="#ArialMT-55" x="111.083984"/>
      <use xlink:href="#ArialMT-31" x="183.300781"/>
      <use xlink:href="#ArialMT-33" x="238.916016"/>
     </g>
    </g>
    <g id="line2d_25">
     <path d="M 315.703281 126.282813 
L 326.703281 126.282813 
L 337.703281 126.282813 
" style="fill: none; stroke: #937860; stroke-opacity: 0.3; stroke-width: 1.5; stroke-linecap: round"/>
    </g>
    <g id="text_20">
     <!-- IMU14 -->
     <g style="fill: #262626" transform="translate(346.503281 130.132812)scale(0.11 -0.11)">
      <use xlink:href="#ArialMT-49"/>
      <use xlink:href="#ArialMT-4d" x="27.783203"/>
      <use xlink:href="#ArialMT-55" x="111.083984"/>
      <use xlink:href="#ArialMT-31" x="183.300781"/>
      <use xlink:href="#ArialMT-34" x="238.916016"/>
     </g>
    </g>
    <g id="line2d_26">
     <path d="M 315.703281 141.842656 
L 326.703281 141.842656 
L 337.703281 141.842656 
" style="fill: none; stroke: #da8bc3; stroke-opacity: 0.3; stroke-width: 1.5; stroke-linecap: round"/>
    </g>
    <g id="text_21">
     <!-- IMU15 -->
     <g style="fill: #262626" transform="translate(346.503281 145.692656)scale(0.11 -0.11)">
      <use xlink:href="#ArialMT-49"/>
      <use xlink:href="#ArialMT-4d" x="27.783203"/>
      <use xlink:href="#ArialMT-55" x="111.083984"/>
      <use xlink:href="#ArialMT-31" x="183.300781"/>
      <use xlink:href="#ArialMT-35" x="238.916016"/>
     </g>
    </g>
   </g>
  </g>
 </g>
 <defs>
  <clipPath id="p988343412f">
   <rect x="54" y="34.56" width="334.8" height="217.44"/>
  </clipPath>
 </defs>
</svg>
