<?xml version="1.0" encoding="utf-8" standalone="no"?>
<!DOCTYPE svg PUBLIC "-//W3C//DTD SVG 1.1//EN"
  "http://www.w3.org/Graphics/SVG/1.1/DTD/svg11.dtd">
<svg xmlns:xlink="http://www.w3.org/1999/xlink" width="432pt" height="288pt" viewBox="0 0 432 288" xmlns="http://www.w3.org/2000/svg" version="1.1">
 <metadata>
  <rdf:RDF xmlns:dc="http://purl.org/dc/elements/1.1/" xmlns:cc="http://creativecommons.org/ns#" xmlns:rdf="http://www.w3.org/1999/02/22-rdf-syntax-ns#">
   <cc:Work>
    <dc:type rdf:resource="http://purl.org/dc/dcmitype/StillImage"/>
    <dc:date>2022-07-08T13:57:55.431175</dc:date>
    <dc:format>image/svg+xml</dc:format>
    <dc:creator>
     <cc:Agent>
      <dc:title>Matplotlib v3.5.1, https://matplotlib.org/</dc:title>
     </cc:Agent>
    </dc:creator>
   </cc:Work>
  </rdf:RDF>
 </metadata>
 <defs>
  <style type="text/css">*{stroke-linejoin: round; stroke-linecap: butt}</style>
 </defs>
 <g id="figure_1">
  <g id="patch_1">
   <path d="M 0 288 
L 432 288 
L 432 0 
L 0 0 
z
" style="fill: #ffffff"/>
  </g>
  <g id="axes_1">
   <g id="patch_2">
    <path d="M 54 252 
L 388.8 252 
L 388.8 34.56 
L 54 34.56 
z
" style="fill: #ffffff"/>
   </g>
   <g id="matplotlib.axis_1">
    <g id="xtick_1">
     <g id="line2d_1">
      <defs>
       <path id="m12b254638f" d="M 0 0 
L 0 6 
" style="stroke: #262626; stroke-width: 1.25"/>
      </defs>
      <g>
       <use xlink:href="#m12b254638f" x="54" y="252" style="fill: #262626; stroke: #262626; stroke-width: 1.25"/>
      </g>
     </g>
     <g id="text_1">
      <!-- 0 -->
      <g style="fill: #262626" transform="translate(50.941484 269.373594)scale(0.11 -0.11)">
       <defs>
        <path id="ArialMT-30" d="M 266 2259 
Q 266 3072 433 3567 
Q 600 4063 929 4331 
Q 1259 4600 1759 4600 
Q 2128 4600 2406 4451 
Q 2684 4303 2865 4023 
Q 3047 3744 3150 3342 
Q 3253 2941 3253 2259 
Q 3253 1453 3087 958 
Q 2922 463 2592 192 
Q 2263 -78 1759 -78 
Q 1097 -78 719 397 
Q 266 969 266 2259 
z
M 844 2259 
Q 844 1131 1108 757 
Q 1372 384 1759 384 
Q 2147 384 2411 759 
Q 2675 1134 2675 2259 
Q 2675 3391 2411 3762 
Q 2147 4134 1753 4134 
Q 1366 4134 1134 3806 
Q 844 3388 844 2259 
z
" transform="scale(0.015625)"/>
       </defs>
       <use xlink:href="#ArialMT-30"/>
      </g>
     </g>
    </g>
    <g id="xtick_2">
     <g id="line2d_2">
      <g>
       <use xlink:href="#m12b254638f" x="120.96" y="252" style="fill: #262626; stroke: #262626; stroke-width: 1.25"/>
      </g>
     </g>
     <g id="text_2">
      <!-- 5 -->
      <g style="fill: #262626" transform="translate(117.901484 269.373594)scale(0.11 -0.11)">
       <defs>
        <path id="ArialMT-35" d="M 266 1200 
L 856 1250 
Q 922 819 1161 601 
Q 1400 384 1738 384 
Q 2144 384 2425 690 
Q 2706 997 2706 1503 
Q 2706 1984 2436 2262 
Q 2166 2541 1728 2541 
Q 1456 2541 1237 2417 
Q 1019 2294 894 2097 
L 366 2166 
L 809 4519 
L 3088 4519 
L 3088 3981 
L 1259 3981 
L 1013 2750 
Q 1425 3038 1878 3038 
Q 2478 3038 2890 2622 
Q 3303 2206 3303 1553 
Q 3303 931 2941 478 
Q 2500 -78 1738 -78 
Q 1113 -78 717 272 
Q 322 622 266 1200 
z
" transform="scale(0.015625)"/>
       </defs>
       <use xlink:href="#ArialMT-35"/>
      </g>
     </g>
    </g>
    <g id="xtick_3">
     <g id="line2d_3">
      <g>
       <use xlink:href="#m12b254638f" x="187.92" y="252" style="fill: #262626; stroke: #262626; stroke-width: 1.25"/>
      </g>
     </g>
     <g id="text_3">
      <!-- 10 -->
      <g style="fill: #262626" transform="translate(181.802969 269.373594)scale(0.11 -0.11)">
       <defs>
        <path id="ArialMT-31" d="M 2384 0 
L 1822 0 
L 1822 3584 
Q 1619 3391 1289 3197 
Q 959 3003 697 2906 
L 697 3450 
Q 1169 3672 1522 3987 
Q 1875 4303 2022 4600 
L 2384 4600 
L 2384 0 
z
" transform="scale(0.015625)"/>
       </defs>
       <use xlink:href="#ArialMT-31"/>
       <use xlink:href="#ArialMT-30" x="55.615234"/>
      </g>
     </g>
    </g>
    <g id="xtick_4">
     <g id="line2d_4">
      <g>
       <use xlink:href="#m12b254638f" x="254.88" y="252" style="fill: #262626; stroke: #262626; stroke-width: 1.25"/>
      </g>
     </g>
     <g id="text_4">
      <!-- 15 -->
      <g style="fill: #262626" transform="translate(248.762969 269.373594)scale(0.11 -0.11)">
       <use xlink:href="#ArialMT-31"/>
       <use xlink:href="#ArialMT-35" x="55.615234"/>
      </g>
     </g>
    </g>
    <g id="xtick_5">
     <g id="line2d_5">
      <g>
       <use xlink:href="#m12b254638f" x="321.84" y="252" style="fill: #262626; stroke: #262626; stroke-width: 1.25"/>
      </g>
     </g>
     <g id="text_5">
      <!-- 20 -->
      <g style="fill: #262626" transform="translate(315.722969 269.373594)scale(0.11 -0.11)">
       <defs>
        <path id="ArialMT-32" d="M 3222 541 
L 3222 0 
L 194 0 
Q 188 203 259 391 
Q 375 700 629 1000 
Q 884 1300 1366 1694 
Q 2113 2306 2375 2664 
Q 2638 3022 2638 3341 
Q 2638 3675 2398 3904 
Q 2159 4134 1775 4134 
Q 1369 4134 1125 3890 
Q 881 3647 878 3216 
L 300 3275 
Q 359 3922 746 4261 
Q 1134 4600 1788 4600 
Q 2447 4600 2831 4234 
Q 3216 3869 3216 3328 
Q 3216 3053 3103 2787 
Q 2991 2522 2730 2228 
Q 2469 1934 1863 1422 
Q 1356 997 1212 845 
Q 1069 694 975 541 
L 3222 541 
z
" transform="scale(0.015625)"/>
       </defs>
       <use xlink:href="#ArialMT-32"/>
       <use xlink:href="#ArialMT-30" x="55.615234"/>
      </g>
     </g>
    </g>
    <g id="xtick_6">
     <g id="line2d_6">
      <g>
       <use xlink:href="#m12b254638f" x="388.8" y="252" style="fill: #262626; stroke: #262626; stroke-width: 1.25"/>
      </g>
     </g>
     <g id="text_6">
      <!-- 25 -->
      <g style="fill: #262626" transform="translate(382.682969 269.373594)scale(0.11 -0.11)">
       <use xlink:href="#ArialMT-32"/>
       <use xlink:href="#ArialMT-35" x="55.615234"/>
      </g>
     </g>
    </g>
    <g id="text_7">
     <!-- Frequency (Hz) -->
     <g style="fill: #262626" transform="translate(180.059063 284.295469)scale(0.12 -0.12)">
      <defs>
       <path id="ArialMT-46" d="M 525 0 
L 525 4581 
L 3616 4581 
L 3616 4041 
L 1131 4041 
L 1131 2622 
L 3281 2622 
L 3281 2081 
L 1131 2081 
L 1131 0 
L 525 0 
z
" transform="scale(0.015625)"/>
       <path id="ArialMT-72" d="M 416 0 
L 416 3319 
L 922 3319 
L 922 2816 
Q 1116 3169 1280 3281 
Q 1444 3394 1641 3394 
Q 1925 3394 2219 3213 
L 2025 2691 
Q 1819 2813 1613 2813 
Q 1428 2813 1281 2702 
Q 1134 2591 1072 2394 
Q 978 2094 978 1738 
L 978 0 
L 416 0 
z
" transform="scale(0.015625)"/>
       <path id="ArialMT-65" d="M 2694 1069 
L 3275 997 
Q 3138 488 2766 206 
Q 2394 -75 1816 -75 
Q 1088 -75 661 373 
Q 234 822 234 1631 
Q 234 2469 665 2931 
Q 1097 3394 1784 3394 
Q 2450 3394 2872 2941 
Q 3294 2488 3294 1666 
Q 3294 1616 3291 1516 
L 816 1516 
Q 847 969 1125 678 
Q 1403 388 1819 388 
Q 2128 388 2347 550 
Q 2566 713 2694 1069 
z
M 847 1978 
L 2700 1978 
Q 2663 2397 2488 2606 
Q 2219 2931 1791 2931 
Q 1403 2931 1139 2672 
Q 875 2413 847 1978 
z
" transform="scale(0.015625)"/>
       <path id="ArialMT-71" d="M 2538 -1272 
L 2538 353 
Q 2406 169 2170 47 
Q 1934 -75 1669 -75 
Q 1078 -75 651 397 
Q 225 869 225 1691 
Q 225 2191 398 2587 
Q 572 2984 901 3189 
Q 1231 3394 1625 3394 
Q 2241 3394 2594 2875 
L 2594 3319 
L 3100 3319 
L 3100 -1272 
L 2538 -1272 
z
M 803 1669 
Q 803 1028 1072 708 
Q 1341 388 1716 388 
Q 2075 388 2334 692 
Q 2594 997 2594 1619 
Q 2594 2281 2320 2615 
Q 2047 2950 1678 2950 
Q 1313 2950 1058 2639 
Q 803 2328 803 1669 
z
" transform="scale(0.015625)"/>
       <path id="ArialMT-75" d="M 2597 0 
L 2597 488 
Q 2209 -75 1544 -75 
Q 1250 -75 995 37 
Q 741 150 617 320 
Q 494 491 444 738 
Q 409 903 409 1263 
L 409 3319 
L 972 3319 
L 972 1478 
Q 972 1038 1006 884 
Q 1059 663 1231 536 
Q 1403 409 1656 409 
Q 1909 409 2131 539 
Q 2353 669 2445 892 
Q 2538 1116 2538 1541 
L 2538 3319 
L 3100 3319 
L 3100 0 
L 2597 0 
z
" transform="scale(0.015625)"/>
       <path id="ArialMT-6e" d="M 422 0 
L 422 3319 
L 928 3319 
L 928 2847 
Q 1294 3394 1984 3394 
Q 2284 3394 2536 3286 
Q 2788 3178 2913 3003 
Q 3038 2828 3088 2588 
Q 3119 2431 3119 2041 
L 3119 0 
L 2556 0 
L 2556 2019 
Q 2556 2363 2490 2533 
Q 2425 2703 2258 2804 
Q 2091 2906 1866 2906 
Q 1506 2906 1245 2678 
Q 984 2450 984 1813 
L 984 0 
L 422 0 
z
" transform="scale(0.015625)"/>
       <path id="ArialMT-63" d="M 2588 1216 
L 3141 1144 
Q 3050 572 2676 248 
Q 2303 -75 1759 -75 
Q 1078 -75 664 370 
Q 250 816 250 1647 
Q 250 2184 428 2587 
Q 606 2991 970 3192 
Q 1334 3394 1763 3394 
Q 2303 3394 2647 3120 
Q 2991 2847 3088 2344 
L 2541 2259 
Q 2463 2594 2264 2762 
Q 2066 2931 1784 2931 
Q 1359 2931 1093 2626 
Q 828 2322 828 1663 
Q 828 994 1084 691 
Q 1341 388 1753 388 
Q 2084 388 2306 591 
Q 2528 794 2588 1216 
z
" transform="scale(0.015625)"/>
       <path id="ArialMT-79" d="M 397 -1278 
L 334 -750 
Q 519 -800 656 -800 
Q 844 -800 956 -737 
Q 1069 -675 1141 -563 
Q 1194 -478 1313 -144 
Q 1328 -97 1363 -6 
L 103 3319 
L 709 3319 
L 1400 1397 
Q 1534 1031 1641 628 
Q 1738 1016 1872 1384 
L 2581 3319 
L 3144 3319 
L 1881 -56 
Q 1678 -603 1566 -809 
Q 1416 -1088 1222 -1217 
Q 1028 -1347 759 -1347 
Q 597 -1347 397 -1278 
z
" transform="scale(0.015625)"/>
       <path id="ArialMT-20" transform="scale(0.015625)"/>
       <path id="ArialMT-28" d="M 1497 -1347 
Q 1031 -759 709 28 
Q 388 816 388 1659 
Q 388 2403 628 3084 
Q 909 3875 1497 4659 
L 1900 4659 
Q 1522 4009 1400 3731 
Q 1209 3300 1100 2831 
Q 966 2247 966 1656 
Q 966 153 1900 -1347 
L 1497 -1347 
z
" transform="scale(0.015625)"/>
       <path id="ArialMT-48" d="M 513 0 
L 513 4581 
L 1119 4581 
L 1119 2700 
L 3500 2700 
L 3500 4581 
L 4106 4581 
L 4106 0 
L 3500 0 
L 3500 2159 
L 1119 2159 
L 1119 0 
L 513 0 
z
" transform="scale(0.015625)"/>
       <path id="ArialMT-7a" d="M 125 0 
L 125 456 
L 2238 2881 
Q 1878 2863 1603 2863 
L 250 2863 
L 250 3319 
L 2963 3319 
L 2963 2947 
L 1166 841 
L 819 456 
Q 1197 484 1528 484 
L 3063 484 
L 3063 0 
L 125 0 
z
" transform="scale(0.015625)"/>
       <path id="ArialMT-29" d="M 791 -1347 
L 388 -1347 
Q 1322 153 1322 1656 
Q 1322 2244 1188 2822 
Q 1081 3291 891 3722 
Q 769 4003 388 4659 
L 791 4659 
Q 1378 3875 1659 3084 
Q 1900 2403 1900 1659 
Q 1900 816 1576 28 
Q 1253 -759 791 -1347 
z
" transform="scale(0.015625)"/>
      </defs>
      <use xlink:href="#ArialMT-46"/>
      <use xlink:href="#ArialMT-72" x="61.083984"/>
      <use xlink:href="#ArialMT-65" x="94.384766"/>
      <use xlink:href="#ArialMT-71" x="150"/>
      <use xlink:href="#ArialMT-75" x="205.615234"/>
      <use xlink:href="#ArialMT-65" x="261.230469"/>
      <use xlink:href="#ArialMT-6e" x="316.845703"/>
      <use xlink:href="#ArialMT-63" x="372.460938"/>
      <use xlink:href="#ArialMT-79" x="422.460938"/>
      <use xlink:href="#ArialMT-20" x="472.460938"/>
      <use xlink:href="#ArialMT-28" x="500.244141"/>
      <use xlink:href="#ArialMT-48" x="533.544922"/>
      <use xlink:href="#ArialMT-7a" x="605.761719"/>
      <use xlink:href="#ArialMT-29" x="655.761719"/>
     </g>
    </g>
   </g>
   <g id="matplotlib.axis_2">
    <g id="ytick_1">
     <g id="line2d_7">
      <defs>
       <path id="m05d2fc33c9" d="M 0 0 
L -6 0 
" style="stroke: #262626; stroke-width: 1.25"/>
      </defs>
      <g>
       <use xlink:href="#m05d2fc33c9" x="54" y="242.116364" style="fill: #262626; stroke: #262626; stroke-width: 1.25"/>
      </g>
     </g>
     <g id="text_8">
      <!-- 0 -->
      <g style="fill: #262626" transform="translate(38.382969 246.053161)scale(0.11 -0.11)">
       <use xlink:href="#ArialMT-30"/>
      </g>
     </g>
    </g>
    <g id="ytick_2">
     <g id="line2d_8">
      <g>
       <use xlink:href="#m05d2fc33c9" x="54" y="204.767004" style="fill: #262626; stroke: #262626; stroke-width: 1.25"/>
      </g>
     </g>
     <g id="text_9">
      <!-- 5000 -->
      <g style="fill: #262626" transform="translate(20.031875 208.703801)scale(0.11 -0.11)">
       <use xlink:href="#ArialMT-35"/>
       <use xlink:href="#ArialMT-30" x="55.615234"/>
       <use xlink:href="#ArialMT-30" x="111.230469"/>
       <use xlink:href="#ArialMT-30" x="166.845703"/>
      </g>
     </g>
    </g>
    <g id="ytick_3">
     <g id="line2d_9">
      <g>
       <use xlink:href="#m05d2fc33c9" x="54" y="167.417645" style="fill: #262626; stroke: #262626; stroke-width: 1.25"/>
      </g>
     </g>
     <g id="text_10">
      <!-- 10000 -->
      <g style="fill: #262626" transform="translate(13.914844 171.354442)scale(0.11 -0.11)">
       <use xlink:href="#ArialMT-31"/>
       <use xlink:href="#ArialMT-30" x="55.615234"/>
       <use xlink:href="#ArialMT-30" x="111.230469"/>
       <use xlink:href="#ArialMT-30" x="166.845703"/>
       <use xlink:href="#ArialMT-30" x="222.460938"/>
      </g>
     </g>
    </g>
    <g id="ytick_4">
     <g id="line2d_10">
      <g>
       <use xlink:href="#m05d2fc33c9" x="54" y="130.068286" style="fill: #262626; stroke: #262626; stroke-width: 1.25"/>
      </g>
     </g>
     <g id="text_11">
      <!-- 15000 -->
      <g style="fill: #262626" transform="translate(13.914844 134.005082)scale(0.11 -0.11)">
       <use xlink:href="#ArialMT-31"/>
       <use xlink:href="#ArialMT-35" x="55.615234"/>
       <use xlink:href="#ArialMT-30" x="111.230469"/>
       <use xlink:href="#ArialMT-30" x="166.845703"/>
       <use xlink:href="#ArialMT-30" x="222.460938"/>
      </g>
     </g>
    </g>
    <g id="ytick_5">
     <g id="line2d_11">
      <g>
       <use xlink:href="#m05d2fc33c9" x="54" y="92.718926" style="fill: #262626; stroke: #262626; stroke-width: 1.25"/>
      </g>
     </g>
     <g id="text_12">
      <!-- 20000 -->
      <g style="fill: #262626" transform="translate(13.914844 96.655723)scale(0.11 -0.11)">
       <use xlink:href="#ArialMT-32"/>
       <use xlink:href="#ArialMT-30" x="55.615234"/>
       <use xlink:href="#ArialMT-30" x="111.230469"/>
       <use xlink:href="#ArialMT-30" x="166.845703"/>
       <use xlink:href="#ArialMT-30" x="222.460938"/>
      </g>
     </g>
    </g>
    <g id="ytick_6">
     <g id="line2d_12">
      <g>
       <use xlink:href="#m05d2fc33c9" x="54" y="55.369567" style="fill: #262626; stroke: #262626; stroke-width: 1.25"/>
      </g>
     </g>
     <g id="text_13">
      <!-- 25000 -->
      <g style="fill: #262626" transform="translate(13.914844 59.306364)scale(0.11 -0.11)">
       <use xlink:href="#ArialMT-32"/>
       <use xlink:href="#ArialMT-35" x="55.615234"/>
       <use xlink:href="#ArialMT-30" x="111.230469"/>
       <use xlink:href="#ArialMT-30" x="166.845703"/>
       <use xlink:href="#ArialMT-30" x="222.460938"/>
      </g>
     </g>
    </g>
   </g>
   <g id="line2d_13">
    <path d="M 54 242.116261 
L 162.345437 242.089199 
L 163.605268 241.943302 
L 164.865099 242.10489 
L 168.644591 242.082931 
L 169.904421 241.397099 
L 171.164252 242.000812 
L 174.943744 241.987047 
L 176.203575 241.483743 
L 177.463405 242.100884 
L 178.723236 241.992497 
L 179.983067 241.512511 
L 181.242897 240.729044 
L 182.502728 241.654897 
L 183.762559 241.472077 
L 185.022389 241.863867 
L 186.28222 242.047028 
L 187.542051 241.790918 
L 188.801881 239.078303 
L 190.061712 240.772935 
L 191.321543 240.29312 
L 192.581373 238.151699 
L 193.841204 237.292499 
L 195.101035 241.431832 
L 196.360865 241.45336 
L 197.620696 241.830815 
L 198.880527 241.861657 
L 200.140357 240.536278 
L 201.400188 240.139988 
L 202.660019 240.698597 
L 203.919849 239.123547 
L 205.17968 241.349037 
L 206.439511 241.958554 
L 207.699341 238.167983 
L 208.959172 238.962214 
L 210.219003 241.467044 
L 211.478833 234.982961 
L 212.738664 239.416856 
L 213.998495 237.810617 
L 215.258325 238.025123 
L 216.518156 238.499067 
L 217.777987 239.113832 
L 219.037817 237.866801 
L 220.297648 238.00895 
L 221.557479 240.788393 
L 222.81731 240.352454 
L 224.07714 240.362636 
L 225.336971 241.633931 
L 226.596802 238.079725 
L 229.116463 239.612901 
L 230.376294 240.266981 
L 231.636124 234.826836 
L 232.895955 237.575014 
L 234.155786 237.486271 
L 235.415616 241.173556 
L 236.675447 241.919697 
L 237.935278 238.248806 
L 239.195108 240.869943 
L 240.454939 238.367258 
L 241.71477 239.587443 
L 242.9746 235.142296 
L 244.234431 241.677397 
L 245.494262 240.394028 
L 248.013923 240.205717 
L 249.273754 239.126833 
L 250.533584 239.912005 
L 251.793415 240.539872 
L 253.053246 238.269589 
L 254.313076 239.253715 
L 255.572907 227.012228 
L 256.832738 230.257073 
L 258.092568 241.694939 
L 259.352399 237.933347 
L 260.61223 239.949999 
L 261.87206 232.231891 
L 263.131891 173.893905 
L 264.391722 238.912842 
L 265.651552 235.454525 
L 266.911383 221.190033 
L 268.171214 241.31727 
L 270.690875 237.955944 
L 271.950706 232.874562 
L 273.210536 240.188231 
L 274.470367 238.418287 
L 275.730198 231.420351 
L 276.990028 235.020323 
L 278.249859 240.367723 
L 279.50969 232.597628 
L 280.76952 239.90432 
L 282.029351 240.497842 
L 283.289182 238.346812 
L 284.549012 241.969857 
L 285.808843 239.460847 
L 287.068674 241.099594 
L 288.328504 241.886373 
L 289.588335 237.773477 
L 290.848166 241.993699 
L 292.107996 239.007625 
L 293.367827 241.647309 
L 294.627658 240.059369 
L 295.887488 239.516143 
L 297.147319 239.12869 
L 298.40715 241.500015 
L 299.66698 240.276677 
L 300.926811 240.546227 
L 302.186642 241.578362 
L 303.446472 240.526263 
L 304.706303 238.92247 
L 305.966134 241.469027 
L 307.225964 236.271354 
L 308.485795 240.225812 
L 309.745626 236.597216 
L 311.005456 240.231706 
L 312.265287 241.367601 
L 313.525118 239.178442 
L 314.784948 239.854728 
L 316.044779 240.243703 
L 317.30461 241.627729 
L 318.56444 237.993634 
L 319.824271 235.884431 
L 321.084102 241.809621 
L 322.343932 241.817653 
L 323.603763 241.317219 
L 324.863594 241.941005 
L 327.383255 241.636131 
L 328.643086 241.228522 
L 329.902916 242.038222 
L 336.20207 241.94988 
L 337.4619 241.496475 
L 339.981562 241.650221 
L 341.241392 242.044995 
L 342.501223 241.908594 
L 343.761054 241.999259 
L 345.020884 241.740483 
L 346.280715 242.021067 
L 347.540546 241.901417 
L 348.800376 242.013214 
L 350.060207 241.632077 
L 351.320038 242.064487 
L 353.839699 242.067918 
L 355.09953 241.620727 
L 356.35936 241.758351 
L 357.619191 240.216112 
L 358.879022 241.860071 
L 361.398683 241.802061 
L 362.658514 242.040574 
L 363.918344 242.041234 
L 366.438006 241.300157 
L 367.697836 241.238098 
L 368.957667 241.971407 
L 370.217498 242.022503 
L 371.477328 241.901577 
L 372.737159 241.355611 
L 375.25682 242.089436 
L 376.516651 241.658708 
L 377.776482 242.107336 
L 379.036312 241.825664 
L 381.555974 242.055431 
L 382.815804 241.280333 
L 385.335466 241.82963 
L 386.595296 241.379635 
L 387.855127 241.939346 
L 391.634619 242.077877 
L 392.89445 241.859433 
L 394.15428 242.104142 
L 395.414111 241.826098 
L 397.933772 242.107635 
L 399.193603 241.605088 
L 400.453434 242.08067 
L 401.713264 241.642921 
L 402.973095 242.011085 
L 404.232926 242.021601 
L 405.492756 241.844883 
L 406.752587 241.845429 
L 408.012418 242.04871 
L 409.272248 241.965287 
L 410.532079 242.082312 
L 414.311571 242.078949 
L 415.571402 241.881983 
L 416.831232 242.007273 
L 418.091063 241.648426 
L 419.350894 242.054853 
L 423.130386 241.935412 
L 424.390216 242.112764 
L 425.650047 241.893576 
L 426.909878 242.054399 
L 428.169708 241.487447 
L 429.429539 241.970104 
L 430.68937 242.100766 
L 431.9492 241.85412 
L 433 242.014429 
M 433 242.116363 
L -1 242.116363 
L -1 242.116363 
" clip-path="url(#pc1502d61d8)" style="fill: none; stroke: #4c72b0; stroke-opacity: 0.3; stroke-width: 1.5; stroke-linecap: round"/>
   </g>
   <g id="line2d_14">
    <path d="M 54 242.116295 
L 176.203575 242.032533 
L 177.463405 241.740695 
L 178.723236 242.040298 
L 179.983067 241.863733 
L 182.502728 242.090357 
L 185.022389 242.005493 
L 186.28222 242.097219 
L 188.801881 241.951212 
L 190.061712 242.056563 
L 191.321543 241.100308 
L 192.581373 241.923598 
L 193.841204 241.967605 
L 195.101035 241.764939 
L 196.360865 241.689377 
L 197.620696 241.094944 
L 198.880527 241.974221 
L 200.140357 241.711747 
L 201.400188 242.106044 
L 202.660019 241.911925 
L 203.919849 239.883422 
L 205.17968 241.390996 
L 206.439511 241.593506 
L 207.699341 241.935456 
L 208.959172 241.608322 
L 210.219003 240.291531 
L 211.478833 241.02244 
L 212.738664 241.888875 
L 213.998495 241.214379 
L 215.258325 241.573381 
L 216.518156 242.085187 
L 217.777987 241.604667 
L 219.037817 239.590822 
L 220.297648 242.10487 
L 221.557479 241.748564 
L 222.81731 241.227762 
L 224.07714 242.004828 
L 225.336971 241.395008 
L 226.596802 241.925546 
L 227.856632 242.105824 
L 229.116463 241.803553 
L 230.376294 242.040946 
L 232.895955 239.207532 
L 234.155786 241.108839 
L 235.415616 241.628748 
L 236.675447 240.852829 
L 237.935278 241.604761 
L 239.195108 239.263035 
L 240.454939 241.805699 
L 241.71477 241.860131 
L 242.9746 241.038662 
L 244.234431 241.511714 
L 245.494262 241.268376 
L 246.754092 241.265745 
L 248.013923 240.513238 
L 249.273754 241.968431 
L 250.533584 241.660437 
L 251.793415 240.105298 
L 253.053246 240.862216 
L 254.313076 235.636263 
L 255.572907 238.311062 
L 256.832738 234.595552 
L 258.092568 235.313925 
L 259.352399 231.254668 
L 260.61223 44.443636 
L 261.87206 119.099403 
L 263.131891 55.621381 
L 264.391722 235.745148 
L 265.651552 237.534581 
L 266.911383 238.728052 
L 268.171214 233.697109 
L 269.431044 230.886613 
L 270.690875 216.757955 
L 271.950706 241.633864 
L 273.210536 236.860924 
L 274.470367 240.932816 
L 275.730198 236.307538 
L 276.990028 241.510224 
L 278.249859 241.860513 
L 279.50969 232.568931 
L 280.76952 240.882832 
L 282.029351 241.973309 
L 283.289182 238.74026 
L 284.549012 241.806578 
L 285.808843 238.22586 
L 287.068674 242.02788 
L 288.328504 241.580268 
L 289.588335 241.545262 
L 290.848166 241.709915 
L 292.107996 241.003985 
L 293.367827 242.064097 
L 294.627658 241.708946 
L 295.887488 241.858492 
L 297.147319 241.187101 
L 298.40715 241.847689 
L 299.66698 241.386353 
L 300.926811 241.41318 
L 302.186642 240.951596 
L 303.446472 238.37922 
L 304.706303 236.984428 
L 305.966134 241.735807 
L 307.225964 235.150607 
L 308.485795 240.664339 
L 309.745626 234.631337 
L 311.005456 238.564178 
L 312.265287 241.967595 
L 313.525118 236.662693 
L 314.784948 239.194582 
L 317.30461 241.698623 
L 318.56444 241.294278 
L 319.824271 236.533779 
L 321.084102 241.35475 
L 322.343932 240.84208 
L 324.863594 241.719549 
L 326.123424 241.243264 
L 327.383255 241.768355 
L 328.643086 242.086589 
L 332.422578 241.61597 
L 333.682408 241.929395 
L 334.942239 242.024262 
L 336.20207 241.424053 
L 337.4619 240.643214 
L 338.721731 241.963187 
L 339.981562 242.028263 
L 341.241392 241.548157 
L 342.501223 241.75396 
L 343.761054 241.525226 
L 345.020884 240.786458 
L 346.280715 241.82681 
L 347.540546 241.796746 
L 348.800376 242.098305 
L 350.060207 241.313311 
L 351.320038 241.637406 
L 352.579868 241.134603 
L 355.09953 241.329954 
L 356.35936 241.097453 
L 357.619191 238.752667 
L 358.879022 241.916328 
L 360.138852 241.308072 
L 361.398683 241.936132 
L 362.658514 242.04732 
L 365.178175 241.4657 
L 366.438006 240.411905 
L 367.697836 240.074381 
L 368.957667 242.008729 
L 371.477328 241.420332 
L 372.737159 239.765473 
L 373.99699 240.724869 
L 375.25682 240.755554 
L 376.516651 241.146561 
L 377.776482 241.981588 
L 379.036312 241.405637 
L 380.296143 241.360671 
L 381.555974 242.067767 
L 382.815804 241.276439 
L 384.075635 241.70352 
L 385.335466 241.969261 
L 386.595296 241.554613 
L 387.855127 241.924081 
L 389.114958 241.626305 
L 390.374788 241.660541 
L 391.634619 242.045372 
L 392.89445 240.876264 
L 394.15428 241.269539 
L 395.414111 241.020065 
L 396.673942 242.015518 
L 397.933772 241.91103 
L 400.453434 242.0812 
L 401.713264 241.270139 
L 402.973095 241.916388 
L 404.232926 240.642559 
L 405.492756 241.825468 
L 406.752587 242.017629 
L 408.012418 241.795605 
L 409.272248 241.299081 
L 410.532079 242.114682 
L 411.79191 242.08646 
L 414.311571 241.569004 
L 415.571402 241.628132 
L 416.831232 241.182458 
L 418.091063 242.081828 
L 419.350894 242.093077 
L 420.610724 240.924992 
L 421.870555 241.738047 
L 423.130386 241.585171 
L 424.390216 242.049251 
L 425.650047 241.047921 
L 426.909878 241.537829 
L 428.169708 239.707593 
L 429.429539 239.882304 
L 430.68937 241.909175 
L 431.9492 241.227618 
L 433 241.064703 
M 433 242.116364 
L -1 242.116364 
L -1 242.116364 
" clip-path="url(#pc1502d61d8)" style="fill: none; stroke: #dd8452; stroke-opacity: 0.3; stroke-width: 1.5; stroke-linecap: round"/>
   </g>
   <g id="line2d_15">
    <path d="M 54 242.116364 
L 433 242.116364 
M 433 242.116364 
L -1 242.116364 
L -1 242.116364 
" clip-path="url(#pc1502d61d8)" style="fill: none; stroke: #55a868; stroke-opacity: 0.3; stroke-width: 1.5; stroke-linecap: round"/>
   </g>
   <g id="line2d_16">
    <path d="M 54 242.1117 
L 159.825776 242.040039 
L 161.085607 241.966772 
L 162.345437 242.09557 
L 163.605268 242.017788 
L 166.124929 242.093767 
L 167.38476 241.82378 
L 168.644591 242.03236 
L 176.203575 242.017102 
L 177.463405 240.811917 
L 178.723236 242.112337 
L 179.983067 241.828465 
L 181.242897 240.828515 
L 183.762559 240.806745 
L 185.022389 239.145376 
L 186.28222 241.907693 
L 187.542051 241.895709 
L 188.801881 241.665177 
L 190.061712 241.603873 
L 191.321543 242.060098 
L 192.581373 241.548023 
L 193.841204 241.819938 
L 195.101035 241.632752 
L 196.360865 241.823483 
L 197.620696 239.85929 
L 198.880527 240.547197 
L 200.140357 242.110741 
L 201.400188 240.744816 
L 202.660019 240.752428 
L 203.919849 241.80846 
L 205.17968 239.145508 
L 206.439511 240.982607 
L 207.699341 240.712353 
L 210.219003 238.458524 
L 211.478833 240.845504 
L 212.738664 242.031424 
L 213.998495 239.617034 
L 215.258325 240.167054 
L 216.518156 240.841448 
L 217.777987 240.052489 
L 219.037817 229.30578 
L 220.297648 240.735191 
L 221.557479 235.220027 
L 222.81731 238.052192 
L 224.07714 235.891337 
L 225.336971 241.540649 
L 226.596802 239.296226 
L 227.856632 241.487168 
L 229.116463 238.429739 
L 230.376294 240.527045 
L 231.636124 241.354697 
L 232.895955 238.921009 
L 234.155786 238.506995 
L 235.415616 236.871405 
L 236.675447 240.889141 
L 237.935278 241.816566 
L 239.195108 238.53087 
L 240.454939 238.916606 
L 241.71477 239.144993 
L 242.9746 238.61188 
L 244.234431 240.497331 
L 245.494262 242.03087 
L 248.013923 241.033977 
L 249.273754 234.535004 
L 250.533584 234.758033 
L 251.793415 235.978247 
L 253.053246 240.84021 
L 254.313076 239.909216 
L 255.572907 238.17129 
L 256.832738 239.870197 
L 259.352399 135.037863 
L 260.61223 65.080132 
L 261.87206 236.236053 
L 263.131891 47.150179 
L 264.391722 109.523157 
L 265.651552 198.533929 
L 266.911383 228.764359 
L 268.171214 233.393471 
L 269.431044 240.435408 
L 270.690875 238.106603 
L 271.950706 237.488184 
L 273.210536 241.842261 
L 274.470367 239.741284 
L 275.730198 220.953044 
L 276.990028 241.92652 
L 278.249859 231.019857 
L 279.50969 239.200785 
L 280.76952 241.515414 
L 282.029351 241.539394 
L 283.289182 238.892673 
L 284.549012 240.800708 
L 285.808843 241.280734 
L 287.068674 241.944712 
L 288.328504 241.606776 
L 289.588335 241.46283 
L 290.848166 241.634741 
L 292.107996 241.474206 
L 293.367827 241.72199 
L 294.627658 240.548128 
L 295.887488 240.44349 
L 297.147319 238.81084 
L 298.40715 239.176139 
L 299.66698 242.036543 
L 300.926811 240.315153 
L 302.186642 241.859992 
L 303.446472 240.670042 
L 304.706303 241.730369 
L 305.966134 239.528044 
L 307.225964 238.684903 
L 308.485795 241.091414 
L 309.745626 241.005994 
L 311.005456 241.680236 
L 312.265287 240.472388 
L 313.525118 241.865423 
L 314.784948 241.902184 
L 316.044779 242.060827 
L 317.30461 241.205127 
L 318.56444 241.487539 
L 319.824271 240.879512 
L 321.084102 241.300992 
L 322.343932 240.038288 
L 323.603763 240.621117 
L 324.863594 241.770228 
L 326.123424 241.612361 
L 327.383255 241.871084 
L 328.643086 241.895381 
L 329.902916 241.739645 
L 331.162747 240.958573 
L 332.422578 240.327025 
L 333.682408 242.058221 
L 334.942239 239.705215 
L 336.20207 241.3574 
L 337.4619 241.442358 
L 338.721731 241.700033 
L 339.981562 241.210079 
L 341.241392 241.987628 
L 342.501223 241.678594 
L 343.761054 241.986772 
L 345.020884 240.852947 
L 346.280715 241.827567 
L 348.800376 242.005394 
L 350.060207 240.357421 
L 351.320038 242.00193 
L 352.579868 241.432786 
L 353.839699 241.992515 
L 355.09953 240.968619 
L 356.35936 241.576291 
L 357.619191 241.782035 
L 358.879022 241.56248 
L 360.138852 241.997398 
L 361.398683 241.736101 
L 362.658514 241.687749 
L 363.918344 240.670252 
L 365.178175 242.073872 
L 366.438006 239.423553 
L 367.697836 241.222685 
L 368.957667 240.213827 
L 370.217498 242.030577 
L 371.477328 241.183729 
L 372.737159 241.82225 
L 373.99699 241.753931 
L 376.516651 242.099342 
L 377.776482 241.676787 
L 379.036312 241.876336 
L 380.296143 241.299303 
L 381.555974 241.766144 
L 382.815804 241.940318 
L 384.075635 239.107518 
L 385.335466 237.965591 
L 386.595296 241.776027 
L 387.855127 240.76357 
L 389.114958 241.076597 
L 390.374788 242.091794 
L 392.89445 241.652383 
L 394.15428 241.559043 
L 396.673942 241.999642 
L 399.193603 241.927598 
L 400.453434 241.325108 
L 401.713264 241.938286 
L 402.973095 241.790104 
L 404.232926 241.893551 
L 405.492756 241.840385 
L 406.752587 242.088403 
L 410.532079 242.090544 
L 411.79191 241.678342 
L 413.05174 242.025586 
L 414.311571 241.4657 
L 415.571402 242.079123 
L 416.831232 241.249896 
L 418.091063 241.814138 
L 420.610724 241.914521 
L 421.870555 242.060609 
L 423.130386 241.405797 
L 424.390216 242.087714 
L 425.650047 241.77979 
L 426.909878 240.972031 
L 428.169708 241.251703 
L 429.429539 241.204625 
L 433 241.933267 
M 433 242.116364 
L -1 242.116364 
L -1 242.116364 
" clip-path="url(#pc1502d61d8)" style="fill: none; stroke: #c44e52; stroke-opacity: 0.3; stroke-width: 1.5; stroke-linecap: round"/>
   </g>
   <g id="line2d_17">
    <path d="M 54 242.11369 
L 169.904421 242.072285 
L 171.164252 241.931499 
L 172.424083 242.109171 
L 176.203575 242.022712 
L 177.463405 242.08051 
L 178.723236 241.992512 
L 181.242897 242.110553 
L 183.762559 241.768786 
L 185.022389 241.860911 
L 186.28222 242.066808 
L 187.542051 242.064154 
L 188.801881 241.403679 
L 190.061712 241.662062 
L 191.321543 241.743246 
L 192.581373 241.64629 
L 193.841204 241.339931 
L 195.101035 242.035383 
L 196.360865 241.654665 
L 197.620696 242.086231 
L 198.880527 240.888672 
L 200.140357 241.874333 
L 201.400188 241.427024 
L 202.660019 241.263017 
L 203.919849 242.1118 
L 205.17968 241.772248 
L 206.439511 242.075445 
L 207.699341 241.682423 
L 208.959172 241.78482 
L 210.219003 242.080854 
L 211.478833 241.057472 
L 212.738664 240.79957 
L 213.998495 240.760591 
L 215.258325 237.965303 
L 216.518156 241.753375 
L 217.777987 241.288791 
L 219.037817 238.791736 
L 220.297648 241.467526 
L 221.557479 239.226495 
L 222.81731 241.674426 
L 224.07714 236.275031 
L 225.336971 241.07731 
L 226.596802 240.840336 
L 227.856632 239.449286 
L 229.116463 241.282586 
L 230.376294 241.831914 
L 232.895955 242.066122 
L 234.155786 242.013829 
L 235.415616 241.161668 
L 236.675447 238.511233 
L 237.935278 239.22504 
L 239.195108 242.035961 
L 240.454939 240.181542 
L 242.9746 239.527887 
L 244.234431 237.061122 
L 245.494262 241.847715 
L 246.754092 240.115665 
L 248.013923 239.88915 
L 249.273754 242.010905 
L 251.793415 241.079382 
L 253.053246 240.952617 
L 254.313076 241.299255 
L 255.572907 239.211016 
L 256.832738 241.894016 
L 258.092568 219.672231 
L 259.352399 177.592853 
L 260.61223 179.061811 
L 261.87206 188.972941 
L 263.131891 135.971737 
L 264.391722 230.50918 
L 265.651552 241.79967 
L 266.911383 241.420321 
L 268.171214 238.076854 
L 269.431044 240.369013 
L 270.690875 240.054143 
L 271.950706 241.297765 
L 273.210536 240.333075 
L 274.470367 240.043464 
L 275.730198 235.180928 
L 276.990028 241.329583 
L 278.249859 236.828314 
L 279.50969 240.839753 
L 280.76952 241.958119 
L 282.029351 241.223566 
L 283.289182 241.94632 
L 284.549012 241.683272 
L 285.808843 242.090909 
L 287.068674 241.271779 
L 289.588335 240.010378 
L 290.848166 241.834391 
L 292.107996 241.801021 
L 293.367827 239.916918 
L 294.627658 241.363728 
L 295.887488 241.291462 
L 297.147319 241.911564 
L 298.40715 241.61616 
L 299.66698 241.918487 
L 300.926811 241.082002 
L 302.186642 242.105257 
L 303.446472 241.860266 
L 304.706303 241.444417 
L 307.225964 239.829533 
L 308.485795 241.85577 
L 309.745626 240.867399 
L 311.005456 241.672422 
L 312.265287 242.030273 
L 313.525118 240.874809 
L 314.784948 241.040365 
L 316.044779 241.923044 
L 317.30461 240.322643 
L 318.56444 242.005741 
L 319.824271 241.894355 
L 321.084102 242.029832 
L 322.343932 241.893638 
L 323.603763 241.526319 
L 324.863594 241.311865 
L 326.123424 241.697576 
L 327.383255 240.153322 
L 328.643086 240.785639 
L 329.902916 241.055364 
L 331.162747 241.136558 
L 332.422578 241.849416 
L 333.682408 242.067827 
L 334.942239 242.030311 
L 336.20207 240.319326 
L 337.4619 241.639138 
L 338.721731 241.15359 
L 339.981562 241.346071 
L 341.241392 241.861175 
L 342.501223 241.667421 
L 343.761054 240.429984 
L 345.020884 241.981303 
L 346.280715 241.431941 
L 347.540546 241.857801 
L 348.800376 240.673183 
L 350.060207 241.865231 
L 351.320038 241.576367 
L 352.579868 241.812833 
L 353.839699 240.847644 
L 355.09953 241.732582 
L 356.35936 241.227285 
L 357.619191 241.045915 
L 358.879022 241.579792 
L 361.398683 241.618366 
L 362.658514 241.924799 
L 363.918344 241.248277 
L 365.178175 241.870066 
L 366.438006 241.081685 
L 367.697836 240.896736 
L 368.957667 240.54118 
L 370.217498 241.989614 
L 371.477328 241.249396 
L 372.737159 241.768989 
L 373.99699 241.84184 
L 375.25682 242.054381 
L 376.516651 241.665629 
L 380.296143 241.862397 
L 381.555974 241.060336 
L 382.815804 241.893689 
L 384.075635 241.852618 
L 385.335466 241.279441 
L 386.595296 241.239544 
L 389.114958 242.024231 
L 390.374788 241.527353 
L 391.634619 241.365772 
L 392.89445 241.53916 
L 394.15428 241.924696 
L 395.414111 242.088542 
L 396.673942 241.212897 
L 397.933772 241.606236 
L 399.193603 241.432772 
L 400.453434 241.487311 
L 401.713264 242.036285 
L 402.973095 241.921903 
L 404.232926 241.971673 
L 405.492756 241.899881 
L 406.752587 242.090091 
L 408.012418 242.092413 
L 409.272248 241.425251 
L 410.532079 242.108045 
L 411.79191 241.87463 
L 413.05174 241.908987 
L 414.311571 240.934119 
L 415.571402 241.239747 
L 416.831232 241.741658 
L 418.091063 242.071185 
L 419.350894 241.923035 
L 421.870555 242.029272 
L 423.130386 241.850369 
L 426.909878 242.034655 
L 428.169708 241.346198 
L 429.429539 242.080027 
L 430.68937 241.171295 
L 431.9492 242.069267 
L 433 241.993403 
M 433 242.116364 
L -1 242.116364 
L -1 242.116364 
" clip-path="url(#pc1502d61d8)" style="fill: none; stroke: #8172b3; stroke-opacity: 0.3; stroke-width: 1.5; stroke-linecap: round"/>
   </g>
   <g id="line2d_18">
    <path d="M 54 242.116364 
L 433 242.116364 
M 433 242.116364 
L -1 242.116364 
L -1 242.116364 
" clip-path="url(#pc1502d61d8)" style="fill: none; stroke: #937860; stroke-opacity: 0.3; stroke-width: 1.5; stroke-linecap: round"/>
   </g>
   <g id="line2d_19">
    <path d="M 54 242.116364 
L 433 242.116364 
M 433 242.116364 
L -1 242.116364 
L -1 242.116364 
" clip-path="url(#pc1502d61d8)" style="fill: none; stroke: #da8bc3; stroke-opacity: 0.3; stroke-width: 1.5; stroke-linecap: round"/>
   </g>
   <g id="patch_3">
    <path d="M 54 252 
L 54 34.56 
" style="fill: none; stroke: #262626; stroke-width: 1.25; stroke-linejoin: miter; stroke-linecap: square"/>
   </g>
   <g id="patch_4">
    <path d="M 388.8 252 
L 388.8 34.56 
" style="fill: none; stroke: #262626; stroke-width: 1.25; stroke-linejoin: miter; stroke-linecap: square"/>
   </g>
   <g id="patch_5">
    <path d="M 54 252 
L 388.8 252 
" style="fill: none; stroke: #262626; stroke-width: 1.25; stroke-linejoin: miter; stroke-linecap: square"/>
   </g>
   <g id="patch_6">
    <path d="M 54 34.56 
L 388.8 34.56 
" style="fill: none; stroke: #262626; stroke-width: 1.25; stroke-linejoin: miter; stroke-linecap: square"/>
   </g>
   <g id="text_14">
    <!-- patient14_app03 - Power spectrum -->
    <g style="fill: #262626" transform="translate(128.0175 28.56)scale(0.12 -0.12)">
     <defs>
      <path id="ArialMT-70" d="M 422 -1272 
L 422 3319 
L 934 3319 
L 934 2888 
Q 1116 3141 1344 3267 
Q 1572 3394 1897 3394 
Q 2322 3394 2647 3175 
Q 2972 2956 3137 2557 
Q 3303 2159 3303 1684 
Q 3303 1175 3120 767 
Q 2938 359 2589 142 
Q 2241 -75 1856 -75 
Q 1575 -75 1351 44 
Q 1128 163 984 344 
L 984 -1272 
L 422 -1272 
z
M 931 1641 
Q 931 1000 1190 694 
Q 1450 388 1819 388 
Q 2194 388 2461 705 
Q 2728 1022 2728 1688 
Q 2728 2322 2467 2637 
Q 2206 2953 1844 2953 
Q 1484 2953 1207 2617 
Q 931 2281 931 1641 
z
" transform="scale(0.015625)"/>
      <path id="ArialMT-61" d="M 2588 409 
Q 2275 144 1986 34 
Q 1697 -75 1366 -75 
Q 819 -75 525 192 
Q 231 459 231 875 
Q 231 1119 342 1320 
Q 453 1522 633 1644 
Q 813 1766 1038 1828 
Q 1203 1872 1538 1913 
Q 2219 1994 2541 2106 
Q 2544 2222 2544 2253 
Q 2544 2597 2384 2738 
Q 2169 2928 1744 2928 
Q 1347 2928 1158 2789 
Q 969 2650 878 2297 
L 328 2372 
Q 403 2725 575 2942 
Q 747 3159 1072 3276 
Q 1397 3394 1825 3394 
Q 2250 3394 2515 3294 
Q 2781 3194 2906 3042 
Q 3031 2891 3081 2659 
Q 3109 2516 3109 2141 
L 3109 1391 
Q 3109 606 3145 398 
Q 3181 191 3288 0 
L 2700 0 
Q 2613 175 2588 409 
z
M 2541 1666 
Q 2234 1541 1622 1453 
Q 1275 1403 1131 1340 
Q 988 1278 909 1158 
Q 831 1038 831 891 
Q 831 666 1001 516 
Q 1172 366 1500 366 
Q 1825 366 2078 508 
Q 2331 650 2450 897 
Q 2541 1088 2541 1459 
L 2541 1666 
z
" transform="scale(0.015625)"/>
      <path id="ArialMT-74" d="M 1650 503 
L 1731 6 
Q 1494 -44 1306 -44 
Q 1000 -44 831 53 
Q 663 150 594 308 
Q 525 466 525 972 
L 525 2881 
L 113 2881 
L 113 3319 
L 525 3319 
L 525 4141 
L 1084 4478 
L 1084 3319 
L 1650 3319 
L 1650 2881 
L 1084 2881 
L 1084 941 
Q 1084 700 1114 631 
Q 1144 563 1211 522 
Q 1278 481 1403 481 
Q 1497 481 1650 503 
z
" transform="scale(0.015625)"/>
      <path id="ArialMT-69" d="M 425 3934 
L 425 4581 
L 988 4581 
L 988 3934 
L 425 3934 
z
M 425 0 
L 425 3319 
L 988 3319 
L 988 0 
L 425 0 
z
" transform="scale(0.015625)"/>
      <path id="ArialMT-34" d="M 2069 0 
L 2069 1097 
L 81 1097 
L 81 1613 
L 2172 4581 
L 2631 4581 
L 2631 1613 
L 3250 1613 
L 3250 1097 
L 2631 1097 
L 2631 0 
L 2069 0 
z
M 2069 1613 
L 2069 3678 
L 634 1613 
L 2069 1613 
z
" transform="scale(0.015625)"/>
      <path id="ArialMT-5f" d="M -97 -1272 
L -97 -866 
L 3631 -866 
L 3631 -1272 
L -97 -1272 
z
" transform="scale(0.015625)"/>
      <path id="ArialMT-33" d="M 269 1209 
L 831 1284 
Q 928 806 1161 595 
Q 1394 384 1728 384 
Q 2125 384 2398 659 
Q 2672 934 2672 1341 
Q 2672 1728 2419 1979 
Q 2166 2231 1775 2231 
Q 1616 2231 1378 2169 
L 1441 2663 
Q 1497 2656 1531 2656 
Q 1891 2656 2178 2843 
Q 2466 3031 2466 3422 
Q 2466 3731 2256 3934 
Q 2047 4138 1716 4138 
Q 1388 4138 1169 3931 
Q 950 3725 888 3313 
L 325 3413 
Q 428 3978 793 4289 
Q 1159 4600 1703 4600 
Q 2078 4600 2393 4439 
Q 2709 4278 2876 4000 
Q 3044 3722 3044 3409 
Q 3044 3113 2884 2869 
Q 2725 2625 2413 2481 
Q 2819 2388 3044 2092 
Q 3269 1797 3269 1353 
Q 3269 753 2831 336 
Q 2394 -81 1725 -81 
Q 1122 -81 723 278 
Q 325 638 269 1209 
z
" transform="scale(0.015625)"/>
      <path id="ArialMT-2d" d="M 203 1375 
L 203 1941 
L 1931 1941 
L 1931 1375 
L 203 1375 
z
" transform="scale(0.015625)"/>
      <path id="ArialMT-50" d="M 494 0 
L 494 4581 
L 2222 4581 
Q 2678 4581 2919 4538 
Q 3256 4481 3484 4323 
Q 3713 4166 3852 3881 
Q 3991 3597 3991 3256 
Q 3991 2672 3619 2267 
Q 3247 1863 2275 1863 
L 1100 1863 
L 1100 0 
L 494 0 
z
M 1100 2403 
L 2284 2403 
Q 2872 2403 3119 2622 
Q 3366 2841 3366 3238 
Q 3366 3525 3220 3729 
Q 3075 3934 2838 4000 
Q 2684 4041 2272 4041 
L 1100 4041 
L 1100 2403 
z
" transform="scale(0.015625)"/>
      <path id="ArialMT-6f" d="M 213 1659 
Q 213 2581 725 3025 
Q 1153 3394 1769 3394 
Q 2453 3394 2887 2945 
Q 3322 2497 3322 1706 
Q 3322 1066 3130 698 
Q 2938 331 2570 128 
Q 2203 -75 1769 -75 
Q 1072 -75 642 372 
Q 213 819 213 1659 
z
M 791 1659 
Q 791 1022 1069 705 
Q 1347 388 1769 388 
Q 2188 388 2466 706 
Q 2744 1025 2744 1678 
Q 2744 2294 2464 2611 
Q 2184 2928 1769 2928 
Q 1347 2928 1069 2612 
Q 791 2297 791 1659 
z
" transform="scale(0.015625)"/>
      <path id="ArialMT-77" d="M 1034 0 
L 19 3319 
L 600 3319 
L 1128 1403 
L 1325 691 
Q 1338 744 1497 1375 
L 2025 3319 
L 2603 3319 
L 3100 1394 
L 3266 759 
L 3456 1400 
L 4025 3319 
L 4572 3319 
L 3534 0 
L 2950 0 
L 2422 1988 
L 2294 2553 
L 1622 0 
L 1034 0 
z
" transform="scale(0.015625)"/>
      <path id="ArialMT-73" d="M 197 991 
L 753 1078 
Q 800 744 1014 566 
Q 1228 388 1613 388 
Q 2000 388 2187 545 
Q 2375 703 2375 916 
Q 2375 1106 2209 1216 
Q 2094 1291 1634 1406 
Q 1016 1563 777 1677 
Q 538 1791 414 1992 
Q 291 2194 291 2438 
Q 291 2659 392 2848 
Q 494 3038 669 3163 
Q 800 3259 1026 3326 
Q 1253 3394 1513 3394 
Q 1903 3394 2198 3281 
Q 2494 3169 2634 2976 
Q 2775 2784 2828 2463 
L 2278 2388 
Q 2241 2644 2061 2787 
Q 1881 2931 1553 2931 
Q 1166 2931 1000 2803 
Q 834 2675 834 2503 
Q 834 2394 903 2306 
Q 972 2216 1119 2156 
Q 1203 2125 1616 2013 
Q 2213 1853 2448 1751 
Q 2684 1650 2818 1456 
Q 2953 1263 2953 975 
Q 2953 694 2789 445 
Q 2625 197 2315 61 
Q 2006 -75 1616 -75 
Q 969 -75 630 194 
Q 291 463 197 991 
z
" transform="scale(0.015625)"/>
      <path id="ArialMT-6d" d="M 422 0 
L 422 3319 
L 925 3319 
L 925 2853 
Q 1081 3097 1340 3245 
Q 1600 3394 1931 3394 
Q 2300 3394 2536 3241 
Q 2772 3088 2869 2813 
Q 3263 3394 3894 3394 
Q 4388 3394 4653 3120 
Q 4919 2847 4919 2278 
L 4919 0 
L 4359 0 
L 4359 2091 
Q 4359 2428 4304 2576 
Q 4250 2725 4106 2815 
Q 3963 2906 3769 2906 
Q 3419 2906 3187 2673 
Q 2956 2441 2956 1928 
L 2956 0 
L 2394 0 
L 2394 2156 
Q 2394 2531 2256 2718 
Q 2119 2906 1806 2906 
Q 1569 2906 1367 2781 
Q 1166 2656 1075 2415 
Q 984 2175 984 1722 
L 984 0 
L 422 0 
z
" transform="scale(0.015625)"/>
     </defs>
     <use xlink:href="#ArialMT-70"/>
     <use xlink:href="#ArialMT-61" x="55.615234"/>
     <use xlink:href="#ArialMT-74" x="111.230469"/>
     <use xlink:href="#ArialMT-69" x="139.013672"/>
     <use xlink:href="#ArialMT-65" x="161.230469"/>
     <use xlink:href="#ArialMT-6e" x="216.845703"/>
     <use xlink:href="#ArialMT-74" x="272.460938"/>
     <use xlink:href="#ArialMT-31" x="300.244141"/>
     <use xlink:href="#ArialMT-34" x="355.859375"/>
     <use xlink:href="#ArialMT-5f" x="411.474609"/>
     <use xlink:href="#ArialMT-61" x="467.089844"/>
     <use xlink:href="#ArialMT-70" x="522.705078"/>
     <use xlink:href="#ArialMT-70" x="578.320312"/>
     <use xlink:href="#ArialMT-30" x="633.935547"/>
     <use xlink:href="#ArialMT-33" x="689.550781"/>
     <use xlink:href="#ArialMT-20" x="745.166016"/>
     <use xlink:href="#ArialMT-2d" x="772.949219"/>
     <use xlink:href="#ArialMT-20" x="806.25"/>
     <use xlink:href="#ArialMT-50" x="834.033203"/>
     <use xlink:href="#ArialMT-6f" x="900.732422"/>
     <use xlink:href="#ArialMT-77" x="956.347656"/>
     <use xlink:href="#ArialMT-65" x="1028.564453"/>
     <use xlink:href="#ArialMT-72" x="1084.179688"/>
     <use xlink:href="#ArialMT-20" x="1117.480469"/>
     <use xlink:href="#ArialMT-73" x="1145.263672"/>
     <use xlink:href="#ArialMT-70" x="1195.263672"/>
     <use xlink:href="#ArialMT-65" x="1250.878906"/>
     <use xlink:href="#ArialMT-63" x="1306.494141"/>
     <use xlink:href="#ArialMT-74" x="1356.494141"/>
     <use xlink:href="#ArialMT-72" x="1384.277344"/>
     <use xlink:href="#ArialMT-75" x="1417.578125"/>
     <use xlink:href="#ArialMT-6d" x="1473.193359"/>
    </g>
   </g>
   <g id="legend_1">
    <g id="patch_7">
     <path d="M 313.503281 152.278906 
L 381.1 152.278906 
Q 383.3 152.278906 383.3 150.078906 
L 383.3 42.26 
Q 383.3 40.06 381.1 40.06 
L 313.503281 40.06 
Q 311.303281 40.06 311.303281 42.26 
L 311.303281 150.078906 
Q 311.303281 152.278906 313.503281 152.278906 
z
" style="fill: #ffffff; opacity: 0.8; stroke: #cccccc; stroke-linejoin: miter"/>
    </g>
    <g id="line2d_20">
     <path d="M 315.703281 48.483594 
L 326.703281 48.483594 
L 337.703281 48.483594 
" style="fill: none; stroke: #4c72b0; stroke-opacity: 0.3; stroke-width: 1.5; stroke-linecap: round"/>
    </g>
    <g id="text_15">
     <!-- IMU9 -->
     <g style="fill: #262626" transform="translate(346.503281 52.333594)scale(0.11 -0.11)">
      <defs>
       <path id="ArialMT-49" d="M 597 0 
L 597 4581 
L 1203 4581 
L 1203 0 
L 597 0 
z
" transform="scale(0.015625)"/>
       <path id="ArialMT-4d" d="M 475 0 
L 475 4581 
L 1388 4581 
L 2472 1338 
Q 2622 884 2691 659 
Q 2769 909 2934 1394 
L 4031 4581 
L 4847 4581 
L 4847 0 
L 4263 0 
L 4263 3834 
L 2931 0 
L 2384 0 
L 1059 3900 
L 1059 0 
L 475 0 
z
" transform="scale(0.015625)"/>
       <path id="ArialMT-55" d="M 3500 4581 
L 4106 4581 
L 4106 1934 
Q 4106 1244 3950 837 
Q 3794 431 3386 176 
Q 2978 -78 2316 -78 
Q 1672 -78 1262 144 
Q 853 366 678 786 
Q 503 1206 503 1934 
L 503 4581 
L 1109 4581 
L 1109 1938 
Q 1109 1341 1220 1058 
Q 1331 775 1601 622 
Q 1872 469 2263 469 
Q 2931 469 3215 772 
Q 3500 1075 3500 1938 
L 3500 4581 
z
" transform="scale(0.015625)"/>
       <path id="ArialMT-39" d="M 350 1059 
L 891 1109 
Q 959 728 1153 556 
Q 1347 384 1650 384 
Q 1909 384 2104 503 
Q 2300 622 2425 820 
Q 2550 1019 2634 1356 
Q 2719 1694 2719 2044 
Q 2719 2081 2716 2156 
Q 2547 1888 2255 1720 
Q 1963 1553 1622 1553 
Q 1053 1553 659 1965 
Q 266 2378 266 3053 
Q 266 3750 677 4175 
Q 1088 4600 1706 4600 
Q 2153 4600 2523 4359 
Q 2894 4119 3086 3673 
Q 3278 3228 3278 2384 
Q 3278 1506 3087 986 
Q 2897 466 2520 194 
Q 2144 -78 1638 -78 
Q 1100 -78 759 220 
Q 419 519 350 1059 
z
M 2653 3081 
Q 2653 3566 2395 3850 
Q 2138 4134 1775 4134 
Q 1400 4134 1122 3828 
Q 844 3522 844 3034 
Q 844 2597 1108 2323 
Q 1372 2050 1759 2050 
Q 2150 2050 2401 2323 
Q 2653 2597 2653 3081 
z
" transform="scale(0.015625)"/>
      </defs>
      <use xlink:href="#ArialMT-49"/>
      <use xlink:href="#ArialMT-4d" x="27.783203"/>
      <use xlink:href="#ArialMT-55" x="111.083984"/>
      <use xlink:href="#ArialMT-39" x="183.300781"/>
     </g>
    </g>
    <g id="line2d_21">
     <path d="M 315.703281 64.043438 
L 326.703281 64.043438 
L 337.703281 64.043438 
" style="fill: none; stroke: #dd8452; stroke-opacity: 0.3; stroke-width: 1.5; stroke-linecap: round"/>
    </g>
    <g id="text_16">
     <!-- IMU10 -->
     <g style="fill: #262626" transform="translate(346.503281 67.893438)scale(0.11 -0.11)">
      <use xlink:href="#ArialMT-49"/>
      <use xlink:href="#ArialMT-4d" x="27.783203"/>
      <use xlink:href="#ArialMT-55" x="111.083984"/>
      <use xlink:href="#ArialMT-31" x="183.300781"/>
      <use xlink:href="#ArialMT-30" x="238.916016"/>
     </g>
    </g>
    <g id="line2d_22">
     <path d="M 315.703281 79.603281 
L 326.703281 79.603281 
L 337.703281 79.603281 
" style="fill: none; stroke: #55a868; stroke-opacity: 0.3; stroke-width: 1.5; stroke-linecap: round"/>
    </g>
    <g id="text_17">
     <!-- IMU11 -->
     <g style="fill: #262626" transform="translate(346.503281 83.453281)scale(0.11 -0.11)">
      <use xlink:href="#ArialMT-49"/>
      <use xlink:href="#ArialMT-4d" x="27.783203"/>
      <use xlink:href="#ArialMT-55" x="111.083984"/>
      <use xlink:href="#ArialMT-31" x="183.300781"/>
      <use xlink:href="#ArialMT-31" x="231.541016"/>
     </g>
    </g>
    <g id="line2d_23">
     <path d="M 315.703281 95.163125 
L 326.703281 95.163125 
L 337.703281 95.163125 
" style="fill: none; stroke: #c44e52; stroke-opacity: 0.3; stroke-width: 1.5; stroke-linecap: round"/>
    </g>
    <g id="text_18">
     <!-- IMU12 -->
     <g style="fill: #262626" transform="translate(346.503281 99.013125)scale(0.11 -0.11)">
      <use xlink:href="#ArialMT-49"/>
      <use xlink:href="#ArialMT-4d" x="27.783203"/>
      <use xlink:href="#ArialMT-55" x="111.083984"/>
      <use xlink:href="#ArialMT-31" x="183.300781"/>
      <use xlink:href="#ArialMT-32" x="238.916016"/>
     </g>
    </g>
    <g id="line2d_24">
     <path d="M 315.703281 110.722969 
L 326.703281 110.722969 
L 337.703281 110.722969 
" style="fill: none; stroke: #8172b3; stroke-opacity: 0.3; stroke-width: 1.5; stroke-linecap: round"/>
    </g>
    <g id="text_19">
     <!-- IMU13 -->
     <g style="fill: #262626" transform="translate(346.503281 114.572969)scale(0.11 -0.11)">
      <use xlink:href="#ArialMT-49"/>
      <use xlink:href="#ArialMT-4d" x="27.783203"/>
      <use xlink:href="#ArialMT-55" x="111.083984"/>
      <use xlink:href="#ArialMT-31" x="183.300781"/>
      <use xlink:href="#ArialMT-33" x="238.916016"/>
     </g>
    </g>
    <g id="line2d_25">
     <path d="M 315.703281 126.282813 
L 326.703281 126.282813 
L 337.703281 126.282813 
" style="fill: none; stroke: #937860; stroke-opacity: 0.3; stroke-width: 1.5; stroke-linecap: round"/>
    </g>
    <g id="text_20">
     <!-- IMU14 -->
     <g style="fill: #262626" transform="translate(346.503281 130.132812)scale(0.11 -0.11)">
      <use xlink:href="#ArialMT-49"/>
      <use xlink:href="#ArialMT-4d" x="27.783203"/>
      <use xlink:href="#ArialMT-55" x="111.083984"/>
      <use xlink:href="#ArialMT-31" x="183.300781"/>
      <use xlink:href="#ArialMT-34" x="238.916016"/>
     </g>
    </g>
    <g id="line2d_26">
     <path d="M 315.703281 141.842656 
L 326.703281 141.842656 
L 337.703281 141.842656 
" style="fill: none; stroke: #da8bc3; stroke-opacity: 0.3; stroke-width: 1.5; stroke-linecap: round"/>
    </g>
    <g id="text_21">
     <!-- IMU15 -->
     <g style="fill: #262626" transform="translate(346.503281 145.692656)scale(0.11 -0.11)">
      <use xlink:href="#ArialMT-49"/>
      <use xlink:href="#ArialMT-4d" x="27.783203"/>
      <use xlink:href="#ArialMT-55" x="111.083984"/>
      <use xlink:href="#ArialMT-31" x="183.300781"/>
      <use xlink:href="#ArialMT-35" x="238.916016"/>
     </g>
    </g>
   </g>
  </g>
 </g>
 <defs>
  <clipPath id="pc1502d61d8">
   <rect x="54" y="34.56" width="334.8" height="217.44"/>
  </clipPath>
 </defs>
</svg>
