<?xml version="1.0" encoding="utf-8" standalone="no"?>
<!DOCTYPE svg PUBLIC "-//W3C//DTD SVG 1.1//EN"
  "http://www.w3.org/Graphics/SVG/1.1/DTD/svg11.dtd">
<svg xmlns:xlink="http://www.w3.org/1999/xlink" width="432pt" height="288pt" viewBox="0 0 432 288" xmlns="http://www.w3.org/2000/svg" version="1.1">
 <metadata>
  <rdf:RDF xmlns:dc="http://purl.org/dc/elements/1.1/" xmlns:cc="http://creativecommons.org/ns#" xmlns:rdf="http://www.w3.org/1999/02/22-rdf-syntax-ns#">
   <cc:Work>
    <dc:type rdf:resource="http://purl.org/dc/dcmitype/StillImage"/>
    <dc:date>2022-07-08T13:57:55.754265</dc:date>
    <dc:format>image/svg+xml</dc:format>
    <dc:creator>
     <cc:Agent>
      <dc:title>Matplotlib v3.5.1, https://matplotlib.org/</dc:title>
     </cc:Agent>
    </dc:creator>
   </cc:Work>
  </rdf:RDF>
 </metadata>
 <defs>
  <style type="text/css">*{stroke-linejoin: round; stroke-linecap: butt}</style>
 </defs>
 <g id="figure_1">
  <g id="patch_1">
   <path d="M 0 288 
L 432 288 
L 432 0 
L 0 0 
z
" style="fill: #ffffff"/>
  </g>
  <g id="axes_1">
   <g id="patch_2">
    <path d="M 54 252 
L 388.8 252 
L 388.8 34.56 
L 54 34.56 
z
" style="fill: #ffffff"/>
   </g>
   <g id="matplotlib.axis_1">
    <g id="xtick_1">
     <g id="line2d_1">
      <defs>
       <path id="me57c224661" d="M 0 0 
L 0 6 
" style="stroke: #262626; stroke-width: 1.25"/>
      </defs>
      <g>
       <use xlink:href="#me57c224661" x="54" y="252" style="fill: #262626; stroke: #262626; stroke-width: 1.25"/>
      </g>
     </g>
     <g id="text_1">
      <!-- 0 -->
      <g style="fill: #262626" transform="translate(50.941484 269.373594)scale(0.11 -0.11)">
       <defs>
        <path id="ArialMT-30" d="M 266 2259 
Q 266 3072 433 3567 
Q 600 4063 929 4331 
Q 1259 4600 1759 4600 
Q 2128 4600 2406 4451 
Q 2684 4303 2865 4023 
Q 3047 3744 3150 3342 
Q 3253 2941 3253 2259 
Q 3253 1453 3087 958 
Q 2922 463 2592 192 
Q 2263 -78 1759 -78 
Q 1097 -78 719 397 
Q 266 969 266 2259 
z
M 844 2259 
Q 844 1131 1108 757 
Q 1372 384 1759 384 
Q 2147 384 2411 759 
Q 2675 1134 2675 2259 
Q 2675 3391 2411 3762 
Q 2147 4134 1753 4134 
Q 1366 4134 1134 3806 
Q 844 3388 844 2259 
z
" transform="scale(0.015625)"/>
       </defs>
       <use xlink:href="#ArialMT-30"/>
      </g>
     </g>
    </g>
    <g id="xtick_2">
     <g id="line2d_2">
      <g>
       <use xlink:href="#me57c224661" x="120.96" y="252" style="fill: #262626; stroke: #262626; stroke-width: 1.25"/>
      </g>
     </g>
     <g id="text_2">
      <!-- 5 -->
      <g style="fill: #262626" transform="translate(117.901484 269.373594)scale(0.11 -0.11)">
       <defs>
        <path id="ArialMT-35" d="M 266 1200 
L 856 1250 
Q 922 819 1161 601 
Q 1400 384 1738 384 
Q 2144 384 2425 690 
Q 2706 997 2706 1503 
Q 2706 1984 2436 2262 
Q 2166 2541 1728 2541 
Q 1456 2541 1237 2417 
Q 1019 2294 894 2097 
L 366 2166 
L 809 4519 
L 3088 4519 
L 3088 3981 
L 1259 3981 
L 1013 2750 
Q 1425 3038 1878 3038 
Q 2478 3038 2890 2622 
Q 3303 2206 3303 1553 
Q 3303 931 2941 478 
Q 2500 -78 1738 -78 
Q 1113 -78 717 272 
Q 322 622 266 1200 
z
" transform="scale(0.015625)"/>
       </defs>
       <use xlink:href="#ArialMT-35"/>
      </g>
     </g>
    </g>
    <g id="xtick_3">
     <g id="line2d_3">
      <g>
       <use xlink:href="#me57c224661" x="187.92" y="252" style="fill: #262626; stroke: #262626; stroke-width: 1.25"/>
      </g>
     </g>
     <g id="text_3">
      <!-- 10 -->
      <g style="fill: #262626" transform="translate(181.802969 269.373594)scale(0.11 -0.11)">
       <defs>
        <path id="ArialMT-31" d="M 2384 0 
L 1822 0 
L 1822 3584 
Q 1619 3391 1289 3197 
Q 959 3003 697 2906 
L 697 3450 
Q 1169 3672 1522 3987 
Q 1875 4303 2022 4600 
L 2384 4600 
L 2384 0 
z
" transform="scale(0.015625)"/>
       </defs>
       <use xlink:href="#ArialMT-31"/>
       <use xlink:href="#ArialMT-30" x="55.615234"/>
      </g>
     </g>
    </g>
    <g id="xtick_4">
     <g id="line2d_4">
      <g>
       <use xlink:href="#me57c224661" x="254.88" y="252" style="fill: #262626; stroke: #262626; stroke-width: 1.25"/>
      </g>
     </g>
     <g id="text_4">
      <!-- 15 -->
      <g style="fill: #262626" transform="translate(248.762969 269.373594)scale(0.11 -0.11)">
       <use xlink:href="#ArialMT-31"/>
       <use xlink:href="#ArialMT-35" x="55.615234"/>
      </g>
     </g>
    </g>
    <g id="xtick_5">
     <g id="line2d_5">
      <g>
       <use xlink:href="#me57c224661" x="321.84" y="252" style="fill: #262626; stroke: #262626; stroke-width: 1.25"/>
      </g>
     </g>
     <g id="text_5">
      <!-- 20 -->
      <g style="fill: #262626" transform="translate(315.722969 269.373594)scale(0.11 -0.11)">
       <defs>
        <path id="ArialMT-32" d="M 3222 541 
L 3222 0 
L 194 0 
Q 188 203 259 391 
Q 375 700 629 1000 
Q 884 1300 1366 1694 
Q 2113 2306 2375 2664 
Q 2638 3022 2638 3341 
Q 2638 3675 2398 3904 
Q 2159 4134 1775 4134 
Q 1369 4134 1125 3890 
Q 881 3647 878 3216 
L 300 3275 
Q 359 3922 746 4261 
Q 1134 4600 1788 4600 
Q 2447 4600 2831 4234 
Q 3216 3869 3216 3328 
Q 3216 3053 3103 2787 
Q 2991 2522 2730 2228 
Q 2469 1934 1863 1422 
Q 1356 997 1212 845 
Q 1069 694 975 541 
L 3222 541 
z
" transform="scale(0.015625)"/>
       </defs>
       <use xlink:href="#ArialMT-32"/>
       <use xlink:href="#ArialMT-30" x="55.615234"/>
      </g>
     </g>
    </g>
    <g id="xtick_6">
     <g id="line2d_6">
      <g>
       <use xlink:href="#me57c224661" x="388.8" y="252" style="fill: #262626; stroke: #262626; stroke-width: 1.25"/>
      </g>
     </g>
     <g id="text_6">
      <!-- 25 -->
      <g style="fill: #262626" transform="translate(382.682969 269.373594)scale(0.11 -0.11)">
       <use xlink:href="#ArialMT-32"/>
       <use xlink:href="#ArialMT-35" x="55.615234"/>
      </g>
     </g>
    </g>
    <g id="text_7">
     <!-- Frequency (Hz) -->
     <g style="fill: #262626" transform="translate(180.059063 284.295469)scale(0.12 -0.12)">
      <defs>
       <path id="ArialMT-46" d="M 525 0 
L 525 4581 
L 3616 4581 
L 3616 4041 
L 1131 4041 
L 1131 2622 
L 3281 2622 
L 3281 2081 
L 1131 2081 
L 1131 0 
L 525 0 
z
" transform="scale(0.015625)"/>
       <path id="ArialMT-72" d="M 416 0 
L 416 3319 
L 922 3319 
L 922 2816 
Q 1116 3169 1280 3281 
Q 1444 3394 1641 3394 
Q 1925 3394 2219 3213 
L 2025 2691 
Q 1819 2813 1613 2813 
Q 1428 2813 1281 2702 
Q 1134 2591 1072 2394 
Q 978 2094 978 1738 
L 978 0 
L 416 0 
z
" transform="scale(0.015625)"/>
       <path id="ArialMT-65" d="M 2694 1069 
L 3275 997 
Q 3138 488 2766 206 
Q 2394 -75 1816 -75 
Q 1088 -75 661 373 
Q 234 822 234 1631 
Q 234 2469 665 2931 
Q 1097 3394 1784 3394 
Q 2450 3394 2872 2941 
Q 3294 2488 3294 1666 
Q 3294 1616 3291 1516 
L 816 1516 
Q 847 969 1125 678 
Q 1403 388 1819 388 
Q 2128 388 2347 550 
Q 2566 713 2694 1069 
z
M 847 1978 
L 2700 1978 
Q 2663 2397 2488 2606 
Q 2219 2931 1791 2931 
Q 1403 2931 1139 2672 
Q 875 2413 847 1978 
z
" transform="scale(0.015625)"/>
       <path id="ArialMT-71" d="M 2538 -1272 
L 2538 353 
Q 2406 169 2170 47 
Q 1934 -75 1669 -75 
Q 1078 -75 651 397 
Q 225 869 225 1691 
Q 225 2191 398 2587 
Q 572 2984 901 3189 
Q 1231 3394 1625 3394 
Q 2241 3394 2594 2875 
L 2594 3319 
L 3100 3319 
L 3100 -1272 
L 2538 -1272 
z
M 803 1669 
Q 803 1028 1072 708 
Q 1341 388 1716 388 
Q 2075 388 2334 692 
Q 2594 997 2594 1619 
Q 2594 2281 2320 2615 
Q 2047 2950 1678 2950 
Q 1313 2950 1058 2639 
Q 803 2328 803 1669 
z
" transform="scale(0.015625)"/>
       <path id="ArialMT-75" d="M 2597 0 
L 2597 488 
Q 2209 -75 1544 -75 
Q 1250 -75 995 37 
Q 741 150 617 320 
Q 494 491 444 738 
Q 409 903 409 1263 
L 409 3319 
L 972 3319 
L 972 1478 
Q 972 1038 1006 884 
Q 1059 663 1231 536 
Q 1403 409 1656 409 
Q 1909 409 2131 539 
Q 2353 669 2445 892 
Q 2538 1116 2538 1541 
L 2538 3319 
L 3100 3319 
L 3100 0 
L 2597 0 
z
" transform="scale(0.015625)"/>
       <path id="ArialMT-6e" d="M 422 0 
L 422 3319 
L 928 3319 
L 928 2847 
Q 1294 3394 1984 3394 
Q 2284 3394 2536 3286 
Q 2788 3178 2913 3003 
Q 3038 2828 3088 2588 
Q 3119 2431 3119 2041 
L 3119 0 
L 2556 0 
L 2556 2019 
Q 2556 2363 2490 2533 
Q 2425 2703 2258 2804 
Q 2091 2906 1866 2906 
Q 1506 2906 1245 2678 
Q 984 2450 984 1813 
L 984 0 
L 422 0 
z
" transform="scale(0.015625)"/>
       <path id="ArialMT-63" d="M 2588 1216 
L 3141 1144 
Q 3050 572 2676 248 
Q 2303 -75 1759 -75 
Q 1078 -75 664 370 
Q 250 816 250 1647 
Q 250 2184 428 2587 
Q 606 2991 970 3192 
Q 1334 3394 1763 3394 
Q 2303 3394 2647 3120 
Q 2991 2847 3088 2344 
L 2541 2259 
Q 2463 2594 2264 2762 
Q 2066 2931 1784 2931 
Q 1359 2931 1093 2626 
Q 828 2322 828 1663 
Q 828 994 1084 691 
Q 1341 388 1753 388 
Q 2084 388 2306 591 
Q 2528 794 2588 1216 
z
" transform="scale(0.015625)"/>
       <path id="ArialMT-79" d="M 397 -1278 
L 334 -750 
Q 519 -800 656 -800 
Q 844 -800 956 -737 
Q 1069 -675 1141 -563 
Q 1194 -478 1313 -144 
Q 1328 -97 1363 -6 
L 103 3319 
L 709 3319 
L 1400 1397 
Q 1534 1031 1641 628 
Q 1738 1016 1872 1384 
L 2581 3319 
L 3144 3319 
L 1881 -56 
Q 1678 -603 1566 -809 
Q 1416 -1088 1222 -1217 
Q 1028 -1347 759 -1347 
Q 597 -1347 397 -1278 
z
" transform="scale(0.015625)"/>
       <path id="ArialMT-20" transform="scale(0.015625)"/>
       <path id="ArialMT-28" d="M 1497 -1347 
Q 1031 -759 709 28 
Q 388 816 388 1659 
Q 388 2403 628 3084 
Q 909 3875 1497 4659 
L 1900 4659 
Q 1522 4009 1400 3731 
Q 1209 3300 1100 2831 
Q 966 2247 966 1656 
Q 966 153 1900 -1347 
L 1497 -1347 
z
" transform="scale(0.015625)"/>
       <path id="ArialMT-48" d="M 513 0 
L 513 4581 
L 1119 4581 
L 1119 2700 
L 3500 2700 
L 3500 4581 
L 4106 4581 
L 4106 0 
L 3500 0 
L 3500 2159 
L 1119 2159 
L 1119 0 
L 513 0 
z
" transform="scale(0.015625)"/>
       <path id="ArialMT-7a" d="M 125 0 
L 125 456 
L 2238 2881 
Q 1878 2863 1603 2863 
L 250 2863 
L 250 3319 
L 2963 3319 
L 2963 2947 
L 1166 841 
L 819 456 
Q 1197 484 1528 484 
L 3063 484 
L 3063 0 
L 125 0 
z
" transform="scale(0.015625)"/>
       <path id="ArialMT-29" d="M 791 -1347 
L 388 -1347 
Q 1322 153 1322 1656 
Q 1322 2244 1188 2822 
Q 1081 3291 891 3722 
Q 769 4003 388 4659 
L 791 4659 
Q 1378 3875 1659 3084 
Q 1900 2403 1900 1659 
Q 1900 816 1576 28 
Q 1253 -759 791 -1347 
z
" transform="scale(0.015625)"/>
      </defs>
      <use xlink:href="#ArialMT-46"/>
      <use xlink:href="#ArialMT-72" x="61.083984"/>
      <use xlink:href="#ArialMT-65" x="94.384766"/>
      <use xlink:href="#ArialMT-71" x="150"/>
      <use xlink:href="#ArialMT-75" x="205.615234"/>
      <use xlink:href="#ArialMT-65" x="261.230469"/>
      <use xlink:href="#ArialMT-6e" x="316.845703"/>
      <use xlink:href="#ArialMT-63" x="372.460938"/>
      <use xlink:href="#ArialMT-79" x="422.460938"/>
      <use xlink:href="#ArialMT-20" x="472.460938"/>
      <use xlink:href="#ArialMT-28" x="500.244141"/>
      <use xlink:href="#ArialMT-48" x="533.544922"/>
      <use xlink:href="#ArialMT-7a" x="605.761719"/>
      <use xlink:href="#ArialMT-29" x="655.761719"/>
     </g>
    </g>
   </g>
   <g id="matplotlib.axis_2">
    <g id="ytick_1">
     <g id="line2d_7">
      <defs>
       <path id="m9b017a0b8d" d="M 0 0 
L -6 0 
" style="stroke: #262626; stroke-width: 1.25"/>
      </defs>
      <g>
       <use xlink:href="#m9b017a0b8d" x="54" y="242.116364" style="fill: #262626; stroke: #262626; stroke-width: 1.25"/>
      </g>
     </g>
     <g id="text_8">
      <!-- 0 -->
      <g style="fill: #262626" transform="translate(38.382969 246.053161)scale(0.11 -0.11)">
       <use xlink:href="#ArialMT-30"/>
      </g>
     </g>
    </g>
    <g id="ytick_2">
     <g id="line2d_8">
      <g>
       <use xlink:href="#m9b017a0b8d" x="54" y="217.426011" style="fill: #262626; stroke: #262626; stroke-width: 1.25"/>
      </g>
     </g>
     <g id="text_9">
      <!-- 5000 -->
      <g style="fill: #262626" transform="translate(20.031875 221.362808)scale(0.11 -0.11)">
       <use xlink:href="#ArialMT-35"/>
       <use xlink:href="#ArialMT-30" x="55.615234"/>
       <use xlink:href="#ArialMT-30" x="111.230469"/>
       <use xlink:href="#ArialMT-30" x="166.845703"/>
      </g>
     </g>
    </g>
    <g id="ytick_3">
     <g id="line2d_9">
      <g>
       <use xlink:href="#m9b017a0b8d" x="54" y="192.735659" style="fill: #262626; stroke: #262626; stroke-width: 1.25"/>
      </g>
     </g>
     <g id="text_10">
      <!-- 10000 -->
      <g style="fill: #262626" transform="translate(13.914844 196.672456)scale(0.11 -0.11)">
       <use xlink:href="#ArialMT-31"/>
       <use xlink:href="#ArialMT-30" x="55.615234"/>
       <use xlink:href="#ArialMT-30" x="111.230469"/>
       <use xlink:href="#ArialMT-30" x="166.845703"/>
       <use xlink:href="#ArialMT-30" x="222.460938"/>
      </g>
     </g>
    </g>
    <g id="ytick_4">
     <g id="line2d_10">
      <g>
       <use xlink:href="#m9b017a0b8d" x="54" y="168.045306" style="fill: #262626; stroke: #262626; stroke-width: 1.25"/>
      </g>
     </g>
     <g id="text_11">
      <!-- 15000 -->
      <g style="fill: #262626" transform="translate(13.914844 171.982103)scale(0.11 -0.11)">
       <use xlink:href="#ArialMT-31"/>
       <use xlink:href="#ArialMT-35" x="55.615234"/>
       <use xlink:href="#ArialMT-30" x="111.230469"/>
       <use xlink:href="#ArialMT-30" x="166.845703"/>
       <use xlink:href="#ArialMT-30" x="222.460938"/>
      </g>
     </g>
    </g>
    <g id="ytick_5">
     <g id="line2d_11">
      <g>
       <use xlink:href="#m9b017a0b8d" x="54" y="143.354954" style="fill: #262626; stroke: #262626; stroke-width: 1.25"/>
      </g>
     </g>
     <g id="text_12">
      <!-- 20000 -->
      <g style="fill: #262626" transform="translate(13.914844 147.291751)scale(0.11 -0.11)">
       <use xlink:href="#ArialMT-32"/>
       <use xlink:href="#ArialMT-30" x="55.615234"/>
       <use xlink:href="#ArialMT-30" x="111.230469"/>
       <use xlink:href="#ArialMT-30" x="166.845703"/>
       <use xlink:href="#ArialMT-30" x="222.460938"/>
      </g>
     </g>
    </g>
    <g id="ytick_6">
     <g id="line2d_12">
      <g>
       <use xlink:href="#m9b017a0b8d" x="54" y="118.664601" style="fill: #262626; stroke: #262626; stroke-width: 1.25"/>
      </g>
     </g>
     <g id="text_13">
      <!-- 25000 -->
      <g style="fill: #262626" transform="translate(13.914844 122.601398)scale(0.11 -0.11)">
       <use xlink:href="#ArialMT-32"/>
       <use xlink:href="#ArialMT-35" x="55.615234"/>
       <use xlink:href="#ArialMT-30" x="111.230469"/>
       <use xlink:href="#ArialMT-30" x="166.845703"/>
       <use xlink:href="#ArialMT-30" x="222.460938"/>
      </g>
     </g>
    </g>
    <g id="ytick_7">
     <g id="line2d_13">
      <g>
       <use xlink:href="#m9b017a0b8d" x="54" y="93.974249" style="fill: #262626; stroke: #262626; stroke-width: 1.25"/>
      </g>
     </g>
     <g id="text_14">
      <!-- 30000 -->
      <g style="fill: #262626" transform="translate(13.914844 97.911046)scale(0.11 -0.11)">
       <defs>
        <path id="ArialMT-33" d="M 269 1209 
L 831 1284 
Q 928 806 1161 595 
Q 1394 384 1728 384 
Q 2125 384 2398 659 
Q 2672 934 2672 1341 
Q 2672 1728 2419 1979 
Q 2166 2231 1775 2231 
Q 1616 2231 1378 2169 
L 1441 2663 
Q 1497 2656 1531 2656 
Q 1891 2656 2178 2843 
Q 2466 3031 2466 3422 
Q 2466 3731 2256 3934 
Q 2047 4138 1716 4138 
Q 1388 4138 1169 3931 
Q 950 3725 888 3313 
L 325 3413 
Q 428 3978 793 4289 
Q 1159 4600 1703 4600 
Q 2078 4600 2393 4439 
Q 2709 4278 2876 4000 
Q 3044 3722 3044 3409 
Q 3044 3113 2884 2869 
Q 2725 2625 2413 2481 
Q 2819 2388 3044 2092 
Q 3269 1797 3269 1353 
Q 3269 753 2831 336 
Q 2394 -81 1725 -81 
Q 1122 -81 723 278 
Q 325 638 269 1209 
z
" transform="scale(0.015625)"/>
       </defs>
       <use xlink:href="#ArialMT-33"/>
       <use xlink:href="#ArialMT-30" x="55.615234"/>
       <use xlink:href="#ArialMT-30" x="111.230469"/>
       <use xlink:href="#ArialMT-30" x="166.845703"/>
       <use xlink:href="#ArialMT-30" x="222.460938"/>
      </g>
     </g>
    </g>
    <g id="ytick_8">
     <g id="line2d_14">
      <g>
       <use xlink:href="#m9b017a0b8d" x="54" y="69.283896" style="fill: #262626; stroke: #262626; stroke-width: 1.25"/>
      </g>
     </g>
     <g id="text_15">
      <!-- 35000 -->
      <g style="fill: #262626" transform="translate(13.914844 73.220693)scale(0.11 -0.11)">
       <use xlink:href="#ArialMT-33"/>
       <use xlink:href="#ArialMT-35" x="55.615234"/>
       <use xlink:href="#ArialMT-30" x="111.230469"/>
       <use xlink:href="#ArialMT-30" x="166.845703"/>
       <use xlink:href="#ArialMT-30" x="222.460938"/>
      </g>
     </g>
    </g>
    <g id="ytick_9">
     <g id="line2d_15">
      <g>
       <use xlink:href="#m9b017a0b8d" x="54" y="44.593544" style="fill: #262626; stroke: #262626; stroke-width: 1.25"/>
      </g>
     </g>
     <g id="text_16">
      <!-- 40000 -->
      <g style="fill: #262626" transform="translate(13.914844 48.530341)scale(0.11 -0.11)">
       <defs>
        <path id="ArialMT-34" d="M 2069 0 
L 2069 1097 
L 81 1097 
L 81 1613 
L 2172 4581 
L 2631 4581 
L 2631 1613 
L 3250 1613 
L 3250 1097 
L 2631 1097 
L 2631 0 
L 2069 0 
z
M 2069 1613 
L 2069 3678 
L 634 1613 
L 2069 1613 
z
" transform="scale(0.015625)"/>
       </defs>
       <use xlink:href="#ArialMT-34"/>
       <use xlink:href="#ArialMT-30" x="55.615234"/>
       <use xlink:href="#ArialMT-30" x="111.230469"/>
       <use xlink:href="#ArialMT-30" x="166.845703"/>
       <use xlink:href="#ArialMT-30" x="222.460938"/>
      </g>
     </g>
    </g>
   </g>
   <g id="line2d_16">
    <path d="M 54 242.116316 
L 174.444935 242.082995 
L 175.829359 241.900147 
L 177.213784 242.100359 
L 179.982633 242.073061 
L 181.367057 241.345283 
L 182.751482 242.070655 
L 184.135906 241.487233 
L 185.520331 242.061534 
L 186.904755 241.705691 
L 188.28918 241.879853 
L 189.673604 240.442291 
L 192.442453 241.837431 
L 193.826878 241.952586 
L 195.211303 241.829013 
L 196.595727 241.919127 
L 197.980152 241.646138 
L 199.364576 240.893174 
L 200.749001 241.587772 
L 202.133425 241.27957 
L 203.51785 242.086069 
L 204.902274 240.796488 
L 206.286699 241.753001 
L 207.671123 241.123735 
L 209.055548 241.791956 
L 210.439972 241.085404 
L 211.824397 238.637998 
L 213.208822 238.298186 
L 214.593246 238.739774 
L 215.977671 240.244087 
L 217.362095 239.995505 
L 218.74652 236.003002 
L 220.130944 239.434853 
L 221.515369 241.078804 
L 222.899793 238.038362 
L 224.284218 240.099483 
L 225.668642 241.332559 
L 227.053067 241.936634 
L 228.437491 239.959243 
L 229.821916 240.579623 
L 231.20634 240.050612 
L 232.590765 241.5017 
L 233.97519 238.581507 
L 235.359614 241.202238 
L 236.744039 242.025234 
L 238.128463 239.239741 
L 239.512888 242.02161 
L 240.897312 241.872838 
L 242.281737 241.915403 
L 243.666161 241.579466 
L 245.050586 239.477434 
L 246.43501 241.466169 
L 247.819435 241.744003 
L 250.588284 241.67691 
L 251.972708 241.113762 
L 253.357133 240.845938 
L 254.741558 239.931183 
L 256.125982 240.089055 
L 257.510407 241.989336 
L 258.894831 239.133605 
L 260.279256 231.66725 
L 261.66368 237.880841 
L 263.048105 237.744731 
L 264.432529 238.037112 
L 265.816954 241.793762 
L 268.585803 241.455689 
L 269.970227 240.711379 
L 271.354652 240.495371 
L 272.739076 241.67503 
L 274.123501 241.799346 
L 275.507926 239.629213 
L 276.89235 241.211403 
L 278.276775 242.057154 
L 279.661199 241.046929 
L 281.045624 242.105674 
L 282.430048 241.761123 
L 285.198897 241.808711 
L 286.583322 240.458574 
L 289.352171 241.611431 
L 290.736595 240.503992 
L 292.12102 241.656865 
L 293.505445 240.157047 
L 294.889869 241.925331 
L 296.274294 240.828786 
L 297.658718 241.283826 
L 299.043143 240.163924 
L 300.427567 241.337317 
L 301.811992 241.752633 
L 303.196416 241.513103 
L 304.580841 241.470454 
L 305.965265 241.859115 
L 307.34969 241.075473 
L 308.734114 239.042609 
L 310.118539 239.517791 
L 311.502963 239.706058 
L 312.887388 241.797674 
L 314.271813 240.45683 
L 315.656237 241.591805 
L 317.040662 241.576626 
L 318.425086 242.099049 
L 319.809511 241.946915 
L 326.731633 241.978544 
L 328.116058 241.89081 
L 329.500482 242.052117 
L 330.884907 241.796926 
L 332.269331 241.977812 
L 335.038181 241.953422 
L 336.422605 241.790885 
L 337.80703 242.02643 
L 339.191454 241.906455 
L 340.575879 242.116348 
L 341.960303 241.563769 
L 343.344728 241.912628 
L 344.729152 241.897946 
L 346.113577 242.101978 
L 350.26685 241.988628 
L 351.651275 241.616482 
L 354.420124 242.049709 
L 357.188973 242.115837 
L 358.573398 241.762437 
L 359.957822 242.052762 
L 361.342247 242.105558 
L 362.726671 241.725222 
L 364.111096 242.058031 
L 365.49552 241.812423 
L 368.264369 242.076031 
L 369.648794 242.042357 
L 371.033218 241.701317 
L 372.417643 242.036097 
L 373.802068 242.063328 
L 375.186492 241.929911 
L 376.570917 241.910644 
L 377.955341 242.088076 
L 380.72419 242.014939 
L 382.108615 241.945895 
L 383.493039 241.517495 
L 384.877464 242.06384 
L 386.261888 241.903499 
L 387.646313 242.012602 
L 393.184011 241.925979 
L 394.568436 242.109069 
L 395.95286 241.94656 
L 397.337285 242.078333 
L 405.643832 242.093477 
L 407.028256 241.959768 
L 413.950379 241.936973 
L 415.334804 241.904337 
L 416.719228 242.053939 
L 419.488077 241.949212 
L 420.872502 242.098095 
L 422.256926 242.11094 
L 423.641351 241.886207 
L 425.025775 242.086584 
L 426.4102 242.096442 
L 427.794624 241.955297 
L 429.179049 242.086793 
L 430.563473 241.999883 
L 431.947898 242.084806 
L 433 242.000692 
M 433 242.116364 
L -1 242.116364 
L -1 242.116364 
" clip-path="url(#pc1c309e05c)" style="fill: none; stroke: #4c72b0; stroke-opacity: 0.3; stroke-width: 1.5; stroke-linecap: round"/>
   </g>
   <g id="line2d_17">
    <path d="M 54 242.115542 
L 179.982633 242.051708 
L 181.367057 241.870664 
L 182.751482 242.083991 
L 185.520331 241.868334 
L 186.904755 242.027189 
L 191.058029 242.073964 
L 192.442453 241.895604 
L 193.826878 241.990697 
L 195.211303 241.836857 
L 196.595727 242.023136 
L 199.364576 242.065344 
L 200.749001 241.978489 
L 203.51785 242.051284 
L 206.286699 242.050828 
L 209.055548 242.051141 
L 210.439972 241.874129 
L 211.824397 240.488131 
L 213.208822 241.286352 
L 214.593246 241.633215 
L 215.977671 241.082613 
L 217.362095 241.688772 
L 218.74652 241.384702 
L 220.130944 241.911605 
L 221.515369 242.074752 
L 222.899793 242.110169 
L 224.284218 241.099981 
L 225.668642 242.100282 
L 227.053067 241.711372 
L 228.437491 241.737917 
L 229.821916 241.543713 
L 231.20634 241.95194 
L 232.590765 241.984502 
L 235.359614 241.573451 
L 236.744039 241.853686 
L 238.128463 241.194945 
L 239.512888 242.012301 
L 240.897312 241.962453 
L 242.281737 241.640696 
L 245.050586 241.505577 
L 246.43501 240.944268 
L 247.819435 241.311653 
L 249.203859 240.153415 
L 250.588284 241.420651 
L 251.972708 241.048946 
L 253.357133 241.053323 
L 254.741558 231.516897 
L 256.125982 240.724381 
L 257.510407 240.192212 
L 258.894831 227.329828 
L 260.279256 186.809984 
L 261.66368 130.754988 
L 263.048105 201.55428 
L 264.432529 231.241694 
L 265.816954 234.778355 
L 267.201378 240.973502 
L 268.585803 238.665031 
L 269.970227 241.670727 
L 271.354652 237.081734 
L 272.739076 240.851186 
L 274.123501 241.10313 
L 275.507926 240.998816 
L 276.89235 242.013491 
L 278.276775 241.396335 
L 279.661199 242.030357 
L 281.045624 241.816193 
L 282.430048 242.059805 
L 283.814473 242.037451 
L 285.198897 241.308848 
L 286.583322 239.736539 
L 287.967746 241.355331 
L 289.352171 241.330293 
L 290.736595 241.792217 
L 292.12102 240.836308 
L 293.505445 241.352916 
L 294.889869 241.714979 
L 296.274294 240.866223 
L 297.658718 240.796378 
L 299.043143 241.497146 
L 300.427567 241.428374 
L 301.811992 241.9589 
L 303.196416 240.892867 
L 304.580841 241.050806 
L 305.965265 241.80996 
L 307.34969 240.308647 
L 308.734114 238.546559 
L 310.118539 241.040297 
L 311.502963 241.422411 
L 312.887388 240.75498 
L 314.271813 241.406003 
L 315.656237 241.843193 
L 318.425086 241.754975 
L 321.193935 241.764489 
L 326.731633 242.068335 
L 329.500482 241.974439 
L 330.884907 240.20695 
L 332.269331 241.664477 
L 333.653756 242.086074 
L 335.038181 241.820631 
L 336.422605 242.107056 
L 337.80703 241.373556 
L 339.191454 242.075113 
L 340.575879 242.100089 
L 341.960303 241.089894 
L 343.344728 242.065123 
L 346.113577 242.087523 
L 348.882426 241.711605 
L 350.26685 242.078446 
L 353.0357 241.102377 
L 354.420124 242.066999 
L 355.804549 242.047972 
L 357.188973 241.726092 
L 359.957822 242.061018 
L 361.342247 241.732701 
L 362.726671 241.237886 
L 364.111096 241.992509 
L 365.49552 241.253191 
L 366.879945 241.673442 
L 369.648794 241.973397 
L 372.417643 242.020692 
L 373.802068 241.522373 
L 375.186492 242.044677 
L 376.570917 241.800047 
L 377.955341 242.049642 
L 379.339766 241.450524 
L 380.72419 241.899624 
L 382.108615 242.10337 
L 383.493039 241.996935 
L 384.877464 242.018994 
L 386.261888 241.80916 
L 387.646313 241.861439 
L 389.030737 242.087151 
L 390.415162 241.840005 
L 391.799586 242.023912 
L 395.95286 241.800062 
L 397.337285 242.077154 
L 402.874983 241.984546 
L 405.643832 242.099866 
L 407.028256 241.926717 
L 408.412681 241.379253 
L 409.797105 242.077786 
L 411.18153 242.010038 
L 412.565955 242.096976 
L 413.950379 241.981014 
L 416.719228 242.015851 
L 418.103653 241.46315 
L 419.488077 241.936236 
L 420.872502 241.189466 
L 422.256926 241.714169 
L 423.641351 240.97601 
L 425.025775 241.593949 
L 426.4102 241.981995 
L 427.794624 241.142683 
L 429.179049 242.004105 
L 430.563473 240.980145 
L 431.947898 242.095945 
L 433 241.664404 
M 433 242.116364 
L -1 242.116364 
L -1 242.116364 
" clip-path="url(#pc1c309e05c)" style="fill: none; stroke: #dd8452; stroke-opacity: 0.3; stroke-width: 1.5; stroke-linecap: round"/>
   </g>
   <g id="line2d_18">
    <path d="M 54 242.116364 
L 433 242.116364 
M 433 242.116364 
L -1 242.116364 
L -1 242.116364 
" clip-path="url(#pc1c309e05c)" style="fill: none; stroke: #55a868; stroke-opacity: 0.3; stroke-width: 1.5; stroke-linecap: round"/>
   </g>
   <g id="line2d_19">
    <path d="M 54 242.11485 
L 175.829359 242.063001 
L 178.598208 241.851191 
L 181.367057 241.997306 
L 184.135906 242.05428 
L 185.520331 242.009653 
L 186.904755 242.108261 
L 191.058029 241.876007 
L 195.211303 242.072931 
L 196.595727 241.483958 
L 197.980152 241.899205 
L 200.749001 241.987696 
L 202.133425 241.863016 
L 203.51785 241.554372 
L 204.902274 241.85909 
L 206.286699 241.844013 
L 207.671123 241.093861 
L 209.055548 240.740787 
L 210.439972 241.278332 
L 211.824397 240.755733 
L 213.208822 239.562204 
L 214.593246 240.717752 
L 215.977671 241.107585 
L 217.362095 242.043806 
L 218.74652 238.401709 
L 220.130944 241.924248 
L 221.515369 238.622456 
L 222.899793 240.557288 
L 224.284218 241.218751 
L 225.668642 240.946489 
L 227.053067 241.29102 
L 228.437491 241.942805 
L 229.821916 241.967179 
L 231.20634 240.674147 
L 232.590765 241.625829 
L 233.97519 241.874959 
L 235.359614 241.146544 
L 238.128463 242.033663 
L 239.512888 240.731649 
L 240.897312 241.587612 
L 242.281737 239.876646 
L 243.666161 236.588572 
L 245.050586 238.935312 
L 246.43501 241.897346 
L 247.819435 241.80085 
L 249.203859 239.185829 
L 250.588284 240.863822 
L 251.972708 241.269095 
L 253.357133 241.550523 
L 254.741558 236.317281 
L 256.125982 241.270393 
L 257.510407 232.96944 
L 258.894831 196.914508 
L 260.279256 44.443636 
L 261.66368 80.250028 
L 263.048105 225.763815 
L 264.432529 210.042233 
L 267.201378 236.78489 
L 268.585803 235.296802 
L 269.970227 241.603511 
L 271.354652 239.200914 
L 272.739076 235.685891 
L 274.123501 238.881363 
L 275.507926 238.723719 
L 276.89235 241.894263 
L 278.276775 241.377322 
L 279.661199 241.405212 
L 281.045624 241.812923 
L 282.430048 240.360163 
L 283.814473 241.649463 
L 285.198897 241.814959 
L 286.583322 240.97139 
L 287.967746 239.236757 
L 289.352171 238.432155 
L 290.736595 241.70865 
L 292.12102 239.417619 
L 293.505445 241.812442 
L 294.889869 241.567659 
L 296.274294 241.733501 
L 297.658718 241.735492 
L 299.043143 240.91851 
L 300.427567 241.20925 
L 301.811992 241.920958 
L 303.196416 241.659274 
L 304.580841 241.687743 
L 305.965265 240.962651 
L 307.34969 241.849976 
L 308.734114 241.846716 
L 310.118539 240.889192 
L 311.502963 241.283323 
L 314.271813 241.150007 
L 315.656237 242.093845 
L 317.040662 241.695778 
L 318.425086 241.80457 
L 319.809511 239.734723 
L 321.193935 241.80265 
L 322.57836 241.357433 
L 323.962784 241.87974 
L 325.347209 241.978199 
L 326.731633 241.784521 
L 328.116058 242.095016 
L 329.500482 241.73045 
L 330.884907 242.07703 
L 332.269331 242.090368 
L 333.653756 241.731804 
L 335.038181 241.73592 
L 336.422605 242.065885 
L 337.80703 241.485636 
L 339.191454 242.013238 
L 340.575879 242.097893 
L 341.960303 241.54317 
L 343.344728 242.017179 
L 347.498001 242.086409 
L 348.882426 241.746507 
L 350.26685 241.082852 
L 351.651275 241.931058 
L 353.0357 241.684506 
L 354.420124 242.007526 
L 357.188973 241.973248 
L 358.573398 241.839175 
L 359.957822 242.037729 
L 361.342247 242.029432 
L 362.726671 241.333321 
L 364.111096 241.872799 
L 365.49552 242.086781 
L 368.264369 241.960092 
L 369.648794 242.115563 
L 371.033218 241.983097 
L 372.417643 242.097342 
L 377.955341 242.051266 
L 379.339766 241.700232 
L 383.493039 241.988645 
L 389.030737 242.102463 
L 390.415162 241.880125 
L 391.799586 242.081676 
L 394.568436 241.892876 
L 395.95286 242.081356 
L 397.337285 242.11486 
L 398.721709 241.628945 
L 400.106134 241.987341 
L 401.490558 242.046477 
L 402.874983 241.958865 
L 404.259407 242.105576 
L 407.028256 241.89264 
L 408.412681 242.115346 
L 413.950379 242.070388 
L 416.719228 242.05041 
L 418.103653 241.681384 
L 419.488077 242.069068 
L 420.872502 241.83627 
L 423.641351 241.863896 
L 425.025775 241.850649 
L 426.4102 242.038606 
L 427.794624 241.972499 
L 429.179049 242.071354 
L 430.563473 241.917484 
L 433 242.069856 
M 433 242.116364 
L -1 242.116364 
L -1 242.116364 
" clip-path="url(#pc1c309e05c)" style="fill: none; stroke: #c44e52; stroke-opacity: 0.3; stroke-width: 1.5; stroke-linecap: round"/>
   </g>
   <g id="line2d_20">
    <path d="M 54 242.115642 
L 175.829359 242.055049 
L 177.213784 241.99347 
L 178.598208 242.086553 
L 181.367057 241.752406 
L 182.751482 242.048173 
L 185.520331 241.704626 
L 186.904755 241.876095 
L 188.28918 240.579868 
L 189.673604 241.609185 
L 191.058029 242.064186 
L 192.442453 241.912536 
L 193.826878 241.911536 
L 195.211303 241.25437 
L 196.595727 241.876062 
L 197.980152 241.531432 
L 199.364576 241.890544 
L 202.133425 242.0806 
L 203.51785 241.363842 
L 204.902274 241.943521 
L 206.286699 241.599112 
L 207.671123 242.104977 
L 209.055548 241.555233 
L 210.439972 240.463741 
L 211.824397 241.178545 
L 213.208822 240.806307 
L 214.593246 239.356168 
L 215.977671 240.719695 
L 217.362095 241.538423 
L 220.130944 241.811055 
L 221.515369 241.165205 
L 222.899793 241.940678 
L 224.284218 239.180952 
L 225.668642 239.857954 
L 227.053067 241.868322 
L 228.437491 240.877788 
L 229.821916 240.425818 
L 231.20634 241.651095 
L 232.590765 241.699383 
L 233.97519 241.50922 
L 235.359614 241.821882 
L 236.744039 241.342041 
L 238.128463 240.432613 
L 239.512888 240.461224 
L 240.897312 241.408893 
L 242.281737 241.582631 
L 243.666161 242.058596 
L 245.050586 241.647308 
L 246.43501 242.062381 
L 247.819435 241.717084 
L 249.203859 241.692367 
L 250.588284 241.818458 
L 251.972708 240.465536 
L 253.357133 241.808245 
L 254.741558 240.316204 
L 256.125982 240.129721 
L 257.510407 240.935786 
L 258.894831 238.823638 
L 260.279256 238.534918 
L 261.66368 218.27147 
L 263.048105 236.475367 
L 264.432529 235.796855 
L 265.816954 238.991027 
L 267.201378 237.495862 
L 268.585803 241.65061 
L 271.354652 241.791137 
L 272.739076 239.420489 
L 274.123501 239.532718 
L 275.507926 240.066946 
L 276.89235 241.889724 
L 278.276775 241.690301 
L 279.661199 241.82075 
L 281.045624 241.552931 
L 282.430048 240.594329 
L 283.814473 241.403584 
L 285.198897 241.559332 
L 286.583322 240.985967 
L 287.967746 241.111395 
L 289.352171 242.017388 
L 290.736595 240.790926 
L 292.12102 242.007409 
L 293.505445 241.88068 
L 294.889869 240.708223 
L 296.274294 242.036914 
L 297.658718 240.859975 
L 299.043143 240.990101 
L 300.427567 241.98193 
L 301.811992 241.626221 
L 303.196416 241.486014 
L 304.580841 241.923997 
L 305.965265 242.091702 
L 308.734114 241.382112 
L 310.118539 241.470901 
L 311.502963 241.689727 
L 312.887388 239.944446 
L 314.271813 241.99052 
L 315.656237 241.902655 
L 317.040662 241.466532 
L 318.425086 241.739503 
L 319.809511 241.264619 
L 321.193935 241.795832 
L 322.57836 241.474274 
L 323.962784 241.872006 
L 325.347209 241.437537 
L 326.731633 241.938565 
L 329.500482 241.981619 
L 330.884907 241.081868 
L 332.269331 241.300048 
L 333.653756 242.030488 
L 335.038181 242.104992 
L 336.422605 241.795097 
L 337.80703 242.089448 
L 340.575879 242.048549 
L 341.960303 241.752537 
L 343.344728 242.038727 
L 344.729152 241.801189 
L 346.113577 242.039734 
L 347.498001 241.752732 
L 348.882426 242.100527 
L 350.26685 241.545027 
L 351.651275 241.849479 
L 353.0357 242.011336 
L 355.804549 241.816313 
L 357.188973 241.978639 
L 358.573398 241.190844 
L 359.957822 241.965656 
L 361.342247 241.525384 
L 362.726671 241.421648 
L 364.111096 241.544637 
L 365.49552 242.058945 
L 366.879945 241.914203 
L 368.264369 242.066675 
L 369.648794 242.1005 
L 371.033218 241.41191 
L 372.417643 241.410421 
L 373.802068 241.551132 
L 375.186492 242.015554 
L 376.570917 241.943996 
L 377.955341 241.392657 
L 379.339766 241.79328 
L 380.72419 242.040631 
L 383.493039 241.890435 
L 384.877464 241.933044 
L 386.261888 241.814194 
L 387.646313 241.446361 
L 389.030737 241.918521 
L 390.415162 242.050627 
L 391.799586 241.739999 
L 393.184011 242.084755 
L 395.95286 241.697069 
L 397.337285 242.023609 
L 398.721709 242.114161 
L 400.106134 242.012904 
L 401.490558 242.078017 
L 402.874983 241.68302 
L 404.259407 241.967386 
L 405.643832 241.937969 
L 407.028256 241.223447 
L 408.412681 241.920215 
L 409.797105 242.083305 
L 411.18153 242.058295 
L 412.565955 241.903464 
L 413.950379 241.871253 
L 415.334804 242.065508 
L 416.719228 241.985391 
L 418.103653 241.1373 
L 420.872502 242.060147 
L 422.256926 241.688134 
L 423.641351 241.694863 
L 425.025775 242.083584 
L 426.4102 241.853237 
L 427.794624 242.078945 
L 430.563473 241.908518 
L 433 242.085222 
M 433 242.116364 
L -1 242.116364 
L -1 242.116364 
" clip-path="url(#pc1c309e05c)" style="fill: none; stroke: #8172b3; stroke-opacity: 0.3; stroke-width: 1.5; stroke-linecap: round"/>
   </g>
   <g id="line2d_21">
    <path d="M 54 242.116364 
L 433 242.116364 
M 433 242.116364 
L -1 242.116364 
L -1 242.116364 
" clip-path="url(#pc1c309e05c)" style="fill: none; stroke: #937860; stroke-opacity: 0.3; stroke-width: 1.5; stroke-linecap: round"/>
   </g>
   <g id="line2d_22">
    <path d="M 54 242.116364 
L 433 242.116364 
M 433 242.116364 
L -1 242.116364 
L -1 242.116364 
" clip-path="url(#pc1c309e05c)" style="fill: none; stroke: #da8bc3; stroke-opacity: 0.3; stroke-width: 1.5; stroke-linecap: round"/>
   </g>
   <g id="patch_3">
    <path d="M 54 252 
L 54 34.56 
" style="fill: none; stroke: #262626; stroke-width: 1.25; stroke-linejoin: miter; stroke-linecap: square"/>
   </g>
   <g id="patch_4">
    <path d="M 388.8 252 
L 388.8 34.56 
" style="fill: none; stroke: #262626; stroke-width: 1.25; stroke-linejoin: miter; stroke-linecap: square"/>
   </g>
   <g id="patch_5">
    <path d="M 54 252 
L 388.8 252 
" style="fill: none; stroke: #262626; stroke-width: 1.25; stroke-linejoin: miter; stroke-linecap: square"/>
   </g>
   <g id="patch_6">
    <path d="M 54 34.56 
L 388.8 34.56 
" style="fill: none; stroke: #262626; stroke-width: 1.25; stroke-linejoin: miter; stroke-linecap: square"/>
   </g>
   <g id="text_17">
    <!-- patient14_app04 - Power spectrum -->
    <g style="fill: #262626" transform="translate(128.0175 28.56)scale(0.12 -0.12)">
     <defs>
      <path id="ArialMT-70" d="M 422 -1272 
L 422 3319 
L 934 3319 
L 934 2888 
Q 1116 3141 1344 3267 
Q 1572 3394 1897 3394 
Q 2322 3394 2647 3175 
Q 2972 2956 3137 2557 
Q 3303 2159 3303 1684 
Q 3303 1175 3120 767 
Q 2938 359 2589 142 
Q 2241 -75 1856 -75 
Q 1575 -75 1351 44 
Q 1128 163 984 344 
L 984 -1272 
L 422 -1272 
z
M 931 1641 
Q 931 1000 1190 694 
Q 1450 388 1819 388 
Q 2194 388 2461 705 
Q 2728 1022 2728 1688 
Q 2728 2322 2467 2637 
Q 2206 2953 1844 2953 
Q 1484 2953 1207 2617 
Q 931 2281 931 1641 
z
" transform="scale(0.015625)"/>
      <path id="ArialMT-61" d="M 2588 409 
Q 2275 144 1986 34 
Q 1697 -75 1366 -75 
Q 819 -75 525 192 
Q 231 459 231 875 
Q 231 1119 342 1320 
Q 453 1522 633 1644 
Q 813 1766 1038 1828 
Q 1203 1872 1538 1913 
Q 2219 1994 2541 2106 
Q 2544 2222 2544 2253 
Q 2544 2597 2384 2738 
Q 2169 2928 1744 2928 
Q 1347 2928 1158 2789 
Q 969 2650 878 2297 
L 328 2372 
Q 403 2725 575 2942 
Q 747 3159 1072 3276 
Q 1397 3394 1825 3394 
Q 2250 3394 2515 3294 
Q 2781 3194 2906 3042 
Q 3031 2891 3081 2659 
Q 3109 2516 3109 2141 
L 3109 1391 
Q 3109 606 3145 398 
Q 3181 191 3288 0 
L 2700 0 
Q 2613 175 2588 409 
z
M 2541 1666 
Q 2234 1541 1622 1453 
Q 1275 1403 1131 1340 
Q 988 1278 909 1158 
Q 831 1038 831 891 
Q 831 666 1001 516 
Q 1172 366 1500 366 
Q 1825 366 2078 508 
Q 2331 650 2450 897 
Q 2541 1088 2541 1459 
L 2541 1666 
z
" transform="scale(0.015625)"/>
      <path id="ArialMT-74" d="M 1650 503 
L 1731 6 
Q 1494 -44 1306 -44 
Q 1000 -44 831 53 
Q 663 150 594 308 
Q 525 466 525 972 
L 525 2881 
L 113 2881 
L 113 3319 
L 525 3319 
L 525 4141 
L 1084 4478 
L 1084 3319 
L 1650 3319 
L 1650 2881 
L 1084 2881 
L 1084 941 
Q 1084 700 1114 631 
Q 1144 563 1211 522 
Q 1278 481 1403 481 
Q 1497 481 1650 503 
z
" transform="scale(0.015625)"/>
      <path id="ArialMT-69" d="M 425 3934 
L 425 4581 
L 988 4581 
L 988 3934 
L 425 3934 
z
M 425 0 
L 425 3319 
L 988 3319 
L 988 0 
L 425 0 
z
" transform="scale(0.015625)"/>
      <path id="ArialMT-5f" d="M -97 -1272 
L -97 -866 
L 3631 -866 
L 3631 -1272 
L -97 -1272 
z
" transform="scale(0.015625)"/>
      <path id="ArialMT-2d" d="M 203 1375 
L 203 1941 
L 1931 1941 
L 1931 1375 
L 203 1375 
z
" transform="scale(0.015625)"/>
      <path id="ArialMT-50" d="M 494 0 
L 494 4581 
L 2222 4581 
Q 2678 4581 2919 4538 
Q 3256 4481 3484 4323 
Q 3713 4166 3852 3881 
Q 3991 3597 3991 3256 
Q 3991 2672 3619 2267 
Q 3247 1863 2275 1863 
L 1100 1863 
L 1100 0 
L 494 0 
z
M 1100 2403 
L 2284 2403 
Q 2872 2403 3119 2622 
Q 3366 2841 3366 3238 
Q 3366 3525 3220 3729 
Q 3075 3934 2838 4000 
Q 2684 4041 2272 4041 
L 1100 4041 
L 1100 2403 
z
" transform="scale(0.015625)"/>
      <path id="ArialMT-6f" d="M 213 1659 
Q 213 2581 725 3025 
Q 1153 3394 1769 3394 
Q 2453 3394 2887 2945 
Q 3322 2497 3322 1706 
Q 3322 1066 3130 698 
Q 2938 331 2570 128 
Q 2203 -75 1769 -75 
Q 1072 -75 642 372 
Q 213 819 213 1659 
z
M 791 1659 
Q 791 1022 1069 705 
Q 1347 388 1769 388 
Q 2188 388 2466 706 
Q 2744 1025 2744 1678 
Q 2744 2294 2464 2611 
Q 2184 2928 1769 2928 
Q 1347 2928 1069 2612 
Q 791 2297 791 1659 
z
" transform="scale(0.015625)"/>
      <path id="ArialMT-77" d="M 1034 0 
L 19 3319 
L 600 3319 
L 1128 1403 
L 1325 691 
Q 1338 744 1497 1375 
L 2025 3319 
L 2603 3319 
L 3100 1394 
L 3266 759 
L 3456 1400 
L 4025 3319 
L 4572 3319 
L 3534 0 
L 2950 0 
L 2422 1988 
L 2294 2553 
L 1622 0 
L 1034 0 
z
" transform="scale(0.015625)"/>
      <path id="ArialMT-73" d="M 197 991 
L 753 1078 
Q 800 744 1014 566 
Q 1228 388 1613 388 
Q 2000 388 2187 545 
Q 2375 703 2375 916 
Q 2375 1106 2209 1216 
Q 2094 1291 1634 1406 
Q 1016 1563 777 1677 
Q 538 1791 414 1992 
Q 291 2194 291 2438 
Q 291 2659 392 2848 
Q 494 3038 669 3163 
Q 800 3259 1026 3326 
Q 1253 3394 1513 3394 
Q 1903 3394 2198 3281 
Q 2494 3169 2634 2976 
Q 2775 2784 2828 2463 
L 2278 2388 
Q 2241 2644 2061 2787 
Q 1881 2931 1553 2931 
Q 1166 2931 1000 2803 
Q 834 2675 834 2503 
Q 834 2394 903 2306 
Q 972 2216 1119 2156 
Q 1203 2125 1616 2013 
Q 2213 1853 2448 1751 
Q 2684 1650 2818 1456 
Q 2953 1263 2953 975 
Q 2953 694 2789 445 
Q 2625 197 2315 61 
Q 2006 -75 1616 -75 
Q 969 -75 630 194 
Q 291 463 197 991 
z
" transform="scale(0.015625)"/>
      <path id="ArialMT-6d" d="M 422 0 
L 422 3319 
L 925 3319 
L 925 2853 
Q 1081 3097 1340 3245 
Q 1600 3394 1931 3394 
Q 2300 3394 2536 3241 
Q 2772 3088 2869 2813 
Q 3263 3394 3894 3394 
Q 4388 3394 4653 3120 
Q 4919 2847 4919 2278 
L 4919 0 
L 4359 0 
L 4359 2091 
Q 4359 2428 4304 2576 
Q 4250 2725 4106 2815 
Q 3963 2906 3769 2906 
Q 3419 2906 3187 2673 
Q 2956 2441 2956 1928 
L 2956 0 
L 2394 0 
L 2394 2156 
Q 2394 2531 2256 2718 
Q 2119 2906 1806 2906 
Q 1569 2906 1367 2781 
Q 1166 2656 1075 2415 
Q 984 2175 984 1722 
L 984 0 
L 422 0 
z
" transform="scale(0.015625)"/>
     </defs>
     <use xlink:href="#ArialMT-70"/>
     <use xlink:href="#ArialMT-61" x="55.615234"/>
     <use xlink:href="#ArialMT-74" x="111.230469"/>
     <use xlink:href="#ArialMT-69" x="139.013672"/>
     <use xlink:href="#ArialMT-65" x="161.230469"/>
     <use xlink:href="#ArialMT-6e" x="216.845703"/>
     <use xlink:href="#ArialMT-74" x="272.460938"/>
     <use xlink:href="#ArialMT-31" x="300.244141"/>
     <use xlink:href="#ArialMT-34" x="355.859375"/>
     <use xlink:href="#ArialMT-5f" x="411.474609"/>
     <use xlink:href="#ArialMT-61" x="467.089844"/>
     <use xlink:href="#ArialMT-70" x="522.705078"/>
     <use xlink:href="#ArialMT-70" x="578.320312"/>
     <use xlink:href="#ArialMT-30" x="633.935547"/>
     <use xlink:href="#ArialMT-34" x="689.550781"/>
     <use xlink:href="#ArialMT-20" x="745.166016"/>
     <use xlink:href="#ArialMT-2d" x="772.949219"/>
     <use xlink:href="#ArialMT-20" x="806.25"/>
     <use xlink:href="#ArialMT-50" x="834.033203"/>
     <use xlink:href="#ArialMT-6f" x="900.732422"/>
     <use xlink:href="#ArialMT-77" x="956.347656"/>
     <use xlink:href="#ArialMT-65" x="1028.564453"/>
     <use xlink:href="#ArialMT-72" x="1084.179688"/>
     <use xlink:href="#ArialMT-20" x="1117.480469"/>
     <use xlink:href="#ArialMT-73" x="1145.263672"/>
     <use xlink:href="#ArialMT-70" x="1195.263672"/>
     <use xlink:href="#ArialMT-65" x="1250.878906"/>
     <use xlink:href="#ArialMT-63" x="1306.494141"/>
     <use xlink:href="#ArialMT-74" x="1356.494141"/>
     <use xlink:href="#ArialMT-72" x="1384.277344"/>
     <use xlink:href="#ArialMT-75" x="1417.578125"/>
     <use xlink:href="#ArialMT-6d" x="1473.193359"/>
    </g>
   </g>
   <g id="legend_1">
    <g id="patch_7">
     <path d="M 313.503281 152.278906 
L 381.1 152.278906 
Q 383.3 152.278906 383.3 150.078906 
L 383.3 42.26 
Q 383.3 40.06 381.1 40.06 
L 313.503281 40.06 
Q 311.303281 40.06 311.303281 42.26 
L 311.303281 150.078906 
Q 311.303281 152.278906 313.503281 152.278906 
z
" style="fill: #ffffff; opacity: 0.8; stroke: #cccccc; stroke-linejoin: miter"/>
    </g>
    <g id="line2d_23">
     <path d="M 315.703281 48.483594 
L 326.703281 48.483594 
L 337.703281 48.483594 
" style="fill: none; stroke: #4c72b0; stroke-opacity: 0.3; stroke-width: 1.5; stroke-linecap: round"/>
    </g>
    <g id="text_18">
     <!-- IMU9 -->
     <g style="fill: #262626" transform="translate(346.503281 52.333594)scale(0.11 -0.11)">
      <defs>
       <path id="ArialMT-49" d="M 597 0 
L 597 4581 
L 1203 4581 
L 1203 0 
L 597 0 
z
" transform="scale(0.015625)"/>
       <path id="ArialMT-4d" d="M 475 0 
L 475 4581 
L 1388 4581 
L 2472 1338 
Q 2622 884 2691 659 
Q 2769 909 2934 1394 
L 4031 4581 
L 4847 4581 
L 4847 0 
L 4263 0 
L 4263 3834 
L 2931 0 
L 2384 0 
L 1059 3900 
L 1059 0 
L 475 0 
z
" transform="scale(0.015625)"/>
       <path id="ArialMT-55" d="M 3500 4581 
L 4106 4581 
L 4106 1934 
Q 4106 1244 3950 837 
Q 3794 431 3386 176 
Q 2978 -78 2316 -78 
Q 1672 -78 1262 144 
Q 853 366 678 786 
Q 503 1206 503 1934 
L 503 4581 
L 1109 4581 
L 1109 1938 
Q 1109 1341 1220 1058 
Q 1331 775 1601 622 
Q 1872 469 2263 469 
Q 2931 469 3215 772 
Q 3500 1075 3500 1938 
L 3500 4581 
z
" transform="scale(0.015625)"/>
       <path id="ArialMT-39" d="M 350 1059 
L 891 1109 
Q 959 728 1153 556 
Q 1347 384 1650 384 
Q 1909 384 2104 503 
Q 2300 622 2425 820 
Q 2550 1019 2634 1356 
Q 2719 1694 2719 2044 
Q 2719 2081 2716 2156 
Q 2547 1888 2255 1720 
Q 1963 1553 1622 1553 
Q 1053 1553 659 1965 
Q 266 2378 266 3053 
Q 266 3750 677 4175 
Q 1088 4600 1706 4600 
Q 2153 4600 2523 4359 
Q 2894 4119 3086 3673 
Q 3278 3228 3278 2384 
Q 3278 1506 3087 986 
Q 2897 466 2520 194 
Q 2144 -78 1638 -78 
Q 1100 -78 759 220 
Q 419 519 350 1059 
z
M 2653 3081 
Q 2653 3566 2395 3850 
Q 2138 4134 1775 4134 
Q 1400 4134 1122 3828 
Q 844 3522 844 3034 
Q 844 2597 1108 2323 
Q 1372 2050 1759 2050 
Q 2150 2050 2401 2323 
Q 2653 2597 2653 3081 
z
" transform="scale(0.015625)"/>
      </defs>
      <use xlink:href="#ArialMT-49"/>
      <use xlink:href="#ArialMT-4d" x="27.783203"/>
      <use xlink:href="#ArialMT-55" x="111.083984"/>
      <use xlink:href="#ArialMT-39" x="183.300781"/>
     </g>
    </g>
    <g id="line2d_24">
     <path d="M 315.703281 64.043438 
L 326.703281 64.043438 
L 337.703281 64.043438 
" style="fill: none; stroke: #dd8452; stroke-opacity: 0.3; stroke-width: 1.5; stroke-linecap: round"/>
    </g>
    <g id="text_19">
     <!-- IMU10 -->
     <g style="fill: #262626" transform="translate(346.503281 67.893438)scale(0.11 -0.11)">
      <use xlink:href="#ArialMT-49"/>
      <use xlink:href="#ArialMT-4d" x="27.783203"/>
      <use xlink:href="#ArialMT-55" x="111.083984"/>
      <use xlink:href="#ArialMT-31" x="183.300781"/>
      <use xlink:href="#ArialMT-30" x="238.916016"/>
     </g>
    </g>
    <g id="line2d_25">
     <path d="M 315.703281 79.603281 
L 326.703281 79.603281 
L 337.703281 79.603281 
" style="fill: none; stroke: #55a868; stroke-opacity: 0.3; stroke-width: 1.5; stroke-linecap: round"/>
    </g>
    <g id="text_20">
     <!-- IMU11 -->
     <g style="fill: #262626" transform="translate(346.503281 83.453281)scale(0.11 -0.11)">
      <use xlink:href="#ArialMT-49"/>
      <use xlink:href="#ArialMT-4d" x="27.783203"/>
      <use xlink:href="#ArialMT-55" x="111.083984"/>
      <use xlink:href="#ArialMT-31" x="183.300781"/>
      <use xlink:href="#ArialMT-31" x="231.541016"/>
     </g>
    </g>
    <g id="line2d_26">
     <path d="M 315.703281 95.163125 
L 326.703281 95.163125 
L 337.703281 95.163125 
" style="fill: none; stroke: #c44e52; stroke-opacity: 0.3; stroke-width: 1.5; stroke-linecap: round"/>
    </g>
    <g id="text_21">
     <!-- IMU12 -->
     <g style="fill: #262626" transform="translate(346.503281 99.013125)scale(0.11 -0.11)">
      <use xlink:href="#ArialMT-49"/>
      <use xlink:href="#ArialMT-4d" x="27.783203"/>
      <use xlink:href="#ArialMT-55" x="111.083984"/>
      <use xlink:href="#ArialMT-31" x="183.300781"/>
      <use xlink:href="#ArialMT-32" x="238.916016"/>
     </g>
    </g>
    <g id="line2d_27">
     <path d="M 315.703281 110.722969 
L 326.703281 110.722969 
L 337.703281 110.722969 
" style="fill: none; stroke: #8172b3; stroke-opacity: 0.3; stroke-width: 1.5; stroke-linecap: round"/>
    </g>
    <g id="text_22">
     <!-- IMU13 -->
     <g style="fill: #262626" transform="translate(346.503281 114.572969)scale(0.11 -0.11)">
      <use xlink:href="#ArialMT-49"/>
      <use xlink:href="#ArialMT-4d" x="27.783203"/>
      <use xlink:href="#ArialMT-55" x="111.083984"/>
      <use xlink:href="#ArialMT-31" x="183.300781"/>
      <use xlink:href="#ArialMT-33" x="238.916016"/>
     </g>
    </g>
    <g id="line2d_28">
     <path d="M 315.703281 126.282813 
L 326.703281 126.282813 
L 337.703281 126.282813 
" style="fill: none; stroke: #937860; stroke-opacity: 0.3; stroke-width: 1.5; stroke-linecap: round"/>
    </g>
    <g id="text_23">
     <!-- IMU14 -->
     <g style="fill: #262626" transform="translate(346.503281 130.132812)scale(0.11 -0.11)">
      <use xlink:href="#ArialMT-49"/>
      <use xlink:href="#ArialMT-4d" x="27.783203"/>
      <use xlink:href="#ArialMT-55" x="111.083984"/>
      <use xlink:href="#ArialMT-31" x="183.300781"/>
      <use xlink:href="#ArialMT-34" x="238.916016"/>
     </g>
    </g>
    <g id="line2d_29">
     <path d="M 315.703281 141.842656 
L 326.703281 141.842656 
L 337.703281 141.842656 
" style="fill: none; stroke: #da8bc3; stroke-opacity: 0.3; stroke-width: 1.5; stroke-linecap: round"/>
    </g>
    <g id="text_24">
     <!-- IMU15 -->
     <g style="fill: #262626" transform="translate(346.503281 145.692656)scale(0.11 -0.11)">
      <use xlink:href="#ArialMT-49"/>
      <use xlink:href="#ArialMT-4d" x="27.783203"/>
      <use xlink:href="#ArialMT-55" x="111.083984"/>
      <use xlink:href="#ArialMT-31" x="183.300781"/>
      <use xlink:href="#ArialMT-35" x="238.916016"/>
     </g>
    </g>
   </g>
  </g>
 </g>
 <defs>
  <clipPath id="pc1c309e05c">
   <rect x="54" y="34.56" width="334.8" height="217.44"/>
  </clipPath>
 </defs>
</svg>
