<?xml version="1.0" encoding="utf-8" standalone="no"?>
<!DOCTYPE svg PUBLIC "-//W3C//DTD SVG 1.1//EN"
  "http://www.w3.org/Graphics/SVG/1.1/DTD/svg11.dtd">
<svg xmlns:xlink="http://www.w3.org/1999/xlink" width="432pt" height="288pt" viewBox="0 0 432 288" xmlns="http://www.w3.org/2000/svg" version="1.1">
 <metadata>
  <rdf:RDF xmlns:dc="http://purl.org/dc/elements/1.1/" xmlns:cc="http://creativecommons.org/ns#" xmlns:rdf="http://www.w3.org/1999/02/22-rdf-syntax-ns#">
   <cc:Work>
    <dc:type rdf:resource="http://purl.org/dc/dcmitype/StillImage"/>
    <dc:date>2022-07-08T13:58:17.129011</dc:date>
    <dc:format>image/svg+xml</dc:format>
    <dc:creator>
     <cc:Agent>
      <dc:title>Matplotlib v3.5.1, https://matplotlib.org/</dc:title>
     </cc:Agent>
    </dc:creator>
   </cc:Work>
  </rdf:RDF>
 </metadata>
 <defs>
  <style type="text/css">*{stroke-linejoin: round; stroke-linecap: butt}</style>
 </defs>
 <g id="figure_1">
  <g id="patch_1">
   <path d="M 0 288 
L 432 288 
L 432 0 
L 0 0 
z
" style="fill: #ffffff"/>
  </g>
  <g id="axes_1">
   <g id="patch_2">
    <path d="M 54 252 
L 388.8 252 
L 388.8 34.56 
L 54 34.56 
z
" style="fill: #ffffff"/>
   </g>
   <g id="matplotlib.axis_1">
    <g id="xtick_1">
     <g id="line2d_1">
      <defs>
       <path id="m59d2869469" d="M 0 0 
L 0 6 
" style="stroke: #262626; stroke-width: 1.25"/>
      </defs>
      <g>
       <use xlink:href="#m59d2869469" x="54" y="252" style="fill: #262626; stroke: #262626; stroke-width: 1.25"/>
      </g>
     </g>
     <g id="text_1">
      <!-- 0 -->
      <g style="fill: #262626" transform="translate(50.941484 269.373594)scale(0.11 -0.11)">
       <defs>
        <path id="ArialMT-30" d="M 266 2259 
Q 266 3072 433 3567 
Q 600 4063 929 4331 
Q 1259 4600 1759 4600 
Q 2128 4600 2406 4451 
Q 2684 4303 2865 4023 
Q 3047 3744 3150 3342 
Q 3253 2941 3253 2259 
Q 3253 1453 3087 958 
Q 2922 463 2592 192 
Q 2263 -78 1759 -78 
Q 1097 -78 719 397 
Q 266 969 266 2259 
z
M 844 2259 
Q 844 1131 1108 757 
Q 1372 384 1759 384 
Q 2147 384 2411 759 
Q 2675 1134 2675 2259 
Q 2675 3391 2411 3762 
Q 2147 4134 1753 4134 
Q 1366 4134 1134 3806 
Q 844 3388 844 2259 
z
" transform="scale(0.015625)"/>
       </defs>
       <use xlink:href="#ArialMT-30"/>
      </g>
     </g>
    </g>
    <g id="xtick_2">
     <g id="line2d_2">
      <g>
       <use xlink:href="#m59d2869469" x="120.96" y="252" style="fill: #262626; stroke: #262626; stroke-width: 1.25"/>
      </g>
     </g>
     <g id="text_2">
      <!-- 5 -->
      <g style="fill: #262626" transform="translate(117.901484 269.373594)scale(0.11 -0.11)">
       <defs>
        <path id="ArialMT-35" d="M 266 1200 
L 856 1250 
Q 922 819 1161 601 
Q 1400 384 1738 384 
Q 2144 384 2425 690 
Q 2706 997 2706 1503 
Q 2706 1984 2436 2262 
Q 2166 2541 1728 2541 
Q 1456 2541 1237 2417 
Q 1019 2294 894 2097 
L 366 2166 
L 809 4519 
L 3088 4519 
L 3088 3981 
L 1259 3981 
L 1013 2750 
Q 1425 3038 1878 3038 
Q 2478 3038 2890 2622 
Q 3303 2206 3303 1553 
Q 3303 931 2941 478 
Q 2500 -78 1738 -78 
Q 1113 -78 717 272 
Q 322 622 266 1200 
z
" transform="scale(0.015625)"/>
       </defs>
       <use xlink:href="#ArialMT-35"/>
      </g>
     </g>
    </g>
    <g id="xtick_3">
     <g id="line2d_3">
      <g>
       <use xlink:href="#m59d2869469" x="187.92" y="252" style="fill: #262626; stroke: #262626; stroke-width: 1.25"/>
      </g>
     </g>
     <g id="text_3">
      <!-- 10 -->
      <g style="fill: #262626" transform="translate(181.802969 269.373594)scale(0.11 -0.11)">
       <defs>
        <path id="ArialMT-31" d="M 2384 0 
L 1822 0 
L 1822 3584 
Q 1619 3391 1289 3197 
Q 959 3003 697 2906 
L 697 3450 
Q 1169 3672 1522 3987 
Q 1875 4303 2022 4600 
L 2384 4600 
L 2384 0 
z
" transform="scale(0.015625)"/>
       </defs>
       <use xlink:href="#ArialMT-31"/>
       <use xlink:href="#ArialMT-30" x="55.615234"/>
      </g>
     </g>
    </g>
    <g id="xtick_4">
     <g id="line2d_4">
      <g>
       <use xlink:href="#m59d2869469" x="254.88" y="252" style="fill: #262626; stroke: #262626; stroke-width: 1.25"/>
      </g>
     </g>
     <g id="text_4">
      <!-- 15 -->
      <g style="fill: #262626" transform="translate(248.762969 269.373594)scale(0.11 -0.11)">
       <use xlink:href="#ArialMT-31"/>
       <use xlink:href="#ArialMT-35" x="55.615234"/>
      </g>
     </g>
    </g>
    <g id="xtick_5">
     <g id="line2d_5">
      <g>
       <use xlink:href="#m59d2869469" x="321.84" y="252" style="fill: #262626; stroke: #262626; stroke-width: 1.25"/>
      </g>
     </g>
     <g id="text_5">
      <!-- 20 -->
      <g style="fill: #262626" transform="translate(315.722969 269.373594)scale(0.11 -0.11)">
       <defs>
        <path id="ArialMT-32" d="M 3222 541 
L 3222 0 
L 194 0 
Q 188 203 259 391 
Q 375 700 629 1000 
Q 884 1300 1366 1694 
Q 2113 2306 2375 2664 
Q 2638 3022 2638 3341 
Q 2638 3675 2398 3904 
Q 2159 4134 1775 4134 
Q 1369 4134 1125 3890 
Q 881 3647 878 3216 
L 300 3275 
Q 359 3922 746 4261 
Q 1134 4600 1788 4600 
Q 2447 4600 2831 4234 
Q 3216 3869 3216 3328 
Q 3216 3053 3103 2787 
Q 2991 2522 2730 2228 
Q 2469 1934 1863 1422 
Q 1356 997 1212 845 
Q 1069 694 975 541 
L 3222 541 
z
" transform="scale(0.015625)"/>
       </defs>
       <use xlink:href="#ArialMT-32"/>
       <use xlink:href="#ArialMT-30" x="55.615234"/>
      </g>
     </g>
    </g>
    <g id="xtick_6">
     <g id="line2d_6">
      <g>
       <use xlink:href="#m59d2869469" x="388.8" y="252" style="fill: #262626; stroke: #262626; stroke-width: 1.25"/>
      </g>
     </g>
     <g id="text_6">
      <!-- 25 -->
      <g style="fill: #262626" transform="translate(382.682969 269.373594)scale(0.11 -0.11)">
       <use xlink:href="#ArialMT-32"/>
       <use xlink:href="#ArialMT-35" x="55.615234"/>
      </g>
     </g>
    </g>
    <g id="text_7">
     <!-- Frequency (Hz) -->
     <g style="fill: #262626" transform="translate(180.059063 284.295469)scale(0.12 -0.12)">
      <defs>
       <path id="ArialMT-46" d="M 525 0 
L 525 4581 
L 3616 4581 
L 3616 4041 
L 1131 4041 
L 1131 2622 
L 3281 2622 
L 3281 2081 
L 1131 2081 
L 1131 0 
L 525 0 
z
" transform="scale(0.015625)"/>
       <path id="ArialMT-72" d="M 416 0 
L 416 3319 
L 922 3319 
L 922 2816 
Q 1116 3169 1280 3281 
Q 1444 3394 1641 3394 
Q 1925 3394 2219 3213 
L 2025 2691 
Q 1819 2813 1613 2813 
Q 1428 2813 1281 2702 
Q 1134 2591 1072 2394 
Q 978 2094 978 1738 
L 978 0 
L 416 0 
z
" transform="scale(0.015625)"/>
       <path id="ArialMT-65" d="M 2694 1069 
L 3275 997 
Q 3138 488 2766 206 
Q 2394 -75 1816 -75 
Q 1088 -75 661 373 
Q 234 822 234 1631 
Q 234 2469 665 2931 
Q 1097 3394 1784 3394 
Q 2450 3394 2872 2941 
Q 3294 2488 3294 1666 
Q 3294 1616 3291 1516 
L 816 1516 
Q 847 969 1125 678 
Q 1403 388 1819 388 
Q 2128 388 2347 550 
Q 2566 713 2694 1069 
z
M 847 1978 
L 2700 1978 
Q 2663 2397 2488 2606 
Q 2219 2931 1791 2931 
Q 1403 2931 1139 2672 
Q 875 2413 847 1978 
z
" transform="scale(0.015625)"/>
       <path id="ArialMT-71" d="M 2538 -1272 
L 2538 353 
Q 2406 169 2170 47 
Q 1934 -75 1669 -75 
Q 1078 -75 651 397 
Q 225 869 225 1691 
Q 225 2191 398 2587 
Q 572 2984 901 3189 
Q 1231 3394 1625 3394 
Q 2241 3394 2594 2875 
L 2594 3319 
L 3100 3319 
L 3100 -1272 
L 2538 -1272 
z
M 803 1669 
Q 803 1028 1072 708 
Q 1341 388 1716 388 
Q 2075 388 2334 692 
Q 2594 997 2594 1619 
Q 2594 2281 2320 2615 
Q 2047 2950 1678 2950 
Q 1313 2950 1058 2639 
Q 803 2328 803 1669 
z
" transform="scale(0.015625)"/>
       <path id="ArialMT-75" d="M 2597 0 
L 2597 488 
Q 2209 -75 1544 -75 
Q 1250 -75 995 37 
Q 741 150 617 320 
Q 494 491 444 738 
Q 409 903 409 1263 
L 409 3319 
L 972 3319 
L 972 1478 
Q 972 1038 1006 884 
Q 1059 663 1231 536 
Q 1403 409 1656 409 
Q 1909 409 2131 539 
Q 2353 669 2445 892 
Q 2538 1116 2538 1541 
L 2538 3319 
L 3100 3319 
L 3100 0 
L 2597 0 
z
" transform="scale(0.015625)"/>
       <path id="ArialMT-6e" d="M 422 0 
L 422 3319 
L 928 3319 
L 928 2847 
Q 1294 3394 1984 3394 
Q 2284 3394 2536 3286 
Q 2788 3178 2913 3003 
Q 3038 2828 3088 2588 
Q 3119 2431 3119 2041 
L 3119 0 
L 2556 0 
L 2556 2019 
Q 2556 2363 2490 2533 
Q 2425 2703 2258 2804 
Q 2091 2906 1866 2906 
Q 1506 2906 1245 2678 
Q 984 2450 984 1813 
L 984 0 
L 422 0 
z
" transform="scale(0.015625)"/>
       <path id="ArialMT-63" d="M 2588 1216 
L 3141 1144 
Q 3050 572 2676 248 
Q 2303 -75 1759 -75 
Q 1078 -75 664 370 
Q 250 816 250 1647 
Q 250 2184 428 2587 
Q 606 2991 970 3192 
Q 1334 3394 1763 3394 
Q 2303 3394 2647 3120 
Q 2991 2847 3088 2344 
L 2541 2259 
Q 2463 2594 2264 2762 
Q 2066 2931 1784 2931 
Q 1359 2931 1093 2626 
Q 828 2322 828 1663 
Q 828 994 1084 691 
Q 1341 388 1753 388 
Q 2084 388 2306 591 
Q 2528 794 2588 1216 
z
" transform="scale(0.015625)"/>
       <path id="ArialMT-79" d="M 397 -1278 
L 334 -750 
Q 519 -800 656 -800 
Q 844 -800 956 -737 
Q 1069 -675 1141 -563 
Q 1194 -478 1313 -144 
Q 1328 -97 1363 -6 
L 103 3319 
L 709 3319 
L 1400 1397 
Q 1534 1031 1641 628 
Q 1738 1016 1872 1384 
L 2581 3319 
L 3144 3319 
L 1881 -56 
Q 1678 -603 1566 -809 
Q 1416 -1088 1222 -1217 
Q 1028 -1347 759 -1347 
Q 597 -1347 397 -1278 
z
" transform="scale(0.015625)"/>
       <path id="ArialMT-20" transform="scale(0.015625)"/>
       <path id="ArialMT-28" d="M 1497 -1347 
Q 1031 -759 709 28 
Q 388 816 388 1659 
Q 388 2403 628 3084 
Q 909 3875 1497 4659 
L 1900 4659 
Q 1522 4009 1400 3731 
Q 1209 3300 1100 2831 
Q 966 2247 966 1656 
Q 966 153 1900 -1347 
L 1497 -1347 
z
" transform="scale(0.015625)"/>
       <path id="ArialMT-48" d="M 513 0 
L 513 4581 
L 1119 4581 
L 1119 2700 
L 3500 2700 
L 3500 4581 
L 4106 4581 
L 4106 0 
L 3500 0 
L 3500 2159 
L 1119 2159 
L 1119 0 
L 513 0 
z
" transform="scale(0.015625)"/>
       <path id="ArialMT-7a" d="M 125 0 
L 125 456 
L 2238 2881 
Q 1878 2863 1603 2863 
L 250 2863 
L 250 3319 
L 2963 3319 
L 2963 2947 
L 1166 841 
L 819 456 
Q 1197 484 1528 484 
L 3063 484 
L 3063 0 
L 125 0 
z
" transform="scale(0.015625)"/>
       <path id="ArialMT-29" d="M 791 -1347 
L 388 -1347 
Q 1322 153 1322 1656 
Q 1322 2244 1188 2822 
Q 1081 3291 891 3722 
Q 769 4003 388 4659 
L 791 4659 
Q 1378 3875 1659 3084 
Q 1900 2403 1900 1659 
Q 1900 816 1576 28 
Q 1253 -759 791 -1347 
z
" transform="scale(0.015625)"/>
      </defs>
      <use xlink:href="#ArialMT-46"/>
      <use xlink:href="#ArialMT-72" x="61.083984"/>
      <use xlink:href="#ArialMT-65" x="94.384766"/>
      <use xlink:href="#ArialMT-71" x="150"/>
      <use xlink:href="#ArialMT-75" x="205.615234"/>
      <use xlink:href="#ArialMT-65" x="261.230469"/>
      <use xlink:href="#ArialMT-6e" x="316.845703"/>
      <use xlink:href="#ArialMT-63" x="372.460938"/>
      <use xlink:href="#ArialMT-79" x="422.460938"/>
      <use xlink:href="#ArialMT-20" x="472.460938"/>
      <use xlink:href="#ArialMT-28" x="500.244141"/>
      <use xlink:href="#ArialMT-48" x="533.544922"/>
      <use xlink:href="#ArialMT-7a" x="605.761719"/>
      <use xlink:href="#ArialMT-29" x="655.761719"/>
     </g>
    </g>
   </g>
   <g id="matplotlib.axis_2">
    <g id="ytick_1">
     <g id="line2d_7">
      <defs>
       <path id="m8b586448e5" d="M 0 0 
L -6 0 
" style="stroke: #262626; stroke-width: 1.25"/>
      </defs>
      <g>
       <use xlink:href="#m8b586448e5" x="54" y="242.116364" style="fill: #262626; stroke: #262626; stroke-width: 1.25"/>
      </g>
     </g>
     <g id="text_8">
      <!-- 0 -->
      <g style="fill: #262626" transform="translate(38.382969 246.053161)scale(0.11 -0.11)">
       <use xlink:href="#ArialMT-30"/>
      </g>
     </g>
    </g>
    <g id="ytick_2">
     <g id="line2d_8">
      <g>
       <use xlink:href="#m8b586448e5" x="54" y="195.848675" style="fill: #262626; stroke: #262626; stroke-width: 1.25"/>
      </g>
     </g>
     <g id="text_9">
      <!-- 500 -->
      <g style="fill: #262626" transform="translate(26.148906 199.785472)scale(0.11 -0.11)">
       <use xlink:href="#ArialMT-35"/>
       <use xlink:href="#ArialMT-30" x="55.615234"/>
       <use xlink:href="#ArialMT-30" x="111.230469"/>
      </g>
     </g>
    </g>
    <g id="ytick_3">
     <g id="line2d_9">
      <g>
       <use xlink:href="#m8b586448e5" x="54" y="149.580987" style="fill: #262626; stroke: #262626; stroke-width: 1.25"/>
      </g>
     </g>
     <g id="text_10">
      <!-- 1000 -->
      <g style="fill: #262626" transform="translate(20.031875 153.517784)scale(0.11 -0.11)">
       <use xlink:href="#ArialMT-31"/>
       <use xlink:href="#ArialMT-30" x="55.615234"/>
       <use xlink:href="#ArialMT-30" x="111.230469"/>
       <use xlink:href="#ArialMT-30" x="166.845703"/>
      </g>
     </g>
    </g>
    <g id="ytick_4">
     <g id="line2d_10">
      <g>
       <use xlink:href="#m8b586448e5" x="54" y="103.313298" style="fill: #262626; stroke: #262626; stroke-width: 1.25"/>
      </g>
     </g>
     <g id="text_11">
      <!-- 1500 -->
      <g style="fill: #262626" transform="translate(20.031875 107.250095)scale(0.11 -0.11)">
       <use xlink:href="#ArialMT-31"/>
       <use xlink:href="#ArialMT-35" x="55.615234"/>
       <use xlink:href="#ArialMT-30" x="111.230469"/>
       <use xlink:href="#ArialMT-30" x="166.845703"/>
      </g>
     </g>
    </g>
    <g id="ytick_5">
     <g id="line2d_11">
      <g>
       <use xlink:href="#m8b586448e5" x="54" y="57.04561" style="fill: #262626; stroke: #262626; stroke-width: 1.25"/>
      </g>
     </g>
     <g id="text_12">
      <!-- 2000 -->
      <g style="fill: #262626" transform="translate(20.031875 60.982407)scale(0.11 -0.11)">
       <use xlink:href="#ArialMT-32"/>
       <use xlink:href="#ArialMT-30" x="55.615234"/>
       <use xlink:href="#ArialMT-30" x="111.230469"/>
       <use xlink:href="#ArialMT-30" x="166.845703"/>
      </g>
     </g>
    </g>
   </g>
   <g id="line2d_12">
    <path d="M 54 241.808375 
L 144.085108 241.905579 
L 148.981038 241.923188 
L 152.897782 241.805222 
L 156.814526 241.824094 
L 158.772898 241.5821 
L 159.752084 241.847062 
L 160.73127 241.842987 
L 161.710456 241.527374 
L 163.668828 241.820558 
L 164.648014 241.630212 
L 165.6272 241.098004 
L 166.606386 241.652019 
L 169.543943 241.553536 
L 170.523129 241.463778 
L 172.481501 240.54663 
L 173.460687 240.676055 
L 174.439873 239.735144 
L 175.419059 240.275972 
L 176.398245 240.024239 
L 177.377431 239.509059 
L 178.356617 240.670839 
L 180.314989 238.294078 
L 181.294175 237.596909 
L 182.273361 239.436482 
L 183.252547 237.560333 
L 184.231733 237.473297 
L 185.210919 239.621414 
L 186.190105 240.245817 
L 187.169291 237.505635 
L 188.148477 229.042735 
L 190.106849 240.721203 
L 191.086035 237.869031 
L 192.065221 236.410056 
L 193.044407 236.952794 
L 194.023592 238.578948 
L 195.002778 237.598531 
L 195.981964 237.48162 
L 196.96115 237.912507 
L 197.940336 238.762146 
L 198.919522 236.816204 
L 199.898708 236.002867 
L 200.877894 240.421318 
L 201.85708 239.981452 
L 202.836266 240.164125 
L 203.815452 239.735327 
L 205.773824 240.534413 
L 206.75301 241.718217 
L 207.732196 240.823962 
L 208.711382 240.929356 
L 209.690568 234.180772 
L 210.669754 240.36913 
L 211.64894 237.671117 
L 212.628126 240.537019 
L 213.607312 237.478626 
L 214.586498 229.850342 
L 215.565684 231.940041 
L 216.54487 239.058954 
L 217.524056 240.166968 
L 218.503242 231.258769 
L 219.482427 234.287228 
L 220.461613 234.361152 
L 221.440799 241.274183 
L 222.419985 229.44535 
L 223.399171 231.375345 
L 224.378357 239.591259 
L 225.357543 239.335893 
L 226.336729 234.015721 
L 227.315915 241.706081 
L 228.295101 239.572456 
L 229.274287 234.983304 
L 230.253473 235.209836 
L 231.232659 237.581356 
L 232.211845 240.351737 
L 233.191031 239.659436 
L 234.170217 235.243955 
L 235.149403 234.843722 
L 236.128589 239.529788 
L 237.107775 232.545941 
L 238.086961 232.519278 
L 239.066147 241.739285 
L 240.045333 239.790763 
L 241.024519 230.19773 
L 242.003705 233.743484 
L 242.982891 239.885345 
L 243.962077 240.544223 
L 244.941262 240.736651 
L 245.920448 237.757863 
L 246.899634 241.9107 
L 247.87882 239.658046 
L 248.858006 227.931023 
L 249.837192 232.964612 
L 250.816378 242.072043 
L 251.795564 240.161629 
L 252.77475 233.493838 
L 253.753936 233.832482 
L 254.733122 241.505164 
L 255.712308 233.672861 
L 256.691494 230.431169 
L 257.67068 235.834749 
L 258.649866 240.321958 
L 259.629052 236.76327 
L 260.608238 226.882742 
L 261.587424 230.720576 
L 262.56661 241.080916 
L 263.545796 238.048907 
L 264.524982 233.293932 
L 265.504168 232.081902 
L 266.483354 239.780529 
L 267.46254 239.219182 
L 268.441726 233.116716 
L 269.420912 233.006724 
L 270.400097 241.107606 
L 271.379283 236.464026 
L 272.358469 233.815695 
L 273.337655 232.336662 
L 274.316841 238.838381 
L 275.296027 239.342099 
L 276.275213 235.372997 
L 277.254399 241.981982 
L 278.233585 241.645494 
L 279.212771 223.143783 
L 280.191957 240.172979 
L 281.171143 234.475764 
L 282.150329 233.144696 
L 283.129515 198.546968 
L 284.108701 235.705296 
L 285.087887 226.000423 
L 286.067073 238.645921 
L 287.046259 230.075922 
L 288.025445 222.774588 
L 289.004631 220.690789 
L 289.983817 230.593115 
L 290.963003 221.918508 
L 291.942189 230.883863 
L 292.921375 226.125045 
L 293.900561 239.084034 
L 294.879747 241.295348 
L 295.858932 241.289141 
L 296.838118 239.398294 
L 298.79649 221.516197 
L 299.775676 241.339204 
L 300.754862 241.882561 
L 301.734048 239.119568 
L 302.713234 237.256069 
L 303.69242 241.931037 
L 304.671606 240.44292 
L 305.650792 240.627794 
L 306.629978 238.164886 
L 307.609164 238.011727 
L 308.58835 241.865807 
L 309.567536 234.213824 
L 310.546722 229.706197 
L 311.525908 233.248639 
L 312.505094 240.475592 
L 313.48428 237.526181 
L 314.463466 233.434299 
L 315.442652 236.404705 
L 316.421838 241.292281 
L 317.401024 238.961901 
L 318.38021 237.01625 
L 319.359396 240.302325 
L 320.338582 240.070694 
L 321.317767 233.030521 
L 322.296953 234.353845 
L 323.276139 238.72723 
L 324.255325 236.694357 
L 325.234511 238.361488 
L 326.213697 233.970626 
L 327.192883 241.519854 
L 328.172069 241.302518 
L 330.130441 229.383731 
L 331.109627 239.814403 
L 332.088813 241.39999 
L 333.067999 237.221777 
L 334.047185 235.873386 
L 335.026371 238.72909 
L 336.005557 237.839568 
L 336.984743 230.082263 
L 337.963929 229.339039 
L 338.943115 241.492105 
L 339.922301 235.318817 
L 340.901487 223.740972 
L 341.880673 234.376265 
L 342.859859 241.223652 
L 343.839045 240.427552 
L 344.818231 227.876915 
L 345.797417 240.724451 
L 346.776602 239.601643 
L 347.755788 239.726174 
L 348.734974 235.988338 
L 349.71416 235.018651 
L 350.693346 241.552087 
L 351.672532 238.76926 
L 352.651718 234.831224 
L 353.630904 241.015698 
L 354.61009 240.892915 
L 355.589276 235.555495 
L 356.568462 228.613823 
L 357.547648 239.613513 
L 358.526834 239.844614 
L 359.50602 241.296083 
L 360.485206 234.33998 
L 361.464392 240.541526 
L 362.443578 240.569594 
L 363.422764 236.701558 
L 364.40195 237.082526 
L 365.381136 241.726009 
L 366.360322 241.79295 
L 367.339508 240.579313 
L 368.318694 232.272148 
L 369.29788 241.108732 
L 370.277066 241.753917 
L 371.256252 237.592777 
L 372.235437 238.495298 
L 373.214623 239.237683 
L 374.193809 240.67144 
L 375.172995 235.725341 
L 376.152181 239.725197 
L 377.131367 239.626972 
L 378.110553 240.379738 
L 379.089739 239.894203 
L 380.068925 238.972492 
L 381.048111 241.769291 
L 382.027297 239.175616 
L 383.006483 239.346811 
L 383.985669 230.650799 
L 384.964855 241.580744 
L 385.944041 241.422634 
L 386.923227 234.840547 
L 387.902413 239.287527 
L 388.881599 240.993184 
L 389.860785 241.01592 
L 391.819157 234.520481 
L 392.798343 241.321595 
L 393.777529 240.474279 
L 394.756715 236.453479 
L 395.735901 237.122283 
L 396.715087 241.974623 
L 397.694272 240.678862 
L 398.673458 233.37693 
L 399.652644 237.193907 
L 400.63183 241.971435 
L 401.611016 238.859045 
L 402.590202 237.670109 
L 403.569388 236.111518 
L 404.548574 240.298235 
L 405.52776 237.347458 
L 406.506946 236.704501 
L 408.465318 240.988104 
L 409.444504 239.115909 
L 410.42369 236.323001 
L 411.402876 239.422825 
L 412.382062 239.828671 
L 413.361248 238.018108 
L 414.340434 239.118562 
L 415.31962 236.017699 
L 416.298806 241.847472 
L 417.277992 233.381428 
L 418.257178 240.758512 
L 419.236364 240.273177 
L 420.21555 241.674378 
L 421.194736 238.753286 
L 422.173922 239.714747 
L 423.153107 240.399445 
L 424.132293 239.732247 
L 425.111479 240.125538 
L 426.090665 238.77267 
L 427.069851 237.987707 
L 428.049037 240.53218 
L 429.028223 240.469542 
L 430.007409 235.217921 
L 430.986595 237.766348 
L 431.965781 239.850501 
L 433 238.317143 
M 433 242.116053 
L -1 242.116053 
L -1 242.116053 
" clip-path="url(#p5fd167e0a7)" style="fill: none; stroke: #4c72b0; stroke-opacity: 0.3; stroke-width: 1.5; stroke-linecap: round"/>
   </g>
   <g id="line2d_13">
    <path d="M 54 241.82142 
L 132.334877 241.929771 
L 151.918596 241.957883 
L 158.772898 241.76554 
L 159.752084 241.813312 
L 160.73127 241.662954 
L 161.710456 241.784469 
L 163.668828 241.585123 
L 164.648014 241.734274 
L 165.6272 241.739239 
L 166.606386 241.503258 
L 167.585572 241.628615 
L 168.564757 241.343767 
L 169.543943 240.579252 
L 170.523129 241.025328 
L 171.502315 241.189512 
L 172.481501 240.642084 
L 173.460687 240.999554 
L 175.419059 240.547247 
L 176.398245 241.096982 
L 177.377431 240.392252 
L 178.356617 240.673799 
L 179.335803 239.88085 
L 180.314989 239.681111 
L 181.294175 240.714856 
L 182.273361 241.081843 
L 183.252547 239.738882 
L 184.231733 238.93887 
L 185.210919 236.329722 
L 186.190105 240.683801 
L 187.169291 239.113107 
L 188.148477 238.459441 
L 189.127663 237.299027 
L 190.106849 238.658189 
L 192.065221 238.370509 
L 193.044407 236.621142 
L 194.023592 237.483369 
L 195.002778 234.927252 
L 195.981964 234.937935 
L 196.96115 239.798382 
L 197.940336 239.795441 
L 198.919522 241.079214 
L 199.898708 238.865127 
L 200.877894 238.415208 
L 201.85708 238.146711 
L 202.836266 238.568887 
L 203.815452 239.770145 
L 205.773824 237.370366 
L 206.75301 236.337846 
L 207.732196 240.67558 
L 208.711382 240.451823 
L 209.690568 235.840009 
L 210.669754 237.740694 
L 211.64894 236.90825 
L 212.628126 239.93113 
L 213.607312 236.381592 
L 214.586498 234.482285 
L 215.565684 233.986315 
L 216.54487 239.619669 
L 217.524056 238.499483 
L 218.503242 233.388306 
L 219.482427 237.408297 
L 220.461613 233.632821 
L 221.440799 237.967594 
L 222.419985 236.766596 
L 223.399171 231.859164 
L 224.378357 228.314086 
L 225.357543 235.484465 
L 226.336729 235.554639 
L 227.315915 236.44127 
L 228.295101 236.655535 
L 229.274287 238.10699 
L 230.253473 235.160522 
L 231.232659 239.466789 
L 232.211845 240.833896 
L 233.191031 238.499168 
L 234.170217 230.89302 
L 235.149403 235.714262 
L 236.128589 237.698518 
L 237.107775 239.193156 
L 238.086961 235.275384 
L 239.066147 239.340034 
L 240.045333 241.527826 
L 241.024519 233.191072 
L 242.003705 237.553748 
L 242.982891 236.50309 
L 243.962077 241.566636 
L 244.941262 240.118232 
L 245.920448 236.984306 
L 246.899634 233.181666 
L 247.87882 241.393897 
L 249.837192 241.118366 
L 250.816378 234.253681 
L 251.795564 236.27962 
L 252.77475 240.154014 
L 253.753936 236.341642 
L 254.733122 239.082145 
L 255.712308 239.170716 
L 256.691494 237.351825 
L 257.67068 240.2134 
L 258.649866 237.26136 
L 259.629052 236.739726 
L 260.608238 238.19736 
L 261.587424 237.932433 
L 262.56661 239.310256 
L 263.545796 241.925833 
L 264.524982 242.099393 
L 265.504168 237.330756 
L 266.483354 233.921702 
L 267.46254 241.194352 
L 268.441726 233.818303 
L 269.420912 240.81694 
L 270.400097 237.717374 
L 271.379283 239.940188 
L 272.358469 236.748851 
L 273.337655 240.36591 
L 274.316841 240.832928 
L 275.296027 236.739 
L 276.275213 238.093055 
L 278.233585 239.3486 
L 279.212771 234.540025 
L 280.191957 235.451532 
L 281.171143 233.760347 
L 282.150329 230.583311 
L 283.129515 207.915578 
L 284.108701 228.176951 
L 285.087887 231.84874 
L 286.067073 232.189589 
L 287.046259 240.673042 
L 288.025445 238.321218 
L 289.983817 221.556642 
L 290.963003 219.926164 
L 291.942189 222.935303 
L 292.921375 224.673648 
L 293.900561 231.44772 
L 294.879747 229.966265 
L 295.858932 232.061294 
L 296.838118 240.442373 
L 297.817304 240.504455 
L 298.79649 237.577689 
L 299.775676 240.440611 
L 300.754862 238.75614 
L 301.734048 240.904554 
L 302.713234 241.150182 
L 303.69242 238.343981 
L 304.671606 241.250357 
L 305.650792 239.887292 
L 306.629978 240.75344 
L 307.609164 235.586746 
L 308.58835 239.143741 
L 309.567536 239.292094 
L 310.546722 237.230673 
L 311.525908 239.031151 
L 312.505094 241.914912 
L 313.48428 238.492457 
L 314.463466 241.059302 
L 315.442652 241.140964 
L 316.421838 240.637453 
L 317.401024 237.605196 
L 318.38021 240.642697 
L 319.359396 239.748674 
L 320.338582 240.961293 
L 321.317767 240.548531 
L 322.296953 235.45873 
L 323.276139 238.562189 
L 324.255325 240.294577 
L 325.234511 237.470352 
L 326.213697 238.545039 
L 327.192883 228.864501 
L 328.172069 240.8044 
L 329.151255 241.507284 
L 330.130441 239.921971 
L 331.109627 241.832834 
L 332.088813 238.555684 
L 333.067999 242.063768 
L 334.047185 242.030372 
L 335.026371 240.959364 
L 336.005557 240.392347 
L 336.984743 241.784854 
L 337.963929 236.841532 
L 338.943115 239.060393 
L 339.922301 235.540641 
L 340.901487 240.817712 
L 341.880673 236.848743 
L 342.859859 234.591859 
L 343.839045 238.763793 
L 344.818231 234.765049 
L 345.797417 241.455465 
L 346.776602 237.895502 
L 347.755788 241.770315 
L 348.734974 239.022983 
L 349.71416 240.325604 
L 350.693346 240.843717 
L 351.672532 240.470926 
L 352.651718 240.361558 
L 353.630904 239.806244 
L 354.61009 239.064977 
L 355.589276 242.022842 
L 356.568462 238.608046 
L 357.547648 241.833424 
L 358.526834 241.028651 
L 359.50602 240.771207 
L 360.485206 241.616684 
L 361.464392 241.395908 
L 362.443578 239.506596 
L 363.422764 241.99498 
L 364.40195 239.052651 
L 365.381136 242.093983 
L 366.360322 240.186063 
L 367.339508 240.584617 
L 368.318694 241.584617 
L 369.29788 241.907264 
L 370.277066 241.31986 
L 371.256252 239.086677 
L 372.235437 238.572354 
L 373.214623 240.873486 
L 374.193809 236.527806 
L 375.172995 239.976575 
L 376.152181 241.900754 
L 377.131367 242.109631 
L 378.110553 239.156428 
L 379.089739 240.670872 
L 380.068925 240.139679 
L 381.048111 241.951868 
L 382.027297 242.040685 
L 383.006483 240.612577 
L 383.985669 241.96377 
L 385.944041 240.913267 
L 386.923227 241.768684 
L 387.902413 241.030496 
L 388.881599 241.814587 
L 389.860785 242.094914 
L 390.839971 242.099635 
L 391.819157 241.868504 
L 392.798343 241.975939 
L 393.777529 241.249467 
L 394.756715 241.968763 
L 395.735901 240.916795 
L 396.715087 241.994473 
L 397.694272 239.661909 
L 398.673458 240.560762 
L 399.652644 241.624615 
L 400.63183 238.991755 
L 401.611016 240.779062 
L 402.590202 240.391445 
L 403.569388 238.863832 
L 404.548574 241.684919 
L 405.52776 241.005653 
L 406.506946 239.589221 
L 407.486132 241.664562 
L 408.465318 242.065658 
L 409.444504 240.478496 
L 410.42369 240.740043 
L 411.402876 241.229628 
L 412.382062 239.89324 
L 413.361248 241.780207 
L 414.340434 241.999814 
L 415.31962 241.293719 
L 416.298806 239.075126 
L 417.277992 241.858767 
L 418.257178 241.884666 
L 419.236364 240.661915 
L 420.21555 242.010095 
L 421.194736 241.14969 
L 422.173922 240.898808 
L 423.153107 239.527026 
L 424.132293 238.745664 
L 425.111479 241.623416 
L 426.090665 239.197666 
L 427.069851 241.104587 
L 428.049037 240.8326 
L 429.028223 241.80878 
L 430.007409 241.539752 
L 430.986595 241.700226 
L 431.965781 241.648386 
L 433 241.822291 
M 433 242.116048 
L -1 242.116048 
L -1 242.116048 
" clip-path="url(#p5fd167e0a7)" style="fill: none; stroke: #dd8452; stroke-opacity: 0.3; stroke-width: 1.5; stroke-linecap: round"/>
   </g>
   <g id="line2d_14">
    <path d="M 54 242.116364 
L 433 242.116364 
M 433 242.116364 
L -1 242.116364 
L -1 242.116364 
" clip-path="url(#p5fd167e0a7)" style="fill: none; stroke: #55a868; stroke-opacity: 0.3; stroke-width: 1.5; stroke-linecap: round"/>
   </g>
   <g id="line2d_15">
    <path d="M 54 241.573356 
L 156.814526 241.507229 
L 158.772898 241.461941 
L 159.752084 241.494191 
L 160.73127 241.199712 
L 161.710456 241.205131 
L 163.668828 241.429371 
L 164.648014 240.970934 
L 165.6272 240.907568 
L 166.606386 241.19342 
L 167.585572 241.182148 
L 168.564757 240.658619 
L 169.543943 240.939761 
L 170.523129 240.738212 
L 171.502315 241.242825 
L 172.481501 240.400433 
L 173.460687 240.040558 
L 174.439873 240.748287 
L 175.419059 239.768182 
L 176.398245 238.312317 
L 177.377431 238.434978 
L 178.356617 239.266753 
L 179.335803 236.263496 
L 180.314989 237.603002 
L 181.294175 237.605761 
L 182.273361 234.383394 
L 183.252547 235.906784 
L 184.231733 235.933929 
L 185.210919 235.480616 
L 186.190105 233.501769 
L 187.169291 230.132563 
L 189.127663 237.609143 
L 190.106849 235.087562 
L 191.086035 228.515427 
L 192.065221 236.012879 
L 194.023592 227.57948 
L 195.981964 231.976963 
L 196.96115 232.286782 
L 197.940336 229.517261 
L 198.919522 225.082996 
L 199.898708 229.388389 
L 200.877894 234.449009 
L 201.85708 231.9732 
L 202.836266 231.513389 
L 203.815452 231.423448 
L 204.794638 232.979803 
L 205.773824 229.191147 
L 206.75301 232.240835 
L 207.732196 238.213563 
L 208.711382 234.095343 
L 209.690568 237.683213 
L 210.669754 235.179144 
L 211.64894 237.183977 
L 212.628126 238.402827 
L 213.607312 228.840741 
L 214.586498 232.392433 
L 215.565684 237.21 
L 216.54487 233.173455 
L 217.524056 238.359565 
L 218.503242 239.926431 
L 219.482427 240.896565 
L 220.461613 239.975782 
L 221.440799 239.401047 
L 222.419985 240.956308 
L 223.399171 239.813103 
L 224.378357 236.019718 
L 225.357543 235.796549 
L 226.336729 238.252925 
L 227.315915 241.912925 
L 229.274287 234.917375 
L 230.253473 240.608321 
L 232.211845 242.088029 
L 233.191031 240.933167 
L 234.170217 240.175415 
L 235.149403 239.760032 
L 236.128589 236.444729 
L 237.107775 241.168225 
L 238.086961 240.095218 
L 239.066147 238.533471 
L 240.045333 241.55782 
L 241.024519 240.652718 
L 242.003705 238.953989 
L 242.982891 238.294435 
L 243.962077 238.27214 
L 244.941262 241.36547 
L 245.920448 238.81102 
L 246.899634 235.588623 
L 247.87882 237.758209 
L 248.858006 242.101367 
L 249.837192 235.808679 
L 250.816378 227.784069 
L 251.795564 236.705182 
L 252.77475 241.010246 
L 253.753936 238.558432 
L 254.733122 234.223954 
L 255.712308 239.178206 
L 256.691494 239.738376 
L 257.67068 240.7604 
L 258.649866 237.729966 
L 259.629052 241.763258 
L 260.608238 238.86974 
L 261.587424 236.680361 
L 262.56661 230.090146 
L 263.545796 238.843149 
L 264.524982 229.723216 
L 265.504168 229.973337 
L 266.483354 235.523291 
L 267.46254 240.126308 
L 268.441726 228.661546 
L 269.420912 236.881758 
L 270.400097 235.262267 
L 271.379283 230.808035 
L 272.358469 237.834479 
L 273.337655 237.050197 
L 274.316841 241.519447 
L 275.296027 235.092022 
L 276.275213 240.091433 
L 277.254399 241.572529 
L 278.233585 241.33713 
L 279.212771 239.136329 
L 280.191957 211.041123 
L 281.171143 221.084222 
L 282.150329 181.752639 
L 283.129515 46.9985 
L 284.108701 227.776503 
L 285.087887 224.775802 
L 286.067073 241.754519 
L 287.046259 169.120867 
L 288.025445 221.131894 
L 289.004631 227.828149 
L 289.983817 240.416028 
L 290.963003 235.553505 
L 291.942189 231.356304 
L 292.921375 217.540657 
L 293.900561 200.818764 
L 294.879747 218.322793 
L 295.858932 212.248017 
L 296.838118 208.46975 
L 297.817304 205.571044 
L 298.79649 235.713688 
L 299.775676 240.678451 
L 300.754862 234.954953 
L 301.734048 237.800631 
L 302.713234 241.117479 
L 303.69242 240.971447 
L 304.671606 241.962958 
L 306.629978 240.540309 
L 307.609164 236.730572 
L 308.58835 241.628445 
L 310.546722 241.628847 
L 311.525908 241.999757 
L 312.505094 241.658751 
L 313.48428 240.680361 
L 314.463466 241.064167 
L 315.442652 241.715902 
L 316.421838 240.704719 
L 317.401024 241.587507 
L 318.38021 240.920805 
L 319.359396 240.691259 
L 320.338582 241.106948 
L 321.317767 240.339005 
L 322.296953 241.575617 
L 323.276139 240.915271 
L 324.255325 239.273188 
L 325.234511 234.367195 
L 326.213697 238.798738 
L 327.192883 240.280234 
L 328.172069 239.647972 
L 329.151255 236.798181 
L 330.130441 239.858716 
L 331.109627 241.395155 
L 333.067999 232.465172 
L 334.047185 241.26535 
L 335.026371 239.906498 
L 336.005557 239.580128 
L 336.984743 239.509302 
L 337.963929 241.905741 
L 338.943115 242.054309 
L 339.922301 241.365475 
L 340.901487 238.581077 
L 341.880673 240.832829 
L 342.859859 241.51656 
L 343.839045 237.244624 
L 344.818231 236.988724 
L 345.797417 240.648006 
L 346.776602 241.678657 
L 347.755788 237.892434 
L 348.734974 241.132533 
L 349.71416 241.994393 
L 350.693346 240.022034 
L 351.672532 242.005308 
L 352.651718 240.309806 
L 353.630904 237.0015 
L 354.61009 241.678146 
L 355.589276 239.515213 
L 357.547648 241.601225 
L 358.526834 240.849064 
L 359.50602 241.455885 
L 360.485206 241.752624 
L 362.443578 241.085783 
L 363.422764 241.058744 
L 364.40195 241.845457 
L 365.381136 240.845538 
L 366.360322 240.506913 
L 367.339508 239.130829 
L 368.318694 240.809455 
L 369.29788 242.094805 
L 371.256252 241.715394 
L 372.235437 238.889062 
L 373.214623 241.474363 
L 374.193809 240.714202 
L 375.172995 241.767746 
L 376.152181 239.857647 
L 377.131367 242.053933 
L 378.110553 240.671751 
L 379.089739 242.080589 
L 380.068925 241.898213 
L 381.048111 239.653977 
L 382.027297 240.053255 
L 383.006483 235.449316 
L 383.985669 240.282589 
L 385.944041 241.649845 
L 386.923227 239.471195 
L 387.902413 240.947294 
L 388.881599 240.997053 
L 389.860785 240.616701 
L 390.839971 241.521447 
L 391.819157 240.393124 
L 393.777529 241.413028 
L 394.756715 241.25894 
L 395.735901 240.003928 
L 396.715087 241.555889 
L 397.694272 241.899782 
L 398.673458 241.57928 
L 399.652644 240.29471 
L 400.63183 240.081929 
L 401.611016 240.965274 
L 402.590202 241.134369 
L 403.569388 239.557601 
L 404.548574 241.70004 
L 405.52776 240.280016 
L 406.506946 241.959435 
L 407.486132 241.05377 
L 408.465318 241.469006 
L 409.444504 240.748247 
L 410.42369 241.354329 
L 411.402876 241.204324 
L 412.382062 238.074137 
L 413.361248 241.333915 
L 414.340434 241.56543 
L 415.31962 240.878497 
L 416.298806 239.444351 
L 417.277992 242.005505 
L 418.257178 241.971586 
L 419.236364 241.434292 
L 420.21555 238.267698 
L 421.194736 240.993251 
L 422.173922 239.972485 
L 423.153107 241.099124 
L 424.132293 241.887516 
L 425.111479 241.501919 
L 426.090665 241.450752 
L 427.069851 237.745928 
L 428.049037 240.843625 
L 429.028223 241.530398 
L 430.007409 240.161089 
L 430.986595 239.952365 
L 431.965781 239.027455 
L 433 240.081161 
M 433 242.116065 
L -1 242.116065 
L -1 242.116065 
" clip-path="url(#p5fd167e0a7)" style="fill: none; stroke: #c44e52; stroke-opacity: 0.3; stroke-width: 1.5; stroke-linecap: round"/>
   </g>
   <g id="line2d_16">
    <path d="M 54 241.899608 
L 127.438947 242.010511 
L 153.876968 242.01343 
L 164.648014 241.833284 
L 165.6272 241.654329 
L 167.585572 241.737782 
L 168.564757 241.667499 
L 169.543943 241.451712 
L 170.523129 241.524593 
L 171.502315 242.02434 
L 172.481501 241.678475 
L 173.460687 241.504872 
L 174.439873 241.889985 
L 175.419059 241.87015 
L 176.398245 241.188673 
L 177.377431 240.951688 
L 178.356617 242.06481 
L 179.335803 240.549483 
L 180.314989 241.999843 
L 181.294175 241.279067 
L 182.273361 241.02354 
L 184.231733 241.517915 
L 185.210919 240.28696 
L 186.190105 240.095485 
L 187.169291 238.455554 
L 188.148477 240.354108 
L 190.106849 241.504922 
L 191.086035 237.646307 
L 192.065221 239.441151 
L 193.044407 240.26743 
L 194.023592 239.737133 
L 195.002778 240.672141 
L 195.981964 240.686791 
L 196.96115 238.011122 
L 197.940336 236.304366 
L 198.919522 238.371661 
L 199.898708 237.484794 
L 200.877894 240.773589 
L 202.836266 237.887565 
L 203.815452 240.368889 
L 204.794638 238.692104 
L 205.773824 237.262971 
L 206.75301 240.852744 
L 208.711382 232.655246 
L 209.690568 234.550084 
L 210.669754 237.064922 
L 211.64894 236.852194 
L 212.628126 239.438912 
L 213.607312 236.264046 
L 214.586498 236.906785 
L 215.565684 239.478397 
L 216.54487 240.560749 
L 217.524056 236.755402 
L 218.503242 239.800191 
L 219.482427 241.420639 
L 220.461613 236.90936 
L 221.440799 239.985365 
L 222.419985 240.998581 
L 223.399171 239.915056 
L 224.378357 239.199057 
L 225.357543 237.960325 
L 226.336729 235.710176 
L 227.315915 232.444607 
L 228.295101 231.122431 
L 229.274287 235.710606 
L 230.253473 238.760966 
L 231.232659 238.886672 
L 232.211845 235.196727 
L 233.191031 240.084169 
L 234.170217 234.164972 
L 235.149403 236.990589 
L 236.128589 230.678052 
L 237.107775 234.800479 
L 238.086961 221.132159 
L 239.066147 232.056151 
L 240.045333 231.644595 
L 241.024519 237.328149 
L 242.003705 232.177939 
L 242.982891 233.381056 
L 243.962077 240.748715 
L 244.941262 235.560069 
L 245.920448 237.890762 
L 246.899634 232.964965 
L 247.87882 234.572923 
L 248.858006 237.254032 
L 249.837192 227.775833 
L 250.816378 236.886118 
L 251.795564 238.713579 
L 252.77475 238.880837 
L 253.753936 235.585847 
L 254.733122 225.696554 
L 255.712308 230.122494 
L 256.691494 238.357796 
L 257.67068 238.864625 
L 258.649866 234.672464 
L 259.629052 238.8184 
L 260.608238 241.746528 
L 261.587424 238.00519 
L 263.545796 241.609083 
L 264.524982 239.391002 
L 265.504168 236.628295 
L 266.483354 238.562598 
L 267.46254 241.687772 
L 268.441726 235.981888 
L 269.420912 232.609246 
L 270.400097 240.760936 
L 271.379283 239.431148 
L 272.358469 236.208995 
L 273.337655 238.420488 
L 274.316841 241.266506 
L 275.296027 240.184998 
L 276.275213 238.568411 
L 277.254399 234.315768 
L 278.233585 236.419529 
L 279.212771 234.362702 
L 280.191957 218.136167 
L 281.171143 235.566789 
L 282.150329 213.620399 
L 283.129515 44.443636 
L 284.108701 175.165992 
L 285.087887 239.134085 
L 286.067073 193.611393 
L 287.046259 131.931558 
L 288.025445 199.016637 
L 289.004631 237.485121 
L 289.983817 182.478791 
L 290.963003 173.935579 
L 291.942189 171.44784 
L 292.921375 122.801432 
L 293.900561 127.163446 
L 294.879747 85.57175 
L 295.858932 126.85061 
L 296.838118 156.726335 
L 297.817304 175.86539 
L 298.79649 210.834964 
L 299.775676 210.469478 
L 300.754862 202.501584 
L 301.734048 227.464414 
L 302.713234 229.026981 
L 303.69242 229.43171 
L 304.671606 234.385563 
L 305.650792 235.467096 
L 306.629978 225.177177 
L 307.609164 233.380511 
L 308.58835 237.889709 
L 309.567536 240.527525 
L 310.546722 236.942737 
L 311.525908 236.769469 
L 312.505094 237.257586 
L 313.48428 235.82853 
L 314.463466 242.116099 
L 315.442652 238.111285 
L 316.421838 240.945785 
L 317.401024 236.196521 
L 318.38021 237.563218 
L 319.359396 237.510585 
L 320.338582 238.789361 
L 321.317767 239.677973 
L 322.296953 240.336967 
L 323.276139 238.262818 
L 324.255325 241.694555 
L 325.234511 238.017214 
L 326.213697 233.326758 
L 327.192883 242.065509 
L 328.172069 241.111073 
L 329.151255 240.905303 
L 330.130441 240.99842 
L 331.109627 239.098046 
L 332.088813 241.966681 
L 333.067999 239.987799 
L 334.047185 240.713424 
L 335.026371 238.868249 
L 336.005557 241.957111 
L 336.984743 240.31119 
L 337.963929 236.633371 
L 338.943115 239.422558 
L 339.922301 241.22456 
L 340.901487 241.316843 
L 341.880673 239.061517 
L 342.859859 240.9588 
L 343.839045 241.493479 
L 344.818231 241.372543 
L 345.797417 240.684703 
L 346.776602 240.611105 
L 347.755788 239.695882 
L 348.734974 238.555643 
L 349.71416 240.590912 
L 350.693346 240.373261 
L 351.672532 238.509755 
L 352.651718 235.856246 
L 353.630904 239.828656 
L 354.61009 240.511205 
L 355.589276 241.769223 
L 356.568462 241.346586 
L 357.547648 240.041299 
L 358.526834 236.534345 
L 359.50602 238.15756 
L 360.485206 241.451999 
L 362.443578 241.148188 
L 363.422764 239.691602 
L 364.40195 241.020196 
L 365.381136 241.190083 
L 366.360322 241.659604 
L 367.339508 239.036375 
L 368.318694 241.804291 
L 369.29788 240.469815 
L 370.277066 241.501486 
L 371.256252 241.690682 
L 372.235437 237.493977 
L 373.214623 239.934993 
L 374.193809 240.155989 
L 375.172995 241.222115 
L 376.152181 240.721703 
L 377.131367 241.852914 
L 378.110553 242.03455 
L 379.089739 241.637704 
L 380.068925 238.92167 
L 381.048111 241.106154 
L 382.027297 241.9381 
L 383.006483 238.719048 
L 383.985669 241.586883 
L 384.964855 239.807312 
L 385.944041 239.230158 
L 386.923227 238.251763 
L 387.902413 241.388645 
L 388.881599 240.455683 
L 389.860785 241.184063 
L 390.839971 241.178426 
L 391.819157 240.820011 
L 392.798343 240.779364 
L 393.777529 241.3386 
L 394.756715 241.646259 
L 395.735901 241.288181 
L 396.715087 241.767283 
L 397.694272 241.714427 
L 398.673458 241.28179 
L 399.652644 239.047076 
L 400.63183 239.006697 
L 401.611016 240.134106 
L 402.590202 241.005374 
L 403.569388 240.294157 
L 404.548574 236.799391 
L 405.52776 238.07472 
L 406.506946 240.308659 
L 407.486132 241.800386 
L 408.465318 240.857947 
L 409.444504 241.404526 
L 410.42369 240.937773 
L 411.402876 240.623442 
L 412.382062 241.572714 
L 413.361248 238.652616 
L 414.340434 242.042423 
L 415.31962 239.51222 
L 416.298806 241.25691 
L 417.277992 241.682792 
L 418.257178 240.719181 
L 419.236364 241.102119 
L 420.21555 240.297669 
L 421.194736 240.393796 
L 422.173922 240.946294 
L 423.153107 241.723036 
L 424.132293 240.495346 
L 425.111479 241.269343 
L 426.090665 239.336775 
L 427.069851 241.639579 
L 428.049037 240.717412 
L 429.028223 241.570254 
L 430.007409 241.373063 
L 430.986595 241.679381 
L 431.965781 241.692912 
L 433 241.00022 
M 433 242.116044 
L -1 242.116044 
L -1 242.116044 
" clip-path="url(#p5fd167e0a7)" style="fill: none; stroke: #8172b3; stroke-opacity: 0.3; stroke-width: 1.5; stroke-linecap: round"/>
   </g>
   <g id="line2d_17">
    <path d="M 54 242.116364 
L 433 242.116364 
M 433 242.116364 
L -1 242.116364 
L -1 242.116364 
" clip-path="url(#p5fd167e0a7)" style="fill: none; stroke: #937860; stroke-opacity: 0.3; stroke-width: 1.5; stroke-linecap: round"/>
   </g>
   <g id="line2d_18">
    <path d="M 54 241.816576 
L 133.314063 241.925368 
L 152.897782 241.912809 
L 153.876968 241.834746 
L 155.83534 241.922944 
L 158.772898 241.698763 
L 161.710456 241.72274 
L 163.668828 241.414871 
L 164.648014 241.454551 
L 165.6272 241.163913 
L 166.606386 241.201045 
L 167.585572 241.546433 
L 168.564757 241.400178 
L 169.543943 240.629508 
L 170.523129 241.451411 
L 171.502315 241.483204 
L 172.481501 240.342692 
L 173.460687 240.870381 
L 174.439873 240.863985 
L 175.419059 240.164022 
L 176.398245 240.131952 
L 177.377431 240.962732 
L 178.356617 239.998829 
L 180.314989 239.007747 
L 181.294175 241.238712 
L 182.273361 239.947224 
L 183.252547 237.364811 
L 184.231733 240.67685 
L 185.210919 240.544907 
L 186.190105 238.592465 
L 187.169291 237.05151 
L 188.148477 239.281569 
L 189.127663 238.424643 
L 190.106849 237.953384 
L 191.086035 233.019728 
L 192.065221 237.915237 
L 193.044407 238.182642 
L 194.023592 239.135421 
L 195.002778 238.881052 
L 195.981964 235.081087 
L 196.96115 238.553237 
L 197.940336 237.597441 
L 198.919522 238.457861 
L 199.898708 238.084854 
L 200.877894 236.244588 
L 201.85708 236.508426 
L 202.836266 237.701992 
L 203.815452 241.382825 
L 204.794638 238.651434 
L 205.773824 237.881321 
L 206.75301 238.114833 
L 207.732196 240.687383 
L 208.711382 237.486393 
L 209.690568 237.090224 
L 210.669754 233.188584 
L 211.64894 239.771718 
L 212.628126 237.06587 
L 213.607312 237.045237 
L 214.586498 239.57119 
L 215.565684 240.776779 
L 216.54487 238.34126 
L 217.524056 239.847654 
L 218.503242 240.24667 
L 219.482427 237.201729 
L 220.461613 236.48499 
L 221.440799 240.301341 
L 222.419985 236.066904 
L 223.399171 233.786704 
L 225.357543 237.041096 
L 226.336729 233.477707 
L 227.315915 238.282049 
L 228.295101 238.781081 
L 229.274287 238.422428 
L 230.253473 240.631075 
L 232.211845 240.529758 
L 233.191031 236.449209 
L 234.170217 239.195086 
L 235.149403 235.544619 
L 237.107775 240.88177 
L 238.086961 238.519063 
L 239.066147 236.893836 
L 240.045333 235.654603 
L 241.024519 236.250192 
L 242.003705 229.996209 
L 242.982891 236.291423 
L 244.941262 239.589169 
L 245.920448 235.519363 
L 246.899634 237.81581 
L 247.87882 239.722424 
L 248.858006 235.834632 
L 249.837192 235.25452 
L 250.816378 233.626838 
L 251.795564 240.429378 
L 252.77475 235.546325 
L 253.753936 236.105567 
L 254.733122 240.639791 
L 255.712308 240.383186 
L 256.691494 240.648164 
L 257.67068 241.174272 
L 258.649866 232.164259 
L 259.629052 240.439448 
L 260.608238 240.438801 
L 261.587424 237.185678 
L 262.56661 237.350709 
L 263.545796 241.07034 
L 264.524982 240.641504 
L 265.504168 236.505024 
L 266.483354 238.630528 
L 267.46254 240.16705 
L 268.441726 233.035861 
L 269.420912 239.191362 
L 270.400097 241.832836 
L 271.379283 240.214971 
L 272.358469 239.059657 
L 273.337655 240.712874 
L 274.316841 236.443377 
L 275.296027 237.861921 
L 276.275213 237.263171 
L 277.254399 233.39137 
L 278.233585 239.041419 
L 279.212771 237.360661 
L 280.191957 238.521976 
L 281.171143 239.119762 
L 282.150329 241.466472 
L 283.129515 241.56307 
L 284.108701 237.482195 
L 285.087887 241.922171 
L 286.067073 237.409522 
L 287.046259 237.231714 
L 288.025445 235.355238 
L 289.004631 234.89616 
L 289.983817 241.677996 
L 290.963003 241.787864 
L 291.942189 237.500485 
L 292.921375 236.322262 
L 293.900561 237.896857 
L 295.858932 240.522554 
L 296.838118 241.111461 
L 297.817304 241.0372 
L 298.79649 241.79164 
L 299.775676 241.050301 
L 300.754862 240.825021 
L 301.734048 241.93402 
L 302.713234 239.419671 
L 303.69242 240.4265 
L 304.671606 239.475712 
L 305.650792 238.282366 
L 306.629978 241.29975 
L 307.609164 241.193671 
L 308.58835 240.08984 
L 309.567536 241.834014 
L 310.546722 240.889495 
L 311.525908 240.200054 
L 312.505094 239.098242 
L 313.48428 239.744374 
L 314.463466 240.645992 
L 315.442652 237.34352 
L 316.421838 241.304317 
L 317.401024 240.578063 
L 318.38021 241.472019 
L 319.359396 235.913348 
L 320.338582 238.447076 
L 321.317767 241.757535 
L 322.296953 239.579837 
L 323.276139 238.143127 
L 324.255325 234.339288 
L 325.234511 240.913162 
L 326.213697 240.89837 
L 327.192883 238.094657 
L 328.172069 236.35834 
L 329.151255 238.857375 
L 330.130441 240.955131 
L 331.109627 237.71974 
L 332.088813 237.746251 
L 333.067999 241.525133 
L 334.047185 240.702786 
L 335.026371 240.531041 
L 336.984743 239.145267 
L 337.963929 241.709185 
L 338.943115 237.951809 
L 339.922301 241.012236 
L 340.901487 239.257927 
L 341.880673 239.410589 
L 342.859859 238.600663 
L 343.839045 239.995465 
L 344.818231 231.856678 
L 345.797417 241.911553 
L 346.776602 240.399361 
L 347.755788 241.504381 
L 348.734974 241.969186 
L 349.71416 239.395166 
L 350.693346 241.319744 
L 351.672532 240.117955 
L 352.651718 237.958053 
L 353.630904 239.745216 
L 354.61009 239.129016 
L 355.589276 238.925098 
L 357.547648 241.521717 
L 358.526834 239.372042 
L 359.50602 240.96747 
L 360.485206 241.098611 
L 361.464392 235.861407 
L 362.443578 240.022855 
L 363.422764 238.767972 
L 364.40195 236.512931 
L 365.381136 241.510236 
L 366.360322 239.33372 
L 367.339508 241.630759 
L 368.318694 239.40522 
L 369.29788 238.512092 
L 370.277066 241.223304 
L 371.256252 239.128015 
L 372.235437 238.233801 
L 373.214623 240.862901 
L 374.193809 240.735265 
L 375.172995 240.078629 
L 376.152181 241.740398 
L 377.131367 238.458987 
L 378.110553 241.665166 
L 379.089739 239.693401 
L 380.068925 239.111482 
L 381.048111 242.029594 
L 382.027297 238.402154 
L 383.006483 233.898056 
L 383.985669 241.460583 
L 384.964855 239.355744 
L 385.944041 240.514617 
L 387.902413 241.493547 
L 388.881599 238.935649 
L 389.860785 239.715884 
L 391.819157 239.191736 
L 392.798343 242.014269 
L 393.777529 239.461564 
L 394.756715 241.597352 
L 395.735901 241.141027 
L 396.715087 241.202079 
L 397.694272 241.442457 
L 398.673458 242.051015 
L 399.652644 241.739948 
L 400.63183 240.148125 
L 401.611016 241.940108 
L 402.590202 242.030669 
L 403.569388 240.711905 
L 404.548574 241.373074 
L 405.52776 240.3811 
L 406.506946 239.707196 
L 407.486132 240.887724 
L 409.444504 240.730122 
L 410.42369 241.275859 
L 411.402876 240.926475 
L 412.382062 240.342268 
L 413.361248 240.803692 
L 414.340434 237.615516 
L 415.31962 239.729885 
L 416.298806 240.814265 
L 417.277992 238.246814 
L 418.257178 240.403687 
L 419.236364 239.846162 
L 420.21555 240.475237 
L 421.194736 241.746873 
L 422.173922 240.828258 
L 423.153107 239.677833 
L 424.132293 242.047242 
L 425.111479 238.406897 
L 426.090665 241.546574 
L 427.069851 241.139561 
L 429.028223 241.191014 
L 430.007409 241.888213 
L 430.986595 239.926689 
L 431.965781 236.763686 
L 432.944967 241.822138 
L 433 241.687847 
M 433 242.11606 
L -1 242.11606 
L -1 242.11606 
" clip-path="url(#p5fd167e0a7)" style="fill: none; stroke: #da8bc3; stroke-opacity: 0.3; stroke-width: 1.5; stroke-linecap: round"/>
   </g>
   <g id="patch_3">
    <path d="M 54 252 
L 54 34.56 
" style="fill: none; stroke: #262626; stroke-width: 1.25; stroke-linejoin: miter; stroke-linecap: square"/>
   </g>
   <g id="patch_4">
    <path d="M 388.8 252 
L 388.8 34.56 
" style="fill: none; stroke: #262626; stroke-width: 1.25; stroke-linejoin: miter; stroke-linecap: square"/>
   </g>
   <g id="patch_5">
    <path d="M 54 252 
L 388.8 252 
" style="fill: none; stroke: #262626; stroke-width: 1.25; stroke-linejoin: miter; stroke-linecap: square"/>
   </g>
   <g id="patch_6">
    <path d="M 54 34.56 
L 388.8 34.56 
" style="fill: none; stroke: #262626; stroke-width: 1.25; stroke-linejoin: miter; stroke-linecap: square"/>
   </g>
   <g id="text_13">
    <!-- patient06_app_post01 - Power spectrum -->
    <g style="fill: #262626" transform="translate(113.340938 28.56)scale(0.12 -0.12)">
     <defs>
      <path id="ArialMT-70" d="M 422 -1272 
L 422 3319 
L 934 3319 
L 934 2888 
Q 1116 3141 1344 3267 
Q 1572 3394 1897 3394 
Q 2322 3394 2647 3175 
Q 2972 2956 3137 2557 
Q 3303 2159 3303 1684 
Q 3303 1175 3120 767 
Q 2938 359 2589 142 
Q 2241 -75 1856 -75 
Q 1575 -75 1351 44 
Q 1128 163 984 344 
L 984 -1272 
L 422 -1272 
z
M 931 1641 
Q 931 1000 1190 694 
Q 1450 388 1819 388 
Q 2194 388 2461 705 
Q 2728 1022 2728 1688 
Q 2728 2322 2467 2637 
Q 2206 2953 1844 2953 
Q 1484 2953 1207 2617 
Q 931 2281 931 1641 
z
" transform="scale(0.015625)"/>
      <path id="ArialMT-61" d="M 2588 409 
Q 2275 144 1986 34 
Q 1697 -75 1366 -75 
Q 819 -75 525 192 
Q 231 459 231 875 
Q 231 1119 342 1320 
Q 453 1522 633 1644 
Q 813 1766 1038 1828 
Q 1203 1872 1538 1913 
Q 2219 1994 2541 2106 
Q 2544 2222 2544 2253 
Q 2544 2597 2384 2738 
Q 2169 2928 1744 2928 
Q 1347 2928 1158 2789 
Q 969 2650 878 2297 
L 328 2372 
Q 403 2725 575 2942 
Q 747 3159 1072 3276 
Q 1397 3394 1825 3394 
Q 2250 3394 2515 3294 
Q 2781 3194 2906 3042 
Q 3031 2891 3081 2659 
Q 3109 2516 3109 2141 
L 3109 1391 
Q 3109 606 3145 398 
Q 3181 191 3288 0 
L 2700 0 
Q 2613 175 2588 409 
z
M 2541 1666 
Q 2234 1541 1622 1453 
Q 1275 1403 1131 1340 
Q 988 1278 909 1158 
Q 831 1038 831 891 
Q 831 666 1001 516 
Q 1172 366 1500 366 
Q 1825 366 2078 508 
Q 2331 650 2450 897 
Q 2541 1088 2541 1459 
L 2541 1666 
z
" transform="scale(0.015625)"/>
      <path id="ArialMT-74" d="M 1650 503 
L 1731 6 
Q 1494 -44 1306 -44 
Q 1000 -44 831 53 
Q 663 150 594 308 
Q 525 466 525 972 
L 525 2881 
L 113 2881 
L 113 3319 
L 525 3319 
L 525 4141 
L 1084 4478 
L 1084 3319 
L 1650 3319 
L 1650 2881 
L 1084 2881 
L 1084 941 
Q 1084 700 1114 631 
Q 1144 563 1211 522 
Q 1278 481 1403 481 
Q 1497 481 1650 503 
z
" transform="scale(0.015625)"/>
      <path id="ArialMT-69" d="M 425 3934 
L 425 4581 
L 988 4581 
L 988 3934 
L 425 3934 
z
M 425 0 
L 425 3319 
L 988 3319 
L 988 0 
L 425 0 
z
" transform="scale(0.015625)"/>
      <path id="ArialMT-36" d="M 3184 3459 
L 2625 3416 
Q 2550 3747 2413 3897 
Q 2184 4138 1850 4138 
Q 1581 4138 1378 3988 
Q 1113 3794 959 3422 
Q 806 3050 800 2363 
Q 1003 2672 1297 2822 
Q 1591 2972 1913 2972 
Q 2475 2972 2870 2558 
Q 3266 2144 3266 1488 
Q 3266 1056 3080 686 
Q 2894 316 2569 119 
Q 2244 -78 1831 -78 
Q 1128 -78 684 439 
Q 241 956 241 2144 
Q 241 3472 731 4075 
Q 1159 4600 1884 4600 
Q 2425 4600 2770 4297 
Q 3116 3994 3184 3459 
z
M 888 1484 
Q 888 1194 1011 928 
Q 1134 663 1356 523 
Q 1578 384 1822 384 
Q 2178 384 2434 671 
Q 2691 959 2691 1453 
Q 2691 1928 2437 2201 
Q 2184 2475 1800 2475 
Q 1419 2475 1153 2201 
Q 888 1928 888 1484 
z
" transform="scale(0.015625)"/>
      <path id="ArialMT-5f" d="M -97 -1272 
L -97 -866 
L 3631 -866 
L 3631 -1272 
L -97 -1272 
z
" transform="scale(0.015625)"/>
      <path id="ArialMT-6f" d="M 213 1659 
Q 213 2581 725 3025 
Q 1153 3394 1769 3394 
Q 2453 3394 2887 2945 
Q 3322 2497 3322 1706 
Q 3322 1066 3130 698 
Q 2938 331 2570 128 
Q 2203 -75 1769 -75 
Q 1072 -75 642 372 
Q 213 819 213 1659 
z
M 791 1659 
Q 791 1022 1069 705 
Q 1347 388 1769 388 
Q 2188 388 2466 706 
Q 2744 1025 2744 1678 
Q 2744 2294 2464 2611 
Q 2184 2928 1769 2928 
Q 1347 2928 1069 2612 
Q 791 2297 791 1659 
z
" transform="scale(0.015625)"/>
      <path id="ArialMT-73" d="M 197 991 
L 753 1078 
Q 800 744 1014 566 
Q 1228 388 1613 388 
Q 2000 388 2187 545 
Q 2375 703 2375 916 
Q 2375 1106 2209 1216 
Q 2094 1291 1634 1406 
Q 1016 1563 777 1677 
Q 538 1791 414 1992 
Q 291 2194 291 2438 
Q 291 2659 392 2848 
Q 494 3038 669 3163 
Q 800 3259 1026 3326 
Q 1253 3394 1513 3394 
Q 1903 3394 2198 3281 
Q 2494 3169 2634 2976 
Q 2775 2784 2828 2463 
L 2278 2388 
Q 2241 2644 2061 2787 
Q 1881 2931 1553 2931 
Q 1166 2931 1000 2803 
Q 834 2675 834 2503 
Q 834 2394 903 2306 
Q 972 2216 1119 2156 
Q 1203 2125 1616 2013 
Q 2213 1853 2448 1751 
Q 2684 1650 2818 1456 
Q 2953 1263 2953 975 
Q 2953 694 2789 445 
Q 2625 197 2315 61 
Q 2006 -75 1616 -75 
Q 969 -75 630 194 
Q 291 463 197 991 
z
" transform="scale(0.015625)"/>
      <path id="ArialMT-2d" d="M 203 1375 
L 203 1941 
L 1931 1941 
L 1931 1375 
L 203 1375 
z
" transform="scale(0.015625)"/>
      <path id="ArialMT-50" d="M 494 0 
L 494 4581 
L 2222 4581 
Q 2678 4581 2919 4538 
Q 3256 4481 3484 4323 
Q 3713 4166 3852 3881 
Q 3991 3597 3991 3256 
Q 3991 2672 3619 2267 
Q 3247 1863 2275 1863 
L 1100 1863 
L 1100 0 
L 494 0 
z
M 1100 2403 
L 2284 2403 
Q 2872 2403 3119 2622 
Q 3366 2841 3366 3238 
Q 3366 3525 3220 3729 
Q 3075 3934 2838 4000 
Q 2684 4041 2272 4041 
L 1100 4041 
L 1100 2403 
z
" transform="scale(0.015625)"/>
      <path id="ArialMT-77" d="M 1034 0 
L 19 3319 
L 600 3319 
L 1128 1403 
L 1325 691 
Q 1338 744 1497 1375 
L 2025 3319 
L 2603 3319 
L 3100 1394 
L 3266 759 
L 3456 1400 
L 4025 3319 
L 4572 3319 
L 3534 0 
L 2950 0 
L 2422 1988 
L 2294 2553 
L 1622 0 
L 1034 0 
z
" transform="scale(0.015625)"/>
      <path id="ArialMT-6d" d="M 422 0 
L 422 3319 
L 925 3319 
L 925 2853 
Q 1081 3097 1340 3245 
Q 1600 3394 1931 3394 
Q 2300 3394 2536 3241 
Q 2772 3088 2869 2813 
Q 3263 3394 3894 3394 
Q 4388 3394 4653 3120 
Q 4919 2847 4919 2278 
L 4919 0 
L 4359 0 
L 4359 2091 
Q 4359 2428 4304 2576 
Q 4250 2725 4106 2815 
Q 3963 2906 3769 2906 
Q 3419 2906 3187 2673 
Q 2956 2441 2956 1928 
L 2956 0 
L 2394 0 
L 2394 2156 
Q 2394 2531 2256 2718 
Q 2119 2906 1806 2906 
Q 1569 2906 1367 2781 
Q 1166 2656 1075 2415 
Q 984 2175 984 1722 
L 984 0 
L 422 0 
z
" transform="scale(0.015625)"/>
     </defs>
     <use xlink:href="#ArialMT-70"/>
     <use xlink:href="#ArialMT-61" x="55.615234"/>
     <use xlink:href="#ArialMT-74" x="111.230469"/>
     <use xlink:href="#ArialMT-69" x="139.013672"/>
     <use xlink:href="#ArialMT-65" x="161.230469"/>
     <use xlink:href="#ArialMT-6e" x="216.845703"/>
     <use xlink:href="#ArialMT-74" x="272.460938"/>
     <use xlink:href="#ArialMT-30" x="300.244141"/>
     <use xlink:href="#ArialMT-36" x="355.859375"/>
     <use xlink:href="#ArialMT-5f" x="411.474609"/>
     <use xlink:href="#ArialMT-61" x="467.089844"/>
     <use xlink:href="#ArialMT-70" x="522.705078"/>
     <use xlink:href="#ArialMT-70" x="578.320312"/>
     <use xlink:href="#ArialMT-5f" x="633.935547"/>
     <use xlink:href="#ArialMT-70" x="689.550781"/>
     <use xlink:href="#ArialMT-6f" x="745.166016"/>
     <use xlink:href="#ArialMT-73" x="800.78125"/>
     <use xlink:href="#ArialMT-74" x="850.78125"/>
     <use xlink:href="#ArialMT-30" x="878.564453"/>
     <use xlink:href="#ArialMT-31" x="934.179688"/>
     <use xlink:href="#ArialMT-20" x="989.794922"/>
     <use xlink:href="#ArialMT-2d" x="1017.578125"/>
     <use xlink:href="#ArialMT-20" x="1050.878906"/>
     <use xlink:href="#ArialMT-50" x="1078.662109"/>
     <use xlink:href="#ArialMT-6f" x="1145.361328"/>
     <use xlink:href="#ArialMT-77" x="1200.976562"/>
     <use xlink:href="#ArialMT-65" x="1273.193359"/>
     <use xlink:href="#ArialMT-72" x="1328.808594"/>
     <use xlink:href="#ArialMT-20" x="1362.109375"/>
     <use xlink:href="#ArialMT-73" x="1389.892578"/>
     <use xlink:href="#ArialMT-70" x="1439.892578"/>
     <use xlink:href="#ArialMT-65" x="1495.507812"/>
     <use xlink:href="#ArialMT-63" x="1551.123047"/>
     <use xlink:href="#ArialMT-74" x="1601.123047"/>
     <use xlink:href="#ArialMT-72" x="1628.90625"/>
     <use xlink:href="#ArialMT-75" x="1662.207031"/>
     <use xlink:href="#ArialMT-6d" x="1717.822266"/>
    </g>
   </g>
   <g id="legend_1">
    <g id="patch_7">
     <path d="M 313.503281 152.278906 
L 381.1 152.278906 
Q 383.3 152.278906 383.3 150.078906 
L 383.3 42.26 
Q 383.3 40.06 381.1 40.06 
L 313.503281 40.06 
Q 311.303281 40.06 311.303281 42.26 
L 311.303281 150.078906 
Q 311.303281 152.278906 313.503281 152.278906 
z
" style="fill: #ffffff; opacity: 0.8; stroke: #cccccc; stroke-linejoin: miter"/>
    </g>
    <g id="line2d_19">
     <path d="M 315.703281 48.483594 
L 326.703281 48.483594 
L 337.703281 48.483594 
" style="fill: none; stroke: #4c72b0; stroke-opacity: 0.3; stroke-width: 1.5; stroke-linecap: round"/>
    </g>
    <g id="text_14">
     <!-- IMU9 -->
     <g style="fill: #262626" transform="translate(346.503281 52.333594)scale(0.11 -0.11)">
      <defs>
       <path id="ArialMT-49" d="M 597 0 
L 597 4581 
L 1203 4581 
L 1203 0 
L 597 0 
z
" transform="scale(0.015625)"/>
       <path id="ArialMT-4d" d="M 475 0 
L 475 4581 
L 1388 4581 
L 2472 1338 
Q 2622 884 2691 659 
Q 2769 909 2934 1394 
L 4031 4581 
L 4847 4581 
L 4847 0 
L 4263 0 
L 4263 3834 
L 2931 0 
L 2384 0 
L 1059 3900 
L 1059 0 
L 475 0 
z
" transform="scale(0.015625)"/>
       <path id="ArialMT-55" d="M 3500 4581 
L 4106 4581 
L 4106 1934 
Q 4106 1244 3950 837 
Q 3794 431 3386 176 
Q 2978 -78 2316 -78 
Q 1672 -78 1262 144 
Q 853 366 678 786 
Q 503 1206 503 1934 
L 503 4581 
L 1109 4581 
L 1109 1938 
Q 1109 1341 1220 1058 
Q 1331 775 1601 622 
Q 1872 469 2263 469 
Q 2931 469 3215 772 
Q 3500 1075 3500 1938 
L 3500 4581 
z
" transform="scale(0.015625)"/>
       <path id="ArialMT-39" d="M 350 1059 
L 891 1109 
Q 959 728 1153 556 
Q 1347 384 1650 384 
Q 1909 384 2104 503 
Q 2300 622 2425 820 
Q 2550 1019 2634 1356 
Q 2719 1694 2719 2044 
Q 2719 2081 2716 2156 
Q 2547 1888 2255 1720 
Q 1963 1553 1622 1553 
Q 1053 1553 659 1965 
Q 266 2378 266 3053 
Q 266 3750 677 4175 
Q 1088 4600 1706 4600 
Q 2153 4600 2523 4359 
Q 2894 4119 3086 3673 
Q 3278 3228 3278 2384 
Q 3278 1506 3087 986 
Q 2897 466 2520 194 
Q 2144 -78 1638 -78 
Q 1100 -78 759 220 
Q 419 519 350 1059 
z
M 2653 3081 
Q 2653 3566 2395 3850 
Q 2138 4134 1775 4134 
Q 1400 4134 1122 3828 
Q 844 3522 844 3034 
Q 844 2597 1108 2323 
Q 1372 2050 1759 2050 
Q 2150 2050 2401 2323 
Q 2653 2597 2653 3081 
z
" transform="scale(0.015625)"/>
      </defs>
      <use xlink:href="#ArialMT-49"/>
      <use xlink:href="#ArialMT-4d" x="27.783203"/>
      <use xlink:href="#ArialMT-55" x="111.083984"/>
      <use xlink:href="#ArialMT-39" x="183.300781"/>
     </g>
    </g>
    <g id="line2d_20">
     <path d="M 315.703281 64.043438 
L 326.703281 64.043438 
L 337.703281 64.043438 
" style="fill: none; stroke: #dd8452; stroke-opacity: 0.3; stroke-width: 1.5; stroke-linecap: round"/>
    </g>
    <g id="text_15">
     <!-- IMU10 -->
     <g style="fill: #262626" transform="translate(346.503281 67.893438)scale(0.11 -0.11)">
      <use xlink:href="#ArialMT-49"/>
      <use xlink:href="#ArialMT-4d" x="27.783203"/>
      <use xlink:href="#ArialMT-55" x="111.083984"/>
      <use xlink:href="#ArialMT-31" x="183.300781"/>
      <use xlink:href="#ArialMT-30" x="238.916016"/>
     </g>
    </g>
    <g id="line2d_21">
     <path d="M 315.703281 79.603281 
L 326.703281 79.603281 
L 337.703281 79.603281 
" style="fill: none; stroke: #55a868; stroke-opacity: 0.3; stroke-width: 1.5; stroke-linecap: round"/>
    </g>
    <g id="text_16">
     <!-- IMU11 -->
     <g style="fill: #262626" transform="translate(346.503281 83.453281)scale(0.11 -0.11)">
      <use xlink:href="#ArialMT-49"/>
      <use xlink:href="#ArialMT-4d" x="27.783203"/>
      <use xlink:href="#ArialMT-55" x="111.083984"/>
      <use xlink:href="#ArialMT-31" x="183.300781"/>
      <use xlink:href="#ArialMT-31" x="231.541016"/>
     </g>
    </g>
    <g id="line2d_22">
     <path d="M 315.703281 95.163125 
L 326.703281 95.163125 
L 337.703281 95.163125 
" style="fill: none; stroke: #c44e52; stroke-opacity: 0.3; stroke-width: 1.5; stroke-linecap: round"/>
    </g>
    <g id="text_17">
     <!-- IMU12 -->
     <g style="fill: #262626" transform="translate(346.503281 99.013125)scale(0.11 -0.11)">
      <use xlink:href="#ArialMT-49"/>
      <use xlink:href="#ArialMT-4d" x="27.783203"/>
      <use xlink:href="#ArialMT-55" x="111.083984"/>
      <use xlink:href="#ArialMT-31" x="183.300781"/>
      <use xlink:href="#ArialMT-32" x="238.916016"/>
     </g>
    </g>
    <g id="line2d_23">
     <path d="M 315.703281 110.722969 
L 326.703281 110.722969 
L 337.703281 110.722969 
" style="fill: none; stroke: #8172b3; stroke-opacity: 0.3; stroke-width: 1.5; stroke-linecap: round"/>
    </g>
    <g id="text_18">
     <!-- IMU13 -->
     <g style="fill: #262626" transform="translate(346.503281 114.572969)scale(0.11 -0.11)">
      <defs>
       <path id="ArialMT-33" d="M 269 1209 
L 831 1284 
Q 928 806 1161 595 
Q 1394 384 1728 384 
Q 2125 384 2398 659 
Q 2672 934 2672 1341 
Q 2672 1728 2419 1979 
Q 2166 2231 1775 2231 
Q 1616 2231 1378 2169 
L 1441 2663 
Q 1497 2656 1531 2656 
Q 1891 2656 2178 2843 
Q 2466 3031 2466 3422 
Q 2466 3731 2256 3934 
Q 2047 4138 1716 4138 
Q 1388 4138 1169 3931 
Q 950 3725 888 3313 
L 325 3413 
Q 428 3978 793 4289 
Q 1159 4600 1703 4600 
Q 2078 4600 2393 4439 
Q 2709 4278 2876 4000 
Q 3044 3722 3044 3409 
Q 3044 3113 2884 2869 
Q 2725 2625 2413 2481 
Q 2819 2388 3044 2092 
Q 3269 1797 3269 1353 
Q 3269 753 2831 336 
Q 2394 -81 1725 -81 
Q 1122 -81 723 278 
Q 325 638 269 1209 
z
" transform="scale(0.015625)"/>
      </defs>
      <use xlink:href="#ArialMT-49"/>
      <use xlink:href="#ArialMT-4d" x="27.783203"/>
      <use xlink:href="#ArialMT-55" x="111.083984"/>
      <use xlink:href="#ArialMT-31" x="183.300781"/>
      <use xlink:href="#ArialMT-33" x="238.916016"/>
     </g>
    </g>
    <g id="line2d_24">
     <path d="M 315.703281 126.282813 
L 326.703281 126.282813 
L 337.703281 126.282813 
" style="fill: none; stroke: #937860; stroke-opacity: 0.3; stroke-width: 1.5; stroke-linecap: round"/>
    </g>
    <g id="text_19">
     <!-- IMU14 -->
     <g style="fill: #262626" transform="translate(346.503281 130.132812)scale(0.11 -0.11)">
      <defs>
       <path id="ArialMT-34" d="M 2069 0 
L 2069 1097 
L 81 1097 
L 81 1613 
L 2172 4581 
L 2631 4581 
L 2631 1613 
L 3250 1613 
L 3250 1097 
L 2631 1097 
L 2631 0 
L 2069 0 
z
M 2069 1613 
L 2069 3678 
L 634 1613 
L 2069 1613 
z
" transform="scale(0.015625)"/>
      </defs>
      <use xlink:href="#ArialMT-49"/>
      <use xlink:href="#ArialMT-4d" x="27.783203"/>
      <use xlink:href="#ArialMT-55" x="111.083984"/>
      <use xlink:href="#ArialMT-31" x="183.300781"/>
      <use xlink:href="#ArialMT-34" x="238.916016"/>
     </g>
    </g>
    <g id="line2d_25">
     <path d="M 315.703281 141.842656 
L 326.703281 141.842656 
L 337.703281 141.842656 
" style="fill: none; stroke: #da8bc3; stroke-opacity: 0.3; stroke-width: 1.5; stroke-linecap: round"/>
    </g>
    <g id="text_20">
     <!-- IMU15 -->
     <g style="fill: #262626" transform="translate(346.503281 145.692656)scale(0.11 -0.11)">
      <use xlink:href="#ArialMT-49"/>
      <use xlink:href="#ArialMT-4d" x="27.783203"/>
      <use xlink:href="#ArialMT-55" x="111.083984"/>
      <use xlink:href="#ArialMT-31" x="183.300781"/>
      <use xlink:href="#ArialMT-35" x="238.916016"/>
     </g>
    </g>
   </g>
  </g>
 </g>
 <defs>
  <clipPath id="p5fd167e0a7">
   <rect x="54" y="34.56" width="334.8" height="217.44"/>
  </clipPath>
 </defs>
</svg>
