<?xml version="1.0" encoding="utf-8" standalone="no"?>
<!DOCTYPE svg PUBLIC "-//W3C//DTD SVG 1.1//EN"
  "http://www.w3.org/Graphics/SVG/1.1/DTD/svg11.dtd">
<svg xmlns:xlink="http://www.w3.org/1999/xlink" width="432pt" height="288pt" viewBox="0 0 432 288" xmlns="http://www.w3.org/2000/svg" version="1.1">
 <metadata>
  <rdf:RDF xmlns:dc="http://purl.org/dc/elements/1.1/" xmlns:cc="http://creativecommons.org/ns#" xmlns:rdf="http://www.w3.org/1999/02/22-rdf-syntax-ns#">
   <cc:Work>
    <dc:type rdf:resource="http://purl.org/dc/dcmitype/StillImage"/>
    <dc:date>2022-07-08T13:57:56.096590</dc:date>
    <dc:format>image/svg+xml</dc:format>
    <dc:creator>
     <cc:Agent>
      <dc:title>Matplotlib v3.5.1, https://matplotlib.org/</dc:title>
     </cc:Agent>
    </dc:creator>
   </cc:Work>
  </rdf:RDF>
 </metadata>
 <defs>
  <style type="text/css">*{stroke-linejoin: round; stroke-linecap: butt}</style>
 </defs>
 <g id="figure_1">
  <g id="patch_1">
   <path d="M 0 288 
L 432 288 
L 432 0 
L 0 0 
z
" style="fill: #ffffff"/>
  </g>
  <g id="axes_1">
   <g id="patch_2">
    <path d="M 54 252 
L 388.8 252 
L 388.8 34.56 
L 54 34.56 
z
" style="fill: #ffffff"/>
   </g>
   <g id="matplotlib.axis_1">
    <g id="xtick_1">
     <g id="line2d_1">
      <defs>
       <path id="me3cf8b8769" d="M 0 0 
L 0 6 
" style="stroke: #262626; stroke-width: 1.25"/>
      </defs>
      <g>
       <use xlink:href="#me3cf8b8769" x="54" y="252" style="fill: #262626; stroke: #262626; stroke-width: 1.25"/>
      </g>
     </g>
     <g id="text_1">
      <!-- 0 -->
      <g style="fill: #262626" transform="translate(50.941484 269.373594)scale(0.11 -0.11)">
       <defs>
        <path id="ArialMT-30" d="M 266 2259 
Q 266 3072 433 3567 
Q 600 4063 929 4331 
Q 1259 4600 1759 4600 
Q 2128 4600 2406 4451 
Q 2684 4303 2865 4023 
Q 3047 3744 3150 3342 
Q 3253 2941 3253 2259 
Q 3253 1453 3087 958 
Q 2922 463 2592 192 
Q 2263 -78 1759 -78 
Q 1097 -78 719 397 
Q 266 969 266 2259 
z
M 844 2259 
Q 844 1131 1108 757 
Q 1372 384 1759 384 
Q 2147 384 2411 759 
Q 2675 1134 2675 2259 
Q 2675 3391 2411 3762 
Q 2147 4134 1753 4134 
Q 1366 4134 1134 3806 
Q 844 3388 844 2259 
z
" transform="scale(0.015625)"/>
       </defs>
       <use xlink:href="#ArialMT-30"/>
      </g>
     </g>
    </g>
    <g id="xtick_2">
     <g id="line2d_2">
      <g>
       <use xlink:href="#me3cf8b8769" x="120.96" y="252" style="fill: #262626; stroke: #262626; stroke-width: 1.25"/>
      </g>
     </g>
     <g id="text_2">
      <!-- 5 -->
      <g style="fill: #262626" transform="translate(117.901484 269.373594)scale(0.11 -0.11)">
       <defs>
        <path id="ArialMT-35" d="M 266 1200 
L 856 1250 
Q 922 819 1161 601 
Q 1400 384 1738 384 
Q 2144 384 2425 690 
Q 2706 997 2706 1503 
Q 2706 1984 2436 2262 
Q 2166 2541 1728 2541 
Q 1456 2541 1237 2417 
Q 1019 2294 894 2097 
L 366 2166 
L 809 4519 
L 3088 4519 
L 3088 3981 
L 1259 3981 
L 1013 2750 
Q 1425 3038 1878 3038 
Q 2478 3038 2890 2622 
Q 3303 2206 3303 1553 
Q 3303 931 2941 478 
Q 2500 -78 1738 -78 
Q 1113 -78 717 272 
Q 322 622 266 1200 
z
" transform="scale(0.015625)"/>
       </defs>
       <use xlink:href="#ArialMT-35"/>
      </g>
     </g>
    </g>
    <g id="xtick_3">
     <g id="line2d_3">
      <g>
       <use xlink:href="#me3cf8b8769" x="187.92" y="252" style="fill: #262626; stroke: #262626; stroke-width: 1.25"/>
      </g>
     </g>
     <g id="text_3">
      <!-- 10 -->
      <g style="fill: #262626" transform="translate(181.802969 269.373594)scale(0.11 -0.11)">
       <defs>
        <path id="ArialMT-31" d="M 2384 0 
L 1822 0 
L 1822 3584 
Q 1619 3391 1289 3197 
Q 959 3003 697 2906 
L 697 3450 
Q 1169 3672 1522 3987 
Q 1875 4303 2022 4600 
L 2384 4600 
L 2384 0 
z
" transform="scale(0.015625)"/>
       </defs>
       <use xlink:href="#ArialMT-31"/>
       <use xlink:href="#ArialMT-30" x="55.615234"/>
      </g>
     </g>
    </g>
    <g id="xtick_4">
     <g id="line2d_4">
      <g>
       <use xlink:href="#me3cf8b8769" x="254.88" y="252" style="fill: #262626; stroke: #262626; stroke-width: 1.25"/>
      </g>
     </g>
     <g id="text_4">
      <!-- 15 -->
      <g style="fill: #262626" transform="translate(248.762969 269.373594)scale(0.11 -0.11)">
       <use xlink:href="#ArialMT-31"/>
       <use xlink:href="#ArialMT-35" x="55.615234"/>
      </g>
     </g>
    </g>
    <g id="xtick_5">
     <g id="line2d_5">
      <g>
       <use xlink:href="#me3cf8b8769" x="321.84" y="252" style="fill: #262626; stroke: #262626; stroke-width: 1.25"/>
      </g>
     </g>
     <g id="text_5">
      <!-- 20 -->
      <g style="fill: #262626" transform="translate(315.722969 269.373594)scale(0.11 -0.11)">
       <defs>
        <path id="ArialMT-32" d="M 3222 541 
L 3222 0 
L 194 0 
Q 188 203 259 391 
Q 375 700 629 1000 
Q 884 1300 1366 1694 
Q 2113 2306 2375 2664 
Q 2638 3022 2638 3341 
Q 2638 3675 2398 3904 
Q 2159 4134 1775 4134 
Q 1369 4134 1125 3890 
Q 881 3647 878 3216 
L 300 3275 
Q 359 3922 746 4261 
Q 1134 4600 1788 4600 
Q 2447 4600 2831 4234 
Q 3216 3869 3216 3328 
Q 3216 3053 3103 2787 
Q 2991 2522 2730 2228 
Q 2469 1934 1863 1422 
Q 1356 997 1212 845 
Q 1069 694 975 541 
L 3222 541 
z
" transform="scale(0.015625)"/>
       </defs>
       <use xlink:href="#ArialMT-32"/>
       <use xlink:href="#ArialMT-30" x="55.615234"/>
      </g>
     </g>
    </g>
    <g id="xtick_6">
     <g id="line2d_6">
      <g>
       <use xlink:href="#me3cf8b8769" x="388.8" y="252" style="fill: #262626; stroke: #262626; stroke-width: 1.25"/>
      </g>
     </g>
     <g id="text_6">
      <!-- 25 -->
      <g style="fill: #262626" transform="translate(382.682969 269.373594)scale(0.11 -0.11)">
       <use xlink:href="#ArialMT-32"/>
       <use xlink:href="#ArialMT-35" x="55.615234"/>
      </g>
     </g>
    </g>
    <g id="text_7">
     <!-- Frequency (Hz) -->
     <g style="fill: #262626" transform="translate(180.059063 284.295469)scale(0.12 -0.12)">
      <defs>
       <path id="ArialMT-46" d="M 525 0 
L 525 4581 
L 3616 4581 
L 3616 4041 
L 1131 4041 
L 1131 2622 
L 3281 2622 
L 3281 2081 
L 1131 2081 
L 1131 0 
L 525 0 
z
" transform="scale(0.015625)"/>
       <path id="ArialMT-72" d="M 416 0 
L 416 3319 
L 922 3319 
L 922 2816 
Q 1116 3169 1280 3281 
Q 1444 3394 1641 3394 
Q 1925 3394 2219 3213 
L 2025 2691 
Q 1819 2813 1613 2813 
Q 1428 2813 1281 2702 
Q 1134 2591 1072 2394 
Q 978 2094 978 1738 
L 978 0 
L 416 0 
z
" transform="scale(0.015625)"/>
       <path id="ArialMT-65" d="M 2694 1069 
L 3275 997 
Q 3138 488 2766 206 
Q 2394 -75 1816 -75 
Q 1088 -75 661 373 
Q 234 822 234 1631 
Q 234 2469 665 2931 
Q 1097 3394 1784 3394 
Q 2450 3394 2872 2941 
Q 3294 2488 3294 1666 
Q 3294 1616 3291 1516 
L 816 1516 
Q 847 969 1125 678 
Q 1403 388 1819 388 
Q 2128 388 2347 550 
Q 2566 713 2694 1069 
z
M 847 1978 
L 2700 1978 
Q 2663 2397 2488 2606 
Q 2219 2931 1791 2931 
Q 1403 2931 1139 2672 
Q 875 2413 847 1978 
z
" transform="scale(0.015625)"/>
       <path id="ArialMT-71" d="M 2538 -1272 
L 2538 353 
Q 2406 169 2170 47 
Q 1934 -75 1669 -75 
Q 1078 -75 651 397 
Q 225 869 225 1691 
Q 225 2191 398 2587 
Q 572 2984 901 3189 
Q 1231 3394 1625 3394 
Q 2241 3394 2594 2875 
L 2594 3319 
L 3100 3319 
L 3100 -1272 
L 2538 -1272 
z
M 803 1669 
Q 803 1028 1072 708 
Q 1341 388 1716 388 
Q 2075 388 2334 692 
Q 2594 997 2594 1619 
Q 2594 2281 2320 2615 
Q 2047 2950 1678 2950 
Q 1313 2950 1058 2639 
Q 803 2328 803 1669 
z
" transform="scale(0.015625)"/>
       <path id="ArialMT-75" d="M 2597 0 
L 2597 488 
Q 2209 -75 1544 -75 
Q 1250 -75 995 37 
Q 741 150 617 320 
Q 494 491 444 738 
Q 409 903 409 1263 
L 409 3319 
L 972 3319 
L 972 1478 
Q 972 1038 1006 884 
Q 1059 663 1231 536 
Q 1403 409 1656 409 
Q 1909 409 2131 539 
Q 2353 669 2445 892 
Q 2538 1116 2538 1541 
L 2538 3319 
L 3100 3319 
L 3100 0 
L 2597 0 
z
" transform="scale(0.015625)"/>
       <path id="ArialMT-6e" d="M 422 0 
L 422 3319 
L 928 3319 
L 928 2847 
Q 1294 3394 1984 3394 
Q 2284 3394 2536 3286 
Q 2788 3178 2913 3003 
Q 3038 2828 3088 2588 
Q 3119 2431 3119 2041 
L 3119 0 
L 2556 0 
L 2556 2019 
Q 2556 2363 2490 2533 
Q 2425 2703 2258 2804 
Q 2091 2906 1866 2906 
Q 1506 2906 1245 2678 
Q 984 2450 984 1813 
L 984 0 
L 422 0 
z
" transform="scale(0.015625)"/>
       <path id="ArialMT-63" d="M 2588 1216 
L 3141 1144 
Q 3050 572 2676 248 
Q 2303 -75 1759 -75 
Q 1078 -75 664 370 
Q 250 816 250 1647 
Q 250 2184 428 2587 
Q 606 2991 970 3192 
Q 1334 3394 1763 3394 
Q 2303 3394 2647 3120 
Q 2991 2847 3088 2344 
L 2541 2259 
Q 2463 2594 2264 2762 
Q 2066 2931 1784 2931 
Q 1359 2931 1093 2626 
Q 828 2322 828 1663 
Q 828 994 1084 691 
Q 1341 388 1753 388 
Q 2084 388 2306 591 
Q 2528 794 2588 1216 
z
" transform="scale(0.015625)"/>
       <path id="ArialMT-79" d="M 397 -1278 
L 334 -750 
Q 519 -800 656 -800 
Q 844 -800 956 -737 
Q 1069 -675 1141 -563 
Q 1194 -478 1313 -144 
Q 1328 -97 1363 -6 
L 103 3319 
L 709 3319 
L 1400 1397 
Q 1534 1031 1641 628 
Q 1738 1016 1872 1384 
L 2581 3319 
L 3144 3319 
L 1881 -56 
Q 1678 -603 1566 -809 
Q 1416 -1088 1222 -1217 
Q 1028 -1347 759 -1347 
Q 597 -1347 397 -1278 
z
" transform="scale(0.015625)"/>
       <path id="ArialMT-20" transform="scale(0.015625)"/>
       <path id="ArialMT-28" d="M 1497 -1347 
Q 1031 -759 709 28 
Q 388 816 388 1659 
Q 388 2403 628 3084 
Q 909 3875 1497 4659 
L 1900 4659 
Q 1522 4009 1400 3731 
Q 1209 3300 1100 2831 
Q 966 2247 966 1656 
Q 966 153 1900 -1347 
L 1497 -1347 
z
" transform="scale(0.015625)"/>
       <path id="ArialMT-48" d="M 513 0 
L 513 4581 
L 1119 4581 
L 1119 2700 
L 3500 2700 
L 3500 4581 
L 4106 4581 
L 4106 0 
L 3500 0 
L 3500 2159 
L 1119 2159 
L 1119 0 
L 513 0 
z
" transform="scale(0.015625)"/>
       <path id="ArialMT-7a" d="M 125 0 
L 125 456 
L 2238 2881 
Q 1878 2863 1603 2863 
L 250 2863 
L 250 3319 
L 2963 3319 
L 2963 2947 
L 1166 841 
L 819 456 
Q 1197 484 1528 484 
L 3063 484 
L 3063 0 
L 125 0 
z
" transform="scale(0.015625)"/>
       <path id="ArialMT-29" d="M 791 -1347 
L 388 -1347 
Q 1322 153 1322 1656 
Q 1322 2244 1188 2822 
Q 1081 3291 891 3722 
Q 769 4003 388 4659 
L 791 4659 
Q 1378 3875 1659 3084 
Q 1900 2403 1900 1659 
Q 1900 816 1576 28 
Q 1253 -759 791 -1347 
z
" transform="scale(0.015625)"/>
      </defs>
      <use xlink:href="#ArialMT-46"/>
      <use xlink:href="#ArialMT-72" x="61.083984"/>
      <use xlink:href="#ArialMT-65" x="94.384766"/>
      <use xlink:href="#ArialMT-71" x="150"/>
      <use xlink:href="#ArialMT-75" x="205.615234"/>
      <use xlink:href="#ArialMT-65" x="261.230469"/>
      <use xlink:href="#ArialMT-6e" x="316.845703"/>
      <use xlink:href="#ArialMT-63" x="372.460938"/>
      <use xlink:href="#ArialMT-79" x="422.460938"/>
      <use xlink:href="#ArialMT-20" x="472.460938"/>
      <use xlink:href="#ArialMT-28" x="500.244141"/>
      <use xlink:href="#ArialMT-48" x="533.544922"/>
      <use xlink:href="#ArialMT-7a" x="605.761719"/>
      <use xlink:href="#ArialMT-29" x="655.761719"/>
     </g>
    </g>
   </g>
   <g id="matplotlib.axis_2">
    <g id="ytick_1">
     <g id="line2d_7">
      <defs>
       <path id="m638a1dc7ff" d="M 0 0 
L -6 0 
" style="stroke: #262626; stroke-width: 1.25"/>
      </defs>
      <g>
       <use xlink:href="#m638a1dc7ff" x="54" y="242.116364" style="fill: #262626; stroke: #262626; stroke-width: 1.25"/>
      </g>
     </g>
     <g id="text_8">
      <!-- 0 -->
      <g style="fill: #262626" transform="translate(38.382969 246.053161)scale(0.11 -0.11)">
       <use xlink:href="#ArialMT-30"/>
      </g>
     </g>
    </g>
    <g id="ytick_2">
     <g id="line2d_8">
      <g>
       <use xlink:href="#m638a1dc7ff" x="54" y="196.653697" style="fill: #262626; stroke: #262626; stroke-width: 1.25"/>
      </g>
     </g>
     <g id="text_9">
      <!-- 20000 -->
      <g style="fill: #262626" transform="translate(13.914844 200.590494)scale(0.11 -0.11)">
       <use xlink:href="#ArialMT-32"/>
       <use xlink:href="#ArialMT-30" x="55.615234"/>
       <use xlink:href="#ArialMT-30" x="111.230469"/>
       <use xlink:href="#ArialMT-30" x="166.845703"/>
       <use xlink:href="#ArialMT-30" x="222.460938"/>
      </g>
     </g>
    </g>
    <g id="ytick_3">
     <g id="line2d_9">
      <g>
       <use xlink:href="#m638a1dc7ff" x="54" y="151.191031" style="fill: #262626; stroke: #262626; stroke-width: 1.25"/>
      </g>
     </g>
     <g id="text_10">
      <!-- 40000 -->
      <g style="fill: #262626" transform="translate(13.914844 155.127827)scale(0.11 -0.11)">
       <defs>
        <path id="ArialMT-34" d="M 2069 0 
L 2069 1097 
L 81 1097 
L 81 1613 
L 2172 4581 
L 2631 4581 
L 2631 1613 
L 3250 1613 
L 3250 1097 
L 2631 1097 
L 2631 0 
L 2069 0 
z
M 2069 1613 
L 2069 3678 
L 634 1613 
L 2069 1613 
z
" transform="scale(0.015625)"/>
       </defs>
       <use xlink:href="#ArialMT-34"/>
       <use xlink:href="#ArialMT-30" x="55.615234"/>
       <use xlink:href="#ArialMT-30" x="111.230469"/>
       <use xlink:href="#ArialMT-30" x="166.845703"/>
       <use xlink:href="#ArialMT-30" x="222.460938"/>
      </g>
     </g>
    </g>
    <g id="ytick_4">
     <g id="line2d_10">
      <g>
       <use xlink:href="#m638a1dc7ff" x="54" y="105.728364" style="fill: #262626; stroke: #262626; stroke-width: 1.25"/>
      </g>
     </g>
     <g id="text_11">
      <!-- 60000 -->
      <g style="fill: #262626" transform="translate(13.914844 109.665161)scale(0.11 -0.11)">
       <defs>
        <path id="ArialMT-36" d="M 3184 3459 
L 2625 3416 
Q 2550 3747 2413 3897 
Q 2184 4138 1850 4138 
Q 1581 4138 1378 3988 
Q 1113 3794 959 3422 
Q 806 3050 800 2363 
Q 1003 2672 1297 2822 
Q 1591 2972 1913 2972 
Q 2475 2972 2870 2558 
Q 3266 2144 3266 1488 
Q 3266 1056 3080 686 
Q 2894 316 2569 119 
Q 2244 -78 1831 -78 
Q 1128 -78 684 439 
Q 241 956 241 2144 
Q 241 3472 731 4075 
Q 1159 4600 1884 4600 
Q 2425 4600 2770 4297 
Q 3116 3994 3184 3459 
z
M 888 1484 
Q 888 1194 1011 928 
Q 1134 663 1356 523 
Q 1578 384 1822 384 
Q 2178 384 2434 671 
Q 2691 959 2691 1453 
Q 2691 1928 2437 2201 
Q 2184 2475 1800 2475 
Q 1419 2475 1153 2201 
Q 888 1928 888 1484 
z
" transform="scale(0.015625)"/>
       </defs>
       <use xlink:href="#ArialMT-36"/>
       <use xlink:href="#ArialMT-30" x="55.615234"/>
       <use xlink:href="#ArialMT-30" x="111.230469"/>
       <use xlink:href="#ArialMT-30" x="166.845703"/>
       <use xlink:href="#ArialMT-30" x="222.460938"/>
      </g>
     </g>
    </g>
    <g id="ytick_5">
     <g id="line2d_11">
      <g>
       <use xlink:href="#m638a1dc7ff" x="54" y="60.265698" style="fill: #262626; stroke: #262626; stroke-width: 1.25"/>
      </g>
     </g>
     <g id="text_12">
      <!-- 80000 -->
      <g style="fill: #262626" transform="translate(13.914844 64.202494)scale(0.11 -0.11)">
       <defs>
        <path id="ArialMT-38" d="M 1131 2484 
Q 781 2613 612 2850 
Q 444 3088 444 3419 
Q 444 3919 803 4259 
Q 1163 4600 1759 4600 
Q 2359 4600 2725 4251 
Q 3091 3903 3091 3403 
Q 3091 3084 2923 2848 
Q 2756 2613 2416 2484 
Q 2838 2347 3058 2040 
Q 3278 1734 3278 1309 
Q 3278 722 2862 322 
Q 2447 -78 1769 -78 
Q 1091 -78 675 323 
Q 259 725 259 1325 
Q 259 1772 486 2073 
Q 713 2375 1131 2484 
z
M 1019 3438 
Q 1019 3113 1228 2906 
Q 1438 2700 1772 2700 
Q 2097 2700 2305 2904 
Q 2513 3109 2513 3406 
Q 2513 3716 2298 3927 
Q 2084 4138 1766 4138 
Q 1444 4138 1231 3931 
Q 1019 3725 1019 3438 
z
M 838 1322 
Q 838 1081 952 856 
Q 1066 631 1291 507 
Q 1516 384 1775 384 
Q 2178 384 2440 643 
Q 2703 903 2703 1303 
Q 2703 1709 2433 1975 
Q 2163 2241 1756 2241 
Q 1359 2241 1098 1978 
Q 838 1716 838 1322 
z
" transform="scale(0.015625)"/>
       </defs>
       <use xlink:href="#ArialMT-38"/>
       <use xlink:href="#ArialMT-30" x="55.615234"/>
       <use xlink:href="#ArialMT-30" x="111.230469"/>
       <use xlink:href="#ArialMT-30" x="166.845703"/>
       <use xlink:href="#ArialMT-30" x="222.460938"/>
      </g>
     </g>
    </g>
   </g>
   <g id="line2d_12">
    <path d="M 54 242.116168 
L 175.441945 242.045658 
L 176.693923 241.846786 
L 177.945902 242.013703 
L 180.44986 241.921127 
L 181.701839 241.025987 
L 182.953817 241.979598 
L 186.709754 241.596453 
L 187.961733 242.008367 
L 190.46569 241.668447 
L 191.717669 242.068968 
L 192.969648 241.525346 
L 194.221627 241.117646 
L 195.473605 241.840842 
L 196.725584 241.008045 
L 197.977563 240.731838 
L 199.229542 239.293553 
L 200.481521 242.101156 
L 204.237457 241.986254 
L 205.489436 241.521074 
L 206.741415 240.866237 
L 207.993394 241.660555 
L 209.245372 239.734943 
L 210.497351 240.001084 
L 211.74933 241.031019 
L 213.001309 240.422247 
L 214.253288 241.968918 
L 215.505266 242.101629 
L 216.757245 241.549141 
L 218.009224 239.544043 
L 219.261203 239.310665 
L 220.513182 241.271441 
L 221.76516 240.909648 
L 223.017139 238.105708 
L 224.269118 239.575686 
L 225.521097 241.447095 
L 226.773076 241.07665 
L 228.025055 238.936283 
L 229.277033 241.75089 
L 230.529012 241.764568 
L 234.284949 240.784454 
L 235.536927 241.623586 
L 236.788906 240.4939 
L 238.040885 241.56575 
L 239.292864 241.105678 
L 240.544843 239.603916 
L 241.796821 239.086831 
L 243.0488 240.8834 
L 244.300779 241.436115 
L 245.552758 241.23175 
L 246.804737 241.839736 
L 248.056715 238.842489 
L 249.308694 240.256631 
L 250.560673 241.075389 
L 253.064631 241.932017 
L 254.31661 241.613207 
L 255.568588 237.627323 
L 256.820567 236.977112 
L 258.072546 241.27511 
L 259.324525 229.213834 
L 260.576504 236.415831 
L 261.828482 237.023195 
L 263.080461 234.956336 
L 264.33244 211.092778 
L 265.584419 226.653709 
L 266.836398 240.283702 
L 268.088376 240.596263 
L 269.340355 238.594603 
L 270.592334 240.922777 
L 271.844313 240.547438 
L 273.096292 241.902926 
L 274.34827 239.728202 
L 275.600249 241.903938 
L 276.852228 238.959288 
L 278.104207 239.579869 
L 279.356186 241.110685 
L 280.608165 241.026205 
L 281.860143 240.408622 
L 283.112122 240.41791 
L 284.364101 241.674698 
L 285.61608 241.947711 
L 286.868059 241.406396 
L 288.120037 240.394818 
L 289.372016 241.887004 
L 290.623995 240.951686 
L 291.875974 239.014649 
L 293.127953 241.259951 
L 294.379931 241.712548 
L 295.63191 241.455485 
L 296.883889 241.95312 
L 298.135868 241.596221 
L 299.387847 241.875905 
L 300.639825 241.298054 
L 301.891804 241.492303 
L 303.143783 241.254303 
L 304.395762 242.093808 
L 305.647741 239.754799 
L 306.89972 241.098946 
L 308.151698 241.090299 
L 310.655656 239.986179 
L 311.907635 242.063587 
L 314.411592 241.053046 
L 316.91555 242.099194 
L 318.167529 241.236194 
L 319.419508 240.802529 
L 320.671486 241.905691 
L 321.923465 242.018338 
L 323.175444 241.787972 
L 325.679402 242.116194 
L 329.435338 241.570073 
L 331.939296 241.738284 
L 333.191275 242.080385 
L 335.695232 241.945985 
L 336.947211 241.783855 
L 338.19919 242.101858 
L 339.451169 242.017884 
L 340.703147 242.069964 
L 341.955126 241.923193 
L 343.207105 242.077736 
L 348.21502 241.823619 
L 349.466999 241.993634 
L 350.718978 241.929022 
L 356.978872 242.075756 
L 358.230851 241.76202 
L 359.48283 241.28269 
L 360.734808 241.254096 
L 361.986787 241.824877 
L 363.238766 241.699872 
L 364.490745 241.978953 
L 365.742724 241.806056 
L 366.994702 241.884453 
L 368.246681 241.798402 
L 369.49866 241.848784 
L 370.750639 242.1069 
L 372.002618 241.338221 
L 373.254596 242.087252 
L 377.010533 241.998689 
L 378.262512 242.110176 
L 379.51449 241.968945 
L 380.766469 242.000461 
L 383.270427 241.672834 
L 384.522406 241.975123 
L 385.774385 242.101142 
L 389.530321 242.058803 
L 390.7823 241.824491 
L 392.034279 241.80558 
L 393.286257 242.063006 
L 400.79813 241.972642 
L 404.554067 242.069058 
L 405.806045 241.990845 
L 408.310003 242.100882 
L 410.813961 242.013146 
L 412.06594 241.94287 
L 413.317918 242.082416 
L 422.08177 242.089712 
L 427.089685 241.982762 
L 428.341664 242.107074 
L 432.0976 242.04782 
L 433 242.078184 
M 433 242.116364 
L -1 242.116364 
L -1 242.116364 
" clip-path="url(#pd9521a4d77)" style="fill: none; stroke: #4c72b0; stroke-opacity: 0.3; stroke-width: 1.5; stroke-linecap: round"/>
   </g>
   <g id="line2d_13">
    <path d="M 54 242.116337 
L 184.205796 242.101931 
L 185.457775 241.878382 
L 186.709754 242.084213 
L 189.213711 242.062611 
L 190.46569 242.009714 
L 192.969648 242.108904 
L 194.221627 242.106916 
L 195.473605 241.951057 
L 196.725584 242.037968 
L 197.977563 241.989096 
L 200.481521 240.814103 
L 202.985478 242.093312 
L 204.237457 241.894029 
L 205.489436 242.017909 
L 206.741415 241.761023 
L 207.993394 241.666234 
L 209.245372 242.08209 
L 210.497351 242.069182 
L 213.001309 241.411069 
L 214.253288 241.947272 
L 215.505266 241.962156 
L 216.757245 240.87473 
L 218.009224 242.093427 
L 219.261203 241.733425 
L 220.513182 241.98357 
L 223.017139 241.861901 
L 224.269118 241.51107 
L 225.521097 241.89935 
L 226.773076 241.998823 
L 231.780991 241.734856 
L 233.03297 242.106657 
L 234.284949 241.487307 
L 235.536927 241.687493 
L 236.788906 241.443677 
L 238.040885 241.49621 
L 239.292864 240.063235 
L 241.796821 241.868526 
L 243.0488 241.25993 
L 246.804737 242.080537 
L 248.056715 240.335177 
L 249.308694 237.952047 
L 250.560673 238.286641 
L 251.812652 239.321754 
L 253.064631 240.760699 
L 254.31661 241.25321 
L 255.568588 239.102176 
L 256.820567 240.531597 
L 258.072546 238.971383 
L 259.324525 233.829632 
L 260.576504 219.115774 
L 261.828482 230.208099 
L 263.080461 179.793695 
L 264.33244 207.114535 
L 265.584419 211.393553 
L 266.836398 228.779285 
L 268.088376 230.64116 
L 269.340355 237.436586 
L 270.592334 241.638362 
L 271.844313 240.874564 
L 273.096292 241.985817 
L 274.34827 240.517927 
L 275.600249 241.146513 
L 276.852228 241.4311 
L 278.104207 239.206391 
L 279.356186 238.906349 
L 280.608165 240.354731 
L 281.860143 240.056221 
L 283.112122 240.43593 
L 284.364101 241.441733 
L 286.868059 241.656948 
L 288.120037 241.207199 
L 289.372016 242.041545 
L 291.875974 239.852506 
L 293.127953 241.686659 
L 294.379931 241.609107 
L 295.63191 241.322664 
L 296.883889 242.063983 
L 298.135868 241.879627 
L 299.387847 241.579446 
L 300.639825 241.946852 
L 301.891804 241.93331 
L 303.143783 240.852995 
L 304.395762 242.07395 
L 305.647741 239.419698 
L 306.89972 240.823705 
L 308.151698 241.362808 
L 309.403677 241.509581 
L 310.655656 240.120621 
L 311.907635 241.855007 
L 313.159614 241.954913 
L 314.411592 240.800922 
L 315.663571 240.701421 
L 316.91555 241.865459 
L 318.167529 240.054418 
L 319.419508 240.617185 
L 320.671486 241.995953 
L 321.923465 242.07798 
L 323.175444 241.566172 
L 324.427423 241.977162 
L 325.679402 241.699456 
L 326.93138 241.870465 
L 328.183359 241.584012 
L 329.435338 241.63843 
L 330.687317 241.108497 
L 331.939296 241.41237 
L 333.191275 241.471626 
L 334.443253 241.93609 
L 335.695232 241.261194 
L 336.947211 242.07256 
L 340.703147 241.994879 
L 341.955126 241.526276 
L 343.207105 242.096761 
L 345.711063 241.99122 
L 346.963041 241.811691 
L 348.21502 241.260371 
L 349.466999 241.403372 
L 350.718978 242.033966 
L 355.726893 241.859425 
L 359.48283 240.800042 
L 361.986787 242.032567 
L 363.238766 241.500777 
L 364.490745 241.886277 
L 365.742724 241.134184 
L 366.994702 240.878963 
L 368.246681 241.351575 
L 369.49866 240.870237 
L 370.750639 241.998201 
L 372.002618 240.936047 
L 373.254596 241.97455 
L 375.758554 242.041304 
L 377.010533 241.868404 
L 378.262512 241.978871 
L 380.766469 241.491532 
L 383.270427 242.08931 
L 385.774385 241.719758 
L 387.026363 241.840974 
L 388.278342 241.103018 
L 389.530321 241.913835 
L 390.7823 241.585818 
L 394.538236 242.111078 
L 395.790215 242.086428 
L 397.042194 241.570338 
L 399.546151 241.788859 
L 400.79813 241.436732 
L 402.050109 241.892056 
L 403.302088 241.430898 
L 404.554067 241.863944 
L 407.058024 242.11354 
L 408.310003 241.929388 
L 409.561982 241.986313 
L 410.813961 241.890455 
L 412.06594 242.060816 
L 413.317918 242.087118 
L 415.821876 241.961858 
L 417.073855 242.085363 
L 418.325834 241.500665 
L 420.829791 241.91184 
L 422.08177 241.79594 
L 424.585728 242.075672 
L 425.837706 242.113753 
L 427.089685 241.4635 
L 428.341664 241.762776 
L 430.845622 241.733291 
L 432.0976 241.76853 
L 433 241.919883 
M 433 242.116364 
L -1 242.116364 
L -1 242.116364 
" clip-path="url(#pd9521a4d77)" style="fill: none; stroke: #dd8452; stroke-opacity: 0.3; stroke-width: 1.5; stroke-linecap: round"/>
   </g>
   <g id="line2d_14">
    <path d="M 54 242.116364 
L 433 242.116364 
M 433 242.116364 
L -1 242.116364 
L -1 242.116364 
" clip-path="url(#pd9521a4d77)" style="fill: none; stroke: #55a868; stroke-opacity: 0.3; stroke-width: 1.5; stroke-linecap: round"/>
   </g>
   <g id="line2d_15">
    <path d="M 54 242.114651 
L 176.693923 242.111535 
L 177.945902 241.95533 
L 181.701839 242.034593 
L 182.953817 241.933794 
L 184.205796 241.427826 
L 185.457775 242.019276 
L 186.709754 241.882728 
L 189.213711 241.993585 
L 190.46569 240.434689 
L 191.717669 241.46952 
L 192.969648 241.521933 
L 194.221627 240.280251 
L 195.473605 241.836954 
L 196.725584 241.984799 
L 197.977563 241.629765 
L 200.481521 242.032365 
L 201.7335 241.563371 
L 202.985478 240.912938 
L 204.237457 238.739216 
L 205.489436 241.541148 
L 206.741415 240.900939 
L 207.993394 239.944765 
L 209.245372 240.009413 
L 210.497351 241.030729 
L 211.74933 239.388172 
L 213.001309 240.670107 
L 214.253288 241.20559 
L 215.505266 239.941696 
L 216.757245 238.513197 
L 218.009224 241.134705 
L 219.261203 240.397415 
L 220.513182 239.877939 
L 221.76516 239.087292 
L 223.017139 240.273291 
L 224.269118 240.916051 
L 225.521097 241.7507 
L 226.773076 241.541855 
L 228.025055 240.67042 
L 229.277033 240.909919 
L 230.529012 240.970119 
L 231.780991 241.810689 
L 234.284949 241.513981 
L 235.536927 240.491431 
L 236.788906 241.090197 
L 238.040885 242.003447 
L 239.292864 241.329008 
L 240.544843 237.921822 
L 241.796821 237.986836 
L 243.0488 237.84167 
L 244.300779 240.805616 
L 246.804737 241.346608 
L 248.056715 240.934113 
L 249.308694 242.043969 
L 251.812652 241.652747 
L 253.064631 240.863074 
L 254.31661 240.648218 
L 255.568588 241.354031 
L 256.820567 237.604335 
L 258.072546 240.989889 
L 259.324525 231.526742 
L 260.576504 174.436179 
L 261.828482 44.443636 
L 263.080461 134.182412 
L 264.33244 212.200513 
L 265.584419 229.397761 
L 266.836398 236.378641 
L 268.088376 238.339193 
L 269.340355 237.159177 
L 271.844313 240.437919 
L 273.096292 239.724073 
L 274.34827 240.680932 
L 275.600249 238.494815 
L 276.852228 241.124031 
L 278.104207 237.158632 
L 279.356186 240.102225 
L 280.608165 237.46146 
L 281.860143 235.819878 
L 283.112122 241.817493 
L 284.364101 241.803203 
L 285.61608 240.779595 
L 288.120037 241.433593 
L 289.372016 241.427299 
L 290.623995 242.102503 
L 291.875974 238.812127 
L 293.127953 238.929 
L 294.379931 241.635458 
L 295.63191 241.952002 
L 299.387847 241.020208 
L 300.639825 241.855798 
L 301.891804 240.492541 
L 303.143783 240.225409 
L 305.647741 241.398387 
L 306.89972 241.367158 
L 310.655656 242.05881 
L 311.907635 242.034711 
L 313.159614 241.89187 
L 318.167529 242.021712 
L 319.419508 241.869624 
L 320.671486 241.04801 
L 321.923465 241.245644 
L 323.175444 241.327308 
L 324.427423 240.357231 
L 325.679402 239.984437 
L 326.93138 241.998478 
L 328.183359 241.187859 
L 329.435338 241.735483 
L 330.687317 242.02306 
L 331.939296 241.173843 
L 333.191275 240.128316 
L 334.443253 241.93976 
L 338.19919 242.113122 
L 339.451169 241.754721 
L 340.703147 242.080578 
L 341.955126 241.657753 
L 343.207105 241.752187 
L 344.459084 242.026137 
L 345.711063 241.809432 
L 348.21502 242.091194 
L 349.466999 241.939157 
L 350.718978 241.143783 
L 351.970957 241.888731 
L 353.222935 242.095005 
L 354.474914 241.610076 
L 355.726893 241.933737 
L 356.978872 241.639067 
L 358.230851 240.682537 
L 359.48283 241.992755 
L 360.734808 241.292708 
L 361.986787 241.316869 
L 363.238766 242.062477 
L 364.490745 241.130866 
L 365.742724 242.033012 
L 366.994702 242.091855 
L 368.246681 241.945616 
L 369.49866 241.603599 
L 370.750639 241.820577 
L 372.002618 241.404897 
L 373.254596 241.997662 
L 374.506575 242.01791 
L 375.758554 241.809889 
L 377.010533 241.945993 
L 379.51449 241.768799 
L 382.018448 241.934281 
L 385.774385 241.963539 
L 387.026363 241.575327 
L 388.278342 241.581807 
L 389.530321 241.967301 
L 390.7823 241.567732 
L 392.034279 241.841301 
L 393.286257 241.992506 
L 394.538236 241.983729 
L 395.790215 241.594013 
L 398.294173 241.993166 
L 400.79813 242.098204 
L 402.050109 242.049108 
L 403.302088 242.115831 
L 405.806045 241.948243 
L 407.058024 241.645036 
L 408.310003 241.94967 
L 409.561982 241.516304 
L 410.813961 242.083091 
L 412.06594 241.438116 
L 413.317918 241.922167 
L 414.569897 242.042999 
L 415.821876 241.93177 
L 417.073855 242.112434 
L 418.325834 241.72155 
L 419.577812 241.474123 
L 420.829791 242.008859 
L 422.08177 241.453246 
L 423.333749 241.829965 
L 424.585728 242.053742 
L 425.837706 241.609507 
L 427.089685 242.011361 
L 428.341664 241.759954 
L 429.593643 241.996396 
L 430.845622 241.880756 
L 433 241.886028 
M 433 242.116363 
L -1 242.116363 
L -1 242.116363 
" clip-path="url(#pd9521a4d77)" style="fill: none; stroke: #c44e52; stroke-opacity: 0.3; stroke-width: 1.5; stroke-linecap: round"/>
   </g>
   <g id="line2d_16">
    <path d="M 54 242.115139 
L 166.678093 242.021205 
L 174.189966 241.889727 
L 176.693923 241.969417 
L 177.945902 241.917838 
L 179.197881 241.36708 
L 180.44986 241.797306 
L 181.701839 241.582032 
L 184.205796 241.672986 
L 185.457775 241.361274 
L 189.213711 242.077977 
L 191.717669 241.914954 
L 192.969648 241.620172 
L 194.221627 241.537823 
L 195.473605 241.108215 
L 196.725584 240.862862 
L 197.977563 241.749387 
L 199.229542 241.504144 
L 200.481521 241.952013 
L 201.7335 241.638535 
L 202.985478 239.925998 
L 205.489436 239.95096 
L 206.741415 240.908349 
L 207.993394 240.477896 
L 209.245372 241.410397 
L 210.497351 241.952891 
L 211.74933 241.74099 
L 213.001309 241.659191 
L 214.253288 241.98394 
L 215.505266 241.537581 
L 216.757245 242.047211 
L 218.009224 241.680542 
L 219.261203 242.110523 
L 220.513182 240.894083 
L 221.76516 240.3176 
L 223.017139 239.254975 
L 224.269118 239.832601 
L 225.521097 240.796066 
L 226.773076 240.626241 
L 228.025055 236.779562 
L 229.277033 240.454679 
L 230.529012 241.335261 
L 231.780991 239.486604 
L 233.03297 239.656655 
L 234.284949 237.730898 
L 235.536927 240.046786 
L 236.788906 240.66033 
L 238.040885 240.314081 
L 239.292864 238.931821 
L 240.544843 241.845921 
L 241.796821 241.630201 
L 243.0488 241.236361 
L 244.300779 239.712796 
L 245.552758 240.658991 
L 246.804737 241.83468 
L 249.308694 241.419573 
L 250.560673 241.725092 
L 251.812652 241.254464 
L 253.064631 240.464084 
L 254.31661 240.05115 
L 255.568588 235.838747 
L 256.820567 241.322783 
L 258.072546 239.256709 
L 259.324525 242.062192 
L 260.576504 228.685518 
L 261.828482 169.808777 
L 263.080461 150.920404 
L 264.33244 218.683219 
L 265.584419 235.197195 
L 266.836398 241.715062 
L 268.088376 241.870628 
L 269.340355 240.088379 
L 270.592334 238.074603 
L 271.844313 240.354455 
L 273.096292 237.911277 
L 274.34827 238.636188 
L 275.600249 237.749309 
L 276.852228 238.346101 
L 278.104207 239.246696 
L 279.356186 239.47712 
L 280.608165 237.493889 
L 281.860143 239.873578 
L 283.112122 239.02079 
L 284.364101 238.746697 
L 285.61608 238.225902 
L 286.868059 237.489361 
L 288.120037 241.089105 
L 289.372016 240.118455 
L 290.623995 239.77157 
L 291.875974 240.830277 
L 293.127953 239.705346 
L 294.379931 239.359807 
L 295.63191 239.713887 
L 296.883889 239.456954 
L 298.135868 239.965504 
L 299.387847 237.316474 
L 300.639825 240.026691 
L 301.891804 237.201886 
L 303.143783 237.967932 
L 304.395762 241.114499 
L 305.647741 239.75818 
L 306.89972 240.020291 
L 308.151698 240.64451 
L 309.403677 240.386219 
L 310.655656 240.242409 
L 311.907635 240.400507 
L 313.159614 241.206179 
L 314.411592 241.60372 
L 315.663571 240.688822 
L 316.91555 241.241236 
L 318.167529 239.961989 
L 319.419508 240.053194 
L 321.923465 239.861852 
L 323.175444 240.370477 
L 324.427423 240.259963 
L 325.679402 238.77596 
L 326.93138 241.018996 
L 329.435338 239.875396 
L 330.687317 240.297899 
L 331.939296 238.891525 
L 333.191275 241.158381 
L 334.443253 241.905487 
L 335.695232 241.717784 
L 336.947211 241.824583 
L 338.19919 241.539904 
L 339.451169 241.980516 
L 340.703147 241.288357 
L 341.955126 241.394731 
L 343.207105 242.043809 
L 344.459084 241.301854 
L 345.711063 240.221546 
L 346.963041 241.238705 
L 348.21502 240.451538 
L 349.466999 241.030741 
L 350.718978 241.370865 
L 351.970957 241.256861 
L 353.222935 241.353031 
L 354.474914 241.840659 
L 355.726893 241.539816 
L 356.978872 240.967972 
L 358.230851 241.150345 
L 359.48283 242.082951 
L 360.734808 242.029702 
L 363.238766 241.523709 
L 364.490745 241.778811 
L 365.742724 241.610266 
L 366.994702 241.790432 
L 368.246681 240.996443 
L 369.49866 241.239527 
L 370.750639 241.00682 
L 372.002618 241.540491 
L 373.254596 240.566654 
L 374.506575 240.794034 
L 375.758554 241.689912 
L 377.010533 241.576814 
L 378.262512 241.318922 
L 380.766469 242.019978 
L 382.018448 242.096184 
L 383.270427 241.819112 
L 385.774385 241.677889 
L 387.026363 241.090635 
L 388.278342 241.968208 
L 389.530321 241.995835 
L 390.7823 241.317864 
L 392.034279 240.821877 
L 393.286257 241.44738 
L 394.538236 241.523524 
L 395.790215 241.932576 
L 398.294173 242.072403 
L 399.546151 241.665434 
L 400.79813 241.929038 
L 403.302088 242.049269 
L 404.554067 241.920334 
L 407.058024 242.088417 
L 408.310003 241.905325 
L 409.561982 241.927592 
L 410.813961 241.18346 
L 412.06594 241.676847 
L 413.317918 241.808582 
L 414.569897 241.518896 
L 415.821876 241.682947 
L 417.073855 242.063277 
L 419.577812 241.948702 
L 420.829791 241.953138 
L 422.08177 242.077051 
L 423.333749 241.881793 
L 424.585728 242.056987 
L 425.837706 242.113209 
L 427.089685 241.787003 
L 429.593643 241.800176 
L 430.845622 242.023113 
L 432.0976 241.788514 
L 433 241.448328 
M 433 242.116359 
L -1 242.116359 
L -1 242.116359 
" clip-path="url(#pd9521a4d77)" style="fill: none; stroke: #8172b3; stroke-opacity: 0.3; stroke-width: 1.5; stroke-linecap: round"/>
   </g>
   <g id="line2d_17">
    <path d="M 54 242.116364 
L 433 242.116364 
M 433 242.116364 
L -1 242.116364 
L -1 242.116364 
" clip-path="url(#pd9521a4d77)" style="fill: none; stroke: #937860; stroke-opacity: 0.3; stroke-width: 1.5; stroke-linecap: round"/>
   </g>
   <g id="line2d_18">
    <path d="M 54 242.116364 
L 433 242.116364 
M 433 242.116364 
L -1 242.116364 
L -1 242.116364 
" clip-path="url(#pd9521a4d77)" style="fill: none; stroke: #da8bc3; stroke-opacity: 0.3; stroke-width: 1.5; stroke-linecap: round"/>
   </g>
   <g id="patch_3">
    <path d="M 54 252 
L 54 34.56 
" style="fill: none; stroke: #262626; stroke-width: 1.25; stroke-linejoin: miter; stroke-linecap: square"/>
   </g>
   <g id="patch_4">
    <path d="M 388.8 252 
L 388.8 34.56 
" style="fill: none; stroke: #262626; stroke-width: 1.25; stroke-linejoin: miter; stroke-linecap: square"/>
   </g>
   <g id="patch_5">
    <path d="M 54 252 
L 388.8 252 
" style="fill: none; stroke: #262626; stroke-width: 1.25; stroke-linejoin: miter; stroke-linecap: square"/>
   </g>
   <g id="patch_6">
    <path d="M 54 34.56 
L 388.8 34.56 
" style="fill: none; stroke: #262626; stroke-width: 1.25; stroke-linejoin: miter; stroke-linecap: square"/>
   </g>
   <g id="text_13">
    <!-- patient14_app05 - Power spectrum -->
    <g style="fill: #262626" transform="translate(128.0175 28.56)scale(0.12 -0.12)">
     <defs>
      <path id="ArialMT-70" d="M 422 -1272 
L 422 3319 
L 934 3319 
L 934 2888 
Q 1116 3141 1344 3267 
Q 1572 3394 1897 3394 
Q 2322 3394 2647 3175 
Q 2972 2956 3137 2557 
Q 3303 2159 3303 1684 
Q 3303 1175 3120 767 
Q 2938 359 2589 142 
Q 2241 -75 1856 -75 
Q 1575 -75 1351 44 
Q 1128 163 984 344 
L 984 -1272 
L 422 -1272 
z
M 931 1641 
Q 931 1000 1190 694 
Q 1450 388 1819 388 
Q 2194 388 2461 705 
Q 2728 1022 2728 1688 
Q 2728 2322 2467 2637 
Q 2206 2953 1844 2953 
Q 1484 2953 1207 2617 
Q 931 2281 931 1641 
z
" transform="scale(0.015625)"/>
      <path id="ArialMT-61" d="M 2588 409 
Q 2275 144 1986 34 
Q 1697 -75 1366 -75 
Q 819 -75 525 192 
Q 231 459 231 875 
Q 231 1119 342 1320 
Q 453 1522 633 1644 
Q 813 1766 1038 1828 
Q 1203 1872 1538 1913 
Q 2219 1994 2541 2106 
Q 2544 2222 2544 2253 
Q 2544 2597 2384 2738 
Q 2169 2928 1744 2928 
Q 1347 2928 1158 2789 
Q 969 2650 878 2297 
L 328 2372 
Q 403 2725 575 2942 
Q 747 3159 1072 3276 
Q 1397 3394 1825 3394 
Q 2250 3394 2515 3294 
Q 2781 3194 2906 3042 
Q 3031 2891 3081 2659 
Q 3109 2516 3109 2141 
L 3109 1391 
Q 3109 606 3145 398 
Q 3181 191 3288 0 
L 2700 0 
Q 2613 175 2588 409 
z
M 2541 1666 
Q 2234 1541 1622 1453 
Q 1275 1403 1131 1340 
Q 988 1278 909 1158 
Q 831 1038 831 891 
Q 831 666 1001 516 
Q 1172 366 1500 366 
Q 1825 366 2078 508 
Q 2331 650 2450 897 
Q 2541 1088 2541 1459 
L 2541 1666 
z
" transform="scale(0.015625)"/>
      <path id="ArialMT-74" d="M 1650 503 
L 1731 6 
Q 1494 -44 1306 -44 
Q 1000 -44 831 53 
Q 663 150 594 308 
Q 525 466 525 972 
L 525 2881 
L 113 2881 
L 113 3319 
L 525 3319 
L 525 4141 
L 1084 4478 
L 1084 3319 
L 1650 3319 
L 1650 2881 
L 1084 2881 
L 1084 941 
Q 1084 700 1114 631 
Q 1144 563 1211 522 
Q 1278 481 1403 481 
Q 1497 481 1650 503 
z
" transform="scale(0.015625)"/>
      <path id="ArialMT-69" d="M 425 3934 
L 425 4581 
L 988 4581 
L 988 3934 
L 425 3934 
z
M 425 0 
L 425 3319 
L 988 3319 
L 988 0 
L 425 0 
z
" transform="scale(0.015625)"/>
      <path id="ArialMT-5f" d="M -97 -1272 
L -97 -866 
L 3631 -866 
L 3631 -1272 
L -97 -1272 
z
" transform="scale(0.015625)"/>
      <path id="ArialMT-2d" d="M 203 1375 
L 203 1941 
L 1931 1941 
L 1931 1375 
L 203 1375 
z
" transform="scale(0.015625)"/>
      <path id="ArialMT-50" d="M 494 0 
L 494 4581 
L 2222 4581 
Q 2678 4581 2919 4538 
Q 3256 4481 3484 4323 
Q 3713 4166 3852 3881 
Q 3991 3597 3991 3256 
Q 3991 2672 3619 2267 
Q 3247 1863 2275 1863 
L 1100 1863 
L 1100 0 
L 494 0 
z
M 1100 2403 
L 2284 2403 
Q 2872 2403 3119 2622 
Q 3366 2841 3366 3238 
Q 3366 3525 3220 3729 
Q 3075 3934 2838 4000 
Q 2684 4041 2272 4041 
L 1100 4041 
L 1100 2403 
z
" transform="scale(0.015625)"/>
      <path id="ArialMT-6f" d="M 213 1659 
Q 213 2581 725 3025 
Q 1153 3394 1769 3394 
Q 2453 3394 2887 2945 
Q 3322 2497 3322 1706 
Q 3322 1066 3130 698 
Q 2938 331 2570 128 
Q 2203 -75 1769 -75 
Q 1072 -75 642 372 
Q 213 819 213 1659 
z
M 791 1659 
Q 791 1022 1069 705 
Q 1347 388 1769 388 
Q 2188 388 2466 706 
Q 2744 1025 2744 1678 
Q 2744 2294 2464 2611 
Q 2184 2928 1769 2928 
Q 1347 2928 1069 2612 
Q 791 2297 791 1659 
z
" transform="scale(0.015625)"/>
      <path id="ArialMT-77" d="M 1034 0 
L 19 3319 
L 600 3319 
L 1128 1403 
L 1325 691 
Q 1338 744 1497 1375 
L 2025 3319 
L 2603 3319 
L 3100 1394 
L 3266 759 
L 3456 1400 
L 4025 3319 
L 4572 3319 
L 3534 0 
L 2950 0 
L 2422 1988 
L 2294 2553 
L 1622 0 
L 1034 0 
z
" transform="scale(0.015625)"/>
      <path id="ArialMT-73" d="M 197 991 
L 753 1078 
Q 800 744 1014 566 
Q 1228 388 1613 388 
Q 2000 388 2187 545 
Q 2375 703 2375 916 
Q 2375 1106 2209 1216 
Q 2094 1291 1634 1406 
Q 1016 1563 777 1677 
Q 538 1791 414 1992 
Q 291 2194 291 2438 
Q 291 2659 392 2848 
Q 494 3038 669 3163 
Q 800 3259 1026 3326 
Q 1253 3394 1513 3394 
Q 1903 3394 2198 3281 
Q 2494 3169 2634 2976 
Q 2775 2784 2828 2463 
L 2278 2388 
Q 2241 2644 2061 2787 
Q 1881 2931 1553 2931 
Q 1166 2931 1000 2803 
Q 834 2675 834 2503 
Q 834 2394 903 2306 
Q 972 2216 1119 2156 
Q 1203 2125 1616 2013 
Q 2213 1853 2448 1751 
Q 2684 1650 2818 1456 
Q 2953 1263 2953 975 
Q 2953 694 2789 445 
Q 2625 197 2315 61 
Q 2006 -75 1616 -75 
Q 969 -75 630 194 
Q 291 463 197 991 
z
" transform="scale(0.015625)"/>
      <path id="ArialMT-6d" d="M 422 0 
L 422 3319 
L 925 3319 
L 925 2853 
Q 1081 3097 1340 3245 
Q 1600 3394 1931 3394 
Q 2300 3394 2536 3241 
Q 2772 3088 2869 2813 
Q 3263 3394 3894 3394 
Q 4388 3394 4653 3120 
Q 4919 2847 4919 2278 
L 4919 0 
L 4359 0 
L 4359 2091 
Q 4359 2428 4304 2576 
Q 4250 2725 4106 2815 
Q 3963 2906 3769 2906 
Q 3419 2906 3187 2673 
Q 2956 2441 2956 1928 
L 2956 0 
L 2394 0 
L 2394 2156 
Q 2394 2531 2256 2718 
Q 2119 2906 1806 2906 
Q 1569 2906 1367 2781 
Q 1166 2656 1075 2415 
Q 984 2175 984 1722 
L 984 0 
L 422 0 
z
" transform="scale(0.015625)"/>
     </defs>
     <use xlink:href="#ArialMT-70"/>
     <use xlink:href="#ArialMT-61" x="55.615234"/>
     <use xlink:href="#ArialMT-74" x="111.230469"/>
     <use xlink:href="#ArialMT-69" x="139.013672"/>
     <use xlink:href="#ArialMT-65" x="161.230469"/>
     <use xlink:href="#ArialMT-6e" x="216.845703"/>
     <use xlink:href="#ArialMT-74" x="272.460938"/>
     <use xlink:href="#ArialMT-31" x="300.244141"/>
     <use xlink:href="#ArialMT-34" x="355.859375"/>
     <use xlink:href="#ArialMT-5f" x="411.474609"/>
     <use xlink:href="#ArialMT-61" x="467.089844"/>
     <use xlink:href="#ArialMT-70" x="522.705078"/>
     <use xlink:href="#ArialMT-70" x="578.320312"/>
     <use xlink:href="#ArialMT-30" x="633.935547"/>
     <use xlink:href="#ArialMT-35" x="689.550781"/>
     <use xlink:href="#ArialMT-20" x="745.166016"/>
     <use xlink:href="#ArialMT-2d" x="772.949219"/>
     <use xlink:href="#ArialMT-20" x="806.25"/>
     <use xlink:href="#ArialMT-50" x="834.033203"/>
     <use xlink:href="#ArialMT-6f" x="900.732422"/>
     <use xlink:href="#ArialMT-77" x="956.347656"/>
     <use xlink:href="#ArialMT-65" x="1028.564453"/>
     <use xlink:href="#ArialMT-72" x="1084.179688"/>
     <use xlink:href="#ArialMT-20" x="1117.480469"/>
     <use xlink:href="#ArialMT-73" x="1145.263672"/>
     <use xlink:href="#ArialMT-70" x="1195.263672"/>
     <use xlink:href="#ArialMT-65" x="1250.878906"/>
     <use xlink:href="#ArialMT-63" x="1306.494141"/>
     <use xlink:href="#ArialMT-74" x="1356.494141"/>
     <use xlink:href="#ArialMT-72" x="1384.277344"/>
     <use xlink:href="#ArialMT-75" x="1417.578125"/>
     <use xlink:href="#ArialMT-6d" x="1473.193359"/>
    </g>
   </g>
   <g id="legend_1">
    <g id="patch_7">
     <path d="M 313.503281 152.278906 
L 381.1 152.278906 
Q 383.3 152.278906 383.3 150.078906 
L 383.3 42.26 
Q 383.3 40.06 381.1 40.06 
L 313.503281 40.06 
Q 311.303281 40.06 311.303281 42.26 
L 311.303281 150.078906 
Q 311.303281 152.278906 313.503281 152.278906 
z
" style="fill: #ffffff; opacity: 0.8; stroke: #cccccc; stroke-linejoin: miter"/>
    </g>
    <g id="line2d_19">
     <path d="M 315.703281 48.483594 
L 326.703281 48.483594 
L 337.703281 48.483594 
" style="fill: none; stroke: #4c72b0; stroke-opacity: 0.3; stroke-width: 1.5; stroke-linecap: round"/>
    </g>
    <g id="text_14">
     <!-- IMU9 -->
     <g style="fill: #262626" transform="translate(346.503281 52.333594)scale(0.11 -0.11)">
      <defs>
       <path id="ArialMT-49" d="M 597 0 
L 597 4581 
L 1203 4581 
L 1203 0 
L 597 0 
z
" transform="scale(0.015625)"/>
       <path id="ArialMT-4d" d="M 475 0 
L 475 4581 
L 1388 4581 
L 2472 1338 
Q 2622 884 2691 659 
Q 2769 909 2934 1394 
L 4031 4581 
L 4847 4581 
L 4847 0 
L 4263 0 
L 4263 3834 
L 2931 0 
L 2384 0 
L 1059 3900 
L 1059 0 
L 475 0 
z
" transform="scale(0.015625)"/>
       <path id="ArialMT-55" d="M 3500 4581 
L 4106 4581 
L 4106 1934 
Q 4106 1244 3950 837 
Q 3794 431 3386 176 
Q 2978 -78 2316 -78 
Q 1672 -78 1262 144 
Q 853 366 678 786 
Q 503 1206 503 1934 
L 503 4581 
L 1109 4581 
L 1109 1938 
Q 1109 1341 1220 1058 
Q 1331 775 1601 622 
Q 1872 469 2263 469 
Q 2931 469 3215 772 
Q 3500 1075 3500 1938 
L 3500 4581 
z
" transform="scale(0.015625)"/>
       <path id="ArialMT-39" d="M 350 1059 
L 891 1109 
Q 959 728 1153 556 
Q 1347 384 1650 384 
Q 1909 384 2104 503 
Q 2300 622 2425 820 
Q 2550 1019 2634 1356 
Q 2719 1694 2719 2044 
Q 2719 2081 2716 2156 
Q 2547 1888 2255 1720 
Q 1963 1553 1622 1553 
Q 1053 1553 659 1965 
Q 266 2378 266 3053 
Q 266 3750 677 4175 
Q 1088 4600 1706 4600 
Q 2153 4600 2523 4359 
Q 2894 4119 3086 3673 
Q 3278 3228 3278 2384 
Q 3278 1506 3087 986 
Q 2897 466 2520 194 
Q 2144 -78 1638 -78 
Q 1100 -78 759 220 
Q 419 519 350 1059 
z
M 2653 3081 
Q 2653 3566 2395 3850 
Q 2138 4134 1775 4134 
Q 1400 4134 1122 3828 
Q 844 3522 844 3034 
Q 844 2597 1108 2323 
Q 1372 2050 1759 2050 
Q 2150 2050 2401 2323 
Q 2653 2597 2653 3081 
z
" transform="scale(0.015625)"/>
      </defs>
      <use xlink:href="#ArialMT-49"/>
      <use xlink:href="#ArialMT-4d" x="27.783203"/>
      <use xlink:href="#ArialMT-55" x="111.083984"/>
      <use xlink:href="#ArialMT-39" x="183.300781"/>
     </g>
    </g>
    <g id="line2d_20">
     <path d="M 315.703281 64.043438 
L 326.703281 64.043438 
L 337.703281 64.043438 
" style="fill: none; stroke: #dd8452; stroke-opacity: 0.3; stroke-width: 1.5; stroke-linecap: round"/>
    </g>
    <g id="text_15">
     <!-- IMU10 -->
     <g style="fill: #262626" transform="translate(346.503281 67.893438)scale(0.11 -0.11)">
      <use xlink:href="#ArialMT-49"/>
      <use xlink:href="#ArialMT-4d" x="27.783203"/>
      <use xlink:href="#ArialMT-55" x="111.083984"/>
      <use xlink:href="#ArialMT-31" x="183.300781"/>
      <use xlink:href="#ArialMT-30" x="238.916016"/>
     </g>
    </g>
    <g id="line2d_21">
     <path d="M 315.703281 79.603281 
L 326.703281 79.603281 
L 337.703281 79.603281 
" style="fill: none; stroke: #55a868; stroke-opacity: 0.3; stroke-width: 1.5; stroke-linecap: round"/>
    </g>
    <g id="text_16">
     <!-- IMU11 -->
     <g style="fill: #262626" transform="translate(346.503281 83.453281)scale(0.11 -0.11)">
      <use xlink:href="#ArialMT-49"/>
      <use xlink:href="#ArialMT-4d" x="27.783203"/>
      <use xlink:href="#ArialMT-55" x="111.083984"/>
      <use xlink:href="#ArialMT-31" x="183.300781"/>
      <use xlink:href="#ArialMT-31" x="231.541016"/>
     </g>
    </g>
    <g id="line2d_22">
     <path d="M 315.703281 95.163125 
L 326.703281 95.163125 
L 337.703281 95.163125 
" style="fill: none; stroke: #c44e52; stroke-opacity: 0.3; stroke-width: 1.5; stroke-linecap: round"/>
    </g>
    <g id="text_17">
     <!-- IMU12 -->
     <g style="fill: #262626" transform="translate(346.503281 99.013125)scale(0.11 -0.11)">
      <use xlink:href="#ArialMT-49"/>
      <use xlink:href="#ArialMT-4d" x="27.783203"/>
      <use xlink:href="#ArialMT-55" x="111.083984"/>
      <use xlink:href="#ArialMT-31" x="183.300781"/>
      <use xlink:href="#ArialMT-32" x="238.916016"/>
     </g>
    </g>
    <g id="line2d_23">
     <path d="M 315.703281 110.722969 
L 326.703281 110.722969 
L 337.703281 110.722969 
" style="fill: none; stroke: #8172b3; stroke-opacity: 0.3; stroke-width: 1.5; stroke-linecap: round"/>
    </g>
    <g id="text_18">
     <!-- IMU13 -->
     <g style="fill: #262626" transform="translate(346.503281 114.572969)scale(0.11 -0.11)">
      <defs>
       <path id="ArialMT-33" d="M 269 1209 
L 831 1284 
Q 928 806 1161 595 
Q 1394 384 1728 384 
Q 2125 384 2398 659 
Q 2672 934 2672 1341 
Q 2672 1728 2419 1979 
Q 2166 2231 1775 2231 
Q 1616 2231 1378 2169 
L 1441 2663 
Q 1497 2656 1531 2656 
Q 1891 2656 2178 2843 
Q 2466 3031 2466 3422 
Q 2466 3731 2256 3934 
Q 2047 4138 1716 4138 
Q 1388 4138 1169 3931 
Q 950 3725 888 3313 
L 325 3413 
Q 428 3978 793 4289 
Q 1159 4600 1703 4600 
Q 2078 4600 2393 4439 
Q 2709 4278 2876 4000 
Q 3044 3722 3044 3409 
Q 3044 3113 2884 2869 
Q 2725 2625 2413 2481 
Q 2819 2388 3044 2092 
Q 3269 1797 3269 1353 
Q 3269 753 2831 336 
Q 2394 -81 1725 -81 
Q 1122 -81 723 278 
Q 325 638 269 1209 
z
" transform="scale(0.015625)"/>
      </defs>
      <use xlink:href="#ArialMT-49"/>
      <use xlink:href="#ArialMT-4d" x="27.783203"/>
      <use xlink:href="#ArialMT-55" x="111.083984"/>
      <use xlink:href="#ArialMT-31" x="183.300781"/>
      <use xlink:href="#ArialMT-33" x="238.916016"/>
     </g>
    </g>
    <g id="line2d_24">
     <path d="M 315.703281 126.282813 
L 326.703281 126.282813 
L 337.703281 126.282813 
" style="fill: none; stroke: #937860; stroke-opacity: 0.3; stroke-width: 1.5; stroke-linecap: round"/>
    </g>
    <g id="text_19">
     <!-- IMU14 -->
     <g style="fill: #262626" transform="translate(346.503281 130.132812)scale(0.11 -0.11)">
      <use xlink:href="#ArialMT-49"/>
      <use xlink:href="#ArialMT-4d" x="27.783203"/>
      <use xlink:href="#ArialMT-55" x="111.083984"/>
      <use xlink:href="#ArialMT-31" x="183.300781"/>
      <use xlink:href="#ArialMT-34" x="238.916016"/>
     </g>
    </g>
    <g id="line2d_25">
     <path d="M 315.703281 141.842656 
L 326.703281 141.842656 
L 337.703281 141.842656 
" style="fill: none; stroke: #da8bc3; stroke-opacity: 0.3; stroke-width: 1.5; stroke-linecap: round"/>
    </g>
    <g id="text_20">
     <!-- IMU15 -->
     <g style="fill: #262626" transform="translate(346.503281 145.692656)scale(0.11 -0.11)">
      <use xlink:href="#ArialMT-49"/>
      <use xlink:href="#ArialMT-4d" x="27.783203"/>
      <use xlink:href="#ArialMT-55" x="111.083984"/>
      <use xlink:href="#ArialMT-31" x="183.300781"/>
      <use xlink:href="#ArialMT-35" x="238.916016"/>
     </g>
    </g>
   </g>
  </g>
 </g>
 <defs>
  <clipPath id="pd9521a4d77">
   <rect x="54" y="34.56" width="334.8" height="217.44"/>
  </clipPath>
 </defs>
</svg>
