<?xml version="1.0" encoding="utf-8" standalone="no"?>
<!DOCTYPE svg PUBLIC "-//W3C//DTD SVG 1.1//EN"
  "http://www.w3.org/Graphics/SVG/1.1/DTD/svg11.dtd">
<svg xmlns:xlink="http://www.w3.org/1999/xlink" width="432pt" height="288pt" viewBox="0 0 432 288" xmlns="http://www.w3.org/2000/svg" version="1.1">
 <metadata>
  <rdf:RDF xmlns:dc="http://purl.org/dc/elements/1.1/" xmlns:cc="http://creativecommons.org/ns#" xmlns:rdf="http://www.w3.org/1999/02/22-rdf-syntax-ns#">
   <cc:Work>
    <dc:type rdf:resource="http://purl.org/dc/dcmitype/StillImage"/>
    <dc:date>2022-07-08T13:58:13.160393</dc:date>
    <dc:format>image/svg+xml</dc:format>
    <dc:creator>
     <cc:Agent>
      <dc:title>Matplotlib v3.5.1, https://matplotlib.org/</dc:title>
     </cc:Agent>
    </dc:creator>
   </cc:Work>
  </rdf:RDF>
 </metadata>
 <defs>
  <style type="text/css">*{stroke-linejoin: round; stroke-linecap: butt}</style>
 </defs>
 <g id="figure_1">
  <g id="patch_1">
   <path d="M 0 288 
L 432 288 
L 432 0 
L 0 0 
z
" style="fill: #ffffff"/>
  </g>
  <g id="axes_1">
   <g id="patch_2">
    <path d="M 54 252 
L 388.8 252 
L 388.8 34.56 
L 54 34.56 
z
" style="fill: #ffffff"/>
   </g>
   <g id="matplotlib.axis_1">
    <g id="xtick_1">
     <g id="line2d_1">
      <defs>
       <path id="ma0d3f6d1ac" d="M 0 0 
L 0 6 
" style="stroke: #262626; stroke-width: 1.25"/>
      </defs>
      <g>
       <use xlink:href="#ma0d3f6d1ac" x="54" y="252" style="fill: #262626; stroke: #262626; stroke-width: 1.25"/>
      </g>
     </g>
     <g id="text_1">
      <!-- 0 -->
      <g style="fill: #262626" transform="translate(50.941484 269.373594)scale(0.11 -0.11)">
       <defs>
        <path id="ArialMT-30" d="M 266 2259 
Q 266 3072 433 3567 
Q 600 4063 929 4331 
Q 1259 4600 1759 4600 
Q 2128 4600 2406 4451 
Q 2684 4303 2865 4023 
Q 3047 3744 3150 3342 
Q 3253 2941 3253 2259 
Q 3253 1453 3087 958 
Q 2922 463 2592 192 
Q 2263 -78 1759 -78 
Q 1097 -78 719 397 
Q 266 969 266 2259 
z
M 844 2259 
Q 844 1131 1108 757 
Q 1372 384 1759 384 
Q 2147 384 2411 759 
Q 2675 1134 2675 2259 
Q 2675 3391 2411 3762 
Q 2147 4134 1753 4134 
Q 1366 4134 1134 3806 
Q 844 3388 844 2259 
z
" transform="scale(0.015625)"/>
       </defs>
       <use xlink:href="#ArialMT-30"/>
      </g>
     </g>
    </g>
    <g id="xtick_2">
     <g id="line2d_2">
      <g>
       <use xlink:href="#ma0d3f6d1ac" x="120.96" y="252" style="fill: #262626; stroke: #262626; stroke-width: 1.25"/>
      </g>
     </g>
     <g id="text_2">
      <!-- 5 -->
      <g style="fill: #262626" transform="translate(117.901484 269.373594)scale(0.11 -0.11)">
       <defs>
        <path id="ArialMT-35" d="M 266 1200 
L 856 1250 
Q 922 819 1161 601 
Q 1400 384 1738 384 
Q 2144 384 2425 690 
Q 2706 997 2706 1503 
Q 2706 1984 2436 2262 
Q 2166 2541 1728 2541 
Q 1456 2541 1237 2417 
Q 1019 2294 894 2097 
L 366 2166 
L 809 4519 
L 3088 4519 
L 3088 3981 
L 1259 3981 
L 1013 2750 
Q 1425 3038 1878 3038 
Q 2478 3038 2890 2622 
Q 3303 2206 3303 1553 
Q 3303 931 2941 478 
Q 2500 -78 1738 -78 
Q 1113 -78 717 272 
Q 322 622 266 1200 
z
" transform="scale(0.015625)"/>
       </defs>
       <use xlink:href="#ArialMT-35"/>
      </g>
     </g>
    </g>
    <g id="xtick_3">
     <g id="line2d_3">
      <g>
       <use xlink:href="#ma0d3f6d1ac" x="187.92" y="252" style="fill: #262626; stroke: #262626; stroke-width: 1.25"/>
      </g>
     </g>
     <g id="text_3">
      <!-- 10 -->
      <g style="fill: #262626" transform="translate(181.802969 269.373594)scale(0.11 -0.11)">
       <defs>
        <path id="ArialMT-31" d="M 2384 0 
L 1822 0 
L 1822 3584 
Q 1619 3391 1289 3197 
Q 959 3003 697 2906 
L 697 3450 
Q 1169 3672 1522 3987 
Q 1875 4303 2022 4600 
L 2384 4600 
L 2384 0 
z
" transform="scale(0.015625)"/>
       </defs>
       <use xlink:href="#ArialMT-31"/>
       <use xlink:href="#ArialMT-30" x="55.615234"/>
      </g>
     </g>
    </g>
    <g id="xtick_4">
     <g id="line2d_4">
      <g>
       <use xlink:href="#ma0d3f6d1ac" x="254.88" y="252" style="fill: #262626; stroke: #262626; stroke-width: 1.25"/>
      </g>
     </g>
     <g id="text_4">
      <!-- 15 -->
      <g style="fill: #262626" transform="translate(248.762969 269.373594)scale(0.11 -0.11)">
       <use xlink:href="#ArialMT-31"/>
       <use xlink:href="#ArialMT-35" x="55.615234"/>
      </g>
     </g>
    </g>
    <g id="xtick_5">
     <g id="line2d_5">
      <g>
       <use xlink:href="#ma0d3f6d1ac" x="321.84" y="252" style="fill: #262626; stroke: #262626; stroke-width: 1.25"/>
      </g>
     </g>
     <g id="text_5">
      <!-- 20 -->
      <g style="fill: #262626" transform="translate(315.722969 269.373594)scale(0.11 -0.11)">
       <defs>
        <path id="ArialMT-32" d="M 3222 541 
L 3222 0 
L 194 0 
Q 188 203 259 391 
Q 375 700 629 1000 
Q 884 1300 1366 1694 
Q 2113 2306 2375 2664 
Q 2638 3022 2638 3341 
Q 2638 3675 2398 3904 
Q 2159 4134 1775 4134 
Q 1369 4134 1125 3890 
Q 881 3647 878 3216 
L 300 3275 
Q 359 3922 746 4261 
Q 1134 4600 1788 4600 
Q 2447 4600 2831 4234 
Q 3216 3869 3216 3328 
Q 3216 3053 3103 2787 
Q 2991 2522 2730 2228 
Q 2469 1934 1863 1422 
Q 1356 997 1212 845 
Q 1069 694 975 541 
L 3222 541 
z
" transform="scale(0.015625)"/>
       </defs>
       <use xlink:href="#ArialMT-32"/>
       <use xlink:href="#ArialMT-30" x="55.615234"/>
      </g>
     </g>
    </g>
    <g id="xtick_6">
     <g id="line2d_6">
      <g>
       <use xlink:href="#ma0d3f6d1ac" x="388.8" y="252" style="fill: #262626; stroke: #262626; stroke-width: 1.25"/>
      </g>
     </g>
     <g id="text_6">
      <!-- 25 -->
      <g style="fill: #262626" transform="translate(382.682969 269.373594)scale(0.11 -0.11)">
       <use xlink:href="#ArialMT-32"/>
       <use xlink:href="#ArialMT-35" x="55.615234"/>
      </g>
     </g>
    </g>
    <g id="text_7">
     <!-- Frequency (Hz) -->
     <g style="fill: #262626" transform="translate(180.059063 284.295469)scale(0.12 -0.12)">
      <defs>
       <path id="ArialMT-46" d="M 525 0 
L 525 4581 
L 3616 4581 
L 3616 4041 
L 1131 4041 
L 1131 2622 
L 3281 2622 
L 3281 2081 
L 1131 2081 
L 1131 0 
L 525 0 
z
" transform="scale(0.015625)"/>
       <path id="ArialMT-72" d="M 416 0 
L 416 3319 
L 922 3319 
L 922 2816 
Q 1116 3169 1280 3281 
Q 1444 3394 1641 3394 
Q 1925 3394 2219 3213 
L 2025 2691 
Q 1819 2813 1613 2813 
Q 1428 2813 1281 2702 
Q 1134 2591 1072 2394 
Q 978 2094 978 1738 
L 978 0 
L 416 0 
z
" transform="scale(0.015625)"/>
       <path id="ArialMT-65" d="M 2694 1069 
L 3275 997 
Q 3138 488 2766 206 
Q 2394 -75 1816 -75 
Q 1088 -75 661 373 
Q 234 822 234 1631 
Q 234 2469 665 2931 
Q 1097 3394 1784 3394 
Q 2450 3394 2872 2941 
Q 3294 2488 3294 1666 
Q 3294 1616 3291 1516 
L 816 1516 
Q 847 969 1125 678 
Q 1403 388 1819 388 
Q 2128 388 2347 550 
Q 2566 713 2694 1069 
z
M 847 1978 
L 2700 1978 
Q 2663 2397 2488 2606 
Q 2219 2931 1791 2931 
Q 1403 2931 1139 2672 
Q 875 2413 847 1978 
z
" transform="scale(0.015625)"/>
       <path id="ArialMT-71" d="M 2538 -1272 
L 2538 353 
Q 2406 169 2170 47 
Q 1934 -75 1669 -75 
Q 1078 -75 651 397 
Q 225 869 225 1691 
Q 225 2191 398 2587 
Q 572 2984 901 3189 
Q 1231 3394 1625 3394 
Q 2241 3394 2594 2875 
L 2594 3319 
L 3100 3319 
L 3100 -1272 
L 2538 -1272 
z
M 803 1669 
Q 803 1028 1072 708 
Q 1341 388 1716 388 
Q 2075 388 2334 692 
Q 2594 997 2594 1619 
Q 2594 2281 2320 2615 
Q 2047 2950 1678 2950 
Q 1313 2950 1058 2639 
Q 803 2328 803 1669 
z
" transform="scale(0.015625)"/>
       <path id="ArialMT-75" d="M 2597 0 
L 2597 488 
Q 2209 -75 1544 -75 
Q 1250 -75 995 37 
Q 741 150 617 320 
Q 494 491 444 738 
Q 409 903 409 1263 
L 409 3319 
L 972 3319 
L 972 1478 
Q 972 1038 1006 884 
Q 1059 663 1231 536 
Q 1403 409 1656 409 
Q 1909 409 2131 539 
Q 2353 669 2445 892 
Q 2538 1116 2538 1541 
L 2538 3319 
L 3100 3319 
L 3100 0 
L 2597 0 
z
" transform="scale(0.015625)"/>
       <path id="ArialMT-6e" d="M 422 0 
L 422 3319 
L 928 3319 
L 928 2847 
Q 1294 3394 1984 3394 
Q 2284 3394 2536 3286 
Q 2788 3178 2913 3003 
Q 3038 2828 3088 2588 
Q 3119 2431 3119 2041 
L 3119 0 
L 2556 0 
L 2556 2019 
Q 2556 2363 2490 2533 
Q 2425 2703 2258 2804 
Q 2091 2906 1866 2906 
Q 1506 2906 1245 2678 
Q 984 2450 984 1813 
L 984 0 
L 422 0 
z
" transform="scale(0.015625)"/>
       <path id="ArialMT-63" d="M 2588 1216 
L 3141 1144 
Q 3050 572 2676 248 
Q 2303 -75 1759 -75 
Q 1078 -75 664 370 
Q 250 816 250 1647 
Q 250 2184 428 2587 
Q 606 2991 970 3192 
Q 1334 3394 1763 3394 
Q 2303 3394 2647 3120 
Q 2991 2847 3088 2344 
L 2541 2259 
Q 2463 2594 2264 2762 
Q 2066 2931 1784 2931 
Q 1359 2931 1093 2626 
Q 828 2322 828 1663 
Q 828 994 1084 691 
Q 1341 388 1753 388 
Q 2084 388 2306 591 
Q 2528 794 2588 1216 
z
" transform="scale(0.015625)"/>
       <path id="ArialMT-79" d="M 397 -1278 
L 334 -750 
Q 519 -800 656 -800 
Q 844 -800 956 -737 
Q 1069 -675 1141 -563 
Q 1194 -478 1313 -144 
Q 1328 -97 1363 -6 
L 103 3319 
L 709 3319 
L 1400 1397 
Q 1534 1031 1641 628 
Q 1738 1016 1872 1384 
L 2581 3319 
L 3144 3319 
L 1881 -56 
Q 1678 -603 1566 -809 
Q 1416 -1088 1222 -1217 
Q 1028 -1347 759 -1347 
Q 597 -1347 397 -1278 
z
" transform="scale(0.015625)"/>
       <path id="ArialMT-20" transform="scale(0.015625)"/>
       <path id="ArialMT-28" d="M 1497 -1347 
Q 1031 -759 709 28 
Q 388 816 388 1659 
Q 388 2403 628 3084 
Q 909 3875 1497 4659 
L 1900 4659 
Q 1522 4009 1400 3731 
Q 1209 3300 1100 2831 
Q 966 2247 966 1656 
Q 966 153 1900 -1347 
L 1497 -1347 
z
" transform="scale(0.015625)"/>
       <path id="ArialMT-48" d="M 513 0 
L 513 4581 
L 1119 4581 
L 1119 2700 
L 3500 2700 
L 3500 4581 
L 4106 4581 
L 4106 0 
L 3500 0 
L 3500 2159 
L 1119 2159 
L 1119 0 
L 513 0 
z
" transform="scale(0.015625)"/>
       <path id="ArialMT-7a" d="M 125 0 
L 125 456 
L 2238 2881 
Q 1878 2863 1603 2863 
L 250 2863 
L 250 3319 
L 2963 3319 
L 2963 2947 
L 1166 841 
L 819 456 
Q 1197 484 1528 484 
L 3063 484 
L 3063 0 
L 125 0 
z
" transform="scale(0.015625)"/>
       <path id="ArialMT-29" d="M 791 -1347 
L 388 -1347 
Q 1322 153 1322 1656 
Q 1322 2244 1188 2822 
Q 1081 3291 891 3722 
Q 769 4003 388 4659 
L 791 4659 
Q 1378 3875 1659 3084 
Q 1900 2403 1900 1659 
Q 1900 816 1576 28 
Q 1253 -759 791 -1347 
z
" transform="scale(0.015625)"/>
      </defs>
      <use xlink:href="#ArialMT-46"/>
      <use xlink:href="#ArialMT-72" x="61.083984"/>
      <use xlink:href="#ArialMT-65" x="94.384766"/>
      <use xlink:href="#ArialMT-71" x="150"/>
      <use xlink:href="#ArialMT-75" x="205.615234"/>
      <use xlink:href="#ArialMT-65" x="261.230469"/>
      <use xlink:href="#ArialMT-6e" x="316.845703"/>
      <use xlink:href="#ArialMT-63" x="372.460938"/>
      <use xlink:href="#ArialMT-79" x="422.460938"/>
      <use xlink:href="#ArialMT-20" x="472.460938"/>
      <use xlink:href="#ArialMT-28" x="500.244141"/>
      <use xlink:href="#ArialMT-48" x="533.544922"/>
      <use xlink:href="#ArialMT-7a" x="605.761719"/>
      <use xlink:href="#ArialMT-29" x="655.761719"/>
     </g>
    </g>
   </g>
   <g id="matplotlib.axis_2">
    <g id="ytick_1">
     <g id="line2d_7">
      <defs>
       <path id="m5075716352" d="M 0 0 
L -6 0 
" style="stroke: #262626; stroke-width: 1.25"/>
      </defs>
      <g>
       <use xlink:href="#m5075716352" x="54" y="242.116364" style="fill: #262626; stroke: #262626; stroke-width: 1.25"/>
      </g>
     </g>
     <g id="text_8">
      <!-- 0 -->
      <g style="fill: #262626" transform="translate(38.382969 246.053161)scale(0.11 -0.11)">
       <use xlink:href="#ArialMT-30"/>
      </g>
     </g>
    </g>
    <g id="ytick_2">
     <g id="line2d_8">
      <g>
       <use xlink:href="#m5075716352" x="54" y="213.34496" style="fill: #262626; stroke: #262626; stroke-width: 1.25"/>
      </g>
     </g>
     <g id="text_9">
      <!-- 500 -->
      <g style="fill: #262626" transform="translate(26.148906 217.281757)scale(0.11 -0.11)">
       <use xlink:href="#ArialMT-35"/>
       <use xlink:href="#ArialMT-30" x="55.615234"/>
       <use xlink:href="#ArialMT-30" x="111.230469"/>
      </g>
     </g>
    </g>
    <g id="ytick_3">
     <g id="line2d_9">
      <g>
       <use xlink:href="#m5075716352" x="54" y="184.573557" style="fill: #262626; stroke: #262626; stroke-width: 1.25"/>
      </g>
     </g>
     <g id="text_10">
      <!-- 1000 -->
      <g style="fill: #262626" transform="translate(20.031875 188.510354)scale(0.11 -0.11)">
       <use xlink:href="#ArialMT-31"/>
       <use xlink:href="#ArialMT-30" x="55.615234"/>
       <use xlink:href="#ArialMT-30" x="111.230469"/>
       <use xlink:href="#ArialMT-30" x="166.845703"/>
      </g>
     </g>
    </g>
    <g id="ytick_4">
     <g id="line2d_10">
      <g>
       <use xlink:href="#m5075716352" x="54" y="155.802153" style="fill: #262626; stroke: #262626; stroke-width: 1.25"/>
      </g>
     </g>
     <g id="text_11">
      <!-- 1500 -->
      <g style="fill: #262626" transform="translate(20.031875 159.73895)scale(0.11 -0.11)">
       <use xlink:href="#ArialMT-31"/>
       <use xlink:href="#ArialMT-35" x="55.615234"/>
       <use xlink:href="#ArialMT-30" x="111.230469"/>
       <use xlink:href="#ArialMT-30" x="166.845703"/>
      </g>
     </g>
    </g>
    <g id="ytick_5">
     <g id="line2d_11">
      <g>
       <use xlink:href="#m5075716352" x="54" y="127.03075" style="fill: #262626; stroke: #262626; stroke-width: 1.25"/>
      </g>
     </g>
     <g id="text_12">
      <!-- 2000 -->
      <g style="fill: #262626" transform="translate(20.031875 130.967547)scale(0.11 -0.11)">
       <use xlink:href="#ArialMT-32"/>
       <use xlink:href="#ArialMT-30" x="55.615234"/>
       <use xlink:href="#ArialMT-30" x="111.230469"/>
       <use xlink:href="#ArialMT-30" x="166.845703"/>
      </g>
     </g>
    </g>
    <g id="ytick_6">
     <g id="line2d_12">
      <g>
       <use xlink:href="#m5075716352" x="54" y="98.259346" style="fill: #262626; stroke: #262626; stroke-width: 1.25"/>
      </g>
     </g>
     <g id="text_13">
      <!-- 2500 -->
      <g style="fill: #262626" transform="translate(20.031875 102.196143)scale(0.11 -0.11)">
       <use xlink:href="#ArialMT-32"/>
       <use xlink:href="#ArialMT-35" x="55.615234"/>
       <use xlink:href="#ArialMT-30" x="111.230469"/>
       <use xlink:href="#ArialMT-30" x="166.845703"/>
      </g>
     </g>
    </g>
    <g id="ytick_7">
     <g id="line2d_13">
      <g>
       <use xlink:href="#m5075716352" x="54" y="69.487943" style="fill: #262626; stroke: #262626; stroke-width: 1.25"/>
      </g>
     </g>
     <g id="text_14">
      <!-- 3000 -->
      <g style="fill: #262626" transform="translate(20.031875 73.42474)scale(0.11 -0.11)">
       <defs>
        <path id="ArialMT-33" d="M 269 1209 
L 831 1284 
Q 928 806 1161 595 
Q 1394 384 1728 384 
Q 2125 384 2398 659 
Q 2672 934 2672 1341 
Q 2672 1728 2419 1979 
Q 2166 2231 1775 2231 
Q 1616 2231 1378 2169 
L 1441 2663 
Q 1497 2656 1531 2656 
Q 1891 2656 2178 2843 
Q 2466 3031 2466 3422 
Q 2466 3731 2256 3934 
Q 2047 4138 1716 4138 
Q 1388 4138 1169 3931 
Q 950 3725 888 3313 
L 325 3413 
Q 428 3978 793 4289 
Q 1159 4600 1703 4600 
Q 2078 4600 2393 4439 
Q 2709 4278 2876 4000 
Q 3044 3722 3044 3409 
Q 3044 3113 2884 2869 
Q 2725 2625 2413 2481 
Q 2819 2388 3044 2092 
Q 3269 1797 3269 1353 
Q 3269 753 2831 336 
Q 2394 -81 1725 -81 
Q 1122 -81 723 278 
Q 325 638 269 1209 
z
" transform="scale(0.015625)"/>
       </defs>
       <use xlink:href="#ArialMT-33"/>
       <use xlink:href="#ArialMT-30" x="55.615234"/>
       <use xlink:href="#ArialMT-30" x="111.230469"/>
       <use xlink:href="#ArialMT-30" x="166.845703"/>
      </g>
     </g>
    </g>
    <g id="ytick_8">
     <g id="line2d_14">
      <g>
       <use xlink:href="#m5075716352" x="54" y="40.71654" style="fill: #262626; stroke: #262626; stroke-width: 1.25"/>
      </g>
     </g>
     <g id="text_15">
      <!-- 3500 -->
      <g style="fill: #262626" transform="translate(20.031875 44.653336)scale(0.11 -0.11)">
       <use xlink:href="#ArialMT-33"/>
       <use xlink:href="#ArialMT-35" x="55.615234"/>
       <use xlink:href="#ArialMT-30" x="111.230469"/>
       <use xlink:href="#ArialMT-30" x="166.845703"/>
      </g>
     </g>
    </g>
   </g>
   <g id="line2d_15">
    <path d="M 54 242.115554 
L 151.142677 242.032009 
L 154.301789 241.94141 
L 167.728013 241.593864 
L 168.51779 241.286838 
L 169.307568 241.466354 
L 170.887124 241.546103 
L 172.46668 241.690938 
L 173.256458 240.908265 
L 174.046236 241.006377 
L 174.836013 241.788704 
L 175.625791 241.776869 
L 176.415569 241.490125 
L 177.995125 241.235586 
L 178.784903 241.986516 
L 179.574681 241.817968 
L 180.364458 241.471506 
L 181.154236 241.901224 
L 181.944014 240.142289 
L 182.733792 239.75517 
L 183.52357 241.237131 
L 184.313348 239.787688 
L 185.103126 240.190383 
L 185.892903 241.345147 
L 186.682681 241.505129 
L 187.472459 240.159152 
L 188.262237 240.507334 
L 190.631571 240.593814 
L 191.421349 239.956823 
L 192.211126 240.202107 
L 193.000904 235.249074 
L 193.790682 237.061875 
L 194.58046 237.567363 
L 195.370238 240.364751 
L 196.949794 236.507874 
L 197.739571 237.552768 
L 198.529349 239.030897 
L 199.319127 237.995664 
L 200.108905 236.50352 
L 200.898683 235.677093 
L 201.688461 239.732624 
L 202.478239 238.46962 
L 203.268017 236.944038 
L 204.057794 235.959953 
L 204.847572 238.883447 
L 205.63735 236.649738 
L 206.427128 237.069165 
L 207.216906 236.766402 
L 208.006684 239.708353 
L 208.796462 240.457725 
L 209.586239 238.105072 
L 210.376017 240.086313 
L 211.165795 238.557493 
L 211.955573 240.36932 
L 212.745351 241.389434 
L 213.535129 240.923152 
L 214.324907 236.004685 
L 215.114684 241.116026 
L 215.904462 240.562747 
L 216.69424 234.168921 
L 217.484018 229.293021 
L 218.273796 240.807219 
L 219.063574 237.043208 
L 219.853352 231.87923 
L 220.64313 237.037086 
L 221.432907 240.331315 
L 222.222685 237.108485 
L 223.012463 234.568221 
L 223.802241 242.083239 
L 224.592019 241.186063 
L 225.381797 232.590651 
L 226.171575 227.499648 
L 226.961352 241.700058 
L 228.540908 232.933372 
L 230.120464 239.657186 
L 230.910242 235.945394 
L 231.70002 239.822997 
L 232.489798 238.631792 
L 233.279575 238.891369 
L 234.069353 238.237429 
L 234.859131 234.395843 
L 235.648909 235.060361 
L 236.438687 240.812969 
L 237.228465 239.460053 
L 238.018243 229.934829 
L 238.80802 233.099039 
L 239.597798 240.279177 
L 240.387576 236.314559 
L 241.177354 233.726568 
L 241.967132 241.077599 
L 242.75691 235.78454 
L 243.546688 233.916144 
L 244.336466 241.924578 
L 245.126243 239.759208 
L 245.916021 234.91916 
L 246.705799 234.826594 
L 247.495577 237.000314 
L 248.285355 238.269883 
L 249.075133 240.687354 
L 249.864911 240.371744 
L 250.654688 241.985511 
L 251.444466 239.577868 
L 252.234244 241.498068 
L 253.024022 240.713912 
L 253.8138 241.361769 
L 254.603578 239.712201 
L 255.393356 240.594082 
L 256.183133 241.841826 
L 256.972911 240.150979 
L 257.762689 241.790494 
L 258.552467 241.371398 
L 259.342245 238.9109 
L 260.921801 242.115898 
L 261.711579 240.73528 
L 263.291134 241.124238 
L 264.080912 238.435108 
L 264.87069 242.09675 
L 265.660468 241.91446 
L 266.450246 238.831664 
L 267.240024 240.639223 
L 268.029801 241.382022 
L 268.819579 241.064 
L 269.609357 236.751189 
L 270.399135 235.752249 
L 271.188913 238.59228 
L 271.978691 240.559173 
L 272.768469 237.970635 
L 273.558247 241.75382 
L 274.348024 240.194488 
L 275.137802 241.02769 
L 275.92758 239.76279 
L 276.717358 241.037413 
L 277.507136 241.163045 
L 278.296914 241.820907 
L 279.086692 240.635303 
L 279.876469 239.913157 
L 280.666247 219.35766 
L 281.456025 239.078296 
L 282.245803 231.829315 
L 283.035581 233.937449 
L 283.825359 232.422483 
L 284.615137 240.138046 
L 285.404914 241.380972 
L 286.194692 241.730117 
L 286.98447 241.134111 
L 287.774248 236.755119 
L 288.564026 241.457004 
L 289.353804 241.877745 
L 290.143582 233.54043 
L 290.93336 234.758399 
L 291.723137 241.830367 
L 292.512915 238.811668 
L 293.302693 241.559575 
L 294.092471 234.895044 
L 294.882249 232.662963 
L 295.672027 241.026865 
L 296.461805 240.452166 
L 297.251582 237.135333 
L 298.04136 237.145939 
L 298.831138 237.605553 
L 299.620916 240.175916 
L 300.410694 235.41559 
L 301.200472 236.403717 
L 301.99025 239.302699 
L 302.780028 236.228785 
L 303.569805 237.80024 
L 304.359583 237.946482 
L 305.149361 240.418385 
L 306.728917 237.990723 
L 307.518695 238.258979 
L 308.308473 238.002468 
L 309.09825 238.489005 
L 309.888028 238.104183 
L 310.677806 238.913439 
L 311.467584 238.944471 
L 312.257362 233.244151 
L 313.04714 232.732731 
L 313.836918 237.420426 
L 314.626695 239.485275 
L 315.416473 239.525812 
L 316.206251 240.214243 
L 316.996029 238.396024 
L 317.785807 241.128468 
L 318.575585 241.584937 
L 319.365363 241.538394 
L 320.155141 240.16515 
L 320.944918 240.434682 
L 321.734696 236.990771 
L 322.524474 237.371097 
L 323.314252 235.987808 
L 324.10403 239.006218 
L 324.893808 239.175693 
L 325.683586 237.686942 
L 326.473363 239.466278 
L 327.263141 237.202525 
L 328.052919 241.128766 
L 328.842697 241.818405 
L 329.632475 241.334462 
L 330.422253 242.027222 
L 331.212031 241.623456 
L 332.001809 238.554993 
L 332.791586 242.02265 
L 333.581364 240.891359 
L 334.371142 240.002231 
L 335.16092 240.446978 
L 335.950698 240.284916 
L 336.740476 242.050035 
L 337.530254 241.061893 
L 338.320031 242.049285 
L 339.109809 241.581574 
L 339.899587 242.063237 
L 340.689365 241.642209 
L 341.479143 241.633612 
L 342.268921 241.907187 
L 343.058699 241.553999 
L 343.848477 240.055625 
L 344.638254 241.972145 
L 345.428032 241.147745 
L 346.21781 240.990231 
L 347.007588 241.966208 
L 347.797366 241.511373 
L 348.587144 241.345069 
L 349.376922 241.990887 
L 350.166699 241.678706 
L 350.956477 241.975356 
L 351.746255 241.462426 
L 352.536033 241.671893 
L 353.325811 241.121322 
L 354.115589 241.569883 
L 354.905367 240.607228 
L 355.695144 241.636056 
L 356.484922 241.862637 
L 357.2747 241.869839 
L 358.064478 241.756372 
L 358.854256 240.245146 
L 359.644034 240.340579 
L 360.433812 241.356835 
L 361.22359 240.821333 
L 362.013367 241.627474 
L 362.803145 241.898316 
L 363.592923 241.04041 
L 364.382701 240.57362 
L 365.172479 241.7103 
L 365.962257 241.564966 
L 366.752035 241.99999 
L 367.541812 241.841801 
L 368.33159 241.806296 
L 369.121368 237.976904 
L 369.911146 242.021532 
L 370.700924 242.077459 
L 371.490702 241.021629 
L 372.28048 240.558662 
L 373.070258 241.412724 
L 373.860035 241.799318 
L 374.649813 240.142516 
L 375.439591 241.017781 
L 377.019147 241.868306 
L 377.808925 241.507277 
L 378.598703 241.999032 
L 379.38848 242.013172 
L 380.178258 241.716195 
L 380.968036 241.180342 
L 381.757814 241.868496 
L 382.547592 241.242417 
L 383.33737 241.354242 
L 384.127148 242.087235 
L 384.916925 241.831778 
L 385.706703 242.011993 
L 386.496481 241.898107 
L 388.076037 240.794789 
L 388.865815 242.099788 
L 389.655593 242.017479 
L 390.445371 241.560314 
L 391.235148 239.7717 
L 392.024926 242.102153 
L 392.814704 240.840318 
L 393.604482 241.899854 
L 394.39426 240.722946 
L 395.184038 241.567214 
L 395.973816 242.112993 
L 396.763593 241.776459 
L 397.553371 240.377581 
L 398.343149 241.570332 
L 399.132927 242.073991 
L 399.922705 241.198379 
L 400.712483 241.864182 
L 401.502261 241.906202 
L 402.292039 241.4391 
L 403.081816 242.110878 
L 403.871594 241.276665 
L 404.661372 241.469538 
L 405.45115 242.077574 
L 406.240928 241.995485 
L 407.030706 242.074711 
L 407.820484 241.073371 
L 408.610261 241.302271 
L 409.400039 241.709392 
L 410.189817 241.609385 
L 410.979595 239.694723 
L 411.769373 241.66726 
L 412.559151 241.461848 
L 413.348929 241.498436 
L 414.138707 242.107831 
L 414.928484 241.255871 
L 415.718262 241.16513 
L 416.50804 240.684405 
L 417.297818 241.327017 
L 418.087596 241.706677 
L 418.877374 241.196174 
L 419.667152 241.677989 
L 420.456929 242.019877 
L 421.246707 241.984902 
L 422.036485 241.642046 
L 422.826263 241.881577 
L 423.616041 241.961137 
L 424.405819 241.505972 
L 425.195597 242.083216 
L 425.985374 241.624845 
L 426.775152 241.882308 
L 427.56493 241.874822 
L 428.354708 240.66457 
L 429.144486 240.279919 
L 429.934264 242.077933 
L 430.724042 240.0746 
L 431.51382 240.837752 
L 432.303597 240.399074 
L 433 241.730379 
M 433 242.116363 
L -1 242.116363 
L -1 242.116363 
" clip-path="url(#p27289ba327)" style="fill: none; stroke: #4c72b0; stroke-opacity: 0.3; stroke-width: 1.5; stroke-linecap: round"/>
   </g>
   <g id="line2d_16">
    <path d="M 54 242.078494 
L 155.091567 241.977345 
L 160.620012 241.767929 
L 161.40979 241.62185 
L 162.989345 241.650146 
L 163.779123 241.323135 
L 164.568901 241.366616 
L 166.148457 241.11828 
L 166.938235 241.197081 
L 169.307568 240.819759 
L 171.676902 240.208585 
L 172.46668 240.297567 
L 174.046236 240.04968 
L 174.836013 238.858203 
L 175.625791 240.135468 
L 176.415569 240.077079 
L 177.205347 239.03935 
L 177.995125 239.312846 
L 178.784903 239.230577 
L 179.574681 239.53118 
L 180.364458 239.320145 
L 181.154236 239.607567 
L 181.944014 238.835724 
L 182.733792 238.320094 
L 183.52357 238.668255 
L 184.313348 236.923845 
L 185.103126 239.578661 
L 185.892903 239.416898 
L 186.682681 240.208308 
L 187.472459 237.773903 
L 188.262237 236.887159 
L 189.052015 239.477268 
L 189.841793 237.093792 
L 190.631571 238.102108 
L 191.421349 240.473222 
L 192.211126 240.298534 
L 193.000904 239.021708 
L 193.790682 240.261807 
L 195.370238 239.815912 
L 196.160016 239.11376 
L 196.949794 237.150907 
L 197.739571 239.041774 
L 198.529349 238.53642 
L 199.319127 240.757549 
L 200.108905 240.621976 
L 200.898683 241.554829 
L 201.688461 237.535095 
L 202.478239 237.753479 
L 203.268017 241.360546 
L 204.057794 240.880449 
L 204.847572 241.396908 
L 205.63735 238.686219 
L 206.427128 240.476885 
L 207.216906 241.199662 
L 208.006684 240.272739 
L 208.796462 238.365969 
L 210.376017 239.934234 
L 211.165795 239.002123 
L 212.745351 240.570768 
L 213.535129 241.490549 
L 214.324907 239.714934 
L 215.114684 238.260936 
L 215.904462 239.318601 
L 216.69424 239.370082 
L 217.484018 240.610761 
L 218.273796 240.574362 
L 219.063574 240.317005 
L 219.853352 241.592464 
L 220.64313 241.58118 
L 221.432907 240.63466 
L 222.222685 241.639936 
L 223.012463 241.876854 
L 223.802241 241.526192 
L 224.592019 241.758041 
L 225.381797 241.14713 
L 226.171575 240.737212 
L 226.961352 241.548081 
L 227.75113 240.307802 
L 228.540908 240.745248 
L 229.330686 239.941431 
L 230.120464 241.840279 
L 230.910242 240.847691 
L 231.70002 236.661007 
L 232.489798 242.060963 
L 233.279575 240.866638 
L 234.069353 240.938909 
L 234.859131 237.711629 
L 235.648909 239.329103 
L 237.228465 241.086073 
L 238.018243 239.835916 
L 238.80802 236.905794 
L 240.387576 239.468303 
L 241.177354 239.243684 
L 241.967132 239.242276 
L 242.75691 238.685569 
L 243.546688 235.867464 
L 244.336466 238.889485 
L 245.126243 240.017898 
L 245.916021 239.960063 
L 246.705799 238.463013 
L 247.495577 236.111672 
L 248.285355 240.327121 
L 249.075133 240.534005 
L 249.864911 238.927596 
L 250.654688 239.482686 
L 251.444466 238.064282 
L 252.234244 235.837106 
L 253.024022 232.243805 
L 254.603578 241.089677 
L 255.393356 235.85231 
L 256.183133 233.535128 
L 256.972911 238.533611 
L 257.762689 236.68325 
L 258.552467 238.774605 
L 259.342245 232.44002 
L 260.132023 237.353864 
L 260.921801 230.599196 
L 261.711579 235.30638 
L 262.501356 231.369575 
L 263.291134 236.33267 
L 264.080912 227.392963 
L 264.87069 233.250629 
L 265.660468 233.753916 
L 266.450246 228.974809 
L 267.240024 238.761613 
L 268.029801 230.743814 
L 268.819579 226.425661 
L 269.609357 227.769366 
L 270.399135 232.589677 
L 271.188913 229.480089 
L 271.978691 227.501062 
L 272.768469 236.579765 
L 273.558247 234.944807 
L 274.348024 230.621843 
L 275.137802 236.914735 
L 275.92758 238.489541 
L 276.717358 235.26987 
L 277.507136 233.957015 
L 278.296914 234.042852 
L 279.086692 234.395811 
L 279.876469 239.023885 
L 280.666247 213.509109 
L 281.456025 230.735145 
L 282.245803 210.978736 
L 283.035581 225.747584 
L 283.825359 236.85784 
L 284.615137 221.464535 
L 285.404914 238.021929 
L 286.194692 239.540603 
L 286.98447 223.869003 
L 287.774248 237.184743 
L 288.564026 239.87734 
L 289.353804 239.429455 
L 290.143582 232.964059 
L 290.93336 232.22407 
L 291.723137 238.949467 
L 292.512915 234.642592 
L 293.302693 236.760352 
L 294.092471 235.195649 
L 294.882249 231.550419 
L 296.461805 235.667153 
L 297.251582 229.010878 
L 298.04136 231.249288 
L 298.831138 225.102403 
L 299.620916 235.958559 
L 300.410694 230.812006 
L 301.99025 234.402976 
L 302.780028 229.657593 
L 303.569805 229.893076 
L 304.359583 236.053067 
L 305.149361 240.535461 
L 305.939139 229.149907 
L 306.728917 237.222862 
L 307.518695 235.18879 
L 308.308473 225.51472 
L 309.09825 231.157386 
L 309.888028 235.167761 
L 310.677806 236.570871 
L 311.467584 236.847593 
L 312.257362 238.285364 
L 313.04714 239.992093 
L 314.626695 235.767358 
L 315.416473 240.155001 
L 316.206251 235.03855 
L 316.996029 236.160349 
L 317.785807 238.37229 
L 318.575585 239.084764 
L 319.365363 240.615608 
L 320.155141 241.081315 
L 320.944918 240.549649 
L 321.734696 241.581211 
L 322.524474 235.084045 
L 323.314252 238.236146 
L 324.10403 240.888217 
L 324.893808 240.91972 
L 325.683586 241.984734 
L 326.473363 235.095224 
L 327.263141 241.296149 
L 328.052919 240.203599 
L 328.842697 241.054927 
L 329.632475 239.886387 
L 330.422253 240.99089 
L 331.212031 240.879924 
L 332.001809 240.927312 
L 333.581364 241.610274 
L 335.16092 241.690321 
L 335.950698 239.139591 
L 336.740476 240.885679 
L 337.530254 240.974937 
L 338.320031 241.992942 
L 339.109809 239.837161 
L 339.899587 241.935066 
L 340.689365 238.28175 
L 341.479143 241.310541 
L 342.268921 241.282147 
L 343.058699 241.913496 
L 343.848477 241.255588 
L 344.638254 237.42176 
L 345.428032 241.721266 
L 346.21781 242.050362 
L 347.007588 241.238979 
L 347.797366 240.688184 
L 348.587144 237.688321 
L 349.376922 239.892209 
L 350.956477 241.722603 
L 351.746255 241.847496 
L 352.536033 241.653201 
L 353.325811 241.845028 
L 354.115589 241.589071 
L 354.905367 241.498915 
L 355.695144 240.244207 
L 356.484922 242.039632 
L 357.2747 240.421991 
L 358.064478 241.472366 
L 358.854256 238.809746 
L 359.644034 242.006253 
L 360.433812 238.977233 
L 361.22359 238.979733 
L 362.013367 241.850782 
L 362.803145 240.292208 
L 363.592923 240.552495 
L 364.382701 240.538866 
L 365.172479 242.070785 
L 365.962257 240.390728 
L 366.752035 239.911078 
L 367.541812 239.785564 
L 368.33159 241.400754 
L 369.121368 240.732593 
L 369.911146 241.907942 
L 370.700924 240.842058 
L 373.070258 241.660572 
L 373.860035 241.503762 
L 374.649813 241.562585 
L 375.439591 238.34983 
L 376.229369 241.339848 
L 377.019147 241.437776 
L 377.808925 241.325883 
L 378.598703 240.337045 
L 379.38848 241.46346 
L 380.178258 240.563242 
L 380.968036 239.230138 
L 381.757814 241.648514 
L 382.547592 239.314924 
L 383.33737 241.93899 
L 384.127148 240.993641 
L 384.916925 241.417342 
L 385.706703 240.873546 
L 386.496481 241.853955 
L 387.286259 240.803974 
L 388.076037 241.341239 
L 388.865815 239.556406 
L 389.655593 241.368997 
L 390.445371 242.097712 
L 391.235148 240.59131 
L 392.024926 238.781923 
L 392.814704 240.165326 
L 393.604482 240.174666 
L 394.39426 238.515414 
L 395.184038 241.310857 
L 395.973816 240.613115 
L 396.763593 239.002312 
L 397.553371 239.611585 
L 398.343149 241.572503 
L 399.132927 239.588913 
L 399.922705 242.114861 
L 401.502261 241.85919 
L 402.292039 242.014051 
L 403.081816 241.713738 
L 403.871594 240.864947 
L 404.661372 240.586182 
L 405.45115 242.073095 
L 406.240928 240.604235 
L 407.030706 241.823865 
L 410.189817 242.053629 
L 411.769373 241.643069 
L 412.559151 241.230005 
L 413.348929 241.154193 
L 414.138707 241.636424 
L 414.928484 241.916416 
L 415.718262 240.441017 
L 416.50804 241.475133 
L 417.297818 241.716256 
L 418.087596 241.556938 
L 418.877374 241.890869 
L 419.667152 241.239468 
L 420.456929 241.086104 
L 421.246707 241.743316 
L 422.036485 239.80904 
L 422.826263 241.151289 
L 423.616041 240.636549 
L 424.405819 241.738487 
L 425.195597 241.998937 
L 425.985374 239.884251 
L 426.775152 241.324995 
L 427.56493 240.59231 
L 428.354708 239.502091 
L 429.144486 241.510646 
L 429.934264 241.34383 
L 430.724042 240.765899 
L 431.51382 239.957467 
L 432.303597 240.920309 
L 433 240.188296 
M 433 242.116362 
L -1 242.116362 
L -1 242.116362 
" clip-path="url(#p27289ba327)" style="fill: none; stroke: #dd8452; stroke-opacity: 0.3; stroke-width: 1.5; stroke-linecap: round"/>
   </g>
   <g id="line2d_17">
    <path d="M 54 242.116364 
L 433 242.116364 
M 433 242.116364 
L -1 242.116364 
L -1 242.116364 
" clip-path="url(#p27289ba327)" style="fill: none; stroke: #55a868; stroke-opacity: 0.3; stroke-width: 1.5; stroke-linecap: round"/>
   </g>
   <g id="line2d_18">
    <path d="M 54 242.116216 
L 172.46668 242.070623 
L 173.256458 241.865365 
L 176.415569 242.021558 
L 177.995125 241.847575 
L 178.784903 242.057978 
L 183.52357 242.023635 
L 184.313348 241.787237 
L 185.103126 241.997771 
L 185.892903 241.952655 
L 186.682681 241.738232 
L 187.472459 242.060728 
L 189.841793 242.065494 
L 190.631571 241.429172 
L 191.421349 241.615208 
L 192.211126 241.637083 
L 193.790682 241.930573 
L 194.58046 241.532341 
L 195.370238 241.331332 
L 196.160016 241.821326 
L 196.949794 241.985323 
L 197.739571 241.430619 
L 198.529349 241.176808 
L 199.319127 241.882132 
L 200.108905 241.537391 
L 200.898683 241.553184 
L 201.688461 242.078718 
L 202.478239 239.69055 
L 203.268017 240.839494 
L 204.057794 241.662685 
L 204.847572 241.577666 
L 205.63735 241.095132 
L 206.427128 240.849661 
L 207.216906 241.775664 
L 208.006684 241.543144 
L 208.796462 241.026941 
L 209.586239 241.997845 
L 210.376017 241.943246 
L 211.165795 241.106231 
L 211.955573 241.168372 
L 212.745351 241.353739 
L 213.535129 240.153901 
L 214.324907 239.853982 
L 215.114684 239.233887 
L 215.904462 241.996129 
L 216.69424 239.951663 
L 217.484018 238.850346 
L 218.273796 241.418056 
L 219.063574 241.491031 
L 219.853352 236.356518 
L 220.64313 242.067195 
L 221.432907 241.493792 
L 222.222685 238.175584 
L 223.012463 236.766298 
L 223.802241 241.118578 
L 224.592019 242.09741 
L 225.381797 242.045284 
L 226.961352 240.085406 
L 227.75113 240.785694 
L 228.540908 241.823633 
L 229.330686 240.918724 
L 230.120464 241.760775 
L 230.910242 240.10597 
L 231.70002 241.615248 
L 232.489798 241.483469 
L 233.279575 240.048431 
L 234.069353 242.02589 
L 234.859131 241.999385 
L 235.648909 240.869523 
L 236.438687 241.360366 
L 237.228465 240.554891 
L 238.018243 238.173007 
L 238.80802 241.666554 
L 239.597798 240.343893 
L 240.387576 242.058186 
L 241.177354 240.987441 
L 241.967132 241.679889 
L 242.75691 240.688982 
L 243.546688 240.848552 
L 244.336466 240.197583 
L 245.126243 239.099333 
L 245.916021 235.73943 
L 246.705799 236.318414 
L 247.495577 241.583638 
L 248.285355 241.619166 
L 249.075133 240.843715 
L 249.864911 241.397335 
L 250.654688 240.214868 
L 251.444466 240.253324 
L 252.234244 239.299113 
L 253.024022 241.724564 
L 253.8138 239.890921 
L 254.603578 238.543601 
L 255.393356 242.073958 
L 256.183133 240.582231 
L 256.972911 240.293566 
L 257.762689 242.025961 
L 258.552467 239.375573 
L 259.342245 241.576637 
L 260.132023 241.422061 
L 260.921801 241.932542 
L 261.711579 239.687763 
L 262.501356 240.109577 
L 263.291134 241.782969 
L 264.080912 241.361599 
L 264.87069 240.499942 
L 265.660468 242.027936 
L 266.450246 240.030344 
L 267.240024 241.899614 
L 268.029801 240.767605 
L 268.819579 241.437322 
L 269.609357 241.463047 
L 270.399135 241.867435 
L 271.188913 242.080815 
L 271.978691 242.100431 
L 272.768469 241.022803 
L 273.558247 234.538075 
L 274.348024 241.519458 
L 275.137802 241.108607 
L 275.92758 240.505958 
L 276.717358 234.736687 
L 277.507136 241.859137 
L 278.296914 236.988667 
L 279.086692 212.850329 
L 279.876469 216.433685 
L 280.666247 167.713849 
L 281.456025 241.003365 
L 282.245803 188.190902 
L 283.035581 227.40406 
L 283.825359 177.262302 
L 284.615137 191.888979 
L 285.404914 223.88145 
L 286.194692 221.24401 
L 286.98447 219.241788 
L 287.774248 238.801957 
L 288.564026 238.529987 
L 289.353804 234.879497 
L 290.143582 237.475945 
L 290.93336 239.687906 
L 291.723137 239.660567 
L 292.512915 231.953798 
L 293.302693 235.67835 
L 294.092471 233.777106 
L 294.882249 214.920547 
L 295.672027 229.481686 
L 296.461805 228.583896 
L 297.251582 232.089249 
L 298.831138 222.518393 
L 299.620916 230.27042 
L 300.410694 234.759289 
L 301.200472 237.49944 
L 301.99025 225.32331 
L 302.780028 219.377084 
L 303.569805 234.438605 
L 304.359583 234.447889 
L 305.149361 231.384766 
L 305.939139 235.059946 
L 306.728917 237.255442 
L 307.518695 234.727527 
L 308.308473 233.891928 
L 309.09825 239.395101 
L 309.888028 237.26812 
L 310.677806 238.692393 
L 311.467584 236.782042 
L 312.257362 232.817607 
L 313.04714 235.733408 
L 313.836918 240.88889 
L 314.626695 238.955636 
L 315.416473 238.406162 
L 316.206251 241.530334 
L 316.996029 238.832533 
L 317.785807 234.583222 
L 318.575585 240.397073 
L 319.365363 237.604446 
L 320.155141 240.676127 
L 320.944918 241.569634 
L 321.734696 241.943217 
L 322.524474 240.979242 
L 323.314252 239.760646 
L 324.10403 242.051215 
L 324.893808 241.445752 
L 325.683586 241.660614 
L 326.473363 241.665314 
L 327.263141 238.801253 
L 328.052919 240.696941 
L 328.842697 241.702151 
L 329.632475 242.027638 
L 330.422253 241.929042 
L 331.212031 241.945174 
L 332.001809 241.277426 
L 332.791586 241.644948 
L 333.581364 241.864485 
L 334.371142 238.193728 
L 335.16092 241.442476 
L 335.950698 241.911715 
L 336.740476 241.606462 
L 337.530254 240.854568 
L 338.320031 238.602302 
L 339.109809 240.894964 
L 339.899587 241.307879 
L 340.689365 241.442367 
L 341.479143 240.500009 
L 342.268921 242.025163 
L 343.058699 242.07667 
L 343.848477 241.329283 
L 344.638254 241.677608 
L 345.428032 241.022571 
L 346.21781 240.908426 
L 347.007588 241.682585 
L 347.797366 241.827132 
L 348.587144 240.14863 
L 349.376922 241.022919 
L 350.166699 242.084393 
L 350.956477 239.968426 
L 351.746255 241.633272 
L 352.536033 239.711921 
L 353.325811 241.879918 
L 354.115589 240.373784 
L 354.905367 237.504718 
L 355.695144 242.073921 
L 356.484922 240.78324 
L 357.2747 241.767276 
L 358.064478 242.012897 
L 358.854256 242.026992 
L 359.644034 241.81002 
L 360.433812 241.417153 
L 361.22359 241.240243 
L 362.013367 241.87831 
L 362.803145 240.606532 
L 363.592923 240.177356 
L 364.382701 241.737079 
L 365.962257 240.245322 
L 366.752035 240.949841 
L 367.541812 241.949488 
L 369.121368 242.112008 
L 369.911146 242.079206 
L 370.700924 241.699553 
L 371.490702 240.914247 
L 372.28048 241.671164 
L 373.070258 241.508385 
L 373.860035 241.822691 
L 374.649813 241.448409 
L 375.439591 241.256048 
L 376.229369 241.283319 
L 377.808925 241.860571 
L 378.598703 240.923347 
L 379.38848 241.88285 
L 380.178258 241.620655 
L 380.968036 241.508145 
L 381.757814 240.568671 
L 383.33737 241.429648 
L 384.127148 240.579981 
L 384.916925 240.938639 
L 385.706703 241.782901 
L 386.496481 241.509503 
L 387.286259 240.00816 
L 388.076037 240.272856 
L 388.865815 241.602478 
L 389.655593 242.006608 
L 390.445371 241.961931 
L 391.235148 239.651041 
L 392.024926 241.42537 
L 392.814704 241.752014 
L 393.604482 241.472734 
L 394.39426 241.973039 
L 396.763593 242.018118 
L 397.553371 241.725131 
L 398.343149 241.866363 
L 399.132927 241.579717 
L 399.922705 241.819308 
L 401.502261 242.11621 
L 402.292039 239.439543 
L 403.081816 241.28508 
L 403.871594 240.97924 
L 404.661372 239.660089 
L 405.45115 241.510759 
L 407.030706 242.082617 
L 407.820484 241.65836 
L 408.610261 241.952736 
L 409.400039 241.034323 
L 410.189817 240.701451 
L 410.979595 240.574859 
L 411.769373 241.105994 
L 412.559151 241.472427 
L 413.348929 242.004844 
L 414.928484 242.096114 
L 417.297818 241.819855 
L 418.087596 241.597966 
L 418.877374 241.811089 
L 419.667152 241.460027 
L 420.456929 241.527138 
L 421.246707 241.807054 
L 422.826263 241.812969 
L 423.616041 240.817275 
L 424.405819 241.915498 
L 425.195597 241.596051 
L 425.985374 241.408615 
L 426.775152 241.517161 
L 427.56493 242.055401 
L 428.354708 241.579655 
L 429.144486 242.028746 
L 429.934264 240.811892 
L 430.724042 241.54783 
L 431.51382 241.969116 
L 432.303597 241.181267 
L 433 241.884855 
M 433 242.116364 
L -1 242.116364 
L -1 242.116364 
" clip-path="url(#p27289ba327)" style="fill: none; stroke: #c44e52; stroke-opacity: 0.3; stroke-width: 1.5; stroke-linecap: round"/>
   </g>
   <g id="line2d_19">
    <path d="M 54 242.113652 
L 169.307568 242.096768 
L 170.097346 241.994287 
L 171.676902 242.0852 
L 177.995125 242.049324 
L 178.784903 241.733301 
L 180.364458 241.69832 
L 181.154236 241.84697 
L 181.944014 241.605201 
L 182.733792 241.786507 
L 183.52357 241.716649 
L 184.313348 242.027179 
L 185.103126 241.871517 
L 185.892903 241.921058 
L 186.682681 241.630601 
L 188.262237 241.97917 
L 189.841793 241.708026 
L 190.631571 241.936282 
L 191.421349 240.902064 
L 192.211126 241.062765 
L 193.000904 241.717748 
L 193.790682 240.75086 
L 194.58046 241.230244 
L 195.370238 241.912334 
L 196.160016 242.048205 
L 197.739571 241.306182 
L 198.529349 241.936652 
L 199.319127 242.09624 
L 200.898683 241.601822 
L 201.688461 241.624907 
L 202.478239 241.523587 
L 203.268017 241.090589 
L 204.057794 241.077828 
L 204.847572 241.273339 
L 205.63735 241.806624 
L 206.427128 241.873841 
L 207.216906 240.873574 
L 208.006684 241.867969 
L 208.796462 240.896878 
L 211.165795 242.069146 
L 211.955573 241.968875 
L 212.745351 242.075629 
L 213.535129 241.551141 
L 214.324907 241.163272 
L 215.114684 242.031285 
L 215.904462 241.498554 
L 216.69424 241.22852 
L 217.484018 241.395308 
L 218.273796 240.866417 
L 219.063574 241.577309 
L 219.853352 236.561375 
L 220.64313 239.839337 
L 221.432907 241.749161 
L 222.222685 241.774047 
L 223.012463 241.560174 
L 223.802241 240.662032 
L 224.592019 240.749251 
L 225.381797 240.560312 
L 226.171575 241.299879 
L 226.961352 241.213915 
L 228.540908 239.728134 
L 229.330686 239.297603 
L 230.120464 234.403043 
L 231.70002 241.922343 
L 232.489798 241.081715 
L 233.279575 238.641047 
L 234.069353 241.385516 
L 234.859131 238.743073 
L 235.648909 241.667178 
L 236.438687 237.440552 
L 237.228465 236.376503 
L 238.018243 241.490132 
L 238.80802 239.41501 
L 239.597798 241.837349 
L 240.387576 241.553174 
L 241.177354 241.586968 
L 241.967132 242.094619 
L 242.75691 240.712643 
L 243.546688 239.019813 
L 244.336466 237.917919 
L 245.126243 236.490945 
L 246.705799 235.144127 
L 247.495577 240.140698 
L 248.285355 236.965311 
L 249.075133 238.984987 
L 249.864911 239.816011 
L 250.654688 240.013592 
L 251.444466 241.989094 
L 253.024022 240.321949 
L 253.8138 240.828722 
L 254.603578 241.945242 
L 255.393356 237.294702 
L 256.183133 236.070822 
L 256.972911 231.865419 
L 257.762689 241.683486 
L 258.552467 241.411608 
L 259.342245 239.786678 
L 260.132023 240.997264 
L 260.921801 241.949859 
L 261.711579 239.43761 
L 262.501356 239.377508 
L 263.291134 238.83022 
L 264.080912 241.912078 
L 264.87069 239.686568 
L 265.660468 241.757361 
L 267.240024 241.912533 
L 268.029801 241.118847 
L 268.819579 239.831536 
L 269.609357 239.681405 
L 270.399135 229.598818 
L 271.188913 228.980916 
L 271.978691 232.215419 
L 272.768469 237.701431 
L 273.558247 241.657295 
L 274.348024 241.951408 
L 275.137802 239.10792 
L 275.92758 234.575294 
L 276.717358 232.065848 
L 277.507136 242.069565 
L 278.296914 241.072276 
L 279.086692 191.033519 
L 279.876469 44.443636 
L 280.666247 82.38918 
L 281.456025 221.554538 
L 282.245803 125.656217 
L 283.035581 228.919964 
L 283.825359 153.592467 
L 284.615137 140.010922 
L 285.404914 196.268976 
L 286.194692 181.844301 
L 287.774248 224.320175 
L 288.564026 220.601667 
L 289.353804 220.171268 
L 290.143582 230.364915 
L 290.93336 224.977299 
L 291.723137 218.365307 
L 292.512915 221.404515 
L 293.302693 236.606503 
L 294.092471 230.877177 
L 294.882249 230.149057 
L 295.672027 230.020664 
L 296.461805 221.293807 
L 297.251582 226.370995 
L 298.04136 225.210617 
L 298.831138 227.061856 
L 299.620916 231.390271 
L 300.410694 232.054468 
L 301.200472 231.221949 
L 301.99025 240.783823 
L 302.780028 239.894104 
L 303.569805 241.920635 
L 304.359583 241.377125 
L 305.149361 237.827817 
L 305.939139 239.152328 
L 306.728917 235.256806 
L 307.518695 239.767519 
L 308.308473 241.136858 
L 309.09825 234.254814 
L 309.888028 237.494927 
L 310.677806 237.140512 
L 311.467584 241.66167 
L 312.257362 242.060714 
L 313.04714 240.217302 
L 313.836918 237.815298 
L 314.626695 241.198076 
L 316.206251 241.801089 
L 316.996029 241.483246 
L 317.785807 241.596813 
L 318.575585 239.832048 
L 319.365363 240.367756 
L 320.155141 241.257839 
L 320.944918 241.788435 
L 321.734696 239.792746 
L 322.524474 242.0986 
L 323.314252 240.849156 
L 324.10403 241.875711 
L 324.893808 241.179937 
L 325.683586 240.201249 
L 326.473363 241.738831 
L 327.263141 239.966868 
L 328.052919 241.908566 
L 328.842697 242.103397 
L 329.632475 241.205498 
L 330.422253 241.135051 
L 331.212031 239.815119 
L 332.001809 240.102201 
L 332.791586 238.264206 
L 333.581364 241.040607 
L 334.371142 240.368943 
L 335.950698 240.108829 
L 336.740476 241.482039 
L 337.530254 241.929666 
L 338.320031 240.897509 
L 339.109809 239.350187 
L 339.899587 239.973322 
L 341.479143 241.556997 
L 342.268921 241.241482 
L 343.058699 237.465652 
L 343.848477 239.579559 
L 344.638254 240.792096 
L 345.428032 240.520242 
L 346.21781 242.089654 
L 347.007588 240.200604 
L 347.797366 239.397164 
L 348.587144 241.218577 
L 349.376922 238.791738 
L 350.166699 241.571575 
L 350.956477 241.080379 
L 351.746255 241.781067 
L 352.536033 241.373442 
L 353.325811 241.955564 
L 354.115589 241.646345 
L 354.905367 240.555739 
L 355.695144 241.692288 
L 356.484922 240.352305 
L 357.2747 238.291206 
L 358.064478 237.01869 
L 358.854256 239.513687 
L 359.644034 241.252604 
L 360.433812 241.952003 
L 361.22359 242.04496 
L 362.013367 241.323774 
L 362.803145 240.339429 
L 364.382701 241.189175 
L 365.172479 241.412536 
L 365.962257 241.884268 
L 366.752035 239.288632 
L 367.541812 241.861541 
L 368.33159 241.239723 
L 369.121368 241.798848 
L 369.911146 241.850189 
L 370.700924 241.405723 
L 371.490702 241.751022 
L 372.28048 238.688808 
L 373.070258 240.940344 
L 373.860035 242.002216 
L 374.649813 241.177114 
L 375.439591 241.806645 
L 376.229369 240.588476 
L 377.808925 241.079312 
L 378.598703 240.668631 
L 379.38848 241.924356 
L 380.178258 241.255732 
L 380.968036 241.712912 
L 381.757814 241.255705 
L 382.547592 240.493871 
L 383.33737 241.863598 
L 384.127148 241.653298 
L 384.916925 241.775466 
L 385.706703 241.161078 
L 386.496481 239.246807 
L 387.286259 240.107806 
L 388.076037 238.929795 
L 388.865815 241.71389 
L 389.655593 241.25886 
L 390.445371 240.24449 
L 391.235148 241.789281 
L 392.024926 241.873998 
L 392.814704 241.668218 
L 393.604482 242.048685 
L 395.184038 241.432729 
L 395.973816 236.934537 
L 396.763593 241.357688 
L 397.553371 241.411331 
L 398.343149 240.223426 
L 399.132927 242.112064 
L 399.922705 239.918108 
L 400.712483 241.602701 
L 401.502261 241.006115 
L 402.292039 241.966159 
L 403.081816 240.80771 
L 403.871594 241.502612 
L 404.661372 240.493652 
L 405.45115 241.967597 
L 406.240928 241.288158 
L 407.820484 240.795366 
L 408.610261 241.777496 
L 409.400039 240.905729 
L 410.189817 242.030017 
L 411.769373 241.460646 
L 412.559151 241.635076 
L 413.348929 242.010772 
L 414.138707 241.194744 
L 414.928484 241.326125 
L 416.50804 242.067376 
L 417.297818 241.774963 
L 418.087596 241.64128 
L 418.877374 242.080658 
L 419.667152 241.372408 
L 420.456929 241.359821 
L 421.246707 241.867527 
L 422.036485 241.844878 
L 422.826263 240.245868 
L 423.616041 241.796521 
L 424.405819 242.080977 
L 425.195597 241.374262 
L 425.985374 241.838578 
L 426.775152 240.829938 
L 427.56493 240.342574 
L 428.354708 242.07173 
L 429.144486 241.603145 
L 429.934264 242.091843 
L 430.724042 241.517284 
L 431.51382 242.098454 
L 432.303597 241.589244 
L 433 241.713054 
M 433 242.116363 
L -1 242.116363 
L -1 242.116363 
" clip-path="url(#p27289ba327)" style="fill: none; stroke: #8172b3; stroke-opacity: 0.3; stroke-width: 1.5; stroke-linecap: round"/>
   </g>
   <g id="line2d_20">
    <path d="M 54 242.116364 
L 433 242.116364 
M 433 242.116364 
L -1 242.116364 
L -1 242.116364 
" clip-path="url(#p27289ba327)" style="fill: none; stroke: #937860; stroke-opacity: 0.3; stroke-width: 1.5; stroke-linecap: round"/>
   </g>
   <g id="line2d_21">
    <path d="M 54 242.109232 
L 173.256458 242.080679 
L 174.046236 241.945934 
L 175.625791 242.10461 
L 177.205347 242.059889 
L 177.995125 242.114818 
L 178.784903 241.84885 
L 179.574681 242.105659 
L 181.154236 241.75861 
L 182.733792 242.038334 
L 183.52357 242.035449 
L 184.313348 241.837683 
L 185.103126 242.025087 
L 185.892903 242.068864 
L 187.472459 241.906128 
L 188.262237 242.047085 
L 189.052015 241.180262 
L 189.841793 240.863755 
L 190.631571 242.068618 
L 191.421349 241.939803 
L 192.211126 240.762058 
L 193.000904 241.50525 
L 193.790682 241.53361 
L 194.58046 242.070734 
L 195.370238 241.94527 
L 196.160016 242.012581 
L 196.949794 241.552519 
L 197.739571 241.594924 
L 198.529349 241.858224 
L 199.319127 241.67646 
L 200.108905 241.943235 
L 200.898683 242.066939 
L 202.478239 241.260945 
L 203.268017 240.644845 
L 204.057794 241.837145 
L 204.847572 242.016808 
L 206.427128 241.84455 
L 207.216906 241.571473 
L 208.006684 242.108185 
L 208.796462 241.780225 
L 209.586239 241.731896 
L 210.376017 241.431347 
L 211.165795 241.001746 
L 211.955573 242.111916 
L 212.745351 239.627272 
L 213.535129 240.982969 
L 215.114684 241.545623 
L 216.69424 241.51453 
L 217.484018 242.097504 
L 218.273796 241.276134 
L 219.063574 241.140108 
L 219.853352 240.72487 
L 220.64313 240.814751 
L 221.432907 242.058879 
L 222.222685 242.040515 
L 223.012463 241.003441 
L 223.802241 240.82979 
L 224.592019 241.058762 
L 225.381797 242.016849 
L 226.171575 241.427969 
L 226.961352 240.092064 
L 227.75113 242.009296 
L 228.540908 240.762072 
L 229.330686 242.109245 
L 230.120464 240.570881 
L 230.910242 242.083066 
L 231.70002 242.090352 
L 232.489798 241.681883 
L 233.279575 241.633202 
L 234.069353 241.20307 
L 234.859131 240.17618 
L 235.648909 240.466418 
L 236.438687 241.65665 
L 238.018243 240.287763 
L 238.80802 241.938908 
L 239.597798 240.084222 
L 240.387576 242.044948 
L 241.177354 240.79093 
L 241.967132 241.654726 
L 242.75691 241.197929 
L 243.546688 241.829056 
L 244.336466 241.576678 
L 245.916021 242.058016 
L 246.705799 242.109357 
L 247.495577 240.097075 
L 248.285355 241.071451 
L 249.864911 241.412483 
L 250.654688 240.301871 
L 251.444466 242.004488 
L 252.234244 242.096589 
L 253.024022 241.091282 
L 253.8138 240.90101 
L 254.603578 241.48651 
L 255.393356 241.579558 
L 256.183133 241.939478 
L 256.972911 241.868579 
L 257.762689 241.199414 
L 258.552467 241.815181 
L 259.342245 240.722694 
L 260.132023 240.066759 
L 260.921801 241.594491 
L 262.501356 242.081615 
L 263.291134 241.673282 
L 264.080912 240.973378 
L 264.87069 240.490695 
L 265.660468 241.244694 
L 267.240024 242.100729 
L 268.029801 242.024077 
L 268.819579 240.721401 
L 269.609357 242.099963 
L 270.399135 239.183856 
L 271.188913 241.75307 
L 271.978691 241.491681 
L 272.768469 242.087415 
L 273.558247 241.089557 
L 274.348024 241.413643 
L 275.137802 242.076381 
L 275.92758 241.263062 
L 276.717358 241.858585 
L 277.507136 240.858474 
L 278.296914 241.930294 
L 279.086692 240.510927 
L 279.876469 230.595209 
L 280.666247 230.824461 
L 281.456025 239.996482 
L 282.245803 229.392918 
L 283.035581 240.549656 
L 283.825359 233.422783 
L 284.615137 227.859093 
L 285.404914 238.152999 
L 286.194692 239.624618 
L 286.98447 238.819786 
L 287.774248 241.772103 
L 288.564026 241.391371 
L 289.353804 237.858124 
L 290.143582 239.471181 
L 290.93336 241.616073 
L 291.723137 241.088336 
L 292.512915 241.433117 
L 293.302693 241.444229 
L 294.092471 241.589822 
L 294.882249 242.09809 
L 295.672027 240.431908 
L 296.461805 239.801611 
L 297.251582 239.828764 
L 298.04136 241.208661 
L 298.831138 241.363541 
L 299.620916 241.123027 
L 301.200472 242.053669 
L 301.99025 241.5639 
L 302.780028 241.607867 
L 303.569805 240.119393 
L 304.359583 240.852118 
L 305.149361 242.050982 
L 305.939139 241.784677 
L 306.728917 241.23222 
L 307.518695 241.189127 
L 308.308473 240.057593 
L 309.09825 239.917875 
L 309.888028 241.682073 
L 310.677806 238.938373 
L 311.467584 240.907163 
L 312.257362 241.288579 
L 313.04714 240.129999 
L 313.836918 239.777998 
L 314.626695 240.864895 
L 315.416473 240.586265 
L 316.206251 241.570943 
L 316.996029 241.937311 
L 317.785807 241.504527 
L 318.575585 241.296 
L 319.365363 241.515831 
L 320.155141 241.355351 
L 320.944918 241.387043 
L 321.734696 241.208746 
L 322.524474 241.557926 
L 323.314252 240.345686 
L 324.10403 240.813855 
L 324.893808 242.077037 
L 325.683586 240.31215 
L 326.473363 241.517224 
L 327.263141 241.048324 
L 328.052919 241.303263 
L 328.842697 241.328149 
L 329.632475 241.866971 
L 330.422253 240.130672 
L 331.212031 240.632935 
L 332.001809 240.923735 
L 332.791586 241.341467 
L 333.581364 240.523349 
L 334.371142 241.802409 
L 335.16092 240.650399 
L 335.950698 240.846036 
L 336.740476 241.54227 
L 337.530254 241.937834 
L 338.320031 242.089094 
L 339.109809 242.000094 
L 339.899587 241.716393 
L 340.689365 241.723671 
L 341.479143 241.543933 
L 342.268921 241.757419 
L 343.058699 241.511645 
L 343.848477 240.990896 
L 344.638254 241.517162 
L 345.428032 241.844822 
L 346.21781 240.281797 
L 347.007588 242.081675 
L 347.797366 242.079934 
L 348.587144 241.49209 
L 349.376922 241.299687 
L 350.166699 241.92736 
L 351.746255 242.02291 
L 352.536033 241.737219 
L 353.325811 240.835221 
L 354.905367 241.418799 
L 355.695144 242.101056 
L 356.484922 240.284307 
L 357.2747 241.714201 
L 358.064478 242.079103 
L 358.854256 241.351791 
L 359.644034 241.741079 
L 360.433812 240.93269 
L 361.22359 241.943594 
L 362.013367 241.4419 
L 362.803145 241.93854 
L 363.592923 241.846148 
L 364.382701 241.583265 
L 365.172479 240.842906 
L 365.962257 242.110952 
L 367.541812 241.450235 
L 368.33159 242.061744 
L 369.121368 241.647817 
L 369.911146 241.915218 
L 370.700924 240.945669 
L 371.490702 240.959466 
L 372.28048 240.340726 
L 373.070258 241.839509 
L 373.860035 242.033188 
L 375.439591 241.741382 
L 376.229369 241.215939 
L 377.019147 241.710222 
L 378.598703 242.028927 
L 379.38848 241.751562 
L 380.178258 238.88186 
L 380.968036 242.031289 
L 382.547592 241.754675 
L 383.33737 241.124512 
L 384.127148 239.807958 
L 385.706703 241.771391 
L 386.496481 241.064424 
L 387.286259 242.059858 
L 388.865815 241.892105 
L 389.655593 241.095496 
L 390.445371 241.822759 
L 391.235148 241.924583 
L 392.024926 241.635963 
L 392.814704 241.91029 
L 393.604482 242.065269 
L 394.39426 242.068911 
L 396.763593 240.943319 
L 397.553371 242.098144 
L 398.343149 241.394232 
L 399.132927 241.71795 
L 399.922705 241.057553 
L 400.712483 242.098866 
L 401.502261 241.584833 
L 402.292039 241.760444 
L 403.081816 241.748613 
L 403.871594 241.433751 
L 404.661372 241.933437 
L 405.45115 241.235563 
L 406.240928 241.789933 
L 407.030706 241.752917 
L 407.820484 241.96323 
L 409.400039 241.799378 
L 410.189817 241.887941 
L 410.979595 241.637739 
L 411.769373 240.894206 
L 412.559151 241.474649 
L 413.348929 241.460637 
L 414.138707 241.591679 
L 414.928484 242.0741 
L 415.718262 241.271547 
L 416.50804 241.751197 
L 417.297818 240.7686 
L 418.087596 240.540839 
L 418.877374 241.381437 
L 419.667152 241.230206 
L 420.456929 240.709309 
L 421.246707 240.561797 
L 422.036485 241.149344 
L 422.826263 242.009724 
L 423.616041 241.573035 
L 425.195597 241.516678 
L 425.985374 241.037252 
L 426.775152 242.0388 
L 427.56493 240.892234 
L 428.354708 241.907869 
L 429.144486 241.255924 
L 429.934264 242.051339 
L 430.724042 241.930561 
L 431.51382 242.04282 
L 433 241.976773 
M 433 242.116362 
L -1 242.116362 
L -1 242.116362 
" clip-path="url(#p27289ba327)" style="fill: none; stroke: #da8bc3; stroke-opacity: 0.3; stroke-width: 1.5; stroke-linecap: round"/>
   </g>
   <g id="patch_3">
    <path d="M 54 252 
L 54 34.56 
" style="fill: none; stroke: #262626; stroke-width: 1.25; stroke-linejoin: miter; stroke-linecap: square"/>
   </g>
   <g id="patch_4">
    <path d="M 388.8 252 
L 388.8 34.56 
" style="fill: none; stroke: #262626; stroke-width: 1.25; stroke-linejoin: miter; stroke-linecap: square"/>
   </g>
   <g id="patch_5">
    <path d="M 54 252 
L 388.8 252 
" style="fill: none; stroke: #262626; stroke-width: 1.25; stroke-linejoin: miter; stroke-linecap: square"/>
   </g>
   <g id="patch_6">
    <path d="M 54 34.56 
L 388.8 34.56 
" style="fill: none; stroke: #262626; stroke-width: 1.25; stroke-linejoin: miter; stroke-linecap: square"/>
   </g>
   <g id="text_16">
    <!-- patient06_app06 - Power spectrum -->
    <g style="fill: #262626" transform="translate(128.0175 28.56)scale(0.12 -0.12)">
     <defs>
      <path id="ArialMT-70" d="M 422 -1272 
L 422 3319 
L 934 3319 
L 934 2888 
Q 1116 3141 1344 3267 
Q 1572 3394 1897 3394 
Q 2322 3394 2647 3175 
Q 2972 2956 3137 2557 
Q 3303 2159 3303 1684 
Q 3303 1175 3120 767 
Q 2938 359 2589 142 
Q 2241 -75 1856 -75 
Q 1575 -75 1351 44 
Q 1128 163 984 344 
L 984 -1272 
L 422 -1272 
z
M 931 1641 
Q 931 1000 1190 694 
Q 1450 388 1819 388 
Q 2194 388 2461 705 
Q 2728 1022 2728 1688 
Q 2728 2322 2467 2637 
Q 2206 2953 1844 2953 
Q 1484 2953 1207 2617 
Q 931 2281 931 1641 
z
" transform="scale(0.015625)"/>
      <path id="ArialMT-61" d="M 2588 409 
Q 2275 144 1986 34 
Q 1697 -75 1366 -75 
Q 819 -75 525 192 
Q 231 459 231 875 
Q 231 1119 342 1320 
Q 453 1522 633 1644 
Q 813 1766 1038 1828 
Q 1203 1872 1538 1913 
Q 2219 1994 2541 2106 
Q 2544 2222 2544 2253 
Q 2544 2597 2384 2738 
Q 2169 2928 1744 2928 
Q 1347 2928 1158 2789 
Q 969 2650 878 2297 
L 328 2372 
Q 403 2725 575 2942 
Q 747 3159 1072 3276 
Q 1397 3394 1825 3394 
Q 2250 3394 2515 3294 
Q 2781 3194 2906 3042 
Q 3031 2891 3081 2659 
Q 3109 2516 3109 2141 
L 3109 1391 
Q 3109 606 3145 398 
Q 3181 191 3288 0 
L 2700 0 
Q 2613 175 2588 409 
z
M 2541 1666 
Q 2234 1541 1622 1453 
Q 1275 1403 1131 1340 
Q 988 1278 909 1158 
Q 831 1038 831 891 
Q 831 666 1001 516 
Q 1172 366 1500 366 
Q 1825 366 2078 508 
Q 2331 650 2450 897 
Q 2541 1088 2541 1459 
L 2541 1666 
z
" transform="scale(0.015625)"/>
      <path id="ArialMT-74" d="M 1650 503 
L 1731 6 
Q 1494 -44 1306 -44 
Q 1000 -44 831 53 
Q 663 150 594 308 
Q 525 466 525 972 
L 525 2881 
L 113 2881 
L 113 3319 
L 525 3319 
L 525 4141 
L 1084 4478 
L 1084 3319 
L 1650 3319 
L 1650 2881 
L 1084 2881 
L 1084 941 
Q 1084 700 1114 631 
Q 1144 563 1211 522 
Q 1278 481 1403 481 
Q 1497 481 1650 503 
z
" transform="scale(0.015625)"/>
      <path id="ArialMT-69" d="M 425 3934 
L 425 4581 
L 988 4581 
L 988 3934 
L 425 3934 
z
M 425 0 
L 425 3319 
L 988 3319 
L 988 0 
L 425 0 
z
" transform="scale(0.015625)"/>
      <path id="ArialMT-36" d="M 3184 3459 
L 2625 3416 
Q 2550 3747 2413 3897 
Q 2184 4138 1850 4138 
Q 1581 4138 1378 3988 
Q 1113 3794 959 3422 
Q 806 3050 800 2363 
Q 1003 2672 1297 2822 
Q 1591 2972 1913 2972 
Q 2475 2972 2870 2558 
Q 3266 2144 3266 1488 
Q 3266 1056 3080 686 
Q 2894 316 2569 119 
Q 2244 -78 1831 -78 
Q 1128 -78 684 439 
Q 241 956 241 2144 
Q 241 3472 731 4075 
Q 1159 4600 1884 4600 
Q 2425 4600 2770 4297 
Q 3116 3994 3184 3459 
z
M 888 1484 
Q 888 1194 1011 928 
Q 1134 663 1356 523 
Q 1578 384 1822 384 
Q 2178 384 2434 671 
Q 2691 959 2691 1453 
Q 2691 1928 2437 2201 
Q 2184 2475 1800 2475 
Q 1419 2475 1153 2201 
Q 888 1928 888 1484 
z
" transform="scale(0.015625)"/>
      <path id="ArialMT-5f" d="M -97 -1272 
L -97 -866 
L 3631 -866 
L 3631 -1272 
L -97 -1272 
z
" transform="scale(0.015625)"/>
      <path id="ArialMT-2d" d="M 203 1375 
L 203 1941 
L 1931 1941 
L 1931 1375 
L 203 1375 
z
" transform="scale(0.015625)"/>
      <path id="ArialMT-50" d="M 494 0 
L 494 4581 
L 2222 4581 
Q 2678 4581 2919 4538 
Q 3256 4481 3484 4323 
Q 3713 4166 3852 3881 
Q 3991 3597 3991 3256 
Q 3991 2672 3619 2267 
Q 3247 1863 2275 1863 
L 1100 1863 
L 1100 0 
L 494 0 
z
M 1100 2403 
L 2284 2403 
Q 2872 2403 3119 2622 
Q 3366 2841 3366 3238 
Q 3366 3525 3220 3729 
Q 3075 3934 2838 4000 
Q 2684 4041 2272 4041 
L 1100 4041 
L 1100 2403 
z
" transform="scale(0.015625)"/>
      <path id="ArialMT-6f" d="M 213 1659 
Q 213 2581 725 3025 
Q 1153 3394 1769 3394 
Q 2453 3394 2887 2945 
Q 3322 2497 3322 1706 
Q 3322 1066 3130 698 
Q 2938 331 2570 128 
Q 2203 -75 1769 -75 
Q 1072 -75 642 372 
Q 213 819 213 1659 
z
M 791 1659 
Q 791 1022 1069 705 
Q 1347 388 1769 388 
Q 2188 388 2466 706 
Q 2744 1025 2744 1678 
Q 2744 2294 2464 2611 
Q 2184 2928 1769 2928 
Q 1347 2928 1069 2612 
Q 791 2297 791 1659 
z
" transform="scale(0.015625)"/>
      <path id="ArialMT-77" d="M 1034 0 
L 19 3319 
L 600 3319 
L 1128 1403 
L 1325 691 
Q 1338 744 1497 1375 
L 2025 3319 
L 2603 3319 
L 3100 1394 
L 3266 759 
L 3456 1400 
L 4025 3319 
L 4572 3319 
L 3534 0 
L 2950 0 
L 2422 1988 
L 2294 2553 
L 1622 0 
L 1034 0 
z
" transform="scale(0.015625)"/>
      <path id="ArialMT-73" d="M 197 991 
L 753 1078 
Q 800 744 1014 566 
Q 1228 388 1613 388 
Q 2000 388 2187 545 
Q 2375 703 2375 916 
Q 2375 1106 2209 1216 
Q 2094 1291 1634 1406 
Q 1016 1563 777 1677 
Q 538 1791 414 1992 
Q 291 2194 291 2438 
Q 291 2659 392 2848 
Q 494 3038 669 3163 
Q 800 3259 1026 3326 
Q 1253 3394 1513 3394 
Q 1903 3394 2198 3281 
Q 2494 3169 2634 2976 
Q 2775 2784 2828 2463 
L 2278 2388 
Q 2241 2644 2061 2787 
Q 1881 2931 1553 2931 
Q 1166 2931 1000 2803 
Q 834 2675 834 2503 
Q 834 2394 903 2306 
Q 972 2216 1119 2156 
Q 1203 2125 1616 2013 
Q 2213 1853 2448 1751 
Q 2684 1650 2818 1456 
Q 2953 1263 2953 975 
Q 2953 694 2789 445 
Q 2625 197 2315 61 
Q 2006 -75 1616 -75 
Q 969 -75 630 194 
Q 291 463 197 991 
z
" transform="scale(0.015625)"/>
      <path id="ArialMT-6d" d="M 422 0 
L 422 3319 
L 925 3319 
L 925 2853 
Q 1081 3097 1340 3245 
Q 1600 3394 1931 3394 
Q 2300 3394 2536 3241 
Q 2772 3088 2869 2813 
Q 3263 3394 3894 3394 
Q 4388 3394 4653 3120 
Q 4919 2847 4919 2278 
L 4919 0 
L 4359 0 
L 4359 2091 
Q 4359 2428 4304 2576 
Q 4250 2725 4106 2815 
Q 3963 2906 3769 2906 
Q 3419 2906 3187 2673 
Q 2956 2441 2956 1928 
L 2956 0 
L 2394 0 
L 2394 2156 
Q 2394 2531 2256 2718 
Q 2119 2906 1806 2906 
Q 1569 2906 1367 2781 
Q 1166 2656 1075 2415 
Q 984 2175 984 1722 
L 984 0 
L 422 0 
z
" transform="scale(0.015625)"/>
     </defs>
     <use xlink:href="#ArialMT-70"/>
     <use xlink:href="#ArialMT-61" x="55.615234"/>
     <use xlink:href="#ArialMT-74" x="111.230469"/>
     <use xlink:href="#ArialMT-69" x="139.013672"/>
     <use xlink:href="#ArialMT-65" x="161.230469"/>
     <use xlink:href="#ArialMT-6e" x="216.845703"/>
     <use xlink:href="#ArialMT-74" x="272.460938"/>
     <use xlink:href="#ArialMT-30" x="300.244141"/>
     <use xlink:href="#ArialMT-36" x="355.859375"/>
     <use xlink:href="#ArialMT-5f" x="411.474609"/>
     <use xlink:href="#ArialMT-61" x="467.089844"/>
     <use xlink:href="#ArialMT-70" x="522.705078"/>
     <use xlink:href="#ArialMT-70" x="578.320312"/>
     <use xlink:href="#ArialMT-30" x="633.935547"/>
     <use xlink:href="#ArialMT-36" x="689.550781"/>
     <use xlink:href="#ArialMT-20" x="745.166016"/>
     <use xlink:href="#ArialMT-2d" x="772.949219"/>
     <use xlink:href="#ArialMT-20" x="806.25"/>
     <use xlink:href="#ArialMT-50" x="834.033203"/>
     <use xlink:href="#ArialMT-6f" x="900.732422"/>
     <use xlink:href="#ArialMT-77" x="956.347656"/>
     <use xlink:href="#ArialMT-65" x="1028.564453"/>
     <use xlink:href="#ArialMT-72" x="1084.179688"/>
     <use xlink:href="#ArialMT-20" x="1117.480469"/>
     <use xlink:href="#ArialMT-73" x="1145.263672"/>
     <use xlink:href="#ArialMT-70" x="1195.263672"/>
     <use xlink:href="#ArialMT-65" x="1250.878906"/>
     <use xlink:href="#ArialMT-63" x="1306.494141"/>
     <use xlink:href="#ArialMT-74" x="1356.494141"/>
     <use xlink:href="#ArialMT-72" x="1384.277344"/>
     <use xlink:href="#ArialMT-75" x="1417.578125"/>
     <use xlink:href="#ArialMT-6d" x="1473.193359"/>
    </g>
   </g>
   <g id="legend_1">
    <g id="patch_7">
     <path d="M 313.503281 152.278906 
L 381.1 152.278906 
Q 383.3 152.278906 383.3 150.078906 
L 383.3 42.26 
Q 383.3 40.06 381.1 40.06 
L 313.503281 40.06 
Q 311.303281 40.06 311.303281 42.26 
L 311.303281 150.078906 
Q 311.303281 152.278906 313.503281 152.278906 
z
" style="fill: #ffffff; opacity: 0.8; stroke: #cccccc; stroke-linejoin: miter"/>
    </g>
    <g id="line2d_22">
     <path d="M 315.703281 48.483594 
L 326.703281 48.483594 
L 337.703281 48.483594 
" style="fill: none; stroke: #4c72b0; stroke-opacity: 0.3; stroke-width: 1.5; stroke-linecap: round"/>
    </g>
    <g id="text_17">
     <!-- IMU9 -->
     <g style="fill: #262626" transform="translate(346.503281 52.333594)scale(0.11 -0.11)">
      <defs>
       <path id="ArialMT-49" d="M 597 0 
L 597 4581 
L 1203 4581 
L 1203 0 
L 597 0 
z
" transform="scale(0.015625)"/>
       <path id="ArialMT-4d" d="M 475 0 
L 475 4581 
L 1388 4581 
L 2472 1338 
Q 2622 884 2691 659 
Q 2769 909 2934 1394 
L 4031 4581 
L 4847 4581 
L 4847 0 
L 4263 0 
L 4263 3834 
L 2931 0 
L 2384 0 
L 1059 3900 
L 1059 0 
L 475 0 
z
" transform="scale(0.015625)"/>
       <path id="ArialMT-55" d="M 3500 4581 
L 4106 4581 
L 4106 1934 
Q 4106 1244 3950 837 
Q 3794 431 3386 176 
Q 2978 -78 2316 -78 
Q 1672 -78 1262 144 
Q 853 366 678 786 
Q 503 1206 503 1934 
L 503 4581 
L 1109 4581 
L 1109 1938 
Q 1109 1341 1220 1058 
Q 1331 775 1601 622 
Q 1872 469 2263 469 
Q 2931 469 3215 772 
Q 3500 1075 3500 1938 
L 3500 4581 
z
" transform="scale(0.015625)"/>
       <path id="ArialMT-39" d="M 350 1059 
L 891 1109 
Q 959 728 1153 556 
Q 1347 384 1650 384 
Q 1909 384 2104 503 
Q 2300 622 2425 820 
Q 2550 1019 2634 1356 
Q 2719 1694 2719 2044 
Q 2719 2081 2716 2156 
Q 2547 1888 2255 1720 
Q 1963 1553 1622 1553 
Q 1053 1553 659 1965 
Q 266 2378 266 3053 
Q 266 3750 677 4175 
Q 1088 4600 1706 4600 
Q 2153 4600 2523 4359 
Q 2894 4119 3086 3673 
Q 3278 3228 3278 2384 
Q 3278 1506 3087 986 
Q 2897 466 2520 194 
Q 2144 -78 1638 -78 
Q 1100 -78 759 220 
Q 419 519 350 1059 
z
M 2653 3081 
Q 2653 3566 2395 3850 
Q 2138 4134 1775 4134 
Q 1400 4134 1122 3828 
Q 844 3522 844 3034 
Q 844 2597 1108 2323 
Q 1372 2050 1759 2050 
Q 2150 2050 2401 2323 
Q 2653 2597 2653 3081 
z
" transform="scale(0.015625)"/>
      </defs>
      <use xlink:href="#ArialMT-49"/>
      <use xlink:href="#ArialMT-4d" x="27.783203"/>
      <use xlink:href="#ArialMT-55" x="111.083984"/>
      <use xlink:href="#ArialMT-39" x="183.300781"/>
     </g>
    </g>
    <g id="line2d_23">
     <path d="M 315.703281 64.043438 
L 326.703281 64.043438 
L 337.703281 64.043438 
" style="fill: none; stroke: #dd8452; stroke-opacity: 0.3; stroke-width: 1.5; stroke-linecap: round"/>
    </g>
    <g id="text_18">
     <!-- IMU10 -->
     <g style="fill: #262626" transform="translate(346.503281 67.893438)scale(0.11 -0.11)">
      <use xlink:href="#ArialMT-49"/>
      <use xlink:href="#ArialMT-4d" x="27.783203"/>
      <use xlink:href="#ArialMT-55" x="111.083984"/>
      <use xlink:href="#ArialMT-31" x="183.300781"/>
      <use xlink:href="#ArialMT-30" x="238.916016"/>
     </g>
    </g>
    <g id="line2d_24">
     <path d="M 315.703281 79.603281 
L 326.703281 79.603281 
L 337.703281 79.603281 
" style="fill: none; stroke: #55a868; stroke-opacity: 0.3; stroke-width: 1.5; stroke-linecap: round"/>
    </g>
    <g id="text_19">
     <!-- IMU11 -->
     <g style="fill: #262626" transform="translate(346.503281 83.453281)scale(0.11 -0.11)">
      <use xlink:href="#ArialMT-49"/>
      <use xlink:href="#ArialMT-4d" x="27.783203"/>
      <use xlink:href="#ArialMT-55" x="111.083984"/>
      <use xlink:href="#ArialMT-31" x="183.300781"/>
      <use xlink:href="#ArialMT-31" x="231.541016"/>
     </g>
    </g>
    <g id="line2d_25">
     <path d="M 315.703281 95.163125 
L 326.703281 95.163125 
L 337.703281 95.163125 
" style="fill: none; stroke: #c44e52; stroke-opacity: 0.3; stroke-width: 1.5; stroke-linecap: round"/>
    </g>
    <g id="text_20">
     <!-- IMU12 -->
     <g style="fill: #262626" transform="translate(346.503281 99.013125)scale(0.11 -0.11)">
      <use xlink:href="#ArialMT-49"/>
      <use xlink:href="#ArialMT-4d" x="27.783203"/>
      <use xlink:href="#ArialMT-55" x="111.083984"/>
      <use xlink:href="#ArialMT-31" x="183.300781"/>
      <use xlink:href="#ArialMT-32" x="238.916016"/>
     </g>
    </g>
    <g id="line2d_26">
     <path d="M 315.703281 110.722969 
L 326.703281 110.722969 
L 337.703281 110.722969 
" style="fill: none; stroke: #8172b3; stroke-opacity: 0.3; stroke-width: 1.5; stroke-linecap: round"/>
    </g>
    <g id="text_21">
     <!-- IMU13 -->
     <g style="fill: #262626" transform="translate(346.503281 114.572969)scale(0.11 -0.11)">
      <use xlink:href="#ArialMT-49"/>
      <use xlink:href="#ArialMT-4d" x="27.783203"/>
      <use xlink:href="#ArialMT-55" x="111.083984"/>
      <use xlink:href="#ArialMT-31" x="183.300781"/>
      <use xlink:href="#ArialMT-33" x="238.916016"/>
     </g>
    </g>
    <g id="line2d_27">
     <path d="M 315.703281 126.282813 
L 326.703281 126.282813 
L 337.703281 126.282813 
" style="fill: none; stroke: #937860; stroke-opacity: 0.3; stroke-width: 1.5; stroke-linecap: round"/>
    </g>
    <g id="text_22">
     <!-- IMU14 -->
     <g style="fill: #262626" transform="translate(346.503281 130.132812)scale(0.11 -0.11)">
      <defs>
       <path id="ArialMT-34" d="M 2069 0 
L 2069 1097 
L 81 1097 
L 81 1613 
L 2172 4581 
L 2631 4581 
L 2631 1613 
L 3250 1613 
L 3250 1097 
L 2631 1097 
L 2631 0 
L 2069 0 
z
M 2069 1613 
L 2069 3678 
L 634 1613 
L 2069 1613 
z
" transform="scale(0.015625)"/>
      </defs>
      <use xlink:href="#ArialMT-49"/>
      <use xlink:href="#ArialMT-4d" x="27.783203"/>
      <use xlink:href="#ArialMT-55" x="111.083984"/>
      <use xlink:href="#ArialMT-31" x="183.300781"/>
      <use xlink:href="#ArialMT-34" x="238.916016"/>
     </g>
    </g>
    <g id="line2d_28">
     <path d="M 315.703281 141.842656 
L 326.703281 141.842656 
L 337.703281 141.842656 
" style="fill: none; stroke: #da8bc3; stroke-opacity: 0.3; stroke-width: 1.5; stroke-linecap: round"/>
    </g>
    <g id="text_23">
     <!-- IMU15 -->
     <g style="fill: #262626" transform="translate(346.503281 145.692656)scale(0.11 -0.11)">
      <use xlink:href="#ArialMT-49"/>
      <use xlink:href="#ArialMT-4d" x="27.783203"/>
      <use xlink:href="#ArialMT-55" x="111.083984"/>
      <use xlink:href="#ArialMT-31" x="183.300781"/>
      <use xlink:href="#ArialMT-35" x="238.916016"/>
     </g>
    </g>
   </g>
  </g>
 </g>
 <defs>
  <clipPath id="p27289ba327">
   <rect x="54" y="34.56" width="334.8" height="217.44"/>
  </clipPath>
 </defs>
</svg>
