<?xml version="1.0" encoding="utf-8" standalone="no"?>
<!DOCTYPE svg PUBLIC "-//W3C//DTD SVG 1.1//EN"
  "http://www.w3.org/Graphics/SVG/1.1/DTD/svg11.dtd">
<svg xmlns:xlink="http://www.w3.org/1999/xlink" width="432pt" height="288pt" viewBox="0 0 432 288" xmlns="http://www.w3.org/2000/svg" version="1.1">
 <metadata>
  <rdf:RDF xmlns:dc="http://purl.org/dc/elements/1.1/" xmlns:cc="http://creativecommons.org/ns#" xmlns:rdf="http://www.w3.org/1999/02/22-rdf-syntax-ns#">
   <cc:Work>
    <dc:type rdf:resource="http://purl.org/dc/dcmitype/StillImage"/>
    <dc:date>2022-07-08T13:58:14.789716</dc:date>
    <dc:format>image/svg+xml</dc:format>
    <dc:creator>
     <cc:Agent>
      <dc:title>Matplotlib v3.5.1, https://matplotlib.org/</dc:title>
     </cc:Agent>
    </dc:creator>
   </cc:Work>
  </rdf:RDF>
 </metadata>
 <defs>
  <style type="text/css">*{stroke-linejoin: round; stroke-linecap: butt}</style>
 </defs>
 <g id="figure_1">
  <g id="patch_1">
   <path d="M 0 288 
L 432 288 
L 432 0 
L 0 0 
z
" style="fill: #ffffff"/>
  </g>
  <g id="axes_1">
   <g id="patch_2">
    <path d="M 54 252 
L 388.8 252 
L 388.8 34.56 
L 54 34.56 
z
" style="fill: #ffffff"/>
   </g>
   <g id="matplotlib.axis_1">
    <g id="xtick_1">
     <g id="line2d_1">
      <defs>
       <path id="m6a4e20571b" d="M 0 0 
L 0 6 
" style="stroke: #262626; stroke-width: 1.25"/>
      </defs>
      <g>
       <use xlink:href="#m6a4e20571b" x="54" y="252" style="fill: #262626; stroke: #262626; stroke-width: 1.25"/>
      </g>
     </g>
     <g id="text_1">
      <!-- 0 -->
      <g style="fill: #262626" transform="translate(50.941484 269.373594)scale(0.11 -0.11)">
       <defs>
        <path id="ArialMT-30" d="M 266 2259 
Q 266 3072 433 3567 
Q 600 4063 929 4331 
Q 1259 4600 1759 4600 
Q 2128 4600 2406 4451 
Q 2684 4303 2865 4023 
Q 3047 3744 3150 3342 
Q 3253 2941 3253 2259 
Q 3253 1453 3087 958 
Q 2922 463 2592 192 
Q 2263 -78 1759 -78 
Q 1097 -78 719 397 
Q 266 969 266 2259 
z
M 844 2259 
Q 844 1131 1108 757 
Q 1372 384 1759 384 
Q 2147 384 2411 759 
Q 2675 1134 2675 2259 
Q 2675 3391 2411 3762 
Q 2147 4134 1753 4134 
Q 1366 4134 1134 3806 
Q 844 3388 844 2259 
z
" transform="scale(0.015625)"/>
       </defs>
       <use xlink:href="#ArialMT-30"/>
      </g>
     </g>
    </g>
    <g id="xtick_2">
     <g id="line2d_2">
      <g>
       <use xlink:href="#m6a4e20571b" x="120.96" y="252" style="fill: #262626; stroke: #262626; stroke-width: 1.25"/>
      </g>
     </g>
     <g id="text_2">
      <!-- 5 -->
      <g style="fill: #262626" transform="translate(117.901484 269.373594)scale(0.11 -0.11)">
       <defs>
        <path id="ArialMT-35" d="M 266 1200 
L 856 1250 
Q 922 819 1161 601 
Q 1400 384 1738 384 
Q 2144 384 2425 690 
Q 2706 997 2706 1503 
Q 2706 1984 2436 2262 
Q 2166 2541 1728 2541 
Q 1456 2541 1237 2417 
Q 1019 2294 894 2097 
L 366 2166 
L 809 4519 
L 3088 4519 
L 3088 3981 
L 1259 3981 
L 1013 2750 
Q 1425 3038 1878 3038 
Q 2478 3038 2890 2622 
Q 3303 2206 3303 1553 
Q 3303 931 2941 478 
Q 2500 -78 1738 -78 
Q 1113 -78 717 272 
Q 322 622 266 1200 
z
" transform="scale(0.015625)"/>
       </defs>
       <use xlink:href="#ArialMT-35"/>
      </g>
     </g>
    </g>
    <g id="xtick_3">
     <g id="line2d_3">
      <g>
       <use xlink:href="#m6a4e20571b" x="187.92" y="252" style="fill: #262626; stroke: #262626; stroke-width: 1.25"/>
      </g>
     </g>
     <g id="text_3">
      <!-- 10 -->
      <g style="fill: #262626" transform="translate(181.802969 269.373594)scale(0.11 -0.11)">
       <defs>
        <path id="ArialMT-31" d="M 2384 0 
L 1822 0 
L 1822 3584 
Q 1619 3391 1289 3197 
Q 959 3003 697 2906 
L 697 3450 
Q 1169 3672 1522 3987 
Q 1875 4303 2022 4600 
L 2384 4600 
L 2384 0 
z
" transform="scale(0.015625)"/>
       </defs>
       <use xlink:href="#ArialMT-31"/>
       <use xlink:href="#ArialMT-30" x="55.615234"/>
      </g>
     </g>
    </g>
    <g id="xtick_4">
     <g id="line2d_4">
      <g>
       <use xlink:href="#m6a4e20571b" x="254.88" y="252" style="fill: #262626; stroke: #262626; stroke-width: 1.25"/>
      </g>
     </g>
     <g id="text_4">
      <!-- 15 -->
      <g style="fill: #262626" transform="translate(248.762969 269.373594)scale(0.11 -0.11)">
       <use xlink:href="#ArialMT-31"/>
       <use xlink:href="#ArialMT-35" x="55.615234"/>
      </g>
     </g>
    </g>
    <g id="xtick_5">
     <g id="line2d_5">
      <g>
       <use xlink:href="#m6a4e20571b" x="321.84" y="252" style="fill: #262626; stroke: #262626; stroke-width: 1.25"/>
      </g>
     </g>
     <g id="text_5">
      <!-- 20 -->
      <g style="fill: #262626" transform="translate(315.722969 269.373594)scale(0.11 -0.11)">
       <defs>
        <path id="ArialMT-32" d="M 3222 541 
L 3222 0 
L 194 0 
Q 188 203 259 391 
Q 375 700 629 1000 
Q 884 1300 1366 1694 
Q 2113 2306 2375 2664 
Q 2638 3022 2638 3341 
Q 2638 3675 2398 3904 
Q 2159 4134 1775 4134 
Q 1369 4134 1125 3890 
Q 881 3647 878 3216 
L 300 3275 
Q 359 3922 746 4261 
Q 1134 4600 1788 4600 
Q 2447 4600 2831 4234 
Q 3216 3869 3216 3328 
Q 3216 3053 3103 2787 
Q 2991 2522 2730 2228 
Q 2469 1934 1863 1422 
Q 1356 997 1212 845 
Q 1069 694 975 541 
L 3222 541 
z
" transform="scale(0.015625)"/>
       </defs>
       <use xlink:href="#ArialMT-32"/>
       <use xlink:href="#ArialMT-30" x="55.615234"/>
      </g>
     </g>
    </g>
    <g id="xtick_6">
     <g id="line2d_6">
      <g>
       <use xlink:href="#m6a4e20571b" x="388.8" y="252" style="fill: #262626; stroke: #262626; stroke-width: 1.25"/>
      </g>
     </g>
     <g id="text_6">
      <!-- 25 -->
      <g style="fill: #262626" transform="translate(382.682969 269.373594)scale(0.11 -0.11)">
       <use xlink:href="#ArialMT-32"/>
       <use xlink:href="#ArialMT-35" x="55.615234"/>
      </g>
     </g>
    </g>
    <g id="text_7">
     <!-- Frequency (Hz) -->
     <g style="fill: #262626" transform="translate(180.059063 284.295469)scale(0.12 -0.12)">
      <defs>
       <path id="ArialMT-46" d="M 525 0 
L 525 4581 
L 3616 4581 
L 3616 4041 
L 1131 4041 
L 1131 2622 
L 3281 2622 
L 3281 2081 
L 1131 2081 
L 1131 0 
L 525 0 
z
" transform="scale(0.015625)"/>
       <path id="ArialMT-72" d="M 416 0 
L 416 3319 
L 922 3319 
L 922 2816 
Q 1116 3169 1280 3281 
Q 1444 3394 1641 3394 
Q 1925 3394 2219 3213 
L 2025 2691 
Q 1819 2813 1613 2813 
Q 1428 2813 1281 2702 
Q 1134 2591 1072 2394 
Q 978 2094 978 1738 
L 978 0 
L 416 0 
z
" transform="scale(0.015625)"/>
       <path id="ArialMT-65" d="M 2694 1069 
L 3275 997 
Q 3138 488 2766 206 
Q 2394 -75 1816 -75 
Q 1088 -75 661 373 
Q 234 822 234 1631 
Q 234 2469 665 2931 
Q 1097 3394 1784 3394 
Q 2450 3394 2872 2941 
Q 3294 2488 3294 1666 
Q 3294 1616 3291 1516 
L 816 1516 
Q 847 969 1125 678 
Q 1403 388 1819 388 
Q 2128 388 2347 550 
Q 2566 713 2694 1069 
z
M 847 1978 
L 2700 1978 
Q 2663 2397 2488 2606 
Q 2219 2931 1791 2931 
Q 1403 2931 1139 2672 
Q 875 2413 847 1978 
z
" transform="scale(0.015625)"/>
       <path id="ArialMT-71" d="M 2538 -1272 
L 2538 353 
Q 2406 169 2170 47 
Q 1934 -75 1669 -75 
Q 1078 -75 651 397 
Q 225 869 225 1691 
Q 225 2191 398 2587 
Q 572 2984 901 3189 
Q 1231 3394 1625 3394 
Q 2241 3394 2594 2875 
L 2594 3319 
L 3100 3319 
L 3100 -1272 
L 2538 -1272 
z
M 803 1669 
Q 803 1028 1072 708 
Q 1341 388 1716 388 
Q 2075 388 2334 692 
Q 2594 997 2594 1619 
Q 2594 2281 2320 2615 
Q 2047 2950 1678 2950 
Q 1313 2950 1058 2639 
Q 803 2328 803 1669 
z
" transform="scale(0.015625)"/>
       <path id="ArialMT-75" d="M 2597 0 
L 2597 488 
Q 2209 -75 1544 -75 
Q 1250 -75 995 37 
Q 741 150 617 320 
Q 494 491 444 738 
Q 409 903 409 1263 
L 409 3319 
L 972 3319 
L 972 1478 
Q 972 1038 1006 884 
Q 1059 663 1231 536 
Q 1403 409 1656 409 
Q 1909 409 2131 539 
Q 2353 669 2445 892 
Q 2538 1116 2538 1541 
L 2538 3319 
L 3100 3319 
L 3100 0 
L 2597 0 
z
" transform="scale(0.015625)"/>
       <path id="ArialMT-6e" d="M 422 0 
L 422 3319 
L 928 3319 
L 928 2847 
Q 1294 3394 1984 3394 
Q 2284 3394 2536 3286 
Q 2788 3178 2913 3003 
Q 3038 2828 3088 2588 
Q 3119 2431 3119 2041 
L 3119 0 
L 2556 0 
L 2556 2019 
Q 2556 2363 2490 2533 
Q 2425 2703 2258 2804 
Q 2091 2906 1866 2906 
Q 1506 2906 1245 2678 
Q 984 2450 984 1813 
L 984 0 
L 422 0 
z
" transform="scale(0.015625)"/>
       <path id="ArialMT-63" d="M 2588 1216 
L 3141 1144 
Q 3050 572 2676 248 
Q 2303 -75 1759 -75 
Q 1078 -75 664 370 
Q 250 816 250 1647 
Q 250 2184 428 2587 
Q 606 2991 970 3192 
Q 1334 3394 1763 3394 
Q 2303 3394 2647 3120 
Q 2991 2847 3088 2344 
L 2541 2259 
Q 2463 2594 2264 2762 
Q 2066 2931 1784 2931 
Q 1359 2931 1093 2626 
Q 828 2322 828 1663 
Q 828 994 1084 691 
Q 1341 388 1753 388 
Q 2084 388 2306 591 
Q 2528 794 2588 1216 
z
" transform="scale(0.015625)"/>
       <path id="ArialMT-79" d="M 397 -1278 
L 334 -750 
Q 519 -800 656 -800 
Q 844 -800 956 -737 
Q 1069 -675 1141 -563 
Q 1194 -478 1313 -144 
Q 1328 -97 1363 -6 
L 103 3319 
L 709 3319 
L 1400 1397 
Q 1534 1031 1641 628 
Q 1738 1016 1872 1384 
L 2581 3319 
L 3144 3319 
L 1881 -56 
Q 1678 -603 1566 -809 
Q 1416 -1088 1222 -1217 
Q 1028 -1347 759 -1347 
Q 597 -1347 397 -1278 
z
" transform="scale(0.015625)"/>
       <path id="ArialMT-20" transform="scale(0.015625)"/>
       <path id="ArialMT-28" d="M 1497 -1347 
Q 1031 -759 709 28 
Q 388 816 388 1659 
Q 388 2403 628 3084 
Q 909 3875 1497 4659 
L 1900 4659 
Q 1522 4009 1400 3731 
Q 1209 3300 1100 2831 
Q 966 2247 966 1656 
Q 966 153 1900 -1347 
L 1497 -1347 
z
" transform="scale(0.015625)"/>
       <path id="ArialMT-48" d="M 513 0 
L 513 4581 
L 1119 4581 
L 1119 2700 
L 3500 2700 
L 3500 4581 
L 4106 4581 
L 4106 0 
L 3500 0 
L 3500 2159 
L 1119 2159 
L 1119 0 
L 513 0 
z
" transform="scale(0.015625)"/>
       <path id="ArialMT-7a" d="M 125 0 
L 125 456 
L 2238 2881 
Q 1878 2863 1603 2863 
L 250 2863 
L 250 3319 
L 2963 3319 
L 2963 2947 
L 1166 841 
L 819 456 
Q 1197 484 1528 484 
L 3063 484 
L 3063 0 
L 125 0 
z
" transform="scale(0.015625)"/>
       <path id="ArialMT-29" d="M 791 -1347 
L 388 -1347 
Q 1322 153 1322 1656 
Q 1322 2244 1188 2822 
Q 1081 3291 891 3722 
Q 769 4003 388 4659 
L 791 4659 
Q 1378 3875 1659 3084 
Q 1900 2403 1900 1659 
Q 1900 816 1576 28 
Q 1253 -759 791 -1347 
z
" transform="scale(0.015625)"/>
      </defs>
      <use xlink:href="#ArialMT-46"/>
      <use xlink:href="#ArialMT-72" x="61.083984"/>
      <use xlink:href="#ArialMT-65" x="94.384766"/>
      <use xlink:href="#ArialMT-71" x="150"/>
      <use xlink:href="#ArialMT-75" x="205.615234"/>
      <use xlink:href="#ArialMT-65" x="261.230469"/>
      <use xlink:href="#ArialMT-6e" x="316.845703"/>
      <use xlink:href="#ArialMT-63" x="372.460938"/>
      <use xlink:href="#ArialMT-79" x="422.460938"/>
      <use xlink:href="#ArialMT-20" x="472.460938"/>
      <use xlink:href="#ArialMT-28" x="500.244141"/>
      <use xlink:href="#ArialMT-48" x="533.544922"/>
      <use xlink:href="#ArialMT-7a" x="605.761719"/>
      <use xlink:href="#ArialMT-29" x="655.761719"/>
     </g>
    </g>
   </g>
   <g id="matplotlib.axis_2">
    <g id="ytick_1">
     <g id="line2d_7">
      <defs>
       <path id="m4d0cb356a0" d="M 0 0 
L -6 0 
" style="stroke: #262626; stroke-width: 1.25"/>
      </defs>
      <g>
       <use xlink:href="#m4d0cb356a0" x="54" y="242.116364" style="fill: #262626; stroke: #262626; stroke-width: 1.25"/>
      </g>
     </g>
     <g id="text_8">
      <!-- 0 -->
      <g style="fill: #262626" transform="translate(38.382969 246.053161)scale(0.11 -0.11)">
       <use xlink:href="#ArialMT-30"/>
      </g>
     </g>
    </g>
    <g id="ytick_2">
     <g id="line2d_8">
      <g>
       <use xlink:href="#m4d0cb356a0" x="54" y="204.679569" style="fill: #262626; stroke: #262626; stroke-width: 1.25"/>
      </g>
     </g>
     <g id="text_9">
      <!-- 1000 -->
      <g style="fill: #262626" transform="translate(20.031875 208.616365)scale(0.11 -0.11)">
       <use xlink:href="#ArialMT-31"/>
       <use xlink:href="#ArialMT-30" x="55.615234"/>
       <use xlink:href="#ArialMT-30" x="111.230469"/>
       <use xlink:href="#ArialMT-30" x="166.845703"/>
      </g>
     </g>
    </g>
    <g id="ytick_3">
     <g id="line2d_9">
      <g>
       <use xlink:href="#m4d0cb356a0" x="54" y="167.242773" style="fill: #262626; stroke: #262626; stroke-width: 1.25"/>
      </g>
     </g>
     <g id="text_10">
      <!-- 2000 -->
      <g style="fill: #262626" transform="translate(20.031875 171.17957)scale(0.11 -0.11)">
       <use xlink:href="#ArialMT-32"/>
       <use xlink:href="#ArialMT-30" x="55.615234"/>
       <use xlink:href="#ArialMT-30" x="111.230469"/>
       <use xlink:href="#ArialMT-30" x="166.845703"/>
      </g>
     </g>
    </g>
    <g id="ytick_4">
     <g id="line2d_10">
      <g>
       <use xlink:href="#m4d0cb356a0" x="54" y="129.805978" style="fill: #262626; stroke: #262626; stroke-width: 1.25"/>
      </g>
     </g>
     <g id="text_11">
      <!-- 3000 -->
      <g style="fill: #262626" transform="translate(20.031875 133.742775)scale(0.11 -0.11)">
       <defs>
        <path id="ArialMT-33" d="M 269 1209 
L 831 1284 
Q 928 806 1161 595 
Q 1394 384 1728 384 
Q 2125 384 2398 659 
Q 2672 934 2672 1341 
Q 2672 1728 2419 1979 
Q 2166 2231 1775 2231 
Q 1616 2231 1378 2169 
L 1441 2663 
Q 1497 2656 1531 2656 
Q 1891 2656 2178 2843 
Q 2466 3031 2466 3422 
Q 2466 3731 2256 3934 
Q 2047 4138 1716 4138 
Q 1388 4138 1169 3931 
Q 950 3725 888 3313 
L 325 3413 
Q 428 3978 793 4289 
Q 1159 4600 1703 4600 
Q 2078 4600 2393 4439 
Q 2709 4278 2876 4000 
Q 3044 3722 3044 3409 
Q 3044 3113 2884 2869 
Q 2725 2625 2413 2481 
Q 2819 2388 3044 2092 
Q 3269 1797 3269 1353 
Q 3269 753 2831 336 
Q 2394 -81 1725 -81 
Q 1122 -81 723 278 
Q 325 638 269 1209 
z
" transform="scale(0.015625)"/>
       </defs>
       <use xlink:href="#ArialMT-33"/>
       <use xlink:href="#ArialMT-30" x="55.615234"/>
       <use xlink:href="#ArialMT-30" x="111.230469"/>
       <use xlink:href="#ArialMT-30" x="166.845703"/>
      </g>
     </g>
    </g>
    <g id="ytick_5">
     <g id="line2d_11">
      <g>
       <use xlink:href="#m4d0cb356a0" x="54" y="92.369183" style="fill: #262626; stroke: #262626; stroke-width: 1.25"/>
      </g>
     </g>
     <g id="text_12">
      <!-- 4000 -->
      <g style="fill: #262626" transform="translate(20.031875 96.30598)scale(0.11 -0.11)">
       <defs>
        <path id="ArialMT-34" d="M 2069 0 
L 2069 1097 
L 81 1097 
L 81 1613 
L 2172 4581 
L 2631 4581 
L 2631 1613 
L 3250 1613 
L 3250 1097 
L 2631 1097 
L 2631 0 
L 2069 0 
z
M 2069 1613 
L 2069 3678 
L 634 1613 
L 2069 1613 
z
" transform="scale(0.015625)"/>
       </defs>
       <use xlink:href="#ArialMT-34"/>
       <use xlink:href="#ArialMT-30" x="55.615234"/>
       <use xlink:href="#ArialMT-30" x="111.230469"/>
       <use xlink:href="#ArialMT-30" x="166.845703"/>
      </g>
     </g>
    </g>
    <g id="ytick_6">
     <g id="line2d_12">
      <g>
       <use xlink:href="#m4d0cb356a0" x="54" y="54.932388" style="fill: #262626; stroke: #262626; stroke-width: 1.25"/>
      </g>
     </g>
     <g id="text_13">
      <!-- 5000 -->
      <g style="fill: #262626" transform="translate(20.031875 58.869185)scale(0.11 -0.11)">
       <use xlink:href="#ArialMT-35"/>
       <use xlink:href="#ArialMT-30" x="55.615234"/>
       <use xlink:href="#ArialMT-30" x="111.230469"/>
       <use xlink:href="#ArialMT-30" x="166.845703"/>
      </g>
     </g>
    </g>
   </g>
   <g id="line2d_13">
    <path d="M 54 241.961241 
L 161.445754 241.921415 
L 162.171738 241.805201 
L 165.075678 241.86704 
L 167.253632 241.623613 
L 167.979617 241.820272 
L 169.431587 241.540944 
L 170.157571 241.82256 
L 170.883556 241.78148 
L 171.609541 241.427674 
L 172.335526 241.280241 
L 173.061511 240.956306 
L 173.787495 241.351286 
L 175.96545 241.4423 
L 176.691435 241.25768 
L 177.41742 240.524705 
L 178.143404 240.844457 
L 178.869389 240.467468 
L 179.595374 241.012074 
L 180.321359 240.365579 
L 181.047344 239.038105 
L 181.773329 240.969666 
L 182.499313 239.882847 
L 183.225298 241.146003 
L 183.951283 240.912931 
L 184.677268 241.278708 
L 185.403253 240.95123 
L 186.129237 240.85361 
L 186.855222 239.64056 
L 188.307192 241.264676 
L 189.033177 241.553914 
L 189.759162 241.292858 
L 190.485146 241.410066 
L 191.211131 240.49785 
L 191.937116 239.900186 
L 192.663101 238.146641 
L 193.389086 237.383561 
L 194.11507 239.718434 
L 194.841055 240.92221 
L 195.56704 240.37885 
L 196.293025 238.225743 
L 197.01901 241.67576 
L 197.744995 240.170315 
L 198.470979 241.852028 
L 199.196964 239.277222 
L 199.922949 236.180871 
L 200.648934 235.893037 
L 201.374919 240.15902 
L 202.100904 237.518121 
L 202.826888 238.847516 
L 203.552873 232.566162 
L 204.278858 241.307505 
L 205.004843 238.806568 
L 205.730828 241.565906 
L 207.182797 240.233888 
L 207.908782 240.596637 
L 208.634767 238.659197 
L 209.360752 237.835165 
L 210.086737 241.658021 
L 210.812721 239.909528 
L 211.538706 237.11355 
L 212.264691 236.761497 
L 212.990676 237.757013 
L 213.716661 240.004732 
L 214.442645 238.53493 
L 215.16863 241.810848 
L 215.894615 240.718811 
L 216.6206 240.504553 
L 217.346585 241.27334 
L 218.07257 236.331758 
L 218.798554 237.598182 
L 219.524539 241.792134 
L 220.250524 235.805474 
L 220.976509 238.855438 
L 221.702494 236.889171 
L 222.428478 241.98869 
L 223.154463 241.28748 
L 223.880448 240.213948 
L 224.606433 228.465645 
L 225.332418 235.315056 
L 226.058403 240.340033 
L 226.784387 240.324924 
L 227.510372 241.183475 
L 228.236357 240.513137 
L 228.962342 238.053478 
L 229.688327 239.704162 
L 231.140296 241.537724 
L 231.866281 239.772233 
L 232.592266 240.408756 
L 233.318251 239.794668 
L 234.044236 241.178041 
L 234.77022 241.572265 
L 235.496205 239.639671 
L 236.22219 241.854327 
L 236.948175 240.509424 
L 237.67416 241.571322 
L 238.400145 241.8307 
L 239.126129 239.347474 
L 239.852114 240.203919 
L 241.304084 241.281815 
L 242.030069 240.934391 
L 242.756053 239.143627 
L 243.482038 241.578861 
L 244.208023 241.528176 
L 244.934008 242.056289 
L 245.659993 241.577259 
L 246.385978 240.680348 
L 247.111962 240.945385 
L 247.837947 241.858799 
L 248.563932 240.587103 
L 250.015902 241.908037 
L 250.741887 239.940751 
L 251.467871 241.796308 
L 252.193856 239.015106 
L 252.919841 241.287871 
L 253.645826 239.870115 
L 254.371811 241.989292 
L 255.097795 241.901127 
L 255.82378 241.600205 
L 256.549765 241.910888 
L 257.27575 240.982097 
L 258.001735 238.893131 
L 258.72772 239.148995 
L 260.179689 234.741029 
L 260.905674 236.845245 
L 261.631659 241.739163 
L 263.083628 240.47917 
L 263.809613 241.659922 
L 264.535598 240.82112 
L 265.261583 240.885715 
L 265.987568 241.998505 
L 266.713553 242.057742 
L 267.439537 240.641011 
L 268.165522 241.305656 
L 268.891507 240.802019 
L 269.617492 239.900541 
L 270.343477 241.509073 
L 271.069462 241.65414 
L 271.795446 238.113193 
L 272.521431 241.738997 
L 273.247416 240.126603 
L 273.973401 241.713458 
L 274.699386 240.924662 
L 275.42537 239.584698 
L 276.151355 241.662089 
L 276.87734 241.936348 
L 279.055295 234.575974 
L 279.781279 235.192778 
L 280.507264 237.417094 
L 281.233249 234.50736 
L 281.959234 223.984384 
L 282.685219 231.733817 
L 283.411203 227.994815 
L 284.863173 240.054979 
L 285.589158 241.834982 
L 286.315143 238.339963 
L 287.041128 242.108973 
L 288.493097 241.338961 
L 289.219082 241.889069 
L 289.945067 239.770696 
L 290.671052 240.484806 
L 291.397037 241.634426 
L 292.123021 241.732066 
L 292.849006 242.047489 
L 293.574991 242.085943 
L 294.300976 239.971731 
L 295.026961 239.759 
L 295.752945 242.005264 
L 297.9309 240.372307 
L 298.656885 241.869821 
L 299.38287 241.681655 
L 300.108854 236.988528 
L 300.834839 240.914664 
L 301.560824 240.054092 
L 302.286809 241.394821 
L 303.012794 240.708971 
L 303.738778 241.707886 
L 304.464763 240.845638 
L 305.190748 239.2896 
L 305.916733 239.134991 
L 306.642718 241.788124 
L 307.368703 241.093107 
L 308.094687 241.934188 
L 309.546657 240.125795 
L 310.272642 240.778265 
L 310.998627 240.289509 
L 311.724611 241.109629 
L 312.450596 240.714936 
L 313.176581 241.99634 
L 313.902566 240.222816 
L 314.628551 239.632539 
L 315.354536 241.460568 
L 316.08052 241.77683 
L 316.806505 238.360741 
L 317.53249 241.141741 
L 318.98446 241.876767 
L 319.710445 240.80431 
L 320.436429 238.924025 
L 321.162414 241.51784 
L 322.614384 241.342682 
L 323.340369 242.081907 
L 324.066353 241.566982 
L 324.792338 241.502467 
L 325.518323 241.902414 
L 326.244308 240.871516 
L 327.696278 241.522943 
L 328.422262 239.36703 
L 329.148247 242.011747 
L 329.874232 241.525359 
L 330.600217 239.215611 
L 331.326202 241.446157 
L 332.052186 241.949081 
L 332.778171 240.870031 
L 333.504156 241.877921 
L 334.230141 241.654022 
L 334.956126 242.027244 
L 335.682111 240.834327 
L 336.408095 241.95813 
L 337.13408 237.750562 
L 337.860065 240.404778 
L 338.58605 241.127053 
L 339.312035 240.82558 
L 340.03802 241.722318 
L 340.764004 239.939092 
L 341.489989 241.499006 
L 342.215974 240.914235 
L 342.941959 241.137648 
L 343.667944 241.940429 
L 344.393928 240.629047 
L 345.119913 241.153715 
L 345.845898 241.085469 
L 346.571883 241.733724 
L 347.297868 241.564058 
L 348.023853 241.248834 
L 348.749837 239.911476 
L 349.475822 241.233096 
L 350.201807 240.512926 
L 350.927792 241.213426 
L 351.653777 241.117487 
L 352.379761 240.302062 
L 353.105746 241.928974 
L 353.831731 241.68445 
L 354.557716 242.049821 
L 355.283701 241.428123 
L 356.009686 240.356701 
L 356.73567 240.313723 
L 357.461655 241.714038 
L 358.18764 241.984369 
L 358.913625 240.208533 
L 359.63961 241.375393 
L 360.365595 241.651961 
L 361.091579 241.478389 
L 361.817564 241.011631 
L 362.543549 240.876938 
L 363.269534 241.699141 
L 363.995519 240.227684 
L 364.721503 241.526562 
L 365.447488 240.10391 
L 366.173473 240.831621 
L 366.899458 241.05524 
L 367.625443 240.350437 
L 368.351428 241.912742 
L 369.077412 241.306935 
L 369.803397 241.21582 
L 370.529382 241.6589 
L 371.255367 241.62491 
L 371.981352 241.225267 
L 372.707336 241.970483 
L 373.433321 242.031856 
L 374.159306 241.627366 
L 374.885291 240.277553 
L 375.611276 240.226974 
L 376.337261 239.176832 
L 377.063245 241.605607 
L 377.78923 241.663352 
L 378.515215 241.235582 
L 379.2412 241.100288 
L 379.967185 241.528097 
L 380.693169 240.748848 
L 381.419154 240.592493 
L 382.871124 240.779302 
L 383.597109 241.713065 
L 384.323094 241.063737 
L 385.049078 241.574664 
L 385.775063 241.435626 
L 386.501048 241.119828 
L 387.227033 239.034655 
L 387.953018 241.143339 
L 388.679003 241.040367 
L 389.404987 240.646315 
L 390.130972 240.849758 
L 390.856957 240.647554 
L 391.582942 239.812748 
L 392.308927 239.809432 
L 393.034911 241.394033 
L 394.486881 241.813555 
L 395.212866 241.12092 
L 395.938851 241.734808 
L 396.664836 241.969808 
L 397.39082 241.283114 
L 398.116805 241.704002 
L 398.84279 241.439963 
L 399.568775 241.724314 
L 400.29476 239.358019 
L 401.020744 241.860532 
L 401.746729 241.774483 
L 403.198699 240.586902 
L 403.924684 242.060881 
L 404.650669 241.446592 
L 405.376653 241.657703 
L 406.102638 240.947507 
L 406.828623 241.871053 
L 407.554608 240.804887 
L 408.280593 241.579987 
L 409.006578 241.430768 
L 409.732562 241.473922 
L 410.458547 241.977621 
L 411.184532 240.797058 
L 411.910517 242.063626 
L 412.636502 241.998176 
L 413.362486 241.642819 
L 414.088471 242.085149 
L 414.814456 240.302838 
L 415.540441 241.432293 
L 416.266426 241.6415 
L 416.992411 241.97794 
L 417.718395 241.904446 
L 418.44438 240.315429 
L 419.170365 240.964984 
L 419.89635 239.719847 
L 420.622335 240.762459 
L 421.348319 240.1734 
L 422.074304 241.660958 
L 422.800289 240.667115 
L 423.526274 241.239709 
L 424.252259 242.026974 
L 424.978244 239.188357 
L 425.704228 241.135439 
L 426.430213 241.76499 
L 427.156198 240.797263 
L 427.882183 241.794913 
L 428.608168 241.37406 
L 429.334153 241.141194 
L 430.060137 241.69759 
L 430.786122 241.89261 
L 431.512107 241.033799 
L 432.238092 242.102174 
L 433 241.823429 
M 433 242.116247 
L -1 242.116247 
L -1 242.116247 
" clip-path="url(#pa7db18737b)" style="fill: none; stroke: #4c72b0; stroke-opacity: 0.3; stroke-width: 1.5; stroke-linecap: round"/>
   </g>
   <g id="line2d_14">
    <path d="M 54 241.970934 
L 162.171738 241.927104 
L 162.897723 241.850767 
L 163.623708 241.922364 
L 164.349693 241.771408 
L 165.075678 241.918064 
L 165.801662 241.786161 
L 166.527647 241.830958 
L 167.253632 241.742256 
L 167.979617 241.873344 
L 170.883556 241.614816 
L 173.787495 241.711229 
L 174.51348 241.455087 
L 175.239465 241.340889 
L 175.96545 241.369877 
L 176.691435 241.51621 
L 177.41742 241.264032 
L 178.143404 241.152569 
L 178.869389 241.529423 
L 179.595374 241.26464 
L 180.321359 241.369776 
L 181.047344 240.500022 
L 181.773329 240.839891 
L 182.499313 241.412591 
L 183.225298 240.399776 
L 183.951283 241.006097 
L 184.677268 240.839 
L 185.403253 240.089097 
L 186.129237 241.358861 
L 186.855222 240.582336 
L 187.581207 240.991198 
L 188.307192 240.571601 
L 189.033177 240.612425 
L 189.759162 241.108954 
L 190.485146 241.284982 
L 191.211131 238.839947 
L 191.937116 241.086274 
L 192.663101 240.992245 
L 193.389086 239.897971 
L 194.11507 240.517439 
L 194.841055 238.967926 
L 195.56704 240.382177 
L 196.293025 241.035188 
L 197.01901 240.977357 
L 197.744995 241.193125 
L 198.470979 239.794003 
L 199.196964 239.309606 
L 199.922949 239.863232 
L 200.648934 240.982057 
L 201.374919 239.410711 
L 202.100904 239.250228 
L 202.826888 238.489878 
L 203.552873 240.178933 
L 204.278858 241.281542 
L 205.730828 239.413354 
L 206.456812 240.304774 
L 207.908782 240.999889 
L 208.634767 240.362622 
L 209.360752 240.062976 
L 210.812721 237.687247 
L 212.264691 239.928486 
L 212.990676 240.784895 
L 213.716661 240.361446 
L 214.442645 239.783965 
L 215.16863 239.755216 
L 215.894615 239.41881 
L 216.6206 241.060851 
L 217.346585 240.288385 
L 218.07257 237.168072 
L 219.524539 241.885313 
L 220.250524 241.389886 
L 220.976509 240.380719 
L 221.702494 239.169913 
L 222.428478 236.593942 
L 223.154463 239.701965 
L 223.880448 240.010735 
L 224.606433 237.439811 
L 225.332418 238.936052 
L 226.058403 238.247788 
L 226.784387 239.515063 
L 227.510372 241.1823 
L 228.236357 241.305036 
L 228.962342 237.812951 
L 229.688327 239.148745 
L 230.414312 237.584475 
L 231.140296 239.672415 
L 231.866281 240.170095 
L 232.592266 238.740222 
L 233.318251 240.12784 
L 234.044236 240.424639 
L 234.77022 240.423798 
L 235.496205 237.747198 
L 236.22219 241.095207 
L 236.948175 239.976846 
L 237.67416 241.421816 
L 238.400145 240.168051 
L 239.126129 241.726011 
L 239.852114 239.750666 
L 240.578099 238.830553 
L 241.304084 240.282974 
L 242.030069 237.89629 
L 242.756053 241.987998 
L 243.482038 241.174346 
L 244.208023 241.807104 
L 244.934008 240.011831 
L 245.659993 241.694117 
L 246.385978 240.829812 
L 247.111962 240.300205 
L 247.837947 238.973501 
L 248.563932 240.719149 
L 249.289917 241.356581 
L 250.015902 240.928007 
L 251.467871 240.801034 
L 252.193856 239.525305 
L 252.919841 239.715701 
L 253.645826 241.023579 
L 254.371811 240.10193 
L 255.097795 241.847636 
L 255.82378 241.896319 
L 256.549765 238.843116 
L 257.27575 240.881341 
L 258.001735 238.445883 
L 258.72772 240.87699 
L 259.453704 241.339142 
L 260.179689 240.275859 
L 260.905674 239.929424 
L 261.631659 240.844232 
L 262.357644 240.442152 
L 263.083628 241.566191 
L 263.809613 240.493036 
L 264.535598 240.27305 
L 265.261583 239.470601 
L 265.987568 240.64272 
L 266.713553 239.693119 
L 267.439537 239.66101 
L 268.165522 241.892684 
L 268.891507 237.34754 
L 269.617492 239.339025 
L 270.343477 239.601756 
L 271.069462 242.002244 
L 271.795446 241.01692 
L 272.521431 240.703858 
L 273.247416 235.794772 
L 273.973401 237.935401 
L 274.699386 240.613018 
L 275.42537 240.558374 
L 276.151355 240.926843 
L 276.87734 239.645246 
L 277.603325 240.078763 
L 278.32931 237.018872 
L 279.055295 237.23368 
L 279.781279 233.004713 
L 280.507264 240.434356 
L 281.233249 232.194229 
L 281.959234 227.508377 
L 282.685219 236.779237 
L 283.411203 234.526578 
L 284.137188 238.251477 
L 284.863173 239.156461 
L 285.589158 238.62827 
L 286.315143 240.288525 
L 287.041128 239.711686 
L 287.767112 238.919992 
L 288.493097 241.806236 
L 289.219082 241.605407 
L 289.945067 241.789574 
L 290.671052 240.808454 
L 291.397037 241.333617 
L 292.123021 241.276666 
L 292.849006 242.088902 
L 293.574991 241.658846 
L 295.026961 242.111252 
L 295.752945 241.201613 
L 296.47893 241.940088 
L 297.9309 240.567325 
L 298.656885 241.727059 
L 299.38287 241.557895 
L 300.108854 241.96604 
L 300.834839 241.388274 
L 301.560824 241.67509 
L 302.286809 241.521938 
L 303.012794 239.337975 
L 303.738778 241.631993 
L 304.464763 240.875407 
L 305.190748 241.211706 
L 305.916733 241.831129 
L 306.642718 240.305285 
L 307.368703 241.839442 
L 308.094687 240.287366 
L 308.820672 241.513639 
L 309.546657 241.756071 
L 310.272642 240.295646 
L 310.998627 241.816614 
L 311.724611 241.661038 
L 312.450596 238.00142 
L 313.176581 241.902938 
L 313.902566 239.405329 
L 314.628551 241.531176 
L 315.354536 241.218724 
L 316.08052 239.413772 
L 316.806505 239.898438 
L 317.53249 241.037753 
L 318.258475 241.740981 
L 318.98446 239.586008 
L 319.710445 240.452124 
L 320.436429 241.544907 
L 321.162414 240.702793 
L 321.888399 241.340315 
L 322.614384 240.897212 
L 323.340369 241.213432 
L 324.066353 240.234584 
L 324.792338 241.394148 
L 325.518323 240.909936 
L 326.244308 241.600966 
L 327.696278 242.096691 
L 328.422262 241.905164 
L 329.148247 241.234075 
L 329.874232 241.703444 
L 330.600217 241.4687 
L 332.052186 240.544172 
L 332.778171 241.85393 
L 334.956126 241.958951 
L 335.682111 240.961819 
L 336.408095 240.910143 
L 337.13408 241.707668 
L 337.860065 241.721172 
L 338.58605 242.082525 
L 339.312035 241.892444 
L 340.03802 241.907301 
L 340.764004 241.758685 
L 341.489989 241.029346 
L 342.215974 241.623182 
L 343.667944 241.418783 
L 344.393928 239.691339 
L 345.119913 241.230471 
L 345.845898 242.007012 
L 346.571883 240.482258 
L 347.297868 239.754758 
L 348.023853 240.415288 
L 348.749837 241.722234 
L 349.475822 242.108566 
L 350.201807 240.403519 
L 350.927792 241.594626 
L 351.653777 241.210929 
L 352.379761 240.240465 
L 353.105746 239.881236 
L 353.831731 240.977127 
L 354.557716 240.378652 
L 355.283701 241.603022 
L 356.009686 241.034298 
L 356.73567 241.122638 
L 357.461655 240.710515 
L 358.18764 241.461786 
L 358.913625 240.718003 
L 359.63961 241.557352 
L 360.365595 241.007075 
L 361.091579 240.997874 
L 361.817564 241.339177 
L 362.543549 240.666562 
L 363.269534 242.03967 
L 363.995519 241.079259 
L 364.721503 241.380279 
L 365.447488 241.20432 
L 366.173473 241.32831 
L 366.899458 241.814332 
L 367.625443 241.924743 
L 368.351428 240.231093 
L 369.077412 241.668107 
L 369.803397 242.039256 
L 370.529382 240.78898 
L 371.255367 240.239169 
L 371.981352 241.331925 
L 372.707336 242.042213 
L 373.433321 240.187903 
L 374.159306 242.052447 
L 375.611276 241.721914 
L 376.337261 241.595654 
L 377.063245 241.976799 
L 377.78923 241.45356 
L 378.515215 241.79469 
L 379.2412 240.600329 
L 379.967185 241.14904 
L 380.693169 241.51387 
L 381.419154 241.572841 
L 382.871124 240.983255 
L 383.597109 242.092189 
L 385.049078 241.849998 
L 385.775063 241.858268 
L 386.501048 242.057154 
L 387.227033 241.611742 
L 387.953018 242.049151 
L 388.679003 241.946649 
L 389.404987 241.256014 
L 390.130972 242.041631 
L 391.582942 241.526917 
L 392.308927 241.99254 
L 393.034911 241.757795 
L 393.760896 241.967239 
L 394.486881 240.615831 
L 395.212866 242.06607 
L 395.938851 240.687667 
L 396.664836 241.89362 
L 397.39082 241.741432 
L 398.116805 240.618683 
L 398.84279 240.86099 
L 399.568775 241.867999 
L 400.29476 241.109604 
L 401.020744 242.060323 
L 401.746729 239.866774 
L 402.472714 241.899489 
L 403.198699 240.973292 
L 403.924684 240.842964 
L 404.650669 241.493301 
L 405.376653 240.145545 
L 406.102638 240.416117 
L 406.828623 242.05843 
L 407.554608 241.976468 
L 408.280593 241.557638 
L 409.006578 239.585648 
L 409.732562 240.54886 
L 410.458547 240.36137 
L 411.184532 239.923879 
L 411.910517 240.920229 
L 412.636502 242.107569 
L 414.088471 241.853999 
L 414.814456 241.056106 
L 415.540441 241.798205 
L 416.266426 241.959321 
L 417.718395 241.950999 
L 418.44438 239.289609 
L 419.170365 240.881511 
L 419.89635 241.26344 
L 420.622335 241.504582 
L 421.348319 240.915975 
L 422.074304 241.843609 
L 422.800289 240.531178 
L 423.526274 241.871906 
L 424.252259 242.070924 
L 424.978244 241.961656 
L 425.704228 241.346947 
L 426.430213 241.284804 
L 427.156198 241.904533 
L 427.882183 241.438604 
L 428.608168 241.719702 
L 431.512107 241.62662 
L 432.238092 241.918198 
L 433 241.784832 
M 433 242.116234 
L -1 242.116234 
L -1 242.116234 
" clip-path="url(#pa7db18737b)" style="fill: none; stroke: #dd8452; stroke-opacity: 0.3; stroke-width: 1.5; stroke-linecap: round"/>
   </g>
   <g id="line2d_15">
    <path d="M 54 242.116364 
L 433 242.116364 
M 433 242.116364 
L -1 242.116364 
L -1 242.116364 
" clip-path="url(#pa7db18737b)" style="fill: none; stroke: #55a868; stroke-opacity: 0.3; stroke-width: 1.5; stroke-linecap: round"/>
   </g>
   <g id="line2d_16">
    <path d="M 54 241.961403 
L 161.445754 241.860631 
L 163.623708 241.730489 
L 166.527647 241.850181 
L 167.253632 241.565628 
L 167.979617 241.78361 
L 168.705602 241.598036 
L 169.431587 241.713581 
L 170.157571 241.472011 
L 170.883556 241.475303 
L 171.609541 241.710183 
L 172.335526 241.780612 
L 173.061511 241.369759 
L 173.787495 241.749803 
L 175.96545 241.475571 
L 176.691435 241.251397 
L 177.41742 241.664344 
L 178.143404 241.160959 
L 178.869389 241.039783 
L 180.321359 241.1848 
L 181.773329 241.264131 
L 183.225298 240.640131 
L 183.951283 240.600066 
L 184.677268 241.091955 
L 185.403253 240.508902 
L 186.129237 240.834605 
L 187.581207 240.318157 
L 188.307192 241.388326 
L 189.033177 241.314158 
L 189.759162 240.842636 
L 190.485146 241.408572 
L 191.211131 239.974018 
L 191.937116 241.2611 
L 192.663101 240.370612 
L 193.389086 240.451974 
L 194.11507 238.876023 
L 194.841055 240.344644 
L 195.56704 240.301198 
L 196.293025 241.250381 
L 197.01901 239.624227 
L 197.744995 237.059481 
L 198.470979 238.220448 
L 199.922949 237.163656 
L 200.648934 240.187063 
L 201.374919 239.395943 
L 202.100904 239.289891 
L 202.826888 240.244683 
L 203.552873 241.009755 
L 204.278858 238.170417 
L 205.004843 239.282355 
L 205.730828 241.342397 
L 206.456812 240.386342 
L 207.182797 238.154278 
L 207.908782 236.695702 
L 208.634767 239.697756 
L 209.360752 239.096014 
L 210.086737 239.983165 
L 210.812721 239.319138 
L 211.538706 241.13401 
L 212.264691 236.29932 
L 212.990676 239.04178 
L 213.716661 241.348749 
L 214.442645 239.606409 
L 215.16863 241.352269 
L 215.894615 237.35804 
L 216.6206 240.353874 
L 217.346585 241.621009 
L 218.07257 241.70201 
L 218.798554 236.706971 
L 219.524539 240.289247 
L 220.250524 240.113164 
L 220.976509 239.477209 
L 221.702494 240.801753 
L 223.154463 237.965237 
L 223.880448 241.739245 
L 225.332418 240.604227 
L 226.058403 238.582171 
L 226.784387 240.853802 
L 227.510372 241.564879 
L 228.236357 241.105679 
L 228.962342 240.184993 
L 229.688327 237.875995 
L 230.414312 237.038119 
L 231.140296 239.613001 
L 231.866281 238.869348 
L 232.592266 241.437307 
L 233.318251 241.006002 
L 234.044236 239.207645 
L 234.77022 240.968919 
L 235.496205 240.414085 
L 236.22219 240.340236 
L 236.948175 239.094184 
L 237.67416 239.921185 
L 238.400145 239.587826 
L 239.126129 237.552571 
L 239.852114 239.145889 
L 240.578099 239.970734 
L 241.304084 239.631744 
L 242.030069 240.347871 
L 242.756053 240.867535 
L 243.482038 239.171506 
L 244.208023 239.378522 
L 244.934008 240.907022 
L 245.659993 241.680608 
L 246.385978 240.945205 
L 247.111962 241.236621 
L 247.837947 240.99924 
L 248.563932 241.593565 
L 249.289917 241.066695 
L 250.015902 240.3088 
L 250.741887 238.864217 
L 251.467871 238.151104 
L 252.193856 236.562104 
L 253.645826 241.938167 
L 254.371811 240.520286 
L 255.097795 240.755617 
L 256.549765 241.591993 
L 257.27575 240.347561 
L 258.001735 241.866275 
L 258.72772 241.192918 
L 259.453704 240.072747 
L 260.179689 238.445032 
L 260.905674 239.947291 
L 261.631659 241.770738 
L 262.357644 238.510861 
L 263.083628 241.749261 
L 263.809613 239.919386 
L 264.535598 241.764469 
L 265.261583 237.47824 
L 265.987568 241.158319 
L 266.713553 240.941015 
L 267.439537 241.704097 
L 268.891507 240.519768 
L 270.343477 241.142619 
L 271.069462 238.458556 
L 271.795446 239.887053 
L 272.521431 241.755342 
L 273.247416 235.479584 
L 273.973401 239.307871 
L 274.699386 241.440234 
L 275.42537 238.650973 
L 276.151355 241.77671 
L 276.87734 240.239328 
L 277.603325 241.649623 
L 278.32931 241.563902 
L 279.055295 237.000624 
L 279.781279 228.899597 
L 280.507264 238.333728 
L 281.233249 225.883206 
L 281.959234 182.326582 
L 282.685219 230.890266 
L 283.411203 209.319422 
L 284.137188 232.797414 
L 284.863173 219.149586 
L 285.589158 242.069349 
L 286.315143 241.022061 
L 287.041128 236.234814 
L 287.767112 239.365872 
L 288.493097 240.481831 
L 289.219082 241.111849 
L 289.945067 241.408941 
L 290.671052 234.413192 
L 291.397037 229.056706 
L 292.123021 236.260798 
L 292.849006 239.689199 
L 293.574991 239.388567 
L 294.300976 239.985881 
L 295.026961 239.976282 
L 295.752945 241.174666 
L 296.47893 240.478436 
L 297.204915 241.817044 
L 297.9309 241.018159 
L 298.656885 241.621137 
L 299.38287 241.919524 
L 300.108854 241.971886 
L 301.560824 240.194656 
L 302.286809 240.744842 
L 303.012794 240.658964 
L 303.738778 240.10388 
L 304.464763 240.252609 
L 305.190748 240.05265 
L 305.916733 242.07681 
L 306.642718 241.417346 
L 307.368703 241.87837 
L 308.094687 240.23938 
L 308.820672 241.942451 
L 309.546657 241.072368 
L 310.272642 241.933961 
L 310.998627 241.23631 
L 311.724611 240.220406 
L 312.450596 242.04293 
L 313.176581 241.686965 
L 313.902566 242.042391 
L 314.628551 241.521886 
L 315.354536 239.329883 
L 316.08052 240.063349 
L 316.806505 241.763882 
L 317.53249 241.622633 
L 318.258475 241.853297 
L 318.98446 240.454111 
L 319.710445 240.883052 
L 320.436429 241.477276 
L 321.162414 241.560207 
L 321.888399 241.41088 
L 322.614384 241.683596 
L 323.340369 237.437881 
L 324.066353 240.709803 
L 324.792338 241.939786 
L 325.518323 239.646569 
L 326.970293 241.740802 
L 327.696278 241.587296 
L 329.148247 240.507637 
L 329.874232 238.735102 
L 330.600217 240.926207 
L 331.326202 240.958599 
L 332.052186 241.712983 
L 332.778171 241.850706 
L 333.504156 240.638743 
L 334.230141 241.87209 
L 334.956126 240.237282 
L 335.682111 241.277646 
L 336.408095 241.959894 
L 337.13408 240.572136 
L 337.860065 238.89013 
L 338.58605 241.842962 
L 339.312035 241.887017 
L 340.03802 240.080344 
L 340.764004 240.887034 
L 341.489989 240.212787 
L 342.215974 240.034158 
L 342.941959 241.084615 
L 343.667944 240.730583 
L 344.393928 240.025842 
L 345.119913 241.767199 
L 345.845898 239.664137 
L 346.571883 241.126755 
L 347.297868 241.796739 
L 348.023853 239.310298 
L 348.749837 241.261224 
L 349.475822 241.086326 
L 350.201807 241.105899 
L 350.927792 237.998999 
L 351.653777 240.243526 
L 352.379761 240.912335 
L 353.105746 242.00157 
L 353.831731 241.498131 
L 354.557716 241.587404 
L 355.283701 240.868519 
L 356.009686 240.794053 
L 356.73567 240.273098 
L 357.461655 241.763074 
L 358.18764 241.8852 
L 358.913625 240.729285 
L 360.365595 241.547386 
L 361.817564 240.875557 
L 362.543549 240.196593 
L 363.269534 240.609287 
L 363.995519 241.657883 
L 364.721503 241.187327 
L 365.447488 241.701256 
L 366.173473 242.009836 
L 366.899458 239.817433 
L 367.625443 241.473075 
L 368.351428 240.454022 
L 369.077412 239.034234 
L 369.803397 241.127426 
L 370.529382 240.735519 
L 371.255367 241.434588 
L 371.981352 241.577868 
L 372.707336 241.927472 
L 374.159306 241.388783 
L 374.885291 241.775284 
L 375.611276 241.957247 
L 376.337261 240.829985 
L 377.063245 241.341839 
L 377.78923 241.222972 
L 378.515215 242.096251 
L 379.2412 242.108173 
L 379.967185 241.62751 
L 380.693169 241.335895 
L 381.419154 240.804234 
L 382.145139 240.931965 
L 382.871124 240.693594 
L 383.597109 242.032585 
L 384.323094 239.978251 
L 385.049078 241.815711 
L 385.775063 241.427706 
L 386.501048 239.954124 
L 387.227033 242.061447 
L 387.953018 241.669095 
L 388.679003 241.867752 
L 389.404987 241.532924 
L 390.130972 236.744376 
L 390.856957 241.510404 
L 392.308927 241.810454 
L 393.760896 240.803429 
L 394.486881 241.704602 
L 395.212866 241.84633 
L 395.938851 240.624883 
L 396.664836 242.084026 
L 397.39082 241.625121 
L 398.84279 241.610893 
L 399.568775 241.223653 
L 401.020744 241.41243 
L 401.746729 241.665215 
L 402.472714 241.672166 
L 403.198699 241.327559 
L 403.924684 240.322125 
L 404.650669 241.848429 
L 405.376653 241.086152 
L 406.102638 241.734785 
L 406.828623 240.364403 
L 407.554608 241.954647 
L 408.280593 241.796423 
L 409.006578 241.951634 
L 409.732562 241.644494 
L 410.458547 241.019715 
L 411.184532 241.903372 
L 411.910517 240.615868 
L 412.636502 241.518265 
L 413.362486 241.918094 
L 414.088471 239.636157 
L 414.814456 242.052427 
L 415.540441 240.576505 
L 416.266426 241.849726 
L 416.992411 241.991513 
L 417.718395 239.402966 
L 418.44438 241.473082 
L 419.170365 241.74203 
L 419.89635 239.921423 
L 420.622335 241.199768 
L 421.348319 241.611834 
L 422.074304 241.510859 
L 422.800289 241.965048 
L 423.526274 241.980533 
L 424.252259 241.607638 
L 424.978244 241.857039 
L 425.704228 241.613296 
L 426.430213 240.926842 
L 427.156198 241.834123 
L 427.882183 241.973601 
L 428.608168 241.584272 
L 429.334153 241.76779 
L 430.060137 241.611914 
L 430.786122 240.87536 
L 431.512107 240.86069 
L 432.238092 241.584595 
L 433 241.352072 
M 433 242.116253 
L -1 242.116253 
L -1 242.116253 
" clip-path="url(#pa7db18737b)" style="fill: none; stroke: #c44e52; stroke-opacity: 0.3; stroke-width: 1.5; stroke-linecap: round"/>
   </g>
   <g id="line2d_17">
    <path d="M 54 241.918365 
L 161.445754 241.853615 
L 165.801662 241.580486 
L 166.527647 241.754479 
L 167.979617 241.627302 
L 168.705602 241.591071 
L 169.431587 241.735158 
L 170.883556 241.44981 
L 172.335526 241.709085 
L 173.061511 241.066552 
L 173.787495 241.43224 
L 175.239465 241.417193 
L 175.96545 241.364369 
L 176.691435 240.86582 
L 177.41742 241.016472 
L 178.143404 240.396096 
L 178.869389 240.782254 
L 179.595374 240.550256 
L 180.321359 240.70625 
L 181.047344 240.437123 
L 181.773329 240.604212 
L 182.499313 240.154562 
L 183.225298 240.268771 
L 183.951283 239.506597 
L 184.677268 239.806864 
L 185.403253 239.449212 
L 186.129237 240.550051 
L 186.855222 239.808596 
L 187.581207 241.316052 
L 188.307192 241.763314 
L 189.033177 241.594602 
L 189.759162 240.545071 
L 190.485146 240.654696 
L 191.211131 240.205768 
L 191.937116 239.18498 
L 192.663101 239.560447 
L 193.389086 238.386542 
L 194.11507 236.521831 
L 194.841055 239.588463 
L 195.56704 238.7109 
L 196.293025 237.216584 
L 197.01901 239.060358 
L 197.744995 239.790334 
L 198.470979 239.443916 
L 199.196964 238.330391 
L 200.648934 238.797224 
L 201.374919 237.635496 
L 202.100904 239.980132 
L 203.552873 240.075264 
L 204.278858 240.965954 
L 205.004843 242.093793 
L 205.730828 241.69901 
L 206.456812 240.539893 
L 207.182797 242.083884 
L 207.908782 238.59123 
L 209.360752 239.505871 
L 210.086737 238.487349 
L 210.812721 239.128803 
L 211.538706 237.350854 
L 212.264691 231.736145 
L 212.990676 234.377888 
L 213.716661 238.589999 
L 214.442645 232.886185 
L 215.16863 233.752982 
L 215.894615 233.824688 
L 216.6206 237.593527 
L 217.346585 240.516643 
L 218.07257 241.091704 
L 218.798554 240.514608 
L 219.524539 241.893153 
L 220.250524 239.358579 
L 220.976509 241.933668 
L 221.702494 241.375527 
L 222.428478 241.932429 
L 223.154463 241.582213 
L 223.880448 241.746786 
L 224.606433 238.804522 
L 225.332418 240.765358 
L 226.058403 238.766119 
L 226.784387 240.911034 
L 227.510372 241.060457 
L 228.236357 236.561631 
L 228.962342 239.762551 
L 229.688327 234.698338 
L 230.414312 234.392072 
L 231.140296 235.811246 
L 231.866281 238.396405 
L 232.592266 238.435757 
L 233.318251 237.195016 
L 234.044236 240.924599 
L 234.77022 238.263882 
L 235.496205 239.869391 
L 236.22219 240.569925 
L 236.948175 238.382818 
L 237.67416 239.206146 
L 238.400145 241.189592 
L 239.126129 241.033588 
L 239.852114 238.546151 
L 240.578099 241.857276 
L 241.304084 239.813298 
L 242.030069 240.800862 
L 242.756053 240.671268 
L 243.482038 239.10747 
L 244.208023 237.178357 
L 244.934008 236.672743 
L 245.659993 239.270153 
L 246.385978 240.261496 
L 247.111962 240.561571 
L 247.837947 238.686011 
L 248.563932 237.771135 
L 249.289917 241.961361 
L 250.015902 239.764382 
L 250.741887 241.299764 
L 251.467871 236.147207 
L 252.193856 241.727003 
L 252.919841 239.39987 
L 253.645826 240.81798 
L 254.371811 239.633589 
L 255.097795 236.276769 
L 255.82378 239.40355 
L 256.549765 240.136815 
L 258.001735 239.83684 
L 258.72772 240.182465 
L 259.453704 241.865887 
L 260.179689 238.080247 
L 260.905674 240.629178 
L 261.631659 240.023269 
L 262.357644 240.104319 
L 263.083628 237.024465 
L 263.809613 237.71703 
L 264.535598 236.570118 
L 265.261583 239.254734 
L 265.987568 238.563598 
L 266.713553 238.590778 
L 267.439537 240.402891 
L 268.165522 238.818947 
L 268.891507 238.937825 
L 269.617492 239.950272 
L 270.343477 242.009954 
L 271.069462 240.392442 
L 271.795446 237.057906 
L 272.521431 237.480166 
L 273.247416 237.145526 
L 273.973401 239.296396 
L 274.699386 238.596383 
L 275.42537 231.927637 
L 276.151355 234.977246 
L 276.87734 236.287402 
L 277.603325 238.543468 
L 278.32931 231.854309 
L 279.055295 221.544344 
L 279.781279 215.147114 
L 280.507264 224.713598 
L 281.233249 181.691682 
L 281.959234 68.353303 
L 282.685219 182.151941 
L 283.411203 44.443636 
L 284.137188 205.272793 
L 284.863173 197.586399 
L 285.589158 235.854115 
L 286.315143 222.425559 
L 287.041128 211.935695 
L 287.767112 204.503369 
L 288.493097 211.081887 
L 289.219082 216.129657 
L 289.945067 228.911819 
L 290.671052 229.285416 
L 291.397037 225.290573 
L 292.123021 229.647544 
L 292.849006 231.791446 
L 293.574991 240.436735 
L 294.300976 240.149731 
L 295.752945 241.743698 
L 296.47893 240.43596 
L 297.204915 241.689468 
L 297.9309 236.766753 
L 298.656885 240.224556 
L 299.38287 240.664677 
L 300.108854 240.568103 
L 300.834839 241.61955 
L 301.560824 240.8851 
L 302.286809 242.041695 
L 303.012794 239.950247 
L 303.738778 240.469984 
L 304.464763 239.016408 
L 305.190748 238.909402 
L 305.916733 241.069434 
L 306.642718 241.312038 
L 307.368703 241.377223 
L 308.094687 241.023189 
L 308.820672 240.813779 
L 309.546657 239.352398 
L 310.272642 241.209403 
L 310.998627 242.097162 
L 311.724611 242.094887 
L 312.450596 241.226985 
L 313.176581 241.876232 
L 313.902566 241.033347 
L 314.628551 242.102254 
L 316.08052 242.033951 
L 316.806505 241.742407 
L 317.53249 241.323662 
L 318.258475 242.015565 
L 318.98446 240.429683 
L 319.710445 241.355178 
L 320.436429 238.52446 
L 321.162414 240.231935 
L 321.888399 239.85223 
L 322.614384 240.62566 
L 323.340369 241.855905 
L 324.792338 241.39849 
L 325.518323 241.98521 
L 326.244308 241.204715 
L 326.970293 241.936933 
L 327.696278 241.015236 
L 328.422262 241.995234 
L 329.148247 241.410992 
L 329.874232 241.890762 
L 330.600217 241.130865 
L 331.326202 241.586605 
L 332.052186 238.801307 
L 332.778171 241.388233 
L 334.230141 241.312743 
L 334.956126 241.987513 
L 335.682111 240.672279 
L 336.408095 240.017242 
L 337.13408 241.40297 
L 337.860065 241.811486 
L 338.58605 240.510125 
L 339.312035 241.330242 
L 340.03802 240.386535 
L 340.764004 240.839843 
L 341.489989 241.621136 
L 342.215974 241.394868 
L 342.941959 240.002907 
L 343.667944 240.858705 
L 345.119913 242.038881 
L 345.845898 240.803876 
L 346.571883 240.936454 
L 347.297868 241.277147 
L 348.023853 242.105914 
L 348.749837 241.9504 
L 349.475822 240.817375 
L 350.201807 242.015777 
L 350.927792 240.481648 
L 351.653777 241.727741 
L 352.379761 239.33404 
L 353.105746 241.971002 
L 353.831731 241.633303 
L 354.557716 241.42378 
L 355.283701 240.697728 
L 356.009686 241.373069 
L 356.73567 241.383307 
L 357.461655 239.803489 
L 358.18764 241.344444 
L 358.913625 241.233052 
L 359.63961 240.370482 
L 360.365595 241.605658 
L 361.091579 241.638485 
L 361.817564 240.774278 
L 362.543549 241.021415 
L 363.269534 241.933194 
L 363.995519 241.213494 
L 364.721503 241.770929 
L 365.447488 240.060415 
L 366.173473 241.322206 
L 366.899458 241.76634 
L 367.625443 241.621708 
L 368.351428 240.915911 
L 369.077412 239.401177 
L 369.803397 241.469784 
L 370.529382 241.237825 
L 371.255367 242.077854 
L 371.981352 242.11297 
L 372.707336 241.836111 
L 373.433321 239.667126 
L 374.159306 242.037383 
L 374.885291 241.840179 
L 377.063245 241.981634 
L 377.78923 241.045376 
L 378.515215 241.14412 
L 379.2412 241.89956 
L 379.967185 241.537573 
L 380.693169 241.395296 
L 381.419154 241.115798 
L 382.145139 241.690095 
L 382.871124 241.682917 
L 383.597109 241.80263 
L 384.323094 240.484176 
L 385.049078 241.627894 
L 385.775063 242.110353 
L 386.501048 241.866842 
L 387.227033 241.20991 
L 387.953018 241.71692 
L 388.679003 241.736892 
L 390.130972 240.721644 
L 390.856957 241.697309 
L 391.582942 242.084735 
L 392.308927 241.810791 
L 393.034911 241.356582 
L 393.760896 242.090293 
L 394.486881 242.080018 
L 395.212866 241.634307 
L 395.938851 241.830574 
L 396.664836 241.286726 
L 398.84279 241.887151 
L 399.568775 241.283873 
L 400.29476 242.103351 
L 401.020744 241.918849 
L 401.746729 241.440905 
L 402.472714 241.758376 
L 403.198699 241.74177 
L 403.924684 241.604016 
L 404.650669 240.12417 
L 405.376653 241.02234 
L 406.102638 241.730475 
L 406.828623 241.05404 
L 407.554608 240.670599 
L 408.280593 241.968029 
L 409.006578 240.098271 
L 409.732562 242.058903 
L 410.458547 240.544683 
L 411.184532 241.737868 
L 411.910517 241.806134 
L 412.636502 241.003088 
L 413.362486 241.37345 
L 414.088471 242.004329 
L 414.814456 241.521143 
L 415.540441 241.716123 
L 416.266426 241.581117 
L 416.992411 242.108516 
L 417.718395 242.07514 
L 418.44438 240.082911 
L 419.170365 241.898239 
L 419.89635 241.281846 
L 420.622335 242.104651 
L 422.800289 241.909474 
L 424.252259 241.037335 
L 424.978244 240.234126 
L 425.704228 241.271567 
L 426.430213 241.682973 
L 427.156198 241.688168 
L 427.882183 241.291583 
L 428.608168 240.606559 
L 429.334153 241.98979 
L 430.060137 241.698883 
L 430.786122 241.626814 
L 431.512107 241.830645 
L 432.238092 241.265445 
L 433 241.916427 
M 433 242.116241 
L -1 242.116241 
L -1 242.116241 
" clip-path="url(#pa7db18737b)" style="fill: none; stroke: #8172b3; stroke-opacity: 0.3; stroke-width: 1.5; stroke-linecap: round"/>
   </g>
   <g id="line2d_18">
    <path d="M 54 242.116364 
L 433 242.116364 
M 433 242.116364 
L -1 242.116364 
L -1 242.116364 
" clip-path="url(#pa7db18737b)" style="fill: none; stroke: #937860; stroke-opacity: 0.3; stroke-width: 1.5; stroke-linecap: round"/>
   </g>
   <g id="line2d_19">
    <path d="M 54 241.999262 
L 162.897723 241.924053 
L 165.075678 241.797272 
L 165.801662 241.865329 
L 166.527647 241.686893 
L 167.253632 241.769323 
L 168.705602 241.785746 
L 169.431587 241.871466 
L 170.883556 241.693808 
L 171.609541 241.845198 
L 172.335526 241.451742 
L 173.061511 241.221546 
L 173.787495 241.38723 
L 174.51348 241.298835 
L 175.239465 241.606054 
L 175.96545 241.638273 
L 176.691435 241.448073 
L 178.143404 241.333178 
L 179.595374 240.815295 
L 180.321359 241.54978 
L 181.047344 241.376164 
L 181.773329 240.398661 
L 182.499313 241.125919 
L 183.225298 240.639893 
L 183.951283 240.962839 
L 184.677268 240.555807 
L 185.403253 239.878772 
L 186.129237 241.028322 
L 187.581207 240.440608 
L 188.307192 240.848718 
L 189.033177 241.112743 
L 189.759162 239.968212 
L 190.485146 240.865304 
L 191.211131 239.735209 
L 191.937116 239.175566 
L 192.663101 240.458246 
L 193.389086 240.796104 
L 194.11507 240.682303 
L 194.841055 240.866875 
L 195.56704 240.494408 
L 196.293025 240.913326 
L 197.01901 240.789817 
L 197.744995 241.872788 
L 198.470979 241.645179 
L 199.196964 241.785202 
L 199.922949 238.900835 
L 200.648934 239.391917 
L 201.374919 240.187412 
L 202.100904 240.127662 
L 202.826888 240.190325 
L 203.552873 240.486769 
L 204.278858 240.478986 
L 205.004843 240.972958 
L 205.730828 239.186098 
L 206.456812 239.662144 
L 207.182797 241.510338 
L 207.908782 241.761425 
L 208.634767 238.290373 
L 209.360752 238.935526 
L 210.086737 240.980602 
L 211.538706 239.865011 
L 212.264691 238.245685 
L 212.990676 238.940715 
L 213.716661 241.702896 
L 214.442645 238.76426 
L 215.16863 241.231276 
L 215.894615 240.374331 
L 216.6206 238.824781 
L 217.346585 238.751207 
L 218.07257 241.785855 
L 218.798554 240.758195 
L 219.524539 241.02051 
L 220.250524 239.57399 
L 220.976509 238.482652 
L 221.702494 240.042244 
L 222.428478 238.715422 
L 223.154463 240.981667 
L 223.880448 239.828919 
L 224.606433 240.09962 
L 225.332418 240.958275 
L 226.058403 240.381735 
L 226.784387 240.94649 
L 227.510372 241.788427 
L 228.236357 240.802897 
L 228.962342 239.067414 
L 229.688327 241.074171 
L 230.414312 241.639887 
L 231.140296 239.590868 
L 231.866281 238.21366 
L 232.592266 241.386367 
L 233.318251 235.908442 
L 234.044236 241.896578 
L 234.77022 241.46407 
L 235.496205 238.03313 
L 236.22219 241.575231 
L 236.948175 239.095403 
L 237.67416 240.453155 
L 238.400145 240.686695 
L 239.126129 239.992057 
L 239.852114 240.250601 
L 241.304084 240.065471 
L 242.030069 241.710163 
L 242.756053 241.376767 
L 243.482038 240.685598 
L 244.208023 238.910397 
L 244.934008 240.017831 
L 245.659993 240.071093 
L 246.385978 239.403227 
L 247.111962 240.053692 
L 247.837947 238.858294 
L 248.563932 241.222959 
L 249.289917 240.469533 
L 250.015902 241.205362 
L 250.741887 240.472933 
L 251.467871 240.238532 
L 252.193856 239.767929 
L 252.919841 241.794954 
L 253.645826 240.38989 
L 254.371811 239.359499 
L 255.097795 239.979007 
L 255.82378 237.937719 
L 256.549765 239.672198 
L 257.27575 239.941945 
L 258.001735 241.275427 
L 258.72772 239.965222 
L 259.453704 240.03263 
L 260.179689 240.771137 
L 260.905674 238.368657 
L 261.631659 241.676374 
L 262.357644 240.587002 
L 263.083628 241.879246 
L 263.809613 240.800068 
L 264.535598 238.046441 
L 265.261583 240.789441 
L 265.987568 240.061493 
L 266.713553 241.187269 
L 267.439537 240.219821 
L 268.165522 237.04068 
L 268.891507 239.248659 
L 270.343477 240.49811 
L 271.069462 241.964286 
L 271.795446 241.95718 
L 272.521431 241.370945 
L 273.247416 237.758037 
L 273.973401 242.010208 
L 274.699386 240.22898 
L 275.42537 239.996758 
L 276.151355 240.872733 
L 276.87734 238.544778 
L 277.603325 238.370183 
L 278.32931 241.624767 
L 279.055295 241.554654 
L 279.781279 241.94469 
L 280.507264 238.811524 
L 281.233249 234.953488 
L 281.959234 232.946877 
L 282.685219 240.667947 
L 283.411203 234.177469 
L 284.137188 237.092915 
L 284.863173 233.994531 
L 285.589158 240.361088 
L 286.315143 241.17245 
L 287.041128 241.737126 
L 287.767112 241.468356 
L 288.493097 239.985221 
L 289.219082 241.776495 
L 289.945067 238.950081 
L 290.671052 239.30989 
L 291.397037 242.06303 
L 292.123021 241.423303 
L 292.849006 241.93298 
L 293.574991 241.062699 
L 294.300976 241.532191 
L 295.026961 241.736143 
L 295.752945 241.18734 
L 297.204915 241.96384 
L 297.9309 239.688165 
L 298.656885 239.671605 
L 299.38287 238.16243 
L 300.108854 239.384677 
L 300.834839 239.813145 
L 301.560824 241.890559 
L 302.286809 241.269671 
L 303.012794 241.253598 
L 303.738778 239.595989 
L 304.464763 241.399456 
L 305.190748 241.298712 
L 305.916733 241.561694 
L 307.368703 240.966823 
L 308.094687 236.245719 
L 308.820672 241.093012 
L 310.272642 240.590715 
L 310.998627 239.484741 
L 311.724611 241.507134 
L 312.450596 240.017529 
L 313.176581 241.083409 
L 313.902566 239.61476 
L 315.354536 241.31593 
L 316.08052 240.929138 
L 316.806505 241.302711 
L 317.53249 240.300476 
L 318.258475 241.60525 
L 318.98446 241.980963 
L 319.710445 236.874495 
L 320.436429 241.115829 
L 321.162414 242.026161 
L 321.888399 239.189547 
L 322.614384 241.312028 
L 323.340369 241.034388 
L 324.066353 240.072891 
L 324.792338 241.393364 
L 325.518323 241.831532 
L 326.244308 242.098869 
L 326.970293 240.521165 
L 327.696278 239.655287 
L 328.422262 241.333968 
L 329.148247 240.163659 
L 330.600217 239.727338 
L 331.326202 240.33173 
L 332.052186 242.09906 
L 332.778171 241.500504 
L 333.504156 241.573875 
L 334.230141 238.901558 
L 334.956126 241.001379 
L 335.682111 241.145212 
L 336.408095 239.920027 
L 337.860065 241.584387 
L 338.58605 239.573384 
L 339.312035 241.54407 
L 340.03802 240.74705 
L 340.764004 241.695589 
L 341.489989 239.442857 
L 342.215974 241.711442 
L 342.941959 239.347365 
L 343.667944 240.978578 
L 344.393928 238.788627 
L 345.119913 241.321299 
L 345.845898 241.834467 
L 346.571883 239.753108 
L 347.297868 241.521717 
L 348.023853 240.724008 
L 348.749837 241.560793 
L 349.475822 241.814363 
L 350.201807 240.707461 
L 350.927792 241.79677 
L 351.653777 241.496314 
L 352.379761 241.560499 
L 353.105746 240.080008 
L 353.831731 239.911876 
L 354.557716 241.717125 
L 355.283701 240.884064 
L 356.009686 241.626267 
L 356.73567 242.022527 
L 357.461655 241.30613 
L 358.18764 241.810255 
L 358.913625 241.945172 
L 359.63961 241.835309 
L 361.091579 240.178561 
L 361.817564 241.67976 
L 362.543549 240.891614 
L 363.269534 240.598299 
L 363.995519 240.828273 
L 364.721503 241.184638 
L 365.447488 240.804668 
L 366.173473 241.597694 
L 366.899458 241.857583 
L 368.351428 241.253691 
L 369.077412 241.823057 
L 369.803397 241.470528 
L 370.529382 242.014595 
L 371.981352 241.894604 
L 372.707336 240.002998 
L 373.433321 242.071188 
L 374.159306 242.079096 
L 374.885291 241.709218 
L 375.611276 242.08393 
L 377.063245 241.032144 
L 377.78923 241.653142 
L 379.2412 242.026616 
L 379.967185 241.440916 
L 380.693169 241.13292 
L 381.419154 241.723427 
L 382.145139 241.802502 
L 382.871124 240.769782 
L 383.597109 242.080717 
L 384.323094 238.366388 
L 385.049078 240.833881 
L 385.775063 242.111684 
L 387.227033 241.30286 
L 387.953018 241.558715 
L 388.679003 240.02229 
L 389.404987 241.336449 
L 390.130972 241.952085 
L 390.856957 240.714502 
L 391.582942 241.511631 
L 392.308927 242.005163 
L 393.034911 241.615696 
L 393.760896 240.084439 
L 394.486881 241.767193 
L 395.212866 241.826259 
L 395.938851 241.564303 
L 396.664836 240.970963 
L 397.39082 241.945499 
L 398.116805 241.238653 
L 398.84279 240.353479 
L 399.568775 241.906372 
L 400.29476 241.856843 
L 401.020744 240.286357 
L 401.746729 241.153443 
L 402.472714 240.448055 
L 403.198699 241.534447 
L 403.924684 239.499173 
L 404.650669 241.703217 
L 405.376653 241.654449 
L 406.102638 241.277133 
L 406.828623 241.391153 
L 407.554608 241.814275 
L 408.280593 241.687086 
L 409.006578 241.964629 
L 409.732562 239.814561 
L 410.458547 241.335629 
L 411.184532 240.867361 
L 411.910517 239.59067 
L 412.636502 241.844017 
L 413.362486 241.08373 
L 414.088471 241.960386 
L 414.814456 240.77235 
L 415.540441 241.835968 
L 416.266426 241.336134 
L 416.992411 241.749771 
L 417.718395 242.006877 
L 418.44438 241.975909 
L 419.170365 242.077517 
L 419.89635 241.829657 
L 420.622335 240.536261 
L 421.348319 241.612195 
L 422.800289 241.079404 
L 423.526274 241.263812 
L 424.252259 241.846444 
L 424.978244 240.618086 
L 425.704228 241.246605 
L 426.430213 241.421445 
L 427.156198 240.036123 
L 427.882183 241.831214 
L 428.608168 242.101287 
L 429.334153 239.928153 
L 430.060137 240.850397 
L 430.786122 240.651348 
L 431.512107 242.009866 
L 432.238092 242.052849 
L 432.964077 240.294516 
L 433 240.383207 
M 433 242.116242 
L -1 242.116242 
L -1 242.116242 
" clip-path="url(#pa7db18737b)" style="fill: none; stroke: #da8bc3; stroke-opacity: 0.3; stroke-width: 1.5; stroke-linecap: round"/>
   </g>
   <g id="patch_3">
    <path d="M 54 252 
L 54 34.56 
" style="fill: none; stroke: #262626; stroke-width: 1.25; stroke-linejoin: miter; stroke-linecap: square"/>
   </g>
   <g id="patch_4">
    <path d="M 388.8 252 
L 388.8 34.56 
" style="fill: none; stroke: #262626; stroke-width: 1.25; stroke-linejoin: miter; stroke-linecap: square"/>
   </g>
   <g id="patch_5">
    <path d="M 54 252 
L 388.8 252 
" style="fill: none; stroke: #262626; stroke-width: 1.25; stroke-linejoin: miter; stroke-linecap: square"/>
   </g>
   <g id="patch_6">
    <path d="M 54 34.56 
L 388.8 34.56 
" style="fill: none; stroke: #262626; stroke-width: 1.25; stroke-linejoin: miter; stroke-linecap: square"/>
   </g>
   <g id="text_14">
    <!-- patient06_app10 - Power spectrum -->
    <g style="fill: #262626" transform="translate(128.0175 28.56)scale(0.12 -0.12)">
     <defs>
      <path id="ArialMT-70" d="M 422 -1272 
L 422 3319 
L 934 3319 
L 934 2888 
Q 1116 3141 1344 3267 
Q 1572 3394 1897 3394 
Q 2322 3394 2647 3175 
Q 2972 2956 3137 2557 
Q 3303 2159 3303 1684 
Q 3303 1175 3120 767 
Q 2938 359 2589 142 
Q 2241 -75 1856 -75 
Q 1575 -75 1351 44 
Q 1128 163 984 344 
L 984 -1272 
L 422 -1272 
z
M 931 1641 
Q 931 1000 1190 694 
Q 1450 388 1819 388 
Q 2194 388 2461 705 
Q 2728 1022 2728 1688 
Q 2728 2322 2467 2637 
Q 2206 2953 1844 2953 
Q 1484 2953 1207 2617 
Q 931 2281 931 1641 
z
" transform="scale(0.015625)"/>
      <path id="ArialMT-61" d="M 2588 409 
Q 2275 144 1986 34 
Q 1697 -75 1366 -75 
Q 819 -75 525 192 
Q 231 459 231 875 
Q 231 1119 342 1320 
Q 453 1522 633 1644 
Q 813 1766 1038 1828 
Q 1203 1872 1538 1913 
Q 2219 1994 2541 2106 
Q 2544 2222 2544 2253 
Q 2544 2597 2384 2738 
Q 2169 2928 1744 2928 
Q 1347 2928 1158 2789 
Q 969 2650 878 2297 
L 328 2372 
Q 403 2725 575 2942 
Q 747 3159 1072 3276 
Q 1397 3394 1825 3394 
Q 2250 3394 2515 3294 
Q 2781 3194 2906 3042 
Q 3031 2891 3081 2659 
Q 3109 2516 3109 2141 
L 3109 1391 
Q 3109 606 3145 398 
Q 3181 191 3288 0 
L 2700 0 
Q 2613 175 2588 409 
z
M 2541 1666 
Q 2234 1541 1622 1453 
Q 1275 1403 1131 1340 
Q 988 1278 909 1158 
Q 831 1038 831 891 
Q 831 666 1001 516 
Q 1172 366 1500 366 
Q 1825 366 2078 508 
Q 2331 650 2450 897 
Q 2541 1088 2541 1459 
L 2541 1666 
z
" transform="scale(0.015625)"/>
      <path id="ArialMT-74" d="M 1650 503 
L 1731 6 
Q 1494 -44 1306 -44 
Q 1000 -44 831 53 
Q 663 150 594 308 
Q 525 466 525 972 
L 525 2881 
L 113 2881 
L 113 3319 
L 525 3319 
L 525 4141 
L 1084 4478 
L 1084 3319 
L 1650 3319 
L 1650 2881 
L 1084 2881 
L 1084 941 
Q 1084 700 1114 631 
Q 1144 563 1211 522 
Q 1278 481 1403 481 
Q 1497 481 1650 503 
z
" transform="scale(0.015625)"/>
      <path id="ArialMT-69" d="M 425 3934 
L 425 4581 
L 988 4581 
L 988 3934 
L 425 3934 
z
M 425 0 
L 425 3319 
L 988 3319 
L 988 0 
L 425 0 
z
" transform="scale(0.015625)"/>
      <path id="ArialMT-36" d="M 3184 3459 
L 2625 3416 
Q 2550 3747 2413 3897 
Q 2184 4138 1850 4138 
Q 1581 4138 1378 3988 
Q 1113 3794 959 3422 
Q 806 3050 800 2363 
Q 1003 2672 1297 2822 
Q 1591 2972 1913 2972 
Q 2475 2972 2870 2558 
Q 3266 2144 3266 1488 
Q 3266 1056 3080 686 
Q 2894 316 2569 119 
Q 2244 -78 1831 -78 
Q 1128 -78 684 439 
Q 241 956 241 2144 
Q 241 3472 731 4075 
Q 1159 4600 1884 4600 
Q 2425 4600 2770 4297 
Q 3116 3994 3184 3459 
z
M 888 1484 
Q 888 1194 1011 928 
Q 1134 663 1356 523 
Q 1578 384 1822 384 
Q 2178 384 2434 671 
Q 2691 959 2691 1453 
Q 2691 1928 2437 2201 
Q 2184 2475 1800 2475 
Q 1419 2475 1153 2201 
Q 888 1928 888 1484 
z
" transform="scale(0.015625)"/>
      <path id="ArialMT-5f" d="M -97 -1272 
L -97 -866 
L 3631 -866 
L 3631 -1272 
L -97 -1272 
z
" transform="scale(0.015625)"/>
      <path id="ArialMT-2d" d="M 203 1375 
L 203 1941 
L 1931 1941 
L 1931 1375 
L 203 1375 
z
" transform="scale(0.015625)"/>
      <path id="ArialMT-50" d="M 494 0 
L 494 4581 
L 2222 4581 
Q 2678 4581 2919 4538 
Q 3256 4481 3484 4323 
Q 3713 4166 3852 3881 
Q 3991 3597 3991 3256 
Q 3991 2672 3619 2267 
Q 3247 1863 2275 1863 
L 1100 1863 
L 1100 0 
L 494 0 
z
M 1100 2403 
L 2284 2403 
Q 2872 2403 3119 2622 
Q 3366 2841 3366 3238 
Q 3366 3525 3220 3729 
Q 3075 3934 2838 4000 
Q 2684 4041 2272 4041 
L 1100 4041 
L 1100 2403 
z
" transform="scale(0.015625)"/>
      <path id="ArialMT-6f" d="M 213 1659 
Q 213 2581 725 3025 
Q 1153 3394 1769 3394 
Q 2453 3394 2887 2945 
Q 3322 2497 3322 1706 
Q 3322 1066 3130 698 
Q 2938 331 2570 128 
Q 2203 -75 1769 -75 
Q 1072 -75 642 372 
Q 213 819 213 1659 
z
M 791 1659 
Q 791 1022 1069 705 
Q 1347 388 1769 388 
Q 2188 388 2466 706 
Q 2744 1025 2744 1678 
Q 2744 2294 2464 2611 
Q 2184 2928 1769 2928 
Q 1347 2928 1069 2612 
Q 791 2297 791 1659 
z
" transform="scale(0.015625)"/>
      <path id="ArialMT-77" d="M 1034 0 
L 19 3319 
L 600 3319 
L 1128 1403 
L 1325 691 
Q 1338 744 1497 1375 
L 2025 3319 
L 2603 3319 
L 3100 1394 
L 3266 759 
L 3456 1400 
L 4025 3319 
L 4572 3319 
L 3534 0 
L 2950 0 
L 2422 1988 
L 2294 2553 
L 1622 0 
L 1034 0 
z
" transform="scale(0.015625)"/>
      <path id="ArialMT-73" d="M 197 991 
L 753 1078 
Q 800 744 1014 566 
Q 1228 388 1613 388 
Q 2000 388 2187 545 
Q 2375 703 2375 916 
Q 2375 1106 2209 1216 
Q 2094 1291 1634 1406 
Q 1016 1563 777 1677 
Q 538 1791 414 1992 
Q 291 2194 291 2438 
Q 291 2659 392 2848 
Q 494 3038 669 3163 
Q 800 3259 1026 3326 
Q 1253 3394 1513 3394 
Q 1903 3394 2198 3281 
Q 2494 3169 2634 2976 
Q 2775 2784 2828 2463 
L 2278 2388 
Q 2241 2644 2061 2787 
Q 1881 2931 1553 2931 
Q 1166 2931 1000 2803 
Q 834 2675 834 2503 
Q 834 2394 903 2306 
Q 972 2216 1119 2156 
Q 1203 2125 1616 2013 
Q 2213 1853 2448 1751 
Q 2684 1650 2818 1456 
Q 2953 1263 2953 975 
Q 2953 694 2789 445 
Q 2625 197 2315 61 
Q 2006 -75 1616 -75 
Q 969 -75 630 194 
Q 291 463 197 991 
z
" transform="scale(0.015625)"/>
      <path id="ArialMT-6d" d="M 422 0 
L 422 3319 
L 925 3319 
L 925 2853 
Q 1081 3097 1340 3245 
Q 1600 3394 1931 3394 
Q 2300 3394 2536 3241 
Q 2772 3088 2869 2813 
Q 3263 3394 3894 3394 
Q 4388 3394 4653 3120 
Q 4919 2847 4919 2278 
L 4919 0 
L 4359 0 
L 4359 2091 
Q 4359 2428 4304 2576 
Q 4250 2725 4106 2815 
Q 3963 2906 3769 2906 
Q 3419 2906 3187 2673 
Q 2956 2441 2956 1928 
L 2956 0 
L 2394 0 
L 2394 2156 
Q 2394 2531 2256 2718 
Q 2119 2906 1806 2906 
Q 1569 2906 1367 2781 
Q 1166 2656 1075 2415 
Q 984 2175 984 1722 
L 984 0 
L 422 0 
z
" transform="scale(0.015625)"/>
     </defs>
     <use xlink:href="#ArialMT-70"/>
     <use xlink:href="#ArialMT-61" x="55.615234"/>
     <use xlink:href="#ArialMT-74" x="111.230469"/>
     <use xlink:href="#ArialMT-69" x="139.013672"/>
     <use xlink:href="#ArialMT-65" x="161.230469"/>
     <use xlink:href="#ArialMT-6e" x="216.845703"/>
     <use xlink:href="#ArialMT-74" x="272.460938"/>
     <use xlink:href="#ArialMT-30" x="300.244141"/>
     <use xlink:href="#ArialMT-36" x="355.859375"/>
     <use xlink:href="#ArialMT-5f" x="411.474609"/>
     <use xlink:href="#ArialMT-61" x="467.089844"/>
     <use xlink:href="#ArialMT-70" x="522.705078"/>
     <use xlink:href="#ArialMT-70" x="578.320312"/>
     <use xlink:href="#ArialMT-31" x="633.935547"/>
     <use xlink:href="#ArialMT-30" x="689.550781"/>
     <use xlink:href="#ArialMT-20" x="745.166016"/>
     <use xlink:href="#ArialMT-2d" x="772.949219"/>
     <use xlink:href="#ArialMT-20" x="806.25"/>
     <use xlink:href="#ArialMT-50" x="834.033203"/>
     <use xlink:href="#ArialMT-6f" x="900.732422"/>
     <use xlink:href="#ArialMT-77" x="956.347656"/>
     <use xlink:href="#ArialMT-65" x="1028.564453"/>
     <use xlink:href="#ArialMT-72" x="1084.179688"/>
     <use xlink:href="#ArialMT-20" x="1117.480469"/>
     <use xlink:href="#ArialMT-73" x="1145.263672"/>
     <use xlink:href="#ArialMT-70" x="1195.263672"/>
     <use xlink:href="#ArialMT-65" x="1250.878906"/>
     <use xlink:href="#ArialMT-63" x="1306.494141"/>
     <use xlink:href="#ArialMT-74" x="1356.494141"/>
     <use xlink:href="#ArialMT-72" x="1384.277344"/>
     <use xlink:href="#ArialMT-75" x="1417.578125"/>
     <use xlink:href="#ArialMT-6d" x="1473.193359"/>
    </g>
   </g>
   <g id="legend_1">
    <g id="patch_7">
     <path d="M 313.503281 152.278906 
L 381.1 152.278906 
Q 383.3 152.278906 383.3 150.078906 
L 383.3 42.26 
Q 383.3 40.06 381.1 40.06 
L 313.503281 40.06 
Q 311.303281 40.06 311.303281 42.26 
L 311.303281 150.078906 
Q 311.303281 152.278906 313.503281 152.278906 
z
" style="fill: #ffffff; opacity: 0.8; stroke: #cccccc; stroke-linejoin: miter"/>
    </g>
    <g id="line2d_20">
     <path d="M 315.703281 48.483594 
L 326.703281 48.483594 
L 337.703281 48.483594 
" style="fill: none; stroke: #4c72b0; stroke-opacity: 0.3; stroke-width: 1.5; stroke-linecap: round"/>
    </g>
    <g id="text_15">
     <!-- IMU9 -->
     <g style="fill: #262626" transform="translate(346.503281 52.333594)scale(0.11 -0.11)">
      <defs>
       <path id="ArialMT-49" d="M 597 0 
L 597 4581 
L 1203 4581 
L 1203 0 
L 597 0 
z
" transform="scale(0.015625)"/>
       <path id="ArialMT-4d" d="M 475 0 
L 475 4581 
L 1388 4581 
L 2472 1338 
Q 2622 884 2691 659 
Q 2769 909 2934 1394 
L 4031 4581 
L 4847 4581 
L 4847 0 
L 4263 0 
L 4263 3834 
L 2931 0 
L 2384 0 
L 1059 3900 
L 1059 0 
L 475 0 
z
" transform="scale(0.015625)"/>
       <path id="ArialMT-55" d="M 3500 4581 
L 4106 4581 
L 4106 1934 
Q 4106 1244 3950 837 
Q 3794 431 3386 176 
Q 2978 -78 2316 -78 
Q 1672 -78 1262 144 
Q 853 366 678 786 
Q 503 1206 503 1934 
L 503 4581 
L 1109 4581 
L 1109 1938 
Q 1109 1341 1220 1058 
Q 1331 775 1601 622 
Q 1872 469 2263 469 
Q 2931 469 3215 772 
Q 3500 1075 3500 1938 
L 3500 4581 
z
" transform="scale(0.015625)"/>
       <path id="ArialMT-39" d="M 350 1059 
L 891 1109 
Q 959 728 1153 556 
Q 1347 384 1650 384 
Q 1909 384 2104 503 
Q 2300 622 2425 820 
Q 2550 1019 2634 1356 
Q 2719 1694 2719 2044 
Q 2719 2081 2716 2156 
Q 2547 1888 2255 1720 
Q 1963 1553 1622 1553 
Q 1053 1553 659 1965 
Q 266 2378 266 3053 
Q 266 3750 677 4175 
Q 1088 4600 1706 4600 
Q 2153 4600 2523 4359 
Q 2894 4119 3086 3673 
Q 3278 3228 3278 2384 
Q 3278 1506 3087 986 
Q 2897 466 2520 194 
Q 2144 -78 1638 -78 
Q 1100 -78 759 220 
Q 419 519 350 1059 
z
M 2653 3081 
Q 2653 3566 2395 3850 
Q 2138 4134 1775 4134 
Q 1400 4134 1122 3828 
Q 844 3522 844 3034 
Q 844 2597 1108 2323 
Q 1372 2050 1759 2050 
Q 2150 2050 2401 2323 
Q 2653 2597 2653 3081 
z
" transform="scale(0.015625)"/>
      </defs>
      <use xlink:href="#ArialMT-49"/>
      <use xlink:href="#ArialMT-4d" x="27.783203"/>
      <use xlink:href="#ArialMT-55" x="111.083984"/>
      <use xlink:href="#ArialMT-39" x="183.300781"/>
     </g>
    </g>
    <g id="line2d_21">
     <path d="M 315.703281 64.043438 
L 326.703281 64.043438 
L 337.703281 64.043438 
" style="fill: none; stroke: #dd8452; stroke-opacity: 0.3; stroke-width: 1.5; stroke-linecap: round"/>
    </g>
    <g id="text_16">
     <!-- IMU10 -->
     <g style="fill: #262626" transform="translate(346.503281 67.893438)scale(0.11 -0.11)">
      <use xlink:href="#ArialMT-49"/>
      <use xlink:href="#ArialMT-4d" x="27.783203"/>
      <use xlink:href="#ArialMT-55" x="111.083984"/>
      <use xlink:href="#ArialMT-31" x="183.300781"/>
      <use xlink:href="#ArialMT-30" x="238.916016"/>
     </g>
    </g>
    <g id="line2d_22">
     <path d="M 315.703281 79.603281 
L 326.703281 79.603281 
L 337.703281 79.603281 
" style="fill: none; stroke: #55a868; stroke-opacity: 0.3; stroke-width: 1.5; stroke-linecap: round"/>
    </g>
    <g id="text_17">
     <!-- IMU11 -->
     <g style="fill: #262626" transform="translate(346.503281 83.453281)scale(0.11 -0.11)">
      <use xlink:href="#ArialMT-49"/>
      <use xlink:href="#ArialMT-4d" x="27.783203"/>
      <use xlink:href="#ArialMT-55" x="111.083984"/>
      <use xlink:href="#ArialMT-31" x="183.300781"/>
      <use xlink:href="#ArialMT-31" x="231.541016"/>
     </g>
    </g>
    <g id="line2d_23">
     <path d="M 315.703281 95.163125 
L 326.703281 95.163125 
L 337.703281 95.163125 
" style="fill: none; stroke: #c44e52; stroke-opacity: 0.3; stroke-width: 1.5; stroke-linecap: round"/>
    </g>
    <g id="text_18">
     <!-- IMU12 -->
     <g style="fill: #262626" transform="translate(346.503281 99.013125)scale(0.11 -0.11)">
      <use xlink:href="#ArialMT-49"/>
      <use xlink:href="#ArialMT-4d" x="27.783203"/>
      <use xlink:href="#ArialMT-55" x="111.083984"/>
      <use xlink:href="#ArialMT-31" x="183.300781"/>
      <use xlink:href="#ArialMT-32" x="238.916016"/>
     </g>
    </g>
    <g id="line2d_24">
     <path d="M 315.703281 110.722969 
L 326.703281 110.722969 
L 337.703281 110.722969 
" style="fill: none; stroke: #8172b3; stroke-opacity: 0.3; stroke-width: 1.5; stroke-linecap: round"/>
    </g>
    <g id="text_19">
     <!-- IMU13 -->
     <g style="fill: #262626" transform="translate(346.503281 114.572969)scale(0.11 -0.11)">
      <use xlink:href="#ArialMT-49"/>
      <use xlink:href="#ArialMT-4d" x="27.783203"/>
      <use xlink:href="#ArialMT-55" x="111.083984"/>
      <use xlink:href="#ArialMT-31" x="183.300781"/>
      <use xlink:href="#ArialMT-33" x="238.916016"/>
     </g>
    </g>
    <g id="line2d_25">
     <path d="M 315.703281 126.282813 
L 326.703281 126.282813 
L 337.703281 126.282813 
" style="fill: none; stroke: #937860; stroke-opacity: 0.3; stroke-width: 1.5; stroke-linecap: round"/>
    </g>
    <g id="text_20">
     <!-- IMU14 -->
     <g style="fill: #262626" transform="translate(346.503281 130.132812)scale(0.11 -0.11)">
      <use xlink:href="#ArialMT-49"/>
      <use xlink:href="#ArialMT-4d" x="27.783203"/>
      <use xlink:href="#ArialMT-55" x="111.083984"/>
      <use xlink:href="#ArialMT-31" x="183.300781"/>
      <use xlink:href="#ArialMT-34" x="238.916016"/>
     </g>
    </g>
    <g id="line2d_26">
     <path d="M 315.703281 141.842656 
L 326.703281 141.842656 
L 337.703281 141.842656 
" style="fill: none; stroke: #da8bc3; stroke-opacity: 0.3; stroke-width: 1.5; stroke-linecap: round"/>
    </g>
    <g id="text_21">
     <!-- IMU15 -->
     <g style="fill: #262626" transform="translate(346.503281 145.692656)scale(0.11 -0.11)">
      <use xlink:href="#ArialMT-49"/>
      <use xlink:href="#ArialMT-4d" x="27.783203"/>
      <use xlink:href="#ArialMT-55" x="111.083984"/>
      <use xlink:href="#ArialMT-31" x="183.300781"/>
      <use xlink:href="#ArialMT-35" x="238.916016"/>
     </g>
    </g>
   </g>
  </g>
 </g>
 <defs>
  <clipPath id="pa7db18737b">
   <rect x="54" y="34.56" width="334.8" height="217.44"/>
  </clipPath>
 </defs>
</svg>
