<?xml version="1.0" encoding="utf-8" standalone="no"?>
<!DOCTYPE svg PUBLIC "-//W3C//DTD SVG 1.1//EN"
  "http://www.w3.org/Graphics/SVG/1.1/DTD/svg11.dtd">
<svg xmlns:xlink="http://www.w3.org/1999/xlink" width="432pt" height="288pt" viewBox="0 0 432 288" xmlns="http://www.w3.org/2000/svg" version="1.1">
 <metadata>
  <rdf:RDF xmlns:dc="http://purl.org/dc/elements/1.1/" xmlns:cc="http://creativecommons.org/ns#" xmlns:rdf="http://www.w3.org/1999/02/22-rdf-syntax-ns#">
   <cc:Work>
    <dc:type rdf:resource="http://purl.org/dc/dcmitype/StillImage"/>
    <dc:date>2022-07-08T13:58:11.848051</dc:date>
    <dc:format>image/svg+xml</dc:format>
    <dc:creator>
     <cc:Agent>
      <dc:title>Matplotlib v3.5.1, https://matplotlib.org/</dc:title>
     </cc:Agent>
    </dc:creator>
   </cc:Work>
  </rdf:RDF>
 </metadata>
 <defs>
  <style type="text/css">*{stroke-linejoin: round; stroke-linecap: butt}</style>
 </defs>
 <g id="figure_1">
  <g id="patch_1">
   <path d="M 0 288 
L 432 288 
L 432 0 
L 0 0 
z
" style="fill: #ffffff"/>
  </g>
  <g id="axes_1">
   <g id="patch_2">
    <path d="M 54 252 
L 388.8 252 
L 388.8 34.56 
L 54 34.56 
z
" style="fill: #ffffff"/>
   </g>
   <g id="matplotlib.axis_1">
    <g id="xtick_1">
     <g id="line2d_1">
      <defs>
       <path id="m07f0ecf8c8" d="M 0 0 
L 0 6 
" style="stroke: #262626; stroke-width: 1.25"/>
      </defs>
      <g>
       <use xlink:href="#m07f0ecf8c8" x="54" y="252" style="fill: #262626; stroke: #262626; stroke-width: 1.25"/>
      </g>
     </g>
     <g id="text_1">
      <!-- 0 -->
      <g style="fill: #262626" transform="translate(50.941484 269.373594)scale(0.11 -0.11)">
       <defs>
        <path id="ArialMT-30" d="M 266 2259 
Q 266 3072 433 3567 
Q 600 4063 929 4331 
Q 1259 4600 1759 4600 
Q 2128 4600 2406 4451 
Q 2684 4303 2865 4023 
Q 3047 3744 3150 3342 
Q 3253 2941 3253 2259 
Q 3253 1453 3087 958 
Q 2922 463 2592 192 
Q 2263 -78 1759 -78 
Q 1097 -78 719 397 
Q 266 969 266 2259 
z
M 844 2259 
Q 844 1131 1108 757 
Q 1372 384 1759 384 
Q 2147 384 2411 759 
Q 2675 1134 2675 2259 
Q 2675 3391 2411 3762 
Q 2147 4134 1753 4134 
Q 1366 4134 1134 3806 
Q 844 3388 844 2259 
z
" transform="scale(0.015625)"/>
       </defs>
       <use xlink:href="#ArialMT-30"/>
      </g>
     </g>
    </g>
    <g id="xtick_2">
     <g id="line2d_2">
      <g>
       <use xlink:href="#m07f0ecf8c8" x="120.96" y="252" style="fill: #262626; stroke: #262626; stroke-width: 1.25"/>
      </g>
     </g>
     <g id="text_2">
      <!-- 5 -->
      <g style="fill: #262626" transform="translate(117.901484 269.373594)scale(0.11 -0.11)">
       <defs>
        <path id="ArialMT-35" d="M 266 1200 
L 856 1250 
Q 922 819 1161 601 
Q 1400 384 1738 384 
Q 2144 384 2425 690 
Q 2706 997 2706 1503 
Q 2706 1984 2436 2262 
Q 2166 2541 1728 2541 
Q 1456 2541 1237 2417 
Q 1019 2294 894 2097 
L 366 2166 
L 809 4519 
L 3088 4519 
L 3088 3981 
L 1259 3981 
L 1013 2750 
Q 1425 3038 1878 3038 
Q 2478 3038 2890 2622 
Q 3303 2206 3303 1553 
Q 3303 931 2941 478 
Q 2500 -78 1738 -78 
Q 1113 -78 717 272 
Q 322 622 266 1200 
z
" transform="scale(0.015625)"/>
       </defs>
       <use xlink:href="#ArialMT-35"/>
      </g>
     </g>
    </g>
    <g id="xtick_3">
     <g id="line2d_3">
      <g>
       <use xlink:href="#m07f0ecf8c8" x="187.92" y="252" style="fill: #262626; stroke: #262626; stroke-width: 1.25"/>
      </g>
     </g>
     <g id="text_3">
      <!-- 10 -->
      <g style="fill: #262626" transform="translate(181.802969 269.373594)scale(0.11 -0.11)">
       <defs>
        <path id="ArialMT-31" d="M 2384 0 
L 1822 0 
L 1822 3584 
Q 1619 3391 1289 3197 
Q 959 3003 697 2906 
L 697 3450 
Q 1169 3672 1522 3987 
Q 1875 4303 2022 4600 
L 2384 4600 
L 2384 0 
z
" transform="scale(0.015625)"/>
       </defs>
       <use xlink:href="#ArialMT-31"/>
       <use xlink:href="#ArialMT-30" x="55.615234"/>
      </g>
     </g>
    </g>
    <g id="xtick_4">
     <g id="line2d_4">
      <g>
       <use xlink:href="#m07f0ecf8c8" x="254.88" y="252" style="fill: #262626; stroke: #262626; stroke-width: 1.25"/>
      </g>
     </g>
     <g id="text_4">
      <!-- 15 -->
      <g style="fill: #262626" transform="translate(248.762969 269.373594)scale(0.11 -0.11)">
       <use xlink:href="#ArialMT-31"/>
       <use xlink:href="#ArialMT-35" x="55.615234"/>
      </g>
     </g>
    </g>
    <g id="xtick_5">
     <g id="line2d_5">
      <g>
       <use xlink:href="#m07f0ecf8c8" x="321.84" y="252" style="fill: #262626; stroke: #262626; stroke-width: 1.25"/>
      </g>
     </g>
     <g id="text_5">
      <!-- 20 -->
      <g style="fill: #262626" transform="translate(315.722969 269.373594)scale(0.11 -0.11)">
       <defs>
        <path id="ArialMT-32" d="M 3222 541 
L 3222 0 
L 194 0 
Q 188 203 259 391 
Q 375 700 629 1000 
Q 884 1300 1366 1694 
Q 2113 2306 2375 2664 
Q 2638 3022 2638 3341 
Q 2638 3675 2398 3904 
Q 2159 4134 1775 4134 
Q 1369 4134 1125 3890 
Q 881 3647 878 3216 
L 300 3275 
Q 359 3922 746 4261 
Q 1134 4600 1788 4600 
Q 2447 4600 2831 4234 
Q 3216 3869 3216 3328 
Q 3216 3053 3103 2787 
Q 2991 2522 2730 2228 
Q 2469 1934 1863 1422 
Q 1356 997 1212 845 
Q 1069 694 975 541 
L 3222 541 
z
" transform="scale(0.015625)"/>
       </defs>
       <use xlink:href="#ArialMT-32"/>
       <use xlink:href="#ArialMT-30" x="55.615234"/>
      </g>
     </g>
    </g>
    <g id="xtick_6">
     <g id="line2d_6">
      <g>
       <use xlink:href="#m07f0ecf8c8" x="388.8" y="252" style="fill: #262626; stroke: #262626; stroke-width: 1.25"/>
      </g>
     </g>
     <g id="text_6">
      <!-- 25 -->
      <g style="fill: #262626" transform="translate(382.682969 269.373594)scale(0.11 -0.11)">
       <use xlink:href="#ArialMT-32"/>
       <use xlink:href="#ArialMT-35" x="55.615234"/>
      </g>
     </g>
    </g>
    <g id="text_7">
     <!-- Frequency (Hz) -->
     <g style="fill: #262626" transform="translate(180.059063 284.295469)scale(0.12 -0.12)">
      <defs>
       <path id="ArialMT-46" d="M 525 0 
L 525 4581 
L 3616 4581 
L 3616 4041 
L 1131 4041 
L 1131 2622 
L 3281 2622 
L 3281 2081 
L 1131 2081 
L 1131 0 
L 525 0 
z
" transform="scale(0.015625)"/>
       <path id="ArialMT-72" d="M 416 0 
L 416 3319 
L 922 3319 
L 922 2816 
Q 1116 3169 1280 3281 
Q 1444 3394 1641 3394 
Q 1925 3394 2219 3213 
L 2025 2691 
Q 1819 2813 1613 2813 
Q 1428 2813 1281 2702 
Q 1134 2591 1072 2394 
Q 978 2094 978 1738 
L 978 0 
L 416 0 
z
" transform="scale(0.015625)"/>
       <path id="ArialMT-65" d="M 2694 1069 
L 3275 997 
Q 3138 488 2766 206 
Q 2394 -75 1816 -75 
Q 1088 -75 661 373 
Q 234 822 234 1631 
Q 234 2469 665 2931 
Q 1097 3394 1784 3394 
Q 2450 3394 2872 2941 
Q 3294 2488 3294 1666 
Q 3294 1616 3291 1516 
L 816 1516 
Q 847 969 1125 678 
Q 1403 388 1819 388 
Q 2128 388 2347 550 
Q 2566 713 2694 1069 
z
M 847 1978 
L 2700 1978 
Q 2663 2397 2488 2606 
Q 2219 2931 1791 2931 
Q 1403 2931 1139 2672 
Q 875 2413 847 1978 
z
" transform="scale(0.015625)"/>
       <path id="ArialMT-71" d="M 2538 -1272 
L 2538 353 
Q 2406 169 2170 47 
Q 1934 -75 1669 -75 
Q 1078 -75 651 397 
Q 225 869 225 1691 
Q 225 2191 398 2587 
Q 572 2984 901 3189 
Q 1231 3394 1625 3394 
Q 2241 3394 2594 2875 
L 2594 3319 
L 3100 3319 
L 3100 -1272 
L 2538 -1272 
z
M 803 1669 
Q 803 1028 1072 708 
Q 1341 388 1716 388 
Q 2075 388 2334 692 
Q 2594 997 2594 1619 
Q 2594 2281 2320 2615 
Q 2047 2950 1678 2950 
Q 1313 2950 1058 2639 
Q 803 2328 803 1669 
z
" transform="scale(0.015625)"/>
       <path id="ArialMT-75" d="M 2597 0 
L 2597 488 
Q 2209 -75 1544 -75 
Q 1250 -75 995 37 
Q 741 150 617 320 
Q 494 491 444 738 
Q 409 903 409 1263 
L 409 3319 
L 972 3319 
L 972 1478 
Q 972 1038 1006 884 
Q 1059 663 1231 536 
Q 1403 409 1656 409 
Q 1909 409 2131 539 
Q 2353 669 2445 892 
Q 2538 1116 2538 1541 
L 2538 3319 
L 3100 3319 
L 3100 0 
L 2597 0 
z
" transform="scale(0.015625)"/>
       <path id="ArialMT-6e" d="M 422 0 
L 422 3319 
L 928 3319 
L 928 2847 
Q 1294 3394 1984 3394 
Q 2284 3394 2536 3286 
Q 2788 3178 2913 3003 
Q 3038 2828 3088 2588 
Q 3119 2431 3119 2041 
L 3119 0 
L 2556 0 
L 2556 2019 
Q 2556 2363 2490 2533 
Q 2425 2703 2258 2804 
Q 2091 2906 1866 2906 
Q 1506 2906 1245 2678 
Q 984 2450 984 1813 
L 984 0 
L 422 0 
z
" transform="scale(0.015625)"/>
       <path id="ArialMT-63" d="M 2588 1216 
L 3141 1144 
Q 3050 572 2676 248 
Q 2303 -75 1759 -75 
Q 1078 -75 664 370 
Q 250 816 250 1647 
Q 250 2184 428 2587 
Q 606 2991 970 3192 
Q 1334 3394 1763 3394 
Q 2303 3394 2647 3120 
Q 2991 2847 3088 2344 
L 2541 2259 
Q 2463 2594 2264 2762 
Q 2066 2931 1784 2931 
Q 1359 2931 1093 2626 
Q 828 2322 828 1663 
Q 828 994 1084 691 
Q 1341 388 1753 388 
Q 2084 388 2306 591 
Q 2528 794 2588 1216 
z
" transform="scale(0.015625)"/>
       <path id="ArialMT-79" d="M 397 -1278 
L 334 -750 
Q 519 -800 656 -800 
Q 844 -800 956 -737 
Q 1069 -675 1141 -563 
Q 1194 -478 1313 -144 
Q 1328 -97 1363 -6 
L 103 3319 
L 709 3319 
L 1400 1397 
Q 1534 1031 1641 628 
Q 1738 1016 1872 1384 
L 2581 3319 
L 3144 3319 
L 1881 -56 
Q 1678 -603 1566 -809 
Q 1416 -1088 1222 -1217 
Q 1028 -1347 759 -1347 
Q 597 -1347 397 -1278 
z
" transform="scale(0.015625)"/>
       <path id="ArialMT-20" transform="scale(0.015625)"/>
       <path id="ArialMT-28" d="M 1497 -1347 
Q 1031 -759 709 28 
Q 388 816 388 1659 
Q 388 2403 628 3084 
Q 909 3875 1497 4659 
L 1900 4659 
Q 1522 4009 1400 3731 
Q 1209 3300 1100 2831 
Q 966 2247 966 1656 
Q 966 153 1900 -1347 
L 1497 -1347 
z
" transform="scale(0.015625)"/>
       <path id="ArialMT-48" d="M 513 0 
L 513 4581 
L 1119 4581 
L 1119 2700 
L 3500 2700 
L 3500 4581 
L 4106 4581 
L 4106 0 
L 3500 0 
L 3500 2159 
L 1119 2159 
L 1119 0 
L 513 0 
z
" transform="scale(0.015625)"/>
       <path id="ArialMT-7a" d="M 125 0 
L 125 456 
L 2238 2881 
Q 1878 2863 1603 2863 
L 250 2863 
L 250 3319 
L 2963 3319 
L 2963 2947 
L 1166 841 
L 819 456 
Q 1197 484 1528 484 
L 3063 484 
L 3063 0 
L 125 0 
z
" transform="scale(0.015625)"/>
       <path id="ArialMT-29" d="M 791 -1347 
L 388 -1347 
Q 1322 153 1322 1656 
Q 1322 2244 1188 2822 
Q 1081 3291 891 3722 
Q 769 4003 388 4659 
L 791 4659 
Q 1378 3875 1659 3084 
Q 1900 2403 1900 1659 
Q 1900 816 1576 28 
Q 1253 -759 791 -1347 
z
" transform="scale(0.015625)"/>
      </defs>
      <use xlink:href="#ArialMT-46"/>
      <use xlink:href="#ArialMT-72" x="61.083984"/>
      <use xlink:href="#ArialMT-65" x="94.384766"/>
      <use xlink:href="#ArialMT-71" x="150"/>
      <use xlink:href="#ArialMT-75" x="205.615234"/>
      <use xlink:href="#ArialMT-65" x="261.230469"/>
      <use xlink:href="#ArialMT-6e" x="316.845703"/>
      <use xlink:href="#ArialMT-63" x="372.460938"/>
      <use xlink:href="#ArialMT-79" x="422.460938"/>
      <use xlink:href="#ArialMT-20" x="472.460938"/>
      <use xlink:href="#ArialMT-28" x="500.244141"/>
      <use xlink:href="#ArialMT-48" x="533.544922"/>
      <use xlink:href="#ArialMT-7a" x="605.761719"/>
      <use xlink:href="#ArialMT-29" x="655.761719"/>
     </g>
    </g>
   </g>
   <g id="matplotlib.axis_2">
    <g id="ytick_1">
     <g id="line2d_7">
      <defs>
       <path id="mfe1970c12a" d="M 0 0 
L -6 0 
" style="stroke: #262626; stroke-width: 1.25"/>
      </defs>
      <g>
       <use xlink:href="#mfe1970c12a" x="54" y="242.116364" style="fill: #262626; stroke: #262626; stroke-width: 1.25"/>
      </g>
     </g>
     <g id="text_8">
      <!-- 0 -->
      <g style="fill: #262626" transform="translate(38.382969 246.053161)scale(0.11 -0.11)">
       <use xlink:href="#ArialMT-30"/>
      </g>
     </g>
    </g>
    <g id="ytick_2">
     <g id="line2d_8">
      <g>
       <use xlink:href="#mfe1970c12a" x="54" y="204.278477" style="fill: #262626; stroke: #262626; stroke-width: 1.25"/>
      </g>
     </g>
     <g id="text_9">
      <!-- 2000 -->
      <g style="fill: #262626" transform="translate(20.031875 208.215274)scale(0.11 -0.11)">
       <use xlink:href="#ArialMT-32"/>
       <use xlink:href="#ArialMT-30" x="55.615234"/>
       <use xlink:href="#ArialMT-30" x="111.230469"/>
       <use xlink:href="#ArialMT-30" x="166.845703"/>
      </g>
     </g>
    </g>
    <g id="ytick_3">
     <g id="line2d_9">
      <g>
       <use xlink:href="#mfe1970c12a" x="54" y="166.44059" style="fill: #262626; stroke: #262626; stroke-width: 1.25"/>
      </g>
     </g>
     <g id="text_10">
      <!-- 4000 -->
      <g style="fill: #262626" transform="translate(20.031875 170.377387)scale(0.11 -0.11)">
       <defs>
        <path id="ArialMT-34" d="M 2069 0 
L 2069 1097 
L 81 1097 
L 81 1613 
L 2172 4581 
L 2631 4581 
L 2631 1613 
L 3250 1613 
L 3250 1097 
L 2631 1097 
L 2631 0 
L 2069 0 
z
M 2069 1613 
L 2069 3678 
L 634 1613 
L 2069 1613 
z
" transform="scale(0.015625)"/>
       </defs>
       <use xlink:href="#ArialMT-34"/>
       <use xlink:href="#ArialMT-30" x="55.615234"/>
       <use xlink:href="#ArialMT-30" x="111.230469"/>
       <use xlink:href="#ArialMT-30" x="166.845703"/>
      </g>
     </g>
    </g>
    <g id="ytick_4">
     <g id="line2d_10">
      <g>
       <use xlink:href="#mfe1970c12a" x="54" y="128.602703" style="fill: #262626; stroke: #262626; stroke-width: 1.25"/>
      </g>
     </g>
     <g id="text_11">
      <!-- 6000 -->
      <g style="fill: #262626" transform="translate(20.031875 132.5395)scale(0.11 -0.11)">
       <defs>
        <path id="ArialMT-36" d="M 3184 3459 
L 2625 3416 
Q 2550 3747 2413 3897 
Q 2184 4138 1850 4138 
Q 1581 4138 1378 3988 
Q 1113 3794 959 3422 
Q 806 3050 800 2363 
Q 1003 2672 1297 2822 
Q 1591 2972 1913 2972 
Q 2475 2972 2870 2558 
Q 3266 2144 3266 1488 
Q 3266 1056 3080 686 
Q 2894 316 2569 119 
Q 2244 -78 1831 -78 
Q 1128 -78 684 439 
Q 241 956 241 2144 
Q 241 3472 731 4075 
Q 1159 4600 1884 4600 
Q 2425 4600 2770 4297 
Q 3116 3994 3184 3459 
z
M 888 1484 
Q 888 1194 1011 928 
Q 1134 663 1356 523 
Q 1578 384 1822 384 
Q 2178 384 2434 671 
Q 2691 959 2691 1453 
Q 2691 1928 2437 2201 
Q 2184 2475 1800 2475 
Q 1419 2475 1153 2201 
Q 888 1928 888 1484 
z
" transform="scale(0.015625)"/>
       </defs>
       <use xlink:href="#ArialMT-36"/>
       <use xlink:href="#ArialMT-30" x="55.615234"/>
       <use xlink:href="#ArialMT-30" x="111.230469"/>
       <use xlink:href="#ArialMT-30" x="166.845703"/>
      </g>
     </g>
    </g>
    <g id="ytick_5">
     <g id="line2d_11">
      <g>
       <use xlink:href="#mfe1970c12a" x="54" y="90.764816" style="fill: #262626; stroke: #262626; stroke-width: 1.25"/>
      </g>
     </g>
     <g id="text_12">
      <!-- 8000 -->
      <g style="fill: #262626" transform="translate(20.031875 94.701613)scale(0.11 -0.11)">
       <defs>
        <path id="ArialMT-38" d="M 1131 2484 
Q 781 2613 612 2850 
Q 444 3088 444 3419 
Q 444 3919 803 4259 
Q 1163 4600 1759 4600 
Q 2359 4600 2725 4251 
Q 3091 3903 3091 3403 
Q 3091 3084 2923 2848 
Q 2756 2613 2416 2484 
Q 2838 2347 3058 2040 
Q 3278 1734 3278 1309 
Q 3278 722 2862 322 
Q 2447 -78 1769 -78 
Q 1091 -78 675 323 
Q 259 725 259 1325 
Q 259 1772 486 2073 
Q 713 2375 1131 2484 
z
M 1019 3438 
Q 1019 3113 1228 2906 
Q 1438 2700 1772 2700 
Q 2097 2700 2305 2904 
Q 2513 3109 2513 3406 
Q 2513 3716 2298 3927 
Q 2084 4138 1766 4138 
Q 1444 4138 1231 3931 
Q 1019 3725 1019 3438 
z
M 838 1322 
Q 838 1081 952 856 
Q 1066 631 1291 507 
Q 1516 384 1775 384 
Q 2178 384 2440 643 
Q 2703 903 2703 1303 
Q 2703 1709 2433 1975 
Q 2163 2241 1756 2241 
Q 1359 2241 1098 1978 
Q 838 1716 838 1322 
z
" transform="scale(0.015625)"/>
       </defs>
       <use xlink:href="#ArialMT-38"/>
       <use xlink:href="#ArialMT-30" x="55.615234"/>
       <use xlink:href="#ArialMT-30" x="111.230469"/>
       <use xlink:href="#ArialMT-30" x="166.845703"/>
      </g>
     </g>
    </g>
    <g id="ytick_6">
     <g id="line2d_12">
      <g>
       <use xlink:href="#mfe1970c12a" x="54" y="52.92693" style="fill: #262626; stroke: #262626; stroke-width: 1.25"/>
      </g>
     </g>
     <g id="text_13">
      <!-- 10000 -->
      <g style="fill: #262626" transform="translate(13.914844 56.863726)scale(0.11 -0.11)">
       <use xlink:href="#ArialMT-31"/>
       <use xlink:href="#ArialMT-30" x="55.615234"/>
       <use xlink:href="#ArialMT-30" x="111.230469"/>
       <use xlink:href="#ArialMT-30" x="166.845703"/>
       <use xlink:href="#ArialMT-30" x="222.460938"/>
      </g>
     </g>
    </g>
   </g>
   <g id="line2d_13">
    <path d="M 54 242.0482 
L 154.900845 241.950623 
L 157.811447 241.700351 
L 159.751847 241.674599 
L 162.662449 241.703516 
L 164.60285 241.168931 
L 167.513451 240.254608 
L 168.483651 240.110496 
L 169.453852 240.234405 
L 170.424052 240.744398 
L 172.364453 240.695644 
L 173.334653 240.035531 
L 174.304854 238.992252 
L 175.275054 236.930352 
L 176.245255 233.737504 
L 177.215455 231.741292 
L 178.185656 228.472938 
L 179.155856 229.111104 
L 181.096257 233.043657 
L 182.066457 234.28118 
L 183.036658 236.80732 
L 184.006858 237.381945 
L 184.977059 232.938273 
L 186.91746 225.59464 
L 187.88766 219.026215 
L 188.85786 215.919615 
L 189.828061 211.872451 
L 190.798261 210.200769 
L 191.768462 219.058417 
L 193.708863 232.26863 
L 194.679063 236.319029 
L 195.649263 234.250281 
L 196.619464 231.78804 
L 198.559865 221.617995 
L 199.530065 217.793315 
L 200.500266 211.088159 
L 201.470466 218.776729 
L 202.440667 213.46364 
L 203.410867 222.787504 
L 204.381067 217.272382 
L 205.351268 223.2603 
L 206.321468 220.945651 
L 207.291669 224.654078 
L 208.261869 224.51201 
L 209.23207 229.176766 
L 210.20227 231.033468 
L 211.17247 234.668696 
L 212.142671 238.896295 
L 213.112871 239.929922 
L 214.083072 239.937691 
L 215.053272 240.860673 
L 216.023473 236.610206 
L 216.993673 236.337873 
L 217.963873 231.086631 
L 218.934074 230.092953 
L 219.904274 227.960669 
L 220.874475 225.025415 
L 221.844675 226.363212 
L 222.814876 228.40227 
L 223.785076 230.984378 
L 225.725477 234.532533 
L 226.695677 237.750636 
L 228.636078 236.674003 
L 229.606279 234.00895 
L 230.576479 232.139754 
L 231.54668 231.898571 
L 232.51688 218.787078 
L 233.48708 214.823206 
L 234.457281 218.360068 
L 235.427481 220.297971 
L 236.397682 220.203251 
L 237.367882 216.746665 
L 238.338083 221.365337 
L 239.308283 229.379366 
L 240.278483 227.950991 
L 241.248684 220.554591 
L 242.218884 225.706502 
L 243.189085 210.786776 
L 244.159285 211.517917 
L 245.129486 209.220372 
L 246.099686 201.154512 
L 247.069887 205.54015 
L 248.040087 208.358942 
L 249.010287 216.586187 
L 249.980488 215.044151 
L 250.950688 217.502906 
L 251.920889 215.413374 
L 253.86129 202.000451 
L 254.83149 191.099367 
L 255.80169 198.422203 
L 256.771891 188.986696 
L 257.742091 200.07507 
L 258.712292 201.393753 
L 259.682492 201.772943 
L 260.652693 207.182549 
L 261.622893 210.737241 
L 262.593093 206.516901 
L 263.563294 212.169147 
L 264.533494 211.3136 
L 265.503695 202.26554 
L 266.473895 210.971186 
L 267.444096 209.06695 
L 268.414296 215.372601 
L 269.384496 217.855571 
L 270.354697 228.447321 
L 272.295098 223.054887 
L 273.265298 216.375482 
L 274.235499 216.261166 
L 275.205699 220.858747 
L 276.1759 212.794423 
L 277.1461 214.047656 
L 278.1163 218.97926 
L 279.086501 221.217942 
L 280.056701 232.245755 
L 281.026902 219.413409 
L 282.967303 240.922985 
L 283.937503 230.489842 
L 284.907703 228.029134 
L 285.877904 222.638261 
L 286.848104 223.299951 
L 287.818305 227.188668 
L 288.788505 211.212417 
L 289.758706 210.907631 
L 290.728906 227.048894 
L 291.699106 237.932163 
L 292.669307 241.358204 
L 293.639507 240.707253 
L 294.609708 238.02247 
L 296.550109 234.723582 
L 297.520309 234.170927 
L 298.49051 229.742385 
L 299.46071 233.478338 
L 300.43091 228.518843 
L 301.401111 234.458523 
L 302.371311 233.57311 
L 303.341512 239.339199 
L 304.311712 239.068708 
L 305.281913 239.026927 
L 306.252113 239.673015 
L 307.222313 236.647413 
L 308.192514 231.132405 
L 309.162714 231.867527 
L 311.103115 221.698171 
L 312.073316 224.644753 
L 313.043516 224.811598 
L 314.013716 222.109525 
L 315.954117 234.286999 
L 316.924318 235.416645 
L 317.894518 239.256804 
L 320.80512 235.701015 
L 321.77532 235.219142 
L 322.74552 232.797788 
L 323.715721 234.863584 
L 324.685921 233.567617 
L 325.656122 233.674693 
L 326.626322 231.857779 
L 327.596523 233.992725 
L 328.566723 234.315346 
L 329.536923 235.215329 
L 330.507124 233.406924 
L 331.477324 233.04865 
L 332.447525 232.514484 
L 333.417725 234.173496 
L 334.387926 232.002329 
L 335.358126 232.651976 
L 336.328326 235.545681 
L 337.298527 234.298426 
L 338.268727 230.261903 
L 339.238928 234.905165 
L 340.209128 236.411917 
L 341.179329 236.152197 
L 342.149529 236.608926 
L 343.11973 233.256513 
L 344.08993 231.806592 
L 345.06013 233.684302 
L 346.030331 233.597284 
L 347.000531 234.423298 
L 347.970732 234.918079 
L 348.940932 236.093306 
L 349.911133 235.413578 
L 351.851533 233.294386 
L 352.821734 235.708617 
L 353.791934 232.706215 
L 354.762135 231.750433 
L 355.732335 232.027248 
L 356.702536 231.149464 
L 357.672736 233.66077 
L 358.642936 230.55255 
L 359.613137 231.657581 
L 360.583337 231.521547 
L 362.523738 228.882699 
L 363.493939 226.983527 
L 366.40454 219.194237 
L 367.37474 221.595853 
L 368.344941 230.291916 
L 369.315141 229.977182 
L 370.285342 232.077662 
L 371.255542 232.350008 
L 372.225743 235.870468 
L 373.195943 231.36711 
L 374.166143 230.118838 
L 375.136344 229.627885 
L 376.106544 227.591045 
L 377.076745 228.795482 
L 379.017146 226.875593 
L 379.987346 225.343346 
L 380.957546 228.832666 
L 381.927747 233.670176 
L 382.897947 230.528732 
L 383.868148 234.404261 
L 384.838348 229.65332 
L 385.808549 231.66769 
L 386.778749 227.825055 
L 387.74895 228.44902 
L 388.71915 228.742573 
L 389.68935 229.941423 
L 390.659551 229.117609 
L 391.629751 233.053365 
L 392.599952 234.976646 
L 393.570152 234.570787 
L 394.540353 235.321284 
L 395.510553 234.319979 
L 396.480753 236.831832 
L 397.450954 233.981404 
L 398.421154 231.494559 
L 399.391355 233.168762 
L 400.361555 233.756158 
L 401.331756 231.317241 
L 402.301956 235.407235 
L 403.272156 233.158472 
L 404.242357 238.030128 
L 405.212557 239.761574 
L 406.182758 240.439951 
L 407.152958 238.315723 
L 408.123159 236.969323 
L 409.093359 233.928833 
L 410.06356 236.969215 
L 411.03376 234.176667 
L 412.00396 236.081404 
L 412.974161 236.920984 
L 413.944361 237.230307 
L 414.914562 238.715587 
L 415.884762 239.724148 
L 417.825163 240.63668 
L 418.795363 239.239324 
L 419.765564 238.340085 
L 420.735764 237.729407 
L 421.705965 233.7814 
L 422.676165 234.512052 
L 423.646366 234.743046 
L 424.616566 232.036702 
L 425.586766 234.937397 
L 426.556967 235.489846 
L 427.527167 239.076748 
L 428.497368 238.424694 
L 429.467568 241.010896 
L 430.437769 240.337429 
L 432.37817 236.101055 
L 433 236.285929 
M 433 242.116298 
L -1 242.116298 
L -1 242.116298 
" clip-path="url(#p68fe6ef65d)" style="fill: none; stroke: #4c72b0; stroke-opacity: 0.3; stroke-width: 1.5; stroke-linecap: round"/>
   </g>
   <g id="line2d_14">
    <path d="M 54 242.077872 
L 156.841246 241.990466 
L 161.692248 241.512942 
L 162.662449 241.539522 
L 165.57305 241.980919 
L 166.54325 242.030765 
L 167.513451 241.878773 
L 168.483651 241.431321 
L 169.453852 241.187096 
L 171.394253 240.275397 
L 172.364453 240.544581 
L 173.334653 239.658446 
L 174.304854 240.422378 
L 175.275054 240.381743 
L 176.245255 240.792171 
L 177.215455 240.498024 
L 178.185656 239.767435 
L 179.155856 238.461368 
L 181.096257 235.067981 
L 182.066457 235.215007 
L 184.006858 235.821185 
L 184.977059 235.855331 
L 185.947259 238.055089 
L 186.91746 238.778843 
L 187.88766 237.700895 
L 188.85786 233.955382 
L 189.828061 232.612666 
L 190.798261 228.633624 
L 191.768462 227.761865 
L 192.738662 225.782008 
L 193.708863 226.969732 
L 195.649263 230.71598 
L 196.619464 230.311073 
L 197.589664 234.073386 
L 198.559865 230.360971 
L 199.530065 230.657265 
L 201.470466 219.807594 
L 202.440667 216.797127 
L 203.410867 218.440366 
L 204.381067 215.18003 
L 205.351268 217.257073 
L 206.321468 214.307238 
L 207.291669 221.735509 
L 208.261869 221.867867 
L 209.23207 222.55872 
L 210.20227 221.306548 
L 211.17247 217.849485 
L 212.142671 217.651271 
L 213.112871 212.695172 
L 214.083072 212.747429 
L 215.053272 213.84654 
L 216.023473 218.040688 
L 216.993673 219.960546 
L 217.963873 226.371464 
L 218.934074 224.085039 
L 219.904274 223.75889 
L 221.844675 219.990125 
L 222.814876 219.230289 
L 223.785076 215.59061 
L 224.755277 220.981341 
L 225.725477 229.027471 
L 227.665878 232.77041 
L 228.636078 239.202694 
L 229.606279 239.632799 
L 230.576479 240.282217 
L 231.54668 237.071397 
L 232.51688 234.440474 
L 233.48708 235.586241 
L 234.457281 237.050739 
L 235.427481 235.693954 
L 236.397682 234.006131 
L 237.367882 236.958323 
L 238.338083 240.55874 
L 239.308283 239.263684 
L 240.278483 240.895242 
L 241.248684 241.868836 
L 242.218884 241.788855 
L 243.189085 240.624217 
L 244.159285 237.738902 
L 245.129486 234.066396 
L 246.099686 227.975908 
L 247.069887 223.089372 
L 249.010287 208.828981 
L 249.980488 217.413336 
L 250.950688 217.979278 
L 251.920889 224.199416 
L 252.891089 229.600807 
L 254.83149 233.63559 
L 255.80169 231.011075 
L 256.771891 225.173368 
L 257.742091 212.060976 
L 259.682492 197.239421 
L 260.652693 191.151177 
L 261.622893 190.885705 
L 263.563294 208.016266 
L 264.533494 219.387706 
L 265.503695 227.043941 
L 266.473895 230.122962 
L 267.444096 232.810181 
L 268.414296 227.83251 
L 269.384496 221.214671 
L 270.354697 207.038408 
L 271.324897 202.345667 
L 272.295098 204.106393 
L 273.265298 202.784255 
L 274.235499 204.741043 
L 275.205699 208.918276 
L 276.1759 220.880141 
L 277.1461 229.484237 
L 278.1163 218.67153 
L 279.086501 225.416208 
L 280.056701 216.967771 
L 281.026902 231.522085 
L 281.997102 203.243518 
L 282.967303 201.564507 
L 283.937503 178.54341 
L 284.907703 220.010796 
L 285.877904 219.79218 
L 286.848104 222.665364 
L 287.818305 207.861968 
L 289.758706 218.961607 
L 290.728906 230.599161 
L 291.699106 233.272934 
L 292.669307 237.595884 
L 293.639507 235.906166 
L 294.609708 237.416767 
L 295.579908 239.556102 
L 296.550109 238.216218 
L 297.520309 240.853787 
L 298.49051 241.299528 
L 299.46071 241.610623 
L 300.43091 241.239654 
L 301.401111 238.540934 
L 302.371311 237.372013 
L 303.341512 232.306563 
L 304.311712 232.492934 
L 305.281913 231.762859 
L 306.252113 230.213238 
L 307.222313 233.142674 
L 308.192514 237.0086 
L 309.162714 235.279308 
L 310.132915 238.842302 
L 311.103115 239.274125 
L 312.073316 239.848972 
L 313.043516 238.949289 
L 314.013716 238.477052 
L 314.983917 238.665619 
L 315.954117 238.492556 
L 316.924318 236.354494 
L 317.894518 239.246845 
L 318.864719 240.093926 
L 319.834919 240.329824 
L 320.80512 241.878781 
L 321.77532 241.780242 
L 323.715721 242.111009 
L 324.685921 241.786493 
L 325.656122 241.724167 
L 326.626322 242.015899 
L 327.596523 241.550017 
L 328.566723 241.876345 
L 330.507124 242.041125 
L 331.477324 241.194437 
L 332.447525 241.779181 
L 333.417725 240.106392 
L 334.387926 241.411333 
L 335.358126 241.051225 
L 336.328326 240.494688 
L 337.298527 241.813089 
L 338.268727 241.843765 
L 339.238928 242.050127 
L 340.209128 240.004353 
L 341.179329 239.112899 
L 342.149529 239.047014 
L 343.11973 239.112968 
L 344.08993 236.073541 
L 345.06013 238.712191 
L 346.030331 240.041858 
L 347.000531 241.078168 
L 347.970732 240.292209 
L 348.940932 238.275768 
L 349.911133 239.082632 
L 350.881333 241.001131 
L 351.851533 240.161177 
L 352.821734 235.880588 
L 353.791934 237.472956 
L 354.762135 231.868657 
L 356.702536 238.965286 
L 357.672736 236.758239 
L 358.642936 235.785184 
L 359.613137 235.098789 
L 360.583337 232.199819 
L 361.553538 230.514371 
L 362.523738 227.373666 
L 363.493939 223.139493 
L 364.464139 213.309986 
L 365.43434 215.29365 
L 366.40454 218.357642 
L 367.37474 224.354662 
L 368.344941 217.48487 
L 369.315141 225.259422 
L 370.285342 223.539507 
L 371.255542 220.575269 
L 372.225743 216.851436 
L 373.195943 218.978746 
L 374.166143 207.894975 
L 375.136344 206.225577 
L 376.106544 209.930323 
L 377.076745 207.269466 
L 378.046945 206.530894 
L 379.017146 215.569696 
L 379.987346 210.263605 
L 380.957546 208.771469 
L 381.927747 211.117037 
L 382.897947 212.548812 
L 383.868148 207.639339 
L 384.838348 209.211535 
L 385.808549 203.79574 
L 386.778749 204.596302 
L 387.74895 202.490274 
L 388.71915 201.198027 
L 389.68935 207.725059 
L 390.659551 216.302962 
L 391.629751 215.744803 
L 393.570152 223.394052 
L 394.540353 216.47739 
L 395.510553 216.445178 
L 396.480753 213.443743 
L 397.450954 211.052073 
L 398.421154 207.6819 
L 399.391355 214.42386 
L 400.361555 216.783593 
L 401.331756 221.963065 
L 402.301956 223.887191 
L 403.272156 223.972402 
L 404.242357 229.818495 
L 405.212557 223.225374 
L 406.182758 221.652862 
L 407.152958 219.620355 
L 408.123159 218.929679 
L 409.093359 216.125527 
L 410.06356 212.607315 
L 411.03376 222.067118 
L 412.00396 220.169848 
L 412.974161 222.900335 
L 413.944361 218.208838 
L 414.914562 225.558599 
L 415.884762 223.688133 
L 416.854963 225.989439 
L 417.825163 225.66027 
L 418.795363 225.897943 
L 419.765564 224.460694 
L 421.705965 227.161528 
L 422.676165 225.412247 
L 423.646366 229.458514 
L 424.616566 230.953353 
L 425.586766 233.440755 
L 426.556967 232.083795 
L 427.527167 232.241075 
L 428.497368 232.745459 
L 429.467568 231.688787 
L 430.437769 228.61086 
L 431.407969 233.240097 
L 432.37817 232.573468 
L 433 233.808986 
M 433 242.116302 
L -1 242.116302 
L -1 242.116302 
" clip-path="url(#p68fe6ef65d)" style="fill: none; stroke: #dd8452; stroke-opacity: 0.3; stroke-width: 1.5; stroke-linecap: round"/>
   </g>
   <g id="line2d_15">
    <path d="M 54 242.116364 
L 433 242.116364 
M 433 242.116364 
L -1 242.116364 
L -1 242.116364 
" clip-path="url(#p68fe6ef65d)" style="fill: none; stroke: #55a868; stroke-opacity: 0.3; stroke-width: 1.5; stroke-linecap: round"/>
   </g>
   <g id="line2d_16">
    <path d="M 54 241.723109 
L 96.688819 241.610135 
L 119.97363 241.354695 
L 133.556436 241.009936 
L 140.347839 240.657102 
L 145.198841 240.217636 
L 148.109442 239.718053 
L 153.930645 238.598171 
L 155.871046 237.741645 
L 160.722048 234.718658 
L 162.662449 233.813823 
L 163.632649 233.461981 
L 164.60285 232.940285 
L 165.57305 232.217484 
L 168.483651 229.068623 
L 170.424052 225.605627 
L 173.334653 221.883082 
L 174.304854 221.36328 
L 175.275054 220.984723 
L 176.245255 218.179646 
L 177.215455 216.237866 
L 178.185656 212.881423 
L 179.155856 210.207379 
L 180.126057 204.60942 
L 181.096257 201.697302 
L 182.066457 200.487157 
L 183.036658 198.116865 
L 184.006858 201.804394 
L 184.977059 202.817919 
L 185.947259 202.544497 
L 186.91746 206.000927 
L 187.88766 203.905505 
L 188.85786 198.780859 
L 189.828061 195.330978 
L 190.798261 192.432283 
L 191.768462 191.638107 
L 192.738662 185.169605 
L 193.708863 190.32985 
L 194.679063 191.383859 
L 195.649263 193.610102 
L 196.619464 186.318019 
L 197.589664 181.515058 
L 198.559865 178.72239 
L 199.530065 183.434522 
L 200.500266 185.964303 
L 201.470466 184.523137 
L 202.440667 188.698582 
L 203.410867 199.328009 
L 204.381067 207.361987 
L 205.351268 207.373605 
L 206.321468 206.121839 
L 207.291669 209.368867 
L 208.261869 207.04806 
L 209.23207 197.613176 
L 210.20227 200.984269 
L 211.17247 191.75164 
L 212.142671 198.652648 
L 213.112871 198.923123 
L 214.083072 203.495701 
L 215.053272 208.640568 
L 216.023473 206.789521 
L 216.993673 214.577919 
L 217.963873 207.65511 
L 218.934074 207.984092 
L 219.904274 209.147403 
L 220.874475 208.753199 
L 221.844675 207.537878 
L 222.814876 204.000357 
L 223.785076 204.34388 
L 224.755277 198.520521 
L 225.725477 207.733513 
L 226.695677 199.246438 
L 227.665878 207.705584 
L 228.636078 211.011392 
L 229.606279 212.141537 
L 230.576479 214.492151 
L 231.54668 211.44678 
L 232.51688 207.749861 
L 233.48708 207.902342 
L 234.457281 200.996202 
L 235.427481 196.771656 
L 236.397682 191.354405 
L 237.367882 198.232019 
L 238.338083 198.965365 
L 239.308283 198.533922 
L 240.278483 194.048769 
L 241.248684 191.518669 
L 242.218884 180.457756 
L 243.189085 175.226441 
L 244.159285 170.775984 
L 245.129486 157.127483 
L 246.099686 161.492592 
L 247.069887 173.173955 
L 248.040087 172.988406 
L 249.010287 197.188865 
L 249.980488 204.69669 
L 250.950688 205.779043 
L 251.920889 197.096861 
L 252.891089 187.286763 
L 253.86129 165.197133 
L 254.83149 150.667312 
L 255.80169 141.019867 
L 256.771891 123.371546 
L 258.712292 148.770408 
L 260.652693 170.087883 
L 261.622893 175.102542 
L 262.593093 173.003917 
L 263.563294 171.260244 
L 264.533494 167.335338 
L 265.503695 154.579956 
L 266.473895 151.055453 
L 267.444096 138.929589 
L 268.414296 130.261202 
L 269.384496 137.72684 
L 270.354697 123.454822 
L 271.324897 148.164654 
L 272.295098 147.718694 
L 273.265298 149.169256 
L 274.235499 162.669039 
L 275.205699 160.447825 
L 276.1759 167.907012 
L 277.1461 166.547611 
L 278.1163 164.70412 
L 279.086501 177.389723 
L 281.026902 157.433256 
L 281.997102 119.287742 
L 282.967303 128.339049 
L 283.937503 130.565401 
L 284.907703 183.919754 
L 285.877904 143.13159 
L 286.848104 145.560848 
L 287.818305 170.991696 
L 288.788505 184.43666 
L 289.758706 173.925091 
L 290.728906 152.769887 
L 291.699106 176.445671 
L 292.669307 195.158586 
L 293.639507 207.037936 
L 294.609708 200.296978 
L 295.579908 178.817276 
L 296.550109 151.923321 
L 297.520309 147.571227 
L 298.49051 161.256664 
L 299.46071 166.100937 
L 300.43091 189.757349 
L 301.401111 195.181451 
L 302.371311 206.33352 
L 303.341512 202.461101 
L 304.311712 197.977789 
L 306.252113 212.929696 
L 307.222313 213.221326 
L 308.192514 224.820437 
L 309.162714 223.001545 
L 310.132915 222.091706 
L 311.103115 221.658081 
L 312.073316 222.313225 
L 313.043516 221.243822 
L 314.013716 228.830911 
L 314.983917 224.304291 
L 315.954117 226.415392 
L 316.924318 231.872652 
L 317.894518 232.735944 
L 318.864719 235.940665 
L 319.834919 235.175257 
L 320.80512 234.930759 
L 321.77532 239.031399 
L 322.74552 240.454948 
L 323.715721 236.542757 
L 324.685921 231.59066 
L 325.656122 231.926084 
L 326.626322 230.090571 
L 327.596523 229.569502 
L 328.566723 231.979651 
L 329.536923 231.677103 
L 330.507124 237.814015 
L 331.477324 236.873644 
L 332.447525 235.201792 
L 333.417725 234.668126 
L 334.387926 228.629677 
L 335.358126 226.567138 
L 336.328326 221.938491 
L 337.298527 219.901514 
L 338.268727 213.957277 
L 339.238928 211.083529 
L 340.209128 223.256629 
L 341.179329 215.917431 
L 342.149529 227.399352 
L 343.11973 223.651383 
L 344.08993 224.526473 
L 345.06013 226.821418 
L 346.030331 221.466214 
L 347.000531 221.203455 
L 347.970732 220.464875 
L 348.940932 219.37422 
L 349.911133 222.085752 
L 350.881333 212.374338 
L 351.851533 213.616549 
L 353.791934 209.178851 
L 354.762135 211.818634 
L 355.732335 214.853547 
L 356.702536 204.552611 
L 357.672736 202.797504 
L 358.642936 207.015948 
L 359.613137 201.693027 
L 360.583337 200.426099 
L 361.553538 200.806316 
L 362.523738 196.948956 
L 363.493939 202.713752 
L 364.464139 207.339533 
L 365.43434 200.376342 
L 366.40454 207.401812 
L 367.37474 200.650886 
L 368.344941 202.416131 
L 369.315141 207.54228 
L 370.285342 206.765037 
L 371.255542 206.842933 
L 372.225743 206.383567 
L 373.195943 212.35601 
L 374.166143 209.811234 
L 375.136344 210.063694 
L 376.106544 206.30353 
L 377.076745 209.625037 
L 378.046945 206.223889 
L 379.017146 209.878954 
L 379.987346 210.925406 
L 381.927747 213.355075 
L 382.897947 219.70399 
L 383.868148 213.779529 
L 384.838348 209.98006 
L 385.808549 211.33408 
L 386.778749 211.619161 
L 387.74895 210.387063 
L 388.71915 207.938756 
L 389.68935 209.194989 
L 390.659551 210.156861 
L 391.629751 210.716026 
L 392.599952 212.423622 
L 393.570152 224.366254 
L 394.540353 220.319056 
L 395.510553 223.472749 
L 396.480753 224.279037 
L 398.421154 220.675411 
L 399.391355 222.31516 
L 400.361555 216.378879 
L 401.331756 222.30226 
L 402.301956 221.359556 
L 403.272156 227.976813 
L 404.242357 230.447148 
L 405.212557 228.531391 
L 406.182758 231.085953 
L 407.152958 230.257262 
L 408.123159 230.490603 
L 409.093359 232.010387 
L 410.06356 229.748813 
L 411.03376 228.441613 
L 412.00396 231.54315 
L 412.974161 229.33016 
L 413.944361 231.861833 
L 414.914562 233.163649 
L 415.884762 235.547092 
L 416.854963 234.854228 
L 417.825163 238.200705 
L 418.795363 237.15765 
L 419.765564 238.858501 
L 420.735764 235.361161 
L 421.705965 237.016055 
L 422.676165 234.937791 
L 423.646366 236.461265 
L 424.616566 236.199685 
L 425.586766 238.759571 
L 426.556967 238.488797 
L 427.527167 239.935023 
L 428.497368 237.872178 
L 429.467568 239.646193 
L 430.437769 239.555712 
L 431.407969 240.45449 
L 432.37817 239.587015 
L 433 239.73562 
M 433 242.116194 
L -1 242.116194 
L -1 242.116194 
" clip-path="url(#p68fe6ef65d)" style="fill: none; stroke: #c44e52; stroke-opacity: 0.3; stroke-width: 1.5; stroke-linecap: round"/>
   </g>
   <g id="line2d_17">
    <path d="M 54 241.637209 
L 87.957015 241.529799 
L 111.241826 241.260565 
L 124.824632 240.911711 
L 133.556436 240.490977 
L 140.347839 239.905256 
L 145.198841 239.226091 
L 151.020043 237.85757 
L 152.960444 237.288575 
L 154.900845 236.53382 
L 158.781647 234.443399 
L 160.722048 232.990802 
L 163.632649 231.122265 
L 164.60285 229.834602 
L 165.57305 229.77263 
L 166.54325 228.404168 
L 167.513451 227.775045 
L 168.483651 226.939702 
L 169.453852 224.579348 
L 170.424052 222.838422 
L 171.394253 222.602835 
L 172.364453 220.508639 
L 173.334653 217.946968 
L 174.304854 216.801058 
L 175.275054 215.410673 
L 176.245255 215.595286 
L 177.215455 216.074077 
L 178.185656 215.18784 
L 179.155856 211.757778 
L 180.126057 209.023158 
L 181.096257 208.047747 
L 182.066457 201.481977 
L 183.036658 200.993614 
L 184.977059 202.001394 
L 185.947259 201.717855 
L 186.91746 201.898386 
L 187.88766 205.405811 
L 188.85786 206.742769 
L 190.798261 200.319705 
L 191.768462 204.453428 
L 192.738662 198.715211 
L 193.708863 195.265362 
L 194.679063 189.827849 
L 195.649263 188.01277 
L 196.619464 189.675016 
L 197.589664 189.619062 
L 198.559865 192.728234 
L 199.530065 203.886469 
L 200.500266 205.807326 
L 201.470466 208.132582 
L 202.440667 206.793041 
L 203.410867 201.443493 
L 204.381067 202.371059 
L 205.351268 197.436458 
L 206.321468 204.647981 
L 207.291669 198.689517 
L 208.261869 200.4273 
L 209.23207 196.16362 
L 210.20227 197.505949 
L 211.17247 206.733118 
L 212.142671 211.897157 
L 213.112871 211.581234 
L 214.083072 218.87889 
L 215.053272 220.81807 
L 216.023473 214.984392 
L 216.993673 215.575646 
L 217.963873 214.664736 
L 218.934074 213.121963 
L 219.904274 216.085045 
L 220.874475 217.125601 
L 221.844675 224.11793 
L 222.814876 229.057406 
L 223.785076 226.114171 
L 224.755277 226.936868 
L 225.725477 219.56041 
L 226.695677 220.201481 
L 227.665878 224.75207 
L 228.636078 224.82795 
L 229.606279 227.62584 
L 230.576479 224.684199 
L 232.51688 213.431474 
L 233.48708 219.266139 
L 234.457281 217.487712 
L 235.427481 221.215967 
L 236.397682 221.674253 
L 237.367882 216.52786 
L 238.338083 207.692348 
L 239.308283 207.150656 
L 240.278483 196.366436 
L 241.248684 200.741282 
L 242.218884 203.030376 
L 243.189085 187.909819 
L 245.129486 182.443499 
L 246.099686 186.560403 
L 248.040087 175.051247 
L 249.010287 192.2057 
L 249.980488 192.232364 
L 251.920889 174.055411 
L 253.86129 152.834792 
L 254.83149 149.169783 
L 255.80169 147.069423 
L 256.771891 143.640979 
L 257.742091 147.16838 
L 258.712292 151.857513 
L 259.682492 143.497798 
L 260.652693 144.374598 
L 261.622893 148.765982 
L 262.593093 156.057667 
L 263.563294 147.957517 
L 264.533494 136.314264 
L 265.503695 126.622263 
L 266.473895 104.656884 
L 267.444096 107.241607 
L 268.414296 116.694716 
L 269.384496 127.670211 
L 270.354697 132.24711 
L 271.324897 128.532646 
L 272.295098 131.879492 
L 273.265298 118.018875 
L 274.235499 129.103425 
L 275.205699 125.419479 
L 276.1759 104.811806 
L 277.1461 103.171437 
L 278.1163 105.142017 
L 279.086501 113.029308 
L 280.056701 142.763904 
L 281.026902 152.091271 
L 281.997102 102.500624 
L 282.967303 44.443636 
L 283.937503 146.92577 
L 284.907703 151.697598 
L 285.877904 121.872239 
L 286.848104 133.374534 
L 287.818305 180.286891 
L 288.788505 151.198674 
L 289.758706 83.808753 
L 290.728906 110.507978 
L 292.669307 205.793199 
L 293.639507 210.007058 
L 294.609708 180.215678 
L 296.550109 67.294083 
L 297.520309 75.039497 
L 298.49051 96.869617 
L 299.46071 111.707207 
L 301.401111 148.653537 
L 302.371311 145.578046 
L 303.341512 147.678252 
L 304.311712 153.081656 
L 305.281913 182.277161 
L 306.252113 182.776874 
L 307.222313 177.645743 
L 308.192514 197.23926 
L 309.162714 191.318619 
L 310.132915 195.754849 
L 311.103115 190.329537 
L 312.073316 191.966797 
L 313.043516 196.748766 
L 314.013716 182.595269 
L 314.983917 192.917569 
L 315.954117 193.124364 
L 316.924318 200.283999 
L 317.894518 202.646115 
L 318.864719 192.304647 
L 319.834919 206.098056 
L 320.80512 202.371008 
L 321.77532 197.095701 
L 322.74552 194.240544 
L 323.715721 203.882153 
L 324.685921 194.724886 
L 325.656122 198.244637 
L 326.626322 197.419451 
L 327.596523 205.805234 
L 328.566723 191.488911 
L 329.536923 196.739004 
L 330.507124 196.722455 
L 331.477324 187.625764 
L 332.447525 194.637954 
L 333.417725 193.859988 
L 334.387926 195.050637 
L 335.358126 178.079671 
L 336.328326 177.369982 
L 337.298527 173.544788 
L 338.268727 178.490624 
L 339.238928 178.306095 
L 340.209128 183.315194 
L 341.179329 190.349004 
L 342.149529 194.973002 
L 343.11973 189.874569 
L 344.08993 181.691109 
L 346.030331 190.695465 
L 347.000531 187.843019 
L 347.970732 175.63309 
L 348.940932 175.422009 
L 349.911133 157.718672 
L 350.881333 173.020521 
L 351.851533 170.77558 
L 352.821734 181.433024 
L 353.791934 189.721929 
L 354.762135 186.148789 
L 355.732335 186.351475 
L 356.702536 178.439517 
L 357.672736 179.198719 
L 358.642936 175.462242 
L 359.613137 178.356851 
L 361.553538 162.994029 
L 362.523738 177.756874 
L 363.493939 176.489202 
L 364.464139 167.564084 
L 365.43434 181.169352 
L 366.40454 175.710385 
L 367.37474 191.439449 
L 368.344941 185.104822 
L 369.315141 177.200864 
L 371.255542 168.40029 
L 372.225743 168.242755 
L 373.195943 166.037562 
L 374.166143 173.125961 
L 375.136344 167.470855 
L 376.106544 171.372943 
L 377.076745 179.552135 
L 378.046945 171.329418 
L 379.017146 172.683509 
L 379.987346 170.877274 
L 380.957546 173.559156 
L 381.927747 172.778788 
L 382.897947 180.518447 
L 383.868148 173.712205 
L 384.838348 173.622234 
L 385.808549 159.905611 
L 386.778749 171.679386 
L 387.74895 169.878829 
L 388.71915 169.491838 
L 389.68935 171.590232 
L 390.659551 181.68511 
L 391.629751 167.860997 
L 392.599952 176.966324 
L 393.570152 173.030843 
L 394.540353 162.410856 
L 395.510553 169.778947 
L 396.480753 167.5401 
L 398.421154 180.549558 
L 399.391355 168.243242 
L 400.361555 177.063145 
L 401.331756 179.161972 
L 402.301956 183.612167 
L 403.272156 180.463791 
L 404.242357 188.129707 
L 405.212557 182.689559 
L 406.182758 183.283065 
L 407.152958 183.648673 
L 409.093359 188.571686 
L 410.06356 192.11972 
L 411.03376 181.473734 
L 412.00396 187.648952 
L 413.944361 183.943588 
L 414.914562 192.142147 
L 415.884762 189.582931 
L 416.854963 192.376436 
L 417.825163 189.053486 
L 418.795363 191.223267 
L 419.765564 198.134982 
L 420.735764 194.847303 
L 421.705965 194.43673 
L 422.676165 193.763661 
L 423.646366 189.695289 
L 424.616566 198.962832 
L 425.586766 198.147057 
L 426.556967 195.690771 
L 427.527167 198.519593 
L 428.497368 202.448303 
L 429.467568 202.12696 
L 430.437769 197.387354 
L 432.37817 204.826991 
L 433 205.936315 
M 433 242.116363 
L -1 242.116363 
L -1 242.116363 
" clip-path="url(#p68fe6ef65d)" style="fill: none; stroke: #8172b3; stroke-opacity: 0.3; stroke-width: 1.5; stroke-linecap: round"/>
   </g>
   <g id="line2d_18">
    <path d="M 54 242.116364 
L 433 242.116364 
M 433 242.116364 
L -1 242.116364 
L -1 242.116364 
" clip-path="url(#p68fe6ef65d)" style="fill: none; stroke: #937860; stroke-opacity: 0.3; stroke-width: 1.5; stroke-linecap: round"/>
   </g>
   <g id="line2d_19">
    <path d="M 54 242.086795 
L 157.811447 241.988744 
L 163.632649 241.947607 
L 165.57305 241.994787 
L 166.54325 241.877297 
L 167.513451 241.876707 
L 168.483651 241.720073 
L 169.453852 241.692809 
L 170.424052 241.780065 
L 171.394253 241.649533 
L 172.364453 241.803129 
L 173.334653 241.538332 
L 174.304854 241.700016 
L 175.275054 241.746387 
L 177.215455 242.074717 
L 178.185656 241.808252 
L 179.155856 241.884628 
L 180.126057 241.294396 
L 181.096257 241.347601 
L 183.036658 240.522004 
L 184.006858 241.171034 
L 184.977059 240.327486 
L 185.947259 241.426165 
L 187.88766 242.040193 
L 188.85786 242.09277 
L 190.798261 241.216694 
L 191.768462 240.37841 
L 192.738662 239.132171 
L 193.708863 240.259786 
L 194.679063 240.325263 
L 195.649263 240.811125 
L 196.619464 241.089424 
L 197.589664 240.472582 
L 198.559865 241.399438 
L 199.530065 241.668626 
L 200.500266 240.891649 
L 201.470466 241.088884 
L 202.440667 240.413591 
L 203.410867 241.231001 
L 204.381067 241.560955 
L 205.351268 241.381612 
L 206.321468 241.46386 
L 207.291669 241.976185 
L 208.261869 241.65885 
L 209.23207 240.47721 
L 210.20227 239.879355 
L 211.17247 239.620203 
L 212.142671 239.524752 
L 213.112871 238.680089 
L 214.083072 238.983025 
L 216.023473 240.789989 
L 217.963873 241.903798 
L 219.904274 241.383572 
L 220.874475 241.144162 
L 221.844675 240.188217 
L 222.814876 240.53674 
L 223.785076 240.512574 
L 224.755277 237.862827 
L 225.725477 239.367889 
L 226.695677 240.301853 
L 227.665878 239.415074 
L 229.606279 241.346664 
L 230.576479 241.371426 
L 231.54668 240.073619 
L 233.48708 236.538994 
L 234.457281 234.090104 
L 235.427481 235.497743 
L 236.397682 235.929656 
L 238.338083 237.490443 
L 240.278483 241.336777 
L 241.248684 241.975509 
L 242.218884 241.200106 
L 243.189085 240.841928 
L 244.159285 235.816882 
L 245.129486 234.67587 
L 246.099686 232.003166 
L 247.069887 231.228501 
L 248.040087 231.77182 
L 249.010287 233.403516 
L 249.980488 236.56064 
L 250.950688 237.914971 
L 251.920889 238.94699 
L 252.891089 241.107348 
L 253.86129 241.061416 
L 254.83149 240.545357 
L 255.80169 239.030076 
L 256.771891 233.009344 
L 257.742091 231.273223 
L 258.712292 230.349999 
L 259.682492 228.902824 
L 260.652693 229.940296 
L 261.622893 234.581721 
L 262.593093 236.059244 
L 263.563294 238.078034 
L 264.533494 239.519721 
L 266.473895 238.429864 
L 268.414296 232.926349 
L 269.384496 234.51741 
L 270.354697 227.92532 
L 271.324897 230.564315 
L 272.295098 231.031159 
L 273.265298 234.760991 
L 274.235499 236.898239 
L 275.205699 236.969936 
L 276.1759 238.506398 
L 277.1461 238.882726 
L 278.1163 238.749815 
L 279.086501 237.883259 
L 280.056701 237.274836 
L 281.026902 233.553168 
L 281.997102 237.349484 
L 282.967303 237.151396 
L 283.937503 234.303408 
L 284.907703 236.653702 
L 285.877904 237.391539 
L 286.848104 240.434001 
L 287.818305 237.494389 
L 288.788505 237.048006 
L 289.758706 238.550162 
L 290.728906 237.856086 
L 291.699106 240.488005 
L 292.669307 240.39007 
L 293.639507 240.869494 
L 295.579908 239.139377 
L 296.550109 239.626566 
L 297.520309 239.760819 
L 298.49051 240.549994 
L 300.43091 241.20894 
L 301.401111 241.176551 
L 302.371311 241.000216 
L 303.341512 242.089194 
L 304.311712 240.58246 
L 305.281913 241.503027 
L 306.252113 241.102481 
L 307.222313 240.353694 
L 308.192514 240.79625 
L 309.162714 240.538461 
L 310.132915 241.450743 
L 311.103115 242.017346 
L 313.043516 242.084353 
L 314.013716 241.871083 
L 314.983917 241.378181 
L 315.954117 241.068975 
L 316.924318 241.152146 
L 318.864719 241.835838 
L 319.834919 241.749613 
L 320.80512 241.342563 
L 321.77532 241.334315 
L 322.74552 241.704134 
L 323.715721 241.752371 
L 324.685921 242.102935 
L 325.656122 242.019099 
L 326.626322 241.766683 
L 327.596523 241.971512 
L 328.566723 241.342864 
L 329.536923 241.89398 
L 331.477324 241.884384 
L 332.447525 241.034201 
L 333.417725 241.762736 
L 334.387926 241.131836 
L 335.358126 241.815115 
L 336.328326 241.631357 
L 337.298527 242.087804 
L 338.268727 241.581104 
L 339.238928 241.887871 
L 340.209128 240.827209 
L 343.11973 241.461076 
L 344.08993 241.108975 
L 345.06013 242.087249 
L 346.030331 241.898382 
L 347.000531 241.504643 
L 347.970732 241.858563 
L 348.940932 241.623614 
L 349.911133 240.53984 
L 350.881333 241.274914 
L 351.851533 240.571957 
L 352.821734 240.053776 
L 353.791934 240.274881 
L 354.762135 241.217508 
L 355.732335 241.397304 
L 356.702536 242.105622 
L 357.672736 242.057248 
L 359.613137 241.695293 
L 360.583337 241.759558 
L 361.553538 241.653126 
L 362.523738 241.139732 
L 363.493939 240.372695 
L 364.464139 239.920841 
L 365.43434 241.243076 
L 367.37474 240.833934 
L 368.344941 241.742855 
L 369.315141 242.028634 
L 370.285342 241.105051 
L 371.255542 242.069272 
L 372.225743 241.482306 
L 373.195943 241.8358 
L 374.166143 241.139939 
L 375.136344 241.680438 
L 376.106544 239.715193 
L 377.076745 240.234515 
L 378.046945 239.946153 
L 379.017146 240.936293 
L 379.987346 241.766381 
L 380.957546 241.991911 
L 381.927747 242.010133 
L 382.897947 241.610581 
L 383.868148 241.534349 
L 384.838348 239.708653 
L 385.808549 241.427532 
L 387.74895 240.385753 
L 388.71915 239.470722 
L 389.68935 239.221756 
L 390.659551 241.007155 
L 391.629751 241.353771 
L 392.599952 242.054431 
L 393.570152 241.766009 
L 395.510553 239.401966 
L 396.480753 240.552194 
L 397.450954 240.302748 
L 398.421154 240.297112 
L 399.391355 239.081214 
L 400.361555 240.767157 
L 401.331756 239.604535 
L 402.301956 239.298403 
L 403.272156 241.625959 
L 405.212557 242.092109 
L 406.182758 240.978893 
L 407.152958 240.448144 
L 408.123159 240.887838 
L 409.093359 239.067258 
L 411.03376 239.845467 
L 412.00396 239.729361 
L 412.974161 238.077311 
L 413.944361 239.019841 
L 414.914562 240.627512 
L 416.854963 241.820786 
L 417.825163 241.62419 
L 418.795363 240.18012 
L 419.765564 240.361486 
L 420.735764 239.029053 
L 421.705965 239.53538 
L 422.676165 239.059778 
L 423.646366 239.915281 
L 425.586766 239.611732 
L 426.556967 239.894258 
L 427.527167 240.059237 
L 428.497368 241.230887 
L 429.467568 241.99882 
L 430.437769 241.122876 
L 431.407969 240.766608 
L 432.37817 239.309951 
L 433 239.80357 
M 433 242.116294 
L -1 242.116294 
L -1 242.116294 
" clip-path="url(#p68fe6ef65d)" style="fill: none; stroke: #da8bc3; stroke-opacity: 0.3; stroke-width: 1.5; stroke-linecap: round"/>
   </g>
   <g id="patch_3">
    <path d="M 54 252 
L 54 34.56 
" style="fill: none; stroke: #262626; stroke-width: 1.25; stroke-linejoin: miter; stroke-linecap: square"/>
   </g>
   <g id="patch_4">
    <path d="M 388.8 252 
L 388.8 34.56 
" style="fill: none; stroke: #262626; stroke-width: 1.25; stroke-linejoin: miter; stroke-linecap: square"/>
   </g>
   <g id="patch_5">
    <path d="M 54 252 
L 388.8 252 
" style="fill: none; stroke: #262626; stroke-width: 1.25; stroke-linejoin: miter; stroke-linecap: square"/>
   </g>
   <g id="patch_6">
    <path d="M 54 34.56 
L 388.8 34.56 
" style="fill: none; stroke: #262626; stroke-width: 1.25; stroke-linejoin: miter; stroke-linecap: square"/>
   </g>
   <g id="text_14">
    <!-- patient06_app03 - Power spectrum -->
    <g style="fill: #262626" transform="translate(128.0175 28.56)scale(0.12 -0.12)">
     <defs>
      <path id="ArialMT-70" d="M 422 -1272 
L 422 3319 
L 934 3319 
L 934 2888 
Q 1116 3141 1344 3267 
Q 1572 3394 1897 3394 
Q 2322 3394 2647 3175 
Q 2972 2956 3137 2557 
Q 3303 2159 3303 1684 
Q 3303 1175 3120 767 
Q 2938 359 2589 142 
Q 2241 -75 1856 -75 
Q 1575 -75 1351 44 
Q 1128 163 984 344 
L 984 -1272 
L 422 -1272 
z
M 931 1641 
Q 931 1000 1190 694 
Q 1450 388 1819 388 
Q 2194 388 2461 705 
Q 2728 1022 2728 1688 
Q 2728 2322 2467 2637 
Q 2206 2953 1844 2953 
Q 1484 2953 1207 2617 
Q 931 2281 931 1641 
z
" transform="scale(0.015625)"/>
      <path id="ArialMT-61" d="M 2588 409 
Q 2275 144 1986 34 
Q 1697 -75 1366 -75 
Q 819 -75 525 192 
Q 231 459 231 875 
Q 231 1119 342 1320 
Q 453 1522 633 1644 
Q 813 1766 1038 1828 
Q 1203 1872 1538 1913 
Q 2219 1994 2541 2106 
Q 2544 2222 2544 2253 
Q 2544 2597 2384 2738 
Q 2169 2928 1744 2928 
Q 1347 2928 1158 2789 
Q 969 2650 878 2297 
L 328 2372 
Q 403 2725 575 2942 
Q 747 3159 1072 3276 
Q 1397 3394 1825 3394 
Q 2250 3394 2515 3294 
Q 2781 3194 2906 3042 
Q 3031 2891 3081 2659 
Q 3109 2516 3109 2141 
L 3109 1391 
Q 3109 606 3145 398 
Q 3181 191 3288 0 
L 2700 0 
Q 2613 175 2588 409 
z
M 2541 1666 
Q 2234 1541 1622 1453 
Q 1275 1403 1131 1340 
Q 988 1278 909 1158 
Q 831 1038 831 891 
Q 831 666 1001 516 
Q 1172 366 1500 366 
Q 1825 366 2078 508 
Q 2331 650 2450 897 
Q 2541 1088 2541 1459 
L 2541 1666 
z
" transform="scale(0.015625)"/>
      <path id="ArialMT-74" d="M 1650 503 
L 1731 6 
Q 1494 -44 1306 -44 
Q 1000 -44 831 53 
Q 663 150 594 308 
Q 525 466 525 972 
L 525 2881 
L 113 2881 
L 113 3319 
L 525 3319 
L 525 4141 
L 1084 4478 
L 1084 3319 
L 1650 3319 
L 1650 2881 
L 1084 2881 
L 1084 941 
Q 1084 700 1114 631 
Q 1144 563 1211 522 
Q 1278 481 1403 481 
Q 1497 481 1650 503 
z
" transform="scale(0.015625)"/>
      <path id="ArialMT-69" d="M 425 3934 
L 425 4581 
L 988 4581 
L 988 3934 
L 425 3934 
z
M 425 0 
L 425 3319 
L 988 3319 
L 988 0 
L 425 0 
z
" transform="scale(0.015625)"/>
      <path id="ArialMT-5f" d="M -97 -1272 
L -97 -866 
L 3631 -866 
L 3631 -1272 
L -97 -1272 
z
" transform="scale(0.015625)"/>
      <path id="ArialMT-33" d="M 269 1209 
L 831 1284 
Q 928 806 1161 595 
Q 1394 384 1728 384 
Q 2125 384 2398 659 
Q 2672 934 2672 1341 
Q 2672 1728 2419 1979 
Q 2166 2231 1775 2231 
Q 1616 2231 1378 2169 
L 1441 2663 
Q 1497 2656 1531 2656 
Q 1891 2656 2178 2843 
Q 2466 3031 2466 3422 
Q 2466 3731 2256 3934 
Q 2047 4138 1716 4138 
Q 1388 4138 1169 3931 
Q 950 3725 888 3313 
L 325 3413 
Q 428 3978 793 4289 
Q 1159 4600 1703 4600 
Q 2078 4600 2393 4439 
Q 2709 4278 2876 4000 
Q 3044 3722 3044 3409 
Q 3044 3113 2884 2869 
Q 2725 2625 2413 2481 
Q 2819 2388 3044 2092 
Q 3269 1797 3269 1353 
Q 3269 753 2831 336 
Q 2394 -81 1725 -81 
Q 1122 -81 723 278 
Q 325 638 269 1209 
z
" transform="scale(0.015625)"/>
      <path id="ArialMT-2d" d="M 203 1375 
L 203 1941 
L 1931 1941 
L 1931 1375 
L 203 1375 
z
" transform="scale(0.015625)"/>
      <path id="ArialMT-50" d="M 494 0 
L 494 4581 
L 2222 4581 
Q 2678 4581 2919 4538 
Q 3256 4481 3484 4323 
Q 3713 4166 3852 3881 
Q 3991 3597 3991 3256 
Q 3991 2672 3619 2267 
Q 3247 1863 2275 1863 
L 1100 1863 
L 1100 0 
L 494 0 
z
M 1100 2403 
L 2284 2403 
Q 2872 2403 3119 2622 
Q 3366 2841 3366 3238 
Q 3366 3525 3220 3729 
Q 3075 3934 2838 4000 
Q 2684 4041 2272 4041 
L 1100 4041 
L 1100 2403 
z
" transform="scale(0.015625)"/>
      <path id="ArialMT-6f" d="M 213 1659 
Q 213 2581 725 3025 
Q 1153 3394 1769 3394 
Q 2453 3394 2887 2945 
Q 3322 2497 3322 1706 
Q 3322 1066 3130 698 
Q 2938 331 2570 128 
Q 2203 -75 1769 -75 
Q 1072 -75 642 372 
Q 213 819 213 1659 
z
M 791 1659 
Q 791 1022 1069 705 
Q 1347 388 1769 388 
Q 2188 388 2466 706 
Q 2744 1025 2744 1678 
Q 2744 2294 2464 2611 
Q 2184 2928 1769 2928 
Q 1347 2928 1069 2612 
Q 791 2297 791 1659 
z
" transform="scale(0.015625)"/>
      <path id="ArialMT-77" d="M 1034 0 
L 19 3319 
L 600 3319 
L 1128 1403 
L 1325 691 
Q 1338 744 1497 1375 
L 2025 3319 
L 2603 3319 
L 3100 1394 
L 3266 759 
L 3456 1400 
L 4025 3319 
L 4572 3319 
L 3534 0 
L 2950 0 
L 2422 1988 
L 2294 2553 
L 1622 0 
L 1034 0 
z
" transform="scale(0.015625)"/>
      <path id="ArialMT-73" d="M 197 991 
L 753 1078 
Q 800 744 1014 566 
Q 1228 388 1613 388 
Q 2000 388 2187 545 
Q 2375 703 2375 916 
Q 2375 1106 2209 1216 
Q 2094 1291 1634 1406 
Q 1016 1563 777 1677 
Q 538 1791 414 1992 
Q 291 2194 291 2438 
Q 291 2659 392 2848 
Q 494 3038 669 3163 
Q 800 3259 1026 3326 
Q 1253 3394 1513 3394 
Q 1903 3394 2198 3281 
Q 2494 3169 2634 2976 
Q 2775 2784 2828 2463 
L 2278 2388 
Q 2241 2644 2061 2787 
Q 1881 2931 1553 2931 
Q 1166 2931 1000 2803 
Q 834 2675 834 2503 
Q 834 2394 903 2306 
Q 972 2216 1119 2156 
Q 1203 2125 1616 2013 
Q 2213 1853 2448 1751 
Q 2684 1650 2818 1456 
Q 2953 1263 2953 975 
Q 2953 694 2789 445 
Q 2625 197 2315 61 
Q 2006 -75 1616 -75 
Q 969 -75 630 194 
Q 291 463 197 991 
z
" transform="scale(0.015625)"/>
      <path id="ArialMT-6d" d="M 422 0 
L 422 3319 
L 925 3319 
L 925 2853 
Q 1081 3097 1340 3245 
Q 1600 3394 1931 3394 
Q 2300 3394 2536 3241 
Q 2772 3088 2869 2813 
Q 3263 3394 3894 3394 
Q 4388 3394 4653 3120 
Q 4919 2847 4919 2278 
L 4919 0 
L 4359 0 
L 4359 2091 
Q 4359 2428 4304 2576 
Q 4250 2725 4106 2815 
Q 3963 2906 3769 2906 
Q 3419 2906 3187 2673 
Q 2956 2441 2956 1928 
L 2956 0 
L 2394 0 
L 2394 2156 
Q 2394 2531 2256 2718 
Q 2119 2906 1806 2906 
Q 1569 2906 1367 2781 
Q 1166 2656 1075 2415 
Q 984 2175 984 1722 
L 984 0 
L 422 0 
z
" transform="scale(0.015625)"/>
     </defs>
     <use xlink:href="#ArialMT-70"/>
     <use xlink:href="#ArialMT-61" x="55.615234"/>
     <use xlink:href="#ArialMT-74" x="111.230469"/>
     <use xlink:href="#ArialMT-69" x="139.013672"/>
     <use xlink:href="#ArialMT-65" x="161.230469"/>
     <use xlink:href="#ArialMT-6e" x="216.845703"/>
     <use xlink:href="#ArialMT-74" x="272.460938"/>
     <use xlink:href="#ArialMT-30" x="300.244141"/>
     <use xlink:href="#ArialMT-36" x="355.859375"/>
     <use xlink:href="#ArialMT-5f" x="411.474609"/>
     <use xlink:href="#ArialMT-61" x="467.089844"/>
     <use xlink:href="#ArialMT-70" x="522.705078"/>
     <use xlink:href="#ArialMT-70" x="578.320312"/>
     <use xlink:href="#ArialMT-30" x="633.935547"/>
     <use xlink:href="#ArialMT-33" x="689.550781"/>
     <use xlink:href="#ArialMT-20" x="745.166016"/>
     <use xlink:href="#ArialMT-2d" x="772.949219"/>
     <use xlink:href="#ArialMT-20" x="806.25"/>
     <use xlink:href="#ArialMT-50" x="834.033203"/>
     <use xlink:href="#ArialMT-6f" x="900.732422"/>
     <use xlink:href="#ArialMT-77" x="956.347656"/>
     <use xlink:href="#ArialMT-65" x="1028.564453"/>
     <use xlink:href="#ArialMT-72" x="1084.179688"/>
     <use xlink:href="#ArialMT-20" x="1117.480469"/>
     <use xlink:href="#ArialMT-73" x="1145.263672"/>
     <use xlink:href="#ArialMT-70" x="1195.263672"/>
     <use xlink:href="#ArialMT-65" x="1250.878906"/>
     <use xlink:href="#ArialMT-63" x="1306.494141"/>
     <use xlink:href="#ArialMT-74" x="1356.494141"/>
     <use xlink:href="#ArialMT-72" x="1384.277344"/>
     <use xlink:href="#ArialMT-75" x="1417.578125"/>
     <use xlink:href="#ArialMT-6d" x="1473.193359"/>
    </g>
   </g>
   <g id="legend_1">
    <g id="patch_7">
     <path d="M 313.503281 152.278906 
L 381.1 152.278906 
Q 383.3 152.278906 383.3 150.078906 
L 383.3 42.26 
Q 383.3 40.06 381.1 40.06 
L 313.503281 40.06 
Q 311.303281 40.06 311.303281 42.26 
L 311.303281 150.078906 
Q 311.303281 152.278906 313.503281 152.278906 
z
" style="fill: #ffffff; opacity: 0.8; stroke: #cccccc; stroke-linejoin: miter"/>
    </g>
    <g id="line2d_20">
     <path d="M 315.703281 48.483594 
L 326.703281 48.483594 
L 337.703281 48.483594 
" style="fill: none; stroke: #4c72b0; stroke-opacity: 0.3; stroke-width: 1.5; stroke-linecap: round"/>
    </g>
    <g id="text_15">
     <!-- IMU9 -->
     <g style="fill: #262626" transform="translate(346.503281 52.333594)scale(0.11 -0.11)">
      <defs>
       <path id="ArialMT-49" d="M 597 0 
L 597 4581 
L 1203 4581 
L 1203 0 
L 597 0 
z
" transform="scale(0.015625)"/>
       <path id="ArialMT-4d" d="M 475 0 
L 475 4581 
L 1388 4581 
L 2472 1338 
Q 2622 884 2691 659 
Q 2769 909 2934 1394 
L 4031 4581 
L 4847 4581 
L 4847 0 
L 4263 0 
L 4263 3834 
L 2931 0 
L 2384 0 
L 1059 3900 
L 1059 0 
L 475 0 
z
" transform="scale(0.015625)"/>
       <path id="ArialMT-55" d="M 3500 4581 
L 4106 4581 
L 4106 1934 
Q 4106 1244 3950 837 
Q 3794 431 3386 176 
Q 2978 -78 2316 -78 
Q 1672 -78 1262 144 
Q 853 366 678 786 
Q 503 1206 503 1934 
L 503 4581 
L 1109 4581 
L 1109 1938 
Q 1109 1341 1220 1058 
Q 1331 775 1601 622 
Q 1872 469 2263 469 
Q 2931 469 3215 772 
Q 3500 1075 3500 1938 
L 3500 4581 
z
" transform="scale(0.015625)"/>
       <path id="ArialMT-39" d="M 350 1059 
L 891 1109 
Q 959 728 1153 556 
Q 1347 384 1650 384 
Q 1909 384 2104 503 
Q 2300 622 2425 820 
Q 2550 1019 2634 1356 
Q 2719 1694 2719 2044 
Q 2719 2081 2716 2156 
Q 2547 1888 2255 1720 
Q 1963 1553 1622 1553 
Q 1053 1553 659 1965 
Q 266 2378 266 3053 
Q 266 3750 677 4175 
Q 1088 4600 1706 4600 
Q 2153 4600 2523 4359 
Q 2894 4119 3086 3673 
Q 3278 3228 3278 2384 
Q 3278 1506 3087 986 
Q 2897 466 2520 194 
Q 2144 -78 1638 -78 
Q 1100 -78 759 220 
Q 419 519 350 1059 
z
M 2653 3081 
Q 2653 3566 2395 3850 
Q 2138 4134 1775 4134 
Q 1400 4134 1122 3828 
Q 844 3522 844 3034 
Q 844 2597 1108 2323 
Q 1372 2050 1759 2050 
Q 2150 2050 2401 2323 
Q 2653 2597 2653 3081 
z
" transform="scale(0.015625)"/>
      </defs>
      <use xlink:href="#ArialMT-49"/>
      <use xlink:href="#ArialMT-4d" x="27.783203"/>
      <use xlink:href="#ArialMT-55" x="111.083984"/>
      <use xlink:href="#ArialMT-39" x="183.300781"/>
     </g>
    </g>
    <g id="line2d_21">
     <path d="M 315.703281 64.043438 
L 326.703281 64.043438 
L 337.703281 64.043438 
" style="fill: none; stroke: #dd8452; stroke-opacity: 0.3; stroke-width: 1.5; stroke-linecap: round"/>
    </g>
    <g id="text_16">
     <!-- IMU10 -->
     <g style="fill: #262626" transform="translate(346.503281 67.893438)scale(0.11 -0.11)">
      <use xlink:href="#ArialMT-49"/>
      <use xlink:href="#ArialMT-4d" x="27.783203"/>
      <use xlink:href="#ArialMT-55" x="111.083984"/>
      <use xlink:href="#ArialMT-31" x="183.300781"/>
      <use xlink:href="#ArialMT-30" x="238.916016"/>
     </g>
    </g>
    <g id="line2d_22">
     <path d="M 315.703281 79.603281 
L 326.703281 79.603281 
L 337.703281 79.603281 
" style="fill: none; stroke: #55a868; stroke-opacity: 0.3; stroke-width: 1.5; stroke-linecap: round"/>
    </g>
    <g id="text_17">
     <!-- IMU11 -->
     <g style="fill: #262626" transform="translate(346.503281 83.453281)scale(0.11 -0.11)">
      <use xlink:href="#ArialMT-49"/>
      <use xlink:href="#ArialMT-4d" x="27.783203"/>
      <use xlink:href="#ArialMT-55" x="111.083984"/>
      <use xlink:href="#ArialMT-31" x="183.300781"/>
      <use xlink:href="#ArialMT-31" x="231.541016"/>
     </g>
    </g>
    <g id="line2d_23">
     <path d="M 315.703281 95.163125 
L 326.703281 95.163125 
L 337.703281 95.163125 
" style="fill: none; stroke: #c44e52; stroke-opacity: 0.3; stroke-width: 1.5; stroke-linecap: round"/>
    </g>
    <g id="text_18">
     <!-- IMU12 -->
     <g style="fill: #262626" transform="translate(346.503281 99.013125)scale(0.11 -0.11)">
      <use xlink:href="#ArialMT-49"/>
      <use xlink:href="#ArialMT-4d" x="27.783203"/>
      <use xlink:href="#ArialMT-55" x="111.083984"/>
      <use xlink:href="#ArialMT-31" x="183.300781"/>
      <use xlink:href="#ArialMT-32" x="238.916016"/>
     </g>
    </g>
    <g id="line2d_24">
     <path d="M 315.703281 110.722969 
L 326.703281 110.722969 
L 337.703281 110.722969 
" style="fill: none; stroke: #8172b3; stroke-opacity: 0.3; stroke-width: 1.5; stroke-linecap: round"/>
    </g>
    <g id="text_19">
     <!-- IMU13 -->
     <g style="fill: #262626" transform="translate(346.503281 114.572969)scale(0.11 -0.11)">
      <use xlink:href="#ArialMT-49"/>
      <use xlink:href="#ArialMT-4d" x="27.783203"/>
      <use xlink:href="#ArialMT-55" x="111.083984"/>
      <use xlink:href="#ArialMT-31" x="183.300781"/>
      <use xlink:href="#ArialMT-33" x="238.916016"/>
     </g>
    </g>
    <g id="line2d_25">
     <path d="M 315.703281 126.282813 
L 326.703281 126.282813 
L 337.703281 126.282813 
" style="fill: none; stroke: #937860; stroke-opacity: 0.3; stroke-width: 1.5; stroke-linecap: round"/>
    </g>
    <g id="text_20">
     <!-- IMU14 -->
     <g style="fill: #262626" transform="translate(346.503281 130.132812)scale(0.11 -0.11)">
      <use xlink:href="#ArialMT-49"/>
      <use xlink:href="#ArialMT-4d" x="27.783203"/>
      <use xlink:href="#ArialMT-55" x="111.083984"/>
      <use xlink:href="#ArialMT-31" x="183.300781"/>
      <use xlink:href="#ArialMT-34" x="238.916016"/>
     </g>
    </g>
    <g id="line2d_26">
     <path d="M 315.703281 141.842656 
L 326.703281 141.842656 
L 337.703281 141.842656 
" style="fill: none; stroke: #da8bc3; stroke-opacity: 0.3; stroke-width: 1.5; stroke-linecap: round"/>
    </g>
    <g id="text_21">
     <!-- IMU15 -->
     <g style="fill: #262626" transform="translate(346.503281 145.692656)scale(0.11 -0.11)">
      <use xlink:href="#ArialMT-49"/>
      <use xlink:href="#ArialMT-4d" x="27.783203"/>
      <use xlink:href="#ArialMT-55" x="111.083984"/>
      <use xlink:href="#ArialMT-31" x="183.300781"/>
      <use xlink:href="#ArialMT-35" x="238.916016"/>
     </g>
    </g>
   </g>
  </g>
 </g>
 <defs>
  <clipPath id="p68fe6ef65d">
   <rect x="54" y="34.56" width="334.8" height="217.44"/>
  </clipPath>
 </defs>
</svg>
