<?xml version="1.0" encoding="utf-8" standalone="no"?>
<!DOCTYPE svg PUBLIC "-//W3C//DTD SVG 1.1//EN"
  "http://www.w3.org/Graphics/SVG/1.1/DTD/svg11.dtd">
<svg xmlns:xlink="http://www.w3.org/1999/xlink" width="432pt" height="288pt" viewBox="0 0 432 288" xmlns="http://www.w3.org/2000/svg" version="1.1">
 <metadata>
  <rdf:RDF xmlns:dc="http://purl.org/dc/elements/1.1/" xmlns:cc="http://creativecommons.org/ns#" xmlns:rdf="http://www.w3.org/1999/02/22-rdf-syntax-ns#">
   <cc:Work>
    <dc:type rdf:resource="http://purl.org/dc/dcmitype/StillImage"/>
    <dc:date>2022-07-08T13:58:10.931768</dc:date>
    <dc:format>image/svg+xml</dc:format>
    <dc:creator>
     <cc:Agent>
      <dc:title>Matplotlib v3.5.1, https://matplotlib.org/</dc:title>
     </cc:Agent>
    </dc:creator>
   </cc:Work>
  </rdf:RDF>
 </metadata>
 <defs>
  <style type="text/css">*{stroke-linejoin: round; stroke-linecap: butt}</style>
 </defs>
 <g id="figure_1">
  <g id="patch_1">
   <path d="M 0 288 
L 432 288 
L 432 0 
L 0 0 
z
" style="fill: #ffffff"/>
  </g>
  <g id="axes_1">
   <g id="patch_2">
    <path d="M 54 252 
L 388.8 252 
L 388.8 34.56 
L 54 34.56 
z
" style="fill: #ffffff"/>
   </g>
   <g id="matplotlib.axis_1">
    <g id="xtick_1">
     <g id="line2d_1">
      <defs>
       <path id="mc62d64081d" d="M 0 0 
L 0 6 
" style="stroke: #262626; stroke-width: 1.25"/>
      </defs>
      <g>
       <use xlink:href="#mc62d64081d" x="54" y="252" style="fill: #262626; stroke: #262626; stroke-width: 1.25"/>
      </g>
     </g>
     <g id="text_1">
      <!-- 0 -->
      <g style="fill: #262626" transform="translate(50.941484 269.373594)scale(0.11 -0.11)">
       <defs>
        <path id="ArialMT-30" d="M 266 2259 
Q 266 3072 433 3567 
Q 600 4063 929 4331 
Q 1259 4600 1759 4600 
Q 2128 4600 2406 4451 
Q 2684 4303 2865 4023 
Q 3047 3744 3150 3342 
Q 3253 2941 3253 2259 
Q 3253 1453 3087 958 
Q 2922 463 2592 192 
Q 2263 -78 1759 -78 
Q 1097 -78 719 397 
Q 266 969 266 2259 
z
M 844 2259 
Q 844 1131 1108 757 
Q 1372 384 1759 384 
Q 2147 384 2411 759 
Q 2675 1134 2675 2259 
Q 2675 3391 2411 3762 
Q 2147 4134 1753 4134 
Q 1366 4134 1134 3806 
Q 844 3388 844 2259 
z
" transform="scale(0.015625)"/>
       </defs>
       <use xlink:href="#ArialMT-30"/>
      </g>
     </g>
    </g>
    <g id="xtick_2">
     <g id="line2d_2">
      <g>
       <use xlink:href="#mc62d64081d" x="120.96" y="252" style="fill: #262626; stroke: #262626; stroke-width: 1.25"/>
      </g>
     </g>
     <g id="text_2">
      <!-- 5 -->
      <g style="fill: #262626" transform="translate(117.901484 269.373594)scale(0.11 -0.11)">
       <defs>
        <path id="ArialMT-35" d="M 266 1200 
L 856 1250 
Q 922 819 1161 601 
Q 1400 384 1738 384 
Q 2144 384 2425 690 
Q 2706 997 2706 1503 
Q 2706 1984 2436 2262 
Q 2166 2541 1728 2541 
Q 1456 2541 1237 2417 
Q 1019 2294 894 2097 
L 366 2166 
L 809 4519 
L 3088 4519 
L 3088 3981 
L 1259 3981 
L 1013 2750 
Q 1425 3038 1878 3038 
Q 2478 3038 2890 2622 
Q 3303 2206 3303 1553 
Q 3303 931 2941 478 
Q 2500 -78 1738 -78 
Q 1113 -78 717 272 
Q 322 622 266 1200 
z
" transform="scale(0.015625)"/>
       </defs>
       <use xlink:href="#ArialMT-35"/>
      </g>
     </g>
    </g>
    <g id="xtick_3">
     <g id="line2d_3">
      <g>
       <use xlink:href="#mc62d64081d" x="187.92" y="252" style="fill: #262626; stroke: #262626; stroke-width: 1.25"/>
      </g>
     </g>
     <g id="text_3">
      <!-- 10 -->
      <g style="fill: #262626" transform="translate(181.802969 269.373594)scale(0.11 -0.11)">
       <defs>
        <path id="ArialMT-31" d="M 2384 0 
L 1822 0 
L 1822 3584 
Q 1619 3391 1289 3197 
Q 959 3003 697 2906 
L 697 3450 
Q 1169 3672 1522 3987 
Q 1875 4303 2022 4600 
L 2384 4600 
L 2384 0 
z
" transform="scale(0.015625)"/>
       </defs>
       <use xlink:href="#ArialMT-31"/>
       <use xlink:href="#ArialMT-30" x="55.615234"/>
      </g>
     </g>
    </g>
    <g id="xtick_4">
     <g id="line2d_4">
      <g>
       <use xlink:href="#mc62d64081d" x="254.88" y="252" style="fill: #262626; stroke: #262626; stroke-width: 1.25"/>
      </g>
     </g>
     <g id="text_4">
      <!-- 15 -->
      <g style="fill: #262626" transform="translate(248.762969 269.373594)scale(0.11 -0.11)">
       <use xlink:href="#ArialMT-31"/>
       <use xlink:href="#ArialMT-35" x="55.615234"/>
      </g>
     </g>
    </g>
    <g id="xtick_5">
     <g id="line2d_5">
      <g>
       <use xlink:href="#mc62d64081d" x="321.84" y="252" style="fill: #262626; stroke: #262626; stroke-width: 1.25"/>
      </g>
     </g>
     <g id="text_5">
      <!-- 20 -->
      <g style="fill: #262626" transform="translate(315.722969 269.373594)scale(0.11 -0.11)">
       <defs>
        <path id="ArialMT-32" d="M 3222 541 
L 3222 0 
L 194 0 
Q 188 203 259 391 
Q 375 700 629 1000 
Q 884 1300 1366 1694 
Q 2113 2306 2375 2664 
Q 2638 3022 2638 3341 
Q 2638 3675 2398 3904 
Q 2159 4134 1775 4134 
Q 1369 4134 1125 3890 
Q 881 3647 878 3216 
L 300 3275 
Q 359 3922 746 4261 
Q 1134 4600 1788 4600 
Q 2447 4600 2831 4234 
Q 3216 3869 3216 3328 
Q 3216 3053 3103 2787 
Q 2991 2522 2730 2228 
Q 2469 1934 1863 1422 
Q 1356 997 1212 845 
Q 1069 694 975 541 
L 3222 541 
z
" transform="scale(0.015625)"/>
       </defs>
       <use xlink:href="#ArialMT-32"/>
       <use xlink:href="#ArialMT-30" x="55.615234"/>
      </g>
     </g>
    </g>
    <g id="xtick_6">
     <g id="line2d_6">
      <g>
       <use xlink:href="#mc62d64081d" x="388.8" y="252" style="fill: #262626; stroke: #262626; stroke-width: 1.25"/>
      </g>
     </g>
     <g id="text_6">
      <!-- 25 -->
      <g style="fill: #262626" transform="translate(382.682969 269.373594)scale(0.11 -0.11)">
       <use xlink:href="#ArialMT-32"/>
       <use xlink:href="#ArialMT-35" x="55.615234"/>
      </g>
     </g>
    </g>
    <g id="text_7">
     <!-- Frequency (Hz) -->
     <g style="fill: #262626" transform="translate(180.059063 284.295469)scale(0.12 -0.12)">
      <defs>
       <path id="ArialMT-46" d="M 525 0 
L 525 4581 
L 3616 4581 
L 3616 4041 
L 1131 4041 
L 1131 2622 
L 3281 2622 
L 3281 2081 
L 1131 2081 
L 1131 0 
L 525 0 
z
" transform="scale(0.015625)"/>
       <path id="ArialMT-72" d="M 416 0 
L 416 3319 
L 922 3319 
L 922 2816 
Q 1116 3169 1280 3281 
Q 1444 3394 1641 3394 
Q 1925 3394 2219 3213 
L 2025 2691 
Q 1819 2813 1613 2813 
Q 1428 2813 1281 2702 
Q 1134 2591 1072 2394 
Q 978 2094 978 1738 
L 978 0 
L 416 0 
z
" transform="scale(0.015625)"/>
       <path id="ArialMT-65" d="M 2694 1069 
L 3275 997 
Q 3138 488 2766 206 
Q 2394 -75 1816 -75 
Q 1088 -75 661 373 
Q 234 822 234 1631 
Q 234 2469 665 2931 
Q 1097 3394 1784 3394 
Q 2450 3394 2872 2941 
Q 3294 2488 3294 1666 
Q 3294 1616 3291 1516 
L 816 1516 
Q 847 969 1125 678 
Q 1403 388 1819 388 
Q 2128 388 2347 550 
Q 2566 713 2694 1069 
z
M 847 1978 
L 2700 1978 
Q 2663 2397 2488 2606 
Q 2219 2931 1791 2931 
Q 1403 2931 1139 2672 
Q 875 2413 847 1978 
z
" transform="scale(0.015625)"/>
       <path id="ArialMT-71" d="M 2538 -1272 
L 2538 353 
Q 2406 169 2170 47 
Q 1934 -75 1669 -75 
Q 1078 -75 651 397 
Q 225 869 225 1691 
Q 225 2191 398 2587 
Q 572 2984 901 3189 
Q 1231 3394 1625 3394 
Q 2241 3394 2594 2875 
L 2594 3319 
L 3100 3319 
L 3100 -1272 
L 2538 -1272 
z
M 803 1669 
Q 803 1028 1072 708 
Q 1341 388 1716 388 
Q 2075 388 2334 692 
Q 2594 997 2594 1619 
Q 2594 2281 2320 2615 
Q 2047 2950 1678 2950 
Q 1313 2950 1058 2639 
Q 803 2328 803 1669 
z
" transform="scale(0.015625)"/>
       <path id="ArialMT-75" d="M 2597 0 
L 2597 488 
Q 2209 -75 1544 -75 
Q 1250 -75 995 37 
Q 741 150 617 320 
Q 494 491 444 738 
Q 409 903 409 1263 
L 409 3319 
L 972 3319 
L 972 1478 
Q 972 1038 1006 884 
Q 1059 663 1231 536 
Q 1403 409 1656 409 
Q 1909 409 2131 539 
Q 2353 669 2445 892 
Q 2538 1116 2538 1541 
L 2538 3319 
L 3100 3319 
L 3100 0 
L 2597 0 
z
" transform="scale(0.015625)"/>
       <path id="ArialMT-6e" d="M 422 0 
L 422 3319 
L 928 3319 
L 928 2847 
Q 1294 3394 1984 3394 
Q 2284 3394 2536 3286 
Q 2788 3178 2913 3003 
Q 3038 2828 3088 2588 
Q 3119 2431 3119 2041 
L 3119 0 
L 2556 0 
L 2556 2019 
Q 2556 2363 2490 2533 
Q 2425 2703 2258 2804 
Q 2091 2906 1866 2906 
Q 1506 2906 1245 2678 
Q 984 2450 984 1813 
L 984 0 
L 422 0 
z
" transform="scale(0.015625)"/>
       <path id="ArialMT-63" d="M 2588 1216 
L 3141 1144 
Q 3050 572 2676 248 
Q 2303 -75 1759 -75 
Q 1078 -75 664 370 
Q 250 816 250 1647 
Q 250 2184 428 2587 
Q 606 2991 970 3192 
Q 1334 3394 1763 3394 
Q 2303 3394 2647 3120 
Q 2991 2847 3088 2344 
L 2541 2259 
Q 2463 2594 2264 2762 
Q 2066 2931 1784 2931 
Q 1359 2931 1093 2626 
Q 828 2322 828 1663 
Q 828 994 1084 691 
Q 1341 388 1753 388 
Q 2084 388 2306 591 
Q 2528 794 2588 1216 
z
" transform="scale(0.015625)"/>
       <path id="ArialMT-79" d="M 397 -1278 
L 334 -750 
Q 519 -800 656 -800 
Q 844 -800 956 -737 
Q 1069 -675 1141 -563 
Q 1194 -478 1313 -144 
Q 1328 -97 1363 -6 
L 103 3319 
L 709 3319 
L 1400 1397 
Q 1534 1031 1641 628 
Q 1738 1016 1872 1384 
L 2581 3319 
L 3144 3319 
L 1881 -56 
Q 1678 -603 1566 -809 
Q 1416 -1088 1222 -1217 
Q 1028 -1347 759 -1347 
Q 597 -1347 397 -1278 
z
" transform="scale(0.015625)"/>
       <path id="ArialMT-20" transform="scale(0.015625)"/>
       <path id="ArialMT-28" d="M 1497 -1347 
Q 1031 -759 709 28 
Q 388 816 388 1659 
Q 388 2403 628 3084 
Q 909 3875 1497 4659 
L 1900 4659 
Q 1522 4009 1400 3731 
Q 1209 3300 1100 2831 
Q 966 2247 966 1656 
Q 966 153 1900 -1347 
L 1497 -1347 
z
" transform="scale(0.015625)"/>
       <path id="ArialMT-48" d="M 513 0 
L 513 4581 
L 1119 4581 
L 1119 2700 
L 3500 2700 
L 3500 4581 
L 4106 4581 
L 4106 0 
L 3500 0 
L 3500 2159 
L 1119 2159 
L 1119 0 
L 513 0 
z
" transform="scale(0.015625)"/>
       <path id="ArialMT-7a" d="M 125 0 
L 125 456 
L 2238 2881 
Q 1878 2863 1603 2863 
L 250 2863 
L 250 3319 
L 2963 3319 
L 2963 2947 
L 1166 841 
L 819 456 
Q 1197 484 1528 484 
L 3063 484 
L 3063 0 
L 125 0 
z
" transform="scale(0.015625)"/>
       <path id="ArialMT-29" d="M 791 -1347 
L 388 -1347 
Q 1322 153 1322 1656 
Q 1322 2244 1188 2822 
Q 1081 3291 891 3722 
Q 769 4003 388 4659 
L 791 4659 
Q 1378 3875 1659 3084 
Q 1900 2403 1900 1659 
Q 1900 816 1576 28 
Q 1253 -759 791 -1347 
z
" transform="scale(0.015625)"/>
      </defs>
      <use xlink:href="#ArialMT-46"/>
      <use xlink:href="#ArialMT-72" x="61.083984"/>
      <use xlink:href="#ArialMT-65" x="94.384766"/>
      <use xlink:href="#ArialMT-71" x="150"/>
      <use xlink:href="#ArialMT-75" x="205.615234"/>
      <use xlink:href="#ArialMT-65" x="261.230469"/>
      <use xlink:href="#ArialMT-6e" x="316.845703"/>
      <use xlink:href="#ArialMT-63" x="372.460938"/>
      <use xlink:href="#ArialMT-79" x="422.460938"/>
      <use xlink:href="#ArialMT-20" x="472.460938"/>
      <use xlink:href="#ArialMT-28" x="500.244141"/>
      <use xlink:href="#ArialMT-48" x="533.544922"/>
      <use xlink:href="#ArialMT-7a" x="605.761719"/>
      <use xlink:href="#ArialMT-29" x="655.761719"/>
     </g>
    </g>
   </g>
   <g id="matplotlib.axis_2">
    <g id="ytick_1">
     <g id="line2d_7">
      <defs>
       <path id="m04e22c250a" d="M 0 0 
L -6 0 
" style="stroke: #262626; stroke-width: 1.25"/>
      </defs>
      <g>
       <use xlink:href="#m04e22c250a" x="54" y="242.116364" style="fill: #262626; stroke: #262626; stroke-width: 1.25"/>
      </g>
     </g>
     <g id="text_8">
      <!-- 0 -->
      <g style="fill: #262626" transform="translate(38.382969 246.053161)scale(0.11 -0.11)">
       <use xlink:href="#ArialMT-30"/>
      </g>
     </g>
    </g>
    <g id="ytick_2">
     <g id="line2d_8">
      <g>
       <use xlink:href="#m04e22c250a" x="54" y="216.705331" style="fill: #262626; stroke: #262626; stroke-width: 1.25"/>
      </g>
     </g>
     <g id="text_9">
      <!-- 200 -->
      <g style="fill: #262626" transform="translate(26.148906 220.642128)scale(0.11 -0.11)">
       <use xlink:href="#ArialMT-32"/>
       <use xlink:href="#ArialMT-30" x="55.615234"/>
       <use xlink:href="#ArialMT-30" x="111.230469"/>
      </g>
     </g>
    </g>
    <g id="ytick_3">
     <g id="line2d_9">
      <g>
       <use xlink:href="#m04e22c250a" x="54" y="191.294299" style="fill: #262626; stroke: #262626; stroke-width: 1.25"/>
      </g>
     </g>
     <g id="text_10">
      <!-- 400 -->
      <g style="fill: #262626" transform="translate(26.148906 195.231096)scale(0.11 -0.11)">
       <defs>
        <path id="ArialMT-34" d="M 2069 0 
L 2069 1097 
L 81 1097 
L 81 1613 
L 2172 4581 
L 2631 4581 
L 2631 1613 
L 3250 1613 
L 3250 1097 
L 2631 1097 
L 2631 0 
L 2069 0 
z
M 2069 1613 
L 2069 3678 
L 634 1613 
L 2069 1613 
z
" transform="scale(0.015625)"/>
       </defs>
       <use xlink:href="#ArialMT-34"/>
       <use xlink:href="#ArialMT-30" x="55.615234"/>
       <use xlink:href="#ArialMT-30" x="111.230469"/>
      </g>
     </g>
    </g>
    <g id="ytick_4">
     <g id="line2d_10">
      <g>
       <use xlink:href="#m04e22c250a" x="54" y="165.883266" style="fill: #262626; stroke: #262626; stroke-width: 1.25"/>
      </g>
     </g>
     <g id="text_11">
      <!-- 600 -->
      <g style="fill: #262626" transform="translate(26.148906 169.820063)scale(0.11 -0.11)">
       <defs>
        <path id="ArialMT-36" d="M 3184 3459 
L 2625 3416 
Q 2550 3747 2413 3897 
Q 2184 4138 1850 4138 
Q 1581 4138 1378 3988 
Q 1113 3794 959 3422 
Q 806 3050 800 2363 
Q 1003 2672 1297 2822 
Q 1591 2972 1913 2972 
Q 2475 2972 2870 2558 
Q 3266 2144 3266 1488 
Q 3266 1056 3080 686 
Q 2894 316 2569 119 
Q 2244 -78 1831 -78 
Q 1128 -78 684 439 
Q 241 956 241 2144 
Q 241 3472 731 4075 
Q 1159 4600 1884 4600 
Q 2425 4600 2770 4297 
Q 3116 3994 3184 3459 
z
M 888 1484 
Q 888 1194 1011 928 
Q 1134 663 1356 523 
Q 1578 384 1822 384 
Q 2178 384 2434 671 
Q 2691 959 2691 1453 
Q 2691 1928 2437 2201 
Q 2184 2475 1800 2475 
Q 1419 2475 1153 2201 
Q 888 1928 888 1484 
z
" transform="scale(0.015625)"/>
       </defs>
       <use xlink:href="#ArialMT-36"/>
       <use xlink:href="#ArialMT-30" x="55.615234"/>
       <use xlink:href="#ArialMT-30" x="111.230469"/>
      </g>
     </g>
    </g>
    <g id="ytick_5">
     <g id="line2d_11">
      <g>
       <use xlink:href="#m04e22c250a" x="54" y="140.472234" style="fill: #262626; stroke: #262626; stroke-width: 1.25"/>
      </g>
     </g>
     <g id="text_12">
      <!-- 800 -->
      <g style="fill: #262626" transform="translate(26.148906 144.409031)scale(0.11 -0.11)">
       <defs>
        <path id="ArialMT-38" d="M 1131 2484 
Q 781 2613 612 2850 
Q 444 3088 444 3419 
Q 444 3919 803 4259 
Q 1163 4600 1759 4600 
Q 2359 4600 2725 4251 
Q 3091 3903 3091 3403 
Q 3091 3084 2923 2848 
Q 2756 2613 2416 2484 
Q 2838 2347 3058 2040 
Q 3278 1734 3278 1309 
Q 3278 722 2862 322 
Q 2447 -78 1769 -78 
Q 1091 -78 675 323 
Q 259 725 259 1325 
Q 259 1772 486 2073 
Q 713 2375 1131 2484 
z
M 1019 3438 
Q 1019 3113 1228 2906 
Q 1438 2700 1772 2700 
Q 2097 2700 2305 2904 
Q 2513 3109 2513 3406 
Q 2513 3716 2298 3927 
Q 2084 4138 1766 4138 
Q 1444 4138 1231 3931 
Q 1019 3725 1019 3438 
z
M 838 1322 
Q 838 1081 952 856 
Q 1066 631 1291 507 
Q 1516 384 1775 384 
Q 2178 384 2440 643 
Q 2703 903 2703 1303 
Q 2703 1709 2433 1975 
Q 2163 2241 1756 2241 
Q 1359 2241 1098 1978 
Q 838 1716 838 1322 
z
" transform="scale(0.015625)"/>
       </defs>
       <use xlink:href="#ArialMT-38"/>
       <use xlink:href="#ArialMT-30" x="55.615234"/>
       <use xlink:href="#ArialMT-30" x="111.230469"/>
      </g>
     </g>
    </g>
    <g id="ytick_6">
     <g id="line2d_12">
      <g>
       <use xlink:href="#m04e22c250a" x="54" y="115.061201" style="fill: #262626; stroke: #262626; stroke-width: 1.25"/>
      </g>
     </g>
     <g id="text_13">
      <!-- 1000 -->
      <g style="fill: #262626" transform="translate(20.031875 118.997998)scale(0.11 -0.11)">
       <use xlink:href="#ArialMT-31"/>
       <use xlink:href="#ArialMT-30" x="55.615234"/>
       <use xlink:href="#ArialMT-30" x="111.230469"/>
       <use xlink:href="#ArialMT-30" x="166.845703"/>
      </g>
     </g>
    </g>
    <g id="ytick_7">
     <g id="line2d_13">
      <g>
       <use xlink:href="#m04e22c250a" x="54" y="89.650169" style="fill: #262626; stroke: #262626; stroke-width: 1.25"/>
      </g>
     </g>
     <g id="text_14">
      <!-- 1200 -->
      <g style="fill: #262626" transform="translate(20.031875 93.586966)scale(0.11 -0.11)">
       <use xlink:href="#ArialMT-31"/>
       <use xlink:href="#ArialMT-32" x="55.615234"/>
       <use xlink:href="#ArialMT-30" x="111.230469"/>
       <use xlink:href="#ArialMT-30" x="166.845703"/>
      </g>
     </g>
    </g>
    <g id="ytick_8">
     <g id="line2d_14">
      <g>
       <use xlink:href="#m04e22c250a" x="54" y="64.239137" style="fill: #262626; stroke: #262626; stroke-width: 1.25"/>
      </g>
     </g>
     <g id="text_15">
      <!-- 1400 -->
      <g style="fill: #262626" transform="translate(20.031875 68.175933)scale(0.11 -0.11)">
       <use xlink:href="#ArialMT-31"/>
       <use xlink:href="#ArialMT-34" x="55.615234"/>
       <use xlink:href="#ArialMT-30" x="111.230469"/>
       <use xlink:href="#ArialMT-30" x="166.845703"/>
      </g>
     </g>
    </g>
    <g id="ytick_9">
     <g id="line2d_15">
      <g>
       <use xlink:href="#m04e22c250a" x="54" y="38.828104" style="fill: #262626; stroke: #262626; stroke-width: 1.25"/>
      </g>
     </g>
     <g id="text_16">
      <!-- 1600 -->
      <g style="fill: #262626" transform="translate(20.031875 42.764901)scale(0.11 -0.11)">
       <use xlink:href="#ArialMT-31"/>
       <use xlink:href="#ArialMT-36" x="55.615234"/>
       <use xlink:href="#ArialMT-30" x="111.230469"/>
       <use xlink:href="#ArialMT-30" x="166.845703"/>
      </g>
     </g>
    </g>
   </g>
   <g id="line2d_16">
    <path d="M 54 241.678397 
L 128.842331 241.786324 
L 149.543401 241.807315 
L 157.505351 241.668578 
L 165.467301 241.129902 
L 167.059691 241.418662 
L 168.652081 240.30754 
L 170.244471 241.030722 
L 171.836861 240.459658 
L 173.429251 240.12035 
L 175.021641 241.04185 
L 176.614031 240.373502 
L 178.206421 239.06682 
L 179.798811 240.200187 
L 181.391201 240.500415 
L 182.983591 237.313499 
L 184.575981 237.589997 
L 186.168371 238.24452 
L 187.760761 237.525529 
L 189.353151 238.544874 
L 190.945541 237.754378 
L 192.537931 239.864511 
L 194.130321 237.896025 
L 195.722711 235.531762 
L 197.315101 237.41199 
L 198.907491 235.025517 
L 200.499881 236.280062 
L 202.092271 230.462468 
L 203.684661 228.169245 
L 205.277051 236.219732 
L 206.869441 235.836009 
L 208.461831 238.909672 
L 210.054221 236.136063 
L 211.646611 238.944053 
L 213.239001 233.285891 
L 214.831391 236.498525 
L 216.423781 234.235136 
L 218.016171 234.821132 
L 219.608561 230.495347 
L 221.200951 236.017706 
L 222.793341 231.680501 
L 224.385731 236.484115 
L 225.978121 237.175281 
L 227.570511 239.042606 
L 229.162901 241.974242 
L 230.755291 237.120396 
L 232.347681 241.045095 
L 233.940071 236.555561 
L 235.532461 237.656904 
L 237.124851 235.174889 
L 238.717241 239.827415 
L 241.902021 233.288731 
L 243.494411 241.062882 
L 245.086801 233.035227 
L 246.679191 238.825819 
L 248.271581 238.148996 
L 249.863971 240.215025 
L 251.456361 237.792198 
L 253.048751 237.431092 
L 254.641141 240.855812 
L 256.233532 235.874043 
L 257.825922 239.497301 
L 259.418312 239.805639 
L 261.010702 238.17659 
L 262.603092 240.259642 
L 264.195482 240.953137 
L 265.787872 241.325979 
L 267.380262 236.260789 
L 268.972652 238.391731 
L 270.565042 239.079565 
L 272.157432 238.351454 
L 273.749822 242.070837 
L 275.342212 241.144792 
L 276.934602 240.630625 
L 278.526992 241.948416 
L 280.119382 241.024214 
L 281.711772 179.715193 
L 283.304162 212.01806 
L 284.896552 232.606103 
L 286.488942 192.03231 
L 288.081332 214.084833 
L 289.673722 241.537223 
L 291.266112 223.383974 
L 292.858502 223.479482 
L 294.450892 241.036322 
L 296.043282 235.317158 
L 297.635672 237.058172 
L 299.228062 240.986306 
L 300.820452 233.570861 
L 302.412842 235.563985 
L 304.005232 239.133822 
L 305.597622 241.123627 
L 307.190012 237.689745 
L 308.782402 239.43591 
L 310.374792 239.681168 
L 311.967182 238.885795 
L 313.559572 240.481724 
L 315.151962 241.067252 
L 316.744352 240.608351 
L 318.336742 236.815137 
L 319.929132 241.300841 
L 321.521522 236.356604 
L 323.113912 237.13937 
L 324.706302 238.523198 
L 326.298692 239.291785 
L 327.891082 238.643481 
L 329.483472 237.343398 
L 331.075862 240.378326 
L 332.668252 238.257134 
L 334.260642 232.548158 
L 335.853032 241.284929 
L 339.037812 237.884122 
L 340.630202 240.092871 
L 342.222592 241.811462 
L 343.814982 239.511047 
L 345.407372 240.666107 
L 346.999762 241.618348 
L 348.592152 241.713859 
L 350.184542 240.281873 
L 351.776932 239.713867 
L 353.369322 241.958836 
L 354.961712 240.114783 
L 356.554102 239.546863 
L 358.146492 240.521535 
L 359.738882 241.67595 
L 361.331272 239.782325 
L 362.923662 237.599464 
L 364.516052 238.243565 
L 366.108442 240.048832 
L 367.700832 241.044793 
L 369.293222 240.24702 
L 370.885612 238.479668 
L 372.478002 240.543803 
L 374.070392 240.470225 
L 375.662782 239.683789 
L 377.255172 239.563201 
L 378.847562 240.287554 
L 382.032342 238.950125 
L 383.624732 241.491617 
L 385.217122 240.747493 
L 386.809512 241.445185 
L 388.401902 238.979875 
L 389.994293 240.448356 
L 391.586683 237.813265 
L 393.179073 240.46224 
L 394.771463 241.222771 
L 396.363853 239.373831 
L 397.956243 240.570818 
L 399.548633 239.204014 
L 401.141023 237.690394 
L 402.733413 240.401425 
L 404.325803 240.763831 
L 405.918193 240.897136 
L 407.510583 240.221293 
L 409.102973 239.672788 
L 410.695363 239.734649 
L 412.287753 240.508361 
L 413.880143 239.138746 
L 415.472533 241.890025 
L 417.064923 240.541638 
L 418.657313 238.457279 
L 420.249703 239.62958 
L 421.842093 240.130945 
L 423.434483 242.111418 
L 425.026873 241.078719 
L 426.619263 239.632994 
L 428.211653 239.271444 
L 429.804043 242.077569 
L 431.396433 241.37827 
L 433 241.920462 
M 433 242.115965 
L -1 242.115965 
L -1 242.115965 
" clip-path="url(#p79b373324d)" style="fill: none; stroke: #4c72b0; stroke-opacity: 0.3; stroke-width: 1.5; stroke-linecap: round"/>
   </g>
   <g id="line2d_17">
    <path d="M 54 241.595733 
L 125.657551 241.697763 
L 152.728181 241.755803 
L 159.097741 241.537154 
L 167.059691 241.07483 
L 168.652081 240.614212 
L 170.244471 240.473449 
L 171.836861 240.67638 
L 173.429251 240.369452 
L 175.021641 239.512017 
L 176.614031 239.34343 
L 178.206421 239.870683 
L 181.391201 238.410282 
L 182.983591 239.950626 
L 184.575981 238.78882 
L 186.168371 238.015851 
L 187.760761 238.43837 
L 189.353151 237.15958 
L 190.945541 235.00102 
L 194.130321 237.218372 
L 195.722711 234.06423 
L 197.315101 232.778158 
L 198.907491 236.711644 
L 200.499881 239.513039 
L 202.092271 231.735634 
L 203.684661 234.706058 
L 205.277051 236.637833 
L 206.869441 237.83029 
L 208.461831 237.629559 
L 210.054221 223.707027 
L 211.646611 234.924819 
L 213.239001 235.444541 
L 214.831391 235.385798 
L 216.423781 238.437029 
L 218.016171 234.698574 
L 219.608561 238.848269 
L 221.200951 239.779119 
L 222.793341 233.917689 
L 224.385731 238.267114 
L 225.978121 229.181038 
L 227.570511 236.575481 
L 229.162901 238.114923 
L 230.755291 237.492257 
L 232.347681 237.187459 
L 233.940071 232.733995 
L 237.124851 233.011456 
L 238.717241 237.749334 
L 240.309631 230.350423 
L 241.902021 238.115448 
L 243.494411 240.518332 
L 245.086801 237.110037 
L 246.679191 238.954673 
L 248.271581 239.443159 
L 249.863971 238.208483 
L 251.456361 236.006802 
L 253.048751 235.743748 
L 254.641141 237.550638 
L 256.233532 234.170746 
L 257.825922 239.575862 
L 259.418312 237.043621 
L 261.010702 232.983992 
L 262.603092 238.253288 
L 264.195482 239.445673 
L 265.787872 236.995419 
L 268.972652 239.705691 
L 270.565042 237.641697 
L 272.157432 234.987286 
L 273.749822 241.85454 
L 275.342212 238.045588 
L 276.934602 239.736871 
L 278.526992 240.433159 
L 280.119382 241.459274 
L 281.711772 216.496406 
L 283.304162 216.317499 
L 284.896552 213.080371 
L 286.488942 226.202465 
L 288.081332 226.673881 
L 289.673722 234.416581 
L 291.266112 241.208216 
L 292.858502 232.451193 
L 294.450892 235.241058 
L 296.043282 241.137056 
L 297.635672 234.37932 
L 299.228062 231.140616 
L 300.820452 237.287157 
L 302.412842 241.75568 
L 304.005232 236.125395 
L 305.597622 240.023746 
L 307.190012 239.087921 
L 308.782402 238.32418 
L 310.374792 236.703704 
L 311.967182 234.701998 
L 313.559572 240.551833 
L 315.151962 238.237763 
L 316.744352 237.942598 
L 318.336742 241.349899 
L 319.929132 241.936597 
L 321.521522 238.623336 
L 323.113912 238.081683 
L 324.706302 234.538113 
L 326.298692 238.680232 
L 327.891082 241.39403 
L 331.075862 241.397506 
L 332.668252 239.981113 
L 334.260642 241.622639 
L 335.853032 241.33073 
L 337.445422 237.844813 
L 339.037812 237.547081 
L 340.630202 241.119898 
L 342.222592 239.524375 
L 343.814982 235.730925 
L 345.407372 234.997414 
L 346.999762 239.496424 
L 348.592152 238.039367 
L 350.184542 240.604273 
L 351.776932 240.859788 
L 353.369322 238.912825 
L 354.961712 237.766118 
L 356.554102 240.862706 
L 358.146492 241.317819 
L 359.738882 239.445617 
L 361.331272 240.659711 
L 362.923662 240.548782 
L 364.516052 239.315246 
L 366.108442 238.457733 
L 367.700832 240.303734 
L 369.293222 237.544049 
L 370.885612 236.289979 
L 372.478002 240.093138 
L 374.070392 241.039876 
L 375.662782 238.813323 
L 377.255172 241.337255 
L 378.847562 240.39222 
L 380.439952 239.990357 
L 382.032342 240.59342 
L 383.624732 237.74907 
L 385.217122 240.47756 
L 386.809512 240.224643 
L 388.401902 240.539566 
L 389.994293 241.157691 
L 391.586683 241.971746 
L 393.179073 241.592775 
L 394.771463 240.86393 
L 396.363853 241.540195 
L 399.548633 240.319272 
L 401.141023 241.517345 
L 402.733413 241.900873 
L 405.918193 239.237905 
L 407.510583 240.743786 
L 409.102973 241.265983 
L 410.695363 239.399626 
L 412.287753 239.384329 
L 413.880143 240.51143 
L 417.064923 240.568836 
L 418.657313 240.839335 
L 420.249703 240.196678 
L 421.842093 239.155406 
L 423.434483 240.221144 
L 425.026873 241.707445 
L 426.619263 239.149185 
L 428.211653 242.085941 
L 429.804043 238.864573 
L 431.396433 240.461763 
L 433 241.357469 
M 433 242.115938 
L -1 242.115938 
L -1 242.115938 
" clip-path="url(#p79b373324d)" style="fill: none; stroke: #dd8452; stroke-opacity: 0.3; stroke-width: 1.5; stroke-linecap: round"/>
   </g>
   <g id="line2d_18">
    <path d="M 54 242.116364 
L 433 242.116364 
M 433 242.116364 
L -1 242.116364 
L -1 242.116364 
" clip-path="url(#p79b373324d)" style="fill: none; stroke: #55a868; stroke-opacity: 0.3; stroke-width: 1.5; stroke-linecap: round"/>
   </g>
   <g id="line2d_19">
    <path d="M 54 241.690351 
L 128.842331 241.798456 
L 152.728181 241.818855 
L 159.097741 241.559296 
L 160.690131 241.583219 
L 163.874911 241.23116 
L 165.467301 241.071213 
L 167.059691 240.796398 
L 168.652081 240.405888 
L 170.244471 240.512994 
L 171.836861 240.219586 
L 173.429251 240.529526 
L 175.021641 240.706502 
L 176.614031 240.334151 
L 178.206421 239.294202 
L 179.798811 238.75977 
L 181.391201 240.389226 
L 182.983591 240.053416 
L 184.575981 238.393038 
L 186.168371 239.994504 
L 187.760761 239.474999 
L 189.353151 238.682041 
L 190.945541 238.146727 
L 192.537931 239.94111 
L 194.130321 236.191587 
L 195.722711 236.523733 
L 197.315101 237.331291 
L 198.907491 239.18561 
L 200.499881 239.699193 
L 202.092271 235.724234 
L 203.684661 240.255573 
L 205.277051 236.158305 
L 206.869441 239.077491 
L 208.461831 236.428312 
L 210.054221 237.874007 
L 211.646611 235.770705 
L 213.239001 233.145683 
L 214.831391 238.774223 
L 216.423781 231.264568 
L 218.016171 233.318206 
L 219.608561 236.071858 
L 221.200951 240.581681 
L 222.793341 230.083397 
L 224.385731 236.269802 
L 225.978121 237.630434 
L 227.570511 233.165995 
L 229.162901 233.196216 
L 230.755291 223.413279 
L 232.347681 239.973361 
L 233.940071 233.303406 
L 235.532461 237.448968 
L 238.717241 239.925551 
L 240.309631 237.226329 
L 241.902021 234.91123 
L 243.494411 237.653811 
L 245.086801 237.021258 
L 246.679191 238.907067 
L 248.271581 234.726702 
L 249.863971 238.43098 
L 251.456361 237.567815 
L 253.048751 240.573512 
L 254.641141 241.459708 
L 256.233532 241.120695 
L 257.825922 239.60116 
L 259.418312 235.017395 
L 261.010702 238.4127 
L 262.603092 235.575832 
L 264.195482 238.667701 
L 265.787872 240.850315 
L 267.380262 239.037833 
L 268.972652 241.606826 
L 270.565042 234.792213 
L 272.157432 241.609773 
L 273.749822 238.219434 
L 275.342212 233.979952 
L 276.934602 240.267451 
L 278.526992 242.063558 
L 280.119382 239.644405 
L 281.711772 148.039872 
L 283.304162 196.892026 
L 284.896552 193.914935 
L 286.488942 136.91684 
L 288.081332 193.379632 
L 289.673722 239.915994 
L 291.266112 214.510912 
L 292.858502 228.858636 
L 294.450892 236.15908 
L 296.043282 231.698076 
L 297.635672 235.91376 
L 299.228062 240.981313 
L 300.820452 239.753054 
L 302.412842 238.208008 
L 304.005232 239.034377 
L 305.597622 237.843896 
L 307.190012 236.432772 
L 308.782402 241.138724 
L 310.374792 239.945991 
L 311.967182 241.533337 
L 313.559572 239.682188 
L 315.151962 240.163539 
L 316.744352 240.99525 
L 318.336742 237.776943 
L 319.929132 236.337998 
L 321.521522 239.875437 
L 323.113912 235.934458 
L 324.706302 238.152559 
L 326.298692 239.783043 
L 327.891082 239.894886 
L 329.483472 237.127486 
L 331.075862 238.408341 
L 332.668252 239.841364 
L 334.260642 242.011212 
L 335.853032 238.402806 
L 337.445422 238.998467 
L 339.037812 238.456732 
L 340.630202 240.981581 
L 342.222592 238.435913 
L 343.814982 241.462316 
L 345.407372 238.504836 
L 346.999762 238.276636 
L 348.592152 240.353693 
L 350.184542 240.517219 
L 351.776932 239.875881 
L 353.369322 241.7371 
L 356.554102 239.40668 
L 358.146492 241.270945 
L 359.738882 240.714165 
L 361.331272 239.835384 
L 362.923662 241.227038 
L 364.516052 239.350734 
L 366.108442 238.07248 
L 367.700832 236.411919 
L 369.293222 242.08829 
L 370.885612 240.97836 
L 372.478002 239.714564 
L 374.070392 241.558005 
L 375.662782 239.867186 
L 377.255172 239.444955 
L 378.847562 236.904743 
L 380.439952 240.623062 
L 382.032342 237.673969 
L 383.624732 239.635995 
L 386.809512 241.69206 
L 388.401902 240.661326 
L 389.994293 240.834447 
L 391.586683 240.289606 
L 393.179073 240.491521 
L 394.771463 241.14393 
L 396.363853 240.001559 
L 397.956243 240.219568 
L 399.548633 240.793786 
L 401.141023 239.164286 
L 402.733413 240.167788 
L 404.325803 239.36216 
L 405.918193 240.283496 
L 407.510583 240.488601 
L 409.102973 241.031874 
L 410.695363 239.832888 
L 412.287753 241.947039 
L 413.880143 238.700928 
L 415.472533 241.365559 
L 417.064923 240.987208 
L 418.657313 242.101049 
L 420.249703 239.88231 
L 421.842093 240.470367 
L 425.026873 240.543139 
L 426.619263 240.212774 
L 428.211653 241.923572 
L 429.804043 240.817653 
L 433 241.878886 
M 433 242.115956 
L -1 242.115956 
L -1 242.115956 
" clip-path="url(#p79b373324d)" style="fill: none; stroke: #c44e52; stroke-opacity: 0.3; stroke-width: 1.5; stroke-linecap: round"/>
   </g>
   <g id="line2d_20">
    <path d="M 54 241.688435 
L 125.657551 241.798208 
L 151.135791 241.862506 
L 162.282521 241.429751 
L 163.874911 241.132758 
L 165.467301 241.11211 
L 167.059691 241.289349 
L 168.652081 240.539903 
L 170.244471 240.573384 
L 171.836861 240.308821 
L 173.429251 240.678049 
L 175.021641 240.657651 
L 176.614031 239.902573 
L 178.206421 239.483602 
L 179.798811 238.039084 
L 181.391201 239.760636 
L 182.983591 239.415053 
L 184.575981 237.556628 
L 186.168371 239.797185 
L 187.760761 238.480925 
L 189.353151 238.827766 
L 190.945541 233.918332 
L 192.537931 234.942501 
L 194.130321 236.562096 
L 195.722711 237.526781 
L 197.315101 236.684014 
L 198.907491 237.947996 
L 200.499881 237.894353 
L 202.092271 238.353003 
L 203.684661 237.3264 
L 205.277051 236.985987 
L 206.869441 239.010673 
L 208.461831 234.405535 
L 210.054221 235.270884 
L 211.646611 233.892375 
L 213.239001 230.696312 
L 214.831391 236.372854 
L 216.423781 230.350393 
L 218.016171 234.01683 
L 219.608561 238.366943 
L 221.200951 236.451653 
L 222.793341 230.708281 
L 224.385731 231.782983 
L 225.978121 234.247914 
L 227.570511 234.996635 
L 229.162901 235.10841 
L 230.755291 236.522356 
L 232.347681 239.185814 
L 233.940071 227.130714 
L 235.532461 230.858679 
L 237.124851 240.312415 
L 238.717241 236.130327 
L 240.309631 233.198314 
L 241.902021 235.478659 
L 243.494411 237.367384 
L 245.086801 238.833086 
L 246.679191 238.269795 
L 248.271581 235.561587 
L 249.863971 239.860091 
L 251.456361 235.993448 
L 253.048751 241.386864 
L 254.641141 233.989279 
L 256.233532 234.27849 
L 257.825922 239.147062 
L 259.418312 238.146446 
L 261.010702 235.94578 
L 262.603092 241.938908 
L 264.195482 236.994115 
L 265.787872 233.765263 
L 267.380262 238.157102 
L 268.972652 239.170515 
L 270.565042 235.882839 
L 272.157432 236.852263 
L 273.749822 233.962826 
L 275.342212 228.413722 
L 276.934602 231.241796 
L 278.526992 225.293021 
L 280.119382 215.843689 
L 281.711772 44.443636 
L 283.304162 169.750505 
L 284.896552 104.718889 
L 286.488942 148.781461 
L 288.081332 217.029669 
L 289.673722 238.901516 
L 291.266112 236.931663 
L 292.858502 226.230782 
L 294.450892 237.357294 
L 296.043282 237.282194 
L 297.635672 240.167455 
L 299.228062 239.223691 
L 300.820452 233.733724 
L 302.412842 241.262405 
L 304.005232 239.257836 
L 305.597622 240.821758 
L 307.190012 239.599544 
L 308.782402 239.850296 
L 310.374792 239.917098 
L 311.967182 238.46634 
L 313.559572 238.910194 
L 315.151962 240.137473 
L 316.744352 237.929027 
L 318.336742 241.409419 
L 319.929132 238.016148 
L 321.521522 241.503707 
L 323.113912 239.640285 
L 324.706302 240.539352 
L 326.298692 241.613934 
L 327.891082 241.066283 
L 329.483472 237.305297 
L 331.075862 239.59477 
L 332.668252 239.886975 
L 334.260642 241.77161 
L 335.853032 240.965554 
L 337.445422 239.028196 
L 339.037812 241.321186 
L 340.630202 239.274833 
L 342.222592 236.056598 
L 343.814982 240.902669 
L 345.407372 241.262146 
L 346.999762 239.08178 
L 348.592152 238.638826 
L 350.184542 240.422197 
L 351.776932 238.291916 
L 353.369322 238.144852 
L 354.961712 241.403994 
L 356.554102 241.245601 
L 358.146492 240.249254 
L 359.738882 238.314016 
L 361.331272 240.672031 
L 362.923662 240.155156 
L 364.516052 240.201684 
L 366.108442 238.047727 
L 367.700832 238.474771 
L 369.293222 240.445074 
L 370.885612 239.444276 
L 372.478002 240.977011 
L 374.070392 242.033212 
L 375.662782 242.066728 
L 377.255172 239.411668 
L 378.847562 237.477761 
L 380.439952 241.349689 
L 382.032342 238.994423 
L 383.624732 241.188212 
L 385.217122 238.270497 
L 386.809512 241.330402 
L 388.401902 240.62985 
L 389.994293 239.337972 
L 391.586683 241.698516 
L 393.179073 237.551356 
L 394.771463 240.682475 
L 396.363853 240.786923 
L 397.956243 240.374375 
L 399.548633 239.318482 
L 401.141023 241.073038 
L 402.733413 241.233417 
L 404.325803 241.908755 
L 405.918193 237.674057 
L 407.510583 240.852462 
L 409.102973 238.001267 
L 410.695363 241.544794 
L 412.287753 241.859999 
L 413.880143 241.36588 
L 415.472533 242.099772 
L 417.064923 242.10477 
L 418.657313 239.835926 
L 420.249703 241.854528 
L 421.842093 241.229382 
L 423.434483 241.0455 
L 425.026873 240.533894 
L 426.619263 240.297519 
L 429.804043 241.006805 
L 431.396433 241.042914 
L 433 241.580624 
M 433 242.115929 
L -1 242.115929 
L -1 242.115929 
" clip-path="url(#p79b373324d)" style="fill: none; stroke: #8172b3; stroke-opacity: 0.3; stroke-width: 1.5; stroke-linecap: round"/>
   </g>
   <g id="line2d_21">
    <path d="M 54 242.116364 
L 433 242.116364 
M 433 242.116364 
L -1 242.116364 
L -1 242.116364 
" clip-path="url(#p79b373324d)" style="fill: none; stroke: #937860; stroke-opacity: 0.3; stroke-width: 1.5; stroke-linecap: round"/>
   </g>
   <g id="line2d_22">
    <path d="M 54 241.624701 
L 124.065161 241.728876 
L 149.543401 241.798501 
L 157.505351 241.623507 
L 162.282521 241.133713 
L 165.467301 241.114793 
L 168.652081 240.346401 
L 170.244471 240.227415 
L 171.836861 240.612805 
L 173.429251 239.726452 
L 175.021641 240.03725 
L 176.614031 239.703709 
L 178.206421 238.647928 
L 179.798811 238.556162 
L 181.391201 238.195408 
L 184.575981 238.258965 
L 186.168371 236.825789 
L 187.760761 236.455958 
L 189.353151 237.617349 
L 190.945541 238.492157 
L 192.537931 233.952862 
L 194.130321 235.043832 
L 195.722711 238.009084 
L 197.315101 237.86571 
L 198.907491 236.542006 
L 200.499881 234.394904 
L 202.092271 233.499805 
L 203.684661 234.915333 
L 205.277051 232.906267 
L 206.869441 234.640595 
L 208.461831 233.476484 
L 210.054221 233.246006 
L 211.646611 237.818623 
L 213.239001 237.963496 
L 214.831391 235.829318 
L 216.423781 237.208262 
L 218.016171 237.16238 
L 219.608561 240.008043 
L 221.200951 235.541238 
L 222.793341 233.706984 
L 224.385731 237.92033 
L 225.978121 229.959121 
L 227.570511 240.069689 
L 229.162901 237.562427 
L 232.347681 235.390726 
L 233.940071 237.493022 
L 235.532461 235.763894 
L 237.124851 235.121519 
L 238.717241 236.70103 
L 240.309631 234.74725 
L 241.902021 228.363888 
L 243.494411 235.611304 
L 245.086801 235.764809 
L 246.679191 235.356007 
L 248.271581 235.345257 
L 249.863971 238.672583 
L 251.456361 236.725111 
L 253.048751 238.006447 
L 254.641141 235.288899 
L 256.233532 240.228339 
L 257.825922 234.034257 
L 259.418312 238.986867 
L 262.603092 235.907696 
L 264.195482 238.774133 
L 265.787872 240.577861 
L 267.380262 235.89749 
L 268.972652 239.234735 
L 270.565042 239.346984 
L 272.157432 237.411995 
L 273.749822 236.235227 
L 275.342212 238.28878 
L 276.934602 239.910546 
L 278.526992 239.574572 
L 280.119382 231.67156 
L 281.711772 234.511901 
L 283.304162 239.359612 
L 284.896552 232.008711 
L 286.488942 241.75117 
L 288.081332 241.876991 
L 289.673722 239.230311 
L 291.266112 240.653397 
L 292.858502 236.306518 
L 294.450892 238.126655 
L 296.043282 239.032249 
L 297.635672 237.848822 
L 299.228062 241.374447 
L 300.820452 240.273978 
L 302.412842 238.393962 
L 304.005232 237.912952 
L 305.597622 240.345958 
L 307.190012 239.940325 
L 308.782402 236.63753 
L 310.374792 239.600347 
L 311.967182 239.582902 
L 313.559572 237.999631 
L 315.151962 237.445251 
L 316.744352 239.710066 
L 318.336742 234.892396 
L 319.929132 237.540433 
L 321.521522 237.838674 
L 323.113912 238.704865 
L 327.891082 240.281693 
L 329.483472 240.622204 
L 331.075862 238.751083 
L 332.668252 241.321288 
L 334.260642 239.027998 
L 335.853032 239.250558 
L 337.445422 240.283052 
L 339.037812 240.761889 
L 340.630202 237.749288 
L 342.222592 240.897888 
L 343.814982 236.315761 
L 345.407372 238.071154 
L 346.999762 239.250392 
L 348.592152 239.448563 
L 350.184542 238.717874 
L 351.776932 239.561022 
L 353.369322 238.754204 
L 354.961712 240.741623 
L 358.146492 236.187222 
L 359.738882 240.076479 
L 361.331272 238.101404 
L 362.923662 240.637198 
L 364.516052 240.71741 
L 366.108442 240.050116 
L 367.700832 241.259235 
L 369.293222 235.567971 
L 370.885612 241.006905 
L 372.478002 239.302119 
L 374.070392 240.847265 
L 375.662782 237.57586 
L 377.255172 236.738932 
L 378.847562 239.819354 
L 380.439952 238.921931 
L 382.032342 240.219842 
L 383.624732 240.379608 
L 385.217122 239.630293 
L 386.809512 239.674088 
L 388.401902 238.470836 
L 389.994293 240.779407 
L 391.586683 241.080222 
L 393.179073 241.80728 
L 394.771463 240.288561 
L 396.363853 240.680813 
L 397.956243 240.044673 
L 399.548633 236.109277 
L 401.141023 239.32005 
L 402.733413 239.533535 
L 404.325803 237.288227 
L 405.918193 240.617765 
L 407.510583 240.970378 
L 409.102973 241.82544 
L 410.695363 238.342176 
L 412.287753 240.113591 
L 413.880143 240.074837 
L 415.472533 238.847755 
L 417.064923 241.904986 
L 418.657313 239.019252 
L 420.249703 241.300319 
L 421.842093 239.402575 
L 423.434483 238.976197 
L 425.026873 241.445159 
L 426.619263 239.496769 
L 428.211653 241.00291 
L 429.804043 241.835694 
L 431.396433 241.645739 
L 433 241.336826 
M 433 242.115974 
L -1 242.115974 
L -1 242.115974 
" clip-path="url(#p79b373324d)" style="fill: none; stroke: #da8bc3; stroke-opacity: 0.3; stroke-width: 1.5; stroke-linecap: round"/>
   </g>
   <g id="patch_3">
    <path d="M 54 252 
L 54 34.56 
" style="fill: none; stroke: #262626; stroke-width: 1.25; stroke-linejoin: miter; stroke-linecap: square"/>
   </g>
   <g id="patch_4">
    <path d="M 388.8 252 
L 388.8 34.56 
" style="fill: none; stroke: #262626; stroke-width: 1.25; stroke-linejoin: miter; stroke-linecap: square"/>
   </g>
   <g id="patch_5">
    <path d="M 54 252 
L 388.8 252 
" style="fill: none; stroke: #262626; stroke-width: 1.25; stroke-linejoin: miter; stroke-linecap: square"/>
   </g>
   <g id="patch_6">
    <path d="M 54 34.56 
L 388.8 34.56 
" style="fill: none; stroke: #262626; stroke-width: 1.25; stroke-linejoin: miter; stroke-linecap: square"/>
   </g>
   <g id="text_17">
    <!-- patient06_app01 - Power spectrum -->
    <g style="fill: #262626" transform="translate(128.0175 28.56)scale(0.12 -0.12)">
     <defs>
      <path id="ArialMT-70" d="M 422 -1272 
L 422 3319 
L 934 3319 
L 934 2888 
Q 1116 3141 1344 3267 
Q 1572 3394 1897 3394 
Q 2322 3394 2647 3175 
Q 2972 2956 3137 2557 
Q 3303 2159 3303 1684 
Q 3303 1175 3120 767 
Q 2938 359 2589 142 
Q 2241 -75 1856 -75 
Q 1575 -75 1351 44 
Q 1128 163 984 344 
L 984 -1272 
L 422 -1272 
z
M 931 1641 
Q 931 1000 1190 694 
Q 1450 388 1819 388 
Q 2194 388 2461 705 
Q 2728 1022 2728 1688 
Q 2728 2322 2467 2637 
Q 2206 2953 1844 2953 
Q 1484 2953 1207 2617 
Q 931 2281 931 1641 
z
" transform="scale(0.015625)"/>
      <path id="ArialMT-61" d="M 2588 409 
Q 2275 144 1986 34 
Q 1697 -75 1366 -75 
Q 819 -75 525 192 
Q 231 459 231 875 
Q 231 1119 342 1320 
Q 453 1522 633 1644 
Q 813 1766 1038 1828 
Q 1203 1872 1538 1913 
Q 2219 1994 2541 2106 
Q 2544 2222 2544 2253 
Q 2544 2597 2384 2738 
Q 2169 2928 1744 2928 
Q 1347 2928 1158 2789 
Q 969 2650 878 2297 
L 328 2372 
Q 403 2725 575 2942 
Q 747 3159 1072 3276 
Q 1397 3394 1825 3394 
Q 2250 3394 2515 3294 
Q 2781 3194 2906 3042 
Q 3031 2891 3081 2659 
Q 3109 2516 3109 2141 
L 3109 1391 
Q 3109 606 3145 398 
Q 3181 191 3288 0 
L 2700 0 
Q 2613 175 2588 409 
z
M 2541 1666 
Q 2234 1541 1622 1453 
Q 1275 1403 1131 1340 
Q 988 1278 909 1158 
Q 831 1038 831 891 
Q 831 666 1001 516 
Q 1172 366 1500 366 
Q 1825 366 2078 508 
Q 2331 650 2450 897 
Q 2541 1088 2541 1459 
L 2541 1666 
z
" transform="scale(0.015625)"/>
      <path id="ArialMT-74" d="M 1650 503 
L 1731 6 
Q 1494 -44 1306 -44 
Q 1000 -44 831 53 
Q 663 150 594 308 
Q 525 466 525 972 
L 525 2881 
L 113 2881 
L 113 3319 
L 525 3319 
L 525 4141 
L 1084 4478 
L 1084 3319 
L 1650 3319 
L 1650 2881 
L 1084 2881 
L 1084 941 
Q 1084 700 1114 631 
Q 1144 563 1211 522 
Q 1278 481 1403 481 
Q 1497 481 1650 503 
z
" transform="scale(0.015625)"/>
      <path id="ArialMT-69" d="M 425 3934 
L 425 4581 
L 988 4581 
L 988 3934 
L 425 3934 
z
M 425 0 
L 425 3319 
L 988 3319 
L 988 0 
L 425 0 
z
" transform="scale(0.015625)"/>
      <path id="ArialMT-5f" d="M -97 -1272 
L -97 -866 
L 3631 -866 
L 3631 -1272 
L -97 -1272 
z
" transform="scale(0.015625)"/>
      <path id="ArialMT-2d" d="M 203 1375 
L 203 1941 
L 1931 1941 
L 1931 1375 
L 203 1375 
z
" transform="scale(0.015625)"/>
      <path id="ArialMT-50" d="M 494 0 
L 494 4581 
L 2222 4581 
Q 2678 4581 2919 4538 
Q 3256 4481 3484 4323 
Q 3713 4166 3852 3881 
Q 3991 3597 3991 3256 
Q 3991 2672 3619 2267 
Q 3247 1863 2275 1863 
L 1100 1863 
L 1100 0 
L 494 0 
z
M 1100 2403 
L 2284 2403 
Q 2872 2403 3119 2622 
Q 3366 2841 3366 3238 
Q 3366 3525 3220 3729 
Q 3075 3934 2838 4000 
Q 2684 4041 2272 4041 
L 1100 4041 
L 1100 2403 
z
" transform="scale(0.015625)"/>
      <path id="ArialMT-6f" d="M 213 1659 
Q 213 2581 725 3025 
Q 1153 3394 1769 3394 
Q 2453 3394 2887 2945 
Q 3322 2497 3322 1706 
Q 3322 1066 3130 698 
Q 2938 331 2570 128 
Q 2203 -75 1769 -75 
Q 1072 -75 642 372 
Q 213 819 213 1659 
z
M 791 1659 
Q 791 1022 1069 705 
Q 1347 388 1769 388 
Q 2188 388 2466 706 
Q 2744 1025 2744 1678 
Q 2744 2294 2464 2611 
Q 2184 2928 1769 2928 
Q 1347 2928 1069 2612 
Q 791 2297 791 1659 
z
" transform="scale(0.015625)"/>
      <path id="ArialMT-77" d="M 1034 0 
L 19 3319 
L 600 3319 
L 1128 1403 
L 1325 691 
Q 1338 744 1497 1375 
L 2025 3319 
L 2603 3319 
L 3100 1394 
L 3266 759 
L 3456 1400 
L 4025 3319 
L 4572 3319 
L 3534 0 
L 2950 0 
L 2422 1988 
L 2294 2553 
L 1622 0 
L 1034 0 
z
" transform="scale(0.015625)"/>
      <path id="ArialMT-73" d="M 197 991 
L 753 1078 
Q 800 744 1014 566 
Q 1228 388 1613 388 
Q 2000 388 2187 545 
Q 2375 703 2375 916 
Q 2375 1106 2209 1216 
Q 2094 1291 1634 1406 
Q 1016 1563 777 1677 
Q 538 1791 414 1992 
Q 291 2194 291 2438 
Q 291 2659 392 2848 
Q 494 3038 669 3163 
Q 800 3259 1026 3326 
Q 1253 3394 1513 3394 
Q 1903 3394 2198 3281 
Q 2494 3169 2634 2976 
Q 2775 2784 2828 2463 
L 2278 2388 
Q 2241 2644 2061 2787 
Q 1881 2931 1553 2931 
Q 1166 2931 1000 2803 
Q 834 2675 834 2503 
Q 834 2394 903 2306 
Q 972 2216 1119 2156 
Q 1203 2125 1616 2013 
Q 2213 1853 2448 1751 
Q 2684 1650 2818 1456 
Q 2953 1263 2953 975 
Q 2953 694 2789 445 
Q 2625 197 2315 61 
Q 2006 -75 1616 -75 
Q 969 -75 630 194 
Q 291 463 197 991 
z
" transform="scale(0.015625)"/>
      <path id="ArialMT-6d" d="M 422 0 
L 422 3319 
L 925 3319 
L 925 2853 
Q 1081 3097 1340 3245 
Q 1600 3394 1931 3394 
Q 2300 3394 2536 3241 
Q 2772 3088 2869 2813 
Q 3263 3394 3894 3394 
Q 4388 3394 4653 3120 
Q 4919 2847 4919 2278 
L 4919 0 
L 4359 0 
L 4359 2091 
Q 4359 2428 4304 2576 
Q 4250 2725 4106 2815 
Q 3963 2906 3769 2906 
Q 3419 2906 3187 2673 
Q 2956 2441 2956 1928 
L 2956 0 
L 2394 0 
L 2394 2156 
Q 2394 2531 2256 2718 
Q 2119 2906 1806 2906 
Q 1569 2906 1367 2781 
Q 1166 2656 1075 2415 
Q 984 2175 984 1722 
L 984 0 
L 422 0 
z
" transform="scale(0.015625)"/>
     </defs>
     <use xlink:href="#ArialMT-70"/>
     <use xlink:href="#ArialMT-61" x="55.615234"/>
     <use xlink:href="#ArialMT-74" x="111.230469"/>
     <use xlink:href="#ArialMT-69" x="139.013672"/>
     <use xlink:href="#ArialMT-65" x="161.230469"/>
     <use xlink:href="#ArialMT-6e" x="216.845703"/>
     <use xlink:href="#ArialMT-74" x="272.460938"/>
     <use xlink:href="#ArialMT-30" x="300.244141"/>
     <use xlink:href="#ArialMT-36" x="355.859375"/>
     <use xlink:href="#ArialMT-5f" x="411.474609"/>
     <use xlink:href="#ArialMT-61" x="467.089844"/>
     <use xlink:href="#ArialMT-70" x="522.705078"/>
     <use xlink:href="#ArialMT-70" x="578.320312"/>
     <use xlink:href="#ArialMT-30" x="633.935547"/>
     <use xlink:href="#ArialMT-31" x="689.550781"/>
     <use xlink:href="#ArialMT-20" x="745.166016"/>
     <use xlink:href="#ArialMT-2d" x="772.949219"/>
     <use xlink:href="#ArialMT-20" x="806.25"/>
     <use xlink:href="#ArialMT-50" x="834.033203"/>
     <use xlink:href="#ArialMT-6f" x="900.732422"/>
     <use xlink:href="#ArialMT-77" x="956.347656"/>
     <use xlink:href="#ArialMT-65" x="1028.564453"/>
     <use xlink:href="#ArialMT-72" x="1084.179688"/>
     <use xlink:href="#ArialMT-20" x="1117.480469"/>
     <use xlink:href="#ArialMT-73" x="1145.263672"/>
     <use xlink:href="#ArialMT-70" x="1195.263672"/>
     <use xlink:href="#ArialMT-65" x="1250.878906"/>
     <use xlink:href="#ArialMT-63" x="1306.494141"/>
     <use xlink:href="#ArialMT-74" x="1356.494141"/>
     <use xlink:href="#ArialMT-72" x="1384.277344"/>
     <use xlink:href="#ArialMT-75" x="1417.578125"/>
     <use xlink:href="#ArialMT-6d" x="1473.193359"/>
    </g>
   </g>
   <g id="legend_1">
    <g id="patch_7">
     <path d="M 313.503281 152.278906 
L 381.1 152.278906 
Q 383.3 152.278906 383.3 150.078906 
L 383.3 42.26 
Q 383.3 40.06 381.1 40.06 
L 313.503281 40.06 
Q 311.303281 40.06 311.303281 42.26 
L 311.303281 150.078906 
Q 311.303281 152.278906 313.503281 152.278906 
z
" style="fill: #ffffff; opacity: 0.8; stroke: #cccccc; stroke-linejoin: miter"/>
    </g>
    <g id="line2d_23">
     <path d="M 315.703281 48.483594 
L 326.703281 48.483594 
L 337.703281 48.483594 
" style="fill: none; stroke: #4c72b0; stroke-opacity: 0.3; stroke-width: 1.5; stroke-linecap: round"/>
    </g>
    <g id="text_18">
     <!-- IMU9 -->
     <g style="fill: #262626" transform="translate(346.503281 52.333594)scale(0.11 -0.11)">
      <defs>
       <path id="ArialMT-49" d="M 597 0 
L 597 4581 
L 1203 4581 
L 1203 0 
L 597 0 
z
" transform="scale(0.015625)"/>
       <path id="ArialMT-4d" d="M 475 0 
L 475 4581 
L 1388 4581 
L 2472 1338 
Q 2622 884 2691 659 
Q 2769 909 2934 1394 
L 4031 4581 
L 4847 4581 
L 4847 0 
L 4263 0 
L 4263 3834 
L 2931 0 
L 2384 0 
L 1059 3900 
L 1059 0 
L 475 0 
z
" transform="scale(0.015625)"/>
       <path id="ArialMT-55" d="M 3500 4581 
L 4106 4581 
L 4106 1934 
Q 4106 1244 3950 837 
Q 3794 431 3386 176 
Q 2978 -78 2316 -78 
Q 1672 -78 1262 144 
Q 853 366 678 786 
Q 503 1206 503 1934 
L 503 4581 
L 1109 4581 
L 1109 1938 
Q 1109 1341 1220 1058 
Q 1331 775 1601 622 
Q 1872 469 2263 469 
Q 2931 469 3215 772 
Q 3500 1075 3500 1938 
L 3500 4581 
z
" transform="scale(0.015625)"/>
       <path id="ArialMT-39" d="M 350 1059 
L 891 1109 
Q 959 728 1153 556 
Q 1347 384 1650 384 
Q 1909 384 2104 503 
Q 2300 622 2425 820 
Q 2550 1019 2634 1356 
Q 2719 1694 2719 2044 
Q 2719 2081 2716 2156 
Q 2547 1888 2255 1720 
Q 1963 1553 1622 1553 
Q 1053 1553 659 1965 
Q 266 2378 266 3053 
Q 266 3750 677 4175 
Q 1088 4600 1706 4600 
Q 2153 4600 2523 4359 
Q 2894 4119 3086 3673 
Q 3278 3228 3278 2384 
Q 3278 1506 3087 986 
Q 2897 466 2520 194 
Q 2144 -78 1638 -78 
Q 1100 -78 759 220 
Q 419 519 350 1059 
z
M 2653 3081 
Q 2653 3566 2395 3850 
Q 2138 4134 1775 4134 
Q 1400 4134 1122 3828 
Q 844 3522 844 3034 
Q 844 2597 1108 2323 
Q 1372 2050 1759 2050 
Q 2150 2050 2401 2323 
Q 2653 2597 2653 3081 
z
" transform="scale(0.015625)"/>
      </defs>
      <use xlink:href="#ArialMT-49"/>
      <use xlink:href="#ArialMT-4d" x="27.783203"/>
      <use xlink:href="#ArialMT-55" x="111.083984"/>
      <use xlink:href="#ArialMT-39" x="183.300781"/>
     </g>
    </g>
    <g id="line2d_24">
     <path d="M 315.703281 64.043438 
L 326.703281 64.043438 
L 337.703281 64.043438 
" style="fill: none; stroke: #dd8452; stroke-opacity: 0.3; stroke-width: 1.5; stroke-linecap: round"/>
    </g>
    <g id="text_19">
     <!-- IMU10 -->
     <g style="fill: #262626" transform="translate(346.503281 67.893438)scale(0.11 -0.11)">
      <use xlink:href="#ArialMT-49"/>
      <use xlink:href="#ArialMT-4d" x="27.783203"/>
      <use xlink:href="#ArialMT-55" x="111.083984"/>
      <use xlink:href="#ArialMT-31" x="183.300781"/>
      <use xlink:href="#ArialMT-30" x="238.916016"/>
     </g>
    </g>
    <g id="line2d_25">
     <path d="M 315.703281 79.603281 
L 326.703281 79.603281 
L 337.703281 79.603281 
" style="fill: none; stroke: #55a868; stroke-opacity: 0.3; stroke-width: 1.5; stroke-linecap: round"/>
    </g>
    <g id="text_20">
     <!-- IMU11 -->
     <g style="fill: #262626" transform="translate(346.503281 83.453281)scale(0.11 -0.11)">
      <use xlink:href="#ArialMT-49"/>
      <use xlink:href="#ArialMT-4d" x="27.783203"/>
      <use xlink:href="#ArialMT-55" x="111.083984"/>
      <use xlink:href="#ArialMT-31" x="183.300781"/>
      <use xlink:href="#ArialMT-31" x="231.541016"/>
     </g>
    </g>
    <g id="line2d_26">
     <path d="M 315.703281 95.163125 
L 326.703281 95.163125 
L 337.703281 95.163125 
" style="fill: none; stroke: #c44e52; stroke-opacity: 0.3; stroke-width: 1.5; stroke-linecap: round"/>
    </g>
    <g id="text_21">
     <!-- IMU12 -->
     <g style="fill: #262626" transform="translate(346.503281 99.013125)scale(0.11 -0.11)">
      <use xlink:href="#ArialMT-49"/>
      <use xlink:href="#ArialMT-4d" x="27.783203"/>
      <use xlink:href="#ArialMT-55" x="111.083984"/>
      <use xlink:href="#ArialMT-31" x="183.300781"/>
      <use xlink:href="#ArialMT-32" x="238.916016"/>
     </g>
    </g>
    <g id="line2d_27">
     <path d="M 315.703281 110.722969 
L 326.703281 110.722969 
L 337.703281 110.722969 
" style="fill: none; stroke: #8172b3; stroke-opacity: 0.3; stroke-width: 1.5; stroke-linecap: round"/>
    </g>
    <g id="text_22">
     <!-- IMU13 -->
     <g style="fill: #262626" transform="translate(346.503281 114.572969)scale(0.11 -0.11)">
      <defs>
       <path id="ArialMT-33" d="M 269 1209 
L 831 1284 
Q 928 806 1161 595 
Q 1394 384 1728 384 
Q 2125 384 2398 659 
Q 2672 934 2672 1341 
Q 2672 1728 2419 1979 
Q 2166 2231 1775 2231 
Q 1616 2231 1378 2169 
L 1441 2663 
Q 1497 2656 1531 2656 
Q 1891 2656 2178 2843 
Q 2466 3031 2466 3422 
Q 2466 3731 2256 3934 
Q 2047 4138 1716 4138 
Q 1388 4138 1169 3931 
Q 950 3725 888 3313 
L 325 3413 
Q 428 3978 793 4289 
Q 1159 4600 1703 4600 
Q 2078 4600 2393 4439 
Q 2709 4278 2876 4000 
Q 3044 3722 3044 3409 
Q 3044 3113 2884 2869 
Q 2725 2625 2413 2481 
Q 2819 2388 3044 2092 
Q 3269 1797 3269 1353 
Q 3269 753 2831 336 
Q 2394 -81 1725 -81 
Q 1122 -81 723 278 
Q 325 638 269 1209 
z
" transform="scale(0.015625)"/>
      </defs>
      <use xlink:href="#ArialMT-49"/>
      <use xlink:href="#ArialMT-4d" x="27.783203"/>
      <use xlink:href="#ArialMT-55" x="111.083984"/>
      <use xlink:href="#ArialMT-31" x="183.300781"/>
      <use xlink:href="#ArialMT-33" x="238.916016"/>
     </g>
    </g>
    <g id="line2d_28">
     <path d="M 315.703281 126.282813 
L 326.703281 126.282813 
L 337.703281 126.282813 
" style="fill: none; stroke: #937860; stroke-opacity: 0.3; stroke-width: 1.5; stroke-linecap: round"/>
    </g>
    <g id="text_23">
     <!-- IMU14 -->
     <g style="fill: #262626" transform="translate(346.503281 130.132812)scale(0.11 -0.11)">
      <use xlink:href="#ArialMT-49"/>
      <use xlink:href="#ArialMT-4d" x="27.783203"/>
      <use xlink:href="#ArialMT-55" x="111.083984"/>
      <use xlink:href="#ArialMT-31" x="183.300781"/>
      <use xlink:href="#ArialMT-34" x="238.916016"/>
     </g>
    </g>
    <g id="line2d_29">
     <path d="M 315.703281 141.842656 
L 326.703281 141.842656 
L 337.703281 141.842656 
" style="fill: none; stroke: #da8bc3; stroke-opacity: 0.3; stroke-width: 1.5; stroke-linecap: round"/>
    </g>
    <g id="text_24">
     <!-- IMU15 -->
     <g style="fill: #262626" transform="translate(346.503281 145.692656)scale(0.11 -0.11)">
      <use xlink:href="#ArialMT-49"/>
      <use xlink:href="#ArialMT-4d" x="27.783203"/>
      <use xlink:href="#ArialMT-55" x="111.083984"/>
      <use xlink:href="#ArialMT-31" x="183.300781"/>
      <use xlink:href="#ArialMT-35" x="238.916016"/>
     </g>
    </g>
   </g>
  </g>
 </g>
 <defs>
  <clipPath id="p79b373324d">
   <rect x="54" y="34.56" width="334.8" height="217.44"/>
  </clipPath>
 </defs>
</svg>
