<?xml version="1.0" encoding="utf-8" standalone="no"?>
<!DOCTYPE svg PUBLIC "-//W3C//DTD SVG 1.1//EN"
  "http://www.w3.org/Graphics/SVG/1.1/DTD/svg11.dtd">
<svg xmlns:xlink="http://www.w3.org/1999/xlink" width="432pt" height="288pt" viewBox="0 0 432 288" xmlns="http://www.w3.org/2000/svg" version="1.1">
 <metadata>
  <rdf:RDF xmlns:dc="http://purl.org/dc/elements/1.1/" xmlns:cc="http://creativecommons.org/ns#" xmlns:rdf="http://www.w3.org/1999/02/22-rdf-syntax-ns#">
   <cc:Work>
    <dc:type rdf:resource="http://purl.org/dc/dcmitype/StillImage"/>
    <dc:date>2022-07-08T13:58:12.698117</dc:date>
    <dc:format>image/svg+xml</dc:format>
    <dc:creator>
     <cc:Agent>
      <dc:title>Matplotlib v3.5.1, https://matplotlib.org/</dc:title>
     </cc:Agent>
    </dc:creator>
   </cc:Work>
  </rdf:RDF>
 </metadata>
 <defs>
  <style type="text/css">*{stroke-linejoin: round; stroke-linecap: butt}</style>
 </defs>
 <g id="figure_1">
  <g id="patch_1">
   <path d="M 0 288 
L 432 288 
L 432 0 
L 0 0 
z
" style="fill: #ffffff"/>
  </g>
  <g id="axes_1">
   <g id="patch_2">
    <path d="M 54 252 
L 388.8 252 
L 388.8 34.56 
L 54 34.56 
z
" style="fill: #ffffff"/>
   </g>
   <g id="matplotlib.axis_1">
    <g id="xtick_1">
     <g id="line2d_1">
      <defs>
       <path id="mf510692eca" d="M 0 0 
L 0 6 
" style="stroke: #262626; stroke-width: 1.25"/>
      </defs>
      <g>
       <use xlink:href="#mf510692eca" x="54" y="252" style="fill: #262626; stroke: #262626; stroke-width: 1.25"/>
      </g>
     </g>
     <g id="text_1">
      <!-- 0 -->
      <g style="fill: #262626" transform="translate(50.941484 269.373594)scale(0.11 -0.11)">
       <defs>
        <path id="ArialMT-30" d="M 266 2259 
Q 266 3072 433 3567 
Q 600 4063 929 4331 
Q 1259 4600 1759 4600 
Q 2128 4600 2406 4451 
Q 2684 4303 2865 4023 
Q 3047 3744 3150 3342 
Q 3253 2941 3253 2259 
Q 3253 1453 3087 958 
Q 2922 463 2592 192 
Q 2263 -78 1759 -78 
Q 1097 -78 719 397 
Q 266 969 266 2259 
z
M 844 2259 
Q 844 1131 1108 757 
Q 1372 384 1759 384 
Q 2147 384 2411 759 
Q 2675 1134 2675 2259 
Q 2675 3391 2411 3762 
Q 2147 4134 1753 4134 
Q 1366 4134 1134 3806 
Q 844 3388 844 2259 
z
" transform="scale(0.015625)"/>
       </defs>
       <use xlink:href="#ArialMT-30"/>
      </g>
     </g>
    </g>
    <g id="xtick_2">
     <g id="line2d_2">
      <g>
       <use xlink:href="#mf510692eca" x="120.96" y="252" style="fill: #262626; stroke: #262626; stroke-width: 1.25"/>
      </g>
     </g>
     <g id="text_2">
      <!-- 5 -->
      <g style="fill: #262626" transform="translate(117.901484 269.373594)scale(0.11 -0.11)">
       <defs>
        <path id="ArialMT-35" d="M 266 1200 
L 856 1250 
Q 922 819 1161 601 
Q 1400 384 1738 384 
Q 2144 384 2425 690 
Q 2706 997 2706 1503 
Q 2706 1984 2436 2262 
Q 2166 2541 1728 2541 
Q 1456 2541 1237 2417 
Q 1019 2294 894 2097 
L 366 2166 
L 809 4519 
L 3088 4519 
L 3088 3981 
L 1259 3981 
L 1013 2750 
Q 1425 3038 1878 3038 
Q 2478 3038 2890 2622 
Q 3303 2206 3303 1553 
Q 3303 931 2941 478 
Q 2500 -78 1738 -78 
Q 1113 -78 717 272 
Q 322 622 266 1200 
z
" transform="scale(0.015625)"/>
       </defs>
       <use xlink:href="#ArialMT-35"/>
      </g>
     </g>
    </g>
    <g id="xtick_3">
     <g id="line2d_3">
      <g>
       <use xlink:href="#mf510692eca" x="187.92" y="252" style="fill: #262626; stroke: #262626; stroke-width: 1.25"/>
      </g>
     </g>
     <g id="text_3">
      <!-- 10 -->
      <g style="fill: #262626" transform="translate(181.802969 269.373594)scale(0.11 -0.11)">
       <defs>
        <path id="ArialMT-31" d="M 2384 0 
L 1822 0 
L 1822 3584 
Q 1619 3391 1289 3197 
Q 959 3003 697 2906 
L 697 3450 
Q 1169 3672 1522 3987 
Q 1875 4303 2022 4600 
L 2384 4600 
L 2384 0 
z
" transform="scale(0.015625)"/>
       </defs>
       <use xlink:href="#ArialMT-31"/>
       <use xlink:href="#ArialMT-30" x="55.615234"/>
      </g>
     </g>
    </g>
    <g id="xtick_4">
     <g id="line2d_4">
      <g>
       <use xlink:href="#mf510692eca" x="254.88" y="252" style="fill: #262626; stroke: #262626; stroke-width: 1.25"/>
      </g>
     </g>
     <g id="text_4">
      <!-- 15 -->
      <g style="fill: #262626" transform="translate(248.762969 269.373594)scale(0.11 -0.11)">
       <use xlink:href="#ArialMT-31"/>
       <use xlink:href="#ArialMT-35" x="55.615234"/>
      </g>
     </g>
    </g>
    <g id="xtick_5">
     <g id="line2d_5">
      <g>
       <use xlink:href="#mf510692eca" x="321.84" y="252" style="fill: #262626; stroke: #262626; stroke-width: 1.25"/>
      </g>
     </g>
     <g id="text_5">
      <!-- 20 -->
      <g style="fill: #262626" transform="translate(315.722969 269.373594)scale(0.11 -0.11)">
       <defs>
        <path id="ArialMT-32" d="M 3222 541 
L 3222 0 
L 194 0 
Q 188 203 259 391 
Q 375 700 629 1000 
Q 884 1300 1366 1694 
Q 2113 2306 2375 2664 
Q 2638 3022 2638 3341 
Q 2638 3675 2398 3904 
Q 2159 4134 1775 4134 
Q 1369 4134 1125 3890 
Q 881 3647 878 3216 
L 300 3275 
Q 359 3922 746 4261 
Q 1134 4600 1788 4600 
Q 2447 4600 2831 4234 
Q 3216 3869 3216 3328 
Q 3216 3053 3103 2787 
Q 2991 2522 2730 2228 
Q 2469 1934 1863 1422 
Q 1356 997 1212 845 
Q 1069 694 975 541 
L 3222 541 
z
" transform="scale(0.015625)"/>
       </defs>
       <use xlink:href="#ArialMT-32"/>
       <use xlink:href="#ArialMT-30" x="55.615234"/>
      </g>
     </g>
    </g>
    <g id="xtick_6">
     <g id="line2d_6">
      <g>
       <use xlink:href="#mf510692eca" x="388.8" y="252" style="fill: #262626; stroke: #262626; stroke-width: 1.25"/>
      </g>
     </g>
     <g id="text_6">
      <!-- 25 -->
      <g style="fill: #262626" transform="translate(382.682969 269.373594)scale(0.11 -0.11)">
       <use xlink:href="#ArialMT-32"/>
       <use xlink:href="#ArialMT-35" x="55.615234"/>
      </g>
     </g>
    </g>
    <g id="text_7">
     <!-- Frequency (Hz) -->
     <g style="fill: #262626" transform="translate(180.059063 284.295469)scale(0.12 -0.12)">
      <defs>
       <path id="ArialMT-46" d="M 525 0 
L 525 4581 
L 3616 4581 
L 3616 4041 
L 1131 4041 
L 1131 2622 
L 3281 2622 
L 3281 2081 
L 1131 2081 
L 1131 0 
L 525 0 
z
" transform="scale(0.015625)"/>
       <path id="ArialMT-72" d="M 416 0 
L 416 3319 
L 922 3319 
L 922 2816 
Q 1116 3169 1280 3281 
Q 1444 3394 1641 3394 
Q 1925 3394 2219 3213 
L 2025 2691 
Q 1819 2813 1613 2813 
Q 1428 2813 1281 2702 
Q 1134 2591 1072 2394 
Q 978 2094 978 1738 
L 978 0 
L 416 0 
z
" transform="scale(0.015625)"/>
       <path id="ArialMT-65" d="M 2694 1069 
L 3275 997 
Q 3138 488 2766 206 
Q 2394 -75 1816 -75 
Q 1088 -75 661 373 
Q 234 822 234 1631 
Q 234 2469 665 2931 
Q 1097 3394 1784 3394 
Q 2450 3394 2872 2941 
Q 3294 2488 3294 1666 
Q 3294 1616 3291 1516 
L 816 1516 
Q 847 969 1125 678 
Q 1403 388 1819 388 
Q 2128 388 2347 550 
Q 2566 713 2694 1069 
z
M 847 1978 
L 2700 1978 
Q 2663 2397 2488 2606 
Q 2219 2931 1791 2931 
Q 1403 2931 1139 2672 
Q 875 2413 847 1978 
z
" transform="scale(0.015625)"/>
       <path id="ArialMT-71" d="M 2538 -1272 
L 2538 353 
Q 2406 169 2170 47 
Q 1934 -75 1669 -75 
Q 1078 -75 651 397 
Q 225 869 225 1691 
Q 225 2191 398 2587 
Q 572 2984 901 3189 
Q 1231 3394 1625 3394 
Q 2241 3394 2594 2875 
L 2594 3319 
L 3100 3319 
L 3100 -1272 
L 2538 -1272 
z
M 803 1669 
Q 803 1028 1072 708 
Q 1341 388 1716 388 
Q 2075 388 2334 692 
Q 2594 997 2594 1619 
Q 2594 2281 2320 2615 
Q 2047 2950 1678 2950 
Q 1313 2950 1058 2639 
Q 803 2328 803 1669 
z
" transform="scale(0.015625)"/>
       <path id="ArialMT-75" d="M 2597 0 
L 2597 488 
Q 2209 -75 1544 -75 
Q 1250 -75 995 37 
Q 741 150 617 320 
Q 494 491 444 738 
Q 409 903 409 1263 
L 409 3319 
L 972 3319 
L 972 1478 
Q 972 1038 1006 884 
Q 1059 663 1231 536 
Q 1403 409 1656 409 
Q 1909 409 2131 539 
Q 2353 669 2445 892 
Q 2538 1116 2538 1541 
L 2538 3319 
L 3100 3319 
L 3100 0 
L 2597 0 
z
" transform="scale(0.015625)"/>
       <path id="ArialMT-6e" d="M 422 0 
L 422 3319 
L 928 3319 
L 928 2847 
Q 1294 3394 1984 3394 
Q 2284 3394 2536 3286 
Q 2788 3178 2913 3003 
Q 3038 2828 3088 2588 
Q 3119 2431 3119 2041 
L 3119 0 
L 2556 0 
L 2556 2019 
Q 2556 2363 2490 2533 
Q 2425 2703 2258 2804 
Q 2091 2906 1866 2906 
Q 1506 2906 1245 2678 
Q 984 2450 984 1813 
L 984 0 
L 422 0 
z
" transform="scale(0.015625)"/>
       <path id="ArialMT-63" d="M 2588 1216 
L 3141 1144 
Q 3050 572 2676 248 
Q 2303 -75 1759 -75 
Q 1078 -75 664 370 
Q 250 816 250 1647 
Q 250 2184 428 2587 
Q 606 2991 970 3192 
Q 1334 3394 1763 3394 
Q 2303 3394 2647 3120 
Q 2991 2847 3088 2344 
L 2541 2259 
Q 2463 2594 2264 2762 
Q 2066 2931 1784 2931 
Q 1359 2931 1093 2626 
Q 828 2322 828 1663 
Q 828 994 1084 691 
Q 1341 388 1753 388 
Q 2084 388 2306 591 
Q 2528 794 2588 1216 
z
" transform="scale(0.015625)"/>
       <path id="ArialMT-79" d="M 397 -1278 
L 334 -750 
Q 519 -800 656 -800 
Q 844 -800 956 -737 
Q 1069 -675 1141 -563 
Q 1194 -478 1313 -144 
Q 1328 -97 1363 -6 
L 103 3319 
L 709 3319 
L 1400 1397 
Q 1534 1031 1641 628 
Q 1738 1016 1872 1384 
L 2581 3319 
L 3144 3319 
L 1881 -56 
Q 1678 -603 1566 -809 
Q 1416 -1088 1222 -1217 
Q 1028 -1347 759 -1347 
Q 597 -1347 397 -1278 
z
" transform="scale(0.015625)"/>
       <path id="ArialMT-20" transform="scale(0.015625)"/>
       <path id="ArialMT-28" d="M 1497 -1347 
Q 1031 -759 709 28 
Q 388 816 388 1659 
Q 388 2403 628 3084 
Q 909 3875 1497 4659 
L 1900 4659 
Q 1522 4009 1400 3731 
Q 1209 3300 1100 2831 
Q 966 2247 966 1656 
Q 966 153 1900 -1347 
L 1497 -1347 
z
" transform="scale(0.015625)"/>
       <path id="ArialMT-48" d="M 513 0 
L 513 4581 
L 1119 4581 
L 1119 2700 
L 3500 2700 
L 3500 4581 
L 4106 4581 
L 4106 0 
L 3500 0 
L 3500 2159 
L 1119 2159 
L 1119 0 
L 513 0 
z
" transform="scale(0.015625)"/>
       <path id="ArialMT-7a" d="M 125 0 
L 125 456 
L 2238 2881 
Q 1878 2863 1603 2863 
L 250 2863 
L 250 3319 
L 2963 3319 
L 2963 2947 
L 1166 841 
L 819 456 
Q 1197 484 1528 484 
L 3063 484 
L 3063 0 
L 125 0 
z
" transform="scale(0.015625)"/>
       <path id="ArialMT-29" d="M 791 -1347 
L 388 -1347 
Q 1322 153 1322 1656 
Q 1322 2244 1188 2822 
Q 1081 3291 891 3722 
Q 769 4003 388 4659 
L 791 4659 
Q 1378 3875 1659 3084 
Q 1900 2403 1900 1659 
Q 1900 816 1576 28 
Q 1253 -759 791 -1347 
z
" transform="scale(0.015625)"/>
      </defs>
      <use xlink:href="#ArialMT-46"/>
      <use xlink:href="#ArialMT-72" x="61.083984"/>
      <use xlink:href="#ArialMT-65" x="94.384766"/>
      <use xlink:href="#ArialMT-71" x="150"/>
      <use xlink:href="#ArialMT-75" x="205.615234"/>
      <use xlink:href="#ArialMT-65" x="261.230469"/>
      <use xlink:href="#ArialMT-6e" x="316.845703"/>
      <use xlink:href="#ArialMT-63" x="372.460938"/>
      <use xlink:href="#ArialMT-79" x="422.460938"/>
      <use xlink:href="#ArialMT-20" x="472.460938"/>
      <use xlink:href="#ArialMT-28" x="500.244141"/>
      <use xlink:href="#ArialMT-48" x="533.544922"/>
      <use xlink:href="#ArialMT-7a" x="605.761719"/>
      <use xlink:href="#ArialMT-29" x="655.761719"/>
     </g>
    </g>
   </g>
   <g id="matplotlib.axis_2">
    <g id="ytick_1">
     <g id="line2d_7">
      <defs>
       <path id="m8de8e1e5a9" d="M 0 0 
L -6 0 
" style="stroke: #262626; stroke-width: 1.25"/>
      </defs>
      <g>
       <use xlink:href="#m8de8e1e5a9" x="54" y="242.116364" style="fill: #262626; stroke: #262626; stroke-width: 1.25"/>
      </g>
     </g>
     <g id="text_8">
      <!-- 0 -->
      <g style="fill: #262626" transform="translate(38.382969 246.053161)scale(0.11 -0.11)">
       <use xlink:href="#ArialMT-30"/>
      </g>
     </g>
    </g>
    <g id="ytick_2">
     <g id="line2d_8">
      <g>
       <use xlink:href="#m8de8e1e5a9" x="54" y="205.7345" style="fill: #262626; stroke: #262626; stroke-width: 1.25"/>
      </g>
     </g>
     <g id="text_9">
      <!-- 500 -->
      <g style="fill: #262626" transform="translate(26.148906 209.671297)scale(0.11 -0.11)">
       <use xlink:href="#ArialMT-35"/>
       <use xlink:href="#ArialMT-30" x="55.615234"/>
       <use xlink:href="#ArialMT-30" x="111.230469"/>
      </g>
     </g>
    </g>
    <g id="ytick_3">
     <g id="line2d_9">
      <g>
       <use xlink:href="#m8de8e1e5a9" x="54" y="169.352637" style="fill: #262626; stroke: #262626; stroke-width: 1.25"/>
      </g>
     </g>
     <g id="text_10">
      <!-- 1000 -->
      <g style="fill: #262626" transform="translate(20.031875 173.289434)scale(0.11 -0.11)">
       <use xlink:href="#ArialMT-31"/>
       <use xlink:href="#ArialMT-30" x="55.615234"/>
       <use xlink:href="#ArialMT-30" x="111.230469"/>
       <use xlink:href="#ArialMT-30" x="166.845703"/>
      </g>
     </g>
    </g>
    <g id="ytick_4">
     <g id="line2d_10">
      <g>
       <use xlink:href="#m8de8e1e5a9" x="54" y="132.970774" style="fill: #262626; stroke: #262626; stroke-width: 1.25"/>
      </g>
     </g>
     <g id="text_11">
      <!-- 1500 -->
      <g style="fill: #262626" transform="translate(20.031875 136.907571)scale(0.11 -0.11)">
       <use xlink:href="#ArialMT-31"/>
       <use xlink:href="#ArialMT-35" x="55.615234"/>
       <use xlink:href="#ArialMT-30" x="111.230469"/>
       <use xlink:href="#ArialMT-30" x="166.845703"/>
      </g>
     </g>
    </g>
    <g id="ytick_5">
     <g id="line2d_11">
      <g>
       <use xlink:href="#m8de8e1e5a9" x="54" y="96.588911" style="fill: #262626; stroke: #262626; stroke-width: 1.25"/>
      </g>
     </g>
     <g id="text_12">
      <!-- 2000 -->
      <g style="fill: #262626" transform="translate(20.031875 100.525707)scale(0.11 -0.11)">
       <use xlink:href="#ArialMT-32"/>
       <use xlink:href="#ArialMT-30" x="55.615234"/>
       <use xlink:href="#ArialMT-30" x="111.230469"/>
       <use xlink:href="#ArialMT-30" x="166.845703"/>
      </g>
     </g>
    </g>
    <g id="ytick_6">
     <g id="line2d_12">
      <g>
       <use xlink:href="#m8de8e1e5a9" x="54" y="60.207047" style="fill: #262626; stroke: #262626; stroke-width: 1.25"/>
      </g>
     </g>
     <g id="text_13">
      <!-- 2500 -->
      <g style="fill: #262626" transform="translate(20.031875 64.143844)scale(0.11 -0.11)">
       <use xlink:href="#ArialMT-32"/>
       <use xlink:href="#ArialMT-35" x="55.615234"/>
       <use xlink:href="#ArialMT-30" x="111.230469"/>
       <use xlink:href="#ArialMT-30" x="166.845703"/>
      </g>
     </g>
    </g>
   </g>
   <g id="line2d_13">
    <path d="M 54 241.818049 
L 134.921872 241.924334 
L 150.878298 241.937366 
L 166.834723 241.49532 
L 169.114213 241.206197 
L 170.253957 241.231507 
L 171.393702 241.504852 
L 173.673191 240.92262 
L 174.812936 240.828962 
L 175.952681 240.584841 
L 177.092426 240.886523 
L 179.371915 241.223638 
L 180.51166 239.52876 
L 181.651404 239.961399 
L 182.791149 239.261283 
L 183.930894 239.329477 
L 185.070638 240.73777 
L 186.210383 240.58067 
L 187.350128 237.037951 
L 188.489872 236.803526 
L 189.629617 238.033387 
L 190.769362 236.466627 
L 191.909106 239.641508 
L 193.048851 236.687745 
L 194.188596 238.0966 
L 195.32834 240.160457 
L 196.468085 239.130997 
L 197.60783 239.068377 
L 198.747574 236.96017 
L 199.887319 236.908614 
L 201.027064 239.389666 
L 202.166809 236.792222 
L 203.306553 237.330684 
L 204.446298 239.28597 
L 205.586043 239.53919 
L 206.725787 237.387906 
L 207.865532 238.093219 
L 209.005277 236.877182 
L 210.145021 238.223286 
L 211.284766 238.06252 
L 212.424511 239.450371 
L 213.564255 239.659758 
L 214.704 239.037565 
L 215.843745 233.076902 
L 216.983489 239.380432 
L 218.123234 235.65805 
L 219.262979 239.126877 
L 220.402723 238.629439 
L 221.542468 235.494388 
L 222.682213 234.389549 
L 223.821957 239.687625 
L 226.101447 227.707443 
L 227.241191 235.823921 
L 228.380936 235.136975 
L 229.520681 236.71717 
L 230.660426 237.47172 
L 231.80017 240.733237 
L 232.939915 239.747601 
L 234.07966 241.451344 
L 235.219404 241.024353 
L 236.359149 239.065619 
L 237.498894 240.369591 
L 238.638638 237.837068 
L 239.778383 237.59358 
L 240.918128 240.315186 
L 242.057872 240.131643 
L 243.197617 239.274899 
L 244.337362 240.051302 
L 245.477106 238.677945 
L 246.616851 233.176733 
L 247.756596 238.671932 
L 248.89634 241.020673 
L 250.036085 239.705666 
L 251.17583 238.774158 
L 252.315574 237.59499 
L 253.455319 235.274368 
L 254.595064 234.692622 
L 255.734809 240.491954 
L 256.874553 241.523758 
L 258.014298 239.394451 
L 259.154043 239.241829 
L 260.293787 237.448896 
L 261.433532 239.101193 
L 262.573277 240.010693 
L 263.713021 235.73845 
L 264.852766 235.91502 
L 265.992511 233.373473 
L 267.132255 239.594375 
L 268.272 236.597534 
L 269.411745 237.16287 
L 270.551489 240.408168 
L 271.691234 239.555686 
L 272.830979 236.464717 
L 273.970723 236.316666 
L 275.110468 241.504984 
L 276.250213 239.282699 
L 277.389957 240.230658 
L 278.529702 241.928356 
L 279.669447 240.536704 
L 280.809191 239.692905 
L 281.948936 235.73134 
L 283.088681 202.455284 
L 284.228426 241.579103 
L 285.36817 234.212817 
L 286.507915 219.931515 
L 288.787404 229.238015 
L 289.927149 228.934527 
L 291.066894 239.898836 
L 292.206638 238.602152 
L 293.346383 238.206786 
L 294.486128 241.357734 
L 295.625872 239.247907 
L 296.765617 239.8513 
L 297.905362 241.254758 
L 299.045106 237.120082 
L 300.184851 241.041146 
L 301.324596 241.02792 
L 302.46434 233.557658 
L 303.604085 239.258782 
L 304.74383 240.686561 
L 305.883574 241.42534 
L 307.023319 241.837397 
L 308.163064 239.441709 
L 309.302809 239.84911 
L 310.442553 239.910399 
L 311.582298 240.552042 
L 312.722043 240.447016 
L 313.861787 239.085843 
L 315.001532 239.271673 
L 316.141277 240.753377 
L 317.281021 239.167888 
L 318.420766 241.260805 
L 319.560511 241.464932 
L 320.700255 240.307239 
L 321.84 237.5375 
L 322.979745 241.244006 
L 324.119489 241.622467 
L 325.259234 241.379054 
L 326.398979 241.871536 
L 327.538723 241.406184 
L 328.678468 239.505768 
L 329.818213 239.985511 
L 330.957957 241.979276 
L 332.097702 241.777417 
L 333.237447 241.913866 
L 335.516936 241.427072 
L 336.656681 241.800943 
L 337.796426 240.955964 
L 338.93617 239.114722 
L 340.075915 240.0605 
L 341.21566 239.259006 
L 342.355404 239.203125 
L 343.495149 241.539306 
L 344.634894 241.355166 
L 345.774638 240.829567 
L 346.914383 240.091258 
L 348.054128 241.982548 
L 349.193872 239.907194 
L 350.333617 241.468645 
L 351.473362 241.882194 
L 352.613106 239.564514 
L 353.752851 240.297185 
L 354.892596 241.582835 
L 356.03234 241.798027 
L 357.172085 240.824963 
L 358.31183 240.0236 
L 359.451574 241.486769 
L 360.591319 240.415209 
L 361.731064 241.669722 
L 362.870809 239.803804 
L 364.010553 239.646801 
L 365.150298 240.986019 
L 366.290043 241.849872 
L 368.569532 241.460709 
L 369.709277 241.923823 
L 370.849021 239.537197 
L 371.988766 240.82182 
L 373.128511 241.828344 
L 374.268255 241.7891 
L 375.408 240.270951 
L 376.547745 241.206811 
L 377.687489 241.885438 
L 378.827234 239.513914 
L 379.966979 241.121324 
L 381.106723 239.343093 
L 382.246468 240.75197 
L 383.386213 241.714712 
L 384.525957 239.966067 
L 385.665702 241.239287 
L 386.805447 241.993805 
L 387.945191 240.166864 
L 389.084936 239.806159 
L 390.224681 241.679082 
L 391.364426 242.110958 
L 392.50417 239.968205 
L 393.643915 241.078243 
L 394.78366 241.083853 
L 397.063149 240.415755 
L 398.202894 241.597229 
L 399.342638 241.641369 
L 400.482383 239.078269 
L 401.622128 241.63628 
L 402.761872 241.659799 
L 403.901617 239.234251 
L 406.181106 241.756647 
L 407.320851 242.026207 
L 408.460596 240.067335 
L 409.60034 240.296995 
L 410.740085 241.660519 
L 411.87983 240.379335 
L 413.019574 241.824047 
L 414.159319 241.092121 
L 415.299064 241.661197 
L 416.438809 241.616145 
L 417.578553 241.168166 
L 418.718298 241.429689 
L 419.858043 239.951682 
L 420.997787 241.151799 
L 422.137532 240.915032 
L 423.277277 240.892902 
L 424.417021 241.461224 
L 425.556766 240.629304 
L 426.696511 241.547525 
L 427.836255 242.061218 
L 428.976 240.249721 
L 430.115745 241.855015 
L 432.395234 241.21807 
L 433 240.834228 
M 433 242.116112 
L -1 242.116112 
L -1 242.116112 
" clip-path="url(#p5bcb28f519)" style="fill: none; stroke: #4c72b0; stroke-opacity: 0.3; stroke-width: 1.5; stroke-linecap: round"/>
   </g>
   <g id="line2d_14">
    <path d="M 54 241.859397 
L 159.996255 241.760502 
L 162.275745 241.653372 
L 164.555234 241.602873 
L 165.694979 241.570192 
L 169.114213 241.076674 
L 170.253957 240.982329 
L 171.393702 241.035708 
L 172.533447 240.785295 
L 174.812936 240.774856 
L 177.092426 239.942611 
L 178.23217 240.55899 
L 179.371915 240.387562 
L 180.51166 238.85334 
L 181.651404 240.482179 
L 182.791149 238.319634 
L 183.930894 240.858941 
L 185.070638 240.119477 
L 186.210383 240.443213 
L 187.350128 239.368957 
L 188.489872 239.509849 
L 189.629617 239.137911 
L 190.769362 239.501541 
L 191.909106 237.688424 
L 193.048851 238.478243 
L 194.188596 237.358057 
L 195.32834 240.045046 
L 196.468085 239.019182 
L 197.60783 239.288235 
L 198.747574 237.627013 
L 201.027064 237.649742 
L 202.166809 233.395362 
L 203.306553 238.568012 
L 204.446298 237.159027 
L 205.586043 236.65256 
L 206.725787 238.097848 
L 207.865532 239.125528 
L 209.005277 235.672135 
L 210.145021 238.126242 
L 211.284766 238.948217 
L 212.424511 236.014692 
L 213.564255 240.315423 
L 215.843745 236.31651 
L 216.983489 237.677073 
L 218.123234 239.231322 
L 219.262979 238.402858 
L 220.402723 240.67332 
L 221.542468 239.544175 
L 222.682213 240.922018 
L 223.821957 241.289696 
L 224.961702 236.333174 
L 226.101447 236.605891 
L 227.241191 236.471618 
L 228.380936 241.355372 
L 229.520681 238.515717 
L 230.660426 236.693111 
L 231.80017 239.672253 
L 232.939915 238.51425 
L 234.07966 240.435226 
L 235.219404 241.633557 
L 236.359149 239.72687 
L 237.498894 239.885343 
L 238.638638 241.59638 
L 240.918128 236.359308 
L 242.057872 239.886063 
L 243.197617 239.196774 
L 244.337362 236.851868 
L 245.477106 240.327045 
L 246.616851 240.199482 
L 247.756596 237.819989 
L 248.89634 238.485394 
L 250.036085 240.910807 
L 251.17583 239.338334 
L 252.315574 238.013382 
L 253.455319 239.799735 
L 254.595064 237.079668 
L 255.734809 234.686433 
L 256.874553 240.802503 
L 258.014298 239.785224 
L 259.154043 239.395304 
L 260.293787 239.423114 
L 261.433532 240.112386 
L 262.573277 235.795123 
L 263.713021 235.710506 
L 264.852766 237.954697 
L 265.992511 236.114529 
L 267.132255 240.590532 
L 268.272 236.762297 
L 269.411745 238.70027 
L 270.551489 239.385115 
L 271.691234 241.11374 
L 272.830979 241.613225 
L 273.970723 238.836881 
L 275.110468 238.463203 
L 276.250213 236.78438 
L 277.389957 238.109296 
L 278.529702 233.191479 
L 279.669447 236.929033 
L 280.809191 238.74859 
L 281.948936 233.970931 
L 283.088681 218.61387 
L 284.228426 236.452258 
L 285.36817 241.073561 
L 286.507915 236.395228 
L 287.64766 232.330567 
L 288.787404 235.144491 
L 289.927149 235.982671 
L 291.066894 240.291128 
L 292.206638 236.221814 
L 293.346383 239.781812 
L 294.486128 241.90117 
L 295.625872 240.96079 
L 296.765617 241.327568 
L 297.905362 241.419389 
L 300.184851 241.956513 
L 301.324596 239.040897 
L 302.46434 240.394497 
L 303.604085 235.984209 
L 304.74383 237.85821 
L 305.883574 238.450917 
L 307.023319 240.166035 
L 308.163064 237.893058 
L 309.302809 239.264755 
L 310.442553 241.142955 
L 311.582298 241.093985 
L 312.722043 241.417705 
L 313.861787 241.421282 
L 315.001532 240.05483 
L 316.141277 241.506129 
L 317.281021 241.665684 
L 318.420766 239.8152 
L 319.560511 240.890058 
L 320.700255 241.759367 
L 321.84 241.260769 
L 322.979745 241.393337 
L 324.119489 241.915935 
L 325.259234 241.090064 
L 326.398979 239.984846 
L 327.538723 241.062035 
L 328.678468 240.567048 
L 329.818213 239.37621 
L 330.957957 242.041556 
L 332.097702 239.009371 
L 333.237447 241.269104 
L 334.377191 241.190878 
L 335.516936 240.851204 
L 336.656681 239.573895 
L 337.796426 241.010284 
L 338.93617 240.900876 
L 340.075915 241.48042 
L 341.21566 239.213149 
L 342.355404 240.358763 
L 343.495149 241.721212 
L 344.634894 239.763446 
L 345.774638 241.436044 
L 346.914383 241.858659 
L 348.054128 242.100408 
L 349.193872 241.960391 
L 350.333617 240.773132 
L 351.473362 241.72713 
L 352.613106 241.139944 
L 353.752851 241.534747 
L 354.892596 242.103596 
L 356.03234 240.948697 
L 357.172085 240.408732 
L 358.31183 241.034217 
L 359.451574 240.514043 
L 360.591319 241.730468 
L 361.731064 240.249204 
L 362.870809 241.178232 
L 364.010553 240.610185 
L 365.150298 241.919636 
L 366.290043 242.110761 
L 367.429787 241.296728 
L 368.569532 242.109152 
L 369.709277 240.679962 
L 370.849021 240.463807 
L 371.988766 241.882839 
L 373.128511 241.085154 
L 374.268255 239.824813 
L 375.408 241.517136 
L 376.547745 241.64142 
L 377.687489 241.909731 
L 378.827234 241.598017 
L 379.966979 241.442686 
L 381.106723 241.58133 
L 382.246468 240.577267 
L 383.386213 241.664996 
L 384.525957 240.936753 
L 385.665702 240.386713 
L 386.805447 240.66035 
L 387.945191 239.67743 
L 389.084936 240.863719 
L 390.224681 241.276992 
L 391.364426 240.765584 
L 392.50417 241.23545 
L 393.643915 239.564551 
L 394.78366 241.120032 
L 395.923404 240.764841 
L 397.063149 238.538531 
L 398.202894 241.721978 
L 399.342638 240.520829 
L 400.482383 241.992434 
L 401.622128 240.21788 
L 402.761872 241.419674 
L 403.901617 241.707426 
L 405.041362 240.191591 
L 406.181106 240.851466 
L 407.320851 241.309631 
L 408.460596 240.832832 
L 409.60034 242.032357 
L 410.740085 240.623462 
L 411.87983 241.932761 
L 413.019574 241.109045 
L 414.159319 241.594938 
L 415.299064 241.524498 
L 416.438809 241.648688 
L 417.578553 240.027852 
L 418.718298 240.361302 
L 419.858043 242.080042 
L 420.997787 240.567169 
L 422.137532 241.874224 
L 423.277277 240.320018 
L 424.417021 239.755422 
L 425.556766 240.202051 
L 426.696511 238.744699 
L 427.836255 239.761304 
L 428.976 239.484222 
L 430.115745 241.679164 
L 431.255489 240.059837 
L 432.395234 241.275846 
L 433 241.60999 
M 433 242.116106 
L -1 242.116106 
L -1 242.116106 
" clip-path="url(#p5bcb28f519)" style="fill: none; stroke: #dd8452; stroke-opacity: 0.3; stroke-width: 1.5; stroke-linecap: round"/>
   </g>
   <g id="line2d_15">
    <path d="M 54 242.116364 
L 433 242.116364 
M 433 242.116364 
L -1 242.116364 
L -1 242.116364 
" clip-path="url(#p5bcb28f519)" style="fill: none; stroke: #55a868; stroke-opacity: 0.3; stroke-width: 1.5; stroke-linecap: round"/>
   </g>
   <g id="line2d_16">
    <path d="M 54 241.905907 
L 161.136 241.796355 
L 166.834723 241.555658 
L 167.974468 241.341814 
L 169.114213 241.564367 
L 172.533447 241.004425 
L 173.673191 241.460522 
L 175.952681 241.0347 
L 177.092426 240.403764 
L 178.23217 240.318059 
L 179.371915 241.139356 
L 180.51166 240.874467 
L 181.651404 240.410033 
L 182.791149 240.382381 
L 183.930894 240.225315 
L 185.070638 241.533054 
L 186.210383 240.548022 
L 187.350128 240.778708 
L 188.489872 240.080725 
L 189.629617 239.119877 
L 190.769362 239.645358 
L 191.909106 238.520867 
L 193.048851 240.449104 
L 194.188596 240.316397 
L 195.32834 240.019969 
L 196.468085 240.023587 
L 197.60783 239.736643 
L 198.747574 237.387891 
L 201.027064 234.348723 
L 202.166809 239.566811 
L 203.306553 241.065924 
L 204.446298 240.53776 
L 205.586043 237.839257 
L 206.725787 241.289316 
L 207.865532 240.456333 
L 209.005277 238.500859 
L 210.145021 236.947221 
L 211.284766 239.375356 
L 212.424511 240.196606 
L 213.564255 237.275311 
L 215.843745 239.289438 
L 216.983489 238.246824 
L 218.123234 239.585247 
L 219.262979 239.081696 
L 220.402723 240.88175 
L 221.542468 237.156829 
L 222.682213 236.521015 
L 223.821957 232.958701 
L 224.961702 238.812106 
L 226.101447 236.037692 
L 227.241191 235.943742 
L 228.380936 236.011811 
L 229.520681 239.76283 
L 230.660426 237.023503 
L 231.80017 237.765354 
L 232.939915 239.962582 
L 234.07966 235.888283 
L 235.219404 239.803335 
L 236.359149 241.368508 
L 237.498894 233.879523 
L 238.638638 240.175487 
L 240.918128 238.246356 
L 242.057872 237.564007 
L 243.197617 239.762147 
L 244.337362 237.987732 
L 245.477106 236.549099 
L 246.616851 239.476797 
L 247.756596 239.619298 
L 248.89634 240.519174 
L 250.036085 241.798694 
L 251.17583 241.852353 
L 252.315574 240.501413 
L 255.734809 241.203548 
L 256.874553 239.311301 
L 258.014298 241.337789 
L 259.154043 240.587942 
L 260.293787 239.566337 
L 261.433532 235.148619 
L 262.573277 237.158863 
L 263.713021 238.869813 
L 264.852766 238.774749 
L 265.992511 240.049695 
L 267.132255 237.997525 
L 268.272 239.699879 
L 269.411745 239.343962 
L 270.551489 240.761591 
L 271.691234 240.98511 
L 272.830979 241.350498 
L 273.970723 241.449088 
L 275.110468 242.051678 
L 276.250213 236.654309 
L 277.389957 241.8675 
L 278.529702 241.093779 
L 279.669447 241.195626 
L 280.809191 241.760661 
L 281.948936 213.604247 
L 283.088681 198.751296 
L 284.228426 241.807766 
L 285.36817 232.633633 
L 286.507915 218.705192 
L 287.64766 206.641203 
L 288.787404 221.92525 
L 289.927149 214.76213 
L 291.066894 235.709597 
L 292.206638 235.227427 
L 293.346383 238.387212 
L 294.486128 240.178354 
L 295.625872 238.225102 
L 296.765617 233.723536 
L 297.905362 240.834567 
L 299.045106 240.393904 
L 300.184851 238.299598 
L 301.324596 237.562122 
L 302.46434 238.535134 
L 303.604085 229.929458 
L 304.74383 240.168493 
L 305.883574 238.867608 
L 307.023319 238.125514 
L 308.163064 238.441346 
L 309.302809 238.323942 
L 310.442553 241.244623 
L 311.582298 240.367864 
L 312.722043 241.104162 
L 313.861787 241.519014 
L 315.001532 240.342285 
L 316.141277 240.47447 
L 317.281021 241.743441 
L 318.420766 242.102799 
L 319.560511 240.356944 
L 320.700255 239.125052 
L 321.84 241.295092 
L 322.979745 242.09665 
L 324.119489 240.331289 
L 325.259234 239.128434 
L 326.398979 237.269359 
L 327.538723 240.051507 
L 328.678468 239.550455 
L 329.818213 241.834385 
L 330.957957 238.438634 
L 332.097702 237.936254 
L 333.237447 240.580329 
L 334.377191 240.49765 
L 335.516936 239.534284 
L 336.656681 241.473337 
L 337.796426 240.706213 
L 338.93617 240.079719 
L 340.075915 241.226136 
L 341.21566 241.686273 
L 342.355404 241.829168 
L 343.495149 240.396694 
L 344.634894 240.299785 
L 345.774638 240.847161 
L 346.914383 239.549488 
L 348.054128 241.036077 
L 349.193872 242.01572 
L 350.333617 241.049424 
L 351.473362 240.520824 
L 352.613106 239.239669 
L 353.752851 241.591676 
L 354.892596 240.599063 
L 356.03234 240.750027 
L 357.172085 242.039981 
L 358.31183 239.746418 
L 359.451574 239.607105 
L 360.591319 236.720119 
L 361.731064 241.606233 
L 362.870809 238.835759 
L 365.150298 241.142662 
L 366.290043 240.32099 
L 367.429787 241.253075 
L 368.569532 239.532802 
L 369.709277 241.72758 
L 370.849021 242.113173 
L 371.988766 241.270652 
L 374.268255 241.528727 
L 375.408 240.615323 
L 376.547745 241.713756 
L 377.687489 240.888142 
L 378.827234 240.30112 
L 379.966979 241.390272 
L 381.106723 242.106281 
L 382.246468 241.787639 
L 383.386213 241.685151 
L 384.525957 240.919937 
L 385.665702 241.003113 
L 386.805447 240.635728 
L 387.945191 240.940058 
L 389.084936 238.621882 
L 390.224681 240.240946 
L 391.364426 241.018315 
L 392.50417 240.396216 
L 393.643915 240.983008 
L 394.78366 239.828891 
L 395.923404 241.467173 
L 397.063149 240.604336 
L 398.202894 241.663883 
L 399.342638 239.951238 
L 400.482383 241.111658 
L 401.622128 238.958925 
L 402.761872 241.711196 
L 403.901617 241.464043 
L 405.041362 240.256565 
L 406.181106 241.999928 
L 407.320851 241.156601 
L 408.460596 241.406414 
L 409.60034 240.881835 
L 410.740085 239.527923 
L 411.87983 242.019921 
L 413.019574 241.73712 
L 414.159319 242.055732 
L 415.299064 241.321301 
L 416.438809 241.786564 
L 417.578553 241.086458 
L 418.718298 241.624107 
L 419.858043 239.543806 
L 420.997787 241.276935 
L 422.137532 240.852776 
L 423.277277 240.653222 
L 424.417021 241.947646 
L 425.556766 241.298593 
L 426.696511 241.964593 
L 427.836255 241.933699 
L 430.115745 241.064271 
L 431.255489 238.725889 
L 432.395234 240.628477 
L 433 241.021009 
M 433 242.11614 
L -1 242.11614 
L -1 242.11614 
" clip-path="url(#p5bcb28f519)" style="fill: none; stroke: #c44e52; stroke-opacity: 0.3; stroke-width: 1.5; stroke-linecap: round"/>
   </g>
   <g id="line2d_17">
    <path d="M 54 241.815096 
L 157.716766 241.707792 
L 164.555234 241.493882 
L 165.694979 241.286581 
L 166.834723 241.368036 
L 170.253957 240.76782 
L 172.533447 240.811455 
L 173.673191 240.458413 
L 174.812936 240.992585 
L 177.092426 239.412537 
L 178.23217 239.544727 
L 179.371915 238.951715 
L 180.51166 238.955143 
L 181.651404 239.740327 
L 182.791149 239.24337 
L 183.930894 239.332781 
L 185.070638 239.662732 
L 186.210383 239.474095 
L 187.350128 238.766617 
L 189.629617 236.265558 
L 190.769362 240.576253 
L 191.909106 238.950574 
L 193.048851 237.815835 
L 194.188596 235.707147 
L 196.468085 239.442305 
L 197.60783 239.265923 
L 198.747574 235.45612 
L 199.887319 235.55693 
L 201.027064 235.082015 
L 202.166809 236.759018 
L 203.306553 237.643831 
L 204.446298 237.278936 
L 205.586043 238.791489 
L 206.725787 238.990638 
L 207.865532 236.787145 
L 209.005277 239.462362 
L 210.145021 236.980749 
L 211.284766 239.496123 
L 212.424511 237.797158 
L 213.564255 239.552817 
L 214.704 239.185806 
L 215.843745 235.900926 
L 216.983489 235.503936 
L 218.123234 239.745514 
L 219.262979 238.734904 
L 220.402723 240.244841 
L 221.542468 239.477159 
L 222.682213 237.909056 
L 223.821957 232.272276 
L 224.961702 238.325284 
L 226.101447 235.796813 
L 227.241191 240.229303 
L 228.380936 234.890534 
L 229.520681 236.038375 
L 230.660426 239.340334 
L 231.80017 236.88283 
L 232.939915 235.620711 
L 234.07966 239.06922 
L 235.219404 235.23744 
L 236.359149 235.262693 
L 237.498894 237.994246 
L 238.638638 240.218239 
L 239.778383 241.501774 
L 240.918128 238.982996 
L 242.057872 239.905075 
L 243.197617 238.03606 
L 244.337362 238.028915 
L 245.477106 240.580258 
L 246.616851 240.709584 
L 247.756596 242.080978 
L 248.89634 237.683752 
L 250.036085 239.643936 
L 251.17583 236.472219 
L 253.455319 239.007073 
L 254.595064 237.618133 
L 255.734809 236.833043 
L 256.874553 238.335431 
L 258.014298 238.034633 
L 259.154043 234.204354 
L 260.293787 237.326083 
L 261.433532 236.049496 
L 262.573277 238.555049 
L 263.713021 235.264843 
L 264.852766 235.95849 
L 265.992511 235.126101 
L 267.132255 235.009691 
L 268.272 231.321935 
L 269.411745 242.104911 
L 270.551489 241.998419 
L 271.691234 238.93313 
L 272.830979 241.10254 
L 273.970723 241.266469 
L 275.110468 241.911918 
L 276.250213 241.575646 
L 277.389957 241.040424 
L 278.529702 239.187519 
L 279.669447 239.55689 
L 280.809191 217.880229 
L 281.948936 55.387606 
L 283.088681 44.443636 
L 284.228426 219.710061 
L 285.36817 210.67436 
L 286.507915 184.630536 
L 287.64766 125.220026 
L 288.787404 204.036687 
L 289.927149 166.53896 
L 291.066894 227.705806 
L 292.206638 223.788934 
L 293.346383 237.893368 
L 294.486128 230.08239 
L 295.625872 238.349571 
L 296.765617 231.202621 
L 297.905362 238.26073 
L 299.045106 238.178866 
L 300.184851 236.918926 
L 301.324596 236.546243 
L 302.46434 239.660215 
L 303.604085 238.505602 
L 305.883574 241.805803 
L 307.023319 240.918687 
L 308.163064 242.0609 
L 309.302809 240.06962 
L 310.442553 240.8016 
L 311.582298 240.735699 
L 312.722043 236.887136 
L 313.861787 240.664396 
L 315.001532 239.470577 
L 316.141277 240.583356 
L 317.281021 241.474487 
L 318.420766 240.963077 
L 319.560511 241.75015 
L 320.700255 238.460911 
L 321.84 241.915522 
L 322.979745 238.437958 
L 325.259234 240.306004 
L 326.398979 241.712695 
L 327.538723 239.496081 
L 328.678468 240.087509 
L 329.818213 241.922381 
L 330.957957 239.242075 
L 333.237447 241.928104 
L 334.377191 241.806878 
L 335.516936 240.423144 
L 336.656681 241.861019 
L 337.796426 240.555852 
L 338.93617 240.420875 
L 341.21566 241.689437 
L 342.355404 241.338604 
L 343.495149 240.418669 
L 344.634894 241.561249 
L 345.774638 242.016636 
L 346.914383 240.314382 
L 348.054128 240.770703 
L 349.193872 241.54349 
L 350.333617 240.8569 
L 351.473362 240.772692 
L 352.613106 241.35102 
L 353.752851 240.103286 
L 354.892596 240.287797 
L 357.172085 240.908363 
L 358.31183 240.688686 
L 359.451574 240.249865 
L 360.591319 241.863589 
L 361.731064 241.629767 
L 362.870809 239.66104 
L 364.010553 241.812094 
L 365.150298 239.182835 
L 366.290043 241.057713 
L 367.429787 241.129029 
L 368.569532 240.18585 
L 369.709277 241.04538 
L 370.849021 241.649427 
L 371.988766 240.342376 
L 373.128511 241.318852 
L 374.268255 240.165661 
L 375.408 242.070353 
L 376.547745 241.138054 
L 377.687489 241.557832 
L 378.827234 239.900434 
L 379.966979 241.955272 
L 381.106723 241.740428 
L 382.246468 241.374032 
L 383.386213 240.349133 
L 384.525957 240.648406 
L 385.665702 241.718066 
L 386.805447 241.122167 
L 387.945191 241.328838 
L 389.084936 240.493267 
L 390.224681 241.270085 
L 391.364426 240.412499 
L 392.50417 240.336378 
L 393.643915 241.800388 
L 394.78366 240.733556 
L 395.923404 242.05255 
L 398.202894 241.12964 
L 399.342638 240.196275 
L 400.482383 241.696491 
L 402.761872 240.549726 
L 403.901617 240.837759 
L 405.041362 238.108216 
L 406.181106 241.999659 
L 407.320851 240.623695 
L 408.460596 240.449747 
L 409.60034 241.863884 
L 410.740085 240.567824 
L 411.87983 240.521532 
L 413.019574 241.548698 
L 415.299064 240.698299 
L 416.438809 239.61637 
L 417.578553 241.547022 
L 418.718298 241.282925 
L 419.858043 241.659011 
L 420.997787 241.52272 
L 422.137532 239.823819 
L 423.277277 241.727222 
L 424.417021 241.815535 
L 425.556766 241.33489 
L 426.696511 241.220723 
L 427.836255 239.409337 
L 428.976 241.790583 
L 432.395234 242.037226 
L 433 240.458068 
M 433 242.116138 
L -1 242.116138 
L -1 242.116138 
" clip-path="url(#p5bcb28f519)" style="fill: none; stroke: #8172b3; stroke-opacity: 0.3; stroke-width: 1.5; stroke-linecap: round"/>
   </g>
   <g id="line2d_18">
    <path d="M 54 242.116364 
L 433 242.116364 
M 433 242.116364 
L -1 242.116364 
L -1 242.116364 
" clip-path="url(#p5bcb28f519)" style="fill: none; stroke: #937860; stroke-opacity: 0.3; stroke-width: 1.5; stroke-linecap: round"/>
   </g>
   <g id="line2d_19">
    <path d="M 54 241.8453 
L 139.480851 241.954611 
L 155.437277 241.934524 
L 164.555234 241.685551 
L 165.694979 241.496847 
L 166.834723 241.464098 
L 167.974468 241.549487 
L 169.114213 241.15181 
L 170.253957 240.962497 
L 171.393702 241.162275 
L 172.533447 241.000359 
L 173.673191 240.966428 
L 174.812936 240.680663 
L 175.952681 240.766977 
L 177.092426 241.010565 
L 178.23217 240.46621 
L 179.371915 239.615137 
L 180.51166 240.239834 
L 181.651404 241.049442 
L 182.791149 239.962552 
L 183.930894 239.077697 
L 185.070638 240.090897 
L 186.210383 239.927877 
L 187.350128 237.75952 
L 188.489872 239.259879 
L 189.629617 237.92764 
L 190.769362 239.583619 
L 191.909106 238.15296 
L 193.048851 237.432973 
L 194.188596 238.493808 
L 195.32834 240.292503 
L 196.468085 239.32906 
L 197.60783 240.464275 
L 198.747574 240.857131 
L 199.887319 236.469518 
L 201.027064 239.527746 
L 202.166809 237.88022 
L 203.306553 240.129476 
L 204.446298 238.229199 
L 205.586043 239.035128 
L 206.725787 237.774391 
L 207.865532 240.459588 
L 209.005277 239.198531 
L 210.145021 240.506342 
L 211.284766 238.706238 
L 212.424511 239.625699 
L 213.564255 237.524655 
L 214.704 235.793218 
L 215.843745 236.076922 
L 216.983489 236.916666 
L 218.123234 240.575896 
L 219.262979 237.972858 
L 220.402723 239.764327 
L 221.542468 238.786697 
L 222.682213 240.859543 
L 223.821957 241.049781 
L 224.961702 238.134352 
L 226.101447 238.705304 
L 227.241191 238.241465 
L 228.380936 236.504027 
L 229.520681 238.953747 
L 230.660426 236.37428 
L 231.80017 236.00663 
L 232.939915 238.520936 
L 234.07966 237.967756 
L 235.219404 239.885595 
L 236.359149 237.586654 
L 237.498894 238.155573 
L 238.638638 237.597185 
L 239.778383 241.220664 
L 240.918128 239.854007 
L 242.057872 240.533971 
L 243.197617 238.568598 
L 244.337362 238.74341 
L 245.477106 241.924863 
L 246.616851 238.186971 
L 247.756596 235.561675 
L 248.89634 239.974575 
L 251.17583 236.081214 
L 252.315574 240.027193 
L 253.455319 239.244235 
L 254.595064 240.88032 
L 255.734809 240.03384 
L 256.874553 240.050297 
L 258.014298 239.564121 
L 259.154043 238.63318 
L 260.293787 235.92398 
L 261.433532 236.999774 
L 262.573277 240.501962 
L 263.713021 241.001954 
L 265.992511 239.306525 
L 267.132255 239.030228 
L 268.272 236.806929 
L 269.411745 241.179969 
L 270.551489 237.869271 
L 271.691234 241.183974 
L 272.830979 241.111976 
L 273.970723 240.522581 
L 275.110468 240.280996 
L 276.250213 240.162992 
L 277.389957 238.641249 
L 278.529702 235.555901 
L 279.669447 236.695736 
L 280.809191 238.106935 
L 281.948936 231.243657 
L 283.088681 241.446717 
L 284.228426 241.483748 
L 285.36817 240.122398 
L 286.507915 240.369706 
L 287.64766 241.06415 
L 289.927149 241.410127 
L 291.066894 241.982807 
L 292.206638 240.304477 
L 293.346383 239.875433 
L 294.486128 240.625445 
L 295.625872 241.751437 
L 296.765617 241.035479 
L 297.905362 241.111126 
L 299.045106 241.843022 
L 300.184851 242.003702 
L 301.324596 241.268395 
L 302.46434 240.12104 
L 303.604085 237.632667 
L 304.74383 240.541011 
L 305.883574 238.60263 
L 307.023319 240.368628 
L 308.163064 239.250135 
L 309.302809 239.858873 
L 310.442553 239.273751 
L 311.582298 241.89846 
L 312.722043 240.653012 
L 313.861787 240.919378 
L 315.001532 239.682145 
L 316.141277 241.03523 
L 317.281021 241.608307 
L 318.420766 239.690596 
L 319.560511 242.084947 
L 320.700255 241.330443 
L 321.84 241.568796 
L 322.979745 241.396606 
L 324.119489 241.900786 
L 325.259234 238.027649 
L 326.398979 241.210213 
L 327.538723 238.389283 
L 328.678468 239.51872 
L 329.818213 241.181544 
L 330.957957 241.213611 
L 332.097702 239.857778 
L 333.237447 239.91264 
L 334.377191 240.321346 
L 335.516936 241.238044 
L 336.656681 240.956521 
L 337.796426 240.396988 
L 338.93617 237.227274 
L 340.075915 241.484853 
L 341.21566 241.634294 
L 342.355404 238.991746 
L 343.495149 240.816722 
L 344.634894 239.123966 
L 345.774638 238.631588 
L 348.054128 241.668445 
L 349.193872 241.139782 
L 350.333617 238.266026 
L 351.473362 242.023944 
L 352.613106 240.249026 
L 353.752851 238.985714 
L 354.892596 241.328498 
L 356.03234 240.753829 
L 357.172085 240.383354 
L 358.31183 241.082896 
L 359.451574 240.914335 
L 360.591319 241.373468 
L 361.731064 240.952033 
L 362.870809 240.67244 
L 364.010553 241.393955 
L 365.150298 241.573119 
L 366.290043 242.076188 
L 367.429787 240.791171 
L 368.569532 240.970906 
L 369.709277 241.737146 
L 370.849021 240.900953 
L 371.988766 242.01304 
L 373.128511 240.964945 
L 374.268255 237.953883 
L 375.408 241.504648 
L 376.547745 240.116129 
L 377.687489 241.249141 
L 378.827234 241.909083 
L 379.966979 241.938506 
L 381.106723 241.155454 
L 382.246468 241.77471 
L 383.386213 241.710355 
L 384.525957 241.807026 
L 385.665702 240.46169 
L 386.805447 241.747693 
L 387.945191 242.099765 
L 389.084936 241.343289 
L 390.224681 241.518457 
L 391.364426 241.150665 
L 392.50417 241.635357 
L 393.643915 241.395864 
L 394.78366 239.620032 
L 395.923404 241.06084 
L 397.063149 241.183173 
L 398.202894 242.084854 
L 399.342638 242.046337 
L 400.482383 241.50041 
L 401.622128 241.585026 
L 402.761872 241.151502 
L 403.901617 241.977083 
L 405.041362 241.830533 
L 406.181106 240.559905 
L 407.320851 240.54695 
L 408.460596 239.819227 
L 409.60034 241.228292 
L 410.740085 241.003438 
L 413.019574 239.453625 
L 414.159319 240.046186 
L 415.299064 240.937264 
L 416.438809 241.504998 
L 417.578553 241.632314 
L 418.718298 239.900441 
L 419.858043 241.888186 
L 420.997787 240.326104 
L 422.137532 241.794294 
L 423.277277 240.933411 
L 424.417021 241.127655 
L 425.556766 240.419275 
L 426.696511 241.362606 
L 427.836255 241.522547 
L 428.976 241.322712 
L 430.115745 240.72172 
L 431.255489 240.649168 
L 432.395234 240.435468 
L 433 240.078234 
M 433 242.116102 
L -1 242.116102 
L -1 242.116102 
" clip-path="url(#p5bcb28f519)" style="fill: none; stroke: #da8bc3; stroke-opacity: 0.3; stroke-width: 1.5; stroke-linecap: round"/>
   </g>
   <g id="patch_3">
    <path d="M 54 252 
L 54 34.56 
" style="fill: none; stroke: #262626; stroke-width: 1.25; stroke-linejoin: miter; stroke-linecap: square"/>
   </g>
   <g id="patch_4">
    <path d="M 388.8 252 
L 388.8 34.56 
" style="fill: none; stroke: #262626; stroke-width: 1.25; stroke-linejoin: miter; stroke-linecap: square"/>
   </g>
   <g id="patch_5">
    <path d="M 54 252 
L 388.8 252 
" style="fill: none; stroke: #262626; stroke-width: 1.25; stroke-linejoin: miter; stroke-linecap: square"/>
   </g>
   <g id="patch_6">
    <path d="M 54 34.56 
L 388.8 34.56 
" style="fill: none; stroke: #262626; stroke-width: 1.25; stroke-linejoin: miter; stroke-linecap: square"/>
   </g>
   <g id="text_14">
    <!-- patient06_app05 - Power spectrum -->
    <g style="fill: #262626" transform="translate(128.0175 28.56)scale(0.12 -0.12)">
     <defs>
      <path id="ArialMT-70" d="M 422 -1272 
L 422 3319 
L 934 3319 
L 934 2888 
Q 1116 3141 1344 3267 
Q 1572 3394 1897 3394 
Q 2322 3394 2647 3175 
Q 2972 2956 3137 2557 
Q 3303 2159 3303 1684 
Q 3303 1175 3120 767 
Q 2938 359 2589 142 
Q 2241 -75 1856 -75 
Q 1575 -75 1351 44 
Q 1128 163 984 344 
L 984 -1272 
L 422 -1272 
z
M 931 1641 
Q 931 1000 1190 694 
Q 1450 388 1819 388 
Q 2194 388 2461 705 
Q 2728 1022 2728 1688 
Q 2728 2322 2467 2637 
Q 2206 2953 1844 2953 
Q 1484 2953 1207 2617 
Q 931 2281 931 1641 
z
" transform="scale(0.015625)"/>
      <path id="ArialMT-61" d="M 2588 409 
Q 2275 144 1986 34 
Q 1697 -75 1366 -75 
Q 819 -75 525 192 
Q 231 459 231 875 
Q 231 1119 342 1320 
Q 453 1522 633 1644 
Q 813 1766 1038 1828 
Q 1203 1872 1538 1913 
Q 2219 1994 2541 2106 
Q 2544 2222 2544 2253 
Q 2544 2597 2384 2738 
Q 2169 2928 1744 2928 
Q 1347 2928 1158 2789 
Q 969 2650 878 2297 
L 328 2372 
Q 403 2725 575 2942 
Q 747 3159 1072 3276 
Q 1397 3394 1825 3394 
Q 2250 3394 2515 3294 
Q 2781 3194 2906 3042 
Q 3031 2891 3081 2659 
Q 3109 2516 3109 2141 
L 3109 1391 
Q 3109 606 3145 398 
Q 3181 191 3288 0 
L 2700 0 
Q 2613 175 2588 409 
z
M 2541 1666 
Q 2234 1541 1622 1453 
Q 1275 1403 1131 1340 
Q 988 1278 909 1158 
Q 831 1038 831 891 
Q 831 666 1001 516 
Q 1172 366 1500 366 
Q 1825 366 2078 508 
Q 2331 650 2450 897 
Q 2541 1088 2541 1459 
L 2541 1666 
z
" transform="scale(0.015625)"/>
      <path id="ArialMT-74" d="M 1650 503 
L 1731 6 
Q 1494 -44 1306 -44 
Q 1000 -44 831 53 
Q 663 150 594 308 
Q 525 466 525 972 
L 525 2881 
L 113 2881 
L 113 3319 
L 525 3319 
L 525 4141 
L 1084 4478 
L 1084 3319 
L 1650 3319 
L 1650 2881 
L 1084 2881 
L 1084 941 
Q 1084 700 1114 631 
Q 1144 563 1211 522 
Q 1278 481 1403 481 
Q 1497 481 1650 503 
z
" transform="scale(0.015625)"/>
      <path id="ArialMT-69" d="M 425 3934 
L 425 4581 
L 988 4581 
L 988 3934 
L 425 3934 
z
M 425 0 
L 425 3319 
L 988 3319 
L 988 0 
L 425 0 
z
" transform="scale(0.015625)"/>
      <path id="ArialMT-36" d="M 3184 3459 
L 2625 3416 
Q 2550 3747 2413 3897 
Q 2184 4138 1850 4138 
Q 1581 4138 1378 3988 
Q 1113 3794 959 3422 
Q 806 3050 800 2363 
Q 1003 2672 1297 2822 
Q 1591 2972 1913 2972 
Q 2475 2972 2870 2558 
Q 3266 2144 3266 1488 
Q 3266 1056 3080 686 
Q 2894 316 2569 119 
Q 2244 -78 1831 -78 
Q 1128 -78 684 439 
Q 241 956 241 2144 
Q 241 3472 731 4075 
Q 1159 4600 1884 4600 
Q 2425 4600 2770 4297 
Q 3116 3994 3184 3459 
z
M 888 1484 
Q 888 1194 1011 928 
Q 1134 663 1356 523 
Q 1578 384 1822 384 
Q 2178 384 2434 671 
Q 2691 959 2691 1453 
Q 2691 1928 2437 2201 
Q 2184 2475 1800 2475 
Q 1419 2475 1153 2201 
Q 888 1928 888 1484 
z
" transform="scale(0.015625)"/>
      <path id="ArialMT-5f" d="M -97 -1272 
L -97 -866 
L 3631 -866 
L 3631 -1272 
L -97 -1272 
z
" transform="scale(0.015625)"/>
      <path id="ArialMT-2d" d="M 203 1375 
L 203 1941 
L 1931 1941 
L 1931 1375 
L 203 1375 
z
" transform="scale(0.015625)"/>
      <path id="ArialMT-50" d="M 494 0 
L 494 4581 
L 2222 4581 
Q 2678 4581 2919 4538 
Q 3256 4481 3484 4323 
Q 3713 4166 3852 3881 
Q 3991 3597 3991 3256 
Q 3991 2672 3619 2267 
Q 3247 1863 2275 1863 
L 1100 1863 
L 1100 0 
L 494 0 
z
M 1100 2403 
L 2284 2403 
Q 2872 2403 3119 2622 
Q 3366 2841 3366 3238 
Q 3366 3525 3220 3729 
Q 3075 3934 2838 4000 
Q 2684 4041 2272 4041 
L 1100 4041 
L 1100 2403 
z
" transform="scale(0.015625)"/>
      <path id="ArialMT-6f" d="M 213 1659 
Q 213 2581 725 3025 
Q 1153 3394 1769 3394 
Q 2453 3394 2887 2945 
Q 3322 2497 3322 1706 
Q 3322 1066 3130 698 
Q 2938 331 2570 128 
Q 2203 -75 1769 -75 
Q 1072 -75 642 372 
Q 213 819 213 1659 
z
M 791 1659 
Q 791 1022 1069 705 
Q 1347 388 1769 388 
Q 2188 388 2466 706 
Q 2744 1025 2744 1678 
Q 2744 2294 2464 2611 
Q 2184 2928 1769 2928 
Q 1347 2928 1069 2612 
Q 791 2297 791 1659 
z
" transform="scale(0.015625)"/>
      <path id="ArialMT-77" d="M 1034 0 
L 19 3319 
L 600 3319 
L 1128 1403 
L 1325 691 
Q 1338 744 1497 1375 
L 2025 3319 
L 2603 3319 
L 3100 1394 
L 3266 759 
L 3456 1400 
L 4025 3319 
L 4572 3319 
L 3534 0 
L 2950 0 
L 2422 1988 
L 2294 2553 
L 1622 0 
L 1034 0 
z
" transform="scale(0.015625)"/>
      <path id="ArialMT-73" d="M 197 991 
L 753 1078 
Q 800 744 1014 566 
Q 1228 388 1613 388 
Q 2000 388 2187 545 
Q 2375 703 2375 916 
Q 2375 1106 2209 1216 
Q 2094 1291 1634 1406 
Q 1016 1563 777 1677 
Q 538 1791 414 1992 
Q 291 2194 291 2438 
Q 291 2659 392 2848 
Q 494 3038 669 3163 
Q 800 3259 1026 3326 
Q 1253 3394 1513 3394 
Q 1903 3394 2198 3281 
Q 2494 3169 2634 2976 
Q 2775 2784 2828 2463 
L 2278 2388 
Q 2241 2644 2061 2787 
Q 1881 2931 1553 2931 
Q 1166 2931 1000 2803 
Q 834 2675 834 2503 
Q 834 2394 903 2306 
Q 972 2216 1119 2156 
Q 1203 2125 1616 2013 
Q 2213 1853 2448 1751 
Q 2684 1650 2818 1456 
Q 2953 1263 2953 975 
Q 2953 694 2789 445 
Q 2625 197 2315 61 
Q 2006 -75 1616 -75 
Q 969 -75 630 194 
Q 291 463 197 991 
z
" transform="scale(0.015625)"/>
      <path id="ArialMT-6d" d="M 422 0 
L 422 3319 
L 925 3319 
L 925 2853 
Q 1081 3097 1340 3245 
Q 1600 3394 1931 3394 
Q 2300 3394 2536 3241 
Q 2772 3088 2869 2813 
Q 3263 3394 3894 3394 
Q 4388 3394 4653 3120 
Q 4919 2847 4919 2278 
L 4919 0 
L 4359 0 
L 4359 2091 
Q 4359 2428 4304 2576 
Q 4250 2725 4106 2815 
Q 3963 2906 3769 2906 
Q 3419 2906 3187 2673 
Q 2956 2441 2956 1928 
L 2956 0 
L 2394 0 
L 2394 2156 
Q 2394 2531 2256 2718 
Q 2119 2906 1806 2906 
Q 1569 2906 1367 2781 
Q 1166 2656 1075 2415 
Q 984 2175 984 1722 
L 984 0 
L 422 0 
z
" transform="scale(0.015625)"/>
     </defs>
     <use xlink:href="#ArialMT-70"/>
     <use xlink:href="#ArialMT-61" x="55.615234"/>
     <use xlink:href="#ArialMT-74" x="111.230469"/>
     <use xlink:href="#ArialMT-69" x="139.013672"/>
     <use xlink:href="#ArialMT-65" x="161.230469"/>
     <use xlink:href="#ArialMT-6e" x="216.845703"/>
     <use xlink:href="#ArialMT-74" x="272.460938"/>
     <use xlink:href="#ArialMT-30" x="300.244141"/>
     <use xlink:href="#ArialMT-36" x="355.859375"/>
     <use xlink:href="#ArialMT-5f" x="411.474609"/>
     <use xlink:href="#ArialMT-61" x="467.089844"/>
     <use xlink:href="#ArialMT-70" x="522.705078"/>
     <use xlink:href="#ArialMT-70" x="578.320312"/>
     <use xlink:href="#ArialMT-30" x="633.935547"/>
     <use xlink:href="#ArialMT-35" x="689.550781"/>
     <use xlink:href="#ArialMT-20" x="745.166016"/>
     <use xlink:href="#ArialMT-2d" x="772.949219"/>
     <use xlink:href="#ArialMT-20" x="806.25"/>
     <use xlink:href="#ArialMT-50" x="834.033203"/>
     <use xlink:href="#ArialMT-6f" x="900.732422"/>
     <use xlink:href="#ArialMT-77" x="956.347656"/>
     <use xlink:href="#ArialMT-65" x="1028.564453"/>
     <use xlink:href="#ArialMT-72" x="1084.179688"/>
     <use xlink:href="#ArialMT-20" x="1117.480469"/>
     <use xlink:href="#ArialMT-73" x="1145.263672"/>
     <use xlink:href="#ArialMT-70" x="1195.263672"/>
     <use xlink:href="#ArialMT-65" x="1250.878906"/>
     <use xlink:href="#ArialMT-63" x="1306.494141"/>
     <use xlink:href="#ArialMT-74" x="1356.494141"/>
     <use xlink:href="#ArialMT-72" x="1384.277344"/>
     <use xlink:href="#ArialMT-75" x="1417.578125"/>
     <use xlink:href="#ArialMT-6d" x="1473.193359"/>
    </g>
   </g>
   <g id="legend_1">
    <g id="patch_7">
     <path d="M 313.503281 152.278906 
L 381.1 152.278906 
Q 383.3 152.278906 383.3 150.078906 
L 383.3 42.26 
Q 383.3 40.06 381.1 40.06 
L 313.503281 40.06 
Q 311.303281 40.06 311.303281 42.26 
L 311.303281 150.078906 
Q 311.303281 152.278906 313.503281 152.278906 
z
" style="fill: #ffffff; opacity: 0.8; stroke: #cccccc; stroke-linejoin: miter"/>
    </g>
    <g id="line2d_20">
     <path d="M 315.703281 48.483594 
L 326.703281 48.483594 
L 337.703281 48.483594 
" style="fill: none; stroke: #4c72b0; stroke-opacity: 0.3; stroke-width: 1.5; stroke-linecap: round"/>
    </g>
    <g id="text_15">
     <!-- IMU9 -->
     <g style="fill: #262626" transform="translate(346.503281 52.333594)scale(0.11 -0.11)">
      <defs>
       <path id="ArialMT-49" d="M 597 0 
L 597 4581 
L 1203 4581 
L 1203 0 
L 597 0 
z
" transform="scale(0.015625)"/>
       <path id="ArialMT-4d" d="M 475 0 
L 475 4581 
L 1388 4581 
L 2472 1338 
Q 2622 884 2691 659 
Q 2769 909 2934 1394 
L 4031 4581 
L 4847 4581 
L 4847 0 
L 4263 0 
L 4263 3834 
L 2931 0 
L 2384 0 
L 1059 3900 
L 1059 0 
L 475 0 
z
" transform="scale(0.015625)"/>
       <path id="ArialMT-55" d="M 3500 4581 
L 4106 4581 
L 4106 1934 
Q 4106 1244 3950 837 
Q 3794 431 3386 176 
Q 2978 -78 2316 -78 
Q 1672 -78 1262 144 
Q 853 366 678 786 
Q 503 1206 503 1934 
L 503 4581 
L 1109 4581 
L 1109 1938 
Q 1109 1341 1220 1058 
Q 1331 775 1601 622 
Q 1872 469 2263 469 
Q 2931 469 3215 772 
Q 3500 1075 3500 1938 
L 3500 4581 
z
" transform="scale(0.015625)"/>
       <path id="ArialMT-39" d="M 350 1059 
L 891 1109 
Q 959 728 1153 556 
Q 1347 384 1650 384 
Q 1909 384 2104 503 
Q 2300 622 2425 820 
Q 2550 1019 2634 1356 
Q 2719 1694 2719 2044 
Q 2719 2081 2716 2156 
Q 2547 1888 2255 1720 
Q 1963 1553 1622 1553 
Q 1053 1553 659 1965 
Q 266 2378 266 3053 
Q 266 3750 677 4175 
Q 1088 4600 1706 4600 
Q 2153 4600 2523 4359 
Q 2894 4119 3086 3673 
Q 3278 3228 3278 2384 
Q 3278 1506 3087 986 
Q 2897 466 2520 194 
Q 2144 -78 1638 -78 
Q 1100 -78 759 220 
Q 419 519 350 1059 
z
M 2653 3081 
Q 2653 3566 2395 3850 
Q 2138 4134 1775 4134 
Q 1400 4134 1122 3828 
Q 844 3522 844 3034 
Q 844 2597 1108 2323 
Q 1372 2050 1759 2050 
Q 2150 2050 2401 2323 
Q 2653 2597 2653 3081 
z
" transform="scale(0.015625)"/>
      </defs>
      <use xlink:href="#ArialMT-49"/>
      <use xlink:href="#ArialMT-4d" x="27.783203"/>
      <use xlink:href="#ArialMT-55" x="111.083984"/>
      <use xlink:href="#ArialMT-39" x="183.300781"/>
     </g>
    </g>
    <g id="line2d_21">
     <path d="M 315.703281 64.043438 
L 326.703281 64.043438 
L 337.703281 64.043438 
" style="fill: none; stroke: #dd8452; stroke-opacity: 0.3; stroke-width: 1.5; stroke-linecap: round"/>
    </g>
    <g id="text_16">
     <!-- IMU10 -->
     <g style="fill: #262626" transform="translate(346.503281 67.893438)scale(0.11 -0.11)">
      <use xlink:href="#ArialMT-49"/>
      <use xlink:href="#ArialMT-4d" x="27.783203"/>
      <use xlink:href="#ArialMT-55" x="111.083984"/>
      <use xlink:href="#ArialMT-31" x="183.300781"/>
      <use xlink:href="#ArialMT-30" x="238.916016"/>
     </g>
    </g>
    <g id="line2d_22">
     <path d="M 315.703281 79.603281 
L 326.703281 79.603281 
L 337.703281 79.603281 
" style="fill: none; stroke: #55a868; stroke-opacity: 0.3; stroke-width: 1.5; stroke-linecap: round"/>
    </g>
    <g id="text_17">
     <!-- IMU11 -->
     <g style="fill: #262626" transform="translate(346.503281 83.453281)scale(0.11 -0.11)">
      <use xlink:href="#ArialMT-49"/>
      <use xlink:href="#ArialMT-4d" x="27.783203"/>
      <use xlink:href="#ArialMT-55" x="111.083984"/>
      <use xlink:href="#ArialMT-31" x="183.300781"/>
      <use xlink:href="#ArialMT-31" x="231.541016"/>
     </g>
    </g>
    <g id="line2d_23">
     <path d="M 315.703281 95.163125 
L 326.703281 95.163125 
L 337.703281 95.163125 
" style="fill: none; stroke: #c44e52; stroke-opacity: 0.3; stroke-width: 1.5; stroke-linecap: round"/>
    </g>
    <g id="text_18">
     <!-- IMU12 -->
     <g style="fill: #262626" transform="translate(346.503281 99.013125)scale(0.11 -0.11)">
      <use xlink:href="#ArialMT-49"/>
      <use xlink:href="#ArialMT-4d" x="27.783203"/>
      <use xlink:href="#ArialMT-55" x="111.083984"/>
      <use xlink:href="#ArialMT-31" x="183.300781"/>
      <use xlink:href="#ArialMT-32" x="238.916016"/>
     </g>
    </g>
    <g id="line2d_24">
     <path d="M 315.703281 110.722969 
L 326.703281 110.722969 
L 337.703281 110.722969 
" style="fill: none; stroke: #8172b3; stroke-opacity: 0.3; stroke-width: 1.5; stroke-linecap: round"/>
    </g>
    <g id="text_19">
     <!-- IMU13 -->
     <g style="fill: #262626" transform="translate(346.503281 114.572969)scale(0.11 -0.11)">
      <defs>
       <path id="ArialMT-33" d="M 269 1209 
L 831 1284 
Q 928 806 1161 595 
Q 1394 384 1728 384 
Q 2125 384 2398 659 
Q 2672 934 2672 1341 
Q 2672 1728 2419 1979 
Q 2166 2231 1775 2231 
Q 1616 2231 1378 2169 
L 1441 2663 
Q 1497 2656 1531 2656 
Q 1891 2656 2178 2843 
Q 2466 3031 2466 3422 
Q 2466 3731 2256 3934 
Q 2047 4138 1716 4138 
Q 1388 4138 1169 3931 
Q 950 3725 888 3313 
L 325 3413 
Q 428 3978 793 4289 
Q 1159 4600 1703 4600 
Q 2078 4600 2393 4439 
Q 2709 4278 2876 4000 
Q 3044 3722 3044 3409 
Q 3044 3113 2884 2869 
Q 2725 2625 2413 2481 
Q 2819 2388 3044 2092 
Q 3269 1797 3269 1353 
Q 3269 753 2831 336 
Q 2394 -81 1725 -81 
Q 1122 -81 723 278 
Q 325 638 269 1209 
z
" transform="scale(0.015625)"/>
      </defs>
      <use xlink:href="#ArialMT-49"/>
      <use xlink:href="#ArialMT-4d" x="27.783203"/>
      <use xlink:href="#ArialMT-55" x="111.083984"/>
      <use xlink:href="#ArialMT-31" x="183.300781"/>
      <use xlink:href="#ArialMT-33" x="238.916016"/>
     </g>
    </g>
    <g id="line2d_25">
     <path d="M 315.703281 126.282813 
L 326.703281 126.282813 
L 337.703281 126.282813 
" style="fill: none; stroke: #937860; stroke-opacity: 0.3; stroke-width: 1.5; stroke-linecap: round"/>
    </g>
    <g id="text_20">
     <!-- IMU14 -->
     <g style="fill: #262626" transform="translate(346.503281 130.132812)scale(0.11 -0.11)">
      <defs>
       <path id="ArialMT-34" d="M 2069 0 
L 2069 1097 
L 81 1097 
L 81 1613 
L 2172 4581 
L 2631 4581 
L 2631 1613 
L 3250 1613 
L 3250 1097 
L 2631 1097 
L 2631 0 
L 2069 0 
z
M 2069 1613 
L 2069 3678 
L 634 1613 
L 2069 1613 
z
" transform="scale(0.015625)"/>
      </defs>
      <use xlink:href="#ArialMT-49"/>
      <use xlink:href="#ArialMT-4d" x="27.783203"/>
      <use xlink:href="#ArialMT-55" x="111.083984"/>
      <use xlink:href="#ArialMT-31" x="183.300781"/>
      <use xlink:href="#ArialMT-34" x="238.916016"/>
     </g>
    </g>
    <g id="line2d_26">
     <path d="M 315.703281 141.842656 
L 326.703281 141.842656 
L 337.703281 141.842656 
" style="fill: none; stroke: #da8bc3; stroke-opacity: 0.3; stroke-width: 1.5; stroke-linecap: round"/>
    </g>
    <g id="text_21">
     <!-- IMU15 -->
     <g style="fill: #262626" transform="translate(346.503281 145.692656)scale(0.11 -0.11)">
      <use xlink:href="#ArialMT-49"/>
      <use xlink:href="#ArialMT-4d" x="27.783203"/>
      <use xlink:href="#ArialMT-55" x="111.083984"/>
      <use xlink:href="#ArialMT-31" x="183.300781"/>
      <use xlink:href="#ArialMT-35" x="238.916016"/>
     </g>
    </g>
   </g>
  </g>
 </g>
 <defs>
  <clipPath id="p5bcb28f519">
   <rect x="54" y="34.56" width="334.8" height="217.44"/>
  </clipPath>
 </defs>
</svg>
