<?xml version="1.0" encoding="utf-8" standalone="no"?>
<!DOCTYPE svg PUBLIC "-//W3C//DTD SVG 1.1//EN"
  "http://www.w3.org/Graphics/SVG/1.1/DTD/svg11.dtd">
<svg xmlns:xlink="http://www.w3.org/1999/xlink" width="432pt" height="288pt" viewBox="0 0 432 288" xmlns="http://www.w3.org/2000/svg" version="1.1">
 <metadata>
  <rdf:RDF xmlns:dc="http://purl.org/dc/elements/1.1/" xmlns:cc="http://creativecommons.org/ns#" xmlns:rdf="http://www.w3.org/1999/02/22-rdf-syntax-ns#">
   <cc:Work>
    <dc:type rdf:resource="http://purl.org/dc/dcmitype/StillImage"/>
    <dc:date>2022-07-08T13:58:13.538045</dc:date>
    <dc:format>image/svg+xml</dc:format>
    <dc:creator>
     <cc:Agent>
      <dc:title>Matplotlib v3.5.1, https://matplotlib.org/</dc:title>
     </cc:Agent>
    </dc:creator>
   </cc:Work>
  </rdf:RDF>
 </metadata>
 <defs>
  <style type="text/css">*{stroke-linejoin: round; stroke-linecap: butt}</style>
 </defs>
 <g id="figure_1">
  <g id="patch_1">
   <path d="M 0 288 
L 432 288 
L 432 0 
L 0 0 
z
" style="fill: #ffffff"/>
  </g>
  <g id="axes_1">
   <g id="patch_2">
    <path d="M 54 252 
L 388.8 252 
L 388.8 34.56 
L 54 34.56 
z
" style="fill: #ffffff"/>
   </g>
   <g id="matplotlib.axis_1">
    <g id="xtick_1">
     <g id="line2d_1">
      <defs>
       <path id="mf97f68e8c8" d="M 0 0 
L 0 6 
" style="stroke: #262626; stroke-width: 1.25"/>
      </defs>
      <g>
       <use xlink:href="#mf97f68e8c8" x="54" y="252" style="fill: #262626; stroke: #262626; stroke-width: 1.25"/>
      </g>
     </g>
     <g id="text_1">
      <!-- 0 -->
      <g style="fill: #262626" transform="translate(50.941484 269.373594)scale(0.11 -0.11)">
       <defs>
        <path id="ArialMT-30" d="M 266 2259 
Q 266 3072 433 3567 
Q 600 4063 929 4331 
Q 1259 4600 1759 4600 
Q 2128 4600 2406 4451 
Q 2684 4303 2865 4023 
Q 3047 3744 3150 3342 
Q 3253 2941 3253 2259 
Q 3253 1453 3087 958 
Q 2922 463 2592 192 
Q 2263 -78 1759 -78 
Q 1097 -78 719 397 
Q 266 969 266 2259 
z
M 844 2259 
Q 844 1131 1108 757 
Q 1372 384 1759 384 
Q 2147 384 2411 759 
Q 2675 1134 2675 2259 
Q 2675 3391 2411 3762 
Q 2147 4134 1753 4134 
Q 1366 4134 1134 3806 
Q 844 3388 844 2259 
z
" transform="scale(0.015625)"/>
       </defs>
       <use xlink:href="#ArialMT-30"/>
      </g>
     </g>
    </g>
    <g id="xtick_2">
     <g id="line2d_2">
      <g>
       <use xlink:href="#mf97f68e8c8" x="120.96" y="252" style="fill: #262626; stroke: #262626; stroke-width: 1.25"/>
      </g>
     </g>
     <g id="text_2">
      <!-- 5 -->
      <g style="fill: #262626" transform="translate(117.901484 269.373594)scale(0.11 -0.11)">
       <defs>
        <path id="ArialMT-35" d="M 266 1200 
L 856 1250 
Q 922 819 1161 601 
Q 1400 384 1738 384 
Q 2144 384 2425 690 
Q 2706 997 2706 1503 
Q 2706 1984 2436 2262 
Q 2166 2541 1728 2541 
Q 1456 2541 1237 2417 
Q 1019 2294 894 2097 
L 366 2166 
L 809 4519 
L 3088 4519 
L 3088 3981 
L 1259 3981 
L 1013 2750 
Q 1425 3038 1878 3038 
Q 2478 3038 2890 2622 
Q 3303 2206 3303 1553 
Q 3303 931 2941 478 
Q 2500 -78 1738 -78 
Q 1113 -78 717 272 
Q 322 622 266 1200 
z
" transform="scale(0.015625)"/>
       </defs>
       <use xlink:href="#ArialMT-35"/>
      </g>
     </g>
    </g>
    <g id="xtick_3">
     <g id="line2d_3">
      <g>
       <use xlink:href="#mf97f68e8c8" x="187.92" y="252" style="fill: #262626; stroke: #262626; stroke-width: 1.25"/>
      </g>
     </g>
     <g id="text_3">
      <!-- 10 -->
      <g style="fill: #262626" transform="translate(181.802969 269.373594)scale(0.11 -0.11)">
       <defs>
        <path id="ArialMT-31" d="M 2384 0 
L 1822 0 
L 1822 3584 
Q 1619 3391 1289 3197 
Q 959 3003 697 2906 
L 697 3450 
Q 1169 3672 1522 3987 
Q 1875 4303 2022 4600 
L 2384 4600 
L 2384 0 
z
" transform="scale(0.015625)"/>
       </defs>
       <use xlink:href="#ArialMT-31"/>
       <use xlink:href="#ArialMT-30" x="55.615234"/>
      </g>
     </g>
    </g>
    <g id="xtick_4">
     <g id="line2d_4">
      <g>
       <use xlink:href="#mf97f68e8c8" x="254.88" y="252" style="fill: #262626; stroke: #262626; stroke-width: 1.25"/>
      </g>
     </g>
     <g id="text_4">
      <!-- 15 -->
      <g style="fill: #262626" transform="translate(248.762969 269.373594)scale(0.11 -0.11)">
       <use xlink:href="#ArialMT-31"/>
       <use xlink:href="#ArialMT-35" x="55.615234"/>
      </g>
     </g>
    </g>
    <g id="xtick_5">
     <g id="line2d_5">
      <g>
       <use xlink:href="#mf97f68e8c8" x="321.84" y="252" style="fill: #262626; stroke: #262626; stroke-width: 1.25"/>
      </g>
     </g>
     <g id="text_5">
      <!-- 20 -->
      <g style="fill: #262626" transform="translate(315.722969 269.373594)scale(0.11 -0.11)">
       <defs>
        <path id="ArialMT-32" d="M 3222 541 
L 3222 0 
L 194 0 
Q 188 203 259 391 
Q 375 700 629 1000 
Q 884 1300 1366 1694 
Q 2113 2306 2375 2664 
Q 2638 3022 2638 3341 
Q 2638 3675 2398 3904 
Q 2159 4134 1775 4134 
Q 1369 4134 1125 3890 
Q 881 3647 878 3216 
L 300 3275 
Q 359 3922 746 4261 
Q 1134 4600 1788 4600 
Q 2447 4600 2831 4234 
Q 3216 3869 3216 3328 
Q 3216 3053 3103 2787 
Q 2991 2522 2730 2228 
Q 2469 1934 1863 1422 
Q 1356 997 1212 845 
Q 1069 694 975 541 
L 3222 541 
z
" transform="scale(0.015625)"/>
       </defs>
       <use xlink:href="#ArialMT-32"/>
       <use xlink:href="#ArialMT-30" x="55.615234"/>
      </g>
     </g>
    </g>
    <g id="xtick_6">
     <g id="line2d_6">
      <g>
       <use xlink:href="#mf97f68e8c8" x="388.8" y="252" style="fill: #262626; stroke: #262626; stroke-width: 1.25"/>
      </g>
     </g>
     <g id="text_6">
      <!-- 25 -->
      <g style="fill: #262626" transform="translate(382.682969 269.373594)scale(0.11 -0.11)">
       <use xlink:href="#ArialMT-32"/>
       <use xlink:href="#ArialMT-35" x="55.615234"/>
      </g>
     </g>
    </g>
    <g id="text_7">
     <!-- Frequency (Hz) -->
     <g style="fill: #262626" transform="translate(180.059063 284.295469)scale(0.12 -0.12)">
      <defs>
       <path id="ArialMT-46" d="M 525 0 
L 525 4581 
L 3616 4581 
L 3616 4041 
L 1131 4041 
L 1131 2622 
L 3281 2622 
L 3281 2081 
L 1131 2081 
L 1131 0 
L 525 0 
z
" transform="scale(0.015625)"/>
       <path id="ArialMT-72" d="M 416 0 
L 416 3319 
L 922 3319 
L 922 2816 
Q 1116 3169 1280 3281 
Q 1444 3394 1641 3394 
Q 1925 3394 2219 3213 
L 2025 2691 
Q 1819 2813 1613 2813 
Q 1428 2813 1281 2702 
Q 1134 2591 1072 2394 
Q 978 2094 978 1738 
L 978 0 
L 416 0 
z
" transform="scale(0.015625)"/>
       <path id="ArialMT-65" d="M 2694 1069 
L 3275 997 
Q 3138 488 2766 206 
Q 2394 -75 1816 -75 
Q 1088 -75 661 373 
Q 234 822 234 1631 
Q 234 2469 665 2931 
Q 1097 3394 1784 3394 
Q 2450 3394 2872 2941 
Q 3294 2488 3294 1666 
Q 3294 1616 3291 1516 
L 816 1516 
Q 847 969 1125 678 
Q 1403 388 1819 388 
Q 2128 388 2347 550 
Q 2566 713 2694 1069 
z
M 847 1978 
L 2700 1978 
Q 2663 2397 2488 2606 
Q 2219 2931 1791 2931 
Q 1403 2931 1139 2672 
Q 875 2413 847 1978 
z
" transform="scale(0.015625)"/>
       <path id="ArialMT-71" d="M 2538 -1272 
L 2538 353 
Q 2406 169 2170 47 
Q 1934 -75 1669 -75 
Q 1078 -75 651 397 
Q 225 869 225 1691 
Q 225 2191 398 2587 
Q 572 2984 901 3189 
Q 1231 3394 1625 3394 
Q 2241 3394 2594 2875 
L 2594 3319 
L 3100 3319 
L 3100 -1272 
L 2538 -1272 
z
M 803 1669 
Q 803 1028 1072 708 
Q 1341 388 1716 388 
Q 2075 388 2334 692 
Q 2594 997 2594 1619 
Q 2594 2281 2320 2615 
Q 2047 2950 1678 2950 
Q 1313 2950 1058 2639 
Q 803 2328 803 1669 
z
" transform="scale(0.015625)"/>
       <path id="ArialMT-75" d="M 2597 0 
L 2597 488 
Q 2209 -75 1544 -75 
Q 1250 -75 995 37 
Q 741 150 617 320 
Q 494 491 444 738 
Q 409 903 409 1263 
L 409 3319 
L 972 3319 
L 972 1478 
Q 972 1038 1006 884 
Q 1059 663 1231 536 
Q 1403 409 1656 409 
Q 1909 409 2131 539 
Q 2353 669 2445 892 
Q 2538 1116 2538 1541 
L 2538 3319 
L 3100 3319 
L 3100 0 
L 2597 0 
z
" transform="scale(0.015625)"/>
       <path id="ArialMT-6e" d="M 422 0 
L 422 3319 
L 928 3319 
L 928 2847 
Q 1294 3394 1984 3394 
Q 2284 3394 2536 3286 
Q 2788 3178 2913 3003 
Q 3038 2828 3088 2588 
Q 3119 2431 3119 2041 
L 3119 0 
L 2556 0 
L 2556 2019 
Q 2556 2363 2490 2533 
Q 2425 2703 2258 2804 
Q 2091 2906 1866 2906 
Q 1506 2906 1245 2678 
Q 984 2450 984 1813 
L 984 0 
L 422 0 
z
" transform="scale(0.015625)"/>
       <path id="ArialMT-63" d="M 2588 1216 
L 3141 1144 
Q 3050 572 2676 248 
Q 2303 -75 1759 -75 
Q 1078 -75 664 370 
Q 250 816 250 1647 
Q 250 2184 428 2587 
Q 606 2991 970 3192 
Q 1334 3394 1763 3394 
Q 2303 3394 2647 3120 
Q 2991 2847 3088 2344 
L 2541 2259 
Q 2463 2594 2264 2762 
Q 2066 2931 1784 2931 
Q 1359 2931 1093 2626 
Q 828 2322 828 1663 
Q 828 994 1084 691 
Q 1341 388 1753 388 
Q 2084 388 2306 591 
Q 2528 794 2588 1216 
z
" transform="scale(0.015625)"/>
       <path id="ArialMT-79" d="M 397 -1278 
L 334 -750 
Q 519 -800 656 -800 
Q 844 -800 956 -737 
Q 1069 -675 1141 -563 
Q 1194 -478 1313 -144 
Q 1328 -97 1363 -6 
L 103 3319 
L 709 3319 
L 1400 1397 
Q 1534 1031 1641 628 
Q 1738 1016 1872 1384 
L 2581 3319 
L 3144 3319 
L 1881 -56 
Q 1678 -603 1566 -809 
Q 1416 -1088 1222 -1217 
Q 1028 -1347 759 -1347 
Q 597 -1347 397 -1278 
z
" transform="scale(0.015625)"/>
       <path id="ArialMT-20" transform="scale(0.015625)"/>
       <path id="ArialMT-28" d="M 1497 -1347 
Q 1031 -759 709 28 
Q 388 816 388 1659 
Q 388 2403 628 3084 
Q 909 3875 1497 4659 
L 1900 4659 
Q 1522 4009 1400 3731 
Q 1209 3300 1100 2831 
Q 966 2247 966 1656 
Q 966 153 1900 -1347 
L 1497 -1347 
z
" transform="scale(0.015625)"/>
       <path id="ArialMT-48" d="M 513 0 
L 513 4581 
L 1119 4581 
L 1119 2700 
L 3500 2700 
L 3500 4581 
L 4106 4581 
L 4106 0 
L 3500 0 
L 3500 2159 
L 1119 2159 
L 1119 0 
L 513 0 
z
" transform="scale(0.015625)"/>
       <path id="ArialMT-7a" d="M 125 0 
L 125 456 
L 2238 2881 
Q 1878 2863 1603 2863 
L 250 2863 
L 250 3319 
L 2963 3319 
L 2963 2947 
L 1166 841 
L 819 456 
Q 1197 484 1528 484 
L 3063 484 
L 3063 0 
L 125 0 
z
" transform="scale(0.015625)"/>
       <path id="ArialMT-29" d="M 791 -1347 
L 388 -1347 
Q 1322 153 1322 1656 
Q 1322 2244 1188 2822 
Q 1081 3291 891 3722 
Q 769 4003 388 4659 
L 791 4659 
Q 1378 3875 1659 3084 
Q 1900 2403 1900 1659 
Q 1900 816 1576 28 
Q 1253 -759 791 -1347 
z
" transform="scale(0.015625)"/>
      </defs>
      <use xlink:href="#ArialMT-46"/>
      <use xlink:href="#ArialMT-72" x="61.083984"/>
      <use xlink:href="#ArialMT-65" x="94.384766"/>
      <use xlink:href="#ArialMT-71" x="150"/>
      <use xlink:href="#ArialMT-75" x="205.615234"/>
      <use xlink:href="#ArialMT-65" x="261.230469"/>
      <use xlink:href="#ArialMT-6e" x="316.845703"/>
      <use xlink:href="#ArialMT-63" x="372.460938"/>
      <use xlink:href="#ArialMT-79" x="422.460938"/>
      <use xlink:href="#ArialMT-20" x="472.460938"/>
      <use xlink:href="#ArialMT-28" x="500.244141"/>
      <use xlink:href="#ArialMT-48" x="533.544922"/>
      <use xlink:href="#ArialMT-7a" x="605.761719"/>
      <use xlink:href="#ArialMT-29" x="655.761719"/>
     </g>
    </g>
   </g>
   <g id="matplotlib.axis_2">
    <g id="ytick_1">
     <g id="line2d_7">
      <defs>
       <path id="m3921531a7a" d="M 0 0 
L -6 0 
" style="stroke: #262626; stroke-width: 1.25"/>
      </defs>
      <g>
       <use xlink:href="#m3921531a7a" x="54" y="242.116364" style="fill: #262626; stroke: #262626; stroke-width: 1.25"/>
      </g>
     </g>
     <g id="text_8">
      <!-- 0 -->
      <g style="fill: #262626" transform="translate(38.382969 246.053161)scale(0.11 -0.11)">
       <use xlink:href="#ArialMT-30"/>
      </g>
     </g>
    </g>
    <g id="ytick_2">
     <g id="line2d_8">
      <g>
       <use xlink:href="#m3921531a7a" x="54" y="210.915669" style="fill: #262626; stroke: #262626; stroke-width: 1.25"/>
      </g>
     </g>
     <g id="text_9">
      <!-- 500 -->
      <g style="fill: #262626" transform="translate(26.148906 214.852466)scale(0.11 -0.11)">
       <use xlink:href="#ArialMT-35"/>
       <use xlink:href="#ArialMT-30" x="55.615234"/>
       <use xlink:href="#ArialMT-30" x="111.230469"/>
      </g>
     </g>
    </g>
    <g id="ytick_3">
     <g id="line2d_9">
      <g>
       <use xlink:href="#m3921531a7a" x="54" y="179.714974" style="fill: #262626; stroke: #262626; stroke-width: 1.25"/>
      </g>
     </g>
     <g id="text_10">
      <!-- 1000 -->
      <g style="fill: #262626" transform="translate(20.031875 183.651771)scale(0.11 -0.11)">
       <use xlink:href="#ArialMT-31"/>
       <use xlink:href="#ArialMT-30" x="55.615234"/>
       <use xlink:href="#ArialMT-30" x="111.230469"/>
       <use xlink:href="#ArialMT-30" x="166.845703"/>
      </g>
     </g>
    </g>
    <g id="ytick_4">
     <g id="line2d_10">
      <g>
       <use xlink:href="#m3921531a7a" x="54" y="148.514279" style="fill: #262626; stroke: #262626; stroke-width: 1.25"/>
      </g>
     </g>
     <g id="text_11">
      <!-- 1500 -->
      <g style="fill: #262626" transform="translate(20.031875 152.451076)scale(0.11 -0.11)">
       <use xlink:href="#ArialMT-31"/>
       <use xlink:href="#ArialMT-35" x="55.615234"/>
       <use xlink:href="#ArialMT-30" x="111.230469"/>
       <use xlink:href="#ArialMT-30" x="166.845703"/>
      </g>
     </g>
    </g>
    <g id="ytick_5">
     <g id="line2d_11">
      <g>
       <use xlink:href="#m3921531a7a" x="54" y="117.313584" style="fill: #262626; stroke: #262626; stroke-width: 1.25"/>
      </g>
     </g>
     <g id="text_12">
      <!-- 2000 -->
      <g style="fill: #262626" transform="translate(20.031875 121.250381)scale(0.11 -0.11)">
       <use xlink:href="#ArialMT-32"/>
       <use xlink:href="#ArialMT-30" x="55.615234"/>
       <use xlink:href="#ArialMT-30" x="111.230469"/>
       <use xlink:href="#ArialMT-30" x="166.845703"/>
      </g>
     </g>
    </g>
    <g id="ytick_6">
     <g id="line2d_12">
      <g>
       <use xlink:href="#m3921531a7a" x="54" y="86.112889" style="fill: #262626; stroke: #262626; stroke-width: 1.25"/>
      </g>
     </g>
     <g id="text_13">
      <!-- 2500 -->
      <g style="fill: #262626" transform="translate(20.031875 90.049686)scale(0.11 -0.11)">
       <use xlink:href="#ArialMT-32"/>
       <use xlink:href="#ArialMT-35" x="55.615234"/>
       <use xlink:href="#ArialMT-30" x="111.230469"/>
       <use xlink:href="#ArialMT-30" x="166.845703"/>
      </g>
     </g>
    </g>
    <g id="ytick_7">
     <g id="line2d_13">
      <g>
       <use xlink:href="#m3921531a7a" x="54" y="54.912194" style="fill: #262626; stroke: #262626; stroke-width: 1.25"/>
      </g>
     </g>
     <g id="text_14">
      <!-- 3000 -->
      <g style="fill: #262626" transform="translate(20.031875 58.848991)scale(0.11 -0.11)">
       <defs>
        <path id="ArialMT-33" d="M 269 1209 
L 831 1284 
Q 928 806 1161 595 
Q 1394 384 1728 384 
Q 2125 384 2398 659 
Q 2672 934 2672 1341 
Q 2672 1728 2419 1979 
Q 2166 2231 1775 2231 
Q 1616 2231 1378 2169 
L 1441 2663 
Q 1497 2656 1531 2656 
Q 1891 2656 2178 2843 
Q 2466 3031 2466 3422 
Q 2466 3731 2256 3934 
Q 2047 4138 1716 4138 
Q 1388 4138 1169 3931 
Q 950 3725 888 3313 
L 325 3413 
Q 428 3978 793 4289 
Q 1159 4600 1703 4600 
Q 2078 4600 2393 4439 
Q 2709 4278 2876 4000 
Q 3044 3722 3044 3409 
Q 3044 3113 2884 2869 
Q 2725 2625 2413 2481 
Q 2819 2388 3044 2092 
Q 3269 1797 3269 1353 
Q 3269 753 2831 336 
Q 2394 -81 1725 -81 
Q 1122 -81 723 278 
Q 325 638 269 1209 
z
" transform="scale(0.015625)"/>
       </defs>
       <use xlink:href="#ArialMT-33"/>
       <use xlink:href="#ArialMT-30" x="55.615234"/>
       <use xlink:href="#ArialMT-30" x="111.230469"/>
       <use xlink:href="#ArialMT-30" x="166.845703"/>
      </g>
     </g>
    </g>
   </g>
   <g id="line2d_14">
    <path d="M 54 241.901604 
L 159.665866 241.841907 
L 163.111492 241.688281 
L 165.408576 241.743127 
L 166.557118 241.734296 
L 167.70566 241.506351 
L 168.854202 241.496547 
L 170.002744 241.710014 
L 172.299828 241.247004 
L 173.44837 241.035891 
L 174.596913 240.988544 
L 175.745455 240.655386 
L 176.893997 240.988924 
L 178.042539 240.693044 
L 179.191081 240.728167 
L 180.339623 241.375751 
L 181.488165 241.268525 
L 182.636707 240.365997 
L 183.785249 240.801904 
L 186.082333 240.882177 
L 187.230875 240.18015 
L 188.379417 240.176189 
L 190.676501 239.473894 
L 191.825043 239.597939 
L 192.973585 238.838628 
L 194.122127 239.357481 
L 195.270669 240.409507 
L 196.419211 241.204883 
L 197.567753 239.809699 
L 198.716295 238.961496 
L 199.864837 240.157576 
L 201.013379 238.538756 
L 202.161921 238.36277 
L 203.310463 240.121367 
L 204.459005 237.804297 
L 205.607547 238.952704 
L 206.756089 239.635116 
L 207.904631 237.540284 
L 209.053173 239.383241 
L 210.201715 238.779001 
L 211.350257 240.737785 
L 212.498799 239.90279 
L 213.647341 240.276278 
L 214.795883 237.720564 
L 215.944425 240.657054 
L 217.092967 240.910234 
L 219.390051 235.270346 
L 220.538593 238.475932 
L 221.687136 237.960258 
L 222.835678 237.566986 
L 223.98422 240.707298 
L 225.132762 238.069192 
L 226.281304 239.260053 
L 227.429846 240.737166 
L 228.578388 240.519214 
L 229.72693 240.008747 
L 230.875472 238.785909 
L 232.024014 240.852212 
L 233.172556 239.273163 
L 234.321098 238.48961 
L 235.46964 236.689496 
L 236.618182 238.521989 
L 238.915266 237.299395 
L 240.063808 239.97223 
L 241.21235 241.659999 
L 242.360892 240.665389 
L 243.509434 238.432852 
L 244.657976 239.738829 
L 245.806518 239.27237 
L 246.95506 238.220587 
L 248.103602 239.381489 
L 249.252144 240.798144 
L 250.400686 241.724913 
L 251.549228 240.91654 
L 252.69777 238.015239 
L 253.846312 239.461059 
L 254.994854 239.731461 
L 256.143396 238.016789 
L 258.44048 241.877137 
L 259.589022 237.644328 
L 260.737564 235.91238 
L 261.886106 239.872425 
L 263.034648 238.712246 
L 264.18319 238.83758 
L 265.331732 239.589975 
L 266.480274 234.737447 
L 268.777358 237.07417 
L 269.925901 242.076366 
L 271.074443 238.335318 
L 272.222985 240.900658 
L 273.371527 240.014634 
L 274.520069 237.120486 
L 275.668611 241.989387 
L 277.965695 238.634928 
L 279.114237 240.062327 
L 280.262779 240.486258 
L 281.411321 238.787677 
L 282.559863 216.06404 
L 283.708405 219.173805 
L 284.856947 210.40313 
L 286.005489 237.510069 
L 287.154031 240.031866 
L 288.302573 240.694644 
L 289.451115 241.753884 
L 290.599657 241.373914 
L 291.748199 240.15888 
L 292.896741 238.713211 
L 294.045283 241.178688 
L 295.193825 241.663281 
L 296.342367 239.634373 
L 297.490909 241.871328 
L 298.639451 241.610627 
L 299.787993 241.496127 
L 300.936535 239.159641 
L 302.085077 240.798814 
L 303.233619 241.471979 
L 304.382161 240.572701 
L 305.530703 241.645288 
L 306.679245 241.417746 
L 307.827787 241.812157 
L 308.976329 240.195782 
L 310.124871 240.485681 
L 311.273413 241.761035 
L 312.421955 241.080076 
L 313.570497 241.705349 
L 315.867581 241.224664 
L 317.016123 240.846161 
L 318.164666 239.838695 
L 319.313208 242.007117 
L 320.46175 239.617107 
L 321.610292 241.22813 
L 322.758834 240.63254 
L 323.907376 241.304277 
L 325.055918 241.284658 
L 326.20446 240.985156 
L 328.501544 239.733776 
L 329.650086 241.997894 
L 330.798628 240.635209 
L 331.94717 241.965629 
L 333.095712 241.415665 
L 334.244254 240.249926 
L 335.392796 241.13367 
L 336.541338 240.901752 
L 337.68988 241.868662 
L 338.838422 240.195033 
L 339.986964 239.408943 
L 342.284048 241.701148 
L 343.43259 241.88189 
L 344.581132 241.179496 
L 345.729674 241.072427 
L 346.878216 241.698707 
L 348.026758 241.338703 
L 349.1753 239.711895 
L 350.323842 240.887379 
L 351.472384 241.514745 
L 352.620926 238.599137 
L 353.769468 240.860182 
L 354.91801 241.862004 
L 356.066552 240.689544 
L 357.215094 240.596525 
L 358.363636 238.419782 
L 359.512178 241.906275 
L 360.66072 241.004093 
L 361.809262 241.15607 
L 362.957804 241.612747 
L 364.106346 240.387473 
L 365.254889 239.724939 
L 366.403431 241.968242 
L 367.551973 240.053125 
L 368.700515 241.615576 
L 369.849057 241.462189 
L 370.997599 241.827382 
L 372.146141 241.97436 
L 373.294683 241.934046 
L 374.443225 241.023198 
L 375.591767 241.729805 
L 377.888851 239.923509 
L 379.037393 240.193796 
L 380.185935 240.242176 
L 381.334477 240.458967 
L 382.483019 241.041012 
L 383.631561 240.303529 
L 384.780103 240.836465 
L 385.928645 241.800884 
L 387.077187 240.695315 
L 389.374271 241.024223 
L 390.522813 241.935591 
L 391.671355 241.797504 
L 392.819897 239.879154 
L 393.968439 240.604086 
L 395.116981 241.9017 
L 396.265523 241.518916 
L 397.414065 241.738127 
L 398.562607 241.682985 
L 399.711149 241.381083 
L 400.859691 241.986135 
L 402.008233 241.139139 
L 403.156775 241.819572 
L 405.453859 240.932056 
L 406.602401 240.641589 
L 407.750943 241.780721 
L 408.899485 240.981481 
L 410.048027 240.477082 
L 411.196569 240.761301 
L 412.345111 241.573732 
L 413.493654 241.889107 
L 414.642196 241.575213 
L 416.93928 241.746403 
L 418.087822 240.85481 
L 419.236364 241.583478 
L 420.384906 241.343959 
L 421.533448 241.705951 
L 422.68199 240.84381 
L 423.830532 241.825195 
L 424.979074 241.44134 
L 426.127616 240.218617 
L 427.276158 241.402375 
L 428.4247 240.708949 
L 429.573242 241.919407 
L 430.721784 241.855886 
L 431.870326 242.089409 
L 433 241.589875 
M 433 242.116158 
L -1 242.116158 
L -1 242.116158 
" clip-path="url(#pfa4934f330)" style="fill: none; stroke: #4c72b0; stroke-opacity: 0.3; stroke-width: 1.5; stroke-linecap: round"/>
   </g>
   <g id="line2d_15">
    <path d="M 54 241.88232 
L 160.814408 241.782882 
L 165.408576 241.680956 
L 167.70566 241.568676 
L 170.002744 241.483534 
L 171.151286 241.240152 
L 172.299828 240.881691 
L 173.44837 241.250469 
L 174.596913 240.95599 
L 176.893997 241.160049 
L 178.042539 241.04992 
L 179.191081 240.357105 
L 180.339623 240.577114 
L 182.636707 240.235745 
L 183.785249 240.963733 
L 184.933791 239.971189 
L 186.082333 240.628063 
L 187.230875 239.671093 
L 188.379417 240.555885 
L 189.527959 241.125834 
L 190.676501 239.632646 
L 191.825043 240.406566 
L 192.973585 240.622473 
L 195.270669 238.758195 
L 196.419211 238.829266 
L 197.567753 240.451803 
L 198.716295 238.088342 
L 199.864837 238.647446 
L 201.013379 237.799322 
L 202.161921 239.383657 
L 203.310463 238.602881 
L 204.459005 239.26702 
L 205.607547 235.44535 
L 206.756089 240.292046 
L 207.904631 239.892557 
L 209.053173 239.334337 
L 210.201715 240.069617 
L 211.350257 238.462869 
L 212.498799 238.246089 
L 213.647341 240.588801 
L 214.795883 237.79335 
L 215.944425 235.987776 
L 217.092967 238.386182 
L 218.241509 236.938234 
L 219.390051 235.727913 
L 220.538593 239.840393 
L 221.687136 236.95905 
L 222.835678 239.871629 
L 223.98422 239.517761 
L 225.132762 238.878933 
L 226.281304 239.550903 
L 227.429846 238.148792 
L 228.578388 240.148445 
L 230.875472 239.513195 
L 232.024014 239.589677 
L 233.172556 239.977854 
L 234.321098 238.429427 
L 235.46964 236.015151 
L 236.618182 239.716263 
L 237.766724 241.376002 
L 238.915266 240.156323 
L 240.063808 237.173137 
L 241.21235 240.989579 
L 242.360892 240.373192 
L 243.509434 239.491365 
L 244.657976 241.718581 
L 245.806518 237.486206 
L 246.95506 240.607147 
L 248.103602 239.341098 
L 249.252144 239.115501 
L 250.400686 240.364268 
L 251.549228 241.244485 
L 252.69777 238.267154 
L 253.846312 241.045851 
L 254.994854 240.304786 
L 256.143396 238.722227 
L 257.291938 241.002726 
L 258.44048 239.923019 
L 259.589022 240.319545 
L 260.737564 241.329922 
L 261.886106 241.066437 
L 263.034648 239.580024 
L 264.18319 240.030425 
L 265.331732 241.304318 
L 266.480274 240.283396 
L 267.628816 237.814685 
L 268.777358 240.234848 
L 269.925901 241.154199 
L 271.074443 235.948608 
L 273.371527 241.047997 
L 274.520069 239.507864 
L 275.668611 239.036198 
L 276.817153 241.761861 
L 277.965695 239.603212 
L 279.114237 239.545219 
L 280.262779 237.834938 
L 281.411321 239.313215 
L 282.559863 223.53674 
L 283.708405 231.511943 
L 284.856947 228.265651 
L 286.005489 237.515254 
L 287.154031 241.328406 
L 288.302573 239.308663 
L 289.451115 240.24494 
L 291.748199 239.700315 
L 292.896741 235.926916 
L 294.045283 240.829464 
L 295.193825 239.439841 
L 296.342367 241.63184 
L 297.490909 240.166531 
L 298.639451 240.761216 
L 299.787993 240.266143 
L 300.936535 241.45738 
L 302.085077 239.16539 
L 303.233619 241.43986 
L 304.382161 239.201929 
L 305.530703 241.128599 
L 306.679245 239.813996 
L 307.827787 240.436878 
L 308.976329 240.582173 
L 310.124871 241.53643 
L 311.273413 241.247815 
L 312.421955 238.434646 
L 313.570497 241.391262 
L 314.719039 239.310506 
L 315.867581 240.413049 
L 317.016123 239.649508 
L 318.164666 241.717158 
L 319.313208 241.579458 
L 320.46175 238.654231 
L 321.610292 237.88286 
L 322.758834 240.508827 
L 323.907376 241.224025 
L 325.055918 240.261496 
L 326.20446 239.983762 
L 327.353002 241.215949 
L 328.501544 240.989538 
L 329.650086 241.196014 
L 330.798628 240.13397 
L 331.94717 239.437667 
L 333.095712 241.148696 
L 334.244254 241.228307 
L 335.392796 241.194131 
L 336.541338 240.96773 
L 337.68988 239.080133 
L 338.838422 238.222609 
L 339.986964 239.754599 
L 341.135506 240.728116 
L 342.284048 239.503017 
L 343.43259 241.735933 
L 344.581132 241.401419 
L 345.729674 241.890357 
L 346.878216 239.603465 
L 348.026758 241.844548 
L 349.1753 241.377223 
L 350.323842 241.406274 
L 351.472384 241.94695 
L 352.620926 240.529586 
L 353.769468 242.037511 
L 354.91801 241.789072 
L 356.066552 240.865161 
L 357.215094 241.883284 
L 358.363636 240.226361 
L 359.512178 239.354714 
L 360.66072 240.343315 
L 361.809262 241.66645 
L 362.957804 241.229076 
L 364.106346 241.973531 
L 365.254889 239.659332 
L 366.403431 239.658086 
L 367.551973 241.945105 
L 368.700515 237.457899 
L 369.849057 241.250424 
L 370.997599 240.274623 
L 372.146141 240.434341 
L 373.294683 240.203294 
L 374.443225 240.857432 
L 375.591767 241.211807 
L 376.740309 240.037612 
L 377.888851 241.494331 
L 379.037393 241.096862 
L 380.185935 241.112949 
L 381.334477 240.371934 
L 382.483019 242.029869 
L 383.631561 241.815812 
L 384.780103 241.934308 
L 385.928645 239.899482 
L 387.077187 241.950279 
L 388.225729 241.626985 
L 389.374271 240.647946 
L 390.522813 241.011095 
L 391.671355 242.115932 
L 392.819897 240.796093 
L 393.968439 240.624871 
L 395.116981 241.46701 
L 396.265523 240.341901 
L 397.414065 241.832414 
L 399.711149 241.493677 
L 400.859691 239.607217 
L 402.008233 240.23594 
L 403.156775 241.345669 
L 404.305317 241.311872 
L 405.453859 241.0175 
L 406.602401 241.858646 
L 407.750943 242.079696 
L 408.899485 240.70734 
L 410.048027 241.945591 
L 411.196569 240.819995 
L 412.345111 241.709452 
L 413.493654 241.148589 
L 414.642196 241.673034 
L 415.790738 241.356679 
L 416.93928 241.497283 
L 418.087822 241.462032 
L 419.236364 242.104402 
L 420.384906 241.683396 
L 421.533448 239.949182 
L 422.68199 240.666856 
L 423.830532 241.178978 
L 424.979074 240.549511 
L 426.127616 239.455994 
L 427.276158 241.323065 
L 428.4247 240.325797 
L 429.573242 240.674625 
L 430.721784 239.432451 
L 431.870326 241.35505 
L 433 241.604893 
M 433 242.11616 
L -1 242.11616 
L -1 242.11616 
" clip-path="url(#pfa4934f330)" style="fill: none; stroke: #dd8452; stroke-opacity: 0.3; stroke-width: 1.5; stroke-linecap: round"/>
   </g>
   <g id="line2d_16">
    <path d="M 54 242.116364 
L 433 242.116364 
M 433 242.116364 
L -1 242.116364 
L -1 242.116364 
" clip-path="url(#pfa4934f330)" style="fill: none; stroke: #55a868; stroke-opacity: 0.3; stroke-width: 1.5; stroke-linecap: round"/>
   </g>
   <g id="line2d_17">
    <path d="M 54 241.900845 
L 163.111492 241.82316 
L 165.408576 241.637442 
L 166.557118 241.615325 
L 167.70566 241.728662 
L 171.151286 241.069724 
L 172.299828 241.152777 
L 173.44837 241.359407 
L 174.596913 241.414813 
L 178.042539 241.279228 
L 179.191081 240.314371 
L 180.339623 240.634285 
L 181.488165 240.506673 
L 182.636707 240.930571 
L 183.785249 241.011147 
L 184.933791 240.24409 
L 186.082333 240.851645 
L 187.230875 240.646888 
L 188.379417 240.026347 
L 189.527959 239.820641 
L 190.676501 240.096589 
L 191.825043 240.057577 
L 192.973585 240.350565 
L 194.122127 239.969233 
L 195.270669 238.457773 
L 196.419211 239.634544 
L 197.567753 239.31282 
L 198.716295 240.078742 
L 199.864837 235.857457 
L 201.013379 238.260074 
L 202.161921 238.972015 
L 203.310463 239.115975 
L 204.459005 239.468817 
L 205.607547 238.834317 
L 206.756089 235.641034 
L 207.904631 238.522744 
L 209.053173 236.788896 
L 210.201715 239.756019 
L 211.350257 241.28477 
L 212.498799 241.437382 
L 213.647341 237.200588 
L 214.795883 237.98383 
L 215.944425 240.795382 
L 217.092967 238.827421 
L 219.390051 237.627893 
L 220.538593 237.29946 
L 221.687136 239.698924 
L 222.835678 240.650678 
L 223.98422 237.675139 
L 225.132762 238.566369 
L 226.281304 237.201935 
L 227.429846 236.829251 
L 228.578388 237.950076 
L 229.72693 239.647866 
L 230.875472 237.860009 
L 232.024014 240.56473 
L 233.172556 240.788523 
L 234.321098 237.734996 
L 235.46964 238.09313 
L 236.618182 239.729534 
L 237.766724 240.877491 
L 238.915266 237.239699 
L 240.063808 238.843892 
L 241.21235 240.140528 
L 242.360892 241.855661 
L 243.509434 241.046844 
L 244.657976 239.769043 
L 245.806518 236.807202 
L 246.95506 239.844652 
L 248.103602 240.773984 
L 249.252144 241.28234 
L 250.400686 238.581783 
L 251.549228 238.208738 
L 252.69777 238.476409 
L 253.846312 240.391038 
L 254.994854 240.459033 
L 256.143396 234.726083 
L 257.291938 239.799108 
L 258.44048 238.65778 
L 260.737564 241.33629 
L 261.886106 241.789663 
L 263.034648 239.035252 
L 264.18319 237.843605 
L 265.331732 241.463543 
L 266.480274 241.681555 
L 267.628816 240.520802 
L 268.777358 239.970892 
L 269.925901 240.466397 
L 271.074443 236.854764 
L 272.222985 237.716741 
L 273.371527 239.999989 
L 274.520069 240.326022 
L 275.668611 241.843376 
L 276.817153 239.95656 
L 277.965695 241.588277 
L 279.114237 236.926769 
L 280.262779 239.019897 
L 281.411321 233.649272 
L 282.559863 159.686753 
L 283.708405 191.906036 
L 284.856947 192.534622 
L 286.005489 231.837578 
L 287.154031 241.273125 
L 288.302573 233.349312 
L 289.451115 241.042147 
L 290.599657 234.667459 
L 291.748199 237.713604 
L 292.896741 239.638176 
L 294.045283 242.090494 
L 295.193825 241.349142 
L 297.490909 241.967907 
L 298.639451 241.453921 
L 299.787993 237.832478 
L 300.936535 240.81503 
L 302.085077 241.573967 
L 303.233619 241.540681 
L 304.382161 241.718075 
L 305.530703 241.008307 
L 306.679245 241.606602 
L 307.827787 240.994493 
L 308.976329 239.453841 
L 310.124871 241.041493 
L 311.273413 241.684716 
L 312.421955 240.815941 
L 313.570497 236.749035 
L 314.719039 240.04929 
L 315.867581 241.241342 
L 317.016123 240.039807 
L 318.164666 241.47404 
L 319.313208 241.653003 
L 320.46175 240.073882 
L 321.610292 240.846828 
L 322.758834 239.978774 
L 323.907376 241.14554 
L 325.055918 240.560281 
L 326.20446 241.258767 
L 327.353002 241.264799 
L 328.501544 241.705877 
L 329.650086 239.732537 
L 330.798628 238.334915 
L 331.94717 238.620524 
L 333.095712 239.904839 
L 334.244254 239.7282 
L 335.392796 241.085746 
L 336.541338 240.782729 
L 337.68988 240.157298 
L 338.838422 240.61828 
L 339.986964 238.852162 
L 341.135506 240.697765 
L 342.284048 241.199736 
L 343.43259 240.764749 
L 344.581132 240.580763 
L 345.729674 241.763081 
L 346.878216 240.840851 
L 348.026758 241.578438 
L 349.1753 241.760164 
L 350.323842 238.847287 
L 351.472384 241.850831 
L 352.620926 240.114665 
L 353.769468 241.29904 
L 354.91801 241.92363 
L 356.066552 240.46025 
L 357.215094 241.470579 
L 358.363636 240.994068 
L 359.512178 241.034565 
L 360.66072 239.71242 
L 361.809262 241.076491 
L 362.957804 241.642278 
L 364.106346 242.083178 
L 365.254889 241.157029 
L 367.551973 240.386982 
L 368.700515 241.903279 
L 370.997599 239.403908 
L 373.294683 241.969157 
L 374.443225 241.032711 
L 375.591767 239.490803 
L 376.740309 242.021157 
L 377.888851 240.725893 
L 379.037393 239.163187 
L 380.185935 241.307306 
L 381.334477 241.289767 
L 382.483019 242.047107 
L 383.631561 240.487163 
L 384.780103 240.749524 
L 385.928645 241.335771 
L 387.077187 240.086295 
L 388.225729 240.542276 
L 389.374271 240.692426 
L 390.522813 241.707298 
L 391.671355 239.964729 
L 393.968439 242.072882 
L 395.116981 240.850009 
L 396.265523 240.933856 
L 397.414065 241.631815 
L 398.562607 241.653239 
L 399.711149 240.335539 
L 400.859691 241.646772 
L 402.008233 239.924894 
L 404.305317 241.104753 
L 405.453859 241.317868 
L 406.602401 242.065506 
L 407.750943 240.038763 
L 408.899485 240.691557 
L 410.048027 241.916261 
L 411.196569 241.283838 
L 412.345111 242.096444 
L 413.493654 240.941439 
L 414.642196 241.985153 
L 415.790738 241.549368 
L 416.93928 241.861805 
L 418.087822 241.282436 
L 419.236364 241.418877 
L 420.384906 240.966309 
L 421.533448 241.953617 
L 422.68199 240.815149 
L 423.830532 241.933319 
L 424.979074 241.31667 
L 426.127616 241.929553 
L 427.276158 240.363494 
L 428.4247 241.49414 
L 429.573242 240.912604 
L 430.721784 241.63279 
L 431.870326 241.398049 
L 433 241.896369 
M 433 242.116166 
L -1 242.116166 
L -1 242.116166 
" clip-path="url(#pfa4934f330)" style="fill: none; stroke: #c44e52; stroke-opacity: 0.3; stroke-width: 1.5; stroke-linecap: round"/>
   </g>
   <g id="line2d_18">
    <path d="M 54 241.988675 
L 160.814408 241.896854 
L 165.408576 241.723149 
L 170.002744 241.583787 
L 171.151286 241.209946 
L 172.299828 241.288342 
L 173.44837 241.642843 
L 174.596913 241.481789 
L 175.745455 241.447962 
L 176.893997 240.918724 
L 178.042539 240.706203 
L 179.191081 240.767707 
L 180.339623 240.312597 
L 181.488165 240.175531 
L 182.636707 240.171324 
L 183.785249 240.838164 
L 184.933791 240.771549 
L 186.082333 240.873562 
L 188.379417 239.695506 
L 189.527959 240.24113 
L 190.676501 240.092495 
L 191.825043 239.500244 
L 192.973585 240.566972 
L 194.122127 238.546137 
L 195.270669 239.553038 
L 196.419211 239.467784 
L 197.567753 240.342354 
L 198.716295 240.466726 
L 199.864837 237.176421 
L 201.013379 239.471588 
L 202.161921 239.763911 
L 203.310463 237.617619 
L 204.459005 239.830391 
L 205.607547 238.352461 
L 206.756089 239.015995 
L 207.904631 240.804009 
L 209.053173 239.093663 
L 210.201715 239.89435 
L 211.350257 241.079633 
L 212.498799 240.579071 
L 213.647341 238.662354 
L 214.795883 237.225774 
L 215.944425 240.876767 
L 217.092967 238.588904 
L 218.241509 238.20727 
L 219.390051 239.50584 
L 220.538593 238.615309 
L 221.687136 241.197795 
L 222.835678 238.180569 
L 223.98422 239.084146 
L 225.132762 238.995728 
L 227.429846 238.432684 
L 228.578388 240.01343 
L 229.72693 240.746581 
L 230.875472 239.759922 
L 232.024014 240.531037 
L 233.172556 238.371961 
L 234.321098 237.997526 
L 236.618182 236.089553 
L 237.766724 241.40214 
L 238.915266 237.141916 
L 240.063808 238.843681 
L 241.21235 239.445963 
L 242.360892 241.934966 
L 243.509434 240.439541 
L 244.657976 237.843011 
L 245.806518 241.362032 
L 246.95506 238.389321 
L 248.103602 239.777789 
L 249.252144 240.647058 
L 250.400686 240.83845 
L 251.549228 239.79217 
L 252.69777 229.046181 
L 253.846312 240.107697 
L 254.994854 239.077684 
L 256.143396 238.395778 
L 257.291938 239.4123 
L 258.44048 238.69942 
L 259.589022 240.604462 
L 260.737564 240.819603 
L 261.886106 241.869228 
L 263.034648 239.729377 
L 265.331732 240.238708 
L 266.480274 236.837826 
L 267.628816 236.451304 
L 268.777358 238.773119 
L 269.925901 237.381925 
L 271.074443 239.548133 
L 272.222985 235.849708 
L 274.520069 241.881414 
L 275.668611 240.239165 
L 276.817153 239.265145 
L 277.965695 236.891843 
L 279.114237 233.284215 
L 280.262779 230.414321 
L 281.411321 203.519789 
L 282.559863 44.443636 
L 283.708405 138.425965 
L 284.856947 107.3866 
L 286.005489 233.523348 
L 287.154031 232.963273 
L 288.302573 240.463032 
L 289.451115 238.626962 
L 290.599657 240.141682 
L 291.748199 242.044699 
L 292.896741 241.351585 
L 294.045283 241.275789 
L 295.193825 240.971974 
L 296.342367 241.675936 
L 297.490909 240.324011 
L 299.787993 241.940467 
L 300.936535 241.611112 
L 302.085077 239.431808 
L 303.233619 240.550657 
L 304.382161 241.055574 
L 305.530703 241.131 
L 306.679245 242.023017 
L 307.827787 241.26899 
L 308.976329 241.695636 
L 311.273413 239.411996 
L 312.421955 240.752118 
L 313.570497 241.02441 
L 314.719039 240.71119 
L 315.867581 241.53644 
L 317.016123 241.832358 
L 318.164666 241.687615 
L 319.313208 242.109835 
L 320.46175 240.098908 
L 321.610292 235.380413 
L 322.758834 241.017501 
L 325.055918 240.020585 
L 326.20446 241.130711 
L 328.501544 241.572315 
L 329.650086 239.74535 
L 330.798628 241.218945 
L 331.94717 241.718097 
L 333.095712 240.061057 
L 334.244254 241.898426 
L 335.392796 240.689276 
L 336.541338 241.404527 
L 337.68988 241.409835 
L 338.838422 241.213531 
L 339.986964 241.615186 
L 341.135506 238.127227 
L 342.284048 241.271672 
L 343.43259 241.853591 
L 345.729674 240.136244 
L 346.878216 241.792897 
L 348.026758 241.112804 
L 349.1753 241.207084 
L 350.323842 241.653678 
L 351.472384 240.882394 
L 352.620926 240.47952 
L 353.769468 241.361425 
L 354.91801 240.813476 
L 356.066552 240.450032 
L 357.215094 240.993744 
L 358.363636 239.952173 
L 359.512178 242.056503 
L 360.66072 240.840563 
L 361.809262 241.520595 
L 362.957804 240.523706 
L 364.106346 241.271139 
L 365.254889 240.686887 
L 366.403431 242.026817 
L 368.700515 241.871485 
L 369.849057 240.912294 
L 370.997599 240.527 
L 372.146141 241.638254 
L 373.294683 241.507072 
L 374.443225 242.106395 
L 375.591767 240.019606 
L 376.740309 242.012877 
L 377.888851 240.954252 
L 379.037393 240.87375 
L 380.185935 241.853036 
L 381.334477 241.973301 
L 382.483019 241.679281 
L 383.631561 241.251915 
L 384.780103 241.166652 
L 385.928645 241.949974 
L 387.077187 242.04062 
L 388.225729 239.522134 
L 389.374271 241.412576 
L 390.522813 240.72287 
L 391.671355 241.990358 
L 392.819897 240.93816 
L 393.968439 240.914923 
L 396.265523 241.856398 
L 397.414065 241.860129 
L 398.562607 241.27937 
L 399.711149 238.665481 
L 400.859691 241.375122 
L 402.008233 241.122318 
L 403.156775 242.004219 
L 404.305317 241.077297 
L 405.453859 241.942226 
L 406.602401 241.86645 
L 407.750943 241.400779 
L 408.899485 241.828137 
L 410.048027 240.390186 
L 411.196569 241.822279 
L 412.345111 241.632865 
L 413.493654 241.154844 
L 414.642196 241.298833 
L 415.790738 241.918463 
L 416.93928 241.36658 
L 419.236364 241.725518 
L 420.384906 241.626377 
L 421.533448 241.826367 
L 423.830532 240.762181 
L 424.979074 241.480371 
L 426.127616 241.554048 
L 427.276158 239.935306 
L 428.4247 241.845928 
L 429.573242 240.781218 
L 430.721784 241.74877 
L 431.870326 240.969918 
L 433 241.610544 
M 433 242.116161 
L -1 242.116161 
L -1 242.116161 
" clip-path="url(#pfa4934f330)" style="fill: none; stroke: #8172b3; stroke-opacity: 0.3; stroke-width: 1.5; stroke-linecap: round"/>
   </g>
   <g id="line2d_19">
    <path d="M 54 242.116364 
L 433 242.116364 
M 433 242.116364 
L -1 242.116364 
L -1 242.116364 
" clip-path="url(#pfa4934f330)" style="fill: none; stroke: #937860; stroke-opacity: 0.3; stroke-width: 1.5; stroke-linecap: round"/>
   </g>
   <g id="line2d_20">
    <path d="M 54 241.906777 
L 159.665866 241.834716 
L 164.260034 241.697465 
L 165.408576 241.770911 
L 166.557118 241.393489 
L 167.70566 241.528184 
L 168.854202 241.232249 
L 170.002744 241.360561 
L 171.151286 241.055633 
L 172.299828 240.928758 
L 173.44837 241.501755 
L 174.596913 241.087906 
L 175.745455 240.841537 
L 176.893997 240.400153 
L 178.042539 240.224967 
L 179.191081 240.771562 
L 180.339623 240.239284 
L 181.488165 240.398531 
L 182.636707 239.833594 
L 183.785249 241.141355 
L 184.933791 240.272969 
L 186.082333 239.61824 
L 187.230875 239.558698 
L 188.379417 239.976756 
L 189.527959 240.946609 
L 190.676501 240.539057 
L 191.825043 239.38004 
L 192.973585 238.462475 
L 194.122127 238.23831 
L 195.270669 237.322158 
L 196.419211 240.137369 
L 197.567753 240.192447 
L 198.716295 239.262929 
L 199.864837 241.236331 
L 201.013379 238.913685 
L 202.161921 241.335349 
L 203.310463 238.205252 
L 204.459005 237.316169 
L 205.607547 237.93643 
L 206.756089 239.144982 
L 209.053173 240.121935 
L 210.201715 237.972294 
L 211.350257 240.052444 
L 212.498799 237.562477 
L 213.647341 240.41598 
L 214.795883 241.061557 
L 215.944425 240.732145 
L 217.092967 240.605958 
L 218.241509 239.767005 
L 219.390051 238.159757 
L 220.538593 238.990801 
L 221.687136 241.536137 
L 222.835678 234.867397 
L 223.98422 236.010369 
L 225.132762 241.210464 
L 226.281304 239.467147 
L 227.429846 240.263326 
L 228.578388 241.750954 
L 229.72693 240.576576 
L 230.875472 241.465105 
L 232.024014 241.05215 
L 233.172556 239.131576 
L 234.321098 238.189279 
L 235.46964 240.475492 
L 236.618182 241.748201 
L 237.766724 239.989946 
L 238.915266 239.955221 
L 240.063808 240.591596 
L 241.21235 239.826403 
L 242.360892 239.659019 
L 244.657976 241.489093 
L 245.806518 238.573827 
L 246.95506 239.839843 
L 248.103602 240.209232 
L 249.252144 241.530833 
L 250.400686 241.948745 
L 252.69777 238.831054 
L 253.846312 241.426829 
L 254.994854 240.397705 
L 256.143396 240.889903 
L 257.291938 239.658936 
L 258.44048 241.467152 
L 259.589022 239.640006 
L 260.737564 241.90419 
L 261.886106 239.618145 
L 263.034648 235.709776 
L 264.18319 239.695147 
L 265.331732 240.007601 
L 266.480274 241.023557 
L 267.628816 241.371479 
L 268.777358 240.873702 
L 269.925901 241.238872 
L 271.074443 239.532174 
L 272.222985 239.885522 
L 273.371527 239.378981 
L 274.520069 241.13866 
L 275.668611 240.287962 
L 276.817153 241.333425 
L 277.965695 240.957231 
L 279.114237 241.280998 
L 280.262779 236.632105 
L 282.559863 236.602702 
L 283.708405 230.199606 
L 284.856947 240.317101 
L 286.005489 241.465144 
L 287.154031 238.678459 
L 288.302573 239.574019 
L 289.451115 240.830518 
L 290.599657 240.187053 
L 291.748199 241.590863 
L 292.896741 240.514515 
L 294.045283 240.884877 
L 295.193825 240.620012 
L 296.342367 241.064884 
L 297.490909 240.297488 
L 298.639451 240.934905 
L 299.787993 240.850761 
L 300.936535 238.867954 
L 302.085077 239.927151 
L 303.233619 238.848814 
L 304.382161 240.223623 
L 305.530703 240.235266 
L 306.679245 240.479452 
L 307.827787 238.864928 
L 308.976329 242.067575 
L 310.124871 240.216134 
L 312.421955 238.820533 
L 313.570497 239.073431 
L 314.719039 238.935658 
L 315.867581 241.349338 
L 317.016123 240.412905 
L 318.164666 240.138451 
L 319.313208 241.517839 
L 320.46175 238.540303 
L 321.610292 240.331361 
L 322.758834 240.486951 
L 323.907376 239.513962 
L 325.055918 240.038619 
L 326.20446 240.858253 
L 327.353002 240.912095 
L 328.501544 239.3291 
L 329.650086 242.033409 
L 330.798628 239.861221 
L 331.94717 239.388435 
L 333.095712 241.751151 
L 334.244254 241.194561 
L 335.392796 240.19612 
L 336.541338 241.611413 
L 337.68988 240.760033 
L 338.838422 241.447698 
L 339.986964 239.315629 
L 341.135506 241.551861 
L 342.284048 241.659551 
L 343.43259 240.532591 
L 344.581132 242.004128 
L 345.729674 240.983895 
L 346.878216 241.807203 
L 348.026758 240.073787 
L 349.1753 242.104429 
L 350.323842 240.906501 
L 351.472384 240.56663 
L 352.620926 240.47533 
L 353.769468 239.506683 
L 354.91801 241.30343 
L 356.066552 241.061517 
L 358.363636 241.359614 
L 359.512178 240.953143 
L 360.66072 241.540414 
L 361.809262 240.118484 
L 362.957804 241.017937 
L 364.106346 241.45682 
L 365.254889 237.727972 
L 366.403431 242.112147 
L 367.551973 241.282897 
L 368.700515 241.176601 
L 369.849057 241.302963 
L 370.997599 239.198445 
L 372.146141 241.165573 
L 373.294683 241.057123 
L 374.443225 241.337265 
L 375.591767 242.069418 
L 376.740309 239.254433 
L 377.888851 241.831621 
L 379.037393 242.08576 
L 380.185935 240.232028 
L 381.334477 241.865106 
L 382.483019 241.287653 
L 384.780103 242.003537 
L 385.928645 241.564315 
L 387.077187 241.329158 
L 388.225729 242.033814 
L 389.374271 241.173952 
L 391.671355 240.833907 
L 392.819897 241.895487 
L 393.968439 240.623759 
L 395.116981 240.752871 
L 396.265523 241.448018 
L 397.414065 239.404249 
L 398.562607 241.971797 
L 399.711149 241.966191 
L 400.859691 240.902314 
L 402.008233 242.059926 
L 404.305317 241.384155 
L 405.453859 241.84344 
L 406.602401 241.998693 
L 407.750943 241.603805 
L 408.899485 240.832376 
L 410.048027 241.912874 
L 411.196569 241.886782 
L 412.345111 240.74241 
L 413.493654 239.88657 
L 414.642196 241.981981 
L 416.93928 239.422756 
L 418.087822 241.199578 
L 419.236364 241.003149 
L 420.384906 241.642344 
L 421.533448 239.32939 
L 422.68199 242.082776 
L 423.830532 241.186838 
L 424.979074 241.452361 
L 426.127616 241.193204 
L 427.276158 241.08301 
L 428.4247 241.989768 
L 429.573242 242.003382 
L 430.721784 241.571142 
L 431.870326 240.622266 
L 433 241.973471 
M 433 242.116157 
L -1 242.116157 
L -1 242.116157 
" clip-path="url(#pfa4934f330)" style="fill: none; stroke: #da8bc3; stroke-opacity: 0.3; stroke-width: 1.5; stroke-linecap: round"/>
   </g>
   <g id="patch_3">
    <path d="M 54 252 
L 54 34.56 
" style="fill: none; stroke: #262626; stroke-width: 1.25; stroke-linejoin: miter; stroke-linecap: square"/>
   </g>
   <g id="patch_4">
    <path d="M 388.8 252 
L 388.8 34.56 
" style="fill: none; stroke: #262626; stroke-width: 1.25; stroke-linejoin: miter; stroke-linecap: square"/>
   </g>
   <g id="patch_5">
    <path d="M 54 252 
L 388.8 252 
" style="fill: none; stroke: #262626; stroke-width: 1.25; stroke-linejoin: miter; stroke-linecap: square"/>
   </g>
   <g id="patch_6">
    <path d="M 54 34.56 
L 388.8 34.56 
" style="fill: none; stroke: #262626; stroke-width: 1.25; stroke-linejoin: miter; stroke-linecap: square"/>
   </g>
   <g id="text_15">
    <!-- patient06_app07 - Power spectrum -->
    <g style="fill: #262626" transform="translate(128.0175 28.56)scale(0.12 -0.12)">
     <defs>
      <path id="ArialMT-70" d="M 422 -1272 
L 422 3319 
L 934 3319 
L 934 2888 
Q 1116 3141 1344 3267 
Q 1572 3394 1897 3394 
Q 2322 3394 2647 3175 
Q 2972 2956 3137 2557 
Q 3303 2159 3303 1684 
Q 3303 1175 3120 767 
Q 2938 359 2589 142 
Q 2241 -75 1856 -75 
Q 1575 -75 1351 44 
Q 1128 163 984 344 
L 984 -1272 
L 422 -1272 
z
M 931 1641 
Q 931 1000 1190 694 
Q 1450 388 1819 388 
Q 2194 388 2461 705 
Q 2728 1022 2728 1688 
Q 2728 2322 2467 2637 
Q 2206 2953 1844 2953 
Q 1484 2953 1207 2617 
Q 931 2281 931 1641 
z
" transform="scale(0.015625)"/>
      <path id="ArialMT-61" d="M 2588 409 
Q 2275 144 1986 34 
Q 1697 -75 1366 -75 
Q 819 -75 525 192 
Q 231 459 231 875 
Q 231 1119 342 1320 
Q 453 1522 633 1644 
Q 813 1766 1038 1828 
Q 1203 1872 1538 1913 
Q 2219 1994 2541 2106 
Q 2544 2222 2544 2253 
Q 2544 2597 2384 2738 
Q 2169 2928 1744 2928 
Q 1347 2928 1158 2789 
Q 969 2650 878 2297 
L 328 2372 
Q 403 2725 575 2942 
Q 747 3159 1072 3276 
Q 1397 3394 1825 3394 
Q 2250 3394 2515 3294 
Q 2781 3194 2906 3042 
Q 3031 2891 3081 2659 
Q 3109 2516 3109 2141 
L 3109 1391 
Q 3109 606 3145 398 
Q 3181 191 3288 0 
L 2700 0 
Q 2613 175 2588 409 
z
M 2541 1666 
Q 2234 1541 1622 1453 
Q 1275 1403 1131 1340 
Q 988 1278 909 1158 
Q 831 1038 831 891 
Q 831 666 1001 516 
Q 1172 366 1500 366 
Q 1825 366 2078 508 
Q 2331 650 2450 897 
Q 2541 1088 2541 1459 
L 2541 1666 
z
" transform="scale(0.015625)"/>
      <path id="ArialMT-74" d="M 1650 503 
L 1731 6 
Q 1494 -44 1306 -44 
Q 1000 -44 831 53 
Q 663 150 594 308 
Q 525 466 525 972 
L 525 2881 
L 113 2881 
L 113 3319 
L 525 3319 
L 525 4141 
L 1084 4478 
L 1084 3319 
L 1650 3319 
L 1650 2881 
L 1084 2881 
L 1084 941 
Q 1084 700 1114 631 
Q 1144 563 1211 522 
Q 1278 481 1403 481 
Q 1497 481 1650 503 
z
" transform="scale(0.015625)"/>
      <path id="ArialMT-69" d="M 425 3934 
L 425 4581 
L 988 4581 
L 988 3934 
L 425 3934 
z
M 425 0 
L 425 3319 
L 988 3319 
L 988 0 
L 425 0 
z
" transform="scale(0.015625)"/>
      <path id="ArialMT-36" d="M 3184 3459 
L 2625 3416 
Q 2550 3747 2413 3897 
Q 2184 4138 1850 4138 
Q 1581 4138 1378 3988 
Q 1113 3794 959 3422 
Q 806 3050 800 2363 
Q 1003 2672 1297 2822 
Q 1591 2972 1913 2972 
Q 2475 2972 2870 2558 
Q 3266 2144 3266 1488 
Q 3266 1056 3080 686 
Q 2894 316 2569 119 
Q 2244 -78 1831 -78 
Q 1128 -78 684 439 
Q 241 956 241 2144 
Q 241 3472 731 4075 
Q 1159 4600 1884 4600 
Q 2425 4600 2770 4297 
Q 3116 3994 3184 3459 
z
M 888 1484 
Q 888 1194 1011 928 
Q 1134 663 1356 523 
Q 1578 384 1822 384 
Q 2178 384 2434 671 
Q 2691 959 2691 1453 
Q 2691 1928 2437 2201 
Q 2184 2475 1800 2475 
Q 1419 2475 1153 2201 
Q 888 1928 888 1484 
z
" transform="scale(0.015625)"/>
      <path id="ArialMT-5f" d="M -97 -1272 
L -97 -866 
L 3631 -866 
L 3631 -1272 
L -97 -1272 
z
" transform="scale(0.015625)"/>
      <path id="ArialMT-37" d="M 303 3981 
L 303 4522 
L 3269 4522 
L 3269 4084 
Q 2831 3619 2401 2847 
Q 1972 2075 1738 1259 
Q 1569 684 1522 0 
L 944 0 
Q 953 541 1156 1306 
Q 1359 2072 1739 2783 
Q 2119 3494 2547 3981 
L 303 3981 
z
" transform="scale(0.015625)"/>
      <path id="ArialMT-2d" d="M 203 1375 
L 203 1941 
L 1931 1941 
L 1931 1375 
L 203 1375 
z
" transform="scale(0.015625)"/>
      <path id="ArialMT-50" d="M 494 0 
L 494 4581 
L 2222 4581 
Q 2678 4581 2919 4538 
Q 3256 4481 3484 4323 
Q 3713 4166 3852 3881 
Q 3991 3597 3991 3256 
Q 3991 2672 3619 2267 
Q 3247 1863 2275 1863 
L 1100 1863 
L 1100 0 
L 494 0 
z
M 1100 2403 
L 2284 2403 
Q 2872 2403 3119 2622 
Q 3366 2841 3366 3238 
Q 3366 3525 3220 3729 
Q 3075 3934 2838 4000 
Q 2684 4041 2272 4041 
L 1100 4041 
L 1100 2403 
z
" transform="scale(0.015625)"/>
      <path id="ArialMT-6f" d="M 213 1659 
Q 213 2581 725 3025 
Q 1153 3394 1769 3394 
Q 2453 3394 2887 2945 
Q 3322 2497 3322 1706 
Q 3322 1066 3130 698 
Q 2938 331 2570 128 
Q 2203 -75 1769 -75 
Q 1072 -75 642 372 
Q 213 819 213 1659 
z
M 791 1659 
Q 791 1022 1069 705 
Q 1347 388 1769 388 
Q 2188 388 2466 706 
Q 2744 1025 2744 1678 
Q 2744 2294 2464 2611 
Q 2184 2928 1769 2928 
Q 1347 2928 1069 2612 
Q 791 2297 791 1659 
z
" transform="scale(0.015625)"/>
      <path id="ArialMT-77" d="M 1034 0 
L 19 3319 
L 600 3319 
L 1128 1403 
L 1325 691 
Q 1338 744 1497 1375 
L 2025 3319 
L 2603 3319 
L 3100 1394 
L 3266 759 
L 3456 1400 
L 4025 3319 
L 4572 3319 
L 3534 0 
L 2950 0 
L 2422 1988 
L 2294 2553 
L 1622 0 
L 1034 0 
z
" transform="scale(0.015625)"/>
      <path id="ArialMT-73" d="M 197 991 
L 753 1078 
Q 800 744 1014 566 
Q 1228 388 1613 388 
Q 2000 388 2187 545 
Q 2375 703 2375 916 
Q 2375 1106 2209 1216 
Q 2094 1291 1634 1406 
Q 1016 1563 777 1677 
Q 538 1791 414 1992 
Q 291 2194 291 2438 
Q 291 2659 392 2848 
Q 494 3038 669 3163 
Q 800 3259 1026 3326 
Q 1253 3394 1513 3394 
Q 1903 3394 2198 3281 
Q 2494 3169 2634 2976 
Q 2775 2784 2828 2463 
L 2278 2388 
Q 2241 2644 2061 2787 
Q 1881 2931 1553 2931 
Q 1166 2931 1000 2803 
Q 834 2675 834 2503 
Q 834 2394 903 2306 
Q 972 2216 1119 2156 
Q 1203 2125 1616 2013 
Q 2213 1853 2448 1751 
Q 2684 1650 2818 1456 
Q 2953 1263 2953 975 
Q 2953 694 2789 445 
Q 2625 197 2315 61 
Q 2006 -75 1616 -75 
Q 969 -75 630 194 
Q 291 463 197 991 
z
" transform="scale(0.015625)"/>
      <path id="ArialMT-6d" d="M 422 0 
L 422 3319 
L 925 3319 
L 925 2853 
Q 1081 3097 1340 3245 
Q 1600 3394 1931 3394 
Q 2300 3394 2536 3241 
Q 2772 3088 2869 2813 
Q 3263 3394 3894 3394 
Q 4388 3394 4653 3120 
Q 4919 2847 4919 2278 
L 4919 0 
L 4359 0 
L 4359 2091 
Q 4359 2428 4304 2576 
Q 4250 2725 4106 2815 
Q 3963 2906 3769 2906 
Q 3419 2906 3187 2673 
Q 2956 2441 2956 1928 
L 2956 0 
L 2394 0 
L 2394 2156 
Q 2394 2531 2256 2718 
Q 2119 2906 1806 2906 
Q 1569 2906 1367 2781 
Q 1166 2656 1075 2415 
Q 984 2175 984 1722 
L 984 0 
L 422 0 
z
" transform="scale(0.015625)"/>
     </defs>
     <use xlink:href="#ArialMT-70"/>
     <use xlink:href="#ArialMT-61" x="55.615234"/>
     <use xlink:href="#ArialMT-74" x="111.230469"/>
     <use xlink:href="#ArialMT-69" x="139.013672"/>
     <use xlink:href="#ArialMT-65" x="161.230469"/>
     <use xlink:href="#ArialMT-6e" x="216.845703"/>
     <use xlink:href="#ArialMT-74" x="272.460938"/>
     <use xlink:href="#ArialMT-30" x="300.244141"/>
     <use xlink:href="#ArialMT-36" x="355.859375"/>
     <use xlink:href="#ArialMT-5f" x="411.474609"/>
     <use xlink:href="#ArialMT-61" x="467.089844"/>
     <use xlink:href="#ArialMT-70" x="522.705078"/>
     <use xlink:href="#ArialMT-70" x="578.320312"/>
     <use xlink:href="#ArialMT-30" x="633.935547"/>
     <use xlink:href="#ArialMT-37" x="689.550781"/>
     <use xlink:href="#ArialMT-20" x="745.166016"/>
     <use xlink:href="#ArialMT-2d" x="772.949219"/>
     <use xlink:href="#ArialMT-20" x="806.25"/>
     <use xlink:href="#ArialMT-50" x="834.033203"/>
     <use xlink:href="#ArialMT-6f" x="900.732422"/>
     <use xlink:href="#ArialMT-77" x="956.347656"/>
     <use xlink:href="#ArialMT-65" x="1028.564453"/>
     <use xlink:href="#ArialMT-72" x="1084.179688"/>
     <use xlink:href="#ArialMT-20" x="1117.480469"/>
     <use xlink:href="#ArialMT-73" x="1145.263672"/>
     <use xlink:href="#ArialMT-70" x="1195.263672"/>
     <use xlink:href="#ArialMT-65" x="1250.878906"/>
     <use xlink:href="#ArialMT-63" x="1306.494141"/>
     <use xlink:href="#ArialMT-74" x="1356.494141"/>
     <use xlink:href="#ArialMT-72" x="1384.277344"/>
     <use xlink:href="#ArialMT-75" x="1417.578125"/>
     <use xlink:href="#ArialMT-6d" x="1473.193359"/>
    </g>
   </g>
   <g id="legend_1">
    <g id="patch_7">
     <path d="M 313.503281 152.278906 
L 381.1 152.278906 
Q 383.3 152.278906 383.3 150.078906 
L 383.3 42.26 
Q 383.3 40.06 381.1 40.06 
L 313.503281 40.06 
Q 311.303281 40.06 311.303281 42.26 
L 311.303281 150.078906 
Q 311.303281 152.278906 313.503281 152.278906 
z
" style="fill: #ffffff; opacity: 0.8; stroke: #cccccc; stroke-linejoin: miter"/>
    </g>
    <g id="line2d_21">
     <path d="M 315.703281 48.483594 
L 326.703281 48.483594 
L 337.703281 48.483594 
" style="fill: none; stroke: #4c72b0; stroke-opacity: 0.3; stroke-width: 1.5; stroke-linecap: round"/>
    </g>
    <g id="text_16">
     <!-- IMU9 -->
     <g style="fill: #262626" transform="translate(346.503281 52.333594)scale(0.11 -0.11)">
      <defs>
       <path id="ArialMT-49" d="M 597 0 
L 597 4581 
L 1203 4581 
L 1203 0 
L 597 0 
z
" transform="scale(0.015625)"/>
       <path id="ArialMT-4d" d="M 475 0 
L 475 4581 
L 1388 4581 
L 2472 1338 
Q 2622 884 2691 659 
Q 2769 909 2934 1394 
L 4031 4581 
L 4847 4581 
L 4847 0 
L 4263 0 
L 4263 3834 
L 2931 0 
L 2384 0 
L 1059 3900 
L 1059 0 
L 475 0 
z
" transform="scale(0.015625)"/>
       <path id="ArialMT-55" d="M 3500 4581 
L 4106 4581 
L 4106 1934 
Q 4106 1244 3950 837 
Q 3794 431 3386 176 
Q 2978 -78 2316 -78 
Q 1672 -78 1262 144 
Q 853 366 678 786 
Q 503 1206 503 1934 
L 503 4581 
L 1109 4581 
L 1109 1938 
Q 1109 1341 1220 1058 
Q 1331 775 1601 622 
Q 1872 469 2263 469 
Q 2931 469 3215 772 
Q 3500 1075 3500 1938 
L 3500 4581 
z
" transform="scale(0.015625)"/>
       <path id="ArialMT-39" d="M 350 1059 
L 891 1109 
Q 959 728 1153 556 
Q 1347 384 1650 384 
Q 1909 384 2104 503 
Q 2300 622 2425 820 
Q 2550 1019 2634 1356 
Q 2719 1694 2719 2044 
Q 2719 2081 2716 2156 
Q 2547 1888 2255 1720 
Q 1963 1553 1622 1553 
Q 1053 1553 659 1965 
Q 266 2378 266 3053 
Q 266 3750 677 4175 
Q 1088 4600 1706 4600 
Q 2153 4600 2523 4359 
Q 2894 4119 3086 3673 
Q 3278 3228 3278 2384 
Q 3278 1506 3087 986 
Q 2897 466 2520 194 
Q 2144 -78 1638 -78 
Q 1100 -78 759 220 
Q 419 519 350 1059 
z
M 2653 3081 
Q 2653 3566 2395 3850 
Q 2138 4134 1775 4134 
Q 1400 4134 1122 3828 
Q 844 3522 844 3034 
Q 844 2597 1108 2323 
Q 1372 2050 1759 2050 
Q 2150 2050 2401 2323 
Q 2653 2597 2653 3081 
z
" transform="scale(0.015625)"/>
      </defs>
      <use xlink:href="#ArialMT-49"/>
      <use xlink:href="#ArialMT-4d" x="27.783203"/>
      <use xlink:href="#ArialMT-55" x="111.083984"/>
      <use xlink:href="#ArialMT-39" x="183.300781"/>
     </g>
    </g>
    <g id="line2d_22">
     <path d="M 315.703281 64.043438 
L 326.703281 64.043438 
L 337.703281 64.043438 
" style="fill: none; stroke: #dd8452; stroke-opacity: 0.3; stroke-width: 1.5; stroke-linecap: round"/>
    </g>
    <g id="text_17">
     <!-- IMU10 -->
     <g style="fill: #262626" transform="translate(346.503281 67.893438)scale(0.11 -0.11)">
      <use xlink:href="#ArialMT-49"/>
      <use xlink:href="#ArialMT-4d" x="27.783203"/>
      <use xlink:href="#ArialMT-55" x="111.083984"/>
      <use xlink:href="#ArialMT-31" x="183.300781"/>
      <use xlink:href="#ArialMT-30" x="238.916016"/>
     </g>
    </g>
    <g id="line2d_23">
     <path d="M 315.703281 79.603281 
L 326.703281 79.603281 
L 337.703281 79.603281 
" style="fill: none; stroke: #55a868; stroke-opacity: 0.3; stroke-width: 1.5; stroke-linecap: round"/>
    </g>
    <g id="text_18">
     <!-- IMU11 -->
     <g style="fill: #262626" transform="translate(346.503281 83.453281)scale(0.11 -0.11)">
      <use xlink:href="#ArialMT-49"/>
      <use xlink:href="#ArialMT-4d" x="27.783203"/>
      <use xlink:href="#ArialMT-55" x="111.083984"/>
      <use xlink:href="#ArialMT-31" x="183.300781"/>
      <use xlink:href="#ArialMT-31" x="231.541016"/>
     </g>
    </g>
    <g id="line2d_24">
     <path d="M 315.703281 95.163125 
L 326.703281 95.163125 
L 337.703281 95.163125 
" style="fill: none; stroke: #c44e52; stroke-opacity: 0.3; stroke-width: 1.5; stroke-linecap: round"/>
    </g>
    <g id="text_19">
     <!-- IMU12 -->
     <g style="fill: #262626" transform="translate(346.503281 99.013125)scale(0.11 -0.11)">
      <use xlink:href="#ArialMT-49"/>
      <use xlink:href="#ArialMT-4d" x="27.783203"/>
      <use xlink:href="#ArialMT-55" x="111.083984"/>
      <use xlink:href="#ArialMT-31" x="183.300781"/>
      <use xlink:href="#ArialMT-32" x="238.916016"/>
     </g>
    </g>
    <g id="line2d_25">
     <path d="M 315.703281 110.722969 
L 326.703281 110.722969 
L 337.703281 110.722969 
" style="fill: none; stroke: #8172b3; stroke-opacity: 0.3; stroke-width: 1.5; stroke-linecap: round"/>
    </g>
    <g id="text_20">
     <!-- IMU13 -->
     <g style="fill: #262626" transform="translate(346.503281 114.572969)scale(0.11 -0.11)">
      <use xlink:href="#ArialMT-49"/>
      <use xlink:href="#ArialMT-4d" x="27.783203"/>
      <use xlink:href="#ArialMT-55" x="111.083984"/>
      <use xlink:href="#ArialMT-31" x="183.300781"/>
      <use xlink:href="#ArialMT-33" x="238.916016"/>
     </g>
    </g>
    <g id="line2d_26">
     <path d="M 315.703281 126.282813 
L 326.703281 126.282813 
L 337.703281 126.282813 
" style="fill: none; stroke: #937860; stroke-opacity: 0.3; stroke-width: 1.5; stroke-linecap: round"/>
    </g>
    <g id="text_21">
     <!-- IMU14 -->
     <g style="fill: #262626" transform="translate(346.503281 130.132812)scale(0.11 -0.11)">
      <defs>
       <path id="ArialMT-34" d="M 2069 0 
L 2069 1097 
L 81 1097 
L 81 1613 
L 2172 4581 
L 2631 4581 
L 2631 1613 
L 3250 1613 
L 3250 1097 
L 2631 1097 
L 2631 0 
L 2069 0 
z
M 2069 1613 
L 2069 3678 
L 634 1613 
L 2069 1613 
z
" transform="scale(0.015625)"/>
      </defs>
      <use xlink:href="#ArialMT-49"/>
      <use xlink:href="#ArialMT-4d" x="27.783203"/>
      <use xlink:href="#ArialMT-55" x="111.083984"/>
      <use xlink:href="#ArialMT-31" x="183.300781"/>
      <use xlink:href="#ArialMT-34" x="238.916016"/>
     </g>
    </g>
    <g id="line2d_27">
     <path d="M 315.703281 141.842656 
L 326.703281 141.842656 
L 337.703281 141.842656 
" style="fill: none; stroke: #da8bc3; stroke-opacity: 0.3; stroke-width: 1.5; stroke-linecap: round"/>
    </g>
    <g id="text_22">
     <!-- IMU15 -->
     <g style="fill: #262626" transform="translate(346.503281 145.692656)scale(0.11 -0.11)">
      <use xlink:href="#ArialMT-49"/>
      <use xlink:href="#ArialMT-4d" x="27.783203"/>
      <use xlink:href="#ArialMT-55" x="111.083984"/>
      <use xlink:href="#ArialMT-31" x="183.300781"/>
      <use xlink:href="#ArialMT-35" x="238.916016"/>
     </g>
    </g>
   </g>
  </g>
 </g>
 <defs>
  <clipPath id="pfa4934f330">
   <rect x="54" y="34.56" width="334.8" height="217.44"/>
  </clipPath>
 </defs>
</svg>
