<?xml version="1.0" encoding="utf-8" standalone="no"?>
<!DOCTYPE svg PUBLIC "-//W3C//DTD SVG 1.1//EN"
  "http://www.w3.org/Graphics/SVG/1.1/DTD/svg11.dtd">
<svg xmlns:xlink="http://www.w3.org/1999/xlink" width="432pt" height="288pt" viewBox="0 0 432 288" xmlns="http://www.w3.org/2000/svg" version="1.1">
 <metadata>
  <rdf:RDF xmlns:dc="http://purl.org/dc/elements/1.1/" xmlns:cc="http://creativecommons.org/ns#" xmlns:rdf="http://www.w3.org/1999/02/22-rdf-syntax-ns#">
   <cc:Work>
    <dc:type rdf:resource="http://purl.org/dc/dcmitype/StillImage"/>
    <dc:date>2022-07-08T13:58:12.311146</dc:date>
    <dc:format>image/svg+xml</dc:format>
    <dc:creator>
     <cc:Agent>
      <dc:title>Matplotlib v3.5.1, https://matplotlib.org/</dc:title>
     </cc:Agent>
    </dc:creator>
   </cc:Work>
  </rdf:RDF>
 </metadata>
 <defs>
  <style type="text/css">*{stroke-linejoin: round; stroke-linecap: butt}</style>
 </defs>
 <g id="figure_1">
  <g id="patch_1">
   <path d="M 0 288 
L 432 288 
L 432 0 
L 0 0 
z
" style="fill: #ffffff"/>
  </g>
  <g id="axes_1">
   <g id="patch_2">
    <path d="M 54 252 
L 388.8 252 
L 388.8 34.56 
L 54 34.56 
z
" style="fill: #ffffff"/>
   </g>
   <g id="matplotlib.axis_1">
    <g id="xtick_1">
     <g id="line2d_1">
      <defs>
       <path id="m18d4c16c03" d="M 0 0 
L 0 6 
" style="stroke: #262626; stroke-width: 1.25"/>
      </defs>
      <g>
       <use xlink:href="#m18d4c16c03" x="54" y="252" style="fill: #262626; stroke: #262626; stroke-width: 1.25"/>
      </g>
     </g>
     <g id="text_1">
      <!-- 0 -->
      <g style="fill: #262626" transform="translate(50.941484 269.373594)scale(0.11 -0.11)">
       <defs>
        <path id="ArialMT-30" d="M 266 2259 
Q 266 3072 433 3567 
Q 600 4063 929 4331 
Q 1259 4600 1759 4600 
Q 2128 4600 2406 4451 
Q 2684 4303 2865 4023 
Q 3047 3744 3150 3342 
Q 3253 2941 3253 2259 
Q 3253 1453 3087 958 
Q 2922 463 2592 192 
Q 2263 -78 1759 -78 
Q 1097 -78 719 397 
Q 266 969 266 2259 
z
M 844 2259 
Q 844 1131 1108 757 
Q 1372 384 1759 384 
Q 2147 384 2411 759 
Q 2675 1134 2675 2259 
Q 2675 3391 2411 3762 
Q 2147 4134 1753 4134 
Q 1366 4134 1134 3806 
Q 844 3388 844 2259 
z
" transform="scale(0.015625)"/>
       </defs>
       <use xlink:href="#ArialMT-30"/>
      </g>
     </g>
    </g>
    <g id="xtick_2">
     <g id="line2d_2">
      <g>
       <use xlink:href="#m18d4c16c03" x="120.96" y="252" style="fill: #262626; stroke: #262626; stroke-width: 1.25"/>
      </g>
     </g>
     <g id="text_2">
      <!-- 5 -->
      <g style="fill: #262626" transform="translate(117.901484 269.373594)scale(0.11 -0.11)">
       <defs>
        <path id="ArialMT-35" d="M 266 1200 
L 856 1250 
Q 922 819 1161 601 
Q 1400 384 1738 384 
Q 2144 384 2425 690 
Q 2706 997 2706 1503 
Q 2706 1984 2436 2262 
Q 2166 2541 1728 2541 
Q 1456 2541 1237 2417 
Q 1019 2294 894 2097 
L 366 2166 
L 809 4519 
L 3088 4519 
L 3088 3981 
L 1259 3981 
L 1013 2750 
Q 1425 3038 1878 3038 
Q 2478 3038 2890 2622 
Q 3303 2206 3303 1553 
Q 3303 931 2941 478 
Q 2500 -78 1738 -78 
Q 1113 -78 717 272 
Q 322 622 266 1200 
z
" transform="scale(0.015625)"/>
       </defs>
       <use xlink:href="#ArialMT-35"/>
      </g>
     </g>
    </g>
    <g id="xtick_3">
     <g id="line2d_3">
      <g>
       <use xlink:href="#m18d4c16c03" x="187.92" y="252" style="fill: #262626; stroke: #262626; stroke-width: 1.25"/>
      </g>
     </g>
     <g id="text_3">
      <!-- 10 -->
      <g style="fill: #262626" transform="translate(181.802969 269.373594)scale(0.11 -0.11)">
       <defs>
        <path id="ArialMT-31" d="M 2384 0 
L 1822 0 
L 1822 3584 
Q 1619 3391 1289 3197 
Q 959 3003 697 2906 
L 697 3450 
Q 1169 3672 1522 3987 
Q 1875 4303 2022 4600 
L 2384 4600 
L 2384 0 
z
" transform="scale(0.015625)"/>
       </defs>
       <use xlink:href="#ArialMT-31"/>
       <use xlink:href="#ArialMT-30" x="55.615234"/>
      </g>
     </g>
    </g>
    <g id="xtick_4">
     <g id="line2d_4">
      <g>
       <use xlink:href="#m18d4c16c03" x="254.88" y="252" style="fill: #262626; stroke: #262626; stroke-width: 1.25"/>
      </g>
     </g>
     <g id="text_4">
      <!-- 15 -->
      <g style="fill: #262626" transform="translate(248.762969 269.373594)scale(0.11 -0.11)">
       <use xlink:href="#ArialMT-31"/>
       <use xlink:href="#ArialMT-35" x="55.615234"/>
      </g>
     </g>
    </g>
    <g id="xtick_5">
     <g id="line2d_5">
      <g>
       <use xlink:href="#m18d4c16c03" x="321.84" y="252" style="fill: #262626; stroke: #262626; stroke-width: 1.25"/>
      </g>
     </g>
     <g id="text_5">
      <!-- 20 -->
      <g style="fill: #262626" transform="translate(315.722969 269.373594)scale(0.11 -0.11)">
       <defs>
        <path id="ArialMT-32" d="M 3222 541 
L 3222 0 
L 194 0 
Q 188 203 259 391 
Q 375 700 629 1000 
Q 884 1300 1366 1694 
Q 2113 2306 2375 2664 
Q 2638 3022 2638 3341 
Q 2638 3675 2398 3904 
Q 2159 4134 1775 4134 
Q 1369 4134 1125 3890 
Q 881 3647 878 3216 
L 300 3275 
Q 359 3922 746 4261 
Q 1134 4600 1788 4600 
Q 2447 4600 2831 4234 
Q 3216 3869 3216 3328 
Q 3216 3053 3103 2787 
Q 2991 2522 2730 2228 
Q 2469 1934 1863 1422 
Q 1356 997 1212 845 
Q 1069 694 975 541 
L 3222 541 
z
" transform="scale(0.015625)"/>
       </defs>
       <use xlink:href="#ArialMT-32"/>
       <use xlink:href="#ArialMT-30" x="55.615234"/>
      </g>
     </g>
    </g>
    <g id="xtick_6">
     <g id="line2d_6">
      <g>
       <use xlink:href="#m18d4c16c03" x="388.8" y="252" style="fill: #262626; stroke: #262626; stroke-width: 1.25"/>
      </g>
     </g>
     <g id="text_6">
      <!-- 25 -->
      <g style="fill: #262626" transform="translate(382.682969 269.373594)scale(0.11 -0.11)">
       <use xlink:href="#ArialMT-32"/>
       <use xlink:href="#ArialMT-35" x="55.615234"/>
      </g>
     </g>
    </g>
    <g id="text_7">
     <!-- Frequency (Hz) -->
     <g style="fill: #262626" transform="translate(180.059063 284.295469)scale(0.12 -0.12)">
      <defs>
       <path id="ArialMT-46" d="M 525 0 
L 525 4581 
L 3616 4581 
L 3616 4041 
L 1131 4041 
L 1131 2622 
L 3281 2622 
L 3281 2081 
L 1131 2081 
L 1131 0 
L 525 0 
z
" transform="scale(0.015625)"/>
       <path id="ArialMT-72" d="M 416 0 
L 416 3319 
L 922 3319 
L 922 2816 
Q 1116 3169 1280 3281 
Q 1444 3394 1641 3394 
Q 1925 3394 2219 3213 
L 2025 2691 
Q 1819 2813 1613 2813 
Q 1428 2813 1281 2702 
Q 1134 2591 1072 2394 
Q 978 2094 978 1738 
L 978 0 
L 416 0 
z
" transform="scale(0.015625)"/>
       <path id="ArialMT-65" d="M 2694 1069 
L 3275 997 
Q 3138 488 2766 206 
Q 2394 -75 1816 -75 
Q 1088 -75 661 373 
Q 234 822 234 1631 
Q 234 2469 665 2931 
Q 1097 3394 1784 3394 
Q 2450 3394 2872 2941 
Q 3294 2488 3294 1666 
Q 3294 1616 3291 1516 
L 816 1516 
Q 847 969 1125 678 
Q 1403 388 1819 388 
Q 2128 388 2347 550 
Q 2566 713 2694 1069 
z
M 847 1978 
L 2700 1978 
Q 2663 2397 2488 2606 
Q 2219 2931 1791 2931 
Q 1403 2931 1139 2672 
Q 875 2413 847 1978 
z
" transform="scale(0.015625)"/>
       <path id="ArialMT-71" d="M 2538 -1272 
L 2538 353 
Q 2406 169 2170 47 
Q 1934 -75 1669 -75 
Q 1078 -75 651 397 
Q 225 869 225 1691 
Q 225 2191 398 2587 
Q 572 2984 901 3189 
Q 1231 3394 1625 3394 
Q 2241 3394 2594 2875 
L 2594 3319 
L 3100 3319 
L 3100 -1272 
L 2538 -1272 
z
M 803 1669 
Q 803 1028 1072 708 
Q 1341 388 1716 388 
Q 2075 388 2334 692 
Q 2594 997 2594 1619 
Q 2594 2281 2320 2615 
Q 2047 2950 1678 2950 
Q 1313 2950 1058 2639 
Q 803 2328 803 1669 
z
" transform="scale(0.015625)"/>
       <path id="ArialMT-75" d="M 2597 0 
L 2597 488 
Q 2209 -75 1544 -75 
Q 1250 -75 995 37 
Q 741 150 617 320 
Q 494 491 444 738 
Q 409 903 409 1263 
L 409 3319 
L 972 3319 
L 972 1478 
Q 972 1038 1006 884 
Q 1059 663 1231 536 
Q 1403 409 1656 409 
Q 1909 409 2131 539 
Q 2353 669 2445 892 
Q 2538 1116 2538 1541 
L 2538 3319 
L 3100 3319 
L 3100 0 
L 2597 0 
z
" transform="scale(0.015625)"/>
       <path id="ArialMT-6e" d="M 422 0 
L 422 3319 
L 928 3319 
L 928 2847 
Q 1294 3394 1984 3394 
Q 2284 3394 2536 3286 
Q 2788 3178 2913 3003 
Q 3038 2828 3088 2588 
Q 3119 2431 3119 2041 
L 3119 0 
L 2556 0 
L 2556 2019 
Q 2556 2363 2490 2533 
Q 2425 2703 2258 2804 
Q 2091 2906 1866 2906 
Q 1506 2906 1245 2678 
Q 984 2450 984 1813 
L 984 0 
L 422 0 
z
" transform="scale(0.015625)"/>
       <path id="ArialMT-63" d="M 2588 1216 
L 3141 1144 
Q 3050 572 2676 248 
Q 2303 -75 1759 -75 
Q 1078 -75 664 370 
Q 250 816 250 1647 
Q 250 2184 428 2587 
Q 606 2991 970 3192 
Q 1334 3394 1763 3394 
Q 2303 3394 2647 3120 
Q 2991 2847 3088 2344 
L 2541 2259 
Q 2463 2594 2264 2762 
Q 2066 2931 1784 2931 
Q 1359 2931 1093 2626 
Q 828 2322 828 1663 
Q 828 994 1084 691 
Q 1341 388 1753 388 
Q 2084 388 2306 591 
Q 2528 794 2588 1216 
z
" transform="scale(0.015625)"/>
       <path id="ArialMT-79" d="M 397 -1278 
L 334 -750 
Q 519 -800 656 -800 
Q 844 -800 956 -737 
Q 1069 -675 1141 -563 
Q 1194 -478 1313 -144 
Q 1328 -97 1363 -6 
L 103 3319 
L 709 3319 
L 1400 1397 
Q 1534 1031 1641 628 
Q 1738 1016 1872 1384 
L 2581 3319 
L 3144 3319 
L 1881 -56 
Q 1678 -603 1566 -809 
Q 1416 -1088 1222 -1217 
Q 1028 -1347 759 -1347 
Q 597 -1347 397 -1278 
z
" transform="scale(0.015625)"/>
       <path id="ArialMT-20" transform="scale(0.015625)"/>
       <path id="ArialMT-28" d="M 1497 -1347 
Q 1031 -759 709 28 
Q 388 816 388 1659 
Q 388 2403 628 3084 
Q 909 3875 1497 4659 
L 1900 4659 
Q 1522 4009 1400 3731 
Q 1209 3300 1100 2831 
Q 966 2247 966 1656 
Q 966 153 1900 -1347 
L 1497 -1347 
z
" transform="scale(0.015625)"/>
       <path id="ArialMT-48" d="M 513 0 
L 513 4581 
L 1119 4581 
L 1119 2700 
L 3500 2700 
L 3500 4581 
L 4106 4581 
L 4106 0 
L 3500 0 
L 3500 2159 
L 1119 2159 
L 1119 0 
L 513 0 
z
" transform="scale(0.015625)"/>
       <path id="ArialMT-7a" d="M 125 0 
L 125 456 
L 2238 2881 
Q 1878 2863 1603 2863 
L 250 2863 
L 250 3319 
L 2963 3319 
L 2963 2947 
L 1166 841 
L 819 456 
Q 1197 484 1528 484 
L 3063 484 
L 3063 0 
L 125 0 
z
" transform="scale(0.015625)"/>
       <path id="ArialMT-29" d="M 791 -1347 
L 388 -1347 
Q 1322 153 1322 1656 
Q 1322 2244 1188 2822 
Q 1081 3291 891 3722 
Q 769 4003 388 4659 
L 791 4659 
Q 1378 3875 1659 3084 
Q 1900 2403 1900 1659 
Q 1900 816 1576 28 
Q 1253 -759 791 -1347 
z
" transform="scale(0.015625)"/>
      </defs>
      <use xlink:href="#ArialMT-46"/>
      <use xlink:href="#ArialMT-72" x="61.083984"/>
      <use xlink:href="#ArialMT-65" x="94.384766"/>
      <use xlink:href="#ArialMT-71" x="150"/>
      <use xlink:href="#ArialMT-75" x="205.615234"/>
      <use xlink:href="#ArialMT-65" x="261.230469"/>
      <use xlink:href="#ArialMT-6e" x="316.845703"/>
      <use xlink:href="#ArialMT-63" x="372.460938"/>
      <use xlink:href="#ArialMT-79" x="422.460938"/>
      <use xlink:href="#ArialMT-20" x="472.460938"/>
      <use xlink:href="#ArialMT-28" x="500.244141"/>
      <use xlink:href="#ArialMT-48" x="533.544922"/>
      <use xlink:href="#ArialMT-7a" x="605.761719"/>
      <use xlink:href="#ArialMT-29" x="655.761719"/>
     </g>
    </g>
   </g>
   <g id="matplotlib.axis_2">
    <g id="ytick_1">
     <g id="line2d_7">
      <defs>
       <path id="m8bd864ce79" d="M 0 0 
L -6 0 
" style="stroke: #262626; stroke-width: 1.25"/>
      </defs>
      <g>
       <use xlink:href="#m8bd864ce79" x="54" y="242.116364" style="fill: #262626; stroke: #262626; stroke-width: 1.25"/>
      </g>
     </g>
     <g id="text_8">
      <!-- 0 -->
      <g style="fill: #262626" transform="translate(38.382969 246.053161)scale(0.11 -0.11)">
       <use xlink:href="#ArialMT-30"/>
      </g>
     </g>
    </g>
    <g id="ytick_2">
     <g id="line2d_8">
      <g>
       <use xlink:href="#m8bd864ce79" x="54" y="213.051143" style="fill: #262626; stroke: #262626; stroke-width: 1.25"/>
      </g>
     </g>
     <g id="text_9">
      <!-- 5000 -->
      <g style="fill: #262626" transform="translate(20.031875 216.987939)scale(0.11 -0.11)">
       <use xlink:href="#ArialMT-35"/>
       <use xlink:href="#ArialMT-30" x="55.615234"/>
       <use xlink:href="#ArialMT-30" x="111.230469"/>
       <use xlink:href="#ArialMT-30" x="166.845703"/>
      </g>
     </g>
    </g>
    <g id="ytick_3">
     <g id="line2d_9">
      <g>
       <use xlink:href="#m8bd864ce79" x="54" y="183.985922" style="fill: #262626; stroke: #262626; stroke-width: 1.25"/>
      </g>
     </g>
     <g id="text_10">
      <!-- 10000 -->
      <g style="fill: #262626" transform="translate(13.914844 187.922718)scale(0.11 -0.11)">
       <use xlink:href="#ArialMT-31"/>
       <use xlink:href="#ArialMT-30" x="55.615234"/>
       <use xlink:href="#ArialMT-30" x="111.230469"/>
       <use xlink:href="#ArialMT-30" x="166.845703"/>
       <use xlink:href="#ArialMT-30" x="222.460938"/>
      </g>
     </g>
    </g>
    <g id="ytick_4">
     <g id="line2d_10">
      <g>
       <use xlink:href="#m8bd864ce79" x="54" y="154.9207" style="fill: #262626; stroke: #262626; stroke-width: 1.25"/>
      </g>
     </g>
     <g id="text_11">
      <!-- 15000 -->
      <g style="fill: #262626" transform="translate(13.914844 158.857497)scale(0.11 -0.11)">
       <use xlink:href="#ArialMT-31"/>
       <use xlink:href="#ArialMT-35" x="55.615234"/>
       <use xlink:href="#ArialMT-30" x="111.230469"/>
       <use xlink:href="#ArialMT-30" x="166.845703"/>
       <use xlink:href="#ArialMT-30" x="222.460938"/>
      </g>
     </g>
    </g>
    <g id="ytick_5">
     <g id="line2d_11">
      <g>
       <use xlink:href="#m8bd864ce79" x="54" y="125.855479" style="fill: #262626; stroke: #262626; stroke-width: 1.25"/>
      </g>
     </g>
     <g id="text_12">
      <!-- 20000 -->
      <g style="fill: #262626" transform="translate(13.914844 129.792276)scale(0.11 -0.11)">
       <use xlink:href="#ArialMT-32"/>
       <use xlink:href="#ArialMT-30" x="55.615234"/>
       <use xlink:href="#ArialMT-30" x="111.230469"/>
       <use xlink:href="#ArialMT-30" x="166.845703"/>
       <use xlink:href="#ArialMT-30" x="222.460938"/>
      </g>
     </g>
    </g>
    <g id="ytick_6">
     <g id="line2d_12">
      <g>
       <use xlink:href="#m8bd864ce79" x="54" y="96.790258" style="fill: #262626; stroke: #262626; stroke-width: 1.25"/>
      </g>
     </g>
     <g id="text_13">
      <!-- 25000 -->
      <g style="fill: #262626" transform="translate(13.914844 100.727055)scale(0.11 -0.11)">
       <use xlink:href="#ArialMT-32"/>
       <use xlink:href="#ArialMT-35" x="55.615234"/>
       <use xlink:href="#ArialMT-30" x="111.230469"/>
       <use xlink:href="#ArialMT-30" x="166.845703"/>
       <use xlink:href="#ArialMT-30" x="222.460938"/>
      </g>
     </g>
    </g>
    <g id="ytick_7">
     <g id="line2d_13">
      <g>
       <use xlink:href="#m8bd864ce79" x="54" y="67.725037" style="fill: #262626; stroke: #262626; stroke-width: 1.25"/>
      </g>
     </g>
     <g id="text_14">
      <!-- 30000 -->
      <g style="fill: #262626" transform="translate(13.914844 71.661834)scale(0.11 -0.11)">
       <defs>
        <path id="ArialMT-33" d="M 269 1209 
L 831 1284 
Q 928 806 1161 595 
Q 1394 384 1728 384 
Q 2125 384 2398 659 
Q 2672 934 2672 1341 
Q 2672 1728 2419 1979 
Q 2166 2231 1775 2231 
Q 1616 2231 1378 2169 
L 1441 2663 
Q 1497 2656 1531 2656 
Q 1891 2656 2178 2843 
Q 2466 3031 2466 3422 
Q 2466 3731 2256 3934 
Q 2047 4138 1716 4138 
Q 1388 4138 1169 3931 
Q 950 3725 888 3313 
L 325 3413 
Q 428 3978 793 4289 
Q 1159 4600 1703 4600 
Q 2078 4600 2393 4439 
Q 2709 4278 2876 4000 
Q 3044 3722 3044 3409 
Q 3044 3113 2884 2869 
Q 2725 2625 2413 2481 
Q 2819 2388 3044 2092 
Q 3269 1797 3269 1353 
Q 3269 753 2831 336 
Q 2394 -81 1725 -81 
Q 1122 -81 723 278 
Q 325 638 269 1209 
z
" transform="scale(0.015625)"/>
       </defs>
       <use xlink:href="#ArialMT-33"/>
       <use xlink:href="#ArialMT-30" x="55.615234"/>
       <use xlink:href="#ArialMT-30" x="111.230469"/>
       <use xlink:href="#ArialMT-30" x="166.845703"/>
       <use xlink:href="#ArialMT-30" x="222.460938"/>
      </g>
     </g>
    </g>
    <g id="ytick_8">
     <g id="line2d_14">
      <g>
       <use xlink:href="#m8bd864ce79" x="54" y="38.659816" style="fill: #262626; stroke: #262626; stroke-width: 1.25"/>
      </g>
     </g>
     <g id="text_15">
      <!-- 35000 -->
      <g style="fill: #262626" transform="translate(13.914844 42.596613)scale(0.11 -0.11)">
       <use xlink:href="#ArialMT-33"/>
       <use xlink:href="#ArialMT-35" x="55.615234"/>
       <use xlink:href="#ArialMT-30" x="111.230469"/>
       <use xlink:href="#ArialMT-30" x="166.845703"/>
       <use xlink:href="#ArialMT-30" x="222.460938"/>
      </g>
     </g>
    </g>
   </g>
   <g id="line2d_15">
    <path d="M 54 242.094434 
L 151.950092 242.019064 
L 153.596312 241.933613 
L 156.065642 242.018578 
L 156.888752 241.922244 
L 158.534972 241.496806 
L 159.358082 241.372834 
L 161.827412 241.286631 
L 162.650522 240.930661 
L 164.296742 239.628957 
L 165.119852 239.212249 
L 167.589183 240.068547 
L 168.412293 240.100906 
L 170.881623 236.352181 
L 171.704733 235.966759 
L 173.350953 238.085182 
L 174.174063 239.292292 
L 174.997173 239.270071 
L 175.820283 238.497681 
L 176.643393 236.916448 
L 177.466503 235.977124 
L 178.289613 235.841263 
L 179.935833 237.766628 
L 180.758943 237.459298 
L 181.582053 236.183627 
L 182.405163 232.500812 
L 183.228273 230.898071 
L 184.051383 230.307078 
L 184.874493 230.695925 
L 185.697603 231.253411 
L 186.520713 231.299526 
L 187.343823 229.771925 
L 188.990043 222.724035 
L 189.813153 221.573899 
L 190.636263 223.201219 
L 191.459373 225.679653 
L 192.282483 227.350163 
L 193.105593 229.789733 
L 194.751813 225.126234 
L 195.574923 220.910252 
L 196.398033 219.345344 
L 197.221143 222.727252 
L 198.867363 233.249442 
L 199.690473 237.851445 
L 200.513583 239.404034 
L 201.336693 234.887577 
L 202.159803 229.625377 
L 202.982913 225.963758 
L 203.806023 227.408274 
L 204.629133 230.978578 
L 205.452243 232.348669 
L 206.275353 231.153878 
L 207.098463 220.007373 
L 207.921573 214.17092 
L 208.744683 209.516519 
L 209.567793 206.632484 
L 210.390904 202.774534 
L 211.214014 206.616078 
L 212.037124 209.625492 
L 212.860234 213.761388 
L 213.683344 214.876075 
L 214.506454 210.119947 
L 216.152674 223.887515 
L 216.975784 229.205814 
L 218.622004 230.829078 
L 219.445114 231.940189 
L 220.268224 235.945527 
L 221.091334 235.829589 
L 221.914444 237.805319 
L 222.737554 234.5405 
L 223.560664 232.313965 
L 224.383774 226.345687 
L 225.206884 221.787952 
L 226.029994 222.185806 
L 226.853104 226.751478 
L 227.676214 228.068873 
L 228.499324 230.012924 
L 230.145544 226.455539 
L 230.968654 224.576168 
L 231.791764 225.893409 
L 232.614874 224.815414 
L 233.437984 230.972771 
L 234.261094 236.163591 
L 235.084204 238.768394 
L 235.907314 239.665475 
L 236.730424 238.029944 
L 237.553534 238.164234 
L 238.376644 236.453323 
L 239.199754 235.510143 
L 240.022864 235.993896 
L 240.845974 231.878295 
L 241.669084 229.609528 
L 243.315304 223.214155 
L 244.138414 224.083783 
L 244.961524 226.43938 
L 245.784634 227.16329 
L 246.607744 222.937146 
L 247.430854 211.190634 
L 249.077074 200.823371 
L 249.900184 201.388241 
L 250.723294 212.209372 
L 252.369514 222.176737 
L 253.192624 225.378268 
L 254.015734 223.544902 
L 254.838844 221.1827 
L 255.661955 221.393328 
L 256.485065 220.633043 
L 257.308175 229.225973 
L 258.131285 233.628947 
L 258.954395 235.124304 
L 259.777505 230.881045 
L 260.600615 225.290354 
L 261.423725 224.705666 
L 262.246835 222.442884 
L 263.069945 223.979044 
L 263.893055 226.22612 
L 264.716165 226.381527 
L 265.539275 226.076939 
L 266.362385 222.707778 
L 267.185495 212.112175 
L 268.008605 213.772987 
L 268.831715 212.456542 
L 269.654825 213.378137 
L 270.477935 217.97314 
L 271.301045 215.443592 
L 272.124155 212.386171 
L 272.947265 206.265587 
L 273.770375 211.156421 
L 274.593485 208.054388 
L 275.416595 215.126668 
L 276.239705 218.880849 
L 277.062815 221.58737 
L 277.885925 223.771263 
L 279.532145 216.72888 
L 280.355255 219.092509 
L 281.178365 234.540948 
L 282.001475 209.066919 
L 282.824585 232.804001 
L 283.647695 236.260557 
L 285.293915 220.886326 
L 286.117025 221.250639 
L 286.940135 219.514672 
L 287.763245 225.237074 
L 288.586355 229.266793 
L 289.409465 226.896219 
L 290.232575 227.259464 
L 291.055685 221.977807 
L 292.701905 227.48532 
L 293.525015 227.819573 
L 294.348125 229.157887 
L 295.171235 224.777778 
L 295.994345 223.28233 
L 296.817455 217.193199 
L 297.640565 216.427653 
L 298.463675 214.713157 
L 299.286785 217.999031 
L 301.756116 236.416874 
L 302.579226 238.177499 
L 303.402336 235.204211 
L 304.225446 233.03799 
L 305.048556 233.052774 
L 305.871666 232.734995 
L 306.694776 237.098487 
L 307.517886 237.559952 
L 308.340996 241.312865 
L 309.164106 241.491607 
L 309.987216 241.460146 
L 310.810326 240.137503 
L 311.633436 236.975274 
L 312.456546 238.71145 
L 313.279656 239.594608 
L 314.102766 240.96735 
L 314.925876 240.876916 
L 315.748986 240.27983 
L 316.572096 239.095769 
L 317.395206 240.412049 
L 318.218316 239.978455 
L 319.041426 239.018576 
L 319.864536 240.719359 
L 321.510756 240.992033 
L 322.333866 241.555152 
L 323.156976 241.637911 
L 323.980086 241.924106 
L 324.803196 241.660866 
L 325.626306 241.944563 
L 326.449416 241.578173 
L 328.095636 241.586433 
L 329.741856 241.124916 
L 330.564966 240.71216 
L 331.388076 239.88504 
L 332.211186 239.629599 
L 333.034296 239.71266 
L 333.857406 240.909019 
L 334.680516 239.623551 
L 335.503626 239.535785 
L 336.326736 240.432107 
L 337.149846 239.754212 
L 337.972956 239.27997 
L 338.796066 239.195105 
L 339.619176 239.691468 
L 340.442286 239.910908 
L 341.265396 241.052909 
L 342.911616 241.804077 
L 343.734726 240.611198 
L 344.557837 240.859013 
L 345.380947 241.45544 
L 346.204057 241.51216 
L 347.027167 241.009379 
L 347.850277 240.713752 
L 348.673387 240.185319 
L 349.496497 239.963358 
L 350.319607 238.592845 
L 351.142717 239.760458 
L 351.965827 239.366167 
L 352.788937 238.837286 
L 354.435157 237.182609 
L 355.258267 236.7581 
L 356.081377 238.574069 
L 356.904487 237.452988 
L 358.550707 240.19467 
L 359.373817 240.269334 
L 360.196927 239.993727 
L 361.020037 239.065446 
L 361.843147 238.91488 
L 362.666257 239.783042 
L 363.489367 240.276191 
L 365.135587 241.910089 
L 365.958697 241.783686 
L 366.781807 240.85269 
L 367.604917 240.734905 
L 369.251137 241.073678 
L 370.074247 240.495219 
L 370.897357 240.847587 
L 371.720467 240.779609 
L 373.366687 240.210045 
L 374.189797 238.811991 
L 375.012907 239.917679 
L 375.836017 239.451855 
L 376.659127 240.285209 
L 377.482237 239.851743 
L 378.305347 239.047474 
L 379.128457 237.425962 
L 379.951567 237.148099 
L 380.774677 238.222163 
L 381.597787 238.466585 
L 382.420897 238.29056 
L 383.244007 240.082634 
L 384.067117 239.584348 
L 384.890227 239.456436 
L 385.713337 237.013074 
L 386.536447 237.455369 
L 387.359557 236.584412 
L 388.182667 239.432284 
L 389.005778 239.10358 
L 389.828888 240.533534 
L 390.651998 239.37672 
L 391.475108 238.793877 
L 393.121328 239.20917 
L 393.944438 239.311823 
L 394.767548 240.107645 
L 395.590658 240.456382 
L 396.413768 240.331198 
L 397.236878 241.247056 
L 398.059988 239.35208 
L 398.883098 239.323709 
L 400.529318 238.146761 
L 401.352428 239.615386 
L 402.175538 238.593257 
L 402.998648 237.086864 
L 403.821758 235.969195 
L 404.644868 236.534221 
L 405.467978 237.827226 
L 406.291088 238.903907 
L 407.114198 239.182407 
L 407.937308 239.65964 
L 408.760418 239.18252 
L 409.583528 238.501263 
L 410.406638 237.02857 
L 411.229748 236.891271 
L 412.052858 238.452759 
L 412.875968 237.92582 
L 413.699078 239.932674 
L 414.522188 241.07883 
L 415.345298 240.578962 
L 416.168408 240.75978 
L 416.991518 239.856277 
L 417.814628 240.649221 
L 418.637738 240.246327 
L 419.460848 240.272529 
L 420.283958 240.564597 
L 421.107068 239.944295 
L 421.930178 238.85297 
L 422.753288 239.569987 
L 423.576398 239.389617 
L 424.399508 240.056435 
L 426.045728 240.985249 
L 426.868838 239.982047 
L 427.691948 240.346469 
L 428.515058 239.267675 
L 429.338168 238.766513 
L 430.161278 238.903715 
L 430.984388 238.510329 
L 431.807498 239.687783 
L 432.630608 239.937119 
L 433 240.168577 
M 433 242.116345 
L -1 242.116345 
L -1 242.116345 
" clip-path="url(#p07030692d2)" style="fill: none; stroke: #4c72b0; stroke-opacity: 0.3; stroke-width: 1.5; stroke-linecap: round"/>
   </g>
   <g id="line2d_16">
    <path d="M 54 242.095825 
L 156.888752 242.033687 
L 158.534972 241.967138 
L 161.827412 242.024332 
L 164.296742 241.763006 
L 165.942963 242.00703 
L 166.766073 242.094624 
L 168.412293 241.931386 
L 170.058513 241.743877 
L 171.704733 241.971489 
L 173.350953 242.101208 
L 174.997173 241.58734 
L 175.820283 241.282788 
L 176.643393 241.38459 
L 177.466503 241.644732 
L 179.112723 241.877309 
L 180.758943 240.798999 
L 181.582053 239.673959 
L 182.405163 239.0328 
L 183.228273 238.690286 
L 184.051383 239.740818 
L 185.697603 240.203278 
L 187.343823 237.741754 
L 188.166933 236.067331 
L 188.990043 236.244896 
L 190.636263 238.81307 
L 191.459373 240.601339 
L 192.282483 240.423818 
L 193.105593 238.503332 
L 193.928703 237.661236 
L 194.751813 236.447816 
L 196.398033 239.278793 
L 197.221143 240.409426 
L 198.044253 241.15065 
L 198.867363 240.542015 
L 199.690473 237.342829 
L 201.336693 234.903255 
L 202.159803 233.141806 
L 202.982913 234.084918 
L 203.806023 233.950641 
L 204.629133 233.428208 
L 205.452243 229.159981 
L 206.275353 226.014751 
L 207.098463 225.381181 
L 207.921573 225.880327 
L 208.744683 229.305601 
L 209.567793 230.237238 
L 210.390904 227.384535 
L 211.214014 226.836398 
L 212.037124 221.822467 
L 212.860234 222.993551 
L 213.683344 225.931892 
L 214.506454 232.805563 
L 215.329564 235.693593 
L 216.152674 236.265032 
L 217.798894 229.861893 
L 218.622004 226.247235 
L 219.445114 225.003992 
L 221.091334 233.471332 
L 221.914444 234.555331 
L 224.383774 227.984787 
L 225.206884 228.466175 
L 226.029994 228.048661 
L 227.676214 231.528257 
L 229.322434 232.978628 
L 230.145544 232.332915 
L 230.968654 235.23247 
L 231.791764 237.000398 
L 232.614874 237.240265 
L 233.437984 238.436742 
L 234.261094 238.067954 
L 235.084204 234.654081 
L 235.907314 234.486929 
L 236.730424 231.732081 
L 238.376644 235.83242 
L 239.199754 236.171698 
L 240.022864 235.2204 
L 240.845974 232.274652 
L 241.669084 230.075375 
L 242.492194 228.586513 
L 243.315304 229.339357 
L 244.138414 232.1168 
L 244.961524 232.939816 
L 245.784634 228.543664 
L 246.607744 227.15623 
L 247.430854 221.437009 
L 248.253964 218.169363 
L 249.077074 224.714498 
L 249.900184 226.363482 
L 251.546404 230.488067 
L 252.369514 228.702393 
L 254.015734 222.41781 
L 254.838844 221.421448 
L 255.661955 224.268172 
L 258.131285 235.698326 
L 258.954395 235.568155 
L 259.777505 229.508721 
L 260.600615 229.221909 
L 261.423725 230.07624 
L 262.246835 233.090018 
L 263.069945 238.09954 
L 263.893055 237.246395 
L 264.716165 236.760249 
L 265.539275 234.990364 
L 266.362385 233.739135 
L 267.185495 231.13853 
L 268.008605 231.228841 
L 268.831715 233.521427 
L 269.654825 233.021578 
L 270.477935 233.799644 
L 271.301045 233.090951 
L 272.124155 230.436951 
L 272.947265 234.145988 
L 273.770375 234.568762 
L 274.593485 234.642564 
L 275.416595 234.316915 
L 276.239705 236.357125 
L 277.062815 235.33405 
L 277.885925 235.03686 
L 278.709035 235.015066 
L 279.532145 237.982938 
L 280.355255 238.781689 
L 281.178365 240.861807 
L 282.001475 238.438638 
L 282.824585 241.62287 
L 283.647695 238.754831 
L 284.470805 232.890155 
L 285.293915 235.033027 
L 286.117025 235.556329 
L 286.940135 239.004623 
L 287.763245 237.692897 
L 289.409465 233.805218 
L 290.232575 231.86523 
L 291.055685 232.320759 
L 291.878795 234.38705 
L 292.701905 232.431405 
L 293.525015 229.073154 
L 294.348125 232.815413 
L 295.171235 230.686145 
L 295.994345 231.638697 
L 296.817455 236.215842 
L 297.640565 239.670989 
L 298.463675 240.501588 
L 299.286785 239.474384 
L 300.109896 237.572825 
L 300.933006 234.997963 
L 301.756116 234.881934 
L 302.579226 232.953796 
L 303.402336 234.407699 
L 304.225446 237.983092 
L 305.048556 240.313363 
L 305.871666 240.218285 
L 306.694776 239.331419 
L 308.340996 235.181194 
L 309.164106 232.406998 
L 309.987216 233.066143 
L 310.810326 231.379033 
L 311.633436 232.568272 
L 312.456546 232.053542 
L 313.279656 234.746815 
L 314.102766 237.997913 
L 314.925876 236.649098 
L 315.748986 236.430674 
L 316.572096 234.211148 
L 318.218316 223.986218 
L 319.041426 228.041696 
L 319.864536 227.568894 
L 320.687646 232.051528 
L 321.510756 235.105013 
L 322.333866 235.701648 
L 323.156976 234.832697 
L 323.980086 231.798365 
L 324.803196 233.551851 
L 325.626306 233.800867 
L 326.449416 233.311 
L 327.272526 235.405022 
L 328.095636 233.878186 
L 328.918746 236.133983 
L 329.741856 231.893868 
L 331.388076 232.779634 
L 332.211186 234.035873 
L 333.034296 234.645771 
L 333.857406 236.098835 
L 334.680516 232.513402 
L 335.503626 230.981698 
L 336.326736 226.985727 
L 337.149846 226.326285 
L 337.972956 227.888303 
L 338.796066 229.980095 
L 339.619176 231.717468 
L 340.442286 232.361571 
L 341.265396 232.810155 
L 342.088506 231.641459 
L 342.911616 228.660244 
L 343.734726 230.011681 
L 344.557837 230.179167 
L 345.380947 235.337242 
L 346.204057 234.515374 
L 347.027167 234.90193 
L 347.850277 231.784491 
L 348.673387 234.356194 
L 349.496497 234.764371 
L 350.319607 237.19204 
L 351.142717 238.884152 
L 351.965827 239.789659 
L 352.788937 238.247109 
L 353.612047 234.588605 
L 354.435157 235.731475 
L 355.258267 234.134618 
L 356.081377 236.928404 
L 356.904487 240.424896 
L 357.727597 240.586802 
L 358.550707 241.80908 
L 359.373817 240.841118 
L 360.196927 240.769719 
L 361.020037 239.080296 
L 361.843147 238.547203 
L 362.666257 240.114755 
L 363.489367 239.028879 
L 364.312477 240.497616 
L 365.135587 240.161337 
L 365.958697 240.636437 
L 366.781807 240.224005 
L 367.604917 239.598657 
L 368.428027 238.41794 
L 369.251137 238.333154 
L 370.897357 236.588769 
L 371.720467 238.437502 
L 372.543577 238.038357 
L 373.366687 238.160498 
L 374.189797 236.741824 
L 375.012907 237.331172 
L 375.836017 236.750496 
L 376.659127 237.692707 
L 377.482237 237.09469 
L 378.305347 235.743429 
L 379.128457 237.845735 
L 379.951567 238.552358 
L 380.774677 237.471916 
L 381.597787 238.534081 
L 383.244007 237.164362 
L 384.067117 234.819917 
L 384.890227 237.272356 
L 385.713337 238.118828 
L 386.536447 239.900174 
L 387.359557 239.301866 
L 388.182667 239.952685 
L 389.005778 237.922821 
L 389.828888 238.028415 
L 390.651998 237.634133 
L 391.475108 238.196649 
L 392.298218 239.599464 
L 393.121328 240.362707 
L 393.944438 241.513651 
L 394.767548 240.270428 
L 395.590658 239.763054 
L 396.413768 239.835462 
L 397.236878 239.50843 
L 398.059988 240.408832 
L 398.883098 240.81032 
L 401.352428 241.550083 
L 402.175538 239.670249 
L 402.998648 240.344196 
L 404.644868 239.655004 
L 405.467978 240.51063 
L 406.291088 240.375713 
L 407.114198 239.836442 
L 407.937308 240.254295 
L 408.760418 238.389768 
L 409.583528 240.293795 
L 410.406638 240.174583 
L 411.229748 240.653778 
L 412.052858 240.596651 
L 412.875968 240.930644 
L 413.699078 240.469242 
L 414.522188 240.575705 
L 416.168408 240.975531 
L 417.814628 241.920226 
L 418.637738 241.792376 
L 420.283958 241.956443 
L 421.107068 241.778292 
L 421.930178 241.77931 
L 422.753288 240.949154 
L 423.576398 241.184262 
L 425.222618 240.510141 
L 426.045728 241.445157 
L 426.868838 241.082018 
L 427.691948 240.860991 
L 428.515058 240.842116 
L 429.338168 240.684592 
L 430.161278 241.21449 
L 430.984388 241.204293 
L 431.807498 240.382268 
L 432.630608 240.927284 
L 433 240.85362 
M 433 242.116343 
L -1 242.116343 
L -1 242.116343 
" clip-path="url(#p07030692d2)" style="fill: none; stroke: #dd8452; stroke-opacity: 0.3; stroke-width: 1.5; stroke-linecap: round"/>
   </g>
   <g id="line2d_17">
    <path d="M 54 242.116364 
L 433 242.116364 
M 433 242.116364 
L -1 242.116364 
L -1 242.116364 
" clip-path="url(#p07030692d2)" style="fill: none; stroke: #55a868; stroke-opacity: 0.3; stroke-width: 1.5; stroke-linecap: round"/>
   </g>
   <g id="line2d_18">
    <path d="M 54 242.099162 
L 153.596312 242.050436 
L 158.534972 241.680591 
L 160.181192 241.724572 
L 161.827412 241.411199 
L 163.473632 240.580855 
L 165.119852 239.842497 
L 165.942963 239.648719 
L 166.766073 239.672787 
L 167.589183 239.470128 
L 168.412293 239.498445 
L 169.235403 238.997658 
L 170.881623 236.655423 
L 172.527843 233.618063 
L 173.350953 232.8422 
L 174.997173 232.895199 
L 175.820283 233.675681 
L 176.643393 233.794043 
L 177.466503 233.445734 
L 178.289613 232.024901 
L 179.112723 230.289729 
L 179.935833 227.279051 
L 182.405163 219.533751 
L 184.051383 221.713508 
L 184.874493 221.769809 
L 185.697603 221.372371 
L 186.520713 217.633112 
L 187.343823 215.922086 
L 188.990043 211.059888 
L 189.813153 209.629693 
L 190.636263 210.472986 
L 191.459373 214.145687 
L 192.282483 218.712416 
L 193.105593 220.219285 
L 193.928703 220.664932 
L 196.398033 208.536943 
L 197.221143 207.666659 
L 198.044253 205.792566 
L 198.867363 208.027364 
L 199.690473 211.313339 
L 200.513583 215.81594 
L 201.336693 222.77262 
L 202.159803 226.381341 
L 202.982913 221.044308 
L 203.806023 220.2383 
L 204.629133 212.449049 
L 205.452243 203.254669 
L 206.275353 205.01033 
L 207.098463 200.039262 
L 207.921573 204.023177 
L 208.744683 210.623461 
L 209.567793 218.955873 
L 210.390904 222.792683 
L 212.037124 213.90293 
L 212.860234 202.396465 
L 213.683344 199.458206 
L 214.506454 196.050349 
L 215.329564 193.714029 
L 216.152674 202.542822 
L 216.975784 201.624396 
L 217.798894 207.938354 
L 218.622004 210.43787 
L 219.445114 208.193075 
L 221.091334 208.286185 
L 221.914444 199.112538 
L 222.737554 197.350683 
L 223.560664 199.90045 
L 225.206884 197.086347 
L 226.029994 201.907294 
L 226.853104 201.882208 
L 228.499324 186.121228 
L 229.322434 173.575928 
L 230.145544 170.233457 
L 230.968654 172.834686 
L 231.791764 173.719223 
L 232.614874 171.99664 
L 233.437984 171.903853 
L 234.261094 180.777843 
L 235.084204 179.182464 
L 235.907314 174.621132 
L 236.730424 168.421033 
L 237.553534 153.344285 
L 239.199754 140.787039 
L 240.022864 143.343648 
L 240.845974 143.557949 
L 241.669084 155.287055 
L 243.315304 159.770971 
L 244.138414 155.046699 
L 244.961524 149.163407 
L 245.784634 152.214703 
L 246.607744 138.857466 
L 247.430854 139.502652 
L 248.253964 139.540701 
L 249.077074 134.86818 
L 249.900184 135.288766 
L 250.723294 146.42115 
L 251.546404 135.321708 
L 252.369514 137.826081 
L 253.192624 135.926837 
L 254.015734 123.120941 
L 254.838844 112.593437 
L 255.661955 107.895121 
L 256.485065 102.17158 
L 257.308175 108.771044 
L 258.131285 109.096832 
L 258.954395 122.626587 
L 259.777505 131.0493 
L 260.600615 136.000549 
L 261.423725 128.616812 
L 262.246835 123.715889 
L 263.069945 128.433096 
L 263.893055 125.579534 
L 264.716165 128.656644 
L 265.539275 130.048208 
L 267.185495 135.896591 
L 268.008605 146.448919 
L 268.831715 150.221454 
L 270.477935 144.708889 
L 271.301045 136.388489 
L 272.124155 132.682527 
L 272.947265 135.621348 
L 273.770375 126.499868 
L 274.593485 125.413348 
L 275.416595 133.509791 
L 276.239705 129.122048 
L 277.062815 136.205734 
L 277.885925 137.363981 
L 278.709035 121.832235 
L 279.532145 121.960645 
L 280.355255 142.374275 
L 281.178365 166.992962 
L 282.001475 44.443636 
L 282.824585 97.230204 
L 284.470805 161.745223 
L 285.293915 168.717824 
L 286.117025 157.138491 
L 286.940135 154.897866 
L 287.763245 154.672742 
L 288.586355 139.870241 
L 289.409465 164.724787 
L 290.232575 158.839936 
L 291.055685 148.563247 
L 291.878795 154.157356 
L 292.701905 154.228559 
L 293.525015 149.753117 
L 294.348125 139.412835 
L 295.171235 151.340181 
L 295.994345 145.447531 
L 296.817455 146.017266 
L 297.640565 159.599906 
L 300.109896 193.136571 
L 300.933006 193.900374 
L 301.756116 200.606092 
L 302.579226 196.250327 
L 303.402336 198.791657 
L 304.225446 199.245576 
L 305.048556 191.058726 
L 305.871666 192.77762 
L 306.694776 197.41129 
L 307.517886 203.43077 
L 308.340996 206.422382 
L 309.164106 211.890902 
L 309.987216 212.509992 
L 310.810326 212.934998 
L 311.633436 215.155544 
L 312.456546 211.076458 
L 313.279656 213.486167 
L 314.102766 213.366494 
L 315.748986 214.925888 
L 316.572096 219.952731 
L 317.395206 220.555764 
L 318.218316 222.24895 
L 319.041426 224.679529 
L 319.864536 221.788972 
L 320.687646 218.258746 
L 321.510756 219.203289 
L 322.333866 222.614857 
L 323.980086 225.386211 
L 324.803196 229.954798 
L 325.626306 230.742972 
L 326.449416 231.741657 
L 327.272526 234.097738 
L 328.095636 234.199333 
L 328.918746 232.844987 
L 329.741856 234.128683 
L 330.564966 232.719993 
L 331.388076 233.767882 
L 332.211186 233.90454 
L 333.857406 236.840997 
L 334.680516 235.169352 
L 335.503626 234.965265 
L 336.326736 233.387844 
L 337.149846 234.562924 
L 337.972956 236.224015 
L 339.619176 236.613637 
L 340.442286 238.962684 
L 341.265396 238.807978 
L 342.088506 235.509187 
L 342.911616 233.763831 
L 343.734726 230.525432 
L 344.557837 228.341418 
L 345.380947 228.203854 
L 346.204057 228.566056 
L 347.027167 228.407714 
L 347.850277 227.472088 
L 348.673387 231.83737 
L 349.496497 230.483882 
L 350.319607 229.527214 
L 351.142717 229.95399 
L 351.965827 227.488508 
L 352.788937 228.240373 
L 353.612047 227.28031 
L 354.435157 227.262441 
L 355.258267 228.514841 
L 356.081377 228.856797 
L 356.904487 225.958796 
L 357.727597 224.755171 
L 358.550707 225.998516 
L 359.373817 219.546506 
L 360.196927 220.718707 
L 361.020037 217.398963 
L 361.843147 221.4768 
L 362.666257 221.499373 
L 363.489367 222.929454 
L 364.312477 222.242769 
L 365.135587 220.690838 
L 365.958697 220.848569 
L 366.781807 220.027064 
L 367.604917 218.420823 
L 368.428027 212.598864 
L 369.251137 215.288352 
L 370.074247 208.870312 
L 370.897357 210.260782 
L 371.720467 209.145271 
L 372.543577 211.107395 
L 373.366687 209.073461 
L 374.189797 210.239941 
L 375.012907 210.801517 
L 375.836017 210.617487 
L 376.659127 208.363463 
L 377.482237 207.791802 
L 378.305347 210.640706 
L 379.128457 212.243085 
L 379.951567 215.127731 
L 380.774677 213.421798 
L 381.597787 214.720778 
L 382.420897 209.519249 
L 383.244007 209.562145 
L 384.067117 204.46271 
L 384.890227 205.951811 
L 385.713337 206.703254 
L 387.359557 213.118969 
L 388.182667 217.093676 
L 389.005778 214.11187 
L 389.828888 215.088824 
L 390.651998 213.530904 
L 391.475108 210.114778 
L 392.298218 208.599391 
L 393.121328 203.116858 
L 393.944438 206.783247 
L 394.767548 208.808866 
L 395.590658 206.499335 
L 396.413768 214.816162 
L 397.236878 218.353128 
L 398.059988 219.319442 
L 398.883098 216.927182 
L 399.706208 212.107379 
L 401.352428 212.667419 
L 402.175538 213.715666 
L 402.998648 215.629871 
L 404.644868 220.35531 
L 405.467978 220.022513 
L 406.291088 222.249906 
L 407.114198 221.728782 
L 407.937308 221.663499 
L 408.760418 223.028172 
L 410.406638 220.703176 
L 411.229748 222.918321 
L 412.052858 223.811529 
L 412.875968 224.144582 
L 413.699078 227.099993 
L 414.522188 227.003942 
L 415.345298 225.898769 
L 416.168408 225.353868 
L 416.991518 225.32195 
L 417.814628 227.288964 
L 418.637738 226.571689 
L 420.283958 228.758363 
L 421.107068 230.472838 
L 422.753288 231.919279 
L 423.576398 229.871815 
L 424.399508 230.586102 
L 425.222618 229.748623 
L 426.045728 230.832282 
L 426.868838 229.818913 
L 427.691948 232.66471 
L 428.515058 232.343942 
L 429.338168 235.50413 
L 430.161278 233.36494 
L 430.984388 234.082388 
L 431.807498 233.808551 
L 433 231.896235 
M 433 242.116347 
L -1 242.116347 
L -1 242.116347 
" clip-path="url(#p07030692d2)" style="fill: none; stroke: #c44e52; stroke-opacity: 0.3; stroke-width: 1.5; stroke-linecap: round"/>
   </g>
   <g id="line2d_19">
    <path d="M 54 242.096745 
L 154.419422 242.035555 
L 157.711862 241.863714 
L 160.181192 241.978549 
L 161.827412 241.740415 
L 164.296742 241.027864 
L 165.942963 241.031242 
L 167.589183 241.248501 
L 168.412293 241.15672 
L 169.235403 240.740602 
L 170.881623 239.534829 
L 171.704733 238.862743 
L 172.527843 238.587901 
L 174.174063 239.280967 
L 175.820283 239.59269 
L 176.643393 239.399549 
L 177.466503 238.556306 
L 179.112723 236.393307 
L 180.758943 235.824533 
L 181.582053 235.752609 
L 182.405163 236.684771 
L 183.228273 236.661347 
L 184.051383 236.280546 
L 184.874493 235.185444 
L 185.697603 233.164387 
L 186.520713 231.465178 
L 187.343823 228.835198 
L 188.166933 226.796258 
L 188.990043 226.507777 
L 189.813153 227.208717 
L 190.636263 228.858575 
L 191.459373 229.101311 
L 192.282483 229.731489 
L 193.105593 228.547805 
L 193.928703 224.306657 
L 194.751813 219.384067 
L 195.574923 216.424747 
L 196.398033 212.43096 
L 197.221143 215.507381 
L 198.044253 214.262193 
L 198.867363 216.725353 
L 199.690473 218.649236 
L 200.513583 218.199972 
L 201.336693 217.042616 
L 202.159803 212.458087 
L 202.982913 205.592467 
L 204.629133 195.835384 
L 205.452243 197.286525 
L 206.275353 200.033213 
L 207.098463 198.882061 
L 208.744683 205.410858 
L 210.390904 197.183421 
L 211.214014 194.538427 
L 212.037124 183.74347 
L 212.860234 181.733914 
L 213.683344 186.393645 
L 214.506454 188.612266 
L 215.329564 192.18566 
L 216.152674 200.700373 
L 216.975784 198.618532 
L 217.798894 198.642611 
L 218.622004 201.073523 
L 219.445114 198.685812 
L 221.091334 194.950386 
L 221.914444 195.002703 
L 222.737554 198.167486 
L 223.560664 203.840262 
L 224.383774 206.53987 
L 225.206884 202.932481 
L 226.029994 209.2039 
L 226.853104 206.893244 
L 227.676214 199.65897 
L 228.499324 199.126109 
L 229.322434 195.37732 
L 230.145544 201.239414 
L 230.968654 197.842288 
L 232.614874 206.132373 
L 233.437984 208.083497 
L 234.261094 207.37851 
L 235.084204 204.467976 
L 235.907314 203.560462 
L 236.730424 199.969929 
L 237.553534 198.0827 
L 238.376644 203.861916 
L 239.199754 205.142827 
L 240.022864 208.561766 
L 240.845974 214.256783 
L 241.669084 217.962136 
L 242.492194 214.740272 
L 243.315304 212.599175 
L 244.961524 212.175474 
L 245.784634 216.073507 
L 246.607744 212.582321 
L 247.430854 216.611333 
L 248.253964 218.520291 
L 249.077074 219.058096 
L 249.900184 215.827074 
L 250.723294 220.345848 
L 251.546404 215.748645 
L 252.369514 213.701012 
L 253.192624 207.782798 
L 254.015734 207.794703 
L 254.838844 208.106122 
L 255.661955 209.417895 
L 256.485065 209.284495 
L 257.308175 215.932775 
L 258.131285 213.593982 
L 258.954395 218.820519 
L 259.777505 216.334193 
L 260.600615 215.219686 
L 261.423725 215.170034 
L 262.246835 215.286386 
L 263.069945 221.974248 
L 263.893055 224.944322 
L 264.716165 225.647227 
L 265.539275 225.909326 
L 266.362385 227.493414 
L 267.185495 227.279375 
L 268.008605 228.279462 
L 268.831715 229.102033 
L 269.654825 227.477832 
L 270.477935 230.942458 
L 271.301045 231.558764 
L 272.124155 233.683722 
L 273.770375 234.205481 
L 274.593485 235.597999 
L 275.416595 235.890446 
L 276.239705 237.353881 
L 277.062815 236.71584 
L 277.885925 237.698687 
L 278.709035 234.2266 
L 279.532145 232.57742 
L 280.355255 239.392835 
L 281.178365 226.898347 
L 282.001475 194.418011 
L 282.824585 216.744944 
L 283.647695 235.625869 
L 284.470805 241.068963 
L 285.293915 240.86868 
L 286.117025 237.327919 
L 286.940135 236.15112 
L 287.763245 236.187519 
L 288.586355 231.187136 
L 289.409465 234.666644 
L 290.232575 229.163864 
L 291.055685 224.708815 
L 291.878795 225.082761 
L 292.701905 228.093069 
L 294.348125 235.339594 
L 295.171235 240.501968 
L 295.994345 238.555035 
L 296.817455 233.885946 
L 297.640565 226.132331 
L 298.463675 221.423091 
L 299.286785 215.284752 
L 300.109896 214.185037 
L 301.756116 216.786071 
L 302.579226 208.606558 
L 303.402336 209.425617 
L 304.225446 218.189791 
L 305.871666 230.932414 
L 306.694776 235.496804 
L 307.517886 234.498204 
L 308.340996 229.637656 
L 309.164106 222.623067 
L 309.987216 219.485809 
L 310.810326 210.824522 
L 311.633436 209.728361 
L 312.456546 212.634589 
L 313.279656 214.361848 
L 314.925876 219.637239 
L 315.748986 221.519185 
L 316.572096 218.120921 
L 317.395206 212.275547 
L 318.218316 213.812673 
L 319.041426 212.070352 
L 319.864536 215.485372 
L 320.687646 213.665113 
L 321.510756 218.032157 
L 322.333866 220.75821 
L 323.156976 220.926769 
L 324.803196 217.154334 
L 325.626306 210.790502 
L 326.449416 210.163586 
L 327.272526 208.413718 
L 328.095636 207.3481 
L 328.918746 213.047021 
L 329.741856 214.581977 
L 330.564966 218.235288 
L 331.388076 220.870633 
L 332.211186 221.175937 
L 333.034296 221.101496 
L 333.857406 219.236029 
L 334.680516 216.262286 
L 336.326736 206.67011 
L 337.972956 213.158418 
L 338.796066 213.513405 
L 339.619176 210.434574 
L 340.442286 212.253314 
L 341.265396 216.399554 
L 342.088506 209.791961 
L 342.911616 210.363705 
L 343.734726 207.196969 
L 344.557837 205.930069 
L 345.380947 201.714214 
L 346.204057 209.65084 
L 347.027167 204.269756 
L 347.850277 210.055586 
L 348.673387 208.794185 
L 349.496497 198.27895 
L 350.319607 201.746509 
L 351.142717 199.85001 
L 351.965827 195.592282 
L 352.788937 201.676207 
L 353.612047 195.369486 
L 355.258267 204.335061 
L 356.081377 206.384037 
L 356.904487 202.675971 
L 357.727597 201.932996 
L 358.550707 200.646181 
L 359.373817 196.368183 
L 360.196927 199.259815 
L 361.020037 197.222839 
L 361.843147 193.794548 
L 362.666257 204.245478 
L 363.489367 204.959142 
L 364.312477 202.481119 
L 365.135587 202.756966 
L 365.958697 203.235143 
L 366.781807 201.461846 
L 367.604917 206.483041 
L 368.428027 202.425685 
L 369.251137 206.507026 
L 370.074247 204.830135 
L 370.897357 208.552505 
L 371.720467 206.497471 
L 372.543577 206.827687 
L 373.366687 209.474664 
L 374.189797 209.368132 
L 375.012907 210.101898 
L 375.836017 208.744108 
L 376.659127 211.161616 
L 377.482237 210.433151 
L 378.305347 212.034138 
L 379.128457 213.299717 
L 379.951567 212.470813 
L 380.774677 211.477023 
L 381.597787 213.993589 
L 382.420897 207.705636 
L 383.244007 206.762639 
L 384.067117 207.440633 
L 384.890227 206.910259 
L 385.713337 209.791678 
L 386.536447 211.80059 
L 387.359557 214.315883 
L 388.182667 213.067513 
L 389.005778 211.166571 
L 389.828888 210.635934 
L 390.651998 206.61304 
L 391.475108 207.566935 
L 392.298218 203.591256 
L 393.121328 202.520922 
L 393.944438 201.160478 
L 394.767548 206.859896 
L 395.590658 206.598315 
L 396.413768 210.015158 
L 397.236878 210.486649 
L 398.059988 209.934341 
L 398.883098 208.685339 
L 399.706208 210.40277 
L 401.352428 207.693049 
L 402.175538 209.48864 
L 402.998648 213.428242 
L 403.821758 215.137826 
L 404.644868 210.333229 
L 405.467978 214.868357 
L 406.291088 213.404221 
L 407.114198 212.708172 
L 407.937308 213.352096 
L 408.760418 214.869035 
L 409.583528 210.839674 
L 410.406638 214.276134 
L 411.229748 218.553341 
L 412.052858 218.111143 
L 412.875968 220.414358 
L 413.699078 218.643229 
L 414.522188 214.979945 
L 415.345298 216.906288 
L 416.168408 214.941392 
L 416.991518 215.634479 
L 417.814628 219.226911 
L 418.637738 220.231865 
L 419.460848 223.598958 
L 420.283958 224.873104 
L 421.107068 223.262677 
L 421.930178 224.120123 
L 422.753288 220.334773 
L 423.576398 220.51342 
L 424.399508 217.622582 
L 425.222618 219.260959 
L 426.045728 219.792541 
L 426.868838 223.306508 
L 427.691948 224.912577 
L 428.515058 224.151173 
L 429.338168 224.512635 
L 430.161278 223.711772 
L 430.984388 223.33991 
L 431.807498 220.34103 
L 432.630608 220.742747 
L 433 221.429976 
M 433 242.116344 
L -1 242.116344 
L -1 242.116344 
" clip-path="url(#p07030692d2)" style="fill: none; stroke: #8172b3; stroke-opacity: 0.3; stroke-width: 1.5; stroke-linecap: round"/>
   </g>
   <g id="line2d_20">
    <path d="M 54 242.116364 
L 433 242.116364 
M 433 242.116364 
L -1 242.116364 
L -1 242.116364 
" clip-path="url(#p07030692d2)" style="fill: none; stroke: #937860; stroke-opacity: 0.3; stroke-width: 1.5; stroke-linecap: round"/>
   </g>
   <g id="line2d_21">
    <path d="M 54 242.093721 
L 169.235403 242.00754 
L 171.704733 241.976867 
L 174.997173 242.061987 
L 176.643393 241.981066 
L 179.112723 241.871426 
L 180.758943 241.704081 
L 181.582053 241.556102 
L 182.405163 241.877929 
L 184.051383 242.021299 
L 184.874493 241.979873 
L 188.166933 239.211566 
L 188.990043 240.507189 
L 189.813153 240.813858 
L 190.636263 241.490286 
L 191.459373 241.899806 
L 192.282483 241.455107 
L 193.105593 241.237133 
L 193.928703 240.054202 
L 194.751813 240.017006 
L 195.574923 240.662185 
L 196.398033 241.488893 
L 197.221143 241.59705 
L 198.044253 241.937753 
L 198.867363 242.034899 
L 199.690473 241.849464 
L 200.513583 241.790392 
L 201.336693 241.999121 
L 202.982913 241.867506 
L 203.806023 241.321285 
L 204.629133 240.042943 
L 205.452243 239.987141 
L 206.275353 239.28886 
L 207.098463 239.371236 
L 207.921573 239.882091 
L 208.744683 240.221506 
L 209.567793 239.1371 
L 210.390904 238.304309 
L 211.214014 237.134695 
L 212.037124 236.351159 
L 212.860234 235.94341 
L 213.683344 237.167553 
L 214.506454 239.949209 
L 215.329564 240.240372 
L 216.152674 241.876452 
L 216.975784 241.26604 
L 219.445114 240.27497 
L 220.268224 240.710282 
L 221.091334 241.758577 
L 223.560664 241.781028 
L 224.383774 240.927219 
L 225.206884 240.738046 
L 226.029994 241.773337 
L 226.853104 241.793144 
L 227.676214 240.259419 
L 228.499324 239.944393 
L 229.322434 236.794464 
L 230.145544 238.900177 
L 230.968654 237.421116 
L 231.791764 239.66748 
L 232.614874 239.935848 
L 233.437984 240.436796 
L 234.261094 240.413392 
L 235.084204 239.175003 
L 235.907314 238.820753 
L 236.730424 238.15263 
L 237.553534 239.15113 
L 238.376644 240.515825 
L 239.199754 241.032491 
L 240.022864 241.748731 
L 240.845974 241.799644 
L 241.669084 241.509426 
L 242.492194 241.023781 
L 243.315304 241.594197 
L 244.138414 241.955594 
L 244.961524 241.907289 
L 245.784634 241.367373 
L 247.430854 240.648578 
L 249.900184 241.432489 
L 250.723294 241.278809 
L 251.546404 240.576014 
L 252.369514 239.076334 
L 253.192624 238.022427 
L 254.015734 238.494989 
L 254.838844 239.16998 
L 255.661955 239.052795 
L 256.485065 240.753396 
L 257.308175 241.495191 
L 258.131285 241.138056 
L 258.954395 239.817535 
L 260.600615 239.422536 
L 261.423725 240.427633 
L 262.246835 240.141359 
L 263.069945 241.673424 
L 263.893055 241.912106 
L 265.539275 242.110785 
L 266.362385 241.882162 
L 267.185495 242.01823 
L 268.831715 241.776077 
L 269.654825 241.114141 
L 270.477935 239.936965 
L 271.301045 239.03496 
L 272.124155 238.79384 
L 272.947265 240.098732 
L 274.593485 240.567608 
L 275.416595 240.012864 
L 276.239705 238.496362 
L 277.062815 238.496906 
L 277.885925 237.954068 
L 278.709035 238.367909 
L 279.532145 239.209782 
L 280.355255 240.658397 
L 281.178365 241.047521 
L 282.824585 241.343142 
L 283.647695 240.676422 
L 284.470805 241.523264 
L 285.293915 241.612881 
L 286.117025 242.028831 
L 288.586355 240.618533 
L 289.409465 241.174492 
L 290.232575 241.394017 
L 291.055685 242.001656 
L 291.878795 242.033835 
L 292.701905 241.197162 
L 293.525015 240.019484 
L 294.348125 238.017489 
L 295.171235 236.791492 
L 295.994345 236.579865 
L 296.817455 235.979718 
L 297.640565 238.385638 
L 298.463675 239.892759 
L 299.286785 239.648444 
L 300.109896 241.205166 
L 301.756116 240.513843 
L 302.579226 240.576471 
L 303.402336 240.305901 
L 304.225446 240.874014 
L 305.048556 241.672407 
L 306.694776 241.944397 
L 307.517886 241.941474 
L 309.164106 242.115538 
L 309.987216 242.107099 
L 311.633436 241.723131 
L 314.102766 241.059968 
L 314.925876 241.403251 
L 315.748986 241.05021 
L 316.572096 241.457192 
L 317.395206 240.09326 
L 318.218316 239.844998 
L 319.041426 238.716599 
L 319.864536 239.310553 
L 320.687646 239.53114 
L 321.510756 241.141662 
L 323.156976 241.139997 
L 323.980086 241.040627 
L 324.803196 239.049083 
L 325.626306 239.60056 
L 326.449416 240.514516 
L 327.272526 240.263759 
L 328.918746 241.698371 
L 329.741856 241.699283 
L 330.564966 242.112838 
L 331.388076 241.853299 
L 333.034296 242.092051 
L 333.857406 241.582849 
L 334.680516 240.822668 
L 335.503626 241.650338 
L 336.326736 240.787144 
L 337.972956 241.693788 
L 338.796066 241.3264 
L 339.619176 241.913852 
L 340.442286 241.332861 
L 341.265396 241.718181 
L 342.088506 240.799256 
L 342.911616 241.13038 
L 344.557837 241.194888 
L 345.380947 241.804817 
L 346.204057 241.854521 
L 347.027167 242.088385 
L 347.850277 241.955341 
L 348.673387 241.36723 
L 349.496497 241.513259 
L 350.319607 241.062978 
L 351.142717 241.479975 
L 351.965827 240.915469 
L 352.788937 241.561422 
L 354.435157 241.739932 
L 355.258267 241.808836 
L 356.081377 242.10971 
L 356.904487 242.043421 
L 357.727597 241.799879 
L 358.550707 241.745537 
L 359.373817 241.51819 
L 360.196927 241.765438 
L 361.843147 241.423955 
L 362.666257 241.906044 
L 363.489367 242.055735 
L 365.135587 241.808306 
L 365.958697 241.589582 
L 367.604917 241.688972 
L 368.428027 241.283203 
L 369.251137 241.848419 
L 370.074247 242.033068 
L 370.897357 242.006873 
L 371.720467 242.097487 
L 372.543577 241.673698 
L 373.366687 241.815973 
L 374.189797 241.645171 
L 375.012907 241.69922 
L 375.836017 241.547023 
L 376.659127 242.088005 
L 377.482237 241.836789 
L 378.305347 242.028169 
L 379.128457 242.089908 
L 380.774677 241.951248 
L 381.597787 241.608077 
L 384.067117 241.750653 
L 384.890227 241.08979 
L 385.713337 241.895342 
L 386.536447 241.816902 
L 387.359557 241.901956 
L 388.182667 241.504065 
L 389.005778 241.747529 
L 389.828888 241.184673 
L 391.475108 240.786272 
L 393.121328 241.974203 
L 393.944438 241.864948 
L 394.767548 241.953263 
L 395.590658 241.678284 
L 396.413768 241.645882 
L 397.236878 241.808846 
L 398.059988 241.619449 
L 399.706208 241.83435 
L 402.175538 242.029525 
L 402.998648 242.096946 
L 403.821758 241.946146 
L 404.644868 241.585354 
L 405.467978 241.706819 
L 406.291088 241.510411 
L 407.114198 240.587033 
L 407.937308 240.093267 
L 408.760418 240.993725 
L 409.583528 241.109337 
L 410.406638 241.810036 
L 412.052858 241.374541 
L 412.875968 241.301074 
L 413.699078 240.977439 
L 415.345298 241.343455 
L 416.168408 241.997453 
L 416.991518 241.505451 
L 417.814628 242.023627 
L 419.460848 242.081537 
L 421.107068 241.898066 
L 421.930178 241.725203 
L 422.753288 241.850484 
L 423.576398 241.586 
L 425.222618 241.579493 
L 426.045728 241.976451 
L 426.868838 242.066692 
L 427.691948 241.704373 
L 428.515058 241.671059 
L 429.338168 241.888983 
L 430.161278 241.436009 
L 430.984388 240.51102 
L 431.807498 241.077206 
L 433 241.094286 
M 433 242.116346 
L -1 242.116346 
L -1 242.116346 
" clip-path="url(#p07030692d2)" style="fill: none; stroke: #da8bc3; stroke-opacity: 0.3; stroke-width: 1.5; stroke-linecap: round"/>
   </g>
   <g id="patch_3">
    <path d="M 54 252 
L 54 34.56 
" style="fill: none; stroke: #262626; stroke-width: 1.25; stroke-linejoin: miter; stroke-linecap: square"/>
   </g>
   <g id="patch_4">
    <path d="M 388.8 252 
L 388.8 34.56 
" style="fill: none; stroke: #262626; stroke-width: 1.25; stroke-linejoin: miter; stroke-linecap: square"/>
   </g>
   <g id="patch_5">
    <path d="M 54 252 
L 388.8 252 
" style="fill: none; stroke: #262626; stroke-width: 1.25; stroke-linejoin: miter; stroke-linecap: square"/>
   </g>
   <g id="patch_6">
    <path d="M 54 34.56 
L 388.8 34.56 
" style="fill: none; stroke: #262626; stroke-width: 1.25; stroke-linejoin: miter; stroke-linecap: square"/>
   </g>
   <g id="text_16">
    <!-- patient06_app04 - Power spectrum -->
    <g style="fill: #262626" transform="translate(128.0175 28.56)scale(0.12 -0.12)">
     <defs>
      <path id="ArialMT-70" d="M 422 -1272 
L 422 3319 
L 934 3319 
L 934 2888 
Q 1116 3141 1344 3267 
Q 1572 3394 1897 3394 
Q 2322 3394 2647 3175 
Q 2972 2956 3137 2557 
Q 3303 2159 3303 1684 
Q 3303 1175 3120 767 
Q 2938 359 2589 142 
Q 2241 -75 1856 -75 
Q 1575 -75 1351 44 
Q 1128 163 984 344 
L 984 -1272 
L 422 -1272 
z
M 931 1641 
Q 931 1000 1190 694 
Q 1450 388 1819 388 
Q 2194 388 2461 705 
Q 2728 1022 2728 1688 
Q 2728 2322 2467 2637 
Q 2206 2953 1844 2953 
Q 1484 2953 1207 2617 
Q 931 2281 931 1641 
z
" transform="scale(0.015625)"/>
      <path id="ArialMT-61" d="M 2588 409 
Q 2275 144 1986 34 
Q 1697 -75 1366 -75 
Q 819 -75 525 192 
Q 231 459 231 875 
Q 231 1119 342 1320 
Q 453 1522 633 1644 
Q 813 1766 1038 1828 
Q 1203 1872 1538 1913 
Q 2219 1994 2541 2106 
Q 2544 2222 2544 2253 
Q 2544 2597 2384 2738 
Q 2169 2928 1744 2928 
Q 1347 2928 1158 2789 
Q 969 2650 878 2297 
L 328 2372 
Q 403 2725 575 2942 
Q 747 3159 1072 3276 
Q 1397 3394 1825 3394 
Q 2250 3394 2515 3294 
Q 2781 3194 2906 3042 
Q 3031 2891 3081 2659 
Q 3109 2516 3109 2141 
L 3109 1391 
Q 3109 606 3145 398 
Q 3181 191 3288 0 
L 2700 0 
Q 2613 175 2588 409 
z
M 2541 1666 
Q 2234 1541 1622 1453 
Q 1275 1403 1131 1340 
Q 988 1278 909 1158 
Q 831 1038 831 891 
Q 831 666 1001 516 
Q 1172 366 1500 366 
Q 1825 366 2078 508 
Q 2331 650 2450 897 
Q 2541 1088 2541 1459 
L 2541 1666 
z
" transform="scale(0.015625)"/>
      <path id="ArialMT-74" d="M 1650 503 
L 1731 6 
Q 1494 -44 1306 -44 
Q 1000 -44 831 53 
Q 663 150 594 308 
Q 525 466 525 972 
L 525 2881 
L 113 2881 
L 113 3319 
L 525 3319 
L 525 4141 
L 1084 4478 
L 1084 3319 
L 1650 3319 
L 1650 2881 
L 1084 2881 
L 1084 941 
Q 1084 700 1114 631 
Q 1144 563 1211 522 
Q 1278 481 1403 481 
Q 1497 481 1650 503 
z
" transform="scale(0.015625)"/>
      <path id="ArialMT-69" d="M 425 3934 
L 425 4581 
L 988 4581 
L 988 3934 
L 425 3934 
z
M 425 0 
L 425 3319 
L 988 3319 
L 988 0 
L 425 0 
z
" transform="scale(0.015625)"/>
      <path id="ArialMT-36" d="M 3184 3459 
L 2625 3416 
Q 2550 3747 2413 3897 
Q 2184 4138 1850 4138 
Q 1581 4138 1378 3988 
Q 1113 3794 959 3422 
Q 806 3050 800 2363 
Q 1003 2672 1297 2822 
Q 1591 2972 1913 2972 
Q 2475 2972 2870 2558 
Q 3266 2144 3266 1488 
Q 3266 1056 3080 686 
Q 2894 316 2569 119 
Q 2244 -78 1831 -78 
Q 1128 -78 684 439 
Q 241 956 241 2144 
Q 241 3472 731 4075 
Q 1159 4600 1884 4600 
Q 2425 4600 2770 4297 
Q 3116 3994 3184 3459 
z
M 888 1484 
Q 888 1194 1011 928 
Q 1134 663 1356 523 
Q 1578 384 1822 384 
Q 2178 384 2434 671 
Q 2691 959 2691 1453 
Q 2691 1928 2437 2201 
Q 2184 2475 1800 2475 
Q 1419 2475 1153 2201 
Q 888 1928 888 1484 
z
" transform="scale(0.015625)"/>
      <path id="ArialMT-5f" d="M -97 -1272 
L -97 -866 
L 3631 -866 
L 3631 -1272 
L -97 -1272 
z
" transform="scale(0.015625)"/>
      <path id="ArialMT-34" d="M 2069 0 
L 2069 1097 
L 81 1097 
L 81 1613 
L 2172 4581 
L 2631 4581 
L 2631 1613 
L 3250 1613 
L 3250 1097 
L 2631 1097 
L 2631 0 
L 2069 0 
z
M 2069 1613 
L 2069 3678 
L 634 1613 
L 2069 1613 
z
" transform="scale(0.015625)"/>
      <path id="ArialMT-2d" d="M 203 1375 
L 203 1941 
L 1931 1941 
L 1931 1375 
L 203 1375 
z
" transform="scale(0.015625)"/>
      <path id="ArialMT-50" d="M 494 0 
L 494 4581 
L 2222 4581 
Q 2678 4581 2919 4538 
Q 3256 4481 3484 4323 
Q 3713 4166 3852 3881 
Q 3991 3597 3991 3256 
Q 3991 2672 3619 2267 
Q 3247 1863 2275 1863 
L 1100 1863 
L 1100 0 
L 494 0 
z
M 1100 2403 
L 2284 2403 
Q 2872 2403 3119 2622 
Q 3366 2841 3366 3238 
Q 3366 3525 3220 3729 
Q 3075 3934 2838 4000 
Q 2684 4041 2272 4041 
L 1100 4041 
L 1100 2403 
z
" transform="scale(0.015625)"/>
      <path id="ArialMT-6f" d="M 213 1659 
Q 213 2581 725 3025 
Q 1153 3394 1769 3394 
Q 2453 3394 2887 2945 
Q 3322 2497 3322 1706 
Q 3322 1066 3130 698 
Q 2938 331 2570 128 
Q 2203 -75 1769 -75 
Q 1072 -75 642 372 
Q 213 819 213 1659 
z
M 791 1659 
Q 791 1022 1069 705 
Q 1347 388 1769 388 
Q 2188 388 2466 706 
Q 2744 1025 2744 1678 
Q 2744 2294 2464 2611 
Q 2184 2928 1769 2928 
Q 1347 2928 1069 2612 
Q 791 2297 791 1659 
z
" transform="scale(0.015625)"/>
      <path id="ArialMT-77" d="M 1034 0 
L 19 3319 
L 600 3319 
L 1128 1403 
L 1325 691 
Q 1338 744 1497 1375 
L 2025 3319 
L 2603 3319 
L 3100 1394 
L 3266 759 
L 3456 1400 
L 4025 3319 
L 4572 3319 
L 3534 0 
L 2950 0 
L 2422 1988 
L 2294 2553 
L 1622 0 
L 1034 0 
z
" transform="scale(0.015625)"/>
      <path id="ArialMT-73" d="M 197 991 
L 753 1078 
Q 800 744 1014 566 
Q 1228 388 1613 388 
Q 2000 388 2187 545 
Q 2375 703 2375 916 
Q 2375 1106 2209 1216 
Q 2094 1291 1634 1406 
Q 1016 1563 777 1677 
Q 538 1791 414 1992 
Q 291 2194 291 2438 
Q 291 2659 392 2848 
Q 494 3038 669 3163 
Q 800 3259 1026 3326 
Q 1253 3394 1513 3394 
Q 1903 3394 2198 3281 
Q 2494 3169 2634 2976 
Q 2775 2784 2828 2463 
L 2278 2388 
Q 2241 2644 2061 2787 
Q 1881 2931 1553 2931 
Q 1166 2931 1000 2803 
Q 834 2675 834 2503 
Q 834 2394 903 2306 
Q 972 2216 1119 2156 
Q 1203 2125 1616 2013 
Q 2213 1853 2448 1751 
Q 2684 1650 2818 1456 
Q 2953 1263 2953 975 
Q 2953 694 2789 445 
Q 2625 197 2315 61 
Q 2006 -75 1616 -75 
Q 969 -75 630 194 
Q 291 463 197 991 
z
" transform="scale(0.015625)"/>
      <path id="ArialMT-6d" d="M 422 0 
L 422 3319 
L 925 3319 
L 925 2853 
Q 1081 3097 1340 3245 
Q 1600 3394 1931 3394 
Q 2300 3394 2536 3241 
Q 2772 3088 2869 2813 
Q 3263 3394 3894 3394 
Q 4388 3394 4653 3120 
Q 4919 2847 4919 2278 
L 4919 0 
L 4359 0 
L 4359 2091 
Q 4359 2428 4304 2576 
Q 4250 2725 4106 2815 
Q 3963 2906 3769 2906 
Q 3419 2906 3187 2673 
Q 2956 2441 2956 1928 
L 2956 0 
L 2394 0 
L 2394 2156 
Q 2394 2531 2256 2718 
Q 2119 2906 1806 2906 
Q 1569 2906 1367 2781 
Q 1166 2656 1075 2415 
Q 984 2175 984 1722 
L 984 0 
L 422 0 
z
" transform="scale(0.015625)"/>
     </defs>
     <use xlink:href="#ArialMT-70"/>
     <use xlink:href="#ArialMT-61" x="55.615234"/>
     <use xlink:href="#ArialMT-74" x="111.230469"/>
     <use xlink:href="#ArialMT-69" x="139.013672"/>
     <use xlink:href="#ArialMT-65" x="161.230469"/>
     <use xlink:href="#ArialMT-6e" x="216.845703"/>
     <use xlink:href="#ArialMT-74" x="272.460938"/>
     <use xlink:href="#ArialMT-30" x="300.244141"/>
     <use xlink:href="#ArialMT-36" x="355.859375"/>
     <use xlink:href="#ArialMT-5f" x="411.474609"/>
     <use xlink:href="#ArialMT-61" x="467.089844"/>
     <use xlink:href="#ArialMT-70" x="522.705078"/>
     <use xlink:href="#ArialMT-70" x="578.320312"/>
     <use xlink:href="#ArialMT-30" x="633.935547"/>
     <use xlink:href="#ArialMT-34" x="689.550781"/>
     <use xlink:href="#ArialMT-20" x="745.166016"/>
     <use xlink:href="#ArialMT-2d" x="772.949219"/>
     <use xlink:href="#ArialMT-20" x="806.25"/>
     <use xlink:href="#ArialMT-50" x="834.033203"/>
     <use xlink:href="#ArialMT-6f" x="900.732422"/>
     <use xlink:href="#ArialMT-77" x="956.347656"/>
     <use xlink:href="#ArialMT-65" x="1028.564453"/>
     <use xlink:href="#ArialMT-72" x="1084.179688"/>
     <use xlink:href="#ArialMT-20" x="1117.480469"/>
     <use xlink:href="#ArialMT-73" x="1145.263672"/>
     <use xlink:href="#ArialMT-70" x="1195.263672"/>
     <use xlink:href="#ArialMT-65" x="1250.878906"/>
     <use xlink:href="#ArialMT-63" x="1306.494141"/>
     <use xlink:href="#ArialMT-74" x="1356.494141"/>
     <use xlink:href="#ArialMT-72" x="1384.277344"/>
     <use xlink:href="#ArialMT-75" x="1417.578125"/>
     <use xlink:href="#ArialMT-6d" x="1473.193359"/>
    </g>
   </g>
   <g id="legend_1">
    <g id="patch_7">
     <path d="M 313.503281 152.278906 
L 381.1 152.278906 
Q 383.3 152.278906 383.3 150.078906 
L 383.3 42.26 
Q 383.3 40.06 381.1 40.06 
L 313.503281 40.06 
Q 311.303281 40.06 311.303281 42.26 
L 311.303281 150.078906 
Q 311.303281 152.278906 313.503281 152.278906 
z
" style="fill: #ffffff; opacity: 0.8; stroke: #cccccc; stroke-linejoin: miter"/>
    </g>
    <g id="line2d_22">
     <path d="M 315.703281 48.483594 
L 326.703281 48.483594 
L 337.703281 48.483594 
" style="fill: none; stroke: #4c72b0; stroke-opacity: 0.3; stroke-width: 1.5; stroke-linecap: round"/>
    </g>
    <g id="text_17">
     <!-- IMU9 -->
     <g style="fill: #262626" transform="translate(346.503281 52.333594)scale(0.11 -0.11)">
      <defs>
       <path id="ArialMT-49" d="M 597 0 
L 597 4581 
L 1203 4581 
L 1203 0 
L 597 0 
z
" transform="scale(0.015625)"/>
       <path id="ArialMT-4d" d="M 475 0 
L 475 4581 
L 1388 4581 
L 2472 1338 
Q 2622 884 2691 659 
Q 2769 909 2934 1394 
L 4031 4581 
L 4847 4581 
L 4847 0 
L 4263 0 
L 4263 3834 
L 2931 0 
L 2384 0 
L 1059 3900 
L 1059 0 
L 475 0 
z
" transform="scale(0.015625)"/>
       <path id="ArialMT-55" d="M 3500 4581 
L 4106 4581 
L 4106 1934 
Q 4106 1244 3950 837 
Q 3794 431 3386 176 
Q 2978 -78 2316 -78 
Q 1672 -78 1262 144 
Q 853 366 678 786 
Q 503 1206 503 1934 
L 503 4581 
L 1109 4581 
L 1109 1938 
Q 1109 1341 1220 1058 
Q 1331 775 1601 622 
Q 1872 469 2263 469 
Q 2931 469 3215 772 
Q 3500 1075 3500 1938 
L 3500 4581 
z
" transform="scale(0.015625)"/>
       <path id="ArialMT-39" d="M 350 1059 
L 891 1109 
Q 959 728 1153 556 
Q 1347 384 1650 384 
Q 1909 384 2104 503 
Q 2300 622 2425 820 
Q 2550 1019 2634 1356 
Q 2719 1694 2719 2044 
Q 2719 2081 2716 2156 
Q 2547 1888 2255 1720 
Q 1963 1553 1622 1553 
Q 1053 1553 659 1965 
Q 266 2378 266 3053 
Q 266 3750 677 4175 
Q 1088 4600 1706 4600 
Q 2153 4600 2523 4359 
Q 2894 4119 3086 3673 
Q 3278 3228 3278 2384 
Q 3278 1506 3087 986 
Q 2897 466 2520 194 
Q 2144 -78 1638 -78 
Q 1100 -78 759 220 
Q 419 519 350 1059 
z
M 2653 3081 
Q 2653 3566 2395 3850 
Q 2138 4134 1775 4134 
Q 1400 4134 1122 3828 
Q 844 3522 844 3034 
Q 844 2597 1108 2323 
Q 1372 2050 1759 2050 
Q 2150 2050 2401 2323 
Q 2653 2597 2653 3081 
z
" transform="scale(0.015625)"/>
      </defs>
      <use xlink:href="#ArialMT-49"/>
      <use xlink:href="#ArialMT-4d" x="27.783203"/>
      <use xlink:href="#ArialMT-55" x="111.083984"/>
      <use xlink:href="#ArialMT-39" x="183.300781"/>
     </g>
    </g>
    <g id="line2d_23">
     <path d="M 315.703281 64.043438 
L 326.703281 64.043438 
L 337.703281 64.043438 
" style="fill: none; stroke: #dd8452; stroke-opacity: 0.3; stroke-width: 1.5; stroke-linecap: round"/>
    </g>
    <g id="text_18">
     <!-- IMU10 -->
     <g style="fill: #262626" transform="translate(346.503281 67.893438)scale(0.11 -0.11)">
      <use xlink:href="#ArialMT-49"/>
      <use xlink:href="#ArialMT-4d" x="27.783203"/>
      <use xlink:href="#ArialMT-55" x="111.083984"/>
      <use xlink:href="#ArialMT-31" x="183.300781"/>
      <use xlink:href="#ArialMT-30" x="238.916016"/>
     </g>
    </g>
    <g id="line2d_24">
     <path d="M 315.703281 79.603281 
L 326.703281 79.603281 
L 337.703281 79.603281 
" style="fill: none; stroke: #55a868; stroke-opacity: 0.3; stroke-width: 1.5; stroke-linecap: round"/>
    </g>
    <g id="text_19">
     <!-- IMU11 -->
     <g style="fill: #262626" transform="translate(346.503281 83.453281)scale(0.11 -0.11)">
      <use xlink:href="#ArialMT-49"/>
      <use xlink:href="#ArialMT-4d" x="27.783203"/>
      <use xlink:href="#ArialMT-55" x="111.083984"/>
      <use xlink:href="#ArialMT-31" x="183.300781"/>
      <use xlink:href="#ArialMT-31" x="231.541016"/>
     </g>
    </g>
    <g id="line2d_25">
     <path d="M 315.703281 95.163125 
L 326.703281 95.163125 
L 337.703281 95.163125 
" style="fill: none; stroke: #c44e52; stroke-opacity: 0.3; stroke-width: 1.5; stroke-linecap: round"/>
    </g>
    <g id="text_20">
     <!-- IMU12 -->
     <g style="fill: #262626" transform="translate(346.503281 99.013125)scale(0.11 -0.11)">
      <use xlink:href="#ArialMT-49"/>
      <use xlink:href="#ArialMT-4d" x="27.783203"/>
      <use xlink:href="#ArialMT-55" x="111.083984"/>
      <use xlink:href="#ArialMT-31" x="183.300781"/>
      <use xlink:href="#ArialMT-32" x="238.916016"/>
     </g>
    </g>
    <g id="line2d_26">
     <path d="M 315.703281 110.722969 
L 326.703281 110.722969 
L 337.703281 110.722969 
" style="fill: none; stroke: #8172b3; stroke-opacity: 0.3; stroke-width: 1.5; stroke-linecap: round"/>
    </g>
    <g id="text_21">
     <!-- IMU13 -->
     <g style="fill: #262626" transform="translate(346.503281 114.572969)scale(0.11 -0.11)">
      <use xlink:href="#ArialMT-49"/>
      <use xlink:href="#ArialMT-4d" x="27.783203"/>
      <use xlink:href="#ArialMT-55" x="111.083984"/>
      <use xlink:href="#ArialMT-31" x="183.300781"/>
      <use xlink:href="#ArialMT-33" x="238.916016"/>
     </g>
    </g>
    <g id="line2d_27">
     <path d="M 315.703281 126.282813 
L 326.703281 126.282813 
L 337.703281 126.282813 
" style="fill: none; stroke: #937860; stroke-opacity: 0.3; stroke-width: 1.5; stroke-linecap: round"/>
    </g>
    <g id="text_22">
     <!-- IMU14 -->
     <g style="fill: #262626" transform="translate(346.503281 130.132812)scale(0.11 -0.11)">
      <use xlink:href="#ArialMT-49"/>
      <use xlink:href="#ArialMT-4d" x="27.783203"/>
      <use xlink:href="#ArialMT-55" x="111.083984"/>
      <use xlink:href="#ArialMT-31" x="183.300781"/>
      <use xlink:href="#ArialMT-34" x="238.916016"/>
     </g>
    </g>
    <g id="line2d_28">
     <path d="M 315.703281 141.842656 
L 326.703281 141.842656 
L 337.703281 141.842656 
" style="fill: none; stroke: #da8bc3; stroke-opacity: 0.3; stroke-width: 1.5; stroke-linecap: round"/>
    </g>
    <g id="text_23">
     <!-- IMU15 -->
     <g style="fill: #262626" transform="translate(346.503281 145.692656)scale(0.11 -0.11)">
      <use xlink:href="#ArialMT-49"/>
      <use xlink:href="#ArialMT-4d" x="27.783203"/>
      <use xlink:href="#ArialMT-55" x="111.083984"/>
      <use xlink:href="#ArialMT-31" x="183.300781"/>
      <use xlink:href="#ArialMT-35" x="238.916016"/>
     </g>
    </g>
   </g>
  </g>
 </g>
 <defs>
  <clipPath id="p07030692d2">
   <rect x="54" y="34.56" width="334.8" height="217.44"/>
  </clipPath>
 </defs>
</svg>
