<?xml version="1.0" encoding="utf-8" standalone="no"?>
<!DOCTYPE svg PUBLIC "-//W3C//DTD SVG 1.1//EN"
  "http://www.w3.org/Graphics/SVG/1.1/DTD/svg11.dtd">
<svg xmlns:xlink="http://www.w3.org/1999/xlink" width="432pt" height="288pt" viewBox="0 0 432 288" xmlns="http://www.w3.org/2000/svg" version="1.1">
 <metadata>
  <rdf:RDF xmlns:dc="http://purl.org/dc/elements/1.1/" xmlns:cc="http://creativecommons.org/ns#" xmlns:rdf="http://www.w3.org/1999/02/22-rdf-syntax-ns#">
   <cc:Work>
    <dc:type rdf:resource="http://purl.org/dc/dcmitype/StillImage"/>
    <dc:date>2022-07-08T13:58:17.532092</dc:date>
    <dc:format>image/svg+xml</dc:format>
    <dc:creator>
     <cc:Agent>
      <dc:title>Matplotlib v3.5.1, https://matplotlib.org/</dc:title>
     </cc:Agent>
    </dc:creator>
   </cc:Work>
  </rdf:RDF>
 </metadata>
 <defs>
  <style type="text/css">*{stroke-linejoin: round; stroke-linecap: butt}</style>
 </defs>
 <g id="figure_1">
  <g id="patch_1">
   <path d="M 0 288 
L 432 288 
L 432 0 
L 0 0 
z
" style="fill: #ffffff"/>
  </g>
  <g id="axes_1">
   <g id="patch_2">
    <path d="M 54 252 
L 388.8 252 
L 388.8 34.56 
L 54 34.56 
z
" style="fill: #ffffff"/>
   </g>
   <g id="matplotlib.axis_1">
    <g id="xtick_1">
     <g id="line2d_1">
      <defs>
       <path id="mdd722ef011" d="M 0 0 
L 0 6 
" style="stroke: #262626; stroke-width: 1.25"/>
      </defs>
      <g>
       <use xlink:href="#mdd722ef011" x="54" y="252" style="fill: #262626; stroke: #262626; stroke-width: 1.25"/>
      </g>
     </g>
     <g id="text_1">
      <!-- 0 -->
      <g style="fill: #262626" transform="translate(50.941484 269.373594)scale(0.11 -0.11)">
       <defs>
        <path id="ArialMT-30" d="M 266 2259 
Q 266 3072 433 3567 
Q 600 4063 929 4331 
Q 1259 4600 1759 4600 
Q 2128 4600 2406 4451 
Q 2684 4303 2865 4023 
Q 3047 3744 3150 3342 
Q 3253 2941 3253 2259 
Q 3253 1453 3087 958 
Q 2922 463 2592 192 
Q 2263 -78 1759 -78 
Q 1097 -78 719 397 
Q 266 969 266 2259 
z
M 844 2259 
Q 844 1131 1108 757 
Q 1372 384 1759 384 
Q 2147 384 2411 759 
Q 2675 1134 2675 2259 
Q 2675 3391 2411 3762 
Q 2147 4134 1753 4134 
Q 1366 4134 1134 3806 
Q 844 3388 844 2259 
z
" transform="scale(0.015625)"/>
       </defs>
       <use xlink:href="#ArialMT-30"/>
      </g>
     </g>
    </g>
    <g id="xtick_2">
     <g id="line2d_2">
      <g>
       <use xlink:href="#mdd722ef011" x="120.96" y="252" style="fill: #262626; stroke: #262626; stroke-width: 1.25"/>
      </g>
     </g>
     <g id="text_2">
      <!-- 5 -->
      <g style="fill: #262626" transform="translate(117.901484 269.373594)scale(0.11 -0.11)">
       <defs>
        <path id="ArialMT-35" d="M 266 1200 
L 856 1250 
Q 922 819 1161 601 
Q 1400 384 1738 384 
Q 2144 384 2425 690 
Q 2706 997 2706 1503 
Q 2706 1984 2436 2262 
Q 2166 2541 1728 2541 
Q 1456 2541 1237 2417 
Q 1019 2294 894 2097 
L 366 2166 
L 809 4519 
L 3088 4519 
L 3088 3981 
L 1259 3981 
L 1013 2750 
Q 1425 3038 1878 3038 
Q 2478 3038 2890 2622 
Q 3303 2206 3303 1553 
Q 3303 931 2941 478 
Q 2500 -78 1738 -78 
Q 1113 -78 717 272 
Q 322 622 266 1200 
z
" transform="scale(0.015625)"/>
       </defs>
       <use xlink:href="#ArialMT-35"/>
      </g>
     </g>
    </g>
    <g id="xtick_3">
     <g id="line2d_3">
      <g>
       <use xlink:href="#mdd722ef011" x="187.92" y="252" style="fill: #262626; stroke: #262626; stroke-width: 1.25"/>
      </g>
     </g>
     <g id="text_3">
      <!-- 10 -->
      <g style="fill: #262626" transform="translate(181.802969 269.373594)scale(0.11 -0.11)">
       <defs>
        <path id="ArialMT-31" d="M 2384 0 
L 1822 0 
L 1822 3584 
Q 1619 3391 1289 3197 
Q 959 3003 697 2906 
L 697 3450 
Q 1169 3672 1522 3987 
Q 1875 4303 2022 4600 
L 2384 4600 
L 2384 0 
z
" transform="scale(0.015625)"/>
       </defs>
       <use xlink:href="#ArialMT-31"/>
       <use xlink:href="#ArialMT-30" x="55.615234"/>
      </g>
     </g>
    </g>
    <g id="xtick_4">
     <g id="line2d_4">
      <g>
       <use xlink:href="#mdd722ef011" x="254.88" y="252" style="fill: #262626; stroke: #262626; stroke-width: 1.25"/>
      </g>
     </g>
     <g id="text_4">
      <!-- 15 -->
      <g style="fill: #262626" transform="translate(248.762969 269.373594)scale(0.11 -0.11)">
       <use xlink:href="#ArialMT-31"/>
       <use xlink:href="#ArialMT-35" x="55.615234"/>
      </g>
     </g>
    </g>
    <g id="xtick_5">
     <g id="line2d_5">
      <g>
       <use xlink:href="#mdd722ef011" x="321.84" y="252" style="fill: #262626; stroke: #262626; stroke-width: 1.25"/>
      </g>
     </g>
     <g id="text_5">
      <!-- 20 -->
      <g style="fill: #262626" transform="translate(315.722969 269.373594)scale(0.11 -0.11)">
       <defs>
        <path id="ArialMT-32" d="M 3222 541 
L 3222 0 
L 194 0 
Q 188 203 259 391 
Q 375 700 629 1000 
Q 884 1300 1366 1694 
Q 2113 2306 2375 2664 
Q 2638 3022 2638 3341 
Q 2638 3675 2398 3904 
Q 2159 4134 1775 4134 
Q 1369 4134 1125 3890 
Q 881 3647 878 3216 
L 300 3275 
Q 359 3922 746 4261 
Q 1134 4600 1788 4600 
Q 2447 4600 2831 4234 
Q 3216 3869 3216 3328 
Q 3216 3053 3103 2787 
Q 2991 2522 2730 2228 
Q 2469 1934 1863 1422 
Q 1356 997 1212 845 
Q 1069 694 975 541 
L 3222 541 
z
" transform="scale(0.015625)"/>
       </defs>
       <use xlink:href="#ArialMT-32"/>
       <use xlink:href="#ArialMT-30" x="55.615234"/>
      </g>
     </g>
    </g>
    <g id="xtick_6">
     <g id="line2d_6">
      <g>
       <use xlink:href="#mdd722ef011" x="388.8" y="252" style="fill: #262626; stroke: #262626; stroke-width: 1.25"/>
      </g>
     </g>
     <g id="text_6">
      <!-- 25 -->
      <g style="fill: #262626" transform="translate(382.682969 269.373594)scale(0.11 -0.11)">
       <use xlink:href="#ArialMT-32"/>
       <use xlink:href="#ArialMT-35" x="55.615234"/>
      </g>
     </g>
    </g>
    <g id="text_7">
     <!-- Frequency (Hz) -->
     <g style="fill: #262626" transform="translate(180.059063 284.295469)scale(0.12 -0.12)">
      <defs>
       <path id="ArialMT-46" d="M 525 0 
L 525 4581 
L 3616 4581 
L 3616 4041 
L 1131 4041 
L 1131 2622 
L 3281 2622 
L 3281 2081 
L 1131 2081 
L 1131 0 
L 525 0 
z
" transform="scale(0.015625)"/>
       <path id="ArialMT-72" d="M 416 0 
L 416 3319 
L 922 3319 
L 922 2816 
Q 1116 3169 1280 3281 
Q 1444 3394 1641 3394 
Q 1925 3394 2219 3213 
L 2025 2691 
Q 1819 2813 1613 2813 
Q 1428 2813 1281 2702 
Q 1134 2591 1072 2394 
Q 978 2094 978 1738 
L 978 0 
L 416 0 
z
" transform="scale(0.015625)"/>
       <path id="ArialMT-65" d="M 2694 1069 
L 3275 997 
Q 3138 488 2766 206 
Q 2394 -75 1816 -75 
Q 1088 -75 661 373 
Q 234 822 234 1631 
Q 234 2469 665 2931 
Q 1097 3394 1784 3394 
Q 2450 3394 2872 2941 
Q 3294 2488 3294 1666 
Q 3294 1616 3291 1516 
L 816 1516 
Q 847 969 1125 678 
Q 1403 388 1819 388 
Q 2128 388 2347 550 
Q 2566 713 2694 1069 
z
M 847 1978 
L 2700 1978 
Q 2663 2397 2488 2606 
Q 2219 2931 1791 2931 
Q 1403 2931 1139 2672 
Q 875 2413 847 1978 
z
" transform="scale(0.015625)"/>
       <path id="ArialMT-71" d="M 2538 -1272 
L 2538 353 
Q 2406 169 2170 47 
Q 1934 -75 1669 -75 
Q 1078 -75 651 397 
Q 225 869 225 1691 
Q 225 2191 398 2587 
Q 572 2984 901 3189 
Q 1231 3394 1625 3394 
Q 2241 3394 2594 2875 
L 2594 3319 
L 3100 3319 
L 3100 -1272 
L 2538 -1272 
z
M 803 1669 
Q 803 1028 1072 708 
Q 1341 388 1716 388 
Q 2075 388 2334 692 
Q 2594 997 2594 1619 
Q 2594 2281 2320 2615 
Q 2047 2950 1678 2950 
Q 1313 2950 1058 2639 
Q 803 2328 803 1669 
z
" transform="scale(0.015625)"/>
       <path id="ArialMT-75" d="M 2597 0 
L 2597 488 
Q 2209 -75 1544 -75 
Q 1250 -75 995 37 
Q 741 150 617 320 
Q 494 491 444 738 
Q 409 903 409 1263 
L 409 3319 
L 972 3319 
L 972 1478 
Q 972 1038 1006 884 
Q 1059 663 1231 536 
Q 1403 409 1656 409 
Q 1909 409 2131 539 
Q 2353 669 2445 892 
Q 2538 1116 2538 1541 
L 2538 3319 
L 3100 3319 
L 3100 0 
L 2597 0 
z
" transform="scale(0.015625)"/>
       <path id="ArialMT-6e" d="M 422 0 
L 422 3319 
L 928 3319 
L 928 2847 
Q 1294 3394 1984 3394 
Q 2284 3394 2536 3286 
Q 2788 3178 2913 3003 
Q 3038 2828 3088 2588 
Q 3119 2431 3119 2041 
L 3119 0 
L 2556 0 
L 2556 2019 
Q 2556 2363 2490 2533 
Q 2425 2703 2258 2804 
Q 2091 2906 1866 2906 
Q 1506 2906 1245 2678 
Q 984 2450 984 1813 
L 984 0 
L 422 0 
z
" transform="scale(0.015625)"/>
       <path id="ArialMT-63" d="M 2588 1216 
L 3141 1144 
Q 3050 572 2676 248 
Q 2303 -75 1759 -75 
Q 1078 -75 664 370 
Q 250 816 250 1647 
Q 250 2184 428 2587 
Q 606 2991 970 3192 
Q 1334 3394 1763 3394 
Q 2303 3394 2647 3120 
Q 2991 2847 3088 2344 
L 2541 2259 
Q 2463 2594 2264 2762 
Q 2066 2931 1784 2931 
Q 1359 2931 1093 2626 
Q 828 2322 828 1663 
Q 828 994 1084 691 
Q 1341 388 1753 388 
Q 2084 388 2306 591 
Q 2528 794 2588 1216 
z
" transform="scale(0.015625)"/>
       <path id="ArialMT-79" d="M 397 -1278 
L 334 -750 
Q 519 -800 656 -800 
Q 844 -800 956 -737 
Q 1069 -675 1141 -563 
Q 1194 -478 1313 -144 
Q 1328 -97 1363 -6 
L 103 3319 
L 709 3319 
L 1400 1397 
Q 1534 1031 1641 628 
Q 1738 1016 1872 1384 
L 2581 3319 
L 3144 3319 
L 1881 -56 
Q 1678 -603 1566 -809 
Q 1416 -1088 1222 -1217 
Q 1028 -1347 759 -1347 
Q 597 -1347 397 -1278 
z
" transform="scale(0.015625)"/>
       <path id="ArialMT-20" transform="scale(0.015625)"/>
       <path id="ArialMT-28" d="M 1497 -1347 
Q 1031 -759 709 28 
Q 388 816 388 1659 
Q 388 2403 628 3084 
Q 909 3875 1497 4659 
L 1900 4659 
Q 1522 4009 1400 3731 
Q 1209 3300 1100 2831 
Q 966 2247 966 1656 
Q 966 153 1900 -1347 
L 1497 -1347 
z
" transform="scale(0.015625)"/>
       <path id="ArialMT-48" d="M 513 0 
L 513 4581 
L 1119 4581 
L 1119 2700 
L 3500 2700 
L 3500 4581 
L 4106 4581 
L 4106 0 
L 3500 0 
L 3500 2159 
L 1119 2159 
L 1119 0 
L 513 0 
z
" transform="scale(0.015625)"/>
       <path id="ArialMT-7a" d="M 125 0 
L 125 456 
L 2238 2881 
Q 1878 2863 1603 2863 
L 250 2863 
L 250 3319 
L 2963 3319 
L 2963 2947 
L 1166 841 
L 819 456 
Q 1197 484 1528 484 
L 3063 484 
L 3063 0 
L 125 0 
z
" transform="scale(0.015625)"/>
       <path id="ArialMT-29" d="M 791 -1347 
L 388 -1347 
Q 1322 153 1322 1656 
Q 1322 2244 1188 2822 
Q 1081 3291 891 3722 
Q 769 4003 388 4659 
L 791 4659 
Q 1378 3875 1659 3084 
Q 1900 2403 1900 1659 
Q 1900 816 1576 28 
Q 1253 -759 791 -1347 
z
" transform="scale(0.015625)"/>
      </defs>
      <use xlink:href="#ArialMT-46"/>
      <use xlink:href="#ArialMT-72" x="61.083984"/>
      <use xlink:href="#ArialMT-65" x="94.384766"/>
      <use xlink:href="#ArialMT-71" x="150"/>
      <use xlink:href="#ArialMT-75" x="205.615234"/>
      <use xlink:href="#ArialMT-65" x="261.230469"/>
      <use xlink:href="#ArialMT-6e" x="316.845703"/>
      <use xlink:href="#ArialMT-63" x="372.460938"/>
      <use xlink:href="#ArialMT-79" x="422.460938"/>
      <use xlink:href="#ArialMT-20" x="472.460938"/>
      <use xlink:href="#ArialMT-28" x="500.244141"/>
      <use xlink:href="#ArialMT-48" x="533.544922"/>
      <use xlink:href="#ArialMT-7a" x="605.761719"/>
      <use xlink:href="#ArialMT-29" x="655.761719"/>
     </g>
    </g>
   </g>
   <g id="matplotlib.axis_2">
    <g id="ytick_1">
     <g id="line2d_7">
      <defs>
       <path id="md4673918ae" d="M 0 0 
L -6 0 
" style="stroke: #262626; stroke-width: 1.25"/>
      </defs>
      <g>
       <use xlink:href="#md4673918ae" x="54" y="242.116364" style="fill: #262626; stroke: #262626; stroke-width: 1.25"/>
      </g>
     </g>
     <g id="text_8">
      <!-- 0 -->
      <g style="fill: #262626" transform="translate(38.382969 246.053161)scale(0.11 -0.11)">
       <use xlink:href="#ArialMT-30"/>
      </g>
     </g>
    </g>
    <g id="ytick_2">
     <g id="line2d_8">
      <g>
       <use xlink:href="#md4673918ae" x="54" y="217.098701" style="fill: #262626; stroke: #262626; stroke-width: 1.25"/>
      </g>
     </g>
     <g id="text_9">
      <!-- 500 -->
      <g style="fill: #262626" transform="translate(26.148906 221.035498)scale(0.11 -0.11)">
       <use xlink:href="#ArialMT-35"/>
       <use xlink:href="#ArialMT-30" x="55.615234"/>
       <use xlink:href="#ArialMT-30" x="111.230469"/>
      </g>
     </g>
    </g>
    <g id="ytick_3">
     <g id="line2d_9">
      <g>
       <use xlink:href="#md4673918ae" x="54" y="192.081039" style="fill: #262626; stroke: #262626; stroke-width: 1.25"/>
      </g>
     </g>
     <g id="text_10">
      <!-- 1000 -->
      <g style="fill: #262626" transform="translate(20.031875 196.017836)scale(0.11 -0.11)">
       <use xlink:href="#ArialMT-31"/>
       <use xlink:href="#ArialMT-30" x="55.615234"/>
       <use xlink:href="#ArialMT-30" x="111.230469"/>
       <use xlink:href="#ArialMT-30" x="166.845703"/>
      </g>
     </g>
    </g>
    <g id="ytick_4">
     <g id="line2d_10">
      <g>
       <use xlink:href="#md4673918ae" x="54" y="167.063377" style="fill: #262626; stroke: #262626; stroke-width: 1.25"/>
      </g>
     </g>
     <g id="text_11">
      <!-- 1500 -->
      <g style="fill: #262626" transform="translate(20.031875 171.000174)scale(0.11 -0.11)">
       <use xlink:href="#ArialMT-31"/>
       <use xlink:href="#ArialMT-35" x="55.615234"/>
       <use xlink:href="#ArialMT-30" x="111.230469"/>
       <use xlink:href="#ArialMT-30" x="166.845703"/>
      </g>
     </g>
    </g>
    <g id="ytick_5">
     <g id="line2d_11">
      <g>
       <use xlink:href="#md4673918ae" x="54" y="142.045715" style="fill: #262626; stroke: #262626; stroke-width: 1.25"/>
      </g>
     </g>
     <g id="text_12">
      <!-- 2000 -->
      <g style="fill: #262626" transform="translate(20.031875 145.982511)scale(0.11 -0.11)">
       <use xlink:href="#ArialMT-32"/>
       <use xlink:href="#ArialMT-30" x="55.615234"/>
       <use xlink:href="#ArialMT-30" x="111.230469"/>
       <use xlink:href="#ArialMT-30" x="166.845703"/>
      </g>
     </g>
    </g>
    <g id="ytick_6">
     <g id="line2d_12">
      <g>
       <use xlink:href="#md4673918ae" x="54" y="117.028052" style="fill: #262626; stroke: #262626; stroke-width: 1.25"/>
      </g>
     </g>
     <g id="text_13">
      <!-- 2500 -->
      <g style="fill: #262626" transform="translate(20.031875 120.964849)scale(0.11 -0.11)">
       <use xlink:href="#ArialMT-32"/>
       <use xlink:href="#ArialMT-35" x="55.615234"/>
       <use xlink:href="#ArialMT-30" x="111.230469"/>
       <use xlink:href="#ArialMT-30" x="166.845703"/>
      </g>
     </g>
    </g>
    <g id="ytick_7">
     <g id="line2d_13">
      <g>
       <use xlink:href="#md4673918ae" x="54" y="92.01039" style="fill: #262626; stroke: #262626; stroke-width: 1.25"/>
      </g>
     </g>
     <g id="text_14">
      <!-- 3000 -->
      <g style="fill: #262626" transform="translate(20.031875 95.947187)scale(0.11 -0.11)">
       <defs>
        <path id="ArialMT-33" d="M 269 1209 
L 831 1284 
Q 928 806 1161 595 
Q 1394 384 1728 384 
Q 2125 384 2398 659 
Q 2672 934 2672 1341 
Q 2672 1728 2419 1979 
Q 2166 2231 1775 2231 
Q 1616 2231 1378 2169 
L 1441 2663 
Q 1497 2656 1531 2656 
Q 1891 2656 2178 2843 
Q 2466 3031 2466 3422 
Q 2466 3731 2256 3934 
Q 2047 4138 1716 4138 
Q 1388 4138 1169 3931 
Q 950 3725 888 3313 
L 325 3413 
Q 428 3978 793 4289 
Q 1159 4600 1703 4600 
Q 2078 4600 2393 4439 
Q 2709 4278 2876 4000 
Q 3044 3722 3044 3409 
Q 3044 3113 2884 2869 
Q 2725 2625 2413 2481 
Q 2819 2388 3044 2092 
Q 3269 1797 3269 1353 
Q 3269 753 2831 336 
Q 2394 -81 1725 -81 
Q 1122 -81 723 278 
Q 325 638 269 1209 
z
" transform="scale(0.015625)"/>
       </defs>
       <use xlink:href="#ArialMT-33"/>
       <use xlink:href="#ArialMT-30" x="55.615234"/>
       <use xlink:href="#ArialMT-30" x="111.230469"/>
       <use xlink:href="#ArialMT-30" x="166.845703"/>
      </g>
     </g>
    </g>
    <g id="ytick_8">
     <g id="line2d_14">
      <g>
       <use xlink:href="#md4673918ae" x="54" y="66.992728" style="fill: #262626; stroke: #262626; stroke-width: 1.25"/>
      </g>
     </g>
     <g id="text_15">
      <!-- 3500 -->
      <g style="fill: #262626" transform="translate(20.031875 70.929525)scale(0.11 -0.11)">
       <use xlink:href="#ArialMT-33"/>
       <use xlink:href="#ArialMT-35" x="55.615234"/>
       <use xlink:href="#ArialMT-30" x="111.230469"/>
       <use xlink:href="#ArialMT-30" x="166.845703"/>
      </g>
     </g>
    </g>
    <g id="ytick_9">
     <g id="line2d_15">
      <g>
       <use xlink:href="#md4673918ae" x="54" y="41.975066" style="fill: #262626; stroke: #262626; stroke-width: 1.25"/>
      </g>
     </g>
     <g id="text_16">
      <!-- 4000 -->
      <g style="fill: #262626" transform="translate(20.031875 45.911862)scale(0.11 -0.11)">
       <defs>
        <path id="ArialMT-34" d="M 2069 0 
L 2069 1097 
L 81 1097 
L 81 1613 
L 2172 4581 
L 2631 4581 
L 2631 1613 
L 3250 1613 
L 3250 1097 
L 2631 1097 
L 2631 0 
L 2069 0 
z
M 2069 1613 
L 2069 3678 
L 634 1613 
L 2069 1613 
z
" transform="scale(0.015625)"/>
       </defs>
       <use xlink:href="#ArialMT-34"/>
       <use xlink:href="#ArialMT-30" x="55.615234"/>
       <use xlink:href="#ArialMT-30" x="111.230469"/>
       <use xlink:href="#ArialMT-30" x="166.845703"/>
      </g>
     </g>
    </g>
   </g>
   <g id="line2d_16">
    <path d="M 54 241.95445 
L 159.700074 241.883755 
L 162.691586 241.681897 
L 163.688757 241.776546 
L 164.685927 241.500818 
L 166.680268 241.60722 
L 167.677439 241.496182 
L 168.674609 241.58297 
L 169.67178 241.259873 
L 170.66895 241.151592 
L 171.666121 241.541515 
L 172.663291 241.301055 
L 174.657632 241.271848 
L 175.654803 240.830199 
L 177.649144 241.288375 
L 178.646314 240.95951 
L 180.640655 241.663605 
L 181.637826 241.393756 
L 182.634996 240.349028 
L 183.632167 240.11074 
L 184.629337 241.580706 
L 185.626508 241.865626 
L 186.623678 241.127669 
L 187.620849 240.560602 
L 188.618019 241.224226 
L 189.61519 241.7086 
L 190.61236 241.6973 
L 192.606701 241.199824 
L 193.603872 241.994187 
L 194.601042 241.67121 
L 195.598213 238.229606 
L 196.595383 240.983032 
L 197.592554 239.788825 
L 199.586895 240.321055 
L 200.584066 239.041128 
L 201.581236 240.615211 
L 202.578407 241.41748 
L 203.575577 242.007524 
L 204.572748 240.331289 
L 205.569918 240.067776 
L 206.567089 241.726683 
L 207.564259 241.990246 
L 208.56143 241.766335 
L 209.5586 241.222884 
L 210.555771 241.771943 
L 211.552941 241.720924 
L 212.550112 241.367338 
L 213.547282 242.082877 
L 214.544453 241.778597 
L 215.541623 239.965646 
L 216.538794 241.234391 
L 217.535964 241.581233 
L 218.533135 240.841278 
L 219.530305 239.516933 
L 220.527476 241.47028 
L 221.524646 240.648486 
L 222.521817 240.603109 
L 223.518987 237.815229 
L 224.516158 241.620382 
L 225.513328 239.367133 
L 226.510499 239.53974 
L 228.50484 242.005357 
L 229.50201 233.720848 
L 230.499181 238.516297 
L 231.496351 238.574694 
L 232.493522 240.106179 
L 233.490692 239.196057 
L 234.487863 239.642831 
L 235.485034 236.463109 
L 236.482204 240.055069 
L 237.479375 239.20399 
L 239.473716 241.01244 
L 240.470886 241.199902 
L 241.468057 240.545471 
L 242.465227 238.0593 
L 243.462398 240.043385 
L 244.459568 238.693816 
L 245.456739 238.832493 
L 246.453909 237.69427 
L 247.45108 234.621305 
L 248.44825 239.504223 
L 249.445421 241.19829 
L 250.442591 241.296934 
L 251.439762 236.117312 
L 252.436932 233.695771 
L 253.434103 238.902799 
L 254.431273 241.382558 
L 255.428444 235.773289 
L 256.425614 238.650703 
L 257.422785 238.472592 
L 258.419955 237.450423 
L 259.417126 240.474181 
L 260.414296 237.814834 
L 261.411467 237.908488 
L 262.408637 241.309083 
L 264.402978 238.355816 
L 265.400149 235.597512 
L 267.39449 241.841661 
L 268.39166 237.94648 
L 269.388831 239.556456 
L 270.386001 241.974078 
L 271.383172 239.267694 
L 272.380343 241.706556 
L 273.377513 241.996548 
L 274.374684 241.472206 
L 275.371854 241.149048 
L 276.369025 240.644076 
L 277.366195 241.274143 
L 278.363366 241.327455 
L 279.360536 232.917041 
L 280.357707 237.741718 
L 281.354877 239.389025 
L 282.352048 229.400873 
L 283.349218 241.301736 
L 284.346389 220.92799 
L 285.343559 237.056204 
L 286.34073 235.00256 
L 287.3379 235.407795 
L 288.335071 232.400232 
L 289.332241 229.905652 
L 290.329412 241.867422 
L 291.326582 241.819421 
L 292.323753 241.180336 
L 293.320923 233.933772 
L 294.318094 241.385522 
L 295.315264 241.51587 
L 296.312435 237.607379 
L 297.309605 241.026817 
L 298.306776 240.476506 
L 300.301117 241.704226 
L 301.298287 241.643889 
L 302.295458 239.518287 
L 303.292628 241.603575 
L 304.289799 240.653109 
L 305.286969 237.67579 
L 307.28131 241.274941 
L 308.278481 241.053042 
L 309.275652 240.137881 
L 310.272822 238.32743 
L 311.269993 241.458845 
L 312.267163 240.540293 
L 313.264334 239.150117 
L 314.261504 238.265631 
L 315.258675 237.152245 
L 316.255845 240.549207 
L 317.253016 237.65187 
L 318.250186 240.803012 
L 319.247357 241.018243 
L 320.244527 241.513311 
L 321.241698 240.763618 
L 322.238868 241.299618 
L 323.236039 236.054276 
L 324.233209 241.320538 
L 325.23038 241.308638 
L 326.22755 238.913499 
L 327.224721 240.124953 
L 328.221891 240.279508 
L 329.219062 240.231625 
L 330.216232 240.401592 
L 331.213403 235.216611 
L 332.210573 239.093398 
L 333.207744 239.786156 
L 334.204914 239.377139 
L 335.202085 238.81474 
L 336.199255 241.002905 
L 337.196426 239.437484 
L 338.193596 241.794573 
L 339.190767 242.03007 
L 340.187937 241.850058 
L 342.182278 239.238124 
L 343.179449 239.822508 
L 344.17662 240.2362 
L 345.17379 239.452577 
L 346.170961 239.458475 
L 347.168131 241.136969 
L 348.165302 241.672242 
L 349.162472 239.011775 
L 350.159643 239.698141 
L 351.156813 241.049113 
L 352.153984 240.767808 
L 353.151154 239.724073 
L 354.148325 238.073215 
L 355.145495 241.766458 
L 356.142666 240.863569 
L 357.139836 241.654295 
L 358.137007 241.154635 
L 359.134177 239.96148 
L 360.131348 239.2235 
L 361.128518 240.222547 
L 362.125689 239.263536 
L 363.122859 238.667961 
L 364.12003 241.752841 
L 365.1172 241.846785 
L 366.114371 241.825166 
L 367.111541 241.677336 
L 368.108712 241.125991 
L 369.105882 241.760188 
L 370.103053 242.07396 
L 371.100223 241.243573 
L 372.097394 241.771167 
L 373.094564 241.963136 
L 375.088905 242.082558 
L 376.086076 239.398899 
L 377.083246 240.942439 
L 378.080417 241.369964 
L 379.077587 241.358444 
L 380.074758 240.809519 
L 381.071929 241.782907 
L 382.069099 241.891984 
L 383.06627 241.846993 
L 384.06344 241.271687 
L 385.060611 240.064418 
L 386.057781 241.958559 
L 388.052122 241.356808 
L 389.049293 242.102745 
L 390.046463 241.061588 
L 391.043634 240.565633 
L 392.040804 241.49238 
L 393.037975 240.216466 
L 394.035145 238.584042 
L 395.032316 239.545597 
L 396.029486 241.936501 
L 397.026657 241.585878 
L 398.023827 241.69875 
L 399.020998 240.874479 
L 400.018168 240.698014 
L 401.015339 242.098963 
L 402.012509 241.828664 
L 403.00968 240.652299 
L 404.00685 239.696674 
L 405.004021 241.193676 
L 406.001191 241.323932 
L 406.998362 241.036485 
L 407.995532 242.107001 
L 408.992703 241.872237 
L 409.989873 241.75292 
L 410.987044 241.942729 
L 411.984214 240.358939 
L 412.981385 241.965294 
L 413.978555 240.155793 
L 414.975726 241.725315 
L 415.972897 240.77722 
L 416.970067 241.787995 
L 417.967238 241.154347 
L 418.964408 241.761996 
L 419.961579 239.652103 
L 420.958749 240.560304 
L 421.95592 242.036501 
L 422.95309 241.874724 
L 423.950261 240.979007 
L 424.947431 239.905515 
L 425.944602 241.716176 
L 426.941772 242.017297 
L 427.938943 241.270102 
L 428.936113 241.606876 
L 429.933284 240.777414 
L 430.930454 241.766428 
L 431.927625 241.318716 
L 433 241.400291 
M 433 242.116246 
L -1 242.116246 
L -1 242.116246 
" clip-path="url(#pf591c45c00)" style="fill: none; stroke: #4c72b0; stroke-opacity: 0.3; stroke-width: 1.5; stroke-linecap: round"/>
   </g>
   <g id="line2d_17">
    <path d="M 54 241.942528 
L 163.688757 241.915654 
L 164.685927 241.784665 
L 167.677439 241.886803 
L 170.66895 241.645081 
L 171.666121 241.855396 
L 172.663291 241.593645 
L 173.660462 241.862078 
L 174.657632 241.319036 
L 175.654803 241.629895 
L 176.651973 241.464494 
L 179.643485 241.664893 
L 180.640655 241.297425 
L 181.637826 242.090429 
L 182.634996 241.586257 
L 184.629337 242.014531 
L 185.626508 241.420396 
L 187.620849 241.703119 
L 188.618019 241.248728 
L 189.61519 241.451384 
L 190.61236 240.357144 
L 191.609531 241.824596 
L 192.606701 242.022807 
L 193.603872 241.714845 
L 195.598213 239.706701 
L 196.595383 241.502483 
L 197.592554 241.645509 
L 198.589724 241.094294 
L 199.586895 239.351199 
L 200.584066 239.910755 
L 201.581236 241.085838 
L 202.578407 240.698463 
L 204.572748 237.731743 
L 205.569918 241.776408 
L 206.567089 239.279555 
L 207.564259 238.435703 
L 209.5586 240.898819 
L 210.555771 234.550003 
L 211.552941 237.776754 
L 212.550112 239.373104 
L 213.547282 239.302207 
L 214.544453 239.782916 
L 215.541623 240.710345 
L 216.538794 240.687682 
L 217.535964 239.731338 
L 218.533135 240.523187 
L 220.527476 238.963008 
L 221.524646 238.48912 
L 222.521817 240.553428 
L 223.518987 238.977828 
L 224.516158 239.13873 
L 225.513328 240.321002 
L 226.510499 238.051038 
L 227.507669 236.134538 
L 228.50484 237.046433 
L 230.499181 236.356905 
L 231.496351 235.688067 
L 232.493522 231.53926 
L 233.490692 237.178694 
L 234.487863 235.400551 
L 236.482204 238.243097 
L 237.479375 238.618431 
L 238.476545 235.330609 
L 239.473716 235.944968 
L 240.470886 233.058374 
L 241.468057 238.189603 
L 242.465227 239.999646 
L 243.462398 233.952237 
L 244.459568 236.60993 
L 245.456739 235.949928 
L 246.453909 239.714129 
L 247.45108 238.45027 
L 248.44825 238.874969 
L 249.445421 235.24571 
L 250.442591 239.781906 
L 251.439762 235.808183 
L 252.436932 236.411155 
L 253.434103 237.768513 
L 254.431273 237.338334 
L 255.428444 233.377572 
L 256.425614 239.509707 
L 257.422785 240.55262 
L 258.419955 241.074274 
L 259.417126 240.907967 
L 261.411467 238.685228 
L 262.408637 239.451551 
L 263.405808 241.583569 
L 264.402978 242.004288 
L 265.400149 239.350999 
L 266.397319 241.234938 
L 267.39449 240.368502 
L 268.39166 241.905331 
L 269.388831 241.562092 
L 270.386001 240.965232 
L 271.383172 241.458864 
L 272.380343 238.594913 
L 273.377513 237.441091 
L 274.374684 237.853842 
L 275.371854 240.93345 
L 276.369025 236.569421 
L 277.366195 239.541127 
L 278.363366 240.726644 
L 279.360536 238.782857 
L 280.357707 240.602116 
L 281.354877 240.184098 
L 282.352048 224.713571 
L 283.349218 238.038146 
L 284.346389 238.377917 
L 285.343559 220.906636 
L 286.34073 227.219388 
L 287.3379 230.349742 
L 288.335071 229.050674 
L 289.332241 222.742155 
L 290.329412 231.466978 
L 291.326582 233.445281 
L 292.323753 239.684795 
L 293.320923 230.983841 
L 294.318094 233.798575 
L 295.315264 239.250624 
L 296.312435 236.05929 
L 297.309605 235.964138 
L 298.306776 235.202544 
L 299.303946 234.174694 
L 300.301117 237.101392 
L 301.298287 240.458922 
L 302.295458 238.82248 
L 303.292628 238.172609 
L 304.289799 235.774727 
L 305.286969 238.689241 
L 306.28414 236.293454 
L 308.278481 241.375833 
L 309.275652 234.104072 
L 310.272822 239.640207 
L 311.269993 240.123877 
L 312.267163 239.991699 
L 313.264334 241.284189 
L 314.261504 238.669878 
L 315.258675 240.105787 
L 316.255845 240.164141 
L 317.253016 239.62033 
L 318.250186 237.688545 
L 319.247357 239.93275 
L 320.244527 239.922233 
L 321.241698 240.853556 
L 322.238868 241.504609 
L 323.236039 241.32012 
L 324.233209 239.749146 
L 325.23038 239.868209 
L 326.22755 241.551627 
L 327.224721 241.410779 
L 328.221891 240.256757 
L 329.219062 241.672085 
L 330.216232 241.111332 
L 331.213403 240.826371 
L 332.210573 241.131955 
L 333.207744 241.749801 
L 334.204914 241.157172 
L 335.202085 241.897086 
L 336.199255 242.044506 
L 337.196426 241.54601 
L 338.193596 241.4769 
L 339.190767 239.908621 
L 340.187937 238.635311 
L 341.185108 241.174294 
L 342.182278 241.600965 
L 343.179449 240.94847 
L 344.17662 240.107269 
L 345.17379 240.283691 
L 346.170961 240.618933 
L 347.168131 239.570842 
L 348.165302 240.763775 
L 349.162472 239.689746 
L 350.159643 240.092762 
L 351.156813 240.852726 
L 352.153984 241.340493 
L 353.151154 239.494577 
L 354.148325 241.391425 
L 355.145495 239.715915 
L 356.142666 241.881891 
L 357.139836 241.439329 
L 358.137007 237.968566 
L 359.134177 239.869166 
L 360.131348 239.970528 
L 361.128518 236.587127 
L 362.125689 240.738379 
L 363.122859 234.801424 
L 364.12003 238.954228 
L 365.1172 238.968476 
L 366.114371 238.708643 
L 367.111541 240.517545 
L 369.105882 240.679761 
L 370.103053 241.37057 
L 371.100223 239.787107 
L 373.094564 241.341463 
L 374.091735 239.740039 
L 375.088905 239.571917 
L 376.086076 240.163377 
L 377.083246 241.284737 
L 378.080417 241.531648 
L 379.077587 240.863661 
L 380.074758 241.231331 
L 381.071929 240.749609 
L 382.069099 240.954413 
L 383.06627 237.28439 
L 384.06344 241.505593 
L 385.060611 241.190735 
L 386.057781 238.37649 
L 387.054952 241.224238 
L 388.052122 241.79302 
L 389.049293 241.97529 
L 390.046463 241.952562 
L 391.043634 240.490775 
L 392.040804 240.486097 
L 393.037975 239.057158 
L 394.035145 240.651472 
L 395.032316 241.459821 
L 396.029486 240.51575 
L 397.026657 239.724787 
L 398.023827 242.084314 
L 399.020998 241.07284 
L 400.018168 241.385474 
L 401.015339 241.994392 
L 402.012509 241.783025 
L 403.00968 241.406162 
L 404.00685 240.895136 
L 405.004021 241.977119 
L 406.001191 241.855986 
L 406.998362 240.483892 
L 407.995532 241.866349 
L 409.989873 241.381261 
L 410.987044 241.583164 
L 411.984214 239.826298 
L 412.981385 241.400003 
L 413.978555 241.363441 
L 414.975726 241.132761 
L 415.972897 241.683453 
L 416.970067 241.992383 
L 418.964408 240.95021 
L 419.961579 241.899916 
L 423.950261 241.73834 
L 424.947431 241.71667 
L 425.944602 241.973792 
L 426.941772 241.928961 
L 427.938943 241.580212 
L 428.936113 242.013769 
L 430.930454 242.098273 
L 431.927625 242.106614 
L 433 241.782426 
M 433 242.11624 
L -1 242.11624 
L -1 242.11624 
" clip-path="url(#pf591c45c00)" style="fill: none; stroke: #dd8452; stroke-opacity: 0.3; stroke-width: 1.5; stroke-linecap: round"/>
   </g>
   <g id="line2d_18">
    <path d="M 54 242.116364 
L 433 242.116364 
M 433 242.116364 
L -1 242.116364 
L -1 242.116364 
" clip-path="url(#pf591c45c00)" style="fill: none; stroke: #55a868; stroke-opacity: 0.3; stroke-width: 1.5; stroke-linecap: round"/>
   </g>
   <g id="line2d_19">
    <path d="M 54 241.922921 
L 164.685927 241.826827 
L 168.674609 241.762919 
L 169.67178 241.554074 
L 170.66895 241.603041 
L 171.666121 241.790621 
L 173.660462 241.153734 
L 174.657632 241.1376 
L 175.654803 240.802593 
L 176.651973 241.068441 
L 177.649144 240.9562 
L 178.646314 240.350485 
L 179.643485 240.456541 
L 180.640655 240.935285 
L 181.637826 240.275488 
L 182.634996 239.892908 
L 183.632167 239.634204 
L 184.629337 240.501211 
L 185.626508 240.901129 
L 186.623678 240.036078 
L 187.620849 238.406818 
L 188.618019 240.145896 
L 189.61519 240.787111 
L 190.61236 239.608146 
L 191.609531 240.048787 
L 192.606701 240.052983 
L 194.601042 241.094547 
L 195.598213 239.91415 
L 196.595383 241.502327 
L 197.592554 241.187364 
L 198.589724 241.475662 
L 200.584066 239.265651 
L 201.581236 241.324797 
L 202.578407 238.963631 
L 203.575577 239.476808 
L 204.572748 239.603123 
L 205.569918 238.746809 
L 206.567089 240.963197 
L 207.564259 240.238899 
L 208.56143 234.367669 
L 209.5586 239.084829 
L 210.555771 234.321513 
L 211.552941 239.796982 
L 212.550112 241.328368 
L 213.547282 237.663948 
L 214.544453 238.134406 
L 215.541623 237.429393 
L 216.538794 236.004248 
L 217.535964 236.860094 
L 218.533135 235.169247 
L 219.530305 233.848009 
L 220.527476 240.942725 
L 221.524646 236.686718 
L 222.521817 234.371376 
L 223.518987 239.671191 
L 224.516158 240.518031 
L 225.513328 240.300717 
L 226.510499 238.260642 
L 227.507669 241.654595 
L 228.50484 241.946694 
L 229.50201 241.733067 
L 230.499181 237.100841 
L 231.496351 236.180753 
L 232.493522 236.879361 
L 233.490692 241.635454 
L 234.487863 240.952804 
L 235.485034 239.616172 
L 236.482204 242.037613 
L 237.479375 240.621 
L 238.476545 241.430245 
L 239.473716 241.849422 
L 240.470886 241.832415 
L 241.468057 240.302406 
L 242.465227 242.069267 
L 243.462398 241.626163 
L 244.459568 239.231589 
L 245.456739 240.468308 
L 246.453909 238.997748 
L 247.45108 239.128506 
L 248.44825 237.095543 
L 249.445421 236.265296 
L 250.442591 241.3333 
L 251.439762 238.081983 
L 252.436932 237.209887 
L 253.434103 241.65641 
L 254.431273 241.729482 
L 255.428444 240.438788 
L 256.425614 240.302995 
L 257.422785 239.207358 
L 258.419955 239.875504 
L 259.417126 241.267162 
L 260.414296 239.175708 
L 261.411467 239.849874 
L 263.405808 240.279911 
L 264.402978 240.212642 
L 265.400149 236.993106 
L 266.397319 241.262207 
L 267.39449 239.999789 
L 268.39166 240.151601 
L 269.388831 241.592341 
L 270.386001 240.400242 
L 271.383172 241.013885 
L 272.380343 239.511385 
L 273.377513 240.656983 
L 274.374684 240.943451 
L 275.371854 239.848697 
L 276.369025 237.606515 
L 277.366195 238.607258 
L 278.363366 238.903219 
L 279.360536 228.242962 
L 280.357707 228.253331 
L 281.354877 226.540819 
L 282.352048 174.140235 
L 283.349218 233.629734 
L 284.346389 217.320882 
L 285.343559 219.512076 
L 286.34073 208.209064 
L 289.332241 230.820764 
L 290.329412 223.008476 
L 291.326582 220.897811 
L 292.323753 240.137571 
L 293.320923 233.503246 
L 294.318094 237.366934 
L 295.315264 238.884895 
L 296.312435 233.447459 
L 297.309605 234.456916 
L 298.306776 236.599558 
L 299.303946 234.968455 
L 300.301117 233.651162 
L 301.298287 234.149992 
L 302.295458 237.089234 
L 303.292628 235.517732 
L 304.289799 237.831924 
L 305.286969 237.146802 
L 306.28414 238.082808 
L 307.28131 237.465289 
L 308.278481 239.569541 
L 309.275652 236.940337 
L 310.272822 240.786246 
L 311.269993 239.439999 
L 312.267163 236.691817 
L 313.264334 238.262625 
L 314.261504 237.032572 
L 315.258675 234.761658 
L 316.255845 232.857258 
L 317.253016 237.127905 
L 318.250186 235.803783 
L 319.247357 232.711455 
L 320.244527 238.278067 
L 321.241698 237.877763 
L 322.238868 240.073779 
L 323.236039 235.931638 
L 324.233209 239.600556 
L 325.23038 241.008528 
L 326.22755 238.573282 
L 327.224721 240.457141 
L 328.221891 241.979626 
L 330.216232 240.272285 
L 331.213403 239.854458 
L 332.210573 241.108573 
L 333.207744 241.583761 
L 334.204914 241.309714 
L 335.202085 239.998086 
L 336.199255 239.431848 
L 337.196426 241.317415 
L 339.190767 241.974238 
L 340.187937 241.304293 
L 341.185108 241.392967 
L 342.182278 241.82262 
L 343.179449 241.742038 
L 344.17662 241.932292 
L 345.17379 241.882936 
L 346.170961 240.577363 
L 347.168131 242.041245 
L 350.159643 242.064076 
L 351.156813 241.488239 
L 352.153984 241.61449 
L 353.151154 241.47261 
L 354.148325 241.950103 
L 356.142666 241.984192 
L 358.137007 241.815495 
L 359.134177 242.01094 
L 360.131348 240.977245 
L 361.128518 242.101787 
L 362.125689 240.253022 
L 363.122859 241.329984 
L 364.12003 241.894966 
L 365.1172 239.655976 
L 366.114371 241.547327 
L 367.111541 241.082598 
L 368.108712 241.726248 
L 369.105882 241.996764 
L 370.103053 241.540249 
L 371.100223 241.631234 
L 372.097394 241.868383 
L 373.094564 240.657406 
L 374.091735 240.998701 
L 375.088905 240.935871 
L 376.086076 240.746409 
L 377.083246 241.318731 
L 378.080417 240.515222 
L 379.077587 240.802569 
L 380.074758 242.094842 
L 381.071929 240.876065 
L 382.069099 241.719056 
L 383.06627 240.899729 
L 384.06344 240.9091 
L 385.060611 241.34949 
L 386.057781 240.923025 
L 387.054952 241.943812 
L 388.052122 240.479744 
L 389.049293 241.71136 
L 390.046463 241.24252 
L 391.043634 242.034491 
L 392.040804 241.874078 
L 393.037975 241.437291 
L 394.035145 241.438089 
L 395.032316 241.082957 
L 396.029486 242.073777 
L 397.026657 240.596742 
L 398.023827 240.254297 
L 399.020998 241.702841 
L 400.018168 241.614217 
L 401.015339 242.077174 
L 403.00968 241.908089 
L 404.00685 241.893511 
L 405.004021 241.43069 
L 406.998362 241.877514 
L 407.995532 241.854231 
L 408.992703 241.113723 
L 410.987044 241.96296 
L 411.984214 241.748268 
L 412.981385 240.468212 
L 413.978555 241.854281 
L 414.975726 240.26047 
L 415.972897 239.459367 
L 416.970067 241.660515 
L 417.967238 242.093462 
L 418.964408 240.031723 
L 419.961579 241.080895 
L 420.958749 240.537155 
L 422.95309 241.862041 
L 423.950261 241.620904 
L 424.947431 241.88661 
L 425.944602 241.753099 
L 426.941772 240.839442 
L 427.938943 241.776436 
L 428.936113 241.283381 
L 429.933284 240.570967 
L 430.930454 242.002158 
L 431.927625 241.857768 
L 433 241.840827 
M 433 242.116212 
L -1 242.116212 
L -1 242.116212 
" clip-path="url(#pf591c45c00)" style="fill: none; stroke: #c44e52; stroke-opacity: 0.3; stroke-width: 1.5; stroke-linecap: round"/>
   </g>
   <g id="line2d_20">
    <path d="M 54 241.987271 
L 161.694415 241.883013 
L 165.683098 241.747668 
L 166.680268 241.91016 
L 168.674609 241.718925 
L 169.67178 241.697688 
L 170.66895 241.533429 
L 171.666121 241.727226 
L 172.663291 241.515753 
L 173.660462 241.593812 
L 174.657632 241.51236 
L 176.651973 240.992094 
L 178.646314 240.983774 
L 179.643485 240.47016 
L 180.640655 241.085683 
L 181.637826 240.368394 
L 182.634996 240.142591 
L 183.632167 240.953786 
L 184.629337 240.398351 
L 185.626508 240.759848 
L 186.623678 240.351832 
L 187.620849 239.622686 
L 189.61519 240.563937 
L 190.61236 239.122503 
L 191.609531 238.865309 
L 192.606701 241.148599 
L 193.603872 239.357868 
L 194.601042 240.307289 
L 195.598213 239.934515 
L 196.595383 240.400668 
L 197.592554 239.913256 
L 199.586895 241.336704 
L 200.584066 239.343886 
L 201.581236 240.95534 
L 202.578407 238.747452 
L 203.575577 241.161078 
L 204.572748 240.333677 
L 205.569918 237.367622 
L 206.567089 241.945863 
L 207.564259 239.161691 
L 208.56143 239.022781 
L 209.5586 239.718919 
L 210.555771 240.18407 
L 211.552941 240.891997 
L 212.550112 240.142157 
L 213.547282 240.393253 
L 214.544453 238.198577 
L 215.541623 241.690325 
L 216.538794 240.258657 
L 217.535964 240.572499 
L 219.530305 238.39437 
L 220.527476 240.032179 
L 221.524646 240.645696 
L 222.521817 238.496186 
L 223.518987 240.032108 
L 224.516158 239.585197 
L 225.513328 241.251254 
L 226.510499 238.860532 
L 227.507669 241.146678 
L 228.50484 241.638084 
L 229.50201 241.302855 
L 231.496351 240.157601 
L 232.493522 241.456718 
L 233.490692 242.095495 
L 234.487863 241.428859 
L 235.485034 239.798543 
L 237.479375 241.240113 
L 238.476545 239.749973 
L 239.473716 240.631388 
L 240.470886 241.120174 
L 241.468057 240.887443 
L 242.465227 242.007598 
L 243.462398 240.783392 
L 244.459568 241.196638 
L 246.453909 240.138697 
L 247.45108 241.599764 
L 248.44825 240.979096 
L 249.445421 238.893064 
L 250.442591 239.66738 
L 251.439762 241.049873 
L 252.436932 240.384345 
L 253.434103 240.719852 
L 254.431273 241.627073 
L 256.425614 241.358907 
L 257.422785 242.044456 
L 258.419955 241.358789 
L 259.417126 242.044146 
L 260.414296 240.972057 
L 261.411467 241.748101 
L 262.408637 240.066649 
L 263.405808 241.388705 
L 264.402978 241.898508 
L 265.400149 238.119504 
L 266.397319 237.876778 
L 267.39449 240.28233 
L 268.39166 238.281013 
L 269.388831 238.548205 
L 270.386001 239.442335 
L 271.383172 241.881318 
L 272.380343 240.818705 
L 273.377513 242.019726 
L 274.374684 240.975375 
L 275.371854 239.676169 
L 276.369025 240.689154 
L 278.363366 233.23142 
L 279.360536 222.752008 
L 280.357707 227.800203 
L 281.354877 209.674757 
L 282.352048 44.443636 
L 283.349218 238.801046 
L 284.346389 220.854805 
L 285.343559 227.149267 
L 286.34073 201.048966 
L 287.3379 210.904321 
L 288.335071 190.687166 
L 289.332241 199.127476 
L 290.329412 212.281524 
L 291.326582 220.498006 
L 292.323753 232.1817 
L 293.320923 233.814951 
L 294.318094 237.329845 
L 295.315264 235.656955 
L 296.312435 241.959971 
L 297.309605 241.978898 
L 298.306776 240.947187 
L 299.303946 241.290868 
L 300.301117 241.890025 
L 301.298287 241.676352 
L 302.295458 240.994212 
L 303.292628 239.585322 
L 304.289799 241.567494 
L 305.286969 241.515588 
L 306.28414 240.41786 
L 307.28131 241.214475 
L 308.278481 239.729197 
L 309.275652 241.075675 
L 310.272822 242.062384 
L 311.269993 242.099388 
L 312.267163 241.941036 
L 313.264334 241.933818 
L 314.261504 242.082775 
L 315.258675 240.453235 
L 316.255845 239.966201 
L 317.253016 240.943194 
L 318.250186 241.255616 
L 319.247357 241.408419 
L 320.244527 241.978844 
L 321.241698 240.468736 
L 322.238868 241.425263 
L 323.236039 242.090504 
L 324.233209 240.167686 
L 325.23038 237.586211 
L 326.22755 241.54206 
L 327.224721 240.154496 
L 328.221891 241.01563 
L 329.219062 240.320129 
L 330.216232 240.635377 
L 331.213403 241.359185 
L 332.210573 240.235193 
L 333.207744 242.083583 
L 334.204914 239.773324 
L 335.202085 241.875559 
L 336.199255 240.993168 
L 337.196426 241.114052 
L 339.190767 241.965116 
L 340.187937 241.061786 
L 341.185108 241.00097 
L 342.182278 241.987583 
L 343.179449 242.059299 
L 344.17662 240.003083 
L 345.17379 240.91594 
L 346.170961 241.09321 
L 347.168131 241.84588 
L 348.165302 240.504824 
L 349.162472 240.131406 
L 350.159643 241.401087 
L 351.156813 240.558199 
L 352.153984 242.082211 
L 353.151154 240.98201 
L 354.148325 241.986783 
L 355.145495 241.803155 
L 356.142666 240.923922 
L 357.139836 241.652633 
L 358.137007 241.588513 
L 360.131348 240.87928 
L 361.128518 241.694495 
L 362.125689 240.377128 
L 363.122859 241.746746 
L 364.12003 239.265893 
L 365.1172 241.511563 
L 366.114371 241.46612 
L 367.111541 241.065536 
L 368.108712 242.087639 
L 369.105882 239.355348 
L 370.103053 241.81528 
L 371.100223 241.344167 
L 372.097394 241.59939 
L 373.094564 240.937252 
L 374.091735 240.500691 
L 375.088905 241.622461 
L 376.086076 241.294865 
L 377.083246 241.849182 
L 378.080417 242.0693 
L 379.077587 241.498657 
L 380.074758 240.571576 
L 381.071929 241.578024 
L 382.069099 242.065141 
L 383.06627 241.755896 
L 384.06344 241.718438 
L 385.060611 241.294142 
L 386.057781 241.444417 
L 388.052122 240.895269 
L 389.049293 241.253523 
L 390.046463 240.451074 
L 391.043634 241.486454 
L 392.040804 240.075813 
L 393.037975 240.682265 
L 394.035145 242.098106 
L 396.029486 240.539266 
L 397.026657 241.422393 
L 398.023827 240.523378 
L 399.020998 241.148742 
L 400.018168 240.735569 
L 401.015339 241.640452 
L 402.012509 240.659475 
L 403.00968 241.837481 
L 404.00685 241.668712 
L 405.004021 241.803261 
L 406.001191 242.051696 
L 406.998362 242.033407 
L 407.995532 240.981131 
L 408.992703 241.949951 
L 409.989873 242.023153 
L 410.987044 241.842001 
L 411.984214 240.029882 
L 412.981385 241.782684 
L 413.978555 241.218872 
L 414.975726 240.440963 
L 415.972897 240.665355 
L 416.970067 241.745762 
L 417.967238 240.585746 
L 418.964408 240.189491 
L 419.961579 240.351741 
L 420.958749 241.93342 
L 421.95592 240.083254 
L 422.95309 240.913837 
L 423.950261 241.915832 
L 424.947431 241.986289 
L 425.944602 240.678161 
L 426.941772 241.75288 
L 427.938943 241.274881 
L 428.936113 242.104421 
L 429.933284 241.861508 
L 431.927625 241.039598 
L 433 241.951451 
M 433 242.116197 
L -1 242.116197 
L -1 242.116197 
" clip-path="url(#pf591c45c00)" style="fill: none; stroke: #8172b3; stroke-opacity: 0.3; stroke-width: 1.5; stroke-linecap: round"/>
   </g>
   <g id="line2d_21">
    <path d="M 54 242.116364 
L 433 242.116364 
M 433 242.116364 
L -1 242.116364 
L -1 242.116364 
" clip-path="url(#pf591c45c00)" style="fill: none; stroke: #937860; stroke-opacity: 0.3; stroke-width: 1.5; stroke-linecap: round"/>
   </g>
   <g id="line2d_22">
    <path d="M 54 241.956281 
L 161.694415 241.87623 
L 163.688757 241.779625 
L 164.685927 241.87827 
L 168.674609 241.717759 
L 169.67178 241.815833 
L 173.660462 241.535971 
L 174.657632 241.792133 
L 175.654803 241.273118 
L 176.651973 241.324119 
L 177.649144 241.497291 
L 178.646314 240.906152 
L 179.643485 240.847338 
L 180.640655 240.933435 
L 181.637826 241.321078 
L 182.634996 240.211386 
L 183.632167 241.585682 
L 185.626508 240.42493 
L 186.623678 240.269767 
L 187.620849 239.849409 
L 188.618019 239.160519 
L 189.61519 240.700121 
L 190.61236 241.315089 
L 191.609531 240.929868 
L 192.606701 238.941166 
L 193.603872 240.877299 
L 194.601042 241.651421 
L 195.598213 238.636022 
L 196.595383 240.334439 
L 197.592554 240.215174 
L 198.589724 239.353372 
L 199.586895 239.789563 
L 200.584066 238.789574 
L 201.581236 240.788655 
L 202.578407 239.584358 
L 203.575577 239.434817 
L 204.572748 241.174418 
L 205.569918 240.427937 
L 206.567089 241.700447 
L 207.564259 239.485143 
L 208.56143 241.375656 
L 209.5586 239.676727 
L 210.555771 239.563536 
L 211.552941 235.258024 
L 212.550112 239.662298 
L 213.547282 240.825886 
L 214.544453 239.941546 
L 215.541623 241.330448 
L 216.538794 239.450109 
L 217.535964 238.912138 
L 218.533135 239.727818 
L 219.530305 240.90429 
L 220.527476 239.697588 
L 221.524646 240.347954 
L 222.521817 237.940813 
L 223.518987 240.325697 
L 224.516158 239.307159 
L 225.513328 240.773124 
L 226.510499 238.79874 
L 227.507669 239.972367 
L 228.50484 240.072773 
L 229.50201 239.482753 
L 230.499181 240.527302 
L 232.493522 239.737954 
L 233.490692 237.860545 
L 234.487863 240.172505 
L 235.485034 240.690082 
L 236.482204 236.428489 
L 237.479375 240.006445 
L 238.476545 239.537987 
L 239.473716 238.696234 
L 240.470886 239.47183 
L 241.468057 238.986344 
L 242.465227 240.839476 
L 243.462398 237.35712 
L 244.459568 240.662945 
L 245.456739 239.2329 
L 246.453909 236.839365 
L 247.45108 240.173346 
L 248.44825 238.027182 
L 249.445421 240.552333 
L 250.442591 239.984387 
L 252.436932 239.825378 
L 253.434103 240.276974 
L 254.431273 240.153721 
L 255.428444 239.859161 
L 256.425614 241.195395 
L 257.422785 240.454262 
L 258.419955 240.526931 
L 259.417126 240.247054 
L 260.414296 241.074498 
L 261.411467 240.234711 
L 262.408637 238.890347 
L 263.405808 242.043801 
L 264.402978 241.384466 
L 265.400149 240.491981 
L 266.397319 241.539735 
L 267.39449 240.162783 
L 268.39166 240.382974 
L 269.388831 241.416514 
L 270.386001 238.997831 
L 271.383172 241.751957 
L 272.380343 239.373089 
L 273.377513 241.162132 
L 274.374684 240.819815 
L 276.369025 241.713826 
L 277.366195 238.38229 
L 278.363366 240.641921 
L 279.360536 241.477066 
L 280.357707 239.946911 
L 281.354877 241.450757 
L 282.352048 232.716584 
L 283.349218 238.280822 
L 284.346389 240.803706 
L 285.343559 239.233223 
L 286.34073 242.104609 
L 287.3379 240.440895 
L 288.335071 241.28951 
L 289.332241 239.035605 
L 290.329412 241.269438 
L 291.326582 239.86132 
L 292.323753 241.22064 
L 293.320923 241.428463 
L 294.318094 241.275066 
L 295.315264 241.77402 
L 296.312435 241.959061 
L 297.309605 241.417554 
L 298.306776 242.044536 
L 299.303946 241.177453 
L 300.301117 241.23022 
L 301.298287 240.877926 
L 303.292628 241.161025 
L 304.289799 240.918816 
L 306.28414 241.375142 
L 307.28131 241.23057 
L 308.278481 240.575853 
L 309.275652 240.563102 
L 310.272822 241.366755 
L 311.269993 240.338038 
L 312.267163 241.476409 
L 313.264334 241.458019 
L 314.261504 241.951595 
L 315.258675 239.77921 
L 316.255845 241.894406 
L 317.253016 242.101367 
L 318.250186 240.36695 
L 319.247357 241.962951 
L 321.241698 241.946574 
L 322.238868 240.859385 
L 323.236039 241.381827 
L 324.233209 241.569447 
L 325.23038 239.110441 
L 326.22755 240.015259 
L 327.224721 242.001664 
L 329.219062 242.014081 
L 330.216232 239.097032 
L 331.213403 241.943439 
L 332.210573 241.999768 
L 333.207744 241.623619 
L 334.204914 241.681094 
L 335.202085 241.175593 
L 337.196426 241.38145 
L 338.193596 242.065546 
L 339.190767 241.845899 
L 340.187937 242.108411 
L 341.185108 241.021449 
L 343.179449 241.68342 
L 344.17662 242.04737 
L 345.17379 240.952176 
L 346.170961 242.095178 
L 347.168131 240.771308 
L 348.165302 241.62989 
L 349.162472 241.162589 
L 350.159643 241.326258 
L 351.156813 242.05573 
L 353.151154 240.728574 
L 354.148325 241.947093 
L 355.145495 240.855318 
L 356.142666 242.050037 
L 357.139836 242.007316 
L 358.137007 240.874122 
L 359.134177 241.510846 
L 360.131348 240.752873 
L 361.128518 239.589127 
L 362.125689 239.037728 
L 363.122859 241.386607 
L 364.12003 241.505406 
L 365.1172 241.26101 
L 366.114371 241.738046 
L 367.111541 240.925644 
L 368.108712 241.927084 
L 369.105882 242.112527 
L 370.103053 240.342938 
L 371.100223 241.369085 
L 372.097394 241.346473 
L 373.094564 241.003304 
L 374.091735 241.247063 
L 375.088905 241.677444 
L 376.086076 241.631802 
L 377.083246 240.939704 
L 378.080417 238.533711 
L 379.077587 239.074823 
L 380.074758 240.710831 
L 381.071929 241.656971 
L 382.069099 241.443114 
L 383.06627 240.912081 
L 384.06344 242.003713 
L 385.060611 241.990894 
L 388.052122 241.316617 
L 389.049293 241.692112 
L 390.046463 241.323165 
L 391.043634 238.576609 
L 392.040804 241.81195 
L 395.032316 241.702014 
L 396.029486 240.900275 
L 397.026657 241.753514 
L 398.023827 241.914679 
L 399.020998 241.255823 
L 401.015339 241.911334 
L 402.012509 239.975396 
L 403.00968 241.644424 
L 404.00685 241.928324 
L 405.004021 242.023663 
L 406.001191 241.532176 
L 407.995532 241.629918 
L 408.992703 240.548937 
L 409.989873 241.613063 
L 410.987044 241.537657 
L 411.984214 240.120942 
L 412.981385 241.461931 
L 415.972897 241.7099 
L 416.970067 241.693395 
L 417.967238 241.27607 
L 418.964408 239.286429 
L 419.961579 240.824085 
L 421.95592 241.383551 
L 422.95309 241.247835 
L 423.950261 241.709581 
L 424.947431 241.959879 
L 425.944602 240.904588 
L 426.941772 241.376514 
L 427.938943 238.868726 
L 428.936113 240.590777 
L 429.933284 240.48647 
L 430.930454 240.953264 
L 431.927625 241.826315 
L 433 241.300887 
M 433 242.116188 
L -1 242.116188 
L -1 242.116188 
" clip-path="url(#pf591c45c00)" style="fill: none; stroke: #da8bc3; stroke-opacity: 0.3; stroke-width: 1.5; stroke-linecap: round"/>
   </g>
   <g id="patch_3">
    <path d="M 54 252 
L 54 34.56 
" style="fill: none; stroke: #262626; stroke-width: 1.25; stroke-linejoin: miter; stroke-linecap: square"/>
   </g>
   <g id="patch_4">
    <path d="M 388.8 252 
L 388.8 34.56 
" style="fill: none; stroke: #262626; stroke-width: 1.25; stroke-linejoin: miter; stroke-linecap: square"/>
   </g>
   <g id="patch_5">
    <path d="M 54 252 
L 388.8 252 
" style="fill: none; stroke: #262626; stroke-width: 1.25; stroke-linejoin: miter; stroke-linecap: square"/>
   </g>
   <g id="patch_6">
    <path d="M 54 34.56 
L 388.8 34.56 
" style="fill: none; stroke: #262626; stroke-width: 1.25; stroke-linejoin: miter; stroke-linecap: square"/>
   </g>
   <g id="text_17">
    <!-- patient06_app_post02 - Power spectrum -->
    <g style="fill: #262626" transform="translate(113.340938 28.56)scale(0.12 -0.12)">
     <defs>
      <path id="ArialMT-70" d="M 422 -1272 
L 422 3319 
L 934 3319 
L 934 2888 
Q 1116 3141 1344 3267 
Q 1572 3394 1897 3394 
Q 2322 3394 2647 3175 
Q 2972 2956 3137 2557 
Q 3303 2159 3303 1684 
Q 3303 1175 3120 767 
Q 2938 359 2589 142 
Q 2241 -75 1856 -75 
Q 1575 -75 1351 44 
Q 1128 163 984 344 
L 984 -1272 
L 422 -1272 
z
M 931 1641 
Q 931 1000 1190 694 
Q 1450 388 1819 388 
Q 2194 388 2461 705 
Q 2728 1022 2728 1688 
Q 2728 2322 2467 2637 
Q 2206 2953 1844 2953 
Q 1484 2953 1207 2617 
Q 931 2281 931 1641 
z
" transform="scale(0.015625)"/>
      <path id="ArialMT-61" d="M 2588 409 
Q 2275 144 1986 34 
Q 1697 -75 1366 -75 
Q 819 -75 525 192 
Q 231 459 231 875 
Q 231 1119 342 1320 
Q 453 1522 633 1644 
Q 813 1766 1038 1828 
Q 1203 1872 1538 1913 
Q 2219 1994 2541 2106 
Q 2544 2222 2544 2253 
Q 2544 2597 2384 2738 
Q 2169 2928 1744 2928 
Q 1347 2928 1158 2789 
Q 969 2650 878 2297 
L 328 2372 
Q 403 2725 575 2942 
Q 747 3159 1072 3276 
Q 1397 3394 1825 3394 
Q 2250 3394 2515 3294 
Q 2781 3194 2906 3042 
Q 3031 2891 3081 2659 
Q 3109 2516 3109 2141 
L 3109 1391 
Q 3109 606 3145 398 
Q 3181 191 3288 0 
L 2700 0 
Q 2613 175 2588 409 
z
M 2541 1666 
Q 2234 1541 1622 1453 
Q 1275 1403 1131 1340 
Q 988 1278 909 1158 
Q 831 1038 831 891 
Q 831 666 1001 516 
Q 1172 366 1500 366 
Q 1825 366 2078 508 
Q 2331 650 2450 897 
Q 2541 1088 2541 1459 
L 2541 1666 
z
" transform="scale(0.015625)"/>
      <path id="ArialMT-74" d="M 1650 503 
L 1731 6 
Q 1494 -44 1306 -44 
Q 1000 -44 831 53 
Q 663 150 594 308 
Q 525 466 525 972 
L 525 2881 
L 113 2881 
L 113 3319 
L 525 3319 
L 525 4141 
L 1084 4478 
L 1084 3319 
L 1650 3319 
L 1650 2881 
L 1084 2881 
L 1084 941 
Q 1084 700 1114 631 
Q 1144 563 1211 522 
Q 1278 481 1403 481 
Q 1497 481 1650 503 
z
" transform="scale(0.015625)"/>
      <path id="ArialMT-69" d="M 425 3934 
L 425 4581 
L 988 4581 
L 988 3934 
L 425 3934 
z
M 425 0 
L 425 3319 
L 988 3319 
L 988 0 
L 425 0 
z
" transform="scale(0.015625)"/>
      <path id="ArialMT-36" d="M 3184 3459 
L 2625 3416 
Q 2550 3747 2413 3897 
Q 2184 4138 1850 4138 
Q 1581 4138 1378 3988 
Q 1113 3794 959 3422 
Q 806 3050 800 2363 
Q 1003 2672 1297 2822 
Q 1591 2972 1913 2972 
Q 2475 2972 2870 2558 
Q 3266 2144 3266 1488 
Q 3266 1056 3080 686 
Q 2894 316 2569 119 
Q 2244 -78 1831 -78 
Q 1128 -78 684 439 
Q 241 956 241 2144 
Q 241 3472 731 4075 
Q 1159 4600 1884 4600 
Q 2425 4600 2770 4297 
Q 3116 3994 3184 3459 
z
M 888 1484 
Q 888 1194 1011 928 
Q 1134 663 1356 523 
Q 1578 384 1822 384 
Q 2178 384 2434 671 
Q 2691 959 2691 1453 
Q 2691 1928 2437 2201 
Q 2184 2475 1800 2475 
Q 1419 2475 1153 2201 
Q 888 1928 888 1484 
z
" transform="scale(0.015625)"/>
      <path id="ArialMT-5f" d="M -97 -1272 
L -97 -866 
L 3631 -866 
L 3631 -1272 
L -97 -1272 
z
" transform="scale(0.015625)"/>
      <path id="ArialMT-6f" d="M 213 1659 
Q 213 2581 725 3025 
Q 1153 3394 1769 3394 
Q 2453 3394 2887 2945 
Q 3322 2497 3322 1706 
Q 3322 1066 3130 698 
Q 2938 331 2570 128 
Q 2203 -75 1769 -75 
Q 1072 -75 642 372 
Q 213 819 213 1659 
z
M 791 1659 
Q 791 1022 1069 705 
Q 1347 388 1769 388 
Q 2188 388 2466 706 
Q 2744 1025 2744 1678 
Q 2744 2294 2464 2611 
Q 2184 2928 1769 2928 
Q 1347 2928 1069 2612 
Q 791 2297 791 1659 
z
" transform="scale(0.015625)"/>
      <path id="ArialMT-73" d="M 197 991 
L 753 1078 
Q 800 744 1014 566 
Q 1228 388 1613 388 
Q 2000 388 2187 545 
Q 2375 703 2375 916 
Q 2375 1106 2209 1216 
Q 2094 1291 1634 1406 
Q 1016 1563 777 1677 
Q 538 1791 414 1992 
Q 291 2194 291 2438 
Q 291 2659 392 2848 
Q 494 3038 669 3163 
Q 800 3259 1026 3326 
Q 1253 3394 1513 3394 
Q 1903 3394 2198 3281 
Q 2494 3169 2634 2976 
Q 2775 2784 2828 2463 
L 2278 2388 
Q 2241 2644 2061 2787 
Q 1881 2931 1553 2931 
Q 1166 2931 1000 2803 
Q 834 2675 834 2503 
Q 834 2394 903 2306 
Q 972 2216 1119 2156 
Q 1203 2125 1616 2013 
Q 2213 1853 2448 1751 
Q 2684 1650 2818 1456 
Q 2953 1263 2953 975 
Q 2953 694 2789 445 
Q 2625 197 2315 61 
Q 2006 -75 1616 -75 
Q 969 -75 630 194 
Q 291 463 197 991 
z
" transform="scale(0.015625)"/>
      <path id="ArialMT-2d" d="M 203 1375 
L 203 1941 
L 1931 1941 
L 1931 1375 
L 203 1375 
z
" transform="scale(0.015625)"/>
      <path id="ArialMT-50" d="M 494 0 
L 494 4581 
L 2222 4581 
Q 2678 4581 2919 4538 
Q 3256 4481 3484 4323 
Q 3713 4166 3852 3881 
Q 3991 3597 3991 3256 
Q 3991 2672 3619 2267 
Q 3247 1863 2275 1863 
L 1100 1863 
L 1100 0 
L 494 0 
z
M 1100 2403 
L 2284 2403 
Q 2872 2403 3119 2622 
Q 3366 2841 3366 3238 
Q 3366 3525 3220 3729 
Q 3075 3934 2838 4000 
Q 2684 4041 2272 4041 
L 1100 4041 
L 1100 2403 
z
" transform="scale(0.015625)"/>
      <path id="ArialMT-77" d="M 1034 0 
L 19 3319 
L 600 3319 
L 1128 1403 
L 1325 691 
Q 1338 744 1497 1375 
L 2025 3319 
L 2603 3319 
L 3100 1394 
L 3266 759 
L 3456 1400 
L 4025 3319 
L 4572 3319 
L 3534 0 
L 2950 0 
L 2422 1988 
L 2294 2553 
L 1622 0 
L 1034 0 
z
" transform="scale(0.015625)"/>
      <path id="ArialMT-6d" d="M 422 0 
L 422 3319 
L 925 3319 
L 925 2853 
Q 1081 3097 1340 3245 
Q 1600 3394 1931 3394 
Q 2300 3394 2536 3241 
Q 2772 3088 2869 2813 
Q 3263 3394 3894 3394 
Q 4388 3394 4653 3120 
Q 4919 2847 4919 2278 
L 4919 0 
L 4359 0 
L 4359 2091 
Q 4359 2428 4304 2576 
Q 4250 2725 4106 2815 
Q 3963 2906 3769 2906 
Q 3419 2906 3187 2673 
Q 2956 2441 2956 1928 
L 2956 0 
L 2394 0 
L 2394 2156 
Q 2394 2531 2256 2718 
Q 2119 2906 1806 2906 
Q 1569 2906 1367 2781 
Q 1166 2656 1075 2415 
Q 984 2175 984 1722 
L 984 0 
L 422 0 
z
" transform="scale(0.015625)"/>
     </defs>
     <use xlink:href="#ArialMT-70"/>
     <use xlink:href="#ArialMT-61" x="55.615234"/>
     <use xlink:href="#ArialMT-74" x="111.230469"/>
     <use xlink:href="#ArialMT-69" x="139.013672"/>
     <use xlink:href="#ArialMT-65" x="161.230469"/>
     <use xlink:href="#ArialMT-6e" x="216.845703"/>
     <use xlink:href="#ArialMT-74" x="272.460938"/>
     <use xlink:href="#ArialMT-30" x="300.244141"/>
     <use xlink:href="#ArialMT-36" x="355.859375"/>
     <use xlink:href="#ArialMT-5f" x="411.474609"/>
     <use xlink:href="#ArialMT-61" x="467.089844"/>
     <use xlink:href="#ArialMT-70" x="522.705078"/>
     <use xlink:href="#ArialMT-70" x="578.320312"/>
     <use xlink:href="#ArialMT-5f" x="633.935547"/>
     <use xlink:href="#ArialMT-70" x="689.550781"/>
     <use xlink:href="#ArialMT-6f" x="745.166016"/>
     <use xlink:href="#ArialMT-73" x="800.78125"/>
     <use xlink:href="#ArialMT-74" x="850.78125"/>
     <use xlink:href="#ArialMT-30" x="878.564453"/>
     <use xlink:href="#ArialMT-32" x="934.179688"/>
     <use xlink:href="#ArialMT-20" x="989.794922"/>
     <use xlink:href="#ArialMT-2d" x="1017.578125"/>
     <use xlink:href="#ArialMT-20" x="1050.878906"/>
     <use xlink:href="#ArialMT-50" x="1078.662109"/>
     <use xlink:href="#ArialMT-6f" x="1145.361328"/>
     <use xlink:href="#ArialMT-77" x="1200.976562"/>
     <use xlink:href="#ArialMT-65" x="1273.193359"/>
     <use xlink:href="#ArialMT-72" x="1328.808594"/>
     <use xlink:href="#ArialMT-20" x="1362.109375"/>
     <use xlink:href="#ArialMT-73" x="1389.892578"/>
     <use xlink:href="#ArialMT-70" x="1439.892578"/>
     <use xlink:href="#ArialMT-65" x="1495.507812"/>
     <use xlink:href="#ArialMT-63" x="1551.123047"/>
     <use xlink:href="#ArialMT-74" x="1601.123047"/>
     <use xlink:href="#ArialMT-72" x="1628.90625"/>
     <use xlink:href="#ArialMT-75" x="1662.207031"/>
     <use xlink:href="#ArialMT-6d" x="1717.822266"/>
    </g>
   </g>
   <g id="legend_1">
    <g id="patch_7">
     <path d="M 313.503281 152.278906 
L 381.1 152.278906 
Q 383.3 152.278906 383.3 150.078906 
L 383.3 42.26 
Q 383.3 40.06 381.1 40.06 
L 313.503281 40.06 
Q 311.303281 40.06 311.303281 42.26 
L 311.303281 150.078906 
Q 311.303281 152.278906 313.503281 152.278906 
z
" style="fill: #ffffff; opacity: 0.8; stroke: #cccccc; stroke-linejoin: miter"/>
    </g>
    <g id="line2d_23">
     <path d="M 315.703281 48.483594 
L 326.703281 48.483594 
L 337.703281 48.483594 
" style="fill: none; stroke: #4c72b0; stroke-opacity: 0.3; stroke-width: 1.5; stroke-linecap: round"/>
    </g>
    <g id="text_18">
     <!-- IMU9 -->
     <g style="fill: #262626" transform="translate(346.503281 52.333594)scale(0.11 -0.11)">
      <defs>
       <path id="ArialMT-49" d="M 597 0 
L 597 4581 
L 1203 4581 
L 1203 0 
L 597 0 
z
" transform="scale(0.015625)"/>
       <path id="ArialMT-4d" d="M 475 0 
L 475 4581 
L 1388 4581 
L 2472 1338 
Q 2622 884 2691 659 
Q 2769 909 2934 1394 
L 4031 4581 
L 4847 4581 
L 4847 0 
L 4263 0 
L 4263 3834 
L 2931 0 
L 2384 0 
L 1059 3900 
L 1059 0 
L 475 0 
z
" transform="scale(0.015625)"/>
       <path id="ArialMT-55" d="M 3500 4581 
L 4106 4581 
L 4106 1934 
Q 4106 1244 3950 837 
Q 3794 431 3386 176 
Q 2978 -78 2316 -78 
Q 1672 -78 1262 144 
Q 853 366 678 786 
Q 503 1206 503 1934 
L 503 4581 
L 1109 4581 
L 1109 1938 
Q 1109 1341 1220 1058 
Q 1331 775 1601 622 
Q 1872 469 2263 469 
Q 2931 469 3215 772 
Q 3500 1075 3500 1938 
L 3500 4581 
z
" transform="scale(0.015625)"/>
       <path id="ArialMT-39" d="M 350 1059 
L 891 1109 
Q 959 728 1153 556 
Q 1347 384 1650 384 
Q 1909 384 2104 503 
Q 2300 622 2425 820 
Q 2550 1019 2634 1356 
Q 2719 1694 2719 2044 
Q 2719 2081 2716 2156 
Q 2547 1888 2255 1720 
Q 1963 1553 1622 1553 
Q 1053 1553 659 1965 
Q 266 2378 266 3053 
Q 266 3750 677 4175 
Q 1088 4600 1706 4600 
Q 2153 4600 2523 4359 
Q 2894 4119 3086 3673 
Q 3278 3228 3278 2384 
Q 3278 1506 3087 986 
Q 2897 466 2520 194 
Q 2144 -78 1638 -78 
Q 1100 -78 759 220 
Q 419 519 350 1059 
z
M 2653 3081 
Q 2653 3566 2395 3850 
Q 2138 4134 1775 4134 
Q 1400 4134 1122 3828 
Q 844 3522 844 3034 
Q 844 2597 1108 2323 
Q 1372 2050 1759 2050 
Q 2150 2050 2401 2323 
Q 2653 2597 2653 3081 
z
" transform="scale(0.015625)"/>
      </defs>
      <use xlink:href="#ArialMT-49"/>
      <use xlink:href="#ArialMT-4d" x="27.783203"/>
      <use xlink:href="#ArialMT-55" x="111.083984"/>
      <use xlink:href="#ArialMT-39" x="183.300781"/>
     </g>
    </g>
    <g id="line2d_24">
     <path d="M 315.703281 64.043438 
L 326.703281 64.043438 
L 337.703281 64.043438 
" style="fill: none; stroke: #dd8452; stroke-opacity: 0.3; stroke-width: 1.5; stroke-linecap: round"/>
    </g>
    <g id="text_19">
     <!-- IMU10 -->
     <g style="fill: #262626" transform="translate(346.503281 67.893438)scale(0.11 -0.11)">
      <use xlink:href="#ArialMT-49"/>
      <use xlink:href="#ArialMT-4d" x="27.783203"/>
      <use xlink:href="#ArialMT-55" x="111.083984"/>
      <use xlink:href="#ArialMT-31" x="183.300781"/>
      <use xlink:href="#ArialMT-30" x="238.916016"/>
     </g>
    </g>
    <g id="line2d_25">
     <path d="M 315.703281 79.603281 
L 326.703281 79.603281 
L 337.703281 79.603281 
" style="fill: none; stroke: #55a868; stroke-opacity: 0.3; stroke-width: 1.5; stroke-linecap: round"/>
    </g>
    <g id="text_20">
     <!-- IMU11 -->
     <g style="fill: #262626" transform="translate(346.503281 83.453281)scale(0.11 -0.11)">
      <use xlink:href="#ArialMT-49"/>
      <use xlink:href="#ArialMT-4d" x="27.783203"/>
      <use xlink:href="#ArialMT-55" x="111.083984"/>
      <use xlink:href="#ArialMT-31" x="183.300781"/>
      <use xlink:href="#ArialMT-31" x="231.541016"/>
     </g>
    </g>
    <g id="line2d_26">
     <path d="M 315.703281 95.163125 
L 326.703281 95.163125 
L 337.703281 95.163125 
" style="fill: none; stroke: #c44e52; stroke-opacity: 0.3; stroke-width: 1.5; stroke-linecap: round"/>
    </g>
    <g id="text_21">
     <!-- IMU12 -->
     <g style="fill: #262626" transform="translate(346.503281 99.013125)scale(0.11 -0.11)">
      <use xlink:href="#ArialMT-49"/>
      <use xlink:href="#ArialMT-4d" x="27.783203"/>
      <use xlink:href="#ArialMT-55" x="111.083984"/>
      <use xlink:href="#ArialMT-31" x="183.300781"/>
      <use xlink:href="#ArialMT-32" x="238.916016"/>
     </g>
    </g>
    <g id="line2d_27">
     <path d="M 315.703281 110.722969 
L 326.703281 110.722969 
L 337.703281 110.722969 
" style="fill: none; stroke: #8172b3; stroke-opacity: 0.3; stroke-width: 1.5; stroke-linecap: round"/>
    </g>
    <g id="text_22">
     <!-- IMU13 -->
     <g style="fill: #262626" transform="translate(346.503281 114.572969)scale(0.11 -0.11)">
      <use xlink:href="#ArialMT-49"/>
      <use xlink:href="#ArialMT-4d" x="27.783203"/>
      <use xlink:href="#ArialMT-55" x="111.083984"/>
      <use xlink:href="#ArialMT-31" x="183.300781"/>
      <use xlink:href="#ArialMT-33" x="238.916016"/>
     </g>
    </g>
    <g id="line2d_28">
     <path d="M 315.703281 126.282813 
L 326.703281 126.282813 
L 337.703281 126.282813 
" style="fill: none; stroke: #937860; stroke-opacity: 0.3; stroke-width: 1.5; stroke-linecap: round"/>
    </g>
    <g id="text_23">
     <!-- IMU14 -->
     <g style="fill: #262626" transform="translate(346.503281 130.132812)scale(0.11 -0.11)">
      <use xlink:href="#ArialMT-49"/>
      <use xlink:href="#ArialMT-4d" x="27.783203"/>
      <use xlink:href="#ArialMT-55" x="111.083984"/>
      <use xlink:href="#ArialMT-31" x="183.300781"/>
      <use xlink:href="#ArialMT-34" x="238.916016"/>
     </g>
    </g>
    <g id="line2d_29">
     <path d="M 315.703281 141.842656 
L 326.703281 141.842656 
L 337.703281 141.842656 
" style="fill: none; stroke: #da8bc3; stroke-opacity: 0.3; stroke-width: 1.5; stroke-linecap: round"/>
    </g>
    <g id="text_24">
     <!-- IMU15 -->
     <g style="fill: #262626" transform="translate(346.503281 145.692656)scale(0.11 -0.11)">
      <use xlink:href="#ArialMT-49"/>
      <use xlink:href="#ArialMT-4d" x="27.783203"/>
      <use xlink:href="#ArialMT-55" x="111.083984"/>
      <use xlink:href="#ArialMT-31" x="183.300781"/>
      <use xlink:href="#ArialMT-35" x="238.916016"/>
     </g>
    </g>
   </g>
  </g>
 </g>
 <defs>
  <clipPath id="pf591c45c00">
   <rect x="54" y="34.56" width="334.8" height="217.44"/>
  </clipPath>
 </defs>
</svg>
