<?xml version="1.0" encoding="utf-8" standalone="no"?>
<!DOCTYPE svg PUBLIC "-//W3C//DTD SVG 1.1//EN"
  "http://www.w3.org/Graphics/SVG/1.1/DTD/svg11.dtd">
<svg xmlns:xlink="http://www.w3.org/1999/xlink" width="432pt" height="288pt" viewBox="0 0 432 288" xmlns="http://www.w3.org/2000/svg" version="1.1">
 <metadata>
  <rdf:RDF xmlns:dc="http://purl.org/dc/elements/1.1/" xmlns:cc="http://creativecommons.org/ns#" xmlns:rdf="http://www.w3.org/1999/02/22-rdf-syntax-ns#">
   <cc:Work>
    <dc:type rdf:resource="http://purl.org/dc/dcmitype/StillImage"/>
    <dc:date>2022-07-08T13:58:11.372916</dc:date>
    <dc:format>image/svg+xml</dc:format>
    <dc:creator>
     <cc:Agent>
      <dc:title>Matplotlib v3.5.1, https://matplotlib.org/</dc:title>
     </cc:Agent>
    </dc:creator>
   </cc:Work>
  </rdf:RDF>
 </metadata>
 <defs>
  <style type="text/css">*{stroke-linejoin: round; stroke-linecap: butt}</style>
 </defs>
 <g id="figure_1">
  <g id="patch_1">
   <path d="M 0 288 
L 432 288 
L 432 0 
L 0 0 
z
" style="fill: #ffffff"/>
  </g>
  <g id="axes_1">
   <g id="patch_2">
    <path d="M 54 252 
L 388.8 252 
L 388.8 34.56 
L 54 34.56 
z
" style="fill: #ffffff"/>
   </g>
   <g id="matplotlib.axis_1">
    <g id="xtick_1">
     <g id="line2d_1">
      <defs>
       <path id="m955534e65d" d="M 0 0 
L 0 6 
" style="stroke: #262626; stroke-width: 1.25"/>
      </defs>
      <g>
       <use xlink:href="#m955534e65d" x="54" y="252" style="fill: #262626; stroke: #262626; stroke-width: 1.25"/>
      </g>
     </g>
     <g id="text_1">
      <!-- 0 -->
      <g style="fill: #262626" transform="translate(50.941484 269.373594)scale(0.11 -0.11)">
       <defs>
        <path id="ArialMT-30" d="M 266 2259 
Q 266 3072 433 3567 
Q 600 4063 929 4331 
Q 1259 4600 1759 4600 
Q 2128 4600 2406 4451 
Q 2684 4303 2865 4023 
Q 3047 3744 3150 3342 
Q 3253 2941 3253 2259 
Q 3253 1453 3087 958 
Q 2922 463 2592 192 
Q 2263 -78 1759 -78 
Q 1097 -78 719 397 
Q 266 969 266 2259 
z
M 844 2259 
Q 844 1131 1108 757 
Q 1372 384 1759 384 
Q 2147 384 2411 759 
Q 2675 1134 2675 2259 
Q 2675 3391 2411 3762 
Q 2147 4134 1753 4134 
Q 1366 4134 1134 3806 
Q 844 3388 844 2259 
z
" transform="scale(0.015625)"/>
       </defs>
       <use xlink:href="#ArialMT-30"/>
      </g>
     </g>
    </g>
    <g id="xtick_2">
     <g id="line2d_2">
      <g>
       <use xlink:href="#m955534e65d" x="120.96" y="252" style="fill: #262626; stroke: #262626; stroke-width: 1.25"/>
      </g>
     </g>
     <g id="text_2">
      <!-- 5 -->
      <g style="fill: #262626" transform="translate(117.901484 269.373594)scale(0.11 -0.11)">
       <defs>
        <path id="ArialMT-35" d="M 266 1200 
L 856 1250 
Q 922 819 1161 601 
Q 1400 384 1738 384 
Q 2144 384 2425 690 
Q 2706 997 2706 1503 
Q 2706 1984 2436 2262 
Q 2166 2541 1728 2541 
Q 1456 2541 1237 2417 
Q 1019 2294 894 2097 
L 366 2166 
L 809 4519 
L 3088 4519 
L 3088 3981 
L 1259 3981 
L 1013 2750 
Q 1425 3038 1878 3038 
Q 2478 3038 2890 2622 
Q 3303 2206 3303 1553 
Q 3303 931 2941 478 
Q 2500 -78 1738 -78 
Q 1113 -78 717 272 
Q 322 622 266 1200 
z
" transform="scale(0.015625)"/>
       </defs>
       <use xlink:href="#ArialMT-35"/>
      </g>
     </g>
    </g>
    <g id="xtick_3">
     <g id="line2d_3">
      <g>
       <use xlink:href="#m955534e65d" x="187.92" y="252" style="fill: #262626; stroke: #262626; stroke-width: 1.25"/>
      </g>
     </g>
     <g id="text_3">
      <!-- 10 -->
      <g style="fill: #262626" transform="translate(181.802969 269.373594)scale(0.11 -0.11)">
       <defs>
        <path id="ArialMT-31" d="M 2384 0 
L 1822 0 
L 1822 3584 
Q 1619 3391 1289 3197 
Q 959 3003 697 2906 
L 697 3450 
Q 1169 3672 1522 3987 
Q 1875 4303 2022 4600 
L 2384 4600 
L 2384 0 
z
" transform="scale(0.015625)"/>
       </defs>
       <use xlink:href="#ArialMT-31"/>
       <use xlink:href="#ArialMT-30" x="55.615234"/>
      </g>
     </g>
    </g>
    <g id="xtick_4">
     <g id="line2d_4">
      <g>
       <use xlink:href="#m955534e65d" x="254.88" y="252" style="fill: #262626; stroke: #262626; stroke-width: 1.25"/>
      </g>
     </g>
     <g id="text_4">
      <!-- 15 -->
      <g style="fill: #262626" transform="translate(248.762969 269.373594)scale(0.11 -0.11)">
       <use xlink:href="#ArialMT-31"/>
       <use xlink:href="#ArialMT-35" x="55.615234"/>
      </g>
     </g>
    </g>
    <g id="xtick_5">
     <g id="line2d_5">
      <g>
       <use xlink:href="#m955534e65d" x="321.84" y="252" style="fill: #262626; stroke: #262626; stroke-width: 1.25"/>
      </g>
     </g>
     <g id="text_5">
      <!-- 20 -->
      <g style="fill: #262626" transform="translate(315.722969 269.373594)scale(0.11 -0.11)">
       <defs>
        <path id="ArialMT-32" d="M 3222 541 
L 3222 0 
L 194 0 
Q 188 203 259 391 
Q 375 700 629 1000 
Q 884 1300 1366 1694 
Q 2113 2306 2375 2664 
Q 2638 3022 2638 3341 
Q 2638 3675 2398 3904 
Q 2159 4134 1775 4134 
Q 1369 4134 1125 3890 
Q 881 3647 878 3216 
L 300 3275 
Q 359 3922 746 4261 
Q 1134 4600 1788 4600 
Q 2447 4600 2831 4234 
Q 3216 3869 3216 3328 
Q 3216 3053 3103 2787 
Q 2991 2522 2730 2228 
Q 2469 1934 1863 1422 
Q 1356 997 1212 845 
Q 1069 694 975 541 
L 3222 541 
z
" transform="scale(0.015625)"/>
       </defs>
       <use xlink:href="#ArialMT-32"/>
       <use xlink:href="#ArialMT-30" x="55.615234"/>
      </g>
     </g>
    </g>
    <g id="xtick_6">
     <g id="line2d_6">
      <g>
       <use xlink:href="#m955534e65d" x="388.8" y="252" style="fill: #262626; stroke: #262626; stroke-width: 1.25"/>
      </g>
     </g>
     <g id="text_6">
      <!-- 25 -->
      <g style="fill: #262626" transform="translate(382.682969 269.373594)scale(0.11 -0.11)">
       <use xlink:href="#ArialMT-32"/>
       <use xlink:href="#ArialMT-35" x="55.615234"/>
      </g>
     </g>
    </g>
    <g id="text_7">
     <!-- Frequency (Hz) -->
     <g style="fill: #262626" transform="translate(180.059063 284.295469)scale(0.12 -0.12)">
      <defs>
       <path id="ArialMT-46" d="M 525 0 
L 525 4581 
L 3616 4581 
L 3616 4041 
L 1131 4041 
L 1131 2622 
L 3281 2622 
L 3281 2081 
L 1131 2081 
L 1131 0 
L 525 0 
z
" transform="scale(0.015625)"/>
       <path id="ArialMT-72" d="M 416 0 
L 416 3319 
L 922 3319 
L 922 2816 
Q 1116 3169 1280 3281 
Q 1444 3394 1641 3394 
Q 1925 3394 2219 3213 
L 2025 2691 
Q 1819 2813 1613 2813 
Q 1428 2813 1281 2702 
Q 1134 2591 1072 2394 
Q 978 2094 978 1738 
L 978 0 
L 416 0 
z
" transform="scale(0.015625)"/>
       <path id="ArialMT-65" d="M 2694 1069 
L 3275 997 
Q 3138 488 2766 206 
Q 2394 -75 1816 -75 
Q 1088 -75 661 373 
Q 234 822 234 1631 
Q 234 2469 665 2931 
Q 1097 3394 1784 3394 
Q 2450 3394 2872 2941 
Q 3294 2488 3294 1666 
Q 3294 1616 3291 1516 
L 816 1516 
Q 847 969 1125 678 
Q 1403 388 1819 388 
Q 2128 388 2347 550 
Q 2566 713 2694 1069 
z
M 847 1978 
L 2700 1978 
Q 2663 2397 2488 2606 
Q 2219 2931 1791 2931 
Q 1403 2931 1139 2672 
Q 875 2413 847 1978 
z
" transform="scale(0.015625)"/>
       <path id="ArialMT-71" d="M 2538 -1272 
L 2538 353 
Q 2406 169 2170 47 
Q 1934 -75 1669 -75 
Q 1078 -75 651 397 
Q 225 869 225 1691 
Q 225 2191 398 2587 
Q 572 2984 901 3189 
Q 1231 3394 1625 3394 
Q 2241 3394 2594 2875 
L 2594 3319 
L 3100 3319 
L 3100 -1272 
L 2538 -1272 
z
M 803 1669 
Q 803 1028 1072 708 
Q 1341 388 1716 388 
Q 2075 388 2334 692 
Q 2594 997 2594 1619 
Q 2594 2281 2320 2615 
Q 2047 2950 1678 2950 
Q 1313 2950 1058 2639 
Q 803 2328 803 1669 
z
" transform="scale(0.015625)"/>
       <path id="ArialMT-75" d="M 2597 0 
L 2597 488 
Q 2209 -75 1544 -75 
Q 1250 -75 995 37 
Q 741 150 617 320 
Q 494 491 444 738 
Q 409 903 409 1263 
L 409 3319 
L 972 3319 
L 972 1478 
Q 972 1038 1006 884 
Q 1059 663 1231 536 
Q 1403 409 1656 409 
Q 1909 409 2131 539 
Q 2353 669 2445 892 
Q 2538 1116 2538 1541 
L 2538 3319 
L 3100 3319 
L 3100 0 
L 2597 0 
z
" transform="scale(0.015625)"/>
       <path id="ArialMT-6e" d="M 422 0 
L 422 3319 
L 928 3319 
L 928 2847 
Q 1294 3394 1984 3394 
Q 2284 3394 2536 3286 
Q 2788 3178 2913 3003 
Q 3038 2828 3088 2588 
Q 3119 2431 3119 2041 
L 3119 0 
L 2556 0 
L 2556 2019 
Q 2556 2363 2490 2533 
Q 2425 2703 2258 2804 
Q 2091 2906 1866 2906 
Q 1506 2906 1245 2678 
Q 984 2450 984 1813 
L 984 0 
L 422 0 
z
" transform="scale(0.015625)"/>
       <path id="ArialMT-63" d="M 2588 1216 
L 3141 1144 
Q 3050 572 2676 248 
Q 2303 -75 1759 -75 
Q 1078 -75 664 370 
Q 250 816 250 1647 
Q 250 2184 428 2587 
Q 606 2991 970 3192 
Q 1334 3394 1763 3394 
Q 2303 3394 2647 3120 
Q 2991 2847 3088 2344 
L 2541 2259 
Q 2463 2594 2264 2762 
Q 2066 2931 1784 2931 
Q 1359 2931 1093 2626 
Q 828 2322 828 1663 
Q 828 994 1084 691 
Q 1341 388 1753 388 
Q 2084 388 2306 591 
Q 2528 794 2588 1216 
z
" transform="scale(0.015625)"/>
       <path id="ArialMT-79" d="M 397 -1278 
L 334 -750 
Q 519 -800 656 -800 
Q 844 -800 956 -737 
Q 1069 -675 1141 -563 
Q 1194 -478 1313 -144 
Q 1328 -97 1363 -6 
L 103 3319 
L 709 3319 
L 1400 1397 
Q 1534 1031 1641 628 
Q 1738 1016 1872 1384 
L 2581 3319 
L 3144 3319 
L 1881 -56 
Q 1678 -603 1566 -809 
Q 1416 -1088 1222 -1217 
Q 1028 -1347 759 -1347 
Q 597 -1347 397 -1278 
z
" transform="scale(0.015625)"/>
       <path id="ArialMT-20" transform="scale(0.015625)"/>
       <path id="ArialMT-28" d="M 1497 -1347 
Q 1031 -759 709 28 
Q 388 816 388 1659 
Q 388 2403 628 3084 
Q 909 3875 1497 4659 
L 1900 4659 
Q 1522 4009 1400 3731 
Q 1209 3300 1100 2831 
Q 966 2247 966 1656 
Q 966 153 1900 -1347 
L 1497 -1347 
z
" transform="scale(0.015625)"/>
       <path id="ArialMT-48" d="M 513 0 
L 513 4581 
L 1119 4581 
L 1119 2700 
L 3500 2700 
L 3500 4581 
L 4106 4581 
L 4106 0 
L 3500 0 
L 3500 2159 
L 1119 2159 
L 1119 0 
L 513 0 
z
" transform="scale(0.015625)"/>
       <path id="ArialMT-7a" d="M 125 0 
L 125 456 
L 2238 2881 
Q 1878 2863 1603 2863 
L 250 2863 
L 250 3319 
L 2963 3319 
L 2963 2947 
L 1166 841 
L 819 456 
Q 1197 484 1528 484 
L 3063 484 
L 3063 0 
L 125 0 
z
" transform="scale(0.015625)"/>
       <path id="ArialMT-29" d="M 791 -1347 
L 388 -1347 
Q 1322 153 1322 1656 
Q 1322 2244 1188 2822 
Q 1081 3291 891 3722 
Q 769 4003 388 4659 
L 791 4659 
Q 1378 3875 1659 3084 
Q 1900 2403 1900 1659 
Q 1900 816 1576 28 
Q 1253 -759 791 -1347 
z
" transform="scale(0.015625)"/>
      </defs>
      <use xlink:href="#ArialMT-46"/>
      <use xlink:href="#ArialMT-72" x="61.083984"/>
      <use xlink:href="#ArialMT-65" x="94.384766"/>
      <use xlink:href="#ArialMT-71" x="150"/>
      <use xlink:href="#ArialMT-75" x="205.615234"/>
      <use xlink:href="#ArialMT-65" x="261.230469"/>
      <use xlink:href="#ArialMT-6e" x="316.845703"/>
      <use xlink:href="#ArialMT-63" x="372.460938"/>
      <use xlink:href="#ArialMT-79" x="422.460938"/>
      <use xlink:href="#ArialMT-20" x="472.460938"/>
      <use xlink:href="#ArialMT-28" x="500.244141"/>
      <use xlink:href="#ArialMT-48" x="533.544922"/>
      <use xlink:href="#ArialMT-7a" x="605.761719"/>
      <use xlink:href="#ArialMT-29" x="655.761719"/>
     </g>
    </g>
   </g>
   <g id="matplotlib.axis_2">
    <g id="ytick_1">
     <g id="line2d_7">
      <defs>
       <path id="m3eac4e1ff3" d="M 0 0 
L -6 0 
" style="stroke: #262626; stroke-width: 1.25"/>
      </defs>
      <g>
       <use xlink:href="#m3eac4e1ff3" x="54" y="242.116364" style="fill: #262626; stroke: #262626; stroke-width: 1.25"/>
      </g>
     </g>
     <g id="text_8">
      <!-- 0 -->
      <g style="fill: #262626" transform="translate(38.382969 246.053161)scale(0.11 -0.11)">
       <use xlink:href="#ArialMT-30"/>
      </g>
     </g>
    </g>
    <g id="ytick_2">
     <g id="line2d_8">
      <g>
       <use xlink:href="#m3eac4e1ff3" x="54" y="202.530187" style="fill: #262626; stroke: #262626; stroke-width: 1.25"/>
      </g>
     </g>
     <g id="text_9">
      <!-- 5000 -->
      <g style="fill: #262626" transform="translate(20.031875 206.466984)scale(0.11 -0.11)">
       <use xlink:href="#ArialMT-35"/>
       <use xlink:href="#ArialMT-30" x="55.615234"/>
       <use xlink:href="#ArialMT-30" x="111.230469"/>
       <use xlink:href="#ArialMT-30" x="166.845703"/>
      </g>
     </g>
    </g>
    <g id="ytick_3">
     <g id="line2d_9">
      <g>
       <use xlink:href="#m3eac4e1ff3" x="54" y="162.944011" style="fill: #262626; stroke: #262626; stroke-width: 1.25"/>
      </g>
     </g>
     <g id="text_10">
      <!-- 10000 -->
      <g style="fill: #262626" transform="translate(13.914844 166.880807)scale(0.11 -0.11)">
       <use xlink:href="#ArialMT-31"/>
       <use xlink:href="#ArialMT-30" x="55.615234"/>
       <use xlink:href="#ArialMT-30" x="111.230469"/>
       <use xlink:href="#ArialMT-30" x="166.845703"/>
       <use xlink:href="#ArialMT-30" x="222.460938"/>
      </g>
     </g>
    </g>
    <g id="ytick_4">
     <g id="line2d_10">
      <g>
       <use xlink:href="#m3eac4e1ff3" x="54" y="123.357834" style="fill: #262626; stroke: #262626; stroke-width: 1.25"/>
      </g>
     </g>
     <g id="text_11">
      <!-- 15000 -->
      <g style="fill: #262626" transform="translate(13.914844 127.294631)scale(0.11 -0.11)">
       <use xlink:href="#ArialMT-31"/>
       <use xlink:href="#ArialMT-35" x="55.615234"/>
       <use xlink:href="#ArialMT-30" x="111.230469"/>
       <use xlink:href="#ArialMT-30" x="166.845703"/>
       <use xlink:href="#ArialMT-30" x="222.460938"/>
      </g>
     </g>
    </g>
    <g id="ytick_5">
     <g id="line2d_11">
      <g>
       <use xlink:href="#m3eac4e1ff3" x="54" y="83.771658" style="fill: #262626; stroke: #262626; stroke-width: 1.25"/>
      </g>
     </g>
     <g id="text_12">
      <!-- 20000 -->
      <g style="fill: #262626" transform="translate(13.914844 87.708454)scale(0.11 -0.11)">
       <use xlink:href="#ArialMT-32"/>
       <use xlink:href="#ArialMT-30" x="55.615234"/>
       <use xlink:href="#ArialMT-30" x="111.230469"/>
       <use xlink:href="#ArialMT-30" x="166.845703"/>
       <use xlink:href="#ArialMT-30" x="222.460938"/>
      </g>
     </g>
    </g>
    <g id="ytick_6">
     <g id="line2d_12">
      <g>
       <use xlink:href="#m3eac4e1ff3" x="54" y="44.185481" style="fill: #262626; stroke: #262626; stroke-width: 1.25"/>
      </g>
     </g>
     <g id="text_13">
      <!-- 25000 -->
      <g style="fill: #262626" transform="translate(13.914844 48.122278)scale(0.11 -0.11)">
       <use xlink:href="#ArialMT-32"/>
       <use xlink:href="#ArialMT-35" x="55.615234"/>
       <use xlink:href="#ArialMT-30" x="111.230469"/>
       <use xlink:href="#ArialMT-30" x="166.845703"/>
       <use xlink:href="#ArialMT-30" x="222.460938"/>
      </g>
     </g>
    </g>
   </g>
   <g id="line2d_13">
    <path d="M 54 241.72648 
L 135.909084 241.631269 
L 144.829875 241.347081 
L 151.317723 240.97269 
L 157.805571 240.31577 
L 161.049495 239.809688 
L 162.671457 239.585515 
L 164.293419 239.149755 
L 166.726363 238.479116 
L 168.348325 238.446393 
L 169.159306 237.789427 
L 169.970287 237.815759 
L 170.781268 237.50243 
L 171.592249 236.518846 
L 172.40323 236.70489 
L 173.214211 235.691162 
L 174.025192 235.666231 
L 175.647154 233.377466 
L 176.458135 233.242876 
L 177.269116 232.209068 
L 178.080097 231.570473 
L 178.891078 232.020658 
L 180.51304 230.032044 
L 181.324021 228.568799 
L 182.135002 228.638856 
L 182.945983 227.484754 
L 183.756964 225.138985 
L 184.567945 224.144909 
L 185.378926 220.511728 
L 186.189907 217.507668 
L 187.000888 217.777655 
L 187.811869 217.755889 
L 188.62285 214.465861 
L 189.433831 212.963445 
L 191.055793 210.696653 
L 191.866774 202.037938 
L 192.677755 202.571419 
L 193.488736 198.447636 
L 194.299717 199.147136 
L 195.110698 199.393955 
L 195.921679 193.367061 
L 196.73266 193.898356 
L 197.543642 188.967033 
L 198.354623 181.813014 
L 199.165604 177.775651 
L 199.976585 171.444516 
L 200.787566 168.862384 
L 201.598547 169.062918 
L 202.409528 166.942149 
L 203.220509 169.331715 
L 204.842471 150.375282 
L 205.653452 147.353468 
L 206.464433 145.01196 
L 207.275414 133.705446 
L 208.086395 145.349251 
L 208.897376 134.715718 
L 209.708357 140.57757 
L 210.519338 125.640746 
L 211.330319 130.594161 
L 212.1413 124.627524 
L 213.763262 109.905213 
L 214.574243 112.9078 
L 215.385224 109.179387 
L 216.196205 109.459984 
L 217.007186 93.316361 
L 217.818167 104.682794 
L 218.629148 84.208232 
L 220.25111 89.988243 
L 221.062091 80.273069 
L 221.873072 81.473422 
L 222.684053 93.746981 
L 223.495034 75.002328 
L 224.306015 68.565171 
L 225.116996 74.105097 
L 225.927977 65.41592 
L 226.738958 53.182465 
L 227.549939 50.003707 
L 228.36092 44.443636 
L 229.171901 59.966242 
L 229.982883 46.871215 
L 230.793864 50.156729 
L 231.604845 54.568147 
L 232.415826 61.004217 
L 233.226807 56.362981 
L 234.037788 65.629066 
L 234.848769 58.243936 
L 235.65975 68.002127 
L 236.470731 66.373635 
L 237.281712 65.07784 
L 238.092693 78.401761 
L 238.903674 80.911543 
L 240.525636 68.632323 
L 241.336617 81.348409 
L 242.147598 80.570733 
L 242.958579 90.370405 
L 243.76956 93.229522 
L 244.580541 96.974296 
L 245.391522 86.625401 
L 246.202503 93.086684 
L 247.013484 95.49788 
L 247.824465 99.579776 
L 248.635446 99.841439 
L 249.446427 103.790749 
L 250.257408 105.481859 
L 251.068389 117.677927 
L 251.87937 113.551739 
L 252.690351 106.721221 
L 253.501332 112.897413 
L 254.312313 117.798929 
L 255.123294 111.118179 
L 255.934275 121.143499 
L 256.745256 125.478471 
L 257.556237 122.05124 
L 258.367218 117.803394 
L 260.800161 134.649299 
L 261.611143 138.904584 
L 262.422124 132.161413 
L 264.855067 149.084898 
L 265.666048 163.296047 
L 266.477029 165.121648 
L 267.28801 168.366401 
L 268.098991 163.472601 
L 268.909972 167.432945 
L 269.720953 165.06255 
L 271.342915 173.503982 
L 272.964877 186.137123 
L 273.775858 176.664253 
L 274.586839 170.574846 
L 275.39782 184.883113 
L 276.208801 194.402115 
L 277.019782 188.851049 
L 277.830763 190.506385 
L 278.641744 192.987992 
L 279.452725 189.312003 
L 281.074687 195.910182 
L 281.885668 195.925739 
L 282.696649 205.269682 
L 283.50763 148.420224 
L 284.318611 194.868161 
L 285.129592 204.98452 
L 285.940573 186.175684 
L 286.751554 190.742863 
L 287.562535 185.386651 
L 288.373516 187.414146 
L 289.184497 182.533013 
L 289.995478 181.860461 
L 290.806459 199.307323 
L 291.61744 213.022497 
L 292.428421 212.6675 
L 293.239403 218.712443 
L 294.050384 218.384744 
L 294.861365 207.126941 
L 295.672346 205.476749 
L 296.483327 198.7088 
L 297.294308 205.161724 
L 298.105289 192.634319 
L 298.91627 202.201892 
L 299.727251 198.421702 
L 300.538232 197.661168 
L 301.349213 195.929269 
L 302.160194 185.820365 
L 302.971175 187.459784 
L 303.782156 179.735088 
L 304.593137 177.958225 
L 305.404118 177.389657 
L 306.215099 182.694374 
L 307.02608 173.961571 
L 307.837061 172.017928 
L 308.648042 171.849742 
L 309.459023 169.081665 
L 310.270004 168.935753 
L 311.080985 162.541375 
L 311.891966 162.869419 
L 312.702947 155.96174 
L 313.513928 152.032853 
L 314.324909 153.411983 
L 315.13589 150.257206 
L 315.946871 139.675788 
L 316.757852 137.640571 
L 318.379814 146.192941 
L 319.190795 138.00314 
L 320.001776 141.681066 
L 320.812757 141.447539 
L 321.623738 131.535238 
L 322.434719 134.216495 
L 323.2457 138.315125 
L 324.056681 134.954889 
L 324.867662 134.528769 
L 325.678644 131.796351 
L 326.489625 135.086795 
L 327.300606 127.922598 
L 328.111587 136.434755 
L 328.922568 134.513279 
L 329.733549 130.45582 
L 330.54453 136.247778 
L 331.355511 134.90091 
L 332.166492 132.33735 
L 332.977473 134.705677 
L 333.788454 144.484501 
L 334.599435 130.365934 
L 335.410416 136.333188 
L 336.221397 130.568598 
L 337.032378 133.459644 
L 337.843359 137.264677 
L 338.65434 131.646345 
L 339.465321 137.396695 
L 340.276302 144.215756 
L 341.087283 143.15772 
L 341.898264 138.862057 
L 342.709245 139.079195 
L 343.520226 147.212389 
L 344.331207 141.480038 
L 345.142188 146.438385 
L 345.953169 141.834558 
L 346.76415 145.735721 
L 347.575131 144.30919 
L 348.386112 153.135334 
L 349.197093 147.883153 
L 350.008074 155.44507 
L 350.819055 165.410159 
L 351.630036 160.214447 
L 352.441017 168.301271 
L 353.251998 161.994186 
L 354.062979 157.010984 
L 355.684941 180.467134 
L 356.495922 181.593133 
L 357.306904 179.735387 
L 358.117885 183.64581 
L 358.928866 184.496365 
L 359.739847 182.080754 
L 360.550828 191.689424 
L 361.361809 193.91195 
L 362.17279 197.244379 
L 362.983771 199.078335 
L 363.794752 199.402687 
L 364.605733 203.207944 
L 365.416714 200.530833 
L 366.227695 201.566158 
L 367.849657 209.243011 
L 368.660638 210.132656 
L 371.093581 216.278586 
L 371.904562 220.837769 
L 372.715543 219.879219 
L 373.526524 220.732512 
L 374.337505 220.607146 
L 375.148486 223.518721 
L 375.959467 223.759656 
L 376.770448 223.705647 
L 377.581429 223.146504 
L 378.39241 228.100486 
L 379.203391 226.033409 
L 380.014372 227.602606 
L 380.825353 230.417135 
L 381.636334 229.020708 
L 382.447315 230.541593 
L 383.258296 230.834555 
L 384.069277 233.329998 
L 384.880258 230.929088 
L 385.691239 232.674277 
L 386.50222 232.448642 
L 387.313201 232.431808 
L 388.124182 232.810246 
L 388.935164 233.563575 
L 389.746145 230.989898 
L 390.557126 232.30164 
L 391.368107 232.007164 
L 392.179088 234.131898 
L 392.990069 229.280537 
L 393.80105 229.443301 
L 394.612031 230.471072 
L 395.423012 232.087892 
L 396.233993 229.239128 
L 397.044974 227.829208 
L 397.855955 225.199803 
L 398.666936 228.272151 
L 399.477917 223.761734 
L 400.288898 225.571988 
L 401.099879 222.305335 
L 401.91086 223.520892 
L 402.721841 220.027286 
L 403.532822 219.609705 
L 404.343803 218.760974 
L 405.154784 216.844722 
L 405.965765 215.4355 
L 406.776746 213.436438 
L 407.587727 210.779797 
L 408.398708 212.876922 
L 409.209689 207.75142 
L 410.02067 209.687685 
L 410.831651 209.353466 
L 411.642632 208.746102 
L 412.453613 210.267171 
L 413.264594 208.13291 
L 414.075575 208.547812 
L 414.886556 205.495301 
L 415.697537 200.975194 
L 416.508518 200.53979 
L 417.319499 201.561015 
L 418.13048 204.760335 
L 418.941461 199.298757 
L 419.752442 200.232087 
L 420.563423 200.139139 
L 421.374405 192.991594 
L 422.185386 194.69018 
L 422.996367 193.314989 
L 423.807348 191.125456 
L 424.618329 190.829721 
L 425.42931 191.375347 
L 426.240291 192.759968 
L 427.051272 189.024936 
L 427.862253 187.463806 
L 428.673234 191.88572 
L 429.484215 189.306141 
L 430.295196 183.58465 
L 431.106177 187.384822 
L 431.917158 186.299567 
L 432.728139 186.977643 
L 433 188.40921 
M 433 242.116229 
L -1 242.116229 
L -1 242.116229 
" clip-path="url(#p8535fdfcea)" style="fill: none; stroke: #4c72b0; stroke-opacity: 0.3; stroke-width: 1.5; stroke-linecap: round"/>
   </g>
   <g id="line2d_14">
    <path d="M 54 242.109615 
L 151.317723 242.004207 
L 157.805571 241.780928 
L 164.293419 241.076991 
L 166.726363 240.361639 
L 167.537344 240.011736 
L 168.348325 239.825143 
L 169.159306 239.298055 
L 171.592249 238.357343 
L 172.40323 237.287859 
L 173.214211 236.879259 
L 174.025192 236.061754 
L 174.836173 235.445905 
L 175.647154 234.62504 
L 176.458135 233.385157 
L 178.080097 232.088143 
L 178.891078 230.945371 
L 179.702059 230.368107 
L 180.51304 228.172279 
L 181.324021 226.520735 
L 182.135002 225.478609 
L 182.945983 223.613677 
L 183.756964 222.732902 
L 184.567945 220.705134 
L 185.378926 218.266544 
L 186.189907 218.529626 
L 187.000888 217.391718 
L 187.811869 214.338074 
L 188.62285 211.772349 
L 189.433831 211.45949 
L 190.244812 208.94483 
L 191.055793 206.060608 
L 191.866774 203.769188 
L 192.677755 202.204455 
L 193.488736 203.670966 
L 194.299717 206.197452 
L 195.110698 199.85997 
L 195.921679 201.142958 
L 196.73266 195.411263 
L 197.543642 196.090354 
L 198.354623 195.753128 
L 199.165604 194.102273 
L 199.976585 193.973275 
L 200.787566 187.386155 
L 201.598547 191.182418 
L 202.409528 184.023711 
L 203.220509 184.360137 
L 204.03149 184.326023 
L 204.842471 186.79401 
L 205.653452 176.48361 
L 206.464433 182.583543 
L 207.275414 174.647699 
L 208.086395 176.252165 
L 208.897376 176.398715 
L 209.708357 177.17641 
L 210.519338 177.335434 
L 211.330319 175.851367 
L 212.1413 173.944393 
L 212.952281 173.142815 
L 213.763262 172.821817 
L 214.574243 173.03367 
L 215.385224 179.730844 
L 216.196205 173.224682 
L 217.007186 169.704182 
L 217.818167 165.001438 
L 218.629148 165.564211 
L 219.440129 168.696298 
L 220.25111 165.532247 
L 221.062091 163.294651 
L 221.873072 163.584182 
L 222.684053 163.030135 
L 223.495034 170.734523 
L 224.306015 155.822414 
L 225.116996 157.554854 
L 225.927977 152.51437 
L 226.738958 154.627677 
L 227.549939 146.251042 
L 228.36092 140.562651 
L 229.171901 154.49564 
L 229.982883 142.668618 
L 230.793864 156.876587 
L 231.604845 143.485994 
L 232.415826 148.727031 
L 233.226807 155.544377 
L 234.037788 143.800955 
L 234.848769 149.092997 
L 235.65975 148.538752 
L 236.470731 145.103242 
L 237.281712 135.209906 
L 238.092693 146.691564 
L 238.903674 138.728574 
L 239.714655 143.968482 
L 240.525636 142.821212 
L 241.336617 139.272996 
L 242.147598 137.949832 
L 242.958579 145.313476 
L 243.76956 140.937704 
L 244.580541 133.070111 
L 245.391522 139.047874 
L 246.202503 139.637273 
L 247.013484 149.985248 
L 247.824465 149.63602 
L 248.635446 137.353985 
L 249.446427 147.76491 
L 250.257408 146.267738 
L 251.068389 145.144007 
L 251.87937 157.007559 
L 252.690351 162.483278 
L 253.501332 154.425553 
L 254.312313 157.089297 
L 255.123294 157.143433 
L 255.934275 160.758732 
L 256.745256 177.8252 
L 257.556237 166.462866 
L 258.367218 162.180432 
L 259.178199 173.611942 
L 259.98918 173.825912 
L 260.800161 175.603265 
L 261.611143 179.563811 
L 262.422124 172.659028 
L 263.233105 184.881013 
L 264.044086 180.842191 
L 264.855067 186.169918 
L 265.666048 192.907513 
L 266.477029 194.46232 
L 267.28801 199.160994 
L 268.909972 197.010046 
L 269.720953 197.77419 
L 270.531934 203.374986 
L 271.342915 212.232864 
L 272.153896 210.30409 
L 272.964877 207.069856 
L 273.775858 209.461023 
L 274.586839 207.462904 
L 275.39782 211.013181 
L 276.208801 212.469175 
L 277.019782 210.200687 
L 277.830763 216.588401 
L 278.641744 215.48331 
L 279.452725 216.487959 
L 280.263706 215.682037 
L 281.074687 219.250806 
L 281.885668 220.179254 
L 282.696649 225.364293 
L 283.50763 207.36748 
L 284.318611 223.679206 
L 285.129592 230.712505 
L 285.940573 219.781742 
L 286.751554 227.426406 
L 287.562535 225.227415 
L 288.373516 222.19555 
L 289.184497 218.037489 
L 289.995478 221.714254 
L 290.806459 227.101719 
L 291.61744 229.286165 
L 292.428421 232.981072 
L 293.239403 234.560926 
L 294.050384 231.380222 
L 294.861365 233.538057 
L 295.672346 231.377858 
L 296.483327 226.149844 
L 297.294308 229.275435 
L 298.105289 227.990664 
L 298.91627 232.062929 
L 300.538232 225.330012 
L 301.349213 226.705591 
L 302.160194 220.838789 
L 302.971175 223.384466 
L 303.782156 222.485528 
L 304.593137 221.043537 
L 305.404118 220.68624 
L 306.215099 218.317938 
L 307.02608 211.57192 
L 307.837061 211.459638 
L 308.648042 211.757363 
L 309.459023 206.323071 
L 310.270004 204.322989 
L 311.080985 205.331638 
L 311.891966 201.498057 
L 312.702947 200.260242 
L 313.513928 194.642719 
L 314.324909 192.746475 
L 315.13589 188.88173 
L 315.946871 183.21809 
L 316.757852 181.733416 
L 317.568833 183.798284 
L 318.379814 174.577685 
L 319.190795 182.051853 
L 320.001776 176.996985 
L 320.812757 174.269382 
L 321.623738 175.954477 
L 322.434719 167.064878 
L 323.2457 170.048144 
L 324.056681 175.304703 
L 324.867662 167.934004 
L 325.678644 168.06054 
L 326.489625 172.241993 
L 327.300606 172.148565 
L 328.111587 169.727539 
L 328.922568 178.346435 
L 329.733549 176.37137 
L 330.54453 175.804334 
L 331.355511 181.976761 
L 332.166492 171.964625 
L 333.788454 185.043201 
L 334.599435 180.696251 
L 335.410416 183.694224 
L 336.221397 181.271373 
L 337.032378 191.700101 
L 337.843359 192.268603 
L 338.65434 194.08018 
L 339.465321 200.692442 
L 340.276302 203.942434 
L 341.087283 195.864836 
L 341.898264 200.447816 
L 342.709245 200.78945 
L 344.331207 215.560984 
L 345.142188 211.61 
L 345.953169 214.530933 
L 346.76415 215.066833 
L 347.575131 214.258144 
L 348.386112 213.611589 
L 350.008074 219.640234 
L 350.819055 219.092033 
L 351.630036 220.53936 
L 352.441017 222.488387 
L 353.251998 222.763645 
L 354.062979 222.307905 
L 354.87396 227.326466 
L 355.684941 224.105597 
L 356.495922 226.62226 
L 357.306904 225.304709 
L 358.117885 229.210952 
L 359.739847 224.976761 
L 360.550828 227.046313 
L 361.361809 224.012483 
L 362.17279 223.648859 
L 362.983771 222.53737 
L 363.794752 226.143913 
L 364.605733 227.177019 
L 365.416714 227.326006 
L 366.227695 221.270671 
L 367.038676 218.88454 
L 367.849657 217.91128 
L 368.660638 219.746787 
L 369.471619 215.63939 
L 370.2826 215.696239 
L 371.093581 218.762959 
L 371.904562 218.312557 
L 372.715543 212.109376 
L 373.526524 213.188793 
L 374.337505 207.603949 
L 375.148486 210.203857 
L 375.959467 209.038055 
L 376.770448 208.991201 
L 377.581429 209.958779 
L 378.39241 206.418784 
L 379.203391 204.80554 
L 380.014372 209.153625 
L 380.825353 209.930036 
L 381.636334 202.843334 
L 382.447315 202.188072 
L 383.258296 206.928686 
L 384.069277 206.075874 
L 384.880258 207.581069 
L 385.691239 202.187449 
L 386.50222 211.037166 
L 388.124182 206.439086 
L 388.935164 210.269394 
L 389.746145 206.746169 
L 390.557126 209.460918 
L 391.368107 206.594283 
L 392.179088 210.47809 
L 392.990069 208.039456 
L 393.80105 210.52976 
L 394.612031 210.907934 
L 395.423012 212.194531 
L 396.233993 214.579335 
L 397.044974 215.423222 
L 397.855955 217.583648 
L 398.666936 216.810864 
L 399.477917 215.219724 
L 401.099879 223.002294 
L 401.91086 219.139388 
L 402.721841 220.957835 
L 403.532822 221.537381 
L 404.343803 224.722638 
L 405.154784 226.189308 
L 405.965765 226.352784 
L 406.776746 227.179163 
L 407.587727 228.899789 
L 408.398708 229.293204 
L 409.209689 230.463085 
L 410.02067 230.892526 
L 410.831651 235.731671 
L 411.642632 233.321037 
L 412.453613 235.250284 
L 413.264594 235.663222 
L 414.075575 238.001761 
L 414.886556 237.53432 
L 415.697537 238.875159 
L 416.508518 239.374262 
L 417.319499 239.002836 
L 418.13048 238.355747 
L 419.752442 240.656773 
L 420.563423 240.414598 
L 421.374405 240.719552 
L 422.185386 240.89718 
L 422.996367 241.409143 
L 423.807348 241.05294 
L 424.618329 241.280486 
L 425.42931 240.66462 
L 426.240291 241.568736 
L 427.051272 240.259239 
L 428.673234 241.345266 
L 429.484215 240.987909 
L 430.295196 240.488754 
L 431.106177 240.188943 
L 431.917158 240.236141 
L 433 240.829109 
M 433 242.116364 
L -1 242.116364 
L -1 242.116364 
" clip-path="url(#p8535fdfcea)" style="fill: none; stroke: #dd8452; stroke-opacity: 0.3; stroke-width: 1.5; stroke-linecap: round"/>
   </g>
   <g id="line2d_15">
    <path d="M 54 242.116364 
L 433 242.116364 
M 433 242.116364 
L -1 242.116364 
L -1 242.116364 
" clip-path="url(#p8535fdfcea)" style="fill: none; stroke: #55a868; stroke-opacity: 0.3; stroke-width: 1.5; stroke-linecap: round"/>
   </g>
   <g id="line2d_16">
    <path d="M 54 242.116351 
L 165.915382 242.028796 
L 169.159306 241.952639 
L 170.781268 241.931758 
L 172.40323 241.942093 
L 174.025192 241.864413 
L 176.458135 241.684869 
L 177.269116 241.764001 
L 178.080097 241.723213 
L 178.891078 241.455387 
L 179.702059 241.686163 
L 181.324021 241.600427 
L 182.135002 241.396378 
L 182.945983 241.592893 
L 183.756964 241.300676 
L 185.378926 241.498611 
L 186.189907 241.154014 
L 187.000888 241.137494 
L 187.811869 240.83716 
L 188.62285 240.349666 
L 189.433831 240.402957 
L 190.244812 239.901671 
L 191.055793 240.556429 
L 191.866774 239.673941 
L 192.677755 240.292627 
L 193.488736 241.05822 
L 194.299717 239.824706 
L 195.110698 240.785181 
L 195.921679 239.653805 
L 196.73266 240.497432 
L 197.543642 239.492652 
L 198.354623 239.7603 
L 199.976585 239.943716 
L 200.787566 240.231133 
L 201.598547 240.239136 
L 202.409528 239.278059 
L 203.220509 239.852326 
L 204.03149 239.93253 
L 205.653452 239.313003 
L 206.464433 239.498377 
L 208.086395 240.219768 
L 208.897376 240.254662 
L 209.708357 240.925642 
L 210.519338 239.094257 
L 211.330319 238.983303 
L 212.1413 238.998157 
L 213.763262 239.775621 
L 214.574243 239.500784 
L 215.385224 238.307643 
L 216.196205 238.551626 
L 217.007186 236.475223 
L 217.818167 238.080645 
L 218.629148 240.874784 
L 219.440129 237.086208 
L 220.25111 239.384155 
L 221.062091 239.567139 
L 221.873072 236.935271 
L 222.684053 236.624593 
L 223.495034 236.897159 
L 224.306015 238.417777 
L 225.116996 236.879213 
L 226.738958 236.511277 
L 227.549939 237.195904 
L 228.36092 236.808217 
L 229.171901 237.876588 
L 229.982883 236.368161 
L 230.793864 237.843666 
L 231.604845 235.985857 
L 232.415826 235.085671 
L 233.226807 238.399283 
L 234.037788 238.409842 
L 234.848769 237.407446 
L 235.65975 239.057614 
L 236.470731 236.915891 
L 237.281712 236.770806 
L 238.092693 238.546808 
L 238.903674 237.773598 
L 239.714655 238.825234 
L 240.525636 238.696582 
L 241.336617 239.750256 
L 242.147598 239.615027 
L 242.958579 239.950405 
L 243.76956 239.428174 
L 244.580541 240.449104 
L 245.391522 240.33486 
L 246.202503 238.912458 
L 247.013484 238.337122 
L 247.824465 239.970604 
L 248.635446 240.510678 
L 250.257408 240.60623 
L 251.068389 241.415681 
L 251.87937 240.59938 
L 252.690351 240.059264 
L 253.501332 240.466808 
L 254.312313 240.124968 
L 255.934275 240.889299 
L 256.745256 239.724623 
L 257.556237 239.387912 
L 258.367218 240.986704 
L 259.178199 240.156949 
L 259.98918 240.724333 
L 260.800161 240.610136 
L 261.611143 240.303292 
L 262.422124 240.196257 
L 264.044086 239.272475 
L 264.855067 240.258506 
L 265.666048 240.228959 
L 266.477029 239.061492 
L 267.28801 239.790824 
L 268.098991 240.295965 
L 268.909972 239.531095 
L 269.720953 239.976768 
L 270.531934 240.768241 
L 271.342915 239.837787 
L 272.153896 240.112978 
L 272.964877 237.934263 
L 273.775858 236.986716 
L 274.586839 239.318407 
L 275.39782 238.584517 
L 276.208801 237.351353 
L 277.019782 240.629201 
L 277.830763 239.712652 
L 278.641744 238.988697 
L 279.452725 238.788638 
L 280.263706 240.543242 
L 281.074687 241.935207 
L 282.696649 239.240987 
L 283.50763 208.475329 
L 284.318611 241.498219 
L 285.129592 235.863688 
L 285.940573 240.634825 
L 286.751554 242.019763 
L 287.562535 239.842764 
L 288.373516 235.62004 
L 289.184497 235.893983 
L 289.995478 236.394209 
L 290.806459 241.260543 
L 291.61744 241.814814 
L 292.428421 240.010797 
L 293.239403 236.415074 
L 294.050384 238.337816 
L 294.861365 237.109501 
L 295.672346 238.23877 
L 296.483327 240.270756 
L 297.294308 238.936136 
L 298.105289 238.717751 
L 298.91627 240.190284 
L 299.727251 239.942404 
L 300.538232 240.351682 
L 301.349213 239.4095 
L 302.160194 237.826145 
L 302.971175 238.728029 
L 303.782156 238.127885 
L 304.593137 238.884029 
L 305.404118 238.69936 
L 306.215099 238.651239 
L 307.02608 236.511202 
L 307.837061 237.757268 
L 308.648042 238.067497 
L 309.459023 238.722825 
L 310.270004 237.493003 
L 311.080985 238.376884 
L 311.891966 237.444655 
L 312.702947 236.714603 
L 313.513928 238.451648 
L 314.324909 238.19057 
L 315.13589 238.830092 
L 315.946871 238.355637 
L 316.757852 237.445505 
L 317.568833 238.811656 
L 318.379814 239.941702 
L 319.190795 239.572351 
L 320.001776 240.903704 
L 320.812757 240.282093 
L 321.623738 240.312525 
L 322.434719 239.605749 
L 323.2457 240.65253 
L 324.056681 240.258634 
L 324.867662 240.580405 
L 325.678644 241.287465 
L 326.489625 241.616832 
L 328.111587 241.115738 
L 328.922568 241.641729 
L 330.54453 241.580254 
L 331.355511 242.025497 
L 332.166492 241.813557 
L 332.977473 242.072694 
L 333.788454 241.724829 
L 334.599435 241.589776 
L 335.410416 242.08516 
L 338.65434 241.925712 
L 339.465321 241.488306 
L 340.276302 241.291861 
L 341.087283 241.862927 
L 341.898264 241.653785 
L 342.709245 241.903398 
L 343.520226 241.468801 
L 345.142188 241.889617 
L 346.76415 241.467167 
L 347.575131 241.347904 
L 348.386112 240.878343 
L 349.197093 241.317417 
L 350.008074 240.982113 
L 350.819055 240.859427 
L 351.630036 241.998393 
L 352.441017 241.705963 
L 353.251998 241.638188 
L 354.062979 241.955743 
L 354.87396 241.152841 
L 355.684941 241.7024 
L 356.495922 241.775188 
L 357.306904 241.365421 
L 358.117885 241.604296 
L 358.928866 241.459537 
L 362.983771 241.873089 
L 363.794752 240.844616 
L 364.605733 240.678215 
L 365.416714 241.983067 
L 367.038676 241.693199 
L 367.849657 241.791514 
L 368.660638 241.769222 
L 369.471619 241.953454 
L 370.2826 241.402832 
L 371.093581 241.837192 
L 371.904562 241.718247 
L 372.715543 241.431394 
L 373.526524 241.857205 
L 374.337505 241.878921 
L 375.148486 241.603073 
L 375.959467 241.889712 
L 376.770448 241.117214 
L 377.581429 241.984672 
L 379.203391 241.724006 
L 380.014372 241.911763 
L 381.636334 241.505177 
L 382.447315 242.018628 
L 383.258296 241.527524 
L 384.069277 242.058322 
L 384.880258 241.76419 
L 385.691239 241.762891 
L 386.50222 241.918249 
L 387.313201 241.706711 
L 388.935164 241.73026 
L 389.746145 242.070676 
L 390.557126 241.868205 
L 391.368107 241.953466 
L 392.179088 241.732122 
L 393.80105 241.972054 
L 394.612031 241.844749 
L 395.423012 242.113238 
L 396.233993 241.855135 
L 397.044974 242.10039 
L 397.855955 241.870474 
L 398.666936 242.082391 
L 399.477917 241.887312 
L 400.288898 241.85398 
L 401.099879 242.096513 
L 402.721841 242.029656 
L 405.154784 242.023234 
L 405.965765 242.089888 
L 406.776746 241.767057 
L 407.587727 241.640453 
L 410.02067 242.024325 
L 414.075575 241.989509 
L 415.697537 242.084042 
L 417.319499 241.809122 
L 418.941461 242.112291 
L 419.752442 241.990952 
L 420.563423 242.040525 
L 421.374405 241.764272 
L 422.185386 242.078639 
L 422.996367 241.933841 
L 423.807348 242.107869 
L 427.862253 242.08616 
L 429.484215 241.946214 
L 431.106177 242.097965 
L 433 242.083447 
M 433 242.116363 
L -1 242.116363 
L -1 242.116363 
" clip-path="url(#p8535fdfcea)" style="fill: none; stroke: #c44e52; stroke-opacity: 0.3; stroke-width: 1.5; stroke-linecap: round"/>
   </g>
   <g id="line2d_17">
    <path d="M 54 242.116144 
L 181.324021 242.013182 
L 182.135002 241.855579 
L 182.945983 242.085875 
L 185.378926 242.043833 
L 187.000888 242.002025 
L 187.811869 242.085871 
L 190.244812 242.000209 
L 191.055793 241.667767 
L 191.866774 241.656153 
L 193.488736 242.01565 
L 194.299717 241.943766 
L 195.921679 241.606171 
L 196.73266 242.024621 
L 197.543642 241.79711 
L 198.354623 241.941717 
L 199.976585 241.651574 
L 200.787566 241.857439 
L 201.598547 241.47575 
L 204.03149 241.957677 
L 204.842471 241.767887 
L 206.464433 241.916749 
L 208.086395 241.377513 
L 208.897376 241.70333 
L 209.708357 241.404641 
L 210.519338 241.48671 
L 211.330319 240.808046 
L 212.1413 241.113546 
L 212.952281 240.746341 
L 213.763262 241.557145 
L 214.574243 240.812646 
L 215.385224 241.399532 
L 216.196205 240.742501 
L 217.007186 240.803477 
L 217.818167 239.84831 
L 218.629148 241.494085 
L 219.440129 240.424777 
L 220.25111 240.796411 
L 221.062091 240.68431 
L 221.873072 241.160222 
L 222.684053 241.812263 
L 223.495034 241.716037 
L 224.306015 241.272946 
L 225.116996 241.187779 
L 225.927977 239.946296 
L 226.738958 240.489078 
L 227.549939 240.027083 
L 228.36092 240.443346 
L 229.171901 241.191247 
L 229.982883 241.559487 
L 230.793864 241.530287 
L 231.604845 241.872912 
L 232.415826 240.89639 
L 233.226807 241.38499 
L 234.037788 240.971472 
L 234.848769 239.954302 
L 235.65975 240.548766 
L 236.470731 239.525554 
L 237.281712 240.517017 
L 238.092693 240.400339 
L 238.903674 240.750429 
L 239.714655 241.643495 
L 240.525636 241.617243 
L 241.336617 241.47131 
L 242.147598 240.964913 
L 242.958579 241.176115 
L 243.76956 241.016746 
L 245.391522 241.118651 
L 246.202503 239.89011 
L 247.013484 240.319752 
L 247.824465 241.105509 
L 248.635446 241.607956 
L 249.446427 241.820938 
L 250.257408 240.356929 
L 251.068389 240.824459 
L 252.690351 240.714415 
L 253.501332 239.588867 
L 254.312313 237.811017 
L 255.123294 239.525355 
L 255.934275 240.535531 
L 257.556237 239.890574 
L 258.367218 240.007959 
L 259.178199 241.204155 
L 259.98918 239.701887 
L 260.800161 239.867952 
L 261.611143 239.539824 
L 262.422124 238.483517 
L 263.233105 240.733233 
L 264.044086 240.159733 
L 264.855067 240.461124 
L 265.666048 241.225177 
L 266.477029 240.373272 
L 267.28801 240.973243 
L 268.098991 241.135368 
L 268.909972 240.400149 
L 269.720953 241.579238 
L 270.531934 240.672271 
L 271.342915 240.720103 
L 272.153896 241.380646 
L 272.964877 240.265575 
L 273.775858 239.672895 
L 274.586839 240.602141 
L 275.39782 241.358174 
L 276.208801 241.607096 
L 277.019782 241.430594 
L 279.452725 241.292879 
L 280.263706 241.543884 
L 281.074687 239.679249 
L 281.885668 238.248787 
L 282.696649 233.036196 
L 283.50763 199.285557 
L 284.318611 239.484963 
L 285.129592 224.230264 
L 285.940573 240.534071 
L 286.751554 240.339723 
L 287.562535 240.415717 
L 288.373516 238.19484 
L 289.184497 235.508432 
L 289.995478 234.211291 
L 290.806459 239.724075 
L 291.61744 239.302099 
L 292.428421 235.198047 
L 293.239403 229.874459 
L 294.050384 227.562524 
L 294.861365 225.624771 
L 295.672346 229.101572 
L 296.483327 227.816644 
L 297.294308 230.946662 
L 298.105289 232.77831 
L 298.91627 232.913621 
L 299.727251 234.521322 
L 300.538232 235.27175 
L 301.349213 237.823823 
L 302.160194 235.240782 
L 302.971175 238.663836 
L 303.782156 240.097681 
L 304.593137 240.428653 
L 305.404118 239.240573 
L 306.215099 240.095758 
L 307.02608 241.226669 
L 307.837061 240.436849 
L 308.648042 241.837946 
L 309.459023 241.486671 
L 310.270004 241.348651 
L 311.080985 241.510596 
L 311.891966 241.875166 
L 313.513928 242.112627 
L 314.324909 241.961459 
L 315.13589 242.107158 
L 315.946871 241.797837 
L 316.757852 241.97398 
L 317.568833 241.971902 
L 318.379814 242.114341 
L 320.001776 241.795962 
L 320.812757 242.038101 
L 321.623738 241.897704 
L 323.2457 241.857506 
L 324.056681 242.065551 
L 325.678644 242.034274 
L 327.300606 241.706775 
L 328.111587 242.01631 
L 329.733549 241.963428 
L 330.54453 242.09798 
L 335.410416 242.087492 
L 336.221397 242.113593 
L 337.032378 241.99685 
L 338.65434 242.013569 
L 339.465321 241.786905 
L 340.276302 241.920447 
L 341.087283 241.800097 
L 341.898264 242.096854 
L 342.709245 241.864561 
L 343.520226 242.014238 
L 346.76415 242.088921 
L 351.630036 242.057128 
L 353.251998 242.046398 
L 354.87396 242.077985 
L 356.495922 242.09188 
L 357.306904 241.799941 
L 358.117885 242.107112 
L 358.928866 241.616759 
L 359.739847 242.01512 
L 361.361809 242.002495 
L 362.17279 241.772727 
L 362.983771 242.086858 
L 363.794752 241.952206 
L 364.605733 242.053557 
L 365.416714 241.76573 
L 366.227695 241.996979 
L 367.849657 242.059878 
L 369.471619 241.775033 
L 370.2826 242.065965 
L 374.337505 241.841836 
L 375.148486 241.614305 
L 375.959467 242.077712 
L 376.770448 242.108791 
L 377.581429 241.667112 
L 378.39241 242.078565 
L 379.203391 241.948112 
L 380.014372 241.573311 
L 380.825353 241.944123 
L 381.636334 242.109786 
L 383.258296 241.850004 
L 384.069277 241.604519 
L 384.880258 242.071294 
L 386.50222 242.081828 
L 387.313201 242.079054 
L 388.124182 241.807527 
L 390.557126 242.040122 
L 391.368107 241.918681 
L 392.179088 241.632805 
L 392.990069 241.895662 
L 394.612031 241.992244 
L 396.233993 241.65277 
L 397.044974 242.035773 
L 397.855955 241.889577 
L 398.666936 241.984098 
L 400.288898 241.855783 
L 401.099879 241.668545 
L 401.91086 241.930654 
L 402.721841 241.307998 
L 403.532822 241.739837 
L 405.154784 242.104556 
L 405.965765 241.96911 
L 406.776746 242.057801 
L 408.398708 241.599819 
L 409.209689 242.007189 
L 410.02067 242.021539 
L 410.831651 241.709846 
L 414.886556 241.949106 
L 415.697537 241.978695 
L 416.508518 241.828031 
L 417.319499 242.063422 
L 418.941461 241.744484 
L 421.374405 242.089179 
L 422.185386 241.887164 
L 423.807348 242.113394 
L 425.42931 242.044096 
L 426.240291 242.116356 
L 427.051272 241.746493 
L 427.862253 242.11586 
L 429.484215 241.859873 
L 431.106177 241.987978 
L 432.728139 242.08645 
L 433 242.020415 
M 433 242.116364 
L -1 242.116364 
L -1 242.116364 
" clip-path="url(#p8535fdfcea)" style="fill: none; stroke: #8172b3; stroke-opacity: 0.3; stroke-width: 1.5; stroke-linecap: round"/>
   </g>
   <g id="line2d_18">
    <path d="M 54 242.116364 
L 433 242.116364 
M 433 242.116364 
L -1 242.116364 
L -1 242.116364 
" clip-path="url(#p8535fdfcea)" style="fill: none; stroke: #937860; stroke-opacity: 0.3; stroke-width: 1.5; stroke-linecap: round"/>
   </g>
   <g id="line2d_19">
    <path d="M 54 242.115954 
L 168.348325 242.027686 
L 171.592249 241.923756 
L 172.40323 241.93479 
L 174.025192 241.773731 
L 177.269116 241.426327 
L 178.080097 241.649891 
L 178.891078 241.632035 
L 180.51304 241.289043 
L 181.324021 241.152259 
L 182.135002 241.17085 
L 182.945983 241.302316 
L 183.756964 240.914182 
L 184.567945 241.091361 
L 185.378926 241.029121 
L 186.189907 240.636024 
L 187.000888 240.964091 
L 188.62285 240.132524 
L 189.433831 240.675197 
L 191.866774 240.62549 
L 192.677755 240.148261 
L 193.488736 239.89576 
L 195.110698 240.297361 
L 195.921679 239.614131 
L 196.73266 240.342539 
L 197.543642 239.305501 
L 198.354623 240.443389 
L 199.165604 239.362838 
L 199.976585 239.949251 
L 201.598547 237.796786 
L 202.409528 238.813923 
L 203.220509 238.190984 
L 204.03149 238.295987 
L 204.842471 238.073888 
L 205.653452 238.852496 
L 206.464433 238.323317 
L 207.275414 238.482611 
L 208.086395 237.062747 
L 208.897376 236.509875 
L 209.708357 236.625349 
L 210.519338 236.986068 
L 211.330319 236.710707 
L 212.952281 235.58784 
L 213.763262 235.846138 
L 214.574243 234.555079 
L 215.385224 236.314806 
L 216.196205 235.208936 
L 217.007186 235.15618 
L 217.818167 234.0863 
L 218.629148 235.474987 
L 219.440129 236.272596 
L 220.25111 234.406121 
L 221.062091 234.453246 
L 221.873072 232.250422 
L 222.684053 233.33386 
L 223.495034 231.669244 
L 224.306015 232.155215 
L 225.116996 234.845481 
L 225.927977 236.043839 
L 226.738958 234.8865 
L 227.549939 234.695672 
L 228.36092 235.02006 
L 229.171901 233.806378 
L 229.982883 234.403478 
L 231.604845 236.253096 
L 232.415826 234.735852 
L 233.226807 236.08086 
L 234.037788 236.409931 
L 234.848769 236.029708 
L 235.65975 236.379494 
L 236.470731 238.3299 
L 237.281712 236.573945 
L 238.092693 236.709314 
L 238.903674 237.323843 
L 239.714655 238.218587 
L 240.525636 237.607772 
L 241.336617 236.766623 
L 242.147598 237.393517 
L 242.958579 236.807217 
L 243.76956 237.695656 
L 244.580541 237.3519 
L 245.391522 237.380418 
L 246.202503 236.324047 
L 247.013484 235.704086 
L 247.824465 237.866235 
L 248.635446 237.280098 
L 250.257408 235.26005 
L 251.068389 235.586846 
L 251.87937 233.539016 
L 252.690351 237.518127 
L 253.501332 236.984839 
L 254.312313 233.613191 
L 255.123294 234.713066 
L 255.934275 236.267382 
L 257.556237 236.360279 
L 258.367218 234.965419 
L 259.178199 234.625874 
L 259.98918 235.813108 
L 260.800161 235.725686 
L 261.611143 234.060724 
L 262.422124 234.259421 
L 263.233105 237.102968 
L 264.044086 235.049053 
L 264.855067 235.043451 
L 265.666048 237.151605 
L 266.477029 236.116584 
L 267.28801 236.404985 
L 268.098991 235.9347 
L 268.909972 237.29029 
L 269.720953 235.180869 
L 270.531934 236.027506 
L 271.342915 234.042771 
L 272.153896 235.525765 
L 272.964877 236.359896 
L 273.775858 237.652972 
L 274.586839 235.025417 
L 275.39782 236.777712 
L 276.208801 238.044905 
L 277.019782 236.379849 
L 277.830763 236.630312 
L 278.641744 236.41465 
L 279.452725 235.896131 
L 280.263706 236.274156 
L 281.074687 237.784723 
L 281.885668 237.179561 
L 282.696649 239.087293 
L 283.50763 236.022256 
L 284.318611 237.265718 
L 285.129592 237.008701 
L 285.940573 237.099894 
L 286.751554 238.121104 
L 287.562535 237.671799 
L 288.373516 239.45828 
L 289.184497 238.898523 
L 289.995478 237.602554 
L 290.806459 239.384005 
L 291.61744 239.939214 
L 292.428421 238.684455 
L 293.239403 238.116828 
L 294.050384 236.491083 
L 294.861365 236.664602 
L 295.672346 234.721562 
L 296.483327 239.130411 
L 297.294308 236.404091 
L 298.105289 237.047046 
L 298.91627 237.115732 
L 299.727251 238.302802 
L 300.538232 237.478146 
L 301.349213 236.962322 
L 302.160194 235.818713 
L 302.971175 235.993335 
L 303.782156 237.554699 
L 304.593137 237.779002 
L 305.404118 238.574596 
L 306.215099 238.558475 
L 307.02608 239.185583 
L 307.837061 237.572451 
L 308.648042 236.619339 
L 309.459023 238.013792 
L 310.270004 238.418281 
L 311.080985 237.777134 
L 311.891966 237.599461 
L 312.702947 236.669951 
L 313.513928 237.837592 
L 314.324909 238.45794 
L 315.13589 238.837478 
L 315.946871 237.401779 
L 316.757852 237.646784 
L 317.568833 237.473716 
L 318.379814 239.05732 
L 319.190795 237.505615 
L 320.001776 237.103551 
L 320.812757 237.11735 
L 321.623738 237.667808 
L 322.434719 239.212991 
L 323.2457 239.1241 
L 324.056681 238.258047 
L 324.867662 239.096338 
L 325.678644 237.561354 
L 326.489625 238.048685 
L 327.300606 239.738123 
L 328.111587 239.990851 
L 328.922568 239.29258 
L 329.733549 237.890215 
L 330.54453 240.587764 
L 331.355511 239.899565 
L 332.166492 240.343848 
L 332.977473 239.413603 
L 333.788454 240.637443 
L 334.599435 238.682619 
L 335.410416 239.971239 
L 336.221397 239.101919 
L 337.032378 239.566577 
L 337.843359 238.644577 
L 338.65434 238.77601 
L 339.465321 239.336563 
L 340.276302 239.67318 
L 341.087283 240.828271 
L 341.898264 240.178138 
L 342.709245 240.387871 
L 343.520226 241.093957 
L 344.331207 239.471134 
L 345.142188 239.972334 
L 345.953169 240.051451 
L 346.76415 240.949797 
L 347.575131 240.319021 
L 348.386112 240.273068 
L 349.197093 238.857579 
L 350.008074 239.942349 
L 350.819055 238.471707 
L 351.630036 240.134414 
L 352.441017 239.900555 
L 353.251998 239.140574 
L 354.062979 238.190192 
L 354.87396 240.596255 
L 355.684941 240.49351 
L 356.495922 239.798308 
L 357.306904 240.542522 
L 358.117885 239.40243 
L 358.928866 240.428846 
L 359.739847 239.870614 
L 360.550828 240.640519 
L 361.361809 240.512036 
L 362.983771 241.005928 
L 363.794752 240.576762 
L 364.605733 240.467098 
L 365.416714 240.503105 
L 366.227695 239.694929 
L 367.038676 241.353443 
L 368.660638 240.702638 
L 370.2826 241.417292 
L 371.093581 240.981602 
L 371.904562 241.028328 
L 372.715543 241.574159 
L 373.526524 241.231377 
L 374.337505 241.315066 
L 375.148486 240.499547 
L 376.770448 241.692441 
L 377.581429 240.880487 
L 378.39241 241.328699 
L 379.203391 241.323887 
L 380.014372 241.783689 
L 380.825353 240.524311 
L 381.636334 241.671705 
L 383.258296 241.407638 
L 384.069277 240.706967 
L 384.880258 241.072898 
L 385.691239 241.058575 
L 386.50222 241.432262 
L 387.313201 240.71011 
L 388.124182 241.624175 
L 388.935164 240.531673 
L 389.746145 241.339665 
L 390.557126 240.712077 
L 391.368107 241.188375 
L 392.179088 241.316828 
L 392.990069 240.871601 
L 393.80105 241.693435 
L 394.612031 241.240069 
L 395.423012 240.957101 
L 397.044974 241.691794 
L 397.855955 241.209188 
L 398.666936 241.575309 
L 399.477917 241.086394 
L 400.288898 241.472613 
L 401.91086 241.041099 
L 402.721841 241.378091 
L 403.532822 241.32208 
L 405.154784 240.59133 
L 405.965765 240.359996 
L 406.776746 241.268712 
L 407.587727 241.100179 
L 408.398708 241.569892 
L 410.02067 241.730248 
L 410.831651 241.37842 
L 412.453613 241.760869 
L 414.075575 241.882016 
L 414.886556 241.434455 
L 415.697537 241.235736 
L 416.508518 241.407767 
L 417.319499 241.77003 
L 418.13048 241.447247 
L 418.941461 241.526234 
L 419.752442 241.965106 
L 420.563423 241.839092 
L 421.374405 241.889191 
L 424.618329 241.60593 
L 425.42931 241.906524 
L 426.240291 241.20036 
L 427.051272 241.416441 
L 427.862253 241.976966 
L 428.673234 241.513261 
L 429.484215 241.541243 
L 430.295196 241.29724 
L 431.106177 241.418869 
L 431.917158 241.214732 
L 432.728139 241.763498 
L 433 241.651035 
M 433 242.116364 
L -1 242.116364 
L -1 242.116364 
" clip-path="url(#p8535fdfcea)" style="fill: none; stroke: #da8bc3; stroke-opacity: 0.3; stroke-width: 1.5; stroke-linecap: round"/>
   </g>
   <g id="patch_3">
    <path d="M 54 252 
L 54 34.56 
" style="fill: none; stroke: #262626; stroke-width: 1.25; stroke-linejoin: miter; stroke-linecap: square"/>
   </g>
   <g id="patch_4">
    <path d="M 388.8 252 
L 388.8 34.56 
" style="fill: none; stroke: #262626; stroke-width: 1.25; stroke-linejoin: miter; stroke-linecap: square"/>
   </g>
   <g id="patch_5">
    <path d="M 54 252 
L 388.8 252 
" style="fill: none; stroke: #262626; stroke-width: 1.25; stroke-linejoin: miter; stroke-linecap: square"/>
   </g>
   <g id="patch_6">
    <path d="M 54 34.56 
L 388.8 34.56 
" style="fill: none; stroke: #262626; stroke-width: 1.25; stroke-linejoin: miter; stroke-linecap: square"/>
   </g>
   <g id="text_14">
    <!-- patient06_app02 - Power spectrum -->
    <g style="fill: #262626" transform="translate(128.0175 28.56)scale(0.12 -0.12)">
     <defs>
      <path id="ArialMT-70" d="M 422 -1272 
L 422 3319 
L 934 3319 
L 934 2888 
Q 1116 3141 1344 3267 
Q 1572 3394 1897 3394 
Q 2322 3394 2647 3175 
Q 2972 2956 3137 2557 
Q 3303 2159 3303 1684 
Q 3303 1175 3120 767 
Q 2938 359 2589 142 
Q 2241 -75 1856 -75 
Q 1575 -75 1351 44 
Q 1128 163 984 344 
L 984 -1272 
L 422 -1272 
z
M 931 1641 
Q 931 1000 1190 694 
Q 1450 388 1819 388 
Q 2194 388 2461 705 
Q 2728 1022 2728 1688 
Q 2728 2322 2467 2637 
Q 2206 2953 1844 2953 
Q 1484 2953 1207 2617 
Q 931 2281 931 1641 
z
" transform="scale(0.015625)"/>
      <path id="ArialMT-61" d="M 2588 409 
Q 2275 144 1986 34 
Q 1697 -75 1366 -75 
Q 819 -75 525 192 
Q 231 459 231 875 
Q 231 1119 342 1320 
Q 453 1522 633 1644 
Q 813 1766 1038 1828 
Q 1203 1872 1538 1913 
Q 2219 1994 2541 2106 
Q 2544 2222 2544 2253 
Q 2544 2597 2384 2738 
Q 2169 2928 1744 2928 
Q 1347 2928 1158 2789 
Q 969 2650 878 2297 
L 328 2372 
Q 403 2725 575 2942 
Q 747 3159 1072 3276 
Q 1397 3394 1825 3394 
Q 2250 3394 2515 3294 
Q 2781 3194 2906 3042 
Q 3031 2891 3081 2659 
Q 3109 2516 3109 2141 
L 3109 1391 
Q 3109 606 3145 398 
Q 3181 191 3288 0 
L 2700 0 
Q 2613 175 2588 409 
z
M 2541 1666 
Q 2234 1541 1622 1453 
Q 1275 1403 1131 1340 
Q 988 1278 909 1158 
Q 831 1038 831 891 
Q 831 666 1001 516 
Q 1172 366 1500 366 
Q 1825 366 2078 508 
Q 2331 650 2450 897 
Q 2541 1088 2541 1459 
L 2541 1666 
z
" transform="scale(0.015625)"/>
      <path id="ArialMT-74" d="M 1650 503 
L 1731 6 
Q 1494 -44 1306 -44 
Q 1000 -44 831 53 
Q 663 150 594 308 
Q 525 466 525 972 
L 525 2881 
L 113 2881 
L 113 3319 
L 525 3319 
L 525 4141 
L 1084 4478 
L 1084 3319 
L 1650 3319 
L 1650 2881 
L 1084 2881 
L 1084 941 
Q 1084 700 1114 631 
Q 1144 563 1211 522 
Q 1278 481 1403 481 
Q 1497 481 1650 503 
z
" transform="scale(0.015625)"/>
      <path id="ArialMT-69" d="M 425 3934 
L 425 4581 
L 988 4581 
L 988 3934 
L 425 3934 
z
M 425 0 
L 425 3319 
L 988 3319 
L 988 0 
L 425 0 
z
" transform="scale(0.015625)"/>
      <path id="ArialMT-36" d="M 3184 3459 
L 2625 3416 
Q 2550 3747 2413 3897 
Q 2184 4138 1850 4138 
Q 1581 4138 1378 3988 
Q 1113 3794 959 3422 
Q 806 3050 800 2363 
Q 1003 2672 1297 2822 
Q 1591 2972 1913 2972 
Q 2475 2972 2870 2558 
Q 3266 2144 3266 1488 
Q 3266 1056 3080 686 
Q 2894 316 2569 119 
Q 2244 -78 1831 -78 
Q 1128 -78 684 439 
Q 241 956 241 2144 
Q 241 3472 731 4075 
Q 1159 4600 1884 4600 
Q 2425 4600 2770 4297 
Q 3116 3994 3184 3459 
z
M 888 1484 
Q 888 1194 1011 928 
Q 1134 663 1356 523 
Q 1578 384 1822 384 
Q 2178 384 2434 671 
Q 2691 959 2691 1453 
Q 2691 1928 2437 2201 
Q 2184 2475 1800 2475 
Q 1419 2475 1153 2201 
Q 888 1928 888 1484 
z
" transform="scale(0.015625)"/>
      <path id="ArialMT-5f" d="M -97 -1272 
L -97 -866 
L 3631 -866 
L 3631 -1272 
L -97 -1272 
z
" transform="scale(0.015625)"/>
      <path id="ArialMT-2d" d="M 203 1375 
L 203 1941 
L 1931 1941 
L 1931 1375 
L 203 1375 
z
" transform="scale(0.015625)"/>
      <path id="ArialMT-50" d="M 494 0 
L 494 4581 
L 2222 4581 
Q 2678 4581 2919 4538 
Q 3256 4481 3484 4323 
Q 3713 4166 3852 3881 
Q 3991 3597 3991 3256 
Q 3991 2672 3619 2267 
Q 3247 1863 2275 1863 
L 1100 1863 
L 1100 0 
L 494 0 
z
M 1100 2403 
L 2284 2403 
Q 2872 2403 3119 2622 
Q 3366 2841 3366 3238 
Q 3366 3525 3220 3729 
Q 3075 3934 2838 4000 
Q 2684 4041 2272 4041 
L 1100 4041 
L 1100 2403 
z
" transform="scale(0.015625)"/>
      <path id="ArialMT-6f" d="M 213 1659 
Q 213 2581 725 3025 
Q 1153 3394 1769 3394 
Q 2453 3394 2887 2945 
Q 3322 2497 3322 1706 
Q 3322 1066 3130 698 
Q 2938 331 2570 128 
Q 2203 -75 1769 -75 
Q 1072 -75 642 372 
Q 213 819 213 1659 
z
M 791 1659 
Q 791 1022 1069 705 
Q 1347 388 1769 388 
Q 2188 388 2466 706 
Q 2744 1025 2744 1678 
Q 2744 2294 2464 2611 
Q 2184 2928 1769 2928 
Q 1347 2928 1069 2612 
Q 791 2297 791 1659 
z
" transform="scale(0.015625)"/>
      <path id="ArialMT-77" d="M 1034 0 
L 19 3319 
L 600 3319 
L 1128 1403 
L 1325 691 
Q 1338 744 1497 1375 
L 2025 3319 
L 2603 3319 
L 3100 1394 
L 3266 759 
L 3456 1400 
L 4025 3319 
L 4572 3319 
L 3534 0 
L 2950 0 
L 2422 1988 
L 2294 2553 
L 1622 0 
L 1034 0 
z
" transform="scale(0.015625)"/>
      <path id="ArialMT-73" d="M 197 991 
L 753 1078 
Q 800 744 1014 566 
Q 1228 388 1613 388 
Q 2000 388 2187 545 
Q 2375 703 2375 916 
Q 2375 1106 2209 1216 
Q 2094 1291 1634 1406 
Q 1016 1563 777 1677 
Q 538 1791 414 1992 
Q 291 2194 291 2438 
Q 291 2659 392 2848 
Q 494 3038 669 3163 
Q 800 3259 1026 3326 
Q 1253 3394 1513 3394 
Q 1903 3394 2198 3281 
Q 2494 3169 2634 2976 
Q 2775 2784 2828 2463 
L 2278 2388 
Q 2241 2644 2061 2787 
Q 1881 2931 1553 2931 
Q 1166 2931 1000 2803 
Q 834 2675 834 2503 
Q 834 2394 903 2306 
Q 972 2216 1119 2156 
Q 1203 2125 1616 2013 
Q 2213 1853 2448 1751 
Q 2684 1650 2818 1456 
Q 2953 1263 2953 975 
Q 2953 694 2789 445 
Q 2625 197 2315 61 
Q 2006 -75 1616 -75 
Q 969 -75 630 194 
Q 291 463 197 991 
z
" transform="scale(0.015625)"/>
      <path id="ArialMT-6d" d="M 422 0 
L 422 3319 
L 925 3319 
L 925 2853 
Q 1081 3097 1340 3245 
Q 1600 3394 1931 3394 
Q 2300 3394 2536 3241 
Q 2772 3088 2869 2813 
Q 3263 3394 3894 3394 
Q 4388 3394 4653 3120 
Q 4919 2847 4919 2278 
L 4919 0 
L 4359 0 
L 4359 2091 
Q 4359 2428 4304 2576 
Q 4250 2725 4106 2815 
Q 3963 2906 3769 2906 
Q 3419 2906 3187 2673 
Q 2956 2441 2956 1928 
L 2956 0 
L 2394 0 
L 2394 2156 
Q 2394 2531 2256 2718 
Q 2119 2906 1806 2906 
Q 1569 2906 1367 2781 
Q 1166 2656 1075 2415 
Q 984 2175 984 1722 
L 984 0 
L 422 0 
z
" transform="scale(0.015625)"/>
     </defs>
     <use xlink:href="#ArialMT-70"/>
     <use xlink:href="#ArialMT-61" x="55.615234"/>
     <use xlink:href="#ArialMT-74" x="111.230469"/>
     <use xlink:href="#ArialMT-69" x="139.013672"/>
     <use xlink:href="#ArialMT-65" x="161.230469"/>
     <use xlink:href="#ArialMT-6e" x="216.845703"/>
     <use xlink:href="#ArialMT-74" x="272.460938"/>
     <use xlink:href="#ArialMT-30" x="300.244141"/>
     <use xlink:href="#ArialMT-36" x="355.859375"/>
     <use xlink:href="#ArialMT-5f" x="411.474609"/>
     <use xlink:href="#ArialMT-61" x="467.089844"/>
     <use xlink:href="#ArialMT-70" x="522.705078"/>
     <use xlink:href="#ArialMT-70" x="578.320312"/>
     <use xlink:href="#ArialMT-30" x="633.935547"/>
     <use xlink:href="#ArialMT-32" x="689.550781"/>
     <use xlink:href="#ArialMT-20" x="745.166016"/>
     <use xlink:href="#ArialMT-2d" x="772.949219"/>
     <use xlink:href="#ArialMT-20" x="806.25"/>
     <use xlink:href="#ArialMT-50" x="834.033203"/>
     <use xlink:href="#ArialMT-6f" x="900.732422"/>
     <use xlink:href="#ArialMT-77" x="956.347656"/>
     <use xlink:href="#ArialMT-65" x="1028.564453"/>
     <use xlink:href="#ArialMT-72" x="1084.179688"/>
     <use xlink:href="#ArialMT-20" x="1117.480469"/>
     <use xlink:href="#ArialMT-73" x="1145.263672"/>
     <use xlink:href="#ArialMT-70" x="1195.263672"/>
     <use xlink:href="#ArialMT-65" x="1250.878906"/>
     <use xlink:href="#ArialMT-63" x="1306.494141"/>
     <use xlink:href="#ArialMT-74" x="1356.494141"/>
     <use xlink:href="#ArialMT-72" x="1384.277344"/>
     <use xlink:href="#ArialMT-75" x="1417.578125"/>
     <use xlink:href="#ArialMT-6d" x="1473.193359"/>
    </g>
   </g>
   <g id="legend_1">
    <g id="patch_7">
     <path d="M 61.7 152.278906 
L 129.296719 152.278906 
Q 131.496719 152.278906 131.496719 150.078906 
L 131.496719 42.26 
Q 131.496719 40.06 129.296719 40.06 
L 61.7 40.06 
Q 59.5 40.06 59.5 42.26 
L 59.5 150.078906 
Q 59.5 152.278906 61.7 152.278906 
z
" style="fill: #ffffff; opacity: 0.8; stroke: #cccccc; stroke-linejoin: miter"/>
    </g>
    <g id="line2d_20">
     <path d="M 63.9 48.483594 
L 74.9 48.483594 
L 85.9 48.483594 
" style="fill: none; stroke: #4c72b0; stroke-opacity: 0.3; stroke-width: 1.5; stroke-linecap: round"/>
    </g>
    <g id="text_15">
     <!-- IMU9 -->
     <g style="fill: #262626" transform="translate(94.7 52.333594)scale(0.11 -0.11)">
      <defs>
       <path id="ArialMT-49" d="M 597 0 
L 597 4581 
L 1203 4581 
L 1203 0 
L 597 0 
z
" transform="scale(0.015625)"/>
       <path id="ArialMT-4d" d="M 475 0 
L 475 4581 
L 1388 4581 
L 2472 1338 
Q 2622 884 2691 659 
Q 2769 909 2934 1394 
L 4031 4581 
L 4847 4581 
L 4847 0 
L 4263 0 
L 4263 3834 
L 2931 0 
L 2384 0 
L 1059 3900 
L 1059 0 
L 475 0 
z
" transform="scale(0.015625)"/>
       <path id="ArialMT-55" d="M 3500 4581 
L 4106 4581 
L 4106 1934 
Q 4106 1244 3950 837 
Q 3794 431 3386 176 
Q 2978 -78 2316 -78 
Q 1672 -78 1262 144 
Q 853 366 678 786 
Q 503 1206 503 1934 
L 503 4581 
L 1109 4581 
L 1109 1938 
Q 1109 1341 1220 1058 
Q 1331 775 1601 622 
Q 1872 469 2263 469 
Q 2931 469 3215 772 
Q 3500 1075 3500 1938 
L 3500 4581 
z
" transform="scale(0.015625)"/>
       <path id="ArialMT-39" d="M 350 1059 
L 891 1109 
Q 959 728 1153 556 
Q 1347 384 1650 384 
Q 1909 384 2104 503 
Q 2300 622 2425 820 
Q 2550 1019 2634 1356 
Q 2719 1694 2719 2044 
Q 2719 2081 2716 2156 
Q 2547 1888 2255 1720 
Q 1963 1553 1622 1553 
Q 1053 1553 659 1965 
Q 266 2378 266 3053 
Q 266 3750 677 4175 
Q 1088 4600 1706 4600 
Q 2153 4600 2523 4359 
Q 2894 4119 3086 3673 
Q 3278 3228 3278 2384 
Q 3278 1506 3087 986 
Q 2897 466 2520 194 
Q 2144 -78 1638 -78 
Q 1100 -78 759 220 
Q 419 519 350 1059 
z
M 2653 3081 
Q 2653 3566 2395 3850 
Q 2138 4134 1775 4134 
Q 1400 4134 1122 3828 
Q 844 3522 844 3034 
Q 844 2597 1108 2323 
Q 1372 2050 1759 2050 
Q 2150 2050 2401 2323 
Q 2653 2597 2653 3081 
z
" transform="scale(0.015625)"/>
      </defs>
      <use xlink:href="#ArialMT-49"/>
      <use xlink:href="#ArialMT-4d" x="27.783203"/>
      <use xlink:href="#ArialMT-55" x="111.083984"/>
      <use xlink:href="#ArialMT-39" x="183.300781"/>
     </g>
    </g>
    <g id="line2d_21">
     <path d="M 63.9 64.043438 
L 74.9 64.043438 
L 85.9 64.043438 
" style="fill: none; stroke: #dd8452; stroke-opacity: 0.3; stroke-width: 1.5; stroke-linecap: round"/>
    </g>
    <g id="text_16">
     <!-- IMU10 -->
     <g style="fill: #262626" transform="translate(94.7 67.893438)scale(0.11 -0.11)">
      <use xlink:href="#ArialMT-49"/>
      <use xlink:href="#ArialMT-4d" x="27.783203"/>
      <use xlink:href="#ArialMT-55" x="111.083984"/>
      <use xlink:href="#ArialMT-31" x="183.300781"/>
      <use xlink:href="#ArialMT-30" x="238.916016"/>
     </g>
    </g>
    <g id="line2d_22">
     <path d="M 63.9 79.603281 
L 74.9 79.603281 
L 85.9 79.603281 
" style="fill: none; stroke: #55a868; stroke-opacity: 0.3; stroke-width: 1.5; stroke-linecap: round"/>
    </g>
    <g id="text_17">
     <!-- IMU11 -->
     <g style="fill: #262626" transform="translate(94.7 83.453281)scale(0.11 -0.11)">
      <use xlink:href="#ArialMT-49"/>
      <use xlink:href="#ArialMT-4d" x="27.783203"/>
      <use xlink:href="#ArialMT-55" x="111.083984"/>
      <use xlink:href="#ArialMT-31" x="183.300781"/>
      <use xlink:href="#ArialMT-31" x="231.541016"/>
     </g>
    </g>
    <g id="line2d_23">
     <path d="M 63.9 95.163125 
L 74.9 95.163125 
L 85.9 95.163125 
" style="fill: none; stroke: #c44e52; stroke-opacity: 0.3; stroke-width: 1.5; stroke-linecap: round"/>
    </g>
    <g id="text_18">
     <!-- IMU12 -->
     <g style="fill: #262626" transform="translate(94.7 99.013125)scale(0.11 -0.11)">
      <use xlink:href="#ArialMT-49"/>
      <use xlink:href="#ArialMT-4d" x="27.783203"/>
      <use xlink:href="#ArialMT-55" x="111.083984"/>
      <use xlink:href="#ArialMT-31" x="183.300781"/>
      <use xlink:href="#ArialMT-32" x="238.916016"/>
     </g>
    </g>
    <g id="line2d_24">
     <path d="M 63.9 110.722969 
L 74.9 110.722969 
L 85.9 110.722969 
" style="fill: none; stroke: #8172b3; stroke-opacity: 0.3; stroke-width: 1.5; stroke-linecap: round"/>
    </g>
    <g id="text_19">
     <!-- IMU13 -->
     <g style="fill: #262626" transform="translate(94.7 114.572969)scale(0.11 -0.11)">
      <defs>
       <path id="ArialMT-33" d="M 269 1209 
L 831 1284 
Q 928 806 1161 595 
Q 1394 384 1728 384 
Q 2125 384 2398 659 
Q 2672 934 2672 1341 
Q 2672 1728 2419 1979 
Q 2166 2231 1775 2231 
Q 1616 2231 1378 2169 
L 1441 2663 
Q 1497 2656 1531 2656 
Q 1891 2656 2178 2843 
Q 2466 3031 2466 3422 
Q 2466 3731 2256 3934 
Q 2047 4138 1716 4138 
Q 1388 4138 1169 3931 
Q 950 3725 888 3313 
L 325 3413 
Q 428 3978 793 4289 
Q 1159 4600 1703 4600 
Q 2078 4600 2393 4439 
Q 2709 4278 2876 4000 
Q 3044 3722 3044 3409 
Q 3044 3113 2884 2869 
Q 2725 2625 2413 2481 
Q 2819 2388 3044 2092 
Q 3269 1797 3269 1353 
Q 3269 753 2831 336 
Q 2394 -81 1725 -81 
Q 1122 -81 723 278 
Q 325 638 269 1209 
z
" transform="scale(0.015625)"/>
      </defs>
      <use xlink:href="#ArialMT-49"/>
      <use xlink:href="#ArialMT-4d" x="27.783203"/>
      <use xlink:href="#ArialMT-55" x="111.083984"/>
      <use xlink:href="#ArialMT-31" x="183.300781"/>
      <use xlink:href="#ArialMT-33" x="238.916016"/>
     </g>
    </g>
    <g id="line2d_25">
     <path d="M 63.9 126.282813 
L 74.9 126.282813 
L 85.9 126.282813 
" style="fill: none; stroke: #937860; stroke-opacity: 0.3; stroke-width: 1.5; stroke-linecap: round"/>
    </g>
    <g id="text_20">
     <!-- IMU14 -->
     <g style="fill: #262626" transform="translate(94.7 130.132812)scale(0.11 -0.11)">
      <defs>
       <path id="ArialMT-34" d="M 2069 0 
L 2069 1097 
L 81 1097 
L 81 1613 
L 2172 4581 
L 2631 4581 
L 2631 1613 
L 3250 1613 
L 3250 1097 
L 2631 1097 
L 2631 0 
L 2069 0 
z
M 2069 1613 
L 2069 3678 
L 634 1613 
L 2069 1613 
z
" transform="scale(0.015625)"/>
      </defs>
      <use xlink:href="#ArialMT-49"/>
      <use xlink:href="#ArialMT-4d" x="27.783203"/>
      <use xlink:href="#ArialMT-55" x="111.083984"/>
      <use xlink:href="#ArialMT-31" x="183.300781"/>
      <use xlink:href="#ArialMT-34" x="238.916016"/>
     </g>
    </g>
    <g id="line2d_26">
     <path d="M 63.9 141.842656 
L 74.9 141.842656 
L 85.9 141.842656 
" style="fill: none; stroke: #da8bc3; stroke-opacity: 0.3; stroke-width: 1.5; stroke-linecap: round"/>
    </g>
    <g id="text_21">
     <!-- IMU15 -->
     <g style="fill: #262626" transform="translate(94.7 145.692656)scale(0.11 -0.11)">
      <use xlink:href="#ArialMT-49"/>
      <use xlink:href="#ArialMT-4d" x="27.783203"/>
      <use xlink:href="#ArialMT-55" x="111.083984"/>
      <use xlink:href="#ArialMT-31" x="183.300781"/>
      <use xlink:href="#ArialMT-35" x="238.916016"/>
     </g>
    </g>
   </g>
  </g>
 </g>
 <defs>
  <clipPath id="p8535fdfcea">
   <rect x="54" y="34.56" width="334.8" height="217.44"/>
  </clipPath>
 </defs>
</svg>
