<?xml version="1.0" encoding="utf-8" standalone="no"?>
<!DOCTYPE svg PUBLIC "-//W3C//DTD SVG 1.1//EN"
  "http://www.w3.org/Graphics/SVG/1.1/DTD/svg11.dtd">
<svg xmlns:xlink="http://www.w3.org/1999/xlink" width="432pt" height="288pt" viewBox="0 0 432 288" xmlns="http://www.w3.org/2000/svg" version="1.1">
 <metadata>
  <rdf:RDF xmlns:dc="http://purl.org/dc/elements/1.1/" xmlns:cc="http://creativecommons.org/ns#" xmlns:rdf="http://www.w3.org/1999/02/22-rdf-syntax-ns#">
   <cc:Work>
    <dc:type rdf:resource="http://purl.org/dc/dcmitype/StillImage"/>
    <dc:date>2022-07-08T13:58:14.298381</dc:date>
    <dc:format>image/svg+xml</dc:format>
    <dc:creator>
     <cc:Agent>
      <dc:title>Matplotlib v3.5.1, https://matplotlib.org/</dc:title>
     </cc:Agent>
    </dc:creator>
   </cc:Work>
  </rdf:RDF>
 </metadata>
 <defs>
  <style type="text/css">*{stroke-linejoin: round; stroke-linecap: butt}</style>
 </defs>
 <g id="figure_1">
  <g id="patch_1">
   <path d="M 0 288 
L 432 288 
L 432 0 
L 0 0 
z
" style="fill: #ffffff"/>
  </g>
  <g id="axes_1">
   <g id="patch_2">
    <path d="M 54 252 
L 388.8 252 
L 388.8 34.56 
L 54 34.56 
z
" style="fill: #ffffff"/>
   </g>
   <g id="matplotlib.axis_1">
    <g id="xtick_1">
     <g id="line2d_1">
      <defs>
       <path id="mc6736ac04b" d="M 0 0 
L 0 6 
" style="stroke: #262626; stroke-width: 1.25"/>
      </defs>
      <g>
       <use xlink:href="#mc6736ac04b" x="54" y="252" style="fill: #262626; stroke: #262626; stroke-width: 1.25"/>
      </g>
     </g>
     <g id="text_1">
      <!-- 0 -->
      <g style="fill: #262626" transform="translate(50.941484 269.373594)scale(0.11 -0.11)">
       <defs>
        <path id="ArialMT-30" d="M 266 2259 
Q 266 3072 433 3567 
Q 600 4063 929 4331 
Q 1259 4600 1759 4600 
Q 2128 4600 2406 4451 
Q 2684 4303 2865 4023 
Q 3047 3744 3150 3342 
Q 3253 2941 3253 2259 
Q 3253 1453 3087 958 
Q 2922 463 2592 192 
Q 2263 -78 1759 -78 
Q 1097 -78 719 397 
Q 266 969 266 2259 
z
M 844 2259 
Q 844 1131 1108 757 
Q 1372 384 1759 384 
Q 2147 384 2411 759 
Q 2675 1134 2675 2259 
Q 2675 3391 2411 3762 
Q 2147 4134 1753 4134 
Q 1366 4134 1134 3806 
Q 844 3388 844 2259 
z
" transform="scale(0.015625)"/>
       </defs>
       <use xlink:href="#ArialMT-30"/>
      </g>
     </g>
    </g>
    <g id="xtick_2">
     <g id="line2d_2">
      <g>
       <use xlink:href="#mc6736ac04b" x="120.96" y="252" style="fill: #262626; stroke: #262626; stroke-width: 1.25"/>
      </g>
     </g>
     <g id="text_2">
      <!-- 5 -->
      <g style="fill: #262626" transform="translate(117.901484 269.373594)scale(0.11 -0.11)">
       <defs>
        <path id="ArialMT-35" d="M 266 1200 
L 856 1250 
Q 922 819 1161 601 
Q 1400 384 1738 384 
Q 2144 384 2425 690 
Q 2706 997 2706 1503 
Q 2706 1984 2436 2262 
Q 2166 2541 1728 2541 
Q 1456 2541 1237 2417 
Q 1019 2294 894 2097 
L 366 2166 
L 809 4519 
L 3088 4519 
L 3088 3981 
L 1259 3981 
L 1013 2750 
Q 1425 3038 1878 3038 
Q 2478 3038 2890 2622 
Q 3303 2206 3303 1553 
Q 3303 931 2941 478 
Q 2500 -78 1738 -78 
Q 1113 -78 717 272 
Q 322 622 266 1200 
z
" transform="scale(0.015625)"/>
       </defs>
       <use xlink:href="#ArialMT-35"/>
      </g>
     </g>
    </g>
    <g id="xtick_3">
     <g id="line2d_3">
      <g>
       <use xlink:href="#mc6736ac04b" x="187.92" y="252" style="fill: #262626; stroke: #262626; stroke-width: 1.25"/>
      </g>
     </g>
     <g id="text_3">
      <!-- 10 -->
      <g style="fill: #262626" transform="translate(181.802969 269.373594)scale(0.11 -0.11)">
       <defs>
        <path id="ArialMT-31" d="M 2384 0 
L 1822 0 
L 1822 3584 
Q 1619 3391 1289 3197 
Q 959 3003 697 2906 
L 697 3450 
Q 1169 3672 1522 3987 
Q 1875 4303 2022 4600 
L 2384 4600 
L 2384 0 
z
" transform="scale(0.015625)"/>
       </defs>
       <use xlink:href="#ArialMT-31"/>
       <use xlink:href="#ArialMT-30" x="55.615234"/>
      </g>
     </g>
    </g>
    <g id="xtick_4">
     <g id="line2d_4">
      <g>
       <use xlink:href="#mc6736ac04b" x="254.88" y="252" style="fill: #262626; stroke: #262626; stroke-width: 1.25"/>
      </g>
     </g>
     <g id="text_4">
      <!-- 15 -->
      <g style="fill: #262626" transform="translate(248.762969 269.373594)scale(0.11 -0.11)">
       <use xlink:href="#ArialMT-31"/>
       <use xlink:href="#ArialMT-35" x="55.615234"/>
      </g>
     </g>
    </g>
    <g id="xtick_5">
     <g id="line2d_5">
      <g>
       <use xlink:href="#mc6736ac04b" x="321.84" y="252" style="fill: #262626; stroke: #262626; stroke-width: 1.25"/>
      </g>
     </g>
     <g id="text_5">
      <!-- 20 -->
      <g style="fill: #262626" transform="translate(315.722969 269.373594)scale(0.11 -0.11)">
       <defs>
        <path id="ArialMT-32" d="M 3222 541 
L 3222 0 
L 194 0 
Q 188 203 259 391 
Q 375 700 629 1000 
Q 884 1300 1366 1694 
Q 2113 2306 2375 2664 
Q 2638 3022 2638 3341 
Q 2638 3675 2398 3904 
Q 2159 4134 1775 4134 
Q 1369 4134 1125 3890 
Q 881 3647 878 3216 
L 300 3275 
Q 359 3922 746 4261 
Q 1134 4600 1788 4600 
Q 2447 4600 2831 4234 
Q 3216 3869 3216 3328 
Q 3216 3053 3103 2787 
Q 2991 2522 2730 2228 
Q 2469 1934 1863 1422 
Q 1356 997 1212 845 
Q 1069 694 975 541 
L 3222 541 
z
" transform="scale(0.015625)"/>
       </defs>
       <use xlink:href="#ArialMT-32"/>
       <use xlink:href="#ArialMT-30" x="55.615234"/>
      </g>
     </g>
    </g>
    <g id="xtick_6">
     <g id="line2d_6">
      <g>
       <use xlink:href="#mc6736ac04b" x="388.8" y="252" style="fill: #262626; stroke: #262626; stroke-width: 1.25"/>
      </g>
     </g>
     <g id="text_6">
      <!-- 25 -->
      <g style="fill: #262626" transform="translate(382.682969 269.373594)scale(0.11 -0.11)">
       <use xlink:href="#ArialMT-32"/>
       <use xlink:href="#ArialMT-35" x="55.615234"/>
      </g>
     </g>
    </g>
    <g id="text_7">
     <!-- Frequency (Hz) -->
     <g style="fill: #262626" transform="translate(180.059063 284.295469)scale(0.12 -0.12)">
      <defs>
       <path id="ArialMT-46" d="M 525 0 
L 525 4581 
L 3616 4581 
L 3616 4041 
L 1131 4041 
L 1131 2622 
L 3281 2622 
L 3281 2081 
L 1131 2081 
L 1131 0 
L 525 0 
z
" transform="scale(0.015625)"/>
       <path id="ArialMT-72" d="M 416 0 
L 416 3319 
L 922 3319 
L 922 2816 
Q 1116 3169 1280 3281 
Q 1444 3394 1641 3394 
Q 1925 3394 2219 3213 
L 2025 2691 
Q 1819 2813 1613 2813 
Q 1428 2813 1281 2702 
Q 1134 2591 1072 2394 
Q 978 2094 978 1738 
L 978 0 
L 416 0 
z
" transform="scale(0.015625)"/>
       <path id="ArialMT-65" d="M 2694 1069 
L 3275 997 
Q 3138 488 2766 206 
Q 2394 -75 1816 -75 
Q 1088 -75 661 373 
Q 234 822 234 1631 
Q 234 2469 665 2931 
Q 1097 3394 1784 3394 
Q 2450 3394 2872 2941 
Q 3294 2488 3294 1666 
Q 3294 1616 3291 1516 
L 816 1516 
Q 847 969 1125 678 
Q 1403 388 1819 388 
Q 2128 388 2347 550 
Q 2566 713 2694 1069 
z
M 847 1978 
L 2700 1978 
Q 2663 2397 2488 2606 
Q 2219 2931 1791 2931 
Q 1403 2931 1139 2672 
Q 875 2413 847 1978 
z
" transform="scale(0.015625)"/>
       <path id="ArialMT-71" d="M 2538 -1272 
L 2538 353 
Q 2406 169 2170 47 
Q 1934 -75 1669 -75 
Q 1078 -75 651 397 
Q 225 869 225 1691 
Q 225 2191 398 2587 
Q 572 2984 901 3189 
Q 1231 3394 1625 3394 
Q 2241 3394 2594 2875 
L 2594 3319 
L 3100 3319 
L 3100 -1272 
L 2538 -1272 
z
M 803 1669 
Q 803 1028 1072 708 
Q 1341 388 1716 388 
Q 2075 388 2334 692 
Q 2594 997 2594 1619 
Q 2594 2281 2320 2615 
Q 2047 2950 1678 2950 
Q 1313 2950 1058 2639 
Q 803 2328 803 1669 
z
" transform="scale(0.015625)"/>
       <path id="ArialMT-75" d="M 2597 0 
L 2597 488 
Q 2209 -75 1544 -75 
Q 1250 -75 995 37 
Q 741 150 617 320 
Q 494 491 444 738 
Q 409 903 409 1263 
L 409 3319 
L 972 3319 
L 972 1478 
Q 972 1038 1006 884 
Q 1059 663 1231 536 
Q 1403 409 1656 409 
Q 1909 409 2131 539 
Q 2353 669 2445 892 
Q 2538 1116 2538 1541 
L 2538 3319 
L 3100 3319 
L 3100 0 
L 2597 0 
z
" transform="scale(0.015625)"/>
       <path id="ArialMT-6e" d="M 422 0 
L 422 3319 
L 928 3319 
L 928 2847 
Q 1294 3394 1984 3394 
Q 2284 3394 2536 3286 
Q 2788 3178 2913 3003 
Q 3038 2828 3088 2588 
Q 3119 2431 3119 2041 
L 3119 0 
L 2556 0 
L 2556 2019 
Q 2556 2363 2490 2533 
Q 2425 2703 2258 2804 
Q 2091 2906 1866 2906 
Q 1506 2906 1245 2678 
Q 984 2450 984 1813 
L 984 0 
L 422 0 
z
" transform="scale(0.015625)"/>
       <path id="ArialMT-63" d="M 2588 1216 
L 3141 1144 
Q 3050 572 2676 248 
Q 2303 -75 1759 -75 
Q 1078 -75 664 370 
Q 250 816 250 1647 
Q 250 2184 428 2587 
Q 606 2991 970 3192 
Q 1334 3394 1763 3394 
Q 2303 3394 2647 3120 
Q 2991 2847 3088 2344 
L 2541 2259 
Q 2463 2594 2264 2762 
Q 2066 2931 1784 2931 
Q 1359 2931 1093 2626 
Q 828 2322 828 1663 
Q 828 994 1084 691 
Q 1341 388 1753 388 
Q 2084 388 2306 591 
Q 2528 794 2588 1216 
z
" transform="scale(0.015625)"/>
       <path id="ArialMT-79" d="M 397 -1278 
L 334 -750 
Q 519 -800 656 -800 
Q 844 -800 956 -737 
Q 1069 -675 1141 -563 
Q 1194 -478 1313 -144 
Q 1328 -97 1363 -6 
L 103 3319 
L 709 3319 
L 1400 1397 
Q 1534 1031 1641 628 
Q 1738 1016 1872 1384 
L 2581 3319 
L 3144 3319 
L 1881 -56 
Q 1678 -603 1566 -809 
Q 1416 -1088 1222 -1217 
Q 1028 -1347 759 -1347 
Q 597 -1347 397 -1278 
z
" transform="scale(0.015625)"/>
       <path id="ArialMT-20" transform="scale(0.015625)"/>
       <path id="ArialMT-28" d="M 1497 -1347 
Q 1031 -759 709 28 
Q 388 816 388 1659 
Q 388 2403 628 3084 
Q 909 3875 1497 4659 
L 1900 4659 
Q 1522 4009 1400 3731 
Q 1209 3300 1100 2831 
Q 966 2247 966 1656 
Q 966 153 1900 -1347 
L 1497 -1347 
z
" transform="scale(0.015625)"/>
       <path id="ArialMT-48" d="M 513 0 
L 513 4581 
L 1119 4581 
L 1119 2700 
L 3500 2700 
L 3500 4581 
L 4106 4581 
L 4106 0 
L 3500 0 
L 3500 2159 
L 1119 2159 
L 1119 0 
L 513 0 
z
" transform="scale(0.015625)"/>
       <path id="ArialMT-7a" d="M 125 0 
L 125 456 
L 2238 2881 
Q 1878 2863 1603 2863 
L 250 2863 
L 250 3319 
L 2963 3319 
L 2963 2947 
L 1166 841 
L 819 456 
Q 1197 484 1528 484 
L 3063 484 
L 3063 0 
L 125 0 
z
" transform="scale(0.015625)"/>
       <path id="ArialMT-29" d="M 791 -1347 
L 388 -1347 
Q 1322 153 1322 1656 
Q 1322 2244 1188 2822 
Q 1081 3291 891 3722 
Q 769 4003 388 4659 
L 791 4659 
Q 1378 3875 1659 3084 
Q 1900 2403 1900 1659 
Q 1900 816 1576 28 
Q 1253 -759 791 -1347 
z
" transform="scale(0.015625)"/>
      </defs>
      <use xlink:href="#ArialMT-46"/>
      <use xlink:href="#ArialMT-72" x="61.083984"/>
      <use xlink:href="#ArialMT-65" x="94.384766"/>
      <use xlink:href="#ArialMT-71" x="150"/>
      <use xlink:href="#ArialMT-75" x="205.615234"/>
      <use xlink:href="#ArialMT-65" x="261.230469"/>
      <use xlink:href="#ArialMT-6e" x="316.845703"/>
      <use xlink:href="#ArialMT-63" x="372.460938"/>
      <use xlink:href="#ArialMT-79" x="422.460938"/>
      <use xlink:href="#ArialMT-20" x="472.460938"/>
      <use xlink:href="#ArialMT-28" x="500.244141"/>
      <use xlink:href="#ArialMT-48" x="533.544922"/>
      <use xlink:href="#ArialMT-7a" x="605.761719"/>
      <use xlink:href="#ArialMT-29" x="655.761719"/>
     </g>
    </g>
   </g>
   <g id="matplotlib.axis_2">
    <g id="ytick_1">
     <g id="line2d_7">
      <defs>
       <path id="m4e1a47b3d1" d="M 0 0 
L -6 0 
" style="stroke: #262626; stroke-width: 1.25"/>
      </defs>
      <g>
       <use xlink:href="#m4e1a47b3d1" x="54" y="242.116364" style="fill: #262626; stroke: #262626; stroke-width: 1.25"/>
      </g>
     </g>
     <g id="text_8">
      <!-- 0 -->
      <g style="fill: #262626" transform="translate(38.382969 246.053161)scale(0.11 -0.11)">
       <use xlink:href="#ArialMT-30"/>
      </g>
     </g>
    </g>
    <g id="ytick_2">
     <g id="line2d_8">
      <g>
       <use xlink:href="#m4e1a47b3d1" x="54" y="210.723715" style="fill: #262626; stroke: #262626; stroke-width: 1.25"/>
      </g>
     </g>
     <g id="text_9">
      <!-- 1000 -->
      <g style="fill: #262626" transform="translate(20.031875 214.660512)scale(0.11 -0.11)">
       <use xlink:href="#ArialMT-31"/>
       <use xlink:href="#ArialMT-30" x="55.615234"/>
       <use xlink:href="#ArialMT-30" x="111.230469"/>
       <use xlink:href="#ArialMT-30" x="166.845703"/>
      </g>
     </g>
    </g>
    <g id="ytick_3">
     <g id="line2d_9">
      <g>
       <use xlink:href="#m4e1a47b3d1" x="54" y="179.331066" style="fill: #262626; stroke: #262626; stroke-width: 1.25"/>
      </g>
     </g>
     <g id="text_10">
      <!-- 2000 -->
      <g style="fill: #262626" transform="translate(20.031875 183.267863)scale(0.11 -0.11)">
       <use xlink:href="#ArialMT-32"/>
       <use xlink:href="#ArialMT-30" x="55.615234"/>
       <use xlink:href="#ArialMT-30" x="111.230469"/>
       <use xlink:href="#ArialMT-30" x="166.845703"/>
      </g>
     </g>
    </g>
    <g id="ytick_4">
     <g id="line2d_10">
      <g>
       <use xlink:href="#m4e1a47b3d1" x="54" y="147.938417" style="fill: #262626; stroke: #262626; stroke-width: 1.25"/>
      </g>
     </g>
     <g id="text_11">
      <!-- 3000 -->
      <g style="fill: #262626" transform="translate(20.031875 151.875214)scale(0.11 -0.11)">
       <defs>
        <path id="ArialMT-33" d="M 269 1209 
L 831 1284 
Q 928 806 1161 595 
Q 1394 384 1728 384 
Q 2125 384 2398 659 
Q 2672 934 2672 1341 
Q 2672 1728 2419 1979 
Q 2166 2231 1775 2231 
Q 1616 2231 1378 2169 
L 1441 2663 
Q 1497 2656 1531 2656 
Q 1891 2656 2178 2843 
Q 2466 3031 2466 3422 
Q 2466 3731 2256 3934 
Q 2047 4138 1716 4138 
Q 1388 4138 1169 3931 
Q 950 3725 888 3313 
L 325 3413 
Q 428 3978 793 4289 
Q 1159 4600 1703 4600 
Q 2078 4600 2393 4439 
Q 2709 4278 2876 4000 
Q 3044 3722 3044 3409 
Q 3044 3113 2884 2869 
Q 2725 2625 2413 2481 
Q 2819 2388 3044 2092 
Q 3269 1797 3269 1353 
Q 3269 753 2831 336 
Q 2394 -81 1725 -81 
Q 1122 -81 723 278 
Q 325 638 269 1209 
z
" transform="scale(0.015625)"/>
       </defs>
       <use xlink:href="#ArialMT-33"/>
       <use xlink:href="#ArialMT-30" x="55.615234"/>
       <use xlink:href="#ArialMT-30" x="111.230469"/>
       <use xlink:href="#ArialMT-30" x="166.845703"/>
      </g>
     </g>
    </g>
    <g id="ytick_5">
     <g id="line2d_11">
      <g>
       <use xlink:href="#m4e1a47b3d1" x="54" y="116.545768" style="fill: #262626; stroke: #262626; stroke-width: 1.25"/>
      </g>
     </g>
     <g id="text_12">
      <!-- 4000 -->
      <g style="fill: #262626" transform="translate(20.031875 120.482565)scale(0.11 -0.11)">
       <defs>
        <path id="ArialMT-34" d="M 2069 0 
L 2069 1097 
L 81 1097 
L 81 1613 
L 2172 4581 
L 2631 4581 
L 2631 1613 
L 3250 1613 
L 3250 1097 
L 2631 1097 
L 2631 0 
L 2069 0 
z
M 2069 1613 
L 2069 3678 
L 634 1613 
L 2069 1613 
z
" transform="scale(0.015625)"/>
       </defs>
       <use xlink:href="#ArialMT-34"/>
       <use xlink:href="#ArialMT-30" x="55.615234"/>
       <use xlink:href="#ArialMT-30" x="111.230469"/>
       <use xlink:href="#ArialMT-30" x="166.845703"/>
      </g>
     </g>
    </g>
    <g id="ytick_6">
     <g id="line2d_12">
      <g>
       <use xlink:href="#m4e1a47b3d1" x="54" y="85.153119" style="fill: #262626; stroke: #262626; stroke-width: 1.25"/>
      </g>
     </g>
     <g id="text_13">
      <!-- 5000 -->
      <g style="fill: #262626" transform="translate(20.031875 89.089916)scale(0.11 -0.11)">
       <use xlink:href="#ArialMT-35"/>
       <use xlink:href="#ArialMT-30" x="55.615234"/>
       <use xlink:href="#ArialMT-30" x="111.230469"/>
       <use xlink:href="#ArialMT-30" x="166.845703"/>
      </g>
     </g>
    </g>
    <g id="ytick_7">
     <g id="line2d_13">
      <g>
       <use xlink:href="#m4e1a47b3d1" x="54" y="53.76047" style="fill: #262626; stroke: #262626; stroke-width: 1.25"/>
      </g>
     </g>
     <g id="text_14">
      <!-- 6000 -->
      <g style="fill: #262626" transform="translate(20.031875 57.697267)scale(0.11 -0.11)">
       <defs>
        <path id="ArialMT-36" d="M 3184 3459 
L 2625 3416 
Q 2550 3747 2413 3897 
Q 2184 4138 1850 4138 
Q 1581 4138 1378 3988 
Q 1113 3794 959 3422 
Q 806 3050 800 2363 
Q 1003 2672 1297 2822 
Q 1591 2972 1913 2972 
Q 2475 2972 2870 2558 
Q 3266 2144 3266 1488 
Q 3266 1056 3080 686 
Q 2894 316 2569 119 
Q 2244 -78 1831 -78 
Q 1128 -78 684 439 
Q 241 956 241 2144 
Q 241 3472 731 4075 
Q 1159 4600 1884 4600 
Q 2425 4600 2770 4297 
Q 3116 3994 3184 3459 
z
M 888 1484 
Q 888 1194 1011 928 
Q 1134 663 1356 523 
Q 1578 384 1822 384 
Q 2178 384 2434 671 
Q 2691 959 2691 1453 
Q 2691 1928 2437 2201 
Q 2184 2475 1800 2475 
Q 1419 2475 1153 2201 
Q 888 1928 888 1484 
z
" transform="scale(0.015625)"/>
       </defs>
       <use xlink:href="#ArialMT-36"/>
       <use xlink:href="#ArialMT-30" x="55.615234"/>
       <use xlink:href="#ArialMT-30" x="111.230469"/>
       <use xlink:href="#ArialMT-30" x="166.845703"/>
      </g>
     </g>
    </g>
   </g>
   <g id="line2d_14">
    <path d="M 54 241.982246 
L 145.998126 241.940757 
L 151.225293 241.486655 
L 153.316159 241.49175 
L 155.407026 241.580591 
L 159.588759 241.679146 
L 162.725059 240.952376 
L 163.770492 240.433571 
L 165.861358 238.766881 
L 166.906792 238.458876 
L 167.952225 237.077579 
L 168.997658 234.868415 
L 171.088525 231.799719 
L 172.133958 231.478657 
L 173.179391 229.115922 
L 174.224824 223.025774 
L 175.270258 223.576069 
L 176.315691 224.647354 
L 177.361124 224.200859 
L 178.406557 218.884842 
L 179.451991 216.248977 
L 180.497424 218.300324 
L 181.542857 224.879103 
L 182.58829 220.0724 
L 183.633724 221.002552 
L 184.679157 223.117311 
L 185.72459 228.362918 
L 186.770023 226.856159 
L 187.815457 216.646322 
L 188.86089 225.03284 
L 189.906323 221.592453 
L 190.951756 220.821445 
L 191.99719 206.539742 
L 193.042623 207.833208 
L 194.088056 218.623353 
L 195.133489 212.002054 
L 196.178923 202.58031 
L 197.224356 191.615925 
L 198.269789 211.543373 
L 199.315222 225.474629 
L 200.360656 215.027185 
L 201.406089 211.102552 
L 202.451522 223.176662 
L 203.496956 231.989938 
L 204.542389 221.875375 
L 205.587822 223.173889 
L 206.633255 223.589513 
L 207.678689 217.774338 
L 208.724122 204.114782 
L 210.814988 193.365599 
L 211.860422 193.826382 
L 212.905855 166.43211 
L 213.951288 143.559031 
L 214.996721 152.768811 
L 216.042155 180.564414 
L 217.087588 158.981509 
L 219.178454 178.580563 
L 220.223888 211.388768 
L 221.269321 214.909972 
L 222.314754 197.2663 
L 223.360187 214.155108 
L 224.405621 229.052557 
L 225.451054 234.855147 
L 226.496487 218.919634 
L 227.54192 221.03108 
L 228.587354 233.223498 
L 229.632787 230.309945 
L 230.67822 211.908791 
L 231.723653 191.275714 
L 232.769087 205.792104 
L 233.81452 201.195921 
L 234.859953 179.669252 
L 235.905386 164.389016 
L 236.95082 160.340626 
L 237.996253 169.773583 
L 239.041686 163.033459 
L 240.087119 124.708059 
L 241.132553 100.932219 
L 243.223419 174.858771 
L 244.268852 129.400416 
L 245.314286 121.259945 
L 246.359719 126.244824 
L 247.405152 149.813876 
L 248.450585 147.712707 
L 249.496019 129.346588 
L 250.541452 113.915833 
L 251.586885 127.286983 
L 252.632319 135.80732 
L 253.677752 112.610731 
L 254.723185 108.525441 
L 255.768618 113.161286 
L 256.814052 120.816158 
L 257.859485 81.122684 
L 258.904918 89.810079 
L 259.950351 91.7804 
L 260.995785 111.972441 
L 262.041218 90.308916 
L 263.086651 65.178481 
L 264.132084 83.260698 
L 265.177518 121.123051 
L 266.222951 134.634395 
L 267.268384 115.954348 
L 268.313817 125.505553 
L 270.404684 149.546526 
L 271.450117 175.941842 
L 272.49555 172.456107 
L 273.540984 146.272846 
L 274.586417 168.343847 
L 275.63185 167.522277 
L 276.677283 165.960432 
L 277.722717 161.652374 
L 278.76815 139.455676 
L 280.859016 162.988996 
L 281.90445 161.71418 
L 282.949883 133.577421 
L 285.040749 177.587404 
L 286.086183 155.745886 
L 287.131616 169.775411 
L 288.177049 146.179885 
L 289.222482 176.443395 
L 290.267916 196.61052 
L 291.313349 192.619847 
L 292.358782 189.466031 
L 293.404215 204.266636 
L 294.449649 210.417567 
L 295.495082 219.758302 
L 296.540515 205.197961 
L 297.585948 214.945388 
L 298.631382 220.892646 
L 299.676815 213.099952 
L 300.722248 212.56257 
L 302.813115 223.320895 
L 303.858548 223.320813 
L 304.903981 225.506869 
L 305.949415 227.181937 
L 306.994848 232.159024 
L 308.040281 231.963964 
L 309.085714 231.248841 
L 310.131148 232.521173 
L 311.176581 226.631502 
L 312.222014 231.368926 
L 313.267447 237.693878 
L 314.312881 240.736126 
L 315.358314 234.901684 
L 316.403747 238.730834 
L 317.44918 236.441756 
L 318.494614 237.665414 
L 319.540047 240.002728 
L 320.58548 237.327222 
L 321.630913 232.733622 
L 322.676347 232.467791 
L 323.72178 235.306452 
L 324.767213 236.158563 
L 325.812646 237.583342 
L 326.85808 236.738466 
L 327.903513 235.040668 
L 328.948946 237.077663 
L 329.994379 236.699415 
L 331.039813 230.459142 
L 332.085246 230.570343 
L 333.130679 232.033585 
L 334.176112 219.317563 
L 335.221546 220.180466 
L 336.266979 226.041802 
L 337.312412 229.856469 
L 338.357845 222.960568 
L 339.403279 225.405603 
L 340.448712 227.397313 
L 341.494145 228.139442 
L 342.539578 227.490757 
L 343.585012 230.498183 
L 344.630445 230.563264 
L 345.675878 235.117017 
L 346.721311 237.070502 
L 347.766745 237.506433 
L 348.812178 237.46009 
L 349.857611 233.718868 
L 350.903044 237.001605 
L 351.948478 233.780521 
L 352.993911 234.534515 
L 354.039344 233.880339 
L 355.084778 235.724517 
L 356.130211 233.742145 
L 357.175644 234.404395 
L 358.221077 230.964103 
L 359.266511 230.060747 
L 360.311944 227.883947 
L 361.357377 227.163488 
L 362.40281 221.146553 
L 363.448244 226.07976 
L 364.493677 226.328913 
L 366.584543 224.62016 
L 367.629977 228.151847 
L 368.67541 230.868656 
L 369.720843 230.019505 
L 370.766276 231.712985 
L 371.81171 233.080296 
L 372.857143 232.893212 
L 373.902576 229.346892 
L 374.948009 233.214454 
L 375.993443 230.531134 
L 377.038876 235.638353 
L 378.084309 227.680421 
L 379.129742 223.950944 
L 380.175176 228.543757 
L 381.220609 224.884098 
L 382.266042 231.357198 
L 383.311475 228.47104 
L 384.356909 223.140461 
L 385.402342 226.308298 
L 387.493208 228.950444 
L 388.538642 230.132234 
L 389.584075 224.095254 
L 390.629508 233.470341 
L 391.674941 232.131965 
L 392.720375 234.524033 
L 393.765808 237.275706 
L 394.811241 236.338728 
L 395.856674 235.96667 
L 396.902108 234.634069 
L 397.947541 236.096066 
L 398.992974 236.672327 
L 400.038407 234.207443 
L 401.083841 236.585063 
L 402.129274 232.749347 
L 403.174707 230.253492 
L 404.220141 232.75304 
L 405.265574 231.671926 
L 406.311007 229.719995 
L 407.35644 229.050575 
L 408.401874 235.596476 
L 409.447307 234.606569 
L 410.49274 231.207887 
L 411.538173 230.83811 
L 412.583607 231.29077 
L 413.62904 237.367546 
L 414.674473 237.413215 
L 415.719906 237.244602 
L 416.76534 237.288795 
L 417.810773 237.641721 
L 418.856206 239.740621 
L 420.947073 239.157747 
L 421.992506 239.275857 
L 423.037939 240.854714 
L 424.083372 241.38023 
L 425.128806 239.013754 
L 426.174239 238.892609 
L 427.219672 239.702557 
L 428.265105 238.254501 
L 429.310539 239.212858 
L 430.355972 236.8332 
L 431.401405 237.070585 
L 432.446838 238.959238 
L 433 237.879935 
M 433 242.116253 
L -1 242.116253 
L -1 242.116253 
" clip-path="url(#p471dc7c153)" style="fill: none; stroke: #4c72b0; stroke-opacity: 0.3; stroke-width: 1.5; stroke-linecap: round"/>
   </g>
   <g id="line2d_15">
    <path d="M 54 241.983446 
L 155.407026 242.064337 
L 158.543326 242.104559 
L 160.634192 241.984267 
L 163.770492 241.610858 
L 164.815925 241.324678 
L 165.861358 241.156592 
L 166.906792 240.705532 
L 167.952225 240.678084 
L 168.997658 240.4304 
L 171.088525 239.472288 
L 172.133958 238.911342 
L 173.179391 238.804777 
L 174.224824 238.218259 
L 175.270258 238.370608 
L 176.315691 237.774125 
L 177.361124 238.798074 
L 178.406557 239.498253 
L 180.497424 238.344906 
L 181.542857 239.034269 
L 182.58829 237.662219 
L 183.633724 234.766681 
L 184.679157 233.541242 
L 185.72459 232.5515 
L 186.770023 228.811009 
L 187.815457 228.246574 
L 188.86089 224.504368 
L 189.906323 227.672495 
L 190.951756 227.778357 
L 191.99719 223.723273 
L 193.042623 228.840732 
L 194.088056 229.738201 
L 195.133489 231.072809 
L 196.178923 229.246953 
L 197.224356 231.995594 
L 198.269789 233.65425 
L 199.315222 236.756662 
L 200.360656 236.455754 
L 201.406089 235.848028 
L 202.451522 236.530705 
L 203.496956 235.80258 
L 204.542389 234.466092 
L 205.587822 229.220478 
L 206.633255 229.13605 
L 208.724122 222.380332 
L 209.769555 214.966965 
L 210.814988 205.068097 
L 211.860422 216.48825 
L 212.905855 206.844599 
L 213.951288 203.050808 
L 214.996721 214.605323 
L 216.042155 213.714862 
L 217.087588 220.451472 
L 218.133021 218.344429 
L 219.178454 224.415371 
L 220.223888 229.403429 
L 221.269321 232.294357 
L 222.314754 232.07428 
L 223.360187 227.052755 
L 224.405621 235.138211 
L 225.451054 236.130722 
L 226.496487 230.252734 
L 227.54192 227.707456 
L 228.587354 226.444272 
L 229.632787 227.381124 
L 230.67822 226.997254 
L 231.723653 219.673863 
L 232.769087 213.848879 
L 233.81452 211.407092 
L 234.859953 212.156112 
L 235.905386 202.886382 
L 236.95082 196.053069 
L 237.996253 204.440992 
L 240.087119 204.217418 
L 241.132553 195.031851 
L 242.177986 201.490454 
L 243.223419 210.460305 
L 244.268852 198.858907 
L 246.359719 205.994689 
L 247.405152 211.419609 
L 248.450585 205.967208 
L 249.496019 196.908515 
L 250.541452 191.113971 
L 251.586885 200.365763 
L 252.632319 205.571559 
L 253.677752 201.508967 
L 254.723185 203.403071 
L 255.768618 200.528507 
L 256.814052 218.561677 
L 257.859485 218.149829 
L 258.904918 215.052884 
L 259.950351 220.378358 
L 260.995785 224.191254 
L 262.041218 221.085862 
L 263.086651 216.771119 
L 264.132084 227.942519 
L 265.177518 225.853329 
L 266.222951 214.987959 
L 267.268384 206.034985 
L 268.313817 208.9141 
L 269.359251 210.35046 
L 270.404684 209.85002 
L 271.450117 205.831466 
L 272.49555 200.93591 
L 273.540984 212.239744 
L 274.586417 215.628548 
L 275.63185 219.73931 
L 276.677283 218.537585 
L 277.722717 228.068252 
L 278.76815 231.810021 
L 279.813583 225.951203 
L 280.859016 230.489536 
L 281.90445 238.629806 
L 282.949883 237.450297 
L 283.995316 238.029167 
L 285.040749 233.205087 
L 286.086183 231.326367 
L 287.131616 230.349771 
L 288.177049 228.574003 
L 289.222482 208.76809 
L 290.267916 198.346174 
L 291.313349 197.797291 
L 292.358782 200.660478 
L 293.404215 190.903478 
L 294.449649 175.891996 
L 295.495082 175.823762 
L 296.540515 176.808057 
L 297.585948 184.688697 
L 298.631382 177.533401 
L 299.676815 174.159844 
L 300.722248 181.668423 
L 301.767681 184.055984 
L 302.813115 176.044427 
L 303.858548 174.001852 
L 304.903981 184.120378 
L 305.949415 172.378504 
L 306.994848 163.042 
L 308.040281 178.314514 
L 309.085714 184.99662 
L 310.131148 177.802964 
L 311.176581 176.788887 
L 312.222014 179.365329 
L 313.267447 190.219081 
L 314.312881 206.013948 
L 315.358314 196.156257 
L 316.403747 199.304132 
L 317.44918 209.23544 
L 318.494614 210.358018 
L 319.540047 205.215967 
L 320.58548 216.750885 
L 321.630913 218.169117 
L 322.676347 218.618125 
L 323.72178 213.48434 
L 324.767213 214.372147 
L 325.812646 212.930426 
L 326.85808 208.579764 
L 327.903513 214.09718 
L 328.948946 198.756846 
L 329.994379 198.991194 
L 331.039813 200.554691 
L 332.085246 199.761477 
L 333.130679 190.141023 
L 334.176112 182.920199 
L 335.221546 186.055017 
L 336.266979 195.507457 
L 337.312412 195.306556 
L 338.357845 184.997902 
L 339.403279 195.775815 
L 340.448712 190.400508 
L 341.494145 212.566698 
L 342.539578 204.935749 
L 343.585012 206.885033 
L 344.630445 212.14471 
L 345.675878 209.873047 
L 346.721311 197.1699 
L 347.766745 212.06612 
L 348.812178 211.380212 
L 349.857611 207.94784 
L 350.903044 206.796339 
L 351.948478 211.55455 
L 352.993911 211.296867 
L 354.039344 221.237493 
L 355.084778 216.733725 
L 356.130211 218.184607 
L 357.175644 219.995157 
L 358.221077 215.500102 
L 359.266511 223.610676 
L 361.357377 226.368945 
L 362.40281 223.814253 
L 363.448244 224.126123 
L 364.493677 226.15375 
L 365.53911 223.328715 
L 366.584543 224.98055 
L 367.629977 219.384665 
L 368.67541 225.001488 
L 369.720843 224.261714 
L 370.766276 228.762944 
L 371.81171 224.727358 
L 372.857143 226.12886 
L 373.902576 224.259295 
L 374.948009 231.426891 
L 375.993443 233.784395 
L 377.038876 236.766052 
L 378.084309 236.928031 
L 379.129742 239.288507 
L 380.175176 238.938519 
L 381.220609 240.515227 
L 382.266042 241.488907 
L 383.311475 241.041617 
L 384.356909 241.307599 
L 386.447775 242.078951 
L 387.493208 241.014417 
L 388.538642 240.177303 
L 389.584075 239.046879 
L 390.629508 238.976573 
L 391.674941 234.599151 
L 392.720375 235.348531 
L 393.765808 228.966666 
L 394.811241 233.971739 
L 395.856674 232.747562 
L 396.902108 230.935462 
L 397.947541 230.338612 
L 398.992974 231.267703 
L 400.038407 232.741937 
L 401.083841 227.307958 
L 403.174707 236.875879 
L 404.220141 236.08714 
L 405.265574 235.75584 
L 406.311007 236.689275 
L 407.35644 237.068617 
L 408.401874 230.740723 
L 409.447307 234.449825 
L 410.49274 232.061963 
L 411.538173 231.952875 
L 412.583607 230.387588 
L 413.62904 235.579997 
L 414.674473 231.743248 
L 415.719906 234.82269 
L 416.76534 235.342033 
L 417.810773 235.626532 
L 418.856206 237.263322 
L 419.901639 235.72449 
L 420.947073 239.832935 
L 421.992506 240.433947 
L 423.037939 239.237831 
L 424.083372 239.140411 
L 425.128806 238.256591 
L 426.174239 240.839276 
L 427.219672 238.94383 
L 428.265105 239.214271 
L 429.310539 239.023117 
L 430.355972 239.43223 
L 431.401405 237.175897 
L 432.446838 234.041597 
L 433 234.167483 
M 433 242.116207 
L -1 242.116207 
L -1 242.116207 
" clip-path="url(#p471dc7c153)" style="fill: none; stroke: #dd8452; stroke-opacity: 0.3; stroke-width: 1.5; stroke-linecap: round"/>
   </g>
   <g id="line2d_16">
    <path d="M 54 242.116364 
L 433 242.116364 
M 433 242.116364 
L -1 242.116364 
L -1 242.116364 
" clip-path="url(#p471dc7c153)" style="fill: none; stroke: #55a868; stroke-opacity: 0.3; stroke-width: 1.5; stroke-linecap: round"/>
   </g>
   <g id="line2d_17">
    <path d="M 54 242.116313 
L 143.90726 242.007276 
L 153.316159 241.815171 
L 159.588759 241.524879 
L 161.679625 241.359949 
L 162.725059 241.290253 
L 163.770492 241.388073 
L 164.815925 241.364399 
L 165.861358 241.102267 
L 166.906792 241.017598 
L 167.952225 241.302271 
L 170.043091 241.665572 
L 171.088525 241.41193 
L 172.133958 241.003223 
L 173.179391 240.34567 
L 174.224824 240.781331 
L 176.315691 239.831314 
L 177.361124 238.84708 
L 178.406557 238.517045 
L 179.451991 238.81938 
L 180.497424 238.820615 
L 181.542857 239.979969 
L 182.58829 239.045749 
L 183.633724 236.756999 
L 184.679157 236.573451 
L 185.72459 236.85853 
L 186.770023 240.36457 
L 187.815457 239.745 
L 188.86089 238.488377 
L 189.906323 236.289363 
L 190.951756 238.335487 
L 191.99719 239.158496 
L 193.042623 241.698924 
L 194.088056 238.83035 
L 195.133489 232.788957 
L 196.178923 231.554382 
L 197.224356 236.696819 
L 198.269789 240.017818 
L 199.315222 236.891241 
L 200.360656 231.649075 
L 201.406089 231.903399 
L 202.451522 234.154012 
L 203.496956 238.535537 
L 204.542389 237.277003 
L 205.587822 225.243155 
L 206.633255 225.703776 
L 207.678689 228.904038 
L 208.724122 237.190409 
L 209.769555 236.177665 
L 210.814988 231.116218 
L 211.860422 230.817429 
L 212.905855 224.139095 
L 213.951288 232.672784 
L 214.996721 237.383036 
L 216.042155 233.674997 
L 218.133021 216.265545 
L 219.178454 227.403103 
L 220.223888 228.292512 
L 221.269321 227.237993 
L 222.314754 224.118599 
L 223.360187 210.329068 
L 224.405621 212.277727 
L 225.451054 228.057439 
L 226.496487 235.371109 
L 227.54192 227.909534 
L 228.587354 223.359982 
L 229.632787 226.694559 
L 230.67822 234.342545 
L 231.723653 240.059485 
L 232.769087 232.587405 
L 233.81452 231.493833 
L 234.859953 230.762899 
L 235.905386 239.415034 
L 236.95082 240.91474 
L 237.996253 241.20888 
L 239.041686 235.441798 
L 240.087119 232.920139 
L 241.132553 233.021374 
L 242.177986 233.418486 
L 243.223419 238.944666 
L 244.268852 238.926754 
L 245.314286 236.944933 
L 246.359719 238.556436 
L 247.405152 235.494813 
L 249.496019 240.063913 
L 250.541452 237.588804 
L 251.586885 232.210098 
L 252.632319 235.302708 
L 253.677752 239.980722 
L 254.723185 241.158211 
L 255.768618 240.438238 
L 256.814052 238.390676 
L 257.859485 236.008518 
L 258.904918 237.617977 
L 259.950351 237.23619 
L 260.995785 239.582702 
L 262.041218 241.274969 
L 263.086651 238.942 
L 264.132084 232.959078 
L 265.177518 229.953881 
L 266.222951 237.262395 
L 267.268384 238.776235 
L 268.313817 237.305307 
L 269.359251 236.315624 
L 270.404684 220.291791 
L 271.450117 227.821668 
L 272.49555 239.718601 
L 273.540984 238.668629 
L 274.586417 235.491272 
L 275.63185 225.979099 
L 277.722717 240.679045 
L 278.76815 233.210242 
L 279.813583 236.573142 
L 280.859016 220.446181 
L 281.90445 211.445496 
L 282.949883 228.572381 
L 283.995316 227.161326 
L 285.040749 238.868578 
L 286.086183 240.859009 
L 287.131616 225.70938 
L 288.177049 205.360816 
L 289.222482 231.237167 
L 290.267916 242.054862 
L 291.313349 230.993377 
L 292.358782 231.944457 
L 293.404215 236.142303 
L 294.449649 238.543379 
L 295.495082 231.404791 
L 296.540515 228.933524 
L 297.585948 232.660005 
L 298.631382 234.354739 
L 300.722248 220.170884 
L 301.767681 227.483107 
L 302.813115 227.573809 
L 303.858548 230.727756 
L 304.903981 232.802354 
L 305.949415 235.276893 
L 308.040281 241.766197 
L 309.085714 241.328862 
L 310.131148 237.695093 
L 311.176581 236.438366 
L 312.222014 231.159792 
L 313.267447 234.51089 
L 314.312881 228.393249 
L 315.358314 229.646218 
L 316.403747 226.773276 
L 317.44918 234.728779 
L 318.494614 241.355055 
L 319.540047 238.28696 
L 321.630913 242.013615 
L 322.676347 236.627844 
L 323.72178 234.584601 
L 324.767213 234.060271 
L 325.812646 239.685511 
L 326.85808 234.613491 
L 327.903513 232.695138 
L 328.948946 235.143713 
L 329.994379 234.209641 
L 331.039813 240.003453 
L 332.085246 240.026463 
L 333.130679 240.304674 
L 334.176112 240.787797 
L 335.221546 239.513179 
L 336.266979 239.623909 
L 337.312412 238.917423 
L 338.357845 239.038916 
L 339.403279 237.209906 
L 340.448712 239.227713 
L 341.494145 238.198043 
L 342.539578 240.86382 
L 343.585012 241.659142 
L 344.630445 242.066169 
L 345.675878 241.679256 
L 346.721311 240.891873 
L 347.766745 236.9447 
L 348.812178 237.890845 
L 349.857611 240.392933 
L 350.903044 240.368259 
L 351.948478 238.195011 
L 352.993911 234.678901 
L 354.039344 236.944647 
L 355.084778 240.088842 
L 356.130211 240.514142 
L 357.175644 239.735589 
L 358.221077 237.83053 
L 359.266511 238.167404 
L 360.311944 240.653559 
L 361.357377 241.072211 
L 362.40281 239.420291 
L 363.448244 236.715577 
L 364.493677 238.263836 
L 365.53911 238.315296 
L 366.584543 241.112526 
L 367.629977 240.70037 
L 369.720843 236.627067 
L 370.766276 239.905729 
L 371.81171 238.811179 
L 372.857143 239.565518 
L 374.948009 237.570785 
L 375.993443 234.613739 
L 378.084309 237.90305 
L 379.129742 237.530331 
L 380.175176 239.690766 
L 381.220609 237.374952 
L 382.266042 239.7646 
L 383.311475 239.174644 
L 384.356909 241.573258 
L 385.402342 240.728135 
L 386.447775 240.307401 
L 387.493208 239.230919 
L 388.538642 238.354613 
L 389.584075 240.236675 
L 390.629508 241.097501 
L 391.674941 240.159828 
L 392.720375 240.613711 
L 393.765808 240.563359 
L 395.856674 237.609178 
L 396.902108 238.862652 
L 397.947541 238.978907 
L 398.992974 236.854372 
L 400.038407 238.181666 
L 401.083841 240.075956 
L 402.129274 239.829596 
L 403.174707 241.041137 
L 404.220141 239.691407 
L 405.265574 239.6511 
L 406.311007 238.187749 
L 407.35644 239.378028 
L 408.401874 241.784889 
L 409.447307 239.344341 
L 410.49274 238.864445 
L 411.538173 239.777539 
L 412.583607 237.793789 
L 413.62904 240.674616 
L 414.674473 240.331067 
L 415.719906 236.810382 
L 416.76534 238.6318 
L 417.810773 236.237662 
L 418.856206 237.935947 
L 419.901639 240.798041 
L 421.992506 238.69381 
L 423.037939 240.219985 
L 424.083372 240.680026 
L 425.128806 240.078413 
L 426.174239 240.035469 
L 427.219672 241.097853 
L 428.265105 240.926884 
L 429.310539 239.818239 
L 430.355972 239.897513 
L 431.401405 241.373987 
L 432.446838 239.254952 
L 433 239.610879 
M 433 242.115104 
L -1 242.115104 
L -1 242.115104 
" clip-path="url(#p471dc7c153)" style="fill: none; stroke: #c44e52; stroke-opacity: 0.3; stroke-width: 1.5; stroke-linecap: round"/>
   </g>
   <g id="line2d_18">
    <path d="M 54 240.586411 
L 119.862295 240.48139 
L 134.498361 240.27291 
L 142.861827 239.966698 
L 148.088993 239.462593 
L 152.270726 238.869776 
L 153.316159 238.5999 
L 154.361593 238.472575 
L 155.407026 238.195315 
L 158.543326 237.727865 
L 159.588759 237.370667 
L 162.725059 237.057268 
L 163.770492 237.099473 
L 164.815925 236.927859 
L 165.861358 236.047143 
L 166.906792 236.166589 
L 167.952225 235.599961 
L 168.997658 236.457833 
L 170.043091 236.163746 
L 171.088525 235.248319 
L 172.133958 234.547211 
L 176.315691 234.977793 
L 178.406557 234.806933 
L 179.451991 234.87552 
L 180.497424 236.656016 
L 181.542857 237.247477 
L 182.58829 235.044104 
L 183.633724 235.135414 
L 184.679157 236.478586 
L 185.72459 236.077807 
L 186.770023 234.155211 
L 187.815457 233.983047 
L 188.86089 234.886618 
L 189.906323 232.075251 
L 190.951756 230.089549 
L 191.99719 233.040309 
L 193.042623 228.776081 
L 194.088056 225.933614 
L 195.133489 223.663154 
L 196.178923 221.765642 
L 197.224356 220.7321 
L 198.269789 218.098795 
L 199.315222 212.250938 
L 200.360656 211.594221 
L 201.406089 211.649664 
L 202.451522 215.723661 
L 203.496956 208.634643 
L 204.542389 215.259765 
L 205.587822 206.376746 
L 206.633255 208.523227 
L 207.678689 206.002074 
L 208.724122 208.524246 
L 209.769555 203.346809 
L 210.814988 209.198928 
L 211.860422 206.558268 
L 212.905855 195.68929 
L 213.951288 208.513529 
L 214.996721 207.948024 
L 216.042155 206.518561 
L 218.133021 196.76052 
L 219.178454 208.95446 
L 220.223888 202.295891 
L 221.269321 212.387584 
L 223.360187 208.50943 
L 224.405621 210.536043 
L 225.451054 216.612242 
L 226.496487 215.20812 
L 227.54192 222.407942 
L 228.587354 222.187743 
L 229.632787 218.738046 
L 230.67822 221.769662 
L 231.723653 231.48284 
L 232.769087 228.32384 
L 233.81452 226.456419 
L 234.859953 225.165045 
L 235.905386 229.177943 
L 236.95082 228.760903 
L 237.996253 232.622983 
L 239.041686 231.369465 
L 240.087119 226.512275 
L 242.177986 228.929476 
L 243.223419 231.945792 
L 244.268852 233.555341 
L 245.314286 229.627468 
L 246.359719 226.893706 
L 247.405152 226.764784 
L 248.450585 233.481137 
L 249.496019 231.970436 
L 250.541452 233.047789 
L 251.586885 231.069903 
L 252.632319 225.451586 
L 253.677752 218.736712 
L 254.723185 225.598539 
L 255.768618 230.304992 
L 256.814052 219.680806 
L 257.859485 198.214214 
L 258.904918 211.791895 
L 259.950351 206.334367 
L 260.995785 208.395765 
L 262.041218 213.045227 
L 264.132084 186.231014 
L 265.177518 167.956395 
L 266.222951 195.673634 
L 267.268384 189.04541 
L 268.313817 177.927894 
L 269.359251 159.696791 
L 270.404684 150.723123 
L 271.450117 152.481094 
L 272.49555 179.092352 
L 273.540984 178.341376 
L 274.586417 155.97029 
L 275.63185 179.225617 
L 276.677283 182.306192 
L 277.722717 210.695448 
L 278.76815 209.591349 
L 279.813583 195.640925 
L 280.859016 44.443636 
L 281.90445 184.068795 
L 282.949883 208.743525 
L 283.995316 230.673319 
L 285.040749 198.215642 
L 286.086183 217.976277 
L 287.131616 223.6981 
L 288.177049 176.924892 
L 289.222482 175.127981 
L 290.267916 221.960092 
L 291.313349 227.940832 
L 292.358782 238.701646 
L 293.404215 239.057657 
L 294.449649 226.501692 
L 295.495082 197.396248 
L 296.540515 194.902681 
L 297.585948 190.026259 
L 298.631382 181.004128 
L 299.676815 192.512293 
L 300.722248 195.233092 
L 301.767681 205.491277 
L 302.813115 210.865609 
L 303.858548 222.507231 
L 304.903981 210.545986 
L 305.949415 189.738262 
L 306.994848 193.525099 
L 308.040281 191.548597 
L 309.085714 184.276265 
L 310.131148 175.389811 
L 311.176581 180.19488 
L 312.222014 183.296271 
L 313.267447 187.301801 
L 314.312881 187.883223 
L 315.358314 183.711936 
L 316.403747 179.001375 
L 317.44918 179.571705 
L 319.540047 189.621519 
L 320.58548 176.072236 
L 321.630913 168.35175 
L 322.676347 186.694033 
L 323.72178 173.474589 
L 324.767213 182.449965 
L 325.812646 180.961103 
L 326.85808 185.666705 
L 327.903513 164.798821 
L 328.948946 159.434635 
L 329.994379 157.459149 
L 331.039813 158.860334 
L 332.085246 159.988785 
L 333.130679 170.835834 
L 334.176112 156.073888 
L 335.221546 174.003102 
L 336.266979 162.090093 
L 337.312412 186.738986 
L 338.357845 175.404675 
L 339.403279 171.291234 
L 340.448712 166.058408 
L 341.494145 165.135097 
L 342.539578 171.536649 
L 343.585012 188.047603 
L 344.630445 174.465897 
L 345.675878 183.277006 
L 346.721311 177.686211 
L 347.766745 175.185462 
L 348.812178 174.748175 
L 349.857611 171.140143 
L 350.903044 175.447219 
L 351.948478 167.384226 
L 352.993911 166.209607 
L 354.039344 161.003598 
L 355.084778 174.88333 
L 356.130211 174.48038 
L 357.175644 175.487028 
L 358.221077 166.278854 
L 359.266511 169.146349 
L 360.311944 172.445208 
L 361.357377 178.966611 
L 362.40281 183.35755 
L 363.448244 179.738879 
L 364.493677 179.425859 
L 365.53911 177.307039 
L 366.584543 187.16846 
L 367.629977 179.476808 
L 368.67541 169.08442 
L 369.720843 175.679188 
L 370.766276 175.168246 
L 371.81171 162.972307 
L 372.857143 180.148874 
L 373.902576 176.35491 
L 374.948009 180.315567 
L 375.993443 162.56007 
L 377.038876 162.702678 
L 378.084309 162.392208 
L 379.129742 167.389808 
L 380.175176 165.352147 
L 381.220609 157.32666 
L 382.266042 154.428568 
L 383.311475 154.16351 
L 384.356909 155.192257 
L 385.402342 152.934253 
L 386.447775 156.994743 
L 387.493208 144.769143 
L 388.538642 134.803033 
L 389.584075 153.981161 
L 390.629508 153.544115 
L 391.674941 143.138498 
L 392.720375 147.538732 
L 393.765808 137.130059 
L 394.811241 143.618768 
L 395.856674 151.081409 
L 396.902108 159.821983 
L 397.947541 140.465778 
L 400.038407 155.238942 
L 401.083841 159.341338 
L 402.129274 169.228359 
L 403.174707 166.969404 
L 404.220141 162.135233 
L 405.265574 165.535024 
L 406.311007 171.48628 
L 407.35644 175.710412 
L 408.401874 178.214562 
L 409.447307 169.734507 
L 410.49274 170.274775 
L 411.538173 184.817866 
L 412.583607 171.245314 
L 413.62904 168.06961 
L 414.674473 176.272757 
L 415.719906 167.906124 
L 416.76534 174.841128 
L 417.810773 178.849547 
L 418.856206 158.948756 
L 419.901639 168.051184 
L 420.947073 167.274092 
L 421.992506 164.790545 
L 424.083372 164.315511 
L 425.128806 158.80892 
L 426.174239 171.603961 
L 427.219672 151.838254 
L 428.265105 153.093412 
L 429.310539 153.968587 
L 430.355972 154.681959 
L 431.401405 149.280517 
L 432.446838 162.241662 
L 433 163.006284 
M 433 242.11468 
L -1 242.11468 
L -1 242.11468 
" clip-path="url(#p471dc7c153)" style="fill: none; stroke: #8172b3; stroke-opacity: 0.3; stroke-width: 1.5; stroke-linecap: round"/>
   </g>
   <g id="line2d_19">
    <path d="M 54 242.116364 
L 433 242.116364 
M 433 242.116364 
L -1 242.116364 
L -1 242.116364 
" clip-path="url(#p471dc7c153)" style="fill: none; stroke: #937860; stroke-opacity: 0.3; stroke-width: 1.5; stroke-linecap: round"/>
   </g>
   <g id="line2d_20">
    <path d="M 54 241.765279 
L 136.589227 241.876199 
L 160.634192 241.77589 
L 163.770492 241.371616 
L 164.815925 241.528275 
L 165.861358 241.373638 
L 166.906792 240.938215 
L 167.952225 240.658316 
L 170.043091 241.324543 
L 173.179391 241.022423 
L 174.224824 240.96288 
L 175.270258 241.455193 
L 177.361124 241.943979 
L 178.406557 241.896621 
L 179.451991 240.721675 
L 181.542857 239.723019 
L 182.58829 240.230622 
L 183.633724 240.33877 
L 184.679157 237.870903 
L 185.72459 233.829198 
L 186.770023 232.921838 
L 187.815457 238.351055 
L 188.86089 238.094621 
L 189.906323 236.025743 
L 190.951756 234.486104 
L 191.99719 232.712079 
L 193.042623 239.077673 
L 194.088056 240.884335 
L 195.133489 236.953718 
L 197.224356 237.248647 
L 199.315222 241.962356 
L 200.360656 241.929903 
L 201.406089 241.310215 
L 202.451522 239.779411 
L 203.496956 239.142825 
L 204.542389 238.256608 
L 206.633255 241.536485 
L 207.678689 236.542305 
L 208.724122 228.635256 
L 209.769555 226.900949 
L 210.814988 234.587764 
L 211.860422 237.488031 
L 212.905855 231.912605 
L 213.951288 223.278512 
L 214.996721 230.420605 
L 216.042155 236.071281 
L 217.087588 240.756542 
L 218.133021 238.088563 
L 219.178454 236.262576 
L 220.223888 240.069114 
L 221.269321 237.852395 
L 222.314754 239.830242 
L 224.405621 241.89055 
L 225.451054 236.695626 
L 226.496487 223.67781 
L 227.54192 225.527818 
L 228.587354 236.000239 
L 229.632787 241.827012 
L 230.67822 231.116376 
L 231.723653 222.388955 
L 232.769087 229.466575 
L 233.81452 239.974799 
L 234.859953 240.717733 
L 236.95082 229.313211 
L 237.996253 232.053569 
L 239.041686 239.755399 
L 240.087119 240.709243 
L 241.132553 236.554466 
L 242.177986 239.096355 
L 243.223419 239.255159 
L 244.268852 236.91109 
L 245.314286 236.379327 
L 246.359719 240.777782 
L 247.405152 240.256248 
L 248.450585 231.26816 
L 249.496019 223.427897 
L 250.541452 229.492121 
L 251.586885 240.420802 
L 252.632319 237.339284 
L 253.677752 229.682859 
L 254.723185 225.339946 
L 255.768618 231.370549 
L 256.814052 241.913848 
L 257.859485 240.748673 
L 258.904918 237.941916 
L 259.950351 236.138337 
L 262.041218 240.259159 
L 263.086651 239.811332 
L 264.132084 241.798139 
L 265.177518 241.282701 
L 266.222951 233.336962 
L 267.268384 229.680681 
L 268.313817 232.127524 
L 269.359251 239.653294 
L 270.404684 237.505132 
L 271.450117 224.673212 
L 272.49555 221.864282 
L 273.540984 234.446649 
L 274.586417 240.89979 
L 275.63185 235.90551 
L 276.677283 233.434587 
L 278.76815 242.073633 
L 279.813583 241.170876 
L 280.859016 239.94399 
L 281.90445 237.066589 
L 282.949883 241.662347 
L 283.995316 241.145154 
L 285.040749 237.309025 
L 286.086183 229.646396 
L 287.131616 241.307649 
L 288.177049 238.366035 
L 289.222482 219.549952 
L 290.267916 215.141028 
L 291.313349 222.481067 
L 292.358782 236.627251 
L 293.404215 235.876504 
L 294.449649 232.801066 
L 295.495082 232.264572 
L 297.585948 239.856812 
L 298.631382 240.800261 
L 299.676815 239.917897 
L 300.722248 239.242447 
L 301.767681 239.981969 
L 302.813115 241.987073 
L 303.858548 241.684568 
L 304.903981 241.692879 
L 305.949415 240.458394 
L 306.994848 234.98552 
L 308.040281 230.387764 
L 309.085714 232.657803 
L 310.131148 235.751537 
L 311.176581 233.461483 
L 312.222014 229.904253 
L 313.267447 224.74525 
L 314.312881 227.645113 
L 315.358314 234.021336 
L 316.403747 232.899473 
L 317.44918 227.113824 
L 319.540047 234.114991 
L 320.58548 240.123251 
L 321.630913 237.798369 
L 322.676347 240.185127 
L 323.72178 241.388344 
L 324.767213 239.957213 
L 325.812646 241.002747 
L 326.85808 241.374701 
L 327.903513 241.266177 
L 328.948946 238.148233 
L 329.994379 237.619265 
L 331.039813 234.924875 
L 332.085246 236.249645 
L 333.130679 238.62913 
L 334.176112 236.904708 
L 335.221546 236.997217 
L 336.266979 235.306692 
L 337.312412 240.030823 
L 339.403279 240.76826 
L 340.448712 240.690017 
L 341.494145 240.294445 
L 342.539578 241.462434 
L 343.585012 241.052424 
L 344.630445 241.613872 
L 345.675878 238.312962 
L 346.721311 239.964362 
L 347.766745 238.244342 
L 348.812178 238.099247 
L 349.857611 241.159674 
L 351.948478 239.607803 
L 354.039344 238.131459 
L 355.084778 235.972511 
L 356.130211 239.356373 
L 357.175644 239.797889 
L 358.221077 237.775965 
L 359.266511 239.004122 
L 361.357377 240.516586 
L 362.40281 241.661354 
L 363.448244 241.438749 
L 364.493677 239.759365 
L 365.53911 240.554099 
L 366.584543 239.824804 
L 367.629977 240.698312 
L 368.67541 240.293784 
L 369.720843 238.132274 
L 370.766276 238.845318 
L 371.81171 238.593185 
L 372.857143 241.171051 
L 373.902576 239.47803 
L 374.948009 235.222558 
L 375.993443 237.975514 
L 378.084309 240.362906 
L 379.129742 240.780085 
L 380.175176 240.236782 
L 381.220609 237.688241 
L 382.266042 237.71052 
L 383.311475 240.557579 
L 384.356909 241.312399 
L 385.402342 241.34797 
L 386.447775 239.845352 
L 387.493208 239.73154 
L 388.538642 239.991495 
L 389.584075 241.39459 
L 390.629508 239.490101 
L 391.674941 236.66493 
L 392.720375 237.814863 
L 394.811241 239.025063 
L 395.856674 240.14883 
L 396.902108 237.576386 
L 397.947541 236.591774 
L 398.992974 238.881192 
L 400.038407 240.371827 
L 401.083841 240.555318 
L 402.129274 241.020293 
L 403.174707 240.001754 
L 404.220141 240.110373 
L 405.265574 240.530409 
L 406.311007 240.696525 
L 407.35644 238.384174 
L 408.401874 239.09647 
L 409.447307 239.246029 
L 410.49274 240.254728 
L 411.538173 239.349391 
L 412.583607 239.792784 
L 413.62904 238.781757 
L 414.674473 238.772611 
L 415.719906 236.708084 
L 416.76534 239.610722 
L 417.810773 239.757785 
L 418.856206 240.101501 
L 419.901639 238.571469 
L 420.947073 237.449785 
L 421.992506 237.898052 
L 423.037939 241.095856 
L 424.083372 240.761227 
L 425.128806 241.041427 
L 426.174239 242.031574 
L 427.219672 241.350079 
L 428.265105 240.236341 
L 429.310539 240.883648 
L 430.355972 240.750129 
L 431.401405 237.335669 
L 432.446838 239.523551 
L 433 239.60396 
M 433 242.116248 
L -1 242.116248 
L -1 242.116248 
" clip-path="url(#p471dc7c153)" style="fill: none; stroke: #da8bc3; stroke-opacity: 0.3; stroke-width: 1.5; stroke-linecap: round"/>
   </g>
   <g id="patch_3">
    <path d="M 54 252 
L 54 34.56 
" style="fill: none; stroke: #262626; stroke-width: 1.25; stroke-linejoin: miter; stroke-linecap: square"/>
   </g>
   <g id="patch_4">
    <path d="M 388.8 252 
L 388.8 34.56 
" style="fill: none; stroke: #262626; stroke-width: 1.25; stroke-linejoin: miter; stroke-linecap: square"/>
   </g>
   <g id="patch_5">
    <path d="M 54 252 
L 388.8 252 
" style="fill: none; stroke: #262626; stroke-width: 1.25; stroke-linejoin: miter; stroke-linecap: square"/>
   </g>
   <g id="patch_6">
    <path d="M 54 34.56 
L 388.8 34.56 
" style="fill: none; stroke: #262626; stroke-width: 1.25; stroke-linejoin: miter; stroke-linecap: square"/>
   </g>
   <g id="text_15">
    <!-- patient06_app09 - Power spectrum -->
    <g style="fill: #262626" transform="translate(128.0175 28.56)scale(0.12 -0.12)">
     <defs>
      <path id="ArialMT-70" d="M 422 -1272 
L 422 3319 
L 934 3319 
L 934 2888 
Q 1116 3141 1344 3267 
Q 1572 3394 1897 3394 
Q 2322 3394 2647 3175 
Q 2972 2956 3137 2557 
Q 3303 2159 3303 1684 
Q 3303 1175 3120 767 
Q 2938 359 2589 142 
Q 2241 -75 1856 -75 
Q 1575 -75 1351 44 
Q 1128 163 984 344 
L 984 -1272 
L 422 -1272 
z
M 931 1641 
Q 931 1000 1190 694 
Q 1450 388 1819 388 
Q 2194 388 2461 705 
Q 2728 1022 2728 1688 
Q 2728 2322 2467 2637 
Q 2206 2953 1844 2953 
Q 1484 2953 1207 2617 
Q 931 2281 931 1641 
z
" transform="scale(0.015625)"/>
      <path id="ArialMT-61" d="M 2588 409 
Q 2275 144 1986 34 
Q 1697 -75 1366 -75 
Q 819 -75 525 192 
Q 231 459 231 875 
Q 231 1119 342 1320 
Q 453 1522 633 1644 
Q 813 1766 1038 1828 
Q 1203 1872 1538 1913 
Q 2219 1994 2541 2106 
Q 2544 2222 2544 2253 
Q 2544 2597 2384 2738 
Q 2169 2928 1744 2928 
Q 1347 2928 1158 2789 
Q 969 2650 878 2297 
L 328 2372 
Q 403 2725 575 2942 
Q 747 3159 1072 3276 
Q 1397 3394 1825 3394 
Q 2250 3394 2515 3294 
Q 2781 3194 2906 3042 
Q 3031 2891 3081 2659 
Q 3109 2516 3109 2141 
L 3109 1391 
Q 3109 606 3145 398 
Q 3181 191 3288 0 
L 2700 0 
Q 2613 175 2588 409 
z
M 2541 1666 
Q 2234 1541 1622 1453 
Q 1275 1403 1131 1340 
Q 988 1278 909 1158 
Q 831 1038 831 891 
Q 831 666 1001 516 
Q 1172 366 1500 366 
Q 1825 366 2078 508 
Q 2331 650 2450 897 
Q 2541 1088 2541 1459 
L 2541 1666 
z
" transform="scale(0.015625)"/>
      <path id="ArialMT-74" d="M 1650 503 
L 1731 6 
Q 1494 -44 1306 -44 
Q 1000 -44 831 53 
Q 663 150 594 308 
Q 525 466 525 972 
L 525 2881 
L 113 2881 
L 113 3319 
L 525 3319 
L 525 4141 
L 1084 4478 
L 1084 3319 
L 1650 3319 
L 1650 2881 
L 1084 2881 
L 1084 941 
Q 1084 700 1114 631 
Q 1144 563 1211 522 
Q 1278 481 1403 481 
Q 1497 481 1650 503 
z
" transform="scale(0.015625)"/>
      <path id="ArialMT-69" d="M 425 3934 
L 425 4581 
L 988 4581 
L 988 3934 
L 425 3934 
z
M 425 0 
L 425 3319 
L 988 3319 
L 988 0 
L 425 0 
z
" transform="scale(0.015625)"/>
      <path id="ArialMT-5f" d="M -97 -1272 
L -97 -866 
L 3631 -866 
L 3631 -1272 
L -97 -1272 
z
" transform="scale(0.015625)"/>
      <path id="ArialMT-39" d="M 350 1059 
L 891 1109 
Q 959 728 1153 556 
Q 1347 384 1650 384 
Q 1909 384 2104 503 
Q 2300 622 2425 820 
Q 2550 1019 2634 1356 
Q 2719 1694 2719 2044 
Q 2719 2081 2716 2156 
Q 2547 1888 2255 1720 
Q 1963 1553 1622 1553 
Q 1053 1553 659 1965 
Q 266 2378 266 3053 
Q 266 3750 677 4175 
Q 1088 4600 1706 4600 
Q 2153 4600 2523 4359 
Q 2894 4119 3086 3673 
Q 3278 3228 3278 2384 
Q 3278 1506 3087 986 
Q 2897 466 2520 194 
Q 2144 -78 1638 -78 
Q 1100 -78 759 220 
Q 419 519 350 1059 
z
M 2653 3081 
Q 2653 3566 2395 3850 
Q 2138 4134 1775 4134 
Q 1400 4134 1122 3828 
Q 844 3522 844 3034 
Q 844 2597 1108 2323 
Q 1372 2050 1759 2050 
Q 2150 2050 2401 2323 
Q 2653 2597 2653 3081 
z
" transform="scale(0.015625)"/>
      <path id="ArialMT-2d" d="M 203 1375 
L 203 1941 
L 1931 1941 
L 1931 1375 
L 203 1375 
z
" transform="scale(0.015625)"/>
      <path id="ArialMT-50" d="M 494 0 
L 494 4581 
L 2222 4581 
Q 2678 4581 2919 4538 
Q 3256 4481 3484 4323 
Q 3713 4166 3852 3881 
Q 3991 3597 3991 3256 
Q 3991 2672 3619 2267 
Q 3247 1863 2275 1863 
L 1100 1863 
L 1100 0 
L 494 0 
z
M 1100 2403 
L 2284 2403 
Q 2872 2403 3119 2622 
Q 3366 2841 3366 3238 
Q 3366 3525 3220 3729 
Q 3075 3934 2838 4000 
Q 2684 4041 2272 4041 
L 1100 4041 
L 1100 2403 
z
" transform="scale(0.015625)"/>
      <path id="ArialMT-6f" d="M 213 1659 
Q 213 2581 725 3025 
Q 1153 3394 1769 3394 
Q 2453 3394 2887 2945 
Q 3322 2497 3322 1706 
Q 3322 1066 3130 698 
Q 2938 331 2570 128 
Q 2203 -75 1769 -75 
Q 1072 -75 642 372 
Q 213 819 213 1659 
z
M 791 1659 
Q 791 1022 1069 705 
Q 1347 388 1769 388 
Q 2188 388 2466 706 
Q 2744 1025 2744 1678 
Q 2744 2294 2464 2611 
Q 2184 2928 1769 2928 
Q 1347 2928 1069 2612 
Q 791 2297 791 1659 
z
" transform="scale(0.015625)"/>
      <path id="ArialMT-77" d="M 1034 0 
L 19 3319 
L 600 3319 
L 1128 1403 
L 1325 691 
Q 1338 744 1497 1375 
L 2025 3319 
L 2603 3319 
L 3100 1394 
L 3266 759 
L 3456 1400 
L 4025 3319 
L 4572 3319 
L 3534 0 
L 2950 0 
L 2422 1988 
L 2294 2553 
L 1622 0 
L 1034 0 
z
" transform="scale(0.015625)"/>
      <path id="ArialMT-73" d="M 197 991 
L 753 1078 
Q 800 744 1014 566 
Q 1228 388 1613 388 
Q 2000 388 2187 545 
Q 2375 703 2375 916 
Q 2375 1106 2209 1216 
Q 2094 1291 1634 1406 
Q 1016 1563 777 1677 
Q 538 1791 414 1992 
Q 291 2194 291 2438 
Q 291 2659 392 2848 
Q 494 3038 669 3163 
Q 800 3259 1026 3326 
Q 1253 3394 1513 3394 
Q 1903 3394 2198 3281 
Q 2494 3169 2634 2976 
Q 2775 2784 2828 2463 
L 2278 2388 
Q 2241 2644 2061 2787 
Q 1881 2931 1553 2931 
Q 1166 2931 1000 2803 
Q 834 2675 834 2503 
Q 834 2394 903 2306 
Q 972 2216 1119 2156 
Q 1203 2125 1616 2013 
Q 2213 1853 2448 1751 
Q 2684 1650 2818 1456 
Q 2953 1263 2953 975 
Q 2953 694 2789 445 
Q 2625 197 2315 61 
Q 2006 -75 1616 -75 
Q 969 -75 630 194 
Q 291 463 197 991 
z
" transform="scale(0.015625)"/>
      <path id="ArialMT-6d" d="M 422 0 
L 422 3319 
L 925 3319 
L 925 2853 
Q 1081 3097 1340 3245 
Q 1600 3394 1931 3394 
Q 2300 3394 2536 3241 
Q 2772 3088 2869 2813 
Q 3263 3394 3894 3394 
Q 4388 3394 4653 3120 
Q 4919 2847 4919 2278 
L 4919 0 
L 4359 0 
L 4359 2091 
Q 4359 2428 4304 2576 
Q 4250 2725 4106 2815 
Q 3963 2906 3769 2906 
Q 3419 2906 3187 2673 
Q 2956 2441 2956 1928 
L 2956 0 
L 2394 0 
L 2394 2156 
Q 2394 2531 2256 2718 
Q 2119 2906 1806 2906 
Q 1569 2906 1367 2781 
Q 1166 2656 1075 2415 
Q 984 2175 984 1722 
L 984 0 
L 422 0 
z
" transform="scale(0.015625)"/>
     </defs>
     <use xlink:href="#ArialMT-70"/>
     <use xlink:href="#ArialMT-61" x="55.615234"/>
     <use xlink:href="#ArialMT-74" x="111.230469"/>
     <use xlink:href="#ArialMT-69" x="139.013672"/>
     <use xlink:href="#ArialMT-65" x="161.230469"/>
     <use xlink:href="#ArialMT-6e" x="216.845703"/>
     <use xlink:href="#ArialMT-74" x="272.460938"/>
     <use xlink:href="#ArialMT-30" x="300.244141"/>
     <use xlink:href="#ArialMT-36" x="355.859375"/>
     <use xlink:href="#ArialMT-5f" x="411.474609"/>
     <use xlink:href="#ArialMT-61" x="467.089844"/>
     <use xlink:href="#ArialMT-70" x="522.705078"/>
     <use xlink:href="#ArialMT-70" x="578.320312"/>
     <use xlink:href="#ArialMT-30" x="633.935547"/>
     <use xlink:href="#ArialMT-39" x="689.550781"/>
     <use xlink:href="#ArialMT-20" x="745.166016"/>
     <use xlink:href="#ArialMT-2d" x="772.949219"/>
     <use xlink:href="#ArialMT-20" x="806.25"/>
     <use xlink:href="#ArialMT-50" x="834.033203"/>
     <use xlink:href="#ArialMT-6f" x="900.732422"/>
     <use xlink:href="#ArialMT-77" x="956.347656"/>
     <use xlink:href="#ArialMT-65" x="1028.564453"/>
     <use xlink:href="#ArialMT-72" x="1084.179688"/>
     <use xlink:href="#ArialMT-20" x="1117.480469"/>
     <use xlink:href="#ArialMT-73" x="1145.263672"/>
     <use xlink:href="#ArialMT-70" x="1195.263672"/>
     <use xlink:href="#ArialMT-65" x="1250.878906"/>
     <use xlink:href="#ArialMT-63" x="1306.494141"/>
     <use xlink:href="#ArialMT-74" x="1356.494141"/>
     <use xlink:href="#ArialMT-72" x="1384.277344"/>
     <use xlink:href="#ArialMT-75" x="1417.578125"/>
     <use xlink:href="#ArialMT-6d" x="1473.193359"/>
    </g>
   </g>
   <g id="legend_1">
    <g id="patch_7">
     <path d="M 313.503281 152.278906 
L 381.1 152.278906 
Q 383.3 152.278906 383.3 150.078906 
L 383.3 42.26 
Q 383.3 40.06 381.1 40.06 
L 313.503281 40.06 
Q 311.303281 40.06 311.303281 42.26 
L 311.303281 150.078906 
Q 311.303281 152.278906 313.503281 152.278906 
z
" style="fill: #ffffff; opacity: 0.8; stroke: #cccccc; stroke-linejoin: miter"/>
    </g>
    <g id="line2d_21">
     <path d="M 315.703281 48.483594 
L 326.703281 48.483594 
L 337.703281 48.483594 
" style="fill: none; stroke: #4c72b0; stroke-opacity: 0.3; stroke-width: 1.5; stroke-linecap: round"/>
    </g>
    <g id="text_16">
     <!-- IMU9 -->
     <g style="fill: #262626" transform="translate(346.503281 52.333594)scale(0.11 -0.11)">
      <defs>
       <path id="ArialMT-49" d="M 597 0 
L 597 4581 
L 1203 4581 
L 1203 0 
L 597 0 
z
" transform="scale(0.015625)"/>
       <path id="ArialMT-4d" d="M 475 0 
L 475 4581 
L 1388 4581 
L 2472 1338 
Q 2622 884 2691 659 
Q 2769 909 2934 1394 
L 4031 4581 
L 4847 4581 
L 4847 0 
L 4263 0 
L 4263 3834 
L 2931 0 
L 2384 0 
L 1059 3900 
L 1059 0 
L 475 0 
z
" transform="scale(0.015625)"/>
       <path id="ArialMT-55" d="M 3500 4581 
L 4106 4581 
L 4106 1934 
Q 4106 1244 3950 837 
Q 3794 431 3386 176 
Q 2978 -78 2316 -78 
Q 1672 -78 1262 144 
Q 853 366 678 786 
Q 503 1206 503 1934 
L 503 4581 
L 1109 4581 
L 1109 1938 
Q 1109 1341 1220 1058 
Q 1331 775 1601 622 
Q 1872 469 2263 469 
Q 2931 469 3215 772 
Q 3500 1075 3500 1938 
L 3500 4581 
z
" transform="scale(0.015625)"/>
      </defs>
      <use xlink:href="#ArialMT-49"/>
      <use xlink:href="#ArialMT-4d" x="27.783203"/>
      <use xlink:href="#ArialMT-55" x="111.083984"/>
      <use xlink:href="#ArialMT-39" x="183.300781"/>
     </g>
    </g>
    <g id="line2d_22">
     <path d="M 315.703281 64.043438 
L 326.703281 64.043438 
L 337.703281 64.043438 
" style="fill: none; stroke: #dd8452; stroke-opacity: 0.3; stroke-width: 1.5; stroke-linecap: round"/>
    </g>
    <g id="text_17">
     <!-- IMU10 -->
     <g style="fill: #262626" transform="translate(346.503281 67.893438)scale(0.11 -0.11)">
      <use xlink:href="#ArialMT-49"/>
      <use xlink:href="#ArialMT-4d" x="27.783203"/>
      <use xlink:href="#ArialMT-55" x="111.083984"/>
      <use xlink:href="#ArialMT-31" x="183.300781"/>
      <use xlink:href="#ArialMT-30" x="238.916016"/>
     </g>
    </g>
    <g id="line2d_23">
     <path d="M 315.703281 79.603281 
L 326.703281 79.603281 
L 337.703281 79.603281 
" style="fill: none; stroke: #55a868; stroke-opacity: 0.3; stroke-width: 1.5; stroke-linecap: round"/>
    </g>
    <g id="text_18">
     <!-- IMU11 -->
     <g style="fill: #262626" transform="translate(346.503281 83.453281)scale(0.11 -0.11)">
      <use xlink:href="#ArialMT-49"/>
      <use xlink:href="#ArialMT-4d" x="27.783203"/>
      <use xlink:href="#ArialMT-55" x="111.083984"/>
      <use xlink:href="#ArialMT-31" x="183.300781"/>
      <use xlink:href="#ArialMT-31" x="231.541016"/>
     </g>
    </g>
    <g id="line2d_24">
     <path d="M 315.703281 95.163125 
L 326.703281 95.163125 
L 337.703281 95.163125 
" style="fill: none; stroke: #c44e52; stroke-opacity: 0.3; stroke-width: 1.5; stroke-linecap: round"/>
    </g>
    <g id="text_19">
     <!-- IMU12 -->
     <g style="fill: #262626" transform="translate(346.503281 99.013125)scale(0.11 -0.11)">
      <use xlink:href="#ArialMT-49"/>
      <use xlink:href="#ArialMT-4d" x="27.783203"/>
      <use xlink:href="#ArialMT-55" x="111.083984"/>
      <use xlink:href="#ArialMT-31" x="183.300781"/>
      <use xlink:href="#ArialMT-32" x="238.916016"/>
     </g>
    </g>
    <g id="line2d_25">
     <path d="M 315.703281 110.722969 
L 326.703281 110.722969 
L 337.703281 110.722969 
" style="fill: none; stroke: #8172b3; stroke-opacity: 0.3; stroke-width: 1.5; stroke-linecap: round"/>
    </g>
    <g id="text_20">
     <!-- IMU13 -->
     <g style="fill: #262626" transform="translate(346.503281 114.572969)scale(0.11 -0.11)">
      <use xlink:href="#ArialMT-49"/>
      <use xlink:href="#ArialMT-4d" x="27.783203"/>
      <use xlink:href="#ArialMT-55" x="111.083984"/>
      <use xlink:href="#ArialMT-31" x="183.300781"/>
      <use xlink:href="#ArialMT-33" x="238.916016"/>
     </g>
    </g>
    <g id="line2d_26">
     <path d="M 315.703281 126.282813 
L 326.703281 126.282813 
L 337.703281 126.282813 
" style="fill: none; stroke: #937860; stroke-opacity: 0.3; stroke-width: 1.5; stroke-linecap: round"/>
    </g>
    <g id="text_21">
     <!-- IMU14 -->
     <g style="fill: #262626" transform="translate(346.503281 130.132812)scale(0.11 -0.11)">
      <use xlink:href="#ArialMT-49"/>
      <use xlink:href="#ArialMT-4d" x="27.783203"/>
      <use xlink:href="#ArialMT-55" x="111.083984"/>
      <use xlink:href="#ArialMT-31" x="183.300781"/>
      <use xlink:href="#ArialMT-34" x="238.916016"/>
     </g>
    </g>
    <g id="line2d_27">
     <path d="M 315.703281 141.842656 
L 326.703281 141.842656 
L 337.703281 141.842656 
" style="fill: none; stroke: #da8bc3; stroke-opacity: 0.3; stroke-width: 1.5; stroke-linecap: round"/>
    </g>
    <g id="text_22">
     <!-- IMU15 -->
     <g style="fill: #262626" transform="translate(346.503281 145.692656)scale(0.11 -0.11)">
      <use xlink:href="#ArialMT-49"/>
      <use xlink:href="#ArialMT-4d" x="27.783203"/>
      <use xlink:href="#ArialMT-55" x="111.083984"/>
      <use xlink:href="#ArialMT-31" x="183.300781"/>
      <use xlink:href="#ArialMT-35" x="238.916016"/>
     </g>
    </g>
   </g>
  </g>
 </g>
 <defs>
  <clipPath id="p471dc7c153">
   <rect x="54" y="34.56" width="334.8" height="217.44"/>
  </clipPath>
 </defs>
</svg>
