<?xml version="1.0" encoding="utf-8" standalone="no"?>
<!DOCTYPE svg PUBLIC "-//W3C//DTD SVG 1.1//EN"
  "http://www.w3.org/Graphics/SVG/1.1/DTD/svg11.dtd">
<svg xmlns:xlink="http://www.w3.org/1999/xlink" width="411.85pt" height="360pt" viewBox="0 0 411.85 360" xmlns="http://www.w3.org/2000/svg" version="1.1">
 <metadata>
  <rdf:RDF xmlns:dc="http://purl.org/dc/elements/1.1/" xmlns:cc="http://creativecommons.org/ns#" xmlns:rdf="http://www.w3.org/1999/02/22-rdf-syntax-ns#">
   <cc:Work>
    <dc:type rdf:resource="http://purl.org/dc/dcmitype/StillImage"/>
    <dc:date>2022-07-11T17:19:16.618890</dc:date>
    <dc:format>image/svg+xml</dc:format>
    <dc:creator>
     <cc:Agent>
      <dc:title>Matplotlib v3.5.1, https://matplotlib.org/</dc:title>
     </cc:Agent>
    </dc:creator>
   </cc:Work>
  </rdf:RDF>
 </metadata>
 <defs>
  <style type="text/css">*{stroke-linejoin: round; stroke-linecap: butt}</style>
 </defs>
 <g id="figure_1">
  <g id="patch_1">
   <path d="M 0 360 
L 411.85 360 
L 411.85 0 
L 0 0 
z
" style="fill: #ffffff"/>
  </g>
  <g id="axes_1">
   <g id="patch_2">
    <path d="M 66.361476 313.54 
L 355.8815 313.54 
L 355.8815 12.96 
L 66.361476 12.96 
z
" style="fill: #ffffff"/>
   </g>
   <g id="matplotlib.axis_1">
    <g id="xtick_1">
     <g id="line2d_1">
      <defs>
       <path id="me6b8aad760" d="M 0 0 
L 0 6 
" style="stroke: #262626; stroke-width: 1.25"/>
      </defs>
      <g>
       <use xlink:href="#me6b8aad760" x="85.291152" y="313.54" style="fill: #262626; stroke: #262626; stroke-width: 1.25"/>
      </g>
     </g>
     <g id="text_1">
      <!-- 14.0 -->
      <g style="fill: #262626" transform="translate(74.587637 330.913594)scale(0.11 -0.11)">
       <defs>
        <path id="ArialMT-31" d="M 2384 0 
L 1822 0 
L 1822 3584 
Q 1619 3391 1289 3197 
Q 959 3003 697 2906 
L 697 3450 
Q 1169 3672 1522 3987 
Q 1875 4303 2022 4600 
L 2384 4600 
L 2384 0 
z
" transform="scale(0.015625)"/>
        <path id="ArialMT-34" d="M 2069 0 
L 2069 1097 
L 81 1097 
L 81 1613 
L 2172 4581 
L 2631 4581 
L 2631 1613 
L 3250 1613 
L 3250 1097 
L 2631 1097 
L 2631 0 
L 2069 0 
z
M 2069 1613 
L 2069 3678 
L 634 1613 
L 2069 1613 
z
" transform="scale(0.015625)"/>
        <path id="ArialMT-2e" d="M 581 0 
L 581 641 
L 1222 641 
L 1222 0 
L 581 0 
z
" transform="scale(0.015625)"/>
        <path id="ArialMT-30" d="M 266 2259 
Q 266 3072 433 3567 
Q 600 4063 929 4331 
Q 1259 4600 1759 4600 
Q 2128 4600 2406 4451 
Q 2684 4303 2865 4023 
Q 3047 3744 3150 3342 
Q 3253 2941 3253 2259 
Q 3253 1453 3087 958 
Q 2922 463 2592 192 
Q 2263 -78 1759 -78 
Q 1097 -78 719 397 
Q 266 969 266 2259 
z
M 844 2259 
Q 844 1131 1108 757 
Q 1372 384 1759 384 
Q 2147 384 2411 759 
Q 2675 1134 2675 2259 
Q 2675 3391 2411 3762 
Q 2147 4134 1753 4134 
Q 1366 4134 1134 3806 
Q 844 3388 844 2259 
z
" transform="scale(0.015625)"/>
       </defs>
       <use xlink:href="#ArialMT-31"/>
       <use xlink:href="#ArialMT-34" x="55.615234"/>
       <use xlink:href="#ArialMT-2e" x="111.230469"/>
       <use xlink:href="#ArialMT-30" x="139.013672"/>
      </g>
     </g>
    </g>
    <g id="xtick_2">
     <g id="line2d_2">
      <g>
       <use xlink:href="#me6b8aad760" x="122.978413" y="313.54" style="fill: #262626; stroke: #262626; stroke-width: 1.25"/>
      </g>
     </g>
     <g id="text_2">
      <!-- 14.5 -->
      <g style="fill: #262626" transform="translate(112.274897 330.913594)scale(0.11 -0.11)">
       <defs>
        <path id="ArialMT-35" d="M 266 1200 
L 856 1250 
Q 922 819 1161 601 
Q 1400 384 1738 384 
Q 2144 384 2425 690 
Q 2706 997 2706 1503 
Q 2706 1984 2436 2262 
Q 2166 2541 1728 2541 
Q 1456 2541 1237 2417 
Q 1019 2294 894 2097 
L 366 2166 
L 809 4519 
L 3088 4519 
L 3088 3981 
L 1259 3981 
L 1013 2750 
Q 1425 3038 1878 3038 
Q 2478 3038 2890 2622 
Q 3303 2206 3303 1553 
Q 3303 931 2941 478 
Q 2500 -78 1738 -78 
Q 1113 -78 717 272 
Q 322 622 266 1200 
z
" transform="scale(0.015625)"/>
       </defs>
       <use xlink:href="#ArialMT-31"/>
       <use xlink:href="#ArialMT-34" x="55.615234"/>
       <use xlink:href="#ArialMT-2e" x="111.230469"/>
       <use xlink:href="#ArialMT-35" x="139.013672"/>
      </g>
     </g>
    </g>
    <g id="xtick_3">
     <g id="line2d_3">
      <g>
       <use xlink:href="#me6b8aad760" x="160.665674" y="313.54" style="fill: #262626; stroke: #262626; stroke-width: 1.25"/>
      </g>
     </g>
     <g id="text_3">
      <!-- 15.0 -->
      <g style="fill: #262626" transform="translate(149.962158 330.913594)scale(0.11 -0.11)">
       <use xlink:href="#ArialMT-31"/>
       <use xlink:href="#ArialMT-35" x="55.615234"/>
       <use xlink:href="#ArialMT-2e" x="111.230469"/>
       <use xlink:href="#ArialMT-30" x="139.013672"/>
      </g>
     </g>
    </g>
    <g id="xtick_4">
     <g id="line2d_4">
      <g>
       <use xlink:href="#me6b8aad760" x="198.352934" y="313.54" style="fill: #262626; stroke: #262626; stroke-width: 1.25"/>
      </g>
     </g>
     <g id="text_4">
      <!-- 15.5 -->
      <g style="fill: #262626" transform="translate(187.649419 330.913594)scale(0.11 -0.11)">
       <use xlink:href="#ArialMT-31"/>
       <use xlink:href="#ArialMT-35" x="55.615234"/>
       <use xlink:href="#ArialMT-2e" x="111.230469"/>
       <use xlink:href="#ArialMT-35" x="139.013672"/>
      </g>
     </g>
    </g>
    <g id="xtick_5">
     <g id="line2d_5">
      <g>
       <use xlink:href="#me6b8aad760" x="236.040195" y="313.54" style="fill: #262626; stroke: #262626; stroke-width: 1.25"/>
      </g>
     </g>
     <g id="text_5">
      <!-- 16.0 -->
      <g style="fill: #262626" transform="translate(225.336679 330.913594)scale(0.11 -0.11)">
       <defs>
        <path id="ArialMT-36" d="M 3184 3459 
L 2625 3416 
Q 2550 3747 2413 3897 
Q 2184 4138 1850 4138 
Q 1581 4138 1378 3988 
Q 1113 3794 959 3422 
Q 806 3050 800 2363 
Q 1003 2672 1297 2822 
Q 1591 2972 1913 2972 
Q 2475 2972 2870 2558 
Q 3266 2144 3266 1488 
Q 3266 1056 3080 686 
Q 2894 316 2569 119 
Q 2244 -78 1831 -78 
Q 1128 -78 684 439 
Q 241 956 241 2144 
Q 241 3472 731 4075 
Q 1159 4600 1884 4600 
Q 2425 4600 2770 4297 
Q 3116 3994 3184 3459 
z
M 888 1484 
Q 888 1194 1011 928 
Q 1134 663 1356 523 
Q 1578 384 1822 384 
Q 2178 384 2434 671 
Q 2691 959 2691 1453 
Q 2691 1928 2437 2201 
Q 2184 2475 1800 2475 
Q 1419 2475 1153 2201 
Q 888 1928 888 1484 
z
" transform="scale(0.015625)"/>
       </defs>
       <use xlink:href="#ArialMT-31"/>
       <use xlink:href="#ArialMT-36" x="55.615234"/>
       <use xlink:href="#ArialMT-2e" x="111.230469"/>
       <use xlink:href="#ArialMT-30" x="139.013672"/>
      </g>
     </g>
    </g>
    <g id="xtick_6">
     <g id="line2d_6">
      <g>
       <use xlink:href="#me6b8aad760" x="273.727456" y="313.54" style="fill: #262626; stroke: #262626; stroke-width: 1.25"/>
      </g>
     </g>
     <g id="text_6">
      <!-- 16.5 -->
      <g style="fill: #262626" transform="translate(263.02394 330.913594)scale(0.11 -0.11)">
       <use xlink:href="#ArialMT-31"/>
       <use xlink:href="#ArialMT-36" x="55.615234"/>
       <use xlink:href="#ArialMT-2e" x="111.230469"/>
       <use xlink:href="#ArialMT-35" x="139.013672"/>
      </g>
     </g>
    </g>
    <g id="xtick_7">
     <g id="line2d_7">
      <g>
       <use xlink:href="#me6b8aad760" x="311.414716" y="313.54" style="fill: #262626; stroke: #262626; stroke-width: 1.25"/>
      </g>
     </g>
     <g id="text_7">
      <!-- 17.0 -->
      <g style="fill: #262626" transform="translate(300.711201 330.913594)scale(0.11 -0.11)">
       <defs>
        <path id="ArialMT-37" d="M 303 3981 
L 303 4522 
L 3269 4522 
L 3269 4084 
Q 2831 3619 2401 2847 
Q 1972 2075 1738 1259 
Q 1569 684 1522 0 
L 944 0 
Q 953 541 1156 1306 
Q 1359 2072 1739 2783 
Q 2119 3494 2547 3981 
L 303 3981 
z
" transform="scale(0.015625)"/>
       </defs>
       <use xlink:href="#ArialMT-31"/>
       <use xlink:href="#ArialMT-37" x="55.615234"/>
       <use xlink:href="#ArialMT-2e" x="111.230469"/>
       <use xlink:href="#ArialMT-30" x="139.013672"/>
      </g>
     </g>
    </g>
    <g id="xtick_8">
     <g id="line2d_8">
      <g>
       <use xlink:href="#me6b8aad760" x="349.101977" y="313.54" style="fill: #262626; stroke: #262626; stroke-width: 1.25"/>
      </g>
     </g>
     <g id="text_8">
      <!-- 17.5 -->
      <g style="fill: #262626" transform="translate(338.398461 330.913594)scale(0.11 -0.11)">
       <use xlink:href="#ArialMT-31"/>
       <use xlink:href="#ArialMT-37" x="55.615234"/>
       <use xlink:href="#ArialMT-2e" x="111.230469"/>
       <use xlink:href="#ArialMT-35" x="139.013672"/>
      </g>
     </g>
    </g>
    <g id="text_9">
     <!-- Vibration Frequency (Hz) -->
     <g style="fill: #262626" transform="translate(144.539301 345.835469)scale(0.12 -0.12)">
      <defs>
       <path id="ArialMT-56" d="M 1803 0 
L 28 4581 
L 684 4581 
L 1875 1253 
Q 2019 853 2116 503 
Q 2222 878 2363 1253 
L 3600 4581 
L 4219 4581 
L 2425 0 
L 1803 0 
z
" transform="scale(0.015625)"/>
       <path id="ArialMT-69" d="M 425 3934 
L 425 4581 
L 988 4581 
L 988 3934 
L 425 3934 
z
M 425 0 
L 425 3319 
L 988 3319 
L 988 0 
L 425 0 
z
" transform="scale(0.015625)"/>
       <path id="ArialMT-62" d="M 941 0 
L 419 0 
L 419 4581 
L 981 4581 
L 981 2947 
Q 1338 3394 1891 3394 
Q 2197 3394 2470 3270 
Q 2744 3147 2920 2923 
Q 3097 2700 3197 2384 
Q 3297 2069 3297 1709 
Q 3297 856 2875 390 
Q 2453 -75 1863 -75 
Q 1275 -75 941 416 
L 941 0 
z
M 934 1684 
Q 934 1088 1097 822 
Q 1363 388 1816 388 
Q 2184 388 2453 708 
Q 2722 1028 2722 1663 
Q 2722 2313 2464 2622 
Q 2206 2931 1841 2931 
Q 1472 2931 1203 2611 
Q 934 2291 934 1684 
z
" transform="scale(0.015625)"/>
       <path id="ArialMT-72" d="M 416 0 
L 416 3319 
L 922 3319 
L 922 2816 
Q 1116 3169 1280 3281 
Q 1444 3394 1641 3394 
Q 1925 3394 2219 3213 
L 2025 2691 
Q 1819 2813 1613 2813 
Q 1428 2813 1281 2702 
Q 1134 2591 1072 2394 
Q 978 2094 978 1738 
L 978 0 
L 416 0 
z
" transform="scale(0.015625)"/>
       <path id="ArialMT-61" d="M 2588 409 
Q 2275 144 1986 34 
Q 1697 -75 1366 -75 
Q 819 -75 525 192 
Q 231 459 231 875 
Q 231 1119 342 1320 
Q 453 1522 633 1644 
Q 813 1766 1038 1828 
Q 1203 1872 1538 1913 
Q 2219 1994 2541 2106 
Q 2544 2222 2544 2253 
Q 2544 2597 2384 2738 
Q 2169 2928 1744 2928 
Q 1347 2928 1158 2789 
Q 969 2650 878 2297 
L 328 2372 
Q 403 2725 575 2942 
Q 747 3159 1072 3276 
Q 1397 3394 1825 3394 
Q 2250 3394 2515 3294 
Q 2781 3194 2906 3042 
Q 3031 2891 3081 2659 
Q 3109 2516 3109 2141 
L 3109 1391 
Q 3109 606 3145 398 
Q 3181 191 3288 0 
L 2700 0 
Q 2613 175 2588 409 
z
M 2541 1666 
Q 2234 1541 1622 1453 
Q 1275 1403 1131 1340 
Q 988 1278 909 1158 
Q 831 1038 831 891 
Q 831 666 1001 516 
Q 1172 366 1500 366 
Q 1825 366 2078 508 
Q 2331 650 2450 897 
Q 2541 1088 2541 1459 
L 2541 1666 
z
" transform="scale(0.015625)"/>
       <path id="ArialMT-74" d="M 1650 503 
L 1731 6 
Q 1494 -44 1306 -44 
Q 1000 -44 831 53 
Q 663 150 594 308 
Q 525 466 525 972 
L 525 2881 
L 113 2881 
L 113 3319 
L 525 3319 
L 525 4141 
L 1084 4478 
L 1084 3319 
L 1650 3319 
L 1650 2881 
L 1084 2881 
L 1084 941 
Q 1084 700 1114 631 
Q 1144 563 1211 522 
Q 1278 481 1403 481 
Q 1497 481 1650 503 
z
" transform="scale(0.015625)"/>
       <path id="ArialMT-6f" d="M 213 1659 
Q 213 2581 725 3025 
Q 1153 3394 1769 3394 
Q 2453 3394 2887 2945 
Q 3322 2497 3322 1706 
Q 3322 1066 3130 698 
Q 2938 331 2570 128 
Q 2203 -75 1769 -75 
Q 1072 -75 642 372 
Q 213 819 213 1659 
z
M 791 1659 
Q 791 1022 1069 705 
Q 1347 388 1769 388 
Q 2188 388 2466 706 
Q 2744 1025 2744 1678 
Q 2744 2294 2464 2611 
Q 2184 2928 1769 2928 
Q 1347 2928 1069 2612 
Q 791 2297 791 1659 
z
" transform="scale(0.015625)"/>
       <path id="ArialMT-6e" d="M 422 0 
L 422 3319 
L 928 3319 
L 928 2847 
Q 1294 3394 1984 3394 
Q 2284 3394 2536 3286 
Q 2788 3178 2913 3003 
Q 3038 2828 3088 2588 
Q 3119 2431 3119 2041 
L 3119 0 
L 2556 0 
L 2556 2019 
Q 2556 2363 2490 2533 
Q 2425 2703 2258 2804 
Q 2091 2906 1866 2906 
Q 1506 2906 1245 2678 
Q 984 2450 984 1813 
L 984 0 
L 422 0 
z
" transform="scale(0.015625)"/>
       <path id="ArialMT-20" transform="scale(0.015625)"/>
       <path id="ArialMT-46" d="M 525 0 
L 525 4581 
L 3616 4581 
L 3616 4041 
L 1131 4041 
L 1131 2622 
L 3281 2622 
L 3281 2081 
L 1131 2081 
L 1131 0 
L 525 0 
z
" transform="scale(0.015625)"/>
       <path id="ArialMT-65" d="M 2694 1069 
L 3275 997 
Q 3138 488 2766 206 
Q 2394 -75 1816 -75 
Q 1088 -75 661 373 
Q 234 822 234 1631 
Q 234 2469 665 2931 
Q 1097 3394 1784 3394 
Q 2450 3394 2872 2941 
Q 3294 2488 3294 1666 
Q 3294 1616 3291 1516 
L 816 1516 
Q 847 969 1125 678 
Q 1403 388 1819 388 
Q 2128 388 2347 550 
Q 2566 713 2694 1069 
z
M 847 1978 
L 2700 1978 
Q 2663 2397 2488 2606 
Q 2219 2931 1791 2931 
Q 1403 2931 1139 2672 
Q 875 2413 847 1978 
z
" transform="scale(0.015625)"/>
       <path id="ArialMT-71" d="M 2538 -1272 
L 2538 353 
Q 2406 169 2170 47 
Q 1934 -75 1669 -75 
Q 1078 -75 651 397 
Q 225 869 225 1691 
Q 225 2191 398 2587 
Q 572 2984 901 3189 
Q 1231 3394 1625 3394 
Q 2241 3394 2594 2875 
L 2594 3319 
L 3100 3319 
L 3100 -1272 
L 2538 -1272 
z
M 803 1669 
Q 803 1028 1072 708 
Q 1341 388 1716 388 
Q 2075 388 2334 692 
Q 2594 997 2594 1619 
Q 2594 2281 2320 2615 
Q 2047 2950 1678 2950 
Q 1313 2950 1058 2639 
Q 803 2328 803 1669 
z
" transform="scale(0.015625)"/>
       <path id="ArialMT-75" d="M 2597 0 
L 2597 488 
Q 2209 -75 1544 -75 
Q 1250 -75 995 37 
Q 741 150 617 320 
Q 494 491 444 738 
Q 409 903 409 1263 
L 409 3319 
L 972 3319 
L 972 1478 
Q 972 1038 1006 884 
Q 1059 663 1231 536 
Q 1403 409 1656 409 
Q 1909 409 2131 539 
Q 2353 669 2445 892 
Q 2538 1116 2538 1541 
L 2538 3319 
L 3100 3319 
L 3100 0 
L 2597 0 
z
" transform="scale(0.015625)"/>
       <path id="ArialMT-63" d="M 2588 1216 
L 3141 1144 
Q 3050 572 2676 248 
Q 2303 -75 1759 -75 
Q 1078 -75 664 370 
Q 250 816 250 1647 
Q 250 2184 428 2587 
Q 606 2991 970 3192 
Q 1334 3394 1763 3394 
Q 2303 3394 2647 3120 
Q 2991 2847 3088 2344 
L 2541 2259 
Q 2463 2594 2264 2762 
Q 2066 2931 1784 2931 
Q 1359 2931 1093 2626 
Q 828 2322 828 1663 
Q 828 994 1084 691 
Q 1341 388 1753 388 
Q 2084 388 2306 591 
Q 2528 794 2588 1216 
z
" transform="scale(0.015625)"/>
       <path id="ArialMT-79" d="M 397 -1278 
L 334 -750 
Q 519 -800 656 -800 
Q 844 -800 956 -737 
Q 1069 -675 1141 -563 
Q 1194 -478 1313 -144 
Q 1328 -97 1363 -6 
L 103 3319 
L 709 3319 
L 1400 1397 
Q 1534 1031 1641 628 
Q 1738 1016 1872 1384 
L 2581 3319 
L 3144 3319 
L 1881 -56 
Q 1678 -603 1566 -809 
Q 1416 -1088 1222 -1217 
Q 1028 -1347 759 -1347 
Q 597 -1347 397 -1278 
z
" transform="scale(0.015625)"/>
       <path id="ArialMT-28" d="M 1497 -1347 
Q 1031 -759 709 28 
Q 388 816 388 1659 
Q 388 2403 628 3084 
Q 909 3875 1497 4659 
L 1900 4659 
Q 1522 4009 1400 3731 
Q 1209 3300 1100 2831 
Q 966 2247 966 1656 
Q 966 153 1900 -1347 
L 1497 -1347 
z
" transform="scale(0.015625)"/>
       <path id="ArialMT-48" d="M 513 0 
L 513 4581 
L 1119 4581 
L 1119 2700 
L 3500 2700 
L 3500 4581 
L 4106 4581 
L 4106 0 
L 3500 0 
L 3500 2159 
L 1119 2159 
L 1119 0 
L 513 0 
z
" transform="scale(0.015625)"/>
       <path id="ArialMT-7a" d="M 125 0 
L 125 456 
L 2238 2881 
Q 1878 2863 1603 2863 
L 250 2863 
L 250 3319 
L 2963 3319 
L 2963 2947 
L 1166 841 
L 819 456 
Q 1197 484 1528 484 
L 3063 484 
L 3063 0 
L 125 0 
z
" transform="scale(0.015625)"/>
       <path id="ArialMT-29" d="M 791 -1347 
L 388 -1347 
Q 1322 153 1322 1656 
Q 1322 2244 1188 2822 
Q 1081 3291 891 3722 
Q 769 4003 388 4659 
L 791 4659 
Q 1378 3875 1659 3084 
Q 1900 2403 1900 1659 
Q 1900 816 1576 28 
Q 1253 -759 791 -1347 
z
" transform="scale(0.015625)"/>
      </defs>
      <use xlink:href="#ArialMT-56"/>
      <use xlink:href="#ArialMT-69" x="64.949219"/>
      <use xlink:href="#ArialMT-62" x="87.166016"/>
      <use xlink:href="#ArialMT-72" x="142.78125"/>
      <use xlink:href="#ArialMT-61" x="176.082031"/>
      <use xlink:href="#ArialMT-74" x="231.697266"/>
      <use xlink:href="#ArialMT-69" x="259.480469"/>
      <use xlink:href="#ArialMT-6f" x="281.697266"/>
      <use xlink:href="#ArialMT-6e" x="337.3125"/>
      <use xlink:href="#ArialMT-20" x="392.927734"/>
      <use xlink:href="#ArialMT-46" x="420.710938"/>
      <use xlink:href="#ArialMT-72" x="481.794922"/>
      <use xlink:href="#ArialMT-65" x="515.095703"/>
      <use xlink:href="#ArialMT-71" x="570.710938"/>
      <use xlink:href="#ArialMT-75" x="626.326172"/>
      <use xlink:href="#ArialMT-65" x="681.941406"/>
      <use xlink:href="#ArialMT-6e" x="737.556641"/>
      <use xlink:href="#ArialMT-63" x="793.171875"/>
      <use xlink:href="#ArialMT-79" x="843.171875"/>
      <use xlink:href="#ArialMT-20" x="893.171875"/>
      <use xlink:href="#ArialMT-28" x="920.955078"/>
      <use xlink:href="#ArialMT-48" x="954.255859"/>
      <use xlink:href="#ArialMT-7a" x="1026.472656"/>
      <use xlink:href="#ArialMT-29" x="1076.472656"/>
     </g>
    </g>
   </g>
   <g id="matplotlib.axis_2">
    <g id="ytick_1">
     <g id="line2d_9">
      <defs>
       <path id="mfb213926b3" d="M 0 0 
L -6 0 
" style="stroke: #262626; stroke-width: 1.25"/>
      </defs>
      <g>
       <use xlink:href="#mfb213926b3" x="66.361476" y="295.258624" style="fill: #262626; stroke: #262626; stroke-width: 1.25"/>
      </g>
     </g>
     <g id="text_10">
      <!-- 0.02 -->
      <g style="fill: #262626" transform="translate(35.454445 299.195421)scale(0.11 -0.11)">
       <defs>
        <path id="ArialMT-32" d="M 3222 541 
L 3222 0 
L 194 0 
Q 188 203 259 391 
Q 375 700 629 1000 
Q 884 1300 1366 1694 
Q 2113 2306 2375 2664 
Q 2638 3022 2638 3341 
Q 2638 3675 2398 3904 
Q 2159 4134 1775 4134 
Q 1369 4134 1125 3890 
Q 881 3647 878 3216 
L 300 3275 
Q 359 3922 746 4261 
Q 1134 4600 1788 4600 
Q 2447 4600 2831 4234 
Q 3216 3869 3216 3328 
Q 3216 3053 3103 2787 
Q 2991 2522 2730 2228 
Q 2469 1934 1863 1422 
Q 1356 997 1212 845 
Q 1069 694 975 541 
L 3222 541 
z
" transform="scale(0.015625)"/>
       </defs>
       <use xlink:href="#ArialMT-30"/>
       <use xlink:href="#ArialMT-2e" x="55.615234"/>
       <use xlink:href="#ArialMT-30" x="83.398438"/>
       <use xlink:href="#ArialMT-32" x="139.013672"/>
      </g>
     </g>
    </g>
    <g id="ytick_2">
     <g id="line2d_10">
      <g>
       <use xlink:href="#mfb213926b3" x="66.361476" y="232.925284" style="fill: #262626; stroke: #262626; stroke-width: 1.25"/>
      </g>
     </g>
     <g id="text_11">
      <!-- 0.04 -->
      <g style="fill: #262626" transform="translate(35.454445 236.862081)scale(0.11 -0.11)">
       <use xlink:href="#ArialMT-30"/>
       <use xlink:href="#ArialMT-2e" x="55.615234"/>
       <use xlink:href="#ArialMT-30" x="83.398438"/>
       <use xlink:href="#ArialMT-34" x="139.013672"/>
      </g>
     </g>
    </g>
    <g id="ytick_3">
     <g id="line2d_11">
      <g>
       <use xlink:href="#mfb213926b3" x="66.361476" y="170.591944" style="fill: #262626; stroke: #262626; stroke-width: 1.25"/>
      </g>
     </g>
     <g id="text_12">
      <!-- 0.06 -->
      <g style="fill: #262626" transform="translate(35.454445 174.528741)scale(0.11 -0.11)">
       <use xlink:href="#ArialMT-30"/>
       <use xlink:href="#ArialMT-2e" x="55.615234"/>
       <use xlink:href="#ArialMT-30" x="83.398438"/>
       <use xlink:href="#ArialMT-36" x="139.013672"/>
      </g>
     </g>
    </g>
    <g id="ytick_4">
     <g id="line2d_12">
      <g>
       <use xlink:href="#mfb213926b3" x="66.361476" y="108.258604" style="fill: #262626; stroke: #262626; stroke-width: 1.25"/>
      </g>
     </g>
     <g id="text_13">
      <!-- 0.08 -->
      <g style="fill: #262626" transform="translate(35.454445 112.195401)scale(0.11 -0.11)">
       <defs>
        <path id="ArialMT-38" d="M 1131 2484 
Q 781 2613 612 2850 
Q 444 3088 444 3419 
Q 444 3919 803 4259 
Q 1163 4600 1759 4600 
Q 2359 4600 2725 4251 
Q 3091 3903 3091 3403 
Q 3091 3084 2923 2848 
Q 2756 2613 2416 2484 
Q 2838 2347 3058 2040 
Q 3278 1734 3278 1309 
Q 3278 722 2862 322 
Q 2447 -78 1769 -78 
Q 1091 -78 675 323 
Q 259 725 259 1325 
Q 259 1772 486 2073 
Q 713 2375 1131 2484 
z
M 1019 3438 
Q 1019 3113 1228 2906 
Q 1438 2700 1772 2700 
Q 2097 2700 2305 2904 
Q 2513 3109 2513 3406 
Q 2513 3716 2298 3927 
Q 2084 4138 1766 4138 
Q 1444 4138 1231 3931 
Q 1019 3725 1019 3438 
z
M 838 1322 
Q 838 1081 952 856 
Q 1066 631 1291 507 
Q 1516 384 1775 384 
Q 2178 384 2440 643 
Q 2703 903 2703 1303 
Q 2703 1709 2433 1975 
Q 2163 2241 1756 2241 
Q 1359 2241 1098 1978 
Q 838 1716 838 1322 
z
" transform="scale(0.015625)"/>
       </defs>
       <use xlink:href="#ArialMT-30"/>
       <use xlink:href="#ArialMT-2e" x="55.615234"/>
       <use xlink:href="#ArialMT-30" x="83.398438"/>
       <use xlink:href="#ArialMT-38" x="139.013672"/>
      </g>
     </g>
    </g>
    <g id="ytick_5">
     <g id="line2d_13">
      <g>
       <use xlink:href="#mfb213926b3" x="66.361476" y="45.925264" style="fill: #262626; stroke: #262626; stroke-width: 1.25"/>
      </g>
     </g>
     <g id="text_14">
      <!-- 0.10 -->
      <g style="fill: #262626" transform="translate(35.454445 49.862061)scale(0.11 -0.11)">
       <use xlink:href="#ArialMT-30"/>
       <use xlink:href="#ArialMT-2e" x="55.615234"/>
       <use xlink:href="#ArialMT-31" x="83.398438"/>
       <use xlink:href="#ArialMT-30" x="139.013672"/>
      </g>
     </g>
    </g>
    <g id="text_15">
     <!-- Vibration Amplitude -->
     <g style="fill: #262626" transform="translate(29.069445 214.840625)rotate(-90)scale(0.12 -0.12)">
      <defs>
       <path id="ArialMT-41" d="M -9 0 
L 1750 4581 
L 2403 4581 
L 4278 0 
L 3588 0 
L 3053 1388 
L 1138 1388 
L 634 0 
L -9 0 
z
M 1313 1881 
L 2866 1881 
L 2388 3150 
Q 2169 3728 2063 4100 
Q 1975 3659 1816 3225 
L 1313 1881 
z
" transform="scale(0.015625)"/>
       <path id="ArialMT-6d" d="M 422 0 
L 422 3319 
L 925 3319 
L 925 2853 
Q 1081 3097 1340 3245 
Q 1600 3394 1931 3394 
Q 2300 3394 2536 3241 
Q 2772 3088 2869 2813 
Q 3263 3394 3894 3394 
Q 4388 3394 4653 3120 
Q 4919 2847 4919 2278 
L 4919 0 
L 4359 0 
L 4359 2091 
Q 4359 2428 4304 2576 
Q 4250 2725 4106 2815 
Q 3963 2906 3769 2906 
Q 3419 2906 3187 2673 
Q 2956 2441 2956 1928 
L 2956 0 
L 2394 0 
L 2394 2156 
Q 2394 2531 2256 2718 
Q 2119 2906 1806 2906 
Q 1569 2906 1367 2781 
Q 1166 2656 1075 2415 
Q 984 2175 984 1722 
L 984 0 
L 422 0 
z
" transform="scale(0.015625)"/>
       <path id="ArialMT-70" d="M 422 -1272 
L 422 3319 
L 934 3319 
L 934 2888 
Q 1116 3141 1344 3267 
Q 1572 3394 1897 3394 
Q 2322 3394 2647 3175 
Q 2972 2956 3137 2557 
Q 3303 2159 3303 1684 
Q 3303 1175 3120 767 
Q 2938 359 2589 142 
Q 2241 -75 1856 -75 
Q 1575 -75 1351 44 
Q 1128 163 984 344 
L 984 -1272 
L 422 -1272 
z
M 931 1641 
Q 931 1000 1190 694 
Q 1450 388 1819 388 
Q 2194 388 2461 705 
Q 2728 1022 2728 1688 
Q 2728 2322 2467 2637 
Q 2206 2953 1844 2953 
Q 1484 2953 1207 2617 
Q 931 2281 931 1641 
z
" transform="scale(0.015625)"/>
       <path id="ArialMT-6c" d="M 409 0 
L 409 4581 
L 972 4581 
L 972 0 
L 409 0 
z
" transform="scale(0.015625)"/>
       <path id="ArialMT-64" d="M 2575 0 
L 2575 419 
Q 2259 -75 1647 -75 
Q 1250 -75 917 144 
Q 584 363 401 755 
Q 219 1147 219 1656 
Q 219 2153 384 2558 
Q 550 2963 881 3178 
Q 1213 3394 1622 3394 
Q 1922 3394 2156 3267 
Q 2391 3141 2538 2938 
L 2538 4581 
L 3097 4581 
L 3097 0 
L 2575 0 
z
M 797 1656 
Q 797 1019 1065 703 
Q 1334 388 1700 388 
Q 2069 388 2326 689 
Q 2584 991 2584 1609 
Q 2584 2291 2321 2609 
Q 2059 2928 1675 2928 
Q 1300 2928 1048 2622 
Q 797 2316 797 1656 
z
" transform="scale(0.015625)"/>
      </defs>
      <use xlink:href="#ArialMT-56"/>
      <use xlink:href="#ArialMT-69" x="64.949219"/>
      <use xlink:href="#ArialMT-62" x="87.166016"/>
      <use xlink:href="#ArialMT-72" x="142.78125"/>
      <use xlink:href="#ArialMT-61" x="176.082031"/>
      <use xlink:href="#ArialMT-74" x="231.697266"/>
      <use xlink:href="#ArialMT-69" x="259.480469"/>
      <use xlink:href="#ArialMT-6f" x="281.697266"/>
      <use xlink:href="#ArialMT-6e" x="337.3125"/>
      <use xlink:href="#ArialMT-20" x="392.927734"/>
      <use xlink:href="#ArialMT-41" x="415.210938"/>
      <use xlink:href="#ArialMT-6d" x="481.910156"/>
      <use xlink:href="#ArialMT-70" x="565.210938"/>
      <use xlink:href="#ArialMT-6c" x="620.826172"/>
      <use xlink:href="#ArialMT-69" x="643.042969"/>
      <use xlink:href="#ArialMT-74" x="665.259766"/>
      <use xlink:href="#ArialMT-75" x="693.042969"/>
      <use xlink:href="#ArialMT-64" x="748.658203"/>
      <use xlink:href="#ArialMT-65" x="804.273438"/>
     </g>
    </g>
   </g>
   <g id="PathCollection_1">
    <defs>
     <path id="m9763b7ae76" d="M 0 3 
C 0.795609 3 1.55874 2.683901 2.12132 2.12132 
C 2.683901 1.55874 3 0.795609 3 0 
C 3 -0.795609 2.683901 -1.55874 2.12132 -2.12132 
C 1.55874 -2.683901 0.795609 -3 0 -3 
C -0.795609 -3 -1.55874 -2.683901 -2.12132 -2.12132 
C -2.683901 -1.55874 -3 -0.795609 -3 0 
C -3 0.795609 -2.683901 1.55874 -2.12132 2.12132 
C -1.55874 2.683901 -0.795609 3 0 3 
z
" style="stroke: #4c72b0; stroke-opacity: 0.8"/>
    </defs>
    <g clip-path="url(#p9752c1e0e6)">
     <use xlink:href="#m9763b7ae76" x="320.618326" y="70.419409" style="fill: #4c72b0; fill-opacity: 0.8; stroke: #4c72b0; stroke-opacity: 0.8"/>
     <use xlink:href="#m9763b7ae76" x="319.390112" y="120.840391" style="fill: #4c72b0; fill-opacity: 0.8; stroke: #4c72b0; stroke-opacity: 0.8"/>
     <use xlink:href="#m9763b7ae76" x="310.75285" y="44.487389" style="fill: #4c72b0; fill-opacity: 0.8; stroke: #4c72b0; stroke-opacity: 0.8"/>
     <use xlink:href="#m9763b7ae76" x="342.721499" y="46.459473" style="fill: #4c72b0; fill-opacity: 0.8; stroke: #4c72b0; stroke-opacity: 0.8"/>
     <use xlink:href="#m9763b7ae76" x="305.010775" y="85.35806" style="fill: #4c72b0; fill-opacity: 0.8; stroke: #4c72b0; stroke-opacity: 0.8"/>
     <use xlink:href="#m9763b7ae76" x="319.250558" y="90.695987" style="fill: #4c72b0; fill-opacity: 0.8; stroke: #4c72b0; stroke-opacity: 0.8"/>
     <use xlink:href="#m9763b7ae76" x="320.854714" y="54.842454" style="fill: #4c72b0; fill-opacity: 0.8; stroke: #4c72b0; stroke-opacity: 0.8"/>
     <use xlink:href="#m9763b7ae76" x="320.77131" y="75.054208" style="fill: #4c72b0; fill-opacity: 0.8; stroke: #4c72b0; stroke-opacity: 0.8"/>
    </g>
   </g>
   <g id="PolyCollection_1">
    <defs>
     <path id="m71c6b148e5" d="M 305.010775 -333.377273 
L 305.010775 -227.733025 
L 305.391692 -228.604404 
L 305.772608 -229.480815 
L 306.153524 -230.3662 
L 306.534441 -231.251585 
L 306.915357 -232.13697 
L 307.296274 -233.022355 
L 307.67719 -233.90774 
L 308.058106 -234.793125 
L 308.439023 -235.67851 
L 308.819939 -236.563895 
L 309.200856 -237.44928 
L 309.581772 -238.334665 
L 309.962688 -239.22005 
L 310.343605 -240.105435 
L 310.724521 -240.99082 
L 311.105438 -241.876205 
L 311.486354 -242.76159 
L 311.86727 -243.646975 
L 312.248187 -244.53236 
L 312.629103 -245.417745 
L 313.01002 -246.30313 
L 313.390936 -247.188515 
L 313.771852 -248.0739 
L 314.152769 -248.959285 
L 314.533685 -249.84467 
L 314.914602 -250.730055 
L 315.295518 -251.61544 
L 315.676434 -252.500825 
L 316.057351 -253.38621 
L 316.438267 -254.271595 
L 316.819184 -255.15698 
L 317.2001 -256.042365 
L 317.581017 -256.92775 
L 317.961933 -257.813135 
L 318.342849 -258.222363 
L 318.723766 -259.080984 
L 319.104682 -261.366429 
L 319.485599 -262.566762 
L 319.866515 -264.037921 
L 320.247431 -264.2067 
L 320.628348 -264.022298 
L 321.009264 -263.894547 
L 321.390181 -263.425897 
L 321.771097 -262.753251 
L 322.152013 -262.096431 
L 322.53293 -261.084757 
L 322.913846 -260.370321 
L 323.294763 -259.670088 
L 323.675679 -258.173401 
L 324.056595 -256.838856 
L 324.437512 -255.298143 
L 324.818428 -254.080404 
L 325.199345 -252.525234 
L 325.580261 -251.402982 
L 325.961177 -250.141054 
L 326.342094 -248.624497 
L 326.72301 -247.107939 
L 327.103927 -245.591382 
L 327.484843 -244.035726 
L 327.865759 -242.471048 
L 328.246676 -240.921725 
L 328.627592 -239.550598 
L 329.008509 -238.035041 
L 329.389425 -236.840855 
L 329.770341 -235.4915 
L 330.151258 -233.919719 
L 330.532174 -232.347938 
L 330.913091 -230.776157 
L 331.294007 -229.204376 
L 331.674923 -227.632595 
L 332.05584 -226.060814 
L 332.436756 -224.489033 
L 332.817673 -222.917252 
L 333.198589 -221.363914 
L 333.579505 -219.932228 
L 333.960422 -218.486266 
L 334.341338 -216.930495 
L 334.722255 -215.374724 
L 335.103171 -213.818952 
L 335.484087 -212.270572 
L 335.865004 -210.755014 
L 336.24592 -209.239457 
L 336.626837 -207.7239 
L 337.007753 -206.208343 
L 337.388669 -204.692786 
L 337.769586 -203.177229 
L 338.150502 -201.661672 
L 338.531419 -200.146115 
L 338.912335 -198.630558 
L 339.293251 -197.115001 
L 339.674168 -195.599444 
L 340.055084 -194.083887 
L 340.436001 -192.56833 
L 340.816917 -191.052773 
L 341.197833 -189.537216 
L 341.57875 -188.021659 
L 341.959666 -186.506102 
L 342.340583 -184.990545 
L 342.721499 -183.474988 
L 342.721499 -323.475559 
L 342.721499 -323.475559 
L 342.340583 -322.933917 
L 341.959666 -322.392274 
L 341.57875 -321.850631 
L 341.197833 -321.308988 
L 340.816917 -320.767345 
L 340.436001 -320.225703 
L 340.055084 -319.68406 
L 339.674168 -319.142417 
L 339.293251 -318.600774 
L 338.912335 -318.059132 
L 338.531419 -317.517489 
L 338.150502 -316.975846 
L 337.769586 -316.434203 
L 337.388669 -315.913413 
L 337.007753 -315.575833 
L 336.626837 -315.238253 
L 336.24592 -314.900674 
L 335.865004 -314.563094 
L 335.484087 -314.225514 
L 335.103171 -313.887934 
L 334.722255 -313.550354 
L 334.341338 -313.05099 
L 333.960422 -312.500205 
L 333.579505 -311.949419 
L 333.198589 -311.398634 
L 332.817673 -310.847848 
L 332.436756 -310.308037 
L 332.05584 -309.97092 
L 331.674923 -309.63274 
L 331.294007 -309.294559 
L 330.913091 -308.956379 
L 330.532174 -308.618199 
L 330.151258 -308.280019 
L 329.770341 -307.997459 
L 329.389425 -307.611968 
L 329.008509 -307.281245 
L 328.627592 -306.950521 
L 328.246676 -306.619798 
L 327.865759 -306.289074 
L 327.484843 -305.964658 
L 327.103927 -305.777788 
L 326.72301 -305.622581 
L 326.342094 -305.407574 
L 325.961177 -305.23022 
L 325.580261 -305.259461 
L 325.199345 -305.252117 
L 324.818428 -304.925278 
L 324.437512 -304.886566 
L 324.056595 -304.787833 
L 323.675679 -304.578276 
L 323.294763 -304.36872 
L 322.913846 -304.157645 
L 322.53293 -303.945204 
L 322.152013 -303.732763 
L 321.771097 -303.420417 
L 321.390181 -303.068967 
L 321.009264 -301.010617 
L 320.628348 -300.036256 
L 320.247431 -299.839611 
L 319.866515 -299.804048 
L 319.485599 -299.735622 
L 319.104682 -299.629219 
L 318.723766 -299.521859 
L 318.342849 -299.291338 
L 317.961933 -299.304765 
L 317.581017 -299.219005 
L 317.2001 -299.435081 
L 316.819184 -299.439086 
L 316.438267 -299.378116 
L 316.057351 -300.0202 
L 315.676434 -299.872107 
L 315.295518 -300.357923 
L 314.914602 -300.405002 
L 314.533685 -300.980324 
L 314.152769 -301.897451 
L 313.771852 -302.37302 
L 313.390936 -303.530282 
L 313.01002 -304.660266 
L 312.629103 -305.678256 
L 312.248187 -306.798928 
L 311.86727 -308.386474 
L 311.486354 -309.785625 
L 311.105438 -310.854678 
L 310.724521 -312.200115 
L 310.343605 -313.461355 
L 309.962688 -314.759351 
L 309.581772 -316.311389 
L 309.200856 -317.406155 
L 308.819939 -319.147199 
L 308.439023 -320.560941 
L 308.058106 -321.591249 
L 307.67719 -322.906235 
L 307.296274 -324.114623 
L 306.915357 -325.700219 
L 306.534441 -327.433784 
L 306.153524 -328.970427 
L 305.772608 -330.484281 
L 305.391692 -332.000491 
L 305.010775 -333.377273 
z
" style="stroke: #ffffff; stroke-opacity: 0.15"/>
    </defs>
    <g clip-path="url(#p9752c1e0e6)">
     <use xlink:href="#m71c6b148e5" x="0" y="360" style="fill: #4c72b0; fill-opacity: 0.15; stroke: #ffffff; stroke-opacity: 0.15"/>
    </g>
   </g>
   <g id="PathCollection_2">
    <defs>
     <path id="m2375865916" d="M 0 3 
C 0.795609 3 1.55874 2.683901 2.12132 2.12132 
C 2.683901 1.55874 3 0.795609 3 0 
C 3 -0.795609 2.683901 -1.55874 2.12132 -2.12132 
C 1.55874 -2.683901 0.795609 -3 0 -3 
C -0.795609 -3 -1.55874 -2.683901 -2.12132 -2.12132 
C -2.683901 -1.55874 -3 -0.795609 -3 0 
C -3 0.795609 -2.683901 1.55874 -2.12132 2.12132 
C -1.55874 2.683901 -0.795609 3 0 3 
z
" style="stroke: #dd8452; stroke-opacity: 0.8"/>
    </defs>
    <g clip-path="url(#p9752c1e0e6)">
     <use xlink:href="#m2375865916" x="108.801019" y="231.350746" style="fill: #dd8452; fill-opacity: 0.8; stroke: #dd8452; stroke-opacity: 0.8"/>
     <use xlink:href="#m2375865916" x="100.378785" y="225.612126" style="fill: #dd8452; fill-opacity: 0.8; stroke: #dd8452; stroke-opacity: 0.8"/>
     <use xlink:href="#m2375865916" x="86.073819" y="243.431209" style="fill: #dd8452; fill-opacity: 0.8; stroke: #dd8452; stroke-opacity: 0.8"/>
     <use xlink:href="#m2375865916" x="79.521477" y="246.018052" style="fill: #dd8452; fill-opacity: 0.8; stroke: #dd8452; stroke-opacity: 0.8"/>
     <use xlink:href="#m2375865916" x="84.465809" y="280.232438" style="fill: #dd8452; fill-opacity: 0.8; stroke: #dd8452; stroke-opacity: 0.8"/>
     <use xlink:href="#m2375865916" x="85.344993" y="270.299492" style="fill: #dd8452; fill-opacity: 0.8; stroke: #dd8452; stroke-opacity: 0.8"/>
     <use xlink:href="#m2375865916" x="93.712019" y="268.251074" style="fill: #dd8452; fill-opacity: 0.8; stroke: #dd8452; stroke-opacity: 0.8"/>
     <use xlink:href="#m2375865916" x="85.796425" y="249.887032" style="fill: #dd8452; fill-opacity: 0.8; stroke: #dd8452; stroke-opacity: 0.8"/>
     <use xlink:href="#m2375865916" x="90.723105" y="257.674535" style="fill: #dd8452; fill-opacity: 0.8; stroke: #dd8452; stroke-opacity: 0.8"/>
    </g>
   </g>
   <g id="PolyCollection_2">
    <defs>
     <path id="me44e2ad58f" d="M 79.521477 -111.660597 
L 79.521477 -75.434941 
L 79.81723 -76.044608 
L 80.112983 -76.615457 
L 80.408736 -77.186306 
L 80.704489 -77.757155 
L 81.000242 -78.328004 
L 81.295995 -78.898852 
L 81.591748 -79.471563 
L 81.887501 -80.050528 
L 82.183254 -80.79164 
L 82.479007 -81.624181 
L 82.77476 -82.456925 
L 83.070513 -83.296422 
L 83.366266 -84.02923 
L 83.662019 -84.598602 
L 83.957772 -85.175604 
L 84.253525 -85.741555 
L 84.549277 -86.316367 
L 84.84503 -86.883129 
L 85.140783 -87.518584 
L 85.436536 -88.328939 
L 85.732289 -89.145701 
L 86.028042 -89.779357 
L 86.323795 -90.340063 
L 86.619548 -90.829247 
L 86.915301 -91.161153 
L 87.211054 -91.426215 
L 87.506807 -91.99023 
L 87.80256 -92.236648 
L 88.098313 -92.61637 
L 88.394066 -93.179922 
L 88.689819 -93.367002 
L 88.985572 -93.768677 
L 89.281325 -94.025486 
L 89.577078 -93.975903 
L 89.872831 -93.703488 
L 90.168584 -93.878041 
L 90.464336 -93.778759 
L 90.760089 -93.610668 
L 91.055842 -93.76844 
L 91.351595 -93.961424 
L 91.647348 -93.924219 
L 91.943101 -93.921868 
L 92.238854 -93.502822 
L 92.534607 -93.402928 
L 92.83036 -93.385831 
L 93.126113 -93.368734 
L 93.421866 -93.354421 
L 93.717619 -93.156276 
L 94.013372 -92.710875 
L 94.309125 -92.265473 
L 94.604878 -91.871326 
L 94.900631 -91.635512 
L 95.196384 -91.111371 
L 95.492137 -90.589362 
L 95.78789 -90.339458 
L 96.083642 -90.131143 
L 96.379395 -89.927314 
L 96.675148 -89.611175 
L 96.970901 -89.235441 
L 97.266654 -88.929837 
L 97.562407 -88.53244 
L 97.85816 -88.157409 
L 98.153913 -87.996481 
L 98.449666 -87.741268 
L 98.745419 -87.397691 
L 99.041172 -87.047739 
L 99.336925 -86.678271 
L 99.632678 -86.317128 
L 99.928431 -85.998494 
L 100.224184 -85.618417 
L 100.519937 -85.279546 
L 100.81569 -84.947824 
L 101.111443 -84.596993 
L 101.407196 -84.244924 
L 101.702948 -83.89421 
L 101.998701 -83.543496 
L 102.294454 -83.236981 
L 102.590207 -83.054255 
L 102.88596 -82.783648 
L 103.181713 -82.549629 
L 103.477466 -82.25143 
L 103.773219 -81.95494 
L 104.068972 -81.658449 
L 104.364725 -81.364222 
L 104.660478 -81.023547 
L 104.956231 -80.622831 
L 105.251984 -80.23755 
L 105.547737 -80.033381 
L 105.84349 -79.829211 
L 106.139243 -79.450587 
L 106.434996 -79.056698 
L 106.730749 -78.66281 
L 107.026502 -78.268921 
L 107.322255 -77.875032 
L 107.618007 -77.481144 
L 107.91376 -77.087255 
L 108.209513 -76.694043 
L 108.505266 -76.301543 
L 108.801019 -75.909043 
L 108.801019 -151.352169 
L 108.801019 -151.352169 
L 108.505266 -150.694178 
L 108.209513 -150.036187 
L 107.91376 -149.379066 
L 107.618007 -148.722934 
L 107.322255 -148.066056 
L 107.026502 -147.265931 
L 106.730749 -146.58262 
L 106.434996 -145.908298 
L 106.139243 -145.230836 
L 105.84349 -144.498571 
L 105.547737 -143.789722 
L 105.251984 -143.104229 
L 104.956231 -142.481089 
L 104.660478 -141.85503 
L 104.364725 -141.181589 
L 104.068972 -140.506758 
L 103.773219 -139.708948 
L 103.477466 -138.943106 
L 103.181713 -138.309387 
L 102.88596 -137.675668 
L 102.590207 -137.047648 
L 102.294454 -136.4572 
L 101.998701 -135.857485 
L 101.702948 -135.264094 
L 101.407196 -134.670704 
L 101.111443 -134.07469 
L 100.81569 -133.477995 
L 100.519937 -132.809234 
L 100.224184 -131.988263 
L 99.928431 -131.346848 
L 99.632678 -130.71486 
L 99.336925 -130.15361 
L 99.041172 -129.579291 
L 98.745419 -128.963316 
L 98.449666 -128.35383 
L 98.153913 -127.753733 
L 97.85816 -127.04097 
L 97.562407 -126.407095 
L 97.266654 -125.943136 
L 96.970901 -125.274251 
L 96.675148 -124.666654 
L 96.379395 -124.129564 
L 96.083642 -123.529704 
L 95.78789 -122.996617 
L 95.492137 -122.527168 
L 95.196384 -121.96508 
L 94.900631 -121.423614 
L 94.604878 -121.05033 
L 94.309125 -120.786088 
L 94.013372 -120.312332 
L 93.717619 -119.978604 
L 93.421866 -119.570701 
L 93.126113 -119.262644 
L 92.83036 -118.992963 
L 92.534607 -118.664288 
L 92.238854 -118.432197 
L 91.943101 -118.101679 
L 91.647348 -117.8081 
L 91.351595 -117.494778 
L 91.055842 -117.181847 
L 90.760089 -116.869936 
L 90.464336 -116.558465 
L 90.168584 -116.246993 
L 89.872831 -115.932995 
L 89.577078 -115.619903 
L 89.281325 -115.306437 
L 88.985572 -114.986178 
L 88.689819 -114.690878 
L 88.394066 -114.475881 
L 88.098313 -114.240051 
L 87.80256 -113.99135 
L 87.506807 -113.774368 
L 87.211054 -113.555039 
L 86.915301 -113.335657 
L 86.619548 -113.116275 
L 86.323795 -112.883045 
L 86.028042 -112.615693 
L 85.732289 -112.420244 
L 85.436536 -112.225348 
L 85.140783 -111.951285 
L 84.84503 -111.779148 
L 84.549277 -111.588956 
L 84.253525 -111.374062 
L 83.957772 -111.157826 
L 83.662019 -111.231361 
L 83.366266 -111.088602 
L 83.070513 -110.926696 
L 82.77476 -110.99477 
L 82.479007 -111.007793 
L 82.183254 -110.866916 
L 81.887501 -110.753786 
L 81.591748 -110.526195 
L 81.295995 -110.716026 
L 81.000242 -111.017704 
L 80.704489 -111.081128 
L 80.408736 -111.31763 
L 80.112983 -111.336148 
L 79.81723 -111.584984 
L 79.521477 -111.660597 
z
" style="stroke: #ffffff; stroke-opacity: 0.15"/>
    </defs>
    <g clip-path="url(#p9752c1e0e6)">
     <use xlink:href="#me44e2ad58f" x="0" y="360" style="fill: #dd8452; fill-opacity: 0.15; stroke: #ffffff; stroke-opacity: 0.15"/>
    </g>
   </g>
   <g id="PathCollection_3">
    <defs>
     <path id="mcc2f58cc88" d="M 0 3 
C 0.795609 3 1.55874 2.683901 2.12132 2.12132 
C 2.683901 1.55874 3 0.795609 3 0 
C 3 -0.795609 2.683901 -1.55874 2.12132 -2.12132 
C 1.55874 -2.683901 0.795609 -3 0 -3 
C -0.795609 -3 -1.55874 -2.683901 -2.12132 -2.12132 
C -2.683901 -1.55874 -3 -0.795609 -3 0 
C -3 0.795609 -2.683901 1.55874 -2.12132 2.12132 
C -1.55874 2.683901 -0.795609 3 0 3 
z
" style="stroke: #55a868; stroke-opacity: 0.8"/>
    </defs>
    <g clip-path="url(#p9752c1e0e6)">
     <use xlink:href="#mcc2f58cc88" x="161.515825" y="95.0525" style="fill: #55a868; fill-opacity: 0.8; stroke: #55a868; stroke-opacity: 0.8"/>
     <use xlink:href="#mcc2f58cc88" x="109.000026" y="209.522277" style="fill: #55a868; fill-opacity: 0.8; stroke: #55a868; stroke-opacity: 0.8"/>
     <use xlink:href="#mcc2f58cc88" x="139.411211" y="174.127079" style="fill: #55a868; fill-opacity: 0.8; stroke: #55a868; stroke-opacity: 0.8"/>
     <use xlink:href="#mcc2f58cc88" x="139.860345" y="129.725917" style="fill: #55a868; fill-opacity: 0.8; stroke: #55a868; stroke-opacity: 0.8"/>
     <use xlink:href="#mcc2f58cc88" x="137.50482" y="178.837104" style="fill: #55a868; fill-opacity: 0.8; stroke: #55a868; stroke-opacity: 0.8"/>
     <use xlink:href="#mcc2f58cc88" x="138.199966" y="149.686487" style="fill: #55a868; fill-opacity: 0.8; stroke: #55a868; stroke-opacity: 0.8"/>
     <use xlink:href="#mcc2f58cc88" x="131.888194" y="146.066448" style="fill: #55a868; fill-opacity: 0.8; stroke: #55a868; stroke-opacity: 0.8"/>
     <use xlink:href="#mcc2f58cc88" x="120.98767" y="172.40964" style="fill: #55a868; fill-opacity: 0.8; stroke: #55a868; stroke-opacity: 0.8"/>
     <use xlink:href="#mcc2f58cc88" x="139.689121" y="119.172131" style="fill: #55a868; fill-opacity: 0.8; stroke: #55a868; stroke-opacity: 0.8"/>
    </g>
   </g>
   <g id="PolyCollection_3">
    <defs>
     <path id="mc8d7f8ae46" d="M 109.000026 -182.479502 
L 109.000026 -132.73254 
L 109.530488 -134.0799 
L 110.060951 -135.427259 
L 110.591414 -136.774618 
L 111.121876 -138.121977 
L 111.652339 -139.469336 
L 112.182802 -140.816695 
L 112.713264 -142.001519 
L 113.243727 -143.177601 
L 113.774189 -144.353683 
L 114.304652 -145.535177 
L 114.835115 -146.88295 
L 115.365577 -148.235782 
L 115.89604 -149.589629 
L 116.426502 -150.943476 
L 116.956965 -152.318089 
L 117.487428 -153.731053 
L 118.01789 -155.144017 
L 118.548353 -156.455906 
L 119.078815 -157.714577 
L 119.609278 -159.056056 
L 120.139741 -160.405947 
L 120.670203 -161.699184 
L 121.200666 -162.891319 
L 121.731129 -164.083453 
L 122.261591 -165.275587 
L 122.792054 -166.507647 
L 123.322516 -167.762274 
L 123.852979 -169.0169 
L 124.383442 -170.271527 
L 124.913904 -171.526154 
L 125.444367 -172.56688 
L 125.974829 -174.035407 
L 126.505292 -175.290309 
L 127.035755 -176.517745 
L 127.566217 -177.493797 
L 128.09668 -178.453036 
L 128.627143 -179.571767 
L 129.157605 -181.050351 
L 129.688068 -182.411549 
L 130.21853 -183.132266 
L 130.748993 -184.313418 
L 131.279456 -185.509743 
L 131.809918 -186.746686 
L 132.340381 -187.893508 
L 132.870843 -188.97976 
L 133.401306 -190.086706 
L 133.931769 -190.969627 
L 134.462231 -192.247606 
L 134.992694 -192.938957 
L 135.523157 -193.340132 
L 136.053619 -194.195447 
L 136.584082 -195.512335 
L 137.114544 -195.978014 
L 137.645007 -197.072231 
L 138.17547 -198.375807 
L 138.705932 -199.415339 
L 139.236395 -199.797483 
L 139.766857 -200.037924 
L 140.29732 -200.563701 
L 140.827783 -201.049397 
L 141.358245 -201.243704 
L 141.888708 -201.768947 
L 142.419171 -202.309867 
L 142.949633 -202.746543 
L 143.480096 -203.490638 
L 144.010558 -204.234733 
L 144.541021 -204.978829 
L 145.071484 -205.722924 
L 145.601946 -205.709014 
L 146.132409 -206.015284 
L 146.662871 -205.797553 
L 147.193334 -206.27127 
L 147.723797 -206.890713 
L 148.254259 -207.510372 
L 148.784722 -208.018944 
L 149.315185 -208.094865 
L 149.845647 -208.717161 
L 150.37611 -209.345018 
L 150.906572 -209.972874 
L 151.437035 -210.60073 
L 151.967498 -211.228587 
L 152.49796 -211.856443 
L 153.028423 -212.484299 
L 153.558885 -213.113295 
L 154.089348 -213.742208 
L 154.619811 -214.143752 
L 155.150273 -214.545296 
L 155.680736 -214.94684 
L 156.211199 -215.396166 
L 156.741661 -216.04903 
L 157.272124 -216.46493 
L 157.802586 -216.888712 
L 158.333049 -217.567364 
L 158.863512 -218.236416 
L 159.393974 -218.62772 
L 159.924437 -219.022499 
L 160.454899 -219.369841 
L 160.985362 -219.628025 
L 161.515825 -220.163113 
L 161.515825 -279.969874 
L 161.515825 -279.969874 
L 160.985362 -278.724116 
L 160.454899 -277.478358 
L 159.924437 -276.232599 
L 159.393974 -274.986841 
L 158.863512 -273.711776 
L 158.333049 -272.429364 
L 157.802586 -271.146952 
L 157.272124 -269.870868 
L 156.741661 -268.623448 
L 156.211199 -267.376028 
L 155.680736 -266.128608 
L 155.150273 -264.879846 
L 154.619811 -263.63091 
L 154.089348 -262.364242 
L 153.558885 -261.064221 
L 153.028423 -259.871614 
L 152.49796 -258.600548 
L 151.967498 -257.297073 
L 151.437035 -255.992911 
L 150.906572 -254.688749 
L 150.37611 -253.384587 
L 149.845647 -252.109583 
L 149.315185 -250.80072 
L 148.784722 -249.566847 
L 148.254259 -248.368928 
L 147.723797 -247.171009 
L 147.193334 -246.067464 
L 146.662871 -244.774253 
L 146.132409 -243.575082 
L 145.601946 -242.375912 
L 145.071484 -241.175192 
L 144.541021 -239.9719 
L 144.010558 -238.783587 
L 143.480096 -237.584484 
L 142.949633 -236.389757 
L 142.419171 -235.154093 
L 141.888708 -233.904295 
L 141.358245 -232.791855 
L 140.827783 -231.667838 
L 140.29732 -230.54625 
L 139.766857 -229.388413 
L 139.236395 -228.004297 
L 138.705932 -226.992911 
L 138.17547 -225.604927 
L 137.645007 -224.399265 
L 137.114544 -223.208195 
L 136.584082 -222.069567 
L 136.053619 -220.826796 
L 135.523157 -219.601371 
L 134.992694 -218.296413 
L 134.462231 -217.218274 
L 133.931769 -216.149489 
L 133.401306 -214.889352 
L 132.870843 -213.686162 
L 132.340381 -212.593706 
L 131.809918 -211.514637 
L 131.279456 -210.847568 
L 130.748993 -209.842847 
L 130.21853 -208.925891 
L 129.688068 -207.961485 
L 129.157605 -207.03632 
L 128.627143 -206.077022 
L 128.09668 -204.867877 
L 127.566217 -204.02015 
L 127.035755 -203.078099 
L 126.505292 -201.84235 
L 125.974829 -200.822862 
L 125.444367 -199.79349 
L 124.913904 -198.853896 
L 124.383442 -198.215621 
L 123.852979 -197.230062 
L 123.322516 -196.926106 
L 122.792054 -196.249206 
L 122.261591 -195.387248 
L 121.731129 -194.70946 
L 121.200666 -194.194488 
L 120.670203 -193.419022 
L 120.139741 -192.561348 
L 119.609278 -191.701471 
L 119.078815 -190.870266 
L 118.548353 -190.478631 
L 118.01789 -189.558894 
L 117.487428 -189.375336 
L 116.956965 -188.928494 
L 116.426502 -188.494604 
L 115.89604 -187.958096 
L 115.365577 -187.159614 
L 114.835115 -186.848718 
L 114.304652 -186.567072 
L 113.774189 -186.282709 
L 113.243727 -185.99331 
L 112.713264 -185.703911 
L 112.182802 -185.412913 
L 111.652339 -184.78106 
L 111.121876 -184.494697 
L 110.591414 -183.99351 
L 110.060951 -183.489584 
L 109.530488 -182.984543 
L 109.000026 -182.479502 
z
" style="stroke: #ffffff; stroke-opacity: 0.15"/>
    </defs>
    <g clip-path="url(#p9752c1e0e6)">
     <use xlink:href="#mc8d7f8ae46" x="0" y="360" style="fill: #55a868; fill-opacity: 0.15; stroke: #ffffff; stroke-opacity: 0.15"/>
    </g>
   </g>
   <g id="PathCollection_4">
    <defs>
     <path id="m065062c041" d="M 0 3 
C 0.795609 3 1.55874 2.683901 2.12132 2.12132 
C 2.683901 1.55874 3 0.795609 3 0 
C 3 -0.795609 2.683901 -1.55874 2.12132 -2.12132 
C 1.55874 -2.683901 0.795609 -3 0 -3 
C -0.795609 -3 -1.55874 -2.683901 -2.12132 -2.12132 
C -2.683901 -1.55874 -3 -0.795609 -3 0 
C -3 0.795609 -2.683901 1.55874 -2.12132 2.12132 
C -1.55874 2.683901 -0.795609 3 0 3 
z
" style="stroke: #8172b3; stroke-opacity: 0.8"/>
    </defs>
    <g clip-path="url(#p9752c1e0e6)">
     <use xlink:href="#m065062c041" x="280.067362" y="245.778925" style="fill: #8172b3; fill-opacity: 0.8; stroke: #8172b3; stroke-opacity: 0.8"/>
     <use xlink:href="#m065062c041" x="290.580408" y="232.754875" style="fill: #8172b3; fill-opacity: 0.8; stroke: #8172b3; stroke-opacity: 0.8"/>
     <use xlink:href="#m065062c041" x="273.920728" y="236.646752" style="fill: #8172b3; fill-opacity: 0.8; stroke: #8172b3; stroke-opacity: 0.8"/>
     <use xlink:href="#m065062c041" x="282.315808" y="135.29992" style="fill: #8172b3; fill-opacity: 0.8; stroke: #8172b3; stroke-opacity: 0.8"/>
     <use xlink:href="#m065062c041" x="275.051008" y="190.541233" style="fill: #8172b3; fill-opacity: 0.8; stroke: #8172b3; stroke-opacity: 0.8"/>
     <use xlink:href="#m065062c041" x="281.099198" y="184.807361" style="fill: #8172b3; fill-opacity: 0.8; stroke: #8172b3; stroke-opacity: 0.8"/>
     <use xlink:href="#m065062c041" x="289.01091" y="251.776015" style="fill: #8172b3; fill-opacity: 0.8; stroke: #8172b3; stroke-opacity: 0.8"/>
     <use xlink:href="#m065062c041" x="275.359563" y="239.25892" style="fill: #8172b3; fill-opacity: 0.8; stroke: #8172b3; stroke-opacity: 0.8"/>
     <use xlink:href="#m065062c041" x="310.684766" y="122.654574" style="fill: #8172b3; fill-opacity: 0.8; stroke: #8172b3; stroke-opacity: 0.8"/>
    </g>
   </g>
   <g id="PolyCollection_4">
    <defs>
     <path id="mb36809f85d" d="M 273.920728 -178.975793 
L 273.920728 -102.47001 
L 274.292082 -104.21205 
L 274.663436 -105.349211 
L 275.03479 -106.486372 
L 275.406144 -107.631175 
L 275.777498 -108.727917 
L 276.148852 -109.764128 
L 276.520206 -111.06671 
L 276.891559 -112.193159 
L 277.262913 -113.353066 
L 277.634267 -114.565181 
L 278.005621 -115.718096 
L 278.376975 -116.778794 
L 278.748329 -117.769374 
L 279.119683 -118.77863 
L 279.491037 -119.490504 
L 279.862391 -120.429438 
L 280.233745 -121.360182 
L 280.605099 -121.529442 
L 280.976452 -121.836036 
L 281.347806 -122.114839 
L 281.71916 -122.162518 
L 282.090514 -121.834168 
L 282.461868 -121.487078 
L 282.833222 -121.387614 
L 283.204576 -121.042629 
L 283.57593 -121.400714 
L 283.947284 -121.686327 
L 284.318638 -121.952125 
L 284.689992 -121.487305 
L 285.061346 -121.347723 
L 285.432699 -120.899749 
L 285.804053 -120.616883 
L 286.175407 -120.557189 
L 286.546761 -120.298457 
L 286.918115 -120.202839 
L 287.289469 -119.727452 
L 287.660823 -119.307955 
L 288.032177 -118.58621 
L 288.403531 -118.082337 
L 288.774885 -117.651078 
L 289.146239 -116.942869 
L 289.517593 -116.41084 
L 289.888946 -115.975488 
L 290.2603 -115.756024 
L 290.631654 -115.399983 
L 291.003008 -114.169465 
L 291.374362 -113.28737 
L 291.745716 -112.594023 
L 292.11707 -111.721129 
L 292.488424 -111.326565 
L 292.859778 -110.529338 
L 293.231132 -109.344657 
L 293.602486 -108.75449 
L 293.973839 -108.291722 
L 294.345193 -107.765618 
L 294.716547 -107.239514 
L 295.087901 -106.232101 
L 295.459255 -105.158412 
L 295.830609 -104.088288 
L 296.201963 -103.023565 
L 296.573317 -101.826462 
L 296.944671 -99.911239 
L 297.316025 -99.21243 
L 297.687379 -98.575147 
L 298.058733 -97.716658 
L 298.430086 -96.665339 
L 298.80144 -95.476158 
L 299.172794 -94.291461 
L 299.544148 -93.060939 
L 299.915502 -91.980778 
L 300.286856 -91.114809 
L 300.65821 -90.24884 
L 301.029564 -89.229089 
L 301.400918 -88.08864 
L 301.772272 -86.314282 
L 302.143626 -85.406316 
L 302.51498 -84.53441 
L 302.886333 -83.662503 
L 303.257687 -82.790596 
L 303.629041 -81.812719 
L 304.000395 -80.753518 
L 304.371749 -79.631849 
L 304.743103 -78.365399 
L 305.114457 -77.376418 
L 305.485811 -76.247357 
L 305.857165 -74.98662 
L 306.228519 -73.740213 
L 306.599873 -72.863943 
L 306.971227 -71.965698 
L 307.34258 -70.719963 
L 307.713934 -69.474227 
L 308.085288 -68.228492 
L 308.456642 -66.982756 
L 308.827996 -65.737021 
L 309.19935 -64.492441 
L 309.570704 -63.253142 
L 309.942058 -62.01633 
L 310.313412 -60.916935 
L 310.684766 -60.122727 
L 310.684766 -261.435243 
L 310.684766 -261.435243 
L 310.313412 -260.303432 
L 309.942058 -259.17162 
L 309.570704 -258.039809 
L 309.19935 -256.907998 
L 308.827996 -255.776187 
L 308.456642 -254.644375 
L 308.085288 -253.512564 
L 307.713934 -252.380753 
L 307.34258 -251.248941 
L 306.971227 -250.11713 
L 306.599873 -248.985319 
L 306.228519 -247.853508 
L 305.857165 -246.721696 
L 305.485811 -245.589885 
L 305.114457 -244.458074 
L 304.743103 -243.326262 
L 304.371749 -242.194451 
L 304.000395 -241.06264 
L 303.629041 -239.930829 
L 303.257687 -238.701626 
L 302.886333 -237.372481 
L 302.51498 -236.043336 
L 302.143626 -234.815464 
L 301.772272 -233.686097 
L 301.400918 -232.55673 
L 301.029564 -231.427362 
L 300.65821 -230.297995 
L 300.286856 -229.168628 
L 299.915502 -228.03633 
L 299.544148 -226.898744 
L 299.172794 -225.764417 
L 298.80144 -224.634979 
L 298.430086 -223.505837 
L 298.058733 -222.377569 
L 297.687379 -221.2493 
L 297.316025 -220.121032 
L 296.944671 -218.992764 
L 296.573317 -217.864496 
L 296.201963 -216.736227 
L 295.830609 -215.607959 
L 295.459255 -214.851059 
L 295.087901 -214.02053 
L 294.716547 -212.905756 
L 294.345193 -211.790982 
L 293.973839 -210.676208 
L 293.602486 -209.561434 
L 293.231132 -208.435645 
L 292.859778 -207.32727 
L 292.488424 -206.241096 
L 292.11707 -205.154921 
L 291.745716 -204.068747 
L 291.374362 -202.982572 
L 291.003008 -201.896398 
L 290.631654 -200.810223 
L 290.2603 -199.953128 
L 289.888946 -199.170883 
L 289.517593 -198.267523 
L 289.146239 -197.43538 
L 288.774885 -196.603238 
L 288.403531 -195.771096 
L 288.032177 -194.933236 
L 287.660823 -194.087776 
L 287.289469 -193.258201 
L 286.918115 -192.139989 
L 286.546761 -191.030184 
L 286.175407 -190.17525 
L 285.804053 -189.320317 
L 285.432699 -188.465383 
L 285.061346 -187.61045 
L 284.689992 -186.755516 
L 284.318638 -186.216076 
L 283.947284 -185.726133 
L 283.57593 -184.899303 
L 283.204576 -184.072473 
L 282.833222 -182.941065 
L 282.461868 -182.300301 
L 282.090514 -181.557331 
L 281.71916 -180.224162 
L 281.347806 -178.802146 
L 280.976452 -178.00844 
L 280.605099 -177.336356 
L 280.233745 -176.507699 
L 279.862391 -176.052643 
L 279.491037 -175.131012 
L 279.119683 -174.875784 
L 278.748329 -174.838245 
L 278.376975 -173.240505 
L 278.005621 -173.93463 
L 277.634267 -174.391965 
L 277.262913 -174.338908 
L 276.891559 -174.914949 
L 276.520206 -174.678452 
L 276.148852 -175.504433 
L 275.777498 -176.030108 
L 275.406144 -176.037921 
L 275.03479 -176.676394 
L 274.663436 -177.444908 
L 274.292082 -178.200388 
L 273.920728 -178.975793 
z
" style="stroke: #ffffff; stroke-opacity: 0.15"/>
    </defs>
    <g clip-path="url(#p9752c1e0e6)">
     <use xlink:href="#mb36809f85d" x="0" y="360" style="fill: #8172b3; fill-opacity: 0.15; stroke: #ffffff; stroke-opacity: 0.15"/>
    </g>
   </g>
   <g id="line2d_14">
    <path d="M 305.010775 83.991713 
L 305.391692 83.724185 
L 305.772608 83.456657 
L 306.153524 83.18913 
L 306.534441 82.921602 
L 306.915357 82.654074 
L 307.296274 82.386546 
L 307.67719 82.119018 
L 308.058106 81.85149 
L 308.439023 81.583962 
L 308.819939 81.316434 
L 309.200856 81.048906 
L 309.581772 80.781379 
L 309.962688 80.513851 
L 310.343605 80.246323 
L 310.724521 79.978795 
L 311.105438 79.711267 
L 311.486354 79.443739 
L 311.86727 79.176211 
L 312.248187 78.908683 
L 312.629103 78.641156 
L 313.01002 78.373628 
L 313.390936 78.1061 
L 313.771852 77.838572 
L 314.152769 77.571044 
L 314.533685 77.303516 
L 314.914602 77.035988 
L 315.295518 76.76846 
L 315.676434 76.500933 
L 316.057351 76.233405 
L 316.438267 75.965877 
L 316.819184 75.698349 
L 317.2001 75.430821 
L 317.581017 75.163293 
L 317.961933 74.895765 
L 318.342849 74.628237 
L 318.723766 74.36071 
L 319.104682 74.093182 
L 319.485599 73.825654 
L 319.866515 73.558126 
L 320.247431 73.290598 
L 320.628348 73.02307 
L 321.009264 72.755542 
L 321.390181 72.488014 
L 321.771097 72.220487 
L 322.152013 71.952959 
L 322.53293 71.685431 
L 322.913846 71.417903 
L 323.294763 71.150375 
L 323.675679 70.882847 
L 324.056595 70.615319 
L 324.437512 70.347791 
L 324.818428 70.080263 
L 325.199345 69.812736 
L 325.580261 69.545208 
L 325.961177 69.27768 
L 326.342094 69.010152 
L 326.72301 68.742624 
L 327.103927 68.475096 
L 327.484843 68.207568 
L 327.865759 67.94004 
L 328.246676 67.672513 
L 328.627592 67.404985 
L 329.008509 67.137457 
L 329.389425 66.869929 
L 329.770341 66.602401 
L 330.151258 66.334873 
L 330.532174 66.067345 
L 330.913091 65.799817 
L 331.294007 65.53229 
L 331.674923 65.264762 
L 332.05584 64.997234 
L 332.436756 64.729706 
L 332.817673 64.462178 
L 333.198589 64.19465 
L 333.579505 63.927122 
L 333.960422 63.659594 
L 334.341338 63.392067 
L 334.722255 63.124539 
L 335.103171 62.857011 
L 335.484087 62.589483 
L 335.865004 62.321955 
L 336.24592 62.054427 
L 336.626837 61.786899 
L 337.007753 61.519371 
L 337.388669 61.251844 
L 337.769586 60.984316 
L 338.150502 60.716788 
L 338.531419 60.44926 
L 338.912335 60.181732 
L 339.293251 59.914204 
L 339.674168 59.646676 
L 340.055084 59.379148 
L 340.436001 59.11162 
L 340.816917 58.844093 
L 341.197833 58.576565 
L 341.57875 58.309037 
L 341.959666 58.041509 
L 342.340583 57.773981 
L 342.721499 57.506453 
" clip-path="url(#p9752c1e0e6)" style="fill: none; stroke: #4c72b0; stroke-width: 2.25; stroke-linecap: round"/>
   </g>
   <g id="line2d_15">
    <path d="M 79.521477 264.668908 
L 79.81723 264.342903 
L 80.112983 264.016897 
L 80.408736 263.690892 
L 80.704489 263.364887 
L 81.000242 263.038882 
L 81.295995 262.712876 
L 81.591748 262.386871 
L 81.887501 262.060866 
L 82.183254 261.734861 
L 82.479007 261.408856 
L 82.77476 261.08285 
L 83.070513 260.756845 
L 83.366266 260.43084 
L 83.662019 260.104835 
L 83.957772 259.77883 
L 84.253525 259.452824 
L 84.549277 259.126819 
L 84.84503 258.800814 
L 85.140783 258.474809 
L 85.436536 258.148803 
L 85.732289 257.822798 
L 86.028042 257.496793 
L 86.323795 257.170788 
L 86.619548 256.844783 
L 86.915301 256.518777 
L 87.211054 256.192772 
L 87.506807 255.866767 
L 87.80256 255.540762 
L 88.098313 255.214756 
L 88.394066 254.888751 
L 88.689819 254.562746 
L 88.985572 254.236741 
L 89.281325 253.910736 
L 89.577078 253.58473 
L 89.872831 253.258725 
L 90.168584 252.93272 
L 90.464336 252.606715 
L 90.760089 252.280709 
L 91.055842 251.954704 
L 91.351595 251.628699 
L 91.647348 251.302694 
L 91.943101 250.976689 
L 92.238854 250.650683 
L 92.534607 250.324678 
L 92.83036 249.998673 
L 93.126113 249.672668 
L 93.421866 249.346662 
L 93.717619 249.020657 
L 94.013372 248.694652 
L 94.309125 248.368647 
L 94.604878 248.042642 
L 94.900631 247.716636 
L 95.196384 247.390631 
L 95.492137 247.064626 
L 95.78789 246.738621 
L 96.083642 246.412616 
L 96.379395 246.08661 
L 96.675148 245.760605 
L 96.970901 245.4346 
L 97.266654 245.108595 
L 97.562407 244.782589 
L 97.85816 244.456584 
L 98.153913 244.130579 
L 98.449666 243.804574 
L 98.745419 243.478569 
L 99.041172 243.152563 
L 99.336925 242.826558 
L 99.632678 242.500553 
L 99.928431 242.174548 
L 100.224184 241.848542 
L 100.519937 241.522537 
L 100.81569 241.196532 
L 101.111443 240.870527 
L 101.407196 240.544522 
L 101.702948 240.218516 
L 101.998701 239.892511 
L 102.294454 239.566506 
L 102.590207 239.240501 
L 102.88596 238.914495 
L 103.181713 238.58849 
L 103.477466 238.262485 
L 103.773219 237.93648 
L 104.068972 237.610475 
L 104.364725 237.284469 
L 104.660478 236.958464 
L 104.956231 236.632459 
L 105.251984 236.306454 
L 105.547737 235.980448 
L 105.84349 235.654443 
L 106.139243 235.328438 
L 106.434996 235.002433 
L 106.730749 234.676428 
L 107.026502 234.350422 
L 107.322255 234.024417 
L 107.618007 233.698412 
L 107.91376 233.372407 
L 108.209513 233.046401 
L 108.505266 232.720396 
L 108.801019 232.394391 
" clip-path="url(#p9752c1e0e6)" style="fill: none; stroke: #dd8452; stroke-width: 2.25; stroke-linecap: round"/>
   </g>
   <g id="line2d_16">
    <path d="M 109.000026 206.184246 
L 109.530488 205.107781 
L 110.060951 204.031315 
L 110.591414 202.95485 
L 111.121876 201.878384 
L 111.652339 200.801919 
L 112.182802 199.725453 
L 112.713264 198.648988 
L 113.243727 197.572522 
L 113.774189 196.496057 
L 114.304652 195.419592 
L 114.835115 194.343126 
L 115.365577 193.266661 
L 115.89604 192.190195 
L 116.426502 191.11373 
L 116.956965 190.037264 
L 117.487428 188.960799 
L 118.01789 187.884333 
L 118.548353 186.807868 
L 119.078815 185.731402 
L 119.609278 184.654937 
L 120.139741 183.578471 
L 120.670203 182.502006 
L 121.200666 181.42554 
L 121.731129 180.349075 
L 122.261591 179.272609 
L 122.792054 178.196144 
L 123.322516 177.119678 
L 123.852979 176.043213 
L 124.383442 174.966747 
L 124.913904 173.890282 
L 125.444367 172.813816 
L 125.974829 171.737351 
L 126.505292 170.660885 
L 127.035755 169.58442 
L 127.566217 168.507954 
L 128.09668 167.431489 
L 128.627143 166.355023 
L 129.157605 165.278558 
L 129.688068 164.202092 
L 130.21853 163.125627 
L 130.748993 162.049161 
L 131.279456 160.972696 
L 131.809918 159.89623 
L 132.340381 158.819765 
L 132.870843 157.743299 
L 133.401306 156.666834 
L 133.931769 155.590368 
L 134.462231 154.513903 
L 134.992694 153.437437 
L 135.523157 152.360972 
L 136.053619 151.284506 
L 136.584082 150.208041 
L 137.114544 149.131575 
L 137.645007 148.05511 
L 138.17547 146.978644 
L 138.705932 145.902179 
L 139.236395 144.825713 
L 139.766857 143.749248 
L 140.29732 142.672782 
L 140.827783 141.596317 
L 141.358245 140.519851 
L 141.888708 139.443386 
L 142.419171 138.36692 
L 142.949633 137.290455 
L 143.480096 136.213989 
L 144.010558 135.137524 
L 144.541021 134.061059 
L 145.071484 132.984593 
L 145.601946 131.908128 
L 146.132409 130.831662 
L 146.662871 129.755197 
L 147.193334 128.678731 
L 147.723797 127.602266 
L 148.254259 126.5258 
L 148.784722 125.449335 
L 149.315185 124.372869 
L 149.845647 123.296404 
L 150.37611 122.219938 
L 150.906572 121.143473 
L 151.437035 120.067007 
L 151.967498 118.990542 
L 152.49796 117.914076 
L 153.028423 116.837611 
L 153.558885 115.761145 
L 154.089348 114.68468 
L 154.619811 113.608214 
L 155.150273 112.531749 
L 155.680736 111.455283 
L 156.211199 110.378818 
L 156.741661 109.302352 
L 157.272124 108.225887 
L 157.802586 107.149421 
L 158.333049 106.072956 
L 158.863512 104.99649 
L 159.393974 103.920025 
L 159.924437 102.843559 
L 160.454899 101.767094 
L 160.985362 100.690628 
L 161.515825 99.614163 
" clip-path="url(#p9752c1e0e6)" style="fill: none; stroke: #55a868; stroke-width: 2.25; stroke-linecap: round"/>
   </g>
   <g id="line2d_17">
    <path d="M 273.920728 226.20662 
L 274.292082 225.420957 
L 274.663436 224.635295 
L 275.03479 223.849632 
L 275.406144 223.063969 
L 275.777498 222.278307 
L 276.148852 221.492644 
L 276.520206 220.706982 
L 276.891559 219.921319 
L 277.262913 219.135656 
L 277.634267 218.349994 
L 278.005621 217.564331 
L 278.376975 216.778669 
L 278.748329 215.993006 
L 279.119683 215.207344 
L 279.491037 214.421681 
L 279.862391 213.636018 
L 280.233745 212.850356 
L 280.605099 212.064693 
L 280.976452 211.279031 
L 281.347806 210.493368 
L 281.71916 209.707705 
L 282.090514 208.922043 
L 282.461868 208.13638 
L 282.833222 207.350718 
L 283.204576 206.565055 
L 283.57593 205.779393 
L 283.947284 204.99373 
L 284.318638 204.208067 
L 284.689992 203.422405 
L 285.061346 202.636742 
L 285.432699 201.85108 
L 285.804053 201.065417 
L 286.175407 200.279754 
L 286.546761 199.494092 
L 286.918115 198.708429 
L 287.289469 197.922767 
L 287.660823 197.137104 
L 288.032177 196.351442 
L 288.403531 195.565779 
L 288.774885 194.780116 
L 289.146239 193.994454 
L 289.517593 193.208791 
L 289.888946 192.423129 
L 290.2603 191.637466 
L 290.631654 190.851803 
L 291.003008 190.066141 
L 291.374362 189.280478 
L 291.745716 188.494816 
L 292.11707 187.709153 
L 292.488424 186.923491 
L 292.859778 186.137828 
L 293.231132 185.352165 
L 293.602486 184.566503 
L 293.973839 183.78084 
L 294.345193 182.995178 
L 294.716547 182.209515 
L 295.087901 181.423852 
L 295.459255 180.63819 
L 295.830609 179.852527 
L 296.201963 179.066865 
L 296.573317 178.281202 
L 296.944671 177.495539 
L 297.316025 176.709877 
L 297.687379 175.924214 
L 298.058733 175.138552 
L 298.430086 174.352889 
L 298.80144 173.567227 
L 299.172794 172.781564 
L 299.544148 171.995901 
L 299.915502 171.210239 
L 300.286856 170.424576 
L 300.65821 169.638914 
L 301.029564 168.853251 
L 301.400918 168.067588 
L 301.772272 167.281926 
L 302.143626 166.496263 
L 302.51498 165.710601 
L 302.886333 164.924938 
L 303.257687 164.139276 
L 303.629041 163.353613 
L 304.000395 162.56795 
L 304.371749 161.782288 
L 304.743103 160.996625 
L 305.114457 160.210963 
L 305.485811 159.4253 
L 305.857165 158.639637 
L 306.228519 157.853975 
L 306.599873 157.068312 
L 306.971227 156.28265 
L 307.34258 155.496987 
L 307.713934 154.711325 
L 308.085288 153.925662 
L 308.456642 153.139999 
L 308.827996 152.354337 
L 309.19935 151.568674 
L 309.570704 150.783012 
L 309.942058 149.997349 
L 310.313412 149.211686 
L 310.684766 148.426024 
" clip-path="url(#p9752c1e0e6)" style="fill: none; stroke: #8172b3; stroke-width: 2.25; stroke-linecap: round"/>
   </g>
   <g id="patch_3">
    <path d="M 66.361476 313.54 
L 66.361476 12.96 
" style="fill: none; stroke: #262626; stroke-width: 1.25; stroke-linejoin: miter; stroke-linecap: square"/>
   </g>
   <g id="patch_4">
    <path d="M 66.361476 313.54 
L 355.8815 313.54 
" style="fill: none; stroke: #262626; stroke-width: 1.25; stroke-linejoin: miter; stroke-linecap: square"/>
   </g>
  </g>
  <g id="legend_1">
   <g id="text_16">
    <!-- Patient -->
    <g style="fill: #262626" transform="translate(361.754219 144.202578)scale(0.12 -0.12)">
     <defs>
      <path id="ArialMT-50" d="M 494 0 
L 494 4581 
L 2222 4581 
Q 2678 4581 2919 4538 
Q 3256 4481 3484 4323 
Q 3713 4166 3852 3881 
Q 3991 3597 3991 3256 
Q 3991 2672 3619 2267 
Q 3247 1863 2275 1863 
L 1100 1863 
L 1100 0 
L 494 0 
z
M 1100 2403 
L 2284 2403 
Q 2872 2403 3119 2622 
Q 3366 2841 3366 3238 
Q 3366 3525 3220 3729 
Q 3075 3934 2838 4000 
Q 2684 4041 2272 4041 
L 1100 4041 
L 1100 2403 
z
" transform="scale(0.015625)"/>
     </defs>
     <use xlink:href="#ArialMT-50"/>
     <use xlink:href="#ArialMT-61" x="66.699219"/>
     <use xlink:href="#ArialMT-74" x="122.314453"/>
     <use xlink:href="#ArialMT-69" x="150.097656"/>
     <use xlink:href="#ArialMT-65" x="172.314453"/>
     <use xlink:href="#ArialMT-6e" x="227.929688"/>
     <use xlink:href="#ArialMT-74" x="283.544922"/>
    </g>
   </g>
   <g id="PathCollection_5">
    <g>
     <use xlink:href="#m9763b7ae76" x="369.915937" y="157.073672" style="fill: #4c72b0; fill-opacity: 0.8; stroke: #4c72b0; stroke-opacity: 0.8"/>
    </g>
   </g>
   <g id="text_17">
    <!-- 6 -->
    <g style="fill: #262626" transform="translate(389.715937 159.961172)scale(0.11 -0.11)">
     <use xlink:href="#ArialMT-36"/>
    </g>
   </g>
   <g id="PathCollection_6">
    <g>
     <use xlink:href="#m2375865916" x="369.915937" y="172.633516" style="fill: #dd8452; fill-opacity: 0.8; stroke: #dd8452; stroke-opacity: 0.8"/>
    </g>
   </g>
   <g id="text_18">
    <!-- 7 -->
    <g style="fill: #262626" transform="translate(389.715937 175.521016)scale(0.11 -0.11)">
     <use xlink:href="#ArialMT-37"/>
    </g>
   </g>
   <g id="PathCollection_7">
    <g>
     <use xlink:href="#mcc2f58cc88" x="369.915937" y="188.193359" style="fill: #55a868; fill-opacity: 0.8; stroke: #55a868; stroke-opacity: 0.8"/>
    </g>
   </g>
   <g id="text_19">
    <!-- 9 -->
    <g style="fill: #262626" transform="translate(389.715937 191.080859)scale(0.11 -0.11)">
     <defs>
      <path id="ArialMT-39" d="M 350 1059 
L 891 1109 
Q 959 728 1153 556 
Q 1347 384 1650 384 
Q 1909 384 2104 503 
Q 2300 622 2425 820 
Q 2550 1019 2634 1356 
Q 2719 1694 2719 2044 
Q 2719 2081 2716 2156 
Q 2547 1888 2255 1720 
Q 1963 1553 1622 1553 
Q 1053 1553 659 1965 
Q 266 2378 266 3053 
Q 266 3750 677 4175 
Q 1088 4600 1706 4600 
Q 2153 4600 2523 4359 
Q 2894 4119 3086 3673 
Q 3278 3228 3278 2384 
Q 3278 1506 3087 986 
Q 2897 466 2520 194 
Q 2144 -78 1638 -78 
Q 1100 -78 759 220 
Q 419 519 350 1059 
z
M 2653 3081 
Q 2653 3566 2395 3850 
Q 2138 4134 1775 4134 
Q 1400 4134 1122 3828 
Q 844 3522 844 3034 
Q 844 2597 1108 2323 
Q 1372 2050 1759 2050 
Q 2150 2050 2401 2323 
Q 2653 2597 2653 3081 
z
" transform="scale(0.015625)"/>
     </defs>
     <use xlink:href="#ArialMT-39"/>
    </g>
   </g>
   <g id="patch_5">
    <path d="M 358.915937 206.640703 
L 380.915937 206.640703 
L 380.915937 198.940703 
L 358.915937 198.940703 
L 358.915937 206.640703 
z
" style="fill: none; opacity: 0"/>
   </g>
   <g id="text_20">
    <!-- 14 -->
    <g style="fill: #262626" transform="translate(389.715937 206.640703)scale(0.11 -0.11)">
     <use xlink:href="#ArialMT-31"/>
     <use xlink:href="#ArialMT-34" x="55.615234"/>
    </g>
   </g>
   <g id="PathCollection_8">
    <g>
     <use xlink:href="#m065062c041" x="369.915937" y="219.313047" style="fill: #8172b3; fill-opacity: 0.8; stroke: #8172b3; stroke-opacity: 0.8"/>
    </g>
   </g>
   <g id="text_21">
    <!-- 15 -->
    <g style="fill: #262626" transform="translate(389.715937 222.200547)scale(0.11 -0.11)">
     <use xlink:href="#ArialMT-31"/>
     <use xlink:href="#ArialMT-35" x="55.615234"/>
    </g>
   </g>
  </g>
 </g>
 <defs>
  <clipPath id="p9752c1e0e6">
   <rect x="66.361476" y="12.96" width="289.520024" height="300.58"/>
  </clipPath>
 </defs>
</svg>
