<?xml version="1.0" encoding="utf-8" standalone="no"?>
<!DOCTYPE svg PUBLIC "-//W3C//DTD SVG 1.1//EN"
  "http://www.w3.org/Graphics/SVG/1.1/DTD/svg11.dtd">
<svg xmlns:xlink="http://www.w3.org/1999/xlink" width="432pt" height="288pt" viewBox="0 0 432 288" xmlns="http://www.w3.org/2000/svg" version="1.1">
 <metadata>
  <rdf:RDF xmlns:dc="http://purl.org/dc/elements/1.1/" xmlns:cc="http://creativecommons.org/ns#" xmlns:rdf="http://www.w3.org/1999/02/22-rdf-syntax-ns#">
   <cc:Work>
    <dc:type rdf:resource="http://purl.org/dc/dcmitype/StillImage"/>
    <dc:date>2022-07-08T10:01:02.174153</dc:date>
    <dc:format>image/svg+xml</dc:format>
    <dc:creator>
     <cc:Agent>
      <dc:title>Matplotlib v3.5.1, https://matplotlib.org/</dc:title>
     </cc:Agent>
    </dc:creator>
   </cc:Work>
  </rdf:RDF>
 </metadata>
 <defs>
  <style type="text/css">*{stroke-linejoin: round; stroke-linecap: butt}</style>
 </defs>
 <g id="figure_1">
  <g id="patch_1">
   <path d="M 0 288 
L 432 288 
L 432 0 
L 0 0 
z
" style="fill: #ffffff"/>
  </g>
  <g id="axes_1">
   <g id="patch_2">
    <path d="M 54 252 
L 388.8 252 
L 388.8 34.56 
L 54 34.56 
z
" style="fill: #ffffff"/>
   </g>
   <g id="matplotlib.axis_1">
    <g id="xtick_1">
     <g id="line2d_1">
      <defs>
       <path id="m0444707956" d="M 0 0 
L 0 6 
" style="stroke: #262626; stroke-width: 1.25"/>
      </defs>
      <g>
       <use xlink:href="#m0444707956" x="86.594356" y="252" style="fill: #262626; stroke: #262626; stroke-width: 1.25"/>
      </g>
     </g>
     <g id="text_1">
      <!-- 6 -->
      <g style="fill: #262626" transform="translate(83.535841 269.373594)scale(0.11 -0.11)">
       <defs>
        <path id="ArialMT-36" d="M 3184 3459 
L 2625 3416 
Q 2550 3747 2413 3897 
Q 2184 4138 1850 4138 
Q 1581 4138 1378 3988 
Q 1113 3794 959 3422 
Q 806 3050 800 2363 
Q 1003 2672 1297 2822 
Q 1591 2972 1913 2972 
Q 2475 2972 2870 2558 
Q 3266 2144 3266 1488 
Q 3266 1056 3080 686 
Q 2894 316 2569 119 
Q 2244 -78 1831 -78 
Q 1128 -78 684 439 
Q 241 956 241 2144 
Q 241 3472 731 4075 
Q 1159 4600 1884 4600 
Q 2425 4600 2770 4297 
Q 3116 3994 3184 3459 
z
M 888 1484 
Q 888 1194 1011 928 
Q 1134 663 1356 523 
Q 1578 384 1822 384 
Q 2178 384 2434 671 
Q 2691 959 2691 1453 
Q 2691 1928 2437 2201 
Q 2184 2475 1800 2475 
Q 1419 2475 1153 2201 
Q 888 1928 888 1484 
z
" transform="scale(0.015625)"/>
       </defs>
       <use xlink:href="#ArialMT-36"/>
      </g>
     </g>
    </g>
    <g id="xtick_2">
     <g id="line2d_2">
      <g>
       <use xlink:href="#m0444707956" x="136.866856" y="252" style="fill: #262626; stroke: #262626; stroke-width: 1.25"/>
      </g>
     </g>
     <g id="text_2">
      <!-- 8 -->
      <g style="fill: #262626" transform="translate(133.808341 269.373594)scale(0.11 -0.11)">
       <defs>
        <path id="ArialMT-38" d="M 1131 2484 
Q 781 2613 612 2850 
Q 444 3088 444 3419 
Q 444 3919 803 4259 
Q 1163 4600 1759 4600 
Q 2359 4600 2725 4251 
Q 3091 3903 3091 3403 
Q 3091 3084 2923 2848 
Q 2756 2613 2416 2484 
Q 2838 2347 3058 2040 
Q 3278 1734 3278 1309 
Q 3278 722 2862 322 
Q 2447 -78 1769 -78 
Q 1091 -78 675 323 
Q 259 725 259 1325 
Q 259 1772 486 2073 
Q 713 2375 1131 2484 
z
M 1019 3438 
Q 1019 3113 1228 2906 
Q 1438 2700 1772 2700 
Q 2097 2700 2305 2904 
Q 2513 3109 2513 3406 
Q 2513 3716 2298 3927 
Q 2084 4138 1766 4138 
Q 1444 4138 1231 3931 
Q 1019 3725 1019 3438 
z
M 838 1322 
Q 838 1081 952 856 
Q 1066 631 1291 507 
Q 1516 384 1775 384 
Q 2178 384 2440 643 
Q 2703 903 2703 1303 
Q 2703 1709 2433 1975 
Q 2163 2241 1756 2241 
Q 1359 2241 1098 1978 
Q 838 1716 838 1322 
z
" transform="scale(0.015625)"/>
       </defs>
       <use xlink:href="#ArialMT-38"/>
      </g>
     </g>
    </g>
    <g id="xtick_3">
     <g id="line2d_3">
      <g>
       <use xlink:href="#m0444707956" x="187.139356" y="252" style="fill: #262626; stroke: #262626; stroke-width: 1.25"/>
      </g>
     </g>
     <g id="text_3">
      <!-- 10 -->
      <g style="fill: #262626" transform="translate(181.022325 269.373594)scale(0.11 -0.11)">
       <defs>
        <path id="ArialMT-31" d="M 2384 0 
L 1822 0 
L 1822 3584 
Q 1619 3391 1289 3197 
Q 959 3003 697 2906 
L 697 3450 
Q 1169 3672 1522 3987 
Q 1875 4303 2022 4600 
L 2384 4600 
L 2384 0 
z
" transform="scale(0.015625)"/>
        <path id="ArialMT-30" d="M 266 2259 
Q 266 3072 433 3567 
Q 600 4063 929 4331 
Q 1259 4600 1759 4600 
Q 2128 4600 2406 4451 
Q 2684 4303 2865 4023 
Q 3047 3744 3150 3342 
Q 3253 2941 3253 2259 
Q 3253 1453 3087 958 
Q 2922 463 2592 192 
Q 2263 -78 1759 -78 
Q 1097 -78 719 397 
Q 266 969 266 2259 
z
M 844 2259 
Q 844 1131 1108 757 
Q 1372 384 1759 384 
Q 2147 384 2411 759 
Q 2675 1134 2675 2259 
Q 2675 3391 2411 3762 
Q 2147 4134 1753 4134 
Q 1366 4134 1134 3806 
Q 844 3388 844 2259 
z
" transform="scale(0.015625)"/>
       </defs>
       <use xlink:href="#ArialMT-31"/>
       <use xlink:href="#ArialMT-30" x="55.615234"/>
      </g>
     </g>
    </g>
    <g id="xtick_4">
     <g id="line2d_4">
      <g>
       <use xlink:href="#m0444707956" x="237.411856" y="252" style="fill: #262626; stroke: #262626; stroke-width: 1.25"/>
      </g>
     </g>
     <g id="text_4">
      <!-- 12 -->
      <g style="fill: #262626" transform="translate(231.294825 269.373594)scale(0.11 -0.11)">
       <defs>
        <path id="ArialMT-32" d="M 3222 541 
L 3222 0 
L 194 0 
Q 188 203 259 391 
Q 375 700 629 1000 
Q 884 1300 1366 1694 
Q 2113 2306 2375 2664 
Q 2638 3022 2638 3341 
Q 2638 3675 2398 3904 
Q 2159 4134 1775 4134 
Q 1369 4134 1125 3890 
Q 881 3647 878 3216 
L 300 3275 
Q 359 3922 746 4261 
Q 1134 4600 1788 4600 
Q 2447 4600 2831 4234 
Q 3216 3869 3216 3328 
Q 3216 3053 3103 2787 
Q 2991 2522 2730 2228 
Q 2469 1934 1863 1422 
Q 1356 997 1212 845 
Q 1069 694 975 541 
L 3222 541 
z
" transform="scale(0.015625)"/>
       </defs>
       <use xlink:href="#ArialMT-31"/>
       <use xlink:href="#ArialMT-32" x="55.615234"/>
      </g>
     </g>
    </g>
    <g id="xtick_5">
     <g id="line2d_5">
      <g>
       <use xlink:href="#m0444707956" x="287.684356" y="252" style="fill: #262626; stroke: #262626; stroke-width: 1.25"/>
      </g>
     </g>
     <g id="text_5">
      <!-- 14 -->
      <g style="fill: #262626" transform="translate(281.567325 269.373594)scale(0.11 -0.11)">
       <defs>
        <path id="ArialMT-34" d="M 2069 0 
L 2069 1097 
L 81 1097 
L 81 1613 
L 2172 4581 
L 2631 4581 
L 2631 1613 
L 3250 1613 
L 3250 1097 
L 2631 1097 
L 2631 0 
L 2069 0 
z
M 2069 1613 
L 2069 3678 
L 634 1613 
L 2069 1613 
z
" transform="scale(0.015625)"/>
       </defs>
       <use xlink:href="#ArialMT-31"/>
       <use xlink:href="#ArialMT-34" x="55.615234"/>
      </g>
     </g>
    </g>
    <g id="xtick_6">
     <g id="line2d_6">
      <g>
       <use xlink:href="#m0444707956" x="337.956856" y="252" style="fill: #262626; stroke: #262626; stroke-width: 1.25"/>
      </g>
     </g>
     <g id="text_6">
      <!-- 16 -->
      <g style="fill: #262626" transform="translate(331.839825 269.373594)scale(0.11 -0.11)">
       <use xlink:href="#ArialMT-31"/>
       <use xlink:href="#ArialMT-36" x="55.615234"/>
      </g>
     </g>
    </g>
    <g id="xtick_7">
     <g id="line2d_7">
      <g>
       <use xlink:href="#m0444707956" x="388.229356" y="252" style="fill: #262626; stroke: #262626; stroke-width: 1.25"/>
      </g>
     </g>
     <g id="text_7">
      <!-- 18 -->
      <g style="fill: #262626" transform="translate(382.112325 269.373594)scale(0.11 -0.11)">
       <use xlink:href="#ArialMT-31"/>
       <use xlink:href="#ArialMT-38" x="55.615234"/>
      </g>
     </g>
    </g>
    <g id="text_8">
     <!-- Max Freq -->
     <g style="fill: #262626" transform="translate(196.063125 284.149219)scale(0.12 -0.12)">
      <defs>
       <path id="ArialMT-4d" d="M 475 0 
L 475 4581 
L 1388 4581 
L 2472 1338 
Q 2622 884 2691 659 
Q 2769 909 2934 1394 
L 4031 4581 
L 4847 4581 
L 4847 0 
L 4263 0 
L 4263 3834 
L 2931 0 
L 2384 0 
L 1059 3900 
L 1059 0 
L 475 0 
z
" transform="scale(0.015625)"/>
       <path id="ArialMT-61" d="M 2588 409 
Q 2275 144 1986 34 
Q 1697 -75 1366 -75 
Q 819 -75 525 192 
Q 231 459 231 875 
Q 231 1119 342 1320 
Q 453 1522 633 1644 
Q 813 1766 1038 1828 
Q 1203 1872 1538 1913 
Q 2219 1994 2541 2106 
Q 2544 2222 2544 2253 
Q 2544 2597 2384 2738 
Q 2169 2928 1744 2928 
Q 1347 2928 1158 2789 
Q 969 2650 878 2297 
L 328 2372 
Q 403 2725 575 2942 
Q 747 3159 1072 3276 
Q 1397 3394 1825 3394 
Q 2250 3394 2515 3294 
Q 2781 3194 2906 3042 
Q 3031 2891 3081 2659 
Q 3109 2516 3109 2141 
L 3109 1391 
Q 3109 606 3145 398 
Q 3181 191 3288 0 
L 2700 0 
Q 2613 175 2588 409 
z
M 2541 1666 
Q 2234 1541 1622 1453 
Q 1275 1403 1131 1340 
Q 988 1278 909 1158 
Q 831 1038 831 891 
Q 831 666 1001 516 
Q 1172 366 1500 366 
Q 1825 366 2078 508 
Q 2331 650 2450 897 
Q 2541 1088 2541 1459 
L 2541 1666 
z
" transform="scale(0.015625)"/>
       <path id="ArialMT-78" d="M 47 0 
L 1259 1725 
L 138 3319 
L 841 3319 
L 1350 2541 
Q 1494 2319 1581 2169 
Q 1719 2375 1834 2534 
L 2394 3319 
L 3066 3319 
L 1919 1756 
L 3153 0 
L 2463 0 
L 1781 1031 
L 1600 1309 
L 728 0 
L 47 0 
z
" transform="scale(0.015625)"/>
       <path id="ArialMT-20" transform="scale(0.015625)"/>
       <path id="ArialMT-46" d="M 525 0 
L 525 4581 
L 3616 4581 
L 3616 4041 
L 1131 4041 
L 1131 2622 
L 3281 2622 
L 3281 2081 
L 1131 2081 
L 1131 0 
L 525 0 
z
" transform="scale(0.015625)"/>
       <path id="ArialMT-72" d="M 416 0 
L 416 3319 
L 922 3319 
L 922 2816 
Q 1116 3169 1280 3281 
Q 1444 3394 1641 3394 
Q 1925 3394 2219 3213 
L 2025 2691 
Q 1819 2813 1613 2813 
Q 1428 2813 1281 2702 
Q 1134 2591 1072 2394 
Q 978 2094 978 1738 
L 978 0 
L 416 0 
z
" transform="scale(0.015625)"/>
       <path id="ArialMT-65" d="M 2694 1069 
L 3275 997 
Q 3138 488 2766 206 
Q 2394 -75 1816 -75 
Q 1088 -75 661 373 
Q 234 822 234 1631 
Q 234 2469 665 2931 
Q 1097 3394 1784 3394 
Q 2450 3394 2872 2941 
Q 3294 2488 3294 1666 
Q 3294 1616 3291 1516 
L 816 1516 
Q 847 969 1125 678 
Q 1403 388 1819 388 
Q 2128 388 2347 550 
Q 2566 713 2694 1069 
z
M 847 1978 
L 2700 1978 
Q 2663 2397 2488 2606 
Q 2219 2931 1791 2931 
Q 1403 2931 1139 2672 
Q 875 2413 847 1978 
z
" transform="scale(0.015625)"/>
       <path id="ArialMT-71" d="M 2538 -1272 
L 2538 353 
Q 2406 169 2170 47 
Q 1934 -75 1669 -75 
Q 1078 -75 651 397 
Q 225 869 225 1691 
Q 225 2191 398 2587 
Q 572 2984 901 3189 
Q 1231 3394 1625 3394 
Q 2241 3394 2594 2875 
L 2594 3319 
L 3100 3319 
L 3100 -1272 
L 2538 -1272 
z
M 803 1669 
Q 803 1028 1072 708 
Q 1341 388 1716 388 
Q 2075 388 2334 692 
Q 2594 997 2594 1619 
Q 2594 2281 2320 2615 
Q 2047 2950 1678 2950 
Q 1313 2950 1058 2639 
Q 803 2328 803 1669 
z
" transform="scale(0.015625)"/>
      </defs>
      <use xlink:href="#ArialMT-4d"/>
      <use xlink:href="#ArialMT-61" x="83.300781"/>
      <use xlink:href="#ArialMT-78" x="138.916016"/>
      <use xlink:href="#ArialMT-20" x="188.916016"/>
      <use xlink:href="#ArialMT-46" x="216.699219"/>
      <use xlink:href="#ArialMT-72" x="277.783203"/>
      <use xlink:href="#ArialMT-65" x="311.083984"/>
      <use xlink:href="#ArialMT-71" x="366.699219"/>
     </g>
    </g>
   </g>
   <g id="matplotlib.axis_2">
    <g id="ytick_1">
     <g id="line2d_8">
      <defs>
       <path id="mad0216709b" d="M 0 0 
L -6 0 
" style="stroke: #262626; stroke-width: 1.25"/>
      </defs>
      <g>
       <use xlink:href="#mad0216709b" x="54" y="243.272175" style="fill: #262626; stroke: #262626; stroke-width: 1.25"/>
      </g>
     </g>
     <g id="text_9">
      <!-- 0.0 -->
      <g style="fill: #262626" transform="translate(29.21 247.208972)scale(0.11 -0.11)">
       <defs>
        <path id="ArialMT-2e" d="M 581 0 
L 581 641 
L 1222 641 
L 1222 0 
L 581 0 
z
" transform="scale(0.015625)"/>
       </defs>
       <use xlink:href="#ArialMT-30"/>
       <use xlink:href="#ArialMT-2e" x="55.615234"/>
       <use xlink:href="#ArialMT-30" x="83.398438"/>
      </g>
     </g>
    </g>
    <g id="ytick_2">
     <g id="line2d_9">
      <g>
       <use xlink:href="#mad0216709b" x="54" y="217.181949" style="fill: #262626; stroke: #262626; stroke-width: 1.25"/>
      </g>
     </g>
     <g id="text_10">
      <!-- 0.5 -->
      <g style="fill: #262626" transform="translate(29.21 221.118746)scale(0.11 -0.11)">
       <defs>
        <path id="ArialMT-35" d="M 266 1200 
L 856 1250 
Q 922 819 1161 601 
Q 1400 384 1738 384 
Q 2144 384 2425 690 
Q 2706 997 2706 1503 
Q 2706 1984 2436 2262 
Q 2166 2541 1728 2541 
Q 1456 2541 1237 2417 
Q 1019 2294 894 2097 
L 366 2166 
L 809 4519 
L 3088 4519 
L 3088 3981 
L 1259 3981 
L 1013 2750 
Q 1425 3038 1878 3038 
Q 2478 3038 2890 2622 
Q 3303 2206 3303 1553 
Q 3303 931 2941 478 
Q 2500 -78 1738 -78 
Q 1113 -78 717 272 
Q 322 622 266 1200 
z
" transform="scale(0.015625)"/>
       </defs>
       <use xlink:href="#ArialMT-30"/>
       <use xlink:href="#ArialMT-2e" x="55.615234"/>
       <use xlink:href="#ArialMT-35" x="83.398438"/>
      </g>
     </g>
    </g>
    <g id="ytick_3">
     <g id="line2d_10">
      <g>
       <use xlink:href="#mad0216709b" x="54" y="191.091723" style="fill: #262626; stroke: #262626; stroke-width: 1.25"/>
      </g>
     </g>
     <g id="text_11">
      <!-- 1.0 -->
      <g style="fill: #262626" transform="translate(29.21 195.02852)scale(0.11 -0.11)">
       <use xlink:href="#ArialMT-31"/>
       <use xlink:href="#ArialMT-2e" x="55.615234"/>
       <use xlink:href="#ArialMT-30" x="83.398438"/>
      </g>
     </g>
    </g>
    <g id="ytick_4">
     <g id="line2d_11">
      <g>
       <use xlink:href="#mad0216709b" x="54" y="165.001498" style="fill: #262626; stroke: #262626; stroke-width: 1.25"/>
      </g>
     </g>
     <g id="text_12">
      <!-- 1.5 -->
      <g style="fill: #262626" transform="translate(29.21 168.938295)scale(0.11 -0.11)">
       <use xlink:href="#ArialMT-31"/>
       <use xlink:href="#ArialMT-2e" x="55.615234"/>
       <use xlink:href="#ArialMT-35" x="83.398438"/>
      </g>
     </g>
    </g>
    <g id="ytick_5">
     <g id="line2d_12">
      <g>
       <use xlink:href="#mad0216709b" x="54" y="138.911272" style="fill: #262626; stroke: #262626; stroke-width: 1.25"/>
      </g>
     </g>
     <g id="text_13">
      <!-- 2.0 -->
      <g style="fill: #262626" transform="translate(29.21 142.848069)scale(0.11 -0.11)">
       <use xlink:href="#ArialMT-32"/>
       <use xlink:href="#ArialMT-2e" x="55.615234"/>
       <use xlink:href="#ArialMT-30" x="83.398438"/>
      </g>
     </g>
    </g>
    <g id="ytick_6">
     <g id="line2d_13">
      <g>
       <use xlink:href="#mad0216709b" x="54" y="112.821047" style="fill: #262626; stroke: #262626; stroke-width: 1.25"/>
      </g>
     </g>
     <g id="text_14">
      <!-- 2.5 -->
      <g style="fill: #262626" transform="translate(29.21 116.757843)scale(0.11 -0.11)">
       <use xlink:href="#ArialMT-32"/>
       <use xlink:href="#ArialMT-2e" x="55.615234"/>
       <use xlink:href="#ArialMT-35" x="83.398438"/>
      </g>
     </g>
    </g>
    <g id="ytick_7">
     <g id="line2d_14">
      <g>
       <use xlink:href="#mad0216709b" x="54" y="86.730821" style="fill: #262626; stroke: #262626; stroke-width: 1.25"/>
      </g>
     </g>
     <g id="text_15">
      <!-- 3.0 -->
      <g style="fill: #262626" transform="translate(29.21 90.667618)scale(0.11 -0.11)">
       <defs>
        <path id="ArialMT-33" d="M 269 1209 
L 831 1284 
Q 928 806 1161 595 
Q 1394 384 1728 384 
Q 2125 384 2398 659 
Q 2672 934 2672 1341 
Q 2672 1728 2419 1979 
Q 2166 2231 1775 2231 
Q 1616 2231 1378 2169 
L 1441 2663 
Q 1497 2656 1531 2656 
Q 1891 2656 2178 2843 
Q 2466 3031 2466 3422 
Q 2466 3731 2256 3934 
Q 2047 4138 1716 4138 
Q 1388 4138 1169 3931 
Q 950 3725 888 3313 
L 325 3413 
Q 428 3978 793 4289 
Q 1159 4600 1703 4600 
Q 2078 4600 2393 4439 
Q 2709 4278 2876 4000 
Q 3044 3722 3044 3409 
Q 3044 3113 2884 2869 
Q 2725 2625 2413 2481 
Q 2819 2388 3044 2092 
Q 3269 1797 3269 1353 
Q 3269 753 2831 336 
Q 2394 -81 1725 -81 
Q 1122 -81 723 278 
Q 325 638 269 1209 
z
" transform="scale(0.015625)"/>
       </defs>
       <use xlink:href="#ArialMT-33"/>
       <use xlink:href="#ArialMT-2e" x="55.615234"/>
       <use xlink:href="#ArialMT-30" x="83.398438"/>
      </g>
     </g>
    </g>
    <g id="ytick_8">
     <g id="line2d_15">
      <g>
       <use xlink:href="#mad0216709b" x="54" y="60.640595" style="fill: #262626; stroke: #262626; stroke-width: 1.25"/>
      </g>
     </g>
     <g id="text_16">
      <!-- 3.5 -->
      <g style="fill: #262626" transform="translate(29.21 64.577392)scale(0.11 -0.11)">
       <use xlink:href="#ArialMT-33"/>
       <use xlink:href="#ArialMT-2e" x="55.615234"/>
       <use xlink:href="#ArialMT-35" x="83.398438"/>
      </g>
     </g>
    </g>
    <g id="text_17">
     <!-- Amplitude -->
     <g style="fill: #262626" transform="translate(22.825 169.959375)rotate(-90)scale(0.12 -0.12)">
      <defs>
       <path id="ArialMT-41" d="M -9 0 
L 1750 4581 
L 2403 4581 
L 4278 0 
L 3588 0 
L 3053 1388 
L 1138 1388 
L 634 0 
L -9 0 
z
M 1313 1881 
L 2866 1881 
L 2388 3150 
Q 2169 3728 2063 4100 
Q 1975 3659 1816 3225 
L 1313 1881 
z
" transform="scale(0.015625)"/>
       <path id="ArialMT-6d" d="M 422 0 
L 422 3319 
L 925 3319 
L 925 2853 
Q 1081 3097 1340 3245 
Q 1600 3394 1931 3394 
Q 2300 3394 2536 3241 
Q 2772 3088 2869 2813 
Q 3263 3394 3894 3394 
Q 4388 3394 4653 3120 
Q 4919 2847 4919 2278 
L 4919 0 
L 4359 0 
L 4359 2091 
Q 4359 2428 4304 2576 
Q 4250 2725 4106 2815 
Q 3963 2906 3769 2906 
Q 3419 2906 3187 2673 
Q 2956 2441 2956 1928 
L 2956 0 
L 2394 0 
L 2394 2156 
Q 2394 2531 2256 2718 
Q 2119 2906 1806 2906 
Q 1569 2906 1367 2781 
Q 1166 2656 1075 2415 
Q 984 2175 984 1722 
L 984 0 
L 422 0 
z
" transform="scale(0.015625)"/>
       <path id="ArialMT-70" d="M 422 -1272 
L 422 3319 
L 934 3319 
L 934 2888 
Q 1116 3141 1344 3267 
Q 1572 3394 1897 3394 
Q 2322 3394 2647 3175 
Q 2972 2956 3137 2557 
Q 3303 2159 3303 1684 
Q 3303 1175 3120 767 
Q 2938 359 2589 142 
Q 2241 -75 1856 -75 
Q 1575 -75 1351 44 
Q 1128 163 984 344 
L 984 -1272 
L 422 -1272 
z
M 931 1641 
Q 931 1000 1190 694 
Q 1450 388 1819 388 
Q 2194 388 2461 705 
Q 2728 1022 2728 1688 
Q 2728 2322 2467 2637 
Q 2206 2953 1844 2953 
Q 1484 2953 1207 2617 
Q 931 2281 931 1641 
z
" transform="scale(0.015625)"/>
       <path id="ArialMT-6c" d="M 409 0 
L 409 4581 
L 972 4581 
L 972 0 
L 409 0 
z
" transform="scale(0.015625)"/>
       <path id="ArialMT-69" d="M 425 3934 
L 425 4581 
L 988 4581 
L 988 3934 
L 425 3934 
z
M 425 0 
L 425 3319 
L 988 3319 
L 988 0 
L 425 0 
z
" transform="scale(0.015625)"/>
       <path id="ArialMT-74" d="M 1650 503 
L 1731 6 
Q 1494 -44 1306 -44 
Q 1000 -44 831 53 
Q 663 150 594 308 
Q 525 466 525 972 
L 525 2881 
L 113 2881 
L 113 3319 
L 525 3319 
L 525 4141 
L 1084 4478 
L 1084 3319 
L 1650 3319 
L 1650 2881 
L 1084 2881 
L 1084 941 
Q 1084 700 1114 631 
Q 1144 563 1211 522 
Q 1278 481 1403 481 
Q 1497 481 1650 503 
z
" transform="scale(0.015625)"/>
       <path id="ArialMT-75" d="M 2597 0 
L 2597 488 
Q 2209 -75 1544 -75 
Q 1250 -75 995 37 
Q 741 150 617 320 
Q 494 491 444 738 
Q 409 903 409 1263 
L 409 3319 
L 972 3319 
L 972 1478 
Q 972 1038 1006 884 
Q 1059 663 1231 536 
Q 1403 409 1656 409 
Q 1909 409 2131 539 
Q 2353 669 2445 892 
Q 2538 1116 2538 1541 
L 2538 3319 
L 3100 3319 
L 3100 0 
L 2597 0 
z
" transform="scale(0.015625)"/>
       <path id="ArialMT-64" d="M 2575 0 
L 2575 419 
Q 2259 -75 1647 -75 
Q 1250 -75 917 144 
Q 584 363 401 755 
Q 219 1147 219 1656 
Q 219 2153 384 2558 
Q 550 2963 881 3178 
Q 1213 3394 1622 3394 
Q 1922 3394 2156 3267 
Q 2391 3141 2538 2938 
L 2538 4581 
L 3097 4581 
L 3097 0 
L 2575 0 
z
M 797 1656 
Q 797 1019 1065 703 
Q 1334 388 1700 388 
Q 2069 388 2326 689 
Q 2584 991 2584 1609 
Q 2584 2291 2321 2609 
Q 2059 2928 1675 2928 
Q 1300 2928 1048 2622 
Q 797 2316 797 1656 
z
" transform="scale(0.015625)"/>
      </defs>
      <use xlink:href="#ArialMT-41"/>
      <use xlink:href="#ArialMT-6d" x="66.699219"/>
      <use xlink:href="#ArialMT-70" x="150"/>
      <use xlink:href="#ArialMT-6c" x="205.615234"/>
      <use xlink:href="#ArialMT-69" x="227.832031"/>
      <use xlink:href="#ArialMT-74" x="250.048828"/>
      <use xlink:href="#ArialMT-75" x="277.832031"/>
      <use xlink:href="#ArialMT-64" x="333.447266"/>
      <use xlink:href="#ArialMT-65" x="389.0625"/>
     </g>
    </g>
   </g>
   <g id="PathCollection_1">
    <defs>
     <path id="C0_0_83bd35d0bb" d="M 0 3 
C 0.795609 3 1.55874 2.683901 2.12132 2.12132 
C 2.683901 1.55874 3 0.795609 3 -0 
C 3 -0.795609 2.683901 -1.55874 2.12132 -2.12132 
C 1.55874 -2.683901 0.795609 -3 0 -3 
C -0.795609 -3 -1.55874 -2.683901 -2.12132 -2.12132 
C -2.683901 -1.55874 -3 -0.795609 -3 0 
C -3 0.795609 -2.683901 1.55874 -2.12132 2.12132 
C -1.55874 2.683901 -0.795609 3 0 3 
z
"/>
    </defs>
    <g clip-path="url(#pbe25bf5514)">
     <use xlink:href="#C0_0_83bd35d0bb" x="370.277132" y="237.312938" style="fill: #4c72b0; stroke: #ffffff; stroke-width: 0.48"/>
    </g>
    <g clip-path="url(#pbe25bf5514)">
     <use xlink:href="#C0_0_83bd35d0bb" x="366.162369" y="238.46422" style="fill: #4c72b0; stroke: #ffffff; stroke-width: 0.48"/>
    </g>
    <g clip-path="url(#pbe25bf5514)">
     <use xlink:href="#C0_0_83bd35d0bb" x="365.752778" y="239.308388" style="fill: #4c72b0; stroke: #ffffff; stroke-width: 0.48"/>
    </g>
    <g clip-path="url(#pbe25bf5514)">
     <use xlink:href="#C0_0_83bd35d0bb" x="362.872384" y="238.030056" style="fill: #4c72b0; stroke: #ffffff; stroke-width: 0.48"/>
    </g>
    <g clip-path="url(#pbe25bf5514)">
     <use xlink:href="#C0_0_83bd35d0bb" x="373.533439" y="238.063074" style="fill: #4c72b0; stroke: #ffffff; stroke-width: 0.48"/>
    </g>
    <g clip-path="url(#pbe25bf5514)">
     <use xlink:href="#C0_0_83bd35d0bb" x="360.957489" y="238.714329" style="fill: #4c72b0; stroke: #ffffff; stroke-width: 0.48"/>
    </g>
    <g clip-path="url(#pbe25bf5514)">
     <use xlink:href="#C0_0_83bd35d0bb" x="366.149863" y="238.903558" style="fill: #4c72b0; stroke: #ffffff; stroke-width: 0.48"/>
    </g>
    <g clip-path="url(#pbe25bf5514)">
     <use xlink:href="#C0_0_83bd35d0bb" x="365.706239" y="238.803699" style="fill: #4c72b0; stroke: #ffffff; stroke-width: 0.48"/>
    </g>
    <g clip-path="url(#pbe25bf5514)">
     <use xlink:href="#C0_0_83bd35d0bb" x="366.241201" y="238.203425" style="fill: #4c72b0; stroke: #ffffff; stroke-width: 0.48"/>
    </g>
    <g clip-path="url(#pbe25bf5514)">
     <use xlink:href="#C0_0_83bd35d0bb" x="366.213387" y="238.541818" style="fill: #4c72b0; stroke: #ffffff; stroke-width: 0.48"/>
    </g>
    <g clip-path="url(#pbe25bf5514)">
     <use xlink:href="#C0_0_83bd35d0bb" x="366.774061" y="236.253378" style="fill: #4c72b0; stroke: #ffffff; stroke-width: 0.48"/>
    </g>
    <g clip-path="url(#pbe25bf5514)">
     <use xlink:href="#C0_0_83bd35d0bb" x="239.569755" y="170.189606" style="fill: #4c72b0; stroke: #ffffff; stroke-width: 0.48"/>
    </g>
    <g clip-path="url(#pbe25bf5514)">
     <use xlink:href="#C0_0_83bd35d0bb" x="152.56773" y="170.568798" style="fill: #4c72b0; stroke: #ffffff; stroke-width: 0.48"/>
    </g>
    <g clip-path="url(#pbe25bf5514)">
     <use xlink:href="#C0_0_83bd35d0bb" x="188.10397" y="198.301141" style="fill: #4c72b0; stroke: #ffffff; stroke-width: 0.48"/>
    </g>
    <g clip-path="url(#pbe25bf5514)">
     <use xlink:href="#C0_0_83bd35d0bb" x="373.281329" y="234.166447" style="fill: #4c72b0; stroke: #ffffff; stroke-width: 0.48"/>
    </g>
    <g clip-path="url(#pbe25bf5514)">
     <use xlink:href="#C0_0_83bd35d0bb" x="373.581818" y="239.33071" style="fill: #4c72b0; stroke: #ffffff; stroke-width: 0.48"/>
    </g>
    <g clip-path="url(#pbe25bf5514)">
     <use xlink:href="#C0_0_83bd35d0bb" x="363.349063" y="238.706752" style="fill: #4c72b0; stroke: #ffffff; stroke-width: 0.48"/>
    </g>
    <g clip-path="url(#pbe25bf5514)">
     <use xlink:href="#C0_0_83bd35d0bb" x="295.524537" y="241.158595" style="fill: #dd8452; stroke: #ffffff; stroke-width: 0.48"/>
    </g>
    <g clip-path="url(#pbe25bf5514)">
     <use xlink:href="#C0_0_83bd35d0bb" x="292.715851" y="241.062517" style="fill: #dd8452; stroke: #ffffff; stroke-width: 0.48"/>
    </g>
    <g clip-path="url(#pbe25bf5514)">
     <use xlink:href="#C0_0_83bd35d0bb" x="287.945363" y="241.360851" style="fill: #dd8452; stroke: #ffffff; stroke-width: 0.48"/>
    </g>
    <g clip-path="url(#pbe25bf5514)">
     <use xlink:href="#C0_0_83bd35d0bb" x="285.760258" y="241.404161" style="fill: #dd8452; stroke: #ffffff; stroke-width: 0.48"/>
    </g>
    <g clip-path="url(#pbe25bf5514)">
     <use xlink:href="#C0_0_83bd35d0bb" x="287.409117" y="241.976992" style="fill: #dd8452; stroke: #ffffff; stroke-width: 0.48"/>
    </g>
    <g clip-path="url(#pbe25bf5514)">
     <use xlink:href="#C0_0_83bd35d0bb" x="287.702311" y="241.81069" style="fill: #dd8452; stroke: #ffffff; stroke-width: 0.48"/>
    </g>
    <g clip-path="url(#pbe25bf5514)">
     <use xlink:href="#C0_0_83bd35d0bb" x="287.772604" y="241.438172" style="fill: #dd8452; stroke: #ffffff; stroke-width: 0.48"/>
    </g>
    <g clip-path="url(#pbe25bf5514)">
     <use xlink:href="#C0_0_83bd35d0bb" x="290.492586" y="241.776395" style="fill: #dd8452; stroke: #ffffff; stroke-width: 0.48"/>
    </g>
    <g clip-path="url(#pbe25bf5514)">
     <use xlink:href="#C0_0_83bd35d0bb" x="287.852857" y="241.468937" style="fill: #dd8452; stroke: #ffffff; stroke-width: 0.48"/>
    </g>
    <g clip-path="url(#pbe25bf5514)">
     <use xlink:href="#C0_0_83bd35d0bb" x="289.495829" y="241.599318" style="fill: #dd8452; stroke: #ffffff; stroke-width: 0.48"/>
    </g>
    <g clip-path="url(#pbe25bf5514)">
     <use xlink:href="#C0_0_83bd35d0bb" x="222.852987" y="238.497486" style="fill: #dd8452; stroke: #ffffff; stroke-width: 0.48"/>
    </g>
    <g clip-path="url(#pbe25bf5514)">
     <use xlink:href="#C0_0_83bd35d0bb" x="154.649" y="215.020359" style="fill: #dd8452; stroke: #ffffff; stroke-width: 0.48"/>
    </g>
    <g clip-path="url(#pbe25bf5514)">
     <use xlink:href="#C0_0_83bd35d0bb" x="217.956599" y="209.45848" style="fill: #dd8452; stroke: #ffffff; stroke-width: 0.48"/>
    </g>
    <g clip-path="url(#pbe25bf5514)">
     <use xlink:href="#C0_0_83bd35d0bb" x="154.754619" y="214.122027" style="fill: #dd8452; stroke: #ffffff; stroke-width: 0.48"/>
    </g>
    <g clip-path="url(#pbe25bf5514)">
     <use xlink:href="#C0_0_83bd35d0bb" x="302.184035" y="240.766656" style="fill: #dd8452; stroke: #ffffff; stroke-width: 0.48"/>
    </g>
    <g clip-path="url(#pbe25bf5514)">
     <use xlink:href="#C0_0_83bd35d0bb" x="295.441107" y="241.120652" style="fill: #dd8452; stroke: #ffffff; stroke-width: 0.48"/>
    </g>
    <g clip-path="url(#pbe25bf5514)">
     <use xlink:href="#C0_0_83bd35d0bb" x="313.104118" y="238.876637" style="fill: #55a868; stroke: #ffffff; stroke-width: 0.48"/>
    </g>
    <g clip-path="url(#pbe25bf5514)">
     <use xlink:href="#C0_0_83bd35d0bb" x="295.590903" y="240.793134" style="fill: #55a868; stroke: #ffffff; stroke-width: 0.48"/>
    </g>
    <g clip-path="url(#pbe25bf5514)">
     <use xlink:href="#C0_0_83bd35d0bb" x="305.732568" y="240.200534" style="fill: #55a868; stroke: #ffffff; stroke-width: 0.48"/>
    </g>
    <g clip-path="url(#pbe25bf5514)">
     <use xlink:href="#C0_0_83bd35d0bb" x="305.882347" y="239.457153" style="fill: #55a868; stroke: #ffffff; stroke-width: 0.48"/>
    </g>
    <g clip-path="url(#pbe25bf5514)">
     <use xlink:href="#C0_0_83bd35d0bb" x="305.096815" y="240.279391" style="fill: #55a868; stroke: #ffffff; stroke-width: 0.48"/>
    </g>
    <g clip-path="url(#pbe25bf5514)">
     <use xlink:href="#C0_0_83bd35d0bb" x="305.328636" y="239.79134" style="fill: #55a868; stroke: #ffffff; stroke-width: 0.48"/>
    </g>
    <g clip-path="url(#pbe25bf5514)">
     <use xlink:href="#C0_0_83bd35d0bb" x="300.407126" y="239.964219" style="fill: #55a868; stroke: #ffffff; stroke-width: 0.48"/>
    </g>
    <g clip-path="url(#pbe25bf5514)">
     <use xlink:href="#C0_0_83bd35d0bb" x="303.223757" y="239.730732" style="fill: #55a868; stroke: #ffffff; stroke-width: 0.48"/>
    </g>
    <g clip-path="url(#pbe25bf5514)">
     <use xlink:href="#C0_0_83bd35d0bb" x="299.588599" y="240.17178" style="fill: #55a868; stroke: #ffffff; stroke-width: 0.48"/>
    </g>
    <g clip-path="url(#pbe25bf5514)">
     <use xlink:href="#C0_0_83bd35d0bb" x="305.825247" y="239.280457" style="fill: #55a868; stroke: #ffffff; stroke-width: 0.48"/>
    </g>
    <g clip-path="url(#pbe25bf5514)">
     <use xlink:href="#C0_0_83bd35d0bb" x="297.60217" y="236.999394" style="fill: #55a868; stroke: #ffffff; stroke-width: 0.48"/>
    </g>
    <g clip-path="url(#pbe25bf5514)">
     <use xlink:href="#C0_0_83bd35d0bb" x="241.682217" y="214.524657" style="fill: #55a868; stroke: #ffffff; stroke-width: 0.48"/>
    </g>
    <g clip-path="url(#pbe25bf5514)">
     <use xlink:href="#C0_0_83bd35d0bb" x="243.597786" y="221.330145" style="fill: #55a868; stroke: #ffffff; stroke-width: 0.48"/>
    </g>
    <g clip-path="url(#pbe25bf5514)">
     <use xlink:href="#C0_0_83bd35d0bb" x="211.993667" y="195.119814" style="fill: #55a868; stroke: #ffffff; stroke-width: 0.48"/>
    </g>
    <g clip-path="url(#pbe25bf5514)">
     <use xlink:href="#C0_0_83bd35d0bb" x="328.605684" y="234.743713" style="fill: #55a868; stroke: #ffffff; stroke-width: 0.48"/>
    </g>
    <g clip-path="url(#pbe25bf5514)">
     <use xlink:href="#C0_0_83bd35d0bb" x="325.856465" y="238.854347" style="fill: #c44e52; stroke: #ffffff; stroke-width: 0.48"/>
    </g>
    <g clip-path="url(#pbe25bf5514)">
     <use xlink:href="#C0_0_83bd35d0bb" x="328.120345" y="232.772542" style="fill: #c44e52; stroke: #ffffff; stroke-width: 0.48"/>
    </g>
    <g clip-path="url(#pbe25bf5514)">
     <use xlink:href="#C0_0_83bd35d0bb" x="340.833037" y="237.345161" style="fill: #c44e52; stroke: #ffffff; stroke-width: 0.48"/>
    </g>
    <g clip-path="url(#pbe25bf5514)">
     <use xlink:href="#C0_0_83bd35d0bb" x="323.321749" y="234.077186" style="fill: #c44e52; stroke: #ffffff; stroke-width: 0.48"/>
    </g>
    <g clip-path="url(#pbe25bf5514)">
     <use xlink:href="#C0_0_83bd35d0bb" x="327.214642" y="232.886599" style="fill: #c44e52; stroke: #ffffff; stroke-width: 0.48"/>
    </g>
    <g clip-path="url(#pbe25bf5514)">
     <use xlink:href="#C0_0_83bd35d0bb" x="328.37041" y="233.773382" style="fill: #c44e52; stroke: #ffffff; stroke-width: 0.48"/>
    </g>
    <g clip-path="url(#pbe25bf5514)">
     <use xlink:href="#C0_0_83bd35d0bb" x="326.057072" y="230.696248" style="fill: #c44e52; stroke: #ffffff; stroke-width: 0.48"/>
    </g>
    <g clip-path="url(#pbe25bf5514)">
     <use xlink:href="#C0_0_83bd35d0bb" x="325.695973" y="235.673103" style="fill: #c44e52; stroke: #ffffff; stroke-width: 0.48"/>
    </g>
    <g clip-path="url(#pbe25bf5514)">
     <use xlink:href="#C0_0_83bd35d0bb" x="325.774707" y="232.363625" style="fill: #c44e52; stroke: #ffffff; stroke-width: 0.48"/>
    </g>
    <g clip-path="url(#pbe25bf5514)">
     <use xlink:href="#C0_0_83bd35d0bb" x="325.706646" y="233.608117" style="fill: #c44e52; stroke: #ffffff; stroke-width: 0.48"/>
    </g>
    <g clip-path="url(#pbe25bf5514)">
     <use xlink:href="#C0_0_83bd35d0bb" x="322.94262" y="226.914203" style="fill: #c44e52; stroke: #ffffff; stroke-width: 0.48"/>
    </g>
    <g clip-path="url(#pbe25bf5514)">
     <use xlink:href="#C0_0_83bd35d0bb" x="253.347355" y="173.037829" style="fill: #c44e52; stroke: #ffffff; stroke-width: 0.48"/>
    </g>
    <g clip-path="url(#pbe25bf5514)">
     <use xlink:href="#C0_0_83bd35d0bb" x="69.218182" y="104.266922" style="fill: #c44e52; stroke: #ffffff; stroke-width: 0.48"/>
    </g>
    <g clip-path="url(#pbe25bf5514)">
     <use xlink:href="#C0_0_83bd35d0bb" x="83.459714" y="152.543224" style="fill: #c44e52; stroke: #ffffff; stroke-width: 0.48"/>
    </g>
    <g clip-path="url(#pbe25bf5514)">
     <use xlink:href="#C0_0_83bd35d0bb" x="330.751612" y="228.616668" style="fill: #c44e52; stroke: #ffffff; stroke-width: 0.48"/>
    </g>
    <g clip-path="url(#pbe25bf5514)">
     <use xlink:href="#C0_0_83bd35d0bb" x="330.889395" y="217.712917" style="fill: #c44e52; stroke: #ffffff; stroke-width: 0.48"/>
    </g>
    <g clip-path="url(#pbe25bf5514)">
     <use xlink:href="#C0_0_83bd35d0bb" x="352.639243" y="241.400157" style="fill: #8172b3; stroke: #ffffff; stroke-width: 0.48"/>
    </g>
    <g clip-path="url(#pbe25bf5514)">
     <use xlink:href="#C0_0_83bd35d0bb" x="356.145183" y="241.182104" style="fill: #8172b3; stroke: #ffffff; stroke-width: 0.48"/>
    </g>
    <g clip-path="url(#pbe25bf5514)">
     <use xlink:href="#C0_0_83bd35d0bb" x="350.589434" y="241.247263" style="fill: #8172b3; stroke: #ffffff; stroke-width: 0.48"/>
    </g>
    <g clip-path="url(#pbe25bf5514)">
     <use xlink:href="#C0_0_83bd35d0bb" x="353.389065" y="239.550475" style="fill: #8172b3; stroke: #ffffff; stroke-width: 0.48"/>
    </g>
    <g clip-path="url(#pbe25bf5514)">
     <use xlink:href="#C0_0_83bd35d0bb" x="350.966365" y="240.475346" style="fill: #8172b3; stroke: #ffffff; stroke-width: 0.48"/>
    </g>
    <g clip-path="url(#pbe25bf5514)">
     <use xlink:href="#C0_0_83bd35d0bb" x="352.983344" y="240.379348" style="fill: #8172b3; stroke: #ffffff; stroke-width: 0.48"/>
    </g>
    <g clip-path="url(#pbe25bf5514)">
     <use xlink:href="#C0_0_83bd35d0bb" x="214.859288" y="242.116364" style="fill: #8172b3; stroke: #ffffff; stroke-width: 0.48"/>
    </g>
    <g clip-path="url(#pbe25bf5514)">
     <use xlink:href="#C0_0_83bd35d0bb" x="355.621779" y="241.500563" style="fill: #8172b3; stroke: #ffffff; stroke-width: 0.48"/>
    </g>
    <g clip-path="url(#pbe25bf5514)">
     <use xlink:href="#C0_0_83bd35d0bb" x="351.069264" y="241.290997" style="fill: #8172b3; stroke: #ffffff; stroke-width: 0.48"/>
    </g>
    <g clip-path="url(#pbe25bf5514)">
     <use xlink:href="#C0_0_83bd35d0bb" x="362.849678" y="239.338762" style="fill: #8172b3; stroke: #ffffff; stroke-width: 0.48"/>
    </g>
    <g clip-path="url(#pbe25bf5514)">
     <use xlink:href="#C0_0_83bd35d0bb" x="354.318352" y="230.391136" style="fill: #8172b3; stroke: #ffffff; stroke-width: 0.48"/>
    </g>
    <g clip-path="url(#pbe25bf5514)">
     <use xlink:href="#C0_0_83bd35d0bb" x="124.853474" y="162.487942" style="fill: #8172b3; stroke: #ffffff; stroke-width: 0.48"/>
    </g>
    <g clip-path="url(#pbe25bf5514)">
     <use xlink:href="#C0_0_83bd35d0bb" x="165.21408" y="44.443636" style="fill: #8172b3; stroke: #ffffff; stroke-width: 0.48"/>
    </g>
    <g clip-path="url(#pbe25bf5514)">
     <use xlink:href="#C0_0_83bd35d0bb" x="181.149041" y="175.709496" style="fill: #8172b3; stroke: #ffffff; stroke-width: 0.48"/>
    </g>
    <g clip-path="url(#pbe25bf5514)">
     <use xlink:href="#C0_0_83bd35d0bb" x="365.390952" y="239.861825" style="fill: #8172b3; stroke: #ffffff; stroke-width: 0.48"/>
    </g>
    <g clip-path="url(#pbe25bf5514)">
     <use xlink:href="#C0_0_83bd35d0bb" x="360.705911" y="237.350966" style="fill: #8172b3; stroke: #ffffff; stroke-width: 0.48"/>
    </g>
   </g>
   <g id="PathCollection_2"/>
   <g id="PathCollection_3"/>
   <g id="PathCollection_4"/>
   <g id="PathCollection_5"/>
   <g id="PathCollection_6"/>
   <g id="patch_3">
    <path d="M 54 252 
L 54 34.56 
" style="fill: none; stroke: #262626; stroke-width: 1.25; stroke-linejoin: miter; stroke-linecap: square"/>
   </g>
   <g id="patch_4">
    <path d="M 388.8 252 
L 388.8 34.56 
" style="fill: none; stroke: #262626; stroke-width: 1.25; stroke-linejoin: miter; stroke-linecap: square"/>
   </g>
   <g id="patch_5">
    <path d="M 54 252 
L 388.8 252 
" style="fill: none; stroke: #262626; stroke-width: 1.25; stroke-linejoin: miter; stroke-linecap: square"/>
   </g>
   <g id="patch_6">
    <path d="M 54 34.56 
L 388.8 34.56 
" style="fill: none; stroke: #262626; stroke-width: 1.25; stroke-linejoin: miter; stroke-linecap: square"/>
   </g>
   <g id="legend_1">
    <g id="patch_7">
     <path d="M 333.665937 137.633594 
L 381.1 137.633594 
Q 383.3 137.633594 383.3 135.433594 
L 383.3 42.26 
Q 383.3 40.06 381.1 40.06 
L 333.665937 40.06 
Q 331.465937 40.06 331.465937 42.26 
L 331.465937 135.433594 
Q 331.465937 137.633594 333.665937 137.633594 
z
" style="fill: #ffffff; opacity: 0.8; stroke: #cccccc; stroke-linejoin: miter"/>
    </g>
    <g id="text_18">
     <!-- Patient -->
     <g style="fill: #262626" transform="translate(338.704219 53.049375)scale(0.12 -0.12)">
      <defs>
       <path id="ArialMT-50" d="M 494 0 
L 494 4581 
L 2222 4581 
Q 2678 4581 2919 4538 
Q 3256 4481 3484 4323 
Q 3713 4166 3852 3881 
Q 3991 3597 3991 3256 
Q 3991 2672 3619 2267 
Q 3247 1863 2275 1863 
L 1100 1863 
L 1100 0 
L 494 0 
z
M 1100 2403 
L 2284 2403 
Q 2872 2403 3119 2622 
Q 3366 2841 3366 3238 
Q 3366 3525 3220 3729 
Q 3075 3934 2838 4000 
Q 2684 4041 2272 4041 
L 1100 4041 
L 1100 2403 
z
" transform="scale(0.015625)"/>
       <path id="ArialMT-6e" d="M 422 0 
L 422 3319 
L 928 3319 
L 928 2847 
Q 1294 3394 1984 3394 
Q 2284 3394 2536 3286 
Q 2788 3178 2913 3003 
Q 3038 2828 3088 2588 
Q 3119 2431 3119 2041 
L 3119 0 
L 2556 0 
L 2556 2019 
Q 2556 2363 2490 2533 
Q 2425 2703 2258 2804 
Q 2091 2906 1866 2906 
Q 1506 2906 1245 2678 
Q 984 2450 984 1813 
L 984 0 
L 422 0 
z
" transform="scale(0.015625)"/>
      </defs>
      <use xlink:href="#ArialMT-50"/>
      <use xlink:href="#ArialMT-61" x="66.699219"/>
      <use xlink:href="#ArialMT-74" x="122.314453"/>
      <use xlink:href="#ArialMT-69" x="150.097656"/>
      <use xlink:href="#ArialMT-65" x="172.314453"/>
      <use xlink:href="#ArialMT-6e" x="227.929688"/>
      <use xlink:href="#ArialMT-74" x="283.544922"/>
     </g>
    </g>
    <g id="PathCollection_7">
     <defs>
      <path id="m209a22abcb" d="M 0 3 
C 0.795609 3 1.55874 2.683901 2.12132 2.12132 
C 2.683901 1.55874 3 0.795609 3 0 
C 3 -0.795609 2.683901 -1.55874 2.12132 -2.12132 
C 1.55874 -2.683901 0.795609 -3 0 -3 
C -0.795609 -3 -1.55874 -2.683901 -2.12132 -2.12132 
C -2.683901 -1.55874 -3 -0.795609 -3 0 
C -3 0.795609 -2.683901 1.55874 -2.12132 2.12132 
C -1.55874 2.683901 -0.795609 3 0 3 
z
" style="stroke: #4c72b0"/>
     </defs>
     <g>
      <use xlink:href="#m209a22abcb" x="346.865937" y="65.920469" style="fill: #4c72b0; stroke: #4c72b0"/>
     </g>
    </g>
    <g id="text_19">
     <!-- 6 -->
     <g style="fill: #262626" transform="translate(366.665937 68.807969)scale(0.11 -0.11)">
      <use xlink:href="#ArialMT-36"/>
     </g>
    </g>
    <g id="PathCollection_8">
     <defs>
      <path id="m032ec552e5" d="M 0 3 
C 0.795609 3 1.55874 2.683901 2.12132 2.12132 
C 2.683901 1.55874 3 0.795609 3 0 
C 3 -0.795609 2.683901 -1.55874 2.12132 -2.12132 
C 1.55874 -2.683901 0.795609 -3 0 -3 
C -0.795609 -3 -1.55874 -2.683901 -2.12132 -2.12132 
C -2.683901 -1.55874 -3 -0.795609 -3 0 
C -3 0.795609 -2.683901 1.55874 -2.12132 2.12132 
C -1.55874 2.683901 -0.795609 3 0 3 
z
" style="stroke: #dd8452"/>
     </defs>
     <g>
      <use xlink:href="#m032ec552e5" x="346.865937" y="81.480312" style="fill: #dd8452; stroke: #dd8452"/>
     </g>
    </g>
    <g id="text_20">
     <!-- 7 -->
     <g style="fill: #262626" transform="translate(366.665937 84.367812)scale(0.11 -0.11)">
      <defs>
       <path id="ArialMT-37" d="M 303 3981 
L 303 4522 
L 3269 4522 
L 3269 4084 
Q 2831 3619 2401 2847 
Q 1972 2075 1738 1259 
Q 1569 684 1522 0 
L 944 0 
Q 953 541 1156 1306 
Q 1359 2072 1739 2783 
Q 2119 3494 2547 3981 
L 303 3981 
z
" transform="scale(0.015625)"/>
      </defs>
      <use xlink:href="#ArialMT-37"/>
     </g>
    </g>
    <g id="PathCollection_9">
     <defs>
      <path id="m30993258e6" d="M 0 3 
C 0.795609 3 1.55874 2.683901 2.12132 2.12132 
C 2.683901 1.55874 3 0.795609 3 0 
C 3 -0.795609 2.683901 -1.55874 2.12132 -2.12132 
C 1.55874 -2.683901 0.795609 -3 0 -3 
C -0.795609 -3 -1.55874 -2.683901 -2.12132 -2.12132 
C -2.683901 -1.55874 -3 -0.795609 -3 0 
C -3 0.795609 -2.683901 1.55874 -2.12132 2.12132 
C -1.55874 2.683901 -0.795609 3 0 3 
z
" style="stroke: #55a868"/>
     </defs>
     <g>
      <use xlink:href="#m30993258e6" x="346.865937" y="97.040156" style="fill: #55a868; stroke: #55a868"/>
     </g>
    </g>
    <g id="text_21">
     <!-- 9 -->
     <g style="fill: #262626" transform="translate(366.665937 99.927656)scale(0.11 -0.11)">
      <defs>
       <path id="ArialMT-39" d="M 350 1059 
L 891 1109 
Q 959 728 1153 556 
Q 1347 384 1650 384 
Q 1909 384 2104 503 
Q 2300 622 2425 820 
Q 2550 1019 2634 1356 
Q 2719 1694 2719 2044 
Q 2719 2081 2716 2156 
Q 2547 1888 2255 1720 
Q 1963 1553 1622 1553 
Q 1053 1553 659 1965 
Q 266 2378 266 3053 
Q 266 3750 677 4175 
Q 1088 4600 1706 4600 
Q 2153 4600 2523 4359 
Q 2894 4119 3086 3673 
Q 3278 3228 3278 2384 
Q 3278 1506 3087 986 
Q 2897 466 2520 194 
Q 2144 -78 1638 -78 
Q 1100 -78 759 220 
Q 419 519 350 1059 
z
M 2653 3081 
Q 2653 3566 2395 3850 
Q 2138 4134 1775 4134 
Q 1400 4134 1122 3828 
Q 844 3522 844 3034 
Q 844 2597 1108 2323 
Q 1372 2050 1759 2050 
Q 2150 2050 2401 2323 
Q 2653 2597 2653 3081 
z
" transform="scale(0.015625)"/>
      </defs>
      <use xlink:href="#ArialMT-39"/>
     </g>
    </g>
    <g id="PathCollection_10">
     <defs>
      <path id="mdc310e2a57" d="M 0 3 
C 0.795609 3 1.55874 2.683901 2.12132 2.12132 
C 2.683901 1.55874 3 0.795609 3 0 
C 3 -0.795609 2.683901 -1.55874 2.12132 -2.12132 
C 1.55874 -2.683901 0.795609 -3 0 -3 
C -0.795609 -3 -1.55874 -2.683901 -2.12132 -2.12132 
C -2.683901 -1.55874 -3 -0.795609 -3 0 
C -3 0.795609 -2.683901 1.55874 -2.12132 2.12132 
C -1.55874 2.683901 -0.795609 3 0 3 
z
" style="stroke: #c44e52"/>
     </defs>
     <g>
      <use xlink:href="#mdc310e2a57" x="346.865937" y="112.6" style="fill: #c44e52; stroke: #c44e52"/>
     </g>
    </g>
    <g id="text_22">
     <!-- 14 -->
     <g style="fill: #262626" transform="translate(366.665937 115.4875)scale(0.11 -0.11)">
      <use xlink:href="#ArialMT-31"/>
      <use xlink:href="#ArialMT-34" x="55.615234"/>
     </g>
    </g>
    <g id="PathCollection_11">
     <defs>
      <path id="ma4671791e4" d="M 0 3 
C 0.795609 3 1.55874 2.683901 2.12132 2.12132 
C 2.683901 1.55874 3 0.795609 3 0 
C 3 -0.795609 2.683901 -1.55874 2.12132 -2.12132 
C 1.55874 -2.683901 0.795609 -3 0 -3 
C -0.795609 -3 -1.55874 -2.683901 -2.12132 -2.12132 
C -2.683901 -1.55874 -3 -0.795609 -3 0 
C -3 0.795609 -2.683901 1.55874 -2.12132 2.12132 
C -1.55874 2.683901 -0.795609 3 0 3 
z
" style="stroke: #8172b3"/>
     </defs>
     <g>
      <use xlink:href="#ma4671791e4" x="346.865937" y="128.159844" style="fill: #8172b3; stroke: #8172b3"/>
     </g>
    </g>
    <g id="text_23">
     <!-- 15 -->
     <g style="fill: #262626" transform="translate(366.665937 131.047344)scale(0.11 -0.11)">
      <use xlink:href="#ArialMT-31"/>
      <use xlink:href="#ArialMT-35" x="55.615234"/>
     </g>
    </g>
   </g>
  </g>
 </g>
 <defs>
  <clipPath id="pbe25bf5514">
   <rect x="54" y="34.56" width="334.8" height="217.44"/>
  </clipPath>
 </defs>
</svg>
