<?xml version="1.0" encoding="utf-8" standalone="no"?>
<!DOCTYPE svg PUBLIC "-//W3C//DTD SVG 1.1//EN"
  "http://www.w3.org/Graphics/SVG/1.1/DTD/svg11.dtd">
<svg xmlns:xlink="http://www.w3.org/1999/xlink" width="432pt" height="288pt" viewBox="0 0 432 288" xmlns="http://www.w3.org/2000/svg" version="1.1">
 <metadata>
  <rdf:RDF xmlns:dc="http://purl.org/dc/elements/1.1/" xmlns:cc="http://creativecommons.org/ns#" xmlns:rdf="http://www.w3.org/1999/02/22-rdf-syntax-ns#">
   <cc:Work>
    <dc:type rdf:resource="http://purl.org/dc/dcmitype/StillImage"/>
    <dc:date>2022-07-08T09:43:35.338856</dc:date>
    <dc:format>image/svg+xml</dc:format>
    <dc:creator>
     <cc:Agent>
      <dc:title>Matplotlib v3.5.1, https://matplotlib.org/</dc:title>
     </cc:Agent>
    </dc:creator>
   </cc:Work>
  </rdf:RDF>
 </metadata>
 <defs>
  <style type="text/css">*{stroke-linejoin: round; stroke-linecap: butt}</style>
 </defs>
 <g id="figure_1">
  <g id="patch_1">
   <path d="M 0 288 
L 432 288 
L 432 0 
L 0 0 
z
" style="fill: #ffffff"/>
  </g>
  <g id="axes_1">
   <g id="patch_2">
    <path d="M 54 252 
L 388.8 252 
L 388.8 34.56 
L 54 34.56 
z
" style="fill: #ffffff"/>
   </g>
   <g id="matplotlib.axis_1">
    <g id="xtick_1">
     <g id="line2d_1">
      <defs>
       <path id="m9679199c68" d="M 0 0 
L 0 6 
" style="stroke: #262626; stroke-width: 1.25"/>
      </defs>
      <g>
       <use xlink:href="#m9679199c68" x="72.841138" y="252" style="fill: #262626; stroke: #262626; stroke-width: 1.25"/>
      </g>
     </g>
     <g id="text_1">
      <!-- 1.5 -->
      <g style="fill: #262626" transform="translate(65.196138 269.373594)scale(0.11 -0.11)">
       <defs>
        <path id="ArialMT-31" d="M 2384 0 
L 1822 0 
L 1822 3584 
Q 1619 3391 1289 3197 
Q 959 3003 697 2906 
L 697 3450 
Q 1169 3672 1522 3987 
Q 1875 4303 2022 4600 
L 2384 4600 
L 2384 0 
z
" transform="scale(0.015625)"/>
        <path id="ArialMT-2e" d="M 581 0 
L 581 641 
L 1222 641 
L 1222 0 
L 581 0 
z
" transform="scale(0.015625)"/>
        <path id="ArialMT-35" d="M 266 1200 
L 856 1250 
Q 922 819 1161 601 
Q 1400 384 1738 384 
Q 2144 384 2425 690 
Q 2706 997 2706 1503 
Q 2706 1984 2436 2262 
Q 2166 2541 1728 2541 
Q 1456 2541 1237 2417 
Q 1019 2294 894 2097 
L 366 2166 
L 809 4519 
L 3088 4519 
L 3088 3981 
L 1259 3981 
L 1013 2750 
Q 1425 3038 1878 3038 
Q 2478 3038 2890 2622 
Q 3303 2206 3303 1553 
Q 3303 931 2941 478 
Q 2500 -78 1738 -78 
Q 1113 -78 717 272 
Q 322 622 266 1200 
z
" transform="scale(0.015625)"/>
       </defs>
       <use xlink:href="#ArialMT-31"/>
       <use xlink:href="#ArialMT-2e" x="55.615234"/>
       <use xlink:href="#ArialMT-35" x="83.398438"/>
      </g>
     </g>
    </g>
    <g id="xtick_2">
     <g id="line2d_2">
      <g>
       <use xlink:href="#m9679199c68" x="114.207387" y="252" style="fill: #262626; stroke: #262626; stroke-width: 1.25"/>
      </g>
     </g>
     <g id="text_2">
      <!-- 1.6 -->
      <g style="fill: #262626" transform="translate(106.562387 269.373594)scale(0.11 -0.11)">
       <defs>
        <path id="ArialMT-36" d="M 3184 3459 
L 2625 3416 
Q 2550 3747 2413 3897 
Q 2184 4138 1850 4138 
Q 1581 4138 1378 3988 
Q 1113 3794 959 3422 
Q 806 3050 800 2363 
Q 1003 2672 1297 2822 
Q 1591 2972 1913 2972 
Q 2475 2972 2870 2558 
Q 3266 2144 3266 1488 
Q 3266 1056 3080 686 
Q 2894 316 2569 119 
Q 2244 -78 1831 -78 
Q 1128 -78 684 439 
Q 241 956 241 2144 
Q 241 3472 731 4075 
Q 1159 4600 1884 4600 
Q 2425 4600 2770 4297 
Q 3116 3994 3184 3459 
z
M 888 1484 
Q 888 1194 1011 928 
Q 1134 663 1356 523 
Q 1578 384 1822 384 
Q 2178 384 2434 671 
Q 2691 959 2691 1453 
Q 2691 1928 2437 2201 
Q 2184 2475 1800 2475 
Q 1419 2475 1153 2201 
Q 888 1928 888 1484 
z
" transform="scale(0.015625)"/>
       </defs>
       <use xlink:href="#ArialMT-31"/>
       <use xlink:href="#ArialMT-2e" x="55.615234"/>
       <use xlink:href="#ArialMT-36" x="83.398438"/>
      </g>
     </g>
    </g>
    <g id="xtick_3">
     <g id="line2d_3">
      <g>
       <use xlink:href="#m9679199c68" x="155.573636" y="252" style="fill: #262626; stroke: #262626; stroke-width: 1.25"/>
      </g>
     </g>
     <g id="text_3">
      <!-- 1.7 -->
      <g style="fill: #262626" transform="translate(147.928636 269.373594)scale(0.11 -0.11)">
       <defs>
        <path id="ArialMT-37" d="M 303 3981 
L 303 4522 
L 3269 4522 
L 3269 4084 
Q 2831 3619 2401 2847 
Q 1972 2075 1738 1259 
Q 1569 684 1522 0 
L 944 0 
Q 953 541 1156 1306 
Q 1359 2072 1739 2783 
Q 2119 3494 2547 3981 
L 303 3981 
z
" transform="scale(0.015625)"/>
       </defs>
       <use xlink:href="#ArialMT-31"/>
       <use xlink:href="#ArialMT-2e" x="55.615234"/>
       <use xlink:href="#ArialMT-37" x="83.398438"/>
      </g>
     </g>
    </g>
    <g id="xtick_4">
     <g id="line2d_4">
      <g>
       <use xlink:href="#m9679199c68" x="196.939885" y="252" style="fill: #262626; stroke: #262626; stroke-width: 1.25"/>
      </g>
     </g>
     <g id="text_4">
      <!-- 1.8 -->
      <g style="fill: #262626" transform="translate(189.294885 269.373594)scale(0.11 -0.11)">
       <defs>
        <path id="ArialMT-38" d="M 1131 2484 
Q 781 2613 612 2850 
Q 444 3088 444 3419 
Q 444 3919 803 4259 
Q 1163 4600 1759 4600 
Q 2359 4600 2725 4251 
Q 3091 3903 3091 3403 
Q 3091 3084 2923 2848 
Q 2756 2613 2416 2484 
Q 2838 2347 3058 2040 
Q 3278 1734 3278 1309 
Q 3278 722 2862 322 
Q 2447 -78 1769 -78 
Q 1091 -78 675 323 
Q 259 725 259 1325 
Q 259 1772 486 2073 
Q 713 2375 1131 2484 
z
M 1019 3438 
Q 1019 3113 1228 2906 
Q 1438 2700 1772 2700 
Q 2097 2700 2305 2904 
Q 2513 3109 2513 3406 
Q 2513 3716 2298 3927 
Q 2084 4138 1766 4138 
Q 1444 4138 1231 3931 
Q 1019 3725 1019 3438 
z
M 838 1322 
Q 838 1081 952 856 
Q 1066 631 1291 507 
Q 1516 384 1775 384 
Q 2178 384 2440 643 
Q 2703 903 2703 1303 
Q 2703 1709 2433 1975 
Q 2163 2241 1756 2241 
Q 1359 2241 1098 1978 
Q 838 1716 838 1322 
z
" transform="scale(0.015625)"/>
       </defs>
       <use xlink:href="#ArialMT-31"/>
       <use xlink:href="#ArialMT-2e" x="55.615234"/>
       <use xlink:href="#ArialMT-38" x="83.398438"/>
      </g>
     </g>
    </g>
    <g id="xtick_5">
     <g id="line2d_5">
      <g>
       <use xlink:href="#m9679199c68" x="238.306134" y="252" style="fill: #262626; stroke: #262626; stroke-width: 1.25"/>
      </g>
     </g>
     <g id="text_5">
      <!-- 1.9 -->
      <g style="fill: #262626" transform="translate(230.661134 269.373594)scale(0.11 -0.11)">
       <defs>
        <path id="ArialMT-39" d="M 350 1059 
L 891 1109 
Q 959 728 1153 556 
Q 1347 384 1650 384 
Q 1909 384 2104 503 
Q 2300 622 2425 820 
Q 2550 1019 2634 1356 
Q 2719 1694 2719 2044 
Q 2719 2081 2716 2156 
Q 2547 1888 2255 1720 
Q 1963 1553 1622 1553 
Q 1053 1553 659 1965 
Q 266 2378 266 3053 
Q 266 3750 677 4175 
Q 1088 4600 1706 4600 
Q 2153 4600 2523 4359 
Q 2894 4119 3086 3673 
Q 3278 3228 3278 2384 
Q 3278 1506 3087 986 
Q 2897 466 2520 194 
Q 2144 -78 1638 -78 
Q 1100 -78 759 220 
Q 419 519 350 1059 
z
M 2653 3081 
Q 2653 3566 2395 3850 
Q 2138 4134 1775 4134 
Q 1400 4134 1122 3828 
Q 844 3522 844 3034 
Q 844 2597 1108 2323 
Q 1372 2050 1759 2050 
Q 2150 2050 2401 2323 
Q 2653 2597 2653 3081 
z
" transform="scale(0.015625)"/>
       </defs>
       <use xlink:href="#ArialMT-31"/>
       <use xlink:href="#ArialMT-2e" x="55.615234"/>
       <use xlink:href="#ArialMT-39" x="83.398438"/>
      </g>
     </g>
    </g>
    <g id="xtick_6">
     <g id="line2d_6">
      <g>
       <use xlink:href="#m9679199c68" x="279.672384" y="252" style="fill: #262626; stroke: #262626; stroke-width: 1.25"/>
      </g>
     </g>
     <g id="text_6">
      <!-- 2.0 -->
      <g style="fill: #262626" transform="translate(272.027384 269.373594)scale(0.11 -0.11)">
       <defs>
        <path id="ArialMT-32" d="M 3222 541 
L 3222 0 
L 194 0 
Q 188 203 259 391 
Q 375 700 629 1000 
Q 884 1300 1366 1694 
Q 2113 2306 2375 2664 
Q 2638 3022 2638 3341 
Q 2638 3675 2398 3904 
Q 2159 4134 1775 4134 
Q 1369 4134 1125 3890 
Q 881 3647 878 3216 
L 300 3275 
Q 359 3922 746 4261 
Q 1134 4600 1788 4600 
Q 2447 4600 2831 4234 
Q 3216 3869 3216 3328 
Q 3216 3053 3103 2787 
Q 2991 2522 2730 2228 
Q 2469 1934 1863 1422 
Q 1356 997 1212 845 
Q 1069 694 975 541 
L 3222 541 
z
" transform="scale(0.015625)"/>
        <path id="ArialMT-30" d="M 266 2259 
Q 266 3072 433 3567 
Q 600 4063 929 4331 
Q 1259 4600 1759 4600 
Q 2128 4600 2406 4451 
Q 2684 4303 2865 4023 
Q 3047 3744 3150 3342 
Q 3253 2941 3253 2259 
Q 3253 1453 3087 958 
Q 2922 463 2592 192 
Q 2263 -78 1759 -78 
Q 1097 -78 719 397 
Q 266 969 266 2259 
z
M 844 2259 
Q 844 1131 1108 757 
Q 1372 384 1759 384 
Q 2147 384 2411 759 
Q 2675 1134 2675 2259 
Q 2675 3391 2411 3762 
Q 2147 4134 1753 4134 
Q 1366 4134 1134 3806 
Q 844 3388 844 2259 
z
" transform="scale(0.015625)"/>
       </defs>
       <use xlink:href="#ArialMT-32"/>
       <use xlink:href="#ArialMT-2e" x="55.615234"/>
       <use xlink:href="#ArialMT-30" x="83.398438"/>
      </g>
     </g>
    </g>
    <g id="xtick_7">
     <g id="line2d_7">
      <g>
       <use xlink:href="#m9679199c68" x="321.038633" y="252" style="fill: #262626; stroke: #262626; stroke-width: 1.25"/>
      </g>
     </g>
     <g id="text_7">
      <!-- 2.1 -->
      <g style="fill: #262626" transform="translate(313.393633 269.373594)scale(0.11 -0.11)">
       <use xlink:href="#ArialMT-32"/>
       <use xlink:href="#ArialMT-2e" x="55.615234"/>
       <use xlink:href="#ArialMT-31" x="83.398438"/>
      </g>
     </g>
    </g>
    <g id="xtick_8">
     <g id="line2d_8">
      <g>
       <use xlink:href="#m9679199c68" x="362.404882" y="252" style="fill: #262626; stroke: #262626; stroke-width: 1.25"/>
      </g>
     </g>
     <g id="text_8">
      <!-- 2.2 -->
      <g style="fill: #262626" transform="translate(354.759882 269.373594)scale(0.11 -0.11)">
       <use xlink:href="#ArialMT-32"/>
       <use xlink:href="#ArialMT-2e" x="55.615234"/>
       <use xlink:href="#ArialMT-32" x="83.398438"/>
      </g>
     </g>
    </g>
    <g id="text_9">
     <!-- Time (s) -->
     <g style="fill: #262626" transform="translate(199.630313 284.295469)scale(0.12 -0.12)">
      <defs>
       <path id="ArialMT-54" d="M 1659 0 
L 1659 4041 
L 150 4041 
L 150 4581 
L 3781 4581 
L 3781 4041 
L 2266 4041 
L 2266 0 
L 1659 0 
z
" transform="scale(0.015625)"/>
       <path id="ArialMT-69" d="M 425 3934 
L 425 4581 
L 988 4581 
L 988 3934 
L 425 3934 
z
M 425 0 
L 425 3319 
L 988 3319 
L 988 0 
L 425 0 
z
" transform="scale(0.015625)"/>
       <path id="ArialMT-6d" d="M 422 0 
L 422 3319 
L 925 3319 
L 925 2853 
Q 1081 3097 1340 3245 
Q 1600 3394 1931 3394 
Q 2300 3394 2536 3241 
Q 2772 3088 2869 2813 
Q 3263 3394 3894 3394 
Q 4388 3394 4653 3120 
Q 4919 2847 4919 2278 
L 4919 0 
L 4359 0 
L 4359 2091 
Q 4359 2428 4304 2576 
Q 4250 2725 4106 2815 
Q 3963 2906 3769 2906 
Q 3419 2906 3187 2673 
Q 2956 2441 2956 1928 
L 2956 0 
L 2394 0 
L 2394 2156 
Q 2394 2531 2256 2718 
Q 2119 2906 1806 2906 
Q 1569 2906 1367 2781 
Q 1166 2656 1075 2415 
Q 984 2175 984 1722 
L 984 0 
L 422 0 
z
" transform="scale(0.015625)"/>
       <path id="ArialMT-65" d="M 2694 1069 
L 3275 997 
Q 3138 488 2766 206 
Q 2394 -75 1816 -75 
Q 1088 -75 661 373 
Q 234 822 234 1631 
Q 234 2469 665 2931 
Q 1097 3394 1784 3394 
Q 2450 3394 2872 2941 
Q 3294 2488 3294 1666 
Q 3294 1616 3291 1516 
L 816 1516 
Q 847 969 1125 678 
Q 1403 388 1819 388 
Q 2128 388 2347 550 
Q 2566 713 2694 1069 
z
M 847 1978 
L 2700 1978 
Q 2663 2397 2488 2606 
Q 2219 2931 1791 2931 
Q 1403 2931 1139 2672 
Q 875 2413 847 1978 
z
" transform="scale(0.015625)"/>
       <path id="ArialMT-20" transform="scale(0.015625)"/>
       <path id="ArialMT-28" d="M 1497 -1347 
Q 1031 -759 709 28 
Q 388 816 388 1659 
Q 388 2403 628 3084 
Q 909 3875 1497 4659 
L 1900 4659 
Q 1522 4009 1400 3731 
Q 1209 3300 1100 2831 
Q 966 2247 966 1656 
Q 966 153 1900 -1347 
L 1497 -1347 
z
" transform="scale(0.015625)"/>
       <path id="ArialMT-73" d="M 197 991 
L 753 1078 
Q 800 744 1014 566 
Q 1228 388 1613 388 
Q 2000 388 2187 545 
Q 2375 703 2375 916 
Q 2375 1106 2209 1216 
Q 2094 1291 1634 1406 
Q 1016 1563 777 1677 
Q 538 1791 414 1992 
Q 291 2194 291 2438 
Q 291 2659 392 2848 
Q 494 3038 669 3163 
Q 800 3259 1026 3326 
Q 1253 3394 1513 3394 
Q 1903 3394 2198 3281 
Q 2494 3169 2634 2976 
Q 2775 2784 2828 2463 
L 2278 2388 
Q 2241 2644 2061 2787 
Q 1881 2931 1553 2931 
Q 1166 2931 1000 2803 
Q 834 2675 834 2503 
Q 834 2394 903 2306 
Q 972 2216 1119 2156 
Q 1203 2125 1616 2013 
Q 2213 1853 2448 1751 
Q 2684 1650 2818 1456 
Q 2953 1263 2953 975 
Q 2953 694 2789 445 
Q 2625 197 2315 61 
Q 2006 -75 1616 -75 
Q 969 -75 630 194 
Q 291 463 197 991 
z
" transform="scale(0.015625)"/>
       <path id="ArialMT-29" d="M 791 -1347 
L 388 -1347 
Q 1322 153 1322 1656 
Q 1322 2244 1188 2822 
Q 1081 3291 891 3722 
Q 769 4003 388 4659 
L 791 4659 
Q 1378 3875 1659 3084 
Q 1900 2403 1900 1659 
Q 1900 816 1576 28 
Q 1253 -759 791 -1347 
z
" transform="scale(0.015625)"/>
      </defs>
      <use xlink:href="#ArialMT-54"/>
      <use xlink:href="#ArialMT-69" x="57.333984"/>
      <use xlink:href="#ArialMT-6d" x="79.550781"/>
      <use xlink:href="#ArialMT-65" x="162.851562"/>
      <use xlink:href="#ArialMT-20" x="218.466797"/>
      <use xlink:href="#ArialMT-28" x="246.25"/>
      <use xlink:href="#ArialMT-73" x="279.550781"/>
      <use xlink:href="#ArialMT-29" x="329.550781"/>
     </g>
    </g>
   </g>
   <g id="matplotlib.axis_2">
    <g id="ytick_1">
     <g id="line2d_9">
      <defs>
       <path id="m12d6b83b56" d="M 0 0 
L -6 0 
" style="stroke: #262626; stroke-width: 1.25"/>
      </defs>
      <g>
       <use xlink:href="#m12d6b83b56" x="54" y="252" style="fill: #262626; stroke: #262626; stroke-width: 1.25"/>
      </g>
     </g>
     <g id="text_10">
      <!-- −0.15 -->
      <g style="fill: #262626" transform="translate(16.668281 255.936797)scale(0.11 -0.11)">
       <defs>
        <path id="ArialMT-2212" d="M 3381 1997 
L 356 1997 
L 356 2522 
L 3381 2522 
L 3381 1997 
z
" transform="scale(0.015625)"/>
       </defs>
       <use xlink:href="#ArialMT-2212"/>
       <use xlink:href="#ArialMT-30" x="58.398438"/>
       <use xlink:href="#ArialMT-2e" x="114.013672"/>
       <use xlink:href="#ArialMT-31" x="141.796875"/>
       <use xlink:href="#ArialMT-35" x="197.412109"/>
      </g>
     </g>
    </g>
    <g id="ytick_2">
     <g id="line2d_10">
      <g>
       <use xlink:href="#m12d6b83b56" x="54" y="215.76" style="fill: #262626; stroke: #262626; stroke-width: 1.25"/>
      </g>
     </g>
     <g id="text_11">
      <!-- −0.10 -->
      <g style="fill: #262626" transform="translate(16.668281 219.696797)scale(0.11 -0.11)">
       <use xlink:href="#ArialMT-2212"/>
       <use xlink:href="#ArialMT-30" x="58.398438"/>
       <use xlink:href="#ArialMT-2e" x="114.013672"/>
       <use xlink:href="#ArialMT-31" x="141.796875"/>
       <use xlink:href="#ArialMT-30" x="197.412109"/>
      </g>
     </g>
    </g>
    <g id="ytick_3">
     <g id="line2d_11">
      <g>
       <use xlink:href="#m12d6b83b56" x="54" y="179.52" style="fill: #262626; stroke: #262626; stroke-width: 1.25"/>
      </g>
     </g>
     <g id="text_12">
      <!-- −0.05 -->
      <g style="fill: #262626" transform="translate(16.668281 183.456797)scale(0.11 -0.11)">
       <use xlink:href="#ArialMT-2212"/>
       <use xlink:href="#ArialMT-30" x="58.398438"/>
       <use xlink:href="#ArialMT-2e" x="114.013672"/>
       <use xlink:href="#ArialMT-30" x="141.796875"/>
       <use xlink:href="#ArialMT-35" x="197.412109"/>
      </g>
     </g>
    </g>
    <g id="ytick_4">
     <g id="line2d_12">
      <g>
       <use xlink:href="#m12d6b83b56" x="54" y="143.28" style="fill: #262626; stroke: #262626; stroke-width: 1.25"/>
      </g>
     </g>
     <g id="text_13">
      <!-- 0.00 -->
      <g style="fill: #262626" transform="translate(23.092969 147.216797)scale(0.11 -0.11)">
       <use xlink:href="#ArialMT-30"/>
       <use xlink:href="#ArialMT-2e" x="55.615234"/>
       <use xlink:href="#ArialMT-30" x="83.398438"/>
       <use xlink:href="#ArialMT-30" x="139.013672"/>
      </g>
     </g>
    </g>
    <g id="ytick_5">
     <g id="line2d_13">
      <g>
       <use xlink:href="#m12d6b83b56" x="54" y="107.04" style="fill: #262626; stroke: #262626; stroke-width: 1.25"/>
      </g>
     </g>
     <g id="text_14">
      <!-- 0.05 -->
      <g style="fill: #262626" transform="translate(23.092969 110.976797)scale(0.11 -0.11)">
       <use xlink:href="#ArialMT-30"/>
       <use xlink:href="#ArialMT-2e" x="55.615234"/>
       <use xlink:href="#ArialMT-30" x="83.398438"/>
       <use xlink:href="#ArialMT-35" x="139.013672"/>
      </g>
     </g>
    </g>
    <g id="ytick_6">
     <g id="line2d_14">
      <g>
       <use xlink:href="#m12d6b83b56" x="54" y="70.8" style="fill: #262626; stroke: #262626; stroke-width: 1.25"/>
      </g>
     </g>
     <g id="text_15">
      <!-- 0.10 -->
      <g style="fill: #262626" transform="translate(23.092969 74.736797)scale(0.11 -0.11)">
       <use xlink:href="#ArialMT-30"/>
       <use xlink:href="#ArialMT-2e" x="55.615234"/>
       <use xlink:href="#ArialMT-31" x="83.398438"/>
       <use xlink:href="#ArialMT-30" x="139.013672"/>
      </g>
     </g>
    </g>
    <g id="ytick_7">
     <g id="line2d_15">
      <g>
       <use xlink:href="#m12d6b83b56" x="54" y="34.56" style="fill: #262626; stroke: #262626; stroke-width: 1.25"/>
      </g>
     </g>
     <g id="text_16">
      <!-- 0.15 -->
      <g style="fill: #262626" transform="translate(23.092969 38.496797)scale(0.11 -0.11)">
       <use xlink:href="#ArialMT-30"/>
       <use xlink:href="#ArialMT-2e" x="55.615234"/>
       <use xlink:href="#ArialMT-31" x="83.398438"/>
       <use xlink:href="#ArialMT-35" x="139.013672"/>
      </g>
     </g>
    </g>
   </g>
   <g id="line2d_16">
    <path d="M 69.218182 160.789324 
L 70.23612 164.619233 
L 71.254059 201.421126 
L 72.271998 212.585465 
L 73.289936 207.085709 
L 74.307875 206.226608 
L 75.325813 208.542199 
L 76.343752 194.111045 
L 77.36169 199.57054 
L 78.379629 173.150947 
L 79.397568 175.085606 
L 80.415506 142.810435 
L 81.433445 123.24085 
L 82.451383 95.727851 
L 83.469322 81.15302 
L 84.487261 37.158646 
L 85.505199 30.348497 
L 86.523138 13.350311 
L 87.541076 33.528232 
L 88.559015 42.409341 
L 89.576953 59.010277 
L 90.594892 81.427821 
L 91.612831 101.289726 
L 93.648708 132.392655 
L 94.666646 163.633916 
L 95.684585 190.005639 
L 96.702524 201.953032 
L 97.720462 208.837621 
L 98.738401 212.074759 
L 99.756339 227.865392 
L 100.774278 198.466631 
L 101.792216 205.730755 
L 102.810155 207.249108 
L 103.828094 177.694327 
L 104.846032 171.62893 
L 105.863971 163.020585 
L 107.899848 106.095694 
L 108.917787 91.664419 
L 109.935725 84.236211 
L 110.953664 90.120218 
L 111.971602 71.590852 
L 112.989541 80.219323 
L 114.007479 110.815306 
L 115.025418 101.344663 
L 117.061295 147.829504 
L 118.079234 148.230446 
L 119.097172 181.35864 
L 120.115111 169.58882 
L 121.13305 200.035824 
L 122.150988 198.596347 
L 123.168927 213.809195 
L 124.186865 213.048067 
L 125.204804 226.196201 
L 126.222742 218.384297 
L 127.240681 219.227401 
L 128.25862 170.195206 
L 129.276558 151.052838 
L 130.294497 147.509373 
L 131.312435 129.548745 
L 132.330374 109.31406 
L 133.348313 93.805438 
L 134.366251 89.487114 
L 135.38419 91.990595 
L 136.402128 78.27113 
L 137.420067 81.708502 
L 138.438005 96.253716 
L 140.473883 117.459542 
L 141.491821 135.974081 
L 142.50976 158.525549 
L 143.527698 172.092872 
L 144.545637 192.520499 
L 145.563576 203.091867 
L 146.581514 195.034261 
L 147.599453 214.148583 
L 148.617391 207.782306 
L 149.63533 204.305615 
L 150.653268 186.438014 
L 151.671207 194.464649 
L 152.689146 165.835678 
L 153.707084 162.220964 
L 154.725023 125.0868 
L 155.742961 125.744543 
L 156.7609 121.618062 
L 157.778839 114.731787 
L 158.796777 97.911918 
L 159.814716 89.600335 
L 160.832654 93.621824 
L 161.850593 121.076656 
L 162.868531 129.387533 
L 163.88647 151.276294 
L 164.904409 159.752348 
L 165.922347 147.817485 
L 166.940286 158.425774 
L 167.958224 181.272781 
L 168.976163 186.919227 
L 169.994102 176.886863 
L 171.01204 178.209734 
L 172.029979 171.544878 
L 173.047917 167.789254 
L 174.065856 157.882864 
L 175.083794 146.274207 
L 176.101733 128.904039 
L 177.119672 104.512395 
L 179.155549 74.365929 
L 180.173487 57.350851 
L 181.191426 44.929254 
L 182.209365 44.681677 
L 183.227303 46.866429 
L 184.245242 38.493513 
L 185.26318 41.811656 
L 186.281119 78.643889 
L 187.299057 105.02951 
L 188.316996 117.681561 
L 189.334935 128.893924 
L 191.370812 163.839963 
L 192.38875 173.387018 
L 193.406689 172.836246 
L 194.424628 183.304521 
L 195.442566 183.041865 
L 196.460505 177.965318 
L 197.478443 151.015716 
L 198.496382 135.266364 
L 199.51432 133.398668 
L 200.532259 120.221278 
L 201.550198 87.751358 
L 202.568136 85.109567 
L 204.604013 56.617186 
L 205.621952 74.424622 
L 206.639891 70.159904 
L 207.657829 72.094355 
L 208.675768 87.188931 
L 209.693706 95.136515 
L 210.711645 114.299369 
L 211.729583 118.038526 
L 212.747522 139.044625 
L 213.765461 157.692055 
L 215.801338 188.859871 
L 216.819276 183.26126 
L 217.837215 200.069214 
L 218.855154 207.548038 
L 219.873092 212.014288 
L 220.891031 205.417314 
L 221.908969 192.135889 
L 222.926908 192.366217 
L 223.944846 187.205861 
L 224.962785 149.996609 
L 225.980724 148.706821 
L 226.998662 116.010529 
L 228.016601 127.91662 
L 229.034539 116.306655 
L 230.052478 100.199916 
L 231.070417 107.783676 
L 232.088355 98.021515 
L 233.106294 94.737325 
L 234.124232 113.618534 
L 235.142171 126.253979 
L 236.160109 129.301332 
L 237.178048 146.571405 
L 238.195987 140.307027 
L 239.213925 162.341658 
L 240.231864 195.018899 
L 241.249802 189.86157 
L 242.267741 211.431754 
L 243.28568 194.890502 
L 244.303618 195.002855 
L 245.321557 187.649675 
L 246.339495 198.332804 
L 247.357434 175.640902 
L 248.375372 161.892029 
L 249.393311 153.110444 
L 250.41125 123.810814 
L 251.429188 107.635689 
L 252.447127 89.638698 
L 253.465065 81.102514 
L 254.483004 78.270833 
L 255.500943 95.690326 
L 256.518881 104.909489 
L 257.53682 96.210848 
L 259.572697 141.138391 
L 260.590635 156.444963 
L 261.608574 177.618115 
L 262.626513 182.110053 
L 263.644451 203.119079 
L 264.66239 212.055998 
L 265.680328 216.223791 
L 266.698267 215.327582 
L 267.716206 213.702257 
L 268.734144 195.349478 
L 269.752083 174.497396 
L 270.770021 160.806933 
L 271.78796 150.674217 
L 272.805898 133.195338 
L 273.823837 120.788266 
L 274.841776 114.78298 
L 275.859714 100.199852 
L 276.877653 83.012668 
L 277.895591 79.335461 
L 278.91353 78.133283 
L 279.931469 82.664842 
L 280.949407 116.185742 
L 281.967346 111.700658 
L 282.985284 125.733936 
L 284.003223 151.985333 
L 286.0391 180.257717 
L 287.057039 186.847738 
L 288.074977 195.423006 
L 289.092916 198.427631 
L 290.110854 202.061193 
L 291.128793 199.641251 
L 292.146732 194.967887 
L 293.16467 192.889085 
L 294.182609 190.474245 
L 295.200547 174.488972 
L 296.218486 172.457534 
L 297.236424 141.104388 
L 298.254363 122.896243 
L 299.272302 129.322284 
L 300.29024 97.580453 
L 301.308179 93.467352 
L 302.326117 88.196957 
L 303.344056 69.340703 
L 304.361995 79.94417 
L 305.379933 85.397905 
L 306.397872 107.457691 
L 307.41581 105.616562 
L 308.433749 133.085961 
L 309.451687 140.58048 
L 310.469626 164.417153 
L 312.505503 196.84869 
L 313.523442 198.382711 
L 314.54138 194.47015 
L 315.559319 202.077167 
L 316.577258 197.773017 
L 318.613135 191.782128 
L 319.631073 162.812001 
L 320.649012 163.516054 
L 321.66695 146.561553 
L 322.684889 103.828415 
L 323.702828 94.497605 
L 324.720766 83.025819 
L 325.738705 67.607692 
L 326.756643 76.407191 
L 327.774582 61.707284 
L 328.792521 81.167987 
L 329.810459 84.934826 
L 330.828398 97.784071 
L 331.846336 127.202755 
L 332.864275 137.858541 
L 333.882213 154.127821 
L 334.900152 174.023039 
L 335.918091 188.946463 
L 336.936029 209.786883 
L 337.953968 189.352743 
L 338.971906 213.392948 
L 339.989845 216.081222 
L 341.007784 198.858809 
L 342.025722 192.360344 
L 343.043661 173.046971 
L 344.061599 172.01154 
L 345.079538 135.293666 
L 346.097476 118.67519 
L 347.115415 109.03487 
L 348.133354 64.971041 
L 349.151292 47.851985 
L 350.169231 34.087713 
L 351.187169 41.232589 
L 353.223047 62.956913 
L 354.240985 100.474374 
L 355.258924 107.918444 
L 356.276862 124.016216 
L 357.294801 167.955435 
L 358.312739 176.868312 
L 359.330678 199.553501 
L 361.366555 232.749687 
L 362.384494 227.951252 
L 363.402432 208.4233 
L 364.420371 222.124911 
L 365.43831 199.999175 
L 366.456248 181.896728 
L 367.474187 172.81564 
L 368.492125 147.747333 
L 369.510064 141.63091 
L 370.528002 111.81894 
L 371.545941 91.612544 
L 372.56388 86.932095 
L 373.581818 86.616704 
L 373.581818 86.616704 
" clip-path="url(#p5ef4d5ac4c)" style="fill: none; stroke: #4c72b0; stroke-opacity: 0.6; stroke-width: 1.5; stroke-linecap: round"/>
   </g>
   <g id="line2d_17">
    <path d="M 69.218182 139.981991 
L 71.254059 178.640342 
L 72.271998 194.811409 
L 73.289936 207.269508 
L 74.307875 215.123427 
L 75.325813 217.813838 
L 76.343752 215.153019 
L 77.36169 207.337808 
L 78.379629 194.934888 
L 79.397568 178.839538 
L 81.433445 140.388038 
L 83.469322 102.833722 
L 84.487261 87.792025 
L 85.505199 76.743131 
L 86.523138 70.473213 
L 87.541076 69.424674 
L 88.559015 73.665046 
L 89.576953 82.882823 
L 90.594892 96.410474 
L 91.612831 113.272932 
L 95.684585 188.170248 
L 96.702524 202.008551 
L 97.720462 211.626942 
L 98.738401 216.345115 
L 99.756339 215.834517 
L 100.774278 210.141115 
L 101.792216 199.681315 
L 102.810155 185.21139 
L 104.846032 148.616527 
L 106.881909 110.659504 
L 107.899848 94.567433 
L 108.917787 81.98212 
L 109.935725 73.794657 
L 110.953664 70.580218 
L 111.971602 72.557732 
L 112.989541 79.575102 
L 114.007479 91.120938 
L 115.025418 106.361927 
L 117.061295 143.36647 
L 119.097172 180.189725 
L 120.115111 195.22807 
L 121.13305 206.5323 
L 122.150988 213.305522 
L 123.168927 215.075701 
L 124.186865 211.728479 
L 125.204804 203.514397 
L 126.222742 191.030096 
L 127.240681 175.17491 
L 131.312435 102.572055 
L 132.330374 88.637165 
L 133.348313 78.62386 
L 134.366251 73.234902 
L 135.38419 72.842125 
L 136.402128 77.460871 
L 137.420067 86.749865 
L 138.438005 100.036471 
L 139.455944 116.365454 
L 143.527698 187.330073 
L 144.545637 200.130804 
L 145.563576 208.858176 
L 146.581514 212.902434 
L 147.599453 211.988339 
L 148.617391 206.193806 
L 149.63533 195.943382 
L 150.653268 181.977115 
L 152.689146 147.095501 
L 154.725023 111.328404 
L 155.742961 96.301355 
L 156.7609 84.649549 
L 157.778839 77.191686 
L 158.796777 74.446432 
L 159.814716 76.596416 
L 160.832654 83.476195 
L 161.850593 94.584951 
L 162.868531 109.122969 
L 164.904409 144.155918 
L 166.940286 178.768176 
L 167.958224 192.820776 
L 168.976163 203.321652 
L 169.994102 209.534603 
L 171.01204 211.029605 
L 172.029979 207.7125 
L 173.047917 199.830784 
L 174.065856 187.955151 
L 175.083794 172.938167 
L 179.155549 104.557201 
L 180.173487 91.494739 
L 181.191426 82.137156 
L 182.209365 77.13933 
L 183.227303 76.845394 
L 184.245242 81.265114 
L 185.26318 90.074017 
L 186.281119 102.637209 
L 187.299057 118.055129 
L 191.370812 184.972853 
L 192.38875 197.039925 
L 193.406689 205.268563 
L 194.424628 209.083623 
L 195.442566 208.22402 
L 196.460505 202.76052 
L 197.478443 193.090006 
L 198.496382 179.906646 
L 200.532259 146.94824 
L 202.568136 113.09555 
L 203.586075 98.844669 
L 204.604013 87.770705 
L 205.621952 80.652587 
L 206.639891 77.987521 
L 207.657829 79.956321 
L 208.675768 86.411213 
L 209.693706 96.886907 
L 210.711645 110.634126 
L 212.747522 143.863706 
L 214.783399 176.826179 
L 215.801338 190.264641 
L 216.819276 200.35266 
L 217.837215 206.380518 
L 218.855154 207.927119 
L 219.873092 204.889336 
L 220.891031 197.488832 
L 221.908969 186.255881 
L 222.926908 171.991393 
L 226.998662 106.533429 
L 228.016601 93.909253 
L 229.034539 84.797443 
L 230.052478 79.83952 
L 231.070417 79.382209 
L 232.088355 83.453249 
L 233.106294 91.759786 
L 234.124232 103.709444 
L 235.142171 118.452548 
L 239.213925 183.087038 
L 240.231864 194.897715 
L 241.249802 203.043762 
L 242.267741 206.950878 
L 243.28568 206.345167 
L 244.303618 201.272287 
L 245.321557 192.093995 
L 246.339495 179.462348 
L 248.375372 147.603686 
L 250.41125 114.565682 
L 251.429188 100.535966 
L 252.447127 89.537259 
L 253.465065 82.34719 
L 254.483004 79.47367 
L 255.500943 81.119073 
L 256.518881 87.166029 
L 257.53682 97.185817 
L 258.554758 110.468759 
L 260.590635 142.898381 
L 262.626513 175.436474 
L 263.644451 188.848127 
L 264.66239 199.035701 
L 265.680328 205.278065 
L 266.698267 207.133065 
L 267.716206 204.468787 
L 268.734144 197.472895 
L 269.752083 186.639397 
L 270.770021 172.733757 
L 274.841776 107.782116 
L 275.859714 94.996454 
L 276.877653 85.620795 
L 277.895591 80.319731 
L 278.91353 79.470074 
L 279.931469 83.134125 
L 280.949407 91.055147 
L 281.967346 102.675375 
L 282.985284 117.17529 
L 287.057039 182.018582 
L 288.074977 194.168203 
L 289.092916 202.729106 
L 290.110854 207.093501 
L 291.128793 206.949703 
L 292.146732 202.304336 
L 293.16467 193.482086 
L 294.182609 181.102981 
L 296.218486 149.351767 
L 298.254363 115.85216 
L 299.272302 101.406825 
L 300.29024 89.905868 
L 301.308179 82.164597 
L 302.326117 78.733527 
L 303.344056 79.859283 
L 304.361995 85.466924 
L 305.379933 95.164945 
L 306.397872 108.272638 
L 308.433749 140.851979 
L 310.469626 174.18075 
L 311.487565 188.171203 
L 312.505503 199.008316 
L 313.523442 205.923473 
L 314.54138 208.42407 
L 315.559319 206.328553 
L 316.577258 199.779551 
L 317.595196 189.234142 
L 318.613135 175.431928 
L 320.649012 142.100464 
L 322.684889 109.011806 
L 323.702828 95.502102 
L 324.720766 85.346126 
L 325.738705 79.264411 
L 326.756643 77.690922 
L 327.774582 80.742142 
L 328.792521 88.208506 
L 329.810459 99.568824 
L 330.828398 114.026692 
L 334.900152 180.794891 
L 335.918091 193.795299 
L 336.936029 203.251511 
L 337.953968 208.492593 
L 338.971906 209.14395 
L 339.989845 205.154057 
L 341.007784 196.798449 
L 342.025722 184.660653 
L 343.043661 169.591407 
L 347.115415 102.65709 
L 348.133354 90.196359 
L 349.151292 81.458857 
L 350.169231 77.064385 
L 351.187169 77.327522 
L 352.205108 82.235149 
L 353.223047 91.447032 
L 354.240985 104.319451 
L 356.276862 137.241979 
L 358.312739 171.913874 
L 359.330678 186.852981 
L 360.348617 198.742896 
L 361.366555 206.74352 
L 362.384494 210.287661 
L 363.402432 209.12122 
L 364.420371 203.321363 
L 365.43831 193.291395 
L 366.456248 179.732676 
L 368.492125 146.01254 
L 370.528002 111.466561 
L 371.545941 96.934066 
L 372.56388 85.645712 
L 373.581818 78.398289 
L 373.581818 78.398289 
" clip-path="url(#p5ef4d5ac4c)" style="fill: none; stroke: #dd8452; stroke-opacity: 0.6; stroke-width: 1.5; stroke-linecap: round"/>
   </g>
   <g id="patch_3">
    <path d="M 54 252 
L 54 34.56 
" style="fill: none; stroke: #262626; stroke-width: 1.25; stroke-linejoin: miter; stroke-linecap: square"/>
   </g>
   <g id="patch_4">
    <path d="M 388.8 252 
L 388.8 34.56 
" style="fill: none; stroke: #262626; stroke-width: 1.25; stroke-linejoin: miter; stroke-linecap: square"/>
   </g>
   <g id="patch_5">
    <path d="M 54 252 
L 388.8 252 
" style="fill: none; stroke: #262626; stroke-width: 1.25; stroke-linejoin: miter; stroke-linecap: square"/>
   </g>
   <g id="patch_6">
    <path d="M 54 34.56 
L 388.8 34.56 
" style="fill: none; stroke: #262626; stroke-width: 1.25; stroke-linejoin: miter; stroke-linecap: square"/>
   </g>
  </g>
 </g>
 <defs>
  <clipPath id="p5ef4d5ac4c">
   <rect x="54" y="34.56" width="334.8" height="217.44"/>
  </clipPath>
 </defs>
</svg>
