<?xml version="1.0" encoding="utf-8" standalone="no"?>
<!DOCTYPE svg PUBLIC "-//W3C//DTD SVG 1.1//EN"
  "http://www.w3.org/Graphics/SVG/1.1/DTD/svg11.dtd">
<svg xmlns:xlink="http://www.w3.org/1999/xlink" width="432pt" height="288pt" viewBox="0 0 432 288" xmlns="http://www.w3.org/2000/svg" version="1.1">
 <metadata>
  <rdf:RDF xmlns:dc="http://purl.org/dc/elements/1.1/" xmlns:cc="http://creativecommons.org/ns#" xmlns:rdf="http://www.w3.org/1999/02/22-rdf-syntax-ns#">
   <cc:Work>
    <dc:type rdf:resource="http://purl.org/dc/dcmitype/StillImage"/>
    <dc:date>2022-07-08T09:55:09.577307</dc:date>
    <dc:format>image/svg+xml</dc:format>
    <dc:creator>
     <cc:Agent>
      <dc:title>Matplotlib v3.5.1, https://matplotlib.org/</dc:title>
     </cc:Agent>
    </dc:creator>
   </cc:Work>
  </rdf:RDF>
 </metadata>
 <defs>
  <style type="text/css">*{stroke-linejoin: round; stroke-linecap: butt}</style>
 </defs>
 <g id="figure_1">
  <g id="patch_1">
   <path d="M 0 288 
L 432 288 
L 432 0 
L 0 0 
z
" style="fill: #ffffff"/>
  </g>
  <g id="axes_1">
   <g id="patch_2">
    <path d="M 54 252 
L 388.8 252 
L 388.8 34.56 
L 54 34.56 
z
" style="fill: #ffffff"/>
   </g>
   <g id="matplotlib.axis_1">
    <g id="xtick_1">
     <g id="line2d_1">
      <defs>
       <path id="mbf922efe62" d="M 0 0 
L 0 6 
" style="stroke: #262626; stroke-width: 1.25"/>
      </defs>
      <g>
       <use xlink:href="#mbf922efe62" x="69.253143" y="252" style="fill: #262626; stroke: #262626; stroke-width: 1.25"/>
      </g>
     </g>
     <g id="text_1">
      <!-- 1 -->
      <g style="fill: #262626" transform="translate(66.194627 269.373594)scale(0.11 -0.11)">
       <defs>
        <path id="ArialMT-31" d="M 2384 0 
L 1822 0 
L 1822 3584 
Q 1619 3391 1289 3197 
Q 959 3003 697 2906 
L 697 3450 
Q 1169 3672 1522 3987 
Q 1875 4303 2022 4600 
L 2384 4600 
L 2384 0 
z
" transform="scale(0.015625)"/>
       </defs>
       <use xlink:href="#ArialMT-31"/>
      </g>
     </g>
    </g>
    <g id="xtick_2">
     <g id="line2d_2">
      <g>
       <use xlink:href="#mbf922efe62" x="107.368731" y="252" style="fill: #262626; stroke: #262626; stroke-width: 1.25"/>
      </g>
     </g>
     <g id="text_2">
      <!-- 2 -->
      <g style="fill: #262626" transform="translate(104.310216 269.373594)scale(0.11 -0.11)">
       <defs>
        <path id="ArialMT-32" d="M 3222 541 
L 3222 0 
L 194 0 
Q 188 203 259 391 
Q 375 700 629 1000 
Q 884 1300 1366 1694 
Q 2113 2306 2375 2664 
Q 2638 3022 2638 3341 
Q 2638 3675 2398 3904 
Q 2159 4134 1775 4134 
Q 1369 4134 1125 3890 
Q 881 3647 878 3216 
L 300 3275 
Q 359 3922 746 4261 
Q 1134 4600 1788 4600 
Q 2447 4600 2831 4234 
Q 3216 3869 3216 3328 
Q 3216 3053 3103 2787 
Q 2991 2522 2730 2228 
Q 2469 1934 1863 1422 
Q 1356 997 1212 845 
Q 1069 694 975 541 
L 3222 541 
z
" transform="scale(0.015625)"/>
       </defs>
       <use xlink:href="#ArialMT-32"/>
      </g>
     </g>
    </g>
    <g id="xtick_3">
     <g id="line2d_3">
      <g>
       <use xlink:href="#mbf922efe62" x="145.48432" y="252" style="fill: #262626; stroke: #262626; stroke-width: 1.25"/>
      </g>
     </g>
     <g id="text_3">
      <!-- 3 -->
      <g style="fill: #262626" transform="translate(142.425804 269.373594)scale(0.11 -0.11)">
       <defs>
        <path id="ArialMT-33" d="M 269 1209 
L 831 1284 
Q 928 806 1161 595 
Q 1394 384 1728 384 
Q 2125 384 2398 659 
Q 2672 934 2672 1341 
Q 2672 1728 2419 1979 
Q 2166 2231 1775 2231 
Q 1616 2231 1378 2169 
L 1441 2663 
Q 1497 2656 1531 2656 
Q 1891 2656 2178 2843 
Q 2466 3031 2466 3422 
Q 2466 3731 2256 3934 
Q 2047 4138 1716 4138 
Q 1388 4138 1169 3931 
Q 950 3725 888 3313 
L 325 3413 
Q 428 3978 793 4289 
Q 1159 4600 1703 4600 
Q 2078 4600 2393 4439 
Q 2709 4278 2876 4000 
Q 3044 3722 3044 3409 
Q 3044 3113 2884 2869 
Q 2725 2625 2413 2481 
Q 2819 2388 3044 2092 
Q 3269 1797 3269 1353 
Q 3269 753 2831 336 
Q 2394 -81 1725 -81 
Q 1122 -81 723 278 
Q 325 638 269 1209 
z
" transform="scale(0.015625)"/>
       </defs>
       <use xlink:href="#ArialMT-33"/>
      </g>
     </g>
    </g>
    <g id="xtick_4">
     <g id="line2d_4">
      <g>
       <use xlink:href="#mbf922efe62" x="183.599909" y="252" style="fill: #262626; stroke: #262626; stroke-width: 1.25"/>
      </g>
     </g>
     <g id="text_4">
      <!-- 4 -->
      <g style="fill: #262626" transform="translate(180.541393 269.373594)scale(0.11 -0.11)">
       <defs>
        <path id="ArialMT-34" d="M 2069 0 
L 2069 1097 
L 81 1097 
L 81 1613 
L 2172 4581 
L 2631 4581 
L 2631 1613 
L 3250 1613 
L 3250 1097 
L 2631 1097 
L 2631 0 
L 2069 0 
z
M 2069 1613 
L 2069 3678 
L 634 1613 
L 2069 1613 
z
" transform="scale(0.015625)"/>
       </defs>
       <use xlink:href="#ArialMT-34"/>
      </g>
     </g>
    </g>
    <g id="xtick_5">
     <g id="line2d_5">
      <g>
       <use xlink:href="#mbf922efe62" x="221.715497" y="252" style="fill: #262626; stroke: #262626; stroke-width: 1.25"/>
      </g>
     </g>
     <g id="text_5">
      <!-- 5 -->
      <g style="fill: #262626" transform="translate(218.656982 269.373594)scale(0.11 -0.11)">
       <defs>
        <path id="ArialMT-35" d="M 266 1200 
L 856 1250 
Q 922 819 1161 601 
Q 1400 384 1738 384 
Q 2144 384 2425 690 
Q 2706 997 2706 1503 
Q 2706 1984 2436 2262 
Q 2166 2541 1728 2541 
Q 1456 2541 1237 2417 
Q 1019 2294 894 2097 
L 366 2166 
L 809 4519 
L 3088 4519 
L 3088 3981 
L 1259 3981 
L 1013 2750 
Q 1425 3038 1878 3038 
Q 2478 3038 2890 2622 
Q 3303 2206 3303 1553 
Q 3303 931 2941 478 
Q 2500 -78 1738 -78 
Q 1113 -78 717 272 
Q 322 622 266 1200 
z
" transform="scale(0.015625)"/>
       </defs>
       <use xlink:href="#ArialMT-35"/>
      </g>
     </g>
    </g>
    <g id="xtick_6">
     <g id="line2d_6">
      <g>
       <use xlink:href="#mbf922efe62" x="259.831086" y="252" style="fill: #262626; stroke: #262626; stroke-width: 1.25"/>
      </g>
     </g>
     <g id="text_6">
      <!-- 6 -->
      <g style="fill: #262626" transform="translate(256.77257 269.373594)scale(0.11 -0.11)">
       <defs>
        <path id="ArialMT-36" d="M 3184 3459 
L 2625 3416 
Q 2550 3747 2413 3897 
Q 2184 4138 1850 4138 
Q 1581 4138 1378 3988 
Q 1113 3794 959 3422 
Q 806 3050 800 2363 
Q 1003 2672 1297 2822 
Q 1591 2972 1913 2972 
Q 2475 2972 2870 2558 
Q 3266 2144 3266 1488 
Q 3266 1056 3080 686 
Q 2894 316 2569 119 
Q 2244 -78 1831 -78 
Q 1128 -78 684 439 
Q 241 956 241 2144 
Q 241 3472 731 4075 
Q 1159 4600 1884 4600 
Q 2425 4600 2770 4297 
Q 3116 3994 3184 3459 
z
M 888 1484 
Q 888 1194 1011 928 
Q 1134 663 1356 523 
Q 1578 384 1822 384 
Q 2178 384 2434 671 
Q 2691 959 2691 1453 
Q 2691 1928 2437 2201 
Q 2184 2475 1800 2475 
Q 1419 2475 1153 2201 
Q 888 1928 888 1484 
z
" transform="scale(0.015625)"/>
       </defs>
       <use xlink:href="#ArialMT-36"/>
      </g>
     </g>
    </g>
    <g id="xtick_7">
     <g id="line2d_7">
      <g>
       <use xlink:href="#mbf922efe62" x="297.946674" y="252" style="fill: #262626; stroke: #262626; stroke-width: 1.25"/>
      </g>
     </g>
     <g id="text_7">
      <!-- 7 -->
      <g style="fill: #262626" transform="translate(294.888159 269.373594)scale(0.11 -0.11)">
       <defs>
        <path id="ArialMT-37" d="M 303 3981 
L 303 4522 
L 3269 4522 
L 3269 4084 
Q 2831 3619 2401 2847 
Q 1972 2075 1738 1259 
Q 1569 684 1522 0 
L 944 0 
Q 953 541 1156 1306 
Q 1359 2072 1739 2783 
Q 2119 3494 2547 3981 
L 303 3981 
z
" transform="scale(0.015625)"/>
       </defs>
       <use xlink:href="#ArialMT-37"/>
      </g>
     </g>
    </g>
    <g id="xtick_8">
     <g id="line2d_8">
      <g>
       <use xlink:href="#mbf922efe62" x="336.062263" y="252" style="fill: #262626; stroke: #262626; stroke-width: 1.25"/>
      </g>
     </g>
     <g id="text_8">
      <!-- 8 -->
      <g style="fill: #262626" transform="translate(333.003747 269.373594)scale(0.11 -0.11)">
       <defs>
        <path id="ArialMT-38" d="M 1131 2484 
Q 781 2613 612 2850 
Q 444 3088 444 3419 
Q 444 3919 803 4259 
Q 1163 4600 1759 4600 
Q 2359 4600 2725 4251 
Q 3091 3903 3091 3403 
Q 3091 3084 2923 2848 
Q 2756 2613 2416 2484 
Q 2838 2347 3058 2040 
Q 3278 1734 3278 1309 
Q 3278 722 2862 322 
Q 2447 -78 1769 -78 
Q 1091 -78 675 323 
Q 259 725 259 1325 
Q 259 1772 486 2073 
Q 713 2375 1131 2484 
z
M 1019 3438 
Q 1019 3113 1228 2906 
Q 1438 2700 1772 2700 
Q 2097 2700 2305 2904 
Q 2513 3109 2513 3406 
Q 2513 3716 2298 3927 
Q 2084 4138 1766 4138 
Q 1444 4138 1231 3931 
Q 1019 3725 1019 3438 
z
M 838 1322 
Q 838 1081 952 856 
Q 1066 631 1291 507 
Q 1516 384 1775 384 
Q 2178 384 2440 643 
Q 2703 903 2703 1303 
Q 2703 1709 2433 1975 
Q 2163 2241 1756 2241 
Q 1359 2241 1098 1978 
Q 838 1716 838 1322 
z
" transform="scale(0.015625)"/>
       </defs>
       <use xlink:href="#ArialMT-38"/>
      </g>
     </g>
    </g>
    <g id="xtick_9">
     <g id="line2d_9">
      <g>
       <use xlink:href="#mbf922efe62" x="374.177852" y="252" style="fill: #262626; stroke: #262626; stroke-width: 1.25"/>
      </g>
     </g>
     <g id="text_9">
      <!-- 9 -->
      <g style="fill: #262626" transform="translate(371.119336 269.373594)scale(0.11 -0.11)">
       <defs>
        <path id="ArialMT-39" d="M 350 1059 
L 891 1109 
Q 959 728 1153 556 
Q 1347 384 1650 384 
Q 1909 384 2104 503 
Q 2300 622 2425 820 
Q 2550 1019 2634 1356 
Q 2719 1694 2719 2044 
Q 2719 2081 2716 2156 
Q 2547 1888 2255 1720 
Q 1963 1553 1622 1553 
Q 1053 1553 659 1965 
Q 266 2378 266 3053 
Q 266 3750 677 4175 
Q 1088 4600 1706 4600 
Q 2153 4600 2523 4359 
Q 2894 4119 3086 3673 
Q 3278 3228 3278 2384 
Q 3278 1506 3087 986 
Q 2897 466 2520 194 
Q 2144 -78 1638 -78 
Q 1100 -78 759 220 
Q 419 519 350 1059 
z
M 2653 3081 
Q 2653 3566 2395 3850 
Q 2138 4134 1775 4134 
Q 1400 4134 1122 3828 
Q 844 3522 844 3034 
Q 844 2597 1108 2323 
Q 1372 2050 1759 2050 
Q 2150 2050 2401 2323 
Q 2653 2597 2653 3081 
z
" transform="scale(0.015625)"/>
       </defs>
       <use xlink:href="#ArialMT-39"/>
      </g>
     </g>
    </g>
    <g id="text_10">
     <!-- Time (s) -->
     <g style="fill: #262626" transform="translate(199.630313 284.295469)scale(0.12 -0.12)">
      <defs>
       <path id="ArialMT-54" d="M 1659 0 
L 1659 4041 
L 150 4041 
L 150 4581 
L 3781 4581 
L 3781 4041 
L 2266 4041 
L 2266 0 
L 1659 0 
z
" transform="scale(0.015625)"/>
       <path id="ArialMT-69" d="M 425 3934 
L 425 4581 
L 988 4581 
L 988 3934 
L 425 3934 
z
M 425 0 
L 425 3319 
L 988 3319 
L 988 0 
L 425 0 
z
" transform="scale(0.015625)"/>
       <path id="ArialMT-6d" d="M 422 0 
L 422 3319 
L 925 3319 
L 925 2853 
Q 1081 3097 1340 3245 
Q 1600 3394 1931 3394 
Q 2300 3394 2536 3241 
Q 2772 3088 2869 2813 
Q 3263 3394 3894 3394 
Q 4388 3394 4653 3120 
Q 4919 2847 4919 2278 
L 4919 0 
L 4359 0 
L 4359 2091 
Q 4359 2428 4304 2576 
Q 4250 2725 4106 2815 
Q 3963 2906 3769 2906 
Q 3419 2906 3187 2673 
Q 2956 2441 2956 1928 
L 2956 0 
L 2394 0 
L 2394 2156 
Q 2394 2531 2256 2718 
Q 2119 2906 1806 2906 
Q 1569 2906 1367 2781 
Q 1166 2656 1075 2415 
Q 984 2175 984 1722 
L 984 0 
L 422 0 
z
" transform="scale(0.015625)"/>
       <path id="ArialMT-65" d="M 2694 1069 
L 3275 997 
Q 3138 488 2766 206 
Q 2394 -75 1816 -75 
Q 1088 -75 661 373 
Q 234 822 234 1631 
Q 234 2469 665 2931 
Q 1097 3394 1784 3394 
Q 2450 3394 2872 2941 
Q 3294 2488 3294 1666 
Q 3294 1616 3291 1516 
L 816 1516 
Q 847 969 1125 678 
Q 1403 388 1819 388 
Q 2128 388 2347 550 
Q 2566 713 2694 1069 
z
M 847 1978 
L 2700 1978 
Q 2663 2397 2488 2606 
Q 2219 2931 1791 2931 
Q 1403 2931 1139 2672 
Q 875 2413 847 1978 
z
" transform="scale(0.015625)"/>
       <path id="ArialMT-20" transform="scale(0.015625)"/>
       <path id="ArialMT-28" d="M 1497 -1347 
Q 1031 -759 709 28 
Q 388 816 388 1659 
Q 388 2403 628 3084 
Q 909 3875 1497 4659 
L 1900 4659 
Q 1522 4009 1400 3731 
Q 1209 3300 1100 2831 
Q 966 2247 966 1656 
Q 966 153 1900 -1347 
L 1497 -1347 
z
" transform="scale(0.015625)"/>
       <path id="ArialMT-73" d="M 197 991 
L 753 1078 
Q 800 744 1014 566 
Q 1228 388 1613 388 
Q 2000 388 2187 545 
Q 2375 703 2375 916 
Q 2375 1106 2209 1216 
Q 2094 1291 1634 1406 
Q 1016 1563 777 1677 
Q 538 1791 414 1992 
Q 291 2194 291 2438 
Q 291 2659 392 2848 
Q 494 3038 669 3163 
Q 800 3259 1026 3326 
Q 1253 3394 1513 3394 
Q 1903 3394 2198 3281 
Q 2494 3169 2634 2976 
Q 2775 2784 2828 2463 
L 2278 2388 
Q 2241 2644 2061 2787 
Q 1881 2931 1553 2931 
Q 1166 2931 1000 2803 
Q 834 2675 834 2503 
Q 834 2394 903 2306 
Q 972 2216 1119 2156 
Q 1203 2125 1616 2013 
Q 2213 1853 2448 1751 
Q 2684 1650 2818 1456 
Q 2953 1263 2953 975 
Q 2953 694 2789 445 
Q 2625 197 2315 61 
Q 2006 -75 1616 -75 
Q 969 -75 630 194 
Q 291 463 197 991 
z
" transform="scale(0.015625)"/>
       <path id="ArialMT-29" d="M 791 -1347 
L 388 -1347 
Q 1322 153 1322 1656 
Q 1322 2244 1188 2822 
Q 1081 3291 891 3722 
Q 769 4003 388 4659 
L 791 4659 
Q 1378 3875 1659 3084 
Q 1900 2403 1900 1659 
Q 1900 816 1576 28 
Q 1253 -759 791 -1347 
z
" transform="scale(0.015625)"/>
      </defs>
      <use xlink:href="#ArialMT-54"/>
      <use xlink:href="#ArialMT-69" x="57.333984"/>
      <use xlink:href="#ArialMT-6d" x="79.550781"/>
      <use xlink:href="#ArialMT-65" x="162.851562"/>
      <use xlink:href="#ArialMT-20" x="218.466797"/>
      <use xlink:href="#ArialMT-28" x="246.25"/>
      <use xlink:href="#ArialMT-73" x="279.550781"/>
      <use xlink:href="#ArialMT-29" x="329.550781"/>
     </g>
    </g>
   </g>
   <g id="matplotlib.axis_2">
    <g id="ytick_1">
     <g id="line2d_10">
      <defs>
       <path id="m56bf7dc1b7" d="M 0 0 
L -6 0 
" style="stroke: #262626; stroke-width: 1.25"/>
      </defs>
      <g>
       <use xlink:href="#m56bf7dc1b7" x="54" y="252" style="fill: #262626; stroke: #262626; stroke-width: 1.25"/>
      </g>
     </g>
     <g id="text_11">
      <!-- −0.15 -->
      <g style="fill: #262626" transform="translate(16.668281 255.936797)scale(0.11 -0.11)">
       <defs>
        <path id="ArialMT-2212" d="M 3381 1997 
L 356 1997 
L 356 2522 
L 3381 2522 
L 3381 1997 
z
" transform="scale(0.015625)"/>
        <path id="ArialMT-30" d="M 266 2259 
Q 266 3072 433 3567 
Q 600 4063 929 4331 
Q 1259 4600 1759 4600 
Q 2128 4600 2406 4451 
Q 2684 4303 2865 4023 
Q 3047 3744 3150 3342 
Q 3253 2941 3253 2259 
Q 3253 1453 3087 958 
Q 2922 463 2592 192 
Q 2263 -78 1759 -78 
Q 1097 -78 719 397 
Q 266 969 266 2259 
z
M 844 2259 
Q 844 1131 1108 757 
Q 1372 384 1759 384 
Q 2147 384 2411 759 
Q 2675 1134 2675 2259 
Q 2675 3391 2411 3762 
Q 2147 4134 1753 4134 
Q 1366 4134 1134 3806 
Q 844 3388 844 2259 
z
" transform="scale(0.015625)"/>
        <path id="ArialMT-2e" d="M 581 0 
L 581 641 
L 1222 641 
L 1222 0 
L 581 0 
z
" transform="scale(0.015625)"/>
       </defs>
       <use xlink:href="#ArialMT-2212"/>
       <use xlink:href="#ArialMT-30" x="58.398438"/>
       <use xlink:href="#ArialMT-2e" x="114.013672"/>
       <use xlink:href="#ArialMT-31" x="141.796875"/>
       <use xlink:href="#ArialMT-35" x="197.412109"/>
      </g>
     </g>
    </g>
    <g id="ytick_2">
     <g id="line2d_11">
      <g>
       <use xlink:href="#m56bf7dc1b7" x="54" y="215.76" style="fill: #262626; stroke: #262626; stroke-width: 1.25"/>
      </g>
     </g>
     <g id="text_12">
      <!-- −0.10 -->
      <g style="fill: #262626" transform="translate(16.668281 219.696797)scale(0.11 -0.11)">
       <use xlink:href="#ArialMT-2212"/>
       <use xlink:href="#ArialMT-30" x="58.398438"/>
       <use xlink:href="#ArialMT-2e" x="114.013672"/>
       <use xlink:href="#ArialMT-31" x="141.796875"/>
       <use xlink:href="#ArialMT-30" x="197.412109"/>
      </g>
     </g>
    </g>
    <g id="ytick_3">
     <g id="line2d_12">
      <g>
       <use xlink:href="#m56bf7dc1b7" x="54" y="179.52" style="fill: #262626; stroke: #262626; stroke-width: 1.25"/>
      </g>
     </g>
     <g id="text_13">
      <!-- −0.05 -->
      <g style="fill: #262626" transform="translate(16.668281 183.456797)scale(0.11 -0.11)">
       <use xlink:href="#ArialMT-2212"/>
       <use xlink:href="#ArialMT-30" x="58.398438"/>
       <use xlink:href="#ArialMT-2e" x="114.013672"/>
       <use xlink:href="#ArialMT-30" x="141.796875"/>
       <use xlink:href="#ArialMT-35" x="197.412109"/>
      </g>
     </g>
    </g>
    <g id="ytick_4">
     <g id="line2d_13">
      <g>
       <use xlink:href="#m56bf7dc1b7" x="54" y="143.28" style="fill: #262626; stroke: #262626; stroke-width: 1.25"/>
      </g>
     </g>
     <g id="text_14">
      <!-- 0.00 -->
      <g style="fill: #262626" transform="translate(23.092969 147.216797)scale(0.11 -0.11)">
       <use xlink:href="#ArialMT-30"/>
       <use xlink:href="#ArialMT-2e" x="55.615234"/>
       <use xlink:href="#ArialMT-30" x="83.398438"/>
       <use xlink:href="#ArialMT-30" x="139.013672"/>
      </g>
     </g>
    </g>
    <g id="ytick_5">
     <g id="line2d_14">
      <g>
       <use xlink:href="#m56bf7dc1b7" x="54" y="107.04" style="fill: #262626; stroke: #262626; stroke-width: 1.25"/>
      </g>
     </g>
     <g id="text_15">
      <!-- 0.05 -->
      <g style="fill: #262626" transform="translate(23.092969 110.976797)scale(0.11 -0.11)">
       <use xlink:href="#ArialMT-30"/>
       <use xlink:href="#ArialMT-2e" x="55.615234"/>
       <use xlink:href="#ArialMT-30" x="83.398438"/>
       <use xlink:href="#ArialMT-35" x="139.013672"/>
      </g>
     </g>
    </g>
    <g id="ytick_6">
     <g id="line2d_15">
      <g>
       <use xlink:href="#m56bf7dc1b7" x="54" y="70.8" style="fill: #262626; stroke: #262626; stroke-width: 1.25"/>
      </g>
     </g>
     <g id="text_16">
      <!-- 0.10 -->
      <g style="fill: #262626" transform="translate(23.092969 74.736797)scale(0.11 -0.11)">
       <use xlink:href="#ArialMT-30"/>
       <use xlink:href="#ArialMT-2e" x="55.615234"/>
       <use xlink:href="#ArialMT-31" x="83.398438"/>
       <use xlink:href="#ArialMT-30" x="139.013672"/>
      </g>
     </g>
    </g>
    <g id="ytick_7">
     <g id="line2d_16">
      <g>
       <use xlink:href="#m56bf7dc1b7" x="54" y="34.56" style="fill: #262626; stroke: #262626; stroke-width: 1.25"/>
      </g>
     </g>
     <g id="text_17">
      <!-- 0.15 -->
      <g style="fill: #262626" transform="translate(23.092969 38.496797)scale(0.11 -0.11)">
       <use xlink:href="#ArialMT-30"/>
       <use xlink:href="#ArialMT-2e" x="55.615234"/>
       <use xlink:href="#ArialMT-31" x="83.398438"/>
       <use xlink:href="#ArialMT-35" x="139.013672"/>
      </g>
     </g>
    </g>
    <g id="text_18">
     <!-- Amplitude -->
     <g style="fill: #262626" transform="translate(10.283281 169.959375)rotate(-90)scale(0.12 -0.12)">
      <defs>
       <path id="ArialMT-41" d="M -9 0 
L 1750 4581 
L 2403 4581 
L 4278 0 
L 3588 0 
L 3053 1388 
L 1138 1388 
L 634 0 
L -9 0 
z
M 1313 1881 
L 2866 1881 
L 2388 3150 
Q 2169 3728 2063 4100 
Q 1975 3659 1816 3225 
L 1313 1881 
z
" transform="scale(0.015625)"/>
       <path id="ArialMT-70" d="M 422 -1272 
L 422 3319 
L 934 3319 
L 934 2888 
Q 1116 3141 1344 3267 
Q 1572 3394 1897 3394 
Q 2322 3394 2647 3175 
Q 2972 2956 3137 2557 
Q 3303 2159 3303 1684 
Q 3303 1175 3120 767 
Q 2938 359 2589 142 
Q 2241 -75 1856 -75 
Q 1575 -75 1351 44 
Q 1128 163 984 344 
L 984 -1272 
L 422 -1272 
z
M 931 1641 
Q 931 1000 1190 694 
Q 1450 388 1819 388 
Q 2194 388 2461 705 
Q 2728 1022 2728 1688 
Q 2728 2322 2467 2637 
Q 2206 2953 1844 2953 
Q 1484 2953 1207 2617 
Q 931 2281 931 1641 
z
" transform="scale(0.015625)"/>
       <path id="ArialMT-6c" d="M 409 0 
L 409 4581 
L 972 4581 
L 972 0 
L 409 0 
z
" transform="scale(0.015625)"/>
       <path id="ArialMT-74" d="M 1650 503 
L 1731 6 
Q 1494 -44 1306 -44 
Q 1000 -44 831 53 
Q 663 150 594 308 
Q 525 466 525 972 
L 525 2881 
L 113 2881 
L 113 3319 
L 525 3319 
L 525 4141 
L 1084 4478 
L 1084 3319 
L 1650 3319 
L 1650 2881 
L 1084 2881 
L 1084 941 
Q 1084 700 1114 631 
Q 1144 563 1211 522 
Q 1278 481 1403 481 
Q 1497 481 1650 503 
z
" transform="scale(0.015625)"/>
       <path id="ArialMT-75" d="M 2597 0 
L 2597 488 
Q 2209 -75 1544 -75 
Q 1250 -75 995 37 
Q 741 150 617 320 
Q 494 491 444 738 
Q 409 903 409 1263 
L 409 3319 
L 972 3319 
L 972 1478 
Q 972 1038 1006 884 
Q 1059 663 1231 536 
Q 1403 409 1656 409 
Q 1909 409 2131 539 
Q 2353 669 2445 892 
Q 2538 1116 2538 1541 
L 2538 3319 
L 3100 3319 
L 3100 0 
L 2597 0 
z
" transform="scale(0.015625)"/>
       <path id="ArialMT-64" d="M 2575 0 
L 2575 419 
Q 2259 -75 1647 -75 
Q 1250 -75 917 144 
Q 584 363 401 755 
Q 219 1147 219 1656 
Q 219 2153 384 2558 
Q 550 2963 881 3178 
Q 1213 3394 1622 3394 
Q 1922 3394 2156 3267 
Q 2391 3141 2538 2938 
L 2538 4581 
L 3097 4581 
L 3097 0 
L 2575 0 
z
M 797 1656 
Q 797 1019 1065 703 
Q 1334 388 1700 388 
Q 2069 388 2326 689 
Q 2584 991 2584 1609 
Q 2584 2291 2321 2609 
Q 2059 2928 1675 2928 
Q 1300 2928 1048 2622 
Q 797 2316 797 1656 
z
" transform="scale(0.015625)"/>
      </defs>
      <use xlink:href="#ArialMT-41"/>
      <use xlink:href="#ArialMT-6d" x="66.699219"/>
      <use xlink:href="#ArialMT-70" x="150"/>
      <use xlink:href="#ArialMT-6c" x="205.615234"/>
      <use xlink:href="#ArialMT-69" x="227.832031"/>
      <use xlink:href="#ArialMT-74" x="250.048828"/>
      <use xlink:href="#ArialMT-75" x="277.832031"/>
      <use xlink:href="#ArialMT-64" x="333.447266"/>
      <use xlink:href="#ArialMT-65" x="389.0625"/>
     </g>
    </g>
   </g>
   <g id="line2d_17">
    <path d="M 54 77.350354 
L 388.8 77.350354 
" clip-path="url(#pbeb17ee8a6)" style="fill: none; stroke: #c44e52; stroke-width: 1.5; stroke-linecap: round"/>
   </g>
   <g id="line2d_18">
    <path d="M 54 209.209646 
L 388.8 209.209646 
" clip-path="url(#pbeb17ee8a6)" style="fill: none; stroke: #c44e52; stroke-width: 1.5; stroke-linecap: round"/>
   </g>
   <g id="line2d_19">
    <path d="M 69.218182 175.165621 
L 69.78095 43.780306 
L 69.874744 47.379434 
L 70.062334 22.413525 
L 70.156128 33.948758 
L 70.249923 27.520817 
L 70.718896 127.488622 
L 71.094075 204.753763 
L 71.187869 203.195431 
L 71.281664 221.60064 
L 71.375459 217.846593 
L 71.469253 222.0515 
L 71.750637 174.333241 
L 72.125816 108.615922 
L 72.219611 100.135168 
L 72.688584 169.329003 
L 73.063762 261.919132 
L 73.157557 262.032464 
L 73.251352 278.360992 
L 73.345146 276.676393 
L 73.438941 277.875332 
L 73.532736 269.057425 
L 74.189298 101.272118 
L 74.376888 84.70461 
L 74.752066 141.876824 
L 75.03345 212.317117 
L 75.127245 207.968843 
L 75.314834 237.091626 
L 75.408629 235.317367 
L 75.502423 246.609219 
L 75.783807 195.340098 
L 76.065191 152.00313 
L 76.346575 75.622086 
L 76.44037 76.801878 
L 76.534164 73.618753 
L 76.627959 74.438807 
L 76.721754 86.098662 
L 76.815548 79.723778 
L 77.003138 119.765283 
L 77.096932 109.770811 
L 77.565906 188.995793 
L 77.6597 193.00974 
L 77.753495 188.958547 
L 77.84729 193.151737 
L 78.128673 142.525001 
L 78.316263 94.589244 
L 78.503852 49.31843 
L 78.597647 20.715738 
L 78.691441 23.493603 
L 78.785236 15.486891 
L 78.879031 20.674248 
L 79.06662 54.881027 
L 79.441799 149.814701 
L 79.535593 169.697414 
L 79.629388 159.256683 
L 79.816977 184.671237 
L 79.910772 185.059432 
L 80.192156 154.959922 
L 80.28595 146.32736 
L 80.661129 69.378298 
L 80.754924 69.31408 
L 81.036308 79.977539 
L 81.223897 117.303713 
L 81.411486 156.150805 
L 81.505281 150.294183 
L 81.786665 209.470868 
L 81.880459 210.573616 
L 81.974254 206.27262 
L 82.068049 207.720278 
L 82.255638 180.925758 
L 82.349433 175.529612 
L 82.630817 103.438849 
L 83.005995 60.075791 
L 83.09979 67.326028 
L 83.662558 179.334913 
L 83.756352 178.135407 
L 84.131531 229.514572 
L 84.225326 231.39475 
L 84.600504 173.03696 
L 84.881888 117.066463 
L 85.257067 84.2252 
L 86.195013 259.902851 
L 86.288808 250.932087 
L 86.382603 253.985059 
L 86.851576 170.333301 
L 87.13296 101.393741 
L 87.414344 84.455162 
L 87.508138 84.923919 
L 87.789522 123.785507 
L 87.883317 160.990895 
L 87.977112 160.789324 
L 88.070906 164.619233 
L 88.258496 212.585465 
L 88.446085 206.226608 
L 88.53988 208.542199 
L 88.633674 194.111045 
L 88.727469 199.57054 
L 89.196442 95.727851 
L 89.290237 81.15302 
L 89.477826 30.348497 
L 89.571621 13.350311 
L 90.509567 201.953032 
L 90.790951 227.865392 
L 90.884746 198.466631 
L 91.072335 207.249108 
L 91.259924 171.62893 
L 91.353719 163.020585 
L 91.635103 91.664419 
L 91.728898 84.236211 
L 91.822692 90.120218 
L 91.916487 71.590852 
L 92.010282 80.219323 
L 92.104076 110.815306 
L 92.197871 101.344663 
L 92.573049 181.35864 
L 92.666844 169.58882 
L 92.760639 200.035824 
L 92.854433 198.596347 
L 92.948228 213.809195 
L 93.042023 213.048067 
L 93.135817 226.196201 
L 93.229612 218.384297 
L 93.323407 219.227401 
L 93.510996 151.052838 
L 93.604791 147.509373 
L 93.979969 89.487114 
L 94.073764 91.990595 
L 94.167558 78.27113 
L 94.261353 81.708502 
L 95.01171 203.091867 
L 95.105505 195.034261 
L 95.1993 214.148583 
L 95.386889 204.305615 
L 95.480684 186.438014 
L 95.574478 194.464649 
L 95.855862 125.0868 
L 95.949657 125.744543 
L 96.137246 114.731787 
L 96.324835 89.600335 
L 96.41863 93.621824 
L 96.700014 151.276294 
L 96.793809 159.752348 
L 96.887603 147.817485 
L 97.168987 186.919227 
L 97.262782 176.886863 
L 97.356577 178.209734 
L 97.731755 146.274207 
L 98.388318 44.681677 
L 98.482112 46.866429 
L 98.575907 38.493513 
L 98.669702 41.811656 
L 98.951086 117.681561 
L 99.513853 183.304521 
L 99.607648 183.041865 
L 99.701443 177.965318 
L 99.889032 135.266364 
L 99.982827 133.398668 
L 100.076621 120.221278 
L 100.264211 85.109567 
L 100.4518 56.617186 
L 100.545595 74.424622 
L 100.639389 70.159904 
L 100.733184 72.094355 
L 101.483541 188.859871 
L 101.577336 183.26126 
L 101.764925 207.548038 
L 101.85872 212.014288 
L 102.233898 187.205861 
L 102.515282 116.010529 
L 102.609077 127.91662 
L 102.796666 100.199916 
L 102.890461 107.783676 
L 103.07805 94.737325 
L 103.359434 129.301332 
L 103.453229 146.571405 
L 103.547023 140.307027 
L 103.922202 211.431754 
L 104.015997 194.890502 
L 104.109791 195.002855 
L 104.203586 187.649675 
L 104.297381 198.332804 
L 104.766354 107.635689 
L 104.953943 81.102514 
L 105.047738 78.270833 
L 105.235327 104.909489 
L 105.329122 96.210848 
L 105.7043 177.618115 
L 105.798095 182.110053 
L 105.985684 212.055998 
L 106.079479 216.223791 
L 106.267068 213.702257 
L 106.829836 120.788266 
L 106.923631 114.78298 
L 107.205015 79.335461 
L 107.298809 78.133283 
L 107.392604 82.664842 
L 107.486399 116.185742 
L 107.580193 111.700658 
L 108.236756 198.427631 
L 108.33055 202.061193 
L 108.705729 190.474245 
L 109.362292 93.467352 
L 109.456086 88.196957 
L 109.549881 69.340703 
L 110.112649 140.58048 
L 110.394033 196.84869 
L 110.487827 198.382711 
L 110.581622 194.47015 
L 110.675417 202.077167 
L 110.956801 191.782128 
L 111.050595 162.812001 
L 111.14439 163.516054 
L 111.238185 146.561553 
L 111.425774 94.497605 
L 111.613363 67.607692 
L 111.707158 76.407191 
L 111.800953 61.707284 
L 112.269926 137.858541 
L 112.645104 209.786883 
L 112.738899 189.352743 
L 112.926488 216.081222 
L 113.207872 173.046971 
L 113.301667 172.01154 
L 113.489256 118.67519 
L 113.583051 109.03487 
L 113.77064 47.851985 
L 113.864435 34.087713 
L 114.145819 62.956913 
L 114.333408 107.918444 
L 114.427203 124.016216 
L 114.614792 176.868312 
L 114.896176 232.749687 
L 114.989971 227.951252 
L 115.083765 208.4233 
L 115.17756 222.124911 
L 115.552738 147.747333 
L 115.646533 141.63091 
L 115.927917 86.932095 
L 116.021712 86.616704 
L 116.115506 73.033458 
L 116.772069 201.560592 
L 116.959658 242.648824 
L 117.147248 253.812792 
L 117.241042 252.467141 
L 117.428631 230.449198 
L 117.80381 163.160551 
L 117.991399 115.026428 
L 118.085194 111.967455 
L 118.272783 76.62575 
L 118.460373 88.269594 
L 118.647962 104.29043 
L 118.929346 155.610204 
L 119.116935 200.17795 
L 119.21073 196.716314 
L 119.304524 200.561757 
L 119.492114 183.545716 
L 119.585908 176.780748 
L 119.679703 158.75604 
L 119.773498 165.804187 
L 120.054882 121.727386 
L 120.336266 78.228571 
L 120.43006 82.154631 
L 120.523855 60.807188 
L 120.711444 73.18758 
L 120.805239 67.519659 
L 121.180417 147.558943 
L 121.461801 186.951212 
L 121.555596 178.819443 
L 121.743185 202.129016 
L 121.930775 184.624819 
L 122.024569 188.668381 
L 122.212159 144.458363 
L 122.774926 36.865335 
L 122.868721 40.497916 
L 123.2439 112.550103 
L 123.337694 116.384132 
L 123.712873 201.478162 
L 123.806668 198.872232 
L 123.900462 191.551786 
L 123.994257 194.660881 
L 124.838409 71.898133 
L 124.932203 84.082524 
L 125.025998 73.444727 
L 125.119793 77.677245 
L 125.87015 204.997111 
L 125.963945 190.857373 
L 126.057739 220.50773 
L 126.151534 216.88303 
L 126.432918 179.270305 
L 126.526712 172.167167 
L 126.620507 176.997649 
L 126.901891 105.83236 
L 126.995686 94.022176 
L 127.08948 95.744802 
L 127.183275 95.199353 
L 127.27707 63.550181 
L 127.558454 118.383972 
L 127.652248 111.609231 
L 127.933632 170.864281 
L 128.215016 213.701902 
L 128.308811 209.81931 
L 128.402605 211.240269 
L 128.871579 149.995385 
L 129.152963 111.465387 
L 129.340552 101.864177 
L 129.434347 81.757597 
L 129.528141 82.287377 
L 129.90332 139.707483 
L 130.184704 190.703788 
L 130.372293 218.929116 
L 130.559882 204.703505 
L 130.653677 217.822358 
L 130.747472 210.433385 
L 130.935061 172.895058 
L 131.028856 165.1235 
L 131.497829 88.068248 
L 131.685418 105.430663 
L 131.779213 99.395121 
L 132.060597 163.830319 
L 132.154391 167.160393 
L 132.341981 200.340069 
L 132.435775 209.401534 
L 132.52957 203.556427 
L 132.717159 216.363758 
L 132.998543 177.875959 
L 133.092338 188.139685 
L 133.279927 162.476705 
L 133.373722 167.86076 
L 133.7489 123.220082 
L 134.124079 139.961842 
L 134.217874 164.89319 
L 134.311668 164.245538 
L 134.686847 228.39731 
L 134.780642 215.453321 
L 134.874436 233.346515 
L 135.062025 214.694737 
L 135.15582 227.428235 
L 135.530999 174.526086 
L 135.624793 147.031117 
L 135.718588 150.405824 
L 136.093767 99.637804 
L 136.187561 97.487474 
L 136.281356 106.866203 
L 136.375151 99.121412 
L 136.656535 149.827475 
L 136.844124 177.34276 
L 136.937918 207.674557 
L 137.031713 206.628062 
L 137.125508 212.313246 
L 137.313097 203.819144 
L 137.406892 206.220053 
L 137.688276 172.734087 
L 137.78207 178.860448 
L 138.157249 58.967589 
L 138.344838 32.457086 
L 138.532428 23.629139 
L 138.907606 135.949645 
L 139.001401 125.580422 
L 139.18899 177.072512 
L 139.282785 192.942444 
L 139.376579 178.300814 
L 139.470374 186.60205 
L 139.751758 150.853818 
L 140.126937 88.630438 
L 140.220731 68.113547 
L 140.314526 72.381372 
L 140.40832 66.567508 
L 140.502115 51.149297 
L 140.689704 69.05639 
L 140.783499 70.398256 
L 140.877294 65.782605 
L 141.346267 152.804162 
L 141.721446 195.752761 
L 141.909035 189.780185 
L 142.00283 160.843197 
L 142.096624 178.740152 
L 142.378008 120.998397 
L 142.659392 73.116785 
L 142.753187 78.396706 
L 142.846981 72.880597 
L 143.034571 91.92872 
L 143.128365 117.391879 
L 143.22216 110.844516 
L 143.503544 163.429802 
L 143.691133 191.010217 
L 143.878723 170.449016 
L 143.972517 180.67524 
L 144.066312 177.367734 
L 144.44149 134.77797 
L 144.910464 64.915699 
L 145.098053 74.430308 
L 145.191848 74.420635 
L 145.473232 147.240054 
L 145.567026 150.650484 
L 145.754615 177.375988 
L 146.035999 205.398166 
L 146.129794 204.083548 
L 146.317383 178.834363 
L 146.411178 174.164347 
L 147.067741 87.29336 
L 147.536714 155.935707 
L 147.818098 207.568402 
L 148.005687 235.350488 
L 148.287071 211.100919 
L 148.380866 215.679728 
L 149.225018 99.292973 
L 149.318812 100.87774 
L 149.506401 111.997146 
L 149.693991 147.200763 
L 149.787785 153.690751 
L 150.069169 196.440368 
L 150.162964 201.495878 
L 150.350553 226.198998 
L 150.444348 223.786997 
L 151.194705 113.755902 
L 151.2885 83.67093 
L 151.476089 112.046359 
L 151.569884 103.874302 
L 151.663678 111.499751 
L 151.757473 107.56112 
L 152.320241 202.363913 
L 152.414036 193.461678 
L 152.50783 182.681845 
L 152.601625 189.974338 
L 152.69542 188.672636 
L 153.164393 130.301689 
L 153.727161 22.151004 
L 154.102339 99.02844 
L 154.289929 143.063374 
L 154.571313 190.179357 
L 154.758902 204.496133 
L 154.852696 202.293531 
L 155.509259 82.135431 
L 155.603054 93.783394 
L 155.790643 64.156218 
L 155.978232 74.778425 
L 156.072027 77.025147 
L 156.447205 131.254384 
L 156.541 122.982649 
L 156.728589 159.381679 
L 156.916179 197.721495 
L 157.009973 169.911913 
L 157.103768 201.289264 
L 157.197563 194.291374 
L 157.854125 65.655847 
L 158.041715 69.809855 
L 158.229304 61.484541 
L 158.323098 62.324919 
L 158.604482 112.962481 
L 158.885866 168.079565 
L 158.979661 165.097165 
L 159.16725 202.30419 
L 159.261045 211.916794 
L 159.542429 195.061737 
L 159.636224 206.165088 
L 159.730018 203.450664 
L 160.011402 154.045996 
L 160.105197 155.965976 
L 160.386581 98.965045 
L 160.480375 130.40467 
L 160.667965 113.571417 
L 160.761759 155.433019 
L 160.855554 153.077688 
L 161.230733 215.258639 
L 161.324527 203.102059 
L 161.418322 220.452728 
L 161.7935 180.236482 
L 161.887295 154.406289 
L 161.98109 165.349124 
L 162.168679 123.090595 
L 162.262474 118.933663 
L 162.543858 64.091712 
L 162.637652 64.297823 
L 162.731447 70.076881 
L 163.20042 160.474005 
L 163.481804 186.214364 
L 163.575599 190.147251 
L 163.669393 206.185354 
L 163.856983 184.036754 
L 163.950777 179.81712 
L 164.044572 158.48808 
L 164.138367 173.443461 
L 164.419751 98.673318 
L 164.701135 79.895021 
L 164.794929 84.262237 
L 165.357697 140.507526 
L 165.545286 182.234746 
L 165.732876 210.446354 
L 165.82667 215.521833 
L 165.920465 209.166394 
L 166.01426 234.062869 
L 166.201849 196.851344 
L 166.295644 197.740434 
L 166.858412 90.992739 
L 166.952206 90.565035 
L 167.139795 109.334766 
L 167.327385 101.601067 
L 167.796358 191.790955 
L 167.983947 206.965951 
L 168.077742 205.034765 
L 168.265331 209.249797 
L 168.359126 203.649537 
L 169.109483 68.640797 
L 169.203278 86.412396 
L 169.390867 90.211661 
L 169.672251 160.627561 
L 170.04743 223.061379 
L 170.141224 216.312645 
L 170.235019 226.973407 
L 170.328814 217.275003 
L 170.422608 217.86138 
L 170.610198 162.178783 
L 170.703992 156.503925 
L 171.079171 70.615517 
L 171.454349 30.536366 
L 171.735733 89.852562 
L 171.923323 136.997572 
L 172.017117 139.970613 
L 172.392296 192.382769 
L 172.48609 191.607824 
L 172.67368 206.238959 
L 172.861269 197.507543 
L 173.330242 85.620702 
L 173.517832 58.429115 
L 173.611626 66.88971 
L 173.705421 62.742917 
L 173.799216 70.268673 
L 174.361983 163.45024 
L 174.455778 168.097327 
L 174.737162 199.108064 
L 175.112341 171.33143 
L 175.675109 62.807504 
L 175.768903 58.60012 
L 175.862698 48.393091 
L 175.956493 48.70262 
L 176.144082 84.70731 
L 176.237876 92.510991 
L 176.613055 167.038879 
L 176.894439 194.17255 
L 176.988234 190.860137 
L 177.082028 205.242339 
L 177.363412 163.632209 
L 177.832385 88.255726 
L 178.113769 77.025864 
L 178.864127 212.023704 
L 179.051716 221.918547 
L 179.145511 207.217451 
L 179.239305 217.922988 
L 179.426895 179.165936 
L 179.614484 153.392211 
L 180.083457 86.354471 
L 180.364841 76.704614 
L 181.302788 223.522018 
L 181.396582 225.277022 
L 181.771761 163.086813 
L 181.865555 157.259168 
L 182.146939 79.607034 
L 182.522118 26.015148 
L 182.897297 62.100453 
L 183.17868 157.805091 
L 183.272475 158.682073 
L 183.553859 222.748759 
L 183.647654 214.217153 
L 183.741448 220.319859 
L 183.929038 193.941383 
L 184.022832 186.121534 
L 184.398011 107.988892 
L 184.5856 72.806743 
L 184.679395 80.515726 
L 184.77319 77.470329 
L 184.866984 70.404163 
L 185.242163 137.582495 
L 185.335957 130.393526 
L 185.523547 194.455128 
L 185.804931 210.088715 
L 185.898725 203.254385 
L 185.99252 212.8297 
L 186.461493 109.112934 
L 186.555288 121.980653 
L 186.836672 88.619678 
L 186.930466 93.927791 
L 187.962208 230.16047 
L 188.056002 228.304657 
L 188.149797 214.677282 
L 188.243592 225.669348 
L 188.712565 124.885639 
L 188.806359 128.535537 
L 188.993949 101.23177 
L 189.087743 117.357034 
L 189.181538 114.369594 
L 189.369127 133.021073 
L 189.838101 188.428638 
L 189.931895 187.320342 
L 190.02569 201.592172 
L 190.119485 198.098708 
L 190.307074 223.832332 
L 190.400868 221.472157 
L 190.494663 224.355714 
L 190.869842 167.210342 
L 191.057431 124.451792 
L 191.43261 87.675708 
L 191.526404 114.413377 
L 191.620199 113.084079 
L 191.713994 123.99832 
L 191.901583 160.244314 
L 191.995378 158.691231 
L 192.276761 197.946685 
L 192.370556 191.507072 
L 192.464351 199.600971 
L 192.558145 197.931219 
L 193.308503 52.563721 
L 193.496092 55.22486 
L 193.777476 100.592527 
L 194.05886 163.626318 
L 194.340244 197.393461 
L 194.621628 190.360477 
L 194.715422 172.060662 
L 194.809217 177.967382 
L 195.090601 126.847763 
L 195.559574 85.053551 
L 195.653369 86.867449 
L 195.747163 102.559425 
L 195.840958 99.742037 
L 195.934753 99.868051 
L 196.122342 120.77004 
L 196.216137 131.787936 
L 196.309931 124.284967 
L 196.497521 161.049991 
L 196.68511 167.585014 
L 196.778905 188.746722 
L 196.966494 167.221208 
L 197.060289 165.374746 
L 197.247878 141.656734 
L 197.341673 145.962566 
L 197.435467 125.604527 
L 197.529262 143.901863 
L 197.623056 110.614717 
L 197.716851 115.033051 
L 197.90444 82.645381 
L 197.998235 85.809409 
L 198.09203 87.018685 
L 198.185824 79.719927 
L 198.373414 124.887154 
L 198.467208 128.626846 
L 198.842387 189.71455 
L 198.936182 185.242833 
L 199.123771 188.014689 
L 199.217565 184.006078 
L 199.31136 184.667866 
L 199.592744 129.818417 
L 199.686539 125.97961 
L 199.874128 106.887329 
L 199.967923 103.462422 
L 200.061717 90.974523 
L 200.155512 105.614009 
L 200.249307 96.272374 
L 200.905869 211.525024 
L 201.187253 186.296117 
L 201.281048 190.449788 
L 201.562432 155.692481 
L 201.656226 155.229968 
L 201.750021 147.777765 
L 201.93761 106.910296 
L 202.031405 102.78011 
L 202.1252 79.961352 
L 202.218994 84.944364 
L 202.312789 83.808945 
L 202.406584 85.994465 
L 202.500378 106.258121 
L 202.594173 106.23054 
L 202.687968 103.167119 
L 203.250735 203.880412 
L 203.34453 193.828952 
L 203.438325 196.035773 
L 203.532119 209.521402 
L 204.470066 107.961174 
L 204.845244 132.605884 
L 205.032834 155.322002 
L 205.408012 194.652828 
L 205.501807 207.47222 
L 205.783191 184.739933 
L 205.876986 181.357822 
L 206.064575 151.597431 
L 206.252164 140.455851 
L 206.439753 111.509822 
L 206.533548 124.972872 
L 206.814932 90.302054 
L 206.908727 104.692059 
L 207.002521 90.08373 
L 207.565289 180.22889 
L 207.659084 208.631921 
L 207.752879 201.242281 
L 207.846673 210.052309 
L 207.940468 207.76478 
L 208.034263 213.411585 
L 208.315646 189.413165 
L 208.59703 142.707686 
L 209.066004 84.830312 
L 209.159798 97.185164 
L 209.253593 95.687224 
L 209.441182 121.123072 
L 209.816361 190.5708 
L 210.00395 206.145901 
L 210.097745 203.358082 
L 210.191539 193.42138 
L 210.285334 197.892969 
L 211.223281 56.124552 
L 211.317075 53.693773 
L 211.41087 57.528138 
L 211.692254 112.832135 
L 211.879843 163.639848 
L 212.255022 200.846121 
L 212.348816 198.092664 
L 212.442611 206.608438 
L 212.6302 183.482555 
L 212.911584 160.029443 
L 213.192968 102.288929 
L 213.286763 99.26835 
L 213.474352 78.955146 
L 213.568147 77.37045 
L 213.849531 112.25895 
L 214.506093 207.938716 
L 214.599888 215.442084 
L 214.881272 175.479666 
L 214.975067 177.579901 
L 215.068861 178.843312 
L 215.44404 118.831946 
L 215.819218 82.540138 
L 216.194397 108.482076 
L 216.85096 211.039765 
L 217.038549 195.456624 
L 217.132343 203.552495 
L 217.319933 159.849815 
L 217.695111 82.44451 
L 217.788906 82.687509 
L 217.882701 84.385429 
L 218.07029 65.177447 
L 218.164085 73.198567 
L 218.914442 214.675264 
L 219.102031 227.265513 
L 219.28962 196.543208 
L 219.383415 198.772253 
L 219.571004 169.10241 
L 219.758594 133.865904 
L 220.039978 91.817226 
L 220.133772 96.051977 
L 220.227567 93.440971 
L 220.415156 105.65733 
L 220.508951 94.131067 
L 220.884129 137.285343 
L 221.071719 155.830596 
L 221.165513 149.689056 
L 221.353103 173.618104 
L 221.446897 179.862997 
L 221.540692 174.502301 
L 221.728281 147.232147 
L 221.822076 139.105595 
L 222.291049 64.924014 
L 222.384844 58.052038 
L 222.478638 58.784304 
L 222.572433 54.246672 
L 222.947612 151.252537 
L 223.228996 190.150287 
L 223.416585 218.975732 
L 223.697969 195.497068 
L 223.791764 200.694318 
L 224.354531 89.714608 
L 224.448326 93.425635 
L 224.635915 67.427552 
L 225.480067 205.950345 
L 225.573862 203.341311 
L 225.855246 220.470459 
L 225.94904 213.154726 
L 226.324219 124.266485 
L 226.418014 125.088634 
L 226.699398 73.542098 
L 226.793192 76.801582 
L 226.886987 60.812382 
L 227.262166 131.38303 
L 227.35596 129.309463 
L 227.731139 199.233224 
L 227.824933 196.072791 
L 228.012523 203.163842 
L 228.106317 210.196639 
L 228.387701 192.116153 
L 228.481496 191.964116 
L 228.76288 141.716145 
L 228.856675 146.219909 
L 229.138059 128.409304 
L 229.231853 117.792437 
L 229.513237 146.215144 
L 229.794621 194.819871 
L 229.888416 184.426686 
L 229.98221 202.579454 
L 230.076005 196.58949 
L 230.357389 220.477178 
L 230.732568 156.923448 
L 230.826362 149.063043 
L 231.107746 99.631627 
L 231.201541 93.916764 
L 231.295335 95.2953 
L 231.38913 89.772827 
L 231.482925 92.634357 
L 231.951898 152.802198 
L 232.233282 194.060584 
L 232.327077 204.069926 
L 232.420871 190.020471 
L 232.514666 196.091954 
L 232.702255 169.966369 
L 232.79605 170.48366 
L 232.889845 162.77017 
L 233.265023 90.827937 
L 233.358818 92.486312 
L 233.546407 62.131067 
L 233.827791 85.579846 
L 234.109175 140.049807 
L 234.20297 180.231409 
L 234.296764 170.477301 
L 234.484354 194.079871 
L 234.578148 185.111242 
L 234.671943 201.394684 
L 234.953327 151.338582 
L 235.047121 145.869076 
L 235.4223 75.030328 
L 235.516095 77.420684 
L 235.609889 78.613911 
L 235.797479 56.344609 
L 236.172657 109.858308 
L 236.266452 113.932415 
L 236.64163 166.649737 
L 236.82922 183.257142 
L 236.923014 176.021621 
L 237.016809 186.585351 
L 237.204398 165.41478 
L 237.298193 160.518348 
L 237.673372 84.323409 
L 237.860961 60.629335 
L 237.954756 76.443507 
L 238.04855 62.376194 
L 238.423729 93.489095 
L 238.798907 176.64819 
L 238.892702 182.164977 
L 238.986497 182.083876 
L 239.080291 185.737521 
L 239.174086 202.130953 
L 240.018238 89.225503 
L 240.112032 67.890493 
L 240.205827 80.313054 
L 240.299622 75.656412 
L 240.393416 82.458125 
L 240.487211 121.561002 
L 240.581006 105.760821 
L 240.86239 186.900587 
L 241.049979 226.159653 
L 241.237568 223.561646 
L 241.331363 241.473198 
L 241.425158 232.50741 
L 241.518952 237.373724 
L 241.612747 231.748386 
L 241.987925 151.900867 
L 242.456899 102.524359 
L 242.925872 153.363927 
L 243.113461 186.642429 
L 243.394845 208.766766 
L 243.48864 198.402419 
L 243.582435 219.500353 
L 243.676229 212.620828 
L 243.957613 174.507786 
L 244.051408 173.310326 
L 244.145202 163.007729 
L 244.426586 104.751009 
L 244.520381 106.902383 
L 244.614176 75.655584 
L 244.70797 75.849582 
L 244.801765 88.391213 
L 244.89556 76.789949 
L 245.833506 189.024159 
L 245.927301 190.968659 
L 246.021095 179.795836 
L 246.11489 183.430944 
L 246.490069 115.459817 
L 246.771453 71.441901 
L 246.959042 40.040436 
L 247.052837 54.768812 
L 247.146631 47.123762 
L 247.428015 105.704436 
L 247.52181 111.039963 
L 247.615604 127.452307 
L 247.803194 173.577558 
L 248.084578 204.722256 
L 248.178372 183.696508 
L 248.272167 194.621242 
L 248.459756 166.444618 
L 248.92873 32.890305 
L 249.022524 11.00966 
L 249.116319 15.916665 
L 249.210113 10.896021 
L 249.303908 24.761632 
L 249.585292 110.103803 
L 249.866676 165.610826 
L 249.960471 191.957459 
L 250.054265 184.105933 
L 250.241855 188.918226 
L 250.429444 165.781029 
L 250.710828 104.375689 
L 250.898417 100.627197 
L 251.273596 43.163851 
L 251.461185 69.606561 
L 251.55498 62.939769 
L 251.648774 67.985019 
L 252.492926 260.640831 
L 252.586721 255.337647 
L 252.680515 265.696859 
L 252.961899 243.869909 
L 253.524667 96.344088 
L 253.618462 97.803645 
L 253.806051 74.464709 
L 253.899846 77.404089 
L 254.275025 143.591228 
L 254.556408 212.410956 
L 254.837792 259.649015 
L 255.119176 225.746855 
L 255.212971 247.914853 
L 255.494355 183.821286 
L 255.869534 116.701727 
L 256.057123 121.893416 
L 256.150917 121.527005 
L 256.432301 169.966585 
L 256.526096 171.596401 
L 256.713685 217.1465 
L 256.901275 234.610944 
L 256.995069 232.800208 
L 257.088864 237.851034 
L 257.370248 196.994756 
L 257.557837 163.281326 
L 257.839221 83.158886 
L 258.02681 58.128167 
L 258.120605 49.370952 
L 258.495784 115.766451 
L 258.870962 177.413807 
L 259.058552 194.756678 
L 259.246141 188.726593 
L 259.996498 61.947843 
L 260.090293 69.273969 
L 260.277882 45.267633 
L 260.371677 54.260844 
L 261.028239 195.112285 
L 261.122034 191.039912 
L 261.403418 218.671077 
L 261.497212 217.978845 
L 261.591007 208.866762 
L 261.684802 212.916358 
L 261.872391 173.365677 
L 261.966186 172.506428 
L 262.341364 97.884336 
L 262.435159 103.285125 
L 262.622748 86.008564 
L 262.716543 78.623836 
L 263.091722 152.008887 
L 263.185516 156.862129 
L 263.373105 201.331611 
L 263.4669 202.031911 
L 263.654489 223.066842 
L 263.748284 228.649834 
L 264.217257 172.40758 
L 264.498641 86.146685 
L 264.592436 87.613218 
L 264.780025 68.447158 
L 264.87382 69.331605 
L 264.967615 63.744795 
L 265.061409 71.682907 
L 265.342793 156.08673 
L 265.717972 221.35931 
L 265.811766 214.862802 
L 265.905561 217.010464 
L 266.09315 199.619988 
L 266.28074 165.147993 
L 266.843507 80.633604 
L 266.937302 75.323093 
L 267.124891 82.195264 
L 267.218686 79.360826 
L 267.50007 131.718365 
L 267.593865 118.207037 
L 267.875249 160.589195 
L 267.969043 169.072243 
L 268.062838 187.836257 
L 268.156633 181.817907 
L 268.250427 185.266396 
L 269.094579 37.814323 
L 269.188374 43.604714 
L 269.751142 142.524667 
L 270.032526 195.928594 
L 270.220115 220.907541 
L 270.501499 173.909856 
L 270.595293 181.534493 
L 271.251856 127.663581 
L 271.439445 96.712181 
L 271.53324 80.115147 
L 272.189802 174.180602 
L 272.283597 221.168642 
L 272.377392 213.214152 
L 272.564981 225.864134 
L 273.033954 164.46369 
L 273.409133 57.025857 
L 273.502928 60.908495 
L 273.690517 44.213819 
L 273.784312 45.089547 
L 273.878106 55.700906 
L 274.347079 150.486496 
L 274.440874 160.615524 
L 274.722258 214.932638 
L 274.816053 200.44556 
L 274.909847 212.891856 
L 275.753999 88.075749 
L 275.941588 80.635397 
L 276.035383 83.72526 
L 276.504356 132.761537 
L 276.78574 190.094507 
L 276.879535 194.700056 
L 277.160919 219.634327 
L 277.442303 206.001123 
L 277.629892 172.906949 
L 277.817481 132.545401 
L 277.911276 119.450626 
L 278.005071 123.451807 
L 278.098865 121.903584 
L 278.19266 116.420425 
L 278.286455 119.866098 
L 278.943017 209.24211 
L 279.036812 204.90169 
L 279.224401 224.627186 
L 279.318196 227.912529 
L 280.349937 97.556284 
L 280.443732 112.954547 
L 280.537526 98.029392 
L 281.0065 193.36699 
L 281.100294 186.253709 
L 281.194089 209.256943 
L 281.287883 201.896535 
L 281.475473 209.427542 
L 281.756857 185.844724 
L 282.132035 109.049881 
L 282.319625 77.014901 
L 282.413419 46.681478 
L 282.507214 57.34951 
L 282.694803 19.734956 
L 283.069982 69.619821 
L 283.257571 133.197769 
L 283.726544 193.994667 
L 284.101723 138.459907 
L 284.195518 128.148726 
L 284.476902 66.227203 
L 284.570696 59.299068 
L 284.758285 42.313065 
L 284.85208 42.684362 
L 285.039669 66.18385 
L 285.227259 100.094046 
L 285.696232 180.374101 
L 285.883821 218.151348 
L 285.977616 208.641492 
L 286.071411 230.962613 
L 286.165205 220.227644 
L 286.259 221.254818 
L 286.352795 219.367214 
L 286.540384 181.220491 
L 286.821768 148.992344 
L 287.009357 131.243401 
L 287.103152 131.05139 
L 287.290741 119.522437 
L 288.134893 236.265013 
L 288.228687 244.819937 
L 288.416277 241.170971 
L 288.510071 217.970576 
L 288.603866 220.086663 
L 288.88525 165.061872 
L 289.354223 70.81358 
L 289.541813 90.377016 
L 289.635607 93.903752 
L 289.823197 114.570322 
L 289.916991 130.985498 
L 290.10458 177.763667 
L 290.198375 189.060032 
L 290.29217 219.532046 
L 290.385964 215.473202 
L 290.479759 223.212388 
L 290.761143 198.848279 
L 291.230116 63.522805 
L 291.323911 51.321681 
L 291.5115 8.877599 
L 291.69909 2.493678 
L 291.980473 48.496804 
L 292.074268 56.588799 
L 292.355652 119.539291 
L 292.637036 169.623889 
L 292.730831 178.025422 
L 292.824625 162.871324 
L 292.91842 168.256259 
L 293.012215 164.820314 
L 293.199804 125.056728 
L 293.293599 121.31426 
L 293.574982 69.047619 
L 293.668777 53.84455 
L 293.856366 63.732951 
L 293.950161 50.157314 
L 294.13775 84.136567 
L 294.888108 231.047656 
L 295.075697 235.192606 
L 295.357081 204.885856 
L 295.732259 136.760888 
L 295.826054 138.863194 
L 295.919849 126.148231 
L 296.201233 149.225675 
L 296.576411 232.593741 
L 296.764001 262.570856 
L 296.857795 283.044803 
L 296.95159 276.172164 
L 297.045385 282.585356 
L 297.139179 281.955185 
L 297.232974 275.09894 
L 297.326768 278.780747 
L 298.264715 28.481917 
L 298.35851 29.677417 
L 298.452304 27.173327 
L 299.015072 195.283228 
L 299.296456 213.404037 
L 299.57784 146.836451 
L 300.232109 -1 
M 300.577676 -1 
L 300.98476 90.063046 
L 301.078554 95.085456 
L 301.172349 141.316963 
L 301.266144 133.212262 
L 301.453733 157.698777 
L 301.641322 165.234031 
L 301.735117 166.631408 
L 302.110296 103.323784 
L 302.39168 70.106295 
L 302.485474 47.820916 
L 302.579269 50.998073 
L 302.954447 101.258823 
L 303.329626 176.175335 
L 303.61101 238.081301 
L 303.704805 234.062816 
L 303.798599 238.672874 
L 303.892394 251.277023 
L 304.173778 236.559611 
L 304.642751 165.139005 
L 304.736546 153.558344 
L 304.83034 156.921116 
L 305.01793 152.371917 
L 305.205519 185.183821 
L 305.393108 216.844175 
L 305.486903 231.565184 
L 305.580698 226.317485 
L 305.674492 263.798249 
L 305.768287 260.48688 
L 305.955876 261.923485 
L 306.23726 229.157402 
L 306.987617 96.863121 
L 307.081412 100.291763 
L 307.362796 121.245853 
L 307.456591 159.756158 
L 307.550385 149.702337 
L 307.737975 195.328713 
L 308.019358 226.549367 
L 308.113153 202.122609 
L 308.300742 221.527625 
L 308.769716 132.793888 
L 309.0511 71.392195 
L 309.238689 53.063567 
L 309.332484 54.040159 
L 309.426278 40.67569 
L 309.520073 48.485433 
L 309.801457 103.533798 
L 309.895251 103.075391 
L 309.989046 117.411297 
L 310.176635 172.239697 
L 310.27043 167.543059 
L 310.364225 185.912664 
L 310.551814 174.462642 
L 310.645609 166.476663 
L 311.114582 63.778217 
L 311.48976 10.427909 
L 311.583555 27.370229 
L 311.67735 23.604157 
L 312.146323 140.666904 
L 312.427707 175.03912 
L 312.521502 185.97725 
L 312.709091 182.329208 
L 313.178064 125.482696 
L 313.553243 74.2148 
L 313.647037 94.604348 
L 313.740832 86.185599 
L 314.022216 124.988899 
L 314.209805 181.187618 
L 314.3036 174.271237 
L 314.584984 206.184363 
L 314.678779 206.563214 
L 314.772573 205.076011 
L 315.71052 78.626024 
L 315.804314 93.063984 
L 315.898109 84.003685 
L 315.991904 108.312626 
L 316.085698 83.713781 
L 316.460877 167.339201 
L 316.836055 208.279091 
L 317.398823 164.035968 
L 317.774002 83.972236 
L 317.961591 72.698003 
L 318.055386 80.292405 
L 318.149181 62.099437 
L 318.711948 159.788359 
L 319.274716 214.194646 
L 319.649895 175.526892 
L 319.74369 173.909856 
L 319.931279 142.718975 
L 320.025074 145.743607 
L 320.212663 96.716876 
L 320.306457 100.165617 
L 320.400252 92.474321 
L 320.494047 112.456283 
L 320.587841 106.789801 
L 320.96302 175.618165 
L 321.338199 218.330469 
L 321.431993 218.699431 
L 321.619583 202.903999 
L 321.713377 193.706578 
L 321.807172 199.600805 
L 321.994761 164.641553 
L 322.088556 154.762698 
L 322.276145 119.433861 
L 322.557529 97.023491 
L 322.651324 91.404117 
L 322.838913 103.444421 
L 322.932708 131.091486 
L 323.026502 115.439269 
L 323.683065 198.198895 
L 323.870654 178.698636 
L 323.964449 187.775477 
L 324.058243 172.873263 
L 324.152038 178.759811 
L 324.527217 105.236214 
L 324.621011 107.495019 
L 324.902395 74.532678 
L 325.183779 103.807098 
L 325.277574 90.403499 
L 325.652752 161.728843 
L 325.746547 160.222004 
L 325.840342 180.868416 
L 325.934136 173.970249 
L 326.027931 183.624637 
L 326.21552 163.312935 
L 326.40311 139.86551 
L 326.496904 145.084115 
L 326.778288 103.680097 
L 326.965878 68.670527 
L 327.059672 71.260523 
L 327.153467 62.740654 
L 327.62244 111.904182 
L 327.903824 169.805201 
L 328.091413 178.588117 
L 328.185208 170.22877 
L 328.279003 172.856806 
L 328.372797 182.536475 
L 328.935565 98.221853 
L 329.02936 90.607811 
L 329.123155 71.483636 
L 329.310744 88.486108 
L 329.404538 77.830877 
L 329.592128 104.323872 
L 330.24869 208.177812 
L 330.342485 220.719477 
L 330.530074 205.170278 
L 330.623869 209.206081 
L 331.186637 99.137422 
L 331.280431 105.333241 
L 331.468021 90.594394 
L 332.312173 221.734305 
L 332.405967 223.497374 
L 332.687351 208.764084 
L 333.250119 130.169616 
L 333.343914 131.264245 
L 333.531503 93.083669 
L 333.625298 101.024277 
L 333.719092 88.41092 
L 333.812887 96.403716 
L 334.000476 132.537354 
L 334.094271 137.460002 
L 334.375655 176.399748 
L 334.46945 185.455081 
L 334.563244 181.632759 
L 334.750833 203.293387 
L 334.844628 199.977336 
L 334.938423 174.889855 
L 335.032217 186.876858 
L 335.407396 137.990116 
L 335.501191 129.19619 
L 335.68878 102.279157 
L 335.782575 90.633406 
L 335.876369 92.802396 
L 335.970164 66.290094 
L 336.439137 142.23208 
L 336.532932 145.308051 
L 336.814316 195.508929 
L 337.001905 204.387077 
L 337.0957 203.166154 
L 337.189494 198.430715 
L 337.470878 166.573067 
L 337.564673 167.026564 
L 338.033646 112.226751 
L 338.127441 122.503962 
L 338.221235 101.667459 
L 338.31503 113.284036 
L 338.408825 108.833217 
L 339.159182 198.871409 
L 339.252977 193.412362 
L 339.346771 202.587616 
L 339.628155 182.369187 
L 339.815745 172.223466 
L 340.003334 141.319808 
L 340.097128 135.06357 
L 340.472307 83.144972 
L 340.566102 86.047105 
L 340.94128 126.76899 
L 341.222664 194.849075 
L 341.316459 200.67065 
L 341.410254 197.061742 
L 341.504048 201.336778 
L 341.597843 197.695474 
L 341.691637 189.327576 
L 341.785432 191.0811 
L 341.973021 166.867807 
L 342.723379 41.802788 
L 343.004763 76.626952 
L 343.379941 185.626553 
L 343.473736 178.370938 
L 343.661325 192.514082 
L 344.036504 152.2898 
L 344.411682 86.82072 
L 344.505477 90.564765 
L 344.880656 56.843603 
L 344.97445 78.864715 
L 345.068245 64.14723 
L 345.724807 183.534221 
L 345.818602 187.780819 
L 346.006191 226.161698 
L 346.099986 226.974319 
L 346.193781 218.971055 
L 346.38137 186.180171 
L 346.475165 185.630138 
L 346.568959 181.272607 
L 346.850343 122.999535 
L 346.944138 123.29442 
L 347.037932 98.012518 
L 347.131727 100.945495 
L 347.225522 108.9466 
L 347.319316 103.439145 
L 347.78829 169.112988 
L 347.882084 165.856144 
L 347.975879 188.767546 
L 348.069674 173.334998 
L 348.257263 216.645958 
L 348.538647 201.876074 
L 348.632442 203.363629 
L 348.726236 195.52328 
L 348.820031 157.489297 
L 348.913825 162.448975 
L 349.195209 108.649702 
L 349.289004 107.181495 
L 349.382799 90.488024 
L 349.476593 91.527413 
L 349.570388 86.657994 
L 349.664183 87.996217 
L 350.41454 215.741858 
L 350.789718 179.563518 
L 350.883513 187.930267 
L 351.164897 146.96064 
L 351.352486 116.189433 
L 351.63387 77.13614 
L 351.727665 96.999234 
L 351.82146 74.799606 
L 352.290433 160.297592 
L 352.384227 167.149103 
L 352.478022 189.225245 
L 352.571817 185.281529 
L 352.665611 185.371117 
L 352.759406 176.366991 
L 352.946995 180.737228 
L 353.415969 109.732136 
L 353.697353 80.555726 
L 353.884942 83.196167 
L 354.26012 131.487991 
L 354.353915 136.268631 
L 354.729094 197.785975 
L 355.104272 213.871026 
L 355.291862 185.389896 
L 355.385656 196.424121 
L 355.66704 145.532603 
L 355.760835 137.370078 
L 356.136013 75.487256 
L 356.229808 77.811603 
L 356.323603 86.67149 
L 357.07396 232.5748 
L 357.261549 223.805985 
L 358.105701 55.68631 
L 358.48088 43.783589 
L 358.574674 43.857945 
L 358.949853 166.038208 
L 359.325032 221.150156 
L 359.418826 222.146971 
L 359.794005 174.962275 
L 360.450567 50.422762 
L 360.638157 66.116888 
L 360.731951 72.386366 
L 360.919541 103.133827 
L 361.013335 113.880178 
L 361.294719 165.682682 
L 361.388514 173.941743 
L 361.576103 207.241832 
L 361.669898 191.374533 
L 361.763692 208.305612 
L 361.857487 184.629708 
L 361.951282 190.987915 
L 362.607844 103.642731 
L 362.795434 94.54288 
L 362.889228 76.684791 
L 362.983023 84.729427 
L 363.076817 79.947458 
L 363.545791 193.764937 
L 363.639585 197.491234 
L 363.920969 229.186638 
L 364.014764 224.723923 
L 364.202353 207.5115 
L 364.389943 191.777903 
L 364.671327 143.268118 
L 365.1403 73.499692 
L 365.234094 78.131954 
L 365.703068 166.825191 
L 365.890657 186.533233 
L 365.984452 188.145665 
L 366.078246 207.182756 
L 366.172041 191.506576 
L 366.265836 199.528313 
L 366.734809 118.556702 
L 366.922398 87.097685 
L 367.203782 52.459285 
L 367.391371 46.653221 
L 367.485166 51.567116 
L 367.578961 39.833246 
L 368.329318 198.299876 
L 368.423112 192.108912 
L 368.610702 199.945547 
L 368.798291 180.601157 
L 369.17347 80.967677 
L 369.361059 76.284878 
L 369.454854 79.17732 
L 369.548648 75.759389 
L 369.830032 123.246084 
L 369.923827 133.711304 
L 370.205211 197.701434 
L 370.486595 222.966663 
L 371.236952 173.243975 
L 371.612131 110.629215 
L 371.79972 96.601957 
L 372.643872 225.461774 
L 372.737666 196.178699 
L 373.01905 210.230491 
L 373.20664 173.502698 
L 373.581818 120.81057 
L 373.581818 120.81057 
" clip-path="url(#pbeb17ee8a6)" style="fill: none; stroke: #4c72b0; stroke-opacity: 0.6; stroke-width: 1.5; stroke-linecap: round"/>
   </g>
   <g id="line2d_20">
    <path d="M 69.218182 208.776841 
L 69.499566 159.045489 
L 69.968539 73.926351 
L 70.062334 68.374024 
L 70.156128 68.380205 
L 70.343718 84.603532 
L 70.718896 158.209097 
L 71.094075 215.061062 
L 71.187869 217.82644 
L 71.281664 215.059864 
L 71.469253 194.193153 
L 72.219611 70.350959 
L 72.313405 70.380645 
L 72.500995 86.254124 
L 72.876173 158.118454 
L 73.251352 213.469171 
L 73.345146 216.099833 
L 73.438941 213.319291 
L 73.62653 192.769477 
L 74.376888 71.648307 
L 74.470682 71.776242 
L 74.658271 87.552035 
L 75.127245 176.814773 
L 75.408629 212.663841 
L 75.502423 215.169207 
L 75.596218 212.336926 
L 75.783807 191.89414 
L 76.534164 72.096662 
L 76.627959 72.266951 
L 76.815548 87.997735 
L 77.284522 176.827846 
L 77.565906 212.602625 
L 77.6597 215.139001 
L 77.753495 212.358156 
L 77.941084 192.041737 
L 78.691441 71.811675 
L 78.785236 71.818257 
L 78.972825 87.270794 
L 79.348004 157.783503 
L 79.723183 212.958105 
L 79.816977 215.819871 
L 79.910772 213.344015 
L 80.098361 193.472891 
L 80.848718 71.186222 
L 80.942513 70.692205 
L 81.130102 85.330575 
L 81.505281 155.785856 
L 81.880459 213.185036 
L 81.974254 216.758751 
L 82.068049 214.962276 
L 82.255638 196.151389 
L 83.09979 69.395553 
L 83.193585 73.370532 
L 83.381174 95.952087 
L 84.131531 217.34394 
L 84.225326 216.660119 
L 84.412915 199.740708 
L 84.881888 108.116728 
L 85.163272 71.294183 
L 85.257067 68.558596 
L 85.350861 71.230878 
L 85.538451 91.64895 
L 86.288808 216.956405 
L 86.382603 217.799114 
L 86.570192 203.682835 
L 86.945371 132.989951 
L 87.320549 73.17909 
L 87.414344 68.778369 
L 87.508138 69.740566 
L 87.695728 87.081287 
L 88.53988 217.813838 
L 88.633674 215.153019 
L 88.821263 194.934888 
L 89.571621 70.473213 
L 89.665415 69.424674 
L 89.853005 82.882823 
L 90.228183 152.003738 
L 90.603362 211.626942 
L 90.697156 216.345115 
L 90.790951 215.834517 
L 90.97854 199.681315 
L 91.447514 110.659504 
L 91.728898 73.794657 
L 91.822692 70.580218 
L 91.916487 72.557732 
L 92.104076 91.120938 
L 92.948228 215.075701 
L 93.042023 211.728479 
L 93.229612 191.030096 
L 93.979969 73.234902 
L 94.073764 72.842125 
L 94.261353 86.749865 
L 94.636532 153.343995 
L 95.01171 208.858176 
L 95.105505 212.902434 
L 95.1993 211.988339 
L 95.386889 195.943382 
L 96.231041 74.446432 
L 96.324835 76.596416 
L 96.512425 94.584951 
L 97.356577 211.029605 
L 97.450371 207.7125 
L 97.63796 187.955151 
L 98.388318 77.13933 
L 98.482112 76.845394 
L 98.669702 90.074017 
L 99.04488 152.933925 
L 99.420059 205.268563 
L 99.513853 209.083623 
L 99.607648 208.22402 
L 99.795237 193.090006 
L 100.639389 77.987521 
L 100.733184 79.956321 
L 100.920773 96.886907 
L 101.764925 207.927119 
L 101.85872 204.889336 
L 102.046309 186.255881 
L 102.796666 79.83952 
L 102.890461 79.382209 
L 103.07805 91.759786 
L 103.453229 152.010032 
L 103.828407 203.043762 
L 103.922202 206.950878 
L 104.015997 206.345167 
L 104.203586 192.093995 
L 104.672559 114.565682 
L 104.953943 82.34719 
L 105.047738 79.47367 
L 105.141532 81.119073 
L 105.329122 97.185817 
L 106.173274 207.133065 
L 106.267068 204.468787 
L 106.454658 186.639397 
L 107.205015 80.319731 
L 107.298809 79.470074 
L 107.486399 91.055147 
L 107.861577 150.588475 
L 108.236756 202.729106 
L 108.33055 207.093501 
L 108.424345 206.949703 
L 108.611934 193.482086 
L 108.987113 132.219511 
L 109.362292 82.164597 
L 109.456086 78.733527 
L 109.549881 79.859283 
L 109.73747 95.164945 
L 110.581622 208.42407 
L 110.675417 206.328553 
L 110.863006 189.234142 
L 111.707158 77.690922 
L 111.800953 80.742142 
L 111.988542 99.568824 
L 112.738899 208.492593 
L 112.832694 209.14395 
L 113.020283 196.798449 
L 113.395462 135.024889 
L 113.77064 81.458857 
L 113.864435 77.064385 
L 113.958229 77.327522 
L 114.145819 91.447032 
L 114.520997 154.979235 
L 114.896176 206.74352 
L 114.989971 210.287661 
L 115.083765 209.12122 
L 115.271355 193.291395 
L 116.115506 75.70506 
L 116.209301 77.759441 
L 116.39689 95.225825 
L 117.241042 211.187798 
L 117.334837 208.265306 
L 117.522426 189.245691 
L 118.272783 76.283809 
L 118.366578 75.278787 
L 118.460373 79.045146 
L 118.647962 99.526264 
L 119.398319 210.958987 
L 119.492114 211.134854 
L 119.679703 197.533583 
L 120.054882 133.331081 
L 120.43006 79.303429 
L 120.523855 75.169029 
L 120.61765 75.807249 
L 120.805239 90.890349 
L 121.274212 173.368212 
L 121.555596 208.22731 
L 121.649391 211.576728 
L 121.743185 210.142662 
L 121.930775 193.659516 
L 122.774926 75.035499 
L 122.868721 77.244764 
L 123.05631 95.044112 
L 123.900462 211.245354 
L 123.994257 208.283048 
L 124.181846 189.251274 
L 124.932203 76.835362 
L 125.025998 75.807798 
L 125.119793 79.500441 
L 125.307382 99.68295 
L 126.057739 209.788936 
L 126.151534 210.058749 
L 126.339123 196.900125 
L 126.714302 134.179345 
L 127.08948 81.07046 
L 127.183275 76.902106 
L 127.27707 77.381586 
L 127.464659 91.803306 
L 127.839838 155.074709 
L 128.215016 205.939672 
L 128.308811 209.344729 
L 128.402605 208.12333 
L 128.590195 192.486666 
L 129.434347 77.698791 
L 129.528141 79.656527 
L 129.71573 96.465644 
L 130.559882 208.216789 
L 130.653677 205.525985 
L 130.841266 187.580929 
L 131.591623 80.215788 
L 131.685418 79.142072 
L 131.779213 82.565259 
L 131.966802 101.615461 
L 132.717159 206.191618 
L 132.810954 206.46764 
L 132.998543 194.018309 
L 133.373722 134.631992 
L 133.7489 84.527921 
L 133.842695 80.658807 
L 133.93649 81.194654 
L 134.124079 94.995308 
L 134.593052 170.623681 
L 134.874436 202.455604 
L 134.968231 205.470937 
L 135.062025 204.107055 
L 135.249615 188.954459 
L 136.093767 81.664694 
L 136.187561 83.874066 
L 136.375151 100.379868 
L 137.219302 204.165803 
L 137.313097 201.093205 
L 137.500686 183.234714 
L 138.251044 83.575898 
L 138.344838 83.288094 
L 138.532428 95.14847 
L 138.907606 151.813091 
L 139.282785 199.331132 
L 139.376579 202.87862 
L 139.470374 202.202204 
L 139.657963 188.685837 
L 140.126937 116.234678 
L 140.40832 86.495135 
L 140.502115 83.949628 
L 140.59591 85.614379 
L 140.783499 100.793979 
L 141.627651 202.165629 
L 141.721446 199.492573 
L 141.909035 182.652994 
L 142.659392 85.475971 
L 142.753187 85.028143 
L 142.940776 96.297755 
L 143.315955 151.334134 
L 143.691133 197.83789 
L 143.784928 201.33651 
L 143.878723 200.698709 
L 144.066312 187.495111 
L 144.535285 116.557051 
L 144.816669 87.56636 
L 144.910464 85.161858 
L 145.004258 86.901147 
L 145.191848 102.024462 
L 146.035999 201.257603 
L 146.129794 198.40854 
L 146.317383 181.395337 
L 147.067741 85.806836 
L 147.161535 85.65301 
L 147.349125 97.402664 
L 147.724303 152.624517 
L 148.099482 198.174915 
L 148.193276 201.329652 
L 148.287071 200.342169 
L 148.47466 186.504966 
L 149.318812 84.868216 
L 149.412607 86.997181 
L 149.600196 102.875799 
L 150.444348 201.835256 
L 150.538143 198.572191 
L 150.725732 180.711918 
L 151.476089 84.587837 
L 151.569884 84.800538 
L 151.757473 97.42883 
L 152.132652 154.219977 
L 152.50783 199.899038 
L 152.601625 202.801559 
L 152.69542 201.467072 
L 152.883009 186.739919 
L 153.727161 83.150673 
L 153.820955 85.596584 
L 154.008545 102.358138 
L 154.758902 203.037678 
L 154.852696 203.797988 
L 155.040286 192.655667 
L 155.415464 135.772992 
L 155.790643 86.299552 
L 155.884438 82.280429 
L 155.978232 82.587897 
L 156.165822 95.819256 
L 156.541 154.840174 
L 156.916179 202.277545 
L 157.009973 205.305659 
L 157.103768 203.937371 
L 157.291357 188.673335 
L 158.135509 80.440672 
L 158.229304 82.860293 
L 158.416893 100.097264 
L 159.261045 206.724016 
L 159.35484 203.264416 
L 159.542429 184.116573 
L 160.292786 79.468696 
L 160.386581 79.437653 
L 160.57417 92.620667 
L 160.949349 153.897644 
L 161.324527 204.666868 
L 161.418322 208.285767 
L 161.512117 207.315451 
L 161.699706 192.165299 
L 162.543858 77.286706 
L 162.637652 79.257476 
L 162.825242 96.331181 
L 163.669393 210.04971 
L 163.763188 207.080644 
L 163.950777 188.130139 
L 164.701135 76.737475 
L 164.794929 75.951532 
L 164.982519 88.357621 
L 165.357697 151.410063 
L 165.732876 206.524472 
L 165.82667 211.120853 
L 165.920465 210.94073 
L 166.108054 196.604283 
L 166.483233 131.446162 
L 166.858412 78.067426 
L 166.952206 74.369971 
L 167.046001 75.524328 
L 167.23359 91.758071 
L 168.077742 213.015286 
L 168.171537 210.880989 
L 168.359126 192.79057 
L 169.203278 72.979681 
L 169.297072 76.096453 
L 169.484662 95.993824 
L 170.235019 212.995092 
L 170.328814 213.867997 
L 170.516403 200.984846 
L 170.891581 135.168972 
L 171.26676 77.467686 
L 171.360555 72.596486 
L 171.454349 72.698839 
L 171.641939 87.461871 
L 172.017117 155.063711 
L 172.392296 210.697707 
L 172.48609 214.631658 
L 172.579885 213.543459 
L 172.767474 196.944831 
L 173.611626 71.580081 
L 173.705421 73.659802 
L 173.89301 92.037031 
L 174.737162 214.990485 
L 174.830957 211.919205 
L 175.018546 191.833931 
L 175.768903 72.88266 
L 175.862698 71.911754 
L 176.050287 84.764151 
L 176.425466 150.948401 
L 176.800644 209.05554 
L 176.894439 213.991766 
L 176.988234 213.941708 
L 177.175823 199.264245 
L 177.551002 131.886929 
L 177.92618 76.527314 
L 178.019975 72.619047 
L 178.113769 73.696158 
L 178.301359 90.132815 
L 179.145511 213.515784 
L 179.239305 211.412857 
L 179.426895 193.297475 
L 180.271046 73.847442 
L 180.364841 76.967158 
L 180.55243 96.666574 
L 181.302788 210.831509 
L 181.396582 211.533665 
L 181.584171 198.775644 
L 181.95935 135.164444 
L 182.334529 80.564572 
L 182.428323 76.191669 
L 182.522118 76.571885 
L 182.709707 91.100332 
L 183.084886 155.224204 
L 183.460064 206.303825 
L 183.553859 209.54647 
L 183.647654 208.091877 
L 183.835243 191.882278 
L 184.679395 78.180253 
L 184.77319 80.691997 
L 184.960779 98.480464 
L 185.711136 205.919984 
L 185.804931 206.889036 
L 185.898725 203.346441 
L 186.086315 184.092594 
L 186.836672 81.304717 
L 186.930466 81.457938 
L 187.118056 94.58279 
L 187.493234 153.706543 
L 187.868413 201.212773 
L 187.962208 204.304885 
L 188.056002 203.052876 
L 188.243592 188.234892 
L 189.087743 83.461327 
L 189.181538 85.778982 
L 189.369127 102.178433 
L 190.119485 200.85929 
L 190.213279 201.671873 
L 190.400868 191.086617 
L 190.776047 136.876557 
L 191.151226 90.008054 
L 191.24502 86.217047 
L 191.338815 86.495973 
L 191.526404 98.845089 
L 191.901583 153.538272 
L 192.276761 196.953705 
L 192.370556 199.643455 
L 192.464351 198.31777 
L 192.65194 184.321622 
L 193.496092 87.76247 
L 193.589887 90.082571 
L 193.777476 105.603924 
L 194.527833 197.224812 
L 194.621628 197.843831 
L 194.809217 187.695304 
L 195.184396 136.707226 
L 195.559574 92.895227 
L 195.653369 89.403693 
L 195.747163 89.738563 
L 195.934753 101.496132 
L 196.403726 166.877832 
L 196.68511 194.417392 
L 196.778905 196.995653 
L 196.872699 195.768259 
L 197.060289 182.527047 
L 197.90444 89.78459 
L 197.998235 91.840534 
L 198.185824 106.442886 
L 199.029976 196.526099 
L 199.123771 193.706067 
L 199.31136 177.858987 
L 200.061717 90.489594 
L 200.155512 90.285121 
L 200.343101 100.805358 
L 200.71828 150.908482 
L 201.093458 193.237491 
L 201.187253 196.506826 
L 201.281048 196.0444 
L 201.468637 184.30949 
L 201.93761 119.753954 
L 202.218994 92.316697 
L 202.312789 89.636951 
L 202.406584 90.708138 
L 202.594173 103.555423 
L 203.438325 197.335255 
L 203.532119 195.708337 
L 203.719709 181.838355 
L 204.56386 88.805534 
L 204.657655 90.941615 
L 204.845244 105.758367 
L 205.689396 198.186117 
L 205.783191 195.580012 
L 205.97078 179.878294 
L 206.721137 88.725928 
L 206.814932 87.930055 
L 206.908727 90.975022 
L 207.096316 107.513655 
L 207.846673 198.672841 
L 207.940468 199.080221 
L 208.128057 188.523895 
L 208.503236 136.490042 
L 208.878414 90.991174 
L 209.066004 87.033692 
L 209.253593 98.392315 
L 209.628772 151.538012 
L 210.00395 196.671349 
L 210.097745 200.28267 
L 210.191539 199.95351 
L 210.379129 187.808384 
L 210.754307 133.576341 
L 211.129486 88.822036 
L 211.223281 85.5227 
L 211.317075 86.215869 
L 211.504665 99.142502 
L 211.973638 168.990589 
L 212.255022 198.763575 
L 212.348816 201.742235 
L 212.442611 200.678646 
L 212.6302 186.967005 
L 213.474352 84.177162 
L 213.568147 85.623094 
L 213.755736 100.129269 
L 214.599888 202.943688 
L 214.693683 201.099324 
L 214.881272 185.785588 
L 215.725424 83.150394 
L 215.819218 85.411992 
L 216.006808 101.547359 
L 216.85096 203.766679 
L 216.944754 201.067804 
L 217.132343 184.097968 
L 217.882701 83.614575 
L 217.976495 82.55678 
L 218.07029 85.71278 
L 218.257879 103.526726 
L 219.008236 203.517379 
L 219.102031 204.110636 
L 219.28962 192.872387 
L 219.664799 136.480647 
L 220.039978 86.899495 
L 220.227567 82.475888 
L 220.415156 94.662748 
L 220.790335 151.967714 
L 221.165513 200.495267 
L 221.259308 204.331551 
L 221.353103 203.923087 
L 221.540692 190.773732 
L 221.915871 132.644323 
L 222.291049 85.316619 
L 222.384844 81.990434 
L 222.478638 82.928501 
L 222.666228 97.046517 
L 223.51038 204.698257 
L 223.604174 203.217798 
L 223.791764 188.132954 
L 224.635915 81.834954 
L 224.72971 83.865269 
L 224.917299 99.907393 
L 225.761451 204.661112 
L 225.855246 202.078851 
L 226.042835 185.095924 
L 226.793192 83.172948 
L 226.886987 82.039035 
L 226.980782 85.170209 
L 227.168371 103.071741 
L 227.918728 203.743867 
L 228.012523 204.321787 
L 228.200112 192.982579 
L 228.575291 136.329671 
L 228.950469 86.767656 
L 229.138059 82.477407 
L 229.325648 94.82158 
L 229.700826 152.281454 
L 230.076005 200.586989 
L 230.1698 204.328587 
L 230.263594 203.823269 
L 230.451184 190.503762 
L 230.826362 132.279315 
L 231.201541 85.209121 
L 231.295335 81.971817 
L 231.38913 82.996412 
L 231.576719 97.259309 
L 232.420871 204.847668 
L 232.514666 203.322228 
L 232.702255 188.148229 
L 233.546407 81.437488 
L 233.640202 83.444176 
L 233.827791 99.498572 
L 234.671943 205.426499 
L 234.765737 202.958076 
L 234.953327 186.0506 
L 235.797479 80.789105 
L 235.891273 83.701065 
L 236.078863 101.439283 
L 236.82922 205.149676 
L 236.923014 206.163665 
L 237.016809 202.823887 
L 237.204398 184.270999 
L 237.954756 80.577882 
L 238.04855 79.951219 
L 238.23614 91.590961 
L 238.611318 150.238839 
L 238.986497 202.2131 
L 239.174086 207.105663 
L 239.361675 194.644979 
L 239.736854 134.806436 
L 240.112032 83.12839 
L 240.205827 78.794446 
L 240.299622 78.911197 
L 240.487211 92.191076 
L 240.86239 153.256563 
L 241.237568 204.680353 
L 241.331363 208.711566 
L 241.425158 208.227587 
L 241.612747 194.120799 
L 241.987925 131.791503 
L 242.363104 80.603081 
L 242.456899 76.877119 
L 242.550693 77.733677 
L 242.738283 92.684218 
L 243.207256 173.047786 
L 243.48864 207.25466 
L 243.582435 210.665456 
L 243.676229 209.424507 
L 243.863818 193.605156 
L 244.70797 74.919299 
L 244.801765 76.562662 
L 244.989354 93.282602 
L 245.833506 212.585915 
L 245.927301 210.516514 
L 246.11489 192.859496 
L 246.959042 73.084986 
L 247.052837 75.608704 
L 247.240426 94.24157 
L 248.084578 214.279521 
L 248.178372 211.269787 
L 248.365962 191.622716 
L 249.210113 71.590255 
L 249.303908 75.119673 
L 249.491497 95.816088 
L 250.241855 214.585676 
L 250.335649 215.516058 
L 250.523239 202.611826 
L 250.898417 135.989138 
L 251.273596 76.433248 
L 251.461185 70.669826 
L 251.648774 84.736319 
L 252.023953 152.786348 
L 252.399132 211.439243 
L 252.492926 216.289305 
L 252.586721 216.066411 
L 252.77431 200.794445 
L 253.149489 131.429596 
L 253.524667 73.933775 
L 253.618462 69.674927 
L 253.712257 70.537071 
L 253.899846 87.046978 
L 254.368819 176.093676 
L 254.650203 213.663082 
L 254.743998 217.280297 
L 254.837792 215.742938 
L 255.025382 197.975988 
L 255.869534 69.102284 
L 255.963328 71.344218 
L 256.150917 90.371827 
L 256.995069 217.405518 
L 257.088864 214.437803 
L 257.276453 194.162842 
L 258.120605 69.441761 
L 258.2144 73.1471 
L 258.401989 94.638547 
L 259.152346 215.920709 
L 259.246141 216.597389 
L 259.43373 202.901201 
L 259.808909 134.768936 
L 260.184087 75.579399 
L 260.277882 70.602752 
L 260.371677 70.708273 
L 260.559266 85.761515 
L 260.934445 154.632358 
L 261.309623 211.596292 
L 261.403418 215.781812 
L 261.497212 214.897172 
L 261.684802 198.539396 
L 262.153775 111.034704 
L 262.435159 74.547462 
L 262.528954 71.154243 
L 262.622748 72.803611 
L 262.810338 90.396428 
L 263.654489 214.84704 
L 263.748284 212.458097 
L 263.935873 193.714249 
L 264.780025 72.430261 
L 264.87382 75.523852 
L 265.061409 95.323299 
L 265.811766 212.156317 
L 265.905561 213.283319 
L 265.999356 209.528398 
L 266.186945 188.776586 
L 266.937302 74.661813 
L 267.031097 74.218347 
L 267.218686 87.447597 
L 267.593865 151.723823 
L 267.969043 206.967402 
L 268.062838 211.532078 
L 268.156633 211.341814 
L 268.344222 197.114112 
L 268.7194 132.649318 
L 269.094579 79.415768 
L 269.188374 75.468544 
L 269.282168 76.237332 
L 269.469758 91.352145 
L 269.938731 172.808971 
L 270.220115 207.22747 
L 270.31391 210.612365 
L 270.407704 209.323342 
L 270.595293 193.429783 
L 271.439445 76.428023 
L 271.53324 78.17837 
L 271.720829 94.749776 
L 272.564981 209.687028 
L 272.658776 207.532378 
L 272.846365 190.372345 
L 273.690517 77.247777 
L 273.784312 79.754057 
L 273.971901 97.428943 
L 274.816053 209.038662 
L 274.909847 206.226756 
L 275.097437 188.09218 
L 275.941588 77.667682 
L 276.035383 80.747974 
L 276.222972 99.308125 
L 276.97333 207.703582 
L 277.067124 208.892608 
L 277.160919 205.570632 
L 277.348508 186.596402 
L 278.098865 78.479285 
L 278.19266 77.508837 
L 278.286455 81.057717 
L 278.474044 100.457759 
L 279.224401 208.603918 
L 279.318196 209.370836 
L 279.505785 197.536137 
L 279.880964 136.905807 
L 280.256142 82.373431 
L 280.443732 76.714965 
L 280.631321 89.042072 
L 281.0065 150.573239 
L 281.381678 205.170065 
L 281.569267 210.457415 
L 281.756857 197.579518 
L 282.132035 134.978034 
L 282.507214 80.252109 
L 282.694803 75.378034 
L 282.882392 88.887016 
L 283.257571 152.727453 
L 283.63275 207.593795 
L 283.726544 212.157959 
L 283.820339 211.983522 
L 284.007928 197.744414 
L 284.383107 132.507577 
L 284.758285 77.548295 
L 284.85208 73.231116 
L 284.945875 73.741342 
L 285.133464 88.824239 
L 285.508643 155.593247 
L 285.883821 210.535817 
L 285.977616 214.547042 
L 286.071411 213.636989 
L 286.259 197.586965 
L 286.727973 111.181762 
L 287.009357 74.428914 
L 287.103152 70.794727 
L 287.196946 72.177181 
L 287.384536 89.321718 
L 288.228687 216.930367 
L 288.322482 214.997136 
L 288.510071 196.632742 
L 289.354223 68.575028 
L 289.448018 71.140099 
L 289.635607 90.84137 
L 290.479759 218.869826 
L 290.573554 215.592509 
L 290.761143 194.451838 
L 291.5115 68.295431 
L 291.605295 67.0338 
L 291.69909 71.099694 
L 291.886679 93.76205 
L 292.637036 219.45667 
L 292.730831 219.898399 
L 292.91842 205.023473 
L 293.293599 132.885481 
L 293.668777 71.1063 
L 293.762572 66.162773 
L 293.856366 66.623813 
L 294.043956 83.27681 
L 294.419134 157.191391 
L 294.794313 217.009925 
L 294.888108 221.033887 
L 294.981902 219.596989 
L 295.169492 201.106503 
L 296.013643 65.239015 
L 296.107438 67.712218 
L 296.295027 88.067679 
L 297.139179 221.221534 
L 297.232974 217.666564 
L 297.420563 195.452602 
L 298.17092 66.649715 
L 298.264715 65.851172 
L 298.452304 80.313843 
L 298.827483 152.674279 
L 299.202661 215.100875 
L 299.296456 220.151659 
L 299.390251 219.767564 
L 299.57784 203.204773 
L 299.953019 129.542468 
L 300.328197 70.41045 
L 300.421992 66.573604 
L 300.515787 68.165586 
L 300.703376 86.782509 
L 301.547528 219.404759 
L 301.641322 216.597994 
L 301.828912 196.006406 
L 302.673063 68.15151 
L 302.766858 72.161736 
L 302.954447 94.617845 
L 303.704805 216.971301 
L 303.798599 217.010376 
L 303.986189 201.795461 
L 304.361367 131.567343 
L 304.736546 74.086022 
L 304.83034 70.108578 
L 304.924135 71.326591 
L 305.111724 88.592536 
L 305.955876 215.551458 
L 306.049671 213.109623 
L 306.23726 193.932728 
L 307.081412 72.264173 
L 307.175207 75.881311 
L 307.362796 96.808577 
L 308.113153 212.527073 
L 308.206948 212.716982 
L 308.394537 198.684706 
L 308.769716 132.910533 
L 309.144894 78.595758 
L 309.238689 74.717181 
L 309.332484 75.705965 
L 309.520073 91.608199 
L 310.364225 210.855334 
L 310.458019 208.751219 
L 310.645609 191.153004 
L 311.48976 76.957058 
L 311.583555 80.103748 
L 311.771144 99.216627 
L 312.521502 207.65637 
L 312.615296 208.12834 
L 312.802886 195.631967 
L 313.178064 134.907084 
L 313.553243 83.525393 
L 313.647037 79.55013 
L 313.740832 80.083071 
L 313.928421 94.151759 
L 314.397395 171.051044 
L 314.678779 203.180737 
L 314.772573 206.157189 
L 314.866368 204.69503 
L 315.053957 189.22664 
L 315.898109 81.418459 
L 315.991904 83.731887 
L 316.179493 100.433262 
L 317.023645 204.006165 
L 317.117439 200.919139 
L 317.305029 183.141339 
L 318.055386 84.155623 
L 318.149181 83.767346 
L 318.33677 95.234937 
L 318.711948 150.79235 
L 319.087127 198.099539 
L 319.180922 201.875504 
L 319.274716 201.539488 
L 319.462306 188.95509 
L 319.837484 133.285075 
L 320.212663 88.349866 
L 320.306457 85.283936 
L 320.400252 86.279137 
L 320.587841 99.856358 
L 321.431993 200.640023 
L 321.525788 199.045868 
L 321.713377 184.584165 
L 322.557529 86.563216 
L 322.651324 88.701972 
L 322.838913 103.956053 
L 323.683065 199.37064 
L 323.77686 196.735227 
L 323.964449 180.764937 
L 324.714806 88.547859 
L 324.808601 87.779383 
L 324.99619 97.599521 
L 325.371369 148.467667 
L 325.746547 193.829026 
L 325.934136 198.240667 
L 326.121726 187.650652 
L 326.496904 136.433076 
L 326.872083 92.34613 
L 326.965878 88.677635 
L 327.059672 88.799829 
L 327.247262 100.107632 
L 327.62244 151.674064 
L 327.997619 194.601186 
L 328.091413 197.865267 
L 328.185208 197.344648 
L 328.372797 185.36135 
L 328.841771 119.718703 
L 329.123155 91.558749 
L 329.216949 88.670023 
L 329.310744 89.563445 
L 329.498333 102.187983 
L 330.342485 197.96015 
L 330.43628 196.716075 
L 330.623869 183.478133 
L 331.468021 88.482742 
L 331.561815 90.058221 
L 331.749405 103.886778 
L 332.593557 198.241189 
L 332.687351 196.351113 
L 332.87494 181.950733 
L 333.719092 88.109334 
L 333.812887 90.299311 
L 334.000476 105.255997 
L 334.844628 198.70349 
L 334.938423 196.226389 
L 335.126012 180.726113 
L 335.876369 88.650911 
L 335.970164 87.563353 
L 336.063959 90.31663 
L 336.251548 106.350301 
L 337.001905 198.484961 
L 337.0957 199.32633 
L 337.189494 196.306022 
L 337.377084 179.746811 
L 338.127441 87.477072 
L 338.221235 86.872059 
L 338.408825 97.096255 
L 338.784003 149.037711 
L 339.159182 195.444348 
L 339.346771 200.076107 
L 339.534361 189.335015 
L 339.909539 136.592755 
L 340.284718 90.302592 
L 340.472307 86.075261 
L 340.659896 97.32784 
L 341.035075 150.88121 
L 341.410254 197.076908 
L 341.504048 200.974392 
L 341.597843 200.907137 
L 341.785432 189.145387 
L 342.160611 134.772541 
L 342.535789 88.659359 
L 342.629584 84.937158 
L 342.723379 85.223864 
L 342.910968 97.495509 
L 343.286147 152.693904 
L 343.661325 198.726114 
L 343.75512 202.271942 
L 343.848914 201.764235 
L 344.036504 188.978963 
L 344.411682 132.951513 
L 344.786861 87.009389 
L 344.880656 83.643731 
L 344.97445 84.376331 
L 345.16204 97.681924 
L 345.631013 169.538196 
L 345.912397 200.37118 
L 346.006191 203.55015 
L 346.099986 202.586431 
L 346.287575 188.750937 
L 346.756549 115.996843 
L 347.037932 85.375431 
L 347.131727 82.392368 
L 347.225522 83.595712 
L 347.413111 97.973405 
L 348.257263 204.762483 
L 348.351058 203.308836 
L 348.538647 188.374203 
L 349.382799 81.231753 
L 349.476593 82.948382 
L 349.664183 98.456772 
L 350.508335 205.858377 
L 350.602129 203.864315 
L 350.789718 187.763689 
L 351.63387 80.213551 
L 351.727665 82.50102 
L 351.915254 99.213605 
L 352.759406 206.786414 
L 352.853201 204.188294 
L 353.04079 186.843123 
L 353.884942 79.387136 
L 353.978737 82.3142 
L 354.166326 100.313262 
L 354.916683 206.342625 
L 355.010478 207.501269 
L 355.104272 204.22609 
L 355.291862 185.551252 
L 356.042219 79.604329 
L 356.136013 78.791833 
L 356.323603 90.28668 
L 356.698781 149.534064 
L 357.07396 202.649614 
L 357.261549 207.971288 
L 357.449139 195.708702 
L 357.824317 135.533502 
L 358.199496 83.019832 
L 358.387085 78.450415 
L 358.574674 91.517682 
L 358.949853 152.611148 
L 359.325032 204.4212 
L 359.418826 208.561248 
L 359.512621 208.1831 
L 359.70021 194.272733 
L 360.075389 132.268771 
L 360.450567 81.265057 
L 360.544362 77.539039 
L 360.638157 78.36734 
L 360.825746 93.160856 
L 361.294719 172.576206 
L 361.576103 206.163935 
L 361.669898 209.445768 
L 361.763692 208.139429 
L 361.951282 192.421066 
L 362.795434 76.722675 
L 362.889228 78.535613 
L 363.076817 95.22193 
L 363.920969 210.196408 
L 364.014764 207.847827 
L 364.202353 190.149629 
L 365.046505 76.037678 
L 365.1403 78.951079 
L 365.327889 97.704909 
L 366.078246 209.618122 
L 366.172041 210.81241 
L 366.265836 207.305404 
L 366.453425 187.453749 
L 367.203782 76.093008 
L 367.297577 75.498334 
L 367.485166 88.196096 
L 367.860345 151.388512 
L 368.235523 206.594006 
L 368.329318 211.296833 
L 368.423112 211.262471 
L 368.610702 197.297445 
L 368.98588 132.674544 
L 369.361059 78.570118 
L 369.454854 74.464789 
L 369.548648 75.155544 
L 369.736238 90.42729 
L 370.205211 173.875921 
L 370.486595 209.366341 
L 370.580389 212.846044 
L 370.674184 211.474491 
L 370.861773 194.865429 
L 371.705925 73.030377 
L 371.79972 75.103206 
L 371.987309 93.068887 
L 372.831461 214.122787 
L 372.925256 211.33317 
L 373.112845 192.005366 
L 373.581818 104.929436 
L 373.581818 104.929436 
" clip-path="url(#pbeb17ee8a6)" style="fill: none; stroke: #dd8452; stroke-opacity: 0.6; stroke-width: 1.5; stroke-linecap: round"/>
   </g>
   <g id="patch_3">
    <path d="M 54 252 
L 54 34.56 
" style="fill: none; stroke: #262626; stroke-width: 1.25; stroke-linejoin: miter; stroke-linecap: square"/>
   </g>
   <g id="patch_4">
    <path d="M 388.8 252 
L 388.8 34.56 
" style="fill: none; stroke: #262626; stroke-width: 1.25; stroke-linejoin: miter; stroke-linecap: square"/>
   </g>
   <g id="patch_5">
    <path d="M 54 252 
L 388.8 252 
" style="fill: none; stroke: #262626; stroke-width: 1.25; stroke-linejoin: miter; stroke-linecap: square"/>
   </g>
   <g id="patch_6">
    <path d="M 54 34.56 
L 388.8 34.56 
" style="fill: none; stroke: #262626; stroke-width: 1.25; stroke-linejoin: miter; stroke-linecap: square"/>
   </g>
  </g>
 </g>
 <defs>
  <clipPath id="pbeb17ee8a6">
   <rect x="54" y="34.56" width="334.8" height="217.44"/>
  </clipPath>
 </defs>
</svg>
