<?xml version="1.0" encoding="utf-8" standalone="no"?>
<!DOCTYPE svg PUBLIC "-//W3C//DTD SVG 1.1//EN"
  "http://www.w3.org/Graphics/SVG/1.1/DTD/svg11.dtd">
<svg xmlns:xlink="http://www.w3.org/1999/xlink" width="432pt" height="288pt" viewBox="0 0 432 288" xmlns="http://www.w3.org/2000/svg" version="1.1">
 <metadata>
  <rdf:RDF xmlns:dc="http://purl.org/dc/elements/1.1/" xmlns:cc="http://creativecommons.org/ns#" xmlns:rdf="http://www.w3.org/1999/02/22-rdf-syntax-ns#">
   <cc:Work>
    <dc:type rdf:resource="http://purl.org/dc/dcmitype/StillImage"/>
    <dc:date>2022-07-13T14:37:07.565753</dc:date>
    <dc:format>image/svg+xml</dc:format>
    <dc:creator>
     <cc:Agent>
      <dc:title>Matplotlib v3.5.1, https://matplotlib.org/</dc:title>
     </cc:Agent>
    </dc:creator>
   </cc:Work>
  </rdf:RDF>
 </metadata>
 <defs>
  <style type="text/css">*{stroke-linejoin: round; stroke-linecap: butt}</style>
 </defs>
 <g id="figure_1">
  <g id="patch_1">
   <path d="M 0 288 
L 432 288 
L 432 0 
L 0 0 
z
" style="fill: #ffffff"/>
  </g>
  <g id="axes_1">
   <g id="patch_2">
    <path d="M 54 252 
L 388.8 252 
L 388.8 34.56 
L 54 34.56 
z
" style="fill: #ffffff"/>
   </g>
   <g id="matplotlib.axis_1">
    <g id="xtick_1">
     <g id="line2d_1">
      <defs>
       <path id="m48864dd0ad" d="M 0 0 
L 0 6 
" style="stroke: #262626; stroke-width: 1.25"/>
      </defs>
      <g>
       <use xlink:href="#m48864dd0ad" x="86.594356" y="252" style="fill: #262626; stroke: #262626; stroke-width: 1.25"/>
      </g>
     </g>
     <g id="text_1">
      <!-- 6 -->
      <g style="fill: #262626" transform="translate(83.535841 269.373594)scale(0.11 -0.11)">
       <defs>
        <path id="ArialMT-36" d="M 3184 3459 
L 2625 3416 
Q 2550 3747 2413 3897 
Q 2184 4138 1850 4138 
Q 1581 4138 1378 3988 
Q 1113 3794 959 3422 
Q 806 3050 800 2363 
Q 1003 2672 1297 2822 
Q 1591 2972 1913 2972 
Q 2475 2972 2870 2558 
Q 3266 2144 3266 1488 
Q 3266 1056 3080 686 
Q 2894 316 2569 119 
Q 2244 -78 1831 -78 
Q 1128 -78 684 439 
Q 241 956 241 2144 
Q 241 3472 731 4075 
Q 1159 4600 1884 4600 
Q 2425 4600 2770 4297 
Q 3116 3994 3184 3459 
z
M 888 1484 
Q 888 1194 1011 928 
Q 1134 663 1356 523 
Q 1578 384 1822 384 
Q 2178 384 2434 671 
Q 2691 959 2691 1453 
Q 2691 1928 2437 2201 
Q 2184 2475 1800 2475 
Q 1419 2475 1153 2201 
Q 888 1928 888 1484 
z
" transform="scale(0.015625)"/>
       </defs>
       <use xlink:href="#ArialMT-36"/>
      </g>
     </g>
    </g>
    <g id="xtick_2">
     <g id="line2d_2">
      <g>
       <use xlink:href="#m48864dd0ad" x="136.866856" y="252" style="fill: #262626; stroke: #262626; stroke-width: 1.25"/>
      </g>
     </g>
     <g id="text_2">
      <!-- 8 -->
      <g style="fill: #262626" transform="translate(133.808341 269.373594)scale(0.11 -0.11)">
       <defs>
        <path id="ArialMT-38" d="M 1131 2484 
Q 781 2613 612 2850 
Q 444 3088 444 3419 
Q 444 3919 803 4259 
Q 1163 4600 1759 4600 
Q 2359 4600 2725 4251 
Q 3091 3903 3091 3403 
Q 3091 3084 2923 2848 
Q 2756 2613 2416 2484 
Q 2838 2347 3058 2040 
Q 3278 1734 3278 1309 
Q 3278 722 2862 322 
Q 2447 -78 1769 -78 
Q 1091 -78 675 323 
Q 259 725 259 1325 
Q 259 1772 486 2073 
Q 713 2375 1131 2484 
z
M 1019 3438 
Q 1019 3113 1228 2906 
Q 1438 2700 1772 2700 
Q 2097 2700 2305 2904 
Q 2513 3109 2513 3406 
Q 2513 3716 2298 3927 
Q 2084 4138 1766 4138 
Q 1444 4138 1231 3931 
Q 1019 3725 1019 3438 
z
M 838 1322 
Q 838 1081 952 856 
Q 1066 631 1291 507 
Q 1516 384 1775 384 
Q 2178 384 2440 643 
Q 2703 903 2703 1303 
Q 2703 1709 2433 1975 
Q 2163 2241 1756 2241 
Q 1359 2241 1098 1978 
Q 838 1716 838 1322 
z
" transform="scale(0.015625)"/>
       </defs>
       <use xlink:href="#ArialMT-38"/>
      </g>
     </g>
    </g>
    <g id="xtick_3">
     <g id="line2d_3">
      <g>
       <use xlink:href="#m48864dd0ad" x="187.139356" y="252" style="fill: #262626; stroke: #262626; stroke-width: 1.25"/>
      </g>
     </g>
     <g id="text_3">
      <!-- 10 -->
      <g style="fill: #262626" transform="translate(181.022325 269.373594)scale(0.11 -0.11)">
       <defs>
        <path id="ArialMT-31" d="M 2384 0 
L 1822 0 
L 1822 3584 
Q 1619 3391 1289 3197 
Q 959 3003 697 2906 
L 697 3450 
Q 1169 3672 1522 3987 
Q 1875 4303 2022 4600 
L 2384 4600 
L 2384 0 
z
" transform="scale(0.015625)"/>
        <path id="ArialMT-30" d="M 266 2259 
Q 266 3072 433 3567 
Q 600 4063 929 4331 
Q 1259 4600 1759 4600 
Q 2128 4600 2406 4451 
Q 2684 4303 2865 4023 
Q 3047 3744 3150 3342 
Q 3253 2941 3253 2259 
Q 3253 1453 3087 958 
Q 2922 463 2592 192 
Q 2263 -78 1759 -78 
Q 1097 -78 719 397 
Q 266 969 266 2259 
z
M 844 2259 
Q 844 1131 1108 757 
Q 1372 384 1759 384 
Q 2147 384 2411 759 
Q 2675 1134 2675 2259 
Q 2675 3391 2411 3762 
Q 2147 4134 1753 4134 
Q 1366 4134 1134 3806 
Q 844 3388 844 2259 
z
" transform="scale(0.015625)"/>
       </defs>
       <use xlink:href="#ArialMT-31"/>
       <use xlink:href="#ArialMT-30" x="55.615234"/>
      </g>
     </g>
    </g>
    <g id="xtick_4">
     <g id="line2d_4">
      <g>
       <use xlink:href="#m48864dd0ad" x="237.411856" y="252" style="fill: #262626; stroke: #262626; stroke-width: 1.25"/>
      </g>
     </g>
     <g id="text_4">
      <!-- 12 -->
      <g style="fill: #262626" transform="translate(231.294825 269.373594)scale(0.11 -0.11)">
       <defs>
        <path id="ArialMT-32" d="M 3222 541 
L 3222 0 
L 194 0 
Q 188 203 259 391 
Q 375 700 629 1000 
Q 884 1300 1366 1694 
Q 2113 2306 2375 2664 
Q 2638 3022 2638 3341 
Q 2638 3675 2398 3904 
Q 2159 4134 1775 4134 
Q 1369 4134 1125 3890 
Q 881 3647 878 3216 
L 300 3275 
Q 359 3922 746 4261 
Q 1134 4600 1788 4600 
Q 2447 4600 2831 4234 
Q 3216 3869 3216 3328 
Q 3216 3053 3103 2787 
Q 2991 2522 2730 2228 
Q 2469 1934 1863 1422 
Q 1356 997 1212 845 
Q 1069 694 975 541 
L 3222 541 
z
" transform="scale(0.015625)"/>
       </defs>
       <use xlink:href="#ArialMT-31"/>
       <use xlink:href="#ArialMT-32" x="55.615234"/>
      </g>
     </g>
    </g>
    <g id="xtick_5">
     <g id="line2d_5">
      <g>
       <use xlink:href="#m48864dd0ad" x="287.684356" y="252" style="fill: #262626; stroke: #262626; stroke-width: 1.25"/>
      </g>
     </g>
     <g id="text_5">
      <!-- 14 -->
      <g style="fill: #262626" transform="translate(281.567325 269.373594)scale(0.11 -0.11)">
       <defs>
        <path id="ArialMT-34" d="M 2069 0 
L 2069 1097 
L 81 1097 
L 81 1613 
L 2172 4581 
L 2631 4581 
L 2631 1613 
L 3250 1613 
L 3250 1097 
L 2631 1097 
L 2631 0 
L 2069 0 
z
M 2069 1613 
L 2069 3678 
L 634 1613 
L 2069 1613 
z
" transform="scale(0.015625)"/>
       </defs>
       <use xlink:href="#ArialMT-31"/>
       <use xlink:href="#ArialMT-34" x="55.615234"/>
      </g>
     </g>
    </g>
    <g id="xtick_6">
     <g id="line2d_6">
      <g>
       <use xlink:href="#m48864dd0ad" x="337.956856" y="252" style="fill: #262626; stroke: #262626; stroke-width: 1.25"/>
      </g>
     </g>
     <g id="text_6">
      <!-- 16 -->
      <g style="fill: #262626" transform="translate(331.839825 269.373594)scale(0.11 -0.11)">
       <use xlink:href="#ArialMT-31"/>
       <use xlink:href="#ArialMT-36" x="55.615234"/>
      </g>
     </g>
    </g>
    <g id="xtick_7">
     <g id="line2d_7">
      <g>
       <use xlink:href="#m48864dd0ad" x="388.229356" y="252" style="fill: #262626; stroke: #262626; stroke-width: 1.25"/>
      </g>
     </g>
     <g id="text_7">
      <!-- 18 -->
      <g style="fill: #262626" transform="translate(382.112325 269.373594)scale(0.11 -0.11)">
       <use xlink:href="#ArialMT-31"/>
       <use xlink:href="#ArialMT-38" x="55.615234"/>
      </g>
     </g>
    </g>
    <g id="text_8">
     <!-- Max Freq -->
     <g style="fill: #262626" transform="translate(196.063125 284.149219)scale(0.12 -0.12)">
      <defs>
       <path id="ArialMT-4d" d="M 475 0 
L 475 4581 
L 1388 4581 
L 2472 1338 
Q 2622 884 2691 659 
Q 2769 909 2934 1394 
L 4031 4581 
L 4847 4581 
L 4847 0 
L 4263 0 
L 4263 3834 
L 2931 0 
L 2384 0 
L 1059 3900 
L 1059 0 
L 475 0 
z
" transform="scale(0.015625)"/>
       <path id="ArialMT-61" d="M 2588 409 
Q 2275 144 1986 34 
Q 1697 -75 1366 -75 
Q 819 -75 525 192 
Q 231 459 231 875 
Q 231 1119 342 1320 
Q 453 1522 633 1644 
Q 813 1766 1038 1828 
Q 1203 1872 1538 1913 
Q 2219 1994 2541 2106 
Q 2544 2222 2544 2253 
Q 2544 2597 2384 2738 
Q 2169 2928 1744 2928 
Q 1347 2928 1158 2789 
Q 969 2650 878 2297 
L 328 2372 
Q 403 2725 575 2942 
Q 747 3159 1072 3276 
Q 1397 3394 1825 3394 
Q 2250 3394 2515 3294 
Q 2781 3194 2906 3042 
Q 3031 2891 3081 2659 
Q 3109 2516 3109 2141 
L 3109 1391 
Q 3109 606 3145 398 
Q 3181 191 3288 0 
L 2700 0 
Q 2613 175 2588 409 
z
M 2541 1666 
Q 2234 1541 1622 1453 
Q 1275 1403 1131 1340 
Q 988 1278 909 1158 
Q 831 1038 831 891 
Q 831 666 1001 516 
Q 1172 366 1500 366 
Q 1825 366 2078 508 
Q 2331 650 2450 897 
Q 2541 1088 2541 1459 
L 2541 1666 
z
" transform="scale(0.015625)"/>
       <path id="ArialMT-78" d="M 47 0 
L 1259 1725 
L 138 3319 
L 841 3319 
L 1350 2541 
Q 1494 2319 1581 2169 
Q 1719 2375 1834 2534 
L 2394 3319 
L 3066 3319 
L 1919 1756 
L 3153 0 
L 2463 0 
L 1781 1031 
L 1600 1309 
L 728 0 
L 47 0 
z
" transform="scale(0.015625)"/>
       <path id="ArialMT-20" transform="scale(0.015625)"/>
       <path id="ArialMT-46" d="M 525 0 
L 525 4581 
L 3616 4581 
L 3616 4041 
L 1131 4041 
L 1131 2622 
L 3281 2622 
L 3281 2081 
L 1131 2081 
L 1131 0 
L 525 0 
z
" transform="scale(0.015625)"/>
       <path id="ArialMT-72" d="M 416 0 
L 416 3319 
L 922 3319 
L 922 2816 
Q 1116 3169 1280 3281 
Q 1444 3394 1641 3394 
Q 1925 3394 2219 3213 
L 2025 2691 
Q 1819 2813 1613 2813 
Q 1428 2813 1281 2702 
Q 1134 2591 1072 2394 
Q 978 2094 978 1738 
L 978 0 
L 416 0 
z
" transform="scale(0.015625)"/>
       <path id="ArialMT-65" d="M 2694 1069 
L 3275 997 
Q 3138 488 2766 206 
Q 2394 -75 1816 -75 
Q 1088 -75 661 373 
Q 234 822 234 1631 
Q 234 2469 665 2931 
Q 1097 3394 1784 3394 
Q 2450 3394 2872 2941 
Q 3294 2488 3294 1666 
Q 3294 1616 3291 1516 
L 816 1516 
Q 847 969 1125 678 
Q 1403 388 1819 388 
Q 2128 388 2347 550 
Q 2566 713 2694 1069 
z
M 847 1978 
L 2700 1978 
Q 2663 2397 2488 2606 
Q 2219 2931 1791 2931 
Q 1403 2931 1139 2672 
Q 875 2413 847 1978 
z
" transform="scale(0.015625)"/>
       <path id="ArialMT-71" d="M 2538 -1272 
L 2538 353 
Q 2406 169 2170 47 
Q 1934 -75 1669 -75 
Q 1078 -75 651 397 
Q 225 869 225 1691 
Q 225 2191 398 2587 
Q 572 2984 901 3189 
Q 1231 3394 1625 3394 
Q 2241 3394 2594 2875 
L 2594 3319 
L 3100 3319 
L 3100 -1272 
L 2538 -1272 
z
M 803 1669 
Q 803 1028 1072 708 
Q 1341 388 1716 388 
Q 2075 388 2334 692 
Q 2594 997 2594 1619 
Q 2594 2281 2320 2615 
Q 2047 2950 1678 2950 
Q 1313 2950 1058 2639 
Q 803 2328 803 1669 
z
" transform="scale(0.015625)"/>
      </defs>
      <use xlink:href="#ArialMT-4d"/>
      <use xlink:href="#ArialMT-61" x="83.300781"/>
      <use xlink:href="#ArialMT-78" x="138.916016"/>
      <use xlink:href="#ArialMT-20" x="188.916016"/>
      <use xlink:href="#ArialMT-46" x="216.699219"/>
      <use xlink:href="#ArialMT-72" x="277.783203"/>
      <use xlink:href="#ArialMT-65" x="311.083984"/>
      <use xlink:href="#ArialMT-71" x="366.699219"/>
     </g>
    </g>
   </g>
   <g id="matplotlib.axis_2">
    <g id="ytick_1">
     <g id="line2d_8">
      <defs>
       <path id="mb6b5d5e80e" d="M 0 0 
L -6 0 
" style="stroke: #262626; stroke-width: 1.25"/>
      </defs>
      <g>
       <use xlink:href="#mb6b5d5e80e" x="54" y="212.647914" style="fill: #262626; stroke: #262626; stroke-width: 1.25"/>
      </g>
     </g>
     <g id="text_9">
      <!-- 0.2 -->
      <g style="fill: #262626" transform="translate(29.21 216.584711)scale(0.11 -0.11)">
       <defs>
        <path id="ArialMT-2e" d="M 581 0 
L 581 641 
L 1222 641 
L 1222 0 
L 581 0 
z
" transform="scale(0.015625)"/>
       </defs>
       <use xlink:href="#ArialMT-30"/>
       <use xlink:href="#ArialMT-2e" x="55.615234"/>
       <use xlink:href="#ArialMT-32" x="83.398438"/>
      </g>
     </g>
    </g>
    <g id="ytick_2">
     <g id="line2d_9">
      <g>
       <use xlink:href="#mb6b5d5e80e" x="54" y="167.060765" style="fill: #262626; stroke: #262626; stroke-width: 1.25"/>
      </g>
     </g>
     <g id="text_10">
      <!-- 0.4 -->
      <g style="fill: #262626" transform="translate(29.21 170.997562)scale(0.11 -0.11)">
       <use xlink:href="#ArialMT-30"/>
       <use xlink:href="#ArialMT-2e" x="55.615234"/>
       <use xlink:href="#ArialMT-34" x="83.398438"/>
      </g>
     </g>
    </g>
    <g id="ytick_3">
     <g id="line2d_10">
      <g>
       <use xlink:href="#mb6b5d5e80e" x="54" y="121.473616" style="fill: #262626; stroke: #262626; stroke-width: 1.25"/>
      </g>
     </g>
     <g id="text_11">
      <!-- 0.6 -->
      <g style="fill: #262626" transform="translate(29.21 125.410412)scale(0.11 -0.11)">
       <use xlink:href="#ArialMT-30"/>
       <use xlink:href="#ArialMT-2e" x="55.615234"/>
       <use xlink:href="#ArialMT-36" x="83.398438"/>
      </g>
     </g>
    </g>
    <g id="ytick_4">
     <g id="line2d_11">
      <g>
       <use xlink:href="#mb6b5d5e80e" x="54" y="75.886466" style="fill: #262626; stroke: #262626; stroke-width: 1.25"/>
      </g>
     </g>
     <g id="text_12">
      <!-- 0.8 -->
      <g style="fill: #262626" transform="translate(29.21 79.823263)scale(0.11 -0.11)">
       <use xlink:href="#ArialMT-30"/>
       <use xlink:href="#ArialMT-2e" x="55.615234"/>
       <use xlink:href="#ArialMT-38" x="83.398438"/>
      </g>
     </g>
    </g>
    <g id="text_13">
     <!-- Max Height -->
     <g style="fill: #262626" transform="translate(22.684375 173.624063)rotate(-90)scale(0.12 -0.12)">
      <defs>
       <path id="ArialMT-48" d="M 513 0 
L 513 4581 
L 1119 4581 
L 1119 2700 
L 3500 2700 
L 3500 4581 
L 4106 4581 
L 4106 0 
L 3500 0 
L 3500 2159 
L 1119 2159 
L 1119 0 
L 513 0 
z
" transform="scale(0.015625)"/>
       <path id="ArialMT-69" d="M 425 3934 
L 425 4581 
L 988 4581 
L 988 3934 
L 425 3934 
z
M 425 0 
L 425 3319 
L 988 3319 
L 988 0 
L 425 0 
z
" transform="scale(0.015625)"/>
       <path id="ArialMT-67" d="M 319 -275 
L 866 -356 
Q 900 -609 1056 -725 
Q 1266 -881 1628 -881 
Q 2019 -881 2231 -725 
Q 2444 -569 2519 -288 
Q 2563 -116 2559 434 
Q 2191 0 1641 0 
Q 956 0 581 494 
Q 206 988 206 1678 
Q 206 2153 378 2554 
Q 550 2956 876 3175 
Q 1203 3394 1644 3394 
Q 2231 3394 2613 2919 
L 2613 3319 
L 3131 3319 
L 3131 450 
Q 3131 -325 2973 -648 
Q 2816 -972 2473 -1159 
Q 2131 -1347 1631 -1347 
Q 1038 -1347 672 -1080 
Q 306 -813 319 -275 
z
M 784 1719 
Q 784 1066 1043 766 
Q 1303 466 1694 466 
Q 2081 466 2343 764 
Q 2606 1063 2606 1700 
Q 2606 2309 2336 2618 
Q 2066 2928 1684 2928 
Q 1309 2928 1046 2623 
Q 784 2319 784 1719 
z
" transform="scale(0.015625)"/>
       <path id="ArialMT-68" d="M 422 0 
L 422 4581 
L 984 4581 
L 984 2938 
Q 1378 3394 1978 3394 
Q 2347 3394 2619 3248 
Q 2891 3103 3008 2847 
Q 3125 2591 3125 2103 
L 3125 0 
L 2563 0 
L 2563 2103 
Q 2563 2525 2380 2717 
Q 2197 2909 1863 2909 
Q 1613 2909 1392 2779 
Q 1172 2650 1078 2428 
Q 984 2206 984 1816 
L 984 0 
L 422 0 
z
" transform="scale(0.015625)"/>
       <path id="ArialMT-74" d="M 1650 503 
L 1731 6 
Q 1494 -44 1306 -44 
Q 1000 -44 831 53 
Q 663 150 594 308 
Q 525 466 525 972 
L 525 2881 
L 113 2881 
L 113 3319 
L 525 3319 
L 525 4141 
L 1084 4478 
L 1084 3319 
L 1650 3319 
L 1650 2881 
L 1084 2881 
L 1084 941 
Q 1084 700 1114 631 
Q 1144 563 1211 522 
Q 1278 481 1403 481 
Q 1497 481 1650 503 
z
" transform="scale(0.015625)"/>
      </defs>
      <use xlink:href="#ArialMT-4d"/>
      <use xlink:href="#ArialMT-61" x="83.300781"/>
      <use xlink:href="#ArialMT-78" x="138.916016"/>
      <use xlink:href="#ArialMT-20" x="188.916016"/>
      <use xlink:href="#ArialMT-48" x="216.699219"/>
      <use xlink:href="#ArialMT-65" x="288.916016"/>
      <use xlink:href="#ArialMT-69" x="344.53125"/>
      <use xlink:href="#ArialMT-67" x="366.748047"/>
      <use xlink:href="#ArialMT-68" x="422.363281"/>
      <use xlink:href="#ArialMT-74" x="477.978516"/>
     </g>
    </g>
   </g>
   <g id="PathCollection_1">
    <defs>
     <path id="C0_0_8e01db153a" d="M 0 3 
C 0.795609 3 1.55874 2.683901 2.12132 2.12132 
C 2.683901 1.55874 3 0.795609 3 -0 
C 3 -0.795609 2.683901 -1.55874 2.12132 -2.12132 
C 1.55874 -2.683901 0.795609 -3 0 -3 
C -0.795609 -3 -1.55874 -2.683901 -2.12132 -2.12132 
C -2.683901 -1.55874 -3 -0.795609 -3 0 
C -3 0.795609 -2.683901 1.55874 -2.12132 2.12132 
C -1.55874 2.683901 -0.795609 3 0 3 
z
"/>
    </defs>
    <g clip-path="url(#pb43b08358b)">
     <use xlink:href="#C0_0_8e01db153a" x="370.277132" y="44.443636" style="fill: #4c72b0; stroke: #ffffff; stroke-width: 0.48"/>
    </g>
    <g clip-path="url(#pb43b08358b)">
     <use xlink:href="#C0_0_8e01db153a" x="366.162369" y="45.122732" style="fill: #4c72b0; stroke: #ffffff; stroke-width: 0.48"/>
    </g>
    <g clip-path="url(#pb43b08358b)">
     <use xlink:href="#C0_0_8e01db153a" x="365.752778" y="67.494841" style="fill: #4c72b0; stroke: #ffffff; stroke-width: 0.48"/>
    </g>
    <g clip-path="url(#pb43b08358b)">
     <use xlink:href="#C0_0_8e01db153a" x="362.872384" y="44.789806" style="fill: #4c72b0; stroke: #ffffff; stroke-width: 0.48"/>
    </g>
    <g clip-path="url(#pb43b08358b)">
     <use xlink:href="#C0_0_8e01db153a" x="373.533439" y="53.724503" style="fill: #4c72b0; stroke: #ffffff; stroke-width: 0.48"/>
    </g>
    <g clip-path="url(#pb43b08358b)">
     <use xlink:href="#C0_0_8e01db153a" x="360.957489" y="48.606442" style="fill: #4c72b0; stroke: #ffffff; stroke-width: 0.48"/>
    </g>
    <g clip-path="url(#pb43b08358b)">
     <use xlink:href="#C0_0_8e01db153a" x="366.149863" y="56.649193" style="fill: #4c72b0; stroke: #ffffff; stroke-width: 0.48"/>
    </g>
    <g clip-path="url(#pb43b08358b)">
     <use xlink:href="#C0_0_8e01db153a" x="365.706239" y="62.531525" style="fill: #4c72b0; stroke: #ffffff; stroke-width: 0.48"/>
    </g>
    <g clip-path="url(#pb43b08358b)">
     <use xlink:href="#C0_0_8e01db153a" x="366.241201" y="64.352124" style="fill: #4c72b0; stroke: #ffffff; stroke-width: 0.48"/>
    </g>
    <g clip-path="url(#pb43b08358b)">
     <use xlink:href="#C0_0_8e01db153a" x="366.213387" y="52.631408" style="fill: #4c72b0; stroke: #ffffff; stroke-width: 0.48"/>
    </g>
    <g clip-path="url(#pb43b08358b)">
     <use xlink:href="#C0_0_8e01db153a" x="366.774061" y="241.366382" style="fill: #4c72b0; stroke: #ffffff; stroke-width: 0.48"/>
    </g>
    <g clip-path="url(#pb43b08358b)">
     <use xlink:href="#C0_0_8e01db153a" x="239.569755" y="204.55933" style="fill: #4c72b0; stroke: #ffffff; stroke-width: 0.48"/>
    </g>
    <g clip-path="url(#pb43b08358b)">
     <use xlink:href="#C0_0_8e01db153a" x="152.56773" y="217.148734" style="fill: #4c72b0; stroke: #ffffff; stroke-width: 0.48"/>
    </g>
    <g clip-path="url(#pb43b08358b)">
     <use xlink:href="#C0_0_8e01db153a" x="188.10397" y="217.390122" style="fill: #4c72b0; stroke: #ffffff; stroke-width: 0.48"/>
    </g>
    <g clip-path="url(#pb43b08358b)">
     <use xlink:href="#C0_0_8e01db153a" x="373.281329" y="172.707615" style="fill: #4c72b0; stroke: #ffffff; stroke-width: 0.48"/>
    </g>
    <g clip-path="url(#pb43b08358b)">
     <use xlink:href="#C0_0_8e01db153a" x="373.581818" y="68.872328" style="fill: #4c72b0; stroke: #ffffff; stroke-width: 0.48"/>
    </g>
    <g clip-path="url(#pb43b08358b)">
     <use xlink:href="#C0_0_8e01db153a" x="363.349063" y="47.055938" style="fill: #4c72b0; stroke: #ffffff; stroke-width: 0.48"/>
    </g>
    <g clip-path="url(#pb43b08358b)">
     <use xlink:href="#C0_0_8e01db153a" x="295.524537" y="124.063778" style="fill: #dd8452; stroke: #ffffff; stroke-width: 0.48"/>
    </g>
    <g clip-path="url(#pb43b08358b)">
     <use xlink:href="#C0_0_8e01db153a" x="292.715851" y="103.577991" style="fill: #dd8452; stroke: #ffffff; stroke-width: 0.48"/>
    </g>
    <g clip-path="url(#pb43b08358b)">
     <use xlink:href="#C0_0_8e01db153a" x="287.945363" y="120.484861" style="fill: #dd8452; stroke: #ffffff; stroke-width: 0.48"/>
    </g>
    <g clip-path="url(#pb43b08358b)">
     <use xlink:href="#C0_0_8e01db153a" x="285.760258" y="109.668318" style="fill: #dd8452; stroke: #ffffff; stroke-width: 0.48"/>
    </g>
    <g clip-path="url(#pb43b08358b)">
     <use xlink:href="#C0_0_8e01db153a" x="287.409117" y="122.760001" style="fill: #dd8452; stroke: #ffffff; stroke-width: 0.48"/>
    </g>
    <g clip-path="url(#pb43b08358b)">
     <use xlink:href="#C0_0_8e01db153a" x="287.702311" y="128.667257" style="fill: #dd8452; stroke: #ffffff; stroke-width: 0.48"/>
    </g>
    <g clip-path="url(#pb43b08358b)">
     <use xlink:href="#C0_0_8e01db153a" x="287.772604" y="105.963822" style="fill: #dd8452; stroke: #ffffff; stroke-width: 0.48"/>
    </g>
    <g clip-path="url(#pb43b08358b)">
     <use xlink:href="#C0_0_8e01db153a" x="290.492586" y="129.582757" style="fill: #dd8452; stroke: #ffffff; stroke-width: 0.48"/>
    </g>
    <g clip-path="url(#pb43b08358b)">
     <use xlink:href="#C0_0_8e01db153a" x="287.852857" y="132.860086" style="fill: #dd8452; stroke: #ffffff; stroke-width: 0.48"/>
    </g>
    <g clip-path="url(#pb43b08358b)">
     <use xlink:href="#C0_0_8e01db153a" x="289.495829" y="121.456802" style="fill: #dd8452; stroke: #ffffff; stroke-width: 0.48"/>
    </g>
    <g clip-path="url(#pb43b08358b)">
     <use xlink:href="#C0_0_8e01db153a" x="222.852987" y="226.379561" style="fill: #dd8452; stroke: #ffffff; stroke-width: 0.48"/>
    </g>
    <g clip-path="url(#pb43b08358b)">
     <use xlink:href="#C0_0_8e01db153a" x="154.649" y="226.675359" style="fill: #dd8452; stroke: #ffffff; stroke-width: 0.48"/>
    </g>
    <g clip-path="url(#pb43b08358b)">
     <use xlink:href="#C0_0_8e01db153a" x="217.956599" y="222.312239" style="fill: #dd8452; stroke: #ffffff; stroke-width: 0.48"/>
    </g>
    <g clip-path="url(#pb43b08358b)">
     <use xlink:href="#C0_0_8e01db153a" x="154.754619" y="224.738662" style="fill: #dd8452; stroke: #ffffff; stroke-width: 0.48"/>
    </g>
    <g clip-path="url(#pb43b08358b)">
     <use xlink:href="#C0_0_8e01db153a" x="302.184035" y="108.916507" style="fill: #dd8452; stroke: #ffffff; stroke-width: 0.48"/>
    </g>
    <g clip-path="url(#pb43b08358b)">
     <use xlink:href="#C0_0_8e01db153a" x="295.441107" y="155.646459" style="fill: #dd8452; stroke: #ffffff; stroke-width: 0.48"/>
    </g>
    <g clip-path="url(#pb43b08358b)">
     <use xlink:href="#C0_0_8e01db153a" x="313.104118" y="65.32457" style="fill: #55a868; stroke: #ffffff; stroke-width: 0.48"/>
    </g>
    <g clip-path="url(#pb43b08358b)">
     <use xlink:href="#C0_0_8e01db153a" x="295.590903" y="100.609275" style="fill: #55a868; stroke: #ffffff; stroke-width: 0.48"/>
    </g>
    <g clip-path="url(#pb43b08358b)">
     <use xlink:href="#C0_0_8e01db153a" x="305.732568" y="89.598449" style="fill: #55a868; stroke: #ffffff; stroke-width: 0.48"/>
    </g>
    <g clip-path="url(#pb43b08358b)">
     <use xlink:href="#C0_0_8e01db153a" x="305.882347" y="74.372914" style="fill: #55a868; stroke: #ffffff; stroke-width: 0.48"/>
    </g>
    <g clip-path="url(#pb43b08358b)">
     <use xlink:href="#C0_0_8e01db153a" x="305.096815" y="84.024572" style="fill: #55a868; stroke: #ffffff; stroke-width: 0.48"/>
    </g>
    <g clip-path="url(#pb43b08358b)">
     <use xlink:href="#C0_0_8e01db153a" x="305.328636" y="70.119588" style="fill: #55a868; stroke: #ffffff; stroke-width: 0.48"/>
    </g>
    <g clip-path="url(#pb43b08358b)">
     <use xlink:href="#C0_0_8e01db153a" x="300.407126" y="78.912524" style="fill: #55a868; stroke: #ffffff; stroke-width: 0.48"/>
    </g>
    <g clip-path="url(#pb43b08358b)">
     <use xlink:href="#C0_0_8e01db153a" x="303.223757" y="70.787773" style="fill: #55a868; stroke: #ffffff; stroke-width: 0.48"/>
    </g>
    <g clip-path="url(#pb43b08358b)">
     <use xlink:href="#C0_0_8e01db153a" x="299.588599" y="70.21922" style="fill: #55a868; stroke: #ffffff; stroke-width: 0.48"/>
    </g>
    <g clip-path="url(#pb43b08358b)">
     <use xlink:href="#C0_0_8e01db153a" x="305.825247" y="56.797118" style="fill: #55a868; stroke: #ffffff; stroke-width: 0.48"/>
    </g>
    <g clip-path="url(#pb43b08358b)">
     <use xlink:href="#C0_0_8e01db153a" x="297.60217" y="202.096305" style="fill: #55a868; stroke: #ffffff; stroke-width: 0.48"/>
    </g>
    <g clip-path="url(#pb43b08358b)">
     <use xlink:href="#C0_0_8e01db153a" x="241.682217" y="213.329115" style="fill: #55a868; stroke: #ffffff; stroke-width: 0.48"/>
    </g>
    <g clip-path="url(#pb43b08358b)">
     <use xlink:href="#C0_0_8e01db153a" x="243.597786" y="209.325151" style="fill: #55a868; stroke: #ffffff; stroke-width: 0.48"/>
    </g>
    <g clip-path="url(#pb43b08358b)">
     <use xlink:href="#C0_0_8e01db153a" x="211.993667" y="206.349288" style="fill: #55a868; stroke: #ffffff; stroke-width: 0.48"/>
    </g>
    <g clip-path="url(#pb43b08358b)">
     <use xlink:href="#C0_0_8e01db153a" x="328.605684" y="175.862195" style="fill: #55a868; stroke: #ffffff; stroke-width: 0.48"/>
    </g>
    <g clip-path="url(#pb43b08358b)">
     <use xlink:href="#C0_0_8e01db153a" x="325.856465" y="154.701688" style="fill: #c44e52; stroke: #ffffff; stroke-width: 0.48"/>
    </g>
    <g clip-path="url(#pb43b08358b)">
     <use xlink:href="#C0_0_8e01db153a" x="328.120345" y="143.45068" style="fill: #c44e52; stroke: #ffffff; stroke-width: 0.48"/>
    </g>
    <g clip-path="url(#pb43b08358b)">
     <use xlink:href="#C0_0_8e01db153a" x="340.833037" y="143.835485" style="fill: #c44e52; stroke: #ffffff; stroke-width: 0.48"/>
    </g>
    <g clip-path="url(#pb43b08358b)">
     <use xlink:href="#C0_0_8e01db153a" x="323.321749" y="96.036243" style="fill: #c44e52; stroke: #ffffff; stroke-width: 0.48"/>
    </g>
    <g clip-path="url(#pb43b08358b)">
     <use xlink:href="#C0_0_8e01db153a" x="327.214642" y="106.667782" style="fill: #c44e52; stroke: #ffffff; stroke-width: 0.48"/>
    </g>
    <g clip-path="url(#pb43b08358b)">
     <use xlink:href="#C0_0_8e01db153a" x="328.37041" y="108.020551" style="fill: #c44e52; stroke: #ffffff; stroke-width: 0.48"/>
    </g>
    <g clip-path="url(#pb43b08358b)">
     <use xlink:href="#C0_0_8e01db153a" x="326.057072" y="217.607995" style="fill: #c44e52; stroke: #ffffff; stroke-width: 0.48"/>
    </g>
    <g clip-path="url(#pb43b08358b)">
     <use xlink:href="#C0_0_8e01db153a" x="325.695973" y="103.445339" style="fill: #c44e52; stroke: #ffffff; stroke-width: 0.48"/>
    </g>
    <g clip-path="url(#pb43b08358b)">
     <use xlink:href="#C0_0_8e01db153a" x="325.774707" y="69.205664" style="fill: #c44e52; stroke: #ffffff; stroke-width: 0.48"/>
    </g>
    <g clip-path="url(#pb43b08358b)">
     <use xlink:href="#C0_0_8e01db153a" x="325.706646" y="83.032766" style="fill: #c44e52; stroke: #ffffff; stroke-width: 0.48"/>
    </g>
    <g clip-path="url(#pb43b08358b)">
     <use xlink:href="#C0_0_8e01db153a" x="322.94262" y="242.116364" style="fill: #c44e52; stroke: #ffffff; stroke-width: 0.48"/>
    </g>
    <g clip-path="url(#pb43b08358b)">
     <use xlink:href="#C0_0_8e01db153a" x="253.347355" y="234.09201" style="fill: #c44e52; stroke: #ffffff; stroke-width: 0.48"/>
    </g>
    <g clip-path="url(#pb43b08358b)">
     <use xlink:href="#C0_0_8e01db153a" x="69.218182" y="217.76855" style="fill: #c44e52; stroke: #ffffff; stroke-width: 0.48"/>
    </g>
    <g clip-path="url(#pb43b08358b)">
     <use xlink:href="#C0_0_8e01db153a" x="83.459714" y="220.385454" style="fill: #c44e52; stroke: #ffffff; stroke-width: 0.48"/>
    </g>
    <g clip-path="url(#pb43b08358b)">
     <use xlink:href="#C0_0_8e01db153a" x="330.751612" y="99.958799" style="fill: #c44e52; stroke: #ffffff; stroke-width: 0.48"/>
    </g>
    <g clip-path="url(#pb43b08358b)">
     <use xlink:href="#C0_0_8e01db153a" x="330.889395" y="194.507245" style="fill: #c44e52; stroke: #ffffff; stroke-width: 0.48"/>
    </g>
    <g clip-path="url(#pb43b08358b)">
     <use xlink:href="#C0_0_8e01db153a" x="352.639243" y="162.619301" style="fill: #8172b3; stroke: #ffffff; stroke-width: 0.48"/>
    </g>
    <g clip-path="url(#pb43b08358b)">
     <use xlink:href="#C0_0_8e01db153a" x="356.145183" y="126.001537" style="fill: #8172b3; stroke: #ffffff; stroke-width: 0.48"/>
    </g>
    <g clip-path="url(#pb43b08358b)">
     <use xlink:href="#C0_0_8e01db153a" x="350.589434" y="132.185404" style="fill: #8172b3; stroke: #ffffff; stroke-width: 0.48"/>
    </g>
    <g clip-path="url(#pb43b08358b)">
     <use xlink:href="#C0_0_8e01db153a" x="353.389065" y="101.531678" style="fill: #8172b3; stroke: #ffffff; stroke-width: 0.48"/>
    </g>
    <g clip-path="url(#pb43b08358b)">
     <use xlink:href="#C0_0_8e01db153a" x="350.966365" y="124.594286" style="fill: #8172b3; stroke: #ffffff; stroke-width: 0.48"/>
    </g>
    <g clip-path="url(#pb43b08358b)">
     <use xlink:href="#C0_0_8e01db153a" x="352.983344" y="117.763898" style="fill: #8172b3; stroke: #ffffff; stroke-width: 0.48"/>
    </g>
    <g clip-path="url(#pb43b08358b)">
     <use xlink:href="#C0_0_8e01db153a" x="214.859288" y="208.110581" style="fill: #8172b3; stroke: #ffffff; stroke-width: 0.48"/>
    </g>
    <g clip-path="url(#pb43b08358b)">
     <use xlink:href="#C0_0_8e01db153a" x="355.621779" y="177.729212" style="fill: #8172b3; stroke: #ffffff; stroke-width: 0.48"/>
    </g>
    <g clip-path="url(#pb43b08358b)">
     <use xlink:href="#C0_0_8e01db153a" x="351.069264" y="154.729715" style="fill: #8172b3; stroke: #ffffff; stroke-width: 0.48"/>
    </g>
    <g clip-path="url(#pb43b08358b)">
     <use xlink:href="#C0_0_8e01db153a" x="362.849678" y="218.170354" style="fill: #8172b3; stroke: #ffffff; stroke-width: 0.48"/>
    </g>
    <g clip-path="url(#pb43b08358b)">
     <use xlink:href="#C0_0_8e01db153a" x="354.318352" y="191.771979" style="fill: #8172b3; stroke: #ffffff; stroke-width: 0.48"/>
    </g>
    <g clip-path="url(#pb43b08358b)">
     <use xlink:href="#C0_0_8e01db153a" x="124.853474" y="210.446899" style="fill: #8172b3; stroke: #ffffff; stroke-width: 0.48"/>
    </g>
    <g clip-path="url(#pb43b08358b)">
     <use xlink:href="#C0_0_8e01db153a" x="165.21408" y="197.118146" style="fill: #8172b3; stroke: #ffffff; stroke-width: 0.48"/>
    </g>
    <g clip-path="url(#pb43b08358b)">
     <use xlink:href="#C0_0_8e01db153a" x="181.149041" y="202.71713" style="fill: #8172b3; stroke: #ffffff; stroke-width: 0.48"/>
    </g>
    <g clip-path="url(#pb43b08358b)">
     <use xlink:href="#C0_0_8e01db153a" x="365.390952" y="122.293998" style="fill: #8172b3; stroke: #ffffff; stroke-width: 0.48"/>
    </g>
    <g clip-path="url(#pb43b08358b)">
     <use xlink:href="#C0_0_8e01db153a" x="360.705911" y="74.019802" style="fill: #8172b3; stroke: #ffffff; stroke-width: 0.48"/>
    </g>
   </g>
   <g id="PathCollection_2"/>
   <g id="PathCollection_3"/>
   <g id="PathCollection_4"/>
   <g id="PathCollection_5"/>
   <g id="PathCollection_6"/>
   <g id="patch_3">
    <path d="M 54 252 
L 54 34.56 
" style="fill: none; stroke: #262626; stroke-width: 1.25; stroke-linejoin: miter; stroke-linecap: square"/>
   </g>
   <g id="patch_4">
    <path d="M 388.8 252 
L 388.8 34.56 
" style="fill: none; stroke: #262626; stroke-width: 1.25; stroke-linejoin: miter; stroke-linecap: square"/>
   </g>
   <g id="patch_5">
    <path d="M 54 252 
L 388.8 252 
" style="fill: none; stroke: #262626; stroke-width: 1.25; stroke-linejoin: miter; stroke-linecap: square"/>
   </g>
   <g id="patch_6">
    <path d="M 54 34.56 
L 388.8 34.56 
" style="fill: none; stroke: #262626; stroke-width: 1.25; stroke-linejoin: miter; stroke-linecap: square"/>
   </g>
   <g id="legend_1">
    <g id="patch_7">
     <path d="M 61.7 137.633594 
L 109.134062 137.633594 
Q 111.334063 137.633594 111.334063 135.433594 
L 111.334063 42.26 
Q 111.334063 40.06 109.134062 40.06 
L 61.7 40.06 
Q 59.5 40.06 59.5 42.26 
L 59.5 135.433594 
Q 59.5 137.633594 61.7 137.633594 
z
" style="fill: #ffffff; opacity: 0.8; stroke: #cccccc; stroke-linejoin: miter"/>
    </g>
    <g id="text_14">
     <!-- Patient -->
     <g style="fill: #262626" transform="translate(66.738281 53.049375)scale(0.12 -0.12)">
      <defs>
       <path id="ArialMT-50" d="M 494 0 
L 494 4581 
L 2222 4581 
Q 2678 4581 2919 4538 
Q 3256 4481 3484 4323 
Q 3713 4166 3852 3881 
Q 3991 3597 3991 3256 
Q 3991 2672 3619 2267 
Q 3247 1863 2275 1863 
L 1100 1863 
L 1100 0 
L 494 0 
z
M 1100 2403 
L 2284 2403 
Q 2872 2403 3119 2622 
Q 3366 2841 3366 3238 
Q 3366 3525 3220 3729 
Q 3075 3934 2838 4000 
Q 2684 4041 2272 4041 
L 1100 4041 
L 1100 2403 
z
" transform="scale(0.015625)"/>
       <path id="ArialMT-6e" d="M 422 0 
L 422 3319 
L 928 3319 
L 928 2847 
Q 1294 3394 1984 3394 
Q 2284 3394 2536 3286 
Q 2788 3178 2913 3003 
Q 3038 2828 3088 2588 
Q 3119 2431 3119 2041 
L 3119 0 
L 2556 0 
L 2556 2019 
Q 2556 2363 2490 2533 
Q 2425 2703 2258 2804 
Q 2091 2906 1866 2906 
Q 1506 2906 1245 2678 
Q 984 2450 984 1813 
L 984 0 
L 422 0 
z
" transform="scale(0.015625)"/>
      </defs>
      <use xlink:href="#ArialMT-50"/>
      <use xlink:href="#ArialMT-61" x="66.699219"/>
      <use xlink:href="#ArialMT-74" x="122.314453"/>
      <use xlink:href="#ArialMT-69" x="150.097656"/>
      <use xlink:href="#ArialMT-65" x="172.314453"/>
      <use xlink:href="#ArialMT-6e" x="227.929688"/>
      <use xlink:href="#ArialMT-74" x="283.544922"/>
     </g>
    </g>
    <g id="PathCollection_7">
     <defs>
      <path id="m1fa5bcfcec" d="M 0 3 
C 0.795609 3 1.55874 2.683901 2.12132 2.12132 
C 2.683901 1.55874 3 0.795609 3 0 
C 3 -0.795609 2.683901 -1.55874 2.12132 -2.12132 
C 1.55874 -2.683901 0.795609 -3 0 -3 
C -0.795609 -3 -1.55874 -2.683901 -2.12132 -2.12132 
C -2.683901 -1.55874 -3 -0.795609 -3 0 
C -3 0.795609 -2.683901 1.55874 -2.12132 2.12132 
C -1.55874 2.683901 -0.795609 3 0 3 
z
" style="stroke: #4c72b0"/>
     </defs>
     <g>
      <use xlink:href="#m1fa5bcfcec" x="74.9" y="65.920469" style="fill: #4c72b0; stroke: #4c72b0"/>
     </g>
    </g>
    <g id="text_15">
     <!-- 6 -->
     <g style="fill: #262626" transform="translate(94.7 68.807969)scale(0.11 -0.11)">
      <use xlink:href="#ArialMT-36"/>
     </g>
    </g>
    <g id="PathCollection_8">
     <defs>
      <path id="mbde6939351" d="M 0 3 
C 0.795609 3 1.55874 2.683901 2.12132 2.12132 
C 2.683901 1.55874 3 0.795609 3 0 
C 3 -0.795609 2.683901 -1.55874 2.12132 -2.12132 
C 1.55874 -2.683901 0.795609 -3 0 -3 
C -0.795609 -3 -1.55874 -2.683901 -2.12132 -2.12132 
C -2.683901 -1.55874 -3 -0.795609 -3 0 
C -3 0.795609 -2.683901 1.55874 -2.12132 2.12132 
C -1.55874 2.683901 -0.795609 3 0 3 
z
" style="stroke: #dd8452"/>
     </defs>
     <g>
      <use xlink:href="#mbde6939351" x="74.9" y="81.480312" style="fill: #dd8452; stroke: #dd8452"/>
     </g>
    </g>
    <g id="text_16">
     <!-- 7 -->
     <g style="fill: #262626" transform="translate(94.7 84.367812)scale(0.11 -0.11)">
      <defs>
       <path id="ArialMT-37" d="M 303 3981 
L 303 4522 
L 3269 4522 
L 3269 4084 
Q 2831 3619 2401 2847 
Q 1972 2075 1738 1259 
Q 1569 684 1522 0 
L 944 0 
Q 953 541 1156 1306 
Q 1359 2072 1739 2783 
Q 2119 3494 2547 3981 
L 303 3981 
z
" transform="scale(0.015625)"/>
      </defs>
      <use xlink:href="#ArialMT-37"/>
     </g>
    </g>
    <g id="PathCollection_9">
     <defs>
      <path id="mae272c48e7" d="M 0 3 
C 0.795609 3 1.55874 2.683901 2.12132 2.12132 
C 2.683901 1.55874 3 0.795609 3 0 
C 3 -0.795609 2.683901 -1.55874 2.12132 -2.12132 
C 1.55874 -2.683901 0.795609 -3 0 -3 
C -0.795609 -3 -1.55874 -2.683901 -2.12132 -2.12132 
C -2.683901 -1.55874 -3 -0.795609 -3 0 
C -3 0.795609 -2.683901 1.55874 -2.12132 2.12132 
C -1.55874 2.683901 -0.795609 3 0 3 
z
" style="stroke: #55a868"/>
     </defs>
     <g>
      <use xlink:href="#mae272c48e7" x="74.9" y="97.040156" style="fill: #55a868; stroke: #55a868"/>
     </g>
    </g>
    <g id="text_17">
     <!-- 9 -->
     <g style="fill: #262626" transform="translate(94.7 99.927656)scale(0.11 -0.11)">
      <defs>
       <path id="ArialMT-39" d="M 350 1059 
L 891 1109 
Q 959 728 1153 556 
Q 1347 384 1650 384 
Q 1909 384 2104 503 
Q 2300 622 2425 820 
Q 2550 1019 2634 1356 
Q 2719 1694 2719 2044 
Q 2719 2081 2716 2156 
Q 2547 1888 2255 1720 
Q 1963 1553 1622 1553 
Q 1053 1553 659 1965 
Q 266 2378 266 3053 
Q 266 3750 677 4175 
Q 1088 4600 1706 4600 
Q 2153 4600 2523 4359 
Q 2894 4119 3086 3673 
Q 3278 3228 3278 2384 
Q 3278 1506 3087 986 
Q 2897 466 2520 194 
Q 2144 -78 1638 -78 
Q 1100 -78 759 220 
Q 419 519 350 1059 
z
M 2653 3081 
Q 2653 3566 2395 3850 
Q 2138 4134 1775 4134 
Q 1400 4134 1122 3828 
Q 844 3522 844 3034 
Q 844 2597 1108 2323 
Q 1372 2050 1759 2050 
Q 2150 2050 2401 2323 
Q 2653 2597 2653 3081 
z
" transform="scale(0.015625)"/>
      </defs>
      <use xlink:href="#ArialMT-39"/>
     </g>
    </g>
    <g id="PathCollection_10">
     <defs>
      <path id="md2c0b20499" d="M 0 3 
C 0.795609 3 1.55874 2.683901 2.12132 2.12132 
C 2.683901 1.55874 3 0.795609 3 0 
C 3 -0.795609 2.683901 -1.55874 2.12132 -2.12132 
C 1.55874 -2.683901 0.795609 -3 0 -3 
C -0.795609 -3 -1.55874 -2.683901 -2.12132 -2.12132 
C -2.683901 -1.55874 -3 -0.795609 -3 0 
C -3 0.795609 -2.683901 1.55874 -2.12132 2.12132 
C -1.55874 2.683901 -0.795609 3 0 3 
z
" style="stroke: #c44e52"/>
     </defs>
     <g>
      <use xlink:href="#md2c0b20499" x="74.9" y="112.6" style="fill: #c44e52; stroke: #c44e52"/>
     </g>
    </g>
    <g id="text_18">
     <!-- 14 -->
     <g style="fill: #262626" transform="translate(94.7 115.4875)scale(0.11 -0.11)">
      <use xlink:href="#ArialMT-31"/>
      <use xlink:href="#ArialMT-34" x="55.615234"/>
     </g>
    </g>
    <g id="PathCollection_11">
     <defs>
      <path id="m697ba46431" d="M 0 3 
C 0.795609 3 1.55874 2.683901 2.12132 2.12132 
C 2.683901 1.55874 3 0.795609 3 0 
C 3 -0.795609 2.683901 -1.55874 2.12132 -2.12132 
C 1.55874 -2.683901 0.795609 -3 0 -3 
C -0.795609 -3 -1.55874 -2.683901 -2.12132 -2.12132 
C -2.683901 -1.55874 -3 -0.795609 -3 0 
C -3 0.795609 -2.683901 1.55874 -2.12132 2.12132 
C -1.55874 2.683901 -0.795609 3 0 3 
z
" style="stroke: #8172b3"/>
     </defs>
     <g>
      <use xlink:href="#m697ba46431" x="74.9" y="128.159844" style="fill: #8172b3; stroke: #8172b3"/>
     </g>
    </g>
    <g id="text_19">
     <!-- 15 -->
     <g style="fill: #262626" transform="translate(94.7 131.047344)scale(0.11 -0.11)">
      <defs>
       <path id="ArialMT-35" d="M 266 1200 
L 856 1250 
Q 922 819 1161 601 
Q 1400 384 1738 384 
Q 2144 384 2425 690 
Q 2706 997 2706 1503 
Q 2706 1984 2436 2262 
Q 2166 2541 1728 2541 
Q 1456 2541 1237 2417 
Q 1019 2294 894 2097 
L 366 2166 
L 809 4519 
L 3088 4519 
L 3088 3981 
L 1259 3981 
L 1013 2750 
Q 1425 3038 1878 3038 
Q 2478 3038 2890 2622 
Q 3303 2206 3303 1553 
Q 3303 931 2941 478 
Q 2500 -78 1738 -78 
Q 1113 -78 717 272 
Q 322 622 266 1200 
z
" transform="scale(0.015625)"/>
      </defs>
      <use xlink:href="#ArialMT-31"/>
      <use xlink:href="#ArialMT-35" x="55.615234"/>
     </g>
    </g>
   </g>
  </g>
 </g>
 <defs>
  <clipPath id="pb43b08358b">
   <rect x="54" y="34.56" width="334.8" height="217.44"/>
  </clipPath>
 </defs>
</svg>
