<?xml version="1.0" encoding="utf-8" standalone="no"?>
<!DOCTYPE svg PUBLIC "-//W3C//DTD SVG 1.1//EN"
  "http://www.w3.org/Graphics/SVG/1.1/DTD/svg11.dtd">
<svg xmlns:xlink="http://www.w3.org/1999/xlink" width="432pt" height="288pt" viewBox="0 0 432 288" xmlns="http://www.w3.org/2000/svg" version="1.1">
 <metadata>
  <rdf:RDF xmlns:dc="http://purl.org/dc/elements/1.1/" xmlns:cc="http://creativecommons.org/ns#" xmlns:rdf="http://www.w3.org/1999/02/22-rdf-syntax-ns#">
   <cc:Work>
    <dc:type rdf:resource="http://purl.org/dc/dcmitype/StillImage"/>
    <dc:date>2022-07-08T13:28:09.980779</dc:date>
    <dc:format>image/svg+xml</dc:format>
    <dc:creator>
     <cc:Agent>
      <dc:title>Matplotlib v3.5.1, https://matplotlib.org/</dc:title>
     </cc:Agent>
    </dc:creator>
   </cc:Work>
  </rdf:RDF>
 </metadata>
 <defs>
  <style type="text/css">*{stroke-linejoin: round; stroke-linecap: butt}</style>
 </defs>
 <g id="figure_1">
  <g id="patch_1">
   <path d="M 0 288 
L 432 288 
L 432 0 
L 0 0 
z
" style="fill: #ffffff"/>
  </g>
  <g id="axes_1">
   <g id="patch_2">
    <path d="M 54 252 
L 388.8 252 
L 388.8 34.56 
L 54 34.56 
z
" style="fill: #ffffff"/>
   </g>
   <g id="matplotlib.axis_1">
    <g id="xtick_1">
     <g id="line2d_1">
      <defs>
       <path id="mb3caa52b32" d="M 0 0 
L 0 6 
" style="stroke: #262626; stroke-width: 1.25"/>
      </defs>
      <g>
       <use xlink:href="#mb3caa52b32" x="54" y="252" style="fill: #262626; stroke: #262626; stroke-width: 1.25"/>
      </g>
     </g>
     <g id="text_1">
      <!-- 0 -->
      <g style="fill: #262626" transform="translate(50.941484 269.373594)scale(0.11 -0.11)">
       <defs>
        <path id="ArialMT-30" d="M 266 2259 
Q 266 3072 433 3567 
Q 600 4063 929 4331 
Q 1259 4600 1759 4600 
Q 2128 4600 2406 4451 
Q 2684 4303 2865 4023 
Q 3047 3744 3150 3342 
Q 3253 2941 3253 2259 
Q 3253 1453 3087 958 
Q 2922 463 2592 192 
Q 2263 -78 1759 -78 
Q 1097 -78 719 397 
Q 266 969 266 2259 
z
M 844 2259 
Q 844 1131 1108 757 
Q 1372 384 1759 384 
Q 2147 384 2411 759 
Q 2675 1134 2675 2259 
Q 2675 3391 2411 3762 
Q 2147 4134 1753 4134 
Q 1366 4134 1134 3806 
Q 844 3388 844 2259 
z
" transform="scale(0.015625)"/>
       </defs>
       <use xlink:href="#ArialMT-30"/>
      </g>
     </g>
    </g>
    <g id="xtick_2">
     <g id="line2d_2">
      <g>
       <use xlink:href="#mb3caa52b32" x="109.8" y="252" style="fill: #262626; stroke: #262626; stroke-width: 1.25"/>
      </g>
     </g>
     <g id="text_2">
      <!-- 5 -->
      <g style="fill: #262626" transform="translate(106.741484 269.373594)scale(0.11 -0.11)">
       <defs>
        <path id="ArialMT-35" d="M 266 1200 
L 856 1250 
Q 922 819 1161 601 
Q 1400 384 1738 384 
Q 2144 384 2425 690 
Q 2706 997 2706 1503 
Q 2706 1984 2436 2262 
Q 2166 2541 1728 2541 
Q 1456 2541 1237 2417 
Q 1019 2294 894 2097 
L 366 2166 
L 809 4519 
L 3088 4519 
L 3088 3981 
L 1259 3981 
L 1013 2750 
Q 1425 3038 1878 3038 
Q 2478 3038 2890 2622 
Q 3303 2206 3303 1553 
Q 3303 931 2941 478 
Q 2500 -78 1738 -78 
Q 1113 -78 717 272 
Q 322 622 266 1200 
z
" transform="scale(0.015625)"/>
       </defs>
       <use xlink:href="#ArialMT-35"/>
      </g>
     </g>
    </g>
    <g id="xtick_3">
     <g id="line2d_3">
      <g>
       <use xlink:href="#mb3caa52b32" x="165.6" y="252" style="fill: #262626; stroke: #262626; stroke-width: 1.25"/>
      </g>
     </g>
     <g id="text_3">
      <!-- 10 -->
      <g style="fill: #262626" transform="translate(159.482969 269.373594)scale(0.11 -0.11)">
       <defs>
        <path id="ArialMT-31" d="M 2384 0 
L 1822 0 
L 1822 3584 
Q 1619 3391 1289 3197 
Q 959 3003 697 2906 
L 697 3450 
Q 1169 3672 1522 3987 
Q 1875 4303 2022 4600 
L 2384 4600 
L 2384 0 
z
" transform="scale(0.015625)"/>
       </defs>
       <use xlink:href="#ArialMT-31"/>
       <use xlink:href="#ArialMT-30" x="55.615234"/>
      </g>
     </g>
    </g>
    <g id="xtick_4">
     <g id="line2d_4">
      <g>
       <use xlink:href="#mb3caa52b32" x="221.4" y="252" style="fill: #262626; stroke: #262626; stroke-width: 1.25"/>
      </g>
     </g>
     <g id="text_4">
      <!-- 15 -->
      <g style="fill: #262626" transform="translate(215.282969 269.373594)scale(0.11 -0.11)">
       <use xlink:href="#ArialMT-31"/>
       <use xlink:href="#ArialMT-35" x="55.615234"/>
      </g>
     </g>
    </g>
    <g id="xtick_5">
     <g id="line2d_5">
      <g>
       <use xlink:href="#mb3caa52b32" x="277.2" y="252" style="fill: #262626; stroke: #262626; stroke-width: 1.25"/>
      </g>
     </g>
     <g id="text_5">
      <!-- 20 -->
      <g style="fill: #262626" transform="translate(271.082969 269.373594)scale(0.11 -0.11)">
       <defs>
        <path id="ArialMT-32" d="M 3222 541 
L 3222 0 
L 194 0 
Q 188 203 259 391 
Q 375 700 629 1000 
Q 884 1300 1366 1694 
Q 2113 2306 2375 2664 
Q 2638 3022 2638 3341 
Q 2638 3675 2398 3904 
Q 2159 4134 1775 4134 
Q 1369 4134 1125 3890 
Q 881 3647 878 3216 
L 300 3275 
Q 359 3922 746 4261 
Q 1134 4600 1788 4600 
Q 2447 4600 2831 4234 
Q 3216 3869 3216 3328 
Q 3216 3053 3103 2787 
Q 2991 2522 2730 2228 
Q 2469 1934 1863 1422 
Q 1356 997 1212 845 
Q 1069 694 975 541 
L 3222 541 
z
" transform="scale(0.015625)"/>
       </defs>
       <use xlink:href="#ArialMT-32"/>
       <use xlink:href="#ArialMT-30" x="55.615234"/>
      </g>
     </g>
    </g>
    <g id="xtick_6">
     <g id="line2d_6">
      <g>
       <use xlink:href="#mb3caa52b32" x="333" y="252" style="fill: #262626; stroke: #262626; stroke-width: 1.25"/>
      </g>
     </g>
     <g id="text_6">
      <!-- 25 -->
      <g style="fill: #262626" transform="translate(326.882969 269.373594)scale(0.11 -0.11)">
       <use xlink:href="#ArialMT-32"/>
       <use xlink:href="#ArialMT-35" x="55.615234"/>
      </g>
     </g>
    </g>
    <g id="xtick_7">
     <g id="line2d_7">
      <g>
       <use xlink:href="#mb3caa52b32" x="388.8" y="252" style="fill: #262626; stroke: #262626; stroke-width: 1.25"/>
      </g>
     </g>
     <g id="text_7">
      <!-- 30 -->
      <g style="fill: #262626" transform="translate(382.682969 269.373594)scale(0.11 -0.11)">
       <defs>
        <path id="ArialMT-33" d="M 269 1209 
L 831 1284 
Q 928 806 1161 595 
Q 1394 384 1728 384 
Q 2125 384 2398 659 
Q 2672 934 2672 1341 
Q 2672 1728 2419 1979 
Q 2166 2231 1775 2231 
Q 1616 2231 1378 2169 
L 1441 2663 
Q 1497 2656 1531 2656 
Q 1891 2656 2178 2843 
Q 2466 3031 2466 3422 
Q 2466 3731 2256 3934 
Q 2047 4138 1716 4138 
Q 1388 4138 1169 3931 
Q 950 3725 888 3313 
L 325 3413 
Q 428 3978 793 4289 
Q 1159 4600 1703 4600 
Q 2078 4600 2393 4439 
Q 2709 4278 2876 4000 
Q 3044 3722 3044 3409 
Q 3044 3113 2884 2869 
Q 2725 2625 2413 2481 
Q 2819 2388 3044 2092 
Q 3269 1797 3269 1353 
Q 3269 753 2831 336 
Q 2394 -81 1725 -81 
Q 1122 -81 723 278 
Q 325 638 269 1209 
z
" transform="scale(0.015625)"/>
       </defs>
       <use xlink:href="#ArialMT-33"/>
       <use xlink:href="#ArialMT-30" x="55.615234"/>
      </g>
     </g>
    </g>
    <g id="text_8">
     <!-- Frequency (Hz) -->
     <g style="fill: #262626" transform="translate(180.059063 284.295469)scale(0.12 -0.12)">
      <defs>
       <path id="ArialMT-46" d="M 525 0 
L 525 4581 
L 3616 4581 
L 3616 4041 
L 1131 4041 
L 1131 2622 
L 3281 2622 
L 3281 2081 
L 1131 2081 
L 1131 0 
L 525 0 
z
" transform="scale(0.015625)"/>
       <path id="ArialMT-72" d="M 416 0 
L 416 3319 
L 922 3319 
L 922 2816 
Q 1116 3169 1280 3281 
Q 1444 3394 1641 3394 
Q 1925 3394 2219 3213 
L 2025 2691 
Q 1819 2813 1613 2813 
Q 1428 2813 1281 2702 
Q 1134 2591 1072 2394 
Q 978 2094 978 1738 
L 978 0 
L 416 0 
z
" transform="scale(0.015625)"/>
       <path id="ArialMT-65" d="M 2694 1069 
L 3275 997 
Q 3138 488 2766 206 
Q 2394 -75 1816 -75 
Q 1088 -75 661 373 
Q 234 822 234 1631 
Q 234 2469 665 2931 
Q 1097 3394 1784 3394 
Q 2450 3394 2872 2941 
Q 3294 2488 3294 1666 
Q 3294 1616 3291 1516 
L 816 1516 
Q 847 969 1125 678 
Q 1403 388 1819 388 
Q 2128 388 2347 550 
Q 2566 713 2694 1069 
z
M 847 1978 
L 2700 1978 
Q 2663 2397 2488 2606 
Q 2219 2931 1791 2931 
Q 1403 2931 1139 2672 
Q 875 2413 847 1978 
z
" transform="scale(0.015625)"/>
       <path id="ArialMT-71" d="M 2538 -1272 
L 2538 353 
Q 2406 169 2170 47 
Q 1934 -75 1669 -75 
Q 1078 -75 651 397 
Q 225 869 225 1691 
Q 225 2191 398 2587 
Q 572 2984 901 3189 
Q 1231 3394 1625 3394 
Q 2241 3394 2594 2875 
L 2594 3319 
L 3100 3319 
L 3100 -1272 
L 2538 -1272 
z
M 803 1669 
Q 803 1028 1072 708 
Q 1341 388 1716 388 
Q 2075 388 2334 692 
Q 2594 997 2594 1619 
Q 2594 2281 2320 2615 
Q 2047 2950 1678 2950 
Q 1313 2950 1058 2639 
Q 803 2328 803 1669 
z
" transform="scale(0.015625)"/>
       <path id="ArialMT-75" d="M 2597 0 
L 2597 488 
Q 2209 -75 1544 -75 
Q 1250 -75 995 37 
Q 741 150 617 320 
Q 494 491 444 738 
Q 409 903 409 1263 
L 409 3319 
L 972 3319 
L 972 1478 
Q 972 1038 1006 884 
Q 1059 663 1231 536 
Q 1403 409 1656 409 
Q 1909 409 2131 539 
Q 2353 669 2445 892 
Q 2538 1116 2538 1541 
L 2538 3319 
L 3100 3319 
L 3100 0 
L 2597 0 
z
" transform="scale(0.015625)"/>
       <path id="ArialMT-6e" d="M 422 0 
L 422 3319 
L 928 3319 
L 928 2847 
Q 1294 3394 1984 3394 
Q 2284 3394 2536 3286 
Q 2788 3178 2913 3003 
Q 3038 2828 3088 2588 
Q 3119 2431 3119 2041 
L 3119 0 
L 2556 0 
L 2556 2019 
Q 2556 2363 2490 2533 
Q 2425 2703 2258 2804 
Q 2091 2906 1866 2906 
Q 1506 2906 1245 2678 
Q 984 2450 984 1813 
L 984 0 
L 422 0 
z
" transform="scale(0.015625)"/>
       <path id="ArialMT-63" d="M 2588 1216 
L 3141 1144 
Q 3050 572 2676 248 
Q 2303 -75 1759 -75 
Q 1078 -75 664 370 
Q 250 816 250 1647 
Q 250 2184 428 2587 
Q 606 2991 970 3192 
Q 1334 3394 1763 3394 
Q 2303 3394 2647 3120 
Q 2991 2847 3088 2344 
L 2541 2259 
Q 2463 2594 2264 2762 
Q 2066 2931 1784 2931 
Q 1359 2931 1093 2626 
Q 828 2322 828 1663 
Q 828 994 1084 691 
Q 1341 388 1753 388 
Q 2084 388 2306 591 
Q 2528 794 2588 1216 
z
" transform="scale(0.015625)"/>
       <path id="ArialMT-79" d="M 397 -1278 
L 334 -750 
Q 519 -800 656 -800 
Q 844 -800 956 -737 
Q 1069 -675 1141 -563 
Q 1194 -478 1313 -144 
Q 1328 -97 1363 -6 
L 103 3319 
L 709 3319 
L 1400 1397 
Q 1534 1031 1641 628 
Q 1738 1016 1872 1384 
L 2581 3319 
L 3144 3319 
L 1881 -56 
Q 1678 -603 1566 -809 
Q 1416 -1088 1222 -1217 
Q 1028 -1347 759 -1347 
Q 597 -1347 397 -1278 
z
" transform="scale(0.015625)"/>
       <path id="ArialMT-20" transform="scale(0.015625)"/>
       <path id="ArialMT-28" d="M 1497 -1347 
Q 1031 -759 709 28 
Q 388 816 388 1659 
Q 388 2403 628 3084 
Q 909 3875 1497 4659 
L 1900 4659 
Q 1522 4009 1400 3731 
Q 1209 3300 1100 2831 
Q 966 2247 966 1656 
Q 966 153 1900 -1347 
L 1497 -1347 
z
" transform="scale(0.015625)"/>
       <path id="ArialMT-48" d="M 513 0 
L 513 4581 
L 1119 4581 
L 1119 2700 
L 3500 2700 
L 3500 4581 
L 4106 4581 
L 4106 0 
L 3500 0 
L 3500 2159 
L 1119 2159 
L 1119 0 
L 513 0 
z
" transform="scale(0.015625)"/>
       <path id="ArialMT-7a" d="M 125 0 
L 125 456 
L 2238 2881 
Q 1878 2863 1603 2863 
L 250 2863 
L 250 3319 
L 2963 3319 
L 2963 2947 
L 1166 841 
L 819 456 
Q 1197 484 1528 484 
L 3063 484 
L 3063 0 
L 125 0 
z
" transform="scale(0.015625)"/>
       <path id="ArialMT-29" d="M 791 -1347 
L 388 -1347 
Q 1322 153 1322 1656 
Q 1322 2244 1188 2822 
Q 1081 3291 891 3722 
Q 769 4003 388 4659 
L 791 4659 
Q 1378 3875 1659 3084 
Q 1900 2403 1900 1659 
Q 1900 816 1576 28 
Q 1253 -759 791 -1347 
z
" transform="scale(0.015625)"/>
      </defs>
      <use xlink:href="#ArialMT-46"/>
      <use xlink:href="#ArialMT-72" x="61.083984"/>
      <use xlink:href="#ArialMT-65" x="94.384766"/>
      <use xlink:href="#ArialMT-71" x="150"/>
      <use xlink:href="#ArialMT-75" x="205.615234"/>
      <use xlink:href="#ArialMT-65" x="261.230469"/>
      <use xlink:href="#ArialMT-6e" x="316.845703"/>
      <use xlink:href="#ArialMT-63" x="372.460938"/>
      <use xlink:href="#ArialMT-79" x="422.460938"/>
      <use xlink:href="#ArialMT-20" x="472.460938"/>
      <use xlink:href="#ArialMT-28" x="500.244141"/>
      <use xlink:href="#ArialMT-48" x="533.544922"/>
      <use xlink:href="#ArialMT-7a" x="605.761719"/>
      <use xlink:href="#ArialMT-29" x="655.761719"/>
     </g>
    </g>
   </g>
   <g id="matplotlib.axis_2">
    <g id="ytick_1">
     <g id="line2d_8">
      <defs>
       <path id="medd0be9360" d="M 0 0 
L -6 0 
" style="stroke: #262626; stroke-width: 1.25"/>
      </defs>
      <g>
       <use xlink:href="#medd0be9360" x="54" y="242.116371" style="fill: #262626; stroke: #262626; stroke-width: 1.25"/>
      </g>
     </g>
     <g id="text_9">
      <!-- 0.0 -->
      <g style="fill: #262626" transform="translate(29.21 246.053168)scale(0.11 -0.11)">
       <defs>
        <path id="ArialMT-2e" d="M 581 0 
L 581 641 
L 1222 641 
L 1222 0 
L 581 0 
z
" transform="scale(0.015625)"/>
       </defs>
       <use xlink:href="#ArialMT-30"/>
       <use xlink:href="#ArialMT-2e" x="55.615234"/>
       <use xlink:href="#ArialMT-30" x="83.398438"/>
      </g>
     </g>
    </g>
    <g id="ytick_2">
     <g id="line2d_9">
      <g>
       <use xlink:href="#medd0be9360" x="54" y="202.581824" style="fill: #262626; stroke: #262626; stroke-width: 1.25"/>
      </g>
     </g>
     <g id="text_10">
      <!-- 0.2 -->
      <g style="fill: #262626" transform="translate(29.21 206.518621)scale(0.11 -0.11)">
       <use xlink:href="#ArialMT-30"/>
       <use xlink:href="#ArialMT-2e" x="55.615234"/>
       <use xlink:href="#ArialMT-32" x="83.398438"/>
      </g>
     </g>
    </g>
    <g id="ytick_3">
     <g id="line2d_10">
      <g>
       <use xlink:href="#medd0be9360" x="54" y="163.047277" style="fill: #262626; stroke: #262626; stroke-width: 1.25"/>
      </g>
     </g>
     <g id="text_11">
      <!-- 0.4 -->
      <g style="fill: #262626" transform="translate(29.21 166.984074)scale(0.11 -0.11)">
       <defs>
        <path id="ArialMT-34" d="M 2069 0 
L 2069 1097 
L 81 1097 
L 81 1613 
L 2172 4581 
L 2631 4581 
L 2631 1613 
L 3250 1613 
L 3250 1097 
L 2631 1097 
L 2631 0 
L 2069 0 
z
M 2069 1613 
L 2069 3678 
L 634 1613 
L 2069 1613 
z
" transform="scale(0.015625)"/>
       </defs>
       <use xlink:href="#ArialMT-30"/>
       <use xlink:href="#ArialMT-2e" x="55.615234"/>
       <use xlink:href="#ArialMT-34" x="83.398438"/>
      </g>
     </g>
    </g>
    <g id="ytick_4">
     <g id="line2d_11">
      <g>
       <use xlink:href="#medd0be9360" x="54" y="123.51273" style="fill: #262626; stroke: #262626; stroke-width: 1.25"/>
      </g>
     </g>
     <g id="text_12">
      <!-- 0.6 -->
      <g style="fill: #262626" transform="translate(29.21 127.449527)scale(0.11 -0.11)">
       <defs>
        <path id="ArialMT-36" d="M 3184 3459 
L 2625 3416 
Q 2550 3747 2413 3897 
Q 2184 4138 1850 4138 
Q 1581 4138 1378 3988 
Q 1113 3794 959 3422 
Q 806 3050 800 2363 
Q 1003 2672 1297 2822 
Q 1591 2972 1913 2972 
Q 2475 2972 2870 2558 
Q 3266 2144 3266 1488 
Q 3266 1056 3080 686 
Q 2894 316 2569 119 
Q 2244 -78 1831 -78 
Q 1128 -78 684 439 
Q 241 956 241 2144 
Q 241 3472 731 4075 
Q 1159 4600 1884 4600 
Q 2425 4600 2770 4297 
Q 3116 3994 3184 3459 
z
M 888 1484 
Q 888 1194 1011 928 
Q 1134 663 1356 523 
Q 1578 384 1822 384 
Q 2178 384 2434 671 
Q 2691 959 2691 1453 
Q 2691 1928 2437 2201 
Q 2184 2475 1800 2475 
Q 1419 2475 1153 2201 
Q 888 1928 888 1484 
z
" transform="scale(0.015625)"/>
       </defs>
       <use xlink:href="#ArialMT-30"/>
       <use xlink:href="#ArialMT-2e" x="55.615234"/>
       <use xlink:href="#ArialMT-36" x="83.398438"/>
      </g>
     </g>
    </g>
    <g id="ytick_5">
     <g id="line2d_12">
      <g>
       <use xlink:href="#medd0be9360" x="54" y="83.978183" style="fill: #262626; stroke: #262626; stroke-width: 1.25"/>
      </g>
     </g>
     <g id="text_13">
      <!-- 0.8 -->
      <g style="fill: #262626" transform="translate(29.21 87.91498)scale(0.11 -0.11)">
       <defs>
        <path id="ArialMT-38" d="M 1131 2484 
Q 781 2613 612 2850 
Q 444 3088 444 3419 
Q 444 3919 803 4259 
Q 1163 4600 1759 4600 
Q 2359 4600 2725 4251 
Q 3091 3903 3091 3403 
Q 3091 3084 2923 2848 
Q 2756 2613 2416 2484 
Q 2838 2347 3058 2040 
Q 3278 1734 3278 1309 
Q 3278 722 2862 322 
Q 2447 -78 1769 -78 
Q 1091 -78 675 323 
Q 259 725 259 1325 
Q 259 1772 486 2073 
Q 713 2375 1131 2484 
z
M 1019 3438 
Q 1019 3113 1228 2906 
Q 1438 2700 1772 2700 
Q 2097 2700 2305 2904 
Q 2513 3109 2513 3406 
Q 2513 3716 2298 3927 
Q 2084 4138 1766 4138 
Q 1444 4138 1231 3931 
Q 1019 3725 1019 3438 
z
M 838 1322 
Q 838 1081 952 856 
Q 1066 631 1291 507 
Q 1516 384 1775 384 
Q 2178 384 2440 643 
Q 2703 903 2703 1303 
Q 2703 1709 2433 1975 
Q 2163 2241 1756 2241 
Q 1359 2241 1098 1978 
Q 838 1716 838 1322 
z
" transform="scale(0.015625)"/>
       </defs>
       <use xlink:href="#ArialMT-30"/>
       <use xlink:href="#ArialMT-2e" x="55.615234"/>
       <use xlink:href="#ArialMT-38" x="83.398438"/>
      </g>
     </g>
    </g>
    <g id="ytick_6">
     <g id="line2d_13">
      <g>
       <use xlink:href="#medd0be9360" x="54" y="44.443636" style="fill: #262626; stroke: #262626; stroke-width: 1.25"/>
      </g>
     </g>
     <g id="text_14">
      <!-- 1.0 -->
      <g style="fill: #262626" transform="translate(29.21 48.380433)scale(0.11 -0.11)">
       <use xlink:href="#ArialMT-31"/>
       <use xlink:href="#ArialMT-2e" x="55.615234"/>
       <use xlink:href="#ArialMT-30" x="83.398438"/>
      </g>
     </g>
    </g>
   </g>
   <g id="line2d_14">
    <path d="M 54 241.989419 
L 90.590164 241.889364 
L 94.946136 241.672092 
L 97.559719 240.686127 
L 98.430913 240.811921 
L 100.173302 239.006033 
L 101.044496 236.8926 
L 101.915691 237.774425 
L 102.786885 237.850522 
L 103.65808 235.700202 
L 104.529274 223.268988 
L 105.400468 219.155299 
L 106.271663 169.330955 
L 107.142857 144.929341 
L 108.014052 124.78668 
L 108.885246 93.670046 
L 109.75644 147.277828 
L 110.627635 82.008024 
L 111.498829 64.236102 
L 112.370023 144.347293 
L 113.241218 165.787831 
L 114.112412 154.432601 
L 114.983607 128.187056 
L 115.854801 129.268154 
L 116.725995 142.357111 
L 117.59719 121.197901 
L 118.468384 78.783132 
L 119.339578 100.492216 
L 120.210773 180.417137 
L 121.081967 202.79988 
L 121.953162 142.220984 
L 124.566745 203.811347 
L 125.437939 207.208708 
L 126.309133 196.526167 
L 127.180328 210.220564 
L 128.051522 233.642006 
L 128.922717 235.791866 
L 129.793911 197.38359 
L 130.665105 179.664426 
L 131.5363 170.147751 
L 132.407494 190.023037 
L 133.278689 168.355762 
L 135.021077 44.443636 
L 135.892272 135.711058 
L 136.763466 112.105901 
L 137.63466 66.952204 
L 138.505855 59.945803 
L 140.248244 144.351903 
L 141.119438 77.157876 
L 141.990632 48.203482 
L 142.861827 145.056814 
L 143.733021 186.808059 
L 144.604215 163.145906 
L 145.47541 131.571823 
L 146.346604 142.428726 
L 147.217799 199.17685 
L 148.088993 204.421451 
L 148.960187 171.691921 
L 149.831382 175.983153 
L 151.57377 219.397475 
L 152.444965 215.485189 
L 153.316159 189.612926 
L 154.187354 216.028733 
L 155.058548 234.833799 
L 155.929742 230.581473 
L 156.800937 210.9521 
L 157.672131 213.734948 
L 158.543326 234.374104 
L 159.41452 241.837222 
L 160.285714 235.285361 
L 161.156909 219.251546 
L 162.028103 232.298671 
L 162.899297 241.907181 
L 163.770492 241.341156 
L 164.641686 236.648203 
L 165.512881 226.118287 
L 166.384075 237.760956 
L 167.255269 242.067199 
L 168.126464 239.326726 
L 168.997658 235.079773 
L 169.868852 231.739739 
L 170.740047 237.784426 
L 171.611241 241.222851 
L 172.482436 237.965289 
L 174.224824 238.98418 
L 175.096019 240.740511 
L 175.967213 241.945764 
L 176.838407 237.154396 
L 177.709602 236.426718 
L 178.580796 241.942149 
L 179.451991 239.971012 
L 180.323185 239.781486 
L 181.194379 241.004538 
L 182.065574 239.064957 
L 182.936768 240.154675 
L 183.807963 236.203817 
L 184.679157 236.197546 
L 185.550351 241.022476 
L 186.421546 237.835762 
L 187.29274 239.552612 
L 188.163934 240.051163 
L 189.035129 236.584335 
L 189.906323 241.83803 
L 190.777518 238.14311 
L 191.648712 238.120582 
L 192.519906 239.638371 
L 193.391101 235.348337 
L 194.262295 241.597427 
L 195.133489 238.088717 
L 196.004684 233.635192 
L 196.875878 239.419435 
L 197.747073 241.413099 
L 198.618267 239.391531 
L 199.489461 241.359625 
L 200.360656 239.726797 
L 201.23185 241.339226 
L 202.103044 241.953044 
L 202.974239 241.398067 
L 203.845433 239.741085 
L 204.716628 236.377278 
L 205.587822 239.879866 
L 206.459016 239.915222 
L 207.330211 237.801155 
L 208.201405 241.214944 
L 209.0726 241.632141 
L 209.943794 239.782644 
L 210.814988 241.774595 
L 211.686183 239.819872 
L 212.557377 240.862072 
L 213.428571 241.081251 
L 214.299766 241.097126 
L 215.17096 242.116203 
L 216.042155 239.021813 
L 216.913349 236.874269 
L 217.784543 241.172513 
L 218.655738 241.724944 
L 219.526932 241.201021 
L 220.398126 241.065321 
L 221.269321 239.317712 
L 222.140515 240.979909 
L 223.01171 240.694407 
L 223.882904 240.269604 
L 224.754098 240.765075 
L 225.625293 237.867601 
L 226.496487 241.008144 
L 227.367681 240.266381 
L 228.238876 239.230597 
L 229.11007 241.045065 
L 229.981265 241.643089 
L 230.852459 241.95001 
L 231.723653 241.233049 
L 232.594848 240.075989 
L 233.466042 241.721787 
L 234.337237 241.388417 
L 235.208431 241.694132 
L 236.079625 241.542891 
L 236.95082 239.247818 
L 237.822014 240.499271 
L 238.693208 241.964482 
L 239.564403 240.79522 
L 240.435597 241.529894 
L 241.306792 240.136116 
L 242.177986 239.632907 
L 243.04918 241.708753 
L 243.920375 238.457183 
L 244.791569 241.513846 
L 245.662763 241.99515 
L 246.533958 240.808456 
L 247.405152 241.634118 
L 248.276347 240.312836 
L 249.147541 237.348831 
L 250.018735 240.248164 
L 250.88993 242.064614 
L 251.761124 241.406934 
L 252.632319 241.112842 
L 253.503513 240.523303 
L 254.374707 241.48168 
L 255.245902 241.983155 
L 256.117096 241.784719 
L 256.98829 241.999961 
L 257.859485 240.643313 
L 258.730679 241.246565 
L 259.601874 241.370357 
L 260.473068 241.121606 
L 261.344262 241.956681 
L 262.215457 241.88136 
L 263.086651 241.986691 
L 263.957845 241.711625 
L 264.82904 240.775137 
L 265.700234 241.767609 
L 267.442623 241.812755 
L 268.313817 241.561014 
L 269.185012 240.290485 
L 270.056206 240.837556 
L 270.9274 241.882798 
L 271.798595 241.348728 
L 272.669789 241.887245 
L 273.540984 241.433687 
L 274.412178 240.466643 
L 275.283372 241.656433 
L 276.154567 241.924911 
L 277.025761 241.866884 
L 278.76815 241.303043 
L 279.639344 241.854075 
L 280.510539 241.452447 
L 281.381733 240.489296 
L 282.252927 241.154593 
L 283.124122 241.967602 
L 285.737705 241.84891 
L 286.608899 241.915475 
L 287.480094 241.783633 
L 288.351288 242.07255 
L 289.222482 241.739668 
L 290.964871 241.819887 
L 291.836066 242.063142 
L 292.70726 241.740046 
L 294.449649 242.001905 
L 295.320843 241.796047 
L 296.192037 242.092103 
L 297.063232 241.534713 
L 297.934426 241.586098 
L 298.805621 241.326136 
L 299.676815 241.944877 
L 300.548009 242.047259 
L 301.419204 241.862176 
L 302.290398 241.525838 
L 303.161593 241.96689 
L 304.032787 242.086812 
L 304.903981 241.986346 
L 306.64637 242.100993 
L 307.517564 241.781017 
L 308.388759 242.066889 
L 309.259953 242.010197 
L 310.131148 241.79002 
L 311.873536 242.085122 
L 315.358314 241.922999 
L 317.100703 242.114153 
L 318.843091 241.865121 
L 319.714286 242.079204 
L 320.58548 242.11471 
L 321.456674 241.981699 
L 323.199063 242.082004 
L 324.070258 241.998071 
L 324.941452 242.090123 
L 326.683841 242.081639 
L 330.168618 242.087256 
L 335.395785 242.100425 
L 344.107728 242.109935 
L 356.30445 242.107125 
L 378.084309 242.103817 
L 387.667447 242.102424 
L 389.409836 242.109451 
L 389.409836 242.109451 
" clip-path="url(#pb25a08589f)" style="fill: none; stroke: #4c72b0; stroke-opacity: 0.3; stroke-width: 1.5; stroke-linecap: round"/>
   </g>
   <g id="line2d_15">
    <path d="M 54 240.191055 
L 72.295082 240.081566 
L 85.362998 239.821805 
L 92.332553 239.609804 
L 93.203747 239.60801 
L 94.074941 239.368582 
L 94.946136 239.42189 
L 95.81733 239.335333 
L 96.688525 239.42347 
L 97.559719 239.308935 
L 98.430913 238.472547 
L 99.302108 237.38189 
L 100.173302 237.732162 
L 101.044496 240.306431 
L 101.915691 240.324076 
L 102.786885 241.251154 
L 103.65808 241.846037 
L 104.529274 235.962716 
L 105.400468 235.861885 
L 106.271663 236.967248 
L 107.142857 230.28509 
L 108.014052 186.001611 
L 108.885246 161.863705 
L 109.75644 203.52394 
L 110.627635 181.750438 
L 111.498829 77.166698 
L 112.370023 81.223598 
L 113.241218 194.681475 
L 114.112412 239.524481 
L 114.983607 183.827496 
L 115.854801 112.598657 
L 116.725995 113.413595 
L 117.59719 216.576941 
L 118.468384 193.185558 
L 119.339578 107.662213 
L 120.210773 90.912444 
L 121.081967 138.804839 
L 121.953162 209.448697 
L 122.824356 165.750007 
L 123.69555 131.661633 
L 124.566745 137.459142 
L 125.437939 204.27874 
L 126.309133 223.165402 
L 127.180328 84.964494 
L 128.051522 44.443636 
L 128.922717 106.397041 
L 129.793911 198.722739 
L 130.665105 163.593551 
L 131.5363 61.644431 
L 132.407494 67.369475 
L 133.278689 169.703601 
L 134.149883 194.04416 
L 135.021077 58.571774 
L 135.892272 72.604248 
L 136.763466 188.389498 
L 137.63466 229.213261 
L 138.505855 167.229345 
L 139.377049 133.7083 
L 140.248244 152.427755 
L 141.119438 221.087877 
L 141.990632 227.611918 
L 142.861827 167.940517 
L 143.733021 141.66756 
L 144.604215 195.538409 
L 145.47541 228.743589 
L 146.346604 230.104867 
L 147.217799 148.000685 
L 148.088993 133.007735 
L 148.960187 189.316463 
L 149.831382 234.480876 
L 150.702576 191.845147 
L 151.57377 134.261091 
L 152.444965 141.873397 
L 153.316159 233.919586 
L 154.187354 228.145208 
L 155.058548 190.093407 
L 155.929742 142.799108 
L 157.672131 236.763205 
L 158.543326 208.441627 
L 159.41452 199.989857 
L 160.285714 219.49106 
L 161.156909 220.676895 
L 162.028103 240.198125 
L 162.899297 200.060192 
L 163.770492 202.025141 
L 164.641686 225.880118 
L 165.512881 238.889954 
L 166.384075 241.817734 
L 167.255269 224.543962 
L 168.126464 192.07925 
L 168.997658 210.176621 
L 169.868852 241.456875 
L 170.740047 233.14026 
L 171.611241 205.434623 
L 172.482436 199.912716 
L 174.224824 240.553732 
L 175.967213 199.77236 
L 176.838407 200.337403 
L 177.709602 226.104792 
L 178.580796 236.816986 
L 179.451991 211.587645 
L 180.323185 208.442876 
L 181.194379 231.62732 
L 182.065574 236.216532 
L 182.936768 239.298937 
L 183.807963 204.387896 
L 184.679157 203.121619 
L 185.550351 226.176012 
L 186.421546 238.658127 
L 187.29274 238.608388 
L 188.163934 205.430597 
L 189.035129 183.507279 
L 189.906323 239.201725 
L 191.648712 225.343475 
L 192.519906 218.532047 
L 193.391101 210.596813 
L 194.262295 232.66693 
L 195.133489 225.366743 
L 196.004684 202.182744 
L 196.875878 227.676346 
L 197.747073 230.926687 
L 198.618267 239.266627 
L 199.489461 231.884732 
L 200.360656 208.921364 
L 201.23185 230.911359 
L 202.103044 239.43531 
L 202.974239 236.718055 
L 203.845433 234.432235 
L 204.716628 201.564561 
L 206.459016 241.897576 
L 207.330211 235.505099 
L 208.201405 238.246122 
L 209.0726 229.677174 
L 209.943794 224.769335 
L 210.814988 240.996742 
L 211.686183 239.099907 
L 212.557377 235.946459 
L 213.428571 224.285854 
L 214.299766 231.491549 
L 215.17096 239.930111 
L 216.042155 226.190534 
L 216.913349 225.132456 
L 217.784543 236.104735 
L 218.655738 237.576979 
L 219.526932 241.880544 
L 220.398126 228.75139 
L 221.269321 223.14251 
L 222.140515 238.719425 
L 223.01171 234.294427 
L 223.882904 238.557627 
L 224.754098 236.222078 
L 225.625293 206.956708 
L 227.367681 238.983808 
L 228.238876 233.863199 
L 229.11007 240.062415 
L 229.981265 236.260798 
L 230.852459 233.231981 
L 231.723653 240.805425 
L 232.594848 231.541929 
L 233.466042 233.336336 
L 234.337237 239.8234 
L 235.208431 241.470779 
L 236.079625 240.105393 
L 236.95082 232.039074 
L 237.822014 235.774722 
L 238.693208 240.830361 
L 239.564403 239.66156 
L 240.435597 241.042093 
L 241.306792 232.064881 
L 243.04918 241.047423 
L 243.920375 237.978662 
L 244.791569 241.609575 
L 245.662763 236.669115 
L 246.533958 225.122787 
L 247.405152 239.619961 
L 248.276347 238.46057 
L 249.147541 230.953631 
L 250.018735 238.714984 
L 250.88993 237.110303 
L 251.761124 236.65304 
L 252.632319 240.849979 
L 253.503513 235.908139 
L 254.374707 238.461755 
L 255.245902 235.210604 
L 256.117096 239.078495 
L 256.98829 241.719599 
L 257.859485 235.227933 
L 259.601874 241.967701 
L 261.344262 241.263937 
L 262.215457 236.382454 
L 263.086651 237.494171 
L 263.957845 241.000693 
L 264.82904 237.6835 
L 265.700234 241.547723 
L 266.571429 240.237966 
L 267.442623 236.743907 
L 268.313817 242.100195 
L 269.185012 238.688886 
L 270.056206 235.856797 
L 270.9274 239.425952 
L 271.798595 240.769856 
L 272.669789 240.916584 
L 273.540984 240.385525 
L 274.412178 238.740034 
L 275.283372 239.288478 
L 276.154567 240.758127 
L 277.025761 241.050752 
L 277.896956 237.168147 
L 278.76815 237.81617 
L 279.639344 241.93543 
L 280.510539 239.41698 
L 281.381733 239.533492 
L 282.252927 241.61205 
L 283.124122 240.057858 
L 283.995316 241.67987 
L 284.866511 240.818872 
L 285.737705 239.579212 
L 286.608899 241.937531 
L 287.480094 240.78467 
L 288.351288 239.401719 
L 289.222482 242.019671 
L 290.093677 241.974319 
L 290.964871 241.23926 
L 291.836066 241.981333 
L 292.70726 240.816218 
L 293.578454 241.729384 
L 294.449649 242.00854 
L 295.320843 240.926982 
L 296.192037 241.414067 
L 297.063232 240.805645 
L 297.934426 240.700912 
L 298.805621 241.20881 
L 299.676815 241.343452 
L 300.548009 239.648526 
L 301.419204 240.433746 
L 302.290398 241.747982 
L 303.161593 242.113166 
L 304.903981 241.106352 
L 306.64637 241.912715 
L 307.517564 241.786099 
L 308.388759 240.912346 
L 309.259953 240.833028 
L 310.131148 241.790649 
L 311.002342 241.982135 
L 311.873536 241.206059 
L 312.744731 241.152435 
L 314.487119 242.054902 
L 315.358314 242.004535 
L 316.229508 241.427701 
L 317.100703 241.509927 
L 317.971897 241.899808 
L 318.843091 242.066629 
L 320.58548 241.999202 
L 321.456674 241.112298 
L 322.327869 241.698983 
L 323.199063 241.841587 
L 324.941452 241.803145 
L 326.683841 242.103302 
L 328.42623 242.06274 
L 330.168618 241.47351 
L 331.911007 241.54778 
L 332.782201 241.591805 
L 334.52459 242.08119 
L 335.395785 241.856926 
L 336.266979 241.807166 
L 337.138173 241.532352 
L 338.009368 241.084989 
L 339.751756 241.941895 
L 340.622951 242.104346 
L 341.494145 242.031833 
L 342.36534 241.623265 
L 344.978923 241.915069 
L 346.721311 241.769165 
L 348.4637 241.99492 
L 350.206089 241.860182 
L 351.948478 241.974666 
L 354.562061 241.894702 
L 356.30445 242.069775 
L 358.046838 241.865123 
L 358.918033 241.804484 
L 359.789227 242.036361 
L 361.531616 242.074995 
L 364.145199 241.935624 
L 365.887588 242.059477 
L 368.501171 241.974468 
L 371.114754 242.02636 
L 389.409836 242.050539 
L 389.409836 242.050539 
" clip-path="url(#pb25a08589f)" style="fill: none; stroke: #dd8452; stroke-opacity: 0.3; stroke-width: 1.5; stroke-linecap: round"/>
   </g>
   <g id="line2d_16">
    <path d="M 54 240.655285 
L 74.908665 240.541642 
L 89.71897 240.280065 
L 94.074941 240.020225 
L 94.946136 239.853622 
L 96.688525 239.156841 
L 97.559719 239.326404 
L 98.430913 239.953195 
L 99.302108 238.413123 
L 100.173302 236.26816 
L 101.044496 235.109722 
L 101.915691 234.72046 
L 102.786885 234.754982 
L 103.65808 228.641051 
L 104.529274 217.435115 
L 105.400468 231.504254 
L 106.271663 223.049418 
L 107.142857 219.692052 
L 108.014052 195.410632 
L 108.885246 228.953813 
L 109.75644 225.590643 
L 110.627635 204.632678 
L 111.498829 173.637981 
L 112.370023 221.263928 
L 113.241218 241.250538 
L 114.112412 226.09579 
L 114.983607 171.66643 
L 115.854801 127.515929 
L 116.725995 165.669542 
L 117.59719 239.407881 
L 119.339578 44.443636 
L 120.210773 173.113463 
L 121.081967 169.875168 
L 121.953162 198.572933 
L 122.824356 162.70183 
L 123.69555 161.325126 
L 124.566745 189.887603 
L 125.437939 239.470055 
L 126.309133 217.220462 
L 127.180328 160.723268 
L 128.051522 219.370372 
L 128.922717 221.985178 
L 129.793911 208.174684 
L 130.665105 209.578326 
L 131.5363 231.546522 
L 132.407494 233.771672 
L 133.278689 231.757456 
L 134.149883 235.654621 
L 135.021077 201.446743 
L 135.892272 190.560326 
L 136.763466 226.05968 
L 137.63466 229.677114 
L 138.505855 218.927623 
L 139.377049 213.566158 
L 140.248244 177.416104 
L 141.119438 224.838924 
L 141.990632 236.246077 
L 142.861827 210.149724 
L 143.733021 208.640619 
L 144.604215 236.56595 
L 145.47541 232.563817 
L 146.346604 234.444398 
L 147.217799 191.612513 
L 148.088993 200.82505 
L 148.960187 229.148024 
L 149.831382 228.812499 
L 150.702576 223.60137 
L 151.57377 225.844041 
L 152.444965 220.603234 
L 153.316159 237.486978 
L 154.187354 232.714883 
L 155.058548 229.914447 
L 155.929742 192.360512 
L 156.800937 189.509684 
L 157.672131 238.887627 
L 158.543326 224.363493 
L 159.41452 218.66579 
L 160.285714 223.772584 
L 161.156909 198.238688 
L 162.028103 238.431389 
L 162.899297 199.975824 
L 164.641686 237.189639 
L 165.512881 239.638256 
L 166.384075 239.282596 
L 167.255269 225.320349 
L 168.126464 215.63801 
L 168.997658 232.386206 
L 169.868852 241.498934 
L 170.740047 240.329731 
L 171.611241 230.409274 
L 173.35363 233.600572 
L 174.224824 238.871792 
L 175.096019 233.499905 
L 175.967213 218.152293 
L 176.838407 215.255837 
L 177.709602 230.891985 
L 178.580796 237.814813 
L 179.451991 231.439016 
L 180.323185 218.232821 
L 181.194379 238.075168 
L 182.065574 238.766874 
L 182.936768 235.666185 
L 183.807963 223.547884 
L 184.679157 207.964302 
L 185.550351 214.736073 
L 186.421546 238.836053 
L 187.29274 240.539752 
L 188.163934 211.593418 
L 189.035129 193.349823 
L 189.906323 242.089764 
L 190.777518 235.44057 
L 191.648712 235.558189 
L 192.519906 216.084606 
L 193.391101 210.784932 
L 194.262295 229.505771 
L 195.133489 225.998862 
L 196.004684 206.48067 
L 196.875878 232.824683 
L 197.747073 237.271392 
L 198.618267 239.4128 
L 199.489461 233.763934 
L 200.360656 219.231406 
L 201.23185 235.939745 
L 202.103044 242.093846 
L 202.974239 237.522958 
L 203.845433 231.36691 
L 204.716628 200.659068 
L 205.587822 228.623221 
L 206.459016 240.275515 
L 207.330211 232.471659 
L 208.201405 238.686216 
L 209.0726 238.953295 
L 209.943794 231.096917 
L 210.814988 239.00704 
L 212.557377 239.519883 
L 213.428571 228.980478 
L 214.299766 237.934148 
L 215.17096 235.569659 
L 216.042155 231.810489 
L 216.913349 226.420786 
L 217.784543 230.586191 
L 218.655738 240.324923 
L 219.526932 236.416012 
L 221.269321 235.708171 
L 222.140515 237.913236 
L 223.01171 232.47673 
L 223.882904 238.087828 
L 224.754098 240.924801 
L 225.625293 214.421204 
L 226.496487 223.518788 
L 227.367681 230.546512 
L 228.238876 233.492321 
L 229.11007 235.19044 
L 229.981265 235.49056 
L 230.852459 236.909632 
L 231.723653 235.868246 
L 232.594848 224.7671 
L 233.466042 232.13931 
L 234.337237 241.025671 
L 235.208431 240.83988 
L 236.079625 239.714563 
L 236.95082 230.167656 
L 238.693208 238.135376 
L 239.564403 240.756804 
L 240.435597 241.369289 
L 241.306792 240.850645 
L 242.177986 240.46144 
L 243.04918 238.598538 
L 243.920375 240.783736 
L 244.791569 241.773713 
L 245.662763 241.297496 
L 246.533958 233.471407 
L 247.405152 240.401959 
L 248.276347 240.926727 
L 249.147541 234.880079 
L 250.018735 238.54061 
L 250.88993 239.121728 
L 251.761124 239.26768 
L 252.632319 240.960705 
L 253.503513 235.677428 
L 254.374707 238.629067 
L 255.245902 236.09869 
L 256.117096 226.660659 
L 256.98829 240.626861 
L 257.859485 237.85534 
L 258.730679 234.093345 
L 259.601874 241.026003 
L 260.473068 241.909367 
L 261.344262 241.337001 
L 262.215457 239.512742 
L 263.086651 236.503986 
L 263.957845 239.938865 
L 264.82904 239.06292 
L 265.700234 242.002984 
L 266.571429 241.082239 
L 267.442623 234.488825 
L 268.313817 241.50846 
L 269.185012 239.713948 
L 270.056206 235.195392 
L 270.9274 237.305758 
L 271.798595 241.597716 
L 272.669789 240.422636 
L 273.540984 240.108259 
L 274.412178 235.887206 
L 275.283372 233.973268 
L 276.154567 240.231063 
L 277.025761 238.964216 
L 277.896956 236.878209 
L 278.76815 240.362746 
L 279.639344 238.981759 
L 280.510539 238.271219 
L 281.381733 234.715763 
L 283.124122 242.083 
L 283.995316 238.922793 
L 284.866511 239.200034 
L 285.737705 239.230827 
L 286.608899 242.086215 
L 287.480094 240.626006 
L 288.351288 238.181409 
L 289.222482 241.571625 
L 290.093677 241.877436 
L 290.964871 241.802148 
L 291.836066 241.3877 
L 292.70726 241.201595 
L 293.578454 241.93638 
L 294.449649 241.604587 
L 295.320843 240.609526 
L 296.192037 241.892579 
L 297.063232 235.011518 
L 298.805621 240.503278 
L 299.676815 239.237454 
L 300.548009 237.011731 
L 301.419204 239.140429 
L 302.290398 241.683413 
L 304.032787 240.926379 
L 304.903981 239.120683 
L 305.775176 241.397078 
L 306.64637 238.526746 
L 307.517564 241.187479 
L 308.388759 239.523245 
L 309.259953 240.961683 
L 310.131148 241.55426 
L 311.002342 241.704383 
L 311.873536 239.143073 
L 312.744731 239.439968 
L 313.615925 240.986495 
L 314.487119 241.955997 
L 315.358314 240.996503 
L 316.229508 241.224845 
L 317.100703 241.799704 
L 317.971897 242.032678 
L 318.843091 241.692888 
L 320.58548 241.784339 
L 321.456674 241.213123 
L 322.327869 241.302165 
L 323.199063 240.071891 
L 324.070258 239.669301 
L 324.941452 240.777599 
L 325.812646 241.452533 
L 326.683841 240.67114 
L 327.555035 241.275916 
L 328.42623 242.047535 
L 329.297424 240.874798 
L 330.168618 241.627442 
L 331.039813 241.231364 
L 331.911007 241.439332 
L 332.782201 241.834973 
L 333.653396 242.107879 
L 335.395785 241.922721 
L 337.138173 241.463564 
L 338.880562 241.361393 
L 340.622951 242.087908 
L 341.494145 242.091824 
L 342.36534 241.909557 
L 343.236534 242.008817 
L 346.721311 241.797963 
L 347.592506 242.04459 
L 349.334895 241.672952 
L 350.206089 241.718215 
L 351.077283 242.10943 
L 355.433255 241.927533 
L 356.30445 242.115971 
L 359.789227 242.112137 
L 362.40281 242.016538 
L 363.274005 241.914742 
L 365.016393 242.018217 
L 365.887588 242.097815 
L 368.501171 242.041448 
L 373.728337 242.095114 
L 375.470726 242.055032 
L 378.084309 242.090033 
L 379.826698 242.031908 
L 381.569087 242.100698 
L 389.409836 242.077931 
L 389.409836 242.077931 
" clip-path="url(#pb25a08589f)" style="fill: none; stroke: #55a868; stroke-opacity: 0.3; stroke-width: 1.5; stroke-linecap: round"/>
   </g>
   <g id="line2d_17">
    <path d="M 54 242.078702 
L 96.688525 241.99643 
L 97.559719 241.875198 
L 98.430913 241.949412 
L 100.173302 241.596698 
L 101.044496 240.732535 
L 101.915691 241.011541 
L 102.786885 241.049602 
L 103.65808 240.590198 
L 104.529274 236.169137 
L 105.400468 230.672926 
L 106.271663 203.88663 
L 107.142857 195.865244 
L 108.014052 181.699456 
L 108.885246 133.436791 
L 109.75644 173.960501 
L 110.627635 157.616284 
L 111.498829 167.793139 
L 112.370023 172.202045 
L 113.241218 163.688801 
L 114.112412 179.696137 
L 114.983607 171.866517 
L 115.854801 142.372174 
L 116.725995 137.105454 
L 117.59719 136.018447 
L 118.468384 159.684782 
L 119.339578 136.665451 
L 121.081967 179.881935 
L 121.953162 174.021277 
L 122.824356 161.149227 
L 123.69555 142.193489 
L 124.566745 161.064107 
L 125.437939 208.420496 
L 126.309133 213.164652 
L 127.180328 203.683127 
L 128.051522 212.784313 
L 128.922717 214.004982 
L 129.793911 212.705089 
L 130.665105 218.603546 
L 131.5363 200.736807 
L 132.407494 178.694867 
L 133.278689 145.81162 
L 134.149883 130.308991 
L 135.892272 87.053629 
L 136.763466 61.274582 
L 137.63466 44.443636 
L 138.505855 76.600469 
L 139.377049 67.351304 
L 140.248244 87.15355 
L 141.119438 56.240691 
L 142.861827 110.876659 
L 143.733021 121.003544 
L 144.604215 121.254315 
L 145.47541 126.29504 
L 146.346604 136.56099 
L 147.217799 145.099273 
L 148.088993 141.272815 
L 148.960187 145.512793 
L 149.831382 156.981718 
L 150.702576 158.970178 
L 151.57377 173.562844 
L 152.444965 172.22763 
L 153.316159 182.336978 
L 154.187354 195.840713 
L 155.058548 202.886362 
L 155.929742 204.384551 
L 156.800937 211.497526 
L 157.672131 204.150756 
L 158.543326 219.616859 
L 160.285714 226.023006 
L 161.156909 219.378062 
L 162.028103 223.669877 
L 162.899297 233.032416 
L 163.770492 232.456273 
L 164.641686 231.202513 
L 165.512881 229.501323 
L 166.384075 235.906068 
L 167.255269 237.807403 
L 168.126464 237.902367 
L 168.997658 231.748512 
L 169.868852 229.002703 
L 171.611241 237.600205 
L 172.482436 240.062332 
L 173.35363 241.56317 
L 174.224824 240.693517 
L 175.096019 239.130028 
L 175.967213 238.520001 
L 176.838407 240.159637 
L 177.709602 241.167301 
L 179.451991 242.10626 
L 180.323185 241.910996 
L 181.194379 240.605824 
L 182.065574 241.156364 
L 182.936768 241.3 
L 183.807963 241.191537 
L 184.679157 241.778042 
L 185.550351 241.715302 
L 187.29274 240.785147 
L 188.163934 240.523655 
L 189.035129 240.977997 
L 189.906323 241.788235 
L 190.777518 241.353345 
L 191.648712 241.106243 
L 192.519906 241.534772 
L 193.391101 239.571005 
L 194.262295 240.834725 
L 195.133489 240.498395 
L 196.004684 241.488832 
L 196.875878 241.833026 
L 197.747073 241.951328 
L 198.618267 240.96496 
L 199.489461 240.681629 
L 200.360656 241.196319 
L 201.23185 241.58059 
L 202.103044 242.106287 
L 202.974239 241.071376 
L 204.716628 241.21256 
L 205.587822 240.423678 
L 206.459016 241.907203 
L 208.201405 242.087513 
L 209.0726 241.783183 
L 210.814988 240.177934 
L 211.686183 241.129796 
L 212.557377 241.653238 
L 214.299766 241.891826 
L 215.17096 241.036468 
L 216.042155 240.743343 
L 216.913349 239.347353 
L 217.784543 241.196388 
L 218.655738 242.070568 
L 219.526932 241.219342 
L 220.398126 239.627346 
L 221.269321 239.468912 
L 222.140515 239.55044 
L 223.01171 241.680544 
L 223.882904 240.807957 
L 224.754098 239.604772 
L 225.625293 238.642255 
L 226.496487 239.942324 
L 227.367681 240.618798 
L 228.238876 241.551049 
L 229.11007 241.132222 
L 229.981265 240.129113 
L 230.852459 241.018379 
L 231.723653 240.742281 
L 232.594848 241.125538 
L 233.466042 241.645837 
L 234.337237 241.584346 
L 235.208431 241.33651 
L 236.079625 241.405639 
L 236.95082 241.719956 
L 237.822014 241.568828 
L 238.693208 241.727715 
L 239.564403 241.654018 
L 240.435597 241.861891 
L 241.306792 240.998497 
L 242.177986 241.666442 
L 243.04918 241.907523 
L 243.920375 241.869817 
L 244.791569 240.966311 
L 245.662763 241.956922 
L 246.533958 241.246286 
L 247.405152 241.636079 
L 248.276347 241.468116 
L 249.147541 240.164916 
L 250.018735 239.599237 
L 250.88993 240.027484 
L 251.761124 241.418754 
L 252.632319 241.813846 
L 253.503513 241.590459 
L 254.374707 240.982876 
L 255.245902 241.140044 
L 256.117096 241.177629 
L 256.98829 241.682657 
L 257.859485 241.935146 
L 258.730679 241.364375 
L 259.601874 239.803046 
L 260.473068 239.687655 
L 261.344262 240.341 
L 262.215457 241.681855 
L 263.086651 241.755877 
L 263.957845 241.348381 
L 264.82904 241.356708 
L 266.571429 241.628217 
L 267.442623 241.698711 
L 268.313817 241.601204 
L 269.185012 241.774462 
L 270.056206 241.725285 
L 272.669789 241.987662 
L 275.283372 241.88008 
L 276.154567 241.42601 
L 277.025761 241.825879 
L 279.639344 242.106866 
L 280.510539 242.024006 
L 281.381733 241.462826 
L 283.124122 242.031323 
L 284.866511 242.11537 
L 285.737705 241.926943 
L 290.093677 241.95178 
L 290.964871 242.074325 
L 291.836066 241.975036 
L 292.70726 241.719327 
L 294.449649 242.042221 
L 295.320843 241.834913 
L 297.063232 241.905542 
L 298.805621 242.11604 
L 300.548009 241.668702 
L 303.161593 242.11268 
L 304.032787 242.032099 
L 304.903981 241.838183 
L 309.259953 241.92361 
L 310.131148 241.580487 
L 311.002342 241.695068 
L 311.873536 241.650395 
L 312.744731 241.956682 
L 313.615925 242.063499 
L 315.358314 241.819234 
L 317.100703 241.716136 
L 317.971897 241.914952 
L 319.714286 241.928123 
L 320.58548 241.71628 
L 322.327869 241.605356 
L 323.199063 241.970844 
L 324.941452 241.948409 
L 325.812646 241.853469 
L 329.297424 242.110291 
L 330.168618 241.95188 
L 332.782201 242.075484 
L 334.52459 242.066803 
L 337.138173 242.09505 
L 351.948478 242.008343 
L 353.690867 242.026157 
L 389.409836 242.086321 
L 389.409836 242.086321 
" clip-path="url(#pb25a08589f)" style="fill: none; stroke: #c44e52; stroke-opacity: 0.3; stroke-width: 1.5; stroke-linecap: round"/>
   </g>
   <g id="line2d_18">
    <path d="M 54 241.983822 
L 87.976581 241.884435 
L 93.203747 241.743002 
L 94.074941 241.53894 
L 94.946136 241.701531 
L 96.688525 241.737521 
L 98.430913 240.06035 
L 99.302108 239.722285 
L 100.173302 240.210717 
L 101.915691 228.463037 
L 102.786885 229.195168 
L 103.65808 227.234811 
L 104.529274 217.298689 
L 105.400468 220.699506 
L 106.271663 211.165771 
L 107.142857 197.759183 
L 108.014052 169.779198 
L 109.75644 207.289726 
L 110.627635 179.89704 
L 111.498829 179.415956 
L 112.370023 225.008841 
L 113.241218 219.166035 
L 114.112412 230.529373 
L 114.983607 226.658223 
L 115.854801 210.816333 
L 116.725995 237.602188 
L 117.59719 237.196674 
L 118.468384 241.120144 
L 119.339578 203.949239 
L 120.210773 190.023102 
L 121.953162 238.01288 
L 122.824356 227.069919 
L 123.69555 222.439094 
L 124.566745 235.681243 
L 125.437939 240.661521 
L 126.309133 238.199913 
L 127.180328 225.933956 
L 128.051522 221.227816 
L 128.922717 237.259929 
L 129.793911 207.138652 
L 130.665105 157.399521 
L 131.5363 152.932155 
L 132.407494 202.053866 
L 133.278689 155.377243 
L 134.149883 146.230529 
L 135.021077 114.434762 
L 135.892272 58.49933 
L 136.763466 44.443636 
L 137.63466 96.288161 
L 138.505855 94.500528 
L 139.377049 57.929758 
L 140.248244 97.233617 
L 141.119438 58.648676 
L 141.990632 105.847567 
L 142.861827 118.20416 
L 143.733021 149.151908 
L 144.604215 88.286009 
L 145.47541 105.88079 
L 147.217799 184.943828 
L 148.088993 152.10829 
L 148.960187 114.342745 
L 149.831382 113.952731 
L 150.702576 163.048164 
L 151.57377 205.397654 
L 152.444965 174.186713 
L 153.316159 172.431849 
L 154.187354 130.301821 
L 155.058548 191.658771 
L 155.929742 204.003719 
L 156.800937 221.189985 
L 157.672131 186.231051 
L 158.543326 187.961941 
L 159.41452 169.775418 
L 160.285714 205.396789 
L 161.156909 206.081298 
L 162.899297 195.875579 
L 163.770492 190.221571 
L 164.641686 192.749294 
L 165.512881 189.57576 
L 166.384075 213.398872 
L 167.255269 192.058361 
L 168.126464 182.674084 
L 168.997658 133.78257 
L 170.740047 165.135364 
L 171.611241 196.76894 
L 172.482436 207.648121 
L 173.35363 190.290431 
L 174.224824 176.682955 
L 175.096019 170.382148 
L 175.967213 186.297795 
L 176.838407 228.169932 
L 177.709602 228.737736 
L 178.580796 224.967508 
L 179.451991 218.134627 
L 180.323185 225.553175 
L 181.194379 237.031905 
L 182.065574 242.022516 
L 182.936768 238.047359 
L 183.807963 236.904844 
L 185.550351 226.976932 
L 186.421546 237.475822 
L 187.29274 240.224634 
L 188.163934 241.482408 
L 189.035129 240.281155 
L 189.906323 235.570279 
L 190.777518 233.532602 
L 191.648712 237.751707 
L 192.519906 239.964361 
L 194.262295 241.747343 
L 196.004684 237.165386 
L 196.875878 240.098381 
L 197.747073 238.080825 
L 198.618267 231.82673 
L 199.489461 238.490202 
L 200.360656 239.795996 
L 201.23185 235.651241 
L 202.103044 230.163938 
L 202.974239 230.303228 
L 203.845433 236.137286 
L 204.716628 238.254724 
L 205.587822 234.937239 
L 206.459016 235.574839 
L 207.330211 235.656885 
L 208.201405 233.774888 
L 209.0726 241.767218 
L 209.943794 233.923418 
L 210.814988 229.678658 
L 211.686183 231.504608 
L 212.557377 237.244104 
L 213.428571 241.894913 
L 214.299766 241.210162 
L 215.17096 234.897988 
L 216.042155 225.932858 
L 216.913349 218.96083 
L 217.784543 234.311382 
L 218.655738 240.748753 
L 219.526932 232.193023 
L 220.398126 214.268329 
L 221.269321 220.003068 
L 222.140515 220.021379 
L 223.01171 237.038886 
L 223.882904 236.034529 
L 225.625293 217.962035 
L 226.496487 218.285321 
L 227.367681 222.448849 
L 228.238876 236.917252 
L 229.11007 229.862369 
L 229.981265 213.482553 
L 230.852459 191.801555 
L 231.723653 203.9869 
L 232.594848 229.412808 
L 233.466042 236.017805 
L 234.337237 236.394634 
L 235.208431 230.041567 
L 236.079625 216.266793 
L 236.95082 216.236157 
L 237.822014 227.840614 
L 238.693208 227.583071 
L 240.435597 216.450731 
L 241.306792 210.730934 
L 242.177986 231.51493 
L 243.04918 237.766002 
L 243.920375 232.368665 
L 244.791569 210.474626 
L 245.662763 209.47643 
L 246.533958 214.015807 
L 247.405152 222.725064 
L 248.276347 229.712112 
L 249.147541 228.251041 
L 250.88993 218.57054 
L 251.761124 218.797099 
L 252.632319 230.725823 
L 253.503513 236.643406 
L 254.374707 240.295378 
L 255.245902 239.899288 
L 256.117096 225.944432 
L 256.98829 235.010387 
L 257.859485 238.899651 
L 258.730679 240.902745 
L 259.601874 231.731394 
L 260.473068 231.156038 
L 261.344262 233.731384 
L 262.215457 240.507604 
L 263.086651 242.095878 
L 263.957845 239.052348 
L 264.82904 239.644637 
L 265.700234 239.447611 
L 266.571429 238.035033 
L 267.442623 239.030914 
L 268.313817 241.714023 
L 269.185012 241.393203 
L 270.056206 240.500541 
L 270.9274 235.785604 
L 271.798595 240.072447 
L 272.669789 241.627482 
L 273.540984 242.079123 
L 274.412178 240.275251 
L 275.283372 237.823157 
L 276.154567 236.912376 
L 277.025761 236.30829 
L 277.896956 239.773472 
L 278.76815 241.643121 
L 279.639344 238.312759 
L 280.510539 237.84805 
L 281.381733 236.745443 
L 282.252927 240.600109 
L 283.124122 241.856816 
L 283.995316 241.879501 
L 284.866511 240.966167 
L 285.737705 234.550698 
L 286.608899 235.597575 
L 287.480094 235.814424 
L 288.351288 240.415429 
L 289.222482 241.162068 
L 290.093677 241.054594 
L 290.964871 229.277409 
L 291.836066 231.918324 
L 292.70726 233.311554 
L 293.578454 238.18739 
L 294.449649 237.50115 
L 295.320843 232.799062 
L 296.192037 231.128406 
L 297.063232 231.89918 
L 297.934426 236.209808 
L 298.805621 238.995839 
L 299.676815 237.31052 
L 300.548009 230.077639 
L 301.419204 230.344871 
L 302.290398 236.922434 
L 303.161593 239.391556 
L 304.032787 241.243128 
L 304.903981 237.946808 
L 305.775176 235.430864 
L 306.64637 231.641944 
L 307.517564 231.482394 
L 308.388759 237.257045 
L 309.259953 241.760117 
L 310.131148 238.344619 
L 311.002342 236.695079 
L 311.873536 235.909154 
L 313.615925 241.641215 
L 314.487119 240.677184 
L 315.358314 239.392072 
L 316.229508 236.919333 
L 317.100703 238.225255 
L 317.971897 240.416757 
L 318.843091 241.578427 
L 319.714286 241.642974 
L 320.58548 238.425465 
L 321.456674 237.633801 
L 322.327869 239.212005 
L 323.199063 241.900398 
L 324.070258 241.665783 
L 324.941452 239.858731 
L 325.812646 238.517669 
L 326.683841 238.781829 
L 327.555035 241.151214 
L 328.42623 241.960728 
L 329.297424 240.485318 
L 330.168618 237.056156 
L 331.039813 237.491189 
L 331.911007 240.241467 
L 332.782201 241.64458 
L 333.653396 241.236681 
L 334.52459 240.533218 
L 335.395785 239.177797 
L 336.266979 238.441236 
L 337.138173 239.266872 
L 338.009368 239.679411 
L 338.880562 240.846007 
L 339.751756 239.906375 
L 340.622951 239.936567 
L 341.494145 239.081563 
L 342.36534 239.827133 
L 343.236534 241.152089 
L 344.107728 241.007753 
L 344.978923 240.231948 
L 345.850117 239.838454 
L 346.721311 240.336883 
L 347.592506 241.38592 
L 348.4637 241.549916 
L 349.334895 240.998824 
L 350.206089 240.625108 
L 351.077283 240.857444 
L 352.819672 241.914049 
L 353.690867 241.93356 
L 355.433255 241.655881 
L 358.046838 242.05674 
L 360.660422 241.926393 
L 362.40281 242.081036 
L 364.145199 241.983721 
L 365.016393 241.898805 
L 366.758782 242.076321 
L 369.372365 241.813841 
L 371.114754 241.949414 
L 371.985948 241.986204 
L 373.728337 241.855886 
L 375.470726 241.85022 
L 377.213115 241.946871 
L 379.826698 241.841911 
L 383.311475 241.899236 
L 385.925059 241.940166 
L 388.538642 241.994946 
L 389.409836 242.001053 
L 389.409836 242.001053 
" clip-path="url(#pb25a08589f)" style="fill: none; stroke: #8172b3; stroke-opacity: 0.3; stroke-width: 1.5; stroke-linecap: round"/>
   </g>
   <g id="line2d_19">
    <path d="M 54 240.27016 
L 72.295082 240.156074 
L 87.105386 239.857203 
L 91.461358 239.61559 
L 92.332553 239.442658 
L 95.81733 239.192821 
L 96.688525 238.558459 
L 97.559719 238.549569 
L 98.430913 239.311432 
L 99.302108 238.283909 
L 100.173302 237.945192 
L 101.044496 235.494973 
L 101.915691 233.537918 
L 102.786885 228.672009 
L 103.65808 213.282613 
L 104.529274 211.169245 
L 105.400468 221.2537 
L 106.271663 219.349481 
L 107.142857 217.102696 
L 108.014052 210.439196 
L 108.885246 215.973514 
L 109.75644 205.588147 
L 110.627635 206.407736 
L 111.498829 237.631738 
L 112.370023 232.651482 
L 113.241218 221.1407 
L 114.112412 225.640609 
L 114.983607 135.572895 
L 115.854801 164.09059 
L 116.725995 215.506586 
L 117.59719 162.090586 
L 118.468384 212.098822 
L 119.339578 44.443636 
L 120.210773 88.577954 
L 121.081967 215.970275 
L 121.953162 194.575137 
L 122.824356 168.837456 
L 123.69555 133.056699 
L 124.566745 159.683716 
L 125.437939 136.922257 
L 126.309133 104.203091 
L 127.180328 160.51948 
L 128.051522 231.028883 
L 128.922717 232.731422 
L 129.793911 218.622978 
L 130.665105 209.092702 
L 131.5363 192.484625 
L 132.407494 235.759467 
L 133.278689 218.888732 
L 134.149883 234.070305 
L 135.021077 241.336494 
L 135.892272 216.174413 
L 136.763466 213.557307 
L 137.63466 237.519363 
L 138.505855 234.323462 
L 139.377049 168.396837 
L 140.248244 200.343838 
L 141.119438 226.028359 
L 141.990632 217.808607 
L 142.861827 233.522234 
L 143.733021 241.665635 
L 144.604215 238.855446 
L 145.47541 219.422565 
L 146.346604 217.862577 
L 147.217799 234.760834 
L 148.088993 208.827216 
L 148.960187 232.665918 
L 149.831382 231.112355 
L 150.702576 224.591608 
L 151.57377 233.801498 
L 152.444965 214.094434 
L 153.316159 218.034269 
L 154.187354 192.966928 
L 155.058548 236.627949 
L 155.929742 231.582889 
L 156.800937 219.316761 
L 157.672131 182.694615 
L 158.543326 223.455958 
L 159.41452 167.874427 
L 160.285714 195.156728 
L 161.156909 181.660865 
L 162.028103 171.391784 
L 162.899297 202.233648 
L 163.770492 207.38062 
L 164.641686 204.648275 
L 165.512881 194.483865 
L 166.384075 231.427152 
L 167.255269 186.033257 
L 168.126464 175.571942 
L 168.997658 156.916788 
L 169.868852 187.429058 
L 170.740047 225.611247 
L 171.611241 233.982095 
L 172.482436 229.681308 
L 174.224824 170.130177 
L 175.096019 189.329402 
L 175.967213 195.194562 
L 176.838407 225.719331 
L 177.709602 229.864452 
L 178.580796 239.210463 
L 179.451991 239.23804 
L 180.323185 236.007255 
L 181.194379 231.241861 
L 182.065574 240.990204 
L 182.936768 235.383936 
L 183.807963 233.198567 
L 184.679157 227.477654 
L 185.550351 202.715164 
L 186.421546 226.504929 
L 187.29274 226.353688 
L 188.163934 236.803993 
L 189.035129 237.659955 
L 189.906323 229.362142 
L 190.777518 230.037928 
L 191.648712 237.169262 
L 192.519906 238.49727 
L 193.391101 240.880364 
L 194.262295 238.108079 
L 195.133489 238.309984 
L 196.004684 238.053529 
L 196.875878 222.930331 
L 197.747073 224.641632 
L 198.618267 209.261535 
L 199.489461 240.09888 
L 201.23185 229.827286 
L 202.103044 225.843303 
L 202.974239 202.967518 
L 203.845433 226.70203 
L 204.716628 241.645325 
L 205.587822 220.589376 
L 206.459016 220.618954 
L 207.330211 233.629732 
L 208.201405 223.339925 
L 209.0726 240.853612 
L 209.943794 227.85881 
L 210.814988 236.842384 
L 211.686183 228.257428 
L 212.557377 228.839796 
L 213.428571 240.325942 
L 214.299766 236.004827 
L 216.042155 236.753902 
L 216.913349 234.22354 
L 217.784543 230.941633 
L 218.655738 213.660929 
L 219.526932 232.357146 
L 221.269321 238.119499 
L 222.140515 236.160726 
L 223.01171 231.919576 
L 223.882904 238.510704 
L 224.754098 227.53378 
L 225.625293 234.206816 
L 226.496487 238.041626 
L 227.367681 237.103024 
L 228.238876 237.831049 
L 229.11007 233.284501 
L 229.981265 223.518096 
L 230.852459 215.593706 
L 232.594848 237.686874 
L 233.466042 237.100952 
L 234.337237 238.913399 
L 235.208431 229.81053 
L 236.079625 229.436491 
L 236.95082 224.497823 
L 237.822014 229.641352 
L 238.693208 231.676321 
L 239.564403 228.819382 
L 240.435597 236.018134 
L 241.306792 218.228327 
L 242.177986 239.698626 
L 243.04918 231.588846 
L 243.920375 233.77894 
L 244.791569 216.906169 
L 245.662763 236.753017 
L 246.533958 235.642284 
L 247.405152 223.552911 
L 248.276347 215.25775 
L 249.147541 205.527918 
L 250.018735 210.883145 
L 250.88993 214.633093 
L 251.761124 232.6907 
L 252.632319 240.210993 
L 253.503513 241.84047 
L 254.374707 234.456044 
L 255.245902 241.42249 
L 256.117096 232.590049 
L 256.98829 241.698979 
L 257.859485 240.685055 
L 258.730679 235.106169 
L 259.601874 234.020446 
L 260.473068 238.89738 
L 261.344262 231.515733 
L 262.215457 239.966073 
L 263.086651 241.892349 
L 263.957845 237.742814 
L 264.82904 241.463715 
L 265.700234 240.985173 
L 266.571429 238.62062 
L 267.442623 241.122391 
L 268.313817 241.7825 
L 269.185012 241.795317 
L 270.056206 241.968835 
L 270.9274 239.884717 
L 271.798595 241.999904 
L 272.669789 241.619637 
L 273.540984 242.105145 
L 274.412178 235.390433 
L 275.283372 239.509347 
L 276.154567 236.882061 
L 277.025761 234.760484 
L 277.896956 236.847345 
L 278.76815 240.543073 
L 279.639344 240.54877 
L 280.510539 241.721145 
L 281.381733 240.883577 
L 282.252927 242.096611 
L 283.124122 239.350225 
L 283.995316 241.497718 
L 284.866511 239.497867 
L 285.737705 236.238964 
L 286.608899 237.438521 
L 287.480094 237.847431 
L 288.351288 240.997636 
L 289.222482 240.995692 
L 290.093677 240.026623 
L 290.964871 225.846999 
L 291.836066 236.391843 
L 292.70726 237.217134 
L 293.578454 240.216048 
L 294.449649 237.242992 
L 295.320843 237.771284 
L 296.192037 236.22685 
L 297.063232 235.93025 
L 297.934426 235.796899 
L 298.805621 230.947948 
L 299.676815 230.79042 
L 300.548009 230.810817 
L 301.419204 239.588414 
L 302.290398 241.596604 
L 303.161593 241.79056 
L 304.032787 240.058926 
L 304.903981 234.835362 
L 305.775176 238.488723 
L 306.64637 238.027333 
L 307.517564 238.245475 
L 308.388759 239.803181 
L 309.259953 240.979301 
L 310.131148 241.859039 
L 311.002342 241.987325 
L 311.873536 239.539119 
L 312.744731 239.667864 
L 313.615925 241.252234 
L 314.487119 241.15363 
L 315.358314 241.838826 
L 316.229508 238.111364 
L 317.100703 239.723753 
L 317.971897 237.469963 
L 318.843091 237.072926 
L 319.714286 241.617811 
L 320.58548 241.006378 
L 321.456674 240.191616 
L 322.327869 241.432225 
L 323.199063 241.393588 
L 324.070258 240.195967 
L 324.941452 241.713379 
L 326.683841 240.479616 
L 327.555035 241.970937 
L 328.42623 241.464471 
L 329.297424 239.798612 
L 330.168618 239.322744 
L 331.911007 241.612567 
L 332.782201 242.076917 
L 333.653396 241.037698 
L 334.52459 241.187207 
L 335.395785 240.341277 
L 336.266979 239.185983 
L 337.138173 239.407604 
L 338.009368 239.748121 
L 338.880562 242.000908 
L 340.622951 241.402876 
L 341.494145 238.765926 
L 342.36534 237.971393 
L 343.236534 241.151643 
L 344.107728 241.101082 
L 344.978923 241.222673 
L 345.850117 240.763645 
L 346.721311 240.631988 
L 347.592506 241.395455 
L 348.4637 241.538652 
L 350.206089 241.352548 
L 351.948478 241.780389 
L 352.819672 241.820554 
L 353.690867 241.997938 
L 355.433255 241.906707 
L 356.30445 241.793036 
L 357.175644 242.081399 
L 359.789227 242.063187 
L 364.145199 242.042954 
L 366.758782 242.054657 
L 367.629977 241.898672 
L 369.372365 241.920647 
L 370.24356 242.017484 
L 372.857143 241.775612 
L 374.599532 241.919522 
L 385.925059 241.928981 
L 388.538642 241.997874 
L 389.409836 242.024582 
L 389.409836 242.024582 
" clip-path="url(#pb25a08589f)" style="fill: none; stroke: #937860; stroke-opacity: 0.3; stroke-width: 1.5; stroke-linecap: round"/>
   </g>
   <g id="line2d_20">
    <path d="M 54 241.971845 
L 94.074941 241.887238 
L 95.81733 241.532806 
L 96.688525 241.275857 
L 97.559719 240.893647 
L 98.430913 241.009987 
L 99.302108 240.548907 
L 100.173302 239.951429 
L 101.044496 237.237614 
L 101.915691 236.540208 
L 103.65808 234.70547 
L 104.529274 225.160763 
L 105.400468 212.680557 
L 106.271663 168.928586 
L 107.142857 150.70816 
L 108.014052 143.117384 
L 108.885246 70.798485 
L 109.75644 132.193188 
L 110.627635 99.104923 
L 111.498829 122.177489 
L 112.370023 150.614041 
L 113.241218 144.356645 
L 114.112412 151.820102 
L 114.983607 163.522137 
L 115.854801 120.929581 
L 116.725995 103.453992 
L 117.59719 102.761147 
L 118.468384 131.530777 
L 119.339578 143.620171 
L 120.210773 140.519138 
L 121.081967 183.121997 
L 122.824356 189.258072 
L 123.69555 159.756168 
L 124.566745 154.064637 
L 125.437939 189.14021 
L 126.309133 211.041723 
L 127.180328 205.177522 
L 128.051522 196.742537 
L 128.922717 194.439362 
L 129.793911 184.311318 
L 130.665105 182.654655 
L 131.5363 160.963208 
L 132.407494 151.347145 
L 133.278689 120.83759 
L 134.149883 73.550521 
L 135.021077 51.787491 
L 135.892272 44.443636 
L 136.763466 80.859414 
L 137.63466 69.242304 
L 138.505855 97.267495 
L 139.377049 113.502397 
L 140.248244 107.796612 
L 141.119438 65.932031 
L 141.990632 83.515555 
L 142.861827 132.502009 
L 143.733021 163.458107 
L 144.604215 146.527562 
L 145.47541 159.992239 
L 146.346604 143.052509 
L 148.960187 175.427729 
L 149.831382 191.521698 
L 150.702576 191.43465 
L 151.57377 185.947504 
L 152.444965 195.407722 
L 153.316159 210.981757 
L 154.187354 220.592757 
L 155.058548 216.625578 
L 155.929742 220.04213 
L 156.800937 219.354741 
L 157.672131 218.018594 
L 158.543326 232.505275 
L 159.41452 234.507462 
L 160.285714 235.498868 
L 161.156909 227.090413 
L 162.028103 228.215425 
L 162.899297 230.796443 
L 163.770492 231.611723 
L 164.641686 231.39167 
L 165.512881 232.55021 
L 166.384075 237.479603 
L 167.255269 239.967627 
L 168.997658 234.173801 
L 169.868852 234.528242 
L 170.740047 237.056311 
L 171.611241 240.804546 
L 172.482436 239.974058 
L 173.35363 240.129064 
L 174.224824 238.90669 
L 175.096019 236.347397 
L 175.967213 238.065984 
L 176.838407 241.435266 
L 177.709602 241.41735 
L 179.451991 240.721647 
L 180.323185 241.944424 
L 181.194379 241.112927 
L 182.065574 241.940618 
L 182.936768 241.546575 
L 183.807963 240.562828 
L 184.679157 241.795833 
L 185.550351 242.071952 
L 186.421546 242.086936 
L 187.29274 241.815215 
L 188.163934 241.743968 
L 189.035129 242.076215 
L 189.906323 241.988881 
L 190.777518 242.034292 
L 191.648712 241.920026 
L 192.519906 241.983354 
L 193.391101 241.85143 
L 194.262295 241.836624 
L 195.133489 241.539767 
L 196.004684 242.070914 
L 197.747073 241.975032 
L 198.618267 240.954388 
L 199.489461 241.167373 
L 200.360656 241.929092 
L 201.23185 241.936089 
L 202.103044 241.238637 
L 202.974239 241.794352 
L 204.716628 242.108061 
L 205.587822 241.867817 
L 207.330211 242.050248 
L 208.201405 242.020845 
L 209.0726 241.686919 
L 210.814988 241.910234 
L 212.557377 241.930446 
L 214.299766 242.114693 
L 216.913349 242.095274 
L 218.655738 241.899642 
L 219.526932 242.103756 
L 221.269321 242.048344 
L 222.140515 241.732312 
L 223.01171 242.019757 
L 223.882904 242.043744 
L 225.625293 241.800826 
L 226.496487 242.076435 
L 228.238876 241.821207 
L 229.11007 242.081784 
L 229.981265 242.022545 
L 230.852459 241.763107 
L 231.723653 241.674134 
L 232.594848 242.106724 
L 236.95082 241.971906 
L 237.822014 241.863267 
L 238.693208 241.91478 
L 239.564403 242.099773 
L 240.435597 242.004325 
L 241.306792 241.606526 
L 242.177986 242.041716 
L 243.04918 241.856767 
L 243.920375 241.535032 
L 244.791569 241.343181 
L 245.662763 242.100185 
L 246.533958 241.782231 
L 248.276347 241.796543 
L 249.147541 241.117014 
L 250.018735 240.600413 
L 250.88993 241.576531 
L 251.761124 241.160139 
L 252.632319 241.640538 
L 254.374707 242.059586 
L 255.245902 242.085115 
L 256.117096 241.356372 
L 256.98829 241.958132 
L 257.859485 242.113598 
L 258.730679 242.025732 
L 260.473068 242.105371 
L 261.344262 241.836647 
L 262.215457 242.09271 
L 270.9274 242.023485 
L 272.669789 241.66448 
L 273.540984 241.954988 
L 274.412178 242.089897 
L 275.283372 241.982624 
L 277.025761 242.053823 
L 277.896956 241.709176 
L 278.76815 241.554422 
L 279.639344 241.684699 
L 280.510539 242.007674 
L 282.252927 241.556564 
L 283.124122 242.103257 
L 284.866511 241.977529 
L 285.737705 241.891094 
L 286.608899 242.053713 
L 288.351288 242.035879 
L 289.222482 242.067855 
L 290.964871 241.935658 
L 293.578454 241.90772 
L 294.449649 241.623083 
L 296.192037 241.89636 
L 298.805621 241.871032 
L 299.676815 242.051082 
L 300.548009 242.095281 
L 301.419204 241.99368 
L 302.290398 242.03504 
L 303.161593 241.940554 
L 304.032787 242.053725 
L 305.775176 242.008635 
L 306.64637 242.086763 
L 307.517564 241.883794 
L 308.388759 242.107119 
L 309.259953 242.034896 
L 311.002342 242.097491 
L 312.744731 241.945684 
L 313.615925 242.07014 
L 317.100703 241.9557 
L 317.971897 242.061802 
L 324.070258 242.077251 
L 327.555035 242.057388 
L 330.168618 242.083851 
L 345.850117 242.087951 
L 355.433255 242.109857 
L 367.629977 242.088449 
L 376.34192 242.093822 
L 389.409836 242.092878 
L 389.409836 242.092878 
" clip-path="url(#pb25a08589f)" style="fill: none; stroke: #da8bc3; stroke-opacity: 0.3; stroke-width: 1.5; stroke-linecap: round"/>
   </g>
   <g id="line2d_21">
    <path d="M 54 241.163211 
L 75.779859 241.048383 
L 87.105386 240.80759 
L 93.203747 240.406371 
L 94.074941 240.018486 
L 94.946136 239.99753 
L 95.81733 239.855382 
L 96.688525 239.84211 
L 97.559719 238.431782 
L 98.430913 236.096187 
L 99.302108 235.264875 
L 100.173302 236.254468 
L 101.044496 234.099318 
L 101.915691 234.003601 
L 102.786885 236.978829 
L 103.65808 240.75431 
L 104.529274 241.108378 
L 105.400468 240.182334 
L 106.271663 237.352391 
L 107.142857 193.66634 
L 108.014052 192.979317 
L 108.885246 165.954912 
L 109.75644 164.136563 
L 110.627635 74.17739 
L 111.498829 44.443636 
L 112.370023 67.801271 
L 113.241218 79.349106 
L 114.112412 117.719948 
L 114.983607 166.593583 
L 115.854801 53.655883 
L 116.725995 131.196534 
L 117.59719 133.613289 
L 118.468384 108.424687 
L 119.339578 111.528403 
L 120.210773 93.091824 
L 121.081967 137.23984 
L 121.953162 154.289775 
L 122.824356 182.612095 
L 123.69555 165.883417 
L 124.566745 167.917765 
L 125.437939 174.589795 
L 126.309133 196.49026 
L 127.180328 229.677491 
L 128.051522 223.789574 
L 128.922717 234.512537 
L 129.793911 241.971303 
L 130.665105 234.33467 
L 131.5363 222.089079 
L 132.407494 228.588562 
L 133.278689 222.705617 
L 134.149883 164.110017 
L 135.021077 152.73097 
L 135.892272 133.634296 
L 136.763466 166.576595 
L 137.63466 175.638745 
L 138.505855 171.887966 
L 139.377049 196.393359 
L 140.248244 146.381856 
L 141.119438 132.91725 
L 141.990632 159.010387 
L 143.733021 229.012827 
L 144.604215 204.900408 
L 145.47541 215.318677 
L 146.346604 180.509593 
L 147.217799 180.812566 
L 148.088993 195.866804 
L 148.960187 197.882565 
L 149.831382 190.997639 
L 150.702576 214.398542 
L 151.57377 209.485134 
L 152.444965 230.743248 
L 153.316159 229.086248 
L 154.187354 215.385615 
L 155.058548 216.269307 
L 155.929742 225.553399 
L 156.800937 239.573824 
L 157.672131 237.250933 
L 158.543326 229.94619 
L 159.41452 238.900764 
L 160.285714 238.535031 
L 161.156909 241.447142 
L 162.028103 241.460168 
L 162.899297 235.58441 
L 163.770492 237.049762 
L 164.641686 239.613639 
L 165.512881 240.83076 
L 166.384075 239.454996 
L 167.255269 233.167801 
L 168.126464 230.25435 
L 168.997658 226.136052 
L 169.868852 237.971441 
L 170.740047 234.218491 
L 171.611241 233.411134 
L 172.482436 235.47279 
L 173.35363 239.923418 
L 174.224824 240.705982 
L 175.096019 236.015022 
L 175.967213 238.78658 
L 176.838407 237.707421 
L 178.580796 239.394695 
L 179.451991 239.007842 
L 180.323185 239.420127 
L 181.194379 237.35656 
L 182.065574 236.034953 
L 182.936768 238.851176 
L 183.807963 238.803128 
L 184.679157 240.871939 
L 185.550351 239.849561 
L 187.29274 235.974452 
L 188.163934 234.592874 
L 189.035129 237.159847 
L 189.906323 236.224114 
L 190.777518 237.583108 
L 191.648712 238.612102 
L 192.519906 241.704333 
L 193.391101 241.078048 
L 194.262295 239.295495 
L 195.133489 241.38446 
L 196.004684 236.333599 
L 196.875878 240.495406 
L 197.747073 242.059219 
L 198.618267 241.756152 
L 199.489461 241.610016 
L 200.360656 237.227454 
L 201.23185 235.724159 
L 202.103044 236.540567 
L 202.974239 240.685271 
L 203.845433 239.872734 
L 205.587822 241.136141 
L 206.459016 240.369856 
L 207.330211 241.073274 
L 208.201405 240.95989 
L 209.0726 237.125377 
L 209.943794 239.554219 
L 210.814988 241.13054 
L 211.686183 241.922673 
L 212.557377 241.890466 
L 213.428571 241.673635 
L 214.299766 241.137937 
L 215.17096 240.87954 
L 216.042155 241.981165 
L 216.913349 242.019558 
L 217.784543 241.596373 
L 218.655738 241.693127 
L 219.526932 241.673352 
L 220.398126 241.92064 
L 221.269321 241.118673 
L 222.140515 238.369122 
L 223.01171 239.706439 
L 223.882904 241.648218 
L 224.754098 241.855097 
L 225.625293 241.779475 
L 226.496487 239.357033 
L 227.367681 239.315981 
L 228.238876 237.879065 
L 229.11007 241.328707 
L 229.981265 240.824168 
L 230.852459 237.418684 
L 231.723653 238.69229 
L 232.594848 240.192933 
L 233.466042 238.334316 
L 234.337237 241.310829 
L 235.208431 241.406725 
L 236.079625 240.881447 
L 236.95082 241.52614 
L 237.822014 239.929456 
L 238.693208 234.91771 
L 239.564403 238.21164 
L 240.435597 236.974608 
L 241.306792 238.497795 
L 242.177986 241.992776 
L 243.04918 241.125742 
L 243.920375 241.773538 
L 244.791569 240.380575 
L 245.662763 240.494489 
L 246.533958 238.805392 
L 247.405152 240.498262 
L 248.276347 241.785518 
L 249.147541 237.373796 
L 250.018735 238.46244 
L 250.88993 237.99261 
L 251.761124 235.224919 
L 252.632319 242.067172 
L 253.503513 241.622163 
L 255.245902 241.29887 
L 256.117096 242.015182 
L 256.98829 237.162818 
L 257.859485 239.439829 
L 258.730679 240.701272 
L 259.601874 239.279368 
L 260.473068 239.547473 
L 261.344262 237.876788 
L 262.215457 241.308698 
L 263.086651 241.066889 
L 263.957845 242.046238 
L 264.82904 241.886149 
L 265.700234 238.96325 
L 266.571429 239.242363 
L 267.442623 238.868211 
L 268.313817 240.723902 
L 269.185012 240.45649 
L 270.056206 241.682276 
L 270.9274 241.703981 
L 271.798595 240.55912 
L 272.669789 240.907966 
L 273.540984 241.692034 
L 274.412178 240.338245 
L 275.283372 241.961371 
L 276.154567 241.810965 
L 277.025761 241.89014 
L 277.896956 240.52311 
L 278.76815 240.435609 
L 279.639344 241.083989 
L 280.510539 241.496312 
L 281.381733 241.639765 
L 282.252927 239.529817 
L 283.124122 240.963879 
L 283.995316 242.097735 
L 284.866511 241.97751 
L 285.737705 242.004766 
L 286.608899 241.375478 
L 287.480094 241.946767 
L 288.351288 240.257147 
L 289.222482 240.180126 
L 290.093677 241.198211 
L 290.964871 241.974826 
L 291.836066 241.910175 
L 292.70726 242.109151 
L 293.578454 241.104672 
L 294.449649 238.709639 
L 295.320843 240.883049 
L 296.192037 241.134778 
L 297.063232 241.813259 
L 297.934426 241.913964 
L 298.805621 241.50532 
L 299.676815 240.779778 
L 300.548009 241.286921 
L 301.419204 241.970165 
L 302.290398 241.098886 
L 303.161593 240.572039 
L 304.032787 241.243618 
L 304.903981 241.365615 
L 305.775176 241.746373 
L 306.64637 241.770796 
L 307.517564 241.329241 
L 308.388759 241.982543 
L 309.259953 241.914183 
L 310.131148 242.048658 
L 311.002342 242.049216 
L 311.873536 241.659442 
L 312.744731 241.574752 
L 313.615925 241.99912 
L 315.358314 242.112461 
L 316.229508 242.008678 
L 317.100703 241.657266 
L 317.971897 241.16196 
L 318.843091 241.659561 
L 319.714286 241.978907 
L 320.58548 241.832438 
L 321.456674 241.923698 
L 322.327869 241.808282 
L 323.199063 241.530996 
L 324.070258 241.472138 
L 324.941452 241.651046 
L 325.812646 241.435345 
L 327.555035 241.406801 
L 328.42623 241.620283 
L 329.297424 242.053087 
L 331.039813 242.076613 
L 332.782201 241.122806 
L 333.653396 241.81406 
L 334.52459 242.046154 
L 336.266979 242.112879 
L 337.138173 242.009184 
L 338.009368 241.788346 
L 339.751756 241.719802 
L 340.622951 241.943653 
L 342.36534 242.018583 
L 344.978923 241.811136 
L 349.334895 242.020508 
L 350.206089 242.01736 
L 351.077283 241.81966 
L 353.690867 242.059018 
L 355.433255 242.080581 
L 356.30445 242.077142 
L 357.175644 241.954854 
L 359.789227 242.043438 
L 363.274005 242.004851 
L 365.016393 241.970292 
L 366.758782 242.050193 
L 389.409836 242.023709 
L 389.409836 242.023709 
" clip-path="url(#pb25a08589f)" style="fill: none; stroke: #8c8c8c; stroke-opacity: 0.3; stroke-width: 1.5; stroke-linecap: round"/>
   </g>
   <g id="line2d_22">
    <path d="M 54 240.703286 
L 78.393443 240.595485 
L 90.590164 240.418228 
L 93.203747 240.234908 
L 94.946136 240.196978 
L 95.81733 240.140573 
L 98.430913 241.013505 
L 99.302108 240.92795 
L 100.173302 239.941202 
L 101.915691 235.123083 
L 103.65808 237.234906 
L 104.529274 227.130709 
L 105.400468 227.754335 
L 106.271663 237.522927 
L 107.142857 229.300142 
L 108.014052 219.208317 
L 108.885246 185.551856 
L 109.75644 237.755774 
L 110.627635 240.147356 
L 111.498829 231.900094 
L 112.370023 234.403656 
L 113.241218 235.393293 
L 114.112412 230.482829 
L 114.983607 223.945946 
L 115.854801 198.265668 
L 116.725995 203.929925 
L 117.59719 230.613693 
L 118.468384 154.979424 
L 119.339578 150.932096 
L 120.210773 215.767317 
L 121.081967 223.303051 
L 121.953162 236.054781 
L 122.824356 227.284737 
L 123.69555 165.652778 
L 124.566745 168.841495 
L 125.437939 211.308852 
L 126.309133 194.676388 
L 127.180328 191.527521 
L 128.051522 238.3168 
L 128.922717 230.81835 
L 129.793911 220.992055 
L 130.665105 227.040232 
L 131.5363 231.407132 
L 132.407494 185.185373 
L 133.278689 183.226801 
L 134.149883 228.195771 
L 135.021077 194.253896 
L 135.892272 219.986159 
L 136.763466 44.443636 
L 137.63466 90.048075 
L 138.505855 166.32293 
L 139.377049 153.208877 
L 140.248244 202.08078 
L 141.119438 201.34536 
L 141.990632 211.166814 
L 142.861827 183.501651 
L 143.733021 138.068714 
L 144.604215 176.847661 
L 145.47541 222.709046 
L 146.346604 234.265178 
L 147.217799 234.445849 
L 148.088993 219.120104 
L 148.960187 233.557392 
L 149.831382 227.467275 
L 150.702576 199.805182 
L 151.57377 241.879038 
L 152.444965 226.160606 
L 153.316159 206.880208 
L 154.187354 207.070981 
L 155.058548 205.317685 
L 155.929742 230.613911 
L 156.800937 230.505877 
L 157.672131 228.949438 
L 159.41452 184.896367 
L 160.285714 157.189565 
L 161.156909 191.613755 
L 162.028103 210.839467 
L 162.899297 237.41406 
L 163.770492 225.930347 
L 164.641686 238.092434 
L 165.512881 241.666613 
L 166.384075 236.262901 
L 167.255269 223.77362 
L 168.126464 187.111142 
L 168.997658 222.396335 
L 169.868852 241.386476 
L 170.740047 239.582705 
L 171.611241 240.88935 
L 172.482436 223.720755 
L 173.35363 233.738479 
L 174.224824 234.194932 
L 175.096019 225.864659 
L 175.967213 241.995866 
L 176.838407 234.262971 
L 177.709602 239.799642 
L 178.580796 238.312619 
L 179.451991 213.059725 
L 180.323185 208.403529 
L 181.194379 235.413891 
L 182.065574 236.59399 
L 182.936768 230.661206 
L 183.807963 238.828162 
L 184.679157 233.226692 
L 185.550351 230.183463 
L 186.421546 225.406883 
L 187.29274 223.690762 
L 188.163934 227.983268 
L 189.035129 236.378454 
L 189.906323 232.862871 
L 190.777518 241.847266 
L 191.648712 235.998724 
L 192.519906 238.219275 
L 193.391101 215.870579 
L 194.262295 231.141462 
L 195.133489 241.819537 
L 196.004684 233.16897 
L 196.875878 236.488213 
L 198.618267 235.743234 
L 199.489461 230.978455 
L 200.360656 214.22066 
L 202.103044 236.155096 
L 202.974239 241.252606 
L 203.845433 231.719572 
L 204.716628 214.118085 
L 205.587822 215.718542 
L 206.459016 235.549962 
L 207.330211 240.140962 
L 208.201405 210.425501 
L 209.0726 220.46287 
L 209.943794 238.032801 
L 210.814988 239.823827 
L 211.686183 232.267061 
L 212.557377 229.242419 
L 213.428571 233.543577 
L 214.299766 236.711219 
L 215.17096 239.196512 
L 216.042155 234.243352 
L 216.913349 236.170579 
L 217.784543 237.791506 
L 218.655738 238.356801 
L 219.526932 239.279155 
L 220.398126 234.925049 
L 221.269321 241.679709 
L 222.140515 234.5 
L 223.01171 222.480387 
L 223.882904 237.294717 
L 224.754098 237.942544 
L 225.625293 242.044334 
L 226.496487 233.220252 
L 227.367681 241.820852 
L 228.238876 234.914759 
L 229.11007 239.983807 
L 229.981265 225.852818 
L 230.852459 226.666237 
L 231.723653 228.109023 
L 232.594848 218.663985 
L 233.466042 214.732453 
L 234.337237 236.383497 
L 235.208431 214.423143 
L 236.079625 221.436553 
L 236.95082 238.938376 
L 237.822014 226.293397 
L 238.693208 207.135289 
L 239.564403 234.365093 
L 240.435597 234.126275 
L 241.306792 235.105694 
L 242.177986 241.094083 
L 243.04918 223.462054 
L 243.920375 239.465795 
L 244.791569 238.812816 
L 245.662763 238.743147 
L 246.533958 240.820072 
L 247.405152 224.614577 
L 248.276347 233.369156 
L 249.147541 218.293066 
L 250.018735 231.207485 
L 250.88993 214.192128 
L 251.761124 229.736167 
L 252.632319 241.802074 
L 253.503513 238.160436 
L 254.374707 241.943817 
L 255.245902 233.876259 
L 256.117096 239.986879 
L 256.98829 224.020599 
L 257.859485 235.146933 
L 258.730679 241.7548 
L 259.601874 238.092309 
L 260.473068 237.316792 
L 261.344262 227.048032 
L 262.215457 233.079154 
L 263.086651 226.315377 
L 263.957845 241.591911 
L 264.82904 241.686488 
L 265.700234 227.73636 
L 266.571429 226.668423 
L 267.442623 228.233305 
L 268.313817 235.175681 
L 269.185012 234.419129 
L 270.056206 239.497056 
L 270.9274 241.94207 
L 271.798595 234.552052 
L 272.669789 239.435014 
L 273.540984 238.666447 
L 274.412178 232.80747 
L 275.283372 241.355701 
L 276.154567 239.182671 
L 277.025761 240.855709 
L 277.896956 228.523138 
L 278.76815 238.596548 
L 279.639344 240.002365 
L 280.510539 240.432426 
L 281.381733 241.543503 
L 282.252927 236.472385 
L 283.124122 237.218526 
L 283.995316 240.914937 
L 284.866511 241.548548 
L 285.737705 237.136047 
L 286.608899 228.653545 
L 287.480094 242.072631 
L 288.351288 237.162179 
L 289.222482 237.923805 
L 290.093677 237.24841 
L 290.964871 239.448626 
L 291.836066 234.240442 
L 292.70726 239.38984 
L 293.578454 236.655358 
L 294.449649 225.228479 
L 295.320843 236.730509 
L 296.192037 231.278178 
L 297.063232 240.289666 
L 297.934426 241.663031 
L 298.805621 240.361734 
L 299.676815 239.269336 
L 300.548009 241.388702 
L 301.419204 242.047356 
L 302.290398 239.196711 
L 303.161593 235.849216 
L 304.032787 238.683087 
L 304.903981 236.58971 
L 305.775176 239.124695 
L 306.64637 240.646121 
L 307.517564 240.121424 
L 308.388759 241.226289 
L 309.259953 241.21938 
L 310.131148 242.00331 
L 311.002342 240.663465 
L 312.744731 238.733201 
L 313.615925 241.565871 
L 314.487119 240.902144 
L 315.358314 239.689713 
L 316.229508 240.206015 
L 317.100703 239.508578 
L 317.971897 236.391467 
L 319.714286 241.375627 
L 320.58548 239.383586 
L 321.456674 241.049019 
L 322.327869 241.336563 
L 323.199063 240.605973 
L 324.070258 239.659698 
L 324.941452 240.024438 
L 325.812646 241.861778 
L 326.683841 240.188891 
L 327.555035 239.398867 
L 328.42623 238.151993 
L 329.297424 241.815663 
L 330.168618 241.909113 
L 331.039813 241.151489 
L 331.911007 240.131892 
L 333.653396 241.903056 
L 334.52459 242.038507 
L 335.395785 242.060447 
L 336.266979 241.925277 
L 337.138173 241.957059 
L 338.009368 241.695776 
L 338.880562 241.703169 
L 339.751756 241.280541 
L 340.622951 241.983495 
L 341.494145 241.376906 
L 342.36534 241.35535 
L 343.236534 240.861326 
L 344.107728 241.450747 
L 344.978923 241.672776 
L 345.850117 242.048744 
L 346.721311 241.897642 
L 347.592506 241.269301 
L 348.4637 240.930995 
L 350.206089 241.846675 
L 351.077283 241.480889 
L 352.819672 242.061972 
L 353.690867 242.065632 
L 354.562061 241.899296 
L 355.433255 241.938383 
L 356.30445 242.09147 
L 357.175644 241.926608 
L 363.274005 242.040492 
L 364.145199 242.085192 
L 365.016393 241.996251 
L 365.887588 242.064252 
L 367.629977 241.850115 
L 369.372365 241.894611 
L 371.985948 241.878073 
L 372.857143 242.031161 
L 376.34192 242.06308 
L 388.538642 241.97784 
L 389.409836 242.034023 
L 389.409836 242.034023 
" clip-path="url(#pb25a08589f)" style="fill: none; stroke: #ccb974; stroke-opacity: 0.3; stroke-width: 1.5; stroke-linecap: round"/>
   </g>
   <g id="patch_3">
    <path d="M 54 252 
L 54 34.56 
" style="fill: none; stroke: #262626; stroke-width: 1.25; stroke-linejoin: miter; stroke-linecap: square"/>
   </g>
   <g id="patch_4">
    <path d="M 388.8 252 
L 388.8 34.56 
" style="fill: none; stroke: #262626; stroke-width: 1.25; stroke-linejoin: miter; stroke-linecap: square"/>
   </g>
   <g id="patch_5">
    <path d="M 54 252 
L 388.8 252 
" style="fill: none; stroke: #262626; stroke-width: 1.25; stroke-linejoin: miter; stroke-linecap: square"/>
   </g>
   <g id="patch_6">
    <path d="M 54 34.56 
L 388.8 34.56 
" style="fill: none; stroke: #262626; stroke-width: 1.25; stroke-linejoin: miter; stroke-linecap: square"/>
   </g>
   <g id="text_15">
    <!-- patient06_app09_phone - Power spectrum -->
    <g style="fill: #262626" transform="translate(107.998125 28.56)scale(0.12 -0.12)">
     <defs>
      <path id="ArialMT-70" d="M 422 -1272 
L 422 3319 
L 934 3319 
L 934 2888 
Q 1116 3141 1344 3267 
Q 1572 3394 1897 3394 
Q 2322 3394 2647 3175 
Q 2972 2956 3137 2557 
Q 3303 2159 3303 1684 
Q 3303 1175 3120 767 
Q 2938 359 2589 142 
Q 2241 -75 1856 -75 
Q 1575 -75 1351 44 
Q 1128 163 984 344 
L 984 -1272 
L 422 -1272 
z
M 931 1641 
Q 931 1000 1190 694 
Q 1450 388 1819 388 
Q 2194 388 2461 705 
Q 2728 1022 2728 1688 
Q 2728 2322 2467 2637 
Q 2206 2953 1844 2953 
Q 1484 2953 1207 2617 
Q 931 2281 931 1641 
z
" transform="scale(0.015625)"/>
      <path id="ArialMT-61" d="M 2588 409 
Q 2275 144 1986 34 
Q 1697 -75 1366 -75 
Q 819 -75 525 192 
Q 231 459 231 875 
Q 231 1119 342 1320 
Q 453 1522 633 1644 
Q 813 1766 1038 1828 
Q 1203 1872 1538 1913 
Q 2219 1994 2541 2106 
Q 2544 2222 2544 2253 
Q 2544 2597 2384 2738 
Q 2169 2928 1744 2928 
Q 1347 2928 1158 2789 
Q 969 2650 878 2297 
L 328 2372 
Q 403 2725 575 2942 
Q 747 3159 1072 3276 
Q 1397 3394 1825 3394 
Q 2250 3394 2515 3294 
Q 2781 3194 2906 3042 
Q 3031 2891 3081 2659 
Q 3109 2516 3109 2141 
L 3109 1391 
Q 3109 606 3145 398 
Q 3181 191 3288 0 
L 2700 0 
Q 2613 175 2588 409 
z
M 2541 1666 
Q 2234 1541 1622 1453 
Q 1275 1403 1131 1340 
Q 988 1278 909 1158 
Q 831 1038 831 891 
Q 831 666 1001 516 
Q 1172 366 1500 366 
Q 1825 366 2078 508 
Q 2331 650 2450 897 
Q 2541 1088 2541 1459 
L 2541 1666 
z
" transform="scale(0.015625)"/>
      <path id="ArialMT-74" d="M 1650 503 
L 1731 6 
Q 1494 -44 1306 -44 
Q 1000 -44 831 53 
Q 663 150 594 308 
Q 525 466 525 972 
L 525 2881 
L 113 2881 
L 113 3319 
L 525 3319 
L 525 4141 
L 1084 4478 
L 1084 3319 
L 1650 3319 
L 1650 2881 
L 1084 2881 
L 1084 941 
Q 1084 700 1114 631 
Q 1144 563 1211 522 
Q 1278 481 1403 481 
Q 1497 481 1650 503 
z
" transform="scale(0.015625)"/>
      <path id="ArialMT-69" d="M 425 3934 
L 425 4581 
L 988 4581 
L 988 3934 
L 425 3934 
z
M 425 0 
L 425 3319 
L 988 3319 
L 988 0 
L 425 0 
z
" transform="scale(0.015625)"/>
      <path id="ArialMT-5f" d="M -97 -1272 
L -97 -866 
L 3631 -866 
L 3631 -1272 
L -97 -1272 
z
" transform="scale(0.015625)"/>
      <path id="ArialMT-39" d="M 350 1059 
L 891 1109 
Q 959 728 1153 556 
Q 1347 384 1650 384 
Q 1909 384 2104 503 
Q 2300 622 2425 820 
Q 2550 1019 2634 1356 
Q 2719 1694 2719 2044 
Q 2719 2081 2716 2156 
Q 2547 1888 2255 1720 
Q 1963 1553 1622 1553 
Q 1053 1553 659 1965 
Q 266 2378 266 3053 
Q 266 3750 677 4175 
Q 1088 4600 1706 4600 
Q 2153 4600 2523 4359 
Q 2894 4119 3086 3673 
Q 3278 3228 3278 2384 
Q 3278 1506 3087 986 
Q 2897 466 2520 194 
Q 2144 -78 1638 -78 
Q 1100 -78 759 220 
Q 419 519 350 1059 
z
M 2653 3081 
Q 2653 3566 2395 3850 
Q 2138 4134 1775 4134 
Q 1400 4134 1122 3828 
Q 844 3522 844 3034 
Q 844 2597 1108 2323 
Q 1372 2050 1759 2050 
Q 2150 2050 2401 2323 
Q 2653 2597 2653 3081 
z
" transform="scale(0.015625)"/>
      <path id="ArialMT-68" d="M 422 0 
L 422 4581 
L 984 4581 
L 984 2938 
Q 1378 3394 1978 3394 
Q 2347 3394 2619 3248 
Q 2891 3103 3008 2847 
Q 3125 2591 3125 2103 
L 3125 0 
L 2563 0 
L 2563 2103 
Q 2563 2525 2380 2717 
Q 2197 2909 1863 2909 
Q 1613 2909 1392 2779 
Q 1172 2650 1078 2428 
Q 984 2206 984 1816 
L 984 0 
L 422 0 
z
" transform="scale(0.015625)"/>
      <path id="ArialMT-6f" d="M 213 1659 
Q 213 2581 725 3025 
Q 1153 3394 1769 3394 
Q 2453 3394 2887 2945 
Q 3322 2497 3322 1706 
Q 3322 1066 3130 698 
Q 2938 331 2570 128 
Q 2203 -75 1769 -75 
Q 1072 -75 642 372 
Q 213 819 213 1659 
z
M 791 1659 
Q 791 1022 1069 705 
Q 1347 388 1769 388 
Q 2188 388 2466 706 
Q 2744 1025 2744 1678 
Q 2744 2294 2464 2611 
Q 2184 2928 1769 2928 
Q 1347 2928 1069 2612 
Q 791 2297 791 1659 
z
" transform="scale(0.015625)"/>
      <path id="ArialMT-2d" d="M 203 1375 
L 203 1941 
L 1931 1941 
L 1931 1375 
L 203 1375 
z
" transform="scale(0.015625)"/>
      <path id="ArialMT-50" d="M 494 0 
L 494 4581 
L 2222 4581 
Q 2678 4581 2919 4538 
Q 3256 4481 3484 4323 
Q 3713 4166 3852 3881 
Q 3991 3597 3991 3256 
Q 3991 2672 3619 2267 
Q 3247 1863 2275 1863 
L 1100 1863 
L 1100 0 
L 494 0 
z
M 1100 2403 
L 2284 2403 
Q 2872 2403 3119 2622 
Q 3366 2841 3366 3238 
Q 3366 3525 3220 3729 
Q 3075 3934 2838 4000 
Q 2684 4041 2272 4041 
L 1100 4041 
L 1100 2403 
z
" transform="scale(0.015625)"/>
      <path id="ArialMT-77" d="M 1034 0 
L 19 3319 
L 600 3319 
L 1128 1403 
L 1325 691 
Q 1338 744 1497 1375 
L 2025 3319 
L 2603 3319 
L 3100 1394 
L 3266 759 
L 3456 1400 
L 4025 3319 
L 4572 3319 
L 3534 0 
L 2950 0 
L 2422 1988 
L 2294 2553 
L 1622 0 
L 1034 0 
z
" transform="scale(0.015625)"/>
      <path id="ArialMT-73" d="M 197 991 
L 753 1078 
Q 800 744 1014 566 
Q 1228 388 1613 388 
Q 2000 388 2187 545 
Q 2375 703 2375 916 
Q 2375 1106 2209 1216 
Q 2094 1291 1634 1406 
Q 1016 1563 777 1677 
Q 538 1791 414 1992 
Q 291 2194 291 2438 
Q 291 2659 392 2848 
Q 494 3038 669 3163 
Q 800 3259 1026 3326 
Q 1253 3394 1513 3394 
Q 1903 3394 2198 3281 
Q 2494 3169 2634 2976 
Q 2775 2784 2828 2463 
L 2278 2388 
Q 2241 2644 2061 2787 
Q 1881 2931 1553 2931 
Q 1166 2931 1000 2803 
Q 834 2675 834 2503 
Q 834 2394 903 2306 
Q 972 2216 1119 2156 
Q 1203 2125 1616 2013 
Q 2213 1853 2448 1751 
Q 2684 1650 2818 1456 
Q 2953 1263 2953 975 
Q 2953 694 2789 445 
Q 2625 197 2315 61 
Q 2006 -75 1616 -75 
Q 969 -75 630 194 
Q 291 463 197 991 
z
" transform="scale(0.015625)"/>
      <path id="ArialMT-6d" d="M 422 0 
L 422 3319 
L 925 3319 
L 925 2853 
Q 1081 3097 1340 3245 
Q 1600 3394 1931 3394 
Q 2300 3394 2536 3241 
Q 2772 3088 2869 2813 
Q 3263 3394 3894 3394 
Q 4388 3394 4653 3120 
Q 4919 2847 4919 2278 
L 4919 0 
L 4359 0 
L 4359 2091 
Q 4359 2428 4304 2576 
Q 4250 2725 4106 2815 
Q 3963 2906 3769 2906 
Q 3419 2906 3187 2673 
Q 2956 2441 2956 1928 
L 2956 0 
L 2394 0 
L 2394 2156 
Q 2394 2531 2256 2718 
Q 2119 2906 1806 2906 
Q 1569 2906 1367 2781 
Q 1166 2656 1075 2415 
Q 984 2175 984 1722 
L 984 0 
L 422 0 
z
" transform="scale(0.015625)"/>
     </defs>
     <use xlink:href="#ArialMT-70"/>
     <use xlink:href="#ArialMT-61" x="55.615234"/>
     <use xlink:href="#ArialMT-74" x="111.230469"/>
     <use xlink:href="#ArialMT-69" x="139.013672"/>
     <use xlink:href="#ArialMT-65" x="161.230469"/>
     <use xlink:href="#ArialMT-6e" x="216.845703"/>
     <use xlink:href="#ArialMT-74" x="272.460938"/>
     <use xlink:href="#ArialMT-30" x="300.244141"/>
     <use xlink:href="#ArialMT-36" x="355.859375"/>
     <use xlink:href="#ArialMT-5f" x="411.474609"/>
     <use xlink:href="#ArialMT-61" x="467.089844"/>
     <use xlink:href="#ArialMT-70" x="522.705078"/>
     <use xlink:href="#ArialMT-70" x="578.320312"/>
     <use xlink:href="#ArialMT-30" x="633.935547"/>
     <use xlink:href="#ArialMT-39" x="689.550781"/>
     <use xlink:href="#ArialMT-5f" x="745.166016"/>
     <use xlink:href="#ArialMT-70" x="800.78125"/>
     <use xlink:href="#ArialMT-68" x="856.396484"/>
     <use xlink:href="#ArialMT-6f" x="912.011719"/>
     <use xlink:href="#ArialMT-6e" x="967.626953"/>
     <use xlink:href="#ArialMT-65" x="1023.242188"/>
     <use xlink:href="#ArialMT-20" x="1078.857422"/>
     <use xlink:href="#ArialMT-2d" x="1106.640625"/>
     <use xlink:href="#ArialMT-20" x="1139.941406"/>
     <use xlink:href="#ArialMT-50" x="1167.724609"/>
     <use xlink:href="#ArialMT-6f" x="1234.423828"/>
     <use xlink:href="#ArialMT-77" x="1290.039062"/>
     <use xlink:href="#ArialMT-65" x="1362.255859"/>
     <use xlink:href="#ArialMT-72" x="1417.871094"/>
     <use xlink:href="#ArialMT-20" x="1451.171875"/>
     <use xlink:href="#ArialMT-73" x="1478.955078"/>
     <use xlink:href="#ArialMT-70" x="1528.955078"/>
     <use xlink:href="#ArialMT-65" x="1584.570312"/>
     <use xlink:href="#ArialMT-63" x="1640.185547"/>
     <use xlink:href="#ArialMT-74" x="1690.185547"/>
     <use xlink:href="#ArialMT-72" x="1717.96875"/>
     <use xlink:href="#ArialMT-75" x="1751.269531"/>
     <use xlink:href="#ArialMT-6d" x="1806.884766"/>
    </g>
   </g>
  </g>
 </g>
 <defs>
  <clipPath id="pb25a08589f">
   <rect x="54" y="34.56" width="334.8" height="217.44"/>
  </clipPath>
 </defs>
</svg>
