<?xml version="1.0" encoding="utf-8" standalone="no"?>
<!DOCTYPE svg PUBLIC "-//W3C//DTD SVG 1.1//EN"
  "http://www.w3.org/Graphics/SVG/1.1/DTD/svg11.dtd">
<svg xmlns:xlink="http://www.w3.org/1999/xlink" width="432pt" height="288pt" viewBox="0 0 432 288" xmlns="http://www.w3.org/2000/svg" version="1.1">
 <metadata>
  <rdf:RDF xmlns:dc="http://purl.org/dc/elements/1.1/" xmlns:cc="http://creativecommons.org/ns#" xmlns:rdf="http://www.w3.org/1999/02/22-rdf-syntax-ns#">
   <cc:Work>
    <dc:type rdf:resource="http://purl.org/dc/dcmitype/StillImage"/>
    <dc:date>2022-07-08T13:28:07.916333</dc:date>
    <dc:format>image/svg+xml</dc:format>
    <dc:creator>
     <cc:Agent>
      <dc:title>Matplotlib v3.5.1, https://matplotlib.org/</dc:title>
     </cc:Agent>
    </dc:creator>
   </cc:Work>
  </rdf:RDF>
 </metadata>
 <defs>
  <style type="text/css">*{stroke-linejoin: round; stroke-linecap: butt}</style>
 </defs>
 <g id="figure_1">
  <g id="patch_1">
   <path d="M 0 288 
L 432 288 
L 432 0 
L 0 0 
z
" style="fill: #ffffff"/>
  </g>
  <g id="axes_1">
   <g id="patch_2">
    <path d="M 54 252 
L 388.8 252 
L 388.8 34.56 
L 54 34.56 
z
" style="fill: #ffffff"/>
   </g>
   <g id="matplotlib.axis_1">
    <g id="xtick_1">
     <g id="line2d_1">
      <defs>
       <path id="mb06208f2da" d="M 0 0 
L 0 6 
" style="stroke: #262626; stroke-width: 1.25"/>
      </defs>
      <g>
       <use xlink:href="#mb06208f2da" x="54" y="252" style="fill: #262626; stroke: #262626; stroke-width: 1.25"/>
      </g>
     </g>
     <g id="text_1">
      <!-- 0 -->
      <g style="fill: #262626" transform="translate(50.941484 269.373594)scale(0.11 -0.11)">
       <defs>
        <path id="ArialMT-30" d="M 266 2259 
Q 266 3072 433 3567 
Q 600 4063 929 4331 
Q 1259 4600 1759 4600 
Q 2128 4600 2406 4451 
Q 2684 4303 2865 4023 
Q 3047 3744 3150 3342 
Q 3253 2941 3253 2259 
Q 3253 1453 3087 958 
Q 2922 463 2592 192 
Q 2263 -78 1759 -78 
Q 1097 -78 719 397 
Q 266 969 266 2259 
z
M 844 2259 
Q 844 1131 1108 757 
Q 1372 384 1759 384 
Q 2147 384 2411 759 
Q 2675 1134 2675 2259 
Q 2675 3391 2411 3762 
Q 2147 4134 1753 4134 
Q 1366 4134 1134 3806 
Q 844 3388 844 2259 
z
" transform="scale(0.015625)"/>
       </defs>
       <use xlink:href="#ArialMT-30"/>
      </g>
     </g>
    </g>
    <g id="xtick_2">
     <g id="line2d_2">
      <g>
       <use xlink:href="#mb06208f2da" x="109.8" y="252" style="fill: #262626; stroke: #262626; stroke-width: 1.25"/>
      </g>
     </g>
     <g id="text_2">
      <!-- 5 -->
      <g style="fill: #262626" transform="translate(106.741484 269.373594)scale(0.11 -0.11)">
       <defs>
        <path id="ArialMT-35" d="M 266 1200 
L 856 1250 
Q 922 819 1161 601 
Q 1400 384 1738 384 
Q 2144 384 2425 690 
Q 2706 997 2706 1503 
Q 2706 1984 2436 2262 
Q 2166 2541 1728 2541 
Q 1456 2541 1237 2417 
Q 1019 2294 894 2097 
L 366 2166 
L 809 4519 
L 3088 4519 
L 3088 3981 
L 1259 3981 
L 1013 2750 
Q 1425 3038 1878 3038 
Q 2478 3038 2890 2622 
Q 3303 2206 3303 1553 
Q 3303 931 2941 478 
Q 2500 -78 1738 -78 
Q 1113 -78 717 272 
Q 322 622 266 1200 
z
" transform="scale(0.015625)"/>
       </defs>
       <use xlink:href="#ArialMT-35"/>
      </g>
     </g>
    </g>
    <g id="xtick_3">
     <g id="line2d_3">
      <g>
       <use xlink:href="#mb06208f2da" x="165.6" y="252" style="fill: #262626; stroke: #262626; stroke-width: 1.25"/>
      </g>
     </g>
     <g id="text_3">
      <!-- 10 -->
      <g style="fill: #262626" transform="translate(159.482969 269.373594)scale(0.11 -0.11)">
       <defs>
        <path id="ArialMT-31" d="M 2384 0 
L 1822 0 
L 1822 3584 
Q 1619 3391 1289 3197 
Q 959 3003 697 2906 
L 697 3450 
Q 1169 3672 1522 3987 
Q 1875 4303 2022 4600 
L 2384 4600 
L 2384 0 
z
" transform="scale(0.015625)"/>
       </defs>
       <use xlink:href="#ArialMT-31"/>
       <use xlink:href="#ArialMT-30" x="55.615234"/>
      </g>
     </g>
    </g>
    <g id="xtick_4">
     <g id="line2d_4">
      <g>
       <use xlink:href="#mb06208f2da" x="221.4" y="252" style="fill: #262626; stroke: #262626; stroke-width: 1.25"/>
      </g>
     </g>
     <g id="text_4">
      <!-- 15 -->
      <g style="fill: #262626" transform="translate(215.282969 269.373594)scale(0.11 -0.11)">
       <use xlink:href="#ArialMT-31"/>
       <use xlink:href="#ArialMT-35" x="55.615234"/>
      </g>
     </g>
    </g>
    <g id="xtick_5">
     <g id="line2d_5">
      <g>
       <use xlink:href="#mb06208f2da" x="277.2" y="252" style="fill: #262626; stroke: #262626; stroke-width: 1.25"/>
      </g>
     </g>
     <g id="text_5">
      <!-- 20 -->
      <g style="fill: #262626" transform="translate(271.082969 269.373594)scale(0.11 -0.11)">
       <defs>
        <path id="ArialMT-32" d="M 3222 541 
L 3222 0 
L 194 0 
Q 188 203 259 391 
Q 375 700 629 1000 
Q 884 1300 1366 1694 
Q 2113 2306 2375 2664 
Q 2638 3022 2638 3341 
Q 2638 3675 2398 3904 
Q 2159 4134 1775 4134 
Q 1369 4134 1125 3890 
Q 881 3647 878 3216 
L 300 3275 
Q 359 3922 746 4261 
Q 1134 4600 1788 4600 
Q 2447 4600 2831 4234 
Q 3216 3869 3216 3328 
Q 3216 3053 3103 2787 
Q 2991 2522 2730 2228 
Q 2469 1934 1863 1422 
Q 1356 997 1212 845 
Q 1069 694 975 541 
L 3222 541 
z
" transform="scale(0.015625)"/>
       </defs>
       <use xlink:href="#ArialMT-32"/>
       <use xlink:href="#ArialMT-30" x="55.615234"/>
      </g>
     </g>
    </g>
    <g id="xtick_6">
     <g id="line2d_6">
      <g>
       <use xlink:href="#mb06208f2da" x="333" y="252" style="fill: #262626; stroke: #262626; stroke-width: 1.25"/>
      </g>
     </g>
     <g id="text_6">
      <!-- 25 -->
      <g style="fill: #262626" transform="translate(326.882969 269.373594)scale(0.11 -0.11)">
       <use xlink:href="#ArialMT-32"/>
       <use xlink:href="#ArialMT-35" x="55.615234"/>
      </g>
     </g>
    </g>
    <g id="xtick_7">
     <g id="line2d_7">
      <g>
       <use xlink:href="#mb06208f2da" x="388.8" y="252" style="fill: #262626; stroke: #262626; stroke-width: 1.25"/>
      </g>
     </g>
     <g id="text_7">
      <!-- 30 -->
      <g style="fill: #262626" transform="translate(382.682969 269.373594)scale(0.11 -0.11)">
       <defs>
        <path id="ArialMT-33" d="M 269 1209 
L 831 1284 
Q 928 806 1161 595 
Q 1394 384 1728 384 
Q 2125 384 2398 659 
Q 2672 934 2672 1341 
Q 2672 1728 2419 1979 
Q 2166 2231 1775 2231 
Q 1616 2231 1378 2169 
L 1441 2663 
Q 1497 2656 1531 2656 
Q 1891 2656 2178 2843 
Q 2466 3031 2466 3422 
Q 2466 3731 2256 3934 
Q 2047 4138 1716 4138 
Q 1388 4138 1169 3931 
Q 950 3725 888 3313 
L 325 3413 
Q 428 3978 793 4289 
Q 1159 4600 1703 4600 
Q 2078 4600 2393 4439 
Q 2709 4278 2876 4000 
Q 3044 3722 3044 3409 
Q 3044 3113 2884 2869 
Q 2725 2625 2413 2481 
Q 2819 2388 3044 2092 
Q 3269 1797 3269 1353 
Q 3269 753 2831 336 
Q 2394 -81 1725 -81 
Q 1122 -81 723 278 
Q 325 638 269 1209 
z
" transform="scale(0.015625)"/>
       </defs>
       <use xlink:href="#ArialMT-33"/>
       <use xlink:href="#ArialMT-30" x="55.615234"/>
      </g>
     </g>
    </g>
    <g id="text_8">
     <!-- Frequency (Hz) -->
     <g style="fill: #262626" transform="translate(180.059063 284.295469)scale(0.12 -0.12)">
      <defs>
       <path id="ArialMT-46" d="M 525 0 
L 525 4581 
L 3616 4581 
L 3616 4041 
L 1131 4041 
L 1131 2622 
L 3281 2622 
L 3281 2081 
L 1131 2081 
L 1131 0 
L 525 0 
z
" transform="scale(0.015625)"/>
       <path id="ArialMT-72" d="M 416 0 
L 416 3319 
L 922 3319 
L 922 2816 
Q 1116 3169 1280 3281 
Q 1444 3394 1641 3394 
Q 1925 3394 2219 3213 
L 2025 2691 
Q 1819 2813 1613 2813 
Q 1428 2813 1281 2702 
Q 1134 2591 1072 2394 
Q 978 2094 978 1738 
L 978 0 
L 416 0 
z
" transform="scale(0.015625)"/>
       <path id="ArialMT-65" d="M 2694 1069 
L 3275 997 
Q 3138 488 2766 206 
Q 2394 -75 1816 -75 
Q 1088 -75 661 373 
Q 234 822 234 1631 
Q 234 2469 665 2931 
Q 1097 3394 1784 3394 
Q 2450 3394 2872 2941 
Q 3294 2488 3294 1666 
Q 3294 1616 3291 1516 
L 816 1516 
Q 847 969 1125 678 
Q 1403 388 1819 388 
Q 2128 388 2347 550 
Q 2566 713 2694 1069 
z
M 847 1978 
L 2700 1978 
Q 2663 2397 2488 2606 
Q 2219 2931 1791 2931 
Q 1403 2931 1139 2672 
Q 875 2413 847 1978 
z
" transform="scale(0.015625)"/>
       <path id="ArialMT-71" d="M 2538 -1272 
L 2538 353 
Q 2406 169 2170 47 
Q 1934 -75 1669 -75 
Q 1078 -75 651 397 
Q 225 869 225 1691 
Q 225 2191 398 2587 
Q 572 2984 901 3189 
Q 1231 3394 1625 3394 
Q 2241 3394 2594 2875 
L 2594 3319 
L 3100 3319 
L 3100 -1272 
L 2538 -1272 
z
M 803 1669 
Q 803 1028 1072 708 
Q 1341 388 1716 388 
Q 2075 388 2334 692 
Q 2594 997 2594 1619 
Q 2594 2281 2320 2615 
Q 2047 2950 1678 2950 
Q 1313 2950 1058 2639 
Q 803 2328 803 1669 
z
" transform="scale(0.015625)"/>
       <path id="ArialMT-75" d="M 2597 0 
L 2597 488 
Q 2209 -75 1544 -75 
Q 1250 -75 995 37 
Q 741 150 617 320 
Q 494 491 444 738 
Q 409 903 409 1263 
L 409 3319 
L 972 3319 
L 972 1478 
Q 972 1038 1006 884 
Q 1059 663 1231 536 
Q 1403 409 1656 409 
Q 1909 409 2131 539 
Q 2353 669 2445 892 
Q 2538 1116 2538 1541 
L 2538 3319 
L 3100 3319 
L 3100 0 
L 2597 0 
z
" transform="scale(0.015625)"/>
       <path id="ArialMT-6e" d="M 422 0 
L 422 3319 
L 928 3319 
L 928 2847 
Q 1294 3394 1984 3394 
Q 2284 3394 2536 3286 
Q 2788 3178 2913 3003 
Q 3038 2828 3088 2588 
Q 3119 2431 3119 2041 
L 3119 0 
L 2556 0 
L 2556 2019 
Q 2556 2363 2490 2533 
Q 2425 2703 2258 2804 
Q 2091 2906 1866 2906 
Q 1506 2906 1245 2678 
Q 984 2450 984 1813 
L 984 0 
L 422 0 
z
" transform="scale(0.015625)"/>
       <path id="ArialMT-63" d="M 2588 1216 
L 3141 1144 
Q 3050 572 2676 248 
Q 2303 -75 1759 -75 
Q 1078 -75 664 370 
Q 250 816 250 1647 
Q 250 2184 428 2587 
Q 606 2991 970 3192 
Q 1334 3394 1763 3394 
Q 2303 3394 2647 3120 
Q 2991 2847 3088 2344 
L 2541 2259 
Q 2463 2594 2264 2762 
Q 2066 2931 1784 2931 
Q 1359 2931 1093 2626 
Q 828 2322 828 1663 
Q 828 994 1084 691 
Q 1341 388 1753 388 
Q 2084 388 2306 591 
Q 2528 794 2588 1216 
z
" transform="scale(0.015625)"/>
       <path id="ArialMT-79" d="M 397 -1278 
L 334 -750 
Q 519 -800 656 -800 
Q 844 -800 956 -737 
Q 1069 -675 1141 -563 
Q 1194 -478 1313 -144 
Q 1328 -97 1363 -6 
L 103 3319 
L 709 3319 
L 1400 1397 
Q 1534 1031 1641 628 
Q 1738 1016 1872 1384 
L 2581 3319 
L 3144 3319 
L 1881 -56 
Q 1678 -603 1566 -809 
Q 1416 -1088 1222 -1217 
Q 1028 -1347 759 -1347 
Q 597 -1347 397 -1278 
z
" transform="scale(0.015625)"/>
       <path id="ArialMT-20" transform="scale(0.015625)"/>
       <path id="ArialMT-28" d="M 1497 -1347 
Q 1031 -759 709 28 
Q 388 816 388 1659 
Q 388 2403 628 3084 
Q 909 3875 1497 4659 
L 1900 4659 
Q 1522 4009 1400 3731 
Q 1209 3300 1100 2831 
Q 966 2247 966 1656 
Q 966 153 1900 -1347 
L 1497 -1347 
z
" transform="scale(0.015625)"/>
       <path id="ArialMT-48" d="M 513 0 
L 513 4581 
L 1119 4581 
L 1119 2700 
L 3500 2700 
L 3500 4581 
L 4106 4581 
L 4106 0 
L 3500 0 
L 3500 2159 
L 1119 2159 
L 1119 0 
L 513 0 
z
" transform="scale(0.015625)"/>
       <path id="ArialMT-7a" d="M 125 0 
L 125 456 
L 2238 2881 
Q 1878 2863 1603 2863 
L 250 2863 
L 250 3319 
L 2963 3319 
L 2963 2947 
L 1166 841 
L 819 456 
Q 1197 484 1528 484 
L 3063 484 
L 3063 0 
L 125 0 
z
" transform="scale(0.015625)"/>
       <path id="ArialMT-29" d="M 791 -1347 
L 388 -1347 
Q 1322 153 1322 1656 
Q 1322 2244 1188 2822 
Q 1081 3291 891 3722 
Q 769 4003 388 4659 
L 791 4659 
Q 1378 3875 1659 3084 
Q 1900 2403 1900 1659 
Q 1900 816 1576 28 
Q 1253 -759 791 -1347 
z
" transform="scale(0.015625)"/>
      </defs>
      <use xlink:href="#ArialMT-46"/>
      <use xlink:href="#ArialMT-72" x="61.083984"/>
      <use xlink:href="#ArialMT-65" x="94.384766"/>
      <use xlink:href="#ArialMT-71" x="150"/>
      <use xlink:href="#ArialMT-75" x="205.615234"/>
      <use xlink:href="#ArialMT-65" x="261.230469"/>
      <use xlink:href="#ArialMT-6e" x="316.845703"/>
      <use xlink:href="#ArialMT-63" x="372.460938"/>
      <use xlink:href="#ArialMT-79" x="422.460938"/>
      <use xlink:href="#ArialMT-20" x="472.460938"/>
      <use xlink:href="#ArialMT-28" x="500.244141"/>
      <use xlink:href="#ArialMT-48" x="533.544922"/>
      <use xlink:href="#ArialMT-7a" x="605.761719"/>
      <use xlink:href="#ArialMT-29" x="655.761719"/>
     </g>
    </g>
   </g>
   <g id="matplotlib.axis_2">
    <g id="ytick_1">
     <g id="line2d_8">
      <defs>
       <path id="m09400c0823" d="M 0 0 
L -6 0 
" style="stroke: #262626; stroke-width: 1.25"/>
      </defs>
      <g>
       <use xlink:href="#m09400c0823" x="54" y="242.116364" style="fill: #262626; stroke: #262626; stroke-width: 1.25"/>
      </g>
     </g>
     <g id="text_9">
      <!-- 0.0 -->
      <g style="fill: #262626" transform="translate(29.21 246.053161)scale(0.11 -0.11)">
       <defs>
        <path id="ArialMT-2e" d="M 581 0 
L 581 641 
L 1222 641 
L 1222 0 
L 581 0 
z
" transform="scale(0.015625)"/>
       </defs>
       <use xlink:href="#ArialMT-30"/>
       <use xlink:href="#ArialMT-2e" x="55.615234"/>
       <use xlink:href="#ArialMT-30" x="83.398438"/>
      </g>
     </g>
    </g>
    <g id="ytick_2">
     <g id="line2d_9">
      <g>
       <use xlink:href="#m09400c0823" x="54" y="202.581818" style="fill: #262626; stroke: #262626; stroke-width: 1.25"/>
      </g>
     </g>
     <g id="text_10">
      <!-- 0.2 -->
      <g style="fill: #262626" transform="translate(29.21 206.518615)scale(0.11 -0.11)">
       <use xlink:href="#ArialMT-30"/>
       <use xlink:href="#ArialMT-2e" x="55.615234"/>
       <use xlink:href="#ArialMT-32" x="83.398438"/>
      </g>
     </g>
    </g>
    <g id="ytick_3">
     <g id="line2d_10">
      <g>
       <use xlink:href="#m09400c0823" x="54" y="163.047273" style="fill: #262626; stroke: #262626; stroke-width: 1.25"/>
      </g>
     </g>
     <g id="text_11">
      <!-- 0.4 -->
      <g style="fill: #262626" transform="translate(29.21 166.98407)scale(0.11 -0.11)">
       <defs>
        <path id="ArialMT-34" d="M 2069 0 
L 2069 1097 
L 81 1097 
L 81 1613 
L 2172 4581 
L 2631 4581 
L 2631 1613 
L 3250 1613 
L 3250 1097 
L 2631 1097 
L 2631 0 
L 2069 0 
z
M 2069 1613 
L 2069 3678 
L 634 1613 
L 2069 1613 
z
" transform="scale(0.015625)"/>
       </defs>
       <use xlink:href="#ArialMT-30"/>
       <use xlink:href="#ArialMT-2e" x="55.615234"/>
       <use xlink:href="#ArialMT-34" x="83.398438"/>
      </g>
     </g>
    </g>
    <g id="ytick_4">
     <g id="line2d_11">
      <g>
       <use xlink:href="#m09400c0823" x="54" y="123.512727" style="fill: #262626; stroke: #262626; stroke-width: 1.25"/>
      </g>
     </g>
     <g id="text_12">
      <!-- 0.6 -->
      <g style="fill: #262626" transform="translate(29.21 127.449524)scale(0.11 -0.11)">
       <defs>
        <path id="ArialMT-36" d="M 3184 3459 
L 2625 3416 
Q 2550 3747 2413 3897 
Q 2184 4138 1850 4138 
Q 1581 4138 1378 3988 
Q 1113 3794 959 3422 
Q 806 3050 800 2363 
Q 1003 2672 1297 2822 
Q 1591 2972 1913 2972 
Q 2475 2972 2870 2558 
Q 3266 2144 3266 1488 
Q 3266 1056 3080 686 
Q 2894 316 2569 119 
Q 2244 -78 1831 -78 
Q 1128 -78 684 439 
Q 241 956 241 2144 
Q 241 3472 731 4075 
Q 1159 4600 1884 4600 
Q 2425 4600 2770 4297 
Q 3116 3994 3184 3459 
z
M 888 1484 
Q 888 1194 1011 928 
Q 1134 663 1356 523 
Q 1578 384 1822 384 
Q 2178 384 2434 671 
Q 2691 959 2691 1453 
Q 2691 1928 2437 2201 
Q 2184 2475 1800 2475 
Q 1419 2475 1153 2201 
Q 888 1928 888 1484 
z
" transform="scale(0.015625)"/>
       </defs>
       <use xlink:href="#ArialMT-30"/>
       <use xlink:href="#ArialMT-2e" x="55.615234"/>
       <use xlink:href="#ArialMT-36" x="83.398438"/>
      </g>
     </g>
    </g>
    <g id="ytick_5">
     <g id="line2d_12">
      <g>
       <use xlink:href="#m09400c0823" x="54" y="83.978182" style="fill: #262626; stroke: #262626; stroke-width: 1.25"/>
      </g>
     </g>
     <g id="text_13">
      <!-- 0.8 -->
      <g style="fill: #262626" transform="translate(29.21 87.914979)scale(0.11 -0.11)">
       <defs>
        <path id="ArialMT-38" d="M 1131 2484 
Q 781 2613 612 2850 
Q 444 3088 444 3419 
Q 444 3919 803 4259 
Q 1163 4600 1759 4600 
Q 2359 4600 2725 4251 
Q 3091 3903 3091 3403 
Q 3091 3084 2923 2848 
Q 2756 2613 2416 2484 
Q 2838 2347 3058 2040 
Q 3278 1734 3278 1309 
Q 3278 722 2862 322 
Q 2447 -78 1769 -78 
Q 1091 -78 675 323 
Q 259 725 259 1325 
Q 259 1772 486 2073 
Q 713 2375 1131 2484 
z
M 1019 3438 
Q 1019 3113 1228 2906 
Q 1438 2700 1772 2700 
Q 2097 2700 2305 2904 
Q 2513 3109 2513 3406 
Q 2513 3716 2298 3927 
Q 2084 4138 1766 4138 
Q 1444 4138 1231 3931 
Q 1019 3725 1019 3438 
z
M 838 1322 
Q 838 1081 952 856 
Q 1066 631 1291 507 
Q 1516 384 1775 384 
Q 2178 384 2440 643 
Q 2703 903 2703 1303 
Q 2703 1709 2433 1975 
Q 2163 2241 1756 2241 
Q 1359 2241 1098 1978 
Q 838 1716 838 1322 
z
" transform="scale(0.015625)"/>
       </defs>
       <use xlink:href="#ArialMT-30"/>
       <use xlink:href="#ArialMT-2e" x="55.615234"/>
       <use xlink:href="#ArialMT-38" x="83.398438"/>
      </g>
     </g>
    </g>
    <g id="ytick_6">
     <g id="line2d_13">
      <g>
       <use xlink:href="#m09400c0823" x="54" y="44.443636" style="fill: #262626; stroke: #262626; stroke-width: 1.25"/>
      </g>
     </g>
     <g id="text_14">
      <!-- 1.0 -->
      <g style="fill: #262626" transform="translate(29.21 48.380433)scale(0.11 -0.11)">
       <use xlink:href="#ArialMT-31"/>
       <use xlink:href="#ArialMT-2e" x="55.615234"/>
       <use xlink:href="#ArialMT-30" x="83.398438"/>
      </g>
     </g>
    </g>
   </g>
   <g id="line2d_14">
    <path d="M 54 242.115231 
L 97.690213 242.024423 
L 99.589787 241.75025 
L 100.539574 241.390482 
L 101.489362 240.721348 
L 102.439149 239.52126 
L 103.388936 237.612947 
L 104.338723 234.239502 
L 105.288511 229.212652 
L 106.238298 220.899177 
L 108.137872 198.487966 
L 110.987234 150.211318 
L 112.886809 109.367506 
L 113.836596 93.643619 
L 114.786383 75.403021 
L 116.685957 54.191218 
L 117.635745 47.002582 
L 118.585532 44.443636 
L 119.535319 47.723932 
L 120.485106 46.520906 
L 121.434894 49.965511 
L 122.384681 57.573932 
L 123.334468 57.796434 
L 124.284255 67.547378 
L 125.234043 69.470561 
L 126.18383 74.454783 
L 127.133617 77.577535 
L 128.083404 77.343988 
L 130.932766 90.653919 
L 131.882553 90.856612 
L 132.83234 94.834712 
L 133.782128 97.53877 
L 134.731915 102.73302 
L 135.681702 104.628555 
L 136.631489 106.180922 
L 137.581277 111.888507 
L 138.531064 114.606912 
L 139.480851 116.442559 
L 140.430638 120.921709 
L 142.330213 127.018208 
L 143.28 128.293738 
L 144.229787 132.158804 
L 145.179574 133.431932 
L 146.129362 134.250261 
L 147.079149 139.441404 
L 148.028936 140.901308 
L 148.978723 142.088759 
L 149.928511 144.415327 
L 150.878298 145.575999 
L 151.828085 146.202722 
L 152.777872 147.511849 
L 153.72766 149.94569 
L 154.677447 151.615544 
L 155.627234 154.777629 
L 156.577021 155.469869 
L 157.526809 159.013443 
L 158.476596 161.410699 
L 159.426383 162.567326 
L 160.37617 162.496095 
L 161.325957 164.882114 
L 162.275745 166.172137 
L 163.225532 166.608565 
L 164.175319 166.548781 
L 165.125106 167.401289 
L 166.074894 169.816153 
L 167.024681 170.578075 
L 167.974468 172.446683 
L 168.924255 172.817407 
L 169.874043 174.193783 
L 170.82383 176.109676 
L 171.773617 176.606994 
L 172.723404 177.461952 
L 173.673191 179.145775 
L 174.622979 179.852553 
L 175.572766 180.892258 
L 176.522553 182.573251 
L 177.47234 182.367208 
L 178.422128 183.777944 
L 179.371915 184.007148 
L 180.321702 185.933985 
L 181.271489 186.115792 
L 182.221277 187.079986 
L 183.171064 187.531819 
L 184.120851 187.850899 
L 185.070638 188.811973 
L 186.020426 189.518891 
L 186.970213 190.922248 
L 187.92 191.669347 
L 188.869787 192.584385 
L 190.769362 193.038439 
L 191.719149 194.485141 
L 192.668936 194.772886 
L 194.568511 195.852565 
L 195.518298 195.894779 
L 196.468085 197.628688 
L 197.417872 197.883797 
L 199.317447 198.947322 
L 200.267234 199.250063 
L 201.217021 200.323849 
L 202.166809 200.474441 
L 203.116596 200.942626 
L 204.066383 201.768027 
L 205.01617 202.120901 
L 205.965957 202.661244 
L 206.915745 202.988389 
L 207.865532 203.009838 
L 208.815319 203.259359 
L 209.765106 204.393645 
L 210.714894 205.111612 
L 211.664681 205.592639 
L 212.614468 206.211499 
L 213.564255 206.220509 
L 214.514043 206.690895 
L 215.46383 206.970283 
L 216.413617 207.482164 
L 217.363404 208.223383 
L 218.313191 208.00805 
L 221.162553 209.373022 
L 222.11234 209.347173 
L 224.011915 210.265962 
L 224.961702 210.753579 
L 226.861277 211.527269 
L 227.811064 212.301514 
L 228.760851 212.225168 
L 229.710638 212.849991 
L 230.660426 213.157569 
L 232.56 213.395895 
L 233.509787 213.657601 
L 234.459574 214.343744 
L 236.359149 214.467157 
L 237.308936 214.913213 
L 238.258723 215.026371 
L 239.208511 215.366882 
L 240.158298 215.49789 
L 242.057872 216.156787 
L 243.00766 216.762964 
L 243.957447 217.096289 
L 244.907234 216.847752 
L 245.857021 217.81556 
L 246.806809 217.656042 
L 247.756596 217.944915 
L 248.706383 217.79801 
L 249.65617 217.919213 
L 250.605957 218.39624 
L 251.555745 218.711662 
L 252.505532 218.544175 
L 253.455319 218.912333 
L 255.354894 219.255769 
L 256.304681 219.780738 
L 257.254468 219.876757 
L 258.204255 220.186397 
L 259.154043 220.21305 
L 262.003404 221.000772 
L 262.953191 221.509322 
L 263.902979 221.489546 
L 264.852766 221.704704 
L 265.802553 221.772799 
L 266.75234 222.115775 
L 269.601702 222.401096 
L 271.501277 222.861808 
L 273.400851 223.20482 
L 274.350638 223.327325 
L 275.300426 223.699993 
L 276.250213 223.882975 
L 279.099574 224.159087 
L 280.049362 224.54787 
L 280.999149 224.758942 
L 281.948936 225.14637 
L 282.898723 225.301748 
L 283.848511 225.288967 
L 287.64766 226.097885 
L 288.597447 226.433367 
L 289.547234 226.453074 
L 291.446809 227.021344 
L 292.396596 227.018451 
L 294.29617 227.532907 
L 296.195745 228.239563 
L 299.994894 229.135609 
L 301.894468 229.636136 
L 304.74383 230.410021 
L 305.693617 230.79055 
L 307.593191 231.234292 
L 308.542979 231.500333 
L 309.492766 231.912999 
L 312.342128 232.802794 
L 316.141277 234.176123 
L 318.990638 235.101836 
L 321.84 236.079223 
L 324.689362 236.872002 
L 327.538723 237.747428 
L 330.388085 238.493249 
L 333.237447 239.215334 
L 339.885957 240.380377 
L 343.685106 240.861891 
L 352.233191 241.583655 
L 361.731064 241.90176 
L 377.877447 242.074891 
L 389.274894 242.105474 
L 389.274894 242.105474 
" clip-path="url(#p43cfd7d0ee)" style="fill: none; stroke: #4c72b0; stroke-opacity: 0.3; stroke-width: 1.5; stroke-linecap: round"/>
   </g>
   <g id="line2d_15">
    <path d="M 54 242.114843 
L 97.690213 242.023427 
L 99.589787 241.760451 
L 100.539574 241.391493 
L 101.489362 240.692622 
L 102.439149 239.385848 
L 103.388936 237.874643 
L 104.338723 234.174733 
L 105.288511 229.664093 
L 107.188085 212.482651 
L 108.137872 200.098761 
L 109.08766 185.246711 
L 111.937021 123.782507 
L 112.886809 109.411917 
L 113.836596 90.167322 
L 114.786383 79.842486 
L 115.73617 64.689402 
L 116.685957 60.334827 
L 119.535319 44.443636 
L 120.485106 46.085969 
L 121.434894 52.44834 
L 122.384681 53.128797 
L 123.334468 60.946947 
L 124.284255 63.350739 
L 125.234043 73.616622 
L 127.133617 77.322748 
L 128.083404 88.568245 
L 129.033191 86.273862 
L 129.982979 91.268484 
L 130.932766 87.88668 
L 131.882553 92.347372 
L 132.83234 96.101122 
L 133.782128 102.266174 
L 134.731915 104.131794 
L 135.681702 106.560785 
L 136.631489 113.615132 
L 137.581277 113.0225 
L 139.480851 121.114573 
L 140.430638 122.781288 
L 141.380426 125.423719 
L 142.330213 126.812471 
L 143.28 131.285853 
L 144.229787 134.554145 
L 145.179574 136.434812 
L 146.129362 142.594881 
L 147.079149 139.892753 
L 148.028936 141.785327 
L 148.978723 141.990918 
L 149.928511 142.812705 
L 150.878298 146.193323 
L 151.828085 147.547195 
L 152.777872 151.233148 
L 153.72766 152.925082 
L 154.677447 155.851862 
L 155.627234 156.109992 
L 156.577021 158.370827 
L 157.526809 159.434304 
L 158.476596 161.305381 
L 159.426383 161.848272 
L 160.37617 162.536771 
L 161.325957 163.028819 
L 162.275745 166.225035 
L 163.225532 167.208525 
L 164.175319 169.725443 
L 165.125106 169.447389 
L 167.024681 172.595045 
L 167.974468 173.983093 
L 168.924255 175.06285 
L 170.82383 176.028791 
L 171.773617 177.70507 
L 172.723404 178.683693 
L 173.673191 179.061607 
L 174.622979 181.072488 
L 177.47234 185.374913 
L 178.422128 185.710917 
L 179.371915 187.329326 
L 180.321702 186.630162 
L 181.271489 187.808532 
L 182.221277 187.88239 
L 184.120851 190.312671 
L 185.070638 190.321037 
L 186.020426 191.373602 
L 186.970213 191.937532 
L 187.92 191.352499 
L 188.869787 192.671423 
L 189.819574 194.362342 
L 190.769362 195.442997 
L 191.719149 195.065761 
L 192.668936 197.131814 
L 193.618723 197.261434 
L 194.568511 197.741536 
L 195.518298 198.845798 
L 196.468085 198.055957 
L 197.417872 199.396561 
L 198.36766 200.241916 
L 199.317447 200.359244 
L 200.267234 201.737131 
L 201.217021 201.266423 
L 202.166809 201.66 
L 203.116596 201.879172 
L 204.066383 201.62704 
L 205.01617 202.479536 
L 205.965957 202.923077 
L 206.915745 203.858399 
L 207.865532 205.716463 
L 208.815319 206.340336 
L 209.765106 206.534779 
L 210.714894 206.322682 
L 211.664681 207.037559 
L 212.614468 207.063306 
L 214.514043 208.108216 
L 215.46383 208.410612 
L 216.413617 208.561726 
L 217.363404 208.470409 
L 218.313191 209.827209 
L 219.262979 209.707539 
L 221.162553 210.011415 
L 222.11234 211.136447 
L 223.062128 211.65001 
L 224.011915 211.535043 
L 224.961702 212.00564 
L 225.911489 212.268592 
L 226.861277 212.691266 
L 227.811064 212.492481 
L 228.760851 213.443699 
L 229.710638 213.00504 
L 230.660426 213.681425 
L 231.610213 213.75285 
L 232.56 214.198537 
L 233.509787 214.986135 
L 234.459574 214.38265 
L 235.409362 214.838765 
L 236.359149 215.632746 
L 237.308936 215.579479 
L 238.258723 215.848843 
L 239.208511 215.661348 
L 241.108085 216.70332 
L 242.057872 216.855566 
L 243.00766 217.163811 
L 243.957447 217.271237 
L 245.857021 217.888041 
L 246.806809 218.724648 
L 247.756596 218.767159 
L 248.706383 219.329113 
L 249.65617 219.512232 
L 250.605957 219.894271 
L 251.555745 219.316806 
L 252.505532 219.985598 
L 253.455319 219.729769 
L 254.405106 220.274316 
L 255.354894 220.327216 
L 256.304681 220.0207 
L 257.254468 220.710063 
L 258.204255 220.501995 
L 259.154043 221.128013 
L 260.10383 221.561243 
L 261.053617 221.494124 
L 262.003404 221.787276 
L 262.953191 221.417006 
L 265.802553 222.509462 
L 266.75234 222.48312 
L 267.702128 222.579391 
L 268.651915 223.105913 
L 269.601702 223.442043 
L 270.551489 223.310584 
L 271.501277 223.454586 
L 272.451064 223.451569 
L 273.400851 223.743859 
L 274.350638 223.86596 
L 275.300426 223.840592 
L 277.2 224.490726 
L 278.149787 225.128717 
L 279.099574 225.421138 
L 280.049362 225.393672 
L 280.999149 225.519412 
L 281.948936 225.198228 
L 283.848511 226.092823 
L 284.798298 226.251054 
L 285.748085 226.176342 
L 286.697872 226.429474 
L 289.547234 226.867279 
L 290.497021 227.119232 
L 291.446809 226.952978 
L 292.396596 227.732015 
L 293.346383 227.867191 
L 294.29617 228.171975 
L 295.245957 228.226771 
L 296.195745 228.51003 
L 297.145532 228.604196 
L 299.045106 229.673979 
L 299.994894 229.477787 
L 303.794043 230.65718 
L 306.643404 231.335084 
L 308.542979 232.152446 
L 309.492766 232.248377 
L 311.39234 232.873149 
L 314.241702 233.896886 
L 316.141277 234.530397 
L 318.040851 235.263743 
L 320.890213 235.849569 
L 324.689362 237.097431 
L 325.639149 237.272537 
L 328.488511 238.160463 
L 330.388085 238.624615 
L 333.237447 239.250071 
L 335.137021 239.622401 
L 337.036596 240.070197 
L 340.835745 240.517283 
L 342.735319 240.772779 
L 345.584681 241.113945 
L 356.03234 241.750964 
L 364.580426 241.963646 
L 377.877447 242.076542 
L 389.274894 242.10581 
L 389.274894 242.10581 
" clip-path="url(#p43cfd7d0ee)" style="fill: none; stroke: #dd8452; stroke-opacity: 0.3; stroke-width: 1.5; stroke-linecap: round"/>
   </g>
   <g id="line2d_16">
    <path d="M 54 242.114879 
L 97.690213 242.023834 
L 99.589787 241.744142 
L 100.539574 241.368767 
L 101.489362 240.663643 
L 102.439149 239.379838 
L 103.388936 237.317391 
L 104.338723 233.935669 
L 105.288511 229.126453 
L 106.238298 221.327671 
L 107.188085 210.465873 
L 108.137872 197.592207 
L 110.037447 165.431048 
L 111.937021 124.546928 
L 112.886809 103.421886 
L 113.836596 85.829937 
L 114.786383 70.443862 
L 116.685957 50.095174 
L 117.635745 46.543981 
L 118.585532 44.443636 
L 119.535319 46.824891 
L 120.485106 46.171296 
L 121.434894 46.542113 
L 122.384681 52.130303 
L 123.334468 53.972264 
L 124.284255 60.578628 
L 125.234043 61.73244 
L 126.18383 66.538914 
L 127.133617 72.305167 
L 128.083404 71.766525 
L 129.033191 81.190095 
L 129.982979 83.611617 
L 130.932766 89.635193 
L 131.882553 91.329683 
L 132.83234 93.962032 
L 133.782128 94.769303 
L 134.731915 99.447233 
L 136.631489 103.965946 
L 137.581277 109.53641 
L 138.531064 111.84528 
L 139.480851 113.348368 
L 140.430638 117.055608 
L 141.380426 119.551638 
L 142.330213 125.971304 
L 143.28 126.084402 
L 144.229787 129.743079 
L 145.179574 131.3791 
L 146.129362 130.567599 
L 147.079149 135.210892 
L 148.028936 136.693269 
L 149.928511 141.557702 
L 150.878298 142.7272 
L 151.828085 144.589313 
L 152.777872 145.683219 
L 153.72766 148.086252 
L 154.677447 149.253081 
L 155.627234 152.523409 
L 156.577021 153.238387 
L 157.526809 156.041125 
L 158.476596 157.721515 
L 159.426383 158.592379 
L 160.37617 161.212871 
L 161.325957 163.009777 
L 162.275745 163.021433 
L 163.225532 164.559428 
L 164.175319 164.985781 
L 165.125106 166.972955 
L 166.074894 168.004739 
L 167.024681 168.863835 
L 167.974468 169.907001 
L 168.924255 170.676921 
L 169.874043 172.022362 
L 170.82383 174.055795 
L 171.773617 174.306111 
L 172.723404 175.918161 
L 173.673191 177.144499 
L 174.622979 177.515127 
L 175.572766 178.890758 
L 177.47234 180.509578 
L 178.422128 181.25766 
L 179.371915 181.802971 
L 180.321702 183.704301 
L 181.271489 183.558508 
L 182.221277 185.57726 
L 183.171064 185.572349 
L 184.120851 186.381166 
L 185.070638 187.442558 
L 186.020426 188.053548 
L 186.970213 188.890095 
L 187.92 190.427369 
L 190.769362 190.983945 
L 191.719149 193.057071 
L 192.668936 192.594165 
L 193.618723 193.873087 
L 194.568511 194.678178 
L 195.518298 194.815168 
L 196.468085 196.812353 
L 197.417872 196.782868 
L 199.317447 197.590179 
L 200.267234 197.697002 
L 201.217021 198.857769 
L 202.166809 199.152241 
L 203.116596 199.867818 
L 204.066383 200.858039 
L 205.01617 201.279278 
L 205.965957 201.863834 
L 208.815319 201.883895 
L 209.765106 202.864728 
L 210.714894 204.041685 
L 211.664681 204.343095 
L 213.564255 205.390526 
L 216.413617 206.391947 
L 217.363404 207.302839 
L 218.313191 207.093383 
L 219.262979 207.570228 
L 220.212766 207.74071 
L 221.162553 208.365304 
L 222.11234 207.896133 
L 223.062128 208.947817 
L 225.911489 209.96849 
L 226.861277 210.562143 
L 227.811064 211.488806 
L 228.760851 211.33817 
L 229.710638 212.259408 
L 232.56 212.705583 
L 233.509787 212.547813 
L 234.459574 213.509067 
L 235.409362 213.695453 
L 236.359149 213.384567 
L 237.308936 214.033801 
L 239.208511 214.748356 
L 240.158298 214.788411 
L 241.108085 215.026757 
L 242.057872 215.474876 
L 243.00766 215.677705 
L 243.957447 216.513204 
L 244.907234 216.397801 
L 245.857021 216.823967 
L 246.806809 216.451366 
L 247.756596 216.850407 
L 248.706383 216.957867 
L 249.65617 217.200913 
L 250.605957 217.325105 
L 251.555745 217.968105 
L 252.505532 217.843291 
L 253.455319 218.235702 
L 255.354894 218.466004 
L 257.254468 219.054933 
L 258.204255 219.709215 
L 259.154043 219.497004 
L 260.10383 219.646427 
L 261.053617 220.120131 
L 262.003404 220.298584 
L 262.953191 220.76261 
L 263.902979 221.060934 
L 264.852766 221.193559 
L 265.802553 220.998768 
L 266.75234 221.160794 
L 267.702128 221.733497 
L 268.651915 221.541841 
L 269.601702 221.659889 
L 270.551489 222.132817 
L 271.501277 222.12608 
L 273.400851 222.542814 
L 274.350638 222.715651 
L 275.300426 223.05867 
L 276.250213 223.07823 
L 278.149787 223.307877 
L 279.099574 223.408883 
L 280.049362 223.927323 
L 280.999149 224.190345 
L 281.948936 224.58287 
L 282.898723 224.839629 
L 283.848511 224.64662 
L 284.798298 225.033353 
L 285.748085 225.279672 
L 286.697872 225.258487 
L 288.597447 225.840546 
L 290.497021 226.2389 
L 291.446809 226.693462 
L 292.396596 226.534337 
L 294.29617 227.120667 
L 297.145532 228.047871 
L 299.045106 228.272961 
L 299.994894 228.8199 
L 303.794043 229.720032 
L 304.74383 230.226094 
L 308.542979 231.106208 
L 310.442553 231.926651 
L 313.291915 232.867275 
L 317.091064 234.229476 
L 318.990638 234.909788 
L 327.538723 237.631933 
L 329.438298 238.119118 
L 332.28766 238.918934 
L 336.086809 239.717852 
L 337.986383 240.035924 
L 342.735319 240.726356 
L 350.333617 241.454388 
L 357.931915 241.792239 
L 364.580426 241.953304 
L 375.977872 242.066713 
L 389.274894 242.104964 
L 389.274894 242.104964 
" clip-path="url(#p43cfd7d0ee)" style="fill: none; stroke: #55a868; stroke-opacity: 0.3; stroke-width: 1.5; stroke-linecap: round"/>
   </g>
   <g id="line2d_17">
    <path d="M 54 197.381954 
L 58.748936 197.248789 
L 63.497872 196.842604 
L 67.297021 196.307208 
L 71.09617 195.564007 
L 74.895319 194.582686 
L 77.744681 193.663349 
L 80.594043 192.554174 
L 83.443404 191.216891 
L 85.342979 190.157476 
L 87.242553 188.859393 
L 88.19234 188.0234 
L 89.142128 187.504523 
L 90.091915 186.843195 
L 91.041702 186.421785 
L 91.991489 185.094284 
L 92.941277 184.187939 
L 93.891064 183.515381 
L 94.840851 181.060961 
L 96.740426 177.203934 
L 97.690213 177.437434 
L 98.64 177.085491 
L 99.589787 176.322131 
L 100.539574 170.883373 
L 102.439149 161.202846 
L 103.388936 126.352264 
L 104.338723 159.453889 
L 105.288511 148.60319 
L 106.238298 185.714469 
L 107.188085 89.47648 
L 108.137872 113.846555 
L 109.08766 169.973969 
L 110.037447 176.481587 
L 110.987234 215.299808 
L 111.937021 127.584272 
L 112.886809 217.352806 
L 113.836596 149.328701 
L 114.786383 214.111966 
L 115.73617 165.616289 
L 116.685957 218.233707 
L 117.635745 173.531929 
L 118.585532 134.634675 
L 119.535319 188.258075 
L 120.485106 113.946123 
L 121.434894 221.20582 
L 122.384681 44.443636 
L 123.334468 212.824399 
L 124.284255 90.393029 
L 125.234043 156.989775 
L 126.18383 156.017129 
L 127.133617 71.002044 
L 128.083404 181.001535 
L 129.033191 120.644734 
L 129.982979 187.51552 
L 130.932766 84.570511 
L 131.882553 165.181157 
L 132.83234 108.996636 
L 133.782128 185.890564 
L 134.731915 176.972051 
L 135.681702 146.38122 
L 136.631489 209.314745 
L 137.581277 88.705445 
L 138.531064 189.820901 
L 139.480851 50.114325 
L 140.430638 185.269097 
L 141.380426 113.236221 
L 142.330213 157.626116 
L 143.28 165.293518 
L 144.229787 162.002471 
L 145.179574 196.364869 
L 146.129362 97.621708 
L 147.079149 222.708956 
L 148.028936 135.440332 
L 148.978723 213.415245 
L 149.928511 118.774743 
L 150.878298 181.737163 
L 152.777872 110.223839 
L 153.72766 148.907112 
L 154.677447 69.752129 
L 155.627234 154.758979 
L 156.577021 49.204268 
L 157.526809 122.429312 
L 158.476596 84.112881 
L 159.426383 111.752137 
L 160.37617 160.011467 
L 161.325957 87.362754 
L 162.275745 186.104029 
L 163.225532 81.391972 
L 164.175319 186.794391 
L 165.125106 48.511497 
L 166.074894 165.707481 
L 167.024681 136.798244 
L 167.974468 131.876423 
L 168.924255 150.714143 
L 169.874043 91.466419 
L 170.82383 178.943873 
L 171.773617 71.852705 
L 172.723404 191.127082 
L 173.673191 97.528306 
L 174.622979 165.401499 
L 175.572766 126.06665 
L 176.522553 137.185268 
L 177.47234 162.363812 
L 178.422128 108.444622 
L 179.371915 179.231759 
L 180.321702 105.869725 
L 181.271489 200.466527 
L 182.221277 120.680842 
L 183.171064 182.18743 
L 184.120851 129.152854 
L 185.070638 156.777199 
L 186.020426 168.171304 
L 186.970213 106.129135 
L 187.92 179.615953 
L 188.869787 123.764475 
L 189.819574 197.378111 
L 190.769362 138.517257 
L 191.719149 169.821626 
L 192.668936 134.590848 
L 193.618723 146.882828 
L 194.568511 176.447737 
L 195.518298 107.87134 
L 196.468085 193.704265 
L 197.417872 114.359711 
L 198.36766 184.023425 
L 199.317447 117.218337 
L 200.267234 169.195703 
L 201.217021 159.734283 
L 202.166809 141.689807 
L 203.116596 166.229179 
L 204.066383 123.282405 
L 205.01617 202.407022 
L 205.965957 123.86222 
L 206.915745 194.707487 
L 207.865532 108.564118 
L 208.815319 151.880602 
L 209.765106 117.95831 
L 210.714894 105.820194 
L 211.664681 165.698022 
L 212.614468 106.363201 
L 213.564255 169.452068 
L 214.514043 76.321391 
L 215.46383 170.481861 
L 216.413617 111.15135 
L 217.363404 153.624566 
L 218.313191 133.494607 
L 219.262979 122.947221 
L 220.212766 165.939803 
L 221.162553 127.034839 
L 222.11234 175.019582 
L 223.062128 117.058368 
L 224.011915 152.216167 
L 224.961702 140.176395 
L 225.911489 141.162961 
L 226.861277 164.152144 
L 227.811064 121.262071 
L 228.760851 180.58813 
L 229.710638 126.363873 
L 230.660426 192.211767 
L 231.610213 140.682181 
L 232.56 188.773018 
L 233.509787 140.950009 
L 234.459574 152.339826 
L 235.409362 167.897079 
L 236.359149 155.328799 
L 237.308936 187.710599 
L 238.258723 140.089435 
L 239.208511 184.810931 
L 240.158298 118.571421 
L 241.108085 168.026379 
L 242.057872 138.149201 
L 243.00766 145.920783 
L 243.957447 151.746854 
L 244.907234 150.481695 
L 245.857021 161.128735 
L 246.806809 122.737216 
L 247.756596 183.530822 
L 248.706383 144.7201 
L 249.65617 169.473859 
L 250.605957 137.660525 
L 251.555745 139.103015 
L 252.505532 168.479299 
L 253.455319 128.608259 
L 254.405106 166.039874 
L 255.354894 122.560783 
L 256.304681 171.218576 
L 257.254468 109.178368 
L 258.204255 142.444839 
L 259.154043 132.30102 
L 260.10383 125.324529 
L 261.053617 158.622295 
L 262.003404 109.998452 
L 262.953191 166.565617 
L 263.902979 107.251652 
L 264.852766 160.909145 
L 265.802553 109.682998 
L 266.75234 139.975625 
L 267.702128 139.753289 
L 268.651915 121.115125 
L 269.601702 147.999583 
L 270.551489 100.297383 
L 271.501277 156.40009 
L 272.451064 108.62856 
L 273.400851 153.993959 
L 274.350638 117.901087 
L 275.300426 131.631081 
L 276.250213 133.203409 
L 277.2 121.965224 
L 278.149787 141.429412 
L 279.099574 109.678269 
L 280.049362 153.877961 
L 280.999149 100.08979 
L 281.948936 140.861607 
L 282.898723 121.39648 
L 283.848511 135.197367 
L 284.798298 140.979295 
L 285.748085 115.011342 
L 286.697872 150.843998 
L 287.64766 109.422451 
L 288.597447 157.865288 
L 289.547234 121.266175 
L 290.497021 142.867856 
L 291.446809 116.264094 
L 292.396596 120.990716 
L 293.346383 139.487875 
L 294.29617 114.003144 
L 295.245957 148.57382 
L 296.195745 105.228579 
L 297.145532 143.659075 
L 298.095319 99.270813 
L 299.045106 138.865932 
L 299.994894 119.30518 
L 300.944681 124.90795 
L 301.894468 136.691772 
L 302.844255 106.38574 
L 303.794043 137.094056 
L 304.74383 111.194413 
L 305.693617 135.627868 
L 306.643404 111.798668 
L 307.593191 129.545544 
L 308.542979 121.484387 
L 309.492766 118.05583 
L 310.442553 132.49225 
L 311.39234 102.391937 
L 312.342128 135.495517 
L 313.291915 108.81972 
L 314.241702 125.558395 
L 315.191489 112.810991 
L 317.091064 121.168981 
L 318.040851 112.733009 
L 318.990638 132.035306 
L 319.940426 107.229532 
L 320.890213 135.387594 
L 321.84 112.044501 
L 322.789787 129.181418 
L 323.739574 122.189522 
L 324.689362 123.623842 
L 325.639149 135.405914 
L 326.588936 123.319534 
L 327.538723 142.607821 
L 328.488511 127.738091 
L 329.438298 146.536472 
L 330.388085 134.693921 
L 331.337872 147.290521 
L 332.28766 144.81771 
L 333.237447 146.020269 
L 334.187234 151.521221 
L 335.137021 143.311505 
L 336.086809 156.619226 
L 337.036596 148.928889 
L 337.986383 157.211866 
L 338.93617 155.014813 
L 339.885957 156.636041 
L 340.835745 160.333489 
L 341.785532 163.534665 
L 342.735319 169.410379 
L 343.685106 163.979353 
L 344.634894 171.126073 
L 345.584681 167.156403 
L 346.534468 173.191958 
L 347.484255 174.6622 
L 348.434043 177.04808 
L 349.38383 179.130414 
L 350.333617 178.907855 
L 351.283404 182.011031 
L 352.233191 180.783705 
L 353.182979 187.578597 
L 354.132766 185.759915 
L 355.082553 188.596455 
L 356.03234 188.988353 
L 356.982128 191.722813 
L 357.931915 193.023542 
L 358.881702 194.110952 
L 359.831489 197.159296 
L 360.781277 196.466685 
L 361.731064 199.328189 
L 362.680851 199.71862 
L 363.630638 200.505803 
L 366.48 203.850107 
L 367.429787 204.347561 
L 368.379574 206.292027 
L 369.329362 206.804256 
L 370.279149 207.725241 
L 371.228936 207.83555 
L 372.178723 209.427579 
L 373.128511 210.394116 
L 374.078298 211.133332 
L 375.028085 212.515779 
L 375.977872 212.880407 
L 376.92766 214.055139 
L 377.877447 214.356446 
L 379.777021 216.073355 
L 380.726809 216.470905 
L 381.676596 217.302387 
L 382.626383 217.791692 
L 383.57617 218.588594 
L 384.525957 219.021682 
L 385.475745 219.806439 
L 386.425532 220.230888 
L 388.325106 221.385794 
L 389.274894 221.840044 
L 389.274894 221.840044 
" clip-path="url(#p43cfd7d0ee)" style="fill: none; stroke: #c44e52; stroke-opacity: 0.3; stroke-width: 1.5; stroke-linecap: round"/>
   </g>
   <g id="line2d_18">
    <path d="M 54 222.310188 
L 61.598298 222.196688 
L 69.196596 221.845814 
L 75.845106 221.31798 
L 81.54383 220.670204 
L 86.292766 219.940655 
L 89.142128 219.275505 
L 90.091915 219.271757 
L 91.041702 219.100204 
L 91.991489 218.781908 
L 92.941277 218.257694 
L 93.891064 217.548425 
L 94.840851 217.461455 
L 95.790638 216.670564 
L 96.740426 218.441283 
L 97.690213 215.841337 
L 98.64 218.203922 
L 99.589787 216.598971 
L 100.539574 216.218407 
L 101.489362 214.761138 
L 102.439149 217.03625 
L 104.338723 207.203425 
L 105.288511 222.073723 
L 106.238298 189.548334 
L 107.188085 228.383795 
L 108.137872 195.739831 
L 109.08766 220.01162 
L 110.037447 222.036236 
L 110.987234 168.949606 
L 111.937021 238.964918 
L 112.886809 142.181627 
L 113.836596 227.840369 
L 114.786383 112.083322 
L 115.73617 212.936346 
L 116.685957 127.469803 
L 117.635745 201.806107 
L 118.585532 210.886023 
L 119.535319 140.261368 
L 120.485106 220.582663 
L 121.434894 54.522674 
L 122.384681 231.136998 
L 123.334468 123.973675 
L 124.284255 225.227783 
L 125.234043 156.616856 
L 126.18383 192.481078 
L 127.133617 153.859993 
L 128.083404 164.813343 
L 129.033191 225.747786 
L 129.982979 157.470599 
L 130.932766 241.566573 
L 131.882553 96.908303 
L 132.83234 221.925038 
L 133.782128 115.889633 
L 134.731915 172.334036 
L 135.681702 216.812162 
L 136.631489 121.486616 
L 137.581277 239.78535 
L 138.531064 113.483193 
L 139.480851 239.693874 
L 140.430638 85.747191 
L 141.380426 230.274623 
L 142.330213 128.59284 
L 143.28 158.38171 
L 144.229787 166.639528 
L 145.179574 79.975577 
L 146.129362 219.436067 
L 147.079149 61.450847 
L 148.028936 230.163875 
L 148.978723 44.443636 
L 149.928511 216.637346 
L 150.878298 148.493715 
L 151.828085 149.38865 
L 152.777872 187.655682 
L 153.72766 109.959601 
L 154.677447 219.649261 
L 155.627234 102.00019 
L 156.577021 234.477018 
L 157.526809 105.529211 
L 158.476596 183.700768 
L 159.426383 150.148534 
L 160.37617 128.404635 
L 161.325957 188.697474 
L 162.275745 89.268087 
L 163.225532 229.084292 
L 164.175319 59.221827 
L 165.125106 213.676068 
L 166.074894 71.595504 
L 167.024681 149.889043 
L 167.974468 165.243736 
L 168.924255 129.827041 
L 169.874043 217.074467 
L 170.82383 84.083416 
L 171.773617 235.706351 
L 172.723404 96.887741 
L 173.673191 227.86032 
L 174.622979 140.102472 
L 175.572766 184.458057 
L 176.522553 183.044629 
L 177.47234 146.768232 
L 178.422128 225.223137 
L 179.371915 117.620517 
L 180.321702 228.885255 
L 181.271489 99.919699 
L 182.221277 214.290688 
L 183.171064 157.188566 
L 184.120851 184.627653 
L 185.070638 178.42279 
L 186.020426 132.819083 
L 186.970213 231.104204 
L 187.92 141.547515 
L 188.869787 231.025379 
L 189.819574 119.220203 
L 190.769362 206.431879 
L 191.719149 157.554623 
L 192.668936 177.136078 
L 193.618723 192.064939 
L 194.568511 145.226064 
L 195.518298 231.745617 
L 196.468085 130.973328 
L 197.417872 231.472498 
L 198.36766 137.729992 
L 199.317447 224.327793 
L 200.267234 145.979069 
L 201.217021 192.021628 
L 202.166809 188.481753 
L 203.116596 148.309703 
L 204.066383 217.148231 
L 205.01617 91.054274 
L 205.965957 219.562633 
L 206.915745 114.089401 
L 207.865532 207.038184 
L 208.815319 174.337542 
L 209.765106 176.334169 
L 210.714894 198.828961 
L 211.664681 128.922342 
L 212.614468 213.695116 
L 213.564255 127.879436 
L 214.514043 229.579796 
L 215.46383 114.528534 
L 216.413617 197.346438 
L 217.363404 148.846453 
L 218.313191 162.113123 
L 219.262979 199.691274 
L 220.212766 132.760797 
L 221.162553 218.733245 
L 222.11234 139.029777 
L 223.062128 218.359552 
L 224.011915 167.45957 
L 224.961702 191.318762 
L 225.911489 188.641548 
L 226.861277 171.137822 
L 227.811064 221.896759 
L 228.760851 160.953918 
L 229.710638 229.433378 
L 230.660426 143.547246 
L 231.610213 215.608259 
L 232.56 156.390389 
L 233.509787 203.938366 
L 234.459574 205.977385 
L 235.409362 189.218407 
L 236.359149 214.709236 
L 237.308936 151.782551 
L 238.258723 224.487806 
L 239.208511 153.01191 
L 240.158298 230.364898 
L 241.108085 168.486283 
L 242.057872 208.849494 
L 243.00766 199.952514 
L 243.957447 178.347228 
L 244.907234 217.572452 
L 245.857021 171.071635 
L 246.806809 230.016739 
L 247.756596 167.490901 
L 248.706383 217.186876 
L 249.65617 173.172956 
L 250.605957 187.813682 
L 251.555745 189.095709 
L 252.505532 161.360474 
L 253.455319 213.556996 
L 254.405106 160.838588 
L 255.354894 219.653862 
L 256.304681 134.62928 
L 257.254468 214.68946 
L 258.204255 152.048322 
L 259.154043 187.626479 
L 260.10383 186.703128 
L 261.053617 155.905632 
L 262.003404 207.512265 
L 262.953191 140.194028 
L 263.902979 218.239378 
L 264.852766 141.408477 
L 265.802553 209.262258 
L 266.75234 167.267464 
L 267.702128 166.662076 
L 268.651915 195.373234 
L 269.601702 148.945244 
L 270.551489 210.585776 
L 271.501277 140.769734 
L 272.451064 204.368335 
L 273.400851 153.226424 
L 274.350638 197.284863 
L 275.300426 174.228537 
L 276.250213 172.099279 
L 277.2 182.637745 
L 278.149787 162.514317 
L 279.099574 209.648802 
L 280.049362 153.390191 
L 280.999149 212.959078 
L 281.948936 161.314266 
L 282.898723 190.459387 
L 283.848511 177.703711 
L 284.798298 178.412091 
L 285.748085 201.673805 
L 286.697872 166.530589 
L 287.64766 214.542613 
L 288.597447 156.451007 
L 289.547234 201.678785 
L 290.497021 171.430067 
L 291.446809 199.442116 
L 293.346383 177.826067 
L 294.29617 202.870526 
L 295.245957 158.915493 
L 296.195745 208.71602 
L 297.145532 153.44019 
L 298.095319 204.263418 
L 299.045106 166.386343 
L 299.994894 189.637852 
L 300.944681 183.37003 
L 301.894468 164.441759 
L 302.844255 198.077962 
L 303.794043 160.031872 
L 304.74383 201.341991 
L 305.693617 163.864295 
L 306.643404 199.734029 
L 307.593191 177.570777 
L 308.542979 180.304004 
L 309.492766 177.946325 
L 310.442553 165.988512 
L 311.39234 196.697576 
L 312.342128 166.764539 
L 313.291915 189.595232 
L 314.241702 166.305516 
L 315.191489 184.01349 
L 316.141277 174.596108 
L 317.091064 172.915218 
L 318.040851 189.247225 
L 318.990638 166.459812 
L 319.940426 193.64758 
L 320.890213 163.907999 
L 321.84 188.897876 
L 322.789787 173.500462 
L 323.739574 187.665633 
L 324.689362 182.307173 
L 325.639149 174.682265 
L 326.588936 194.556843 
L 327.538723 174.100477 
L 328.488511 193.365178 
L 329.438298 176.459467 
L 330.388085 194.761596 
L 331.337872 183.509878 
L 332.28766 191.387429 
L 333.237447 191.843512 
L 334.187234 189.068054 
L 335.137021 199.952832 
L 336.086809 192.591415 
L 337.036596 201.450202 
L 337.986383 196.302034 
L 338.93617 203.286452 
L 339.885957 202.761318 
L 340.835745 201.585265 
L 341.785532 202.11172 
L 342.735319 200.274661 
L 343.685106 208.010585 
L 344.634894 203.967532 
L 345.584681 210.744205 
L 346.534468 207.197089 
L 347.484255 209.369758 
L 348.434043 208.497794 
L 349.38383 208.750209 
L 350.333617 213.820625 
L 351.283404 212.785223 
L 352.233191 216.479557 
L 353.182979 211.8695 
L 354.132766 216.035426 
L 355.082553 214.663206 
L 356.03234 217.122565 
L 356.982128 216.706925 
L 357.931915 217.990518 
L 358.881702 218.985936 
L 359.831489 217.493466 
L 360.781277 220.140231 
L 361.731064 218.980537 
L 362.680851 220.629136 
L 363.630638 221.483265 
L 364.580426 222.152237 
L 366.48 222.824648 
L 367.429787 223.856311 
L 368.379574 223.879877 
L 370.279149 225.04713 
L 371.228936 226.131767 
L 372.178723 226.197434 
L 373.128511 226.408083 
L 374.078298 226.788941 
L 375.028085 226.661586 
L 375.977872 227.545167 
L 376.92766 227.746509 
L 377.877447 228.553348 
L 379.777021 228.695121 
L 380.726809 229.328426 
L 381.676596 229.545998 
L 382.626383 230.036299 
L 384.525957 230.710287 
L 385.475745 230.686117 
L 386.425532 231.141938 
L 388.325106 231.601145 
L 389.274894 231.969863 
L 389.274894 231.969863 
" clip-path="url(#p43cfd7d0ee)" style="fill: none; stroke: #8172b3; stroke-opacity: 0.3; stroke-width: 1.5; stroke-linecap: round"/>
   </g>
   <g id="line2d_19">
    <path d="M 54 193.030615 
L 57.799149 192.927969 
L 61.598298 192.61661 
L 65.397447 192.085766 
L 69.196596 191.316194 
L 72.995745 190.27781 
L 75.845106 189.296078 
L 78.694468 188.110528 
L 81.54383 186.684956 
L 84.393191 184.964 
L 87.242553 182.861792 
L 89.142128 181.220415 
L 91.041702 179.186335 
L 93.891064 175.938312 
L 94.840851 173.986522 
L 95.790638 172.498811 
L 96.740426 169.941756 
L 97.690213 170.088746 
L 98.64 166.241649 
L 99.589787 165.93233 
L 100.539574 163.556471 
L 101.489362 162.275973 
L 102.439149 157.738001 
L 103.388936 141.754478 
L 104.338723 155.5017 
L 105.288511 142.790357 
L 106.238298 155.116057 
L 107.188085 131.469463 
L 108.137872 155.326019 
L 109.08766 139.969116 
L 110.037447 112.899728 
L 110.987234 102.558904 
L 111.937021 44.443636 
L 112.886809 143.598654 
L 113.836596 114.348127 
L 114.786383 137.529269 
L 115.73617 83.955583 
L 116.685957 122.959566 
L 118.585532 91.837021 
L 119.535319 199.334811 
L 120.485106 164.87859 
L 121.434894 215.013346 
L 122.384681 116.76955 
L 123.334468 180.562199 
L 124.284255 135.501057 
L 125.234043 188.616783 
L 126.18383 178.602221 
L 127.133617 142.383192 
L 128.083404 190.243 
L 129.033191 146.870092 
L 129.982979 174.882741 
L 130.932766 94.658382 
L 131.882553 181.773569 
L 132.83234 155.103687 
L 133.782128 175.959634 
L 134.731915 185.808488 
L 135.681702 150.408585 
L 136.631489 176.095898 
L 137.581277 130.132734 
L 138.531064 194.454278 
L 139.480851 126.550404 
L 140.430638 184.502411 
L 141.380426 155.327129 
L 142.330213 168.782506 
L 143.28 159.153225 
L 144.229787 170.089754 
L 145.179574 194.901845 
L 146.129362 120.53223 
L 147.079149 199.996644 
L 148.028936 125.403874 
L 148.978723 185.156389 
L 149.928511 111.679482 
L 150.878298 172.573756 
L 151.828085 150.896724 
L 152.777872 149.637291 
L 153.72766 177.921797 
L 154.677447 153.613669 
L 155.627234 158.958954 
L 156.577021 96.166156 
L 157.526809 167.196872 
L 158.476596 163.05713 
L 159.426383 170.806364 
L 160.37617 187.614733 
L 161.325957 156.389401 
L 162.275745 172.400691 
L 163.225532 119.634611 
L 164.175319 187.174361 
L 165.125106 159.841014 
L 166.074894 196.218489 
L 167.024681 170.145352 
L 167.974468 156.544523 
L 168.924255 170.847153 
L 169.874043 159.655938 
L 170.82383 186.111805 
L 171.773617 143.181353 
L 172.723404 188.414145 
L 173.673191 142.904111 
L 174.622979 177.356379 
L 175.572766 152.334681 
L 176.522553 171.154063 
L 177.47234 170.518993 
L 178.422128 166.843913 
L 179.371915 195.966471 
L 180.321702 176.584792 
L 181.271489 199.686739 
L 182.221277 146.479879 
L 183.171064 163.773833 
L 184.120851 151.565753 
L 185.070638 191.482694 
L 186.020426 185.294551 
L 186.970213 137.706103 
L 187.92 169.779903 
L 188.869787 159.103361 
L 189.819574 186.809807 
L 190.769362 164.069135 
L 191.719149 188.897513 
L 192.668936 157.727597 
L 193.618723 163.753049 
L 194.568511 174.166136 
L 195.518298 135.717994 
L 196.468085 176.332803 
L 197.417872 144.588357 
L 198.36766 182.402507 
L 199.317447 147.078852 
L 200.267234 174.01113 
L 202.166809 146.970939 
L 203.116596 160.269889 
L 204.066383 144.95999 
L 205.01617 196.833726 
L 205.965957 150.884558 
L 206.915745 181.705796 
L 207.865532 129.077315 
L 208.815319 146.12105 
L 209.765106 132.349072 
L 210.714894 147.729716 
L 211.664681 165.842058 
L 212.614468 146.499067 
L 213.564255 162.572472 
L 214.514043 125.8957 
L 215.46383 181.758634 
L 216.413617 156.267651 
L 217.363404 177.459543 
L 218.313191 155.734281 
L 219.262979 148.134449 
L 220.212766 155.810958 
L 221.162553 147.99597 
L 222.11234 166.373854 
L 223.062128 147.121134 
L 224.011915 149.503033 
L 224.961702 163.160524 
L 225.911489 162.243154 
L 226.861277 158.624363 
L 227.811064 137.949993 
L 228.760851 160.784038 
L 229.710638 135.396145 
L 230.660426 171.658866 
L 231.610213 159.452584 
L 232.56 175.629077 
L 233.509787 147.637793 
L 234.459574 146.183078 
L 235.409362 141.948465 
L 236.359149 147.703599 
L 237.308936 181.206603 
L 238.258723 165.69891 
L 239.208511 172.089296 
L 240.158298 133.302354 
L 241.108085 171.437545 
L 242.057872 146.758586 
L 243.00766 156.751752 
L 243.957447 137.512046 
L 244.907234 147.660936 
L 245.857021 144.333697 
L 246.806809 139.884283 
L 247.756596 161.393779 
L 248.706383 151.03671 
L 249.65617 155.535156 
L 250.605957 146.989799 
L 251.555745 148.834196 
L 252.505532 167.105365 
L 253.455319 138.882284 
L 254.405106 146.406854 
L 255.354894 130.299446 
L 256.304681 162.223013 
L 257.254468 137.361225 
L 258.204255 149.235557 
L 259.154043 136.335568 
L 260.10383 127.013208 
L 261.053617 147.697642 
L 262.003404 115.476745 
L 262.953191 152.631903 
L 263.902979 121.038576 
L 264.852766 154.302805 
L 265.802553 119.626684 
L 267.702128 137.614359 
L 268.651915 126.893185 
L 269.601702 146.35357 
L 270.551489 125.041231 
L 271.501277 148.320924 
L 272.451064 124.872202 
L 273.400851 139.314502 
L 274.350638 127.174147 
L 275.300426 135.720186 
L 277.2 147.531542 
L 278.149787 142.934765 
L 279.099574 120.986236 
L 280.049362 133.885487 
L 280.999149 113.698187 
L 281.948936 137.221188 
L 282.898723 139.222993 
L 283.848511 133.707119 
L 284.798298 135.294642 
L 285.748085 120.851783 
L 286.697872 122.800231 
L 287.64766 112.640743 
L 288.597447 140.147952 
L 289.547234 129.624457 
L 290.497021 130.875019 
L 291.446809 121.673201 
L 292.396596 115.977562 
L 293.346383 133.245691 
L 294.29617 124.625501 
L 295.245957 143.729955 
L 296.195745 123.388394 
L 297.145532 145.645911 
L 298.095319 110.935228 
L 299.045106 121.466829 
L 299.994894 120.568353 
L 300.944681 126.680684 
L 301.894468 134.414649 
L 302.844255 113.66794 
L 303.794043 129.206303 
L 304.74383 116.472767 
L 305.693617 125.910157 
L 306.643404 104.219429 
L 307.593191 118.895423 
L 308.542979 123.88082 
L 309.492766 133.072338 
L 310.442553 126.410853 
L 311.39234 106.50552 
L 312.342128 124.52317 
L 313.291915 124.410637 
L 314.241702 127.397977 
L 315.191489 128.151099 
L 316.141277 130.037328 
L 317.091064 128.863409 
L 318.040851 112.123146 
L 318.990638 127.222659 
L 319.940426 117.919544 
L 320.890213 134.039961 
L 321.84 127.083965 
L 322.789787 130.38097 
L 323.739574 125.906852 
L 324.689362 129.603378 
L 325.639149 142.728771 
L 326.588936 126.989886 
L 327.538723 142.147091 
L 328.488511 133.269102 
L 329.438298 144.644583 
L 330.388085 139.322949 
L 331.337872 146.351936 
L 332.28766 146.20503 
L 333.237447 151.539416 
L 334.187234 152.067937 
L 335.137021 148.091584 
L 336.086809 151.989574 
L 337.036596 155.057889 
L 337.986383 156.352463 
L 338.93617 156.509178 
L 339.885957 155.413443 
L 340.835745 162.64157 
L 341.785532 166.25971 
L 342.735319 168.03164 
L 343.685106 165.557237 
L 344.634894 166.928018 
L 345.584681 166.998448 
L 348.434043 178.369422 
L 349.38383 180.799593 
L 350.333617 177.936865 
L 351.283404 180.059646 
L 352.233191 180.820523 
L 353.182979 186.387805 
L 354.132766 186.408638 
L 355.082553 188.009722 
L 356.03234 188.94349 
L 356.982128 191.205192 
L 357.931915 191.703033 
L 358.881702 193.536893 
L 359.831489 196.464165 
L 360.781277 196.416853 
L 361.731064 199.094168 
L 362.680851 199.026594 
L 363.630638 199.341465 
L 364.580426 200.774948 
L 365.530213 202.729934 
L 367.429787 204.273294 
L 368.379574 205.707967 
L 369.329362 206.719251 
L 370.279149 207.040734 
L 372.178723 208.660824 
L 373.128511 210.154423 
L 375.028085 212.266212 
L 375.977872 212.71716 
L 376.92766 213.487619 
L 377.877447 213.931437 
L 378.827234 214.76159 
L 379.777021 215.999657 
L 380.726809 216.445838 
L 381.676596 217.083103 
L 383.57617 218.067801 
L 384.525957 218.81267 
L 385.475745 219.7288 
L 386.425532 220.079732 
L 388.325106 221.260401 
L 389.274894 221.683974 
L 389.274894 221.683974 
" clip-path="url(#p43cfd7d0ee)" style="fill: none; stroke: #937860; stroke-opacity: 0.3; stroke-width: 1.5; stroke-linecap: round"/>
   </g>
   <g id="line2d_20">
    <path d="M 54 242.078237 
L 95.790638 242.044765 
L 96.740426 241.831568 
L 97.690213 241.466745 
L 98.64 241.37752 
L 99.589787 241.13688 
L 100.539574 241.23132 
L 102.439149 241.172271 
L 103.388936 233.691315 
L 104.338723 240.092884 
L 105.288511 227.56252 
L 106.238298 240.360025 
L 107.188085 232.972487 
L 108.137872 205.553235 
L 109.08766 141.331738 
L 110.037447 211.146266 
L 110.987234 105.298731 
L 111.937021 139.38852 
L 112.886809 153.486285 
L 113.836596 144.305492 
L 114.786383 202.811895 
L 115.73617 81.456461 
L 116.685957 44.443636 
L 117.635745 144.261996 
L 118.585532 225.708491 
L 119.535319 240.194393 
L 120.485106 214.03385 
L 121.434894 182.481838 
L 122.384681 187.338565 
L 123.334468 229.073252 
L 124.284255 158.675747 
L 125.234043 209.843492 
L 126.18383 188.729361 
L 127.133617 214.858274 
L 128.083404 117.867813 
L 129.033191 237.703404 
L 129.982979 204.562771 
L 130.932766 239.087708 
L 131.882553 235.056473 
L 132.83234 227.537784 
L 133.782128 240.588424 
L 134.731915 218.39449 
L 135.681702 240.807758 
L 136.631489 221.400796 
L 137.581277 232.957548 
L 138.531064 205.100487 
L 139.480851 157.789731 
L 140.430638 183.127881 
L 141.380426 219.528038 
L 142.330213 225.66021 
L 143.28 234.503912 
L 144.229787 236.400023 
L 145.179574 239.779404 
L 146.129362 234.910361 
L 147.079149 234.224665 
L 148.028936 236.857293 
L 148.978723 235.932367 
L 149.928511 237.580766 
L 150.878298 240.447033 
L 151.828085 188.171621 
L 152.777872 167.716397 
L 153.72766 214.840975 
L 154.677447 231.98201 
L 155.627234 210.883764 
L 156.577021 223.301018 
L 157.526809 198.432829 
L 158.476596 202.489389 
L 159.426383 225.274633 
L 160.37617 240.254224 
L 161.325957 204.187657 
L 162.275745 234.929472 
L 163.225532 234.502771 
L 164.175319 226.951889 
L 165.125106 221.041459 
L 166.074894 227.821077 
L 167.024681 220.969682 
L 167.974468 239.171516 
L 168.924255 233.01593 
L 169.874043 241.053874 
L 170.82383 234.228776 
L 171.773617 240.675225 
L 172.723404 241.42718 
L 173.673191 240.273386 
L 174.622979 236.038375 
L 175.572766 239.538538 
L 176.522553 222.045927 
L 177.47234 236.042167 
L 178.422128 221.394425 
L 179.371915 236.238944 
L 180.321702 228.494065 
L 181.271489 235.054085 
L 182.221277 224.460327 
L 183.171064 229.049786 
L 185.070638 220.317425 
L 186.020426 220.06915 
L 186.970213 233.35275 
L 187.92 219.313602 
L 188.869787 231.912325 
L 189.819574 221.117687 
L 190.769362 233.102064 
L 191.719149 235.248948 
L 192.668936 237.055854 
L 193.618723 241.307751 
L 194.568511 239.548346 
L 195.518298 241.921952 
L 196.468085 238.569561 
L 197.417872 239.383578 
L 198.36766 227.83225 
L 200.267234 233.858856 
L 201.217021 238.171509 
L 202.166809 233.961706 
L 203.116596 237.212977 
L 204.066383 239.099892 
L 205.965957 240.335926 
L 206.915745 229.853169 
L 207.865532 231.115361 
L 208.815319 234.395584 
L 209.765106 226.133577 
L 210.714894 237.217341 
L 211.664681 239.500501 
L 212.614468 238.170641 
L 213.564255 238.175007 
L 214.514043 241.790878 
L 215.46383 235.858663 
L 216.413617 241.378053 
L 217.363404 237.775861 
L 218.313191 241.707115 
L 219.262979 239.594346 
L 220.212766 240.453437 
L 221.162553 241.698884 
L 222.11234 238.665178 
L 223.062128 234.297018 
L 224.011915 228.516674 
L 224.961702 237.036547 
L 225.911489 234.990433 
L 226.861277 241.760715 
L 227.811064 238.432611 
L 228.760851 237.12269 
L 229.710638 240.459894 
L 230.660426 240.458636 
L 231.610213 241.155525 
L 232.56 241.103696 
L 233.509787 240.275016 
L 234.459574 237.570383 
L 235.409362 237.766318 
L 236.359149 239.031849 
L 237.308936 239.526994 
L 238.258723 241.245334 
L 239.208511 236.028593 
L 240.158298 237.55185 
L 241.108085 238.245427 
L 242.057872 240.488092 
L 243.00766 240.987165 
L 243.957447 238.17113 
L 244.907234 241.378467 
L 245.857021 234.790661 
L 246.806809 239.89144 
L 247.756596 240.401311 
L 248.706383 240.357344 
L 249.65617 241.601676 
L 250.605957 240.497116 
L 251.555745 239.615139 
L 252.505532 240.481565 
L 253.455319 239.781478 
L 254.405106 240.462867 
L 255.354894 238.705449 
L 256.304681 240.504129 
L 257.254468 240.560758 
L 258.204255 239.408504 
L 259.154043 241.397128 
L 260.10383 239.427964 
L 261.053617 241.967848 
L 262.003404 241.868148 
L 262.953191 242.037136 
L 263.902979 240.316951 
L 264.852766 241.769914 
L 265.802553 241.620932 
L 266.75234 240.971671 
L 267.702128 238.827404 
L 268.651915 241.611111 
L 269.601702 241.925784 
L 270.551489 238.955587 
L 271.501277 241.932683 
L 272.451064 238.975538 
L 273.400851 236.618884 
L 274.350638 236.705388 
L 275.300426 240.702878 
L 276.250213 241.216921 
L 277.2 241.573598 
L 278.149787 241.339113 
L 280.049362 241.906152 
L 280.999149 240.703673 
L 281.948936 238.813318 
L 282.898723 241.842943 
L 283.848511 240.719842 
L 284.798298 241.649646 
L 285.748085 240.682606 
L 286.697872 242.07833 
L 287.64766 241.556195 
L 288.597447 240.366582 
L 289.547234 240.957102 
L 290.497021 241.140241 
L 291.446809 242.070514 
L 292.396596 240.988527 
L 293.346383 241.63113 
L 294.29617 241.973984 
L 297.145532 241.676436 
L 298.095319 240.891206 
L 299.045106 241.353039 
L 300.944681 241.985017 
L 301.894468 241.985903 
L 302.844255 240.850813 
L 303.794043 240.256286 
L 304.74383 240.803707 
L 305.693617 241.495596 
L 306.643404 240.575522 
L 307.593191 241.50209 
L 308.542979 237.617489 
L 309.492766 241.458671 
L 310.442553 240.505858 
L 311.39234 241.632524 
L 312.342128 238.664617 
L 313.291915 241.97696 
L 314.241702 241.372923 
L 315.191489 242.113993 
L 317.091064 241.996245 
L 318.040851 242.003916 
L 318.990638 241.816593 
L 319.940426 242.003881 
L 320.890213 241.812754 
L 321.84 241.958935 
L 322.789787 241.787419 
L 323.739574 241.757754 
L 324.689362 242.054326 
L 325.639149 242.046318 
L 326.588936 241.82071 
L 327.538723 241.998473 
L 328.488511 241.759703 
L 329.438298 241.914508 
L 331.337872 241.595191 
L 334.187234 242.069764 
L 335.137021 241.87106 
L 336.086809 242.107386 
L 339.885957 241.790509 
L 340.835745 242.082509 
L 349.38383 242.082279 
L 351.283404 242.091191 
L 355.082553 241.980929 
L 356.982128 242.090381 
L 365.530213 242.111583 
L 386.425532 242.112561 
L 389.274894 242.114361 
L 389.274894 242.114361 
" clip-path="url(#p43cfd7d0ee)" style="fill: none; stroke: #da8bc3; stroke-opacity: 0.3; stroke-width: 1.5; stroke-linecap: round"/>
   </g>
   <g id="line2d_21">
    <path d="M 54 236.929991 
L 62.548085 236.828118 
L 70.146383 236.542123 
L 76.794894 236.075636 
L 81.54383 235.542755 
L 84.393191 235.091151 
L 87.242553 234.391872 
L 91.041702 233.307219 
L 91.991489 232.771115 
L 92.941277 231.782875 
L 93.891064 231.191856 
L 94.840851 229.487634 
L 95.790638 229.780053 
L 96.740426 229.808104 
L 97.690213 230.117895 
L 98.64 227.396165 
L 99.589787 230.358911 
L 100.539574 227.385505 
L 101.489362 227.731568 
L 102.439149 234.589076 
L 103.388936 204.417474 
L 104.338723 219.993034 
L 105.288511 186.171071 
L 106.238298 228.124587 
L 107.188085 227.953956 
L 108.137872 241.641596 
L 109.08766 186.285708 
L 110.037447 203.054453 
L 110.987234 85.817173 
L 111.937021 208.289173 
L 112.886809 227.416062 
L 113.836596 44.443636 
L 114.786383 98.114161 
L 115.73617 161.177041 
L 116.685957 78.488048 
L 117.635745 228.440288 
L 118.585532 219.744189 
L 119.535319 197.235396 
L 120.485106 218.849936 
L 121.434894 210.43129 
L 122.384681 146.931222 
L 123.334468 226.33206 
L 124.284255 206.489705 
L 125.234043 235.931102 
L 126.18383 206.537859 
L 127.133617 221.723473 
L 128.083404 74.565258 
L 129.033191 221.750137 
L 129.982979 174.439036 
L 130.932766 211.350361 
L 132.83234 226.01805 
L 133.782128 209.917106 
L 134.731915 210.376054 
L 135.681702 226.875602 
L 136.631489 179.208973 
L 138.531064 232.834531 
L 139.480851 238.853344 
L 140.430638 233.026862 
L 141.380426 220.501276 
L 142.330213 229.517654 
L 143.28 213.405079 
L 144.229787 232.577689 
L 145.179574 204.769815 
L 146.129362 199.342908 
L 147.079149 153.211595 
L 148.028936 170.037896 
L 148.978723 140.409678 
L 149.928511 229.197168 
L 150.878298 216.903807 
L 151.828085 232.414353 
L 152.777872 228.003695 
L 153.72766 208.598539 
L 154.677447 228.972608 
L 155.627234 226.304188 
L 156.577021 238.768296 
L 157.526809 237.236738 
L 158.476596 225.1439 
L 159.426383 239.31304 
L 160.37617 233.958479 
L 161.325957 240.998253 
L 162.275745 211.48715 
L 163.225532 233.339275 
L 164.175319 224.133469 
L 165.125106 233.332087 
L 166.074894 229.927137 
L 167.024681 228.998389 
L 167.974468 211.592355 
L 168.924255 230.825854 
L 169.874043 212.7337 
L 170.82383 197.225112 
L 171.773617 188.143531 
L 172.723404 192.375647 
L 173.673191 181.512855 
L 174.622979 214.65199 
L 175.572766 216.870719 
L 176.522553 237.378395 
L 177.47234 235.816852 
L 178.422128 235.267806 
L 179.371915 222.01405 
L 180.321702 237.865355 
L 181.271489 233.077458 
L 182.221277 240.312394 
L 183.171064 233.75065 
L 184.120851 238.29088 
L 185.070638 240.83708 
L 186.020426 239.819969 
L 186.970213 228.359173 
L 187.92 223.808328 
L 188.869787 217.872671 
L 189.819574 215.712932 
L 190.769362 204.580259 
L 191.719149 222.142892 
L 192.668936 230.927891 
L 193.618723 195.228399 
L 194.568511 215.892899 
L 195.518298 208.34943 
L 196.468085 222.169722 
L 197.417872 228.998588 
L 198.36766 237.877872 
L 199.317447 239.478594 
L 200.267234 237.794009 
L 201.217021 238.788526 
L 202.166809 241.916696 
L 203.116596 232.127043 
L 204.066383 230.3524 
L 205.01617 237.605091 
L 205.965957 226.868793 
L 206.915745 226.717193 
L 207.865532 235.773324 
L 208.815319 237.773728 
L 209.765106 238.43466 
L 210.714894 214.483766 
L 211.664681 211.682002 
L 212.614468 214.822403 
L 213.564255 230.015031 
L 214.514043 233.009228 
L 215.46383 229.260575 
L 216.413617 226.491644 
L 217.363404 208.791374 
L 218.313191 232.744902 
L 219.262979 229.34886 
L 220.212766 240.419828 
L 221.162553 237.892709 
L 222.11234 238.449309 
L 223.062128 241.023543 
L 224.011915 240.099467 
L 224.961702 233.483623 
L 225.911489 239.766121 
L 226.861277 216.799447 
L 227.811064 232.107691 
L 228.760851 223.783475 
L 229.710638 228.990408 
L 230.660426 221.699801 
L 231.610213 235.966382 
L 232.56 218.653691 
L 233.509787 229.702442 
L 234.459574 221.300705 
L 235.409362 217.804042 
L 236.359149 231.896442 
L 237.308936 215.05218 
L 238.258723 234.555223 
L 239.208511 233.507053 
L 240.158298 240.755064 
L 241.108085 239.46458 
L 242.057872 240.451319 
L 243.00766 236.613428 
L 243.957447 241.587505 
L 244.907234 238.791936 
L 245.857021 235.113837 
L 246.806809 233.432952 
L 247.756596 222.111912 
L 248.706383 221.930428 
L 249.65617 220.953749 
L 250.605957 176.248622 
L 251.555745 223.980426 
L 252.505532 224.244256 
L 253.455319 223.137814 
L 254.405106 215.444931 
L 255.354894 239.376837 
L 256.304681 232.089678 
L 257.254468 229.154665 
L 258.204255 239.779941 
L 259.154043 235.465907 
L 260.10383 236.888592 
L 261.053617 234.803868 
L 262.003404 235.271376 
L 262.953191 235.959875 
L 263.902979 234.630904 
L 264.852766 230.575705 
L 265.802553 239.014572 
L 266.75234 238.161412 
L 267.702128 240.382501 
L 268.651915 235.9074 
L 269.601702 228.978261 
L 270.551489 237.284935 
L 271.501277 229.093047 
L 272.451064 237.515692 
L 273.400851 236.595637 
L 274.350638 238.986123 
L 275.300426 235.541928 
L 276.250213 234.557129 
L 277.2 233.092632 
L 278.149787 237.370529 
L 279.099574 241.036117 
L 280.049362 239.150723 
L 280.999149 236.401914 
L 281.948936 237.462544 
L 282.898723 230.986435 
L 283.848511 240.083516 
L 284.798298 230.009686 
L 285.748085 235.036296 
L 286.697872 227.4867 
L 287.64766 235.459588 
L 288.597447 235.379834 
L 289.547234 236.383586 
L 290.497021 233.454547 
L 291.446809 232.737783 
L 292.396596 235.403124 
L 293.346383 235.643803 
L 294.29617 233.480889 
L 295.245957 230.06528 
L 296.195745 238.943383 
L 297.145532 238.192387 
L 298.095319 241.754634 
L 299.045106 241.862182 
L 299.994894 240.61097 
L 300.944681 241.623804 
L 301.894468 240.170436 
L 302.844255 241.55034 
L 303.794043 241.532244 
L 304.74383 234.816048 
L 305.693617 236.508238 
L 306.643404 240.185744 
L 307.593191 235.960371 
L 308.542979 241.533578 
L 309.492766 237.693653 
L 310.442553 238.005858 
L 311.39234 236.724562 
L 312.342128 239.813421 
L 313.291915 237.15823 
L 314.241702 238.156208 
L 315.191489 237.500231 
L 316.141277 237.360854 
L 317.091064 237.562461 
L 318.040851 240.163826 
L 318.990638 240.675857 
L 320.890213 241.487756 
L 321.84 242.070462 
L 322.789787 241.064677 
L 323.739574 240.623765 
L 324.689362 241.07214 
L 325.639149 241.922328 
L 326.588936 241.320071 
L 327.538723 239.848437 
L 328.488511 237.335795 
L 329.438298 239.305448 
L 330.388085 239.111268 
L 331.337872 240.953903 
L 332.28766 240.436493 
L 333.237447 240.817039 
L 334.187234 240.568846 
L 335.137021 241.36536 
L 336.086809 241.037159 
L 337.986383 242.014314 
L 338.93617 242.013382 
L 339.885957 241.611919 
L 340.835745 242.103876 
L 341.785532 241.882192 
L 343.685106 242.01184 
L 345.584681 241.470908 
L 346.534468 241.714087 
L 347.484255 241.376369 
L 348.434043 242.057657 
L 349.38383 241.83585 
L 355.082553 241.690022 
L 356.03234 242.002632 
L 358.881702 241.981429 
L 359.831489 241.806208 
L 360.781277 241.9087 
L 361.731064 241.723871 
L 363.630638 241.96499 
L 365.530213 241.708473 
L 366.48 241.902551 
L 367.429787 241.754069 
L 370.279149 241.905853 
L 371.228936 241.828335 
L 375.028085 241.95543 
L 376.92766 241.916338 
L 379.777021 241.934614 
L 384.525957 241.830531 
L 389.274894 241.866035 
L 389.274894 241.866035 
" clip-path="url(#p43cfd7d0ee)" style="fill: none; stroke: #8c8c8c; stroke-opacity: 0.3; stroke-width: 1.5; stroke-linecap: round"/>
   </g>
   <g id="line2d_22">
    <path d="M 54 233.297528 
L 59.698723 233.202099 
L 65.397447 232.903994 
L 71.09617 232.363616 
L 75.845106 231.670333 
L 79.644255 230.89618 
L 82.493617 230.131189 
L 85.342979 229.157603 
L 88.19234 227.991767 
L 90.091915 226.758766 
L 91.041702 226.019262 
L 91.991489 225.603867 
L 93.891064 224.151371 
L 94.840851 222.66117 
L 95.790638 221.872972 
L 96.740426 219.768197 
L 97.690213 221.218744 
L 98.64 215.22432 
L 100.539574 206.23479 
L 101.489362 203.453898 
L 102.439149 196.821061 
L 103.388936 220.877332 
L 104.338723 205.823111 
L 105.288511 203.821613 
L 106.238298 191.54617 
L 107.188085 133.55596 
L 108.137872 171.025436 
L 110.037447 208.009312 
L 110.987234 182.754707 
L 111.937021 218.26751 
L 112.886809 175.718241 
L 113.836596 125.406331 
L 114.786383 151.30282 
L 115.73617 232.928561 
L 116.685957 133.542814 
L 117.635745 108.292179 
L 118.585532 191.614965 
L 119.535319 162.313281 
L 120.485106 161.551971 
L 121.434894 142.710836 
L 122.384681 174.551474 
L 124.284255 44.443636 
L 125.234043 161.374132 
L 126.18383 167.720623 
L 127.133617 182.101464 
L 128.083404 218.586109 
L 129.033191 126.510647 
L 129.982979 156.971921 
L 130.932766 177.90774 
L 131.882553 234.181006 
L 132.83234 191.232491 
L 133.782128 131.893768 
L 134.731915 183.22591 
L 135.681702 217.522713 
L 136.631489 186.834951 
L 137.581277 185.697375 
L 138.531064 215.937492 
L 139.480851 202.107068 
L 140.430638 198.886319 
L 141.380426 232.378329 
L 142.330213 229.70982 
L 143.28 215.569346 
L 144.229787 211.220328 
L 145.179574 198.319655 
L 146.129362 194.295012 
L 147.079149 234.311036 
L 148.028936 211.495419 
L 148.978723 232.999652 
L 149.928511 196.279123 
L 150.878298 236.209279 
L 151.828085 227.67704 
L 152.777872 176.866012 
L 153.72766 236.330331 
L 154.677447 216.558632 
L 155.627234 236.197281 
L 156.577021 236.185559 
L 157.526809 226.549267 
L 158.476596 235.596829 
L 159.426383 225.456503 
L 160.37617 239.767587 
L 161.325957 232.546762 
L 162.275745 238.757049 
L 163.225532 224.127929 
L 164.175319 214.832085 
L 165.125106 222.207818 
L 166.074894 234.157292 
L 167.024681 229.826237 
L 167.974468 208.320333 
L 168.924255 241.108995 
L 169.874043 236.266971 
L 170.82383 230.002101 
L 171.773617 237.934031 
L 172.723404 230.661178 
L 173.673191 236.098498 
L 174.622979 228.586462 
L 175.572766 240.220094 
L 176.522553 229.044327 
L 177.47234 212.078731 
L 178.422128 204.058157 
L 179.371915 210.452304 
L 180.321702 229.476798 
L 181.271489 238.701121 
L 182.221277 226.678079 
L 183.171064 226.505446 
L 184.120851 235.971327 
L 185.070638 212.199875 
L 186.020426 201.565452 
L 186.970213 240.81134 
L 187.92 208.712421 
L 188.869787 227.004848 
L 189.819574 215.974346 
L 190.769362 208.570697 
L 191.719149 229.844178 
L 192.668936 230.554693 
L 193.618723 241.568497 
L 194.568511 241.623876 
L 195.518298 240.628719 
L 196.468085 230.483947 
L 197.417872 222.026357 
L 198.36766 236.468777 
L 199.317447 211.522335 
L 200.267234 242.058008 
L 201.217021 240.059864 
L 202.166809 230.734154 
L 203.116596 242.097025 
L 204.066383 221.262936 
L 205.01617 237.110525 
L 205.965957 214.879641 
L 206.915745 205.335505 
L 207.865532 223.286774 
L 208.815319 237.863331 
L 209.765106 233.454794 
L 210.714894 238.610671 
L 211.664681 241.753558 
L 212.614468 238.304252 
L 213.564255 241.806557 
L 214.514043 239.490459 
L 215.46383 230.991945 
L 216.413617 228.822964 
L 217.363404 227.614899 
L 218.313191 237.177799 
L 219.262979 209.883531 
L 220.212766 229.722209 
L 221.162553 241.890271 
L 222.11234 241.09767 
L 223.062128 239.823965 
L 224.011915 238.072205 
L 224.961702 238.749011 
L 225.911489 237.552629 
L 226.861277 221.361302 
L 227.811064 240.318393 
L 228.760851 239.149237 
L 229.710638 241.537088 
L 230.660426 241.969987 
L 231.610213 240.38838 
L 232.56 234.081294 
L 233.509787 239.464864 
L 234.459574 214.571075 
L 236.359149 229.202024 
L 237.308936 224.478425 
L 238.258723 238.579744 
L 239.208511 238.480624 
L 240.158298 241.8409 
L 241.108085 240.884278 
L 242.057872 236.950595 
L 243.00766 229.225297 
L 243.957447 234.934021 
L 244.907234 234.406771 
L 245.857021 234.958827 
L 246.806809 237.433491 
L 247.756596 233.896576 
L 248.706383 234.930068 
L 249.65617 230.063996 
L 250.605957 211.312458 
L 251.555745 216.670549 
L 252.505532 239.29455 
L 253.455319 234.552613 
L 254.405106 231.186924 
L 255.354894 241.034611 
L 256.304681 240.905517 
L 257.254468 239.081694 
L 258.204255 240.480736 
L 259.154043 240.704714 
L 260.10383 235.603294 
L 261.053617 226.930784 
L 262.003404 238.369828 
L 262.953191 241.676976 
L 263.902979 238.487802 
L 264.852766 237.314444 
L 265.802553 241.179544 
L 266.75234 238.974545 
L 267.702128 231.982738 
L 268.651915 240.859959 
L 269.601702 235.020829 
L 270.551489 241.179651 
L 271.501277 234.645375 
L 272.451064 240.981637 
L 273.400851 241.249502 
L 274.350638 242.02939 
L 275.300426 241.289013 
L 276.250213 240.145071 
L 277.2 240.837219 
L 278.149787 238.895889 
L 279.099574 235.109998 
L 280.049362 238.872032 
L 280.999149 241.118756 
L 281.948936 240.962579 
L 282.898723 236.583512 
L 283.848511 235.615696 
L 284.798298 229.58438 
L 285.748085 239.160512 
L 286.697872 228.863867 
L 287.64766 241.084603 
L 288.597447 240.911206 
L 289.547234 240.945597 
L 290.497021 241.593282 
L 291.446809 240.875274 
L 292.396596 241.576055 
L 293.346383 239.964196 
L 294.29617 240.666397 
L 295.245957 239.802057 
L 296.195745 240.605931 
L 297.145532 239.672607 
L 298.095319 240.645004 
L 299.045106 240.231373 
L 299.994894 242.04811 
L 300.944681 241.640723 
L 301.894468 241.044681 
L 302.844255 237.967676 
L 303.794043 238.283169 
L 304.74383 230.439821 
L 305.693617 238.821978 
L 306.643404 241.352775 
L 307.593191 239.36784 
L 308.542979 240.848785 
L 309.492766 241.603089 
L 310.442553 241.973772 
L 311.39234 241.289216 
L 313.291915 241.729999 
L 314.241702 241.828579 
L 315.191489 238.160475 
L 317.091064 241.304994 
L 318.040851 241.71738 
L 320.890213 242.024173 
L 321.84 240.694447 
L 322.789787 240.529387 
L 323.739574 240.491034 
L 324.689362 239.922053 
L 325.639149 241.995623 
L 326.588936 241.378003 
L 327.538723 239.676765 
L 328.488511 236.274149 
L 329.438298 237.782669 
L 330.388085 238.721271 
L 331.337872 240.395419 
L 332.28766 239.34323 
L 333.237447 240.635583 
L 334.187234 240.891572 
L 335.137021 241.671077 
L 336.086809 242.024317 
L 337.036596 242.058235 
L 337.986383 241.613398 
L 338.93617 242.078966 
L 339.885957 241.206436 
L 340.835745 241.660278 
L 341.785532 241.062003 
L 342.735319 241.000817 
L 343.685106 241.306827 
L 344.634894 241.332925 
L 345.584681 240.367062 
L 346.534468 241.556664 
L 347.484255 240.991054 
L 348.434043 241.924095 
L 349.38383 241.937394 
L 350.333617 241.722219 
L 351.283404 241.872289 
L 353.182979 241.757203 
L 354.132766 241.554397 
L 355.082553 241.558559 
L 356.03234 241.909888 
L 356.982128 241.845066 
L 357.931915 241.902968 
L 358.881702 241.771417 
L 359.831489 241.206339 
L 360.781277 241.676914 
L 361.731064 241.293411 
L 363.630638 241.833941 
L 364.580426 241.910843 
L 365.530213 241.646769 
L 366.48 241.895971 
L 367.429787 241.747401 
L 368.379574 241.885187 
L 389.274894 242.005097 
L 389.274894 242.005097 
" clip-path="url(#p43cfd7d0ee)" style="fill: none; stroke: #ccb974; stroke-opacity: 0.3; stroke-width: 1.5; stroke-linecap: round"/>
   </g>
   <g id="patch_3">
    <path d="M 54 252 
L 54 34.56 
" style="fill: none; stroke: #262626; stroke-width: 1.25; stroke-linejoin: miter; stroke-linecap: square"/>
   </g>
   <g id="patch_4">
    <path d="M 388.8 252 
L 388.8 34.56 
" style="fill: none; stroke: #262626; stroke-width: 1.25; stroke-linejoin: miter; stroke-linecap: square"/>
   </g>
   <g id="patch_5">
    <path d="M 54 252 
L 388.8 252 
" style="fill: none; stroke: #262626; stroke-width: 1.25; stroke-linejoin: miter; stroke-linecap: square"/>
   </g>
   <g id="patch_6">
    <path d="M 54 34.56 
L 388.8 34.56 
" style="fill: none; stroke: #262626; stroke-width: 1.25; stroke-linejoin: miter; stroke-linecap: square"/>
   </g>
   <g id="text_15">
    <!-- patient06_app05_phone - Power spectrum -->
    <g style="fill: #262626" transform="translate(107.998125 28.56)scale(0.12 -0.12)">
     <defs>
      <path id="ArialMT-70" d="M 422 -1272 
L 422 3319 
L 934 3319 
L 934 2888 
Q 1116 3141 1344 3267 
Q 1572 3394 1897 3394 
Q 2322 3394 2647 3175 
Q 2972 2956 3137 2557 
Q 3303 2159 3303 1684 
Q 3303 1175 3120 767 
Q 2938 359 2589 142 
Q 2241 -75 1856 -75 
Q 1575 -75 1351 44 
Q 1128 163 984 344 
L 984 -1272 
L 422 -1272 
z
M 931 1641 
Q 931 1000 1190 694 
Q 1450 388 1819 388 
Q 2194 388 2461 705 
Q 2728 1022 2728 1688 
Q 2728 2322 2467 2637 
Q 2206 2953 1844 2953 
Q 1484 2953 1207 2617 
Q 931 2281 931 1641 
z
" transform="scale(0.015625)"/>
      <path id="ArialMT-61" d="M 2588 409 
Q 2275 144 1986 34 
Q 1697 -75 1366 -75 
Q 819 -75 525 192 
Q 231 459 231 875 
Q 231 1119 342 1320 
Q 453 1522 633 1644 
Q 813 1766 1038 1828 
Q 1203 1872 1538 1913 
Q 2219 1994 2541 2106 
Q 2544 2222 2544 2253 
Q 2544 2597 2384 2738 
Q 2169 2928 1744 2928 
Q 1347 2928 1158 2789 
Q 969 2650 878 2297 
L 328 2372 
Q 403 2725 575 2942 
Q 747 3159 1072 3276 
Q 1397 3394 1825 3394 
Q 2250 3394 2515 3294 
Q 2781 3194 2906 3042 
Q 3031 2891 3081 2659 
Q 3109 2516 3109 2141 
L 3109 1391 
Q 3109 606 3145 398 
Q 3181 191 3288 0 
L 2700 0 
Q 2613 175 2588 409 
z
M 2541 1666 
Q 2234 1541 1622 1453 
Q 1275 1403 1131 1340 
Q 988 1278 909 1158 
Q 831 1038 831 891 
Q 831 666 1001 516 
Q 1172 366 1500 366 
Q 1825 366 2078 508 
Q 2331 650 2450 897 
Q 2541 1088 2541 1459 
L 2541 1666 
z
" transform="scale(0.015625)"/>
      <path id="ArialMT-74" d="M 1650 503 
L 1731 6 
Q 1494 -44 1306 -44 
Q 1000 -44 831 53 
Q 663 150 594 308 
Q 525 466 525 972 
L 525 2881 
L 113 2881 
L 113 3319 
L 525 3319 
L 525 4141 
L 1084 4478 
L 1084 3319 
L 1650 3319 
L 1650 2881 
L 1084 2881 
L 1084 941 
Q 1084 700 1114 631 
Q 1144 563 1211 522 
Q 1278 481 1403 481 
Q 1497 481 1650 503 
z
" transform="scale(0.015625)"/>
      <path id="ArialMT-69" d="M 425 3934 
L 425 4581 
L 988 4581 
L 988 3934 
L 425 3934 
z
M 425 0 
L 425 3319 
L 988 3319 
L 988 0 
L 425 0 
z
" transform="scale(0.015625)"/>
      <path id="ArialMT-5f" d="M -97 -1272 
L -97 -866 
L 3631 -866 
L 3631 -1272 
L -97 -1272 
z
" transform="scale(0.015625)"/>
      <path id="ArialMT-68" d="M 422 0 
L 422 4581 
L 984 4581 
L 984 2938 
Q 1378 3394 1978 3394 
Q 2347 3394 2619 3248 
Q 2891 3103 3008 2847 
Q 3125 2591 3125 2103 
L 3125 0 
L 2563 0 
L 2563 2103 
Q 2563 2525 2380 2717 
Q 2197 2909 1863 2909 
Q 1613 2909 1392 2779 
Q 1172 2650 1078 2428 
Q 984 2206 984 1816 
L 984 0 
L 422 0 
z
" transform="scale(0.015625)"/>
      <path id="ArialMT-6f" d="M 213 1659 
Q 213 2581 725 3025 
Q 1153 3394 1769 3394 
Q 2453 3394 2887 2945 
Q 3322 2497 3322 1706 
Q 3322 1066 3130 698 
Q 2938 331 2570 128 
Q 2203 -75 1769 -75 
Q 1072 -75 642 372 
Q 213 819 213 1659 
z
M 791 1659 
Q 791 1022 1069 705 
Q 1347 388 1769 388 
Q 2188 388 2466 706 
Q 2744 1025 2744 1678 
Q 2744 2294 2464 2611 
Q 2184 2928 1769 2928 
Q 1347 2928 1069 2612 
Q 791 2297 791 1659 
z
" transform="scale(0.015625)"/>
      <path id="ArialMT-2d" d="M 203 1375 
L 203 1941 
L 1931 1941 
L 1931 1375 
L 203 1375 
z
" transform="scale(0.015625)"/>
      <path id="ArialMT-50" d="M 494 0 
L 494 4581 
L 2222 4581 
Q 2678 4581 2919 4538 
Q 3256 4481 3484 4323 
Q 3713 4166 3852 3881 
Q 3991 3597 3991 3256 
Q 3991 2672 3619 2267 
Q 3247 1863 2275 1863 
L 1100 1863 
L 1100 0 
L 494 0 
z
M 1100 2403 
L 2284 2403 
Q 2872 2403 3119 2622 
Q 3366 2841 3366 3238 
Q 3366 3525 3220 3729 
Q 3075 3934 2838 4000 
Q 2684 4041 2272 4041 
L 1100 4041 
L 1100 2403 
z
" transform="scale(0.015625)"/>
      <path id="ArialMT-77" d="M 1034 0 
L 19 3319 
L 600 3319 
L 1128 1403 
L 1325 691 
Q 1338 744 1497 1375 
L 2025 3319 
L 2603 3319 
L 3100 1394 
L 3266 759 
L 3456 1400 
L 4025 3319 
L 4572 3319 
L 3534 0 
L 2950 0 
L 2422 1988 
L 2294 2553 
L 1622 0 
L 1034 0 
z
" transform="scale(0.015625)"/>
      <path id="ArialMT-73" d="M 197 991 
L 753 1078 
Q 800 744 1014 566 
Q 1228 388 1613 388 
Q 2000 388 2187 545 
Q 2375 703 2375 916 
Q 2375 1106 2209 1216 
Q 2094 1291 1634 1406 
Q 1016 1563 777 1677 
Q 538 1791 414 1992 
Q 291 2194 291 2438 
Q 291 2659 392 2848 
Q 494 3038 669 3163 
Q 800 3259 1026 3326 
Q 1253 3394 1513 3394 
Q 1903 3394 2198 3281 
Q 2494 3169 2634 2976 
Q 2775 2784 2828 2463 
L 2278 2388 
Q 2241 2644 2061 2787 
Q 1881 2931 1553 2931 
Q 1166 2931 1000 2803 
Q 834 2675 834 2503 
Q 834 2394 903 2306 
Q 972 2216 1119 2156 
Q 1203 2125 1616 2013 
Q 2213 1853 2448 1751 
Q 2684 1650 2818 1456 
Q 2953 1263 2953 975 
Q 2953 694 2789 445 
Q 2625 197 2315 61 
Q 2006 -75 1616 -75 
Q 969 -75 630 194 
Q 291 463 197 991 
z
" transform="scale(0.015625)"/>
      <path id="ArialMT-6d" d="M 422 0 
L 422 3319 
L 925 3319 
L 925 2853 
Q 1081 3097 1340 3245 
Q 1600 3394 1931 3394 
Q 2300 3394 2536 3241 
Q 2772 3088 2869 2813 
Q 3263 3394 3894 3394 
Q 4388 3394 4653 3120 
Q 4919 2847 4919 2278 
L 4919 0 
L 4359 0 
L 4359 2091 
Q 4359 2428 4304 2576 
Q 4250 2725 4106 2815 
Q 3963 2906 3769 2906 
Q 3419 2906 3187 2673 
Q 2956 2441 2956 1928 
L 2956 0 
L 2394 0 
L 2394 2156 
Q 2394 2531 2256 2718 
Q 2119 2906 1806 2906 
Q 1569 2906 1367 2781 
Q 1166 2656 1075 2415 
Q 984 2175 984 1722 
L 984 0 
L 422 0 
z
" transform="scale(0.015625)"/>
     </defs>
     <use xlink:href="#ArialMT-70"/>
     <use xlink:href="#ArialMT-61" x="55.615234"/>
     <use xlink:href="#ArialMT-74" x="111.230469"/>
     <use xlink:href="#ArialMT-69" x="139.013672"/>
     <use xlink:href="#ArialMT-65" x="161.230469"/>
     <use xlink:href="#ArialMT-6e" x="216.845703"/>
     <use xlink:href="#ArialMT-74" x="272.460938"/>
     <use xlink:href="#ArialMT-30" x="300.244141"/>
     <use xlink:href="#ArialMT-36" x="355.859375"/>
     <use xlink:href="#ArialMT-5f" x="411.474609"/>
     <use xlink:href="#ArialMT-61" x="467.089844"/>
     <use xlink:href="#ArialMT-70" x="522.705078"/>
     <use xlink:href="#ArialMT-70" x="578.320312"/>
     <use xlink:href="#ArialMT-30" x="633.935547"/>
     <use xlink:href="#ArialMT-35" x="689.550781"/>
     <use xlink:href="#ArialMT-5f" x="745.166016"/>
     <use xlink:href="#ArialMT-70" x="800.78125"/>
     <use xlink:href="#ArialMT-68" x="856.396484"/>
     <use xlink:href="#ArialMT-6f" x="912.011719"/>
     <use xlink:href="#ArialMT-6e" x="967.626953"/>
     <use xlink:href="#ArialMT-65" x="1023.242188"/>
     <use xlink:href="#ArialMT-20" x="1078.857422"/>
     <use xlink:href="#ArialMT-2d" x="1106.640625"/>
     <use xlink:href="#ArialMT-20" x="1139.941406"/>
     <use xlink:href="#ArialMT-50" x="1167.724609"/>
     <use xlink:href="#ArialMT-6f" x="1234.423828"/>
     <use xlink:href="#ArialMT-77" x="1290.039062"/>
     <use xlink:href="#ArialMT-65" x="1362.255859"/>
     <use xlink:href="#ArialMT-72" x="1417.871094"/>
     <use xlink:href="#ArialMT-20" x="1451.171875"/>
     <use xlink:href="#ArialMT-73" x="1478.955078"/>
     <use xlink:href="#ArialMT-70" x="1528.955078"/>
     <use xlink:href="#ArialMT-65" x="1584.570312"/>
     <use xlink:href="#ArialMT-63" x="1640.185547"/>
     <use xlink:href="#ArialMT-74" x="1690.185547"/>
     <use xlink:href="#ArialMT-72" x="1717.96875"/>
     <use xlink:href="#ArialMT-75" x="1751.269531"/>
     <use xlink:href="#ArialMT-6d" x="1806.884766"/>
    </g>
   </g>
  </g>
 </g>
 <defs>
  <clipPath id="p43cfd7d0ee">
   <rect x="54" y="34.56" width="334.8" height="217.44"/>
  </clipPath>
 </defs>
</svg>
