<?xml version="1.0" encoding="utf-8" standalone="no"?>
<!DOCTYPE svg PUBLIC "-//W3C//DTD SVG 1.1//EN"
  "http://www.w3.org/Graphics/SVG/1.1/DTD/svg11.dtd">
<svg xmlns:xlink="http://www.w3.org/1999/xlink" width="432pt" height="288pt" viewBox="0 0 432 288" xmlns="http://www.w3.org/2000/svg" version="1.1">
 <metadata>
  <rdf:RDF xmlns:dc="http://purl.org/dc/elements/1.1/" xmlns:cc="http://creativecommons.org/ns#" xmlns:rdf="http://www.w3.org/1999/02/22-rdf-syntax-ns#">
   <cc:Work>
    <dc:type rdf:resource="http://purl.org/dc/dcmitype/StillImage"/>
    <dc:date>2022-07-08T13:41:47.427006</dc:date>
    <dc:format>image/svg+xml</dc:format>
    <dc:creator>
     <cc:Agent>
      <dc:title>Matplotlib v3.5.1, https://matplotlib.org/</dc:title>
     </cc:Agent>
    </dc:creator>
   </cc:Work>
  </rdf:RDF>
 </metadata>
 <defs>
  <style type="text/css">*{stroke-linejoin: round; stroke-linecap: butt}</style>
 </defs>
 <g id="figure_1">
  <g id="patch_1">
   <path d="M 0 288 
L 432 288 
L 432 0 
L 0 0 
z
" style="fill: #ffffff"/>
  </g>
  <g id="axes_1">
   <g id="patch_2">
    <path d="M 54 252 
L 388.8 252 
L 388.8 34.56 
L 54 34.56 
z
" style="fill: #ffffff"/>
   </g>
   <g id="matplotlib.axis_1">
    <g id="xtick_1">
     <g id="line2d_1">
      <defs>
       <path id="mb12acd40af" d="M 0 0 
L 0 6 
" style="stroke: #262626; stroke-width: 1.25"/>
      </defs>
      <g>
       <use xlink:href="#mb12acd40af" x="54" y="252" style="fill: #262626; stroke: #262626; stroke-width: 1.25"/>
      </g>
     </g>
     <g id="text_1">
      <!-- 0 -->
      <g style="fill: #262626" transform="translate(50.941484 269.373594)scale(0.11 -0.11)">
       <defs>
        <path id="ArialMT-30" d="M 266 2259 
Q 266 3072 433 3567 
Q 600 4063 929 4331 
Q 1259 4600 1759 4600 
Q 2128 4600 2406 4451 
Q 2684 4303 2865 4023 
Q 3047 3744 3150 3342 
Q 3253 2941 3253 2259 
Q 3253 1453 3087 958 
Q 2922 463 2592 192 
Q 2263 -78 1759 -78 
Q 1097 -78 719 397 
Q 266 969 266 2259 
z
M 844 2259 
Q 844 1131 1108 757 
Q 1372 384 1759 384 
Q 2147 384 2411 759 
Q 2675 1134 2675 2259 
Q 2675 3391 2411 3762 
Q 2147 4134 1753 4134 
Q 1366 4134 1134 3806 
Q 844 3388 844 2259 
z
" transform="scale(0.015625)"/>
       </defs>
       <use xlink:href="#ArialMT-30"/>
      </g>
     </g>
    </g>
    <g id="xtick_2">
     <g id="line2d_2">
      <g>
       <use xlink:href="#mb12acd40af" x="109.8" y="252" style="fill: #262626; stroke: #262626; stroke-width: 1.25"/>
      </g>
     </g>
     <g id="text_2">
      <!-- 5 -->
      <g style="fill: #262626" transform="translate(106.741484 269.373594)scale(0.11 -0.11)">
       <defs>
        <path id="ArialMT-35" d="M 266 1200 
L 856 1250 
Q 922 819 1161 601 
Q 1400 384 1738 384 
Q 2144 384 2425 690 
Q 2706 997 2706 1503 
Q 2706 1984 2436 2262 
Q 2166 2541 1728 2541 
Q 1456 2541 1237 2417 
Q 1019 2294 894 2097 
L 366 2166 
L 809 4519 
L 3088 4519 
L 3088 3981 
L 1259 3981 
L 1013 2750 
Q 1425 3038 1878 3038 
Q 2478 3038 2890 2622 
Q 3303 2206 3303 1553 
Q 3303 931 2941 478 
Q 2500 -78 1738 -78 
Q 1113 -78 717 272 
Q 322 622 266 1200 
z
" transform="scale(0.015625)"/>
       </defs>
       <use xlink:href="#ArialMT-35"/>
      </g>
     </g>
    </g>
    <g id="xtick_3">
     <g id="line2d_3">
      <g>
       <use xlink:href="#mb12acd40af" x="165.6" y="252" style="fill: #262626; stroke: #262626; stroke-width: 1.25"/>
      </g>
     </g>
     <g id="text_3">
      <!-- 10 -->
      <g style="fill: #262626" transform="translate(159.482969 269.373594)scale(0.11 -0.11)">
       <defs>
        <path id="ArialMT-31" d="M 2384 0 
L 1822 0 
L 1822 3584 
Q 1619 3391 1289 3197 
Q 959 3003 697 2906 
L 697 3450 
Q 1169 3672 1522 3987 
Q 1875 4303 2022 4600 
L 2384 4600 
L 2384 0 
z
" transform="scale(0.015625)"/>
       </defs>
       <use xlink:href="#ArialMT-31"/>
       <use xlink:href="#ArialMT-30" x="55.615234"/>
      </g>
     </g>
    </g>
    <g id="xtick_4">
     <g id="line2d_4">
      <g>
       <use xlink:href="#mb12acd40af" x="221.4" y="252" style="fill: #262626; stroke: #262626; stroke-width: 1.25"/>
      </g>
     </g>
     <g id="text_4">
      <!-- 15 -->
      <g style="fill: #262626" transform="translate(215.282969 269.373594)scale(0.11 -0.11)">
       <use xlink:href="#ArialMT-31"/>
       <use xlink:href="#ArialMT-35" x="55.615234"/>
      </g>
     </g>
    </g>
    <g id="xtick_5">
     <g id="line2d_5">
      <g>
       <use xlink:href="#mb12acd40af" x="277.2" y="252" style="fill: #262626; stroke: #262626; stroke-width: 1.25"/>
      </g>
     </g>
     <g id="text_5">
      <!-- 20 -->
      <g style="fill: #262626" transform="translate(271.082969 269.373594)scale(0.11 -0.11)">
       <defs>
        <path id="ArialMT-32" d="M 3222 541 
L 3222 0 
L 194 0 
Q 188 203 259 391 
Q 375 700 629 1000 
Q 884 1300 1366 1694 
Q 2113 2306 2375 2664 
Q 2638 3022 2638 3341 
Q 2638 3675 2398 3904 
Q 2159 4134 1775 4134 
Q 1369 4134 1125 3890 
Q 881 3647 878 3216 
L 300 3275 
Q 359 3922 746 4261 
Q 1134 4600 1788 4600 
Q 2447 4600 2831 4234 
Q 3216 3869 3216 3328 
Q 3216 3053 3103 2787 
Q 2991 2522 2730 2228 
Q 2469 1934 1863 1422 
Q 1356 997 1212 845 
Q 1069 694 975 541 
L 3222 541 
z
" transform="scale(0.015625)"/>
       </defs>
       <use xlink:href="#ArialMT-32"/>
       <use xlink:href="#ArialMT-30" x="55.615234"/>
      </g>
     </g>
    </g>
    <g id="xtick_6">
     <g id="line2d_6">
      <g>
       <use xlink:href="#mb12acd40af" x="333" y="252" style="fill: #262626; stroke: #262626; stroke-width: 1.25"/>
      </g>
     </g>
     <g id="text_6">
      <!-- 25 -->
      <g style="fill: #262626" transform="translate(326.882969 269.373594)scale(0.11 -0.11)">
       <use xlink:href="#ArialMT-32"/>
       <use xlink:href="#ArialMT-35" x="55.615234"/>
      </g>
     </g>
    </g>
    <g id="xtick_7">
     <g id="line2d_7">
      <g>
       <use xlink:href="#mb12acd40af" x="388.8" y="252" style="fill: #262626; stroke: #262626; stroke-width: 1.25"/>
      </g>
     </g>
     <g id="text_7">
      <!-- 30 -->
      <g style="fill: #262626" transform="translate(382.682969 269.373594)scale(0.11 -0.11)">
       <defs>
        <path id="ArialMT-33" d="M 269 1209 
L 831 1284 
Q 928 806 1161 595 
Q 1394 384 1728 384 
Q 2125 384 2398 659 
Q 2672 934 2672 1341 
Q 2672 1728 2419 1979 
Q 2166 2231 1775 2231 
Q 1616 2231 1378 2169 
L 1441 2663 
Q 1497 2656 1531 2656 
Q 1891 2656 2178 2843 
Q 2466 3031 2466 3422 
Q 2466 3731 2256 3934 
Q 2047 4138 1716 4138 
Q 1388 4138 1169 3931 
Q 950 3725 888 3313 
L 325 3413 
Q 428 3978 793 4289 
Q 1159 4600 1703 4600 
Q 2078 4600 2393 4439 
Q 2709 4278 2876 4000 
Q 3044 3722 3044 3409 
Q 3044 3113 2884 2869 
Q 2725 2625 2413 2481 
Q 2819 2388 3044 2092 
Q 3269 1797 3269 1353 
Q 3269 753 2831 336 
Q 2394 -81 1725 -81 
Q 1122 -81 723 278 
Q 325 638 269 1209 
z
" transform="scale(0.015625)"/>
       </defs>
       <use xlink:href="#ArialMT-33"/>
       <use xlink:href="#ArialMT-30" x="55.615234"/>
      </g>
     </g>
    </g>
    <g id="text_8">
     <!-- Frequency (Hz) -->
     <g style="fill: #262626" transform="translate(180.059063 284.295469)scale(0.12 -0.12)">
      <defs>
       <path id="ArialMT-46" d="M 525 0 
L 525 4581 
L 3616 4581 
L 3616 4041 
L 1131 4041 
L 1131 2622 
L 3281 2622 
L 3281 2081 
L 1131 2081 
L 1131 0 
L 525 0 
z
" transform="scale(0.015625)"/>
       <path id="ArialMT-72" d="M 416 0 
L 416 3319 
L 922 3319 
L 922 2816 
Q 1116 3169 1280 3281 
Q 1444 3394 1641 3394 
Q 1925 3394 2219 3213 
L 2025 2691 
Q 1819 2813 1613 2813 
Q 1428 2813 1281 2702 
Q 1134 2591 1072 2394 
Q 978 2094 978 1738 
L 978 0 
L 416 0 
z
" transform="scale(0.015625)"/>
       <path id="ArialMT-65" d="M 2694 1069 
L 3275 997 
Q 3138 488 2766 206 
Q 2394 -75 1816 -75 
Q 1088 -75 661 373 
Q 234 822 234 1631 
Q 234 2469 665 2931 
Q 1097 3394 1784 3394 
Q 2450 3394 2872 2941 
Q 3294 2488 3294 1666 
Q 3294 1616 3291 1516 
L 816 1516 
Q 847 969 1125 678 
Q 1403 388 1819 388 
Q 2128 388 2347 550 
Q 2566 713 2694 1069 
z
M 847 1978 
L 2700 1978 
Q 2663 2397 2488 2606 
Q 2219 2931 1791 2931 
Q 1403 2931 1139 2672 
Q 875 2413 847 1978 
z
" transform="scale(0.015625)"/>
       <path id="ArialMT-71" d="M 2538 -1272 
L 2538 353 
Q 2406 169 2170 47 
Q 1934 -75 1669 -75 
Q 1078 -75 651 397 
Q 225 869 225 1691 
Q 225 2191 398 2587 
Q 572 2984 901 3189 
Q 1231 3394 1625 3394 
Q 2241 3394 2594 2875 
L 2594 3319 
L 3100 3319 
L 3100 -1272 
L 2538 -1272 
z
M 803 1669 
Q 803 1028 1072 708 
Q 1341 388 1716 388 
Q 2075 388 2334 692 
Q 2594 997 2594 1619 
Q 2594 2281 2320 2615 
Q 2047 2950 1678 2950 
Q 1313 2950 1058 2639 
Q 803 2328 803 1669 
z
" transform="scale(0.015625)"/>
       <path id="ArialMT-75" d="M 2597 0 
L 2597 488 
Q 2209 -75 1544 -75 
Q 1250 -75 995 37 
Q 741 150 617 320 
Q 494 491 444 738 
Q 409 903 409 1263 
L 409 3319 
L 972 3319 
L 972 1478 
Q 972 1038 1006 884 
Q 1059 663 1231 536 
Q 1403 409 1656 409 
Q 1909 409 2131 539 
Q 2353 669 2445 892 
Q 2538 1116 2538 1541 
L 2538 3319 
L 3100 3319 
L 3100 0 
L 2597 0 
z
" transform="scale(0.015625)"/>
       <path id="ArialMT-6e" d="M 422 0 
L 422 3319 
L 928 3319 
L 928 2847 
Q 1294 3394 1984 3394 
Q 2284 3394 2536 3286 
Q 2788 3178 2913 3003 
Q 3038 2828 3088 2588 
Q 3119 2431 3119 2041 
L 3119 0 
L 2556 0 
L 2556 2019 
Q 2556 2363 2490 2533 
Q 2425 2703 2258 2804 
Q 2091 2906 1866 2906 
Q 1506 2906 1245 2678 
Q 984 2450 984 1813 
L 984 0 
L 422 0 
z
" transform="scale(0.015625)"/>
       <path id="ArialMT-63" d="M 2588 1216 
L 3141 1144 
Q 3050 572 2676 248 
Q 2303 -75 1759 -75 
Q 1078 -75 664 370 
Q 250 816 250 1647 
Q 250 2184 428 2587 
Q 606 2991 970 3192 
Q 1334 3394 1763 3394 
Q 2303 3394 2647 3120 
Q 2991 2847 3088 2344 
L 2541 2259 
Q 2463 2594 2264 2762 
Q 2066 2931 1784 2931 
Q 1359 2931 1093 2626 
Q 828 2322 828 1663 
Q 828 994 1084 691 
Q 1341 388 1753 388 
Q 2084 388 2306 591 
Q 2528 794 2588 1216 
z
" transform="scale(0.015625)"/>
       <path id="ArialMT-79" d="M 397 -1278 
L 334 -750 
Q 519 -800 656 -800 
Q 844 -800 956 -737 
Q 1069 -675 1141 -563 
Q 1194 -478 1313 -144 
Q 1328 -97 1363 -6 
L 103 3319 
L 709 3319 
L 1400 1397 
Q 1534 1031 1641 628 
Q 1738 1016 1872 1384 
L 2581 3319 
L 3144 3319 
L 1881 -56 
Q 1678 -603 1566 -809 
Q 1416 -1088 1222 -1217 
Q 1028 -1347 759 -1347 
Q 597 -1347 397 -1278 
z
" transform="scale(0.015625)"/>
       <path id="ArialMT-20" transform="scale(0.015625)"/>
       <path id="ArialMT-28" d="M 1497 -1347 
Q 1031 -759 709 28 
Q 388 816 388 1659 
Q 388 2403 628 3084 
Q 909 3875 1497 4659 
L 1900 4659 
Q 1522 4009 1400 3731 
Q 1209 3300 1100 2831 
Q 966 2247 966 1656 
Q 966 153 1900 -1347 
L 1497 -1347 
z
" transform="scale(0.015625)"/>
       <path id="ArialMT-48" d="M 513 0 
L 513 4581 
L 1119 4581 
L 1119 2700 
L 3500 2700 
L 3500 4581 
L 4106 4581 
L 4106 0 
L 3500 0 
L 3500 2159 
L 1119 2159 
L 1119 0 
L 513 0 
z
" transform="scale(0.015625)"/>
       <path id="ArialMT-7a" d="M 125 0 
L 125 456 
L 2238 2881 
Q 1878 2863 1603 2863 
L 250 2863 
L 250 3319 
L 2963 3319 
L 2963 2947 
L 1166 841 
L 819 456 
Q 1197 484 1528 484 
L 3063 484 
L 3063 0 
L 125 0 
z
" transform="scale(0.015625)"/>
       <path id="ArialMT-29" d="M 791 -1347 
L 388 -1347 
Q 1322 153 1322 1656 
Q 1322 2244 1188 2822 
Q 1081 3291 891 3722 
Q 769 4003 388 4659 
L 791 4659 
Q 1378 3875 1659 3084 
Q 1900 2403 1900 1659 
Q 1900 816 1576 28 
Q 1253 -759 791 -1347 
z
" transform="scale(0.015625)"/>
      </defs>
      <use xlink:href="#ArialMT-46"/>
      <use xlink:href="#ArialMT-72" x="61.083984"/>
      <use xlink:href="#ArialMT-65" x="94.384766"/>
      <use xlink:href="#ArialMT-71" x="150"/>
      <use xlink:href="#ArialMT-75" x="205.615234"/>
      <use xlink:href="#ArialMT-65" x="261.230469"/>
      <use xlink:href="#ArialMT-6e" x="316.845703"/>
      <use xlink:href="#ArialMT-63" x="372.460938"/>
      <use xlink:href="#ArialMT-79" x="422.460938"/>
      <use xlink:href="#ArialMT-20" x="472.460938"/>
      <use xlink:href="#ArialMT-28" x="500.244141"/>
      <use xlink:href="#ArialMT-48" x="533.544922"/>
      <use xlink:href="#ArialMT-7a" x="605.761719"/>
      <use xlink:href="#ArialMT-29" x="655.761719"/>
     </g>
    </g>
   </g>
   <g id="matplotlib.axis_2">
    <g id="ytick_1">
     <g id="line2d_8">
      <defs>
       <path id="m88b25f0424" d="M 0 0 
L -6 0 
" style="stroke: #262626; stroke-width: 1.25"/>
      </defs>
      <g>
       <use xlink:href="#m88b25f0424" x="54" y="242.116364" style="fill: #262626; stroke: #262626; stroke-width: 1.25"/>
      </g>
     </g>
     <g id="text_9">
      <!-- 0.0 -->
      <g style="fill: #262626" transform="translate(29.21 246.053161)scale(0.11 -0.11)">
       <defs>
        <path id="ArialMT-2e" d="M 581 0 
L 581 641 
L 1222 641 
L 1222 0 
L 581 0 
z
" transform="scale(0.015625)"/>
       </defs>
       <use xlink:href="#ArialMT-30"/>
       <use xlink:href="#ArialMT-2e" x="55.615234"/>
       <use xlink:href="#ArialMT-30" x="83.398438"/>
      </g>
     </g>
    </g>
    <g id="ytick_2">
     <g id="line2d_9">
      <g>
       <use xlink:href="#m88b25f0424" x="54" y="202.581818" style="fill: #262626; stroke: #262626; stroke-width: 1.25"/>
      </g>
     </g>
     <g id="text_10">
      <!-- 0.2 -->
      <g style="fill: #262626" transform="translate(29.21 206.518615)scale(0.11 -0.11)">
       <use xlink:href="#ArialMT-30"/>
       <use xlink:href="#ArialMT-2e" x="55.615234"/>
       <use xlink:href="#ArialMT-32" x="83.398438"/>
      </g>
     </g>
    </g>
    <g id="ytick_3">
     <g id="line2d_10">
      <g>
       <use xlink:href="#m88b25f0424" x="54" y="163.047273" style="fill: #262626; stroke: #262626; stroke-width: 1.25"/>
      </g>
     </g>
     <g id="text_11">
      <!-- 0.4 -->
      <g style="fill: #262626" transform="translate(29.21 166.98407)scale(0.11 -0.11)">
       <defs>
        <path id="ArialMT-34" d="M 2069 0 
L 2069 1097 
L 81 1097 
L 81 1613 
L 2172 4581 
L 2631 4581 
L 2631 1613 
L 3250 1613 
L 3250 1097 
L 2631 1097 
L 2631 0 
L 2069 0 
z
M 2069 1613 
L 2069 3678 
L 634 1613 
L 2069 1613 
z
" transform="scale(0.015625)"/>
       </defs>
       <use xlink:href="#ArialMT-30"/>
       <use xlink:href="#ArialMT-2e" x="55.615234"/>
       <use xlink:href="#ArialMT-34" x="83.398438"/>
      </g>
     </g>
    </g>
    <g id="ytick_4">
     <g id="line2d_11">
      <g>
       <use xlink:href="#m88b25f0424" x="54" y="123.512727" style="fill: #262626; stroke: #262626; stroke-width: 1.25"/>
      </g>
     </g>
     <g id="text_12">
      <!-- 0.6 -->
      <g style="fill: #262626" transform="translate(29.21 127.449524)scale(0.11 -0.11)">
       <defs>
        <path id="ArialMT-36" d="M 3184 3459 
L 2625 3416 
Q 2550 3747 2413 3897 
Q 2184 4138 1850 4138 
Q 1581 4138 1378 3988 
Q 1113 3794 959 3422 
Q 806 3050 800 2363 
Q 1003 2672 1297 2822 
Q 1591 2972 1913 2972 
Q 2475 2972 2870 2558 
Q 3266 2144 3266 1488 
Q 3266 1056 3080 686 
Q 2894 316 2569 119 
Q 2244 -78 1831 -78 
Q 1128 -78 684 439 
Q 241 956 241 2144 
Q 241 3472 731 4075 
Q 1159 4600 1884 4600 
Q 2425 4600 2770 4297 
Q 3116 3994 3184 3459 
z
M 888 1484 
Q 888 1194 1011 928 
Q 1134 663 1356 523 
Q 1578 384 1822 384 
Q 2178 384 2434 671 
Q 2691 959 2691 1453 
Q 2691 1928 2437 2201 
Q 2184 2475 1800 2475 
Q 1419 2475 1153 2201 
Q 888 1928 888 1484 
z
" transform="scale(0.015625)"/>
       </defs>
       <use xlink:href="#ArialMT-30"/>
       <use xlink:href="#ArialMT-2e" x="55.615234"/>
       <use xlink:href="#ArialMT-36" x="83.398438"/>
      </g>
     </g>
    </g>
    <g id="ytick_5">
     <g id="line2d_12">
      <g>
       <use xlink:href="#m88b25f0424" x="54" y="83.978182" style="fill: #262626; stroke: #262626; stroke-width: 1.25"/>
      </g>
     </g>
     <g id="text_13">
      <!-- 0.8 -->
      <g style="fill: #262626" transform="translate(29.21 87.914979)scale(0.11 -0.11)">
       <defs>
        <path id="ArialMT-38" d="M 1131 2484 
Q 781 2613 612 2850 
Q 444 3088 444 3419 
Q 444 3919 803 4259 
Q 1163 4600 1759 4600 
Q 2359 4600 2725 4251 
Q 3091 3903 3091 3403 
Q 3091 3084 2923 2848 
Q 2756 2613 2416 2484 
Q 2838 2347 3058 2040 
Q 3278 1734 3278 1309 
Q 3278 722 2862 322 
Q 2447 -78 1769 -78 
Q 1091 -78 675 323 
Q 259 725 259 1325 
Q 259 1772 486 2073 
Q 713 2375 1131 2484 
z
M 1019 3438 
Q 1019 3113 1228 2906 
Q 1438 2700 1772 2700 
Q 2097 2700 2305 2904 
Q 2513 3109 2513 3406 
Q 2513 3716 2298 3927 
Q 2084 4138 1766 4138 
Q 1444 4138 1231 3931 
Q 1019 3725 1019 3438 
z
M 838 1322 
Q 838 1081 952 856 
Q 1066 631 1291 507 
Q 1516 384 1775 384 
Q 2178 384 2440 643 
Q 2703 903 2703 1303 
Q 2703 1709 2433 1975 
Q 2163 2241 1756 2241 
Q 1359 2241 1098 1978 
Q 838 1716 838 1322 
z
" transform="scale(0.015625)"/>
       </defs>
       <use xlink:href="#ArialMT-30"/>
       <use xlink:href="#ArialMT-2e" x="55.615234"/>
       <use xlink:href="#ArialMT-38" x="83.398438"/>
      </g>
     </g>
    </g>
    <g id="ytick_6">
     <g id="line2d_13">
      <g>
       <use xlink:href="#m88b25f0424" x="54" y="44.443636" style="fill: #262626; stroke: #262626; stroke-width: 1.25"/>
      </g>
     </g>
     <g id="text_14">
      <!-- 1.0 -->
      <g style="fill: #262626" transform="translate(29.21 48.380433)scale(0.11 -0.11)">
       <use xlink:href="#ArialMT-31"/>
       <use xlink:href="#ArialMT-2e" x="55.615234"/>
       <use xlink:href="#ArialMT-30" x="83.398438"/>
      </g>
     </g>
    </g>
   </g>
   <g id="line2d_14">
    <path d="M 54 242.115844 
L 161.338617 242.057678 
L 162.544669 241.692273 
L 163.75072 241.92361 
L 164.956772 241.960438 
L 166.162824 239.572602 
L 167.368876 233.945597 
L 168.574928 239.405492 
L 169.78098 238.32462 
L 170.987032 234.241007 
L 172.193084 231.8113 
L 173.399135 238.818177 
L 174.605187 240.116758 
L 175.811239 241.846295 
L 177.017291 241.091124 
L 178.223343 230.058144 
L 179.429395 240.276147 
L 180.635447 227.583223 
L 181.841499 233.127552 
L 183.04755 238.06818 
L 184.253602 234.147999 
L 185.459654 235.936149 
L 186.665706 241.952948 
L 187.871758 237.866424 
L 189.07781 237.883667 
L 190.283862 234.882098 
L 191.489914 233.594044 
L 192.695965 162.427212 
L 193.902017 204.601174 
L 195.108069 236.50326 
L 196.314121 235.526211 
L 197.520173 238.76767 
L 198.726225 240.19618 
L 201.138329 241.35409 
L 202.34438 240.922374 
L 203.550432 238.264051 
L 204.756484 241.972195 
L 205.962536 239.055935 
L 207.168588 240.01452 
L 208.37464 241.361738 
L 209.580692 241.826979 
L 210.786744 239.015069 
L 211.992795 240.167707 
L 213.198847 242.018479 
L 214.404899 242.002422 
L 215.610951 235.159472 
L 216.817003 241.852715 
L 219.229107 238.445994 
L 220.435159 240.992155 
L 221.64121 237.903081 
L 222.847262 227.83668 
L 224.053314 229.362667 
L 225.259366 203.137234 
L 226.465418 44.443636 
L 227.67147 84.956151 
L 228.877522 185.782828 
L 230.083573 218.256044 
L 231.289625 240.583379 
L 232.495677 233.473333 
L 233.701729 238.925241 
L 234.907781 241.730526 
L 236.113833 240.298764 
L 237.319885 241.445313 
L 238.525937 241.455645 
L 239.731988 241.859732 
L 240.93804 241.8532 
L 242.144092 242.108054 
L 243.350144 240.752391 
L 244.556196 241.691923 
L 245.762248 241.559738 
L 248.174352 242.015419 
L 250.586455 241.970993 
L 251.792507 241.75835 
L 252.998559 241.917386 
L 254.204611 241.327915 
L 255.410663 241.792233 
L 256.616715 241.994679 
L 257.822767 241.966142 
L 259.028818 241.76081 
L 260.23487 241.862872 
L 262.646974 241.437422 
L 263.853026 241.838772 
L 268.677233 242.019505 
L 272.295389 242.098006 
L 274.707493 242.001691 
L 278.325648 242.059138 
L 283.149856 242.092984 
L 292.798271 242.111575 
L 322.949568 242.115334 
L 433 242.116091 
M 433 242.116345 
L -1 242.116345 
L -1 242.116345 
" clip-path="url(#pf31e11c693)" style="fill: none; stroke: #4c72b0; stroke-opacity: 0.3; stroke-width: 1.5; stroke-linecap: round"/>
   </g>
   <g id="line2d_15">
    <path d="M 54 242.107996 
L 155.308357 242.033235 
L 156.514409 241.936153 
L 157.720461 241.969606 
L 158.926513 241.263766 
L 160.132565 240.167366 
L 161.338617 242.081745 
L 162.544669 237.845115 
L 163.75072 239.434222 
L 164.956772 241.793446 
L 166.162824 234.128005 
L 167.368876 234.403617 
L 168.574928 240.19621 
L 169.78098 241.977166 
L 170.987032 236.440158 
L 172.193084 239.102407 
L 173.399135 240.689346 
L 174.605187 234.742047 
L 175.811239 227.053467 
L 177.017291 238.55964 
L 178.223343 233.766623 
L 179.429395 237.717761 
L 180.635447 225.255002 
L 181.841499 238.188188 
L 183.04755 238.66027 
L 184.253602 241.221445 
L 185.459654 228.588033 
L 186.665706 241.729562 
L 187.871758 238.585271 
L 189.07781 240.420402 
L 190.283862 233.091885 
L 191.489914 234.005247 
L 192.695965 231.332272 
L 193.902017 214.103531 
L 195.108069 235.366148 
L 196.314121 240.574595 
L 197.520173 237.942284 
L 198.726225 240.603386 
L 199.932277 242.034526 
L 201.138329 240.480102 
L 202.34438 238.616945 
L 203.550432 240.611394 
L 204.756484 240.930544 
L 205.962536 235.257875 
L 207.168588 235.305155 
L 208.37464 241.020488 
L 209.580692 238.731173 
L 210.786744 241.086551 
L 211.992795 240.964648 
L 213.198847 237.941223 
L 214.404899 237.512885 
L 215.610951 240.652949 
L 216.817003 241.051396 
L 218.023055 240.052648 
L 219.229107 240.352089 
L 220.435159 240.271813 
L 221.64121 236.824499 
L 222.847262 238.677236 
L 224.053314 235.657529 
L 225.259366 233.519074 
L 226.465418 44.443636 
L 227.67147 143.702378 
L 228.877522 173.295976 
L 230.083573 233.878059 
L 231.289625 232.658318 
L 232.495677 232.214558 
L 233.701729 238.833687 
L 234.907781 241.357438 
L 236.113833 241.018746 
L 237.319885 232.078989 
L 238.525937 241.432653 
L 239.731988 241.905884 
L 240.93804 240.148154 
L 242.144092 239.247874 
L 243.350144 241.691346 
L 244.556196 242.098192 
L 245.762248 241.689036 
L 246.9683 238.585191 
L 248.174352 239.616007 
L 249.380403 238.413195 
L 250.586455 242.035653 
L 251.792507 241.368412 
L 252.998559 241.655544 
L 254.204611 241.821759 
L 255.410663 241.803163 
L 256.616715 238.153723 
L 257.822767 242.025822 
L 260.23487 241.264474 
L 261.440922 241.979566 
L 262.646974 240.92358 
L 263.853026 241.786074 
L 265.059078 241.953939 
L 266.26513 240.776645 
L 267.471182 241.705335 
L 268.677233 241.356686 
L 269.883285 241.293905 
L 273.501441 241.975489 
L 275.913545 241.871267 
L 277.119597 242.03784 
L 284.355908 242.020234 
L 285.56196 242.112391 
L 291.592219 242.113557 
L 341.040346 242.115204 
L 433 242.116034 
M 433 242.116357 
L -1 242.116357 
L -1 242.116357 
" clip-path="url(#pf31e11c693)" style="fill: none; stroke: #dd8452; stroke-opacity: 0.3; stroke-width: 1.5; stroke-linecap: round"/>
   </g>
   <g id="line2d_16">
    <path d="M 54 242.102463 
L 156.514409 242.043227 
L 157.720461 241.955465 
L 158.926513 241.709459 
L 160.132565 242.032533 
L 161.338617 242.027241 
L 162.544669 240.606677 
L 163.75072 241.61151 
L 164.956772 241.688555 
L 166.162824 239.065908 
L 167.368876 236.066452 
L 168.574928 240.226879 
L 169.78098 238.950478 
L 170.987032 242.105896 
L 172.193084 237.323109 
L 173.399135 236.831697 
L 175.811239 241.058604 
L 177.017291 237.402015 
L 178.223343 237.550626 
L 179.429395 240.762838 
L 180.635447 240.111537 
L 181.841499 238.4671 
L 183.04755 240.999794 
L 184.253602 230.447262 
L 185.459654 240.266797 
L 186.665706 239.943094 
L 187.871758 241.311947 
L 189.07781 239.138851 
L 190.283862 240.00823 
L 191.489914 240.355781 
L 192.695965 212.69619 
L 193.902017 210.956556 
L 195.108069 232.109034 
L 196.314121 240.387788 
L 197.520173 235.770324 
L 198.726225 241.782031 
L 199.932277 239.322714 
L 201.138329 238.423701 
L 202.34438 240.163439 
L 203.550432 241.029478 
L 204.756484 238.552665 
L 205.962536 239.412963 
L 207.168588 230.601552 
L 208.37464 241.058566 
L 209.580692 229.270132 
L 210.786744 234.687185 
L 211.992795 236.760101 
L 213.198847 237.00975 
L 214.404899 241.539032 
L 216.817003 237.191964 
L 218.023055 241.849286 
L 219.229107 231.634866 
L 220.435159 239.747786 
L 222.847262 230.935829 
L 224.053314 233.448144 
L 225.259366 212.404825 
L 226.465418 46.120775 
L 227.67147 44.443636 
L 228.877522 174.918855 
L 230.083573 229.73355 
L 231.289625 240.810847 
L 232.495677 240.276486 
L 233.701729 218.563378 
L 234.907781 241.814972 
L 236.113833 239.013556 
L 237.319885 241.980717 
L 238.525937 234.812547 
L 239.731988 239.14082 
L 240.93804 237.860705 
L 242.144092 241.588844 
L 243.350144 241.724098 
L 244.556196 239.482081 
L 245.762248 236.728954 
L 246.9683 240.323798 
L 248.174352 240.674639 
L 249.380403 233.588905 
L 250.586455 241.979368 
L 251.792507 242.026312 
L 252.998559 241.847809 
L 254.204611 240.337706 
L 255.410663 241.712503 
L 256.616715 233.550283 
L 257.822767 241.224194 
L 259.028818 241.989922 
L 260.23487 238.565357 
L 262.646974 240.030298 
L 263.853026 239.221246 
L 265.059078 240.302402 
L 266.26513 242.021809 
L 267.471182 241.761924 
L 268.677233 240.966903 
L 269.883285 242.041185 
L 271.089337 241.805874 
L 272.295389 240.521387 
L 273.501441 241.850096 
L 274.707493 242.032642 
L 275.913545 241.697076 
L 277.119597 242.050055 
L 286.768012 242.076984 
L 291.592219 242.113912 
L 296.416427 242.101891 
L 349.482709 242.11355 
L 433 242.115596 
M 433 242.116357 
L -1 242.116357 
L -1 242.116357 
" clip-path="url(#pf31e11c693)" style="fill: none; stroke: #55a868; stroke-opacity: 0.3; stroke-width: 1.5; stroke-linecap: round"/>
   </g>
   <g id="line2d_17">
    <path d="M 54 242.109851 
L 166.162824 242.076986 
L 167.368876 241.705213 
L 168.574928 240.313173 
L 169.78098 241.18145 
L 170.987032 240.003042 
L 172.193084 241.820094 
L 173.399135 241.423916 
L 174.605187 241.935114 
L 175.811239 242.085007 
L 177.017291 240.013453 
L 178.223343 240.062286 
L 179.429395 239.215127 
L 180.635447 241.352717 
L 181.841499 241.956145 
L 183.04755 241.706545 
L 184.253602 240.994895 
L 185.459654 241.320154 
L 186.665706 241.857545 
L 187.871758 241.589009 
L 189.07781 241.605493 
L 190.283862 241.940931 
L 191.489914 241.425238 
L 192.695965 238.064567 
L 193.902017 237.408976 
L 195.108069 241.569542 
L 196.314121 242.026957 
L 197.520173 240.691753 
L 198.726225 241.622645 
L 201.138329 240.611878 
L 202.34438 240.903874 
L 203.550432 236.99332 
L 204.756484 241.378415 
L 205.962536 241.197482 
L 207.168588 241.165107 
L 208.37464 241.495819 
L 209.580692 240.895992 
L 210.786744 242.070794 
L 211.992795 241.204109 
L 213.198847 241.124719 
L 214.404899 240.846197 
L 215.610951 241.2596 
L 216.817003 238.569542 
L 218.023055 241.108846 
L 219.229107 240.610466 
L 220.435159 240.806191 
L 221.64121 240.432889 
L 222.847262 223.593373 
L 224.053314 233.812114 
L 225.259366 220.480761 
L 226.465418 44.443636 
L 227.67147 84.384396 
L 228.877522 162.288307 
L 230.083573 217.315069 
L 231.289625 239.293109 
L 232.495677 228.241148 
L 233.701729 239.189189 
L 234.907781 239.122175 
L 236.113833 235.067243 
L 237.319885 240.514675 
L 238.525937 242.08418 
L 239.731988 241.820203 
L 240.93804 238.251039 
L 242.144092 240.634701 
L 243.350144 240.383548 
L 244.556196 239.994446 
L 246.9683 241.978917 
L 248.174352 242.071587 
L 249.380403 241.788037 
L 250.586455 242.030172 
L 251.792507 241.759344 
L 252.998559 241.70277 
L 254.204611 242.01271 
L 255.410663 241.840722 
L 256.616715 241.971155 
L 257.822767 241.763966 
L 259.028818 242.041982 
L 260.23487 242.00981 
L 261.440922 241.355638 
L 262.646974 242.048815 
L 263.853026 241.784709 
L 265.059078 242.100249 
L 267.471182 241.915431 
L 271.089337 242.116183 
L 275.913545 241.7968 
L 277.119597 242.036128 
L 279.5317 242.111525 
L 281.943804 242.115945 
L 296.416427 242.107306 
L 433 242.115817 
M 433 242.116349 
L -1 242.116349 
L -1 242.116349 
" clip-path="url(#pf31e11c693)" style="fill: none; stroke: #c44e52; stroke-opacity: 0.3; stroke-width: 1.5; stroke-linecap: round"/>
   </g>
   <g id="line2d_18">
    <path d="M 54 242.116085 
L 155.308357 242.016712 
L 157.720461 242.026984 
L 158.926513 241.655235 
L 161.338617 240.714904 
L 162.544669 240.974342 
L 163.75072 241.005469 
L 164.956772 236.737768 
L 166.162824 239.699961 
L 167.368876 238.693276 
L 168.574928 230.194783 
L 169.78098 235.645158 
L 170.987032 231.361244 
L 172.193084 240.218393 
L 173.399135 241.830969 
L 174.605187 212.063696 
L 175.811239 232.820638 
L 177.017291 239.265357 
L 178.223343 237.556449 
L 179.429395 241.460195 
L 180.635447 236.165417 
L 181.841499 227.278694 
L 183.04755 240.929789 
L 184.253602 239.966277 
L 186.665706 214.545356 
L 187.871758 212.924251 
L 189.07781 239.379402 
L 190.283862 226.14478 
L 191.489914 238.822617 
L 192.695965 188.302855 
L 193.902017 225.388228 
L 195.108069 189.095296 
L 196.314121 234.229679 
L 197.520173 235.548229 
L 198.726225 219.78488 
L 199.932277 239.266956 
L 201.138329 238.957625 
L 202.34438 236.429222 
L 203.550432 238.072714 
L 204.756484 233.815621 
L 205.962536 238.729052 
L 207.168588 239.752142 
L 208.37464 237.770284 
L 209.580692 233.475165 
L 210.786744 237.52415 
L 211.992795 235.688349 
L 213.198847 241.857869 
L 214.404899 239.309713 
L 215.610951 234.13204 
L 216.817003 240.576722 
L 218.023055 237.8419 
L 219.229107 232.223086 
L 220.435159 239.35193 
L 221.64121 239.716935 
L 222.847262 223.577841 
L 224.053314 240.272599 
L 225.259366 214.902694 
L 226.465418 64.5135 
L 227.67147 44.443636 
L 228.877522 167.666432 
L 230.083573 226.262906 
L 231.289625 213.478118 
L 232.495677 224.653451 
L 233.701729 239.708032 
L 234.907781 236.115674 
L 236.113833 234.105218 
L 237.319885 218.472222 
L 238.525937 237.663463 
L 239.731988 234.413815 
L 240.93804 227.140517 
L 242.144092 236.804929 
L 243.350144 232.080266 
L 244.556196 241.143216 
L 245.762248 237.753971 
L 246.9683 223.958478 
L 248.174352 233.475457 
L 249.380403 241.466527 
L 250.586455 237.136006 
L 251.792507 233.579489 
L 252.998559 240.168065 
L 254.204611 239.76084 
L 255.410663 240.8102 
L 256.616715 241.312541 
L 257.822767 237.85735 
L 259.028818 235.483734 
L 260.23487 239.456107 
L 261.440922 241.942056 
L 262.646974 241.708989 
L 263.853026 230.635108 
L 265.059078 231.209573 
L 266.26513 239.893391 
L 267.471182 241.935211 
L 268.677233 232.610178 
L 269.883285 239.675737 
L 271.089337 239.516296 
L 272.295389 240.19052 
L 273.501441 241.514176 
L 274.707493 241.984824 
L 275.913545 241.057258 
L 277.119597 241.975534 
L 278.325648 239.737065 
L 279.5317 241.096868 
L 280.737752 241.810255 
L 281.943804 240.672191 
L 283.149856 241.593111 
L 285.56196 242.054686 
L 286.768012 242.016325 
L 287.974063 242.115643 
L 289.180115 241.927659 
L 290.386167 242.060955 
L 301.240634 242.108914 
L 330.185879 242.11422 
L 433 242.115812 
M 433 242.116327 
L -1 242.116327 
L -1 242.116327 
" clip-path="url(#pf31e11c693)" style="fill: none; stroke: #8172b3; stroke-opacity: 0.3; stroke-width: 1.5; stroke-linecap: round"/>
   </g>
   <g id="line2d_19">
    <path d="M 54 242.116221 
L 157.720461 242.091172 
L 158.926513 241.49994 
L 160.132565 240.229491 
L 161.338617 241.481906 
L 162.544669 240.592996 
L 163.75072 241.544176 
L 164.956772 233.504168 
L 166.162824 238.465503 
L 167.368876 239.869525 
L 168.574928 215.627473 
L 169.78098 216.286888 
L 170.987032 226.205414 
L 172.193084 190.41103 
L 173.399135 221.45468 
L 174.605187 173.883717 
L 175.811239 236.083943 
L 177.017291 223.414294 
L 178.223343 236.660706 
L 179.429395 239.669774 
L 180.635447 235.480624 
L 181.841499 217.534768 
L 183.04755 232.401239 
L 184.253602 231.17191 
L 185.459654 196.043038 
L 186.665706 195.099455 
L 189.07781 240.474737 
L 190.283862 222.183486 
L 191.489914 238.673631 
L 192.695965 224.763272 
L 193.902017 207.101952 
L 195.108069 103.23619 
L 196.314121 234.601982 
L 197.520173 232.98575 
L 198.726225 216.613769 
L 199.932277 234.923306 
L 201.138329 228.356684 
L 202.34438 233.708621 
L 203.550432 240.358285 
L 204.756484 237.911598 
L 205.962536 240.718197 
L 207.168588 241.552685 
L 208.37464 231.572035 
L 209.580692 206.573507 
L 210.786744 215.512769 
L 211.992795 239.508183 
L 213.198847 239.363026 
L 214.404899 234.569149 
L 215.610951 239.86279 
L 218.023055 219.917929 
L 219.229107 216.145902 
L 220.435159 231.004238 
L 221.64121 239.404148 
L 222.847262 196.320659 
L 224.053314 214.30351 
L 225.259366 239.351855 
L 226.465418 44.443636 
L 227.67147 212.195785 
L 228.877522 215.339981 
L 230.083573 240.900153 
L 231.289625 166.068894 
L 232.495677 219.526956 
L 233.701729 238.125611 
L 234.907781 231.256697 
L 236.113833 210.011405 
L 237.319885 179.785738 
L 238.525937 241.101076 
L 239.731988 223.814373 
L 240.93804 218.816296 
L 242.144092 235.7553 
L 243.350144 227.113417 
L 244.556196 237.844584 
L 245.762248 230.117399 
L 246.9683 231.509803 
L 248.174352 233.52821 
L 249.380403 241.813642 
L 250.586455 228.965845 
L 251.792507 239.386188 
L 252.998559 231.513137 
L 254.204611 242.107101 
L 255.410663 241.553753 
L 256.616715 238.591727 
L 257.822767 238.56531 
L 259.028818 232.859686 
L 260.23487 233.937367 
L 261.440922 240.129637 
L 262.646974 241.027272 
L 263.853026 222.794185 
L 265.059078 230.562822 
L 266.26513 237.289127 
L 267.471182 240.982833 
L 268.677233 234.015017 
L 269.883285 239.274016 
L 271.089337 240.792157 
L 272.295389 236.793716 
L 273.501441 236.594619 
L 274.707493 241.569387 
L 275.913545 239.076865 
L 277.119597 238.441877 
L 278.325648 238.238149 
L 280.737752 241.814004 
L 281.943804 240.876639 
L 283.149856 241.542548 
L 285.56196 242.012013 
L 286.768012 241.8617 
L 289.180115 242.06844 
L 297.622478 242.104671 
L 313.301153 242.11366 
L 367.573487 242.116224 
L 433 242.116313 
M 433 242.116362 
L -1 242.116362 
L -1 242.116362 
" clip-path="url(#pf31e11c693)" style="fill: none; stroke: #937860; stroke-opacity: 0.3; stroke-width: 1.5; stroke-linecap: round"/>
   </g>
   <g id="line2d_20">
    <path d="M 54 242.116359 
L 154.102305 242.013874 
L 155.308357 241.342526 
L 156.514409 240.468539 
L 157.720461 241.386643 
L 158.926513 241.895569 
L 160.132565 240.177435 
L 161.338617 241.169856 
L 162.544669 235.474527 
L 163.75072 224.78785 
L 166.162824 232.330939 
L 167.368876 236.807874 
L 168.574928 185.19706 
L 169.78098 94.537577 
L 170.987032 159.048212 
L 172.193084 240.518997 
L 173.399135 212.688926 
L 174.605187 238.603772 
L 175.811239 161.30403 
L 177.017291 44.443636 
L 178.223343 145.169755 
L 179.429395 184.126877 
L 180.635447 146.57297 
L 181.841499 225.684929 
L 183.04755 184.91759 
L 184.253602 106.962075 
L 185.459654 196.607035 
L 186.665706 240.569884 
L 187.871758 222.755558 
L 189.07781 209.85781 
L 190.283862 138.905151 
L 191.489914 139.271147 
L 192.695965 170.969156 
L 193.902017 136.697548 
L 195.108069 194.415237 
L 196.314121 219.291341 
L 197.520173 118.98691 
L 198.726225 155.291195 
L 199.932277 223.97112 
L 201.138329 166.919056 
L 202.34438 187.071339 
L 203.550432 234.335101 
L 204.756484 174.507045 
L 205.962536 140.323812 
L 207.168588 168.635858 
L 208.37464 202.669156 
L 209.580692 212.279182 
L 210.786744 178.797632 
L 211.992795 189.873462 
L 213.198847 226.516313 
L 214.404899 182.668765 
L 215.610951 170.085237 
L 216.817003 228.216143 
L 218.023055 211.803775 
L 219.229107 158.098207 
L 220.435159 167.091672 
L 221.64121 200.649031 
L 222.847262 216.88388 
L 224.053314 219.700174 
L 226.465418 241.508505 
L 227.67147 233.547751 
L 228.877522 223.991196 
L 230.083573 216.789568 
L 231.289625 217.536162 
L 232.495677 224.426229 
L 233.701729 199.723001 
L 234.907781 185.668472 
L 236.113833 219.203339 
L 237.319885 226.279941 
L 238.525937 213.131738 
L 239.731988 228.77786 
L 240.93804 235.368405 
L 242.144092 236.948759 
L 243.350144 234.989601 
L 244.556196 210.861558 
L 245.762248 222.101211 
L 246.9683 239.589178 
L 248.174352 214.346425 
L 249.380403 215.549204 
L 250.586455 218.732747 
L 251.792507 199.612216 
L 252.998559 220.984078 
L 254.204611 219.488188 
L 255.410663 195.927723 
L 256.616715 230.730462 
L 257.822767 217.508082 
L 259.028818 159.111275 
L 260.23487 196.098146 
L 261.440922 241.840996 
L 262.646974 219.998573 
L 263.853026 209.236147 
L 265.059078 220.22649 
L 266.26513 237.073313 
L 267.471182 233.494931 
L 268.677233 207.817411 
L 269.883285 225.370171 
L 271.089337 235.441016 
L 272.295389 193.748792 
L 273.501441 195.999536 
L 274.707493 233.949645 
L 275.913545 235.446413 
L 277.119597 230.514212 
L 278.325648 239.197407 
L 279.5317 242.041565 
L 280.737752 241.014997 
L 281.943804 240.363155 
L 283.149856 240.615312 
L 284.355908 241.454304 
L 285.56196 239.968781 
L 286.768012 239.378618 
L 287.974063 241.098722 
L 289.180115 241.75051 
L 290.386167 241.692781 
L 291.592219 242.040456 
L 292.798271 242.075454 
L 294.004323 241.997768 
L 296.416427 242.104637 
L 301.240634 242.093361 
L 318.12536 242.115772 
L 433 242.116353 
M 433 242.116363 
L -1 242.116363 
L -1 242.116363 
" clip-path="url(#pf31e11c693)" style="fill: none; stroke: #da8bc3; stroke-opacity: 0.3; stroke-width: 1.5; stroke-linecap: round"/>
   </g>
   <g id="line2d_21">
    <path d="M 54 242.116357 
L 154.102305 242.01216 
L 155.308357 241.351866 
L 156.514409 240.503061 
L 157.720461 241.408934 
L 158.926513 241.894039 
L 160.132565 240.250854 
L 161.338617 241.178378 
L 162.544669 235.219119 
L 163.75072 224.606916 
L 167.368876 236.596185 
L 168.574928 184.695042 
L 169.78098 95.900542 
L 170.987032 160.477361 
L 172.193084 240.300722 
L 173.399135 212.615954 
L 174.605187 238.300022 
L 175.811239 160.556463 
L 177.017291 44.443636 
L 178.223343 146.583949 
L 179.429395 187.478049 
L 180.635447 149.293352 
L 181.841499 225.82701 
L 183.04755 185.729621 
L 184.253602 109.127564 
L 185.459654 197.133249 
L 186.665706 240.71498 
L 187.871758 223.518082 
L 189.07781 209.822447 
L 190.283862 139.737086 
L 191.489914 140.820765 
L 192.695965 172.70045 
L 193.902017 139.552003 
L 195.108069 195.891031 
L 196.314121 220.127778 
L 197.520173 119.501421 
L 198.726225 153.258732 
L 199.932277 224.909401 
L 201.138329 171.550827 
L 202.34438 188.763438 
L 203.550432 235.217394 
L 204.756484 177.631192 
L 205.962536 142.841577 
L 207.168588 170.137358 
L 208.37464 203.413112 
L 209.580692 211.502491 
L 210.786744 179.351427 
L 211.992795 191.705567 
L 213.198847 226.524955 
L 214.404899 184.20768 
L 215.610951 173.121373 
L 216.817003 228.25281 
L 218.023055 211.718113 
L 219.229107 159.402876 
L 220.435159 167.45878 
L 221.64121 200.611382 
L 222.847262 217.522188 
L 224.053314 220.994377 
L 225.259366 230.477037 
L 226.465418 241.606566 
L 227.67147 234.762359 
L 228.877522 223.614228 
L 230.083573 216.407428 
L 231.289625 218.862321 
L 232.495677 224.426285 
L 233.701729 198.838559 
L 234.907781 185.1037 
L 236.113833 218.214318 
L 237.319885 225.652513 
L 238.525937 213.115183 
L 239.731988 228.991932 
L 240.93804 236.059834 
L 242.144092 237.361626 
L 243.350144 234.987614 
L 244.556196 211.933578 
L 245.762248 223.312428 
L 246.9683 239.651294 
L 248.174352 214.826727 
L 249.380403 216.009539 
L 250.586455 218.323674 
L 251.792507 199.572754 
L 252.998559 220.798299 
L 254.204611 219.807946 
L 255.410663 197.748052 
L 256.616715 231.558785 
L 257.822767 218.05861 
L 259.028818 161.760823 
L 260.23487 198.109642 
L 261.440922 241.936217 
L 262.646974 220.113251 
L 263.853026 209.188022 
L 265.059078 219.899699 
L 266.26513 236.9205 
L 267.471182 233.421979 
L 268.677233 208.341667 
L 269.883285 225.96647 
L 271.089337 235.539233 
L 272.295389 194.168095 
L 273.501441 196.64491 
L 274.707493 234.126275 
L 275.913545 235.250004 
L 277.119597 230.283742 
L 278.325648 239.095715 
L 279.5317 242.043024 
L 280.737752 241.028226 
L 281.943804 240.362797 
L 283.149856 240.619538 
L 284.355908 241.463651 
L 285.56196 239.982465 
L 286.768012 239.396664 
L 287.974063 241.103083 
L 289.180115 241.747501 
L 290.386167 241.691312 
L 291.592219 242.038708 
L 292.798271 242.077369 
L 294.004323 241.998795 
L 296.416427 242.104607 
L 301.240634 242.09334 
L 316.919308 242.114703 
L 433 242.116355 
M 433 242.116363 
L -1 242.116363 
L -1 242.116363 
" clip-path="url(#pf31e11c693)" style="fill: none; stroke: #8c8c8c; stroke-opacity: 0.3; stroke-width: 1.5; stroke-linecap: round"/>
   </g>
   <g id="line2d_22">
    <path d="M 54 242.116358 
L 154.102305 242.012261 
L 155.308357 241.343988 
L 156.514409 240.481105 
L 157.720461 241.393411 
L 158.926513 241.894776 
L 160.132565 240.226769 
L 161.338617 241.16196 
L 162.544669 235.283807 
L 163.75072 224.612938 
L 166.162824 232.700641 
L 167.368876 236.885875 
L 168.574928 185.075746 
L 169.78098 95.276473 
L 170.987032 159.698886 
L 172.193084 240.55467 
L 173.399135 212.910204 
L 174.605187 238.289641 
L 175.811239 160.579795 
L 177.017291 44.443636 
L 178.223343 146.385438 
L 179.429395 186.70581 
L 180.635447 148.905624 
L 181.841499 226.178014 
L 183.04755 185.641958 
L 184.253602 109.08333 
L 185.459654 197.486465 
L 186.665706 240.542572 
L 187.871758 223.232313 
L 189.07781 209.885069 
L 190.283862 139.793843 
L 191.489914 141.027999 
L 192.695965 172.408965 
L 193.902017 138.304027 
L 195.108069 194.914227 
L 196.314121 219.373567 
L 197.520173 119.032149 
L 198.726225 153.691928 
L 199.932277 223.958393 
L 201.138329 169.477024 
L 202.34438 188.533036 
L 203.550432 235.101402 
L 204.756484 176.117598 
L 205.962536 141.860556 
L 207.168588 169.975082 
L 208.37464 203.483149 
L 209.580692 211.518874 
L 210.786744 178.353724 
L 211.992795 190.275085 
L 213.198847 226.193279 
L 214.404899 183.86618 
L 215.610951 171.800294 
L 216.817003 227.699398 
L 218.023055 211.933884 
L 219.229107 158.937517 
L 220.435159 166.792905 
L 221.64121 200.373748 
L 222.847262 217.399422 
L 224.053314 220.759364 
L 225.259366 230.444501 
L 226.465418 241.587328 
L 227.67147 234.253587 
L 228.877522 223.295435 
L 230.083573 216.042879 
L 231.289625 217.839546 
L 232.495677 223.962715 
L 233.701729 199.117472 
L 234.907781 185.364301 
L 236.113833 218.586725 
L 237.319885 226.000379 
L 238.525937 213.262416 
L 239.731988 228.808871 
L 240.93804 235.583655 
L 242.144092 237.216858 
L 243.350144 234.859513 
L 244.556196 211.230644 
L 245.762248 222.829719 
L 246.9683 239.696083 
L 248.174352 214.696689 
L 249.380403 215.940015 
L 250.586455 218.607231 
L 251.792507 199.84185 
L 252.998559 220.949357 
L 254.204611 219.265611 
L 255.410663 196.678979 
L 256.616715 231.26042 
L 257.822767 217.519162 
L 259.028818 159.852947 
L 260.23487 196.771101 
L 261.440922 241.898929 
L 262.646974 220.029131 
L 263.853026 208.980429 
L 265.059078 219.822899 
L 266.26513 236.815979 
L 267.471182 233.471042 
L 268.677233 208.398686 
L 269.883285 225.950805 
L 271.089337 235.630502 
L 272.295389 194.067319 
L 273.501441 196.262036 
L 274.707493 233.88596 
L 275.913545 235.279271 
L 277.119597 230.375241 
L 278.325648 239.133408 
L 279.5317 242.04741 
L 280.737752 241.027318 
L 281.943804 240.363541 
L 283.149856 240.627595 
L 284.355908 241.466907 
L 285.56196 239.966984 
L 286.768012 239.37471 
L 287.974063 241.091589 
L 289.180115 241.744679 
L 290.386167 241.689756 
L 291.592219 242.03756 
L 292.798271 242.077867 
L 294.004323 242.0003 
L 296.416427 242.105085 
L 301.240634 242.093654 
L 319.331412 242.116125 
L 433 242.116355 
M 433 242.116363 
L -1 242.116363 
L -1 242.116363 
" clip-path="url(#pf31e11c693)" style="fill: none; stroke: #ccb974; stroke-opacity: 0.3; stroke-width: 1.5; stroke-linecap: round"/>
   </g>
   <g id="line2d_23">
    <path d="M 54 242.111837 
L 156.514409 242.107288 
L 157.720461 241.774858 
L 158.926513 242.048025 
L 160.132565 241.903579 
L 161.338617 240.337035 
L 162.544669 241.788466 
L 163.75072 241.664301 
L 164.956772 241.664775 
L 166.162824 234.557956 
L 167.368876 233.72256 
L 168.574928 236.959044 
L 169.78098 228.194607 
L 170.987032 228.02415 
L 172.193084 225.678935 
L 173.399135 241.640535 
L 174.605187 242.10736 
L 175.811239 241.527609 
L 177.017291 236.025363 
L 178.223343 231.552287 
L 179.429395 239.886998 
L 180.635447 234.044382 
L 181.841499 231.816878 
L 183.04755 237.310936 
L 184.253602 236.429198 
L 185.459654 239.88049 
L 186.665706 236.713363 
L 187.871758 241.651353 
L 189.07781 237.52578 
L 190.283862 240.765352 
L 191.489914 238.618239 
L 192.695965 208.17179 
L 193.902017 224.565335 
L 195.108069 235.33637 
L 196.314121 236.223021 
L 197.520173 240.968263 
L 198.726225 240.006124 
L 199.932277 238.161564 
L 201.138329 241.31821 
L 202.34438 241.304417 
L 203.550432 239.521222 
L 204.756484 239.044033 
L 205.962536 241.329602 
L 207.168588 238.684366 
L 208.37464 239.943395 
L 209.580692 239.143022 
L 210.786744 237.141164 
L 211.992795 238.958507 
L 213.198847 241.915671 
L 214.404899 241.554538 
L 215.610951 233.583964 
L 216.817003 242.059192 
L 218.023055 240.651042 
L 219.229107 238.695089 
L 220.435159 241.985704 
L 222.847262 228.803988 
L 224.053314 228.627501 
L 225.259366 208.899411 
L 226.465418 47.962938 
L 227.67147 44.443636 
L 228.877522 158.598947 
L 230.083573 225.676784 
L 231.289625 241.368201 
L 232.495677 230.981071 
L 233.701729 241.359292 
L 234.907781 240.111832 
L 236.113833 241.340163 
L 237.319885 239.671445 
L 238.525937 241.960544 
L 240.93804 242.019506 
L 242.144092 241.162517 
L 243.350144 241.07783 
L 244.556196 240.383208 
L 245.762248 242.014269 
L 246.9683 241.577995 
L 248.174352 241.895384 
L 250.586455 241.835537 
L 251.792507 241.691619 
L 252.998559 241.882372 
L 254.204611 241.938083 
L 255.410663 241.339043 
L 256.616715 241.913323 
L 257.822767 242.046724 
L 260.23487 241.866778 
L 261.440922 241.095547 
L 262.646974 241.034328 
L 263.853026 241.999046 
L 267.471182 241.893146 
L 271.089337 242.112034 
L 272.295389 242.057158 
L 273.501441 241.830656 
L 274.707493 241.886321 
L 275.913545 242.111407 
L 433 242.11617 
M 433 242.116364 
L -1 242.116364 
L -1 242.116364 
" clip-path="url(#pf31e11c693)" style="fill: none; stroke: #64b5cd; stroke-opacity: 0.3; stroke-width: 1.5; stroke-linecap: round"/>
   </g>
   <g id="line2d_24">
    <path d="M 54 242.076586 
L 142.041787 241.977589 
L 144.45389 241.975214 
L 146.865994 241.937836 
L 148.072046 241.837943 
L 152.896254 242.086592 
L 154.102305 241.504071 
L 155.308357 241.511047 
L 156.514409 241.246445 
L 157.720461 241.725059 
L 158.926513 236.98087 
L 160.132565 223.720582 
L 161.338617 241.809195 
L 162.544669 205.516426 
L 163.75072 230.790589 
L 164.956772 228.388426 
L 166.162824 200.315211 
L 167.368876 219.64688 
L 168.574928 233.518254 
L 169.78098 237.565302 
L 170.987032 137.138118 
L 172.193084 175.309129 
L 173.399135 233.461736 
L 174.605187 149.855453 
L 175.811239 202.855204 
L 177.017291 238.908257 
L 178.223343 217.50895 
L 179.429395 218.14977 
L 180.635447 143.312466 
L 181.841499 235.614828 
L 183.04755 220.110336 
L 184.253602 199.80911 
L 185.459654 221.365722 
L 186.665706 214.416333 
L 187.871758 230.744279 
L 189.07781 237.665589 
L 190.283862 208.922099 
L 191.489914 222.404946 
L 192.695965 44.443636 
L 193.902017 107.293033 
L 195.108069 239.899142 
L 196.314121 222.516775 
L 198.726225 240.826984 
L 199.932277 226.498537 
L 201.138329 231.106164 
L 202.34438 233.402581 
L 203.550432 232.850704 
L 204.756484 239.437375 
L 205.962536 236.554813 
L 207.168588 222.869442 
L 208.37464 229.431184 
L 209.580692 234.139139 
L 210.786744 229.888053 
L 211.992795 237.656136 
L 213.198847 235.901631 
L 214.404899 239.242796 
L 215.610951 240.515476 
L 216.817003 237.719754 
L 218.023055 236.859281 
L 219.229107 239.193639 
L 220.435159 237.586585 
L 221.64121 230.880517 
L 222.847262 236.91466 
L 224.053314 241.716014 
L 225.259366 232.242219 
L 226.465418 147.78186 
L 227.67147 178.715171 
L 228.877522 187.285759 
L 230.083573 232.58382 
L 231.289625 219.736884 
L 232.495677 231.49543 
L 233.701729 238.560781 
L 234.907781 224.679567 
L 236.113833 241.26441 
L 237.319885 234.1537 
L 238.525937 234.458728 
L 239.731988 237.092616 
L 240.93804 240.11257 
L 242.144092 240.046656 
L 243.350144 224.465078 
L 244.556196 241.597077 
L 245.762248 240.561517 
L 246.9683 222.314185 
L 248.174352 238.01708 
L 249.380403 238.825859 
L 250.586455 241.346011 
L 251.792507 237.612027 
L 252.998559 225.058132 
L 254.204611 236.689382 
L 255.410663 238.257635 
L 256.616715 241.28023 
L 257.822767 240.229483 
L 259.028818 234.679598 
L 260.23487 240.818531 
L 261.440922 238.365792 
L 262.646974 239.110062 
L 263.853026 239.702627 
L 265.059078 235.357793 
L 266.26513 236.378673 
L 267.471182 242.013861 
L 268.677233 235.699852 
L 269.883285 241.01493 
L 271.089337 239.817246 
L 272.295389 240.805249 
L 273.501441 240.043689 
L 274.707493 241.027763 
L 275.913545 239.917817 
L 277.119597 241.877457 
L 278.325648 241.527348 
L 279.5317 241.921226 
L 280.737752 241.998393 
L 281.943804 241.649767 
L 284.355908 241.917919 
L 285.56196 242.085135 
L 286.768012 242.010719 
L 287.974063 241.808337 
L 292.798271 242.093111 
L 302.446686 242.111945 
L 330.185879 242.113076 
L 433 242.115679 
M 433 242.116364 
L -1 242.116364 
L -1 242.116364 
" clip-path="url(#pf31e11c693)" style="fill: none; stroke: #4c72b0; stroke-opacity: 0.3; stroke-width: 1.5; stroke-linecap: round"/>
   </g>
   <g id="line2d_25">
    <path d="M 54 242.116341 
L 156.514409 242.023739 
L 157.720461 241.900356 
L 160.132565 240.288637 
L 161.338617 242.082003 
L 162.544669 236.057915 
L 163.75072 240.218812 
L 164.956772 239.364225 
L 166.162824 232.622794 
L 167.368876 237.00977 
L 168.574928 238.00643 
L 169.78098 233.14401 
L 170.987032 227.516741 
L 172.193084 235.258038 
L 173.399135 241.295014 
L 174.605187 228.355677 
L 175.811239 241.558464 
L 177.017291 241.958691 
L 178.223343 236.408287 
L 179.429395 234.130931 
L 180.635447 196.547141 
L 181.841499 240.321674 
L 183.04755 228.71898 
L 184.253602 222.098709 
L 185.459654 232.626765 
L 186.665706 242.079554 
L 187.871758 231.753087 
L 189.07781 237.554231 
L 190.283862 223.500024 
L 191.489914 225.079677 
L 192.695965 182.360063 
L 193.902017 188.205091 
L 195.108069 239.140218 
L 196.314121 233.622173 
L 197.520173 239.463563 
L 198.726225 239.723484 
L 199.932277 235.880989 
L 201.138329 241.14373 
L 202.34438 240.67721 
L 203.550432 203.074061 
L 204.756484 237.485975 
L 205.962536 226.661444 
L 207.168588 219.909533 
L 208.37464 239.080204 
L 209.580692 226.56029 
L 210.786744 234.965187 
L 211.992795 241.839814 
L 214.404899 241.07224 
L 215.610951 239.189343 
L 216.817003 241.201428 
L 218.023055 237.194831 
L 219.229107 240.79058 
L 220.435159 233.193011 
L 221.64121 237.197205 
L 222.847262 238.183638 
L 224.053314 227.427825 
L 225.259366 220.314203 
L 226.465418 44.443636 
L 227.67147 78.444226 
L 228.877522 163.081837 
L 230.083573 226.359251 
L 231.289625 211.809611 
L 232.495677 230.004994 
L 233.701729 239.507578 
L 234.907781 238.930499 
L 236.113833 241.945384 
L 237.319885 238.958567 
L 238.525937 238.809297 
L 239.731988 241.930193 
L 240.93804 241.812364 
L 242.144092 237.544757 
L 243.350144 242.06429 
L 244.556196 241.190532 
L 245.762248 241.83776 
L 246.9683 237.22044 
L 248.174352 239.827824 
L 249.380403 242.11185 
L 250.586455 237.910778 
L 251.792507 241.985305 
L 252.998559 241.230301 
L 255.410663 242.109726 
L 256.616715 240.87875 
L 257.822767 242.067799 
L 259.028818 239.156716 
L 260.23487 240.018012 
L 261.440922 241.919903 
L 262.646974 241.554869 
L 263.853026 240.198322 
L 265.059078 239.073084 
L 266.26513 239.218473 
L 267.471182 241.190404 
L 268.677233 239.771422 
L 269.883285 240.14036 
L 271.089337 241.787494 
L 272.295389 241.667171 
L 273.501441 241.704152 
L 274.707493 242.086719 
L 275.913545 240.549422 
L 277.119597 241.993505 
L 278.325648 242.050252 
L 279.5317 241.636335 
L 280.737752 241.952025 
L 281.943804 242.104816 
L 285.56196 242.089664 
L 303.652738 242.113649 
L 361.543228 242.115688 
L 433 242.116139 
M 433 242.116355 
L -1 242.116355 
L -1 242.116355 
" clip-path="url(#pf31e11c693)" style="fill: none; stroke: #dd8452; stroke-opacity: 0.3; stroke-width: 1.5; stroke-linecap: round"/>
   </g>
   <g id="patch_3">
    <path d="M 54 252 
L 54 34.56 
" style="fill: none; stroke: #262626; stroke-width: 1.25; stroke-linejoin: miter; stroke-linecap: square"/>
   </g>
   <g id="patch_4">
    <path d="M 388.8 252 
L 388.8 34.56 
" style="fill: none; stroke: #262626; stroke-width: 1.25; stroke-linejoin: miter; stroke-linecap: square"/>
   </g>
   <g id="patch_5">
    <path d="M 54 252 
L 388.8 252 
" style="fill: none; stroke: #262626; stroke-width: 1.25; stroke-linejoin: miter; stroke-linecap: square"/>
   </g>
   <g id="patch_6">
    <path d="M 54 34.56 
L 388.8 34.56 
" style="fill: none; stroke: #262626; stroke-width: 1.25; stroke-linejoin: miter; stroke-linecap: square"/>
   </g>
   <g id="text_15">
    <!-- patient14_app01 - Power spectrum -->
    <g style="fill: #262626" transform="translate(128.0175 28.56)scale(0.12 -0.12)">
     <defs>
      <path id="ArialMT-70" d="M 422 -1272 
L 422 3319 
L 934 3319 
L 934 2888 
Q 1116 3141 1344 3267 
Q 1572 3394 1897 3394 
Q 2322 3394 2647 3175 
Q 2972 2956 3137 2557 
Q 3303 2159 3303 1684 
Q 3303 1175 3120 767 
Q 2938 359 2589 142 
Q 2241 -75 1856 -75 
Q 1575 -75 1351 44 
Q 1128 163 984 344 
L 984 -1272 
L 422 -1272 
z
M 931 1641 
Q 931 1000 1190 694 
Q 1450 388 1819 388 
Q 2194 388 2461 705 
Q 2728 1022 2728 1688 
Q 2728 2322 2467 2637 
Q 2206 2953 1844 2953 
Q 1484 2953 1207 2617 
Q 931 2281 931 1641 
z
" transform="scale(0.015625)"/>
      <path id="ArialMT-61" d="M 2588 409 
Q 2275 144 1986 34 
Q 1697 -75 1366 -75 
Q 819 -75 525 192 
Q 231 459 231 875 
Q 231 1119 342 1320 
Q 453 1522 633 1644 
Q 813 1766 1038 1828 
Q 1203 1872 1538 1913 
Q 2219 1994 2541 2106 
Q 2544 2222 2544 2253 
Q 2544 2597 2384 2738 
Q 2169 2928 1744 2928 
Q 1347 2928 1158 2789 
Q 969 2650 878 2297 
L 328 2372 
Q 403 2725 575 2942 
Q 747 3159 1072 3276 
Q 1397 3394 1825 3394 
Q 2250 3394 2515 3294 
Q 2781 3194 2906 3042 
Q 3031 2891 3081 2659 
Q 3109 2516 3109 2141 
L 3109 1391 
Q 3109 606 3145 398 
Q 3181 191 3288 0 
L 2700 0 
Q 2613 175 2588 409 
z
M 2541 1666 
Q 2234 1541 1622 1453 
Q 1275 1403 1131 1340 
Q 988 1278 909 1158 
Q 831 1038 831 891 
Q 831 666 1001 516 
Q 1172 366 1500 366 
Q 1825 366 2078 508 
Q 2331 650 2450 897 
Q 2541 1088 2541 1459 
L 2541 1666 
z
" transform="scale(0.015625)"/>
      <path id="ArialMT-74" d="M 1650 503 
L 1731 6 
Q 1494 -44 1306 -44 
Q 1000 -44 831 53 
Q 663 150 594 308 
Q 525 466 525 972 
L 525 2881 
L 113 2881 
L 113 3319 
L 525 3319 
L 525 4141 
L 1084 4478 
L 1084 3319 
L 1650 3319 
L 1650 2881 
L 1084 2881 
L 1084 941 
Q 1084 700 1114 631 
Q 1144 563 1211 522 
Q 1278 481 1403 481 
Q 1497 481 1650 503 
z
" transform="scale(0.015625)"/>
      <path id="ArialMT-69" d="M 425 3934 
L 425 4581 
L 988 4581 
L 988 3934 
L 425 3934 
z
M 425 0 
L 425 3319 
L 988 3319 
L 988 0 
L 425 0 
z
" transform="scale(0.015625)"/>
      <path id="ArialMT-5f" d="M -97 -1272 
L -97 -866 
L 3631 -866 
L 3631 -1272 
L -97 -1272 
z
" transform="scale(0.015625)"/>
      <path id="ArialMT-2d" d="M 203 1375 
L 203 1941 
L 1931 1941 
L 1931 1375 
L 203 1375 
z
" transform="scale(0.015625)"/>
      <path id="ArialMT-50" d="M 494 0 
L 494 4581 
L 2222 4581 
Q 2678 4581 2919 4538 
Q 3256 4481 3484 4323 
Q 3713 4166 3852 3881 
Q 3991 3597 3991 3256 
Q 3991 2672 3619 2267 
Q 3247 1863 2275 1863 
L 1100 1863 
L 1100 0 
L 494 0 
z
M 1100 2403 
L 2284 2403 
Q 2872 2403 3119 2622 
Q 3366 2841 3366 3238 
Q 3366 3525 3220 3729 
Q 3075 3934 2838 4000 
Q 2684 4041 2272 4041 
L 1100 4041 
L 1100 2403 
z
" transform="scale(0.015625)"/>
      <path id="ArialMT-6f" d="M 213 1659 
Q 213 2581 725 3025 
Q 1153 3394 1769 3394 
Q 2453 3394 2887 2945 
Q 3322 2497 3322 1706 
Q 3322 1066 3130 698 
Q 2938 331 2570 128 
Q 2203 -75 1769 -75 
Q 1072 -75 642 372 
Q 213 819 213 1659 
z
M 791 1659 
Q 791 1022 1069 705 
Q 1347 388 1769 388 
Q 2188 388 2466 706 
Q 2744 1025 2744 1678 
Q 2744 2294 2464 2611 
Q 2184 2928 1769 2928 
Q 1347 2928 1069 2612 
Q 791 2297 791 1659 
z
" transform="scale(0.015625)"/>
      <path id="ArialMT-77" d="M 1034 0 
L 19 3319 
L 600 3319 
L 1128 1403 
L 1325 691 
Q 1338 744 1497 1375 
L 2025 3319 
L 2603 3319 
L 3100 1394 
L 3266 759 
L 3456 1400 
L 4025 3319 
L 4572 3319 
L 3534 0 
L 2950 0 
L 2422 1988 
L 2294 2553 
L 1622 0 
L 1034 0 
z
" transform="scale(0.015625)"/>
      <path id="ArialMT-73" d="M 197 991 
L 753 1078 
Q 800 744 1014 566 
Q 1228 388 1613 388 
Q 2000 388 2187 545 
Q 2375 703 2375 916 
Q 2375 1106 2209 1216 
Q 2094 1291 1634 1406 
Q 1016 1563 777 1677 
Q 538 1791 414 1992 
Q 291 2194 291 2438 
Q 291 2659 392 2848 
Q 494 3038 669 3163 
Q 800 3259 1026 3326 
Q 1253 3394 1513 3394 
Q 1903 3394 2198 3281 
Q 2494 3169 2634 2976 
Q 2775 2784 2828 2463 
L 2278 2388 
Q 2241 2644 2061 2787 
Q 1881 2931 1553 2931 
Q 1166 2931 1000 2803 
Q 834 2675 834 2503 
Q 834 2394 903 2306 
Q 972 2216 1119 2156 
Q 1203 2125 1616 2013 
Q 2213 1853 2448 1751 
Q 2684 1650 2818 1456 
Q 2953 1263 2953 975 
Q 2953 694 2789 445 
Q 2625 197 2315 61 
Q 2006 -75 1616 -75 
Q 969 -75 630 194 
Q 291 463 197 991 
z
" transform="scale(0.015625)"/>
      <path id="ArialMT-6d" d="M 422 0 
L 422 3319 
L 925 3319 
L 925 2853 
Q 1081 3097 1340 3245 
Q 1600 3394 1931 3394 
Q 2300 3394 2536 3241 
Q 2772 3088 2869 2813 
Q 3263 3394 3894 3394 
Q 4388 3394 4653 3120 
Q 4919 2847 4919 2278 
L 4919 0 
L 4359 0 
L 4359 2091 
Q 4359 2428 4304 2576 
Q 4250 2725 4106 2815 
Q 3963 2906 3769 2906 
Q 3419 2906 3187 2673 
Q 2956 2441 2956 1928 
L 2956 0 
L 2394 0 
L 2394 2156 
Q 2394 2531 2256 2718 
Q 2119 2906 1806 2906 
Q 1569 2906 1367 2781 
Q 1166 2656 1075 2415 
Q 984 2175 984 1722 
L 984 0 
L 422 0 
z
" transform="scale(0.015625)"/>
     </defs>
     <use xlink:href="#ArialMT-70"/>
     <use xlink:href="#ArialMT-61" x="55.615234"/>
     <use xlink:href="#ArialMT-74" x="111.230469"/>
     <use xlink:href="#ArialMT-69" x="139.013672"/>
     <use xlink:href="#ArialMT-65" x="161.230469"/>
     <use xlink:href="#ArialMT-6e" x="216.845703"/>
     <use xlink:href="#ArialMT-74" x="272.460938"/>
     <use xlink:href="#ArialMT-31" x="300.244141"/>
     <use xlink:href="#ArialMT-34" x="355.859375"/>
     <use xlink:href="#ArialMT-5f" x="411.474609"/>
     <use xlink:href="#ArialMT-61" x="467.089844"/>
     <use xlink:href="#ArialMT-70" x="522.705078"/>
     <use xlink:href="#ArialMT-70" x="578.320312"/>
     <use xlink:href="#ArialMT-30" x="633.935547"/>
     <use xlink:href="#ArialMT-31" x="689.550781"/>
     <use xlink:href="#ArialMT-20" x="745.166016"/>
     <use xlink:href="#ArialMT-2d" x="772.949219"/>
     <use xlink:href="#ArialMT-20" x="806.25"/>
     <use xlink:href="#ArialMT-50" x="834.033203"/>
     <use xlink:href="#ArialMT-6f" x="900.732422"/>
     <use xlink:href="#ArialMT-77" x="956.347656"/>
     <use xlink:href="#ArialMT-65" x="1028.564453"/>
     <use xlink:href="#ArialMT-72" x="1084.179688"/>
     <use xlink:href="#ArialMT-20" x="1117.480469"/>
     <use xlink:href="#ArialMT-73" x="1145.263672"/>
     <use xlink:href="#ArialMT-70" x="1195.263672"/>
     <use xlink:href="#ArialMT-65" x="1250.878906"/>
     <use xlink:href="#ArialMT-63" x="1306.494141"/>
     <use xlink:href="#ArialMT-74" x="1356.494141"/>
     <use xlink:href="#ArialMT-72" x="1384.277344"/>
     <use xlink:href="#ArialMT-75" x="1417.578125"/>
     <use xlink:href="#ArialMT-6d" x="1473.193359"/>
    </g>
   </g>
  </g>
 </g>
 <defs>
  <clipPath id="pf31e11c693">
   <rect x="54" y="34.56" width="334.8" height="217.44"/>
  </clipPath>
 </defs>
</svg>
