<?xml version="1.0" encoding="utf-8" standalone="no"?>
<!DOCTYPE svg PUBLIC "-//W3C//DTD SVG 1.1//EN"
  "http://www.w3.org/Graphics/SVG/1.1/DTD/svg11.dtd">
<svg xmlns:xlink="http://www.w3.org/1999/xlink" width="432pt" height="288pt" viewBox="0 0 432 288" xmlns="http://www.w3.org/2000/svg" version="1.1">
 <metadata>
  <rdf:RDF xmlns:dc="http://purl.org/dc/elements/1.1/" xmlns:cc="http://creativecommons.org/ns#" xmlns:rdf="http://www.w3.org/1999/02/22-rdf-syntax-ns#">
   <cc:Work>
    <dc:type rdf:resource="http://purl.org/dc/dcmitype/StillImage"/>
    <dc:date>2022-07-08T13:35:21.898215</dc:date>
    <dc:format>image/svg+xml</dc:format>
    <dc:creator>
     <cc:Agent>
      <dc:title>Matplotlib v3.5.1, https://matplotlib.org/</dc:title>
     </cc:Agent>
    </dc:creator>
   </cc:Work>
  </rdf:RDF>
 </metadata>
 <defs>
  <style type="text/css">*{stroke-linejoin: round; stroke-linecap: butt}</style>
 </defs>
 <g id="figure_1">
  <g id="patch_1">
   <path d="M 0 288 
L 432 288 
L 432 0 
L 0 0 
z
" style="fill: #ffffff"/>
  </g>
  <g id="axes_1">
   <g id="patch_2">
    <path d="M 54 252 
L 388.8 252 
L 388.8 34.56 
L 54 34.56 
z
" style="fill: #ffffff"/>
   </g>
   <g id="matplotlib.axis_1">
    <g id="xtick_1">
     <g id="line2d_1">
      <defs>
       <path id="m561d0da07f" d="M 0 0 
L 0 6 
" style="stroke: #262626; stroke-width: 1.25"/>
      </defs>
      <g>
       <use xlink:href="#m561d0da07f" x="54" y="252" style="fill: #262626; stroke: #262626; stroke-width: 1.25"/>
      </g>
     </g>
     <g id="text_1">
      <!-- 0 -->
      <g style="fill: #262626" transform="translate(50.941484 269.373594)scale(0.11 -0.11)">
       <defs>
        <path id="ArialMT-30" d="M 266 2259 
Q 266 3072 433 3567 
Q 600 4063 929 4331 
Q 1259 4600 1759 4600 
Q 2128 4600 2406 4451 
Q 2684 4303 2865 4023 
Q 3047 3744 3150 3342 
Q 3253 2941 3253 2259 
Q 3253 1453 3087 958 
Q 2922 463 2592 192 
Q 2263 -78 1759 -78 
Q 1097 -78 719 397 
Q 266 969 266 2259 
z
M 844 2259 
Q 844 1131 1108 757 
Q 1372 384 1759 384 
Q 2147 384 2411 759 
Q 2675 1134 2675 2259 
Q 2675 3391 2411 3762 
Q 2147 4134 1753 4134 
Q 1366 4134 1134 3806 
Q 844 3388 844 2259 
z
" transform="scale(0.015625)"/>
       </defs>
       <use xlink:href="#ArialMT-30"/>
      </g>
     </g>
    </g>
    <g id="xtick_2">
     <g id="line2d_2">
      <g>
       <use xlink:href="#m561d0da07f" x="109.8" y="252" style="fill: #262626; stroke: #262626; stroke-width: 1.25"/>
      </g>
     </g>
     <g id="text_2">
      <!-- 5 -->
      <g style="fill: #262626" transform="translate(106.741484 269.373594)scale(0.11 -0.11)">
       <defs>
        <path id="ArialMT-35" d="M 266 1200 
L 856 1250 
Q 922 819 1161 601 
Q 1400 384 1738 384 
Q 2144 384 2425 690 
Q 2706 997 2706 1503 
Q 2706 1984 2436 2262 
Q 2166 2541 1728 2541 
Q 1456 2541 1237 2417 
Q 1019 2294 894 2097 
L 366 2166 
L 809 4519 
L 3088 4519 
L 3088 3981 
L 1259 3981 
L 1013 2750 
Q 1425 3038 1878 3038 
Q 2478 3038 2890 2622 
Q 3303 2206 3303 1553 
Q 3303 931 2941 478 
Q 2500 -78 1738 -78 
Q 1113 -78 717 272 
Q 322 622 266 1200 
z
" transform="scale(0.015625)"/>
       </defs>
       <use xlink:href="#ArialMT-35"/>
      </g>
     </g>
    </g>
    <g id="xtick_3">
     <g id="line2d_3">
      <g>
       <use xlink:href="#m561d0da07f" x="165.6" y="252" style="fill: #262626; stroke: #262626; stroke-width: 1.25"/>
      </g>
     </g>
     <g id="text_3">
      <!-- 10 -->
      <g style="fill: #262626" transform="translate(159.482969 269.373594)scale(0.11 -0.11)">
       <defs>
        <path id="ArialMT-31" d="M 2384 0 
L 1822 0 
L 1822 3584 
Q 1619 3391 1289 3197 
Q 959 3003 697 2906 
L 697 3450 
Q 1169 3672 1522 3987 
Q 1875 4303 2022 4600 
L 2384 4600 
L 2384 0 
z
" transform="scale(0.015625)"/>
       </defs>
       <use xlink:href="#ArialMT-31"/>
       <use xlink:href="#ArialMT-30" x="55.615234"/>
      </g>
     </g>
    </g>
    <g id="xtick_4">
     <g id="line2d_4">
      <g>
       <use xlink:href="#m561d0da07f" x="221.4" y="252" style="fill: #262626; stroke: #262626; stroke-width: 1.25"/>
      </g>
     </g>
     <g id="text_4">
      <!-- 15 -->
      <g style="fill: #262626" transform="translate(215.282969 269.373594)scale(0.11 -0.11)">
       <use xlink:href="#ArialMT-31"/>
       <use xlink:href="#ArialMT-35" x="55.615234"/>
      </g>
     </g>
    </g>
    <g id="xtick_5">
     <g id="line2d_5">
      <g>
       <use xlink:href="#m561d0da07f" x="277.2" y="252" style="fill: #262626; stroke: #262626; stroke-width: 1.25"/>
      </g>
     </g>
     <g id="text_5">
      <!-- 20 -->
      <g style="fill: #262626" transform="translate(271.082969 269.373594)scale(0.11 -0.11)">
       <defs>
        <path id="ArialMT-32" d="M 3222 541 
L 3222 0 
L 194 0 
Q 188 203 259 391 
Q 375 700 629 1000 
Q 884 1300 1366 1694 
Q 2113 2306 2375 2664 
Q 2638 3022 2638 3341 
Q 2638 3675 2398 3904 
Q 2159 4134 1775 4134 
Q 1369 4134 1125 3890 
Q 881 3647 878 3216 
L 300 3275 
Q 359 3922 746 4261 
Q 1134 4600 1788 4600 
Q 2447 4600 2831 4234 
Q 3216 3869 3216 3328 
Q 3216 3053 3103 2787 
Q 2991 2522 2730 2228 
Q 2469 1934 1863 1422 
Q 1356 997 1212 845 
Q 1069 694 975 541 
L 3222 541 
z
" transform="scale(0.015625)"/>
       </defs>
       <use xlink:href="#ArialMT-32"/>
       <use xlink:href="#ArialMT-30" x="55.615234"/>
      </g>
     </g>
    </g>
    <g id="xtick_6">
     <g id="line2d_6">
      <g>
       <use xlink:href="#m561d0da07f" x="333" y="252" style="fill: #262626; stroke: #262626; stroke-width: 1.25"/>
      </g>
     </g>
     <g id="text_6">
      <!-- 25 -->
      <g style="fill: #262626" transform="translate(326.882969 269.373594)scale(0.11 -0.11)">
       <use xlink:href="#ArialMT-32"/>
       <use xlink:href="#ArialMT-35" x="55.615234"/>
      </g>
     </g>
    </g>
    <g id="xtick_7">
     <g id="line2d_7">
      <g>
       <use xlink:href="#m561d0da07f" x="388.8" y="252" style="fill: #262626; stroke: #262626; stroke-width: 1.25"/>
      </g>
     </g>
     <g id="text_7">
      <!-- 30 -->
      <g style="fill: #262626" transform="translate(382.682969 269.373594)scale(0.11 -0.11)">
       <defs>
        <path id="ArialMT-33" d="M 269 1209 
L 831 1284 
Q 928 806 1161 595 
Q 1394 384 1728 384 
Q 2125 384 2398 659 
Q 2672 934 2672 1341 
Q 2672 1728 2419 1979 
Q 2166 2231 1775 2231 
Q 1616 2231 1378 2169 
L 1441 2663 
Q 1497 2656 1531 2656 
Q 1891 2656 2178 2843 
Q 2466 3031 2466 3422 
Q 2466 3731 2256 3934 
Q 2047 4138 1716 4138 
Q 1388 4138 1169 3931 
Q 950 3725 888 3313 
L 325 3413 
Q 428 3978 793 4289 
Q 1159 4600 1703 4600 
Q 2078 4600 2393 4439 
Q 2709 4278 2876 4000 
Q 3044 3722 3044 3409 
Q 3044 3113 2884 2869 
Q 2725 2625 2413 2481 
Q 2819 2388 3044 2092 
Q 3269 1797 3269 1353 
Q 3269 753 2831 336 
Q 2394 -81 1725 -81 
Q 1122 -81 723 278 
Q 325 638 269 1209 
z
" transform="scale(0.015625)"/>
       </defs>
       <use xlink:href="#ArialMT-33"/>
       <use xlink:href="#ArialMT-30" x="55.615234"/>
      </g>
     </g>
    </g>
    <g id="text_8">
     <!-- Frequency (Hz) -->
     <g style="fill: #262626" transform="translate(180.059063 284.295469)scale(0.12 -0.12)">
      <defs>
       <path id="ArialMT-46" d="M 525 0 
L 525 4581 
L 3616 4581 
L 3616 4041 
L 1131 4041 
L 1131 2622 
L 3281 2622 
L 3281 2081 
L 1131 2081 
L 1131 0 
L 525 0 
z
" transform="scale(0.015625)"/>
       <path id="ArialMT-72" d="M 416 0 
L 416 3319 
L 922 3319 
L 922 2816 
Q 1116 3169 1280 3281 
Q 1444 3394 1641 3394 
Q 1925 3394 2219 3213 
L 2025 2691 
Q 1819 2813 1613 2813 
Q 1428 2813 1281 2702 
Q 1134 2591 1072 2394 
Q 978 2094 978 1738 
L 978 0 
L 416 0 
z
" transform="scale(0.015625)"/>
       <path id="ArialMT-65" d="M 2694 1069 
L 3275 997 
Q 3138 488 2766 206 
Q 2394 -75 1816 -75 
Q 1088 -75 661 373 
Q 234 822 234 1631 
Q 234 2469 665 2931 
Q 1097 3394 1784 3394 
Q 2450 3394 2872 2941 
Q 3294 2488 3294 1666 
Q 3294 1616 3291 1516 
L 816 1516 
Q 847 969 1125 678 
Q 1403 388 1819 388 
Q 2128 388 2347 550 
Q 2566 713 2694 1069 
z
M 847 1978 
L 2700 1978 
Q 2663 2397 2488 2606 
Q 2219 2931 1791 2931 
Q 1403 2931 1139 2672 
Q 875 2413 847 1978 
z
" transform="scale(0.015625)"/>
       <path id="ArialMT-71" d="M 2538 -1272 
L 2538 353 
Q 2406 169 2170 47 
Q 1934 -75 1669 -75 
Q 1078 -75 651 397 
Q 225 869 225 1691 
Q 225 2191 398 2587 
Q 572 2984 901 3189 
Q 1231 3394 1625 3394 
Q 2241 3394 2594 2875 
L 2594 3319 
L 3100 3319 
L 3100 -1272 
L 2538 -1272 
z
M 803 1669 
Q 803 1028 1072 708 
Q 1341 388 1716 388 
Q 2075 388 2334 692 
Q 2594 997 2594 1619 
Q 2594 2281 2320 2615 
Q 2047 2950 1678 2950 
Q 1313 2950 1058 2639 
Q 803 2328 803 1669 
z
" transform="scale(0.015625)"/>
       <path id="ArialMT-75" d="M 2597 0 
L 2597 488 
Q 2209 -75 1544 -75 
Q 1250 -75 995 37 
Q 741 150 617 320 
Q 494 491 444 738 
Q 409 903 409 1263 
L 409 3319 
L 972 3319 
L 972 1478 
Q 972 1038 1006 884 
Q 1059 663 1231 536 
Q 1403 409 1656 409 
Q 1909 409 2131 539 
Q 2353 669 2445 892 
Q 2538 1116 2538 1541 
L 2538 3319 
L 3100 3319 
L 3100 0 
L 2597 0 
z
" transform="scale(0.015625)"/>
       <path id="ArialMT-6e" d="M 422 0 
L 422 3319 
L 928 3319 
L 928 2847 
Q 1294 3394 1984 3394 
Q 2284 3394 2536 3286 
Q 2788 3178 2913 3003 
Q 3038 2828 3088 2588 
Q 3119 2431 3119 2041 
L 3119 0 
L 2556 0 
L 2556 2019 
Q 2556 2363 2490 2533 
Q 2425 2703 2258 2804 
Q 2091 2906 1866 2906 
Q 1506 2906 1245 2678 
Q 984 2450 984 1813 
L 984 0 
L 422 0 
z
" transform="scale(0.015625)"/>
       <path id="ArialMT-63" d="M 2588 1216 
L 3141 1144 
Q 3050 572 2676 248 
Q 2303 -75 1759 -75 
Q 1078 -75 664 370 
Q 250 816 250 1647 
Q 250 2184 428 2587 
Q 606 2991 970 3192 
Q 1334 3394 1763 3394 
Q 2303 3394 2647 3120 
Q 2991 2847 3088 2344 
L 2541 2259 
Q 2463 2594 2264 2762 
Q 2066 2931 1784 2931 
Q 1359 2931 1093 2626 
Q 828 2322 828 1663 
Q 828 994 1084 691 
Q 1341 388 1753 388 
Q 2084 388 2306 591 
Q 2528 794 2588 1216 
z
" transform="scale(0.015625)"/>
       <path id="ArialMT-79" d="M 397 -1278 
L 334 -750 
Q 519 -800 656 -800 
Q 844 -800 956 -737 
Q 1069 -675 1141 -563 
Q 1194 -478 1313 -144 
Q 1328 -97 1363 -6 
L 103 3319 
L 709 3319 
L 1400 1397 
Q 1534 1031 1641 628 
Q 1738 1016 1872 1384 
L 2581 3319 
L 3144 3319 
L 1881 -56 
Q 1678 -603 1566 -809 
Q 1416 -1088 1222 -1217 
Q 1028 -1347 759 -1347 
Q 597 -1347 397 -1278 
z
" transform="scale(0.015625)"/>
       <path id="ArialMT-20" transform="scale(0.015625)"/>
       <path id="ArialMT-28" d="M 1497 -1347 
Q 1031 -759 709 28 
Q 388 816 388 1659 
Q 388 2403 628 3084 
Q 909 3875 1497 4659 
L 1900 4659 
Q 1522 4009 1400 3731 
Q 1209 3300 1100 2831 
Q 966 2247 966 1656 
Q 966 153 1900 -1347 
L 1497 -1347 
z
" transform="scale(0.015625)"/>
       <path id="ArialMT-48" d="M 513 0 
L 513 4581 
L 1119 4581 
L 1119 2700 
L 3500 2700 
L 3500 4581 
L 4106 4581 
L 4106 0 
L 3500 0 
L 3500 2159 
L 1119 2159 
L 1119 0 
L 513 0 
z
" transform="scale(0.015625)"/>
       <path id="ArialMT-7a" d="M 125 0 
L 125 456 
L 2238 2881 
Q 1878 2863 1603 2863 
L 250 2863 
L 250 3319 
L 2963 3319 
L 2963 2947 
L 1166 841 
L 819 456 
Q 1197 484 1528 484 
L 3063 484 
L 3063 0 
L 125 0 
z
" transform="scale(0.015625)"/>
       <path id="ArialMT-29" d="M 791 -1347 
L 388 -1347 
Q 1322 153 1322 1656 
Q 1322 2244 1188 2822 
Q 1081 3291 891 3722 
Q 769 4003 388 4659 
L 791 4659 
Q 1378 3875 1659 3084 
Q 1900 2403 1900 1659 
Q 1900 816 1576 28 
Q 1253 -759 791 -1347 
z
" transform="scale(0.015625)"/>
      </defs>
      <use xlink:href="#ArialMT-46"/>
      <use xlink:href="#ArialMT-72" x="61.083984"/>
      <use xlink:href="#ArialMT-65" x="94.384766"/>
      <use xlink:href="#ArialMT-71" x="150"/>
      <use xlink:href="#ArialMT-75" x="205.615234"/>
      <use xlink:href="#ArialMT-65" x="261.230469"/>
      <use xlink:href="#ArialMT-6e" x="316.845703"/>
      <use xlink:href="#ArialMT-63" x="372.460938"/>
      <use xlink:href="#ArialMT-79" x="422.460938"/>
      <use xlink:href="#ArialMT-20" x="472.460938"/>
      <use xlink:href="#ArialMT-28" x="500.244141"/>
      <use xlink:href="#ArialMT-48" x="533.544922"/>
      <use xlink:href="#ArialMT-7a" x="605.761719"/>
      <use xlink:href="#ArialMT-29" x="655.761719"/>
     </g>
    </g>
   </g>
   <g id="matplotlib.axis_2">
    <g id="ytick_1">
     <g id="line2d_8">
      <defs>
       <path id="m0ba0850c6e" d="M 0 0 
L -6 0 
" style="stroke: #262626; stroke-width: 1.25"/>
      </defs>
      <g>
       <use xlink:href="#m0ba0850c6e" x="54" y="242.116364" style="fill: #262626; stroke: #262626; stroke-width: 1.25"/>
      </g>
     </g>
     <g id="text_9">
      <!-- 0.0 -->
      <g style="fill: #262626" transform="translate(29.21 246.053161)scale(0.11 -0.11)">
       <defs>
        <path id="ArialMT-2e" d="M 581 0 
L 581 641 
L 1222 641 
L 1222 0 
L 581 0 
z
" transform="scale(0.015625)"/>
       </defs>
       <use xlink:href="#ArialMT-30"/>
       <use xlink:href="#ArialMT-2e" x="55.615234"/>
       <use xlink:href="#ArialMT-30" x="83.398438"/>
      </g>
     </g>
    </g>
    <g id="ytick_2">
     <g id="line2d_9">
      <g>
       <use xlink:href="#m0ba0850c6e" x="54" y="202.581818" style="fill: #262626; stroke: #262626; stroke-width: 1.25"/>
      </g>
     </g>
     <g id="text_10">
      <!-- 0.2 -->
      <g style="fill: #262626" transform="translate(29.21 206.518615)scale(0.11 -0.11)">
       <use xlink:href="#ArialMT-30"/>
       <use xlink:href="#ArialMT-2e" x="55.615234"/>
       <use xlink:href="#ArialMT-32" x="83.398438"/>
      </g>
     </g>
    </g>
    <g id="ytick_3">
     <g id="line2d_10">
      <g>
       <use xlink:href="#m0ba0850c6e" x="54" y="163.047273" style="fill: #262626; stroke: #262626; stroke-width: 1.25"/>
      </g>
     </g>
     <g id="text_11">
      <!-- 0.4 -->
      <g style="fill: #262626" transform="translate(29.21 166.98407)scale(0.11 -0.11)">
       <defs>
        <path id="ArialMT-34" d="M 2069 0 
L 2069 1097 
L 81 1097 
L 81 1613 
L 2172 4581 
L 2631 4581 
L 2631 1613 
L 3250 1613 
L 3250 1097 
L 2631 1097 
L 2631 0 
L 2069 0 
z
M 2069 1613 
L 2069 3678 
L 634 1613 
L 2069 1613 
z
" transform="scale(0.015625)"/>
       </defs>
       <use xlink:href="#ArialMT-30"/>
       <use xlink:href="#ArialMT-2e" x="55.615234"/>
       <use xlink:href="#ArialMT-34" x="83.398438"/>
      </g>
     </g>
    </g>
    <g id="ytick_4">
     <g id="line2d_11">
      <g>
       <use xlink:href="#m0ba0850c6e" x="54" y="123.512727" style="fill: #262626; stroke: #262626; stroke-width: 1.25"/>
      </g>
     </g>
     <g id="text_12">
      <!-- 0.6 -->
      <g style="fill: #262626" transform="translate(29.21 127.449524)scale(0.11 -0.11)">
       <defs>
        <path id="ArialMT-36" d="M 3184 3459 
L 2625 3416 
Q 2550 3747 2413 3897 
Q 2184 4138 1850 4138 
Q 1581 4138 1378 3988 
Q 1113 3794 959 3422 
Q 806 3050 800 2363 
Q 1003 2672 1297 2822 
Q 1591 2972 1913 2972 
Q 2475 2972 2870 2558 
Q 3266 2144 3266 1488 
Q 3266 1056 3080 686 
Q 2894 316 2569 119 
Q 2244 -78 1831 -78 
Q 1128 -78 684 439 
Q 241 956 241 2144 
Q 241 3472 731 4075 
Q 1159 4600 1884 4600 
Q 2425 4600 2770 4297 
Q 3116 3994 3184 3459 
z
M 888 1484 
Q 888 1194 1011 928 
Q 1134 663 1356 523 
Q 1578 384 1822 384 
Q 2178 384 2434 671 
Q 2691 959 2691 1453 
Q 2691 1928 2437 2201 
Q 2184 2475 1800 2475 
Q 1419 2475 1153 2201 
Q 888 1928 888 1484 
z
" transform="scale(0.015625)"/>
       </defs>
       <use xlink:href="#ArialMT-30"/>
       <use xlink:href="#ArialMT-2e" x="55.615234"/>
       <use xlink:href="#ArialMT-36" x="83.398438"/>
      </g>
     </g>
    </g>
    <g id="ytick_5">
     <g id="line2d_12">
      <g>
       <use xlink:href="#m0ba0850c6e" x="54" y="83.978182" style="fill: #262626; stroke: #262626; stroke-width: 1.25"/>
      </g>
     </g>
     <g id="text_13">
      <!-- 0.8 -->
      <g style="fill: #262626" transform="translate(29.21 87.914979)scale(0.11 -0.11)">
       <defs>
        <path id="ArialMT-38" d="M 1131 2484 
Q 781 2613 612 2850 
Q 444 3088 444 3419 
Q 444 3919 803 4259 
Q 1163 4600 1759 4600 
Q 2359 4600 2725 4251 
Q 3091 3903 3091 3403 
Q 3091 3084 2923 2848 
Q 2756 2613 2416 2484 
Q 2838 2347 3058 2040 
Q 3278 1734 3278 1309 
Q 3278 722 2862 322 
Q 2447 -78 1769 -78 
Q 1091 -78 675 323 
Q 259 725 259 1325 
Q 259 1772 486 2073 
Q 713 2375 1131 2484 
z
M 1019 3438 
Q 1019 3113 1228 2906 
Q 1438 2700 1772 2700 
Q 2097 2700 2305 2904 
Q 2513 3109 2513 3406 
Q 2513 3716 2298 3927 
Q 2084 4138 1766 4138 
Q 1444 4138 1231 3931 
Q 1019 3725 1019 3438 
z
M 838 1322 
Q 838 1081 952 856 
Q 1066 631 1291 507 
Q 1516 384 1775 384 
Q 2178 384 2440 643 
Q 2703 903 2703 1303 
Q 2703 1709 2433 1975 
Q 2163 2241 1756 2241 
Q 1359 2241 1098 1978 
Q 838 1716 838 1322 
z
" transform="scale(0.015625)"/>
       </defs>
       <use xlink:href="#ArialMT-30"/>
       <use xlink:href="#ArialMT-2e" x="55.615234"/>
       <use xlink:href="#ArialMT-38" x="83.398438"/>
      </g>
     </g>
    </g>
    <g id="ytick_6">
     <g id="line2d_13">
      <g>
       <use xlink:href="#m0ba0850c6e" x="54" y="44.443636" style="fill: #262626; stroke: #262626; stroke-width: 1.25"/>
      </g>
     </g>
     <g id="text_14">
      <!-- 1.0 -->
      <g style="fill: #262626" transform="translate(29.21 48.380433)scale(0.11 -0.11)">
       <use xlink:href="#ArialMT-31"/>
       <use xlink:href="#ArialMT-2e" x="55.615234"/>
       <use xlink:href="#ArialMT-30" x="83.398438"/>
      </g>
     </g>
    </g>
   </g>
   <g id="line2d_14">
    <path d="M 54 241.724538 
L 81.739193 241.618584 
L 87.769452 241.57135 
L 88.975504 241.415715 
L 90.181556 241.379068 
L 91.387608 241.49904 
L 92.59366 241.237395 
L 93.799712 241.17186 
L 95.005764 241.293585 
L 96.211816 241.212874 
L 97.417867 241.28526 
L 98.623919 241.643808 
L 99.829971 240.998043 
L 101.036023 240.659505 
L 102.242075 241.358914 
L 103.448127 241.774669 
L 104.654179 239.923678 
L 105.860231 224.617495 
L 108.272334 206.329284 
L 109.478386 228.083514 
L 110.684438 228.838316 
L 111.89049 236.414492 
L 113.096542 241.795079 
L 114.302594 152.112477 
L 115.508646 239.507485 
L 116.714697 238.12373 
L 117.920749 213.558621 
L 119.126801 222.550072 
L 120.332853 175.95472 
L 121.538905 183.887382 
L 122.744957 169.990808 
L 123.951009 166.320831 
L 125.157061 232.386223 
L 126.363112 195.946032 
L 127.569164 154.835604 
L 128.775216 213.788885 
L 129.981268 169.410606 
L 131.18732 236.31476 
L 132.393372 230.902839 
L 133.599424 169.748054 
L 134.805476 224.416588 
L 136.011527 223.654834 
L 137.217579 214.416867 
L 138.423631 191.827727 
L 139.629683 229.176449 
L 140.835735 240.180822 
L 142.041787 208.217512 
L 143.247839 206.683847 
L 144.45389 234.761376 
L 145.659942 215.3364 
L 148.072046 241.868133 
L 149.278098 231.183141 
L 150.48415 239.66205 
L 151.690202 239.950367 
L 152.896254 241.315418 
L 154.102305 235.114769 
L 155.308357 239.491903 
L 156.514409 238.979139 
L 157.720461 240.84589 
L 158.926513 237.654919 
L 160.132565 241.668752 
L 161.338617 237.725753 
L 162.544669 237.726477 
L 163.75072 241.647013 
L 164.956772 239.597341 
L 166.162824 239.553707 
L 167.368876 241.735168 
L 168.574928 238.882488 
L 169.78098 241.847395 
L 170.987032 235.495682 
L 172.193084 238.713109 
L 173.399135 240.502044 
L 174.605187 240.326205 
L 175.811239 239.636936 
L 177.017291 242.067903 
L 178.223343 238.852475 
L 179.429395 241.842283 
L 180.635447 240.451284 
L 181.841499 241.970964 
L 183.04755 238.960778 
L 184.253602 236.989272 
L 185.459654 237.160745 
L 186.665706 241.035562 
L 187.871758 240.318659 
L 189.07781 241.535617 
L 190.283862 242.034807 
L 191.489914 241.355447 
L 192.695965 229.616168 
L 193.902017 227.358447 
L 195.108069 238.609863 
L 196.314121 241.149657 
L 197.520173 234.973172 
L 198.726225 240.469306 
L 199.932277 241.317398 
L 201.138329 241.141288 
L 202.34438 239.750508 
L 203.550432 233.38617 
L 204.756484 238.347351 
L 205.962536 240.076813 
L 207.168588 240.868502 
L 208.37464 240.924005 
L 209.580692 238.987388 
L 210.786744 242.108145 
L 211.992795 240.604675 
L 213.198847 239.630153 
L 214.404899 238.499924 
L 215.610951 239.673594 
L 216.817003 236.853375 
L 218.023055 239.713946 
L 219.229107 240.51693 
L 220.435159 241.456406 
L 221.64121 240.362385 
L 222.847262 228.986828 
L 224.053314 230.039521 
L 225.259366 212.045101 
L 226.465418 44.443636 
L 227.67147 64.971608 
L 228.877522 171.94414 
L 230.083573 223.81079 
L 231.289625 240.380506 
L 232.495677 230.496037 
L 233.701729 239.868119 
L 234.907781 241.173313 
L 236.113833 238.578766 
L 237.319885 241.910751 
L 238.525937 241.740119 
L 239.731988 241.827215 
L 240.93804 238.648697 
L 242.144092 241.388368 
L 243.350144 241.487097 
L 244.556196 240.903878 
L 245.762248 241.981754 
L 246.9683 241.325221 
L 248.174352 242.034768 
L 249.380403 241.620235 
L 251.792507 242.000894 
L 252.998559 241.95316 
L 254.204611 242.107122 
L 256.616715 241.813968 
L 257.822767 241.885169 
L 259.028818 241.780333 
L 260.23487 242.009339 
L 261.440922 241.90686 
L 262.646974 241.600798 
L 265.059078 242.049097 
L 266.26513 241.653091 
L 268.677233 241.825316 
L 271.089337 242.104303 
L 273.501441 241.836921 
L 274.707493 242.007934 
L 275.913545 241.942291 
L 277.119597 241.601164 
L 278.325648 241.949196 
L 279.5317 242.056115 
L 284.355908 241.670392 
L 285.56196 242.007186 
L 286.768012 242.098699 
L 287.974063 241.829324 
L 289.180115 242.08631 
L 290.386167 241.783958 
L 291.592219 241.998718 
L 292.798271 241.563076 
L 294.004323 241.998159 
L 295.210375 242.061458 
L 296.416427 241.934865 
L 297.622478 242.085409 
L 298.82853 241.859777 
L 300.034582 242.043156 
L 301.240634 242.105497 
L 304.85879 242.04935 
L 308.476945 242.077236 
L 309.682997 241.954799 
L 310.889049 242.019909 
L 312.095101 241.845708 
L 313.301153 242.090608 
L 433 242.113046 
M 433 242.116301 
L -1 242.116301 
L -1 242.116301 
" clip-path="url(#p23f6f8e54e)" style="fill: none; stroke: #4c72b0; stroke-opacity: 0.3; stroke-width: 1.5; stroke-linecap: round"/>
   </g>
   <g id="line2d_15">
    <path d="M 54 241.42255 
L 76.914986 241.310757 
L 87.769452 241.152933 
L 90.181556 240.853645 
L 91.387608 241.156283 
L 95.005764 240.403267 
L 97.417867 240.502101 
L 99.829971 240.691774 
L 101.036023 238.994137 
L 102.242075 239.21697 
L 103.448127 238.520967 
L 104.654179 241.614253 
L 105.860231 237.734917 
L 107.066282 227.355607 
L 108.272334 229.297121 
L 109.478386 233.522629 
L 110.684438 239.936529 
L 111.89049 225.372999 
L 113.096542 235.001684 
L 114.302594 227.989233 
L 115.508646 216.823277 
L 116.714697 232.997676 
L 117.920749 236.682258 
L 119.126801 228.978184 
L 120.332853 171.707623 
L 121.538905 182.272929 
L 122.744957 44.443636 
L 123.951009 50.34733 
L 125.157061 228.639429 
L 126.363112 182.051276 
L 127.569164 160.675198 
L 128.775216 216.197788 
L 129.981268 194.058132 
L 131.18732 192.927089 
L 132.393372 231.499908 
L 133.599424 178.3203 
L 134.805476 213.359537 
L 136.011527 216.304254 
L 137.217579 190.983281 
L 138.423631 149.167433 
L 139.629683 208.771782 
L 140.835735 223.999029 
L 142.041787 219.030629 
L 143.247839 223.097239 
L 144.45389 232.299438 
L 145.659942 227.370121 
L 146.865994 234.19386 
L 148.072046 234.644143 
L 149.278098 225.476439 
L 150.48415 225.214693 
L 151.690202 227.334672 
L 152.896254 241.226723 
L 154.102305 238.866267 
L 156.514409 227.481796 
L 157.720461 240.485604 
L 158.926513 240.967435 
L 160.132565 223.256111 
L 161.338617 235.949864 
L 162.544669 229.039658 
L 163.75072 232.983637 
L 164.956772 232.287528 
L 166.162824 233.5331 
L 168.574928 239.235627 
L 169.78098 237.076148 
L 170.987032 228.291647 
L 172.193084 238.352774 
L 173.399135 239.823403 
L 174.605187 238.346626 
L 175.811239 235.705514 
L 177.017291 235.405876 
L 178.223343 237.598444 
L 179.429395 235.727416 
L 180.635447 240.239349 
L 181.841499 237.81422 
L 183.04755 240.094873 
L 184.253602 238.561036 
L 185.459654 239.735629 
L 186.665706 241.282284 
L 187.871758 241.565583 
L 189.07781 240.698735 
L 190.283862 241.918784 
L 191.489914 240.595668 
L 192.695965 240.835244 
L 195.108069 240.517533 
L 196.314121 238.700184 
L 197.520173 240.194517 
L 199.932277 241.847596 
L 201.138329 241.417806 
L 202.34438 241.415479 
L 203.550432 242.064996 
L 204.756484 240.582762 
L 205.962536 241.767153 
L 207.168588 241.93449 
L 208.37464 241.869401 
L 209.580692 241.232006 
L 210.786744 242.06762 
L 211.992795 241.551479 
L 215.610951 240.937104 
L 218.023055 241.754711 
L 219.229107 241.446665 
L 220.435159 241.560178 
L 221.64121 241.268031 
L 222.847262 241.964218 
L 224.053314 240.609246 
L 225.259366 237.728734 
L 227.67147 228.945922 
L 228.877522 236.198183 
L 230.083573 239.550681 
L 231.289625 241.516064 
L 232.495677 240.370993 
L 233.701729 241.023738 
L 234.907781 240.70144 
L 236.113833 241.03427 
L 240.93804 241.405787 
L 242.144092 241.20996 
L 243.350144 241.829919 
L 244.556196 242.068096 
L 245.762248 242.046346 
L 246.9683 241.81163 
L 248.174352 242.028931 
L 249.380403 241.637447 
L 250.586455 241.772921 
L 251.792507 241.417402 
L 252.998559 241.545327 
L 254.204611 240.957029 
L 255.410663 240.77903 
L 256.616715 241.432129 
L 257.822767 241.279512 
L 260.23487 240.001381 
L 261.440922 241.720987 
L 262.646974 241.496823 
L 263.853026 241.792275 
L 265.059078 241.783884 
L 266.26513 240.99985 
L 267.471182 241.460282 
L 269.883285 241.446806 
L 271.089337 242.009335 
L 272.295389 241.083932 
L 273.501441 241.645667 
L 275.913545 241.006091 
L 277.119597 239.362257 
L 278.325648 241.015412 
L 279.5317 241.794544 
L 280.737752 241.272386 
L 281.943804 241.551551 
L 283.149856 241.338899 
L 284.355908 240.553924 
L 285.56196 241.516179 
L 286.768012 242.00138 
L 287.974063 241.371999 
L 289.180115 241.909502 
L 290.386167 240.813805 
L 291.592219 241.495728 
L 292.798271 241.359876 
L 295.210375 242.0558 
L 296.416427 241.628734 
L 297.622478 241.884304 
L 298.82853 241.380626 
L 301.240634 242.066366 
L 303.652738 241.798643 
L 304.85879 242.083606 
L 309.682997 241.233407 
L 310.889049 241.780514 
L 312.095101 241.704824 
L 313.301153 242.013734 
L 314.507205 242.115785 
L 315.713256 241.815281 
L 316.919308 241.975843 
L 318.12536 241.912226 
L 319.331412 242.064336 
L 322.949568 241.912261 
L 325.361671 241.856588 
L 326.567723 242.039089 
L 327.773775 241.925795 
L 331.391931 241.982918 
L 333.804035 242.015236 
L 433 242.104225 
M 433 242.11635 
L -1 242.11635 
L -1 242.11635 
" clip-path="url(#p23f6f8e54e)" style="fill: none; stroke: #dd8452; stroke-opacity: 0.3; stroke-width: 1.5; stroke-linecap: round"/>
   </g>
   <g id="line2d_16">
    <path d="M 54 241.195703 
L 79.327089 241.086223 
L 90.181556 241.029625 
L 91.387608 240.697026 
L 92.59366 240.960705 
L 95.005764 240.831176 
L 96.211816 240.535978 
L 98.623919 240.613969 
L 99.829971 240.796812 
L 101.036023 241.207763 
L 102.242075 240.180185 
L 103.448127 236.756967 
L 104.654179 235.192275 
L 105.860231 240.598995 
L 107.066282 235.159511 
L 108.272334 228.397479 
L 109.478386 174.551672 
L 110.684438 182.218647 
L 111.89049 233.15215 
L 113.096542 215.474004 
L 114.302594 67.139206 
L 115.508646 154.411065 
L 116.714697 217.499572 
L 119.126801 44.443636 
L 120.332853 165.952638 
L 121.538905 197.319811 
L 122.744957 200.681703 
L 123.951009 109.778766 
L 125.157061 232.71003 
L 126.363112 190.234485 
L 127.569164 240.234525 
L 128.775216 195.81985 
L 129.981268 156.028827 
L 131.18732 212.467863 
L 132.393372 166.093888 
L 133.599424 178.172854 
L 134.805476 221.968082 
L 136.011527 229.39987 
L 137.217579 213.748107 
L 138.423631 190.969398 
L 139.629683 229.212325 
L 140.835735 240.311112 
L 142.041787 176.586916 
L 143.247839 236.787553 
L 144.45389 177.959829 
L 145.659942 221.82185 
L 146.865994 225.893268 
L 148.072046 240.075889 
L 149.278098 205.635781 
L 150.48415 202.403064 
L 151.690202 166.77868 
L 152.896254 149.723048 
L 154.102305 201.073716 
L 155.308357 223.378361 
L 156.514409 239.12068 
L 157.720461 226.548629 
L 158.926513 231.275031 
L 160.132565 209.171042 
L 161.338617 216.359019 
L 162.544669 197.143602 
L 163.75072 189.150304 
L 164.956772 214.07257 
L 166.162824 234.854288 
L 167.368876 217.727294 
L 168.574928 234.470014 
L 169.78098 183.341845 
L 170.987032 193.678271 
L 172.193084 228.346511 
L 173.399135 232.676866 
L 174.605187 240.165448 
L 175.811239 215.50955 
L 177.017291 201.572721 
L 178.223343 231.451586 
L 179.429395 230.379481 
L 180.635447 238.491335 
L 181.841499 234.816654 
L 183.04755 223.750877 
L 184.253602 226.265989 
L 185.459654 240.4156 
L 186.665706 223.864608 
L 187.871758 238.361955 
L 189.07781 241.533377 
L 190.283862 236.245822 
L 191.489914 219.793625 
L 192.695965 215.12394 
L 193.902017 235.160179 
L 195.108069 237.35296 
L 196.314121 230.405056 
L 197.520173 241.226415 
L 198.726225 238.159323 
L 199.932277 235.484924 
L 201.138329 234.210715 
L 202.34438 229.303343 
L 203.550432 232.115401 
L 204.756484 241.084645 
L 205.962536 232.529014 
L 207.168588 231.89274 
L 208.37464 241.770373 
L 209.580692 240.970079 
L 210.786744 232.339383 
L 211.992795 240.927591 
L 213.198847 232.461364 
L 214.404899 235.483676 
L 215.610951 235.533325 
L 216.817003 234.725077 
L 218.023055 239.406238 
L 219.229107 236.811039 
L 220.435159 236.959984 
L 221.64121 229.821484 
L 222.847262 239.625772 
L 224.053314 229.24287 
L 225.259366 226.282941 
L 226.465418 218.028394 
L 227.67147 233.164016 
L 228.877522 233.938469 
L 230.083573 233.360257 
L 231.289625 241.986076 
L 232.495677 238.059292 
L 233.701729 234.757875 
L 234.907781 238.397876 
L 236.113833 234.925605 
L 237.319885 241.534564 
L 238.525937 236.248299 
L 239.731988 238.600504 
L 240.93804 239.712025 
L 242.144092 238.479059 
L 243.350144 242.113827 
L 244.556196 240.653918 
L 245.762248 239.675699 
L 246.9683 241.427456 
L 248.174352 241.538753 
L 249.380403 241.857385 
L 250.586455 240.052011 
L 251.792507 241.058923 
L 252.998559 239.788454 
L 254.204611 237.640272 
L 255.410663 239.382884 
L 256.616715 239.092958 
L 259.028818 229.435479 
L 260.23487 226.486711 
L 261.440922 237.701039 
L 262.646974 241.187822 
L 263.853026 235.951206 
L 265.059078 238.850376 
L 266.26513 232.225798 
L 267.471182 241.165595 
L 268.677233 238.633332 
L 269.883285 233.00622 
L 271.089337 241.092731 
L 272.295389 237.096209 
L 273.501441 240.064388 
L 274.707493 233.336825 
L 275.913545 232.739589 
L 277.119597 220.407656 
L 278.325648 234.157005 
L 279.5317 241.321747 
L 280.737752 236.881995 
L 281.943804 232.899515 
L 283.149856 237.657419 
L 284.355908 238.440731 
L 285.56196 238.161187 
L 286.768012 240.896861 
L 287.974063 239.212144 
L 289.180115 240.99978 
L 290.386167 238.104773 
L 291.592219 241.028258 
L 292.798271 239.865646 
L 294.004323 240.219837 
L 295.210375 241.754725 
L 296.416427 237.700752 
L 297.622478 241.105646 
L 298.82853 238.449959 
L 300.034582 239.455563 
L 301.240634 241.49849 
L 302.446686 239.379604 
L 303.652738 241.166578 
L 304.85879 241.818776 
L 307.270893 240.909997 
L 308.476945 239.007278 
L 309.682997 234.875432 
L 310.889049 241.307105 
L 312.095101 239.56047 
L 313.301153 241.924834 
L 315.713256 240.642007 
L 316.919308 241.505197 
L 318.12536 241.55566 
L 319.331412 242.110665 
L 320.537464 240.523573 
L 321.743516 241.965218 
L 322.949568 241.702474 
L 325.361671 235.257944 
L 326.567723 241.94577 
L 327.773775 240.813482 
L 330.185879 241.241179 
L 331.391931 241.709613 
L 332.597983 241.299186 
L 333.804035 241.303636 
L 335.010086 241.857439 
L 336.216138 242.021819 
L 337.42219 241.55054 
L 338.628242 240.671231 
L 339.834294 241.441422 
L 341.040346 241.852694 
L 342.246398 241.17091 
L 344.658501 241.755399 
L 345.864553 241.8113 
L 348.276657 241.598616 
L 349.482709 241.840872 
L 351.894813 241.657468 
L 353.100865 241.952912 
L 354.306916 242.039897 
L 355.512968 241.865987 
L 356.71902 242.087637 
L 357.925072 241.926995 
L 359.131124 242.099014 
L 361.543228 241.91095 
L 362.74928 241.978686 
L 366.367435 241.913935 
L 396.518732 242.027319 
L 403.755043 242.028994 
L 412.197406 242.051317 
L 433 242.068816 
M 433 242.116025 
L -1 242.116025 
L -1 242.116025 
" clip-path="url(#p23f6f8e54e)" style="fill: none; stroke: #55a868; stroke-opacity: 0.3; stroke-width: 1.5; stroke-linecap: round"/>
   </g>
   <g id="line2d_17">
    <path d="M 54 242.079913 
L 91.387608 242.034136 
L 93.799712 241.902472 
L 96.211816 241.968664 
L 98.623919 242.054783 
L 99.829971 241.643983 
L 102.242075 241.820447 
L 103.448127 240.774215 
L 104.654179 237.486308 
L 105.860231 229.668497 
L 107.066282 217.114069 
L 108.272334 211.580339 
L 109.478386 219.070173 
L 110.684438 219.91565 
L 111.89049 238.030899 
L 113.096542 239.620659 
L 114.302594 156.401444 
L 115.508646 237.460916 
L 116.714697 234.861124 
L 117.920749 213.216122 
L 119.126801 214.696329 
L 120.332853 164.923929 
L 121.538905 202.004945 
L 122.744957 168.534468 
L 123.951009 123.063281 
L 125.157061 229.591043 
L 126.363112 172.838772 
L 127.569164 151.497986 
L 128.775216 198.656174 
L 129.981268 169.759156 
L 131.18732 236.550572 
L 132.393372 227.228969 
L 133.599424 185.810573 
L 134.805476 233.347875 
L 136.011527 229.964586 
L 137.217579 205.355685 
L 138.423631 189.815195 
L 139.629683 231.33664 
L 140.835735 238.859133 
L 142.041787 215.027651 
L 143.247839 221.318966 
L 144.45389 226.572229 
L 145.659942 214.220382 
L 146.865994 232.150466 
L 148.072046 238.885302 
L 149.278098 238.243319 
L 150.48415 240.678708 
L 151.690202 237.648212 
L 152.896254 239.216113 
L 154.102305 238.390348 
L 155.308357 240.850149 
L 156.514409 239.208175 
L 157.720461 239.140403 
L 158.926513 240.205672 
L 161.338617 240.632676 
L 162.544669 240.990643 
L 163.75072 242.040739 
L 164.956772 242.092425 
L 166.162824 240.289693 
L 167.368876 239.879741 
L 168.574928 236.097512 
L 169.78098 241.354387 
L 170.987032 237.222092 
L 172.193084 240.209701 
L 174.605187 241.159934 
L 175.811239 241.982015 
L 177.017291 240.693842 
L 178.223343 241.128851 
L 179.429395 241.952116 
L 180.635447 241.423844 
L 181.841499 241.150315 
L 183.04755 238.612241 
L 184.253602 238.721874 
L 185.459654 239.057852 
L 186.665706 241.709915 
L 187.871758 241.173041 
L 189.07781 241.980572 
L 190.283862 242.111258 
L 191.489914 241.796971 
L 192.695965 231.467881 
L 193.902017 229.486064 
L 195.108069 239.735631 
L 196.314121 242.079036 
L 197.520173 238.595176 
L 198.726225 241.897969 
L 199.932277 240.952627 
L 201.138329 241.377054 
L 202.34438 241.099688 
L 203.550432 237.529069 
L 205.962536 240.727415 
L 207.168588 241.488853 
L 208.37464 241.858068 
L 209.580692 240.913826 
L 210.786744 241.956569 
L 211.992795 241.010712 
L 213.198847 239.134593 
L 214.404899 240.203911 
L 215.610951 240.212675 
L 216.817003 238.23391 
L 218.023055 241.811194 
L 219.229107 240.926698 
L 220.435159 241.634028 
L 221.64121 241.060446 
L 222.847262 227.556555 
L 224.053314 233.756366 
L 225.259366 212.536178 
L 226.465418 44.443636 
L 227.67147 78.743689 
L 228.877522 172.491127 
L 230.083573 218.668562 
L 231.289625 240.445144 
L 232.495677 228.611103 
L 233.701729 239.016638 
L 234.907781 240.332976 
L 236.113833 238.023113 
L 237.319885 241.737204 
L 238.525937 241.487628 
L 239.731988 241.718223 
L 240.93804 240.592759 
L 242.144092 241.065934 
L 243.350144 242.060055 
L 244.556196 241.760888 
L 245.762248 241.66774 
L 246.9683 241.733446 
L 248.174352 241.916484 
L 249.380403 241.703927 
L 250.586455 241.871474 
L 251.792507 241.498167 
L 252.998559 242.05329 
L 257.822767 241.906674 
L 260.23487 241.780928 
L 261.440922 241.379637 
L 262.646974 241.634418 
L 263.853026 242.028352 
L 265.059078 242.095473 
L 271.089337 241.958319 
L 272.295389 242.087061 
L 274.707493 242.055662 
L 277.119597 242.026882 
L 278.325648 241.784936 
L 279.5317 242.091583 
L 280.737752 242.088257 
L 281.943804 241.892306 
L 283.149856 242.100386 
L 285.56196 242.052447 
L 287.974063 242.101641 
L 303.652738 242.072769 
L 308.476945 242.102589 
L 314.507205 242.075022 
L 315.713256 242.000327 
L 318.12536 242.08863 
L 390.488473 242.116361 
L 433 242.116279 
M 433 242.116363 
L -1 242.116363 
L -1 242.116363 
" clip-path="url(#p23f6f8e54e)" style="fill: none; stroke: #c44e52; stroke-opacity: 0.3; stroke-width: 1.5; stroke-linecap: round"/>
   </g>
   <g id="line2d_18">
    <path d="M 54 242.114685 
L 98.623919 242.083586 
L 102.242075 241.855409 
L 103.448127 241.555991 
L 104.654179 240.383246 
L 105.860231 242.008439 
L 107.066282 236.375946 
L 108.272334 239.231708 
L 109.478386 229.975801 
L 110.684438 238.645516 
L 111.89049 233.880087 
L 113.096542 236.288065 
L 114.302594 241.087666 
L 115.508646 218.174932 
L 116.714697 238.855075 
L 117.920749 220.149815 
L 119.126801 220.320577 
L 120.332853 181.620564 
L 121.538905 219.441583 
L 122.744957 106.833301 
L 123.951009 44.443636 
L 125.157061 222.80263 
L 126.363112 175.564408 
L 127.569164 209.86742 
L 128.775216 200.062366 
L 129.981268 209.203673 
L 131.18732 197.964397 
L 132.393372 222.846896 
L 133.599424 218.608082 
L 134.805476 228.187546 
L 136.011527 231.605515 
L 137.217579 211.859779 
L 138.423631 200.746106 
L 139.629683 224.638483 
L 140.835735 228.053032 
L 142.041787 230.359361 
L 143.247839 231.765167 
L 144.45389 236.387596 
L 145.659942 232.509795 
L 146.865994 238.641024 
L 148.072046 224.937606 
L 149.278098 227.171085 
L 150.48415 236.56367 
L 151.690202 231.780776 
L 152.896254 240.03664 
L 154.102305 241.071612 
L 155.308357 237.369108 
L 156.514409 238.08484 
L 157.720461 238.94417 
L 158.926513 240.760578 
L 160.132565 237.667005 
L 161.338617 240.166367 
L 162.544669 238.867792 
L 163.75072 241.660817 
L 164.956772 240.866558 
L 166.162824 240.706189 
L 167.368876 238.655741 
L 168.574928 242.053386 
L 169.78098 241.879555 
L 170.987032 241.442541 
L 172.193084 241.593038 
L 174.605187 240.567897 
L 175.811239 241.610901 
L 177.017291 241.956946 
L 178.223343 241.641122 
L 179.429395 239.866969 
L 180.635447 242.056013 
L 181.841499 240.400485 
L 183.04755 242.088189 
L 184.253602 241.462078 
L 185.459654 242.105849 
L 186.665706 240.95442 
L 187.871758 241.903279 
L 189.07781 241.600924 
L 190.283862 241.94859 
L 191.489914 241.687475 
L 192.695965 239.810526 
L 193.902017 242.004414 
L 195.108069 241.501138 
L 196.314121 242.046614 
L 197.520173 241.775232 
L 198.726225 242.018611 
L 199.932277 241.896157 
L 201.138329 241.933493 
L 202.34438 241.740412 
L 203.550432 241.360668 
L 204.756484 241.91516 
L 205.962536 241.817221 
L 207.168588 241.873465 
L 208.37464 241.612824 
L 209.580692 241.871567 
L 211.992795 241.926367 
L 213.198847 242.022629 
L 215.610951 241.599747 
L 216.817003 242.063745 
L 218.023055 241.647036 
L 219.229107 241.90195 
L 220.435159 242.031616 
L 221.64121 242.008503 
L 222.847262 240.802468 
L 224.053314 241.382597 
L 225.259366 239.284846 
L 226.465418 229.998684 
L 228.877522 238.799281 
L 230.083573 240.262612 
L 231.289625 242.003969 
L 232.495677 241.3136 
L 233.701729 241.7625 
L 234.907781 242.0702 
L 236.113833 242.05457 
L 237.319885 241.87283 
L 238.525937 241.872995 
L 239.731988 242.096436 
L 242.144092 241.828432 
L 243.350144 242.050781 
L 245.762248 241.871464 
L 246.9683 242.047897 
L 248.174352 241.904305 
L 249.380403 242.107607 
L 250.586455 242.031697 
L 251.792507 241.832658 
L 252.998559 242.106415 
L 254.204611 242.081898 
L 255.410663 241.856127 
L 259.028818 242.077921 
L 260.23487 241.846769 
L 261.440922 242.11608 
L 262.646974 241.97789 
L 265.059078 242.096018 
L 271.089337 242.115215 
L 272.295389 241.751242 
L 273.501441 242.063109 
L 275.913545 242.089212 
L 277.119597 241.913106 
L 280.737752 241.991349 
L 281.943804 241.951852 
L 283.149856 242.072287 
L 287.974063 242.053543 
L 291.592219 242.090708 
L 294.004323 241.934682 
L 297.622478 242.082452 
L 320.537464 242.101955 
L 321.743516 242.041918 
L 324.15562 242.084595 
L 330.185879 242.110954 
L 347.070605 242.107876 
L 366.367435 242.116328 
L 433 242.115656 
M 433 242.116284 
L -1 242.116284 
L -1 242.116284 
" clip-path="url(#p23f6f8e54e)" style="fill: none; stroke: #8172b3; stroke-opacity: 0.3; stroke-width: 1.5; stroke-linecap: round"/>
   </g>
   <g id="line2d_19">
    <path d="M 54 241.982341 
L 87.769452 241.908404 
L 90.181556 241.794514 
L 91.387608 241.919947 
L 93.799712 241.706648 
L 96.211816 241.765401 
L 97.417867 241.467896 
L 98.623919 241.577075 
L 99.829971 240.73556 
L 101.036023 241.375985 
L 103.448127 241.929553 
L 104.654179 238.068497 
L 105.860231 221.884121 
L 107.066282 231.388779 
L 108.272334 232.258817 
L 109.478386 183.164458 
L 110.684438 208.364765 
L 111.89049 237.017132 
L 113.096542 207.647372 
L 114.302594 85.753616 
L 115.508646 114.663728 
L 116.714697 174.650651 
L 117.920749 194.304996 
L 119.126801 44.443636 
L 121.538905 208.943288 
L 122.744957 206.341983 
L 123.951009 172.652178 
L 125.157061 236.61622 
L 126.363112 227.415227 
L 127.569164 213.49803 
L 128.775216 221.568067 
L 129.981268 152.516003 
L 131.18732 206.440294 
L 132.393372 126.040285 
L 133.599424 201.645135 
L 134.805476 238.204233 
L 136.011527 229.165709 
L 137.217579 208.621562 
L 138.423631 148.684126 
L 139.629683 239.463831 
L 140.835735 232.638041 
L 142.041787 234.444666 
L 143.247839 241.190675 
L 144.45389 229.080747 
L 145.659942 227.88555 
L 146.865994 238.432556 
L 148.072046 203.261521 
L 149.278098 187.439505 
L 150.48415 186.492201 
L 151.690202 182.060554 
L 152.896254 166.802717 
L 154.102305 204.413426 
L 155.308357 230.618909 
L 156.514409 234.571176 
L 157.720461 234.855186 
L 158.926513 237.953042 
L 160.132565 233.837331 
L 161.338617 238.518657 
L 162.544669 227.924877 
L 163.75072 241.699109 
L 164.956772 236.266074 
L 166.162824 239.186987 
L 167.368876 236.704352 
L 168.574928 240.252029 
L 169.78098 233.686948 
L 170.987032 219.82062 
L 172.193084 223.007621 
L 173.399135 235.597277 
L 174.605187 239.896715 
L 175.811239 239.770715 
L 177.017291 236.700308 
L 178.223343 239.706514 
L 179.429395 241.754087 
L 180.635447 242.097631 
L 181.841499 239.496968 
L 183.04755 234.44678 
L 184.253602 225.484125 
L 185.459654 235.860076 
L 186.665706 240.270251 
L 187.871758 230.920258 
L 190.283862 236.937654 
L 191.489914 235.332705 
L 192.695965 202.214877 
L 193.902017 226.799396 
L 195.108069 226.150795 
L 196.314121 239.594654 
L 197.520173 224.928449 
L 198.726225 238.437591 
L 199.932277 239.391397 
L 201.138329 240.749674 
L 202.34438 238.27551 
L 203.550432 240.620806 
L 205.962536 240.196397 
L 207.168588 236.330503 
L 208.37464 241.743451 
L 209.580692 238.840329 
L 210.786744 237.947022 
L 211.992795 240.601664 
L 213.198847 235.753376 
L 214.404899 237.954774 
L 215.610951 229.07232 
L 216.817003 235.485674 
L 218.023055 241.116583 
L 219.229107 238.859562 
L 220.435159 240.019389 
L 221.64121 236.887776 
L 222.847262 240.364363 
L 224.053314 234.733314 
L 225.259366 227.933947 
L 226.465418 227.895599 
L 227.67147 214.45139 
L 228.877522 237.598303 
L 230.083573 236.527955 
L 231.289625 238.362286 
L 232.495677 236.957706 
L 233.701729 241.378401 
L 234.907781 240.513502 
L 236.113833 240.947431 
L 237.319885 241.55432 
L 238.525937 240.782537 
L 239.731988 240.520364 
L 240.93804 237.436015 
L 242.144092 241.215264 
L 243.350144 240.325812 
L 244.556196 241.923163 
L 245.762248 240.399022 
L 246.9683 241.799392 
L 248.174352 238.915413 
L 249.380403 241.93033 
L 250.586455 236.761788 
L 251.792507 239.903957 
L 252.998559 241.80907 
L 254.204611 241.665416 
L 255.410663 241.925108 
L 256.616715 234.822848 
L 257.822767 241.370066 
L 259.028818 240.635165 
L 260.23487 238.859985 
L 261.440922 241.739515 
L 262.646974 240.529271 
L 263.853026 241.989451 
L 266.26513 241.994999 
L 267.471182 240.059564 
L 268.677233 240.485685 
L 271.089337 241.896542 
L 272.295389 234.659657 
L 273.501441 239.803824 
L 274.707493 241.881121 
L 275.913545 241.876134 
L 277.119597 241.547068 
L 278.325648 240.904082 
L 279.5317 241.463982 
L 280.737752 241.083421 
L 281.943804 241.18743 
L 283.149856 238.703625 
L 284.355908 240.092491 
L 285.56196 241.153341 
L 286.768012 241.891171 
L 287.974063 240.834279 
L 289.180115 242.007279 
L 290.386167 241.930776 
L 291.592219 241.63579 
L 292.798271 239.082031 
L 294.004323 239.288275 
L 295.210375 241.327448 
L 296.416427 241.111512 
L 298.82853 242.071171 
L 301.240634 241.675502 
L 302.446686 240.584005 
L 303.652738 240.352108 
L 304.85879 241.741656 
L 306.064841 242.101817 
L 307.270893 241.061163 
L 308.476945 242.114319 
L 309.682997 241.807346 
L 310.889049 242.115781 
L 312.095101 241.344205 
L 313.301153 241.50713 
L 314.507205 241.91006 
L 315.713256 241.51777 
L 319.331412 241.949502 
L 320.537464 241.93729 
L 321.743516 241.50176 
L 322.949568 242.111794 
L 324.15562 241.96041 
L 325.361671 242.00139 
L 326.567723 241.904162 
L 327.773775 242.076191 
L 330.185879 241.574862 
L 331.391931 241.955188 
L 332.597983 241.743358 
L 335.010086 241.642596 
L 336.216138 241.932011 
L 337.42219 241.908602 
L 338.628242 242.105805 
L 339.834294 242.014595 
L 342.246398 242.109599 
L 343.45245 241.980435 
L 345.864553 242.101997 
L 347.070605 242.033373 
L 350.688761 242.093601 
L 356.71902 242.090779 
L 359.131124 242.115453 
L 367.573487 242.10277 
L 379.634006 242.116032 
L 395.31268 242.115902 
L 433 242.115907 
M 433 242.116352 
L -1 242.116352 
L -1 242.116352 
" clip-path="url(#p23f6f8e54e)" style="fill: none; stroke: #937860; stroke-opacity: 0.3; stroke-width: 1.5; stroke-linecap: round"/>
   </g>
   <g id="line2d_20">
    <path d="M 54 242.069874 
L 91.387608 242.020459 
L 93.799712 241.87136 
L 95.005764 241.983172 
L 97.417867 241.961903 
L 98.623919 242.077242 
L 99.829971 241.56045 
L 101.036023 241.734089 
L 102.242075 241.380536 
L 103.448127 239.808411 
L 104.654179 237.755261 
L 107.066282 214.517058 
L 108.272334 204.584366 
L 109.478386 212.83849 
L 110.684438 218.38597 
L 111.89049 238.341511 
L 113.096542 241.627739 
L 114.302594 142.331317 
L 115.508646 239.696216 
L 116.714697 240.093794 
L 117.920749 208.024869 
L 119.126801 218.33022 
L 120.332853 159.542785 
L 121.538905 188.42002 
L 122.744957 144.429986 
L 123.951009 114.956778 
L 125.157061 222.859925 
L 126.363112 178.860879 
L 127.569164 150.446138 
L 128.775216 206.627426 
L 129.981268 153.157948 
L 131.18732 233.814096 
L 132.393372 222.574026 
L 133.599424 157.241622 
L 134.805476 224.506855 
L 136.011527 222.592381 
L 137.217579 213.083008 
L 138.423631 191.474185 
L 139.629683 229.651291 
L 140.835735 235.594754 
L 142.041787 212.978865 
L 143.247839 196.678506 
L 144.45389 234.958881 
L 145.659942 211.310224 
L 146.865994 230.818557 
L 148.072046 238.548466 
L 149.278098 233.112978 
L 150.48415 238.161249 
L 151.690202 236.341346 
L 152.896254 241.053607 
L 154.102305 231.409769 
L 155.308357 236.002031 
L 156.514409 241.141264 
L 157.720461 237.158875 
L 158.926513 238.00076 
L 160.132565 238.497572 
L 162.544669 240.572632 
L 163.75072 242.034619 
L 164.956772 241.773016 
L 166.162824 241.39502 
L 167.368876 240.207582 
L 168.574928 231.802962 
L 169.78098 240.031564 
L 170.987032 237.826512 
L 172.193084 239.394441 
L 173.399135 239.351177 
L 174.605187 241.410745 
L 175.811239 241.604553 
L 177.017291 240.907012 
L 178.223343 238.790878 
L 179.429395 240.726554 
L 180.635447 239.894325 
L 181.841499 241.689686 
L 183.04755 237.839974 
L 184.253602 239.569869 
L 185.459654 239.164775 
L 186.665706 241.726809 
L 187.871758 241.913745 
L 189.07781 240.489161 
L 190.283862 241.540765 
L 191.489914 241.90795 
L 192.695965 225.562317 
L 193.902017 222.162988 
L 195.108069 238.271546 
L 196.314121 241.883376 
L 197.520173 237.938287 
L 198.726225 241.942594 
L 199.932277 241.275634 
L 201.138329 241.540514 
L 202.34438 239.900927 
L 203.550432 236.130786 
L 204.756484 239.994908 
L 205.962536 239.137239 
L 207.168588 240.852794 
L 208.37464 242.068867 
L 209.580692 240.828792 
L 210.786744 241.807865 
L 211.992795 240.593572 
L 213.198847 238.714962 
L 214.404899 239.268002 
L 215.610951 240.688561 
L 216.817003 239.380641 
L 218.023055 241.821612 
L 219.229107 241.364343 
L 220.435159 241.878744 
L 221.64121 241.19763 
L 222.847262 234.256099 
L 224.053314 234.404621 
L 225.259366 203.837309 
L 226.465418 44.443636 
L 227.67147 82.802447 
L 228.877522 179.11182 
L 230.083573 218.280266 
L 231.289625 240.661708 
L 232.495677 233.632366 
L 233.701729 238.007252 
L 234.907781 240.052216 
L 236.113833 236.849591 
L 237.319885 240.961924 
L 238.525937 241.453434 
L 239.731988 241.73599 
L 240.93804 240.486798 
L 242.144092 240.766853 
L 243.350144 241.606645 
L 244.556196 241.562386 
L 245.762248 242.058012 
L 246.9683 241.847048 
L 248.174352 242.073251 
L 249.380403 241.178746 
L 250.586455 241.886332 
L 251.792507 241.660052 
L 252.998559 242.014674 
L 254.204611 241.554486 
L 255.410663 242.053918 
L 256.616715 241.70217 
L 257.822767 242.102895 
L 259.028818 241.896419 
L 260.23487 241.973962 
L 261.440922 241.708797 
L 262.646974 242.007364 
L 263.853026 241.871377 
L 265.059078 242.075158 
L 266.26513 242.099921 
L 267.471182 241.731136 
L 268.677233 242.035595 
L 269.883285 241.92331 
L 271.089337 242.03685 
L 272.295389 241.780153 
L 274.707493 242.061995 
L 277.119597 241.954465 
L 278.325648 242.10245 
L 279.5317 241.956683 
L 280.737752 242.096242 
L 284.355908 242.10701 
L 285.56196 241.706914 
L 286.768012 242.040435 
L 289.180115 242.015001 
L 294.004323 241.9387 
L 297.622478 242.048157 
L 303.652738 242.02889 
L 306.064841 242.103703 
L 307.270893 242.113051 
L 308.476945 242.007392 
L 310.889049 242.077429 
L 313.301153 242.084898 
L 314.507205 242.024544 
L 316.919308 242.115068 
L 319.331412 242.10321 
L 433 242.116088 
M 433 242.116363 
L -1 242.116363 
L -1 242.116363 
" clip-path="url(#p23f6f8e54e)" style="fill: none; stroke: #da8bc3; stroke-opacity: 0.3; stroke-width: 1.5; stroke-linecap: round"/>
   </g>
   <g id="line2d_21">
    <path d="M 54 242.113431 
L 98.623919 242.052115 
L 102.242075 241.773246 
L 103.448127 241.340489 
L 104.654179 241.186086 
L 105.860231 241.958573 
L 107.066282 237.256345 
L 108.272334 238.103554 
L 109.478386 228.229922 
L 110.684438 239.368037 
L 111.89049 231.659057 
L 113.096542 232.14873 
L 114.302594 241.269564 
L 115.508646 215.719671 
L 116.714697 225.221192 
L 117.920749 208.559252 
L 119.126801 206.836771 
L 120.332853 173.337692 
L 121.538905 207.313986 
L 122.744957 89.851569 
L 123.951009 44.443636 
L 125.157061 225.670425 
L 126.363112 175.889827 
L 127.569164 214.390829 
L 128.775216 207.860897 
L 129.981268 210.520971 
L 131.18732 175.433826 
L 132.393372 212.050404 
L 133.599424 212.749261 
L 134.805476 221.642184 
L 136.011527 227.768224 
L 137.217579 213.018923 
L 138.423631 202.347293 
L 139.629683 222.751681 
L 140.835735 223.557543 
L 142.041787 229.720841 
L 143.247839 233.544551 
L 144.45389 238.319272 
L 145.659942 234.243125 
L 146.865994 235.585217 
L 148.072046 219.951399 
L 149.278098 223.890295 
L 150.48415 235.845589 
L 151.690202 222.403618 
L 152.896254 240.074916 
L 154.102305 240.514486 
L 155.308357 235.292057 
L 156.514409 238.242916 
L 157.720461 239.382088 
L 158.926513 239.056232 
L 160.132565 236.843377 
L 161.338617 240.258689 
L 162.544669 236.378493 
L 163.75072 239.344533 
L 164.956772 241.01732 
L 166.162824 241.943178 
L 167.368876 236.412183 
L 168.574928 241.776745 
L 169.78098 241.817683 
L 170.987032 241.240896 
L 172.193084 239.759844 
L 173.399135 241.312688 
L 174.605187 240.060564 
L 175.811239 240.851063 
L 177.017291 241.023727 
L 178.223343 241.99936 
L 179.429395 240.461642 
L 180.635447 241.143754 
L 181.841499 238.653757 
L 183.04755 241.947358 
L 184.253602 241.079882 
L 185.459654 241.957077 
L 186.665706 239.133387 
L 187.871758 240.852517 
L 189.07781 241.504963 
L 190.283862 241.537608 
L 191.489914 241.85163 
L 192.695965 234.207944 
L 193.902017 242.060131 
L 195.108069 240.717963 
L 196.314121 242.081632 
L 197.520173 241.182344 
L 198.726225 238.98638 
L 199.932277 240.69581 
L 201.138329 240.990983 
L 202.34438 242.044729 
L 203.550432 241.128025 
L 204.756484 241.174758 
L 205.962536 241.399647 
L 207.168588 240.669114 
L 208.37464 241.054025 
L 209.580692 241.18788 
L 210.786744 242.042995 
L 211.992795 241.477289 
L 213.198847 241.810408 
L 214.404899 241.947083 
L 215.610951 241.271704 
L 216.817003 238.853787 
L 218.023055 241.966127 
L 219.229107 241.961563 
L 220.435159 241.45465 
L 221.64121 242.011138 
L 222.847262 236.95539 
L 224.053314 238.974661 
L 225.259366 235.747671 
L 226.465418 200.544993 
L 227.67147 209.394327 
L 228.877522 225.164005 
L 230.083573 236.528808 
L 231.289625 241.232382 
L 232.495677 239.129816 
L 233.701729 241.6463 
L 234.907781 241.933862 
L 237.319885 241.673746 
L 238.525937 242.002801 
L 239.731988 241.541929 
L 240.93804 240.147678 
L 242.144092 241.358246 
L 243.350144 241.057244 
L 244.556196 240.418869 
L 245.762248 242.096479 
L 246.9683 242.048091 
L 248.174352 241.564665 
L 249.380403 242.001246 
L 251.792507 241.55386 
L 252.998559 242.019735 
L 254.204611 241.912331 
L 255.410663 241.982091 
L 256.616715 241.350366 
L 257.822767 241.81807 
L 259.028818 241.638052 
L 260.23487 241.812214 
L 261.440922 241.019032 
L 262.646974 241.93094 
L 263.853026 241.948887 
L 265.059078 241.783913 
L 266.26513 242.00113 
L 267.471182 241.755092 
L 269.883285 242.02464 
L 271.089337 242.065311 
L 272.295389 241.930749 
L 275.913545 242.07327 
L 277.119597 241.871032 
L 278.325648 241.801835 
L 280.737752 242.048266 
L 281.943804 241.874454 
L 284.355908 242.020098 
L 285.56196 241.346916 
L 286.768012 242.067982 
L 289.180115 242.030132 
L 290.386167 241.398046 
L 291.592219 242.055242 
L 292.798271 242.017176 
L 294.004323 241.67033 
L 295.210375 241.807257 
L 296.416427 242.109315 
L 297.622478 242.112202 
L 298.82853 241.93165 
L 306.064841 242.096628 
L 308.476945 241.86489 
L 309.682997 242.115292 
L 310.889049 241.935211 
L 313.301153 242.116153 
L 336.216138 242.077938 
L 339.834294 242.11571 
L 350.688761 242.102132 
L 361.543228 242.114376 
L 403.755043 242.115425 
L 433 242.115635 
M 433 242.116269 
L -1 242.116269 
L -1 242.116269 
" clip-path="url(#p23f6f8e54e)" style="fill: none; stroke: #8c8c8c; stroke-opacity: 0.3; stroke-width: 1.5; stroke-linecap: round"/>
   </g>
   <g id="line2d_22">
    <path d="M 54 241.830745 
L 87.769452 241.726688 
L 90.181556 241.56712 
L 91.387608 241.772504 
L 92.59366 241.560908 
L 95.005764 241.465997 
L 96.211816 241.628957 
L 97.417867 241.163927 
L 98.623919 241.279701 
L 101.036023 240.602241 
L 102.242075 241.588488 
L 103.448127 241.22165 
L 104.654179 232.495662 
L 105.860231 232.261211 
L 107.066282 215.559584 
L 108.272334 236.110211 
L 109.478386 150.96534 
L 110.684438 197.427132 
L 111.89049 234.786961 
L 113.096542 211.300471 
L 114.302594 148.543268 
L 115.508646 131.346707 
L 116.714697 105.408253 
L 117.920749 112.707724 
L 119.126801 93.111106 
L 120.332853 47.262693 
L 121.538905 175.066037 
L 122.744957 203.619449 
L 123.951009 190.457878 
L 125.157061 239.159034 
L 126.363112 234.041483 
L 127.569164 131.280519 
L 128.775216 212.652643 
L 129.981268 163.689776 
L 131.18732 44.443636 
L 132.393372 103.052973 
L 133.599424 202.270565 
L 134.805476 241.334236 
L 136.011527 241.840019 
L 137.217579 224.323902 
L 138.423631 177.575746 
L 139.629683 233.51363 
L 140.835735 241.265303 
L 142.041787 205.371082 
L 143.247839 215.215166 
L 144.45389 164.005763 
L 145.659942 189.652954 
L 146.865994 198.159956 
L 148.072046 203.641393 
L 149.278098 170.275523 
L 150.48415 213.018707 
L 151.690202 108.367948 
L 152.896254 190.839474 
L 154.102305 206.546979 
L 155.308357 162.725533 
L 156.514409 201.307999 
L 157.720461 203.74031 
L 158.926513 233.529006 
L 160.132565 238.137391 
L 161.338617 226.698984 
L 162.544669 211.110508 
L 163.75072 228.729857 
L 164.956772 237.27568 
L 166.162824 229.779477 
L 167.368876 227.553119 
L 168.574928 200.896171 
L 169.78098 233.072487 
L 170.987032 214.069522 
L 172.193084 231.786639 
L 173.399135 224.374007 
L 174.605187 236.413155 
L 175.811239 230.135748 
L 177.017291 221.588045 
L 178.223343 239.34314 
L 179.429395 241.974569 
L 180.635447 213.969104 
L 181.841499 241.024687 
L 183.04755 240.752431 
L 184.253602 213.461848 
L 185.459654 206.846248 
L 186.665706 216.209394 
L 187.871758 231.438073 
L 189.07781 213.257088 
L 190.283862 225.85759 
L 191.489914 231.675392 
L 192.695965 133.773699 
L 193.902017 225.433089 
L 195.108069 229.196792 
L 196.314121 229.247294 
L 197.520173 238.435557 
L 198.726225 176.787933 
L 199.932277 220.515396 
L 201.138329 237.616265 
L 202.34438 207.702564 
L 203.550432 234.612507 
L 204.756484 229.482474 
L 205.962536 234.461204 
L 207.168588 224.263666 
L 208.37464 238.429184 
L 209.580692 228.108988 
L 210.786744 195.584997 
L 211.992795 227.480854 
L 213.198847 238.240786 
L 214.404899 241.522619 
L 215.610951 206.950485 
L 216.817003 188.41223 
L 218.023055 240.514584 
L 219.229107 241.933994 
L 220.435159 231.814156 
L 221.64121 240.207672 
L 222.847262 232.833092 
L 224.053314 240.530127 
L 225.259366 232.424597 
L 226.465418 154.912514 
L 227.67147 213.426261 
L 228.877522 219.103768 
L 230.083573 236.433607 
L 231.289625 213.834791 
L 232.495677 218.250205 
L 233.701729 239.376202 
L 234.907781 237.759617 
L 236.113833 230.539495 
L 237.319885 222.260046 
L 238.525937 240.8403 
L 239.731988 218.016925 
L 242.144092 239.794313 
L 243.350144 215.519263 
L 244.556196 219.465632 
L 245.762248 239.575872 
L 246.9683 242.000608 
L 248.174352 231.863309 
L 249.380403 231.320975 
L 250.586455 225.857856 
L 251.792507 241.99007 
L 252.998559 241.457033 
L 254.204611 215.956274 
L 255.410663 238.940199 
L 256.616715 237.886293 
L 257.822767 233.330159 
L 259.028818 221.59916 
L 260.23487 230.305508 
L 261.440922 231.45488 
L 262.646974 233.494342 
L 263.853026 238.939757 
L 265.059078 237.599198 
L 266.26513 238.334313 
L 267.471182 229.348999 
L 268.677233 237.759695 
L 269.883285 241.967588 
L 271.089337 240.117754 
L 272.295389 234.612678 
L 273.501441 242.075059 
L 274.707493 241.238466 
L 275.913545 241.331108 
L 277.119597 230.854221 
L 278.325648 238.521505 
L 279.5317 239.49739 
L 280.737752 241.558623 
L 281.943804 225.568176 
L 284.355908 240.505114 
L 285.56196 216.382266 
L 286.768012 234.021959 
L 287.974063 242.091644 
L 289.180115 240.70693 
L 290.386167 225.825345 
L 291.592219 240.45784 
L 292.798271 240.944309 
L 294.004323 226.387443 
L 295.210375 232.552561 
L 296.416427 240.774817 
L 297.622478 241.422484 
L 298.82853 237.606453 
L 300.034582 239.709449 
L 301.240634 237.916709 
L 302.446686 228.133418 
L 303.652738 240.922419 
L 304.85879 237.198862 
L 306.064841 240.638381 
L 307.270893 240.747567 
L 308.476945 232.77854 
L 309.682997 241.792731 
L 310.889049 238.375042 
L 312.095101 241.109865 
L 313.301153 242.004852 
L 314.507205 241.764591 
L 315.713256 241.033324 
L 316.919308 241.411529 
L 318.12536 237.30773 
L 319.331412 240.587159 
L 320.537464 242.012642 
L 321.743516 241.578406 
L 322.949568 240.496302 
L 324.15562 240.444373 
L 325.361671 240.900219 
L 326.567723 239.161544 
L 327.773775 239.76853 
L 328.979827 241.038963 
L 330.185879 242.069026 
L 331.391931 235.914685 
L 332.597983 241.775592 
L 333.804035 242.047884 
L 335.010086 240.137378 
L 336.216138 240.755681 
L 337.42219 242.049047 
L 338.628242 241.057405 
L 339.834294 242.044822 
L 341.040346 241.992528 
L 343.45245 242.087669 
L 344.658501 241.235545 
L 345.864553 241.361394 
L 347.070605 241.918862 
L 349.482709 242.082904 
L 350.688761 241.490476 
L 351.894813 241.904227 
L 353.100865 242.115885 
L 354.306916 242.09576 
L 355.512968 241.779066 
L 356.71902 242.105942 
L 357.925072 241.836148 
L 359.131124 242.097269 
L 360.337176 241.88941 
L 361.543228 242.091988 
L 362.74928 242.099895 
L 363.955331 241.984429 
L 386.870317 242.083228 
L 433 242.108595 
M 433 242.116359 
L -1 242.116359 
L -1 242.116359 
" clip-path="url(#p23f6f8e54e)" style="fill: none; stroke: #ccb974; stroke-opacity: 0.3; stroke-width: 1.5; stroke-linecap: round"/>
   </g>
   <g id="patch_3">
    <path d="M 54 252 
L 54 34.56 
" style="fill: none; stroke: #262626; stroke-width: 1.25; stroke-linejoin: miter; stroke-linecap: square"/>
   </g>
   <g id="patch_4">
    <path d="M 388.8 252 
L 388.8 34.56 
" style="fill: none; stroke: #262626; stroke-width: 1.25; stroke-linejoin: miter; stroke-linecap: square"/>
   </g>
   <g id="patch_5">
    <path d="M 54 252 
L 388.8 252 
" style="fill: none; stroke: #262626; stroke-width: 1.25; stroke-linejoin: miter; stroke-linecap: square"/>
   </g>
   <g id="patch_6">
    <path d="M 54 34.56 
L 388.8 34.56 
" style="fill: none; stroke: #262626; stroke-width: 1.25; stroke-linejoin: miter; stroke-linecap: square"/>
   </g>
   <g id="text_15">
    <!-- patient06_app01_phone - Power spectrum -->
    <g style="fill: #262626" transform="translate(107.998125 28.56)scale(0.12 -0.12)">
     <defs>
      <path id="ArialMT-70" d="M 422 -1272 
L 422 3319 
L 934 3319 
L 934 2888 
Q 1116 3141 1344 3267 
Q 1572 3394 1897 3394 
Q 2322 3394 2647 3175 
Q 2972 2956 3137 2557 
Q 3303 2159 3303 1684 
Q 3303 1175 3120 767 
Q 2938 359 2589 142 
Q 2241 -75 1856 -75 
Q 1575 -75 1351 44 
Q 1128 163 984 344 
L 984 -1272 
L 422 -1272 
z
M 931 1641 
Q 931 1000 1190 694 
Q 1450 388 1819 388 
Q 2194 388 2461 705 
Q 2728 1022 2728 1688 
Q 2728 2322 2467 2637 
Q 2206 2953 1844 2953 
Q 1484 2953 1207 2617 
Q 931 2281 931 1641 
z
" transform="scale(0.015625)"/>
      <path id="ArialMT-61" d="M 2588 409 
Q 2275 144 1986 34 
Q 1697 -75 1366 -75 
Q 819 -75 525 192 
Q 231 459 231 875 
Q 231 1119 342 1320 
Q 453 1522 633 1644 
Q 813 1766 1038 1828 
Q 1203 1872 1538 1913 
Q 2219 1994 2541 2106 
Q 2544 2222 2544 2253 
Q 2544 2597 2384 2738 
Q 2169 2928 1744 2928 
Q 1347 2928 1158 2789 
Q 969 2650 878 2297 
L 328 2372 
Q 403 2725 575 2942 
Q 747 3159 1072 3276 
Q 1397 3394 1825 3394 
Q 2250 3394 2515 3294 
Q 2781 3194 2906 3042 
Q 3031 2891 3081 2659 
Q 3109 2516 3109 2141 
L 3109 1391 
Q 3109 606 3145 398 
Q 3181 191 3288 0 
L 2700 0 
Q 2613 175 2588 409 
z
M 2541 1666 
Q 2234 1541 1622 1453 
Q 1275 1403 1131 1340 
Q 988 1278 909 1158 
Q 831 1038 831 891 
Q 831 666 1001 516 
Q 1172 366 1500 366 
Q 1825 366 2078 508 
Q 2331 650 2450 897 
Q 2541 1088 2541 1459 
L 2541 1666 
z
" transform="scale(0.015625)"/>
      <path id="ArialMT-74" d="M 1650 503 
L 1731 6 
Q 1494 -44 1306 -44 
Q 1000 -44 831 53 
Q 663 150 594 308 
Q 525 466 525 972 
L 525 2881 
L 113 2881 
L 113 3319 
L 525 3319 
L 525 4141 
L 1084 4478 
L 1084 3319 
L 1650 3319 
L 1650 2881 
L 1084 2881 
L 1084 941 
Q 1084 700 1114 631 
Q 1144 563 1211 522 
Q 1278 481 1403 481 
Q 1497 481 1650 503 
z
" transform="scale(0.015625)"/>
      <path id="ArialMT-69" d="M 425 3934 
L 425 4581 
L 988 4581 
L 988 3934 
L 425 3934 
z
M 425 0 
L 425 3319 
L 988 3319 
L 988 0 
L 425 0 
z
" transform="scale(0.015625)"/>
      <path id="ArialMT-5f" d="M -97 -1272 
L -97 -866 
L 3631 -866 
L 3631 -1272 
L -97 -1272 
z
" transform="scale(0.015625)"/>
      <path id="ArialMT-68" d="M 422 0 
L 422 4581 
L 984 4581 
L 984 2938 
Q 1378 3394 1978 3394 
Q 2347 3394 2619 3248 
Q 2891 3103 3008 2847 
Q 3125 2591 3125 2103 
L 3125 0 
L 2563 0 
L 2563 2103 
Q 2563 2525 2380 2717 
Q 2197 2909 1863 2909 
Q 1613 2909 1392 2779 
Q 1172 2650 1078 2428 
Q 984 2206 984 1816 
L 984 0 
L 422 0 
z
" transform="scale(0.015625)"/>
      <path id="ArialMT-6f" d="M 213 1659 
Q 213 2581 725 3025 
Q 1153 3394 1769 3394 
Q 2453 3394 2887 2945 
Q 3322 2497 3322 1706 
Q 3322 1066 3130 698 
Q 2938 331 2570 128 
Q 2203 -75 1769 -75 
Q 1072 -75 642 372 
Q 213 819 213 1659 
z
M 791 1659 
Q 791 1022 1069 705 
Q 1347 388 1769 388 
Q 2188 388 2466 706 
Q 2744 1025 2744 1678 
Q 2744 2294 2464 2611 
Q 2184 2928 1769 2928 
Q 1347 2928 1069 2612 
Q 791 2297 791 1659 
z
" transform="scale(0.015625)"/>
      <path id="ArialMT-2d" d="M 203 1375 
L 203 1941 
L 1931 1941 
L 1931 1375 
L 203 1375 
z
" transform="scale(0.015625)"/>
      <path id="ArialMT-50" d="M 494 0 
L 494 4581 
L 2222 4581 
Q 2678 4581 2919 4538 
Q 3256 4481 3484 4323 
Q 3713 4166 3852 3881 
Q 3991 3597 3991 3256 
Q 3991 2672 3619 2267 
Q 3247 1863 2275 1863 
L 1100 1863 
L 1100 0 
L 494 0 
z
M 1100 2403 
L 2284 2403 
Q 2872 2403 3119 2622 
Q 3366 2841 3366 3238 
Q 3366 3525 3220 3729 
Q 3075 3934 2838 4000 
Q 2684 4041 2272 4041 
L 1100 4041 
L 1100 2403 
z
" transform="scale(0.015625)"/>
      <path id="ArialMT-77" d="M 1034 0 
L 19 3319 
L 600 3319 
L 1128 1403 
L 1325 691 
Q 1338 744 1497 1375 
L 2025 3319 
L 2603 3319 
L 3100 1394 
L 3266 759 
L 3456 1400 
L 4025 3319 
L 4572 3319 
L 3534 0 
L 2950 0 
L 2422 1988 
L 2294 2553 
L 1622 0 
L 1034 0 
z
" transform="scale(0.015625)"/>
      <path id="ArialMT-73" d="M 197 991 
L 753 1078 
Q 800 744 1014 566 
Q 1228 388 1613 388 
Q 2000 388 2187 545 
Q 2375 703 2375 916 
Q 2375 1106 2209 1216 
Q 2094 1291 1634 1406 
Q 1016 1563 777 1677 
Q 538 1791 414 1992 
Q 291 2194 291 2438 
Q 291 2659 392 2848 
Q 494 3038 669 3163 
Q 800 3259 1026 3326 
Q 1253 3394 1513 3394 
Q 1903 3394 2198 3281 
Q 2494 3169 2634 2976 
Q 2775 2784 2828 2463 
L 2278 2388 
Q 2241 2644 2061 2787 
Q 1881 2931 1553 2931 
Q 1166 2931 1000 2803 
Q 834 2675 834 2503 
Q 834 2394 903 2306 
Q 972 2216 1119 2156 
Q 1203 2125 1616 2013 
Q 2213 1853 2448 1751 
Q 2684 1650 2818 1456 
Q 2953 1263 2953 975 
Q 2953 694 2789 445 
Q 2625 197 2315 61 
Q 2006 -75 1616 -75 
Q 969 -75 630 194 
Q 291 463 197 991 
z
" transform="scale(0.015625)"/>
      <path id="ArialMT-6d" d="M 422 0 
L 422 3319 
L 925 3319 
L 925 2853 
Q 1081 3097 1340 3245 
Q 1600 3394 1931 3394 
Q 2300 3394 2536 3241 
Q 2772 3088 2869 2813 
Q 3263 3394 3894 3394 
Q 4388 3394 4653 3120 
Q 4919 2847 4919 2278 
L 4919 0 
L 4359 0 
L 4359 2091 
Q 4359 2428 4304 2576 
Q 4250 2725 4106 2815 
Q 3963 2906 3769 2906 
Q 3419 2906 3187 2673 
Q 2956 2441 2956 1928 
L 2956 0 
L 2394 0 
L 2394 2156 
Q 2394 2531 2256 2718 
Q 2119 2906 1806 2906 
Q 1569 2906 1367 2781 
Q 1166 2656 1075 2415 
Q 984 2175 984 1722 
L 984 0 
L 422 0 
z
" transform="scale(0.015625)"/>
     </defs>
     <use xlink:href="#ArialMT-70"/>
     <use xlink:href="#ArialMT-61" x="55.615234"/>
     <use xlink:href="#ArialMT-74" x="111.230469"/>
     <use xlink:href="#ArialMT-69" x="139.013672"/>
     <use xlink:href="#ArialMT-65" x="161.230469"/>
     <use xlink:href="#ArialMT-6e" x="216.845703"/>
     <use xlink:href="#ArialMT-74" x="272.460938"/>
     <use xlink:href="#ArialMT-30" x="300.244141"/>
     <use xlink:href="#ArialMT-36" x="355.859375"/>
     <use xlink:href="#ArialMT-5f" x="411.474609"/>
     <use xlink:href="#ArialMT-61" x="467.089844"/>
     <use xlink:href="#ArialMT-70" x="522.705078"/>
     <use xlink:href="#ArialMT-70" x="578.320312"/>
     <use xlink:href="#ArialMT-30" x="633.935547"/>
     <use xlink:href="#ArialMT-31" x="689.550781"/>
     <use xlink:href="#ArialMT-5f" x="745.166016"/>
     <use xlink:href="#ArialMT-70" x="800.78125"/>
     <use xlink:href="#ArialMT-68" x="856.396484"/>
     <use xlink:href="#ArialMT-6f" x="912.011719"/>
     <use xlink:href="#ArialMT-6e" x="967.626953"/>
     <use xlink:href="#ArialMT-65" x="1023.242188"/>
     <use xlink:href="#ArialMT-20" x="1078.857422"/>
     <use xlink:href="#ArialMT-2d" x="1106.640625"/>
     <use xlink:href="#ArialMT-20" x="1139.941406"/>
     <use xlink:href="#ArialMT-50" x="1167.724609"/>
     <use xlink:href="#ArialMT-6f" x="1234.423828"/>
     <use xlink:href="#ArialMT-77" x="1290.039062"/>
     <use xlink:href="#ArialMT-65" x="1362.255859"/>
     <use xlink:href="#ArialMT-72" x="1417.871094"/>
     <use xlink:href="#ArialMT-20" x="1451.171875"/>
     <use xlink:href="#ArialMT-73" x="1478.955078"/>
     <use xlink:href="#ArialMT-70" x="1528.955078"/>
     <use xlink:href="#ArialMT-65" x="1584.570312"/>
     <use xlink:href="#ArialMT-63" x="1640.185547"/>
     <use xlink:href="#ArialMT-74" x="1690.185547"/>
     <use xlink:href="#ArialMT-72" x="1717.96875"/>
     <use xlink:href="#ArialMT-75" x="1751.269531"/>
     <use xlink:href="#ArialMT-6d" x="1806.884766"/>
    </g>
   </g>
  </g>
 </g>
 <defs>
  <clipPath id="p23f6f8e54e">
   <rect x="54" y="34.56" width="334.8" height="217.44"/>
  </clipPath>
 </defs>
</svg>
