<?xml version="1.0" encoding="utf-8" standalone="no"?>
<!DOCTYPE svg PUBLIC "-//W3C//DTD SVG 1.1//EN"
  "http://www.w3.org/Graphics/SVG/1.1/DTD/svg11.dtd">
<svg xmlns:xlink="http://www.w3.org/1999/xlink" width="432pt" height="288pt" viewBox="0 0 432 288" xmlns="http://www.w3.org/2000/svg" version="1.1">
 <metadata>
  <rdf:RDF xmlns:dc="http://purl.org/dc/elements/1.1/" xmlns:cc="http://creativecommons.org/ns#" xmlns:rdf="http://www.w3.org/1999/02/22-rdf-syntax-ns#">
   <cc:Work>
    <dc:type rdf:resource="http://purl.org/dc/dcmitype/StillImage"/>
    <dc:date>2022-07-08T13:28:09.480090</dc:date>
    <dc:format>image/svg+xml</dc:format>
    <dc:creator>
     <cc:Agent>
      <dc:title>Matplotlib v3.5.1, https://matplotlib.org/</dc:title>
     </cc:Agent>
    </dc:creator>
   </cc:Work>
  </rdf:RDF>
 </metadata>
 <defs>
  <style type="text/css">*{stroke-linejoin: round; stroke-linecap: butt}</style>
 </defs>
 <g id="figure_1">
  <g id="patch_1">
   <path d="M 0 288 
L 432 288 
L 432 0 
L 0 0 
z
" style="fill: #ffffff"/>
  </g>
  <g id="axes_1">
   <g id="patch_2">
    <path d="M 54 252 
L 388.8 252 
L 388.8 34.56 
L 54 34.56 
z
" style="fill: #ffffff"/>
   </g>
   <g id="matplotlib.axis_1">
    <g id="xtick_1">
     <g id="line2d_1">
      <defs>
       <path id="m54139bbec6" d="M 0 0 
L 0 6 
" style="stroke: #262626; stroke-width: 1.25"/>
      </defs>
      <g>
       <use xlink:href="#m54139bbec6" x="54" y="252" style="fill: #262626; stroke: #262626; stroke-width: 1.25"/>
      </g>
     </g>
     <g id="text_1">
      <!-- 0 -->
      <g style="fill: #262626" transform="translate(50.941484 269.373594)scale(0.11 -0.11)">
       <defs>
        <path id="ArialMT-30" d="M 266 2259 
Q 266 3072 433 3567 
Q 600 4063 929 4331 
Q 1259 4600 1759 4600 
Q 2128 4600 2406 4451 
Q 2684 4303 2865 4023 
Q 3047 3744 3150 3342 
Q 3253 2941 3253 2259 
Q 3253 1453 3087 958 
Q 2922 463 2592 192 
Q 2263 -78 1759 -78 
Q 1097 -78 719 397 
Q 266 969 266 2259 
z
M 844 2259 
Q 844 1131 1108 757 
Q 1372 384 1759 384 
Q 2147 384 2411 759 
Q 2675 1134 2675 2259 
Q 2675 3391 2411 3762 
Q 2147 4134 1753 4134 
Q 1366 4134 1134 3806 
Q 844 3388 844 2259 
z
" transform="scale(0.015625)"/>
       </defs>
       <use xlink:href="#ArialMT-30"/>
      </g>
     </g>
    </g>
    <g id="xtick_2">
     <g id="line2d_2">
      <g>
       <use xlink:href="#m54139bbec6" x="109.8" y="252" style="fill: #262626; stroke: #262626; stroke-width: 1.25"/>
      </g>
     </g>
     <g id="text_2">
      <!-- 5 -->
      <g style="fill: #262626" transform="translate(106.741484 269.373594)scale(0.11 -0.11)">
       <defs>
        <path id="ArialMT-35" d="M 266 1200 
L 856 1250 
Q 922 819 1161 601 
Q 1400 384 1738 384 
Q 2144 384 2425 690 
Q 2706 997 2706 1503 
Q 2706 1984 2436 2262 
Q 2166 2541 1728 2541 
Q 1456 2541 1237 2417 
Q 1019 2294 894 2097 
L 366 2166 
L 809 4519 
L 3088 4519 
L 3088 3981 
L 1259 3981 
L 1013 2750 
Q 1425 3038 1878 3038 
Q 2478 3038 2890 2622 
Q 3303 2206 3303 1553 
Q 3303 931 2941 478 
Q 2500 -78 1738 -78 
Q 1113 -78 717 272 
Q 322 622 266 1200 
z
" transform="scale(0.015625)"/>
       </defs>
       <use xlink:href="#ArialMT-35"/>
      </g>
     </g>
    </g>
    <g id="xtick_3">
     <g id="line2d_3">
      <g>
       <use xlink:href="#m54139bbec6" x="165.6" y="252" style="fill: #262626; stroke: #262626; stroke-width: 1.25"/>
      </g>
     </g>
     <g id="text_3">
      <!-- 10 -->
      <g style="fill: #262626" transform="translate(159.482969 269.373594)scale(0.11 -0.11)">
       <defs>
        <path id="ArialMT-31" d="M 2384 0 
L 1822 0 
L 1822 3584 
Q 1619 3391 1289 3197 
Q 959 3003 697 2906 
L 697 3450 
Q 1169 3672 1522 3987 
Q 1875 4303 2022 4600 
L 2384 4600 
L 2384 0 
z
" transform="scale(0.015625)"/>
       </defs>
       <use xlink:href="#ArialMT-31"/>
       <use xlink:href="#ArialMT-30" x="55.615234"/>
      </g>
     </g>
    </g>
    <g id="xtick_4">
     <g id="line2d_4">
      <g>
       <use xlink:href="#m54139bbec6" x="221.4" y="252" style="fill: #262626; stroke: #262626; stroke-width: 1.25"/>
      </g>
     </g>
     <g id="text_4">
      <!-- 15 -->
      <g style="fill: #262626" transform="translate(215.282969 269.373594)scale(0.11 -0.11)">
       <use xlink:href="#ArialMT-31"/>
       <use xlink:href="#ArialMT-35" x="55.615234"/>
      </g>
     </g>
    </g>
    <g id="xtick_5">
     <g id="line2d_5">
      <g>
       <use xlink:href="#m54139bbec6" x="277.2" y="252" style="fill: #262626; stroke: #262626; stroke-width: 1.25"/>
      </g>
     </g>
     <g id="text_5">
      <!-- 20 -->
      <g style="fill: #262626" transform="translate(271.082969 269.373594)scale(0.11 -0.11)">
       <defs>
        <path id="ArialMT-32" d="M 3222 541 
L 3222 0 
L 194 0 
Q 188 203 259 391 
Q 375 700 629 1000 
Q 884 1300 1366 1694 
Q 2113 2306 2375 2664 
Q 2638 3022 2638 3341 
Q 2638 3675 2398 3904 
Q 2159 4134 1775 4134 
Q 1369 4134 1125 3890 
Q 881 3647 878 3216 
L 300 3275 
Q 359 3922 746 4261 
Q 1134 4600 1788 4600 
Q 2447 4600 2831 4234 
Q 3216 3869 3216 3328 
Q 3216 3053 3103 2787 
Q 2991 2522 2730 2228 
Q 2469 1934 1863 1422 
Q 1356 997 1212 845 
Q 1069 694 975 541 
L 3222 541 
z
" transform="scale(0.015625)"/>
       </defs>
       <use xlink:href="#ArialMT-32"/>
       <use xlink:href="#ArialMT-30" x="55.615234"/>
      </g>
     </g>
    </g>
    <g id="xtick_6">
     <g id="line2d_6">
      <g>
       <use xlink:href="#m54139bbec6" x="333" y="252" style="fill: #262626; stroke: #262626; stroke-width: 1.25"/>
      </g>
     </g>
     <g id="text_6">
      <!-- 25 -->
      <g style="fill: #262626" transform="translate(326.882969 269.373594)scale(0.11 -0.11)">
       <use xlink:href="#ArialMT-32"/>
       <use xlink:href="#ArialMT-35" x="55.615234"/>
      </g>
     </g>
    </g>
    <g id="xtick_7">
     <g id="line2d_7">
      <g>
       <use xlink:href="#m54139bbec6" x="388.8" y="252" style="fill: #262626; stroke: #262626; stroke-width: 1.25"/>
      </g>
     </g>
     <g id="text_7">
      <!-- 30 -->
      <g style="fill: #262626" transform="translate(382.682969 269.373594)scale(0.11 -0.11)">
       <defs>
        <path id="ArialMT-33" d="M 269 1209 
L 831 1284 
Q 928 806 1161 595 
Q 1394 384 1728 384 
Q 2125 384 2398 659 
Q 2672 934 2672 1341 
Q 2672 1728 2419 1979 
Q 2166 2231 1775 2231 
Q 1616 2231 1378 2169 
L 1441 2663 
Q 1497 2656 1531 2656 
Q 1891 2656 2178 2843 
Q 2466 3031 2466 3422 
Q 2466 3731 2256 3934 
Q 2047 4138 1716 4138 
Q 1388 4138 1169 3931 
Q 950 3725 888 3313 
L 325 3413 
Q 428 3978 793 4289 
Q 1159 4600 1703 4600 
Q 2078 4600 2393 4439 
Q 2709 4278 2876 4000 
Q 3044 3722 3044 3409 
Q 3044 3113 2884 2869 
Q 2725 2625 2413 2481 
Q 2819 2388 3044 2092 
Q 3269 1797 3269 1353 
Q 3269 753 2831 336 
Q 2394 -81 1725 -81 
Q 1122 -81 723 278 
Q 325 638 269 1209 
z
" transform="scale(0.015625)"/>
       </defs>
       <use xlink:href="#ArialMT-33"/>
       <use xlink:href="#ArialMT-30" x="55.615234"/>
      </g>
     </g>
    </g>
    <g id="text_8">
     <!-- Frequency (Hz) -->
     <g style="fill: #262626" transform="translate(180.059063 284.295469)scale(0.12 -0.12)">
      <defs>
       <path id="ArialMT-46" d="M 525 0 
L 525 4581 
L 3616 4581 
L 3616 4041 
L 1131 4041 
L 1131 2622 
L 3281 2622 
L 3281 2081 
L 1131 2081 
L 1131 0 
L 525 0 
z
" transform="scale(0.015625)"/>
       <path id="ArialMT-72" d="M 416 0 
L 416 3319 
L 922 3319 
L 922 2816 
Q 1116 3169 1280 3281 
Q 1444 3394 1641 3394 
Q 1925 3394 2219 3213 
L 2025 2691 
Q 1819 2813 1613 2813 
Q 1428 2813 1281 2702 
Q 1134 2591 1072 2394 
Q 978 2094 978 1738 
L 978 0 
L 416 0 
z
" transform="scale(0.015625)"/>
       <path id="ArialMT-65" d="M 2694 1069 
L 3275 997 
Q 3138 488 2766 206 
Q 2394 -75 1816 -75 
Q 1088 -75 661 373 
Q 234 822 234 1631 
Q 234 2469 665 2931 
Q 1097 3394 1784 3394 
Q 2450 3394 2872 2941 
Q 3294 2488 3294 1666 
Q 3294 1616 3291 1516 
L 816 1516 
Q 847 969 1125 678 
Q 1403 388 1819 388 
Q 2128 388 2347 550 
Q 2566 713 2694 1069 
z
M 847 1978 
L 2700 1978 
Q 2663 2397 2488 2606 
Q 2219 2931 1791 2931 
Q 1403 2931 1139 2672 
Q 875 2413 847 1978 
z
" transform="scale(0.015625)"/>
       <path id="ArialMT-71" d="M 2538 -1272 
L 2538 353 
Q 2406 169 2170 47 
Q 1934 -75 1669 -75 
Q 1078 -75 651 397 
Q 225 869 225 1691 
Q 225 2191 398 2587 
Q 572 2984 901 3189 
Q 1231 3394 1625 3394 
Q 2241 3394 2594 2875 
L 2594 3319 
L 3100 3319 
L 3100 -1272 
L 2538 -1272 
z
M 803 1669 
Q 803 1028 1072 708 
Q 1341 388 1716 388 
Q 2075 388 2334 692 
Q 2594 997 2594 1619 
Q 2594 2281 2320 2615 
Q 2047 2950 1678 2950 
Q 1313 2950 1058 2639 
Q 803 2328 803 1669 
z
" transform="scale(0.015625)"/>
       <path id="ArialMT-75" d="M 2597 0 
L 2597 488 
Q 2209 -75 1544 -75 
Q 1250 -75 995 37 
Q 741 150 617 320 
Q 494 491 444 738 
Q 409 903 409 1263 
L 409 3319 
L 972 3319 
L 972 1478 
Q 972 1038 1006 884 
Q 1059 663 1231 536 
Q 1403 409 1656 409 
Q 1909 409 2131 539 
Q 2353 669 2445 892 
Q 2538 1116 2538 1541 
L 2538 3319 
L 3100 3319 
L 3100 0 
L 2597 0 
z
" transform="scale(0.015625)"/>
       <path id="ArialMT-6e" d="M 422 0 
L 422 3319 
L 928 3319 
L 928 2847 
Q 1294 3394 1984 3394 
Q 2284 3394 2536 3286 
Q 2788 3178 2913 3003 
Q 3038 2828 3088 2588 
Q 3119 2431 3119 2041 
L 3119 0 
L 2556 0 
L 2556 2019 
Q 2556 2363 2490 2533 
Q 2425 2703 2258 2804 
Q 2091 2906 1866 2906 
Q 1506 2906 1245 2678 
Q 984 2450 984 1813 
L 984 0 
L 422 0 
z
" transform="scale(0.015625)"/>
       <path id="ArialMT-63" d="M 2588 1216 
L 3141 1144 
Q 3050 572 2676 248 
Q 2303 -75 1759 -75 
Q 1078 -75 664 370 
Q 250 816 250 1647 
Q 250 2184 428 2587 
Q 606 2991 970 3192 
Q 1334 3394 1763 3394 
Q 2303 3394 2647 3120 
Q 2991 2847 3088 2344 
L 2541 2259 
Q 2463 2594 2264 2762 
Q 2066 2931 1784 2931 
Q 1359 2931 1093 2626 
Q 828 2322 828 1663 
Q 828 994 1084 691 
Q 1341 388 1753 388 
Q 2084 388 2306 591 
Q 2528 794 2588 1216 
z
" transform="scale(0.015625)"/>
       <path id="ArialMT-79" d="M 397 -1278 
L 334 -750 
Q 519 -800 656 -800 
Q 844 -800 956 -737 
Q 1069 -675 1141 -563 
Q 1194 -478 1313 -144 
Q 1328 -97 1363 -6 
L 103 3319 
L 709 3319 
L 1400 1397 
Q 1534 1031 1641 628 
Q 1738 1016 1872 1384 
L 2581 3319 
L 3144 3319 
L 1881 -56 
Q 1678 -603 1566 -809 
Q 1416 -1088 1222 -1217 
Q 1028 -1347 759 -1347 
Q 597 -1347 397 -1278 
z
" transform="scale(0.015625)"/>
       <path id="ArialMT-20" transform="scale(0.015625)"/>
       <path id="ArialMT-28" d="M 1497 -1347 
Q 1031 -759 709 28 
Q 388 816 388 1659 
Q 388 2403 628 3084 
Q 909 3875 1497 4659 
L 1900 4659 
Q 1522 4009 1400 3731 
Q 1209 3300 1100 2831 
Q 966 2247 966 1656 
Q 966 153 1900 -1347 
L 1497 -1347 
z
" transform="scale(0.015625)"/>
       <path id="ArialMT-48" d="M 513 0 
L 513 4581 
L 1119 4581 
L 1119 2700 
L 3500 2700 
L 3500 4581 
L 4106 4581 
L 4106 0 
L 3500 0 
L 3500 2159 
L 1119 2159 
L 1119 0 
L 513 0 
z
" transform="scale(0.015625)"/>
       <path id="ArialMT-7a" d="M 125 0 
L 125 456 
L 2238 2881 
Q 1878 2863 1603 2863 
L 250 2863 
L 250 3319 
L 2963 3319 
L 2963 2947 
L 1166 841 
L 819 456 
Q 1197 484 1528 484 
L 3063 484 
L 3063 0 
L 125 0 
z
" transform="scale(0.015625)"/>
       <path id="ArialMT-29" d="M 791 -1347 
L 388 -1347 
Q 1322 153 1322 1656 
Q 1322 2244 1188 2822 
Q 1081 3291 891 3722 
Q 769 4003 388 4659 
L 791 4659 
Q 1378 3875 1659 3084 
Q 1900 2403 1900 1659 
Q 1900 816 1576 28 
Q 1253 -759 791 -1347 
z
" transform="scale(0.015625)"/>
      </defs>
      <use xlink:href="#ArialMT-46"/>
      <use xlink:href="#ArialMT-72" x="61.083984"/>
      <use xlink:href="#ArialMT-65" x="94.384766"/>
      <use xlink:href="#ArialMT-71" x="150"/>
      <use xlink:href="#ArialMT-75" x="205.615234"/>
      <use xlink:href="#ArialMT-65" x="261.230469"/>
      <use xlink:href="#ArialMT-6e" x="316.845703"/>
      <use xlink:href="#ArialMT-63" x="372.460938"/>
      <use xlink:href="#ArialMT-79" x="422.460938"/>
      <use xlink:href="#ArialMT-20" x="472.460938"/>
      <use xlink:href="#ArialMT-28" x="500.244141"/>
      <use xlink:href="#ArialMT-48" x="533.544922"/>
      <use xlink:href="#ArialMT-7a" x="605.761719"/>
      <use xlink:href="#ArialMT-29" x="655.761719"/>
     </g>
    </g>
   </g>
   <g id="matplotlib.axis_2">
    <g id="ytick_1">
     <g id="line2d_8">
      <defs>
       <path id="mc70fdf619b" d="M 0 0 
L -6 0 
" style="stroke: #262626; stroke-width: 1.25"/>
      </defs>
      <g>
       <use xlink:href="#mc70fdf619b" x="54" y="242.116364" style="fill: #262626; stroke: #262626; stroke-width: 1.25"/>
      </g>
     </g>
     <g id="text_9">
      <!-- 0.0 -->
      <g style="fill: #262626" transform="translate(29.21 246.053161)scale(0.11 -0.11)">
       <defs>
        <path id="ArialMT-2e" d="M 581 0 
L 581 641 
L 1222 641 
L 1222 0 
L 581 0 
z
" transform="scale(0.015625)"/>
       </defs>
       <use xlink:href="#ArialMT-30"/>
       <use xlink:href="#ArialMT-2e" x="55.615234"/>
       <use xlink:href="#ArialMT-30" x="83.398438"/>
      </g>
     </g>
    </g>
    <g id="ytick_2">
     <g id="line2d_9">
      <g>
       <use xlink:href="#mc70fdf619b" x="54" y="202.581819" style="fill: #262626; stroke: #262626; stroke-width: 1.25"/>
      </g>
     </g>
     <g id="text_10">
      <!-- 0.2 -->
      <g style="fill: #262626" transform="translate(29.21 206.518616)scale(0.11 -0.11)">
       <use xlink:href="#ArialMT-30"/>
       <use xlink:href="#ArialMT-2e" x="55.615234"/>
       <use xlink:href="#ArialMT-32" x="83.398438"/>
      </g>
     </g>
    </g>
    <g id="ytick_3">
     <g id="line2d_10">
      <g>
       <use xlink:href="#mc70fdf619b" x="54" y="163.047273" style="fill: #262626; stroke: #262626; stroke-width: 1.25"/>
      </g>
     </g>
     <g id="text_11">
      <!-- 0.4 -->
      <g style="fill: #262626" transform="translate(29.21 166.98407)scale(0.11 -0.11)">
       <defs>
        <path id="ArialMT-34" d="M 2069 0 
L 2069 1097 
L 81 1097 
L 81 1613 
L 2172 4581 
L 2631 4581 
L 2631 1613 
L 3250 1613 
L 3250 1097 
L 2631 1097 
L 2631 0 
L 2069 0 
z
M 2069 1613 
L 2069 3678 
L 634 1613 
L 2069 1613 
z
" transform="scale(0.015625)"/>
       </defs>
       <use xlink:href="#ArialMT-30"/>
       <use xlink:href="#ArialMT-2e" x="55.615234"/>
       <use xlink:href="#ArialMT-34" x="83.398438"/>
      </g>
     </g>
    </g>
    <g id="ytick_4">
     <g id="line2d_11">
      <g>
       <use xlink:href="#mc70fdf619b" x="54" y="123.512728" style="fill: #262626; stroke: #262626; stroke-width: 1.25"/>
      </g>
     </g>
     <g id="text_12">
      <!-- 0.6 -->
      <g style="fill: #262626" transform="translate(29.21 127.449524)scale(0.11 -0.11)">
       <defs>
        <path id="ArialMT-36" d="M 3184 3459 
L 2625 3416 
Q 2550 3747 2413 3897 
Q 2184 4138 1850 4138 
Q 1581 4138 1378 3988 
Q 1113 3794 959 3422 
Q 806 3050 800 2363 
Q 1003 2672 1297 2822 
Q 1591 2972 1913 2972 
Q 2475 2972 2870 2558 
Q 3266 2144 3266 1488 
Q 3266 1056 3080 686 
Q 2894 316 2569 119 
Q 2244 -78 1831 -78 
Q 1128 -78 684 439 
Q 241 956 241 2144 
Q 241 3472 731 4075 
Q 1159 4600 1884 4600 
Q 2425 4600 2770 4297 
Q 3116 3994 3184 3459 
z
M 888 1484 
Q 888 1194 1011 928 
Q 1134 663 1356 523 
Q 1578 384 1822 384 
Q 2178 384 2434 671 
Q 2691 959 2691 1453 
Q 2691 1928 2437 2201 
Q 2184 2475 1800 2475 
Q 1419 2475 1153 2201 
Q 888 1928 888 1484 
z
" transform="scale(0.015625)"/>
       </defs>
       <use xlink:href="#ArialMT-30"/>
       <use xlink:href="#ArialMT-2e" x="55.615234"/>
       <use xlink:href="#ArialMT-36" x="83.398438"/>
      </g>
     </g>
    </g>
    <g id="ytick_5">
     <g id="line2d_12">
      <g>
       <use xlink:href="#mc70fdf619b" x="54" y="83.978182" style="fill: #262626; stroke: #262626; stroke-width: 1.25"/>
      </g>
     </g>
     <g id="text_13">
      <!-- 0.8 -->
      <g style="fill: #262626" transform="translate(29.21 87.914979)scale(0.11 -0.11)">
       <defs>
        <path id="ArialMT-38" d="M 1131 2484 
Q 781 2613 612 2850 
Q 444 3088 444 3419 
Q 444 3919 803 4259 
Q 1163 4600 1759 4600 
Q 2359 4600 2725 4251 
Q 3091 3903 3091 3403 
Q 3091 3084 2923 2848 
Q 2756 2613 2416 2484 
Q 2838 2347 3058 2040 
Q 3278 1734 3278 1309 
Q 3278 722 2862 322 
Q 2447 -78 1769 -78 
Q 1091 -78 675 323 
Q 259 725 259 1325 
Q 259 1772 486 2073 
Q 713 2375 1131 2484 
z
M 1019 3438 
Q 1019 3113 1228 2906 
Q 1438 2700 1772 2700 
Q 2097 2700 2305 2904 
Q 2513 3109 2513 3406 
Q 2513 3716 2298 3927 
Q 2084 4138 1766 4138 
Q 1444 4138 1231 3931 
Q 1019 3725 1019 3438 
z
M 838 1322 
Q 838 1081 952 856 
Q 1066 631 1291 507 
Q 1516 384 1775 384 
Q 2178 384 2440 643 
Q 2703 903 2703 1303 
Q 2703 1709 2433 1975 
Q 2163 2241 1756 2241 
Q 1359 2241 1098 1978 
Q 838 1716 838 1322 
z
" transform="scale(0.015625)"/>
       </defs>
       <use xlink:href="#ArialMT-30"/>
       <use xlink:href="#ArialMT-2e" x="55.615234"/>
       <use xlink:href="#ArialMT-38" x="83.398438"/>
      </g>
     </g>
    </g>
    <g id="ytick_6">
     <g id="line2d_13">
      <g>
       <use xlink:href="#mc70fdf619b" x="54" y="44.443636" style="fill: #262626; stroke: #262626; stroke-width: 1.25"/>
      </g>
     </g>
     <g id="text_14">
      <!-- 1.0 -->
      <g style="fill: #262626" transform="translate(29.21 48.380433)scale(0.11 -0.11)">
       <use xlink:href="#ArialMT-31"/>
       <use xlink:href="#ArialMT-2e" x="55.615234"/>
       <use xlink:href="#ArialMT-30" x="83.398438"/>
      </g>
     </g>
    </g>
   </g>
   <g id="line2d_14">
    <path d="M 54 241.91242 
L 79.635528 241.806099 
L 89.035222 241.597799 
L 93.30781 241.424664 
L 94.162328 241.500371 
L 95.016845 241.094583 
L 95.871363 241.039874 
L 96.725881 240.451034 
L 97.580398 238.722674 
L 99.289433 240.355266 
L 100.143951 241.412273 
L 100.998469 241.145147 
L 101.852986 238.956134 
L 102.707504 236.383091 
L 103.562021 234.750431 
L 104.416539 226.586658 
L 105.271057 232.742421 
L 106.125574 237.28775 
L 106.980092 215.803794 
L 107.834609 234.476406 
L 108.689127 222.976713 
L 109.543645 203.727417 
L 110.398162 172.45627 
L 111.25268 196.281468 
L 112.107198 165.161722 
L 112.961715 118.92796 
L 113.816233 170.618837 
L 114.67075 104.338151 
L 115.525268 221.647818 
L 116.379786 105.307868 
L 117.234303 101.740246 
L 118.088821 123.56308 
L 118.943338 109.433799 
L 119.797856 167.151963 
L 120.652374 128.573059 
L 121.506891 194.87728 
L 122.361409 202.900412 
L 123.215926 171.561906 
L 124.070444 162.732027 
L 124.924962 129.842625 
L 125.779479 44.443636 
L 126.633997 112.82193 
L 127.488515 196.288184 
L 128.343032 52.602064 
L 129.19755 181.70377 
L 130.052067 234.91395 
L 130.906585 224.562479 
L 131.761103 209.67209 
L 132.61562 138.964802 
L 133.470138 192.004047 
L 134.324655 97.218094 
L 135.179173 190.51672 
L 136.033691 178.931802 
L 136.888208 217.920323 
L 137.742726 234.777691 
L 138.597243 210.424646 
L 139.451761 209.760404 
L 140.306279 153.025918 
L 141.160796 105.675285 
L 142.015314 159.906546 
L 142.869832 162.324087 
L 143.724349 178.592212 
L 144.578867 227.331331 
L 145.433384 215.1579 
L 146.287902 227.231882 
L 147.14242 218.766541 
L 147.996937 125.950857 
L 148.851455 142.154528 
L 149.705972 175.833189 
L 150.56049 164.254937 
L 151.415008 226.640012 
L 152.269525 232.630953 
L 153.124043 227.643111 
L 153.97856 211.695733 
L 154.833078 204.476266 
L 155.687596 202.225145 
L 156.542113 147.320906 
L 157.396631 202.915629 
L 158.251149 212.549769 
L 159.105666 207.58573 
L 159.960184 224.539405 
L 160.814701 233.562034 
L 161.669219 225.738843 
L 162.523737 207.052693 
L 163.378254 215.864513 
L 164.232772 214.646485 
L 165.087289 225.544736 
L 165.941807 224.922631 
L 166.796325 225.446743 
L 167.650842 238.183316 
L 168.50536 218.689517 
L 169.359877 240.270976 
L 170.214395 221.401161 
L 171.068913 237.383228 
L 171.92343 217.663339 
L 172.777948 224.420688 
L 173.632466 239.883419 
L 174.486983 226.198889 
L 175.341501 239.658876 
L 176.196018 225.842332 
L 177.050536 230.473504 
L 177.905054 239.738229 
L 178.759571 230.987554 
L 179.614089 236.486684 
L 180.468606 231.241234 
L 181.323124 238.377725 
L 182.177642 239.326208 
L 183.032159 235.794445 
L 183.886677 231.202213 
L 184.741194 239.843724 
L 185.595712 238.233423 
L 186.45023 233.287043 
L 187.304747 239.881425 
L 188.159265 238.595214 
L 189.013783 237.559146 
L 189.8683 231.160537 
L 190.722818 239.28272 
L 191.577335 240.201472 
L 192.431853 240.288514 
L 193.286371 239.532166 
L 194.140888 232.744619 
L 194.995406 230.020685 
L 195.849923 241.570829 
L 197.558959 236.576056 
L 198.413476 237.734088 
L 199.267994 236.716452 
L 200.122511 241.92058 
L 200.977029 222.827933 
L 201.831547 224.279419 
L 202.686064 236.821776 
L 204.3951 234.965864 
L 205.249617 237.795982 
L 206.104135 236.661925 
L 206.958652 240.277803 
L 207.81317 232.96245 
L 208.667688 232.942469 
L 209.522205 231.495705 
L 210.376723 238.722764 
L 211.23124 232.023528 
L 212.085758 239.797916 
L 212.940276 241.529083 
L 213.794793 240.256438 
L 214.649311 229.31747 
L 215.503828 228.098263 
L 216.358346 241.784627 
L 217.212864 239.230948 
L 218.067381 239.414194 
L 218.921899 240.766757 
L 219.776417 240.690706 
L 220.630934 239.392748 
L 221.485452 240.195729 
L 222.339969 239.232794 
L 223.194487 242.042593 
L 224.049005 234.83277 
L 224.903522 238.136616 
L 225.75804 242.106592 
L 226.612557 242.028345 
L 227.467075 238.940213 
L 228.321593 241.048221 
L 229.17611 240.963725 
L 230.030628 236.259567 
L 230.885145 241.448025 
L 231.739663 239.576964 
L 232.594181 241.364911 
L 233.448698 239.744509 
L 234.303216 241.04394 
L 236.012251 236.117655 
L 236.866769 241.287624 
L 237.721286 240.635734 
L 238.575804 241.851698 
L 239.430322 241.952005 
L 240.284839 236.669953 
L 241.139357 238.63003 
L 241.993874 239.207761 
L 242.848392 237.171965 
L 243.70291 238.276954 
L 244.557427 234.99926 
L 245.411945 227.334005 
L 246.266462 231.585937 
L 247.12098 240.155833 
L 247.975498 241.708565 
L 248.830015 239.309152 
L 249.684533 241.962518 
L 250.539051 239.908025 
L 251.393568 241.341793 
L 252.248086 241.376709 
L 253.102603 239.354282 
L 253.957121 238.111366 
L 254.811639 241.875676 
L 255.666156 240.382973 
L 256.520674 240.771317 
L 257.375191 238.275047 
L 258.229709 238.549958 
L 259.084227 240.702718 
L 259.938744 238.78731 
L 260.793262 237.233965 
L 261.647779 241.344079 
L 262.502297 241.465889 
L 263.356815 240.895685 
L 264.211332 241.969157 
L 265.06585 241.156576 
L 265.920368 241.255574 
L 266.774885 239.356123 
L 268.48392 241.886214 
L 269.338438 240.413982 
L 270.192956 239.555168 
L 271.047473 241.354574 
L 271.901991 241.912551 
L 272.756508 241.728656 
L 273.611026 240.102183 
L 274.465544 239.619199 
L 275.320061 241.823513 
L 276.174579 240.777209 
L 277.029096 240.467559 
L 277.883614 241.806626 
L 278.738132 240.39717 
L 279.592649 241.858928 
L 280.447167 241.448455 
L 281.301685 240.890341 
L 282.156202 241.527172 
L 283.01072 240.727058 
L 283.865237 241.003419 
L 284.719755 240.456928 
L 285.574273 241.342281 
L 286.42879 238.410876 
L 287.283308 241.718072 
L 288.137825 241.936145 
L 288.992343 241.594309 
L 289.846861 240.931064 
L 290.701378 241.31158 
L 291.555896 241.917344 
L 292.410413 241.734353 
L 293.264931 239.969926 
L 294.119449 241.752157 
L 294.973966 241.405885 
L 295.828484 240.507722 
L 296.683002 241.934223 
L 297.537519 240.7569 
L 298.392037 241.553084 
L 299.246554 241.794878 
L 300.101072 240.891939 
L 300.95559 241.778915 
L 301.810107 242.064617 
L 302.664625 238.259559 
L 303.519142 242.033281 
L 304.37366 241.030674 
L 305.228178 240.578816 
L 306.082695 241.71163 
L 306.937213 241.913186 
L 307.79173 241.244709 
L 308.646248 241.956784 
L 309.500766 241.058539 
L 310.355283 239.82294 
L 311.209801 241.519152 
L 312.064319 240.583443 
L 312.918836 241.230488 
L 313.773354 242.074074 
L 314.627871 241.987585 
L 315.482389 240.946581 
L 316.336907 241.920037 
L 317.191424 241.441312 
L 318.045942 242.087495 
L 318.900459 242.070075 
L 319.754977 241.363605 
L 320.609495 241.242657 
L 321.464012 241.688014 
L 322.31853 241.729215 
L 323.173047 241.923526 
L 324.027565 241.672551 
L 324.882083 242.04647 
L 325.7366 241.683486 
L 330.009188 242.08345 
L 330.863706 241.608108 
L 331.718224 242.114147 
L 333.427259 242.077781 
L 334.281776 241.718813 
L 335.136294 242.00978 
L 335.990812 242.037664 
L 337.699847 241.708229 
L 338.554364 241.7362 
L 339.408882 242.058753 
L 340.2634 241.895451 
L 341.117917 242.061535 
L 341.972435 242.113372 
L 342.826953 241.766957 
L 343.68147 242.085401 
L 345.390505 242.075403 
L 347.099541 242.08271 
L 347.954058 241.980479 
L 348.808576 242.036513 
L 349.663093 241.935271 
L 350.517611 242.079267 
L 353.081164 242.069115 
L 354.790199 242.006967 
L 356.499234 242.099709 
L 433 242.116307 
M 433 242.116349 
L -1 242.116349 
L -1 242.116349 
" clip-path="url(#p7f47f1eaf4)" style="fill: none; stroke: #4c72b0; stroke-opacity: 0.3; stroke-width: 1.5; stroke-linecap: round"/>
   </g>
   <g id="line2d_15">
    <path d="M 54 242.115282 
L 92.453292 242.049745 
L 95.871363 241.674635 
L 96.725881 240.664189 
L 97.580398 241.380337 
L 99.289433 241.719533 
L 100.143951 236.517036 
L 100.998469 235.447037 
L 101.852986 238.149966 
L 102.707504 228.631212 
L 103.562021 208.60786 
L 104.416539 239.052957 
L 106.125574 184.45627 
L 106.980092 238.883046 
L 107.834609 178.318062 
L 108.689127 241.185277 
L 110.398162 209.300868 
L 111.25268 240.26296 
L 112.107198 235.835718 
L 112.961715 241.670566 
L 113.816233 204.572958 
L 114.67075 56.241114 
L 115.525268 222.461445 
L 116.379786 145.843507 
L 117.234303 174.808108 
L 118.088821 199.85594 
L 118.943338 203.308646 
L 119.797856 234.949963 
L 120.652374 178.181461 
L 121.506891 238.115295 
L 122.361409 227.8958 
L 123.215926 190.229132 
L 124.070444 229.300869 
L 124.924962 196.664602 
L 125.779479 189.756014 
L 126.633997 224.499813 
L 127.488515 85.845865 
L 128.343032 152.11221 
L 129.19755 200.033692 
L 130.052067 131.396786 
L 130.906585 204.170224 
L 131.761103 221.088532 
L 132.61562 153.744583 
L 133.470138 44.443636 
L 134.324655 190.906015 
L 135.179173 230.601277 
L 136.033691 221.756019 
L 136.888208 217.961241 
L 137.742726 127.414857 
L 138.597243 143.338102 
L 139.451761 230.966873 
L 140.306279 101.724195 
L 141.160796 197.091854 
L 142.015314 216.152131 
L 142.869832 201.899228 
L 143.724349 232.275833 
L 144.578867 66.897631 
L 145.433384 154.637923 
L 146.287902 213.973124 
L 147.14242 224.689242 
L 147.996937 227.69498 
L 148.851455 233.553614 
L 149.705972 235.31997 
L 150.56049 229.085679 
L 151.415008 91.63822 
L 152.269525 156.596771 
L 153.124043 57.063167 
L 154.833078 212.750916 
L 155.687596 201.099358 
L 156.542113 218.619001 
L 158.251149 155.18422 
L 159.105666 238.615822 
L 159.960184 195.561438 
L 160.814701 221.459074 
L 161.669219 239.006446 
L 162.523737 205.936434 
L 163.378254 241.934375 
L 164.232772 197.594178 
L 165.087289 130.278408 
L 165.941807 235.635172 
L 166.796325 222.596924 
L 167.650842 223.965639 
L 168.50536 234.660261 
L 169.359877 241.517966 
L 170.214395 233.934886 
L 171.068913 196.958172 
L 171.92343 223.286169 
L 172.777948 231.703895 
L 173.632466 236.896245 
L 174.486983 220.328439 
L 175.341501 221.402372 
L 176.196018 216.817253 
L 177.050536 173.644526 
L 178.759571 241.193904 
L 179.614089 229.790955 
L 180.468606 220.472346 
L 181.323124 181.473272 
L 182.177642 185.404282 
L 183.032159 239.519317 
L 183.886677 192.655472 
L 184.741194 230.616286 
L 185.595712 240.904682 
L 186.45023 204.298642 
L 187.304747 220.586791 
L 188.159265 195.319581 
L 189.013783 239.999961 
L 189.8683 176.986846 
L 190.722818 186.99462 
L 191.577335 238.838915 
L 192.431853 217.297367 
L 193.286371 225.585501 
L 194.140888 241.112431 
L 194.995406 237.919403 
L 195.849923 226.221099 
L 196.704441 236.580283 
L 197.558959 241.375476 
L 198.413476 227.25261 
L 199.267994 217.740421 
L 200.122511 239.728015 
L 200.977029 216.290818 
L 201.831547 231.344834 
L 202.686064 235.199408 
L 204.3951 235.963377 
L 205.249617 215.476192 
L 206.104135 241.428213 
L 206.958652 228.427471 
L 207.81317 222.825271 
L 208.667688 237.63805 
L 209.522205 203.880865 
L 210.376723 227.075733 
L 211.23124 239.899644 
L 212.085758 230.771424 
L 212.940276 236.867416 
L 213.794793 234.563023 
L 214.649311 239.533566 
L 215.503828 238.400526 
L 216.358346 231.795475 
L 218.067381 235.292876 
L 218.921899 239.934611 
L 219.776417 237.158909 
L 220.630934 240.949045 
L 221.485452 226.836708 
L 222.339969 241.772841 
L 223.194487 241.004365 
L 224.049005 234.649322 
L 224.903522 220.222554 
L 226.612557 235.735499 
L 227.467075 226.061131 
L 228.321593 237.022571 
L 229.17611 220.088389 
L 230.030628 235.266417 
L 230.885145 187.611514 
L 231.739663 204.474679 
L 232.594181 236.613005 
L 233.448698 226.126487 
L 234.303216 227.577281 
L 235.157734 237.345498 
L 236.012251 221.431842 
L 236.866769 233.044234 
L 237.721286 237.125298 
L 238.575804 240.634668 
L 239.430322 238.053561 
L 240.284839 231.404102 
L 241.139357 239.463302 
L 241.993874 239.992565 
L 242.848392 216.212539 
L 243.70291 239.007963 
L 244.557427 197.654652 
L 245.411945 232.492227 
L 246.266462 239.235833 
L 247.12098 235.02223 
L 247.975498 236.135105 
L 248.830015 215.514916 
L 249.684533 240.60298 
L 250.539051 230.792506 
L 251.393568 174.773184 
L 252.248086 220.919925 
L 253.102603 237.096721 
L 253.957121 241.948698 
L 254.811639 238.304673 
L 255.666156 227.330938 
L 256.520674 228.95144 
L 257.375191 234.173325 
L 258.229709 234.809711 
L 259.084227 237.183965 
L 259.938744 223.788574 
L 260.793262 234.309884 
L 261.647779 238.410699 
L 262.502297 236.366214 
L 263.356815 235.848718 
L 264.211332 233.611589 
L 265.06585 228.196089 
L 265.920368 235.092231 
L 266.774885 238.479891 
L 267.629403 224.007076 
L 269.338438 233.383497 
L 270.192956 241.964477 
L 271.047473 241.56818 
L 271.901991 228.336527 
L 272.756508 237.221153 
L 273.611026 232.060017 
L 274.465544 241.019421 
L 275.320061 235.151147 
L 276.174579 211.031789 
L 277.029096 218.471431 
L 277.883614 240.869799 
L 278.738132 221.964028 
L 279.592649 232.024848 
L 280.447167 234.674536 
L 281.301685 235.789493 
L 282.156202 237.951103 
L 283.01072 230.095178 
L 283.865237 241.449668 
L 284.719755 231.543621 
L 285.574273 214.931277 
L 286.42879 241.51873 
L 287.283308 232.247247 
L 288.137825 239.42521 
L 289.846861 235.857004 
L 290.701378 240.182027 
L 291.555896 239.918165 
L 292.410413 220.39454 
L 293.264931 240.023928 
L 294.119449 230.286604 
L 294.973966 226.053295 
L 295.828484 238.718721 
L 296.683002 230.371198 
L 297.537519 236.878883 
L 298.392037 234.853493 
L 299.246554 241.206717 
L 300.101072 241.672406 
L 300.95559 236.453639 
L 301.810107 232.807774 
L 302.664625 242.115128 
L 303.519142 235.988326 
L 304.37366 241.646344 
L 305.228178 241.668355 
L 306.082695 240.914199 
L 306.937213 240.934875 
L 307.79173 241.685797 
L 308.646248 236.700637 
L 309.500766 241.049124 
L 310.355283 239.048883 
L 311.209801 241.77286 
L 312.064319 238.147249 
L 312.918836 237.506732 
L 314.627871 240.458899 
L 315.482389 239.509494 
L 316.336907 239.92188 
L 317.191424 238.925289 
L 318.045942 242.001365 
L 318.900459 232.088376 
L 319.754977 240.343401 
L 320.609495 238.299161 
L 321.464012 238.190389 
L 322.31853 236.59283 
L 323.173047 239.965689 
L 324.027565 238.917682 
L 324.882083 241.987093 
L 325.7366 237.954902 
L 326.591118 241.797126 
L 327.445636 239.520188 
L 328.300153 239.498331 
L 329.154671 241.402519 
L 330.009188 239.680569 
L 330.863706 241.177607 
L 331.718224 242.105344 
L 332.572741 240.73987 
L 333.427259 240.997205 
L 334.281776 241.945211 
L 335.136294 240.713029 
L 335.990812 240.13655 
L 336.845329 241.499222 
L 337.699847 241.447585 
L 338.554364 241.702999 
L 339.408882 241.302745 
L 340.2634 241.56582 
L 341.117917 241.529995 
L 341.972435 241.888817 
L 342.826953 242.063455 
L 343.68147 242.072537 
L 344.535988 241.917918 
L 345.390505 241.278466 
L 346.245023 241.833268 
L 347.099541 241.967245 
L 348.808576 241.833218 
L 349.663093 242.10218 
L 350.517611 241.800783 
L 351.372129 242.03998 
L 353.081164 242.058345 
L 353.935681 241.843671 
L 354.790199 242.00866 
L 368.462481 242.088607 
L 374.444104 242.087969 
L 433 242.115671 
M 433 242.116343 
L -1 242.116343 
L -1 242.116343 
" clip-path="url(#p7f47f1eaf4)" style="fill: none; stroke: #dd8452; stroke-opacity: 0.3; stroke-width: 1.5; stroke-linecap: round"/>
   </g>
   <g id="line2d_16">
    <path d="M 54 241.901572 
L 81.344564 241.788827 
L 94.162328 241.545525 
L 95.871363 241.243592 
L 96.725881 241.403559 
L 97.580398 240.577524 
L 98.434916 240.901493 
L 99.289433 240.942053 
L 100.143951 241.357224 
L 100.998469 239.533495 
L 101.852986 234.704653 
L 102.707504 241.067289 
L 104.416539 241.592052 
L 105.271057 238.020444 
L 106.125574 240.300849 
L 106.980092 232.835444 
L 107.834609 216.20983 
L 108.689127 238.066175 
L 109.543645 211.140501 
L 110.398162 228.25651 
L 111.25268 233.40127 
L 112.107198 225.619568 
L 112.961715 237.936482 
L 113.816233 230.425672 
L 114.67075 231.59827 
L 115.525268 228.920286 
L 116.379786 156.77176 
L 117.234303 228.611988 
L 118.088821 111.686524 
L 118.943338 44.443636 
L 119.797856 123.163296 
L 120.652374 162.587213 
L 121.506891 231.71078 
L 122.361409 241.060483 
L 123.215926 182.229663 
L 124.070444 223.966265 
L 124.924962 204.144532 
L 125.779479 177.957963 
L 126.633997 226.485783 
L 127.488515 230.632745 
L 128.343032 236.168423 
L 129.19755 165.48935 
L 130.052067 107.662568 
L 131.761103 230.134973 
L 132.61562 237.573521 
L 133.470138 222.180759 
L 134.324655 234.61838 
L 135.179173 211.316433 
L 136.033691 240.898257 
L 136.888208 229.076942 
L 137.742726 209.995248 
L 138.597243 214.056364 
L 139.451761 155.9364 
L 140.306279 228.316098 
L 141.160796 232.994308 
L 142.015314 242.076441 
L 142.869832 235.520083 
L 143.724349 212.846789 
L 144.578867 227.888044 
L 145.433384 240.605795 
L 146.287902 239.969959 
L 147.996937 202.24573 
L 148.851455 236.024149 
L 149.705972 202.140763 
L 150.56049 208.668725 
L 151.415008 231.209217 
L 152.269525 225.555229 
L 153.124043 171.11122 
L 153.97856 221.817218 
L 154.833078 216.025786 
L 155.687596 238.876529 
L 156.542113 241.849291 
L 157.396631 202.592761 
L 158.251149 217.532839 
L 159.105666 222.949493 
L 159.960184 193.449194 
L 160.814701 223.686419 
L 161.669219 224.262166 
L 162.523737 233.842986 
L 163.378254 228.685485 
L 164.232772 235.773578 
L 165.087289 235.791564 
L 165.941807 229.797886 
L 166.796325 241.740197 
L 167.650842 241.634623 
L 169.359877 228.433897 
L 170.214395 240.511989 
L 171.068913 222.995118 
L 171.92343 222.74389 
L 172.777948 229.514972 
L 173.632466 238.794247 
L 174.486983 229.549442 
L 175.341501 241.512396 
L 177.050536 209.456955 
L 178.759571 236.519125 
L 179.614089 234.081346 
L 180.468606 240.339435 
L 181.323124 229.164908 
L 182.177642 205.029931 
L 183.032159 221.464048 
L 183.886677 241.294923 
L 184.741194 241.054635 
L 185.595712 236.922913 
L 186.45023 224.573192 
L 187.304747 228.568998 
L 188.159265 230.428513 
L 189.013783 239.730688 
L 189.8683 234.8415 
L 190.722818 241.539682 
L 191.577335 235.59782 
L 192.431853 202.883841 
L 193.286371 225.931159 
L 194.140888 227.949989 
L 195.849923 242.001743 
L 196.704441 239.732134 
L 197.558959 238.395918 
L 198.413476 227.607629 
L 199.267994 240.960006 
L 200.122511 234.369547 
L 200.977029 240.954961 
L 201.831547 241.572332 
L 202.686064 221.935176 
L 203.540582 224.410385 
L 204.3951 234.394317 
L 205.249617 213.171962 
L 206.104135 239.187275 
L 206.958652 240.797999 
L 207.81317 237.862644 
L 208.667688 239.426531 
L 209.522205 231.011504 
L 210.376723 239.214942 
L 211.23124 238.119639 
L 212.085758 239.931811 
L 212.940276 237.49617 
L 213.794793 236.722366 
L 215.503828 241.150506 
L 216.358346 241.625124 
L 217.212864 241.853877 
L 218.067381 234.808317 
L 218.921899 241.303679 
L 219.776417 240.845203 
L 220.630934 239.453146 
L 221.485452 232.407503 
L 222.339969 241.959654 
L 223.194487 241.044483 
L 224.049005 235.293467 
L 224.903522 240.567578 
L 225.75804 216.941692 
L 226.612557 236.932502 
L 227.467075 240.33507 
L 228.321593 237.435254 
L 229.17611 238.900603 
L 230.030628 230.05437 
L 230.885145 218.395821 
L 231.739663 225.090391 
L 232.594181 227.404634 
L 233.448698 234.173368 
L 234.303216 239.52028 
L 235.157734 238.679931 
L 236.012251 240.059372 
L 236.866769 230.085717 
L 237.721286 241.038102 
L 238.575804 241.255656 
L 239.430322 241.732762 
L 240.284839 239.204411 
L 241.139357 238.258567 
L 241.993874 239.244785 
L 243.70291 230.914476 
L 244.557427 236.610647 
L 245.411945 237.312265 
L 246.266462 241.357088 
L 247.12098 239.969245 
L 247.975498 235.723443 
L 248.830015 237.061528 
L 249.684533 240.805908 
L 250.539051 229.890353 
L 251.393568 234.156624 
L 252.248086 236.380753 
L 253.102603 237.919317 
L 253.957121 242.008618 
L 254.811639 235.973811 
L 255.666156 226.302972 
L 256.520674 234.527962 
L 258.229709 223.882405 
L 259.084227 238.833895 
L 259.938744 238.021454 
L 260.793262 238.97783 
L 261.647779 237.835349 
L 262.502297 240.951509 
L 263.356815 240.116597 
L 264.211332 241.010171 
L 265.06585 234.242003 
L 265.920368 239.434467 
L 266.774885 240.440149 
L 267.629403 235.895021 
L 268.48392 226.508615 
L 269.338438 240.230572 
L 270.192956 241.070371 
L 271.047473 241.021625 
L 271.901991 236.670031 
L 272.756508 237.192932 
L 273.611026 241.570737 
L 275.320061 241.357255 
L 276.174579 240.743326 
L 277.029096 239.864139 
L 277.883614 231.758067 
L 278.738132 236.731258 
L 280.447167 239.286368 
L 281.301685 236.261413 
L 282.156202 241.545543 
L 283.01072 241.64203 
L 283.865237 238.227223 
L 284.719755 239.840795 
L 285.574273 237.779627 
L 286.42879 241.528116 
L 287.283308 241.483319 
L 288.137825 229.234153 
L 288.992343 239.130335 
L 289.846861 238.853364 
L 290.701378 239.207186 
L 291.555896 241.516288 
L 292.410413 239.872974 
L 293.264931 240.228665 
L 294.119449 241.619403 
L 294.973966 241.172459 
L 295.828484 239.842488 
L 296.683002 241.137244 
L 297.537519 239.993419 
L 298.392037 231.494861 
L 299.246554 240.712367 
L 300.101072 232.751197 
L 300.95559 237.543701 
L 301.810107 238.539888 
L 302.664625 241.610398 
L 303.519142 241.774037 
L 304.37366 239.379459 
L 305.228178 242.11255 
L 306.082695 238.968717 
L 306.937213 237.029984 
L 307.79173 240.563253 
L 308.646248 241.893367 
L 309.500766 236.772795 
L 310.355283 236.094345 
L 311.209801 240.874807 
L 312.064319 240.469446 
L 312.918836 239.141256 
L 313.773354 241.803418 
L 314.627871 241.57729 
L 315.482389 239.664714 
L 316.336907 236.4877 
L 317.191424 240.262226 
L 318.045942 241.45879 
L 318.900459 236.770901 
L 319.754977 240.471116 
L 320.609495 238.452794 
L 321.464012 240.686475 
L 322.31853 240.293866 
L 323.173047 241.978231 
L 324.027565 239.760288 
L 324.882083 241.228461 
L 325.7366 241.202828 
L 326.591118 241.03289 
L 327.445636 241.802793 
L 328.300153 241.576036 
L 329.154671 241.598845 
L 330.009188 241.892745 
L 330.863706 241.98159 
L 331.718224 240.138846 
L 332.572741 241.33236 
L 333.427259 241.967181 
L 334.281776 240.055119 
L 335.136294 241.266368 
L 335.990812 241.09482 
L 336.845329 241.737605 
L 337.699847 242.038115 
L 338.554364 241.93721 
L 339.408882 241.71925 
L 341.117917 242.005273 
L 341.972435 241.237066 
L 342.826953 242.079313 
L 343.68147 242.114642 
L 344.535988 241.366304 
L 345.390505 241.624809 
L 346.245023 242.059786 
L 347.099541 242.080835 
L 347.954058 241.737472 
L 348.808576 242.083455 
L 349.663093 242.074292 
L 350.517611 241.580955 
L 351.372129 242.039496 
L 352.226646 241.834856 
L 353.081164 242.049839 
L 353.935681 242.062551 
L 354.790199 241.868185 
L 355.644717 242.106658 
L 357.353752 242.053859 
L 358.20827 242.115234 
L 359.062787 241.959572 
L 360.771822 242.088161 
L 362.480858 242.044012 
L 364.189893 242.073622 
L 368.462481 242.115727 
L 372.735069 242.104661 
L 384.698315 242.114251 
L 433 242.115983 
M 433 242.116364 
L -1 242.116364 
L -1 242.116364 
" clip-path="url(#p7f47f1eaf4)" style="fill: none; stroke: #55a868; stroke-opacity: 0.3; stroke-width: 1.5; stroke-linecap: round"/>
   </g>
   <g id="line2d_17">
    <path d="M 54 241.911137 
L 79.635528 241.803349 
L 92.453292 241.546904 
L 95.016845 241.335107 
L 96.725881 240.969529 
L 98.434916 240.372895 
L 100.143951 238.876196 
L 100.998469 237.528756 
L 102.707504 233.391407 
L 103.562021 230.619101 
L 104.416539 227.10198 
L 105.271057 222.678496 
L 106.125574 214.700463 
L 106.980092 205.645093 
L 108.689127 184.368623 
L 109.543645 169.557418 
L 110.398162 165.266999 
L 111.25268 148.619198 
L 112.107198 145.347781 
L 112.961715 125.82855 
L 113.816233 100.346147 
L 114.67075 87.549898 
L 115.525268 78.905914 
L 116.379786 73.273235 
L 117.234303 87.508073 
L 118.088821 72.831895 
L 118.943338 85.054264 
L 119.797856 75.801273 
L 120.652374 44.443636 
L 121.506891 50.335723 
L 122.361409 45.571285 
L 123.215926 47.615021 
L 124.070444 70.780141 
L 124.924962 72.706018 
L 126.633997 73.356039 
L 127.488515 56.342862 
L 128.343032 66.745912 
L 129.19755 73.335488 
L 130.052067 69.939212 
L 130.906585 86.717815 
L 131.761103 89.960964 
L 132.61562 81.110484 
L 133.470138 86.039462 
L 134.324655 80.873562 
L 135.179173 83.808047 
L 136.033691 100.470552 
L 136.888208 97.316352 
L 137.742726 100.91111 
L 138.597243 115.04512 
L 139.451761 105.81839 
L 140.306279 118.084639 
L 141.160796 113.899071 
L 142.015314 107.802822 
L 142.869832 123.348216 
L 143.724349 130.117639 
L 144.578867 127.901088 
L 145.433384 140.407603 
L 146.287902 135.114312 
L 147.14242 133.453915 
L 147.996937 140.995656 
L 148.851455 130.470146 
L 149.705972 144.174418 
L 150.56049 147.496061 
L 151.415008 142.461196 
L 152.269525 153.656972 
L 153.124043 147.351229 
L 153.97856 144.285355 
L 154.833078 153.72237 
L 155.687596 146.667834 
L 157.396631 157.240993 
L 158.251149 155.236641 
L 159.105666 159.874583 
L 159.960184 163.017453 
L 160.814701 157.272632 
L 161.669219 164.565062 
L 162.523737 160.278769 
L 163.378254 158.66694 
L 164.232772 166.171976 
L 165.087289 160.537871 
L 165.941807 160.971 
L 166.796325 170.060038 
L 167.650842 164.24448 
L 168.50536 167.425745 
L 169.359877 173.143417 
L 170.214395 168.457568 
L 171.068913 172.758926 
L 171.92343 169.903148 
L 172.777948 167.483501 
L 173.632466 176.206791 
L 174.486983 174.966117 
L 175.341501 175.189577 
L 176.196018 180.329533 
L 177.050536 175.819542 
L 177.905054 179.074434 
L 178.759571 180.809452 
L 179.614089 176.401454 
L 180.468606 183.822954 
L 181.323124 183.448996 
L 182.177642 181.784912 
L 183.032159 187.781813 
L 183.886677 183.904192 
L 184.741194 184.874655 
L 185.595712 191.217684 
L 186.45023 185.437513 
L 187.304747 192.129439 
L 188.159265 195.75774 
L 189.013783 191.457057 
L 189.8683 193.994056 
L 190.722818 192.677217 
L 191.577335 187.971365 
L 192.431853 194.464791 
L 193.286371 193.204702 
L 194.140888 196.753558 
L 194.995406 202.792616 
L 195.849923 198.930283 
L 196.704441 198.116684 
L 197.558959 199.858934 
L 198.413476 196.274114 
L 199.267994 199.300193 
L 200.122511 201.431319 
L 200.977029 200.255793 
L 201.831547 206.106178 
L 203.540582 200.502007 
L 204.3951 203.268674 
L 205.249617 198.953517 
L 206.104135 202.15812 
L 206.958652 204.44769 
L 207.81317 200.723683 
L 208.667688 205.287067 
L 209.522205 203.199387 
L 210.376723 199.177931 
L 211.23124 204.27326 
L 212.085758 202.502998 
L 212.940276 202.945738 
L 213.794793 208.344793 
L 214.649311 205.179515 
L 215.503828 207.058226 
L 216.358346 206.972098 
L 217.212864 201.629849 
L 218.067381 205.370419 
L 218.921899 205.635789 
L 219.776417 204.435236 
L 220.630934 211.069683 
L 221.485452 209.44477 
L 222.339969 209.177154 
L 223.194487 211.440249 
L 224.049005 207.112412 
L 224.903522 208.364427 
L 225.75804 209.850152 
L 226.612557 206.982275 
L 227.467075 211.821408 
L 229.17611 210.693324 
L 230.030628 212.90305 
L 230.885145 210.665842 
L 231.739663 211.279103 
L 232.594181 214.678463 
L 233.448698 211.647755 
L 234.303216 213.892705 
L 235.157734 214.776377 
L 236.012251 211.940184 
L 236.866769 213.938547 
L 237.721286 213.537875 
L 238.575804 213.307422 
L 239.430322 216.732533 
L 240.284839 216.203294 
L 241.139357 216.300595 
L 241.993874 218.445556 
L 242.848392 215.488971 
L 243.70291 215.976559 
L 245.411945 215.377127 
L 246.266462 218.567415 
L 247.12098 217.428293 
L 247.975498 216.769613 
L 248.830015 219.232227 
L 249.684533 217.275815 
L 250.539051 216.386609 
L 251.393568 218.641255 
L 252.248086 217.224705 
L 253.102603 218.972159 
L 253.957121 220.307625 
L 254.811639 217.652497 
L 255.666156 220.132683 
L 256.520674 219.601091 
L 257.375191 217.854486 
L 258.229709 221.299739 
L 259.084227 219.411548 
L 259.938744 219.322832 
L 260.793262 221.018534 
L 261.647779 217.964063 
L 262.502297 218.925185 
L 263.356815 220.819054 
L 264.211332 218.936116 
L 265.06585 222.23561 
L 265.920368 222.148405 
L 266.774885 221.41418 
L 267.629403 223.576787 
L 268.48392 221.6311 
L 269.338438 221.192819 
L 270.192956 222.801169 
L 271.047473 221.238109 
L 271.901991 222.192529 
L 272.756508 223.91141 
L 273.611026 221.992712 
L 274.465544 223.344193 
L 275.320061 223.249261 
L 276.174579 222.136219 
L 277.029096 224.542109 
L 278.738132 223.178839 
L 279.592649 225.519756 
L 280.447167 223.163215 
L 281.301685 223.786105 
L 282.156202 225.004915 
L 283.01072 223.924762 
L 283.865237 225.305633 
L 284.719755 225.283983 
L 285.574273 224.509663 
L 286.42879 226.624652 
L 287.283308 225.195615 
L 288.137825 224.97621 
L 288.992343 226.804851 
L 289.846861 225.618902 
L 290.701378 226.239916 
L 291.555896 227.513927 
L 292.410413 225.827605 
L 293.264931 227.800137 
L 294.119449 226.850408 
L 294.973966 226.335962 
L 295.828484 227.566749 
L 297.537519 226.767936 
L 298.392037 228.917636 
L 299.246554 227.734553 
L 300.101072 228.548042 
L 300.95559 230.00193 
L 301.810107 228.100194 
L 302.664625 229.596456 
L 303.519142 229.686478 
L 304.37366 229.321712 
L 305.228178 230.503061 
L 306.082695 229.904517 
L 306.937213 230.139629 
L 307.79173 231.31611 
L 308.646248 230.754705 
L 309.500766 231.615584 
L 310.355283 232.817564 
L 311.209801 232.05786 
L 312.064319 233.153408 
L 312.918836 233.30381 
L 313.773354 232.70664 
L 314.627871 233.795914 
L 315.482389 233.416517 
L 316.336907 233.686849 
L 317.191424 234.816687 
L 318.045942 234.70614 
L 318.900459 235.006715 
L 319.754977 235.789498 
L 320.609495 235.298148 
L 321.464012 236.138411 
L 322.31853 236.495486 
L 323.173047 236.329005 
L 324.027565 237.257197 
L 324.882083 236.978391 
L 325.7366 237.241869 
L 326.591118 237.811086 
L 327.445636 237.557435 
L 329.154671 238.253173 
L 330.009188 238.321783 
L 330.863706 238.701952 
L 331.718224 238.876184 
L 332.572741 238.759115 
L 333.427259 239.314734 
L 334.281776 239.331061 
L 335.136294 239.489831 
L 335.990812 239.945964 
L 336.845329 239.850111 
L 338.554364 240.241696 
L 339.408882 240.12951 
L 341.117917 240.462746 
L 341.972435 240.461427 
L 342.826953 240.683407 
L 347.954058 241.274564 
L 348.808576 241.241496 
L 352.226646 241.503213 
L 364.189893 241.965296 
L 433 242.115548 
M 433 242.116341 
L -1 242.116341 
L -1 242.116341 
" clip-path="url(#p7f47f1eaf4)" style="fill: none; stroke: #c44e52; stroke-opacity: 0.3; stroke-width: 1.5; stroke-linecap: round"/>
   </g>
   <g id="line2d_18">
    <path d="M 54 241.90417 
L 79.635528 241.794044 
L 92.453292 241.53321 
L 95.016845 241.320679 
L 96.725881 240.965673 
L 97.580398 240.684295 
L 99.289433 239.739249 
L 100.143951 238.769191 
L 100.998469 237.492414 
L 101.852986 235.86381 
L 102.707504 233.535106 
L 103.562021 230.317873 
L 104.416539 226.22123 
L 105.271057 218.95296 
L 106.980092 207.543496 
L 107.834609 192.991439 
L 108.689127 188.048619 
L 110.398162 153.811772 
L 111.25268 148.016494 
L 112.107198 127.990861 
L 112.961715 123.412555 
L 113.816233 120.318138 
L 114.67075 104.434586 
L 115.525268 95.086097 
L 116.379786 84.408346 
L 117.234303 58.383627 
L 118.088821 71.295696 
L 118.943338 58.599036 
L 119.797856 63.06963 
L 120.652374 74.221259 
L 121.506891 61.969067 
L 122.361409 60.443817 
L 123.215926 61.667878 
L 124.070444 44.443636 
L 124.924962 57.287102 
L 125.779479 61.60815 
L 126.633997 57.209442 
L 127.488515 74.939049 
L 128.343032 68.468988 
L 129.19755 63.406319 
L 130.052067 71.401505 
L 130.906585 68.185437 
L 131.761103 72.447399 
L 132.61562 90.996117 
L 133.470138 88.22208 
L 134.324655 97.399671 
L 135.179173 99.048514 
L 136.033691 82.517123 
L 136.888208 100.68344 
L 137.742726 102.353874 
L 138.597243 100.108283 
L 139.451761 120.678399 
L 140.306279 116.018083 
L 141.160796 119.502822 
L 142.015314 127.355143 
L 142.869832 115.822866 
L 143.724349 118.765507 
L 144.578867 132.290504 
L 145.433384 127.311644 
L 146.287902 145.345555 
L 147.14242 146.172395 
L 147.996937 141.824849 
L 148.851455 149.535648 
L 149.705972 138.576228 
L 150.56049 139.482411 
L 151.415008 151.9536 
L 152.269525 146.650621 
L 153.124043 156.863472 
L 153.97856 160.881376 
L 154.833078 153.855144 
L 155.687596 160.324234 
L 156.542113 158.955688 
L 157.396631 154.794987 
L 158.251149 166.162213 
L 159.105666 162.453093 
L 159.960184 163.960216 
L 160.814701 169.999293 
L 161.669219 159.647234 
L 162.523737 163.505053 
L 163.378254 166.434434 
L 164.232772 161.543011 
L 165.087289 172.476354 
L 165.941807 173.885896 
L 166.796325 169.877832 
L 167.650842 174.692969 
L 169.359877 166.842159 
L 170.214395 172.896292 
L 171.068913 169.944511 
L 171.92343 175.689617 
L 172.777948 182.868127 
L 173.632466 175.626791 
L 174.486983 180.473328 
L 175.341501 178.420597 
L 176.196018 174.131371 
L 177.050536 180.80398 
L 177.905054 178.811287 
L 178.759571 180.059879 
L 179.614089 188.14247 
L 180.468606 181.005723 
L 182.177642 186.167102 
L 183.032159 181.593817 
L 183.886677 187.588505 
L 184.741194 189.829003 
L 185.595712 186.296361 
L 186.45023 193.222546 
L 187.304747 188.125555 
L 188.159265 185.649906 
L 189.013783 191.923336 
L 189.8683 189.460604 
L 190.722818 193.082246 
L 191.577335 199.71299 
L 192.431853 194.512425 
L 193.286371 197.704768 
L 194.140888 196.383514 
L 194.995406 189.290108 
L 195.849923 196.319391 
L 196.704441 195.199596 
L 197.558959 195.487968 
L 198.413476 201.541646 
L 199.267994 198.11824 
L 200.122511 199.566946 
L 200.977029 201.296746 
L 201.831547 196.385578 
L 202.686064 201.080202 
L 203.540582 202.027638 
L 204.3951 200.221984 
L 205.249617 203.697907 
L 206.104135 200.898537 
L 206.958652 198.966974 
L 207.81317 202.959506 
L 208.667688 198.720695 
L 209.522205 201.617088 
L 210.376723 206.143561 
L 211.23124 201.980744 
L 212.085758 205.523741 
L 212.940276 204.539712 
L 213.794793 201.600779 
L 214.649311 205.342073 
L 215.503828 203.868926 
L 216.358346 204.422788 
L 217.212864 209.761949 
L 218.067381 206.899446 
L 218.921899 206.836898 
L 219.776417 208.148317 
L 220.630934 203.455227 
L 222.339969 208.553278 
L 223.194487 206.565367 
L 224.049005 212.594282 
L 225.75804 210.064346 
L 226.612557 212.392025 
L 227.467075 209.43013 
L 228.321593 209.879988 
L 229.17611 212.806669 
L 230.030628 210.985004 
L 230.885145 213.930445 
L 231.739663 214.511464 
L 232.594181 210.112715 
L 233.448698 214.399829 
L 234.303216 212.264676 
L 235.157734 212.779639 
L 236.012251 217.281346 
L 236.866769 215.574077 
L 237.721286 217.024294 
L 238.575804 217.958685 
L 239.430322 214.145509 
L 240.284839 215.294395 
L 241.139357 215.767468 
L 241.993874 214.140242 
L 242.848392 217.508491 
L 243.70291 217.849388 
L 244.557427 216.640119 
L 245.411945 220.238749 
L 246.266462 215.864329 
L 247.12098 216.60767 
L 247.975498 217.832983 
L 248.830015 215.730433 
L 249.684533 218.973017 
L 250.539051 220.041707 
L 251.393568 218.778197 
L 252.248086 220.118796 
L 253.102603 218.285045 
L 253.957121 217.017919 
L 254.811639 219.779427 
L 255.666156 217.895906 
L 256.520674 218.859261 
L 257.375191 221.132411 
L 258.229709 217.928504 
L 259.084227 220.37402 
L 259.938744 220.022743 
L 260.793262 218.900007 
L 261.647779 221.7068 
L 263.356815 220.58419 
L 264.211332 222.104182 
L 265.06585 220.543151 
L 265.920368 219.952131 
L 266.774885 221.870162 
L 267.629403 219.834208 
L 268.48392 222.206109 
L 269.338438 223.585047 
L 270.192956 222.256481 
L 271.047473 224.5199 
L 271.901991 223.321586 
L 272.756508 221.848059 
L 273.611026 224.108498 
L 274.465544 222.480347 
L 275.320061 223.194391 
L 276.174579 224.656255 
L 277.029096 223.125967 
L 277.883614 224.163669 
L 278.738132 225.553991 
L 279.592649 223.575135 
L 280.447167 226.113335 
L 281.301685 225.931844 
L 282.156202 224.734302 
L 283.01072 226.842958 
L 283.865237 224.916107 
L 285.574273 226.500373 
L 286.42879 225.247147 
L 287.283308 226.832254 
L 288.137825 227.748136 
L 288.992343 226.108786 
L 289.846861 227.750724 
L 290.701378 227.379216 
L 291.555896 225.915016 
L 292.410413 228.180504 
L 293.264931 226.12948 
L 294.119449 227.374873 
L 294.973966 228.841113 
L 295.828484 227.427665 
L 296.683002 228.894134 
L 297.537519 229.036349 
L 298.392037 227.90952 
L 299.246554 229.122611 
L 300.101072 228.808004 
L 300.95559 228.120825 
L 301.810107 229.939027 
L 302.664625 229.193738 
L 303.519142 229.135734 
L 304.37366 230.644627 
L 305.228178 229.583828 
L 306.082695 231.037224 
L 306.937213 231.409234 
L 307.79173 231.016919 
L 308.646248 232.319135 
L 310.355283 231.3537 
L 311.209801 232.445427 
L 312.064319 232.055452 
L 312.918836 232.181946 
L 313.773354 233.549501 
L 314.627871 233.164108 
L 315.482389 234.050377 
L 316.336907 234.589561 
L 317.191424 234.057088 
L 318.045942 234.827432 
L 318.900459 235.067945 
L 319.754977 234.988822 
L 320.609495 236.03477 
L 321.464012 235.88077 
L 322.31853 236.183926 
L 323.173047 236.755726 
L 324.027565 236.643031 
L 324.882083 236.988719 
L 325.7366 237.61316 
L 326.591118 237.192168 
L 327.445636 238.036802 
L 329.154671 237.999935 
L 330.009188 238.615658 
L 330.863706 238.470843 
L 331.718224 238.846618 
L 332.572741 239.35682 
L 333.427259 239.163493 
L 334.281776 239.56317 
L 335.136294 239.699489 
L 335.990812 239.638894 
L 337.699847 240.054428 
L 338.554364 239.978232 
L 339.408882 240.40473 
L 341.117917 240.497064 
L 341.972435 240.761617 
L 342.826953 240.696905 
L 344.535988 240.962536 
L 346.245023 241.109659 
L 347.099541 241.20069 
L 347.954058 241.16594 
L 348.808576 241.335223 
L 350.517611 241.409105 
L 351.372129 241.530149 
L 353.081164 241.603169 
L 359.062787 241.839889 
L 388.970904 242.101682 
L 433 242.115552 
M 433 242.116342 
L -1 242.116342 
L -1 242.116342 
" clip-path="url(#p7f47f1eaf4)" style="fill: none; stroke: #8172b3; stroke-opacity: 0.3; stroke-width: 1.5; stroke-linecap: round"/>
   </g>
   <g id="line2d_19">
    <path d="M 54 241.899059 
L 79.635528 241.786079 
L 91.598775 241.555077 
L 95.016845 241.305298 
L 96.725881 240.952345 
L 97.580398 240.672617 
L 98.434916 240.235593 
L 99.289433 239.593689 
L 100.143951 238.67903 
L 100.998469 237.504698 
L 102.707504 233.192622 
L 103.562021 229.980698 
L 104.416539 225.509907 
L 105.271057 220.163442 
L 106.125574 212.704722 
L 106.980092 203.958338 
L 107.834609 193.88391 
L 110.398162 157.323552 
L 111.25268 140.690866 
L 112.107198 127.854385 
L 112.961715 117.039084 
L 113.816233 96.825083 
L 114.67075 93.811913 
L 115.525268 81.023865 
L 116.379786 77.674981 
L 117.234303 73.379526 
L 118.088821 65.308797 
L 118.943338 55.562982 
L 119.797856 57.088506 
L 120.652374 44.443636 
L 121.506891 49.656418 
L 122.361409 52.34225 
L 123.215926 47.451306 
L 124.070444 62.566801 
L 124.924962 55.082848 
L 125.779479 53.202518 
L 126.633997 61.957971 
L 127.488515 53.954093 
L 129.19755 65.752356 
L 130.052067 64.952285 
L 130.906585 72.339153 
L 131.761103 76.029671 
L 132.61562 75.0658 
L 133.470138 83.615664 
L 134.324655 82.21681 
L 135.179173 88.846512 
L 136.033691 98.443935 
L 136.888208 95.547127 
L 137.742726 95.535721 
L 138.597243 107.981707 
L 139.451761 101.578951 
L 140.306279 112.342508 
L 141.160796 115.221686 
L 142.015314 117.539513 
L 142.869832 126.011068 
L 143.724349 128.399472 
L 144.578867 129.015916 
L 145.433384 133.800057 
L 146.287902 129.349567 
L 147.996937 139.663849 
L 148.851455 136.219115 
L 149.705972 145.99682 
L 150.56049 147.253941 
L 151.415008 146.309299 
L 152.269525 149.739788 
L 153.124043 149.559746 
L 153.97856 149.631758 
L 154.833078 153.51835 
L 155.687596 152.692878 
L 156.542113 153.79561 
L 157.396631 155.837415 
L 158.251149 154.66044 
L 159.105666 157.965083 
L 159.960184 159.339109 
L 160.814701 156.779998 
L 161.669219 163.768628 
L 162.523737 162.460573 
L 163.378254 162.687003 
L 164.232772 164.571921 
L 165.087289 162.807567 
L 165.941807 162.723544 
L 166.796325 164.97889 
L 167.650842 164.582626 
L 168.50536 166.424376 
L 169.359877 168.745735 
L 170.214395 169.684871 
L 171.068913 171.449281 
L 171.92343 170.452806 
L 172.777948 168.097188 
L 173.632466 172.110536 
L 174.486983 173.084478 
L 175.341501 173.837595 
L 176.196018 177.223973 
L 177.050536 176.172039 
L 177.905054 179.366635 
L 178.759571 178.256137 
L 179.614089 177.867271 
L 180.468606 180.446907 
L 181.323124 181.492514 
L 182.177642 180.318961 
L 183.032159 186.14476 
L 183.886677 183.526118 
L 184.741194 187.951913 
L 185.595712 187.493131 
L 186.45023 188.459812 
L 187.304747 190.129011 
L 188.159265 192.293181 
L 189.013783 190.57622 
L 189.8683 192.941706 
L 190.722818 191.356204 
L 191.577335 191.429106 
L 192.431853 193.280454 
L 193.286371 194.255164 
L 194.140888 195.570766 
L 194.995406 199.033647 
L 195.849923 197.685906 
L 196.704441 198.475703 
L 197.558959 198.874796 
L 199.267994 198.769954 
L 200.122511 199.299877 
L 200.977029 199.256551 
L 201.831547 201.794964 
L 202.686064 200.482214 
L 203.540582 201.022503 
L 204.3951 200.829465 
L 205.249617 201.557001 
L 206.104135 201.97933 
L 206.958652 202.82781 
L 207.81317 201.78415 
L 208.667688 203.811841 
L 210.376723 202.548148 
L 211.23124 204.008763 
L 212.085758 204.097341 
L 212.940276 204.019298 
L 213.794793 204.988233 
L 214.649311 204.335862 
L 215.503828 204.588083 
L 216.358346 205.002739 
L 217.212864 203.155214 
L 218.067381 205.634187 
L 219.776417 207.070798 
L 220.630934 208.827483 
L 221.485452 209.196406 
L 222.339969 208.154439 
L 223.194487 208.735344 
L 224.049005 207.087655 
L 224.903522 207.281711 
L 225.75804 208.75967 
L 226.612557 208.229258 
L 227.467075 209.929073 
L 228.321593 210.200576 
L 229.17611 210.742218 
L 230.030628 211.645779 
L 230.885145 211.649405 
L 231.739663 211.972115 
L 232.594181 213.979026 
L 233.448698 212.627899 
L 234.303216 213.512956 
L 235.157734 213.483943 
L 236.012251 212.080547 
L 236.866769 213.204126 
L 237.721286 212.562159 
L 239.430322 215.234384 
L 240.284839 215.33912 
L 241.139357 215.992525 
L 241.993874 216.38619 
L 242.848392 216.291377 
L 243.70291 216.020701 
L 244.557427 215.000893 
L 245.411945 216.11066 
L 246.266462 216.889038 
L 247.12098 216.718111 
L 247.975498 216.868972 
L 248.830015 217.984117 
L 249.684533 217.064256 
L 250.539051 216.710596 
L 251.393568 217.0185 
L 252.248086 217.196253 
L 253.102603 218.552388 
L 253.957121 218.827534 
L 254.811639 218.969044 
L 255.666156 219.388241 
L 256.520674 219.362837 
L 257.375191 218.728529 
L 258.229709 219.725001 
L 259.084227 218.961845 
L 259.938744 219.137978 
L 260.793262 219.103324 
L 261.647779 218.481209 
L 262.502297 219.448719 
L 263.356815 219.725506 
L 264.211332 220.479278 
L 265.06585 220.792618 
L 265.920368 221.638963 
L 266.774885 221.398225 
L 267.629403 221.840222 
L 268.48392 221.911191 
L 269.338438 221.041794 
L 270.192956 221.704392 
L 271.047473 220.830583 
L 272.756508 222.373993 
L 273.611026 222.014076 
L 275.320061 223.118559 
L 276.174579 223.070059 
L 277.029096 224.131037 
L 278.738132 223.509434 
L 279.592649 224.129069 
L 280.447167 223.701504 
L 281.301685 223.581605 
L 282.156202 224.480707 
L 283.01072 223.974154 
L 283.865237 224.732025 
L 284.719755 224.490813 
L 285.574273 224.623574 
L 286.42879 225.356067 
L 287.283308 225.174288 
L 288.137825 225.387272 
L 288.992343 226.488183 
L 289.846861 225.987566 
L 291.555896 226.559396 
L 292.410413 226.141357 
L 293.264931 226.752992 
L 294.119449 226.70352 
L 294.973966 226.108868 
L 295.828484 227.258182 
L 296.683002 226.695261 
L 298.392037 228.058259 
L 299.246554 228.013996 
L 300.101072 228.693478 
L 300.95559 228.974157 
L 302.664625 229.019632 
L 303.519142 229.560763 
L 304.37366 229.396677 
L 305.228178 229.630468 
L 306.082695 230.037483 
L 306.937213 229.957592 
L 307.79173 230.797467 
L 308.646248 230.670455 
L 310.355283 232.075247 
L 311.209801 232.160284 
L 312.064319 232.681789 
L 312.918836 233.023201 
L 313.773354 233.223031 
L 314.627871 233.222694 
L 315.482389 233.807877 
L 316.336907 233.544356 
L 317.191424 234.514835 
L 318.045942 234.455554 
L 318.900459 234.895856 
L 321.464012 235.745775 
L 322.31853 236.198384 
L 323.173047 236.407033 
L 324.027565 236.8569 
L 326.591118 237.598237 
L 328.300153 237.765782 
L 329.154671 238.224962 
L 330.009188 238.1759 
L 330.863706 238.656158 
L 331.718224 238.69925 
L 332.572741 238.866568 
L 333.427259 239.200059 
L 335.136294 239.482924 
L 335.990812 239.774149 
L 348.808576 241.262494 
L 362.480858 241.921862 
L 412.897397 242.115981 
L 433 242.115496 
M 433 242.116339 
L -1 242.116339 
L -1 242.116339 
" clip-path="url(#p7f47f1eaf4)" style="fill: none; stroke: #937860; stroke-opacity: 0.3; stroke-width: 1.5; stroke-linecap: round"/>
   </g>
   <g id="line2d_20">
    <path d="M 54 241.997834 
L 83.908116 241.885538 
L 90.744257 241.689276 
L 93.30781 241.624302 
L 94.162328 241.758989 
L 95.016845 241.410403 
L 95.871363 241.368258 
L 96.725881 241.020173 
L 97.580398 239.585564 
L 98.434916 239.858198 
L 99.289433 239.231268 
L 100.143951 241.728065 
L 100.998469 241.764992 
L 101.852986 240.763215 
L 103.562021 234.799188 
L 104.416539 217.488377 
L 105.271057 237.899134 
L 106.125574 241.054763 
L 106.980092 215.402187 
L 107.834609 228.097739 
L 108.689127 212.279295 
L 109.543645 146.746677 
L 110.398162 151.146866 
L 111.25268 173.404251 
L 112.107198 135.491372 
L 112.961715 73.637734 
L 113.816233 183.787033 
L 114.67075 158.572139 
L 115.525268 190.600832 
L 116.379786 197.713798 
L 117.234303 172.90048 
L 118.088821 155.72967 
L 118.943338 44.443636 
L 119.797856 178.758398 
L 120.652374 177.2584 
L 121.506891 96.327886 
L 122.361409 196.867285 
L 123.215926 189.301297 
L 124.070444 196.808436 
L 124.924962 64.517194 
L 125.779479 51.861085 
L 126.633997 228.589732 
L 127.488515 208.092155 
L 128.343032 175.143211 
L 129.19755 148.426982 
L 130.052067 221.766627 
L 130.906585 239.497427 
L 131.761103 171.507807 
L 132.61562 154.525727 
L 133.470138 209.21057 
L 134.324655 201.80722 
L 135.179173 211.365135 
L 136.033691 170.914949 
L 136.888208 238.15862 
L 137.742726 224.553066 
L 138.597243 202.890206 
L 139.451761 187.816169 
L 140.306279 178.066093 
L 141.160796 145.755109 
L 142.015314 131.157108 
L 142.869832 157.442243 
L 143.724349 211.256197 
L 144.578867 240.301546 
L 145.433384 212.756803 
L 146.287902 192.978063 
L 147.14242 201.507619 
L 147.996937 199.74757 
L 148.851455 168.103992 
L 149.705972 174.57589 
L 151.415008 238.479203 
L 152.269525 227.355447 
L 153.124043 241.777124 
L 153.97856 196.389803 
L 154.833078 187.130167 
L 155.687596 190.982165 
L 156.542113 207.670836 
L 157.396631 173.624647 
L 158.251149 226.718614 
L 159.105666 235.636201 
L 160.814701 219.286147 
L 161.669219 223.938305 
L 162.523737 200.893583 
L 163.378254 197.662638 
L 164.232772 233.925297 
L 165.087289 232.105703 
L 165.941807 237.13514 
L 166.796325 241.407074 
L 167.650842 240.454297 
L 168.50536 222.840836 
L 169.359877 228.665692 
L 170.214395 236.461082 
L 171.068913 220.253461 
L 171.92343 208.748092 
L 172.777948 231.960555 
L 173.632466 238.798656 
L 174.486983 216.264345 
L 175.341501 237.139554 
L 176.196018 213.666393 
L 177.050536 226.607808 
L 177.905054 234.08277 
L 178.759571 237.167829 
L 179.614089 240.948194 
L 180.468606 240.453052 
L 181.323124 233.866808 
L 182.177642 219.893627 
L 183.032159 213.086858 
L 183.886677 217.885056 
L 184.741194 237.623883 
L 185.595712 240.755751 
L 186.45023 240.761653 
L 187.304747 238.54833 
L 188.159265 241.542667 
L 189.013783 238.113987 
L 189.8683 237.266058 
L 190.722818 239.766106 
L 191.577335 240.841555 
L 192.431853 241.556906 
L 193.286371 241.365517 
L 194.140888 235.652199 
L 194.995406 230.754977 
L 195.849923 233.489392 
L 196.704441 226.866275 
L 197.558959 239.585877 
L 198.413476 240.118477 
L 199.267994 231.556963 
L 200.122511 241.457464 
L 200.977029 239.076359 
L 201.831547 227.300638 
L 202.686064 226.27138 
L 203.540582 226.657406 
L 204.3951 232.362568 
L 205.249617 237.298815 
L 206.104135 230.099048 
L 206.958652 240.11234 
L 207.81317 235.740525 
L 208.667688 229.991616 
L 209.522205 240.062386 
L 210.376723 241.784283 
L 211.23124 238.009076 
L 212.085758 241.744368 
L 212.940276 238.020985 
L 213.794793 235.462581 
L 214.649311 237.380902 
L 215.503828 238.978951 
L 216.358346 240.29169 
L 217.212864 236.769399 
L 218.067381 238.625732 
L 218.921899 241.983102 
L 219.776417 238.514779 
L 220.630934 234.452997 
L 221.485452 236.947396 
L 222.339969 240.672302 
L 223.194487 241.881508 
L 224.049005 240.4275 
L 224.903522 234.195355 
L 225.75804 231.334902 
L 226.612557 241.255017 
L 227.467075 233.673777 
L 228.321593 241.072671 
L 229.17611 235.93634 
L 230.030628 242.104633 
L 230.885145 239.285533 
L 231.739663 241.345654 
L 232.594181 239.527417 
L 233.448698 236.757768 
L 234.303216 238.755124 
L 235.157734 236.425669 
L 236.012251 237.178875 
L 236.866769 241.553489 
L 237.721286 235.715863 
L 238.575804 238.994323 
L 239.430322 240.358039 
L 240.284839 240.05873 
L 241.139357 237.825214 
L 241.993874 233.233188 
L 242.848392 237.753245 
L 243.70291 240.172207 
L 244.557427 239.360089 
L 245.411945 224.747424 
L 246.266462 237.349691 
L 247.12098 240.387256 
L 247.975498 241.550913 
L 248.830015 236.454668 
L 249.684533 241.945759 
L 250.539051 241.183916 
L 251.393568 241.701404 
L 252.248086 242.04032 
L 253.102603 240.485294 
L 253.957121 240.730511 
L 254.811639 239.957504 
L 255.666156 239.025102 
L 256.520674 240.685921 
L 257.375191 241.44025 
L 259.084227 240.996426 
L 259.938744 239.74199 
L 260.793262 240.630487 
L 261.647779 239.614425 
L 262.502297 241.329836 
L 263.356815 241.604358 
L 264.211332 240.947229 
L 265.06585 241.616424 
L 265.920368 241.840202 
L 267.629403 240.97699 
L 268.48392 241.204491 
L 269.338438 241.743797 
L 270.192956 241.501177 
L 271.047473 242.078644 
L 272.756508 241.690167 
L 273.611026 236.793299 
L 274.465544 240.12301 
L 275.320061 241.76654 
L 276.174579 241.578661 
L 277.029096 240.786542 
L 277.883614 239.282052 
L 278.738132 239.21277 
L 279.592649 240.141099 
L 280.447167 239.398499 
L 281.301685 239.181159 
L 282.156202 238.72585 
L 283.01072 242.045046 
L 283.865237 240.930443 
L 284.719755 241.878726 
L 285.574273 242.019194 
L 287.283308 241.833901 
L 288.137825 242.048569 
L 288.992343 240.200104 
L 289.846861 241.949278 
L 290.701378 240.758696 
L 291.555896 242.002595 
L 292.410413 241.837026 
L 293.264931 242.065982 
L 294.119449 241.859567 
L 294.973966 241.810626 
L 295.828484 242.007498 
L 296.683002 239.606285 
L 297.537519 239.994089 
L 298.392037 242.060662 
L 299.246554 241.010143 
L 300.101072 241.034283 
L 300.95559 240.544925 
L 301.810107 241.670554 
L 302.664625 242.033951 
L 303.519142 241.903693 
L 304.37366 242.010028 
L 305.228178 241.412841 
L 306.082695 241.907715 
L 306.937213 241.29341 
L 307.79173 241.931561 
L 308.646248 241.668784 
L 309.500766 242.078924 
L 310.355283 241.926717 
L 311.209801 241.142267 
L 312.064319 241.915122 
L 312.918836 241.864915 
L 313.773354 242.09932 
L 314.627871 241.443645 
L 315.482389 241.218462 
L 316.336907 240.867166 
L 317.191424 242.083844 
L 318.045942 241.834642 
L 318.900459 242.042762 
L 319.754977 241.750959 
L 320.609495 241.988684 
L 321.464012 241.71867 
L 322.31853 242.087065 
L 324.027565 241.494476 
L 324.882083 242.11426 
L 325.7366 241.46845 
L 327.445636 242.063752 
L 328.300153 241.727794 
L 329.154671 242.074358 
L 330.009188 241.72764 
L 330.863706 241.977849 
L 334.281776 241.923807 
L 335.990812 241.708885 
L 336.845329 242.096804 
L 337.699847 241.959361 
L 338.554364 241.948195 
L 339.408882 242.051769 
L 346.245023 242.03325 
L 347.954058 242.075964 
L 351.372129 242.046856 
L 352.226646 241.977228 
L 353.081164 242.103721 
L 356.499234 242.078053 
L 363.335375 242.108697 
L 417.169985 242.115539 
L 433 242.115841 
M 433 242.116331 
L -1 242.116331 
L -1 242.116331 
" clip-path="url(#p7f47f1eaf4)" style="fill: none; stroke: #da8bc3; stroke-opacity: 0.3; stroke-width: 1.5; stroke-linecap: round"/>
   </g>
   <g id="line2d_21">
    <path d="M 54 242.081879 
L 92.453292 242.03978 
L 94.162328 241.840051 
L 95.016845 241.869665 
L 95.871363 241.687424 
L 96.725881 240.9123 
L 97.580398 241.848378 
L 98.434916 241.843716 
L 99.289433 241.683467 
L 100.143951 238.361566 
L 100.998469 239.670582 
L 101.852986 241.32239 
L 102.707504 233.473057 
L 103.562021 192.938933 
L 104.416539 235.276604 
L 106.125574 194.770614 
L 106.980092 240.650222 
L 107.834609 117.296365 
L 108.689127 222.691147 
L 109.543645 226.5352 
L 110.398162 241.403191 
L 111.25268 181.832612 
L 112.107198 142.025161 
L 112.961715 237.72084 
L 113.816233 199.70798 
L 114.67075 227.405584 
L 115.525268 223.03327 
L 116.379786 181.810419 
L 117.234303 218.17463 
L 118.088821 230.248096 
L 118.943338 77.329335 
L 119.797856 226.362237 
L 120.652374 232.333816 
L 121.506891 230.964139 
L 122.361409 216.155236 
L 123.215926 223.365877 
L 124.070444 218.087759 
L 124.924962 197.662628 
L 125.779479 44.443636 
L 126.633997 221.318004 
L 127.488515 190.487912 
L 128.343032 65.843836 
L 129.19755 218.831468 
L 130.052067 152.730535 
L 130.906585 171.897748 
L 131.761103 168.129103 
L 132.61562 179.869483 
L 133.470138 132.831304 
L 134.324655 200.021845 
L 135.179173 236.89966 
L 136.033691 206.303467 
L 136.888208 236.210795 
L 137.742726 216.495609 
L 138.597243 237.502381 
L 139.451761 239.839629 
L 140.306279 241.225666 
L 141.160796 234.67186 
L 142.015314 192.899323 
L 142.869832 237.474616 
L 143.724349 188.849668 
L 144.578867 202.86865 
L 145.433384 237.78209 
L 146.287902 232.263588 
L 147.996937 156.754679 
L 148.851455 210.377599 
L 149.705972 240.467559 
L 150.56049 237.755371 
L 151.415008 225.953853 
L 152.269525 227.19758 
L 153.124043 237.214413 
L 153.97856 183.588713 
L 154.833078 221.286339 
L 155.687596 237.451203 
L 156.542113 237.046339 
L 157.396631 226.573161 
L 158.251149 237.310273 
L 159.105666 231.085389 
L 159.960184 211.833465 
L 160.814701 219.193358 
L 161.669219 203.839344 
L 162.523737 221.608455 
L 163.378254 242.026618 
L 164.232772 180.344661 
L 165.087289 213.95616 
L 165.941807 241.112518 
L 168.50536 209.824022 
L 169.359877 214.531526 
L 170.214395 230.727634 
L 171.068913 238.776866 
L 171.92343 205.148646 
L 173.632466 238.303187 
L 174.486983 234.112016 
L 175.341501 230.772889 
L 176.196018 231.270041 
L 177.050536 232.945155 
L 177.905054 216.609921 
L 178.759571 235.583525 
L 179.614089 233.785323 
L 180.468606 241.330556 
L 181.323124 237.343448 
L 182.177642 241.724792 
L 183.032159 231.897923 
L 183.886677 238.55132 
L 184.741194 224.140992 
L 185.595712 240.743905 
L 186.45023 234.559447 
L 187.304747 238.585615 
L 188.159265 234.077325 
L 189.013783 233.387519 
L 189.8683 236.560573 
L 190.722818 229.584228 
L 191.577335 240.466923 
L 192.431853 240.96083 
L 193.286371 238.858 
L 194.140888 224.20274 
L 194.995406 229.80511 
L 195.849923 241.138372 
L 196.704441 228.58036 
L 197.558959 241.415632 
L 198.413476 236.489775 
L 199.267994 193.797687 
L 200.122511 229.859407 
L 200.977029 239.975311 
L 201.831547 225.614482 
L 202.686064 233.55049 
L 203.540582 238.53722 
L 204.3951 241.953241 
L 205.249617 237.673993 
L 206.104135 237.57527 
L 206.958652 238.923374 
L 207.81317 234.602525 
L 208.667688 234.651471 
L 209.522205 233.745626 
L 210.376723 240.572662 
L 211.23124 241.038833 
L 212.085758 237.364209 
L 212.940276 236.327866 
L 213.794793 239.614563 
L 214.649311 238.288524 
L 215.503828 241.859803 
L 216.358346 229.056785 
L 217.212864 240.941998 
L 218.067381 240.586373 
L 218.921899 230.311544 
L 219.776417 238.709338 
L 220.630934 220.008775 
L 221.485452 224.230566 
L 222.339969 238.788529 
L 223.194487 231.654677 
L 224.049005 225.99705 
L 224.903522 235.460389 
L 225.75804 232.088535 
L 226.612557 237.350636 
L 228.321593 241.846556 
L 229.17611 236.912422 
L 230.030628 240.374032 
L 230.885145 218.859654 
L 231.739663 240.85515 
L 232.594181 235.9903 
L 233.448698 240.235085 
L 234.303216 241.349995 
L 235.157734 239.344171 
L 236.012251 238.200849 
L 236.866769 241.484357 
L 237.721286 241.091693 
L 238.575804 234.357873 
L 239.430322 238.818168 
L 240.284839 237.596235 
L 241.139357 241.636978 
L 241.993874 241.293641 
L 242.848392 229.780032 
L 243.70291 236.969557 
L 244.557427 240.090306 
L 245.411945 241.14596 
L 246.266462 238.102715 
L 247.12098 240.351899 
L 247.975498 235.341967 
L 248.830015 238.544434 
L 249.684533 236.557865 
L 250.539051 238.751568 
L 251.393568 232.814021 
L 252.248086 237.259489 
L 253.102603 236.081504 
L 253.957121 241.050067 
L 254.811639 238.250804 
L 255.666156 227.456023 
L 256.520674 238.786523 
L 257.375191 236.306478 
L 258.229709 236.06777 
L 259.084227 241.012104 
L 259.938744 232.069346 
L 260.793262 241.149556 
L 262.502297 227.637793 
L 263.356815 236.431251 
L 264.211332 240.654017 
L 265.06585 229.479661 
L 265.920368 232.090888 
L 266.774885 242.026511 
L 267.629403 235.663313 
L 268.48392 242.113273 
L 269.338438 238.962746 
L 270.192956 233.185126 
L 271.047473 241.067628 
L 271.901991 237.316386 
L 272.756508 239.601761 
L 273.611026 241.510255 
L 274.465544 238.121076 
L 275.320061 235.602493 
L 276.174579 241.474794 
L 277.029096 235.030051 
L 277.883614 239.436069 
L 279.592649 234.807315 
L 280.447167 241.618078 
L 281.301685 239.787444 
L 282.156202 234.938677 
L 283.01072 241.780864 
L 283.865237 238.673136 
L 284.719755 239.300431 
L 285.574273 242.102413 
L 286.42879 237.850734 
L 287.283308 235.981601 
L 288.137825 241.515768 
L 288.992343 232.258366 
L 289.846861 240.276406 
L 290.701378 237.854349 
L 291.555896 237.993327 
L 292.410413 238.788141 
L 293.264931 239.96424 
L 294.119449 234.22771 
L 294.973966 235.661177 
L 295.828484 241.101105 
L 296.683002 240.516891 
L 297.537519 241.789221 
L 298.392037 236.333838 
L 299.246554 237.265025 
L 300.101072 238.619805 
L 300.95559 238.029842 
L 301.810107 241.191419 
L 302.664625 239.632531 
L 303.519142 240.280761 
L 304.37366 234.632057 
L 305.228178 239.533178 
L 306.082695 235.161238 
L 306.937213 239.431871 
L 307.79173 242.115888 
L 308.646248 235.397165 
L 309.500766 238.880987 
L 310.355283 240.326584 
L 311.209801 236.573598 
L 312.064319 240.313929 
L 312.918836 242.081136 
L 313.773354 238.730309 
L 314.627871 241.829828 
L 315.482389 241.53628 
L 316.336907 238.507091 
L 317.191424 241.314671 
L 318.900459 237.97887 
L 319.754977 241.29804 
L 320.609495 238.63362 
L 321.464012 238.05711 
L 322.31853 240.179319 
L 323.173047 235.120753 
L 324.027565 241.637658 
L 324.882083 242.018039 
L 325.7366 237.015662 
L 326.591118 241.010037 
L 327.445636 241.526782 
L 328.300153 237.721144 
L 329.154671 241.067811 
L 330.009188 241.433005 
L 330.863706 238.831875 
L 331.718224 241.929983 
L 332.572741 240.724948 
L 333.427259 240.316326 
L 335.136294 241.431527 
L 335.990812 241.703478 
L 336.845329 241.638763 
L 337.699847 241.395081 
L 338.554364 240.480916 
L 339.408882 241.543978 
L 340.2634 241.146903 
L 341.117917 242.032816 
L 341.972435 241.740689 
L 342.826953 241.671941 
L 343.68147 241.793864 
L 344.535988 241.617684 
L 345.390505 241.604227 
L 346.245023 242.013973 
L 347.099541 240.900263 
L 348.808576 241.971353 
L 349.663093 241.149675 
L 350.517611 241.338926 
L 351.372129 241.942131 
L 353.081164 241.810129 
L 353.935681 242.00461 
L 355.644717 241.790213 
L 356.499234 242.064891 
L 357.353752 241.811325 
L 358.20827 242.104059 
L 359.917305 241.990305 
L 360.771822 241.945365 
L 361.62634 242.083984 
L 362.480858 241.926111 
L 363.335375 242.109832 
L 364.189893 242.005183 
L 365.898928 242.107367 
L 367.607963 241.986139 
L 368.462481 242.081973 
L 370.171516 242.030001 
L 371.026034 242.113861 
L 372.735069 242.045053 
L 374.444104 242.085691 
L 388.970904 242.107407 
L 407.770291 242.114384 
L 433 242.115093 
M 433 242.11631 
L -1 242.11631 
L -1 242.11631 
" clip-path="url(#p7f47f1eaf4)" style="fill: none; stroke: #8c8c8c; stroke-opacity: 0.3; stroke-width: 1.5; stroke-linecap: round"/>
   </g>
   <g id="line2d_22">
    <path d="M 54 242.116048 
L 97.580398 242.101493 
L 98.434916 241.877948 
L 99.289433 242.078539 
L 100.143951 241.711062 
L 100.998469 241.070112 
L 101.852986 238.711024 
L 102.707504 241.592278 
L 103.562021 241.261013 
L 104.416539 240.33876 
L 105.271057 235.276285 
L 106.125574 232.841074 
L 106.980092 215.762928 
L 107.834609 226.578341 
L 108.689127 240.817174 
L 109.543645 208.150618 
L 110.398162 235.043837 
L 111.25268 67.491389 
L 112.107198 229.79646 
L 112.961715 236.116839 
L 113.816233 44.443636 
L 114.67075 185.878576 
L 115.525268 223.429126 
L 116.379786 240.58281 
L 117.234303 209.60595 
L 118.088821 235.804493 
L 118.943338 227.342406 
L 119.797856 220.065849 
L 120.652374 93.840466 
L 121.506891 132.059534 
L 122.361409 114.967268 
L 123.215926 86.7609 
L 124.070444 241.075666 
L 124.924962 214.755826 
L 125.779479 199.057944 
L 126.633997 146.64408 
L 127.488515 210.023379 
L 128.343032 221.625174 
L 129.19755 213.942076 
L 130.052067 170.192105 
L 130.906585 185.752381 
L 131.761103 218.247694 
L 132.61562 172.060267 
L 133.470138 204.619749 
L 134.324655 231.712058 
L 135.179173 160.387925 
L 136.033691 198.801181 
L 136.888208 198.026938 
L 137.742726 232.818953 
L 138.597243 237.614182 
L 139.451761 188.986792 
L 140.306279 185.637635 
L 141.160796 229.907522 
L 142.015314 193.040584 
L 142.869832 214.479866 
L 143.724349 192.832377 
L 144.578867 217.609345 
L 145.433384 231.1103 
L 146.287902 222.746436 
L 147.14242 192.827915 
L 147.996937 211.593299 
L 149.705972 222.403386 
L 150.56049 215.510492 
L 151.415008 241.729607 
L 152.269525 232.333737 
L 153.124043 170.110335 
L 153.97856 204.207356 
L 154.833078 222.725392 
L 155.687596 229.32286 
L 156.542113 193.36555 
L 157.396631 207.972345 
L 158.251149 234.152599 
L 159.105666 233.378304 
L 159.960184 228.226763 
L 160.814701 214.161799 
L 161.669219 224.258148 
L 162.523737 240.444365 
L 163.378254 242.065025 
L 164.232772 215.002421 
L 165.087289 214.165268 
L 165.941807 228.81329 
L 166.796325 235.652626 
L 167.650842 238.71935 
L 168.50536 238.137725 
L 169.359877 223.484733 
L 170.214395 238.353192 
L 171.068913 240.26888 
L 171.92343 230.043418 
L 172.777948 230.610534 
L 173.632466 237.950123 
L 174.486983 192.247923 
L 175.341501 205.878616 
L 176.196018 239.25281 
L 177.050536 211.863983 
L 177.905054 171.300168 
L 178.759571 225.227176 
L 179.614089 217.876455 
L 180.468606 240.877114 
L 181.323124 197.113729 
L 182.177642 235.32697 
L 183.032159 232.179654 
L 183.886677 240.639401 
L 184.741194 180.448398 
L 185.595712 236.397707 
L 186.45023 234.49746 
L 187.304747 241.512054 
L 188.159265 202.023707 
L 189.013783 228.397286 
L 189.8683 232.843175 
L 190.722818 213.134653 
L 191.577335 241.944127 
L 192.431853 235.72418 
L 193.286371 236.104155 
L 194.995406 212.01222 
L 195.849923 239.463359 
L 196.704441 237.406631 
L 197.558959 228.923872 
L 198.413476 237.984948 
L 199.267994 211.144696 
L 200.122511 237.855456 
L 200.977029 240.653547 
L 201.831547 203.036723 
L 202.686064 223.305444 
L 203.540582 227.508004 
L 204.3951 239.358824 
L 205.249617 236.373733 
L 206.104135 239.19766 
L 206.958652 239.326667 
L 207.81317 239.273901 
L 208.667688 198.519475 
L 209.522205 239.300862 
L 210.376723 233.114657 
L 212.085758 237.226278 
L 212.940276 235.604522 
L 213.794793 231.580694 
L 214.649311 234.128469 
L 215.503828 233.343712 
L 216.358346 230.681081 
L 217.212864 230.489182 
L 218.067381 233.822277 
L 218.921899 240.885679 
L 219.776417 241.180687 
L 220.630934 229.746892 
L 221.485452 233.446898 
L 222.339969 234.174334 
L 223.194487 241.950053 
L 224.049005 235.449482 
L 224.903522 239.434304 
L 225.75804 230.130428 
L 226.612557 241.465601 
L 227.467075 238.997844 
L 228.321593 240.867575 
L 229.17611 237.063769 
L 230.030628 241.048288 
L 230.885145 229.212316 
L 231.739663 235.733792 
L 232.594181 240.50668 
L 233.448698 236.035886 
L 234.303216 238.92125 
L 235.157734 238.947131 
L 236.012251 238.261407 
L 236.866769 240.92582 
L 237.721286 241.782183 
L 238.575804 231.172393 
L 239.430322 240.176177 
L 240.284839 242.099218 
L 241.139357 235.934894 
L 241.993874 238.458164 
L 242.848392 229.562895 
L 243.70291 229.728343 
L 244.557427 219.660875 
L 245.411945 231.669966 
L 246.266462 233.69757 
L 247.12098 235.173245 
L 247.975498 239.910087 
L 248.830015 238.155352 
L 250.539051 235.353378 
L 251.393568 239.807405 
L 252.248086 239.934841 
L 253.102603 223.331042 
L 253.957121 239.102211 
L 254.811639 236.369648 
L 255.666156 240.045667 
L 256.520674 230.909486 
L 257.375191 240.569569 
L 258.229709 241.246727 
L 259.084227 239.465803 
L 259.938744 241.047356 
L 260.793262 241.987558 
L 261.647779 236.185933 
L 262.502297 225.933767 
L 264.211332 237.946159 
L 265.06585 239.927688 
L 265.920368 240.816243 
L 266.774885 235.212439 
L 267.629403 238.685314 
L 268.48392 238.433862 
L 269.338438 229.297502 
L 270.192956 239.770253 
L 271.047473 238.096753 
L 271.901991 242.034051 
L 272.756508 236.109925 
L 273.611026 238.843764 
L 274.465544 242.002124 
L 275.320061 241.670565 
L 276.174579 240.990399 
L 277.029096 234.373109 
L 277.883614 240.74161 
L 278.738132 241.393285 
L 279.592649 240.068097 
L 280.447167 239.979978 
L 281.301685 241.013633 
L 282.156202 240.890355 
L 283.01072 240.147707 
L 283.865237 239.182814 
L 284.719755 241.140943 
L 285.574273 241.821597 
L 286.42879 239.335215 
L 287.283308 240.30106 
L 288.137825 240.448072 
L 288.992343 236.810805 
L 289.846861 240.177598 
L 290.701378 237.108785 
L 291.555896 240.950843 
L 292.410413 241.116237 
L 294.119449 241.868341 
L 294.973966 237.912087 
L 295.828484 240.482555 
L 296.683002 239.663437 
L 297.537519 241.693614 
L 298.392037 241.412556 
L 299.246554 240.070072 
L 300.101072 241.02887 
L 300.95559 240.672875 
L 301.810107 241.271887 
L 302.664625 240.723435 
L 303.519142 239.871335 
L 304.37366 237.533194 
L 305.228178 241.7184 
L 306.082695 239.729415 
L 306.937213 238.65436 
L 307.79173 240.148263 
L 308.646248 235.937774 
L 309.500766 239.844324 
L 310.355283 237.943195 
L 311.209801 240.231885 
L 312.064319 238.523838 
L 312.918836 238.109091 
L 313.773354 241.290097 
L 314.627871 240.677747 
L 315.482389 241.495381 
L 316.336907 242.061767 
L 317.191424 241.542899 
L 318.045942 241.793225 
L 318.900459 235.267802 
L 319.754977 240.063268 
L 320.609495 240.713088 
L 321.464012 240.507535 
L 322.31853 240.044078 
L 323.173047 237.771771 
L 324.027565 241.630997 
L 324.882083 240.106545 
L 326.591118 241.502285 
L 327.445636 242.038834 
L 328.300153 242.090373 
L 329.154671 241.213946 
L 330.009188 241.936326 
L 330.863706 238.918929 
L 331.718224 240.386943 
L 332.572741 241.42737 
L 333.427259 240.619332 
L 334.281776 240.160906 
L 335.136294 241.364629 
L 335.990812 242.063486 
L 336.845329 241.829436 
L 337.699847 241.831096 
L 338.554364 242.083238 
L 340.2634 242.079783 
L 341.117917 241.894494 
L 341.972435 241.163366 
L 342.826953 242.085442 
L 344.535988 242.112801 
L 345.390505 241.84162 
L 346.245023 242.101864 
L 349.663093 242.038744 
L 350.517611 241.675337 
L 352.226646 242.0271 
L 353.081164 241.851215 
L 354.790199 242.107741 
L 355.644717 242.001989 
L 363.335375 242.104639 
L 364.189893 241.957454 
L 365.898928 242.106025 
L 370.171516 242.059214 
L 372.735069 242.098248 
L 378.716692 242.106856 
L 429.987749 242.116056 
L 433 242.115635 
M 433 242.116363 
L -1 242.116363 
L -1 242.116363 
" clip-path="url(#p7f47f1eaf4)" style="fill: none; stroke: #ccb974; stroke-opacity: 0.3; stroke-width: 1.5; stroke-linecap: round"/>
   </g>
   <g id="patch_3">
    <path d="M 54 252 
L 54 34.56 
" style="fill: none; stroke: #262626; stroke-width: 1.25; stroke-linejoin: miter; stroke-linecap: square"/>
   </g>
   <g id="patch_4">
    <path d="M 388.8 252 
L 388.8 34.56 
" style="fill: none; stroke: #262626; stroke-width: 1.25; stroke-linejoin: miter; stroke-linecap: square"/>
   </g>
   <g id="patch_5">
    <path d="M 54 252 
L 388.8 252 
" style="fill: none; stroke: #262626; stroke-width: 1.25; stroke-linejoin: miter; stroke-linecap: square"/>
   </g>
   <g id="patch_6">
    <path d="M 54 34.56 
L 388.8 34.56 
" style="fill: none; stroke: #262626; stroke-width: 1.25; stroke-linejoin: miter; stroke-linecap: square"/>
   </g>
   <g id="text_15">
    <!-- patient06_app08_phone - Power spectrum -->
    <g style="fill: #262626" transform="translate(107.998125 28.56)scale(0.12 -0.12)">
     <defs>
      <path id="ArialMT-70" d="M 422 -1272 
L 422 3319 
L 934 3319 
L 934 2888 
Q 1116 3141 1344 3267 
Q 1572 3394 1897 3394 
Q 2322 3394 2647 3175 
Q 2972 2956 3137 2557 
Q 3303 2159 3303 1684 
Q 3303 1175 3120 767 
Q 2938 359 2589 142 
Q 2241 -75 1856 -75 
Q 1575 -75 1351 44 
Q 1128 163 984 344 
L 984 -1272 
L 422 -1272 
z
M 931 1641 
Q 931 1000 1190 694 
Q 1450 388 1819 388 
Q 2194 388 2461 705 
Q 2728 1022 2728 1688 
Q 2728 2322 2467 2637 
Q 2206 2953 1844 2953 
Q 1484 2953 1207 2617 
Q 931 2281 931 1641 
z
" transform="scale(0.015625)"/>
      <path id="ArialMT-61" d="M 2588 409 
Q 2275 144 1986 34 
Q 1697 -75 1366 -75 
Q 819 -75 525 192 
Q 231 459 231 875 
Q 231 1119 342 1320 
Q 453 1522 633 1644 
Q 813 1766 1038 1828 
Q 1203 1872 1538 1913 
Q 2219 1994 2541 2106 
Q 2544 2222 2544 2253 
Q 2544 2597 2384 2738 
Q 2169 2928 1744 2928 
Q 1347 2928 1158 2789 
Q 969 2650 878 2297 
L 328 2372 
Q 403 2725 575 2942 
Q 747 3159 1072 3276 
Q 1397 3394 1825 3394 
Q 2250 3394 2515 3294 
Q 2781 3194 2906 3042 
Q 3031 2891 3081 2659 
Q 3109 2516 3109 2141 
L 3109 1391 
Q 3109 606 3145 398 
Q 3181 191 3288 0 
L 2700 0 
Q 2613 175 2588 409 
z
M 2541 1666 
Q 2234 1541 1622 1453 
Q 1275 1403 1131 1340 
Q 988 1278 909 1158 
Q 831 1038 831 891 
Q 831 666 1001 516 
Q 1172 366 1500 366 
Q 1825 366 2078 508 
Q 2331 650 2450 897 
Q 2541 1088 2541 1459 
L 2541 1666 
z
" transform="scale(0.015625)"/>
      <path id="ArialMT-74" d="M 1650 503 
L 1731 6 
Q 1494 -44 1306 -44 
Q 1000 -44 831 53 
Q 663 150 594 308 
Q 525 466 525 972 
L 525 2881 
L 113 2881 
L 113 3319 
L 525 3319 
L 525 4141 
L 1084 4478 
L 1084 3319 
L 1650 3319 
L 1650 2881 
L 1084 2881 
L 1084 941 
Q 1084 700 1114 631 
Q 1144 563 1211 522 
Q 1278 481 1403 481 
Q 1497 481 1650 503 
z
" transform="scale(0.015625)"/>
      <path id="ArialMT-69" d="M 425 3934 
L 425 4581 
L 988 4581 
L 988 3934 
L 425 3934 
z
M 425 0 
L 425 3319 
L 988 3319 
L 988 0 
L 425 0 
z
" transform="scale(0.015625)"/>
      <path id="ArialMT-5f" d="M -97 -1272 
L -97 -866 
L 3631 -866 
L 3631 -1272 
L -97 -1272 
z
" transform="scale(0.015625)"/>
      <path id="ArialMT-68" d="M 422 0 
L 422 4581 
L 984 4581 
L 984 2938 
Q 1378 3394 1978 3394 
Q 2347 3394 2619 3248 
Q 2891 3103 3008 2847 
Q 3125 2591 3125 2103 
L 3125 0 
L 2563 0 
L 2563 2103 
Q 2563 2525 2380 2717 
Q 2197 2909 1863 2909 
Q 1613 2909 1392 2779 
Q 1172 2650 1078 2428 
Q 984 2206 984 1816 
L 984 0 
L 422 0 
z
" transform="scale(0.015625)"/>
      <path id="ArialMT-6f" d="M 213 1659 
Q 213 2581 725 3025 
Q 1153 3394 1769 3394 
Q 2453 3394 2887 2945 
Q 3322 2497 3322 1706 
Q 3322 1066 3130 698 
Q 2938 331 2570 128 
Q 2203 -75 1769 -75 
Q 1072 -75 642 372 
Q 213 819 213 1659 
z
M 791 1659 
Q 791 1022 1069 705 
Q 1347 388 1769 388 
Q 2188 388 2466 706 
Q 2744 1025 2744 1678 
Q 2744 2294 2464 2611 
Q 2184 2928 1769 2928 
Q 1347 2928 1069 2612 
Q 791 2297 791 1659 
z
" transform="scale(0.015625)"/>
      <path id="ArialMT-2d" d="M 203 1375 
L 203 1941 
L 1931 1941 
L 1931 1375 
L 203 1375 
z
" transform="scale(0.015625)"/>
      <path id="ArialMT-50" d="M 494 0 
L 494 4581 
L 2222 4581 
Q 2678 4581 2919 4538 
Q 3256 4481 3484 4323 
Q 3713 4166 3852 3881 
Q 3991 3597 3991 3256 
Q 3991 2672 3619 2267 
Q 3247 1863 2275 1863 
L 1100 1863 
L 1100 0 
L 494 0 
z
M 1100 2403 
L 2284 2403 
Q 2872 2403 3119 2622 
Q 3366 2841 3366 3238 
Q 3366 3525 3220 3729 
Q 3075 3934 2838 4000 
Q 2684 4041 2272 4041 
L 1100 4041 
L 1100 2403 
z
" transform="scale(0.015625)"/>
      <path id="ArialMT-77" d="M 1034 0 
L 19 3319 
L 600 3319 
L 1128 1403 
L 1325 691 
Q 1338 744 1497 1375 
L 2025 3319 
L 2603 3319 
L 3100 1394 
L 3266 759 
L 3456 1400 
L 4025 3319 
L 4572 3319 
L 3534 0 
L 2950 0 
L 2422 1988 
L 2294 2553 
L 1622 0 
L 1034 0 
z
" transform="scale(0.015625)"/>
      <path id="ArialMT-73" d="M 197 991 
L 753 1078 
Q 800 744 1014 566 
Q 1228 388 1613 388 
Q 2000 388 2187 545 
Q 2375 703 2375 916 
Q 2375 1106 2209 1216 
Q 2094 1291 1634 1406 
Q 1016 1563 777 1677 
Q 538 1791 414 1992 
Q 291 2194 291 2438 
Q 291 2659 392 2848 
Q 494 3038 669 3163 
Q 800 3259 1026 3326 
Q 1253 3394 1513 3394 
Q 1903 3394 2198 3281 
Q 2494 3169 2634 2976 
Q 2775 2784 2828 2463 
L 2278 2388 
Q 2241 2644 2061 2787 
Q 1881 2931 1553 2931 
Q 1166 2931 1000 2803 
Q 834 2675 834 2503 
Q 834 2394 903 2306 
Q 972 2216 1119 2156 
Q 1203 2125 1616 2013 
Q 2213 1853 2448 1751 
Q 2684 1650 2818 1456 
Q 2953 1263 2953 975 
Q 2953 694 2789 445 
Q 2625 197 2315 61 
Q 2006 -75 1616 -75 
Q 969 -75 630 194 
Q 291 463 197 991 
z
" transform="scale(0.015625)"/>
      <path id="ArialMT-6d" d="M 422 0 
L 422 3319 
L 925 3319 
L 925 2853 
Q 1081 3097 1340 3245 
Q 1600 3394 1931 3394 
Q 2300 3394 2536 3241 
Q 2772 3088 2869 2813 
Q 3263 3394 3894 3394 
Q 4388 3394 4653 3120 
Q 4919 2847 4919 2278 
L 4919 0 
L 4359 0 
L 4359 2091 
Q 4359 2428 4304 2576 
Q 4250 2725 4106 2815 
Q 3963 2906 3769 2906 
Q 3419 2906 3187 2673 
Q 2956 2441 2956 1928 
L 2956 0 
L 2394 0 
L 2394 2156 
Q 2394 2531 2256 2718 
Q 2119 2906 1806 2906 
Q 1569 2906 1367 2781 
Q 1166 2656 1075 2415 
Q 984 2175 984 1722 
L 984 0 
L 422 0 
z
" transform="scale(0.015625)"/>
     </defs>
     <use xlink:href="#ArialMT-70"/>
     <use xlink:href="#ArialMT-61" x="55.615234"/>
     <use xlink:href="#ArialMT-74" x="111.230469"/>
     <use xlink:href="#ArialMT-69" x="139.013672"/>
     <use xlink:href="#ArialMT-65" x="161.230469"/>
     <use xlink:href="#ArialMT-6e" x="216.845703"/>
     <use xlink:href="#ArialMT-74" x="272.460938"/>
     <use xlink:href="#ArialMT-30" x="300.244141"/>
     <use xlink:href="#ArialMT-36" x="355.859375"/>
     <use xlink:href="#ArialMT-5f" x="411.474609"/>
     <use xlink:href="#ArialMT-61" x="467.089844"/>
     <use xlink:href="#ArialMT-70" x="522.705078"/>
     <use xlink:href="#ArialMT-70" x="578.320312"/>
     <use xlink:href="#ArialMT-30" x="633.935547"/>
     <use xlink:href="#ArialMT-38" x="689.550781"/>
     <use xlink:href="#ArialMT-5f" x="745.166016"/>
     <use xlink:href="#ArialMT-70" x="800.78125"/>
     <use xlink:href="#ArialMT-68" x="856.396484"/>
     <use xlink:href="#ArialMT-6f" x="912.011719"/>
     <use xlink:href="#ArialMT-6e" x="967.626953"/>
     <use xlink:href="#ArialMT-65" x="1023.242188"/>
     <use xlink:href="#ArialMT-20" x="1078.857422"/>
     <use xlink:href="#ArialMT-2d" x="1106.640625"/>
     <use xlink:href="#ArialMT-20" x="1139.941406"/>
     <use xlink:href="#ArialMT-50" x="1167.724609"/>
     <use xlink:href="#ArialMT-6f" x="1234.423828"/>
     <use xlink:href="#ArialMT-77" x="1290.039062"/>
     <use xlink:href="#ArialMT-65" x="1362.255859"/>
     <use xlink:href="#ArialMT-72" x="1417.871094"/>
     <use xlink:href="#ArialMT-20" x="1451.171875"/>
     <use xlink:href="#ArialMT-73" x="1478.955078"/>
     <use xlink:href="#ArialMT-70" x="1528.955078"/>
     <use xlink:href="#ArialMT-65" x="1584.570312"/>
     <use xlink:href="#ArialMT-63" x="1640.185547"/>
     <use xlink:href="#ArialMT-74" x="1690.185547"/>
     <use xlink:href="#ArialMT-72" x="1717.96875"/>
     <use xlink:href="#ArialMT-75" x="1751.269531"/>
     <use xlink:href="#ArialMT-6d" x="1806.884766"/>
    </g>
   </g>
  </g>
 </g>
 <defs>
  <clipPath id="p7f47f1eaf4">
   <rect x="54" y="34.56" width="334.8" height="217.44"/>
  </clipPath>
 </defs>
</svg>
