<?xml version="1.0" encoding="utf-8" standalone="no"?>
<!DOCTYPE svg PUBLIC "-//W3C//DTD SVG 1.1//EN"
  "http://www.w3.org/Graphics/SVG/1.1/DTD/svg11.dtd">
<svg xmlns:xlink="http://www.w3.org/1999/xlink" width="432pt" height="288pt" viewBox="0 0 432 288" xmlns="http://www.w3.org/2000/svg" version="1.1">
 <metadata>
  <rdf:RDF xmlns:dc="http://purl.org/dc/elements/1.1/" xmlns:cc="http://creativecommons.org/ns#" xmlns:rdf="http://www.w3.org/1999/02/22-rdf-syntax-ns#">
   <cc:Work>
    <dc:type rdf:resource="http://purl.org/dc/dcmitype/StillImage"/>
    <dc:date>2022-07-08T13:41:48.839516</dc:date>
    <dc:format>image/svg+xml</dc:format>
    <dc:creator>
     <cc:Agent>
      <dc:title>Matplotlib v3.5.1, https://matplotlib.org/</dc:title>
     </cc:Agent>
    </dc:creator>
   </cc:Work>
  </rdf:RDF>
 </metadata>
 <defs>
  <style type="text/css">*{stroke-linejoin: round; stroke-linecap: butt}</style>
 </defs>
 <g id="figure_1">
  <g id="patch_1">
   <path d="M 0 288 
L 432 288 
L 432 0 
L 0 0 
z
" style="fill: #ffffff"/>
  </g>
  <g id="axes_1">
   <g id="patch_2">
    <path d="M 54 252 
L 388.8 252 
L 388.8 34.56 
L 54 34.56 
z
" style="fill: #ffffff"/>
   </g>
   <g id="matplotlib.axis_1">
    <g id="xtick_1">
     <g id="line2d_1">
      <defs>
       <path id="me9d24472c7" d="M 0 0 
L 0 6 
" style="stroke: #262626; stroke-width: 1.25"/>
      </defs>
      <g>
       <use xlink:href="#me9d24472c7" x="54" y="252" style="fill: #262626; stroke: #262626; stroke-width: 1.25"/>
      </g>
     </g>
     <g id="text_1">
      <!-- 0 -->
      <g style="fill: #262626" transform="translate(50.941484 269.373594)scale(0.11 -0.11)">
       <defs>
        <path id="ArialMT-30" d="M 266 2259 
Q 266 3072 433 3567 
Q 600 4063 929 4331 
Q 1259 4600 1759 4600 
Q 2128 4600 2406 4451 
Q 2684 4303 2865 4023 
Q 3047 3744 3150 3342 
Q 3253 2941 3253 2259 
Q 3253 1453 3087 958 
Q 2922 463 2592 192 
Q 2263 -78 1759 -78 
Q 1097 -78 719 397 
Q 266 969 266 2259 
z
M 844 2259 
Q 844 1131 1108 757 
Q 1372 384 1759 384 
Q 2147 384 2411 759 
Q 2675 1134 2675 2259 
Q 2675 3391 2411 3762 
Q 2147 4134 1753 4134 
Q 1366 4134 1134 3806 
Q 844 3388 844 2259 
z
" transform="scale(0.015625)"/>
       </defs>
       <use xlink:href="#ArialMT-30"/>
      </g>
     </g>
    </g>
    <g id="xtick_2">
     <g id="line2d_2">
      <g>
       <use xlink:href="#me9d24472c7" x="109.8" y="252" style="fill: #262626; stroke: #262626; stroke-width: 1.25"/>
      </g>
     </g>
     <g id="text_2">
      <!-- 5 -->
      <g style="fill: #262626" transform="translate(106.741484 269.373594)scale(0.11 -0.11)">
       <defs>
        <path id="ArialMT-35" d="M 266 1200 
L 856 1250 
Q 922 819 1161 601 
Q 1400 384 1738 384 
Q 2144 384 2425 690 
Q 2706 997 2706 1503 
Q 2706 1984 2436 2262 
Q 2166 2541 1728 2541 
Q 1456 2541 1237 2417 
Q 1019 2294 894 2097 
L 366 2166 
L 809 4519 
L 3088 4519 
L 3088 3981 
L 1259 3981 
L 1013 2750 
Q 1425 3038 1878 3038 
Q 2478 3038 2890 2622 
Q 3303 2206 3303 1553 
Q 3303 931 2941 478 
Q 2500 -78 1738 -78 
Q 1113 -78 717 272 
Q 322 622 266 1200 
z
" transform="scale(0.015625)"/>
       </defs>
       <use xlink:href="#ArialMT-35"/>
      </g>
     </g>
    </g>
    <g id="xtick_3">
     <g id="line2d_3">
      <g>
       <use xlink:href="#me9d24472c7" x="165.6" y="252" style="fill: #262626; stroke: #262626; stroke-width: 1.25"/>
      </g>
     </g>
     <g id="text_3">
      <!-- 10 -->
      <g style="fill: #262626" transform="translate(159.482969 269.373594)scale(0.11 -0.11)">
       <defs>
        <path id="ArialMT-31" d="M 2384 0 
L 1822 0 
L 1822 3584 
Q 1619 3391 1289 3197 
Q 959 3003 697 2906 
L 697 3450 
Q 1169 3672 1522 3987 
Q 1875 4303 2022 4600 
L 2384 4600 
L 2384 0 
z
" transform="scale(0.015625)"/>
       </defs>
       <use xlink:href="#ArialMT-31"/>
       <use xlink:href="#ArialMT-30" x="55.615234"/>
      </g>
     </g>
    </g>
    <g id="xtick_4">
     <g id="line2d_4">
      <g>
       <use xlink:href="#me9d24472c7" x="221.4" y="252" style="fill: #262626; stroke: #262626; stroke-width: 1.25"/>
      </g>
     </g>
     <g id="text_4">
      <!-- 15 -->
      <g style="fill: #262626" transform="translate(215.282969 269.373594)scale(0.11 -0.11)">
       <use xlink:href="#ArialMT-31"/>
       <use xlink:href="#ArialMT-35" x="55.615234"/>
      </g>
     </g>
    </g>
    <g id="xtick_5">
     <g id="line2d_5">
      <g>
       <use xlink:href="#me9d24472c7" x="277.2" y="252" style="fill: #262626; stroke: #262626; stroke-width: 1.25"/>
      </g>
     </g>
     <g id="text_5">
      <!-- 20 -->
      <g style="fill: #262626" transform="translate(271.082969 269.373594)scale(0.11 -0.11)">
       <defs>
        <path id="ArialMT-32" d="M 3222 541 
L 3222 0 
L 194 0 
Q 188 203 259 391 
Q 375 700 629 1000 
Q 884 1300 1366 1694 
Q 2113 2306 2375 2664 
Q 2638 3022 2638 3341 
Q 2638 3675 2398 3904 
Q 2159 4134 1775 4134 
Q 1369 4134 1125 3890 
Q 881 3647 878 3216 
L 300 3275 
Q 359 3922 746 4261 
Q 1134 4600 1788 4600 
Q 2447 4600 2831 4234 
Q 3216 3869 3216 3328 
Q 3216 3053 3103 2787 
Q 2991 2522 2730 2228 
Q 2469 1934 1863 1422 
Q 1356 997 1212 845 
Q 1069 694 975 541 
L 3222 541 
z
" transform="scale(0.015625)"/>
       </defs>
       <use xlink:href="#ArialMT-32"/>
       <use xlink:href="#ArialMT-30" x="55.615234"/>
      </g>
     </g>
    </g>
    <g id="xtick_6">
     <g id="line2d_6">
      <g>
       <use xlink:href="#me9d24472c7" x="333" y="252" style="fill: #262626; stroke: #262626; stroke-width: 1.25"/>
      </g>
     </g>
     <g id="text_6">
      <!-- 25 -->
      <g style="fill: #262626" transform="translate(326.882969 269.373594)scale(0.11 -0.11)">
       <use xlink:href="#ArialMT-32"/>
       <use xlink:href="#ArialMT-35" x="55.615234"/>
      </g>
     </g>
    </g>
    <g id="xtick_7">
     <g id="line2d_7">
      <g>
       <use xlink:href="#me9d24472c7" x="388.8" y="252" style="fill: #262626; stroke: #262626; stroke-width: 1.25"/>
      </g>
     </g>
     <g id="text_7">
      <!-- 30 -->
      <g style="fill: #262626" transform="translate(382.682969 269.373594)scale(0.11 -0.11)">
       <defs>
        <path id="ArialMT-33" d="M 269 1209 
L 831 1284 
Q 928 806 1161 595 
Q 1394 384 1728 384 
Q 2125 384 2398 659 
Q 2672 934 2672 1341 
Q 2672 1728 2419 1979 
Q 2166 2231 1775 2231 
Q 1616 2231 1378 2169 
L 1441 2663 
Q 1497 2656 1531 2656 
Q 1891 2656 2178 2843 
Q 2466 3031 2466 3422 
Q 2466 3731 2256 3934 
Q 2047 4138 1716 4138 
Q 1388 4138 1169 3931 
Q 950 3725 888 3313 
L 325 3413 
Q 428 3978 793 4289 
Q 1159 4600 1703 4600 
Q 2078 4600 2393 4439 
Q 2709 4278 2876 4000 
Q 3044 3722 3044 3409 
Q 3044 3113 2884 2869 
Q 2725 2625 2413 2481 
Q 2819 2388 3044 2092 
Q 3269 1797 3269 1353 
Q 3269 753 2831 336 
Q 2394 -81 1725 -81 
Q 1122 -81 723 278 
Q 325 638 269 1209 
z
" transform="scale(0.015625)"/>
       </defs>
       <use xlink:href="#ArialMT-33"/>
       <use xlink:href="#ArialMT-30" x="55.615234"/>
      </g>
     </g>
    </g>
    <g id="text_8">
     <!-- Frequency (Hz) -->
     <g style="fill: #262626" transform="translate(180.059063 284.295469)scale(0.12 -0.12)">
      <defs>
       <path id="ArialMT-46" d="M 525 0 
L 525 4581 
L 3616 4581 
L 3616 4041 
L 1131 4041 
L 1131 2622 
L 3281 2622 
L 3281 2081 
L 1131 2081 
L 1131 0 
L 525 0 
z
" transform="scale(0.015625)"/>
       <path id="ArialMT-72" d="M 416 0 
L 416 3319 
L 922 3319 
L 922 2816 
Q 1116 3169 1280 3281 
Q 1444 3394 1641 3394 
Q 1925 3394 2219 3213 
L 2025 2691 
Q 1819 2813 1613 2813 
Q 1428 2813 1281 2702 
Q 1134 2591 1072 2394 
Q 978 2094 978 1738 
L 978 0 
L 416 0 
z
" transform="scale(0.015625)"/>
       <path id="ArialMT-65" d="M 2694 1069 
L 3275 997 
Q 3138 488 2766 206 
Q 2394 -75 1816 -75 
Q 1088 -75 661 373 
Q 234 822 234 1631 
Q 234 2469 665 2931 
Q 1097 3394 1784 3394 
Q 2450 3394 2872 2941 
Q 3294 2488 3294 1666 
Q 3294 1616 3291 1516 
L 816 1516 
Q 847 969 1125 678 
Q 1403 388 1819 388 
Q 2128 388 2347 550 
Q 2566 713 2694 1069 
z
M 847 1978 
L 2700 1978 
Q 2663 2397 2488 2606 
Q 2219 2931 1791 2931 
Q 1403 2931 1139 2672 
Q 875 2413 847 1978 
z
" transform="scale(0.015625)"/>
       <path id="ArialMT-71" d="M 2538 -1272 
L 2538 353 
Q 2406 169 2170 47 
Q 1934 -75 1669 -75 
Q 1078 -75 651 397 
Q 225 869 225 1691 
Q 225 2191 398 2587 
Q 572 2984 901 3189 
Q 1231 3394 1625 3394 
Q 2241 3394 2594 2875 
L 2594 3319 
L 3100 3319 
L 3100 -1272 
L 2538 -1272 
z
M 803 1669 
Q 803 1028 1072 708 
Q 1341 388 1716 388 
Q 2075 388 2334 692 
Q 2594 997 2594 1619 
Q 2594 2281 2320 2615 
Q 2047 2950 1678 2950 
Q 1313 2950 1058 2639 
Q 803 2328 803 1669 
z
" transform="scale(0.015625)"/>
       <path id="ArialMT-75" d="M 2597 0 
L 2597 488 
Q 2209 -75 1544 -75 
Q 1250 -75 995 37 
Q 741 150 617 320 
Q 494 491 444 738 
Q 409 903 409 1263 
L 409 3319 
L 972 3319 
L 972 1478 
Q 972 1038 1006 884 
Q 1059 663 1231 536 
Q 1403 409 1656 409 
Q 1909 409 2131 539 
Q 2353 669 2445 892 
Q 2538 1116 2538 1541 
L 2538 3319 
L 3100 3319 
L 3100 0 
L 2597 0 
z
" transform="scale(0.015625)"/>
       <path id="ArialMT-6e" d="M 422 0 
L 422 3319 
L 928 3319 
L 928 2847 
Q 1294 3394 1984 3394 
Q 2284 3394 2536 3286 
Q 2788 3178 2913 3003 
Q 3038 2828 3088 2588 
Q 3119 2431 3119 2041 
L 3119 0 
L 2556 0 
L 2556 2019 
Q 2556 2363 2490 2533 
Q 2425 2703 2258 2804 
Q 2091 2906 1866 2906 
Q 1506 2906 1245 2678 
Q 984 2450 984 1813 
L 984 0 
L 422 0 
z
" transform="scale(0.015625)"/>
       <path id="ArialMT-63" d="M 2588 1216 
L 3141 1144 
Q 3050 572 2676 248 
Q 2303 -75 1759 -75 
Q 1078 -75 664 370 
Q 250 816 250 1647 
Q 250 2184 428 2587 
Q 606 2991 970 3192 
Q 1334 3394 1763 3394 
Q 2303 3394 2647 3120 
Q 2991 2847 3088 2344 
L 2541 2259 
Q 2463 2594 2264 2762 
Q 2066 2931 1784 2931 
Q 1359 2931 1093 2626 
Q 828 2322 828 1663 
Q 828 994 1084 691 
Q 1341 388 1753 388 
Q 2084 388 2306 591 
Q 2528 794 2588 1216 
z
" transform="scale(0.015625)"/>
       <path id="ArialMT-79" d="M 397 -1278 
L 334 -750 
Q 519 -800 656 -800 
Q 844 -800 956 -737 
Q 1069 -675 1141 -563 
Q 1194 -478 1313 -144 
Q 1328 -97 1363 -6 
L 103 3319 
L 709 3319 
L 1400 1397 
Q 1534 1031 1641 628 
Q 1738 1016 1872 1384 
L 2581 3319 
L 3144 3319 
L 1881 -56 
Q 1678 -603 1566 -809 
Q 1416 -1088 1222 -1217 
Q 1028 -1347 759 -1347 
Q 597 -1347 397 -1278 
z
" transform="scale(0.015625)"/>
       <path id="ArialMT-20" transform="scale(0.015625)"/>
       <path id="ArialMT-28" d="M 1497 -1347 
Q 1031 -759 709 28 
Q 388 816 388 1659 
Q 388 2403 628 3084 
Q 909 3875 1497 4659 
L 1900 4659 
Q 1522 4009 1400 3731 
Q 1209 3300 1100 2831 
Q 966 2247 966 1656 
Q 966 153 1900 -1347 
L 1497 -1347 
z
" transform="scale(0.015625)"/>
       <path id="ArialMT-48" d="M 513 0 
L 513 4581 
L 1119 4581 
L 1119 2700 
L 3500 2700 
L 3500 4581 
L 4106 4581 
L 4106 0 
L 3500 0 
L 3500 2159 
L 1119 2159 
L 1119 0 
L 513 0 
z
" transform="scale(0.015625)"/>
       <path id="ArialMT-7a" d="M 125 0 
L 125 456 
L 2238 2881 
Q 1878 2863 1603 2863 
L 250 2863 
L 250 3319 
L 2963 3319 
L 2963 2947 
L 1166 841 
L 819 456 
Q 1197 484 1528 484 
L 3063 484 
L 3063 0 
L 125 0 
z
" transform="scale(0.015625)"/>
       <path id="ArialMT-29" d="M 791 -1347 
L 388 -1347 
Q 1322 153 1322 1656 
Q 1322 2244 1188 2822 
Q 1081 3291 891 3722 
Q 769 4003 388 4659 
L 791 4659 
Q 1378 3875 1659 3084 
Q 1900 2403 1900 1659 
Q 1900 816 1576 28 
Q 1253 -759 791 -1347 
z
" transform="scale(0.015625)"/>
      </defs>
      <use xlink:href="#ArialMT-46"/>
      <use xlink:href="#ArialMT-72" x="61.083984"/>
      <use xlink:href="#ArialMT-65" x="94.384766"/>
      <use xlink:href="#ArialMT-71" x="150"/>
      <use xlink:href="#ArialMT-75" x="205.615234"/>
      <use xlink:href="#ArialMT-65" x="261.230469"/>
      <use xlink:href="#ArialMT-6e" x="316.845703"/>
      <use xlink:href="#ArialMT-63" x="372.460938"/>
      <use xlink:href="#ArialMT-79" x="422.460938"/>
      <use xlink:href="#ArialMT-20" x="472.460938"/>
      <use xlink:href="#ArialMT-28" x="500.244141"/>
      <use xlink:href="#ArialMT-48" x="533.544922"/>
      <use xlink:href="#ArialMT-7a" x="605.761719"/>
      <use xlink:href="#ArialMT-29" x="655.761719"/>
     </g>
    </g>
   </g>
   <g id="matplotlib.axis_2">
    <g id="ytick_1">
     <g id="line2d_8">
      <defs>
       <path id="m5255fa437c" d="M 0 0 
L -6 0 
" style="stroke: #262626; stroke-width: 1.25"/>
      </defs>
      <g>
       <use xlink:href="#m5255fa437c" x="54" y="242.116364" style="fill: #262626; stroke: #262626; stroke-width: 1.25"/>
      </g>
     </g>
     <g id="text_9">
      <!-- 0.0 -->
      <g style="fill: #262626" transform="translate(29.21 246.053161)scale(0.11 -0.11)">
       <defs>
        <path id="ArialMT-2e" d="M 581 0 
L 581 641 
L 1222 641 
L 1222 0 
L 581 0 
z
" transform="scale(0.015625)"/>
       </defs>
       <use xlink:href="#ArialMT-30"/>
       <use xlink:href="#ArialMT-2e" x="55.615234"/>
       <use xlink:href="#ArialMT-30" x="83.398438"/>
      </g>
     </g>
    </g>
    <g id="ytick_2">
     <g id="line2d_9">
      <g>
       <use xlink:href="#m5255fa437c" x="54" y="202.581818" style="fill: #262626; stroke: #262626; stroke-width: 1.25"/>
      </g>
     </g>
     <g id="text_10">
      <!-- 0.2 -->
      <g style="fill: #262626" transform="translate(29.21 206.518615)scale(0.11 -0.11)">
       <use xlink:href="#ArialMT-30"/>
       <use xlink:href="#ArialMT-2e" x="55.615234"/>
       <use xlink:href="#ArialMT-32" x="83.398438"/>
      </g>
     </g>
    </g>
    <g id="ytick_3">
     <g id="line2d_10">
      <g>
       <use xlink:href="#m5255fa437c" x="54" y="163.047273" style="fill: #262626; stroke: #262626; stroke-width: 1.25"/>
      </g>
     </g>
     <g id="text_11">
      <!-- 0.4 -->
      <g style="fill: #262626" transform="translate(29.21 166.98407)scale(0.11 -0.11)">
       <defs>
        <path id="ArialMT-34" d="M 2069 0 
L 2069 1097 
L 81 1097 
L 81 1613 
L 2172 4581 
L 2631 4581 
L 2631 1613 
L 3250 1613 
L 3250 1097 
L 2631 1097 
L 2631 0 
L 2069 0 
z
M 2069 1613 
L 2069 3678 
L 634 1613 
L 2069 1613 
z
" transform="scale(0.015625)"/>
       </defs>
       <use xlink:href="#ArialMT-30"/>
       <use xlink:href="#ArialMT-2e" x="55.615234"/>
       <use xlink:href="#ArialMT-34" x="83.398438"/>
      </g>
     </g>
    </g>
    <g id="ytick_4">
     <g id="line2d_11">
      <g>
       <use xlink:href="#m5255fa437c" x="54" y="123.512727" style="fill: #262626; stroke: #262626; stroke-width: 1.25"/>
      </g>
     </g>
     <g id="text_12">
      <!-- 0.6 -->
      <g style="fill: #262626" transform="translate(29.21 127.449524)scale(0.11 -0.11)">
       <defs>
        <path id="ArialMT-36" d="M 3184 3459 
L 2625 3416 
Q 2550 3747 2413 3897 
Q 2184 4138 1850 4138 
Q 1581 4138 1378 3988 
Q 1113 3794 959 3422 
Q 806 3050 800 2363 
Q 1003 2672 1297 2822 
Q 1591 2972 1913 2972 
Q 2475 2972 2870 2558 
Q 3266 2144 3266 1488 
Q 3266 1056 3080 686 
Q 2894 316 2569 119 
Q 2244 -78 1831 -78 
Q 1128 -78 684 439 
Q 241 956 241 2144 
Q 241 3472 731 4075 
Q 1159 4600 1884 4600 
Q 2425 4600 2770 4297 
Q 3116 3994 3184 3459 
z
M 888 1484 
Q 888 1194 1011 928 
Q 1134 663 1356 523 
Q 1578 384 1822 384 
Q 2178 384 2434 671 
Q 2691 959 2691 1453 
Q 2691 1928 2437 2201 
Q 2184 2475 1800 2475 
Q 1419 2475 1153 2201 
Q 888 1928 888 1484 
z
" transform="scale(0.015625)"/>
       </defs>
       <use xlink:href="#ArialMT-30"/>
       <use xlink:href="#ArialMT-2e" x="55.615234"/>
       <use xlink:href="#ArialMT-36" x="83.398438"/>
      </g>
     </g>
    </g>
    <g id="ytick_5">
     <g id="line2d_12">
      <g>
       <use xlink:href="#m5255fa437c" x="54" y="83.978182" style="fill: #262626; stroke: #262626; stroke-width: 1.25"/>
      </g>
     </g>
     <g id="text_13">
      <!-- 0.8 -->
      <g style="fill: #262626" transform="translate(29.21 87.914979)scale(0.11 -0.11)">
       <defs>
        <path id="ArialMT-38" d="M 1131 2484 
Q 781 2613 612 2850 
Q 444 3088 444 3419 
Q 444 3919 803 4259 
Q 1163 4600 1759 4600 
Q 2359 4600 2725 4251 
Q 3091 3903 3091 3403 
Q 3091 3084 2923 2848 
Q 2756 2613 2416 2484 
Q 2838 2347 3058 2040 
Q 3278 1734 3278 1309 
Q 3278 722 2862 322 
Q 2447 -78 1769 -78 
Q 1091 -78 675 323 
Q 259 725 259 1325 
Q 259 1772 486 2073 
Q 713 2375 1131 2484 
z
M 1019 3438 
Q 1019 3113 1228 2906 
Q 1438 2700 1772 2700 
Q 2097 2700 2305 2904 
Q 2513 3109 2513 3406 
Q 2513 3716 2298 3927 
Q 2084 4138 1766 4138 
Q 1444 4138 1231 3931 
Q 1019 3725 1019 3438 
z
M 838 1322 
Q 838 1081 952 856 
Q 1066 631 1291 507 
Q 1516 384 1775 384 
Q 2178 384 2440 643 
Q 2703 903 2703 1303 
Q 2703 1709 2433 1975 
Q 2163 2241 1756 2241 
Q 1359 2241 1098 1978 
Q 838 1716 838 1322 
z
" transform="scale(0.015625)"/>
       </defs>
       <use xlink:href="#ArialMT-30"/>
       <use xlink:href="#ArialMT-2e" x="55.615234"/>
       <use xlink:href="#ArialMT-38" x="83.398438"/>
      </g>
     </g>
    </g>
    <g id="ytick_6">
     <g id="line2d_13">
      <g>
       <use xlink:href="#m5255fa437c" x="54" y="44.443636" style="fill: #262626; stroke: #262626; stroke-width: 1.25"/>
      </g>
     </g>
     <g id="text_14">
      <!-- 1.0 -->
      <g style="fill: #262626" transform="translate(29.21 48.380433)scale(0.11 -0.11)">
       <use xlink:href="#ArialMT-31"/>
       <use xlink:href="#ArialMT-2e" x="55.615234"/>
       <use xlink:href="#ArialMT-30" x="83.398438"/>
      </g>
     </g>
    </g>
   </g>
   <g id="line2d_14">
    <path d="M 54 242.116253 
L 159.374883 242.059481 
L 160.418199 241.67949 
L 161.461514 242.064736 
L 162.50483 242.029264 
L 163.548146 240.462928 
L 164.591462 242.006236 
L 165.634777 241.612469 
L 166.678093 240.916636 
L 167.721409 241.928462 
L 168.764724 240.286287 
L 169.80804 241.952804 
L 170.851356 234.69434 
L 171.894671 239.273046 
L 172.937987 238.901261 
L 173.981303 238.368856 
L 175.024618 240.490122 
L 176.067934 241.611533 
L 177.11125 240.853822 
L 178.154565 241.630851 
L 179.197881 239.890807 
L 180.241197 241.343152 
L 181.284512 236.46426 
L 182.327828 241.161407 
L 183.371144 234.398276 
L 184.414459 239.620677 
L 185.457775 237.556897 
L 186.501091 240.878543 
L 187.544406 241.787683 
L 188.587722 239.445217 
L 189.631038 241.047642 
L 190.674353 234.833678 
L 191.717669 235.940564 
L 192.760985 238.062152 
L 193.8043 236.94905 
L 194.847616 237.934619 
L 195.890932 241.810577 
L 196.934247 241.378087 
L 197.977563 242.040066 
L 199.020879 241.594799 
L 200.064194 240.97397 
L 201.10751 241.932489 
L 202.150826 240.058706 
L 203.194141 239.363126 
L 204.237457 241.169727 
L 205.280773 241.366986 
L 206.324089 240.581158 
L 207.367404 241.716189 
L 208.41072 241.418202 
L 210.497351 241.902005 
L 211.540667 240.936288 
L 212.583983 241.979199 
L 213.627298 239.72219 
L 214.670614 239.891035 
L 215.71393 241.897943 
L 216.757245 242.009354 
L 217.800561 240.870798 
L 218.843877 241.121662 
L 219.887192 241.541162 
L 220.930508 240.375942 
L 221.973824 241.892156 
L 223.017139 240.217437 
L 224.060455 237.771225 
L 225.103771 239.024309 
L 226.147086 209.998558 
L 227.190402 176.505532 
L 228.233718 44.443636 
L 229.277033 144.012238 
L 230.320349 196.983891 
L 231.363665 235.200365 
L 233.450296 240.464346 
L 234.493612 241.655689 
L 235.536927 239.742266 
L 236.580243 241.678419 
L 237.623559 239.269133 
L 238.666874 241.761226 
L 239.71019 241.527031 
L 240.753506 239.977718 
L 241.796821 239.89762 
L 242.840137 241.291804 
L 243.883453 240.401735 
L 244.926768 241.799758 
L 245.970084 241.989646 
L 247.0134 241.610235 
L 248.056715 240.714291 
L 249.100031 241.787744 
L 250.143347 241.756044 
L 251.186663 241.412685 
L 252.229978 241.710838 
L 253.273294 240.786334 
L 254.31661 241.446753 
L 255.359925 241.53302 
L 256.403241 241.774613 
L 258.489872 242.095218 
L 259.533188 241.796087 
L 260.576504 241.935981 
L 261.619819 241.777083 
L 262.663135 241.830858 
L 263.706451 242.021119 
L 264.749766 241.801412 
L 265.793082 241.832139 
L 266.836398 241.538571 
L 267.879713 242.057983 
L 268.923029 241.818706 
L 271.00966 241.98986 
L 272.052976 241.838683 
L 273.096292 242.092927 
L 275.182923 241.894976 
L 276.226239 242.099896 
L 278.31287 242.058905 
L 299.179184 242.108823 
L 347.171705 242.115602 
L 388.904332 242.116047 
L 388.904332 242.116047 
" clip-path="url(#pfcfac6950c)" style="fill: none; stroke: #4c72b0; stroke-opacity: 0.3; stroke-width: 1.5; stroke-linecap: round"/>
   </g>
   <g id="line2d_15">
    <path d="M 54 242.097402 
L 155.20162 242.038013 
L 156.244936 241.388881 
L 157.288252 242.069203 
L 158.331567 241.943863 
L 159.374883 240.174477 
L 160.418199 235.720695 
L 161.461514 241.580367 
L 162.50483 239.40278 
L 163.548146 236.711686 
L 164.591462 234.374326 
L 165.634777 234.389739 
L 166.678093 240.743138 
L 167.721409 216.624424 
L 168.764724 238.796707 
L 169.80804 241.234477 
L 170.851356 123.960584 
L 171.894671 199.049456 
L 172.937987 211.926267 
L 173.981303 210.199167 
L 175.024618 232.549432 
L 176.067934 234.450794 
L 177.11125 235.665722 
L 178.154565 239.154342 
L 179.197881 237.493372 
L 180.241197 222.3665 
L 181.284512 239.95138 
L 182.327828 236.942086 
L 183.371144 241.268195 
L 184.414459 230.697343 
L 185.457775 242.053714 
L 186.501091 226.969967 
L 187.544406 237.078978 
L 188.587722 228.206866 
L 189.631038 229.324349 
L 190.674353 227.546707 
L 191.717669 171.169592 
L 192.760985 226.936131 
L 193.8043 225.318814 
L 194.847616 216.166109 
L 195.890932 238.744166 
L 196.934247 235.055867 
L 197.977563 236.702101 
L 199.020879 240.936879 
L 200.064194 241.852639 
L 201.10751 237.149572 
L 202.150826 239.925408 
L 203.194141 242.092184 
L 204.237457 239.133297 
L 205.280773 239.718403 
L 206.324089 237.98915 
L 207.367404 235.974416 
L 208.41072 237.98279 
L 209.454036 241.329005 
L 210.497351 228.234226 
L 211.540667 239.462039 
L 212.583983 236.374678 
L 213.627298 241.379156 
L 214.670614 229.51085 
L 216.757245 241.103659 
L 217.800561 232.463966 
L 218.843877 240.027845 
L 219.887192 231.396907 
L 220.930508 238.191226 
L 221.973824 238.460749 
L 223.017139 241.393486 
L 224.060455 238.538442 
L 225.103771 239.927264 
L 226.147086 183.187268 
L 227.190402 210.863865 
L 228.233718 44.443636 
L 229.277033 60.489102 
L 230.320349 118.89234 
L 231.363665 211.540768 
L 232.40698 167.675058 
L 233.450296 183.762521 
L 234.493612 219.897146 
L 235.536927 189.102314 
L 236.580243 229.664721 
L 238.666874 241.957756 
L 239.71019 235.66222 
L 240.753506 232.082282 
L 241.796821 229.866025 
L 242.840137 227.005588 
L 243.883453 203.200481 
L 244.926768 227.390464 
L 245.970084 234.17984 
L 247.0134 229.955828 
L 248.056715 241.821715 
L 249.100031 239.427242 
L 250.143347 231.132846 
L 251.186663 227.922069 
L 252.229978 220.072192 
L 253.273294 209.337311 
L 254.31661 223.366276 
L 255.359925 235.018355 
L 256.403241 229.584559 
L 257.446557 237.93061 
L 258.489872 239.634363 
L 259.533188 239.980541 
L 260.576504 240.551154 
L 261.619819 240.274655 
L 262.663135 240.591851 
L 263.706451 236.405558 
L 264.749766 240.788734 
L 265.793082 242.052598 
L 266.836398 241.129286 
L 267.879713 240.758887 
L 268.923029 241.70021 
L 269.966345 241.154317 
L 271.00966 242.05212 
L 272.052976 240.824889 
L 273.096292 240.858065 
L 274.139607 241.364266 
L 275.182923 240.593045 
L 276.226239 241.282994 
L 277.269554 242.110626 
L 278.31287 242.045961 
L 279.356186 240.566247 
L 280.399501 240.783198 
L 281.442817 241.860488 
L 282.486133 240.835079 
L 283.529448 242.051513 
L 284.572764 241.782601 
L 285.61608 242.029054 
L 286.659395 241.933668 
L 287.702711 242.100905 
L 288.746027 241.968387 
L 289.789342 242.060513 
L 292.919289 242.033966 
L 295.005921 242.040668 
L 306.482393 242.101265 
L 353.431599 242.112255 
L 388.904332 242.114008 
L 388.904332 242.114008 
" clip-path="url(#pfcfac6950c)" style="fill: none; stroke: #dd8452; stroke-opacity: 0.3; stroke-width: 1.5; stroke-linecap: round"/>
   </g>
   <g id="line2d_16">
    <path d="M 54 242.115316 
L 157.288252 242.104812 
L 158.331567 241.852787 
L 159.374883 242.028088 
L 160.418199 241.313428 
L 161.461514 241.872364 
L 162.50483 240.995863 
L 163.548146 241.051478 
L 164.591462 241.433524 
L 165.634777 240.778512 
L 166.678093 239.412207 
L 167.721409 239.889309 
L 168.764724 235.312468 
L 169.80804 241.099869 
L 170.851356 230.972729 
L 171.894671 240.227364 
L 172.937987 239.539669 
L 173.981303 241.629431 
L 175.024618 219.010155 
L 176.067934 202.046609 
L 177.11125 228.008561 
L 178.154565 241.248299 
L 179.197881 239.886015 
L 180.241197 241.612574 
L 181.284512 236.239859 
L 182.327828 233.402157 
L 183.371144 232.179628 
L 184.414459 236.867443 
L 185.457775 236.13617 
L 186.501091 214.4475 
L 187.544406 221.979307 
L 188.587722 221.292285 
L 189.631038 219.882552 
L 190.674353 236.266373 
L 191.717669 236.930572 
L 192.760985 240.4013 
L 193.8043 239.494878 
L 194.847616 236.038099 
L 195.890932 238.392057 
L 196.934247 232.355344 
L 197.977563 236.249017 
L 199.020879 241.990017 
L 200.064194 237.989752 
L 201.10751 235.875698 
L 202.150826 237.603311 
L 203.194141 241.831482 
L 204.237457 233.038158 
L 205.280773 240.502076 
L 206.324089 239.121094 
L 207.367404 233.691136 
L 208.41072 202.040076 
L 209.454036 237.414953 
L 210.497351 239.351659 
L 211.540667 240.69546 
L 212.583983 231.16313 
L 213.627298 236.990693 
L 214.670614 236.505674 
L 215.71393 225.140674 
L 216.757245 196.008122 
L 217.800561 188.793937 
L 218.843877 216.966175 
L 219.887192 231.715513 
L 220.930508 230.787325 
L 221.973824 215.686 
L 223.017139 240.656681 
L 224.060455 227.605427 
L 225.103771 201.17508 
L 226.147086 143.370492 
L 227.190402 214.134441 
L 228.233718 44.443636 
L 229.277033 134.6464 
L 230.320349 119.905734 
L 231.363665 202.288965 
L 232.40698 202.96829 
L 234.493612 241.789374 
L 235.536927 238.057874 
L 236.580243 241.361091 
L 238.666874 224.534357 
L 239.71019 240.490929 
L 240.753506 230.528958 
L 241.796821 225.13575 
L 242.840137 229.530528 
L 243.883453 233.340602 
L 244.926768 235.711625 
L 245.970084 236.077678 
L 247.0134 232.485093 
L 248.056715 238.282107 
L 249.100031 240.04051 
L 250.143347 238.635474 
L 251.186663 239.90042 
L 252.229978 229.541968 
L 253.273294 239.351485 
L 254.31661 236.954414 
L 255.359925 233.468664 
L 256.403241 240.80082 
L 257.446557 238.911727 
L 258.489872 240.917653 
L 259.533188 241.457995 
L 260.576504 240.256981 
L 261.619819 239.788756 
L 262.663135 240.12715 
L 263.706451 229.645563 
L 264.749766 241.955327 
L 265.793082 240.104458 
L 266.836398 241.643396 
L 267.879713 241.478754 
L 268.923029 241.95343 
L 269.966345 240.515073 
L 271.00966 241.69679 
L 272.052976 240.455836 
L 273.096292 241.203957 
L 274.139607 240.072445 
L 275.182923 239.722098 
L 276.226239 241.42902 
L 277.269554 241.94076 
L 278.31287 241.241549 
L 280.399501 241.903464 
L 281.442817 241.303234 
L 282.486133 242.047174 
L 283.529448 241.858398 
L 284.572764 242.054983 
L 286.659395 242.087232 
L 288.746027 242.093664 
L 289.789342 242.027438 
L 291.875974 242.073458 
L 306.482393 242.110287 
L 372.211281 242.114618 
L 388.904332 242.114919 
L 388.904332 242.114919 
" clip-path="url(#pfcfac6950c)" style="fill: none; stroke: #55a868; stroke-opacity: 0.3; stroke-width: 1.5; stroke-linecap: round"/>
   </g>
   <g id="line2d_17">
    <path d="M 54 242.098018 
L 155.20162 242.009531 
L 156.244936 241.905172 
L 157.288252 242.021085 
L 158.331567 241.970189 
L 159.374883 241.343686 
L 160.418199 242.051366 
L 161.461514 241.987788 
L 162.50483 241.541484 
L 163.548146 240.634246 
L 164.591462 241.30001 
L 165.634777 239.968596 
L 166.678093 231.906294 
L 167.721409 237.042953 
L 168.764724 232.757673 
L 169.80804 239.48722 
L 170.851356 237.693845 
L 171.894671 241.173325 
L 172.937987 238.402243 
L 173.981303 233.926302 
L 175.024618 241.856114 
L 176.067934 238.659667 
L 177.11125 231.848341 
L 178.154565 240.027981 
L 179.197881 241.735172 
L 180.241197 239.985416 
L 181.284512 240.708064 
L 182.327828 230.611989 
L 183.371144 234.71138 
L 184.414459 235.725257 
L 185.457775 240.161329 
L 186.501091 240.60861 
L 187.544406 240.817636 
L 188.587722 234.357793 
L 189.631038 241.339916 
L 190.674353 241.368548 
L 191.717669 235.071668 
L 192.760985 234.662062 
L 193.8043 239.503415 
L 194.847616 242.103976 
L 195.890932 241.521816 
L 196.934247 238.71632 
L 197.977563 240.630907 
L 199.020879 241.62613 
L 200.064194 241.429938 
L 201.10751 240.462802 
L 202.150826 241.289566 
L 203.194141 240.46805 
L 204.237457 241.542346 
L 205.280773 241.590388 
L 206.324089 241.883028 
L 207.367404 237.541048 
L 208.41072 241.549392 
L 209.454036 240.36642 
L 210.497351 238.408794 
L 211.540667 237.119972 
L 212.583983 238.068027 
L 213.627298 241.904324 
L 214.670614 238.38382 
L 215.71393 239.219645 
L 216.757245 241.25728 
L 217.800561 241.698203 
L 218.843877 241.164343 
L 219.887192 241.546886 
L 220.930508 237.265978 
L 221.973824 241.999109 
L 223.017139 242.033132 
L 224.060455 232.494538 
L 225.103771 240.60768 
L 226.147086 226.172208 
L 227.190402 229.67908 
L 228.233718 44.443636 
L 229.277033 90.216264 
L 231.363665 210.287047 
L 232.40698 211.603756 
L 233.450296 224.605521 
L 234.493612 235.684734 
L 235.536927 237.404238 
L 236.580243 241.668675 
L 237.623559 234.945819 
L 238.666874 237.280369 
L 239.71019 241.986785 
L 240.753506 236.404658 
L 241.796821 227.238652 
L 242.840137 235.831262 
L 243.883453 234.146469 
L 244.926768 230.731999 
L 245.970084 236.526566 
L 247.0134 240.488228 
L 248.056715 238.270256 
L 249.100031 241.367972 
L 250.143347 241.040653 
L 251.186663 240.935351 
L 252.229978 239.275219 
L 253.273294 239.397177 
L 254.31661 241.369777 
L 255.359925 238.545057 
L 256.403241 241.531327 
L 257.446557 241.645921 
L 258.489872 240.661105 
L 259.533188 241.296556 
L 260.576504 239.900578 
L 261.619819 239.652795 
L 262.663135 241.58003 
L 263.706451 241.967766 
L 264.749766 241.604932 
L 265.793082 240.32189 
L 266.836398 241.926366 
L 267.879713 239.382671 
L 268.923029 241.414354 
L 269.966345 241.16252 
L 271.00966 241.761212 
L 273.096292 242.017371 
L 274.139607 242.018064 
L 275.182923 241.860753 
L 277.269554 241.861252 
L 278.31287 242.078686 
L 279.356186 242.113438 
L 281.442817 241.823212 
L 283.529448 242.030377 
L 284.572764 241.920984 
L 286.659395 241.954637 
L 287.702711 241.932315 
L 288.746027 242.098989 
L 289.789342 242.016819 
L 295.005921 242.102177 
L 305.439078 242.091571 
L 340.911811 242.109122 
L 388.904332 242.11343 
L 388.904332 242.11343 
" clip-path="url(#pfcfac6950c)" style="fill: none; stroke: #c44e52; stroke-opacity: 0.3; stroke-width: 1.5; stroke-linecap: round"/>
   </g>
   <g id="line2d_18">
    <path d="M 54 242.108586 
L 151.028358 242.08292 
L 152.071673 241.956539 
L 153.114989 242.07741 
L 154.158305 242.008867 
L 155.20162 241.621701 
L 156.244936 241.451925 
L 157.288252 241.401374 
L 158.331567 240.486755 
L 159.374883 241.279947 
L 160.418199 241.800089 
L 161.461514 239.814899 
L 162.50483 218.313021 
L 163.548146 236.377276 
L 164.591462 230.103193 
L 165.634777 219.702101 
L 166.678093 217.301122 
L 167.721409 220.736891 
L 168.764724 240.466449 
L 169.80804 238.531612 
L 170.851356 234.71918 
L 171.894671 239.482478 
L 172.937987 235.342006 
L 173.981303 209.081338 
L 175.024618 44.443636 
L 176.067934 240.714541 
L 177.11125 173.145133 
L 178.154565 206.333751 
L 179.197881 182.572362 
L 180.241197 118.096705 
L 181.284512 227.496151 
L 182.327828 230.643647 
L 183.371144 237.172729 
L 184.414459 147.395416 
L 185.457775 218.997897 
L 187.544406 166.16546 
L 188.587722 171.54135 
L 189.631038 162.986034 
L 190.674353 212.970276 
L 191.717669 240.32741 
L 192.760985 241.800404 
L 193.8043 212.295535 
L 194.847616 241.4285 
L 195.890932 195.055889 
L 196.934247 156.454972 
L 197.977563 232.828177 
L 200.064194 188.300745 
L 201.10751 230.926018 
L 202.150826 113.358058 
L 203.194141 180.640034 
L 204.237457 168.654542 
L 205.280773 238.768079 
L 206.324089 226.274864 
L 207.367404 192.611187 
L 208.41072 240.300682 
L 209.454036 192.346148 
L 210.497351 213.320758 
L 211.540667 184.73142 
L 212.583983 203.446122 
L 213.627298 164.568628 
L 214.670614 194.961071 
L 215.71393 232.833441 
L 216.757245 208.257995 
L 217.800561 241.727805 
L 218.843877 165.135228 
L 219.887192 240.624797 
L 220.930508 182.52396 
L 221.973824 239.885031 
L 223.017139 232.374756 
L 224.060455 161.442176 
L 225.103771 188.478682 
L 226.147086 209.241683 
L 227.190402 209.123828 
L 228.233718 227.261507 
L 229.277033 201.537784 
L 230.320349 227.668755 
L 231.363665 154.135391 
L 232.40698 219.296878 
L 233.450296 227.788159 
L 234.493612 188.24944 
L 235.536927 207.659449 
L 236.580243 237.849822 
L 237.623559 106.428951 
L 238.666874 232.668735 
L 239.71019 167.359016 
L 240.753506 234.226013 
L 241.796821 233.396196 
L 242.840137 212.936873 
L 243.883453 240.004111 
L 244.926768 241.843591 
L 245.970084 209.162875 
L 247.0134 236.451685 
L 248.056715 208.988024 
L 249.100031 240.550025 
L 250.143347 194.765678 
L 251.186663 241.539922 
L 252.229978 180.187715 
L 253.273294 196.74065 
L 254.31661 233.810015 
L 255.359925 174.216936 
L 256.403241 238.217842 
L 257.446557 237.179075 
L 258.489872 195.728026 
L 259.533188 239.139981 
L 260.576504 237.141923 
L 261.619819 224.855395 
L 262.663135 230.011728 
L 263.706451 232.276024 
L 264.749766 191.717382 
L 265.793082 205.154775 
L 266.836398 233.331617 
L 267.879713 235.27906 
L 268.923029 236.319385 
L 269.966345 211.041659 
L 271.00966 237.880079 
L 272.052976 227.578848 
L 273.096292 241.939808 
L 274.139607 236.720184 
L 275.182923 233.323509 
L 276.226239 239.80766 
L 277.269554 235.32231 
L 278.31287 240.638074 
L 279.356186 240.037784 
L 280.399501 241.094981 
L 281.442817 241.489149 
L 282.486133 237.796591 
L 283.529448 240.043008 
L 284.572764 241.484929 
L 286.659395 241.235513 
L 287.702711 240.501064 
L 288.746027 242.093981 
L 289.789342 241.374473 
L 290.832658 241.937455 
L 292.919289 242.055552 
L 293.962605 241.87773 
L 295.005921 242.065436 
L 296.049237 241.96156 
L 299.179184 242.113738 
L 302.309131 242.106253 
L 320.045497 242.10728 
L 388.904332 242.114532 
L 388.904332 242.114532 
" clip-path="url(#pfcfac6950c)" style="fill: none; stroke: #8172b3; stroke-opacity: 0.3; stroke-width: 1.5; stroke-linecap: round"/>
   </g>
   <g id="line2d_19">
    <path d="M 54 242.113032 
L 153.114989 242.043509 
L 154.158305 241.996935 
L 155.20162 242.086307 
L 156.244936 241.855531 
L 157.288252 241.772647 
L 158.331567 242.086326 
L 159.374883 242.077505 
L 160.418199 241.318447 
L 161.461514 241.786225 
L 162.50483 240.046933 
L 163.548146 237.284621 
L 164.591462 232.412303 
L 165.634777 237.911269 
L 166.678093 233.034613 
L 167.721409 241.827965 
L 168.764724 240.514155 
L 169.80804 237.97483 
L 170.851356 237.101003 
L 171.894671 235.547246 
L 172.937987 234.568709 
L 173.981303 233.988086 
L 175.024618 190.060784 
L 176.067934 239.828444 
L 177.11125 217.240318 
L 178.154565 229.983809 
L 179.197881 235.443273 
L 180.241197 212.965397 
L 181.284512 237.277019 
L 182.327828 239.835247 
L 183.371144 239.9823 
L 184.414459 204.215948 
L 185.457775 229.550114 
L 186.501091 229.796627 
L 187.544406 218.714731 
L 188.587722 230.691683 
L 189.631038 220.424342 
L 190.674353 236.631095 
L 191.717669 234.80562 
L 192.760985 238.554263 
L 193.8043 241.770179 
L 194.847616 241.738588 
L 196.934247 182.8153 
L 197.977563 241.201792 
L 199.020879 208.11208 
L 200.064194 236.08711 
L 201.10751 235.197059 
L 202.150826 191.626878 
L 203.194141 222.747884 
L 204.237457 232.982392 
L 205.280773 240.079727 
L 206.324089 228.024562 
L 207.367404 236.001338 
L 208.41072 239.506301 
L 209.454036 237.492764 
L 210.497351 241.002326 
L 211.540667 232.563163 
L 212.583983 231.170122 
L 213.627298 197.199943 
L 214.670614 235.461889 
L 215.71393 240.62045 
L 216.757245 216.164971 
L 217.800561 241.585446 
L 218.843877 218.607915 
L 219.887192 241.550477 
L 220.930508 226.493628 
L 221.973824 237.620937 
L 223.017139 236.892482 
L 224.060455 222.650636 
L 225.103771 225.191246 
L 226.147086 230.050555 
L 227.190402 44.443636 
L 229.277033 174.434693 
L 230.320349 220.532097 
L 231.363665 220.018969 
L 232.40698 229.933765 
L 233.450296 236.41665 
L 234.493612 234.051007 
L 235.536927 227.881729 
L 236.580243 241.183628 
L 237.623559 211.645345 
L 238.666874 241.47198 
L 239.71019 221.736707 
L 240.753506 241.997744 
L 241.796821 242.050142 
L 242.840137 236.171532 
L 243.883453 237.44931 
L 244.926768 240.706016 
L 245.970084 240.818188 
L 247.0134 235.284338 
L 248.056715 234.428102 
L 249.100031 241.709752 
L 250.143347 207.547569 
L 251.186663 238.089728 
L 252.229978 224.542802 
L 253.273294 231.288801 
L 254.31661 241.232188 
L 255.359925 215.562375 
L 256.403241 239.375049 
L 257.446557 240.798711 
L 258.489872 237.833946 
L 259.533188 237.394164 
L 260.576504 239.888623 
L 261.619819 231.92896 
L 262.663135 241.659836 
L 263.706451 241.074464 
L 264.749766 232.153033 
L 265.793082 233.014714 
L 266.836398 238.396897 
L 267.879713 239.975649 
L 268.923029 237.091863 
L 269.966345 234.955126 
L 271.00966 240.373726 
L 272.052976 234.027964 
L 273.096292 241.762341 
L 274.139607 241.610968 
L 275.182923 239.196567 
L 276.226239 242.047576 
L 277.269554 239.460103 
L 278.31287 241.617773 
L 279.356186 240.551413 
L 280.399501 241.194578 
L 281.442817 242.085609 
L 282.486133 240.921407 
L 283.529448 241.573101 
L 284.572764 242.054294 
L 285.61608 242.075194 
L 287.702711 241.575878 
L 288.746027 242.032755 
L 289.789342 241.994356 
L 291.875974 242.112457 
L 307.525709 242.107063 
L 332.565285 242.114842 
L 388.904332 242.115453 
L 388.904332 242.115453 
" clip-path="url(#pfcfac6950c)" style="fill: none; stroke: #937860; stroke-opacity: 0.3; stroke-width: 1.5; stroke-linecap: round"/>
   </g>
   <g id="line2d_20">
    <path d="M 54 242.114404 
L 156.244936 242.071805 
L 159.374883 241.937646 
L 160.418199 241.394844 
L 161.461514 242.068301 
L 162.50483 242.083963 
L 163.548146 239.930563 
L 164.591462 241.802639 
L 165.634777 241.380464 
L 166.678093 240.721735 
L 167.721409 241.777153 
L 168.764724 241.5325 
L 169.80804 241.61865 
L 170.851356 234.221464 
L 171.894671 238.58174 
L 172.937987 239.028 
L 173.981303 241.018703 
L 175.024618 241.748714 
L 176.067934 240.052286 
L 177.11125 241.811555 
L 178.154565 241.36471 
L 179.197881 239.981854 
L 180.241197 241.287829 
L 181.284512 240.503087 
L 182.327828 240.454375 
L 183.371144 241.725685 
L 184.414459 241.613047 
L 185.457775 241.848362 
L 187.544406 241.892864 
L 188.587722 240.199656 
L 189.631038 240.168777 
L 190.674353 239.145421 
L 191.717669 237.860839 
L 192.760985 240.172241 
L 193.8043 239.4602 
L 194.847616 241.604644 
L 195.890932 240.136153 
L 196.934247 241.158267 
L 197.977563 241.266013 
L 199.020879 240.328981 
L 200.064194 241.634512 
L 201.10751 241.80809 
L 202.150826 240.145396 
L 203.194141 241.405824 
L 204.237457 241.625571 
L 205.280773 241.229158 
L 206.324089 241.654898 
L 207.367404 240.425084 
L 208.41072 240.611966 
L 209.454036 240.995478 
L 210.497351 241.630847 
L 211.540667 241.115011 
L 212.583983 241.995729 
L 213.627298 241.37576 
L 214.670614 241.211782 
L 215.71393 241.919332 
L 216.757245 242.113075 
L 217.800561 241.952145 
L 218.843877 241.221063 
L 219.887192 242.059939 
L 220.930508 241.755351 
L 223.017139 241.865172 
L 224.060455 237.718947 
L 225.103771 241.431724 
L 227.190402 180.610757 
L 228.233718 44.443636 
L 229.277033 123.555794 
L 230.320349 186.555845 
L 231.363665 229.924544 
L 232.40698 228.472837 
L 233.450296 237.13663 
L 234.493612 240.302546 
L 235.536927 236.482657 
L 236.580243 241.060015 
L 237.623559 239.118356 
L 238.666874 241.038111 
L 239.71019 240.983105 
L 240.753506 239.099646 
L 242.840137 240.188685 
L 243.883453 237.951328 
L 244.926768 240.593688 
L 245.970084 241.667686 
L 247.0134 240.92008 
L 248.056715 240.859448 
L 249.100031 241.023239 
L 250.143347 240.571674 
L 251.186663 240.799099 
L 252.229978 241.42747 
L 253.273294 240.92622 
L 255.359925 241.539896 
L 256.403241 241.213677 
L 257.446557 242.03197 
L 258.489872 242.066407 
L 259.533188 241.624871 
L 260.576504 241.920264 
L 261.619819 241.763364 
L 262.663135 241.935571 
L 263.706451 241.571407 
L 265.793082 241.452571 
L 266.836398 241.491594 
L 267.879713 241.987056 
L 268.923029 241.739412 
L 269.966345 241.945699 
L 272.052976 242.030163 
L 273.096292 241.973852 
L 274.139607 242.06098 
L 275.182923 241.972379 
L 276.226239 242.090556 
L 278.31287 241.982278 
L 280.399501 242.060345 
L 283.529448 242.068813 
L 292.919289 242.105143 
L 388.904332 242.116039 
L 388.904332 242.116039 
" clip-path="url(#pfcfac6950c)" style="fill: none; stroke: #da8bc3; stroke-opacity: 0.3; stroke-width: 1.5; stroke-linecap: round"/>
   </g>
   <g id="line2d_21">
    <path d="M 54 242.116007 
L 159.374883 242.107032 
L 160.418199 241.75177 
L 161.461514 242.061809 
L 162.50483 241.716478 
L 163.548146 241.690642 
L 164.591462 241.450035 
L 165.634777 240.913149 
L 166.678093 241.369362 
L 167.721409 240.063096 
L 168.764724 241.822381 
L 169.80804 241.897232 
L 170.851356 240.873925 
L 171.894671 241.43353 
L 172.937987 237.931953 
L 173.981303 235.53114 
L 175.024618 240.717072 
L 176.067934 240.725201 
L 177.11125 239.326136 
L 178.154565 240.914551 
L 179.197881 239.288817 
L 180.241197 241.697272 
L 181.284512 235.656539 
L 182.327828 241.999167 
L 183.371144 234.591353 
L 184.414459 237.354724 
L 185.457775 234.663861 
L 186.501091 238.757054 
L 187.544406 238.769346 
L 188.587722 241.612088 
L 189.631038 241.84439 
L 190.674353 234.084915 
L 191.717669 232.713445 
L 192.760985 239.191266 
L 193.8043 232.346741 
L 194.847616 233.594681 
L 195.890932 239.577597 
L 196.934247 238.48504 
L 197.977563 239.72448 
L 199.020879 239.76417 
L 200.064194 240.838514 
L 201.10751 241.289167 
L 202.150826 239.911537 
L 203.194141 239.424982 
L 204.237457 241.573991 
L 205.280773 241.312572 
L 206.324089 238.58388 
L 207.367404 241.341522 
L 208.41072 241.62523 
L 209.454036 240.292455 
L 211.540667 241.338948 
L 212.583983 241.197667 
L 213.627298 237.852558 
L 214.670614 236.058354 
L 215.71393 241.878371 
L 216.757245 240.550561 
L 217.800561 239.641191 
L 218.843877 239.245277 
L 219.887192 240.730278 
L 220.930508 238.171155 
L 221.973824 242.067093 
L 223.017139 240.634928 
L 224.060455 238.203917 
L 225.103771 239.291972 
L 226.147086 217.982904 
L 227.190402 146.496278 
L 228.233718 44.443636 
L 229.277033 107.3269 
L 230.320349 180.911999 
L 231.363665 236.496918 
L 232.40698 225.035668 
L 233.450296 234.204642 
L 234.493612 239.306635 
L 235.536927 232.937137 
L 236.580243 240.620091 
L 237.623559 240.763401 
L 238.666874 241.173866 
L 239.71019 239.735448 
L 240.753506 238.971917 
L 241.796821 238.802722 
L 242.840137 241.635532 
L 243.883453 234.201954 
L 244.926768 237.789869 
L 245.970084 239.38006 
L 247.0134 240.437827 
L 248.056715 240.282921 
L 249.100031 241.068559 
L 250.143347 240.153413 
L 251.186663 241.350576 
L 252.229978 240.049798 
L 253.273294 237.980041 
L 254.31661 240.211159 
L 255.359925 240.582006 
L 256.403241 239.646093 
L 257.446557 241.669064 
L 258.489872 241.988564 
L 259.533188 241.909782 
L 260.576504 241.978409 
L 261.619819 240.68919 
L 262.663135 241.597485 
L 263.706451 241.51818 
L 264.749766 241.029679 
L 265.793082 240.738339 
L 267.879713 241.857369 
L 268.923029 241.723139 
L 269.966345 242.044379 
L 271.00966 241.943689 
L 272.052976 242.020448 
L 273.096292 241.777676 
L 274.139607 242.075401 
L 276.226239 241.994456 
L 282.486133 242.058406 
L 298.135868 242.11102 
L 388.904332 242.116292 
L 388.904332 242.116292 
" clip-path="url(#pfcfac6950c)" style="fill: none; stroke: #8c8c8c; stroke-opacity: 0.3; stroke-width: 1.5; stroke-linecap: round"/>
   </g>
   <g id="line2d_22">
    <path d="M 54 242.081266 
L 154.158305 242.019739 
L 160.418199 241.771689 
L 161.461514 242.02912 
L 162.50483 241.631852 
L 163.548146 239.334294 
L 164.591462 240.990058 
L 165.634777 242.010934 
L 166.678093 235.811871 
L 167.721409 238.578592 
L 168.764724 238.452048 
L 169.80804 241.21146 
L 170.851356 237.717865 
L 171.894671 238.789923 
L 172.937987 237.348658 
L 173.981303 228.134616 
L 175.024618 207.105112 
L 176.067934 228.54108 
L 177.11125 231.24757 
L 178.154565 240.570956 
L 179.197881 236.893331 
L 180.241197 241.696239 
L 181.284512 235.218681 
L 182.327828 227.390082 
L 183.371144 231.859374 
L 184.414459 225.549985 
L 185.457775 236.906963 
L 186.501091 217.126374 
L 187.544406 231.270836 
L 188.587722 239.480957 
L 189.631038 237.390598 
L 190.674353 231.71487 
L 191.717669 232.38191 
L 192.760985 234.003223 
L 193.8043 231.978552 
L 194.847616 223.886605 
L 195.890932 240.697366 
L 196.934247 231.493965 
L 197.977563 237.824119 
L 199.020879 234.686181 
L 200.064194 237.037269 
L 201.10751 230.725707 
L 202.150826 237.785135 
L 203.194141 231.759127 
L 204.237457 231.3245 
L 205.280773 239.95801 
L 206.324089 223.795928 
L 207.367404 235.013067 
L 208.41072 234.896026 
L 209.454036 241.491926 
L 210.497351 233.867898 
L 211.540667 239.779517 
L 212.583983 226.623944 
L 213.627298 237.355117 
L 214.670614 222.413659 
L 215.71393 211.205005 
L 216.757245 230.280985 
L 217.800561 206.008131 
L 218.843877 235.315013 
L 219.887192 235.300324 
L 220.930508 239.852619 
L 221.973824 230.418423 
L 223.017139 234.753079 
L 224.060455 235.598882 
L 225.103771 227.672136 
L 226.147086 240.827041 
L 227.190402 79.437621 
L 228.233718 44.443636 
L 229.277033 102.643397 
L 230.320349 204.649115 
L 231.363665 240.345026 
L 232.40698 229.128396 
L 234.493612 239.580183 
L 235.536927 228.546139 
L 236.580243 236.581731 
L 237.623559 241.190994 
L 238.666874 240.426154 
L 239.71019 240.922706 
L 240.753506 239.138546 
L 241.796821 239.999922 
L 242.840137 240.400044 
L 243.883453 232.30691 
L 244.926768 239.687575 
L 245.970084 239.967307 
L 247.0134 237.268514 
L 248.056715 233.687822 
L 249.100031 235.784928 
L 250.143347 226.822448 
L 251.186663 232.042315 
L 252.229978 236.223542 
L 253.273294 239.068553 
L 254.31661 240.815561 
L 255.359925 241.935295 
L 256.403241 238.303464 
L 257.446557 239.426602 
L 258.489872 241.34733 
L 259.533188 239.213952 
L 260.576504 242.11556 
L 261.619819 241.157792 
L 262.663135 239.817879 
L 263.706451 234.499633 
L 264.749766 237.090927 
L 265.793082 237.152757 
L 266.836398 239.973726 
L 267.879713 240.218705 
L 268.923029 241.265515 
L 269.966345 242.10075 
L 271.00966 242.048092 
L 272.052976 239.846553 
L 273.096292 240.502056 
L 274.139607 240.510935 
L 275.182923 240.288751 
L 276.226239 241.627737 
L 277.269554 241.934512 
L 278.31287 241.465351 
L 279.356186 242.009249 
L 280.399501 241.297873 
L 281.442817 241.967752 
L 283.529448 241.678926 
L 284.572764 241.731107 
L 285.61608 242.082371 
L 286.659395 241.882539 
L 288.746027 242.024758 
L 290.832658 242.018953 
L 295.005921 242.02229 
L 299.179184 242.060199 
L 338.825179 242.101662 
L 388.904332 242.110462 
L 388.904332 242.110462 
" clip-path="url(#pfcfac6950c)" style="fill: none; stroke: #ccb974; stroke-opacity: 0.3; stroke-width: 1.5; stroke-linecap: round"/>
   </g>
   <g id="line2d_23">
    <path d="M 54 242.115989 
L 153.114989 242.077933 
L 154.158305 241.937729 
L 155.20162 242.101023 
L 158.331567 241.984372 
L 159.374883 242.086377 
L 160.418199 241.334028 
L 161.461514 241.990236 
L 162.50483 242.069691 
L 163.548146 235.694811 
L 164.591462 241.663906 
L 165.634777 240.193513 
L 166.678093 235.795202 
L 167.721409 239.836328 
L 168.764724 237.494296 
L 169.80804 240.775561 
L 170.851356 237.704806 
L 171.894671 240.357373 
L 173.981303 226.167538 
L 175.024618 238.000628 
L 176.067934 241.557497 
L 177.11125 242.089562 
L 178.154565 241.929195 
L 179.197881 236.75741 
L 180.241197 241.811404 
L 181.284512 219.998844 
L 182.327828 225.931647 
L 183.371144 212.280947 
L 184.414459 235.023988 
L 185.457775 232.173008 
L 186.501091 232.799934 
L 187.544406 237.343635 
L 188.587722 241.050425 
L 189.631038 238.98101 
L 190.674353 230.403975 
L 191.717669 238.58254 
L 192.760985 240.323911 
L 193.8043 241.027542 
L 194.847616 240.900016 
L 195.890932 237.075291 
L 196.934247 239.264107 
L 197.977563 242.021229 
L 199.020879 240.923261 
L 200.064194 241.457734 
L 201.10751 241.665697 
L 202.150826 240.818745 
L 204.237457 237.262983 
L 205.280773 238.445327 
L 206.324089 239.071146 
L 207.367404 236.390394 
L 208.41072 236.997996 
L 209.454036 242.065489 
L 210.497351 242.052026 
L 211.540667 234.29245 
L 212.583983 241.983523 
L 213.627298 239.2956 
L 214.670614 235.563898 
L 215.71393 241.660318 
L 216.757245 241.940303 
L 217.800561 240.557966 
L 218.843877 241.838217 
L 219.887192 241.451522 
L 220.930508 238.632703 
L 221.973824 241.904291 
L 223.017139 239.326576 
L 224.060455 234.019302 
L 225.103771 236.10149 
L 226.147086 210.304807 
L 227.190402 153.543003 
L 228.233718 44.443636 
L 229.277033 71.540345 
L 230.320349 197.608431 
L 231.363665 239.621865 
L 232.40698 235.58516 
L 233.450296 239.076063 
L 234.493612 240.072464 
L 235.536927 237.915595 
L 236.580243 239.336222 
L 237.623559 241.303705 
L 238.666874 241.914166 
L 239.71019 241.50383 
L 240.753506 241.796745 
L 241.796821 240.770636 
L 242.840137 241.135653 
L 243.883453 240.184719 
L 244.926768 240.020879 
L 245.970084 241.123372 
L 247.0134 240.099475 
L 248.056715 241.733791 
L 249.100031 240.837781 
L 250.143347 241.453845 
L 251.186663 241.178273 
L 252.229978 241.542536 
L 253.273294 240.218183 
L 254.31661 241.156602 
L 255.359925 240.712187 
L 256.403241 241.005318 
L 257.446557 242.026522 
L 258.489872 242.046318 
L 259.533188 241.733231 
L 260.576504 242.084909 
L 261.619819 242.0066 
L 262.663135 241.515602 
L 263.706451 241.927265 
L 264.749766 240.86249 
L 265.793082 241.559355 
L 266.836398 242.047123 
L 267.879713 241.654619 
L 268.923029 242.010463 
L 269.966345 241.847031 
L 271.00966 241.840248 
L 272.052976 241.599615 
L 274.139607 242.049116 
L 275.182923 242.098746 
L 276.226239 241.863005 
L 277.269554 241.888471 
L 278.31287 242.091704 
L 279.356186 242.021219 
L 280.399501 242.104997 
L 282.486133 242.038616 
L 286.659395 242.08331 
L 296.049237 242.104703 
L 388.904332 242.11593 
L 388.904332 242.11593 
" clip-path="url(#pfcfac6950c)" style="fill: none; stroke: #64b5cd; stroke-opacity: 0.3; stroke-width: 1.5; stroke-linecap: round"/>
   </g>
   <g id="line2d_24">
    <path d="M 54 242.11509 
L 154.158305 242.060565 
L 155.20162 241.746574 
L 156.244936 241.720089 
L 157.288252 240.618242 
L 158.331567 241.392059 
L 159.374883 241.078948 
L 160.418199 230.141785 
L 161.461514 240.786043 
L 162.50483 233.315949 
L 163.548146 237.79343 
L 164.591462 223.577152 
L 165.634777 200.275188 
L 166.678093 222.804873 
L 167.721409 144.885881 
L 168.764724 241.185532 
L 169.80804 219.766602 
L 170.851356 207.741399 
L 171.894671 233.30459 
L 172.937987 151.911396 
L 173.981303 139.983172 
L 175.024618 216.960648 
L 177.11125 104.832777 
L 178.154565 215.601153 
L 179.197881 199.785929 
L 180.241197 199.687261 
L 181.284512 240.304012 
L 182.327828 187.462782 
L 183.371144 231.125843 
L 184.414459 159.052002 
L 185.457775 215.984536 
L 186.501091 216.772251 
L 187.544406 236.630106 
L 189.631038 195.550428 
L 190.674353 183.770567 
L 191.717669 213.2996 
L 192.760985 237.598851 
L 194.847616 192.681056 
L 195.890932 223.800986 
L 196.934247 228.384 
L 197.977563 161.767902 
L 199.020879 168.103676 
L 201.10751 238.23744 
L 202.150826 239.511872 
L 203.194141 211.314643 
L 204.237457 196.81348 
L 205.280773 235.747304 
L 206.324089 239.372642 
L 207.367404 234.332825 
L 208.41072 224.964042 
L 209.454036 233.947432 
L 210.497351 229.494843 
L 211.540667 239.859497 
L 212.583983 226.762079 
L 213.627298 229.929139 
L 214.670614 242.105998 
L 215.71393 203.266893 
L 216.757245 236.761202 
L 217.800561 206.580306 
L 218.843877 241.103217 
L 219.887192 228.985232 
L 220.930508 226.453942 
L 221.973824 233.530103 
L 223.017139 224.671233 
L 224.060455 217.871842 
L 225.103771 221.832977 
L 226.147086 128.416434 
L 227.190402 174.976157 
L 228.233718 44.443636 
L 229.277033 176.896545 
L 230.320349 213.92978 
L 231.363665 173.415115 
L 232.40698 241.093265 
L 233.450296 234.256046 
L 234.493612 223.854562 
L 235.536927 217.003699 
L 236.580243 238.825966 
L 238.666874 239.970809 
L 239.71019 239.267343 
L 240.753506 231.038322 
L 241.796821 230.336952 
L 242.840137 216.78186 
L 243.883453 205.310636 
L 244.926768 228.285888 
L 245.970084 234.310605 
L 247.0134 222.954317 
L 248.056715 224.261775 
L 249.100031 242.110323 
L 250.143347 227.580163 
L 251.186663 231.23071 
L 252.229978 219.615549 
L 253.273294 225.925852 
L 254.31661 222.134972 
L 255.359925 234.006357 
L 256.403241 216.603276 
L 257.446557 240.285139 
L 258.489872 235.593664 
L 260.576504 231.346726 
L 261.619819 238.390545 
L 262.663135 241.888596 
L 263.706451 240.139959 
L 264.749766 234.596147 
L 265.793082 235.366166 
L 266.836398 237.760826 
L 267.879713 235.838162 
L 268.923029 235.799743 
L 269.966345 218.145124 
L 271.00966 221.252648 
L 272.052976 241.940099 
L 273.096292 239.697218 
L 274.139607 239.352887 
L 275.182923 238.509199 
L 276.226239 241.386938 
L 277.269554 240.057166 
L 278.31287 240.694176 
L 279.356186 241.872449 
L 280.399501 241.761576 
L 281.442817 241.849433 
L 282.486133 241.656915 
L 284.572764 242.020017 
L 285.61608 241.150395 
L 286.659395 241.794102 
L 287.702711 241.77194 
L 288.746027 242.103316 
L 289.789342 241.600633 
L 291.875974 242.106236 
L 296.049237 242.069965 
L 300.222499 242.09099 
L 307.525709 242.09599 
L 315.872234 242.09661 
L 374.297912 242.11191 
L 388.904332 242.112845 
L 388.904332 242.112845 
" clip-path="url(#pfcfac6950c)" style="fill: none; stroke: #4c72b0; stroke-opacity: 0.3; stroke-width: 1.5; stroke-linecap: round"/>
   </g>
   <g id="line2d_25">
    <path d="M 54 242.114006 
L 155.20162 242.083227 
L 156.244936 241.983416 
L 157.288252 241.642102 
L 158.331567 241.855798 
L 159.374883 241.882389 
L 160.418199 238.564065 
L 161.461514 241.49244 
L 162.50483 241.348288 
L 163.548146 241.366933 
L 164.591462 239.6816 
L 165.634777 238.921968 
L 166.678093 238.565015 
L 167.721409 235.751628 
L 168.764724 241.738837 
L 169.80804 223.104514 
L 170.851356 234.15473 
L 171.894671 239.619774 
L 172.937987 225.29259 
L 173.981303 202.328746 
L 175.024618 204.846219 
L 176.067934 241.099043 
L 177.11125 222.501219 
L 178.154565 236.424111 
L 179.197881 231.199623 
L 180.241197 231.533049 
L 181.284512 238.542925 
L 182.327828 239.676409 
L 183.371144 236.722637 
L 184.414459 215.101832 
L 185.457775 222.134631 
L 186.501091 212.416765 
L 188.587722 241.160579 
L 189.631038 241.919172 
L 191.717669 192.470841 
L 192.760985 229.800821 
L 193.8043 225.937734 
L 194.847616 218.484996 
L 195.890932 239.421716 
L 196.934247 234.936136 
L 197.977563 220.95063 
L 199.020879 215.862426 
L 200.064194 236.578352 
L 201.10751 234.19268 
L 202.150826 235.552 
L 203.194141 237.308822 
L 204.237457 231.801289 
L 205.280773 237.76053 
L 206.324089 228.353234 
L 207.367404 236.347256 
L 208.41072 234.101064 
L 209.454036 239.454815 
L 210.497351 239.108471 
L 211.540667 237.628194 
L 212.583983 238.896434 
L 213.627298 230.039899 
L 214.670614 239.12061 
L 215.71393 221.153652 
L 216.757245 238.252136 
L 217.800561 230.779135 
L 218.843877 238.611566 
L 219.887192 238.355422 
L 220.930508 238.819598 
L 221.973824 234.397178 
L 223.017139 232.683897 
L 224.060455 240.670452 
L 225.103771 214.313613 
L 226.147086 236.21205 
L 227.190402 185.406309 
L 228.233718 71.790916 
L 229.277033 44.443636 
L 230.320349 165.979274 
L 231.363665 234.844281 
L 232.40698 220.769114 
L 234.493612 240.826558 
L 235.536927 235.470702 
L 236.580243 239.537465 
L 237.623559 237.524203 
L 238.666874 240.849848 
L 239.71019 237.376616 
L 240.753506 241.542246 
L 241.796821 241.994981 
L 243.883453 237.248722 
L 245.970084 241.481151 
L 247.0134 241.394243 
L 248.056715 238.43955 
L 249.100031 239.143604 
L 251.186663 238.506054 
L 252.229978 230.984367 
L 253.273294 239.729803 
L 254.31661 239.59748 
L 255.359925 240.519287 
L 256.403241 241.144195 
L 257.446557 241.237117 
L 258.489872 241.580943 
L 259.533188 241.601396 
L 260.576504 237.949878 
L 261.619819 240.627076 
L 262.663135 241.724597 
L 263.706451 239.471148 
L 265.793082 240.425199 
L 266.836398 241.516763 
L 267.879713 238.851701 
L 268.923029 241.927141 
L 269.966345 239.77845 
L 271.00966 238.056631 
L 272.052976 241.576894 
L 273.096292 241.888103 
L 274.139607 241.173432 
L 275.182923 240.981748 
L 277.269554 241.954186 
L 279.356186 241.827519 
L 280.399501 242.102928 
L 282.486133 242.113752 
L 283.529448 241.850986 
L 284.572764 242.045105 
L 285.61608 242.114899 
L 289.789342 242.039489 
L 297.092552 242.095445 
L 388.904332 242.115655 
L 388.904332 242.115655 
" clip-path="url(#pfcfac6950c)" style="fill: none; stroke: #dd8452; stroke-opacity: 0.3; stroke-width: 1.5; stroke-linecap: round"/>
   </g>
   <g id="patch_3">
    <path d="M 54 252 
L 54 34.56 
" style="fill: none; stroke: #262626; stroke-width: 1.25; stroke-linejoin: miter; stroke-linecap: square"/>
   </g>
   <g id="patch_4">
    <path d="M 388.8 252 
L 388.8 34.56 
" style="fill: none; stroke: #262626; stroke-width: 1.25; stroke-linejoin: miter; stroke-linecap: square"/>
   </g>
   <g id="patch_5">
    <path d="M 54 252 
L 388.8 252 
" style="fill: none; stroke: #262626; stroke-width: 1.25; stroke-linejoin: miter; stroke-linecap: square"/>
   </g>
   <g id="patch_6">
    <path d="M 54 34.56 
L 388.8 34.56 
" style="fill: none; stroke: #262626; stroke-width: 1.25; stroke-linejoin: miter; stroke-linecap: square"/>
   </g>
   <g id="text_15">
    <!-- patient14_app05 - Power spectrum -->
    <g style="fill: #262626" transform="translate(128.0175 28.56)scale(0.12 -0.12)">
     <defs>
      <path id="ArialMT-70" d="M 422 -1272 
L 422 3319 
L 934 3319 
L 934 2888 
Q 1116 3141 1344 3267 
Q 1572 3394 1897 3394 
Q 2322 3394 2647 3175 
Q 2972 2956 3137 2557 
Q 3303 2159 3303 1684 
Q 3303 1175 3120 767 
Q 2938 359 2589 142 
Q 2241 -75 1856 -75 
Q 1575 -75 1351 44 
Q 1128 163 984 344 
L 984 -1272 
L 422 -1272 
z
M 931 1641 
Q 931 1000 1190 694 
Q 1450 388 1819 388 
Q 2194 388 2461 705 
Q 2728 1022 2728 1688 
Q 2728 2322 2467 2637 
Q 2206 2953 1844 2953 
Q 1484 2953 1207 2617 
Q 931 2281 931 1641 
z
" transform="scale(0.015625)"/>
      <path id="ArialMT-61" d="M 2588 409 
Q 2275 144 1986 34 
Q 1697 -75 1366 -75 
Q 819 -75 525 192 
Q 231 459 231 875 
Q 231 1119 342 1320 
Q 453 1522 633 1644 
Q 813 1766 1038 1828 
Q 1203 1872 1538 1913 
Q 2219 1994 2541 2106 
Q 2544 2222 2544 2253 
Q 2544 2597 2384 2738 
Q 2169 2928 1744 2928 
Q 1347 2928 1158 2789 
Q 969 2650 878 2297 
L 328 2372 
Q 403 2725 575 2942 
Q 747 3159 1072 3276 
Q 1397 3394 1825 3394 
Q 2250 3394 2515 3294 
Q 2781 3194 2906 3042 
Q 3031 2891 3081 2659 
Q 3109 2516 3109 2141 
L 3109 1391 
Q 3109 606 3145 398 
Q 3181 191 3288 0 
L 2700 0 
Q 2613 175 2588 409 
z
M 2541 1666 
Q 2234 1541 1622 1453 
Q 1275 1403 1131 1340 
Q 988 1278 909 1158 
Q 831 1038 831 891 
Q 831 666 1001 516 
Q 1172 366 1500 366 
Q 1825 366 2078 508 
Q 2331 650 2450 897 
Q 2541 1088 2541 1459 
L 2541 1666 
z
" transform="scale(0.015625)"/>
      <path id="ArialMT-74" d="M 1650 503 
L 1731 6 
Q 1494 -44 1306 -44 
Q 1000 -44 831 53 
Q 663 150 594 308 
Q 525 466 525 972 
L 525 2881 
L 113 2881 
L 113 3319 
L 525 3319 
L 525 4141 
L 1084 4478 
L 1084 3319 
L 1650 3319 
L 1650 2881 
L 1084 2881 
L 1084 941 
Q 1084 700 1114 631 
Q 1144 563 1211 522 
Q 1278 481 1403 481 
Q 1497 481 1650 503 
z
" transform="scale(0.015625)"/>
      <path id="ArialMT-69" d="M 425 3934 
L 425 4581 
L 988 4581 
L 988 3934 
L 425 3934 
z
M 425 0 
L 425 3319 
L 988 3319 
L 988 0 
L 425 0 
z
" transform="scale(0.015625)"/>
      <path id="ArialMT-5f" d="M -97 -1272 
L -97 -866 
L 3631 -866 
L 3631 -1272 
L -97 -1272 
z
" transform="scale(0.015625)"/>
      <path id="ArialMT-2d" d="M 203 1375 
L 203 1941 
L 1931 1941 
L 1931 1375 
L 203 1375 
z
" transform="scale(0.015625)"/>
      <path id="ArialMT-50" d="M 494 0 
L 494 4581 
L 2222 4581 
Q 2678 4581 2919 4538 
Q 3256 4481 3484 4323 
Q 3713 4166 3852 3881 
Q 3991 3597 3991 3256 
Q 3991 2672 3619 2267 
Q 3247 1863 2275 1863 
L 1100 1863 
L 1100 0 
L 494 0 
z
M 1100 2403 
L 2284 2403 
Q 2872 2403 3119 2622 
Q 3366 2841 3366 3238 
Q 3366 3525 3220 3729 
Q 3075 3934 2838 4000 
Q 2684 4041 2272 4041 
L 1100 4041 
L 1100 2403 
z
" transform="scale(0.015625)"/>
      <path id="ArialMT-6f" d="M 213 1659 
Q 213 2581 725 3025 
Q 1153 3394 1769 3394 
Q 2453 3394 2887 2945 
Q 3322 2497 3322 1706 
Q 3322 1066 3130 698 
Q 2938 331 2570 128 
Q 2203 -75 1769 -75 
Q 1072 -75 642 372 
Q 213 819 213 1659 
z
M 791 1659 
Q 791 1022 1069 705 
Q 1347 388 1769 388 
Q 2188 388 2466 706 
Q 2744 1025 2744 1678 
Q 2744 2294 2464 2611 
Q 2184 2928 1769 2928 
Q 1347 2928 1069 2612 
Q 791 2297 791 1659 
z
" transform="scale(0.015625)"/>
      <path id="ArialMT-77" d="M 1034 0 
L 19 3319 
L 600 3319 
L 1128 1403 
L 1325 691 
Q 1338 744 1497 1375 
L 2025 3319 
L 2603 3319 
L 3100 1394 
L 3266 759 
L 3456 1400 
L 4025 3319 
L 4572 3319 
L 3534 0 
L 2950 0 
L 2422 1988 
L 2294 2553 
L 1622 0 
L 1034 0 
z
" transform="scale(0.015625)"/>
      <path id="ArialMT-73" d="M 197 991 
L 753 1078 
Q 800 744 1014 566 
Q 1228 388 1613 388 
Q 2000 388 2187 545 
Q 2375 703 2375 916 
Q 2375 1106 2209 1216 
Q 2094 1291 1634 1406 
Q 1016 1563 777 1677 
Q 538 1791 414 1992 
Q 291 2194 291 2438 
Q 291 2659 392 2848 
Q 494 3038 669 3163 
Q 800 3259 1026 3326 
Q 1253 3394 1513 3394 
Q 1903 3394 2198 3281 
Q 2494 3169 2634 2976 
Q 2775 2784 2828 2463 
L 2278 2388 
Q 2241 2644 2061 2787 
Q 1881 2931 1553 2931 
Q 1166 2931 1000 2803 
Q 834 2675 834 2503 
Q 834 2394 903 2306 
Q 972 2216 1119 2156 
Q 1203 2125 1616 2013 
Q 2213 1853 2448 1751 
Q 2684 1650 2818 1456 
Q 2953 1263 2953 975 
Q 2953 694 2789 445 
Q 2625 197 2315 61 
Q 2006 -75 1616 -75 
Q 969 -75 630 194 
Q 291 463 197 991 
z
" transform="scale(0.015625)"/>
      <path id="ArialMT-6d" d="M 422 0 
L 422 3319 
L 925 3319 
L 925 2853 
Q 1081 3097 1340 3245 
Q 1600 3394 1931 3394 
Q 2300 3394 2536 3241 
Q 2772 3088 2869 2813 
Q 3263 3394 3894 3394 
Q 4388 3394 4653 3120 
Q 4919 2847 4919 2278 
L 4919 0 
L 4359 0 
L 4359 2091 
Q 4359 2428 4304 2576 
Q 4250 2725 4106 2815 
Q 3963 2906 3769 2906 
Q 3419 2906 3187 2673 
Q 2956 2441 2956 1928 
L 2956 0 
L 2394 0 
L 2394 2156 
Q 2394 2531 2256 2718 
Q 2119 2906 1806 2906 
Q 1569 2906 1367 2781 
Q 1166 2656 1075 2415 
Q 984 2175 984 1722 
L 984 0 
L 422 0 
z
" transform="scale(0.015625)"/>
     </defs>
     <use xlink:href="#ArialMT-70"/>
     <use xlink:href="#ArialMT-61" x="55.615234"/>
     <use xlink:href="#ArialMT-74" x="111.230469"/>
     <use xlink:href="#ArialMT-69" x="139.013672"/>
     <use xlink:href="#ArialMT-65" x="161.230469"/>
     <use xlink:href="#ArialMT-6e" x="216.845703"/>
     <use xlink:href="#ArialMT-74" x="272.460938"/>
     <use xlink:href="#ArialMT-31" x="300.244141"/>
     <use xlink:href="#ArialMT-34" x="355.859375"/>
     <use xlink:href="#ArialMT-5f" x="411.474609"/>
     <use xlink:href="#ArialMT-61" x="467.089844"/>
     <use xlink:href="#ArialMT-70" x="522.705078"/>
     <use xlink:href="#ArialMT-70" x="578.320312"/>
     <use xlink:href="#ArialMT-30" x="633.935547"/>
     <use xlink:href="#ArialMT-35" x="689.550781"/>
     <use xlink:href="#ArialMT-20" x="745.166016"/>
     <use xlink:href="#ArialMT-2d" x="772.949219"/>
     <use xlink:href="#ArialMT-20" x="806.25"/>
     <use xlink:href="#ArialMT-50" x="834.033203"/>
     <use xlink:href="#ArialMT-6f" x="900.732422"/>
     <use xlink:href="#ArialMT-77" x="956.347656"/>
     <use xlink:href="#ArialMT-65" x="1028.564453"/>
     <use xlink:href="#ArialMT-72" x="1084.179688"/>
     <use xlink:href="#ArialMT-20" x="1117.480469"/>
     <use xlink:href="#ArialMT-73" x="1145.263672"/>
     <use xlink:href="#ArialMT-70" x="1195.263672"/>
     <use xlink:href="#ArialMT-65" x="1250.878906"/>
     <use xlink:href="#ArialMT-63" x="1306.494141"/>
     <use xlink:href="#ArialMT-74" x="1356.494141"/>
     <use xlink:href="#ArialMT-72" x="1384.277344"/>
     <use xlink:href="#ArialMT-75" x="1417.578125"/>
     <use xlink:href="#ArialMT-6d" x="1473.193359"/>
    </g>
   </g>
  </g>
 </g>
 <defs>
  <clipPath id="pfcfac6950c">
   <rect x="54" y="34.56" width="334.8" height="217.44"/>
  </clipPath>
 </defs>
</svg>
