<?xml version="1.0" encoding="utf-8" standalone="no"?>
<!DOCTYPE svg PUBLIC "-//W3C//DTD SVG 1.1//EN"
  "http://www.w3.org/Graphics/SVG/1.1/DTD/svg11.dtd">
<svg xmlns:xlink="http://www.w3.org/1999/xlink" width="432pt" height="288pt" viewBox="0 0 432 288" xmlns="http://www.w3.org/2000/svg" version="1.1">
 <metadata>
  <rdf:RDF xmlns:dc="http://purl.org/dc/elements/1.1/" xmlns:cc="http://creativecommons.org/ns#" xmlns:rdf="http://www.w3.org/1999/02/22-rdf-syntax-ns#">
   <cc:Work>
    <dc:type rdf:resource="http://purl.org/dc/dcmitype/StillImage"/>
    <dc:date>2022-07-08T13:28:08.979819</dc:date>
    <dc:format>image/svg+xml</dc:format>
    <dc:creator>
     <cc:Agent>
      <dc:title>Matplotlib v3.5.1, https://matplotlib.org/</dc:title>
     </cc:Agent>
    </dc:creator>
   </cc:Work>
  </rdf:RDF>
 </metadata>
 <defs>
  <style type="text/css">*{stroke-linejoin: round; stroke-linecap: butt}</style>
 </defs>
 <g id="figure_1">
  <g id="patch_1">
   <path d="M 0 288 
L 432 288 
L 432 0 
L 0 0 
z
" style="fill: #ffffff"/>
  </g>
  <g id="axes_1">
   <g id="patch_2">
    <path d="M 54 252 
L 388.8 252 
L 388.8 34.56 
L 54 34.56 
z
" style="fill: #ffffff"/>
   </g>
   <g id="matplotlib.axis_1">
    <g id="xtick_1">
     <g id="line2d_1">
      <defs>
       <path id="mf90dda013d" d="M 0 0 
L 0 6 
" style="stroke: #262626; stroke-width: 1.25"/>
      </defs>
      <g>
       <use xlink:href="#mf90dda013d" x="54" y="252" style="fill: #262626; stroke: #262626; stroke-width: 1.25"/>
      </g>
     </g>
     <g id="text_1">
      <!-- 0 -->
      <g style="fill: #262626" transform="translate(50.941484 269.373594)scale(0.11 -0.11)">
       <defs>
        <path id="ArialMT-30" d="M 266 2259 
Q 266 3072 433 3567 
Q 600 4063 929 4331 
Q 1259 4600 1759 4600 
Q 2128 4600 2406 4451 
Q 2684 4303 2865 4023 
Q 3047 3744 3150 3342 
Q 3253 2941 3253 2259 
Q 3253 1453 3087 958 
Q 2922 463 2592 192 
Q 2263 -78 1759 -78 
Q 1097 -78 719 397 
Q 266 969 266 2259 
z
M 844 2259 
Q 844 1131 1108 757 
Q 1372 384 1759 384 
Q 2147 384 2411 759 
Q 2675 1134 2675 2259 
Q 2675 3391 2411 3762 
Q 2147 4134 1753 4134 
Q 1366 4134 1134 3806 
Q 844 3388 844 2259 
z
" transform="scale(0.015625)"/>
       </defs>
       <use xlink:href="#ArialMT-30"/>
      </g>
     </g>
    </g>
    <g id="xtick_2">
     <g id="line2d_2">
      <g>
       <use xlink:href="#mf90dda013d" x="109.8" y="252" style="fill: #262626; stroke: #262626; stroke-width: 1.25"/>
      </g>
     </g>
     <g id="text_2">
      <!-- 5 -->
      <g style="fill: #262626" transform="translate(106.741484 269.373594)scale(0.11 -0.11)">
       <defs>
        <path id="ArialMT-35" d="M 266 1200 
L 856 1250 
Q 922 819 1161 601 
Q 1400 384 1738 384 
Q 2144 384 2425 690 
Q 2706 997 2706 1503 
Q 2706 1984 2436 2262 
Q 2166 2541 1728 2541 
Q 1456 2541 1237 2417 
Q 1019 2294 894 2097 
L 366 2166 
L 809 4519 
L 3088 4519 
L 3088 3981 
L 1259 3981 
L 1013 2750 
Q 1425 3038 1878 3038 
Q 2478 3038 2890 2622 
Q 3303 2206 3303 1553 
Q 3303 931 2941 478 
Q 2500 -78 1738 -78 
Q 1113 -78 717 272 
Q 322 622 266 1200 
z
" transform="scale(0.015625)"/>
       </defs>
       <use xlink:href="#ArialMT-35"/>
      </g>
     </g>
    </g>
    <g id="xtick_3">
     <g id="line2d_3">
      <g>
       <use xlink:href="#mf90dda013d" x="165.6" y="252" style="fill: #262626; stroke: #262626; stroke-width: 1.25"/>
      </g>
     </g>
     <g id="text_3">
      <!-- 10 -->
      <g style="fill: #262626" transform="translate(159.482969 269.373594)scale(0.11 -0.11)">
       <defs>
        <path id="ArialMT-31" d="M 2384 0 
L 1822 0 
L 1822 3584 
Q 1619 3391 1289 3197 
Q 959 3003 697 2906 
L 697 3450 
Q 1169 3672 1522 3987 
Q 1875 4303 2022 4600 
L 2384 4600 
L 2384 0 
z
" transform="scale(0.015625)"/>
       </defs>
       <use xlink:href="#ArialMT-31"/>
       <use xlink:href="#ArialMT-30" x="55.615234"/>
      </g>
     </g>
    </g>
    <g id="xtick_4">
     <g id="line2d_4">
      <g>
       <use xlink:href="#mf90dda013d" x="221.4" y="252" style="fill: #262626; stroke: #262626; stroke-width: 1.25"/>
      </g>
     </g>
     <g id="text_4">
      <!-- 15 -->
      <g style="fill: #262626" transform="translate(215.282969 269.373594)scale(0.11 -0.11)">
       <use xlink:href="#ArialMT-31"/>
       <use xlink:href="#ArialMT-35" x="55.615234"/>
      </g>
     </g>
    </g>
    <g id="xtick_5">
     <g id="line2d_5">
      <g>
       <use xlink:href="#mf90dda013d" x="277.2" y="252" style="fill: #262626; stroke: #262626; stroke-width: 1.25"/>
      </g>
     </g>
     <g id="text_5">
      <!-- 20 -->
      <g style="fill: #262626" transform="translate(271.082969 269.373594)scale(0.11 -0.11)">
       <defs>
        <path id="ArialMT-32" d="M 3222 541 
L 3222 0 
L 194 0 
Q 188 203 259 391 
Q 375 700 629 1000 
Q 884 1300 1366 1694 
Q 2113 2306 2375 2664 
Q 2638 3022 2638 3341 
Q 2638 3675 2398 3904 
Q 2159 4134 1775 4134 
Q 1369 4134 1125 3890 
Q 881 3647 878 3216 
L 300 3275 
Q 359 3922 746 4261 
Q 1134 4600 1788 4600 
Q 2447 4600 2831 4234 
Q 3216 3869 3216 3328 
Q 3216 3053 3103 2787 
Q 2991 2522 2730 2228 
Q 2469 1934 1863 1422 
Q 1356 997 1212 845 
Q 1069 694 975 541 
L 3222 541 
z
" transform="scale(0.015625)"/>
       </defs>
       <use xlink:href="#ArialMT-32"/>
       <use xlink:href="#ArialMT-30" x="55.615234"/>
      </g>
     </g>
    </g>
    <g id="xtick_6">
     <g id="line2d_6">
      <g>
       <use xlink:href="#mf90dda013d" x="333" y="252" style="fill: #262626; stroke: #262626; stroke-width: 1.25"/>
      </g>
     </g>
     <g id="text_6">
      <!-- 25 -->
      <g style="fill: #262626" transform="translate(326.882969 269.373594)scale(0.11 -0.11)">
       <use xlink:href="#ArialMT-32"/>
       <use xlink:href="#ArialMT-35" x="55.615234"/>
      </g>
     </g>
    </g>
    <g id="xtick_7">
     <g id="line2d_7">
      <g>
       <use xlink:href="#mf90dda013d" x="388.8" y="252" style="fill: #262626; stroke: #262626; stroke-width: 1.25"/>
      </g>
     </g>
     <g id="text_7">
      <!-- 30 -->
      <g style="fill: #262626" transform="translate(382.682969 269.373594)scale(0.11 -0.11)">
       <defs>
        <path id="ArialMT-33" d="M 269 1209 
L 831 1284 
Q 928 806 1161 595 
Q 1394 384 1728 384 
Q 2125 384 2398 659 
Q 2672 934 2672 1341 
Q 2672 1728 2419 1979 
Q 2166 2231 1775 2231 
Q 1616 2231 1378 2169 
L 1441 2663 
Q 1497 2656 1531 2656 
Q 1891 2656 2178 2843 
Q 2466 3031 2466 3422 
Q 2466 3731 2256 3934 
Q 2047 4138 1716 4138 
Q 1388 4138 1169 3931 
Q 950 3725 888 3313 
L 325 3413 
Q 428 3978 793 4289 
Q 1159 4600 1703 4600 
Q 2078 4600 2393 4439 
Q 2709 4278 2876 4000 
Q 3044 3722 3044 3409 
Q 3044 3113 2884 2869 
Q 2725 2625 2413 2481 
Q 2819 2388 3044 2092 
Q 3269 1797 3269 1353 
Q 3269 753 2831 336 
Q 2394 -81 1725 -81 
Q 1122 -81 723 278 
Q 325 638 269 1209 
z
" transform="scale(0.015625)"/>
       </defs>
       <use xlink:href="#ArialMT-33"/>
       <use xlink:href="#ArialMT-30" x="55.615234"/>
      </g>
     </g>
    </g>
    <g id="text_8">
     <!-- Frequency (Hz) -->
     <g style="fill: #262626" transform="translate(180.059063 284.295469)scale(0.12 -0.12)">
      <defs>
       <path id="ArialMT-46" d="M 525 0 
L 525 4581 
L 3616 4581 
L 3616 4041 
L 1131 4041 
L 1131 2622 
L 3281 2622 
L 3281 2081 
L 1131 2081 
L 1131 0 
L 525 0 
z
" transform="scale(0.015625)"/>
       <path id="ArialMT-72" d="M 416 0 
L 416 3319 
L 922 3319 
L 922 2816 
Q 1116 3169 1280 3281 
Q 1444 3394 1641 3394 
Q 1925 3394 2219 3213 
L 2025 2691 
Q 1819 2813 1613 2813 
Q 1428 2813 1281 2702 
Q 1134 2591 1072 2394 
Q 978 2094 978 1738 
L 978 0 
L 416 0 
z
" transform="scale(0.015625)"/>
       <path id="ArialMT-65" d="M 2694 1069 
L 3275 997 
Q 3138 488 2766 206 
Q 2394 -75 1816 -75 
Q 1088 -75 661 373 
Q 234 822 234 1631 
Q 234 2469 665 2931 
Q 1097 3394 1784 3394 
Q 2450 3394 2872 2941 
Q 3294 2488 3294 1666 
Q 3294 1616 3291 1516 
L 816 1516 
Q 847 969 1125 678 
Q 1403 388 1819 388 
Q 2128 388 2347 550 
Q 2566 713 2694 1069 
z
M 847 1978 
L 2700 1978 
Q 2663 2397 2488 2606 
Q 2219 2931 1791 2931 
Q 1403 2931 1139 2672 
Q 875 2413 847 1978 
z
" transform="scale(0.015625)"/>
       <path id="ArialMT-71" d="M 2538 -1272 
L 2538 353 
Q 2406 169 2170 47 
Q 1934 -75 1669 -75 
Q 1078 -75 651 397 
Q 225 869 225 1691 
Q 225 2191 398 2587 
Q 572 2984 901 3189 
Q 1231 3394 1625 3394 
Q 2241 3394 2594 2875 
L 2594 3319 
L 3100 3319 
L 3100 -1272 
L 2538 -1272 
z
M 803 1669 
Q 803 1028 1072 708 
Q 1341 388 1716 388 
Q 2075 388 2334 692 
Q 2594 997 2594 1619 
Q 2594 2281 2320 2615 
Q 2047 2950 1678 2950 
Q 1313 2950 1058 2639 
Q 803 2328 803 1669 
z
" transform="scale(0.015625)"/>
       <path id="ArialMT-75" d="M 2597 0 
L 2597 488 
Q 2209 -75 1544 -75 
Q 1250 -75 995 37 
Q 741 150 617 320 
Q 494 491 444 738 
Q 409 903 409 1263 
L 409 3319 
L 972 3319 
L 972 1478 
Q 972 1038 1006 884 
Q 1059 663 1231 536 
Q 1403 409 1656 409 
Q 1909 409 2131 539 
Q 2353 669 2445 892 
Q 2538 1116 2538 1541 
L 2538 3319 
L 3100 3319 
L 3100 0 
L 2597 0 
z
" transform="scale(0.015625)"/>
       <path id="ArialMT-6e" d="M 422 0 
L 422 3319 
L 928 3319 
L 928 2847 
Q 1294 3394 1984 3394 
Q 2284 3394 2536 3286 
Q 2788 3178 2913 3003 
Q 3038 2828 3088 2588 
Q 3119 2431 3119 2041 
L 3119 0 
L 2556 0 
L 2556 2019 
Q 2556 2363 2490 2533 
Q 2425 2703 2258 2804 
Q 2091 2906 1866 2906 
Q 1506 2906 1245 2678 
Q 984 2450 984 1813 
L 984 0 
L 422 0 
z
" transform="scale(0.015625)"/>
       <path id="ArialMT-63" d="M 2588 1216 
L 3141 1144 
Q 3050 572 2676 248 
Q 2303 -75 1759 -75 
Q 1078 -75 664 370 
Q 250 816 250 1647 
Q 250 2184 428 2587 
Q 606 2991 970 3192 
Q 1334 3394 1763 3394 
Q 2303 3394 2647 3120 
Q 2991 2847 3088 2344 
L 2541 2259 
Q 2463 2594 2264 2762 
Q 2066 2931 1784 2931 
Q 1359 2931 1093 2626 
Q 828 2322 828 1663 
Q 828 994 1084 691 
Q 1341 388 1753 388 
Q 2084 388 2306 591 
Q 2528 794 2588 1216 
z
" transform="scale(0.015625)"/>
       <path id="ArialMT-79" d="M 397 -1278 
L 334 -750 
Q 519 -800 656 -800 
Q 844 -800 956 -737 
Q 1069 -675 1141 -563 
Q 1194 -478 1313 -144 
Q 1328 -97 1363 -6 
L 103 3319 
L 709 3319 
L 1400 1397 
Q 1534 1031 1641 628 
Q 1738 1016 1872 1384 
L 2581 3319 
L 3144 3319 
L 1881 -56 
Q 1678 -603 1566 -809 
Q 1416 -1088 1222 -1217 
Q 1028 -1347 759 -1347 
Q 597 -1347 397 -1278 
z
" transform="scale(0.015625)"/>
       <path id="ArialMT-20" transform="scale(0.015625)"/>
       <path id="ArialMT-28" d="M 1497 -1347 
Q 1031 -759 709 28 
Q 388 816 388 1659 
Q 388 2403 628 3084 
Q 909 3875 1497 4659 
L 1900 4659 
Q 1522 4009 1400 3731 
Q 1209 3300 1100 2831 
Q 966 2247 966 1656 
Q 966 153 1900 -1347 
L 1497 -1347 
z
" transform="scale(0.015625)"/>
       <path id="ArialMT-48" d="M 513 0 
L 513 4581 
L 1119 4581 
L 1119 2700 
L 3500 2700 
L 3500 4581 
L 4106 4581 
L 4106 0 
L 3500 0 
L 3500 2159 
L 1119 2159 
L 1119 0 
L 513 0 
z
" transform="scale(0.015625)"/>
       <path id="ArialMT-7a" d="M 125 0 
L 125 456 
L 2238 2881 
Q 1878 2863 1603 2863 
L 250 2863 
L 250 3319 
L 2963 3319 
L 2963 2947 
L 1166 841 
L 819 456 
Q 1197 484 1528 484 
L 3063 484 
L 3063 0 
L 125 0 
z
" transform="scale(0.015625)"/>
       <path id="ArialMT-29" d="M 791 -1347 
L 388 -1347 
Q 1322 153 1322 1656 
Q 1322 2244 1188 2822 
Q 1081 3291 891 3722 
Q 769 4003 388 4659 
L 791 4659 
Q 1378 3875 1659 3084 
Q 1900 2403 1900 1659 
Q 1900 816 1576 28 
Q 1253 -759 791 -1347 
z
" transform="scale(0.015625)"/>
      </defs>
      <use xlink:href="#ArialMT-46"/>
      <use xlink:href="#ArialMT-72" x="61.083984"/>
      <use xlink:href="#ArialMT-65" x="94.384766"/>
      <use xlink:href="#ArialMT-71" x="150"/>
      <use xlink:href="#ArialMT-75" x="205.615234"/>
      <use xlink:href="#ArialMT-65" x="261.230469"/>
      <use xlink:href="#ArialMT-6e" x="316.845703"/>
      <use xlink:href="#ArialMT-63" x="372.460938"/>
      <use xlink:href="#ArialMT-79" x="422.460938"/>
      <use xlink:href="#ArialMT-20" x="472.460938"/>
      <use xlink:href="#ArialMT-28" x="500.244141"/>
      <use xlink:href="#ArialMT-48" x="533.544922"/>
      <use xlink:href="#ArialMT-7a" x="605.761719"/>
      <use xlink:href="#ArialMT-29" x="655.761719"/>
     </g>
    </g>
   </g>
   <g id="matplotlib.axis_2">
    <g id="ytick_1">
     <g id="line2d_8">
      <defs>
       <path id="me5e04d1f40" d="M 0 0 
L -6 0 
" style="stroke: #262626; stroke-width: 1.25"/>
      </defs>
      <g>
       <use xlink:href="#me5e04d1f40" x="54" y="242.116364" style="fill: #262626; stroke: #262626; stroke-width: 1.25"/>
      </g>
     </g>
     <g id="text_9">
      <!-- 0.0 -->
      <g style="fill: #262626" transform="translate(29.21 246.053161)scale(0.11 -0.11)">
       <defs>
        <path id="ArialMT-2e" d="M 581 0 
L 581 641 
L 1222 641 
L 1222 0 
L 581 0 
z
" transform="scale(0.015625)"/>
       </defs>
       <use xlink:href="#ArialMT-30"/>
       <use xlink:href="#ArialMT-2e" x="55.615234"/>
       <use xlink:href="#ArialMT-30" x="83.398438"/>
      </g>
     </g>
    </g>
    <g id="ytick_2">
     <g id="line2d_9">
      <g>
       <use xlink:href="#me5e04d1f40" x="54" y="202.581818" style="fill: #262626; stroke: #262626; stroke-width: 1.25"/>
      </g>
     </g>
     <g id="text_10">
      <!-- 0.2 -->
      <g style="fill: #262626" transform="translate(29.21 206.518615)scale(0.11 -0.11)">
       <use xlink:href="#ArialMT-30"/>
       <use xlink:href="#ArialMT-2e" x="55.615234"/>
       <use xlink:href="#ArialMT-32" x="83.398438"/>
      </g>
     </g>
    </g>
    <g id="ytick_3">
     <g id="line2d_10">
      <g>
       <use xlink:href="#me5e04d1f40" x="54" y="163.047273" style="fill: #262626; stroke: #262626; stroke-width: 1.25"/>
      </g>
     </g>
     <g id="text_11">
      <!-- 0.4 -->
      <g style="fill: #262626" transform="translate(29.21 166.98407)scale(0.11 -0.11)">
       <defs>
        <path id="ArialMT-34" d="M 2069 0 
L 2069 1097 
L 81 1097 
L 81 1613 
L 2172 4581 
L 2631 4581 
L 2631 1613 
L 3250 1613 
L 3250 1097 
L 2631 1097 
L 2631 0 
L 2069 0 
z
M 2069 1613 
L 2069 3678 
L 634 1613 
L 2069 1613 
z
" transform="scale(0.015625)"/>
       </defs>
       <use xlink:href="#ArialMT-30"/>
       <use xlink:href="#ArialMT-2e" x="55.615234"/>
       <use xlink:href="#ArialMT-34" x="83.398438"/>
      </g>
     </g>
    </g>
    <g id="ytick_4">
     <g id="line2d_11">
      <g>
       <use xlink:href="#me5e04d1f40" x="54" y="123.512727" style="fill: #262626; stroke: #262626; stroke-width: 1.25"/>
      </g>
     </g>
     <g id="text_12">
      <!-- 0.6 -->
      <g style="fill: #262626" transform="translate(29.21 127.449524)scale(0.11 -0.11)">
       <defs>
        <path id="ArialMT-36" d="M 3184 3459 
L 2625 3416 
Q 2550 3747 2413 3897 
Q 2184 4138 1850 4138 
Q 1581 4138 1378 3988 
Q 1113 3794 959 3422 
Q 806 3050 800 2363 
Q 1003 2672 1297 2822 
Q 1591 2972 1913 2972 
Q 2475 2972 2870 2558 
Q 3266 2144 3266 1488 
Q 3266 1056 3080 686 
Q 2894 316 2569 119 
Q 2244 -78 1831 -78 
Q 1128 -78 684 439 
Q 241 956 241 2144 
Q 241 3472 731 4075 
Q 1159 4600 1884 4600 
Q 2425 4600 2770 4297 
Q 3116 3994 3184 3459 
z
M 888 1484 
Q 888 1194 1011 928 
Q 1134 663 1356 523 
Q 1578 384 1822 384 
Q 2178 384 2434 671 
Q 2691 959 2691 1453 
Q 2691 1928 2437 2201 
Q 2184 2475 1800 2475 
Q 1419 2475 1153 2201 
Q 888 1928 888 1484 
z
" transform="scale(0.015625)"/>
       </defs>
       <use xlink:href="#ArialMT-30"/>
       <use xlink:href="#ArialMT-2e" x="55.615234"/>
       <use xlink:href="#ArialMT-36" x="83.398438"/>
      </g>
     </g>
    </g>
    <g id="ytick_5">
     <g id="line2d_12">
      <g>
       <use xlink:href="#me5e04d1f40" x="54" y="83.978182" style="fill: #262626; stroke: #262626; stroke-width: 1.25"/>
      </g>
     </g>
     <g id="text_13">
      <!-- 0.8 -->
      <g style="fill: #262626" transform="translate(29.21 87.914979)scale(0.11 -0.11)">
       <defs>
        <path id="ArialMT-38" d="M 1131 2484 
Q 781 2613 612 2850 
Q 444 3088 444 3419 
Q 444 3919 803 4259 
Q 1163 4600 1759 4600 
Q 2359 4600 2725 4251 
Q 3091 3903 3091 3403 
Q 3091 3084 2923 2848 
Q 2756 2613 2416 2484 
Q 2838 2347 3058 2040 
Q 3278 1734 3278 1309 
Q 3278 722 2862 322 
Q 2447 -78 1769 -78 
Q 1091 -78 675 323 
Q 259 725 259 1325 
Q 259 1772 486 2073 
Q 713 2375 1131 2484 
z
M 1019 3438 
Q 1019 3113 1228 2906 
Q 1438 2700 1772 2700 
Q 2097 2700 2305 2904 
Q 2513 3109 2513 3406 
Q 2513 3716 2298 3927 
Q 2084 4138 1766 4138 
Q 1444 4138 1231 3931 
Q 1019 3725 1019 3438 
z
M 838 1322 
Q 838 1081 952 856 
Q 1066 631 1291 507 
Q 1516 384 1775 384 
Q 2178 384 2440 643 
Q 2703 903 2703 1303 
Q 2703 1709 2433 1975 
Q 2163 2241 1756 2241 
Q 1359 2241 1098 1978 
Q 838 1716 838 1322 
z
" transform="scale(0.015625)"/>
       </defs>
       <use xlink:href="#ArialMT-30"/>
       <use xlink:href="#ArialMT-2e" x="55.615234"/>
       <use xlink:href="#ArialMT-38" x="83.398438"/>
      </g>
     </g>
    </g>
    <g id="ytick_6">
     <g id="line2d_13">
      <g>
       <use xlink:href="#me5e04d1f40" x="54" y="44.443636" style="fill: #262626; stroke: #262626; stroke-width: 1.25"/>
      </g>
     </g>
     <g id="text_14">
      <!-- 1.0 -->
      <g style="fill: #262626" transform="translate(29.21 48.380433)scale(0.11 -0.11)">
       <use xlink:href="#ArialMT-31"/>
       <use xlink:href="#ArialMT-2e" x="55.615234"/>
       <use xlink:href="#ArialMT-30" x="83.398438"/>
      </g>
     </g>
    </g>
   </g>
   <g id="line2d_14">
    <path d="M 54 241.871239 
L 81.756432 241.769249 
L 89.413379 241.624457 
L 91.327616 241.546775 
L 93.241852 241.613675 
L 94.198971 241.381561 
L 95.156089 241.292263 
L 96.113208 240.470209 
L 97.070326 241.015265 
L 98.027444 239.546938 
L 98.984563 239.892407 
L 99.941681 234.901186 
L 100.898799 240.517271 
L 101.855918 228.480472 
L 102.813036 238.758997 
L 103.770154 205.546274 
L 105.684391 236.065303 
L 106.641509 224.018268 
L 107.598628 202.439656 
L 108.555746 205.188326 
L 109.512864 239.746827 
L 110.469983 236.749965 
L 111.427101 155.94329 
L 112.38422 194.983829 
L 113.341338 117.173732 
L 114.298456 195.4792 
L 115.255575 200.028536 
L 116.212693 44.443636 
L 117.169811 141.662093 
L 118.12693 145.397013 
L 119.084048 134.248312 
L 120.041166 212.692688 
L 120.998285 142.006809 
L 121.955403 92.414145 
L 122.912521 231.41381 
L 123.86964 239.975686 
L 124.826758 155.171128 
L 125.783877 151.359508 
L 126.740995 189.709725 
L 127.698113 164.548397 
L 128.655232 178.552607 
L 129.61235 201.339683 
L 130.569468 156.026481 
L 131.526587 162.86949 
L 132.483705 230.399443 
L 133.440823 240.655539 
L 134.397942 214.75676 
L 135.35506 178.826541 
L 136.312178 211.632625 
L 137.269297 186.148457 
L 138.226415 234.789398 
L 139.183533 241.865327 
L 140.140652 238.654979 
L 141.09777 179.206606 
L 142.054889 226.955627 
L 143.012007 226.535979 
L 143.969125 217.398569 
L 144.926244 190.400118 
L 145.883362 203.264212 
L 146.84048 211.909663 
L 147.797599 231.855697 
L 148.754717 236.540552 
L 149.711835 200.951078 
L 150.668954 170.432852 
L 151.626072 199.704561 
L 152.58319 222.066588 
L 153.540309 191.11913 
L 154.497427 224.307772 
L 155.454545 227.101377 
L 156.411664 203.647883 
L 157.368782 237.186905 
L 158.325901 235.554594 
L 159.283019 178.759735 
L 160.240137 228.31501 
L 161.197256 235.263896 
L 162.154374 234.110688 
L 163.111492 238.902943 
L 165.025729 237.254954 
L 165.982847 241.729289 
L 166.939966 222.789176 
L 167.897084 239.095191 
L 168.854202 213.298252 
L 169.811321 236.085219 
L 170.768439 241.459272 
L 171.725557 241.221889 
L 172.682676 239.474378 
L 173.639794 231.763878 
L 174.596913 238.689412 
L 175.554031 229.994206 
L 176.511149 232.295646 
L 177.468268 241.501337 
L 178.425386 240.26432 
L 179.382504 218.809206 
L 180.339623 233.346852 
L 181.296741 237.746366 
L 182.253859 227.931598 
L 183.210978 225.647023 
L 184.168096 237.021357 
L 185.125214 240.606734 
L 186.082333 239.909445 
L 187.039451 227.668207 
L 187.996569 212.188039 
L 188.953688 239.722727 
L 189.910806 236.71461 
L 190.867925 238.439184 
L 191.825043 233.784037 
L 192.782161 232.243224 
L 193.73928 233.96376 
L 194.696398 213.67495 
L 195.653516 237.799409 
L 196.610635 234.139123 
L 197.567753 236.302105 
L 198.524871 241.200049 
L 199.48199 235.53966 
L 200.439108 230.735212 
L 201.396226 217.951231 
L 202.353345 237.070098 
L 203.310463 241.517722 
L 204.267581 232.737061 
L 205.2247 235.52601 
L 206.181818 232.731701 
L 207.138937 238.148916 
L 208.096055 240.998615 
L 209.053173 240.638763 
L 210.010292 240.111711 
L 210.96741 240.688388 
L 211.924528 240.299153 
L 212.881647 238.643721 
L 213.838765 241.742912 
L 214.795883 215.554784 
L 215.753002 230.222237 
L 216.71012 241.838682 
L 217.667238 234.459752 
L 218.624357 239.759771 
L 219.581475 234.841191 
L 220.538593 240.710693 
L 221.495712 241.816287 
L 222.45283 240.867736 
L 223.409949 242.016757 
L 224.367067 236.843705 
L 225.324185 238.841126 
L 226.281304 242.016825 
L 227.238422 241.953524 
L 228.19554 239.292014 
L 229.152659 240.151322 
L 230.109777 238.99485 
L 231.066895 238.307473 
L 232.024014 240.971052 
L 232.981132 241.26355 
L 233.93825 239.129876 
L 234.895369 237.65108 
L 235.852487 239.031152 
L 236.809605 232.661916 
L 237.766724 239.087755 
L 238.723842 239.641051 
L 239.680961 226.481348 
L 240.638079 241.063686 
L 241.595197 237.997803 
L 242.552316 241.52881 
L 243.509434 240.564978 
L 244.466552 209.559745 
L 245.423671 227.310022 
L 246.380789 235.401404 
L 247.337907 241.458103 
L 248.295026 239.032729 
L 249.252144 241.425482 
L 250.209262 232.58251 
L 251.166381 239.693363 
L 252.123499 238.811142 
L 253.080617 240.377028 
L 254.037736 236.692845 
L 254.994854 240.625636 
L 255.951973 238.575402 
L 256.909091 241.179503 
L 257.866209 233.85113 
L 258.823328 241.815222 
L 259.780446 238.324414 
L 260.737564 241.293146 
L 261.694683 236.338941 
L 262.651801 239.584752 
L 263.608919 239.752318 
L 264.566038 241.131521 
L 265.523156 238.045079 
L 266.480274 238.897877 
L 267.437393 237.112318 
L 268.394511 238.160436 
L 269.35163 240.348932 
L 270.308748 238.689581 
L 271.265866 237.573953 
L 272.222985 241.355019 
L 273.180103 241.495782 
L 274.137221 238.238519 
L 275.09434 241.727779 
L 276.051458 241.154484 
L 277.008576 239.218194 
L 277.965695 239.217667 
L 278.922813 241.013938 
L 279.879931 242.016841 
L 280.83705 241.310246 
L 281.794168 240.950811 
L 282.751286 242.0956 
L 283.708405 238.322201 
L 284.665523 241.759603 
L 285.622642 238.19443 
L 286.57976 242.048951 
L 287.536878 240.574176 
L 288.493997 241.490702 
L 289.451115 240.540612 
L 290.408233 241.83021 
L 291.365352 241.024931 
L 292.32247 240.385103 
L 293.279588 240.330722 
L 294.236707 239.806667 
L 295.193825 241.628478 
L 296.150943 240.206857 
L 297.108062 238.539827 
L 298.06518 237.717796 
L 299.022298 241.898995 
L 299.979417 239.990734 
L 300.936535 240.483249 
L 301.893654 241.332411 
L 302.850772 241.739707 
L 303.80789 241.430199 
L 304.765009 240.741289 
L 305.722127 239.743298 
L 306.679245 238.296079 
L 307.636364 241.305308 
L 308.593482 240.478389 
L 309.5506 239.357432 
L 310.507719 240.914545 
L 311.464837 241.48832 
L 312.421955 241.808106 
L 313.379074 241.358895 
L 314.336192 242.043582 
L 315.29331 241.564343 
L 316.250429 241.916424 
L 317.207547 241.550172 
L 318.164666 240.761644 
L 319.121784 241.824171 
L 320.078902 241.994931 
L 321.036021 240.149571 
L 321.993139 241.87385 
L 322.950257 240.024438 
L 323.907376 242.095905 
L 324.864494 241.866219 
L 326.778731 241.933678 
L 327.735849 241.501547 
L 328.692967 242.100575 
L 329.650086 241.695893 
L 330.607204 242.037341 
L 331.564322 240.71247 
L 332.521441 241.300013 
L 333.478559 242.099458 
L 334.435678 241.792307 
L 335.392796 242.102698 
L 336.349914 241.335927 
L 337.307033 242.081418 
L 338.264151 241.755497 
L 339.221269 241.932282 
L 340.178388 241.978369 
L 341.135506 241.897399 
L 342.092624 242.050592 
L 346.878216 242.089978 
L 347.835334 241.947436 
L 348.792453 242.109026 
L 350.70669 242.106006 
L 351.663808 241.982337 
L 352.620926 242.104117 
L 356.4494 242.015857 
L 358.363636 242.105926 
L 362.19211 242.017586 
L 364.106346 242.09968 
L 378.463122 242.106396 
L 389.948542 242.114944 
L 433 242.115106 
M 433 242.116359 
L -1 242.116359 
L -1 242.116359 
" clip-path="url(#pd587f95eae)" style="fill: none; stroke: #4c72b0; stroke-opacity: 0.3; stroke-width: 1.5; stroke-linecap: round"/>
   </g>
   <g id="line2d_15">
    <path d="M 54 241.885417 
L 91.327616 241.823654 
L 92.284734 241.758953 
L 93.241852 241.543296 
L 94.198971 241.856766 
L 95.156089 241.427495 
L 96.113208 242.00715 
L 97.070326 240.964491 
L 98.027444 241.061948 
L 98.984563 239.293565 
L 99.941681 241.14756 
L 100.898799 235.387323 
L 101.855918 240.711993 
L 102.813036 199.063986 
L 103.770154 233.687811 
L 104.727273 179.517703 
L 105.684391 232.255047 
L 106.641509 231.955867 
L 107.598628 215.294567 
L 108.555746 135.258872 
L 109.512864 217.1154 
L 110.469983 205.75066 
L 112.38422 240.606715 
L 113.341338 165.957276 
L 114.298456 119.437724 
L 115.255575 235.759685 
L 116.212693 141.017311 
L 117.169811 211.778932 
L 118.12693 158.451903 
L 119.084048 149.80485 
L 120.041166 165.176316 
L 120.998285 233.036741 
L 121.955403 44.443636 
L 122.912521 235.277929 
L 123.86964 186.8618 
L 124.826758 238.296248 
L 125.783877 236.631686 
L 126.740995 162.955435 
L 127.698113 69.520501 
L 128.655232 173.468996 
L 129.61235 200.466168 
L 130.569468 195.303967 
L 131.526587 238.672567 
L 132.483705 209.394181 
L 133.440823 149.810909 
L 134.397942 211.342749 
L 135.35506 100.231734 
L 136.312178 83.468573 
L 137.269297 220.382722 
L 138.226415 157.796917 
L 139.183533 213.884469 
L 140.140652 236.821822 
L 141.09777 177.473333 
L 142.054889 223.964082 
L 143.012007 154.438245 
L 143.969125 241.37453 
L 144.926244 232.292505 
L 145.883362 237.703523 
L 146.84048 214.051837 
L 147.797599 181.730712 
L 148.754717 192.933404 
L 149.711835 181.873395 
L 150.668954 194.989688 
L 151.626072 194.580436 
L 152.58319 226.300361 
L 153.540309 197.246048 
L 154.497427 219.855502 
L 155.454545 230.510698 
L 156.411664 224.287365 
L 157.368782 203.85241 
L 159.283019 234.938886 
L 160.240137 212.524199 
L 161.197256 220.548681 
L 162.154374 235.005988 
L 163.111492 236.822089 
L 164.068611 230.533891 
L 165.025729 239.696751 
L 165.982847 240.205631 
L 167.897084 211.989111 
L 168.854202 172.360514 
L 169.811321 220.992025 
L 170.768439 226.985999 
L 171.725557 241.997431 
L 172.682676 239.825149 
L 173.639794 227.250936 
L 174.596913 237.243171 
L 175.554031 220.027153 
L 177.468268 238.12764 
L 178.425386 233.44467 
L 179.382504 204.777629 
L 180.339623 199.31332 
L 181.296741 230.706661 
L 182.253859 226.880478 
L 183.210978 206.405123 
L 184.168096 237.836915 
L 185.125214 234.632276 
L 186.082333 234.574251 
L 187.039451 235.139922 
L 187.996569 208.762065 
L 188.953688 239.442767 
L 189.910806 239.539653 
L 190.867925 240.076361 
L 191.825043 229.18414 
L 192.782161 237.408035 
L 193.73928 217.031353 
L 194.696398 218.396163 
L 195.653516 230.50825 
L 196.610635 225.106451 
L 197.567753 182.76712 
L 198.524871 219.778876 
L 199.48199 238.5124 
L 200.439108 194.69109 
L 201.396226 204.269492 
L 202.353345 240.124562 
L 203.310463 232.505425 
L 204.267581 233.58779 
L 205.2247 234.280592 
L 206.181818 238.130185 
L 207.138937 238.543036 
L 208.096055 238.200007 
L 209.053173 236.774125 
L 210.010292 241.060501 
L 210.96741 241.221902 
L 211.924528 242.114079 
L 213.838765 228.865102 
L 214.795883 183.527825 
L 215.753002 214.874317 
L 216.71012 222.711255 
L 217.667238 241.789518 
L 218.624357 239.833501 
L 219.581475 218.16075 
L 220.538593 241.934297 
L 221.495712 239.717806 
L 222.45283 241.309849 
L 223.409949 241.874141 
L 224.367067 239.840163 
L 225.324185 238.769893 
L 226.281304 236.878693 
L 227.238422 239.409174 
L 228.19554 231.130708 
L 229.152659 240.754705 
L 230.109777 231.450727 
L 231.066895 239.840955 
L 232.981132 230.222702 
L 234.895369 241.455726 
L 235.852487 241.107368 
L 236.809605 236.264501 
L 238.723842 240.649652 
L 239.680961 224.657994 
L 240.638079 241.085712 
L 241.595197 235.794551 
L 242.552316 239.071682 
L 243.509434 218.767182 
L 244.466552 241.218312 
L 245.423671 230.209507 
L 246.380789 239.938877 
L 248.295026 239.732264 
L 249.252144 237.230568 
L 250.209262 217.879678 
L 251.166381 241.314681 
L 252.123499 232.620306 
L 253.080617 241.59147 
L 254.037736 235.49986 
L 254.994854 236.5557 
L 255.951973 239.700652 
L 256.909091 225.289616 
L 257.866209 223.517309 
L 258.823328 241.990613 
L 259.780446 229.295458 
L 260.737564 237.783586 
L 261.694683 236.987657 
L 262.651801 240.077546 
L 263.608919 239.030186 
L 264.566038 239.656492 
L 265.523156 239.407756 
L 266.480274 232.939162 
L 267.437393 230.382531 
L 268.394511 233.458086 
L 269.35163 240.710875 
L 270.308748 238.955505 
L 271.265866 240.756755 
L 272.222985 240.755296 
L 273.180103 238.229704 
L 274.137221 238.250249 
L 275.09434 240.375553 
L 276.051458 238.268736 
L 277.008576 238.360387 
L 277.965695 231.635006 
L 278.922813 240.572145 
L 279.879931 241.196021 
L 280.83705 242.011745 
L 281.794168 241.272126 
L 282.751286 240.70901 
L 283.708405 230.688444 
L 284.665523 241.184001 
L 285.622642 234.604694 
L 286.57976 242.096424 
L 287.536878 238.44798 
L 288.493997 241.919156 
L 290.408233 240.505692 
L 291.365352 238.995819 
L 292.32247 240.248672 
L 293.279588 238.322311 
L 294.236707 233.510637 
L 295.193825 241.877907 
L 297.108062 238.497393 
L 298.06518 231.713882 
L 299.022298 240.224805 
L 299.979417 238.190711 
L 300.936535 238.898348 
L 301.893654 239.368686 
L 302.850772 239.645429 
L 303.80789 241.388927 
L 304.765009 234.871232 
L 305.722127 238.961353 
L 306.679245 234.325302 
L 307.636364 240.851335 
L 308.593482 239.016188 
L 309.5506 236.736607 
L 310.507719 239.995132 
L 312.421955 241.467644 
L 313.379074 239.977471 
L 314.336192 241.930834 
L 315.29331 241.512548 
L 316.250429 241.686619 
L 317.207547 240.21388 
L 318.164666 239.19109 
L 319.121784 242.004363 
L 320.078902 241.823252 
L 321.036021 239.079818 
L 321.993139 239.691999 
L 322.950257 238.076666 
L 323.907376 241.813354 
L 324.864494 241.889547 
L 325.821612 241.575607 
L 326.778731 241.841243 
L 327.735849 241.731958 
L 328.692967 242.041915 
L 329.650086 242.110967 
L 330.607204 241.716004 
L 331.564322 240.77528 
L 332.521441 241.525093 
L 333.478559 242.089472 
L 334.435678 241.712964 
L 335.392796 242.112025 
L 336.349914 240.716639 
L 337.307033 241.87167 
L 339.221269 241.326896 
L 340.178388 241.993446 
L 341.135506 242.115365 
L 343.049743 241.81577 
L 344.006861 242.100466 
L 344.963979 241.831214 
L 345.921098 241.885777 
L 346.878216 242.114619 
L 354.535163 242.075359 
L 355.492281 242.102607 
L 356.4494 241.965701 
L 357.406518 242.115531 
L 359.320755 241.959463 
L 361.234991 242.093968 
L 362.19211 241.990225 
L 363.149228 242.093679 
L 371.763293 242.042822 
L 373.67753 242.076705 
L 378.463122 242.103453 
L 392.819897 242.113531 
L 433 242.115384 
M 433 242.116364 
L -1 242.116364 
L -1 242.116364 
" clip-path="url(#pd587f95eae)" style="fill: none; stroke: #dd8452; stroke-opacity: 0.3; stroke-width: 1.5; stroke-linecap: round"/>
   </g>
   <g id="line2d_16">
    <path d="M 54 241.837006 
L 84.627787 241.733633 
L 95.156089 241.533817 
L 96.113208 241.723227 
L 97.070326 241.739631 
L 98.027444 240.794332 
L 98.984563 241.532073 
L 99.941681 238.308303 
L 100.898799 241.14475 
L 101.855918 238.681742 
L 102.813036 242.042532 
L 103.770154 235.141493 
L 104.727273 240.163615 
L 105.684391 241.339036 
L 106.641509 234.816242 
L 107.598628 238.644827 
L 108.555746 174.963751 
L 109.512864 240.947901 
L 110.469983 230.02419 
L 111.427101 233.995065 
L 112.38422 171.885835 
L 113.341338 137.328999 
L 114.298456 166.736252 
L 115.255575 238.993633 
L 116.212693 108.18076 
L 117.169811 192.920961 
L 118.12693 237.749809 
L 119.084048 200.880431 
L 120.041166 142.494862 
L 120.998285 213.068823 
L 121.955403 199.771653 
L 122.912521 225.172579 
L 123.86964 133.928852 
L 124.826758 213.524132 
L 125.783877 172.756719 
L 126.740995 204.157644 
L 127.698113 184.439968 
L 128.655232 212.796816 
L 129.61235 117.807007 
L 131.526587 173.999713 
L 132.483705 233.344488 
L 133.440823 223.19904 
L 134.397942 234.423574 
L 135.35506 165.172016 
L 136.312178 159.382557 
L 137.269297 232.509883 
L 138.226415 167.627741 
L 139.183533 215.647961 
L 140.140652 220.693209 
L 141.09777 63.483065 
L 142.054889 220.893296 
L 143.012007 44.443636 
L 143.969125 235.155499 
L 145.883362 219.987155 
L 146.84048 224.232647 
L 147.797599 74.717299 
L 148.754717 163.59743 
L 149.711835 195.710017 
L 150.668954 191.598432 
L 151.626072 155.813225 
L 152.58319 220.709735 
L 153.540309 199.843561 
L 154.497427 240.329673 
L 155.454545 237.598856 
L 156.411664 217.208624 
L 157.368782 165.094362 
L 158.325901 207.121894 
L 159.283019 210.355086 
L 160.240137 200.486651 
L 161.197256 223.201796 
L 162.154374 236.407899 
L 163.111492 211.917042 
L 164.068611 237.761302 
L 165.025729 239.169885 
L 166.939966 212.8033 
L 167.897084 238.965806 
L 168.854202 157.470949 
L 169.811321 224.040478 
L 170.768439 235.911027 
L 171.725557 238.849963 
L 172.682676 239.469737 
L 173.639794 216.832297 
L 174.596913 234.109067 
L 175.554031 239.32746 
L 176.511149 221.556813 
L 177.468268 223.436977 
L 179.382504 210.863888 
L 180.339623 173.46309 
L 181.296741 220.454602 
L 182.253859 225.441853 
L 183.210978 199.35718 
L 184.168096 233.186924 
L 185.125214 228.432668 
L 186.082333 232.073305 
L 187.039451 232.987005 
L 187.996569 213.774215 
L 188.953688 238.618261 
L 189.910806 236.214143 
L 190.867925 232.150631 
L 191.825043 195.163755 
L 192.782161 238.426259 
L 193.73928 230.252517 
L 194.696398 205.211458 
L 195.653516 230.589399 
L 196.610635 229.074783 
L 197.567753 191.610017 
L 198.524871 215.406581 
L 199.48199 234.181717 
L 200.439108 170.245771 
L 201.396226 178.348321 
L 202.353345 229.469314 
L 203.310463 239.918856 
L 204.267581 223.206767 
L 205.2247 236.676662 
L 206.181818 229.737569 
L 207.138937 235.770654 
L 208.096055 227.20712 
L 209.053173 241.976099 
L 210.010292 238.267981 
L 210.96741 241.593431 
L 211.924528 241.362003 
L 212.881647 234.656239 
L 213.838765 233.247247 
L 214.795883 145.985176 
L 215.753002 206.96073 
L 216.71012 227.446241 
L 217.667238 237.74558 
L 218.624357 241.847416 
L 219.581475 228.761365 
L 220.538593 238.987241 
L 221.495712 216.324797 
L 222.45283 239.529904 
L 223.409949 241.0542 
L 224.367067 229.876183 
L 225.324185 241.716719 
L 226.281304 239.680153 
L 227.238422 234.911029 
L 228.19554 229.353277 
L 229.152659 239.416858 
L 230.109777 228.083199 
L 231.066895 232.227532 
L 232.024014 223.512867 
L 232.981132 232.437087 
L 233.93825 233.231193 
L 234.895369 240.378045 
L 235.852487 241.597373 
L 236.809605 240.072174 
L 237.766724 235.553539 
L 238.723842 239.879267 
L 239.680961 226.93088 
L 240.638079 241.393834 
L 241.595197 238.714619 
L 242.552316 230.978385 
L 244.466552 220.586917 
L 246.380789 240.56091 
L 247.337907 238.092745 
L 248.295026 239.815872 
L 249.252144 235.434789 
L 250.209262 225.101398 
L 251.166381 219.881099 
L 252.123499 234.666052 
L 253.080617 240.79276 
L 254.037736 231.838071 
L 254.994854 241.267728 
L 255.951973 242.058521 
L 256.909091 232.172927 
L 257.866209 225.537988 
L 258.823328 238.287774 
L 259.780446 229.730074 
L 260.737564 230.121537 
L 261.694683 236.224694 
L 262.651801 238.61871 
L 263.608919 235.936643 
L 264.566038 238.736719 
L 265.523156 229.7826 
L 266.480274 232.329296 
L 268.394511 222.311594 
L 269.35163 235.366169 
L 270.308748 232.65954 
L 271.265866 237.506524 
L 272.222985 232.903282 
L 273.180103 236.08645 
L 274.137221 239.736062 
L 275.09434 232.868801 
L 276.051458 232.576272 
L 277.008576 235.805819 
L 277.965695 226.387701 
L 278.922813 240.843692 
L 279.879931 239.996243 
L 280.83705 241.659106 
L 281.794168 240.171513 
L 282.751286 241.337696 
L 283.708405 226.773073 
L 284.665523 241.372265 
L 285.622642 221.535062 
L 286.57976 241.993936 
L 287.536878 235.627937 
L 288.493997 241.894131 
L 290.408233 239.036639 
L 291.365352 240.239763 
L 292.32247 241.038664 
L 293.279588 232.385045 
L 294.236707 232.426916 
L 295.193825 241.176301 
L 296.150943 240.63742 
L 297.108062 239.440814 
L 298.06518 226.412916 
L 299.022298 239.849074 
L 299.979417 236.046332 
L 300.936535 237.654596 
L 301.893654 238.492025 
L 302.850772 239.976994 
L 304.765009 236.376156 
L 305.722127 240.841442 
L 306.679245 234.335272 
L 307.636364 241.725018 
L 308.593482 239.941091 
L 309.5506 234.918557 
L 310.507719 234.698449 
L 311.464837 239.908756 
L 312.421955 241.723405 
L 313.379074 240.651761 
L 314.336192 240.227451 
L 315.29331 241.92828 
L 316.250429 240.975273 
L 317.207547 241.025389 
L 318.164666 236.952204 
L 319.121784 240.832419 
L 321.036021 238.877743 
L 321.993139 238.928474 
L 322.950257 238.819497 
L 323.907376 241.896565 
L 324.864494 241.050491 
L 325.821612 240.865819 
L 326.778731 241.075776 
L 327.735849 240.987679 
L 328.692967 241.984748 
L 329.650086 242.043692 
L 330.607204 239.965322 
L 331.564322 240.259144 
L 332.521441 241.805804 
L 334.435678 241.962072 
L 335.392796 242.106395 
L 336.349914 239.501843 
L 337.307033 241.502618 
L 339.221269 240.638863 
L 340.178388 242.08967 
L 341.135506 241.904393 
L 342.092624 241.905501 
L 343.049743 241.623551 
L 344.006861 241.874872 
L 344.963979 241.9591 
L 345.921098 241.814332 
L 346.878216 242.079683 
L 347.835334 242.004605 
L 349.749571 242.1143 
L 350.70669 242.115232 
L 352.620926 241.968077 
L 353.578045 242.095872 
L 355.492281 242.108801 
L 356.4494 241.807622 
L 357.406518 242.104521 
L 358.363636 242.084684 
L 359.320755 241.892063 
L 361.234991 242.09113 
L 363.149228 242.022579 
L 366.020583 242.089395 
L 366.977702 241.969155 
L 367.93482 242.081147 
L 368.891938 242.021547 
L 370.806175 242.103045 
L 371.763293 242.033653 
L 373.67753 242.089192 
L 382.291595 242.106835 
L 401.433962 242.113429 
L 433 242.114231 
M 433 242.116321 
L -1 242.116321 
L -1 242.116321 
" clip-path="url(#pd587f95eae)" style="fill: none; stroke: #55a868; stroke-opacity: 0.3; stroke-width: 1.5; stroke-linecap: round"/>
   </g>
   <g id="line2d_17">
    <path d="M 54 242.115463 
L 95.156089 242.066212 
L 96.113208 241.94633 
L 98.984563 242.044146 
L 99.941681 240.960433 
L 100.898799 242.087709 
L 101.855918 239.022752 
L 102.813036 239.164792 
L 103.770154 224.12518 
L 104.727273 222.991898 
L 105.684391 236.384755 
L 106.641509 232.679563 
L 107.598628 238.50471 
L 108.555746 205.877005 
L 109.512864 217.67356 
L 110.469983 210.253404 
L 111.427101 220.999614 
L 112.38422 175.659638 
L 113.341338 239.290901 
L 114.298456 233.20067 
L 115.255575 231.023055 
L 116.212693 223.336987 
L 117.169811 217.775675 
L 118.12693 44.443636 
L 119.084048 199.270101 
L 120.041166 171.418216 
L 120.998285 219.483977 
L 121.955403 148.901107 
L 122.912521 61.023322 
L 123.86964 225.209083 
L 124.826758 211.450032 
L 125.783877 239.078479 
L 126.740995 219.699135 
L 127.698113 205.184269 
L 128.655232 212.095324 
L 129.61235 209.102433 
L 130.569468 235.836433 
L 131.526587 184.138348 
L 132.483705 214.457267 
L 133.440823 195.26662 
L 134.397942 225.468303 
L 135.35506 194.508698 
L 136.312178 119.477594 
L 137.269297 128.993208 
L 138.226415 236.703146 
L 139.183533 207.05358 
L 140.140652 205.786416 
L 141.09777 228.437736 
L 142.054889 231.3521 
L 143.012007 241.355268 
L 143.969125 223.934563 
L 144.926244 198.701263 
L 145.883362 116.419411 
L 146.84048 161.527087 
L 147.797599 222.708465 
L 148.754717 217.275604 
L 149.711835 224.175256 
L 150.668954 146.334936 
L 151.626072 220.330794 
L 152.58319 210.235177 
L 153.540309 222.907241 
L 154.497427 222.49379 
L 155.454545 208.498479 
L 156.411664 186.239654 
L 157.368782 226.846518 
L 158.325901 211.924821 
L 159.283019 213.217837 
L 160.240137 226.676675 
L 161.197256 235.033811 
L 162.154374 225.088198 
L 163.111492 197.391972 
L 164.068611 241.960131 
L 165.025729 215.214714 
L 165.982847 208.538719 
L 166.939966 224.363842 
L 167.897084 221.967846 
L 168.854202 241.768404 
L 169.811321 225.777785 
L 170.768439 213.082777 
L 171.725557 223.549627 
L 172.682676 222.086814 
L 173.639794 240.437222 
L 174.596913 238.74351 
L 175.554031 238.470783 
L 176.511149 232.766493 
L 177.468268 220.121606 
L 178.425386 202.857093 
L 179.382504 189.167112 
L 180.339623 232.429933 
L 181.296741 211.586703 
L 182.253859 241.394326 
L 183.210978 231.860585 
L 184.168096 241.666024 
L 185.125214 241.13225 
L 186.082333 241.031857 
L 187.039451 235.201333 
L 187.996569 237.740288 
L 188.953688 239.031935 
L 189.910806 214.822156 
L 190.867925 224.579432 
L 191.825043 238.386208 
L 192.782161 233.86786 
L 193.73928 225.331403 
L 194.696398 235.447213 
L 195.653516 239.84109 
L 196.610635 238.41924 
L 197.567753 217.838274 
L 198.524871 231.055946 
L 199.48199 228.439879 
L 200.439108 203.853228 
L 201.396226 212.060897 
L 202.353345 234.565776 
L 203.310463 237.518038 
L 204.267581 233.188541 
L 205.2247 233.40384 
L 206.181818 232.822861 
L 207.138937 239.837 
L 209.053173 241.539939 
L 210.010292 239.477384 
L 210.96741 222.821198 
L 211.924528 229.497624 
L 212.881647 241.51734 
L 213.838765 235.393746 
L 214.795883 239.27975 
L 215.753002 231.466067 
L 216.71012 238.535676 
L 217.667238 236.18132 
L 218.624357 240.022993 
L 219.581475 237.936591 
L 220.538593 234.304241 
L 221.495712 222.843542 
L 222.45283 239.748023 
L 223.409949 236.97272 
L 224.367067 229.77306 
L 225.324185 232.918923 
L 226.281304 242.006822 
L 227.238422 239.542546 
L 228.19554 241.031624 
L 229.152659 233.962204 
L 230.109777 241.521647 
L 231.066895 240.328875 
L 232.024014 242.078035 
L 232.981132 238.57438 
L 233.93825 221.363334 
L 234.895369 234.162305 
L 235.852487 226.407644 
L 236.809605 233.654828 
L 237.766724 231.030612 
L 238.723842 240.257409 
L 239.680961 239.771901 
L 240.638079 241.478837 
L 241.595197 239.60721 
L 242.552316 240.233954 
L 243.509434 230.666847 
L 244.466552 212.586125 
L 245.423671 229.783051 
L 246.380789 232.961325 
L 247.337907 238.990979 
L 248.295026 241.245344 
L 249.252144 241.331823 
L 250.209262 237.351848 
L 251.166381 239.950013 
L 252.123499 238.126577 
L 253.080617 235.766791 
L 254.037736 241.153919 
L 254.994854 232.527477 
L 255.951973 237.754711 
L 256.909091 238.172471 
L 257.866209 239.874117 
L 258.823328 232.320919 
L 259.780446 231.273154 
L 260.737564 236.995769 
L 261.694683 241.870353 
L 262.651801 237.023244 
L 263.608919 239.508593 
L 264.566038 241.598382 
L 266.480274 241.931131 
L 267.437393 239.559462 
L 268.394511 234.564118 
L 270.308748 231.476853 
L 271.265866 227.601391 
L 272.222985 241.094032 
L 273.180103 241.776581 
L 274.137221 240.287428 
L 275.09434 240.396529 
L 276.051458 241.263118 
L 277.008576 241.541296 
L 277.965695 241.193283 
L 278.922813 238.815993 
L 279.879931 238.693424 
L 280.83705 233.19803 
L 281.794168 240.483863 
L 282.751286 241.379364 
L 283.708405 241.771066 
L 284.665523 242.004616 
L 285.622642 241.315682 
L 286.57976 241.899663 
L 287.536878 241.370379 
L 288.493997 241.120067 
L 289.451115 238.274096 
L 290.408233 238.355692 
L 291.365352 235.939338 
L 292.32247 239.868963 
L 293.279588 236.431444 
L 294.236707 237.11078 
L 295.193825 237.225328 
L 296.150943 240.159972 
L 297.108062 241.219884 
L 298.06518 241.194437 
L 299.022298 240.489005 
L 299.979417 240.849085 
L 300.936535 238.594278 
L 301.893654 241.63536 
L 302.850772 238.289178 
L 303.80789 238.421712 
L 304.765009 240.934303 
L 305.722127 241.245057 
L 306.679245 240.702388 
L 307.636364 241.363061 
L 308.593482 240.692894 
L 309.5506 241.772083 
L 310.507719 240.611803 
L 311.464837 240.851152 
L 312.421955 240.886556 
L 313.379074 241.952588 
L 314.336192 240.691666 
L 316.250429 240.383318 
L 317.207547 239.76405 
L 318.164666 240.009904 
L 319.121784 242.113407 
L 320.078902 242.11167 
L 321.036021 241.487329 
L 321.993139 241.865462 
L 322.950257 241.703564 
L 323.907376 240.276086 
L 324.864494 242.059907 
L 325.821612 241.229973 
L 326.778731 239.190628 
L 327.735849 241.09013 
L 328.692967 242.015154 
L 329.650086 239.764673 
L 331.564322 242.062491 
L 332.521441 241.365508 
L 333.478559 242.008142 
L 334.435678 241.705701 
L 335.392796 242.06725 
L 336.349914 241.505294 
L 337.307033 241.969323 
L 338.264151 241.958762 
L 339.221269 241.565466 
L 340.178388 241.942548 
L 341.135506 242.090712 
L 344.963979 242.057602 
L 345.921098 241.831993 
L 346.878216 241.919355 
L 347.835334 241.780525 
L 348.792453 241.978348 
L 349.749571 241.647829 
L 350.70669 241.572545 
L 351.663808 242.073877 
L 354.535163 242.028441 
L 355.492281 241.743532 
L 356.4494 242.112074 
L 360.277873 241.971291 
L 362.19211 242.09074 
L 367.93482 242.10689 
L 379.42024 242.110026 
L 396.64837 242.114349 
L 433 242.11623 
M 433 242.116363 
L -1 242.116363 
L -1 242.116363 
" clip-path="url(#pd587f95eae)" style="fill: none; stroke: #c44e52; stroke-opacity: 0.3; stroke-width: 1.5; stroke-linecap: round"/>
   </g>
   <g id="line2d_18">
    <path d="M 54 242.115038 
L 95.156089 242.048689 
L 97.070326 241.971934 
L 98.027444 242.096184 
L 98.984563 241.600938 
L 99.941681 242.096835 
L 100.898799 240.394875 
L 101.855918 242.095246 
L 102.813036 230.562233 
L 103.770154 234.049213 
L 104.727273 214.859221 
L 105.684391 237.428516 
L 106.641509 236.978825 
L 107.598628 203.24124 
L 108.555746 235.327159 
L 109.512864 231.488239 
L 110.469983 239.179946 
L 111.427101 234.947986 
L 112.38422 118.967922 
L 113.341338 120.529856 
L 114.298456 205.560125 
L 115.255575 230.678809 
L 116.212693 230.033946 
L 117.169811 240.951388 
L 118.12693 238.82853 
L 119.084048 196.098522 
L 120.041166 192.87554 
L 120.998285 217.738527 
L 121.955403 44.443636 
L 122.912521 80.587347 
L 123.86964 181.382852 
L 124.826758 224.751522 
L 125.783877 151.635887 
L 126.740995 199.861972 
L 127.698113 171.275805 
L 128.655232 221.949347 
L 129.61235 225.394328 
L 130.569468 217.269195 
L 131.526587 222.472378 
L 132.483705 239.624622 
L 134.397942 212.593571 
L 135.35506 163.340641 
L 136.312178 214.11 
L 137.269297 221.074132 
L 138.226415 239.323783 
L 139.183533 191.19489 
L 140.140652 230.51541 
L 141.09777 208.676845 
L 142.054889 224.214828 
L 143.012007 236.142927 
L 143.969125 201.163757 
L 144.926244 233.496942 
L 145.883362 163.648679 
L 146.84048 212.146581 
L 147.797599 227.122475 
L 148.754717 201.509722 
L 149.711835 195.268324 
L 150.668954 197.604433 
L 151.626072 214.439412 
L 152.58319 212.654112 
L 153.540309 237.396898 
L 154.497427 236.496636 
L 155.454545 198.259629 
L 156.411664 181.308671 
L 157.368782 210.539751 
L 158.325901 218.598477 
L 159.283019 233.366969 
L 160.240137 227.366462 
L 161.197256 232.025118 
L 162.154374 232.997041 
L 163.111492 197.448173 
L 164.068611 240.347903 
L 165.025729 216.085545 
L 165.982847 205.020717 
L 166.939966 219.552798 
L 167.897084 214.897909 
L 168.854202 240.043988 
L 169.811321 198.497662 
L 170.768439 186.341977 
L 171.725557 214.36403 
L 172.682676 222.55431 
L 173.639794 224.476302 
L 174.596913 205.289378 
L 175.554031 214.153789 
L 176.511149 209.250861 
L 177.468268 188.779477 
L 178.425386 156.660809 
L 179.382504 172.822954 
L 180.339623 210.185864 
L 181.296741 205.565397 
L 182.253859 236.783193 
L 183.210978 235.310868 
L 184.168096 233.209595 
L 185.125214 234.309612 
L 186.082333 239.826082 
L 187.039451 237.399754 
L 187.996569 238.683526 
L 188.953688 233.891673 
L 189.910806 208.78494 
L 190.867925 200.056953 
L 191.825043 217.248279 
L 192.782161 194.323731 
L 193.73928 212.027494 
L 194.696398 237.949161 
L 195.653516 236.535418 
L 196.610635 240.294258 
L 197.567753 214.059957 
L 198.524871 200.575681 
L 199.48199 212.871516 
L 200.439108 167.52459 
L 201.396226 211.922399 
L 202.353345 232.74833 
L 203.310463 237.771865 
L 204.267581 234.908323 
L 205.2247 227.511491 
L 206.181818 223.042431 
L 207.138937 239.566145 
L 208.096055 241.075925 
L 209.053173 237.219512 
L 210.010292 228.522625 
L 210.96741 210.397863 
L 211.924528 217.251164 
L 212.881647 223.078263 
L 213.838765 234.000354 
L 214.795883 236.249953 
L 215.753002 234.585313 
L 216.71012 239.197142 
L 217.667238 236.848579 
L 218.624357 226.43634 
L 219.581475 226.551746 
L 220.538593 233.16485 
L 221.495712 224.182963 
L 222.45283 235.058562 
L 223.409949 218.288952 
L 224.367067 221.576486 
L 225.324185 222.572374 
L 226.281304 236.961501 
L 227.238422 236.630752 
L 228.19554 233.44293 
L 229.152659 221.583692 
L 230.109777 241.613116 
L 231.066895 235.380277 
L 232.024014 238.691531 
L 232.981132 234.34262 
L 233.93825 210.450179 
L 234.895369 227.470891 
L 235.852487 216.293604 
L 236.809605 221.603104 
L 237.766724 212.588211 
L 238.723842 214.295061 
L 239.680961 241.023766 
L 240.638079 239.305055 
L 241.595197 234.670348 
L 242.552316 239.025763 
L 243.509434 237.54294 
L 244.466552 230.082431 
L 245.423671 241.21499 
L 246.380789 230.356463 
L 247.337907 236.042846 
L 248.295026 225.719493 
L 249.252144 235.896397 
L 250.209262 235.487542 
L 251.166381 235.756481 
L 252.123499 231.23266 
L 253.080617 230.814918 
L 254.037736 234.529734 
L 254.994854 219.220308 
L 255.951973 237.700166 
L 256.909091 220.265913 
L 257.866209 221.822295 
L 258.823328 221.760401 
L 259.780446 209.578396 
L 260.737564 216.672237 
L 261.694683 230.123891 
L 262.651801 234.211747 
L 263.608919 241.535644 
L 264.566038 241.242112 
L 265.523156 241.943316 
L 266.480274 240.2171 
L 267.437393 227.24146 
L 268.394511 229.164001 
L 269.35163 222.226838 
L 270.308748 219.759382 
L 271.265866 222.624194 
L 272.222985 241.181953 
L 273.180103 241.967414 
L 274.137221 241.430846 
L 275.09434 240.384428 
L 276.051458 241.198011 
L 277.008576 239.216512 
L 277.965695 235.08722 
L 278.922813 232.860337 
L 279.879931 222.012781 
L 280.83705 217.099872 
L 281.794168 233.072524 
L 282.751286 239.796685 
L 283.708405 239.425847 
L 284.665523 237.900944 
L 285.622642 240.550741 
L 286.57976 238.962504 
L 287.536878 241.029573 
L 288.493997 241.277027 
L 289.451115 236.339239 
L 290.408233 234.843982 
L 291.365352 222.505203 
L 292.32247 237.394126 
L 293.279588 237.331039 
L 294.236707 237.798386 
L 295.193825 235.618711 
L 296.150943 238.765654 
L 297.108062 240.347471 
L 298.06518 239.82904 
L 299.022298 240.01765 
L 299.979417 241.549674 
L 300.936535 231.271423 
L 301.893654 238.091751 
L 302.850772 233.162644 
L 303.80789 234.967533 
L 304.765009 238.776546 
L 305.722127 238.023602 
L 306.679245 238.062243 
L 307.636364 240.726492 
L 308.593482 241.460382 
L 309.5506 241.693261 
L 310.507719 238.676635 
L 311.464837 234.772473 
L 312.421955 238.687987 
L 313.379074 238.734733 
L 314.336192 237.949243 
L 315.29331 236.340005 
L 316.250429 239.060953 
L 317.207547 237.567842 
L 318.164666 238.509797 
L 319.121784 240.56602 
L 320.078902 241.74462 
L 321.036021 241.178239 
L 321.993139 241.174063 
L 322.950257 241.43482 
L 323.907376 237.03783 
L 324.864494 241.241232 
L 325.821612 239.686051 
L 326.778731 235.772053 
L 327.735849 238.780101 
L 328.692967 240.538831 
L 329.650086 237.920002 
L 330.607204 240.926889 
L 331.564322 241.99239 
L 332.521441 240.224039 
L 333.478559 241.906203 
L 334.435678 242.111619 
L 336.349914 241.298349 
L 337.307033 241.285988 
L 338.264151 241.61761 
L 339.221269 241.230399 
L 340.178388 241.869126 
L 341.135506 242.090402 
L 344.006861 242.114875 
L 344.963979 241.851956 
L 345.921098 241.432035 
L 346.878216 241.771033 
L 347.835334 241.389436 
L 348.792453 241.91419 
L 349.749571 241.359528 
L 350.70669 241.533567 
L 351.663808 242.074806 
L 352.620926 242.078048 
L 353.578045 241.953347 
L 354.535163 242.069194 
L 355.492281 241.666632 
L 356.4494 242.098759 
L 361.234991 241.979487 
L 364.106346 242.111219 
L 366.020583 242.044745 
L 369.849057 242.051491 
L 371.763293 242.007387 
L 376.548885 242.107334 
L 384.205832 242.099717 
L 392.819897 242.114163 
L 433 242.115692 
M 433 242.116334 
L -1 242.116334 
L -1 242.116334 
" clip-path="url(#pd587f95eae)" style="fill: none; stroke: #8172b3; stroke-opacity: 0.3; stroke-width: 1.5; stroke-linecap: round"/>
   </g>
   <g id="line2d_19">
    <path d="M 54 242.11163 
L 98.027444 242.093036 
L 98.984563 241.920489 
L 99.941681 242.094379 
L 100.898799 241.780364 
L 101.855918 241.186369 
L 102.813036 237.790634 
L 103.770154 242.098982 
L 104.727273 237.548325 
L 105.684391 238.267645 
L 106.641509 234.298537 
L 107.598628 237.83632 
L 109.512864 218.806909 
L 110.469983 231.067032 
L 111.427101 193.513622 
L 112.38422 211.765392 
L 113.341338 204.070358 
L 114.298456 228.096181 
L 115.255575 226.685134 
L 116.212693 224.21022 
L 117.169811 216.846749 
L 118.12693 87.149313 
L 119.084048 234.99121 
L 120.041166 196.967087 
L 120.998285 233.777577 
L 121.955403 44.443636 
L 122.912521 106.819923 
L 123.86964 146.121276 
L 124.826758 223.226297 
L 125.783877 177.635001 
L 126.740995 193.686705 
L 127.698113 104.743573 
L 128.655232 221.195046 
L 129.61235 226.53778 
L 130.569468 215.550821 
L 131.526587 231.908285 
L 132.483705 221.280779 
L 133.440823 233.022317 
L 134.397942 232.91813 
L 135.35506 52.597946 
L 136.312178 215.704126 
L 137.269297 225.934423 
L 138.226415 197.804188 
L 139.183533 154.229427 
L 140.140652 215.814409 
L 141.09777 140.651786 
L 142.054889 241.071211 
L 143.012007 241.312797 
L 143.969125 180.465264 
L 144.926244 234.340425 
L 145.883362 216.429261 
L 146.84048 216.052036 
L 147.797599 229.339449 
L 149.711835 188.296662 
L 150.668954 196.674966 
L 151.626072 211.542416 
L 152.58319 215.532816 
L 153.540309 184.41992 
L 154.497427 239.936888 
L 155.454545 186.527322 
L 156.411664 153.951691 
L 157.368782 218.374122 
L 158.325901 230.61846 
L 159.283019 237.638184 
L 160.240137 190.332338 
L 161.197256 195.111084 
L 162.154374 183.821632 
L 163.111492 198.330744 
L 164.068611 241.139027 
L 165.025729 218.750143 
L 165.982847 199.507886 
L 166.939966 194.936575 
L 167.897084 177.851355 
L 168.854202 241.899597 
L 169.811321 171.662125 
L 170.768439 200.135661 
L 171.725557 192.447926 
L 172.682676 213.430975 
L 173.639794 226.345459 
L 174.596913 178.621086 
L 175.554031 221.543954 
L 176.511149 199.481659 
L 177.468268 206.715657 
L 178.425386 172.568916 
L 179.382504 216.485636 
L 180.339623 228.708032 
L 181.296741 213.796152 
L 182.253859 242.005327 
L 183.210978 226.977591 
L 184.168096 234.15526 
L 185.125214 208.814043 
L 186.082333 231.229275 
L 187.039451 236.641061 
L 187.996569 241.279795 
L 188.953688 235.158183 
L 189.910806 226.169936 
L 190.867925 189.478505 
L 191.825043 235.283858 
L 192.782161 213.958884 
L 193.73928 199.879791 
L 194.696398 221.990282 
L 195.653516 233.019136 
L 196.610635 239.43219 
L 197.567753 214.613526 
L 198.524871 226.483754 
L 199.48199 222.347444 
L 200.439108 168.941451 
L 201.396226 199.406159 
L 202.353345 237.254123 
L 203.310463 228.176537 
L 204.267581 234.173569 
L 205.2247 216.037369 
L 206.181818 217.466861 
L 207.138937 236.956781 
L 208.096055 240.795557 
L 209.053173 233.939744 
L 210.010292 214.227234 
L 210.96741 219.983223 
L 211.924528 239.056992 
L 213.838765 211.723696 
L 214.795883 233.196309 
L 215.753002 240.427869 
L 216.71012 235.084823 
L 217.667238 234.99892 
L 218.624357 211.922883 
L 219.581475 226.72567 
L 220.538593 215.079789 
L 221.495712 229.356666 
L 222.45283 241.62259 
L 223.409949 220.338277 
L 224.367067 239.447517 
L 225.324185 223.358254 
L 226.281304 233.085522 
L 227.238422 233.970306 
L 228.19554 233.386779 
L 229.152659 214.685925 
L 230.109777 236.860866 
L 231.066895 239.245927 
L 232.024014 242.039252 
L 232.981132 236.448646 
L 233.93825 221.866723 
L 234.895369 236.11976 
L 235.852487 233.216239 
L 236.809605 235.855161 
L 237.766724 223.864521 
L 238.723842 209.922903 
L 239.680961 240.421586 
L 240.638079 239.274117 
L 241.595197 225.16951 
L 242.552316 234.316196 
L 243.509434 231.956044 
L 244.466552 230.076495 
L 245.423671 240.466416 
L 246.380789 240.113691 
L 247.337907 241.659042 
L 248.295026 237.351517 
L 249.252144 237.210373 
L 250.209262 223.170112 
L 251.166381 241.913994 
L 252.123499 235.215667 
L 253.080617 217.598348 
L 254.037736 232.429291 
L 254.994854 231.044534 
L 255.951973 233.088024 
L 256.909091 224.802603 
L 257.866209 225.202795 
L 258.823328 231.997791 
L 259.780446 206.067232 
L 260.737564 216.703486 
L 261.694683 230.053357 
L 263.608919 235.111364 
L 264.566038 238.507415 
L 265.523156 231.854333 
L 266.480274 238.925476 
L 267.437393 233.229197 
L 268.394511 230.517136 
L 269.35163 222.765112 
L 270.308748 225.059424 
L 271.265866 217.707505 
L 272.222985 240.865817 
L 273.180103 239.290711 
L 274.137221 240.311953 
L 275.09434 231.872638 
L 276.051458 238.14021 
L 277.008576 240.7056 
L 277.965695 238.778605 
L 278.922813 234.918832 
L 279.879931 227.809109 
L 280.83705 228.104741 
L 281.794168 238.590069 
L 282.751286 235.922629 
L 283.708405 242.054917 
L 284.665523 239.733829 
L 285.622642 240.763741 
L 286.57976 233.777882 
L 287.536878 241.030684 
L 288.493997 241.829587 
L 289.451115 237.208136 
L 290.408233 239.14345 
L 291.365352 232.500964 
L 292.32247 241.995771 
L 293.279588 241.929184 
L 294.236707 236.371924 
L 295.193825 239.823544 
L 296.150943 238.363709 
L 297.108062 236.317232 
L 298.06518 240.125137 
L 299.022298 240.918532 
L 299.979417 239.743529 
L 300.936535 231.361098 
L 301.893654 235.547669 
L 303.80789 240.79229 
L 304.765009 240.841049 
L 305.722127 241.798813 
L 306.679245 241.372669 
L 307.636364 238.526322 
L 308.593482 239.30886 
L 309.5506 241.887519 
L 311.464837 235.08789 
L 312.421955 238.40674 
L 313.379074 238.83652 
L 314.336192 239.908011 
L 315.29331 239.528138 
L 316.250429 241.432901 
L 317.207547 236.533947 
L 318.164666 239.100244 
L 319.121784 238.160914 
L 321.036021 240.362372 
L 321.993139 240.911676 
L 322.950257 241.743723 
L 323.907376 238.037445 
L 324.864494 241.971445 
L 325.821612 241.312404 
L 326.778731 238.04805 
L 327.735849 240.477494 
L 328.692967 240.441894 
L 329.650086 237.167823 
L 330.607204 241.176036 
L 331.564322 241.996161 
L 332.521441 239.873925 
L 333.478559 242.014216 
L 334.435678 241.826997 
L 335.392796 241.780961 
L 336.349914 240.962614 
L 337.307033 242.07666 
L 338.264151 242.045643 
L 339.221269 241.806714 
L 340.178388 241.810461 
L 341.135506 242.110093 
L 344.006861 241.939365 
L 344.963979 241.75338 
L 345.921098 241.745983 
L 346.878216 241.972131 
L 347.835334 241.781685 
L 348.792453 242.101612 
L 349.749571 241.716235 
L 350.70669 241.783496 
L 351.663808 242.092363 
L 352.620926 242.060666 
L 353.578045 241.874362 
L 354.535163 241.937006 
L 355.492281 241.600371 
L 356.4494 242.059157 
L 357.406518 241.999768 
L 358.363636 242.110001 
L 366.977702 242.001136 
L 368.891938 242.112636 
L 371.763293 241.987573 
L 374.634648 242.104043 
L 384.205832 242.113132 
L 433 242.115325 
M 433 242.116354 
L -1 242.116354 
L -1 242.116354 
" clip-path="url(#pd587f95eae)" style="fill: none; stroke: #937860; stroke-opacity: 0.3; stroke-width: 1.5; stroke-linecap: round"/>
   </g>
   <g id="line2d_20">
    <path d="M 54 242.106544 
L 94.198971 242.031912 
L 96.113208 241.766289 
L 98.027444 241.751005 
L 98.984563 241.961313 
L 99.941681 240.814206 
L 100.898799 241.752054 
L 101.855918 237.825689 
L 102.813036 238.326411 
L 103.770154 224.304058 
L 104.727273 229.130829 
L 105.684391 241.275586 
L 106.641509 234.954213 
L 107.598628 220.906333 
L 108.555746 170.804715 
L 109.512864 235.535967 
L 110.469983 224.20486 
L 111.427101 205.425036 
L 112.38422 219.273654 
L 113.341338 213.071068 
L 114.298456 183.499055 
L 115.255575 200.978681 
L 116.212693 44.443636 
L 117.169811 202.810115 
L 118.12693 182.840679 
L 119.084048 150.283246 
L 120.041166 229.003753 
L 120.998285 223.089716 
L 121.955403 231.773952 
L 122.912521 209.1836 
L 123.86964 179.454265 
L 124.826758 46.329202 
L 125.783877 160.960168 
L 126.740995 238.137398 
L 127.698113 239.968844 
L 128.655232 240.603758 
L 129.61235 209.023135 
L 130.569468 241.768911 
L 131.526587 218.459887 
L 132.483705 207.78457 
L 133.440823 231.44629 
L 134.397942 229.48793 
L 135.35506 225.952681 
L 136.312178 219.626404 
L 137.269297 198.015877 
L 138.226415 233.798344 
L 139.183533 224.363796 
L 140.140652 236.586957 
L 141.09777 232.586938 
L 142.054889 239.637628 
L 143.012007 240.147343 
L 143.969125 234.31631 
L 144.926244 225.397938 
L 145.883362 217.926051 
L 146.84048 194.650372 
L 147.797599 214.466592 
L 148.754717 239.941332 
L 149.711835 216.241418 
L 150.668954 187.786294 
L 151.626072 220.993642 
L 152.58319 218.063901 
L 153.540309 176.412388 
L 154.497427 189.787108 
L 155.454545 241.415911 
L 156.411664 225.501018 
L 157.368782 231.195818 
L 158.325901 218.667662 
L 159.283019 215.811364 
L 160.240137 215.514096 
L 161.197256 226.246255 
L 162.154374 232.792952 
L 163.111492 236.75332 
L 165.025729 231.044758 
L 166.939966 241.68775 
L 167.897084 238.785615 
L 168.854202 240.886223 
L 169.811321 238.343655 
L 170.768439 232.365825 
L 171.725557 219.951993 
L 172.682676 240.550292 
L 173.639794 231.929371 
L 174.596913 228.810427 
L 175.554031 219.928188 
L 176.511149 239.238155 
L 177.468268 228.727321 
L 178.425386 236.360412 
L 180.339623 229.505945 
L 181.296741 237.166208 
L 182.253859 237.418173 
L 183.210978 230.453165 
L 184.168096 238.708134 
L 185.125214 240.151289 
L 186.082333 234.980473 
L 187.039451 238.633487 
L 187.996569 239.985388 
L 188.953688 239.285307 
L 189.910806 240.009887 
L 190.867925 242.052068 
L 191.825043 216.966864 
L 192.782161 236.394051 
L 193.73928 235.236705 
L 194.696398 242.107069 
L 195.653516 239.67609 
L 196.610635 241.055253 
L 197.567753 240.940686 
L 198.524871 239.431489 
L 199.48199 239.296758 
L 200.439108 237.061302 
L 201.396226 237.949878 
L 202.353345 239.381215 
L 203.310463 237.984465 
L 204.267581 239.865686 
L 205.2247 240.462376 
L 206.181818 240.019733 
L 207.138937 236.870238 
L 208.096055 240.854993 
L 209.053173 241.996475 
L 210.010292 237.488208 
L 210.96741 240.773724 
L 211.924528 240.096672 
L 212.881647 234.001916 
L 213.838765 232.824211 
L 214.795883 235.705969 
L 215.753002 236.627785 
L 216.71012 241.264184 
L 217.667238 242.070543 
L 218.624357 240.914444 
L 219.581475 242.030715 
L 220.538593 241.819934 
L 221.495712 234.107465 
L 222.45283 238.376811 
L 223.409949 234.562511 
L 224.367067 235.38684 
L 225.324185 241.690989 
L 226.281304 241.396424 
L 227.238422 241.976226 
L 228.19554 239.539394 
L 230.109777 239.060656 
L 231.066895 238.244326 
L 232.024014 239.533151 
L 232.981132 241.43934 
L 233.93825 241.578738 
L 234.895369 241.953082 
L 235.852487 234.967238 
L 236.809605 239.994417 
L 237.766724 237.994627 
L 238.723842 240.525998 
L 239.680961 236.456618 
L 240.638079 239.67992 
L 241.595197 236.051172 
L 242.552316 241.19718 
L 243.509434 242.062553 
L 244.466552 226.156024 
L 245.423671 236.548601 
L 246.380789 239.757205 
L 247.337907 239.711572 
L 248.295026 237.791138 
L 249.252144 240.743586 
L 250.209262 237.580673 
L 251.166381 232.548257 
L 252.123499 239.767095 
L 253.080617 238.040691 
L 254.037736 241.325998 
L 254.994854 240.690072 
L 255.951973 238.570204 
L 256.909091 241.985307 
L 257.866209 241.923336 
L 258.823328 242.081132 
L 259.780446 235.372755 
L 260.737564 239.501431 
L 261.694683 241.91893 
L 262.651801 240.257946 
L 263.608919 241.842151 
L 264.566038 241.442854 
L 265.523156 240.611316 
L 266.480274 241.468209 
L 267.437393 241.948628 
L 268.394511 242.11453 
L 270.308748 239.638332 
L 271.265866 241.665277 
L 272.222985 240.367692 
L 273.180103 241.039084 
L 274.137221 240.574307 
L 276.051458 242.073631 
L 277.008576 238.027888 
L 277.965695 241.032717 
L 278.922813 237.742164 
L 279.879931 240.460023 
L 280.83705 241.575789 
L 281.794168 241.784302 
L 282.751286 238.489908 
L 283.708405 239.288843 
L 284.665523 241.45776 
L 285.622642 241.3232 
L 286.57976 240.460479 
L 287.536878 241.594894 
L 288.493997 241.537296 
L 289.451115 241.60206 
L 290.408233 241.16407 
L 291.365352 241.625152 
L 292.32247 239.391856 
L 293.279588 242.110322 
L 294.236707 242.016926 
L 295.193825 241.406712 
L 296.150943 240.236528 
L 297.108062 242.083063 
L 298.06518 239.727464 
L 299.022298 240.168873 
L 299.979417 241.948116 
L 300.936535 241.44017 
L 301.893654 241.996673 
L 302.850772 241.017378 
L 303.80789 241.726235 
L 304.765009 238.941818 
L 305.722127 239.256621 
L 306.679245 242.088721 
L 307.636364 242.092819 
L 308.593482 239.779283 
L 309.5506 241.48981 
L 310.507719 239.794053 
L 311.464837 239.64264 
L 312.421955 240.651768 
L 313.379074 239.875804 
L 314.336192 241.400188 
L 315.29331 241.949923 
L 316.250429 241.617333 
L 317.207547 242.019727 
L 318.164666 240.782769 
L 319.121784 241.237645 
L 320.078902 242.041926 
L 321.036021 240.920248 
L 321.993139 241.29369 
L 322.950257 241.807172 
L 323.907376 242.042369 
L 325.821612 241.943427 
L 326.778731 242.079373 
L 327.735849 242.014506 
L 328.692967 241.752236 
L 329.650086 241.819013 
L 330.607204 242.016764 
L 331.564322 241.948498 
L 332.521441 242.091 
L 334.435678 241.910276 
L 335.392796 242.084585 
L 336.349914 241.931264 
L 337.307033 242.07427 
L 338.264151 242.056793 
L 339.221269 241.689533 
L 340.178388 241.657499 
L 341.135506 241.980584 
L 342.092624 242.109623 
L 343.049743 241.971582 
L 364.106346 242.104232 
L 365.063465 242.040265 
L 366.977702 242.114412 
L 433 242.115983 
M 433 242.116363 
L -1 242.116363 
L -1 242.116363 
" clip-path="url(#pd587f95eae)" style="fill: none; stroke: #da8bc3; stroke-opacity: 0.3; stroke-width: 1.5; stroke-linecap: round"/>
   </g>
   <g id="line2d_21">
    <path d="M 54 242.116045 
L 95.156089 242.082396 
L 97.070326 241.97621 
L 98.027444 241.934653 
L 98.984563 241.041096 
L 99.941681 242.026874 
L 100.898799 239.720565 
L 101.855918 241.418377 
L 102.813036 220.397723 
L 103.770154 237.189822 
L 104.727273 192.828063 
L 105.684391 240.431498 
L 106.641509 238.304892 
L 107.598628 216.468542 
L 108.555746 214.719039 
L 109.512864 224.856777 
L 110.469983 233.163992 
L 111.427101 231.165987 
L 112.38422 133.770645 
L 113.341338 163.719932 
L 114.298456 171.460866 
L 115.255575 218.274591 
L 116.212693 44.443636 
L 117.169811 235.753099 
L 118.12693 228.989653 
L 119.084048 236.354835 
L 120.041166 211.982665 
L 120.998285 217.616022 
L 121.955403 204.756022 
L 122.912521 241.217877 
L 123.86964 237.276687 
L 124.826758 231.943749 
L 125.783877 172.079033 
L 126.740995 218.749414 
L 127.698113 219.754051 
L 128.655232 239.051833 
L 129.61235 225.343797 
L 130.569468 241.112764 
L 131.526587 242.013672 
L 132.483705 192.214371 
L 133.440823 227.810332 
L 134.397942 215.35656 
L 135.35506 204.370614 
L 136.312178 229.535006 
L 137.269297 234.113966 
L 138.226415 234.744857 
L 139.183533 235.790905 
L 140.140652 237.772291 
L 141.09777 241.294627 
L 142.054889 223.829115 
L 143.012007 232.984801 
L 143.969125 240.050161 
L 144.926244 239.748995 
L 145.883362 235.036387 
L 146.84048 233.646612 
L 147.797599 235.892546 
L 148.754717 231.003272 
L 149.711835 236.59594 
L 150.668954 241.22615 
L 151.626072 242.033179 
L 152.58319 242.025455 
L 153.540309 213.738597 
L 154.497427 235.385976 
L 155.454545 220.761887 
L 156.411664 233.307901 
L 157.368782 223.364144 
L 158.325901 234.480917 
L 159.283019 240.490412 
L 160.240137 229.377242 
L 161.197256 242.035315 
L 162.154374 240.463771 
L 163.111492 240.697948 
L 164.068611 240.318455 
L 165.025729 237.89572 
L 165.982847 230.80233 
L 166.939966 236.844362 
L 167.897084 235.562659 
L 168.854202 241.818117 
L 169.811321 235.555792 
L 170.768439 236.605693 
L 171.725557 232.553343 
L 172.682676 240.288361 
L 173.639794 238.81453 
L 174.596913 241.930648 
L 175.554031 222.710912 
L 176.511149 237.44891 
L 177.468268 232.009571 
L 178.425386 239.665008 
L 179.382504 241.190765 
L 180.339623 240.761824 
L 181.296741 240.706927 
L 182.253859 241.602691 
L 183.210978 241.627225 
L 184.168096 224.844721 
L 185.125214 240.553604 
L 186.082333 234.987724 
L 187.039451 241.988775 
L 187.996569 240.909253 
L 189.910806 234.820445 
L 190.867925 237.723403 
L 191.825043 237.707065 
L 192.782161 238.955343 
L 193.73928 237.024336 
L 194.696398 239.087903 
L 195.653516 240.092617 
L 196.610635 240.673474 
L 197.567753 242.111423 
L 198.524871 240.859822 
L 199.48199 241.726332 
L 200.439108 240.020421 
L 201.396226 239.031573 
L 202.353345 241.204557 
L 203.310463 241.649676 
L 204.267581 241.623618 
L 205.2247 240.106583 
L 206.181818 236.228878 
L 207.138937 239.945621 
L 208.096055 241.323034 
L 209.053173 238.930712 
L 210.010292 241.5412 
L 210.96741 241.812786 
L 211.924528 239.94337 
L 212.881647 240.483477 
L 213.838765 241.842293 
L 214.795883 234.631337 
L 215.753002 240.234101 
L 216.71012 241.37645 
L 217.667238 241.870449 
L 218.624357 240.769574 
L 219.581475 240.773485 
L 220.538593 241.907414 
L 221.495712 235.028478 
L 222.45283 237.441124 
L 223.409949 233.028955 
L 225.324185 241.833716 
L 226.281304 236.32948 
L 227.238422 239.291419 
L 228.19554 236.525649 
L 229.152659 238.768639 
L 230.109777 234.187411 
L 231.066895 233.046904 
L 232.024014 239.688856 
L 232.981132 239.169067 
L 234.895369 239.535268 
L 236.809605 240.168446 
L 237.766724 238.573411 
L 238.723842 237.779121 
L 239.680961 233.731165 
L 240.638079 233.135185 
L 241.595197 240.65421 
L 242.552316 240.928038 
L 243.509434 239.965191 
L 244.466552 239.549468 
L 245.423671 236.052406 
L 246.380789 240.381935 
L 247.337907 240.116027 
L 248.295026 240.62469 
L 249.252144 239.817925 
L 250.209262 240.006577 
L 251.166381 221.963351 
L 252.123499 240.546529 
L 253.080617 238.345701 
L 254.037736 241.256486 
L 254.994854 237.590974 
L 255.951973 240.168736 
L 256.909091 240.192814 
L 257.866209 239.914162 
L 258.823328 241.589564 
L 259.780446 235.119639 
L 260.737564 239.204876 
L 261.694683 241.920723 
L 262.651801 236.651317 
L 263.608919 240.048281 
L 264.566038 241.419113 
L 265.523156 240.741568 
L 266.480274 239.529985 
L 267.437393 242.084783 
L 269.35163 241.645365 
L 270.308748 241.260566 
L 271.265866 242.074036 
L 272.222985 240.615723 
L 273.180103 242.073572 
L 274.137221 241.877031 
L 275.09434 237.923763 
L 276.051458 240.823587 
L 277.008576 240.100016 
L 277.965695 240.439617 
L 278.922813 241.160478 
L 279.879931 241.40016 
L 280.83705 242.000851 
L 281.794168 241.87282 
L 282.751286 241.257115 
L 283.708405 240.775508 
L 284.665523 241.738555 
L 285.622642 242.036406 
L 286.57976 239.419855 
L 287.536878 241.580857 
L 288.493997 241.169249 
L 289.451115 242.074644 
L 290.408233 240.699103 
L 291.365352 241.460336 
L 292.32247 240.319668 
L 293.279588 242.091773 
L 294.236707 240.93402 
L 295.193825 240.828211 
L 296.150943 237.8173 
L 297.108062 241.377235 
L 298.06518 238.453798 
L 299.022298 239.25005 
L 299.979417 241.600203 
L 300.936535 241.795559 
L 301.893654 241.662065 
L 302.850772 239.968425 
L 303.80789 240.775294 
L 304.765009 236.193718 
L 306.679245 241.789032 
L 307.636364 241.852329 
L 308.593482 239.640836 
L 309.5506 241.452023 
L 310.507719 240.515407 
L 311.464837 239.971747 
L 312.421955 241.126907 
L 313.379074 239.806794 
L 314.336192 237.448274 
L 315.29331 241.684699 
L 316.250429 241.66729 
L 317.207547 241.813776 
L 318.164666 241.48559 
L 319.121784 241.917566 
L 320.078902 241.850368 
L 321.036021 241.9555 
L 321.993139 241.698734 
L 322.950257 242.039716 
L 323.907376 241.882607 
L 324.864494 242.112926 
L 325.821612 241.933732 
L 326.778731 242.112472 
L 327.735849 241.78086 
L 328.692967 241.893426 
L 329.650086 241.717533 
L 330.607204 242.080844 
L 335.392796 241.857988 
L 336.349914 242.053777 
L 337.307033 242.106117 
L 339.221269 241.830293 
L 341.135506 242.105228 
L 342.092624 242.008804 
L 343.049743 242.107692 
L 344.006861 241.887927 
L 344.963979 242.098722 
L 346.878216 242.096368 
L 347.835334 241.815202 
L 348.792453 242.090659 
L 351.663808 242.048932 
L 355.492281 242.112917 
L 363.149228 242.10449 
L 378.463122 242.115299 
L 396.64837 242.112384 
L 433 242.114521 
M 433 242.116206 
L -1 242.116206 
L -1 242.116206 
" clip-path="url(#pd587f95eae)" style="fill: none; stroke: #8c8c8c; stroke-opacity: 0.3; stroke-width: 1.5; stroke-linecap: round"/>
   </g>
   <g id="line2d_22">
    <path d="M 54 241.803345 
L 84.627787 241.690583 
L 94.198971 241.633148 
L 95.156089 241.430275 
L 96.113208 241.442005 
L 97.070326 241.305848 
L 98.027444 241.520439 
L 98.984563 240.804234 
L 99.941681 240.875645 
L 100.898799 239.324335 
L 101.855918 241.913572 
L 102.813036 233.938437 
L 104.727273 241.891612 
L 105.684391 241.365927 
L 106.641509 238.342937 
L 107.598628 226.220379 
L 108.555746 199.311625 
L 109.512864 242.022238 
L 110.469983 44.443636 
L 111.427101 89.547708 
L 112.38422 185.101528 
L 113.341338 224.983199 
L 114.298456 103.985587 
L 115.255575 236.949323 
L 116.212693 205.966372 
L 117.169811 166.684562 
L 118.12693 50.613425 
L 119.084048 117.429813 
L 120.041166 173.41721 
L 120.998285 161.099107 
L 121.955403 193.901908 
L 122.912521 206.77621 
L 123.86964 237.321387 
L 124.826758 181.327731 
L 125.783877 136.685921 
L 126.740995 235.04966 
L 127.698113 111.328539 
L 128.655232 232.274316 
L 129.61235 151.810842 
L 130.569468 199.149082 
L 131.526587 239.119028 
L 132.483705 136.406093 
L 133.440823 225.126093 
L 134.397942 234.268954 
L 135.35506 223.091402 
L 136.312178 216.938569 
L 137.269297 220.894956 
L 138.226415 105.237554 
L 139.183533 133.544806 
L 140.140652 227.778414 
L 141.09777 235.643274 
L 142.054889 234.806388 
L 143.012007 219.742928 
L 143.969125 225.037548 
L 144.926244 199.290513 
L 145.883362 231.344455 
L 146.84048 144.856759 
L 147.797599 218.780194 
L 148.754717 212.532733 
L 150.668954 230.091111 
L 151.626072 233.554526 
L 152.58319 240.62187 
L 153.540309 180.824699 
L 154.497427 210.228636 
L 155.454545 221.075197 
L 156.411664 219.009649 
L 157.368782 215.142879 
L 158.325901 199.062056 
L 159.283019 227.970275 
L 160.240137 201.090058 
L 161.197256 229.44439 
L 162.154374 238.872908 
L 163.111492 240.939216 
L 164.068611 228.479791 
L 165.025729 227.586088 
L 165.982847 226.14815 
L 166.939966 218.960148 
L 167.897084 228.844992 
L 168.854202 224.620271 
L 169.811321 222.685224 
L 170.768439 232.60708 
L 171.725557 218.309354 
L 172.682676 207.354585 
L 173.639794 186.619036 
L 174.596913 242.052074 
L 175.554031 192.123164 
L 176.511149 225.058426 
L 177.468268 178.433592 
L 178.425386 239.367267 
L 179.382504 229.14429 
L 180.339623 240.967099 
L 181.296741 232.728027 
L 182.253859 229.24636 
L 183.210978 225.053342 
L 184.168096 172.361801 
L 185.125214 228.622228 
L 186.082333 233.550356 
L 187.039451 239.553095 
L 187.996569 240.74579 
L 188.953688 198.931422 
L 190.867925 234.660742 
L 191.825043 231.339684 
L 192.782161 216.974315 
L 193.73928 223.550405 
L 194.696398 232.617863 
L 195.653516 230.513652 
L 196.610635 232.529811 
L 197.567753 238.647601 
L 198.524871 236.581623 
L 199.48199 239.232401 
L 200.439108 232.168286 
L 201.396226 208.228765 
L 202.353345 240.378696 
L 203.310463 226.979614 
L 205.2247 232.992137 
L 206.181818 227.610929 
L 207.138937 239.43288 
L 208.096055 241.172048 
L 209.053173 239.905366 
L 210.010292 238.066946 
L 210.96741 241.460704 
L 211.924528 235.284339 
L 212.881647 236.205346 
L 213.838765 241.280875 
L 214.795883 221.573903 
L 215.753002 212.581185 
L 216.71012 235.984839 
L 217.667238 241.882879 
L 218.624357 226.966953 
L 219.581475 237.682685 
L 220.538593 231.048648 
L 221.495712 221.102414 
L 222.45283 230.322105 
L 223.409949 221.889334 
L 224.367067 228.153952 
L 225.324185 241.096495 
L 226.281304 232.774195 
L 227.238422 222.487428 
L 228.19554 236.009612 
L 229.152659 240.417088 
L 230.109777 230.377055 
L 231.066895 206.955121 
L 232.024014 225.92107 
L 232.981132 240.77715 
L 233.93825 234.248323 
L 234.895369 235.999737 
L 235.852487 241.062001 
L 236.809605 228.736492 
L 237.766724 232.611121 
L 238.723842 218.157592 
L 239.680961 219.052281 
L 240.638079 210.237044 
L 241.595197 237.298904 
L 242.552316 240.580825 
L 243.509434 230.158015 
L 244.466552 240.739859 
L 245.423671 226.407946 
L 246.380789 219.751304 
L 247.337907 236.376386 
L 248.295026 237.181113 
L 249.252144 222.201264 
L 250.209262 234.785754 
L 251.166381 222.365863 
L 252.123499 234.745083 
L 253.080617 230.615784 
L 254.037736 221.506136 
L 254.994854 235.917403 
L 255.951973 239.75519 
L 256.909091 234.575098 
L 257.866209 234.921481 
L 258.823328 239.516505 
L 259.780446 229.855098 
L 260.737564 228.220434 
L 261.694683 242.035214 
L 262.651801 236.908818 
L 263.608919 228.75136 
L 264.566038 241.116198 
L 265.523156 234.397352 
L 266.480274 234.414157 
L 267.437393 241.925198 
L 268.394511 241.93306 
L 269.35163 231.884821 
L 270.308748 239.427717 
L 271.265866 235.328395 
L 272.222985 241.009487 
L 273.180103 241.847167 
L 274.137221 240.779966 
L 275.09434 236.873692 
L 276.051458 242.035302 
L 277.008576 234.496795 
L 277.965695 237.920213 
L 278.922813 235.675431 
L 279.879931 239.887457 
L 280.83705 238.69237 
L 281.794168 234.420405 
L 282.751286 238.125848 
L 283.708405 238.161994 
L 284.665523 238.726108 
L 285.622642 242.069773 
L 286.57976 236.051855 
L 287.536878 240.488833 
L 288.493997 241.996255 
L 289.451115 238.961482 
L 290.408233 227.232228 
L 291.365352 241.123115 
L 292.32247 238.104253 
L 293.279588 239.900507 
L 294.236707 236.035193 
L 296.150943 229.202705 
L 297.108062 238.068984 
L 298.06518 223.78721 
L 299.022298 235.921028 
L 299.979417 239.791583 
L 300.936535 240.53059 
L 301.893654 239.186358 
L 302.850772 220.525228 
L 303.80789 235.315193 
L 304.765009 227.71288 
L 305.722127 231.448118 
L 306.679245 237.108249 
L 307.636364 241.600307 
L 308.593482 234.400454 
L 309.5506 237.058418 
L 310.507719 236.608781 
L 311.464837 230.952672 
L 312.421955 233.993144 
L 313.379074 229.210236 
L 314.336192 227.591823 
L 315.29331 238.556678 
L 316.250429 240.458421 
L 317.207547 239.19098 
L 318.164666 240.945935 
L 319.121784 241.474275 
L 320.078902 241.386193 
L 321.036021 241.559853 
L 321.993139 239.839733 
L 322.950257 241.114644 
L 323.907376 241.505963 
L 324.864494 242.058647 
L 325.821612 242.1069 
L 326.778731 241.612569 
L 327.735849 240.760862 
L 328.692967 241.905346 
L 330.607204 241.984419 
L 332.521441 241.582768 
L 333.478559 240.798008 
L 334.435678 241.197798 
L 335.392796 240.845967 
L 336.349914 241.679043 
L 337.307033 241.965582 
L 338.264151 241.904428 
L 339.221269 241.69619 
L 341.135506 241.95256 
L 342.092624 241.606444 
L 343.049743 242.083056 
L 344.006861 240.696455 
L 344.963979 242.078031 
L 345.921098 241.952779 
L 346.878216 242.066991 
L 347.835334 241.677225 
L 348.792453 242.094386 
L 349.749571 242.097149 
L 351.663808 241.671419 
L 352.620926 241.999753 
L 353.578045 241.598438 
L 355.492281 242.046588 
L 357.406518 241.557264 
L 358.363636 242.071448 
L 359.320755 242.045313 
L 360.277873 241.881829 
L 364.106346 242.103407 
L 365.063465 242.030638 
L 366.977702 242.102731 
L 373.67753 242.087303 
L 378.463122 242.105554 
L 382.291595 242.085068 
L 386.120069 242.113498 
L 433 242.110112 
M 433 242.116199 
L -1 242.116199 
L -1 242.116199 
" clip-path="url(#pd587f95eae)" style="fill: none; stroke: #ccb974; stroke-opacity: 0.3; stroke-width: 1.5; stroke-linecap: round"/>
   </g>
   <g id="patch_3">
    <path d="M 54 252 
L 54 34.56 
" style="fill: none; stroke: #262626; stroke-width: 1.25; stroke-linejoin: miter; stroke-linecap: square"/>
   </g>
   <g id="patch_4">
    <path d="M 388.8 252 
L 388.8 34.56 
" style="fill: none; stroke: #262626; stroke-width: 1.25; stroke-linejoin: miter; stroke-linecap: square"/>
   </g>
   <g id="patch_5">
    <path d="M 54 252 
L 388.8 252 
" style="fill: none; stroke: #262626; stroke-width: 1.25; stroke-linejoin: miter; stroke-linecap: square"/>
   </g>
   <g id="patch_6">
    <path d="M 54 34.56 
L 388.8 34.56 
" style="fill: none; stroke: #262626; stroke-width: 1.25; stroke-linejoin: miter; stroke-linecap: square"/>
   </g>
   <g id="text_15">
    <!-- patient06_app07_phone - Power spectrum -->
    <g style="fill: #262626" transform="translate(107.998125 28.56)scale(0.12 -0.12)">
     <defs>
      <path id="ArialMT-70" d="M 422 -1272 
L 422 3319 
L 934 3319 
L 934 2888 
Q 1116 3141 1344 3267 
Q 1572 3394 1897 3394 
Q 2322 3394 2647 3175 
Q 2972 2956 3137 2557 
Q 3303 2159 3303 1684 
Q 3303 1175 3120 767 
Q 2938 359 2589 142 
Q 2241 -75 1856 -75 
Q 1575 -75 1351 44 
Q 1128 163 984 344 
L 984 -1272 
L 422 -1272 
z
M 931 1641 
Q 931 1000 1190 694 
Q 1450 388 1819 388 
Q 2194 388 2461 705 
Q 2728 1022 2728 1688 
Q 2728 2322 2467 2637 
Q 2206 2953 1844 2953 
Q 1484 2953 1207 2617 
Q 931 2281 931 1641 
z
" transform="scale(0.015625)"/>
      <path id="ArialMT-61" d="M 2588 409 
Q 2275 144 1986 34 
Q 1697 -75 1366 -75 
Q 819 -75 525 192 
Q 231 459 231 875 
Q 231 1119 342 1320 
Q 453 1522 633 1644 
Q 813 1766 1038 1828 
Q 1203 1872 1538 1913 
Q 2219 1994 2541 2106 
Q 2544 2222 2544 2253 
Q 2544 2597 2384 2738 
Q 2169 2928 1744 2928 
Q 1347 2928 1158 2789 
Q 969 2650 878 2297 
L 328 2372 
Q 403 2725 575 2942 
Q 747 3159 1072 3276 
Q 1397 3394 1825 3394 
Q 2250 3394 2515 3294 
Q 2781 3194 2906 3042 
Q 3031 2891 3081 2659 
Q 3109 2516 3109 2141 
L 3109 1391 
Q 3109 606 3145 398 
Q 3181 191 3288 0 
L 2700 0 
Q 2613 175 2588 409 
z
M 2541 1666 
Q 2234 1541 1622 1453 
Q 1275 1403 1131 1340 
Q 988 1278 909 1158 
Q 831 1038 831 891 
Q 831 666 1001 516 
Q 1172 366 1500 366 
Q 1825 366 2078 508 
Q 2331 650 2450 897 
Q 2541 1088 2541 1459 
L 2541 1666 
z
" transform="scale(0.015625)"/>
      <path id="ArialMT-74" d="M 1650 503 
L 1731 6 
Q 1494 -44 1306 -44 
Q 1000 -44 831 53 
Q 663 150 594 308 
Q 525 466 525 972 
L 525 2881 
L 113 2881 
L 113 3319 
L 525 3319 
L 525 4141 
L 1084 4478 
L 1084 3319 
L 1650 3319 
L 1650 2881 
L 1084 2881 
L 1084 941 
Q 1084 700 1114 631 
Q 1144 563 1211 522 
Q 1278 481 1403 481 
Q 1497 481 1650 503 
z
" transform="scale(0.015625)"/>
      <path id="ArialMT-69" d="M 425 3934 
L 425 4581 
L 988 4581 
L 988 3934 
L 425 3934 
z
M 425 0 
L 425 3319 
L 988 3319 
L 988 0 
L 425 0 
z
" transform="scale(0.015625)"/>
      <path id="ArialMT-5f" d="M -97 -1272 
L -97 -866 
L 3631 -866 
L 3631 -1272 
L -97 -1272 
z
" transform="scale(0.015625)"/>
      <path id="ArialMT-37" d="M 303 3981 
L 303 4522 
L 3269 4522 
L 3269 4084 
Q 2831 3619 2401 2847 
Q 1972 2075 1738 1259 
Q 1569 684 1522 0 
L 944 0 
Q 953 541 1156 1306 
Q 1359 2072 1739 2783 
Q 2119 3494 2547 3981 
L 303 3981 
z
" transform="scale(0.015625)"/>
      <path id="ArialMT-68" d="M 422 0 
L 422 4581 
L 984 4581 
L 984 2938 
Q 1378 3394 1978 3394 
Q 2347 3394 2619 3248 
Q 2891 3103 3008 2847 
Q 3125 2591 3125 2103 
L 3125 0 
L 2563 0 
L 2563 2103 
Q 2563 2525 2380 2717 
Q 2197 2909 1863 2909 
Q 1613 2909 1392 2779 
Q 1172 2650 1078 2428 
Q 984 2206 984 1816 
L 984 0 
L 422 0 
z
" transform="scale(0.015625)"/>
      <path id="ArialMT-6f" d="M 213 1659 
Q 213 2581 725 3025 
Q 1153 3394 1769 3394 
Q 2453 3394 2887 2945 
Q 3322 2497 3322 1706 
Q 3322 1066 3130 698 
Q 2938 331 2570 128 
Q 2203 -75 1769 -75 
Q 1072 -75 642 372 
Q 213 819 213 1659 
z
M 791 1659 
Q 791 1022 1069 705 
Q 1347 388 1769 388 
Q 2188 388 2466 706 
Q 2744 1025 2744 1678 
Q 2744 2294 2464 2611 
Q 2184 2928 1769 2928 
Q 1347 2928 1069 2612 
Q 791 2297 791 1659 
z
" transform="scale(0.015625)"/>
      <path id="ArialMT-2d" d="M 203 1375 
L 203 1941 
L 1931 1941 
L 1931 1375 
L 203 1375 
z
" transform="scale(0.015625)"/>
      <path id="ArialMT-50" d="M 494 0 
L 494 4581 
L 2222 4581 
Q 2678 4581 2919 4538 
Q 3256 4481 3484 4323 
Q 3713 4166 3852 3881 
Q 3991 3597 3991 3256 
Q 3991 2672 3619 2267 
Q 3247 1863 2275 1863 
L 1100 1863 
L 1100 0 
L 494 0 
z
M 1100 2403 
L 2284 2403 
Q 2872 2403 3119 2622 
Q 3366 2841 3366 3238 
Q 3366 3525 3220 3729 
Q 3075 3934 2838 4000 
Q 2684 4041 2272 4041 
L 1100 4041 
L 1100 2403 
z
" transform="scale(0.015625)"/>
      <path id="ArialMT-77" d="M 1034 0 
L 19 3319 
L 600 3319 
L 1128 1403 
L 1325 691 
Q 1338 744 1497 1375 
L 2025 3319 
L 2603 3319 
L 3100 1394 
L 3266 759 
L 3456 1400 
L 4025 3319 
L 4572 3319 
L 3534 0 
L 2950 0 
L 2422 1988 
L 2294 2553 
L 1622 0 
L 1034 0 
z
" transform="scale(0.015625)"/>
      <path id="ArialMT-73" d="M 197 991 
L 753 1078 
Q 800 744 1014 566 
Q 1228 388 1613 388 
Q 2000 388 2187 545 
Q 2375 703 2375 916 
Q 2375 1106 2209 1216 
Q 2094 1291 1634 1406 
Q 1016 1563 777 1677 
Q 538 1791 414 1992 
Q 291 2194 291 2438 
Q 291 2659 392 2848 
Q 494 3038 669 3163 
Q 800 3259 1026 3326 
Q 1253 3394 1513 3394 
Q 1903 3394 2198 3281 
Q 2494 3169 2634 2976 
Q 2775 2784 2828 2463 
L 2278 2388 
Q 2241 2644 2061 2787 
Q 1881 2931 1553 2931 
Q 1166 2931 1000 2803 
Q 834 2675 834 2503 
Q 834 2394 903 2306 
Q 972 2216 1119 2156 
Q 1203 2125 1616 2013 
Q 2213 1853 2448 1751 
Q 2684 1650 2818 1456 
Q 2953 1263 2953 975 
Q 2953 694 2789 445 
Q 2625 197 2315 61 
Q 2006 -75 1616 -75 
Q 969 -75 630 194 
Q 291 463 197 991 
z
" transform="scale(0.015625)"/>
      <path id="ArialMT-6d" d="M 422 0 
L 422 3319 
L 925 3319 
L 925 2853 
Q 1081 3097 1340 3245 
Q 1600 3394 1931 3394 
Q 2300 3394 2536 3241 
Q 2772 3088 2869 2813 
Q 3263 3394 3894 3394 
Q 4388 3394 4653 3120 
Q 4919 2847 4919 2278 
L 4919 0 
L 4359 0 
L 4359 2091 
Q 4359 2428 4304 2576 
Q 4250 2725 4106 2815 
Q 3963 2906 3769 2906 
Q 3419 2906 3187 2673 
Q 2956 2441 2956 1928 
L 2956 0 
L 2394 0 
L 2394 2156 
Q 2394 2531 2256 2718 
Q 2119 2906 1806 2906 
Q 1569 2906 1367 2781 
Q 1166 2656 1075 2415 
Q 984 2175 984 1722 
L 984 0 
L 422 0 
z
" transform="scale(0.015625)"/>
     </defs>
     <use xlink:href="#ArialMT-70"/>
     <use xlink:href="#ArialMT-61" x="55.615234"/>
     <use xlink:href="#ArialMT-74" x="111.230469"/>
     <use xlink:href="#ArialMT-69" x="139.013672"/>
     <use xlink:href="#ArialMT-65" x="161.230469"/>
     <use xlink:href="#ArialMT-6e" x="216.845703"/>
     <use xlink:href="#ArialMT-74" x="272.460938"/>
     <use xlink:href="#ArialMT-30" x="300.244141"/>
     <use xlink:href="#ArialMT-36" x="355.859375"/>
     <use xlink:href="#ArialMT-5f" x="411.474609"/>
     <use xlink:href="#ArialMT-61" x="467.089844"/>
     <use xlink:href="#ArialMT-70" x="522.705078"/>
     <use xlink:href="#ArialMT-70" x="578.320312"/>
     <use xlink:href="#ArialMT-30" x="633.935547"/>
     <use xlink:href="#ArialMT-37" x="689.550781"/>
     <use xlink:href="#ArialMT-5f" x="745.166016"/>
     <use xlink:href="#ArialMT-70" x="800.78125"/>
     <use xlink:href="#ArialMT-68" x="856.396484"/>
     <use xlink:href="#ArialMT-6f" x="912.011719"/>
     <use xlink:href="#ArialMT-6e" x="967.626953"/>
     <use xlink:href="#ArialMT-65" x="1023.242188"/>
     <use xlink:href="#ArialMT-20" x="1078.857422"/>
     <use xlink:href="#ArialMT-2d" x="1106.640625"/>
     <use xlink:href="#ArialMT-20" x="1139.941406"/>
     <use xlink:href="#ArialMT-50" x="1167.724609"/>
     <use xlink:href="#ArialMT-6f" x="1234.423828"/>
     <use xlink:href="#ArialMT-77" x="1290.039062"/>
     <use xlink:href="#ArialMT-65" x="1362.255859"/>
     <use xlink:href="#ArialMT-72" x="1417.871094"/>
     <use xlink:href="#ArialMT-20" x="1451.171875"/>
     <use xlink:href="#ArialMT-73" x="1478.955078"/>
     <use xlink:href="#ArialMT-70" x="1528.955078"/>
     <use xlink:href="#ArialMT-65" x="1584.570312"/>
     <use xlink:href="#ArialMT-63" x="1640.185547"/>
     <use xlink:href="#ArialMT-74" x="1690.185547"/>
     <use xlink:href="#ArialMT-72" x="1717.96875"/>
     <use xlink:href="#ArialMT-75" x="1751.269531"/>
     <use xlink:href="#ArialMT-6d" x="1806.884766"/>
    </g>
   </g>
  </g>
 </g>
 <defs>
  <clipPath id="pd587f95eae">
   <rect x="54" y="34.56" width="334.8" height="217.44"/>
  </clipPath>
 </defs>
</svg>
