<?xml version="1.0" encoding="utf-8" standalone="no"?>
<!DOCTYPE svg PUBLIC "-//W3C//DTD SVG 1.1//EN"
  "http://www.w3.org/Graphics/SVG/1.1/DTD/svg11.dtd">
<svg xmlns:xlink="http://www.w3.org/1999/xlink" width="432pt" height="288pt" viewBox="0 0 432 288" xmlns="http://www.w3.org/2000/svg" version="1.1">
 <metadata>
  <rdf:RDF xmlns:dc="http://purl.org/dc/elements/1.1/" xmlns:cc="http://creativecommons.org/ns#" xmlns:rdf="http://www.w3.org/1999/02/22-rdf-syntax-ns#">
   <cc:Work>
    <dc:type rdf:resource="http://purl.org/dc/dcmitype/StillImage"/>
    <dc:date>2022-07-08T13:28:05.735381</dc:date>
    <dc:format>image/svg+xml</dc:format>
    <dc:creator>
     <cc:Agent>
      <dc:title>Matplotlib v3.5.1, https://matplotlib.org/</dc:title>
     </cc:Agent>
    </dc:creator>
   </cc:Work>
  </rdf:RDF>
 </metadata>
 <defs>
  <style type="text/css">*{stroke-linejoin: round; stroke-linecap: butt}</style>
 </defs>
 <g id="figure_1">
  <g id="patch_1">
   <path d="M 0 288 
L 432 288 
L 432 0 
L 0 0 
z
" style="fill: #ffffff"/>
  </g>
  <g id="axes_1">
   <g id="patch_2">
    <path d="M 54 252 
L 388.8 252 
L 388.8 34.56 
L 54 34.56 
z
" style="fill: #ffffff"/>
   </g>
   <g id="matplotlib.axis_1">
    <g id="xtick_1">
     <g id="line2d_1">
      <defs>
       <path id="m533e9f4976" d="M 0 0 
L 0 6 
" style="stroke: #262626; stroke-width: 1.25"/>
      </defs>
      <g>
       <use xlink:href="#m533e9f4976" x="54" y="252" style="fill: #262626; stroke: #262626; stroke-width: 1.25"/>
      </g>
     </g>
     <g id="text_1">
      <!-- 0 -->
      <g style="fill: #262626" transform="translate(50.941484 269.373594)scale(0.11 -0.11)">
       <defs>
        <path id="ArialMT-30" d="M 266 2259 
Q 266 3072 433 3567 
Q 600 4063 929 4331 
Q 1259 4600 1759 4600 
Q 2128 4600 2406 4451 
Q 2684 4303 2865 4023 
Q 3047 3744 3150 3342 
Q 3253 2941 3253 2259 
Q 3253 1453 3087 958 
Q 2922 463 2592 192 
Q 2263 -78 1759 -78 
Q 1097 -78 719 397 
Q 266 969 266 2259 
z
M 844 2259 
Q 844 1131 1108 757 
Q 1372 384 1759 384 
Q 2147 384 2411 759 
Q 2675 1134 2675 2259 
Q 2675 3391 2411 3762 
Q 2147 4134 1753 4134 
Q 1366 4134 1134 3806 
Q 844 3388 844 2259 
z
" transform="scale(0.015625)"/>
       </defs>
       <use xlink:href="#ArialMT-30"/>
      </g>
     </g>
    </g>
    <g id="xtick_2">
     <g id="line2d_2">
      <g>
       <use xlink:href="#m533e9f4976" x="109.8" y="252" style="fill: #262626; stroke: #262626; stroke-width: 1.25"/>
      </g>
     </g>
     <g id="text_2">
      <!-- 5 -->
      <g style="fill: #262626" transform="translate(106.741484 269.373594)scale(0.11 -0.11)">
       <defs>
        <path id="ArialMT-35" d="M 266 1200 
L 856 1250 
Q 922 819 1161 601 
Q 1400 384 1738 384 
Q 2144 384 2425 690 
Q 2706 997 2706 1503 
Q 2706 1984 2436 2262 
Q 2166 2541 1728 2541 
Q 1456 2541 1237 2417 
Q 1019 2294 894 2097 
L 366 2166 
L 809 4519 
L 3088 4519 
L 3088 3981 
L 1259 3981 
L 1013 2750 
Q 1425 3038 1878 3038 
Q 2478 3038 2890 2622 
Q 3303 2206 3303 1553 
Q 3303 931 2941 478 
Q 2500 -78 1738 -78 
Q 1113 -78 717 272 
Q 322 622 266 1200 
z
" transform="scale(0.015625)"/>
       </defs>
       <use xlink:href="#ArialMT-35"/>
      </g>
     </g>
    </g>
    <g id="xtick_3">
     <g id="line2d_3">
      <g>
       <use xlink:href="#m533e9f4976" x="165.6" y="252" style="fill: #262626; stroke: #262626; stroke-width: 1.25"/>
      </g>
     </g>
     <g id="text_3">
      <!-- 10 -->
      <g style="fill: #262626" transform="translate(159.482969 269.373594)scale(0.11 -0.11)">
       <defs>
        <path id="ArialMT-31" d="M 2384 0 
L 1822 0 
L 1822 3584 
Q 1619 3391 1289 3197 
Q 959 3003 697 2906 
L 697 3450 
Q 1169 3672 1522 3987 
Q 1875 4303 2022 4600 
L 2384 4600 
L 2384 0 
z
" transform="scale(0.015625)"/>
       </defs>
       <use xlink:href="#ArialMT-31"/>
       <use xlink:href="#ArialMT-30" x="55.615234"/>
      </g>
     </g>
    </g>
    <g id="xtick_4">
     <g id="line2d_4">
      <g>
       <use xlink:href="#m533e9f4976" x="221.4" y="252" style="fill: #262626; stroke: #262626; stroke-width: 1.25"/>
      </g>
     </g>
     <g id="text_4">
      <!-- 15 -->
      <g style="fill: #262626" transform="translate(215.282969 269.373594)scale(0.11 -0.11)">
       <use xlink:href="#ArialMT-31"/>
       <use xlink:href="#ArialMT-35" x="55.615234"/>
      </g>
     </g>
    </g>
    <g id="xtick_5">
     <g id="line2d_5">
      <g>
       <use xlink:href="#m533e9f4976" x="277.2" y="252" style="fill: #262626; stroke: #262626; stroke-width: 1.25"/>
      </g>
     </g>
     <g id="text_5">
      <!-- 20 -->
      <g style="fill: #262626" transform="translate(271.082969 269.373594)scale(0.11 -0.11)">
       <defs>
        <path id="ArialMT-32" d="M 3222 541 
L 3222 0 
L 194 0 
Q 188 203 259 391 
Q 375 700 629 1000 
Q 884 1300 1366 1694 
Q 2113 2306 2375 2664 
Q 2638 3022 2638 3341 
Q 2638 3675 2398 3904 
Q 2159 4134 1775 4134 
Q 1369 4134 1125 3890 
Q 881 3647 878 3216 
L 300 3275 
Q 359 3922 746 4261 
Q 1134 4600 1788 4600 
Q 2447 4600 2831 4234 
Q 3216 3869 3216 3328 
Q 3216 3053 3103 2787 
Q 2991 2522 2730 2228 
Q 2469 1934 1863 1422 
Q 1356 997 1212 845 
Q 1069 694 975 541 
L 3222 541 
z
" transform="scale(0.015625)"/>
       </defs>
       <use xlink:href="#ArialMT-32"/>
       <use xlink:href="#ArialMT-30" x="55.615234"/>
      </g>
     </g>
    </g>
    <g id="xtick_6">
     <g id="line2d_6">
      <g>
       <use xlink:href="#m533e9f4976" x="333" y="252" style="fill: #262626; stroke: #262626; stroke-width: 1.25"/>
      </g>
     </g>
     <g id="text_6">
      <!-- 25 -->
      <g style="fill: #262626" transform="translate(326.882969 269.373594)scale(0.11 -0.11)">
       <use xlink:href="#ArialMT-32"/>
       <use xlink:href="#ArialMT-35" x="55.615234"/>
      </g>
     </g>
    </g>
    <g id="xtick_7">
     <g id="line2d_7">
      <g>
       <use xlink:href="#m533e9f4976" x="388.8" y="252" style="fill: #262626; stroke: #262626; stroke-width: 1.25"/>
      </g>
     </g>
     <g id="text_7">
      <!-- 30 -->
      <g style="fill: #262626" transform="translate(382.682969 269.373594)scale(0.11 -0.11)">
       <defs>
        <path id="ArialMT-33" d="M 269 1209 
L 831 1284 
Q 928 806 1161 595 
Q 1394 384 1728 384 
Q 2125 384 2398 659 
Q 2672 934 2672 1341 
Q 2672 1728 2419 1979 
Q 2166 2231 1775 2231 
Q 1616 2231 1378 2169 
L 1441 2663 
Q 1497 2656 1531 2656 
Q 1891 2656 2178 2843 
Q 2466 3031 2466 3422 
Q 2466 3731 2256 3934 
Q 2047 4138 1716 4138 
Q 1388 4138 1169 3931 
Q 950 3725 888 3313 
L 325 3413 
Q 428 3978 793 4289 
Q 1159 4600 1703 4600 
Q 2078 4600 2393 4439 
Q 2709 4278 2876 4000 
Q 3044 3722 3044 3409 
Q 3044 3113 2884 2869 
Q 2725 2625 2413 2481 
Q 2819 2388 3044 2092 
Q 3269 1797 3269 1353 
Q 3269 753 2831 336 
Q 2394 -81 1725 -81 
Q 1122 -81 723 278 
Q 325 638 269 1209 
z
" transform="scale(0.015625)"/>
       </defs>
       <use xlink:href="#ArialMT-33"/>
       <use xlink:href="#ArialMT-30" x="55.615234"/>
      </g>
     </g>
    </g>
    <g id="text_8">
     <!-- Frequency (Hz) -->
     <g style="fill: #262626" transform="translate(180.059063 284.295469)scale(0.12 -0.12)">
      <defs>
       <path id="ArialMT-46" d="M 525 0 
L 525 4581 
L 3616 4581 
L 3616 4041 
L 1131 4041 
L 1131 2622 
L 3281 2622 
L 3281 2081 
L 1131 2081 
L 1131 0 
L 525 0 
z
" transform="scale(0.015625)"/>
       <path id="ArialMT-72" d="M 416 0 
L 416 3319 
L 922 3319 
L 922 2816 
Q 1116 3169 1280 3281 
Q 1444 3394 1641 3394 
Q 1925 3394 2219 3213 
L 2025 2691 
Q 1819 2813 1613 2813 
Q 1428 2813 1281 2702 
Q 1134 2591 1072 2394 
Q 978 2094 978 1738 
L 978 0 
L 416 0 
z
" transform="scale(0.015625)"/>
       <path id="ArialMT-65" d="M 2694 1069 
L 3275 997 
Q 3138 488 2766 206 
Q 2394 -75 1816 -75 
Q 1088 -75 661 373 
Q 234 822 234 1631 
Q 234 2469 665 2931 
Q 1097 3394 1784 3394 
Q 2450 3394 2872 2941 
Q 3294 2488 3294 1666 
Q 3294 1616 3291 1516 
L 816 1516 
Q 847 969 1125 678 
Q 1403 388 1819 388 
Q 2128 388 2347 550 
Q 2566 713 2694 1069 
z
M 847 1978 
L 2700 1978 
Q 2663 2397 2488 2606 
Q 2219 2931 1791 2931 
Q 1403 2931 1139 2672 
Q 875 2413 847 1978 
z
" transform="scale(0.015625)"/>
       <path id="ArialMT-71" d="M 2538 -1272 
L 2538 353 
Q 2406 169 2170 47 
Q 1934 -75 1669 -75 
Q 1078 -75 651 397 
Q 225 869 225 1691 
Q 225 2191 398 2587 
Q 572 2984 901 3189 
Q 1231 3394 1625 3394 
Q 2241 3394 2594 2875 
L 2594 3319 
L 3100 3319 
L 3100 -1272 
L 2538 -1272 
z
M 803 1669 
Q 803 1028 1072 708 
Q 1341 388 1716 388 
Q 2075 388 2334 692 
Q 2594 997 2594 1619 
Q 2594 2281 2320 2615 
Q 2047 2950 1678 2950 
Q 1313 2950 1058 2639 
Q 803 2328 803 1669 
z
" transform="scale(0.015625)"/>
       <path id="ArialMT-75" d="M 2597 0 
L 2597 488 
Q 2209 -75 1544 -75 
Q 1250 -75 995 37 
Q 741 150 617 320 
Q 494 491 444 738 
Q 409 903 409 1263 
L 409 3319 
L 972 3319 
L 972 1478 
Q 972 1038 1006 884 
Q 1059 663 1231 536 
Q 1403 409 1656 409 
Q 1909 409 2131 539 
Q 2353 669 2445 892 
Q 2538 1116 2538 1541 
L 2538 3319 
L 3100 3319 
L 3100 0 
L 2597 0 
z
" transform="scale(0.015625)"/>
       <path id="ArialMT-6e" d="M 422 0 
L 422 3319 
L 928 3319 
L 928 2847 
Q 1294 3394 1984 3394 
Q 2284 3394 2536 3286 
Q 2788 3178 2913 3003 
Q 3038 2828 3088 2588 
Q 3119 2431 3119 2041 
L 3119 0 
L 2556 0 
L 2556 2019 
Q 2556 2363 2490 2533 
Q 2425 2703 2258 2804 
Q 2091 2906 1866 2906 
Q 1506 2906 1245 2678 
Q 984 2450 984 1813 
L 984 0 
L 422 0 
z
" transform="scale(0.015625)"/>
       <path id="ArialMT-63" d="M 2588 1216 
L 3141 1144 
Q 3050 572 2676 248 
Q 2303 -75 1759 -75 
Q 1078 -75 664 370 
Q 250 816 250 1647 
Q 250 2184 428 2587 
Q 606 2991 970 3192 
Q 1334 3394 1763 3394 
Q 2303 3394 2647 3120 
Q 2991 2847 3088 2344 
L 2541 2259 
Q 2463 2594 2264 2762 
Q 2066 2931 1784 2931 
Q 1359 2931 1093 2626 
Q 828 2322 828 1663 
Q 828 994 1084 691 
Q 1341 388 1753 388 
Q 2084 388 2306 591 
Q 2528 794 2588 1216 
z
" transform="scale(0.015625)"/>
       <path id="ArialMT-79" d="M 397 -1278 
L 334 -750 
Q 519 -800 656 -800 
Q 844 -800 956 -737 
Q 1069 -675 1141 -563 
Q 1194 -478 1313 -144 
Q 1328 -97 1363 -6 
L 103 3319 
L 709 3319 
L 1400 1397 
Q 1534 1031 1641 628 
Q 1738 1016 1872 1384 
L 2581 3319 
L 3144 3319 
L 1881 -56 
Q 1678 -603 1566 -809 
Q 1416 -1088 1222 -1217 
Q 1028 -1347 759 -1347 
Q 597 -1347 397 -1278 
z
" transform="scale(0.015625)"/>
       <path id="ArialMT-20" transform="scale(0.015625)"/>
       <path id="ArialMT-28" d="M 1497 -1347 
Q 1031 -759 709 28 
Q 388 816 388 1659 
Q 388 2403 628 3084 
Q 909 3875 1497 4659 
L 1900 4659 
Q 1522 4009 1400 3731 
Q 1209 3300 1100 2831 
Q 966 2247 966 1656 
Q 966 153 1900 -1347 
L 1497 -1347 
z
" transform="scale(0.015625)"/>
       <path id="ArialMT-48" d="M 513 0 
L 513 4581 
L 1119 4581 
L 1119 2700 
L 3500 2700 
L 3500 4581 
L 4106 4581 
L 4106 0 
L 3500 0 
L 3500 2159 
L 1119 2159 
L 1119 0 
L 513 0 
z
" transform="scale(0.015625)"/>
       <path id="ArialMT-7a" d="M 125 0 
L 125 456 
L 2238 2881 
Q 1878 2863 1603 2863 
L 250 2863 
L 250 3319 
L 2963 3319 
L 2963 2947 
L 1166 841 
L 819 456 
Q 1197 484 1528 484 
L 3063 484 
L 3063 0 
L 125 0 
z
" transform="scale(0.015625)"/>
       <path id="ArialMT-29" d="M 791 -1347 
L 388 -1347 
Q 1322 153 1322 1656 
Q 1322 2244 1188 2822 
Q 1081 3291 891 3722 
Q 769 4003 388 4659 
L 791 4659 
Q 1378 3875 1659 3084 
Q 1900 2403 1900 1659 
Q 1900 816 1576 28 
Q 1253 -759 791 -1347 
z
" transform="scale(0.015625)"/>
      </defs>
      <use xlink:href="#ArialMT-46"/>
      <use xlink:href="#ArialMT-72" x="61.083984"/>
      <use xlink:href="#ArialMT-65" x="94.384766"/>
      <use xlink:href="#ArialMT-71" x="150"/>
      <use xlink:href="#ArialMT-75" x="205.615234"/>
      <use xlink:href="#ArialMT-65" x="261.230469"/>
      <use xlink:href="#ArialMT-6e" x="316.845703"/>
      <use xlink:href="#ArialMT-63" x="372.460938"/>
      <use xlink:href="#ArialMT-79" x="422.460938"/>
      <use xlink:href="#ArialMT-20" x="472.460938"/>
      <use xlink:href="#ArialMT-28" x="500.244141"/>
      <use xlink:href="#ArialMT-48" x="533.544922"/>
      <use xlink:href="#ArialMT-7a" x="605.761719"/>
      <use xlink:href="#ArialMT-29" x="655.761719"/>
     </g>
    </g>
   </g>
   <g id="matplotlib.axis_2">
    <g id="ytick_1">
     <g id="line2d_8">
      <defs>
       <path id="m6a77ae8fc8" d="M 0 0 
L -6 0 
" style="stroke: #262626; stroke-width: 1.25"/>
      </defs>
      <g>
       <use xlink:href="#m6a77ae8fc8" x="54" y="242.116364" style="fill: #262626; stroke: #262626; stroke-width: 1.25"/>
      </g>
     </g>
     <g id="text_9">
      <!-- 0.0 -->
      <g style="fill: #262626" transform="translate(29.21 246.053161)scale(0.11 -0.11)">
       <defs>
        <path id="ArialMT-2e" d="M 581 0 
L 581 641 
L 1222 641 
L 1222 0 
L 581 0 
z
" transform="scale(0.015625)"/>
       </defs>
       <use xlink:href="#ArialMT-30"/>
       <use xlink:href="#ArialMT-2e" x="55.615234"/>
       <use xlink:href="#ArialMT-30" x="83.398438"/>
      </g>
     </g>
    </g>
    <g id="ytick_2">
     <g id="line2d_9">
      <g>
       <use xlink:href="#m6a77ae8fc8" x="54" y="202.581818" style="fill: #262626; stroke: #262626; stroke-width: 1.25"/>
      </g>
     </g>
     <g id="text_10">
      <!-- 0.2 -->
      <g style="fill: #262626" transform="translate(29.21 206.518615)scale(0.11 -0.11)">
       <use xlink:href="#ArialMT-30"/>
       <use xlink:href="#ArialMT-2e" x="55.615234"/>
       <use xlink:href="#ArialMT-32" x="83.398438"/>
      </g>
     </g>
    </g>
    <g id="ytick_3">
     <g id="line2d_10">
      <g>
       <use xlink:href="#m6a77ae8fc8" x="54" y="163.047273" style="fill: #262626; stroke: #262626; stroke-width: 1.25"/>
      </g>
     </g>
     <g id="text_11">
      <!-- 0.4 -->
      <g style="fill: #262626" transform="translate(29.21 166.98407)scale(0.11 -0.11)">
       <defs>
        <path id="ArialMT-34" d="M 2069 0 
L 2069 1097 
L 81 1097 
L 81 1613 
L 2172 4581 
L 2631 4581 
L 2631 1613 
L 3250 1613 
L 3250 1097 
L 2631 1097 
L 2631 0 
L 2069 0 
z
M 2069 1613 
L 2069 3678 
L 634 1613 
L 2069 1613 
z
" transform="scale(0.015625)"/>
       </defs>
       <use xlink:href="#ArialMT-30"/>
       <use xlink:href="#ArialMT-2e" x="55.615234"/>
       <use xlink:href="#ArialMT-34" x="83.398438"/>
      </g>
     </g>
    </g>
    <g id="ytick_4">
     <g id="line2d_11">
      <g>
       <use xlink:href="#m6a77ae8fc8" x="54" y="123.512727" style="fill: #262626; stroke: #262626; stroke-width: 1.25"/>
      </g>
     </g>
     <g id="text_12">
      <!-- 0.6 -->
      <g style="fill: #262626" transform="translate(29.21 127.449524)scale(0.11 -0.11)">
       <defs>
        <path id="ArialMT-36" d="M 3184 3459 
L 2625 3416 
Q 2550 3747 2413 3897 
Q 2184 4138 1850 4138 
Q 1581 4138 1378 3988 
Q 1113 3794 959 3422 
Q 806 3050 800 2363 
Q 1003 2672 1297 2822 
Q 1591 2972 1913 2972 
Q 2475 2972 2870 2558 
Q 3266 2144 3266 1488 
Q 3266 1056 3080 686 
Q 2894 316 2569 119 
Q 2244 -78 1831 -78 
Q 1128 -78 684 439 
Q 241 956 241 2144 
Q 241 3472 731 4075 
Q 1159 4600 1884 4600 
Q 2425 4600 2770 4297 
Q 3116 3994 3184 3459 
z
M 888 1484 
Q 888 1194 1011 928 
Q 1134 663 1356 523 
Q 1578 384 1822 384 
Q 2178 384 2434 671 
Q 2691 959 2691 1453 
Q 2691 1928 2437 2201 
Q 2184 2475 1800 2475 
Q 1419 2475 1153 2201 
Q 888 1928 888 1484 
z
" transform="scale(0.015625)"/>
       </defs>
       <use xlink:href="#ArialMT-30"/>
       <use xlink:href="#ArialMT-2e" x="55.615234"/>
       <use xlink:href="#ArialMT-36" x="83.398438"/>
      </g>
     </g>
    </g>
    <g id="ytick_5">
     <g id="line2d_12">
      <g>
       <use xlink:href="#m6a77ae8fc8" x="54" y="83.978182" style="fill: #262626; stroke: #262626; stroke-width: 1.25"/>
      </g>
     </g>
     <g id="text_13">
      <!-- 0.8 -->
      <g style="fill: #262626" transform="translate(29.21 87.914979)scale(0.11 -0.11)">
       <defs>
        <path id="ArialMT-38" d="M 1131 2484 
Q 781 2613 612 2850 
Q 444 3088 444 3419 
Q 444 3919 803 4259 
Q 1163 4600 1759 4600 
Q 2359 4600 2725 4251 
Q 3091 3903 3091 3403 
Q 3091 3084 2923 2848 
Q 2756 2613 2416 2484 
Q 2838 2347 3058 2040 
Q 3278 1734 3278 1309 
Q 3278 722 2862 322 
Q 2447 -78 1769 -78 
Q 1091 -78 675 323 
Q 259 725 259 1325 
Q 259 1772 486 2073 
Q 713 2375 1131 2484 
z
M 1019 3438 
Q 1019 3113 1228 2906 
Q 1438 2700 1772 2700 
Q 2097 2700 2305 2904 
Q 2513 3109 2513 3406 
Q 2513 3716 2298 3927 
Q 2084 4138 1766 4138 
Q 1444 4138 1231 3931 
Q 1019 3725 1019 3438 
z
M 838 1322 
Q 838 1081 952 856 
Q 1066 631 1291 507 
Q 1516 384 1775 384 
Q 2178 384 2440 643 
Q 2703 903 2703 1303 
Q 2703 1709 2433 1975 
Q 2163 2241 1756 2241 
Q 1359 2241 1098 1978 
Q 838 1716 838 1322 
z
" transform="scale(0.015625)"/>
       </defs>
       <use xlink:href="#ArialMT-30"/>
       <use xlink:href="#ArialMT-2e" x="55.615234"/>
       <use xlink:href="#ArialMT-38" x="83.398438"/>
      </g>
     </g>
    </g>
    <g id="ytick_6">
     <g id="line2d_13">
      <g>
       <use xlink:href="#m6a77ae8fc8" x="54" y="44.443636" style="fill: #262626; stroke: #262626; stroke-width: 1.25"/>
      </g>
     </g>
     <g id="text_14">
      <!-- 1.0 -->
      <g style="fill: #262626" transform="translate(29.21 48.380433)scale(0.11 -0.11)">
       <use xlink:href="#ArialMT-31"/>
       <use xlink:href="#ArialMT-2e" x="55.615234"/>
       <use xlink:href="#ArialMT-30" x="83.398438"/>
      </g>
     </g>
    </g>
   </g>
   <g id="line2d_14">
    <path d="M 54 242.114415 
L 96.463734 242.104773 
L 97.790725 241.944284 
L 100.444709 242.085269 
L 101.7717 241.910844 
L 103.098692 240.415284 
L 104.425684 239.21275 
L 105.752675 233.714279 
L 107.079667 225.612947 
L 108.406659 231.264358 
L 109.73365 222.963003 
L 111.060642 218.533943 
L 112.387634 214.97013 
L 113.714625 179.155514 
L 115.041617 183.462361 
L 116.368609 167.944393 
L 117.6956 172.284747 
L 119.022592 173.893314 
L 120.349584 230.870636 
L 121.676576 107.558832 
L 123.003567 152.409632 
L 124.330559 216.709677 
L 125.657551 44.443636 
L 126.984542 228.333528 
L 128.311534 227.073029 
L 129.638526 170.310023 
L 130.965517 225.52073 
L 132.292509 201.934809 
L 133.619501 160.863942 
L 134.946492 236.107342 
L 136.273484 226.219406 
L 137.600476 202.113476 
L 138.927467 239.677385 
L 140.254459 212.045743 
L 141.581451 226.121702 
L 142.908442 230.419165 
L 144.235434 221.388488 
L 145.562426 226.036963 
L 146.889417 213.616316 
L 148.216409 222.753964 
L 149.543401 196.275433 
L 150.870392 194.538135 
L 152.197384 206.335165 
L 153.524376 139.443262 
L 154.851367 224.531281 
L 156.178359 215.772072 
L 157.505351 220.3542 
L 158.832342 236.191675 
L 160.159334 228.513976 
L 161.486326 228.67149 
L 162.813317 202.401101 
L 164.140309 239.424184 
L 165.467301 165.851862 
L 166.794293 206.151309 
L 168.121284 156.516215 
L 169.448276 215.310377 
L 170.775268 212.677631 
L 172.102259 236.446198 
L 173.429251 232.902576 
L 174.756243 197.793371 
L 176.083234 235.151888 
L 177.410226 222.40944 
L 178.737218 230.332268 
L 180.064209 207.71571 
L 181.391201 216.725226 
L 182.718193 144.86684 
L 184.045184 236.804279 
L 185.372176 198.960531 
L 186.699168 240.119455 
L 188.026159 233.198688 
L 189.353151 199.130597 
L 190.680143 179.275533 
L 192.007134 211.894906 
L 193.334126 178.601535 
L 194.661118 237.328865 
L 195.988109 208.623821 
L 197.315101 230.290903 
L 198.642093 240.194017 
L 199.969084 213.846024 
L 201.296076 215.486431 
L 202.623068 229.333228 
L 203.950059 205.339835 
L 205.277051 232.280507 
L 206.604043 234.302578 
L 207.931034 233.716521 
L 209.258026 230.0794 
L 210.585018 234.102655 
L 211.91201 220.271759 
L 213.239001 222.46857 
L 214.565993 234.695495 
L 215.892985 227.979434 
L 217.219976 226.147033 
L 218.546968 236.263258 
L 219.87396 202.731331 
L 221.200951 225.751706 
L 222.527943 230.770618 
L 223.854935 226.709722 
L 225.181926 241.606381 
L 226.508918 238.024478 
L 227.83591 222.958996 
L 229.162901 231.140446 
L 230.489893 225.070779 
L 231.816885 230.011754 
L 233.143876 235.795152 
L 234.470868 231.127939 
L 235.79786 241.290471 
L 237.124851 235.899527 
L 238.451843 233.558767 
L 239.778835 238.445861 
L 241.105826 230.22336 
L 242.432818 238.830743 
L 243.75981 227.668805 
L 245.086801 239.750621 
L 246.413793 237.294607 
L 247.740785 241.614054 
L 249.067776 224.624426 
L 250.394768 241.944075 
L 251.72176 225.812688 
L 253.048751 196.887266 
L 254.375743 240.385738 
L 255.702735 192.48685 
L 257.029727 222.866157 
L 258.356718 222.783316 
L 259.68371 211.797774 
L 261.010702 237.134498 
L 262.337693 231.762603 
L 263.664685 213.788191 
L 264.991677 236.378641 
L 266.318668 238.356188 
L 267.64566 225.664636 
L 268.972652 238.470467 
L 270.299643 231.841481 
L 271.626635 205.365485 
L 272.953627 239.338041 
L 274.280618 230.134343 
L 275.60761 239.197297 
L 276.934602 238.138918 
L 278.261593 228.276878 
L 279.588585 229.68957 
L 280.915577 240.743272 
L 283.56956 236.168791 
L 284.896552 231.235994 
L 286.223543 240.603495 
L 287.550535 241.231808 
L 288.877527 239.857796 
L 290.204518 240.09283 
L 291.53151 238.421247 
L 292.858502 228.888769 
L 294.185493 229.27772 
L 295.512485 242.002527 
L 298.166468 241.287412 
L 299.49346 240.045418 
L 300.820452 242.014687 
L 302.147444 234.921822 
L 303.474435 229.077899 
L 304.801427 240.09988 
L 306.128419 237.287257 
L 307.45541 236.161897 
L 308.782402 233.098229 
L 310.109394 239.421366 
L 311.436385 239.313053 
L 312.763377 231.957341 
L 314.090369 237.505489 
L 315.41736 237.313707 
L 316.744352 239.996265 
L 318.071344 240.041542 
L 319.398335 233.497113 
L 320.725327 240.861362 
L 322.052319 217.670412 
L 323.37931 231.721462 
L 324.706302 238.550947 
L 326.033294 240.466313 
L 327.360285 241.654904 
L 328.687277 239.294847 
L 330.014269 238.905509 
L 331.34126 233.857929 
L 332.668252 240.487838 
L 333.995244 240.113398 
L 335.322235 241.233552 
L 336.649227 240.740459 
L 337.976219 238.746308 
L 339.30321 241.553779 
L 340.630202 240.749934 
L 341.957194 240.614738 
L 343.284185 241.798838 
L 344.611177 241.737084 
L 345.938169 241.05251 
L 348.592152 242.06457 
L 349.919144 241.949209 
L 351.246136 241.626582 
L 352.573127 242.106017 
L 353.900119 241.648708 
L 355.227111 242.047662 
L 356.554102 241.786386 
L 357.881094 242.101887 
L 360.535077 242.016213 
L 389.728894 242.111137 
L 389.728894 242.111137 
" clip-path="url(#p2788d9f72b)" style="fill: none; stroke: #4c72b0; stroke-opacity: 0.3; stroke-width: 1.5; stroke-linecap: round"/>
   </g>
   <g id="line2d_15">
    <path d="M 54 242.116298 
L 97.790725 242.03569 
L 99.117717 241.881432 
L 100.444709 241.995332 
L 101.7717 241.446764 
L 103.098692 240.740312 
L 104.425684 241.003552 
L 105.752675 231.862427 
L 107.079667 225.830068 
L 108.406659 231.125809 
L 109.73365 224.760033 
L 111.060642 215.379764 
L 112.387634 208.356368 
L 113.714625 181.647618 
L 115.041617 181.375615 
L 116.368609 164.330628 
L 117.6956 176.397117 
L 119.022592 189.633937 
L 120.349584 230.290746 
L 121.676576 104.980065 
L 123.003567 156.188608 
L 124.330559 200.390979 
L 125.657551 44.443636 
L 126.984542 237.556669 
L 128.311534 228.498576 
L 129.638526 161.510838 
L 130.965517 227.393182 
L 132.292509 199.578766 
L 133.619501 153.502032 
L 134.946492 237.477271 
L 136.273484 228.499672 
L 137.600476 201.018288 
L 138.927467 237.268741 
L 140.254459 210.587793 
L 141.581451 216.659773 
L 142.908442 235.060454 
L 144.235434 222.811289 
L 145.562426 229.708167 
L 146.889417 211.036812 
L 148.216409 221.866035 
L 149.543401 190.809536 
L 150.870392 194.282264 
L 152.197384 203.056205 
L 153.524376 126.224933 
L 154.851367 223.022814 
L 156.178359 221.344988 
L 157.505351 220.016966 
L 158.832342 235.799559 
L 160.159334 224.535949 
L 161.486326 234.325413 
L 162.813317 198.389289 
L 164.140309 237.627462 
L 165.467301 156.520769 
L 166.794293 199.91757 
L 168.121284 136.204534 
L 169.448276 210.474308 
L 170.775268 208.431261 
L 172.102259 236.70777 
L 173.429251 224.538186 
L 174.756243 187.067194 
L 176.083234 234.879143 
L 177.410226 215.038484 
L 178.737218 231.885337 
L 180.064209 199.281227 
L 181.391201 218.09318 
L 182.718193 131.463064 
L 184.045184 236.693914 
L 185.372176 196.449042 
L 186.699168 238.189201 
L 188.026159 232.436805 
L 190.680143 168.653023 
L 192.007134 211.323625 
L 193.334126 166.24627 
L 194.661118 237.096806 
L 195.988109 209.972039 
L 197.315101 229.513999 
L 198.642093 239.081053 
L 199.969084 210.135169 
L 201.296076 205.291683 
L 202.623068 227.583506 
L 203.950059 203.243738 
L 205.277051 232.056321 
L 206.604043 234.75745 
L 207.931034 234.874005 
L 209.258026 225.570341 
L 210.585018 235.878345 
L 211.91201 214.922332 
L 213.239001 223.380896 
L 214.565993 233.447801 
L 215.892985 228.718426 
L 217.219976 224.66711 
L 218.546968 235.789903 
L 219.87396 197.099727 
L 221.200951 224.483368 
L 222.527943 227.962455 
L 223.854935 230.79548 
L 225.181926 241.713945 
L 226.508918 235.86304 
L 227.83591 223.51352 
L 229.162901 230.499296 
L 230.489893 226.60068 
L 233.143876 236.27724 
L 234.470868 231.454628 
L 235.79786 241.362266 
L 237.124851 234.000436 
L 238.451843 231.565637 
L 239.778835 236.107548 
L 241.105826 231.31785 
L 242.432818 239.671809 
L 243.75981 230.598481 
L 245.086801 236.402548 
L 246.413793 230.014473 
L 247.740785 237.481651 
L 249.067776 225.705373 
L 250.394768 241.776262 
L 251.72176 223.307792 
L 253.048751 192.799239 
L 254.375743 240.376472 
L 255.702735 173.246501 
L 257.029727 218.905498 
L 258.356718 218.400809 
L 259.68371 209.412054 
L 261.010702 237.591036 
L 262.337693 231.016898 
L 263.664685 211.933518 
L 264.991677 234.169459 
L 266.318668 238.157096 
L 267.64566 223.803947 
L 268.972652 238.839857 
L 270.299643 227.474398 
L 271.626635 200.655638 
L 272.953627 238.343285 
L 274.280618 229.488115 
L 275.60761 239.117649 
L 276.934602 236.948055 
L 278.261593 223.691143 
L 279.588585 228.14869 
L 280.915577 239.32275 
L 282.242568 237.722545 
L 284.896552 228.921697 
L 286.223543 240.548247 
L 287.550535 240.963696 
L 288.877527 239.605054 
L 290.204518 239.730769 
L 291.53151 238.015142 
L 292.858502 224.099164 
L 294.185493 226.498432 
L 295.512485 241.922152 
L 296.839477 241.872454 
L 298.166468 240.374615 
L 299.49346 240.591434 
L 300.820452 242.039179 
L 302.147444 232.6602 
L 303.474435 226.219429 
L 304.801427 240.00401 
L 306.128419 237.271757 
L 307.45541 234.233678 
L 308.782402 231.673014 
L 310.109394 238.187497 
L 311.436385 239.037451 
L 312.763377 229.608514 
L 314.090369 237.106768 
L 315.41736 237.712993 
L 316.744352 239.07155 
L 318.071344 239.248044 
L 319.398335 231.328749 
L 320.725327 241.127059 
L 322.052319 212.293059 
L 323.37931 231.25036 
L 324.706302 237.479556 
L 326.033294 240.341822 
L 327.360285 241.501945 
L 328.687277 239.083104 
L 330.014269 238.010912 
L 331.34126 233.245084 
L 332.668252 240.502988 
L 333.995244 239.487175 
L 335.322235 241.274434 
L 336.649227 240.200663 
L 337.976219 238.104919 
L 339.30321 241.668581 
L 340.630202 240.561471 
L 341.957194 240.44782 
L 343.284185 241.786941 
L 344.611177 241.674346 
L 345.938169 240.769231 
L 347.265161 241.634935 
L 348.592152 242.061971 
L 349.919144 241.885963 
L 351.246136 241.43412 
L 352.573127 242.098962 
L 353.900119 241.549654 
L 355.227111 242.044583 
L 356.554102 241.749887 
L 357.881094 242.098565 
L 360.535077 242.012913 
L 361.862069 241.984803 
L 363.189061 242.114794 
L 364.516052 242.055331 
L 367.170036 242.100642 
L 371.151011 242.004717 
L 372.478002 242.107275 
L 381.766944 242.046833 
L 384.420927 242.095017 
L 389.728894 242.1096 
L 389.728894 242.1096 
" clip-path="url(#p2788d9f72b)" style="fill: none; stroke: #dd8452; stroke-opacity: 0.3; stroke-width: 1.5; stroke-linecap: round"/>
   </g>
   <g id="line2d_16">
    <path d="M 54 242.114822 
L 97.790725 242.052836 
L 99.117717 241.970591 
L 100.444709 241.774326 
L 101.7717 241.301695 
L 104.425684 240.900199 
L 105.752675 233.001729 
L 107.079667 224.208201 
L 108.406659 233.456241 
L 109.73365 195.8921 
L 111.060642 209.387078 
L 112.387634 216.772221 
L 113.714625 176.657654 
L 115.041617 159.124622 
L 116.368609 175.208871 
L 117.6956 184.440997 
L 119.022592 191.433552 
L 120.349584 224.997792 
L 121.676576 117.507243 
L 123.003567 172.125276 
L 124.330559 191.388254 
L 125.657551 44.443636 
L 126.984542 231.731762 
L 128.311534 233.541588 
L 129.638526 159.230051 
L 130.965517 219.62072 
L 132.292509 221.799784 
L 133.619501 153.363385 
L 134.946492 235.143346 
L 136.273484 223.694752 
L 137.600476 196.471529 
L 138.927467 235.513465 
L 140.254459 223.868216 
L 141.581451 234.316409 
L 142.908442 217.684372 
L 144.235434 221.542132 
L 145.562426 210.623641 
L 146.889417 220.781724 
L 148.216409 238.88002 
L 149.543401 201.288263 
L 150.870392 187.162529 
L 152.197384 218.364546 
L 153.524376 87.505249 
L 154.851367 224.568072 
L 156.178359 189.936491 
L 157.505351 199.876818 
L 158.832342 230.98691 
L 160.159334 222.2664 
L 161.486326 222.611222 
L 162.813317 205.672124 
L 164.140309 237.473998 
L 165.467301 148.851702 
L 166.794293 213.973846 
L 168.121284 145.239211 
L 169.448276 217.104202 
L 170.775268 203.241118 
L 172.102259 230.647234 
L 173.429251 235.446905 
L 174.756243 201.364863 
L 176.083234 237.980245 
L 177.410226 229.638545 
L 178.737218 219.595231 
L 180.064209 219.683809 
L 181.391201 208.41367 
L 182.718193 148.594143 
L 184.045184 236.89651 
L 185.372176 198.886052 
L 186.699168 239.639969 
L 188.026159 227.16725 
L 189.353151 199.557864 
L 190.680143 175.106506 
L 192.007134 211.538502 
L 193.334126 186.085773 
L 194.661118 237.174069 
L 195.988109 216.538785 
L 198.642093 241.462027 
L 199.969084 215.772492 
L 201.296076 222.999331 
L 202.623068 228.882142 
L 203.950059 205.267937 
L 205.277051 225.882215 
L 206.604043 233.078705 
L 207.931034 234.455167 
L 209.258026 229.760008 
L 210.585018 231.059402 
L 211.91201 219.26206 
L 213.239001 211.548434 
L 214.565993 233.185167 
L 215.892985 226.097964 
L 217.219976 228.424789 
L 218.546968 236.55888 
L 219.87396 207.661768 
L 221.200951 224.739936 
L 222.527943 228.369611 
L 223.854935 222.957047 
L 225.181926 241.293049 
L 226.508918 238.835764 
L 227.83591 227.0989 
L 229.162901 226.531446 
L 230.489893 229.258202 
L 231.816885 224.902411 
L 233.143876 235.302243 
L 234.470868 230.832013 
L 235.79786 240.67278 
L 237.124851 238.189742 
L 238.451843 232.763132 
L 239.778835 238.446225 
L 241.105826 229.431249 
L 242.432818 240.084641 
L 243.75981 235.190845 
L 245.086801 239.694716 
L 246.413793 235.334302 
L 247.740785 241.380441 
L 249.067776 226.655968 
L 250.394768 241.618273 
L 251.72176 225.58431 
L 253.048751 211.530215 
L 254.375743 240.618181 
L 255.702735 206.167196 
L 257.029727 226.116168 
L 258.356718 226.702961 
L 259.68371 210.500611 
L 261.010702 232.516302 
L 262.337693 231.548052 
L 263.664685 217.09203 
L 264.991677 233.988017 
L 266.318668 239.172317 
L 267.64566 226.71888 
L 268.972652 237.743841 
L 270.299643 235.051258 
L 271.626635 206.4766 
L 272.953627 239.995422 
L 274.280618 231.286531 
L 275.60761 236.5807 
L 276.934602 240.068046 
L 278.261593 231.84597 
L 279.588585 225.456519 
L 280.915577 241.67713 
L 282.242568 237.897201 
L 283.56956 238.57528 
L 284.896552 233.909241 
L 286.223543 239.037806 
L 287.550535 240.831133 
L 290.204518 239.878797 
L 291.53151 237.74082 
L 292.858502 230.513914 
L 294.185493 229.68296 
L 295.512485 241.893632 
L 296.839477 241.769303 
L 298.166468 240.92674 
L 299.49346 240.479173 
L 300.820452 241.981787 
L 303.474435 230.580014 
L 304.801427 240.078464 
L 306.128419 239.705986 
L 308.782402 235.46785 
L 310.109394 240.22816 
L 311.436385 238.313463 
L 312.763377 230.570372 
L 314.090369 236.866429 
L 315.41736 235.919229 
L 316.744352 240.922206 
L 318.071344 240.099572 
L 319.398335 235.745946 
L 320.725327 240.680075 
L 322.052319 222.906076 
L 323.37931 232.589947 
L 324.706302 239.154227 
L 326.033294 240.611637 
L 327.360285 241.871637 
L 328.687277 239.112106 
L 330.014269 238.222909 
L 331.34126 234.643731 
L 332.668252 240.449484 
L 333.995244 240.852627 
L 335.322235 241.034711 
L 336.649227 240.821631 
L 337.976219 239.383032 
L 339.30321 241.647055 
L 341.957194 240.552931 
L 343.284185 241.831039 
L 344.611177 241.770137 
L 345.938169 240.974851 
L 348.592152 242.07471 
L 349.919144 242.007737 
L 351.246136 241.670686 
L 352.573127 242.108562 
L 353.900119 241.85036 
L 355.227111 242.052153 
L 356.554102 241.846582 
L 357.881094 242.084247 
L 364.516052 242.067849 
L 367.170036 242.111127 
L 371.151011 242.031492 
L 373.804994 242.093266 
L 389.728894 242.111321 
L 389.728894 242.111321 
" clip-path="url(#p2788d9f72b)" style="fill: none; stroke: #55a868; stroke-opacity: 0.3; stroke-width: 1.5; stroke-linecap: round"/>
   </g>
   <g id="line2d_17">
    <path d="M 54 242.093141 
L 99.117717 242.066377 
L 100.444709 239.591544 
L 103.098692 240.127402 
L 104.425684 241.886154 
L 105.752675 222.281976 
L 107.079667 241.305951 
L 108.406659 195.875611 
L 109.73365 186.434786 
L 111.060642 224.390772 
L 112.387634 194.271328 
L 113.714625 191.302575 
L 115.041617 234.022784 
L 116.368609 44.443636 
L 117.6956 231.272828 
L 119.022592 113.078126 
L 120.349584 214.410131 
L 121.676576 221.517924 
L 123.003567 238.812162 
L 124.330559 206.155149 
L 125.657551 230.821142 
L 128.311534 215.813588 
L 129.638526 177.634107 
L 130.965517 178.087518 
L 132.292509 225.345217 
L 133.619501 172.311581 
L 134.946492 158.942606 
L 136.273484 147.995612 
L 137.600476 222.190534 
L 138.927467 200.890944 
L 140.254459 232.709556 
L 141.581451 227.015884 
L 142.908442 232.212472 
L 144.235434 196.52059 
L 145.562426 206.213701 
L 148.216409 233.740026 
L 149.543401 239.236797 
L 150.870392 231.952631 
L 152.197384 222.162527 
L 153.524376 240.228471 
L 154.851367 230.911852 
L 156.178359 236.596172 
L 157.505351 229.612005 
L 158.832342 210.741982 
L 160.159334 222.233551 
L 161.486326 224.596147 
L 162.813317 150.23056 
L 164.140309 188.088024 
L 165.467301 215.12897 
L 166.794293 191.26014 
L 168.121284 241.441318 
L 169.448276 226.154477 
L 170.775268 231.75662 
L 172.102259 239.010961 
L 173.429251 205.266158 
L 174.756243 230.34369 
L 176.083234 226.118026 
L 177.410226 186.067308 
L 178.737218 229.302072 
L 180.064209 169.030702 
L 181.391201 158.154919 
L 182.718193 177.02363 
L 184.045184 208.8763 
L 185.372176 180.255023 
L 186.699168 241.419819 
L 188.026159 236.567281 
L 189.353151 239.484897 
L 190.680143 226.057 
L 192.007134 215.886676 
L 193.334126 232.315527 
L 194.661118 163.953688 
L 195.988109 183.49547 
L 197.315101 222.070262 
L 198.642093 221.689816 
L 199.969084 229.656372 
L 201.296076 212.567708 
L 202.623068 177.134421 
L 203.950059 237.823337 
L 205.277051 240.813908 
L 206.604043 241.384972 
L 207.931034 233.303135 
L 209.258026 239.055544 
L 210.585018 239.092905 
L 211.91201 214.616592 
L 213.239001 232.731462 
L 214.565993 230.806715 
L 215.892985 182.25064 
L 217.219976 224.011215 
L 218.546968 237.821446 
L 219.87396 233.011269 
L 221.200951 239.070074 
L 222.527943 233.688564 
L 223.854935 219.100004 
L 225.181926 189.494413 
L 226.508918 209.589468 
L 227.83591 199.608954 
L 229.162901 187.46171 
L 230.489893 216.520145 
L 231.816885 235.717996 
L 233.143876 200.261222 
L 234.470868 239.875839 
L 235.79786 221.851173 
L 237.124851 237.869384 
L 238.451843 241.034607 
L 239.778835 236.218595 
L 241.105826 239.752493 
L 242.432818 241.14172 
L 243.75981 240.783118 
L 246.413793 203.827447 
L 247.740785 205.373579 
L 249.067776 240.203978 
L 250.394768 238.151135 
L 251.72176 241.15503 
L 253.048751 237.537512 
L 254.375743 239.919972 
L 255.702735 241.659695 
L 257.029727 236.891955 
L 258.356718 196.150859 
L 259.68371 234.489754 
L 261.010702 212.746409 
L 262.337693 232.084386 
L 263.664685 231.453817 
L 264.991677 225.869178 
L 266.318668 227.735863 
L 267.64566 232.427136 
L 268.972652 228.581226 
L 270.299643 239.122804 
L 271.626635 239.61624 
L 272.953627 239.163507 
L 274.280618 235.610043 
L 275.60761 233.72311 
L 276.934602 213.386863 
L 278.261593 220.127125 
L 279.588585 202.589139 
L 280.915577 196.656503 
L 282.242568 208.642716 
L 283.56956 233.557912 
L 284.896552 235.412178 
L 286.223543 240.766156 
L 287.550535 241.855368 
L 288.877527 238.226187 
L 290.204518 242.080563 
L 291.53151 233.672937 
L 292.858502 238.830012 
L 294.185493 236.991045 
L 295.512485 241.457855 
L 296.839477 238.514042 
L 298.166468 239.814987 
L 299.49346 223.463738 
L 300.820452 234.15386 
L 302.147444 234.734182 
L 303.474435 239.327767 
L 304.801427 239.357215 
L 306.128419 238.668703 
L 307.45541 239.66535 
L 308.782402 239.968074 
L 310.109394 240.571472 
L 311.436385 238.461535 
L 312.763377 239.255912 
L 314.090369 241.685915 
L 315.41736 237.366471 
L 316.744352 241.8028 
L 318.071344 240.604161 
L 319.398335 240.541109 
L 320.725327 239.409399 
L 322.052319 237.328634 
L 323.37931 239.991857 
L 324.706302 239.46404 
L 326.033294 241.211664 
L 327.360285 238.878474 
L 328.687277 240.442267 
L 330.014269 241.082895 
L 331.34126 240.393389 
L 332.668252 240.594055 
L 333.995244 242.002025 
L 335.322235 242.061359 
L 336.649227 241.763573 
L 337.976219 241.95705 
L 339.30321 241.744177 
L 340.630202 240.668111 
L 341.957194 240.51165 
L 343.284185 240.755082 
L 344.611177 240.179426 
L 345.938169 240.901137 
L 347.265161 241.953176 
L 348.592152 242.106869 
L 349.919144 241.555512 
L 351.246136 242.101473 
L 353.900119 241.99652 
L 356.554102 241.811756 
L 357.881094 242.017749 
L 368.497027 242.115857 
L 372.478002 242.042045 
L 381.766944 242.107392 
L 389.728894 242.105183 
L 389.728894 242.105183 
" clip-path="url(#p2788d9f72b)" style="fill: none; stroke: #c44e52; stroke-opacity: 0.3; stroke-width: 1.5; stroke-linecap: round"/>
   </g>
   <g id="line2d_18">
    <path d="M 54 242.053218 
L 91.155767 241.981025 
L 92.482759 241.930915 
L 96.463734 242.063275 
L 97.790725 242.016841 
L 99.117717 241.655667 
L 101.7717 238.424724 
L 103.098692 234.733299 
L 104.425684 237.206596 
L 105.752675 209.007358 
L 107.079667 230.003632 
L 108.406659 147.420033 
L 109.73365 197.73832 
L 111.060642 233.457432 
L 112.387634 235.709324 
L 113.714625 216.018561 
L 115.041617 237.962338 
L 116.368609 232.033759 
L 117.6956 223.193643 
L 119.022592 120.642726 
L 120.349584 44.443636 
L 121.676576 80.708674 
L 123.003567 68.30497 
L 124.330559 173.170634 
L 125.657551 217.023922 
L 126.984542 240.558269 
L 128.311534 219.437482 
L 129.638526 166.350642 
L 130.965517 215.286743 
L 132.292509 179.945333 
L 133.619501 233.072103 
L 136.273484 192.002092 
L 137.600476 235.482878 
L 138.927467 194.738879 
L 140.254459 205.259933 
L 141.581451 140.524221 
L 142.908442 220.061091 
L 144.235434 197.201754 
L 145.562426 227.827396 
L 146.889417 235.817015 
L 148.216409 215.326674 
L 149.543401 215.486037 
L 150.870392 184.062607 
L 152.197384 212.069389 
L 153.524376 178.392513 
L 154.851367 225.528185 
L 156.178359 212.934835 
L 157.505351 233.547036 
L 158.832342 242.009558 
L 160.159334 241.00152 
L 161.486326 238.974052 
L 162.813317 235.889841 
L 164.140309 222.407672 
L 165.467301 204.148483 
L 166.794293 218.568438 
L 168.121284 178.382449 
L 169.448276 219.507411 
L 170.775268 212.721078 
L 172.102259 232.569795 
L 173.429251 215.806891 
L 174.756243 237.256407 
L 176.083234 234.004641 
L 177.410226 240.01955 
L 178.737218 168.413619 
L 180.064209 221.455271 
L 181.391201 167.914534 
L 182.718193 191.548732 
L 184.045184 168.024433 
L 185.372176 197.293845 
L 186.699168 165.778258 
L 188.026159 234.399679 
L 189.353151 232.868497 
L 190.680143 241.499047 
L 192.007134 235.376229 
L 193.334126 239.523904 
L 194.661118 232.927206 
L 195.988109 230.12841 
L 197.315101 215.308091 
L 198.642093 207.882329 
L 199.969084 206.749852 
L 201.296076 201.896905 
L 202.623068 228.368106 
L 203.950059 206.225384 
L 205.277051 224.098845 
L 206.604043 226.778429 
L 207.931034 224.401445 
L 209.258026 235.820941 
L 210.585018 204.081395 
L 211.91201 221.583648 
L 213.239001 209.88205 
L 214.565993 203.980985 
L 215.892985 210.379151 
L 217.219976 215.041058 
L 218.546968 212.184684 
L 219.87396 224.358553 
L 221.200951 241.331984 
L 222.527943 230.713135 
L 223.854935 236.722367 
L 225.181926 205.809551 
L 226.508918 206.063664 
L 227.83591 210.834005 
L 229.162901 212.641824 
L 230.489893 234.253709 
L 231.816885 211.316512 
L 233.143876 234.805241 
L 234.470868 199.324086 
L 235.79786 235.975699 
L 237.124851 220.32637 
L 238.451843 233.175176 
L 239.778835 234.383861 
L 241.105826 239.305584 
L 242.432818 239.302209 
L 243.75981 236.688183 
L 245.086801 238.016422 
L 246.413793 168.256981 
L 247.740785 206.630088 
L 249.067776 221.937746 
L 250.394768 188.949928 
L 251.72176 236.114765 
L 253.048751 239.633808 
L 254.375743 241.273649 
L 255.702735 229.134173 
L 257.029727 232.132723 
L 258.356718 240.744347 
L 259.68371 235.144952 
L 261.010702 231.957164 
L 262.337693 238.570282 
L 263.664685 238.767996 
L 264.991677 226.370436 
L 266.318668 220.721871 
L 267.64566 229.12796 
L 268.972652 226.458365 
L 270.299643 230.352248 
L 271.626635 239.994933 
L 272.953627 230.099134 
L 274.280618 240.692518 
L 275.60761 217.217898 
L 276.934602 232.49886 
L 278.261593 205.916343 
L 279.588585 188.778077 
L 280.915577 229.204419 
L 282.242568 214.814379 
L 283.56956 222.415862 
L 284.896552 237.30233 
L 286.223543 239.531721 
L 287.550535 240.260528 
L 288.877527 241.932192 
L 290.204518 239.669233 
L 291.53151 241.695993 
L 292.858502 231.663399 
L 294.185493 240.553257 
L 295.512485 235.341537 
L 296.839477 240.000576 
L 298.166468 228.876802 
L 299.49346 226.964384 
L 300.820452 219.909011 
L 302.147444 229.170363 
L 303.474435 222.52985 
L 304.801427 241.1303 
L 306.128419 241.601822 
L 307.45541 238.558491 
L 308.782402 240.14826 
L 310.109394 237.908183 
L 311.436385 239.076708 
L 312.763377 226.239082 
L 314.090369 228.713958 
L 315.41736 240.766835 
L 316.744352 240.362032 
L 319.398335 241.133238 
L 320.725327 239.631573 
L 322.052319 240.623717 
L 323.37931 239.774575 
L 324.706302 240.42138 
L 326.033294 240.890082 
L 327.360285 241.787864 
L 328.687277 238.151835 
L 330.014269 235.170622 
L 331.34126 238.202311 
L 332.668252 239.347971 
L 333.995244 239.197202 
L 335.322235 239.447836 
L 336.649227 242.033378 
L 337.976219 241.189689 
L 339.30321 240.905851 
L 340.630202 239.625323 
L 341.957194 240.313045 
L 343.284185 240.16223 
L 344.611177 241.205612 
L 345.938169 240.346659 
L 347.265161 241.66528 
L 348.592152 242.102724 
L 351.246136 242.084669 
L 352.573127 241.629442 
L 353.900119 241.762459 
L 355.227111 241.772135 
L 356.554102 242.111412 
L 359.208086 241.946818 
L 360.535077 242.11187 
L 361.862069 242.067317 
L 363.189061 241.819974 
L 364.516052 242.010344 
L 373.804994 242.078562 
L 377.785969 242.062789 
L 389.728894 242.105342 
L 389.728894 242.105342 
" clip-path="url(#p2788d9f72b)" style="fill: none; stroke: #8172b3; stroke-opacity: 0.3; stroke-width: 1.5; stroke-linecap: round"/>
   </g>
   <g id="line2d_19">
    <path d="M 54 242.111207 
L 96.463734 242.003081 
L 97.790725 241.859585 
L 99.117717 241.527801 
L 100.444709 241.940355 
L 101.7717 241.523531 
L 103.098692 238.492491 
L 104.425684 231.163655 
L 105.752675 235.748229 
L 107.079667 237.200065 
L 109.73365 190.905597 
L 111.060642 195.071987 
L 112.387634 204.67783 
L 113.714625 192.380173 
L 115.041617 208.090489 
L 116.368609 188.342234 
L 117.6956 232.342224 
L 119.022592 226.566804 
L 120.349584 152.221639 
L 121.676576 147.696131 
L 123.003567 44.443636 
L 125.657551 176.074743 
L 126.984542 227.376103 
L 128.311534 231.655213 
L 129.638526 239.139069 
L 130.965517 215.700388 
L 132.292509 108.488833 
L 133.619501 211.391331 
L 134.946492 211.709285 
L 136.273484 232.64974 
L 137.600476 224.537735 
L 138.927467 202.297704 
L 140.254459 223.432615 
L 141.581451 139.39522 
L 142.908442 197.208661 
L 144.235434 186.202639 
L 145.562426 156.846609 
L 146.889417 213.912551 
L 148.216409 239.49665 
L 149.543401 235.030255 
L 150.870392 222.734385 
L 152.197384 212.010131 
L 153.524376 135.804959 
L 154.851367 185.490346 
L 156.178359 128.477841 
L 157.505351 178.024546 
L 158.832342 211.37355 
L 160.159334 235.454283 
L 161.486326 236.205593 
L 162.813317 241.187778 
L 164.140309 241.765704 
L 165.467301 223.13334 
L 166.794293 213.175332 
L 168.121284 197.471849 
L 169.448276 239.19066 
L 170.775268 224.799756 
L 172.102259 230.624389 
L 173.429251 194.581248 
L 174.756243 220.84867 
L 176.083234 205.258052 
L 177.410226 202.691081 
L 178.737218 238.029385 
L 180.064209 216.66086 
L 181.391201 239.226731 
L 182.718193 239.964386 
L 184.045184 226.021727 
L 185.372176 222.098217 
L 186.699168 167.116205 
L 188.026159 219.688081 
L 189.353151 212.256224 
L 190.680143 216.088193 
L 192.007134 235.118138 
L 193.334126 240.150546 
L 194.661118 236.749129 
L 195.988109 240.019394 
L 197.315101 239.040223 
L 198.642093 239.029822 
L 199.969084 232.62683 
L 201.296076 227.673675 
L 202.623068 235.209575 
L 203.950059 239.661593 
L 205.277051 237.045052 
L 206.604043 223.981935 
L 207.931034 230.425799 
L 209.258026 237.459099 
L 210.585018 239.538218 
L 211.91201 239.348557 
L 213.239001 235.133199 
L 214.565993 236.926513 
L 215.892985 239.903561 
L 217.219976 232.070521 
L 218.546968 214.088151 
L 219.87396 203.781425 
L 221.200951 218.335746 
L 222.527943 203.327174 
L 223.854935 220.580045 
L 225.181926 232.344522 
L 226.508918 239.638333 
L 227.83591 239.385575 
L 229.162901 233.005841 
L 230.489893 217.950324 
L 231.816885 242.037232 
L 233.143876 237.462641 
L 234.470868 239.191665 
L 235.79786 238.803344 
L 237.124851 241.625062 
L 238.451843 238.909601 
L 239.778835 235.541605 
L 241.105826 241.797983 
L 242.432818 233.212836 
L 243.75981 233.443304 
L 245.086801 238.580479 
L 247.740785 233.078219 
L 250.394768 200.096739 
L 251.72176 222.565191 
L 253.048751 226.776028 
L 254.375743 230.146506 
L 255.702735 228.756643 
L 257.029727 234.937592 
L 258.356718 230.633879 
L 259.68371 238.040154 
L 261.010702 240.285253 
L 262.337693 239.778705 
L 263.664685 232.87229 
L 264.991677 237.376424 
L 266.318668 233.804792 
L 267.64566 231.222115 
L 268.972652 239.763339 
L 270.299643 228.944163 
L 271.626635 229.751079 
L 272.953627 234.017674 
L 274.280618 238.803495 
L 275.60761 236.280982 
L 276.934602 240.219501 
L 278.261593 240.621089 
L 279.588585 239.111076 
L 280.915577 241.744947 
L 282.242568 238.565528 
L 283.56956 238.719111 
L 284.896552 233.343423 
L 286.223543 234.418172 
L 287.550535 240.005648 
L 288.877527 234.519379 
L 290.204518 241.73517 
L 291.53151 240.012117 
L 292.858502 241.235333 
L 294.185493 240.445573 
L 295.512485 240.816536 
L 296.839477 241.723064 
L 298.166468 241.281941 
L 299.49346 241.774442 
L 300.820452 239.36541 
L 302.147444 238.687991 
L 303.474435 232.636981 
L 304.801427 239.526038 
L 306.128419 239.989504 
L 307.45541 239.620429 
L 308.782402 239.486852 
L 310.109394 237.07527 
L 311.436385 238.780894 
L 312.763377 236.6927 
L 314.090369 232.308742 
L 315.41736 241.426047 
L 316.744352 240.302127 
L 318.071344 240.938406 
L 319.398335 242.011377 
L 320.725327 242.109164 
L 322.052319 240.917998 
L 323.37931 240.507687 
L 324.706302 241.467691 
L 326.033294 241.505072 
L 328.687277 241.33812 
L 330.014269 241.750451 
L 331.34126 241.034246 
L 332.668252 241.239574 
L 333.995244 238.485411 
L 335.322235 239.752414 
L 336.649227 240.805707 
L 337.976219 241.554865 
L 339.30321 241.600541 
L 340.630202 241.858553 
L 341.957194 241.610629 
L 343.284185 241.695389 
L 344.611177 241.92549 
L 347.265161 241.911607 
L 348.592152 241.518724 
L 349.919144 241.262275 
L 351.246136 241.912036 
L 352.573127 242.114851 
L 355.227111 242.099871 
L 356.554102 241.860293 
L 357.881094 242.087012 
L 360.535077 242.037672 
L 363.189061 242.082867 
L 365.843044 242.071785 
L 368.497027 241.913687 
L 373.804994 242.106463 
L 389.728894 242.098782 
L 389.728894 242.098782 
" clip-path="url(#p2788d9f72b)" style="fill: none; stroke: #937860; stroke-opacity: 0.3; stroke-width: 1.5; stroke-linecap: round"/>
   </g>
   <g id="line2d_20">
    <path d="M 54 242.114893 
L 97.790725 242.091369 
L 99.117717 241.814641 
L 100.444709 242.074355 
L 101.7717 241.555101 
L 103.098692 239.33995 
L 104.425684 235.790369 
L 105.752675 231.803151 
L 107.079667 239.375611 
L 108.406659 217.896244 
L 109.73365 238.440755 
L 111.060642 225.968591 
L 112.387634 138.040225 
L 113.714625 209.506866 
L 115.041617 161.366062 
L 116.368609 226.900632 
L 117.6956 176.856387 
L 119.022592 155.519936 
L 120.349584 236.314871 
L 121.676576 208.147208 
L 123.003567 215.495313 
L 124.330559 140.936119 
L 125.657551 44.443636 
L 126.984542 78.948414 
L 128.311534 182.315028 
L 129.638526 199.720489 
L 130.965517 181.760235 
L 132.292509 208.178442 
L 133.619501 217.976779 
L 134.946492 164.638426 
L 136.273484 164.538401 
L 137.600476 140.021706 
L 138.927467 141.565748 
L 140.254459 207.440378 
L 141.581451 174.919546 
L 142.908442 221.173825 
L 144.235434 216.557433 
L 145.562426 219.601979 
L 146.889417 176.909262 
L 148.216409 155.634438 
L 149.543401 127.1407 
L 150.870392 104.139107 
L 152.197384 229.280995 
L 153.524376 182.855697 
L 154.851367 229.021969 
L 156.178359 130.137836 
L 157.505351 205.776597 
L 158.832342 161.928131 
L 160.159334 166.59736 
L 161.486326 226.97848 
L 162.813317 163.785185 
L 164.140309 240.314796 
L 165.467301 165.514726 
L 166.794293 224.889537 
L 169.448276 136.726062 
L 170.775268 204.193785 
L 172.102259 112.006284 
L 173.429251 239.822298 
L 174.756243 196.138449 
L 176.083234 224.592513 
L 177.410226 207.243336 
L 178.737218 202.775289 
L 180.064209 178.093757 
L 181.391201 208.614238 
L 182.718193 178.517885 
L 184.045184 215.676407 
L 185.372176 237.792099 
L 186.699168 200.117001 
L 188.026159 235.681356 
L 189.353151 188.623531 
L 190.680143 204.084346 
L 192.007134 217.156708 
L 193.334126 209.421518 
L 194.661118 223.747493 
L 195.988109 186.157126 
L 197.315101 220.056891 
L 198.642093 215.615622 
L 199.969084 230.13016 
L 201.296076 239.770131 
L 202.623068 191.072187 
L 203.950059 241.450362 
L 205.277051 213.671269 
L 206.604043 236.025224 
L 207.931034 219.411914 
L 209.258026 222.069781 
L 210.585018 241.215013 
L 211.91201 196.343553 
L 213.239001 226.181283 
L 214.565993 231.690403 
L 215.892985 183.369781 
L 217.219976 233.04677 
L 218.546968 145.198854 
L 219.87396 239.222086 
L 221.200951 180.612641 
L 222.527943 239.929445 
L 223.854935 217.978076 
L 225.181926 228.070174 
L 226.508918 242.065551 
L 227.83591 209.500016 
L 229.162901 236.640392 
L 230.489893 204.331151 
L 231.816885 232.54007 
L 233.143876 228.911119 
L 234.470868 235.61797 
L 235.79786 231.974043 
L 237.124851 213.326086 
L 238.451843 233.644595 
L 239.778835 207.06348 
L 241.105826 238.858667 
L 242.432818 220.995445 
L 243.75981 222.304109 
L 245.086801 239.885544 
L 246.413793 195.366046 
L 247.740785 218.823572 
L 249.067776 176.256073 
L 250.394768 207.772679 
L 251.72176 195.186895 
L 253.048751 201.545663 
L 254.375743 237.48265 
L 255.702735 196.408352 
L 257.029727 236.540124 
L 258.356718 220.880859 
L 259.68371 241.829697 
L 261.010702 214.261296 
L 262.337693 231.011293 
L 263.664685 217.776882 
L 264.991677 216.899573 
L 266.318668 234.379994 
L 267.64566 218.573307 
L 268.972652 226.703884 
L 270.299643 213.603729 
L 271.626635 241.256278 
L 272.953627 217.963352 
L 274.280618 236.665304 
L 275.60761 241.091749 
L 276.934602 226.740428 
L 278.261593 226.116781 
L 279.588585 213.746716 
L 280.915577 234.264888 
L 282.242568 229.535333 
L 284.896552 241.180697 
L 286.223543 240.420458 
L 287.550535 228.205865 
L 288.877527 235.644693 
L 290.204518 237.825091 
L 291.53151 208.460304 
L 292.858502 229.369349 
L 294.185493 241.311228 
L 295.512485 230.166115 
L 296.839477 222.484059 
L 298.166468 233.922831 
L 299.49346 231.337756 
L 300.820452 231.979357 
L 302.147444 239.742475 
L 303.474435 240.885045 
L 304.801427 235.744554 
L 306.128419 241.393354 
L 307.45541 240.838015 
L 308.782402 241.872899 
L 310.109394 240.319695 
L 311.436385 239.724034 
L 312.763377 232.397123 
L 314.090369 237.556637 
L 315.41736 237.683419 
L 316.744352 236.581585 
L 318.071344 241.889307 
L 319.398335 231.543213 
L 320.725327 241.53574 
L 322.052319 240.199408 
L 323.37931 232.447769 
L 324.706302 240.404165 
L 326.033294 241.006964 
L 327.360285 241.950821 
L 328.687277 239.502895 
L 330.014269 239.166061 
L 331.34126 241.362354 
L 332.668252 238.226701 
L 333.995244 242.047652 
L 335.322235 241.841057 
L 336.649227 241.952709 
L 337.976219 239.45778 
L 339.30321 240.758494 
L 340.630202 239.637258 
L 341.957194 242.028098 
L 343.284185 241.825948 
L 344.611177 240.845638 
L 345.938169 241.786854 
L 347.265161 241.78562 
L 348.592152 241.517481 
L 349.919144 240.444307 
L 351.246136 241.943091 
L 352.573127 241.221118 
L 353.900119 241.910718 
L 356.554102 241.954033 
L 357.881094 242.10306 
L 369.824019 242.078011 
L 389.728894 242.105385 
L 389.728894 242.105385 
" clip-path="url(#p2788d9f72b)" style="fill: none; stroke: #da8bc3; stroke-opacity: 0.3; stroke-width: 1.5; stroke-linecap: round"/>
   </g>
   <g id="line2d_21">
    <path d="M 54 242.115836 
L 100.444709 242.027963 
L 101.7717 241.639542 
L 103.098692 236.767618 
L 104.425684 240.050964 
L 105.752675 226.608486 
L 107.079667 191.472435 
L 108.406659 239.423959 
L 109.73365 207.345666 
L 111.060642 199.017882 
L 112.387634 172.271222 
L 113.714625 189.019078 
L 115.041617 238.102256 
L 117.6956 139.983889 
L 119.022592 185.890911 
L 120.349584 144.604026 
L 121.676576 202.793707 
L 123.003567 171.184329 
L 124.330559 148.355658 
L 125.657551 44.443636 
L 126.984542 154.930735 
L 128.311534 166.465196 
L 129.638526 211.194124 
L 130.965517 217.589088 
L 133.619501 240.818718 
L 134.946492 208.807296 
L 136.273484 201.443774 
L 137.600476 175.281125 
L 138.927467 194.578976 
L 140.254459 202.991539 
L 141.581451 230.115507 
L 142.908442 78.781916 
L 144.235434 129.673519 
L 145.562426 230.878396 
L 146.889417 123.601836 
L 148.216409 204.673642 
L 149.543401 215.308355 
L 150.870392 199.283966 
L 152.197384 241.638248 
L 153.524376 128.182146 
L 154.851367 235.380501 
L 156.178359 176.755757 
L 157.505351 203.386392 
L 158.832342 238.509524 
L 160.159334 171.615631 
L 161.486326 239.389414 
L 162.813317 213.707718 
L 164.140309 233.420528 
L 165.467301 241.600673 
L 166.794293 228.053583 
L 168.121284 239.941673 
L 169.448276 230.145021 
L 170.775268 231.1182 
L 172.102259 173.446326 
L 173.429251 242.054045 
L 174.756243 223.365748 
L 176.083234 217.675947 
L 177.410226 240.973547 
L 178.737218 220.236735 
L 180.064209 227.919022 
L 181.391201 240.596876 
L 182.718193 219.047962 
L 184.045184 226.379078 
L 185.372176 232.192495 
L 186.699168 228.397506 
L 188.026159 216.532599 
L 189.353151 240.958491 
L 190.680143 226.11381 
L 192.007134 233.887169 
L 193.334126 240.654547 
L 194.661118 215.981318 
L 195.988109 241.746901 
L 197.315101 241.286408 
L 198.642093 235.839861 
L 199.969084 166.320521 
L 201.296076 220.152867 
L 202.623068 119.810474 
L 203.950059 227.172494 
L 205.277051 217.926783 
L 206.604043 223.80756 
L 207.931034 226.749853 
L 209.258026 222.773554 
L 210.585018 241.187748 
L 211.91201 236.066485 
L 213.239001 221.082849 
L 214.565993 231.906962 
L 215.892985 199.795087 
L 217.219976 216.686664 
L 218.546968 145.31118 
L 219.87396 232.617534 
L 221.200951 212.522861 
L 222.527943 239.083521 
L 223.854935 225.5402 
L 225.181926 231.673143 
L 227.83591 240.666689 
L 229.162901 209.392436 
L 230.489893 239.811121 
L 231.816885 233.981296 
L 233.143876 232.311083 
L 234.470868 229.523451 
L 235.79786 239.312192 
L 237.124851 222.885088 
L 238.451843 240.102278 
L 239.778835 225.686139 
L 241.105826 238.920527 
L 242.432818 218.053124 
L 243.75981 239.183911 
L 245.086801 231.155657 
L 246.413793 220.610227 
L 247.740785 226.20834 
L 249.067776 220.03676 
L 250.394768 226.716042 
L 251.72176 232.448957 
L 253.048751 228.139347 
L 254.375743 200.229799 
L 255.702735 229.990668 
L 257.029727 233.624659 
L 258.356718 224.499724 
L 259.68371 227.775788 
L 261.010702 228.680243 
L 262.337693 235.996831 
L 263.664685 214.716591 
L 264.991677 204.26066 
L 266.318668 216.835426 
L 267.64566 193.711368 
L 268.972652 207.271317 
L 270.299643 240.553782 
L 271.626635 229.763205 
L 272.953627 233.085007 
L 274.280618 239.244635 
L 275.60761 209.711038 
L 276.934602 236.878528 
L 278.261593 200.199871 
L 279.588585 239.863362 
L 280.915577 242.027848 
L 282.242568 238.785714 
L 283.56956 238.851216 
L 284.896552 234.577308 
L 286.223543 182.739174 
L 287.550535 241.525148 
L 288.877527 208.487735 
L 290.204518 241.370847 
L 291.53151 232.750457 
L 292.858502 233.813946 
L 294.185493 240.238002 
L 295.512485 226.30608 
L 296.839477 199.369286 
L 298.166468 239.650859 
L 299.49346 213.915661 
L 300.820452 239.32802 
L 302.147444 241.245272 
L 303.474435 235.611954 
L 304.801427 240.721427 
L 306.128419 241.543424 
L 307.45541 238.851273 
L 308.782402 241.496303 
L 310.109394 240.934621 
L 311.436385 231.882155 
L 312.763377 237.808364 
L 314.090369 239.321641 
L 315.41736 231.707663 
L 316.744352 221.49584 
L 318.071344 238.548379 
L 319.398335 218.998245 
L 320.725327 239.134514 
L 322.052319 239.030733 
L 323.37931 233.006145 
L 324.706302 233.960439 
L 326.033294 238.795891 
L 328.687277 241.950788 
L 330.014269 238.385326 
L 331.34126 241.258012 
L 332.668252 235.343249 
L 333.995244 240.009619 
L 335.322235 238.539864 
L 336.649227 240.80789 
L 337.976219 237.543826 
L 339.30321 237.092304 
L 340.630202 239.802685 
L 341.957194 241.089784 
L 343.284185 240.361532 
L 344.611177 240.682881 
L 345.938169 242.077324 
L 347.265161 241.820758 
L 348.592152 240.972294 
L 349.919144 239.688874 
L 351.246136 241.806773 
L 352.573127 241.572518 
L 353.900119 241.960291 
L 355.227111 242.058543 
L 356.554102 241.927488 
L 359.208086 242.034908 
L 360.535077 241.97622 
L 361.862069 241.762432 
L 363.189061 241.968919 
L 364.516052 241.756703 
L 365.843044 242.010258 
L 372.478002 242.098132 
L 373.804994 241.938146 
L 377.785969 242.091619 
L 389.728894 242.114162 
L 389.728894 242.114162 
" clip-path="url(#p2788d9f72b)" style="fill: none; stroke: #8c8c8c; stroke-opacity: 0.3; stroke-width: 1.5; stroke-linecap: round"/>
   </g>
   <g id="line2d_22">
    <path d="M 54 242.112973 
L 100.444709 242.043827 
L 101.7717 241.323245 
L 103.098692 233.798705 
L 104.425684 239.68532 
L 105.752675 222.863022 
L 107.079667 191.583209 
L 108.406659 237.323694 
L 109.73365 207.124267 
L 111.060642 192.253211 
L 112.387634 182.990748 
L 113.714625 185.722571 
L 115.041617 239.282293 
L 116.368609 176.857849 
L 117.6956 126.724008 
L 119.022592 160.073652 
L 120.349584 143.127664 
L 121.676576 201.066586 
L 123.003567 164.431764 
L 124.330559 150.00242 
L 125.657551 53.374645 
L 126.984542 155.766018 
L 128.311534 180.40906 
L 129.638526 207.278429 
L 130.965517 224.099928 
L 132.292509 224.251917 
L 133.619501 240.30583 
L 134.946492 213.068759 
L 136.273484 206.623565 
L 137.600476 185.49236 
L 138.927467 195.001636 
L 140.254459 188.581796 
L 141.581451 223.566224 
L 142.908442 44.443636 
L 144.235434 106.942698 
L 145.562426 226.755106 
L 146.889417 90.767713 
L 148.216409 216.857495 
L 149.543401 205.14235 
L 150.870392 189.039962 
L 152.197384 241.237939 
L 153.524376 103.098621 
L 154.851367 235.860276 
L 156.178359 161.760463 
L 157.505351 193.226377 
L 158.832342 233.294798 
L 160.159334 135.397958 
L 161.486326 239.208128 
L 162.813317 193.148456 
L 164.140309 232.326784 
L 165.467301 240.70187 
L 166.794293 224.295607 
L 168.121284 236.596705 
L 169.448276 234.287161 
L 170.775268 226.294691 
L 172.102259 186.272008 
L 173.429251 241.736459 
L 174.756243 225.540136 
L 176.083234 219.279636 
L 177.410226 241.230442 
L 178.737218 223.899579 
L 180.064209 231.382223 
L 181.391201 241.607327 
L 182.718193 225.082019 
L 184.045184 224.576597 
L 185.372176 230.36964 
L 186.699168 220.178679 
L 188.026159 214.471303 
L 189.353151 239.198357 
L 190.680143 226.332294 
L 192.007134 235.67407 
L 193.334126 241.051278 
L 194.661118 217.755491 
L 195.988109 241.611468 
L 197.315101 241.644344 
L 198.642093 234.104665 
L 199.969084 156.483591 
L 201.296076 224.977769 
L 202.623068 122.225315 
L 203.950059 227.139661 
L 205.277051 216.460085 
L 206.604043 222.266371 
L 207.931034 229.230756 
L 209.258026 202.59424 
L 210.585018 241.067926 
L 211.91201 226.117995 
L 213.239001 225.985653 
L 214.565993 227.076171 
L 215.892985 203.675397 
L 217.219976 219.198845 
L 218.546968 164.025192 
L 219.87396 230.94921 
L 221.200951 225.204724 
L 222.527943 237.563325 
L 223.854935 224.423678 
L 225.181926 230.492346 
L 226.508918 232.753287 
L 227.83591 239.428162 
L 229.162901 212.582108 
L 230.489893 236.602678 
L 231.816885 234.370229 
L 233.143876 227.479953 
L 234.470868 222.679558 
L 235.79786 238.372629 
L 237.124851 213.595246 
L 238.451843 241.418462 
L 239.778835 221.202695 
L 241.105826 235.18047 
L 242.432818 217.090149 
L 243.75981 236.520651 
L 245.086801 227.065513 
L 246.413793 223.940852 
L 247.740785 225.289241 
L 250.394768 231.841502 
L 251.72176 233.282397 
L 253.048751 231.101438 
L 254.375743 198.140986 
L 255.702735 231.77145 
L 257.029727 233.077244 
L 258.356718 216.990563 
L 259.68371 226.156953 
L 261.010702 225.911349 
L 262.337693 235.654476 
L 263.664685 215.830375 
L 264.991677 202.18265 
L 266.318668 213.640623 
L 267.64566 188.064266 
L 268.972652 206.871827 
L 270.299643 240.253298 
L 271.626635 227.34778 
L 272.953627 234.606637 
L 274.280618 239.699166 
L 275.60761 206.912996 
L 276.934602 237.491285 
L 278.261593 199.035689 
L 279.588585 240.084149 
L 280.915577 242.111286 
L 282.242568 239.452107 
L 283.56956 237.257793 
L 284.896552 234.410726 
L 286.223543 175.670581 
L 287.550535 240.190188 
L 288.877527 202.621009 
L 290.204518 241.56422 
L 291.53151 235.074703 
L 292.858502 234.812834 
L 294.185493 239.296887 
L 295.512485 229.46909 
L 296.839477 201.082216 
L 298.166468 239.895184 
L 299.49346 215.952864 
L 300.820452 239.020849 
L 302.147444 241.653036 
L 303.474435 234.540827 
L 304.801427 241.458413 
L 306.128419 241.533681 
L 307.45541 239.302301 
L 308.782402 241.381855 
L 310.109394 240.597589 
L 311.436385 231.510069 
L 312.763377 238.624632 
L 314.090369 240.261827 
L 315.41736 231.362215 
L 316.744352 219.350619 
L 318.071344 237.911691 
L 319.398335 218.462798 
L 320.725327 239.479755 
L 322.052319 238.289689 
L 323.37931 234.658857 
L 324.706302 233.510743 
L 326.033294 238.754208 
L 327.360285 240.562174 
L 328.687277 242.030884 
L 330.014269 238.494962 
L 331.34126 241.270718 
L 332.668252 235.852872 
L 333.995244 239.633019 
L 335.322235 237.986073 
L 336.649227 240.566934 
L 337.976219 237.600595 
L 339.30321 237.237297 
L 340.630202 240.008248 
L 341.957194 240.973691 
L 343.284185 240.261434 
L 344.611177 240.919652 
L 345.938169 242.106965 
L 347.265161 241.844623 
L 348.592152 240.978442 
L 349.919144 239.833405 
L 351.246136 241.766345 
L 352.573127 241.630022 
L 353.900119 241.92267 
L 355.227111 242.049891 
L 356.554102 241.95042 
L 360.535077 241.948053 
L 361.862069 241.69317 
L 363.189061 241.944377 
L 364.516052 241.704528 
L 365.843044 242.004448 
L 372.478002 242.096937 
L 373.804994 241.930245 
L 376.458977 242.062907 
L 384.420927 242.108526 
L 389.728894 242.112282 
L 389.728894 242.112282 
" clip-path="url(#p2788d9f72b)" style="fill: none; stroke: #ccb974; stroke-opacity: 0.3; stroke-width: 1.5; stroke-linecap: round"/>
   </g>
   <g id="line2d_23">
    <path d="M 54 242.107362 
L 96.463734 242.080974 
L 97.790725 241.733734 
L 99.117717 240.014562 
L 100.444709 241.178564 
L 101.7717 239.455687 
L 103.098692 241.25732 
L 104.425684 233.973069 
L 105.752675 228.806422 
L 107.079667 222.357131 
L 108.406659 220.492988 
L 109.73365 232.238609 
L 111.060642 235.459576 
L 112.387634 44.443636 
L 113.714625 225.12435 
L 115.041617 227.974119 
L 116.368609 201.304868 
L 117.6956 222.986962 
L 119.022592 125.649405 
L 120.349584 200.777771 
L 121.676576 59.410797 
L 123.003567 237.200273 
L 124.330559 151.402381 
L 125.657551 235.813192 
L 126.984542 184.540049 
L 129.638526 237.976972 
L 130.965517 199.066798 
L 132.292509 227.388783 
L 133.619501 224.379366 
L 134.946492 191.690035 
L 136.273484 180.613957 
L 137.600476 238.811602 
L 138.927467 193.386104 
L 140.254459 231.812861 
L 141.581451 222.779774 
L 142.908442 199.015373 
L 144.235434 222.235331 
L 145.562426 235.459201 
L 146.889417 207.889733 
L 148.216409 176.317482 
L 149.543401 226.469473 
L 150.870392 226.102828 
L 152.197384 230.07943 
L 153.524376 240.559926 
L 154.851367 229.574056 
L 156.178359 228.499863 
L 157.505351 229.83036 
L 158.832342 238.523458 
L 160.159334 225.599173 
L 161.486326 234.559421 
L 162.813317 239.561413 
L 164.140309 224.43783 
L 165.467301 207.511813 
L 166.794293 214.29275 
L 168.121284 225.85347 
L 169.448276 238.614471 
L 170.775268 234.83336 
L 172.102259 197.629914 
L 173.429251 238.953088 
L 174.756243 239.331915 
L 176.083234 230.38284 
L 177.410226 228.792927 
L 178.737218 221.529392 
L 180.064209 240.517089 
L 181.391201 235.002618 
L 182.718193 239.269609 
L 184.045184 237.576012 
L 185.372176 234.350012 
L 186.699168 239.420219 
L 188.026159 241.227864 
L 189.353151 229.609769 
L 190.680143 241.007314 
L 192.007134 239.242594 
L 193.334126 236.652986 
L 194.661118 238.171657 
L 195.988109 239.12718 
L 197.315101 238.176645 
L 198.642093 238.364421 
L 199.969084 233.961019 
L 201.296076 240.360861 
L 202.623068 235.394675 
L 203.950059 241.916834 
L 205.277051 228.335621 
L 206.604043 236.686564 
L 207.931034 238.114982 
L 209.258026 235.16685 
L 210.585018 228.713166 
L 211.91201 240.451783 
L 213.239001 234.700282 
L 214.565993 240.599746 
L 215.892985 232.421761 
L 217.219976 240.364513 
L 218.546968 240.847108 
L 219.87396 240.35928 
L 221.200951 240.718912 
L 222.527943 238.052018 
L 223.854935 237.609257 
L 225.181926 237.604975 
L 226.508918 241.863021 
L 227.83591 241.476098 
L 229.162901 231.364416 
L 231.816885 240.416026 
L 233.143876 236.998408 
L 234.470868 237.725383 
L 235.79786 230.66016 
L 237.124851 238.577439 
L 238.451843 241.892685 
L 239.778835 237.274012 
L 241.105826 236.856219 
L 242.432818 238.972467 
L 243.75981 239.630063 
L 245.086801 238.448631 
L 246.413793 231.308944 
L 247.740785 240.931886 
L 249.067776 241.85361 
L 250.394768 236.124127 
L 251.72176 240.257762 
L 253.048751 237.751893 
L 254.375743 241.528814 
L 255.702735 241.970625 
L 257.029727 237.004742 
L 258.356718 240.244549 
L 259.68371 241.520387 
L 261.010702 239.74233 
L 262.337693 240.609218 
L 263.664685 238.137674 
L 264.991677 241.657691 
L 266.318668 240.1888 
L 267.64566 241.8319 
L 268.972652 241.941584 
L 270.299643 240.93091 
L 271.626635 238.820403 
L 272.953627 238.622028 
L 274.280618 236.941276 
L 275.60761 240.562367 
L 276.934602 238.721601 
L 278.261593 242.101549 
L 279.588585 241.715402 
L 280.915577 240.345752 
L 282.242568 241.373545 
L 283.56956 241.778111 
L 284.896552 242.038482 
L 286.223543 242.069276 
L 287.550535 241.512038 
L 288.877527 241.436567 
L 290.204518 241.505655 
L 291.53151 240.529503 
L 292.858502 241.967242 
L 294.185493 238.373015 
L 295.512485 238.308344 
L 296.839477 240.756735 
L 298.166468 240.686472 
L 299.49346 241.773811 
L 300.820452 241.303391 
L 302.147444 241.379623 
L 303.474435 240.72034 
L 304.801427 238.411921 
L 306.128419 238.487691 
L 307.45541 241.182728 
L 308.782402 241.164554 
L 310.109394 240.611458 
L 311.436385 241.182704 
L 312.763377 240.823584 
L 314.090369 241.220136 
L 315.41736 240.846115 
L 316.744352 241.948517 
L 318.071344 242.072101 
L 320.725327 240.609295 
L 322.052319 241.618881 
L 323.37931 241.376557 
L 324.706302 240.926567 
L 326.033294 240.687489 
L 327.360285 241.851251 
L 328.687277 241.602323 
L 330.014269 241.503299 
L 332.668252 241.955904 
L 333.995244 241.64614 
L 335.322235 240.66314 
L 336.649227 241.647948 
L 337.976219 242.010212 
L 339.30321 241.932248 
L 340.630202 242.113231 
L 343.284185 241.460805 
L 344.611177 241.839463 
L 345.938169 242.006217 
L 348.592152 242.039876 
L 351.246136 242.11141 
L 353.900119 242.087235 
L 356.554102 242.104282 
L 389.728894 242.116312 
L 389.728894 242.116312 
" clip-path="url(#p2788d9f72b)" style="fill: none; stroke: #64b5cd; stroke-opacity: 0.3; stroke-width: 1.5; stroke-linecap: round"/>
   </g>
   <g id="line2d_24">
    <path d="M 54 242.10847 
L 95.136742 242.02408 
L 96.463734 241.980994 
L 97.790725 241.631423 
L 99.117717 241.533933 
L 100.444709 238.301589 
L 101.7717 235.92698 
L 103.098692 233.199613 
L 104.425684 241.430484 
L 105.752675 182.712859 
L 107.079667 170.308964 
L 108.406659 98.023309 
L 109.73365 94.443887 
L 111.060642 214.504899 
L 112.387634 152.674971 
L 113.714625 70.313351 
L 115.041617 231.29662 
L 116.368609 222.801841 
L 117.6956 175.014936 
L 120.349584 213.366674 
L 121.676576 205.104357 
L 123.003567 194.99887 
L 124.330559 179.985694 
L 125.657551 63.507847 
L 126.984542 240.428017 
L 128.311534 44.443636 
L 129.638526 205.01989 
L 130.965517 186.901705 
L 132.292509 216.817128 
L 133.619501 219.892826 
L 134.946492 47.612268 
L 136.273484 139.841279 
L 137.600476 204.272966 
L 138.927467 66.569825 
L 140.254459 230.514084 
L 141.581451 211.092768 
L 142.908442 204.357809 
L 145.562426 188.507315 
L 146.889417 136.079511 
L 148.216409 204.19643 
L 149.543401 104.106307 
L 150.870392 235.891117 
L 152.197384 177.625181 
L 153.524376 193.145751 
L 154.851367 213.301298 
L 156.178359 168.813192 
L 157.505351 192.262156 
L 158.832342 178.859106 
L 160.159334 172.514733 
L 161.486326 239.573422 
L 162.813317 216.238569 
L 164.140309 177.504119 
L 165.467301 192.616572 
L 166.794293 85.669515 
L 168.121284 185.471464 
L 169.448276 228.083208 
L 170.775268 190.49232 
L 172.102259 163.378641 
L 173.429251 211.940571 
L 174.756243 209.381766 
L 176.083234 228.453576 
L 177.410226 141.950258 
L 178.737218 156.469117 
L 180.064209 236.010283 
L 181.391201 175.067418 
L 182.718193 226.783298 
L 184.045184 202.561821 
L 185.372176 193.381709 
L 186.699168 236.092535 
L 188.026159 223.365408 
L 189.353151 198.273356 
L 190.680143 241.51684 
L 192.007134 236.2901 
L 193.334126 218.382621 
L 194.661118 234.935043 
L 195.988109 230.765111 
L 197.315101 225.01051 
L 198.642093 212.79922 
L 199.969084 172.699241 
L 201.296076 212.895182 
L 202.623068 177.863976 
L 203.950059 226.946196 
L 205.277051 206.854655 
L 206.604043 198.667115 
L 207.931034 214.701467 
L 209.258026 223.570913 
L 210.585018 177.001642 
L 211.91201 239.696926 
L 213.239001 205.810567 
L 214.565993 219.404227 
L 215.892985 197.014377 
L 217.219976 223.547378 
L 218.546968 211.090956 
L 219.87396 215.127358 
L 221.200951 224.102627 
L 222.527943 224.074708 
L 223.854935 207.506167 
L 225.181926 195.579504 
L 226.508918 240.411662 
L 227.83591 223.932797 
L 229.162901 201.203839 
L 230.489893 239.840029 
L 231.816885 235.289345 
L 233.143876 236.379681 
L 234.470868 233.202535 
L 235.79786 230.882761 
L 237.124851 229.698602 
L 238.451843 235.887737 
L 239.778835 211.711885 
L 241.105826 232.939659 
L 242.432818 230.972676 
L 243.75981 222.131325 
L 245.086801 241.105229 
L 246.413793 240.781401 
L 247.740785 240.971511 
L 249.067776 241.347573 
L 250.394768 221.891614 
L 251.72176 237.121649 
L 253.048751 228.138534 
L 254.375743 238.045 
L 255.702735 240.460944 
L 257.029727 214.600705 
L 258.356718 240.01461 
L 259.68371 241.632902 
L 261.010702 220.984668 
L 262.337693 233.974087 
L 263.664685 231.302543 
L 266.318668 241.227162 
L 267.64566 241.261379 
L 268.972652 241.818231 
L 270.299643 241.013682 
L 271.626635 238.501759 
L 272.953627 225.482829 
L 274.280618 232.664565 
L 275.60761 234.181092 
L 276.934602 227.283737 
L 278.261593 241.009207 
L 279.588585 239.137175 
L 280.915577 240.983584 
L 282.242568 233.035733 
L 283.56956 241.691777 
L 284.896552 240.918814 
L 286.223543 241.933813 
L 287.550535 240.912193 
L 288.877527 240.260324 
L 290.204518 240.822527 
L 291.53151 234.877644 
L 292.858502 241.062341 
L 294.185493 226.334303 
L 295.512485 224.863083 
L 296.839477 234.678219 
L 298.166468 234.461028 
L 299.49346 241.908385 
L 300.820452 240.883739 
L 302.147444 241.246585 
L 303.474435 237.945918 
L 304.801427 234.308234 
L 306.128419 234.847759 
L 307.45541 237.002793 
L 308.782402 241.870168 
L 310.109394 238.528396 
L 311.436385 239.084957 
L 312.763377 230.418754 
L 314.090369 241.558296 
L 315.41736 235.831148 
L 316.744352 238.96813 
L 318.071344 241.192443 
L 319.398335 237.476996 
L 320.725327 230.280523 
L 322.052319 239.925648 
L 323.37931 238.838437 
L 324.706302 238.721712 
L 326.033294 239.522433 
L 327.360285 240.851475 
L 328.687277 241.288562 
L 330.014269 238.939546 
L 331.34126 240.090042 
L 332.668252 240.953911 
L 333.995244 238.917276 
L 335.322235 237.950371 
L 336.649227 241.02043 
L 339.30321 240.40125 
L 340.630202 241.606552 
L 341.957194 241.413383 
L 343.284185 241.501976 
L 344.611177 240.996783 
L 345.938169 241.77284 
L 347.265161 241.417375 
L 348.592152 241.989254 
L 349.919144 241.930702 
L 351.246136 242.107959 
L 352.573127 241.298189 
L 353.900119 241.728038 
L 355.227111 241.909774 
L 359.208086 242.090153 
L 360.535077 241.850183 
L 361.862069 242.035212 
L 368.497027 242.082775 
L 373.804994 242.1089 
L 375.131986 242.019544 
L 377.785969 242.104693 
L 383.093936 242.103734 
L 389.728894 242.116158 
L 389.728894 242.116158 
" clip-path="url(#p2788d9f72b)" style="fill: none; stroke: #4c72b0; stroke-opacity: 0.3; stroke-width: 1.5; stroke-linecap: round"/>
   </g>
   <g id="line2d_25">
    <path d="M 54 242.004188 
L 88.501784 241.894623 
L 93.80975 241.802474 
L 95.136742 241.917438 
L 97.790725 241.907105 
L 99.117717 241.385809 
L 100.444709 241.681984 
L 103.098692 240.681237 
L 104.425684 237.770998 
L 105.752675 240.32103 
L 107.079667 228.789963 
L 108.406659 189.704156 
L 109.73365 225.872845 
L 111.060642 58.913868 
L 112.387634 229.185168 
L 113.714625 126.023422 
L 115.041617 204.123155 
L 116.368609 233.921849 
L 117.6956 113.84329 
L 119.022592 214.055261 
L 120.349584 224.820582 
L 121.676576 237.623198 
L 123.003567 176.110257 
L 124.330559 222.565796 
L 125.657551 44.443636 
L 126.984542 232.850262 
L 128.311534 138.770932 
L 129.638526 226.368177 
L 130.965517 205.253493 
L 132.292509 201.152534 
L 133.619501 216.100285 
L 134.946492 154.121096 
L 136.273484 143.694486 
L 137.600476 221.943055 
L 138.927467 59.916302 
L 140.254459 238.057994 
L 141.581451 218.433399 
L 142.908442 195.646926 
L 144.235434 207.550131 
L 145.562426 176.710458 
L 146.889417 183.413564 
L 148.216409 204.507407 
L 149.543401 106.179028 
L 150.870392 236.558225 
L 152.197384 178.803766 
L 153.524376 187.145764 
L 154.851367 224.047949 
L 156.178359 173.341588 
L 157.505351 198.148964 
L 158.832342 215.405842 
L 160.159334 193.216615 
L 161.486326 240.210355 
L 162.813317 218.561267 
L 164.140309 194.499219 
L 165.467301 206.272201 
L 166.794293 119.735426 
L 168.121284 205.133989 
L 169.448276 224.661074 
L 170.775268 182.391003 
L 172.102259 187.258639 
L 173.429251 217.30313 
L 174.756243 193.204704 
L 176.083234 238.038179 
L 177.410226 157.607441 
L 178.737218 174.745713 
L 180.064209 235.397897 
L 181.391201 185.105128 
L 182.718193 228.653345 
L 185.372176 187.874376 
L 186.699168 233.338139 
L 188.026159 220.699093 
L 189.353151 193.282603 
L 190.680143 240.704959 
L 192.007134 224.09872 
L 193.334126 221.111239 
L 194.661118 241.736976 
L 195.988109 219.133048 
L 197.315101 225.337156 
L 198.642093 204.024481 
L 199.969084 198.138878 
L 201.296076 214.177346 
L 202.623068 189.133718 
L 203.950059 222.587632 
L 205.277051 215.106494 
L 206.604043 210.759286 
L 207.931034 224.898583 
L 209.258026 229.855465 
L 210.585018 195.40616 
L 211.91201 238.920402 
L 213.239001 207.079388 
L 214.565993 215.88069 
L 215.892985 195.082067 
L 217.219976 220.252391 
L 218.546968 221.899053 
L 219.87396 221.851013 
L 221.200951 217.253902 
L 222.527943 224.160342 
L 223.854935 221.02027 
L 225.181926 209.270042 
L 226.508918 239.463144 
L 227.83591 228.227613 
L 229.162901 213.557353 
L 230.489893 240.367007 
L 231.816885 237.397322 
L 233.143876 235.430432 
L 234.470868 228.456462 
L 235.79786 230.956503 
L 237.124851 228.060125 
L 238.451843 236.506613 
L 239.778835 213.258254 
L 241.105826 234.853013 
L 242.432818 226.642152 
L 243.75981 225.932126 
L 245.086801 241.766748 
L 246.413793 238.830197 
L 247.740785 239.668005 
L 249.067776 241.181972 
L 250.394768 241.325435 
L 251.72176 241.198777 
L 253.048751 237.341091 
L 254.375743 241.389861 
L 255.702735 241.698675 
L 257.029727 234.093652 
L 258.356718 238.502063 
L 259.68371 241.216547 
L 261.010702 223.602234 
L 262.337693 237.193694 
L 263.664685 240.61366 
L 264.991677 239.274656 
L 268.972652 241.982739 
L 270.299643 240.514336 
L 271.626635 238.743347 
L 274.280618 233.848307 
L 275.60761 237.345207 
L 276.934602 228.936149 
L 278.261593 241.264788 
L 279.588585 237.697264 
L 280.915577 241.574029 
L 282.242568 233.027883 
L 283.56956 241.765211 
L 284.896552 241.439149 
L 286.223543 241.65267 
L 287.550535 239.485633 
L 288.877527 240.405951 
L 290.204518 241.578103 
L 291.53151 231.05259 
L 292.858502 240.575387 
L 294.185493 229.555372 
L 295.512485 227.397917 
L 296.839477 238.966238 
L 298.166468 230.967206 
L 299.49346 241.516059 
L 300.820452 239.869796 
L 302.147444 238.740437 
L 303.474435 238.92202 
L 304.801427 238.601885 
L 306.128419 235.961036 
L 307.45541 239.993864 
L 308.782402 239.94042 
L 310.109394 237.59208 
L 311.436385 240.621226 
L 312.763377 233.295055 
L 314.090369 241.957883 
L 315.41736 235.842276 
L 316.744352 239.228555 
L 318.071344 240.863629 
L 319.398335 236.416821 
L 320.725327 235.478953 
L 322.052319 238.91476 
L 323.37931 239.477532 
L 324.706302 239.399301 
L 326.033294 241.331952 
L 327.360285 239.216987 
L 328.687277 241.062556 
L 330.014269 239.202973 
L 331.34126 239.96395 
L 332.668252 241.959447 
L 333.995244 239.431745 
L 335.322235 238.844229 
L 336.649227 240.842297 
L 337.976219 240.254363 
L 340.630202 241.73753 
L 341.957194 241.420346 
L 343.284185 241.705122 
L 344.611177 240.688526 
L 345.938169 241.961852 
L 347.265161 241.46017 
L 348.592152 241.97482 
L 349.919144 241.901498 
L 351.246136 242.110918 
L 352.573127 241.625428 
L 355.227111 241.966178 
L 359.208086 242.099521 
L 360.535077 241.957604 
L 361.862069 242.05643 
L 367.170036 242.084499 
L 373.804994 242.10598 
L 376.458977 242.100357 
L 389.728894 242.114936 
L 389.728894 242.114936 
" clip-path="url(#p2788d9f72b)" style="fill: none; stroke: #dd8452; stroke-opacity: 0.3; stroke-width: 1.5; stroke-linecap: round"/>
   </g>
   <g id="patch_3">
    <path d="M 54 252 
L 54 34.56 
" style="fill: none; stroke: #262626; stroke-width: 1.25; stroke-linejoin: miter; stroke-linecap: square"/>
   </g>
   <g id="patch_4">
    <path d="M 388.8 252 
L 388.8 34.56 
" style="fill: none; stroke: #262626; stroke-width: 1.25; stroke-linejoin: miter; stroke-linecap: square"/>
   </g>
   <g id="patch_5">
    <path d="M 54 252 
L 388.8 252 
" style="fill: none; stroke: #262626; stroke-width: 1.25; stroke-linejoin: miter; stroke-linecap: square"/>
   </g>
   <g id="patch_6">
    <path d="M 54 34.56 
L 388.8 34.56 
" style="fill: none; stroke: #262626; stroke-width: 1.25; stroke-linejoin: miter; stroke-linecap: square"/>
   </g>
   <g id="text_15">
    <!-- patient06_app01 - Power spectrum -->
    <g style="fill: #262626" transform="translate(128.0175 28.56)scale(0.12 -0.12)">
     <defs>
      <path id="ArialMT-70" d="M 422 -1272 
L 422 3319 
L 934 3319 
L 934 2888 
Q 1116 3141 1344 3267 
Q 1572 3394 1897 3394 
Q 2322 3394 2647 3175 
Q 2972 2956 3137 2557 
Q 3303 2159 3303 1684 
Q 3303 1175 3120 767 
Q 2938 359 2589 142 
Q 2241 -75 1856 -75 
Q 1575 -75 1351 44 
Q 1128 163 984 344 
L 984 -1272 
L 422 -1272 
z
M 931 1641 
Q 931 1000 1190 694 
Q 1450 388 1819 388 
Q 2194 388 2461 705 
Q 2728 1022 2728 1688 
Q 2728 2322 2467 2637 
Q 2206 2953 1844 2953 
Q 1484 2953 1207 2617 
Q 931 2281 931 1641 
z
" transform="scale(0.015625)"/>
      <path id="ArialMT-61" d="M 2588 409 
Q 2275 144 1986 34 
Q 1697 -75 1366 -75 
Q 819 -75 525 192 
Q 231 459 231 875 
Q 231 1119 342 1320 
Q 453 1522 633 1644 
Q 813 1766 1038 1828 
Q 1203 1872 1538 1913 
Q 2219 1994 2541 2106 
Q 2544 2222 2544 2253 
Q 2544 2597 2384 2738 
Q 2169 2928 1744 2928 
Q 1347 2928 1158 2789 
Q 969 2650 878 2297 
L 328 2372 
Q 403 2725 575 2942 
Q 747 3159 1072 3276 
Q 1397 3394 1825 3394 
Q 2250 3394 2515 3294 
Q 2781 3194 2906 3042 
Q 3031 2891 3081 2659 
Q 3109 2516 3109 2141 
L 3109 1391 
Q 3109 606 3145 398 
Q 3181 191 3288 0 
L 2700 0 
Q 2613 175 2588 409 
z
M 2541 1666 
Q 2234 1541 1622 1453 
Q 1275 1403 1131 1340 
Q 988 1278 909 1158 
Q 831 1038 831 891 
Q 831 666 1001 516 
Q 1172 366 1500 366 
Q 1825 366 2078 508 
Q 2331 650 2450 897 
Q 2541 1088 2541 1459 
L 2541 1666 
z
" transform="scale(0.015625)"/>
      <path id="ArialMT-74" d="M 1650 503 
L 1731 6 
Q 1494 -44 1306 -44 
Q 1000 -44 831 53 
Q 663 150 594 308 
Q 525 466 525 972 
L 525 2881 
L 113 2881 
L 113 3319 
L 525 3319 
L 525 4141 
L 1084 4478 
L 1084 3319 
L 1650 3319 
L 1650 2881 
L 1084 2881 
L 1084 941 
Q 1084 700 1114 631 
Q 1144 563 1211 522 
Q 1278 481 1403 481 
Q 1497 481 1650 503 
z
" transform="scale(0.015625)"/>
      <path id="ArialMT-69" d="M 425 3934 
L 425 4581 
L 988 4581 
L 988 3934 
L 425 3934 
z
M 425 0 
L 425 3319 
L 988 3319 
L 988 0 
L 425 0 
z
" transform="scale(0.015625)"/>
      <path id="ArialMT-5f" d="M -97 -1272 
L -97 -866 
L 3631 -866 
L 3631 -1272 
L -97 -1272 
z
" transform="scale(0.015625)"/>
      <path id="ArialMT-2d" d="M 203 1375 
L 203 1941 
L 1931 1941 
L 1931 1375 
L 203 1375 
z
" transform="scale(0.015625)"/>
      <path id="ArialMT-50" d="M 494 0 
L 494 4581 
L 2222 4581 
Q 2678 4581 2919 4538 
Q 3256 4481 3484 4323 
Q 3713 4166 3852 3881 
Q 3991 3597 3991 3256 
Q 3991 2672 3619 2267 
Q 3247 1863 2275 1863 
L 1100 1863 
L 1100 0 
L 494 0 
z
M 1100 2403 
L 2284 2403 
Q 2872 2403 3119 2622 
Q 3366 2841 3366 3238 
Q 3366 3525 3220 3729 
Q 3075 3934 2838 4000 
Q 2684 4041 2272 4041 
L 1100 4041 
L 1100 2403 
z
" transform="scale(0.015625)"/>
      <path id="ArialMT-6f" d="M 213 1659 
Q 213 2581 725 3025 
Q 1153 3394 1769 3394 
Q 2453 3394 2887 2945 
Q 3322 2497 3322 1706 
Q 3322 1066 3130 698 
Q 2938 331 2570 128 
Q 2203 -75 1769 -75 
Q 1072 -75 642 372 
Q 213 819 213 1659 
z
M 791 1659 
Q 791 1022 1069 705 
Q 1347 388 1769 388 
Q 2188 388 2466 706 
Q 2744 1025 2744 1678 
Q 2744 2294 2464 2611 
Q 2184 2928 1769 2928 
Q 1347 2928 1069 2612 
Q 791 2297 791 1659 
z
" transform="scale(0.015625)"/>
      <path id="ArialMT-77" d="M 1034 0 
L 19 3319 
L 600 3319 
L 1128 1403 
L 1325 691 
Q 1338 744 1497 1375 
L 2025 3319 
L 2603 3319 
L 3100 1394 
L 3266 759 
L 3456 1400 
L 4025 3319 
L 4572 3319 
L 3534 0 
L 2950 0 
L 2422 1988 
L 2294 2553 
L 1622 0 
L 1034 0 
z
" transform="scale(0.015625)"/>
      <path id="ArialMT-73" d="M 197 991 
L 753 1078 
Q 800 744 1014 566 
Q 1228 388 1613 388 
Q 2000 388 2187 545 
Q 2375 703 2375 916 
Q 2375 1106 2209 1216 
Q 2094 1291 1634 1406 
Q 1016 1563 777 1677 
Q 538 1791 414 1992 
Q 291 2194 291 2438 
Q 291 2659 392 2848 
Q 494 3038 669 3163 
Q 800 3259 1026 3326 
Q 1253 3394 1513 3394 
Q 1903 3394 2198 3281 
Q 2494 3169 2634 2976 
Q 2775 2784 2828 2463 
L 2278 2388 
Q 2241 2644 2061 2787 
Q 1881 2931 1553 2931 
Q 1166 2931 1000 2803 
Q 834 2675 834 2503 
Q 834 2394 903 2306 
Q 972 2216 1119 2156 
Q 1203 2125 1616 2013 
Q 2213 1853 2448 1751 
Q 2684 1650 2818 1456 
Q 2953 1263 2953 975 
Q 2953 694 2789 445 
Q 2625 197 2315 61 
Q 2006 -75 1616 -75 
Q 969 -75 630 194 
Q 291 463 197 991 
z
" transform="scale(0.015625)"/>
      <path id="ArialMT-6d" d="M 422 0 
L 422 3319 
L 925 3319 
L 925 2853 
Q 1081 3097 1340 3245 
Q 1600 3394 1931 3394 
Q 2300 3394 2536 3241 
Q 2772 3088 2869 2813 
Q 3263 3394 3894 3394 
Q 4388 3394 4653 3120 
Q 4919 2847 4919 2278 
L 4919 0 
L 4359 0 
L 4359 2091 
Q 4359 2428 4304 2576 
Q 4250 2725 4106 2815 
Q 3963 2906 3769 2906 
Q 3419 2906 3187 2673 
Q 2956 2441 2956 1928 
L 2956 0 
L 2394 0 
L 2394 2156 
Q 2394 2531 2256 2718 
Q 2119 2906 1806 2906 
Q 1569 2906 1367 2781 
Q 1166 2656 1075 2415 
Q 984 2175 984 1722 
L 984 0 
L 422 0 
z
" transform="scale(0.015625)"/>
     </defs>
     <use xlink:href="#ArialMT-70"/>
     <use xlink:href="#ArialMT-61" x="55.615234"/>
     <use xlink:href="#ArialMT-74" x="111.230469"/>
     <use xlink:href="#ArialMT-69" x="139.013672"/>
     <use xlink:href="#ArialMT-65" x="161.230469"/>
     <use xlink:href="#ArialMT-6e" x="216.845703"/>
     <use xlink:href="#ArialMT-74" x="272.460938"/>
     <use xlink:href="#ArialMT-30" x="300.244141"/>
     <use xlink:href="#ArialMT-36" x="355.859375"/>
     <use xlink:href="#ArialMT-5f" x="411.474609"/>
     <use xlink:href="#ArialMT-61" x="467.089844"/>
     <use xlink:href="#ArialMT-70" x="522.705078"/>
     <use xlink:href="#ArialMT-70" x="578.320312"/>
     <use xlink:href="#ArialMT-30" x="633.935547"/>
     <use xlink:href="#ArialMT-31" x="689.550781"/>
     <use xlink:href="#ArialMT-20" x="745.166016"/>
     <use xlink:href="#ArialMT-2d" x="772.949219"/>
     <use xlink:href="#ArialMT-20" x="806.25"/>
     <use xlink:href="#ArialMT-50" x="834.033203"/>
     <use xlink:href="#ArialMT-6f" x="900.732422"/>
     <use xlink:href="#ArialMT-77" x="956.347656"/>
     <use xlink:href="#ArialMT-65" x="1028.564453"/>
     <use xlink:href="#ArialMT-72" x="1084.179688"/>
     <use xlink:href="#ArialMT-20" x="1117.480469"/>
     <use xlink:href="#ArialMT-73" x="1145.263672"/>
     <use xlink:href="#ArialMT-70" x="1195.263672"/>
     <use xlink:href="#ArialMT-65" x="1250.878906"/>
     <use xlink:href="#ArialMT-63" x="1306.494141"/>
     <use xlink:href="#ArialMT-74" x="1356.494141"/>
     <use xlink:href="#ArialMT-72" x="1384.277344"/>
     <use xlink:href="#ArialMT-75" x="1417.578125"/>
     <use xlink:href="#ArialMT-6d" x="1473.193359"/>
    </g>
   </g>
  </g>
 </g>
 <defs>
  <clipPath id="p2788d9f72b">
   <rect x="54" y="34.56" width="334.8" height="217.44"/>
  </clipPath>
 </defs>
</svg>
