<?xml version="1.0" encoding="utf-8" standalone="no"?>
<!DOCTYPE svg PUBLIC "-//W3C//DTD SVG 1.1//EN"
  "http://www.w3.org/Graphics/SVG/1.1/DTD/svg11.dtd">
<svg xmlns:xlink="http://www.w3.org/1999/xlink" width="432pt" height="288pt" viewBox="0 0 432 288" xmlns="http://www.w3.org/2000/svg" version="1.1">
 <metadata>
  <rdf:RDF xmlns:dc="http://purl.org/dc/elements/1.1/" xmlns:cc="http://creativecommons.org/ns#" xmlns:rdf="http://www.w3.org/1999/02/22-rdf-syntax-ns#">
   <cc:Work>
    <dc:type rdf:resource="http://purl.org/dc/dcmitype/StillImage"/>
    <dc:date>2022-07-08T13:41:48.940215</dc:date>
    <dc:format>image/svg+xml</dc:format>
    <dc:creator>
     <cc:Agent>
      <dc:title>Matplotlib v3.5.1, https://matplotlib.org/</dc:title>
     </cc:Agent>
    </dc:creator>
   </cc:Work>
  </rdf:RDF>
 </metadata>
 <defs>
  <style type="text/css">*{stroke-linejoin: round; stroke-linecap: butt}</style>
 </defs>
 <g id="figure_1">
  <g id="patch_1">
   <path d="M 0 288 
L 432 288 
L 432 0 
L 0 0 
z
" style="fill: #ffffff"/>
  </g>
  <g id="axes_1">
   <g id="patch_2">
    <path d="M 54 252 
L 388.8 252 
L 388.8 34.56 
L 54 34.56 
z
" style="fill: #ffffff"/>
   </g>
   <g id="matplotlib.axis_1">
    <g id="xtick_1">
     <g id="line2d_1">
      <defs>
       <path id="m213ca98dfa" d="M 0 0 
L 0 6 
" style="stroke: #262626; stroke-width: 1.25"/>
      </defs>
      <g>
       <use xlink:href="#m213ca98dfa" x="54" y="252" style="fill: #262626; stroke: #262626; stroke-width: 1.25"/>
      </g>
     </g>
     <g id="text_1">
      <!-- 0 -->
      <g style="fill: #262626" transform="translate(50.941484 269.373594)scale(0.11 -0.11)">
       <defs>
        <path id="ArialMT-30" d="M 266 2259 
Q 266 3072 433 3567 
Q 600 4063 929 4331 
Q 1259 4600 1759 4600 
Q 2128 4600 2406 4451 
Q 2684 4303 2865 4023 
Q 3047 3744 3150 3342 
Q 3253 2941 3253 2259 
Q 3253 1453 3087 958 
Q 2922 463 2592 192 
Q 2263 -78 1759 -78 
Q 1097 -78 719 397 
Q 266 969 266 2259 
z
M 844 2259 
Q 844 1131 1108 757 
Q 1372 384 1759 384 
Q 2147 384 2411 759 
Q 2675 1134 2675 2259 
Q 2675 3391 2411 3762 
Q 2147 4134 1753 4134 
Q 1366 4134 1134 3806 
Q 844 3388 844 2259 
z
" transform="scale(0.015625)"/>
       </defs>
       <use xlink:href="#ArialMT-30"/>
      </g>
     </g>
    </g>
    <g id="xtick_2">
     <g id="line2d_2">
      <g>
       <use xlink:href="#m213ca98dfa" x="109.8" y="252" style="fill: #262626; stroke: #262626; stroke-width: 1.25"/>
      </g>
     </g>
     <g id="text_2">
      <!-- 5 -->
      <g style="fill: #262626" transform="translate(106.741484 269.373594)scale(0.11 -0.11)">
       <defs>
        <path id="ArialMT-35" d="M 266 1200 
L 856 1250 
Q 922 819 1161 601 
Q 1400 384 1738 384 
Q 2144 384 2425 690 
Q 2706 997 2706 1503 
Q 2706 1984 2436 2262 
Q 2166 2541 1728 2541 
Q 1456 2541 1237 2417 
Q 1019 2294 894 2097 
L 366 2166 
L 809 4519 
L 3088 4519 
L 3088 3981 
L 1259 3981 
L 1013 2750 
Q 1425 3038 1878 3038 
Q 2478 3038 2890 2622 
Q 3303 2206 3303 1553 
Q 3303 931 2941 478 
Q 2500 -78 1738 -78 
Q 1113 -78 717 272 
Q 322 622 266 1200 
z
" transform="scale(0.015625)"/>
       </defs>
       <use xlink:href="#ArialMT-35"/>
      </g>
     </g>
    </g>
    <g id="xtick_3">
     <g id="line2d_3">
      <g>
       <use xlink:href="#m213ca98dfa" x="165.6" y="252" style="fill: #262626; stroke: #262626; stroke-width: 1.25"/>
      </g>
     </g>
     <g id="text_3">
      <!-- 10 -->
      <g style="fill: #262626" transform="translate(159.482969 269.373594)scale(0.11 -0.11)">
       <defs>
        <path id="ArialMT-31" d="M 2384 0 
L 1822 0 
L 1822 3584 
Q 1619 3391 1289 3197 
Q 959 3003 697 2906 
L 697 3450 
Q 1169 3672 1522 3987 
Q 1875 4303 2022 4600 
L 2384 4600 
L 2384 0 
z
" transform="scale(0.015625)"/>
       </defs>
       <use xlink:href="#ArialMT-31"/>
       <use xlink:href="#ArialMT-30" x="55.615234"/>
      </g>
     </g>
    </g>
    <g id="xtick_4">
     <g id="line2d_4">
      <g>
       <use xlink:href="#m213ca98dfa" x="221.4" y="252" style="fill: #262626; stroke: #262626; stroke-width: 1.25"/>
      </g>
     </g>
     <g id="text_4">
      <!-- 15 -->
      <g style="fill: #262626" transform="translate(215.282969 269.373594)scale(0.11 -0.11)">
       <use xlink:href="#ArialMT-31"/>
       <use xlink:href="#ArialMT-35" x="55.615234"/>
      </g>
     </g>
    </g>
    <g id="xtick_5">
     <g id="line2d_5">
      <g>
       <use xlink:href="#m213ca98dfa" x="277.2" y="252" style="fill: #262626; stroke: #262626; stroke-width: 1.25"/>
      </g>
     </g>
     <g id="text_5">
      <!-- 20 -->
      <g style="fill: #262626" transform="translate(271.082969 269.373594)scale(0.11 -0.11)">
       <defs>
        <path id="ArialMT-32" d="M 3222 541 
L 3222 0 
L 194 0 
Q 188 203 259 391 
Q 375 700 629 1000 
Q 884 1300 1366 1694 
Q 2113 2306 2375 2664 
Q 2638 3022 2638 3341 
Q 2638 3675 2398 3904 
Q 2159 4134 1775 4134 
Q 1369 4134 1125 3890 
Q 881 3647 878 3216 
L 300 3275 
Q 359 3922 746 4261 
Q 1134 4600 1788 4600 
Q 2447 4600 2831 4234 
Q 3216 3869 3216 3328 
Q 3216 3053 3103 2787 
Q 2991 2522 2730 2228 
Q 2469 1934 1863 1422 
Q 1356 997 1212 845 
Q 1069 694 975 541 
L 3222 541 
z
" transform="scale(0.015625)"/>
       </defs>
       <use xlink:href="#ArialMT-32"/>
       <use xlink:href="#ArialMT-30" x="55.615234"/>
      </g>
     </g>
    </g>
    <g id="xtick_6">
     <g id="line2d_6">
      <g>
       <use xlink:href="#m213ca98dfa" x="333" y="252" style="fill: #262626; stroke: #262626; stroke-width: 1.25"/>
      </g>
     </g>
     <g id="text_6">
      <!-- 25 -->
      <g style="fill: #262626" transform="translate(326.882969 269.373594)scale(0.11 -0.11)">
       <use xlink:href="#ArialMT-32"/>
       <use xlink:href="#ArialMT-35" x="55.615234"/>
      </g>
     </g>
    </g>
    <g id="xtick_7">
     <g id="line2d_7">
      <g>
       <use xlink:href="#m213ca98dfa" x="388.8" y="252" style="fill: #262626; stroke: #262626; stroke-width: 1.25"/>
      </g>
     </g>
     <g id="text_7">
      <!-- 30 -->
      <g style="fill: #262626" transform="translate(382.682969 269.373594)scale(0.11 -0.11)">
       <defs>
        <path id="ArialMT-33" d="M 269 1209 
L 831 1284 
Q 928 806 1161 595 
Q 1394 384 1728 384 
Q 2125 384 2398 659 
Q 2672 934 2672 1341 
Q 2672 1728 2419 1979 
Q 2166 2231 1775 2231 
Q 1616 2231 1378 2169 
L 1441 2663 
Q 1497 2656 1531 2656 
Q 1891 2656 2178 2843 
Q 2466 3031 2466 3422 
Q 2466 3731 2256 3934 
Q 2047 4138 1716 4138 
Q 1388 4138 1169 3931 
Q 950 3725 888 3313 
L 325 3413 
Q 428 3978 793 4289 
Q 1159 4600 1703 4600 
Q 2078 4600 2393 4439 
Q 2709 4278 2876 4000 
Q 3044 3722 3044 3409 
Q 3044 3113 2884 2869 
Q 2725 2625 2413 2481 
Q 2819 2388 3044 2092 
Q 3269 1797 3269 1353 
Q 3269 753 2831 336 
Q 2394 -81 1725 -81 
Q 1122 -81 723 278 
Q 325 638 269 1209 
z
" transform="scale(0.015625)"/>
       </defs>
       <use xlink:href="#ArialMT-33"/>
       <use xlink:href="#ArialMT-30" x="55.615234"/>
      </g>
     </g>
    </g>
    <g id="text_8">
     <!-- Frequency (Hz) -->
     <g style="fill: #262626" transform="translate(180.059063 284.295469)scale(0.12 -0.12)">
      <defs>
       <path id="ArialMT-46" d="M 525 0 
L 525 4581 
L 3616 4581 
L 3616 4041 
L 1131 4041 
L 1131 2622 
L 3281 2622 
L 3281 2081 
L 1131 2081 
L 1131 0 
L 525 0 
z
" transform="scale(0.015625)"/>
       <path id="ArialMT-72" d="M 416 0 
L 416 3319 
L 922 3319 
L 922 2816 
Q 1116 3169 1280 3281 
Q 1444 3394 1641 3394 
Q 1925 3394 2219 3213 
L 2025 2691 
Q 1819 2813 1613 2813 
Q 1428 2813 1281 2702 
Q 1134 2591 1072 2394 
Q 978 2094 978 1738 
L 978 0 
L 416 0 
z
" transform="scale(0.015625)"/>
       <path id="ArialMT-65" d="M 2694 1069 
L 3275 997 
Q 3138 488 2766 206 
Q 2394 -75 1816 -75 
Q 1088 -75 661 373 
Q 234 822 234 1631 
Q 234 2469 665 2931 
Q 1097 3394 1784 3394 
Q 2450 3394 2872 2941 
Q 3294 2488 3294 1666 
Q 3294 1616 3291 1516 
L 816 1516 
Q 847 969 1125 678 
Q 1403 388 1819 388 
Q 2128 388 2347 550 
Q 2566 713 2694 1069 
z
M 847 1978 
L 2700 1978 
Q 2663 2397 2488 2606 
Q 2219 2931 1791 2931 
Q 1403 2931 1139 2672 
Q 875 2413 847 1978 
z
" transform="scale(0.015625)"/>
       <path id="ArialMT-71" d="M 2538 -1272 
L 2538 353 
Q 2406 169 2170 47 
Q 1934 -75 1669 -75 
Q 1078 -75 651 397 
Q 225 869 225 1691 
Q 225 2191 398 2587 
Q 572 2984 901 3189 
Q 1231 3394 1625 3394 
Q 2241 3394 2594 2875 
L 2594 3319 
L 3100 3319 
L 3100 -1272 
L 2538 -1272 
z
M 803 1669 
Q 803 1028 1072 708 
Q 1341 388 1716 388 
Q 2075 388 2334 692 
Q 2594 997 2594 1619 
Q 2594 2281 2320 2615 
Q 2047 2950 1678 2950 
Q 1313 2950 1058 2639 
Q 803 2328 803 1669 
z
" transform="scale(0.015625)"/>
       <path id="ArialMT-75" d="M 2597 0 
L 2597 488 
Q 2209 -75 1544 -75 
Q 1250 -75 995 37 
Q 741 150 617 320 
Q 494 491 444 738 
Q 409 903 409 1263 
L 409 3319 
L 972 3319 
L 972 1478 
Q 972 1038 1006 884 
Q 1059 663 1231 536 
Q 1403 409 1656 409 
Q 1909 409 2131 539 
Q 2353 669 2445 892 
Q 2538 1116 2538 1541 
L 2538 3319 
L 3100 3319 
L 3100 0 
L 2597 0 
z
" transform="scale(0.015625)"/>
       <path id="ArialMT-6e" d="M 422 0 
L 422 3319 
L 928 3319 
L 928 2847 
Q 1294 3394 1984 3394 
Q 2284 3394 2536 3286 
Q 2788 3178 2913 3003 
Q 3038 2828 3088 2588 
Q 3119 2431 3119 2041 
L 3119 0 
L 2556 0 
L 2556 2019 
Q 2556 2363 2490 2533 
Q 2425 2703 2258 2804 
Q 2091 2906 1866 2906 
Q 1506 2906 1245 2678 
Q 984 2450 984 1813 
L 984 0 
L 422 0 
z
" transform="scale(0.015625)"/>
       <path id="ArialMT-63" d="M 2588 1216 
L 3141 1144 
Q 3050 572 2676 248 
Q 2303 -75 1759 -75 
Q 1078 -75 664 370 
Q 250 816 250 1647 
Q 250 2184 428 2587 
Q 606 2991 970 3192 
Q 1334 3394 1763 3394 
Q 2303 3394 2647 3120 
Q 2991 2847 3088 2344 
L 2541 2259 
Q 2463 2594 2264 2762 
Q 2066 2931 1784 2931 
Q 1359 2931 1093 2626 
Q 828 2322 828 1663 
Q 828 994 1084 691 
Q 1341 388 1753 388 
Q 2084 388 2306 591 
Q 2528 794 2588 1216 
z
" transform="scale(0.015625)"/>
       <path id="ArialMT-79" d="M 397 -1278 
L 334 -750 
Q 519 -800 656 -800 
Q 844 -800 956 -737 
Q 1069 -675 1141 -563 
Q 1194 -478 1313 -144 
Q 1328 -97 1363 -6 
L 103 3319 
L 709 3319 
L 1400 1397 
Q 1534 1031 1641 628 
Q 1738 1016 1872 1384 
L 2581 3319 
L 3144 3319 
L 1881 -56 
Q 1678 -603 1566 -809 
Q 1416 -1088 1222 -1217 
Q 1028 -1347 759 -1347 
Q 597 -1347 397 -1278 
z
" transform="scale(0.015625)"/>
       <path id="ArialMT-20" transform="scale(0.015625)"/>
       <path id="ArialMT-28" d="M 1497 -1347 
Q 1031 -759 709 28 
Q 388 816 388 1659 
Q 388 2403 628 3084 
Q 909 3875 1497 4659 
L 1900 4659 
Q 1522 4009 1400 3731 
Q 1209 3300 1100 2831 
Q 966 2247 966 1656 
Q 966 153 1900 -1347 
L 1497 -1347 
z
" transform="scale(0.015625)"/>
       <path id="ArialMT-48" d="M 513 0 
L 513 4581 
L 1119 4581 
L 1119 2700 
L 3500 2700 
L 3500 4581 
L 4106 4581 
L 4106 0 
L 3500 0 
L 3500 2159 
L 1119 2159 
L 1119 0 
L 513 0 
z
" transform="scale(0.015625)"/>
       <path id="ArialMT-7a" d="M 125 0 
L 125 456 
L 2238 2881 
Q 1878 2863 1603 2863 
L 250 2863 
L 250 3319 
L 2963 3319 
L 2963 2947 
L 1166 841 
L 819 456 
Q 1197 484 1528 484 
L 3063 484 
L 3063 0 
L 125 0 
z
" transform="scale(0.015625)"/>
       <path id="ArialMT-29" d="M 791 -1347 
L 388 -1347 
Q 1322 153 1322 1656 
Q 1322 2244 1188 2822 
Q 1081 3291 891 3722 
Q 769 4003 388 4659 
L 791 4659 
Q 1378 3875 1659 3084 
Q 1900 2403 1900 1659 
Q 1900 816 1576 28 
Q 1253 -759 791 -1347 
z
" transform="scale(0.015625)"/>
      </defs>
      <use xlink:href="#ArialMT-46"/>
      <use xlink:href="#ArialMT-72" x="61.083984"/>
      <use xlink:href="#ArialMT-65" x="94.384766"/>
      <use xlink:href="#ArialMT-71" x="150"/>
      <use xlink:href="#ArialMT-75" x="205.615234"/>
      <use xlink:href="#ArialMT-65" x="261.230469"/>
      <use xlink:href="#ArialMT-6e" x="316.845703"/>
      <use xlink:href="#ArialMT-63" x="372.460938"/>
      <use xlink:href="#ArialMT-79" x="422.460938"/>
      <use xlink:href="#ArialMT-20" x="472.460938"/>
      <use xlink:href="#ArialMT-28" x="500.244141"/>
      <use xlink:href="#ArialMT-48" x="533.544922"/>
      <use xlink:href="#ArialMT-7a" x="605.761719"/>
      <use xlink:href="#ArialMT-29" x="655.761719"/>
     </g>
    </g>
   </g>
   <g id="matplotlib.axis_2">
    <g id="ytick_1">
     <g id="line2d_8">
      <defs>
       <path id="mf56c10a8f6" d="M 0 0 
L -6 0 
" style="stroke: #262626; stroke-width: 1.25"/>
      </defs>
      <g>
       <use xlink:href="#mf56c10a8f6" x="54" y="242.116369" style="fill: #262626; stroke: #262626; stroke-width: 1.25"/>
      </g>
     </g>
     <g id="text_9">
      <!-- 0.0 -->
      <g style="fill: #262626" transform="translate(29.21 246.053166)scale(0.11 -0.11)">
       <defs>
        <path id="ArialMT-2e" d="M 581 0 
L 581 641 
L 1222 641 
L 1222 0 
L 581 0 
z
" transform="scale(0.015625)"/>
       </defs>
       <use xlink:href="#ArialMT-30"/>
       <use xlink:href="#ArialMT-2e" x="55.615234"/>
       <use xlink:href="#ArialMT-30" x="83.398438"/>
      </g>
     </g>
    </g>
    <g id="ytick_2">
     <g id="line2d_9">
      <g>
       <use xlink:href="#mf56c10a8f6" x="54" y="202.581823" style="fill: #262626; stroke: #262626; stroke-width: 1.25"/>
      </g>
     </g>
     <g id="text_10">
      <!-- 0.2 -->
      <g style="fill: #262626" transform="translate(29.21 206.51862)scale(0.11 -0.11)">
       <use xlink:href="#ArialMT-30"/>
       <use xlink:href="#ArialMT-2e" x="55.615234"/>
       <use xlink:href="#ArialMT-32" x="83.398438"/>
      </g>
     </g>
    </g>
    <g id="ytick_3">
     <g id="line2d_10">
      <g>
       <use xlink:href="#mf56c10a8f6" x="54" y="163.047276" style="fill: #262626; stroke: #262626; stroke-width: 1.25"/>
      </g>
     </g>
     <g id="text_11">
      <!-- 0.4 -->
      <g style="fill: #262626" transform="translate(29.21 166.984073)scale(0.11 -0.11)">
       <defs>
        <path id="ArialMT-34" d="M 2069 0 
L 2069 1097 
L 81 1097 
L 81 1613 
L 2172 4581 
L 2631 4581 
L 2631 1613 
L 3250 1613 
L 3250 1097 
L 2631 1097 
L 2631 0 
L 2069 0 
z
M 2069 1613 
L 2069 3678 
L 634 1613 
L 2069 1613 
z
" transform="scale(0.015625)"/>
       </defs>
       <use xlink:href="#ArialMT-30"/>
       <use xlink:href="#ArialMT-2e" x="55.615234"/>
       <use xlink:href="#ArialMT-34" x="83.398438"/>
      </g>
     </g>
    </g>
    <g id="ytick_4">
     <g id="line2d_11">
      <g>
       <use xlink:href="#mf56c10a8f6" x="54" y="123.51273" style="fill: #262626; stroke: #262626; stroke-width: 1.25"/>
      </g>
     </g>
     <g id="text_12">
      <!-- 0.6 -->
      <g style="fill: #262626" transform="translate(29.21 127.449526)scale(0.11 -0.11)">
       <defs>
        <path id="ArialMT-36" d="M 3184 3459 
L 2625 3416 
Q 2550 3747 2413 3897 
Q 2184 4138 1850 4138 
Q 1581 4138 1378 3988 
Q 1113 3794 959 3422 
Q 806 3050 800 2363 
Q 1003 2672 1297 2822 
Q 1591 2972 1913 2972 
Q 2475 2972 2870 2558 
Q 3266 2144 3266 1488 
Q 3266 1056 3080 686 
Q 2894 316 2569 119 
Q 2244 -78 1831 -78 
Q 1128 -78 684 439 
Q 241 956 241 2144 
Q 241 3472 731 4075 
Q 1159 4600 1884 4600 
Q 2425 4600 2770 4297 
Q 3116 3994 3184 3459 
z
M 888 1484 
Q 888 1194 1011 928 
Q 1134 663 1356 523 
Q 1578 384 1822 384 
Q 2178 384 2434 671 
Q 2691 959 2691 1453 
Q 2691 1928 2437 2201 
Q 2184 2475 1800 2475 
Q 1419 2475 1153 2201 
Q 888 1928 888 1484 
z
" transform="scale(0.015625)"/>
       </defs>
       <use xlink:href="#ArialMT-30"/>
       <use xlink:href="#ArialMT-2e" x="55.615234"/>
       <use xlink:href="#ArialMT-36" x="83.398438"/>
      </g>
     </g>
    </g>
    <g id="ytick_5">
     <g id="line2d_12">
      <g>
       <use xlink:href="#mf56c10a8f6" x="54" y="83.978183" style="fill: #262626; stroke: #262626; stroke-width: 1.25"/>
      </g>
     </g>
     <g id="text_13">
      <!-- 0.8 -->
      <g style="fill: #262626" transform="translate(29.21 87.91498)scale(0.11 -0.11)">
       <defs>
        <path id="ArialMT-38" d="M 1131 2484 
Q 781 2613 612 2850 
Q 444 3088 444 3419 
Q 444 3919 803 4259 
Q 1163 4600 1759 4600 
Q 2359 4600 2725 4251 
Q 3091 3903 3091 3403 
Q 3091 3084 2923 2848 
Q 2756 2613 2416 2484 
Q 2838 2347 3058 2040 
Q 3278 1734 3278 1309 
Q 3278 722 2862 322 
Q 2447 -78 1769 -78 
Q 1091 -78 675 323 
Q 259 725 259 1325 
Q 259 1772 486 2073 
Q 713 2375 1131 2484 
z
M 1019 3438 
Q 1019 3113 1228 2906 
Q 1438 2700 1772 2700 
Q 2097 2700 2305 2904 
Q 2513 3109 2513 3406 
Q 2513 3716 2298 3927 
Q 2084 4138 1766 4138 
Q 1444 4138 1231 3931 
Q 1019 3725 1019 3438 
z
M 838 1322 
Q 838 1081 952 856 
Q 1066 631 1291 507 
Q 1516 384 1775 384 
Q 2178 384 2440 643 
Q 2703 903 2703 1303 
Q 2703 1709 2433 1975 
Q 2163 2241 1756 2241 
Q 1359 2241 1098 1978 
Q 838 1716 838 1322 
z
" transform="scale(0.015625)"/>
       </defs>
       <use xlink:href="#ArialMT-30"/>
       <use xlink:href="#ArialMT-2e" x="55.615234"/>
       <use xlink:href="#ArialMT-38" x="83.398438"/>
      </g>
     </g>
    </g>
    <g id="ytick_6">
     <g id="line2d_13">
      <g>
       <use xlink:href="#mf56c10a8f6" x="54" y="44.443636" style="fill: #262626; stroke: #262626; stroke-width: 1.25"/>
      </g>
     </g>
     <g id="text_14">
      <!-- 1.0 -->
      <g style="fill: #262626" transform="translate(29.21 48.380433)scale(0.11 -0.11)">
       <use xlink:href="#ArialMT-31"/>
       <use xlink:href="#ArialMT-2e" x="55.615234"/>
       <use xlink:href="#ArialMT-30" x="83.398438"/>
      </g>
     </g>
    </g>
   </g>
   <g id="line2d_14">
    <path d="M 54 242.116264 
L 156.244936 242.042314 
L 159.374883 241.356562 
L 160.418199 240.689571 
L 161.461514 241.834887 
L 162.50483 241.9334 
L 163.548146 229.913271 
L 164.591462 239.164658 
L 165.634777 238.226568 
L 166.678093 236.144379 
L 167.721409 241.991648 
L 168.764724 235.728954 
L 169.80804 241.42354 
L 170.851356 231.14119 
L 171.894671 226.248078 
L 172.937987 236.707509 
L 173.981303 230.83181 
L 175.024618 238.970382 
L 176.067934 234.095558 
L 177.11125 241.669929 
L 178.154565 224.634277 
L 179.197881 232.628979 
L 180.241197 233.365587 
L 181.284512 219.067363 
L 182.327828 235.052511 
L 183.371144 235.859918 
L 184.414459 240.282617 
L 185.457775 235.867209 
L 186.501091 241.10541 
L 187.544406 238.680589 
L 188.587722 234.560137 
L 189.631038 235.126723 
L 190.674353 232.939559 
L 191.717669 226.921741 
L 192.760985 240.980333 
L 193.8043 234.015572 
L 194.847616 238.936796 
L 195.890932 239.919222 
L 196.934247 240.671678 
L 197.977563 242.05572 
L 199.020879 241.831538 
L 200.064194 240.905417 
L 201.10751 241.04932 
L 202.150826 239.346548 
L 203.194141 241.986911 
L 204.237457 235.710879 
L 205.280773 240.404396 
L 206.324089 242.0596 
L 207.367404 233.182909 
L 208.41072 234.179113 
L 209.454036 236.943527 
L 210.497351 241.147779 
L 211.540667 234.094912 
L 212.583983 241.228719 
L 213.627298 241.056132 
L 214.670614 232.00043 
L 215.71393 238.312777 
L 216.757245 241.023629 
L 217.800561 239.53031 
L 218.843877 235.74994 
L 219.887192 242.047521 
L 220.930508 240.192522 
L 221.973824 239.527915 
L 223.017139 236.262777 
L 224.060455 235.899554 
L 225.103771 230.154469 
L 226.147086 190.568926 
L 227.190402 191.280929 
L 228.233718 44.443636 
L 229.277033 134.349102 
L 230.320349 196.157964 
L 231.363665 234.900418 
L 233.450296 241.823302 
L 234.493612 235.806699 
L 235.536927 236.556519 
L 236.580243 242.018741 
L 237.623559 241.208457 
L 238.666874 241.599666 
L 239.71019 240.644087 
L 240.753506 241.649606 
L 241.796821 241.632329 
L 242.840137 238.984056 
L 243.883453 238.09956 
L 244.926768 239.514599 
L 245.970084 241.201235 
L 247.0134 240.627674 
L 248.056715 241.497281 
L 249.100031 240.855321 
L 250.143347 239.82846 
L 251.186663 241.506718 
L 252.229978 240.370763 
L 253.273294 241.104458 
L 254.31661 241.372258 
L 255.359925 239.928434 
L 256.403241 241.546604 
L 257.446557 242.006434 
L 258.489872 240.829568 
L 259.533188 241.244576 
L 260.576504 241.073875 
L 261.619819 241.024331 
L 262.663135 241.741065 
L 263.706451 242.107385 
L 264.749766 241.308756 
L 265.793082 242.075301 
L 266.836398 241.865471 
L 267.879713 240.511656 
L 268.923029 241.61821 
L 269.966345 242.102187 
L 271.00966 241.842071 
L 272.052976 242.022829 
L 273.096292 241.684661 
L 274.139607 242.03416 
L 275.182923 241.510722 
L 276.226239 242.056986 
L 280.399501 242.083216 
L 281.442817 242.116111 
L 282.486133 242.001458 
L 284.572764 242.113211 
L 296.049237 242.096969 
L 313.785603 242.11243 
L 388.904332 242.115738 
L 388.904332 242.115738 
" clip-path="url(#p407797a22e)" style="fill: none; stroke: #4c72b0; stroke-opacity: 0.3; stroke-width: 1.5; stroke-linecap: round"/>
   </g>
   <g id="line2d_15">
    <path d="M 54 242.113607 
L 156.244936 242.082768 
L 157.288252 241.936471 
L 159.374883 242.01875 
L 160.418199 241.207772 
L 161.461514 242.072834 
L 162.50483 241.518281 
L 163.548146 242.095112 
L 164.591462 238.475362 
L 165.634777 241.632525 
L 167.721409 239.819565 
L 168.764724 241.651022 
L 169.80804 238.056678 
L 170.851356 240.685397 
L 171.894671 239.902524 
L 172.937987 230.654778 
L 173.981303 230.976304 
L 176.067934 241.736296 
L 177.11125 223.70005 
L 178.154565 235.265092 
L 179.197881 233.082514 
L 180.241197 232.951012 
L 181.284512 234.859021 
L 182.327828 241.190537 
L 183.371144 225.975669 
L 184.414459 237.270072 
L 185.457775 240.760976 
L 186.501091 233.714151 
L 187.544406 235.294289 
L 188.587722 239.246159 
L 189.631038 241.609064 
L 190.674353 231.342535 
L 191.717669 219.878445 
L 192.760985 239.323428 
L 193.8043 228.01121 
L 194.847616 235.372011 
L 195.890932 232.264437 
L 196.934247 227.00231 
L 197.977563 236.618796 
L 199.020879 229.898763 
L 200.064194 239.04088 
L 201.10751 235.914641 
L 202.150826 238.567633 
L 203.194141 236.847908 
L 204.237457 241.246172 
L 205.280773 240.699604 
L 206.324089 238.317515 
L 207.367404 241.145341 
L 208.41072 241.908379 
L 209.454036 240.082325 
L 210.497351 238.498007 
L 211.540667 241.852798 
L 212.583983 239.746394 
L 213.627298 239.287338 
L 214.670614 233.580605 
L 215.71393 239.621368 
L 216.757245 237.111943 
L 217.800561 235.367531 
L 218.843877 234.186971 
L 219.887192 234.52144 
L 220.930508 234.207177 
L 221.973824 235.669435 
L 223.017139 235.617665 
L 224.060455 230.845947 
L 225.103771 236.025729 
L 226.147086 207.690185 
L 227.190402 194.361724 
L 228.233718 44.443636 
L 229.277033 88.280887 
L 230.320349 172.933041 
L 231.363665 221.901593 
L 232.40698 202.712043 
L 233.450296 227.334543 
L 234.493612 234.002379 
L 235.536927 229.579901 
L 236.580243 239.598351 
L 237.623559 240.252236 
L 238.666874 235.503413 
L 239.71019 237.919819 
L 240.753506 233.213364 
L 241.796821 239.189794 
L 242.840137 239.571346 
L 243.883453 227.677333 
L 244.926768 235.797415 
L 245.970084 241.267631 
L 247.0134 240.942586 
L 249.100031 239.498671 
L 250.143347 240.357993 
L 251.186663 240.034172 
L 252.229978 240.650796 
L 253.273294 240.171433 
L 254.31661 240.476269 
L 255.359925 241.65137 
L 257.446557 241.950015 
L 258.489872 241.760039 
L 259.533188 240.864043 
L 260.576504 241.602842 
L 261.619819 241.805878 
L 262.663135 239.95237 
L 263.706451 241.633688 
L 264.749766 241.739205 
L 265.793082 241.286589 
L 266.836398 241.617565 
L 267.879713 242.103733 
L 268.923029 241.166644 
L 269.966345 241.675826 
L 271.00966 240.980985 
L 272.052976 241.634943 
L 273.096292 242.06216 
L 274.139607 241.674857 
L 275.182923 242.081357 
L 277.269554 242.061 
L 279.356186 242.106304 
L 282.486133 242.046515 
L 287.702711 242.104765 
L 300.222499 242.113907 
L 388.904332 242.115819 
L 388.904332 242.115819 
" clip-path="url(#p407797a22e)" style="fill: none; stroke: #dd8452; stroke-opacity: 0.3; stroke-width: 1.5; stroke-linecap: round"/>
   </g>
   <g id="line2d_16">
    <path d="M 54 242.116065 
L 161.461514 242.081453 
L 162.50483 241.974133 
L 163.548146 241.995145 
L 165.634777 240.953011 
L 166.678093 239.942688 
L 167.721409 241.877826 
L 168.764724 240.834032 
L 169.80804 241.577192 
L 170.851356 236.907122 
L 171.894671 239.861308 
L 172.937987 239.108003 
L 173.981303 241.831534 
L 175.024618 240.094381 
L 176.067934 241.68558 
L 177.11125 238.667423 
L 178.154565 241.382134 
L 179.197881 241.972454 
L 180.241197 240.669412 
L 181.284512 240.216241 
L 182.327828 239.375262 
L 183.371144 236.940981 
L 184.414459 241.541181 
L 185.457775 238.881668 
L 186.501091 241.550001 
L 187.544406 240.209747 
L 188.587722 235.188564 
L 189.631038 239.704192 
L 190.674353 238.133006 
L 191.717669 237.245895 
L 192.760985 240.827937 
L 193.8043 242.036761 
L 194.847616 241.821346 
L 195.890932 238.987875 
L 196.934247 240.770173 
L 197.977563 241.202147 
L 199.020879 239.964966 
L 200.064194 240.538274 
L 201.10751 238.785097 
L 202.150826 241.016054 
L 203.194141 239.733797 
L 204.237457 233.355744 
L 205.280773 241.575677 
L 206.324089 234.169494 
L 207.367404 232.22328 
L 208.41072 239.213862 
L 209.454036 240.23806 
L 210.497351 239.104275 
L 211.540667 236.340934 
L 212.583983 237.659775 
L 213.627298 235.399835 
L 214.670614 221.987558 
L 215.71393 229.306446 
L 216.757245 229.202212 
L 217.800561 217.787568 
L 219.887192 233.89563 
L 220.930508 230.886322 
L 221.973824 232.186027 
L 223.017139 237.876668 
L 224.060455 233.432177 
L 225.103771 212.250564 
L 226.147086 173.185089 
L 227.190402 210.868908 
L 228.233718 44.443636 
L 229.277033 143.915655 
L 230.320349 196.495279 
L 231.363665 230.268064 
L 232.40698 218.477009 
L 233.450296 236.076649 
L 234.493612 236.593158 
L 235.536927 234.663133 
L 236.580243 241.66291 
L 237.623559 239.749016 
L 238.666874 240.839054 
L 240.753506 231.908889 
L 241.796821 238.335073 
L 242.840137 240.94735 
L 243.883453 235.979259 
L 244.926768 238.186766 
L 245.970084 241.403795 
L 247.0134 240.913074 
L 248.056715 241.625391 
L 249.100031 240.881725 
L 250.143347 241.760927 
L 252.229978 240.503466 
L 253.273294 238.390897 
L 254.31661 241.847421 
L 255.359925 242.037863 
L 256.403241 239.867167 
L 257.446557 241.673641 
L 258.489872 242.08517 
L 259.533188 241.319785 
L 260.576504 242.05358 
L 261.619819 241.987866 
L 262.663135 241.573793 
L 264.749766 241.20755 
L 265.793082 242.001624 
L 266.836398 241.543063 
L 267.879713 241.772421 
L 269.966345 241.861918 
L 271.00966 241.515697 
L 272.052976 241.529679 
L 273.096292 241.740225 
L 274.139607 241.389006 
L 275.182923 241.881697 
L 276.226239 242.104058 
L 277.269554 242.053731 
L 278.31287 241.817711 
L 279.356186 242.113338 
L 281.442817 242.049904 
L 286.659395 242.11029 
L 298.135868 242.110206 
L 349.258336 242.115683 
L 388.904332 242.115952 
L 388.904332 242.115952 
" clip-path="url(#p407797a22e)" style="fill: none; stroke: #55a868; stroke-opacity: 0.3; stroke-width: 1.5; stroke-linecap: round"/>
   </g>
   <g id="line2d_17">
    <path d="M 54 242.076262 
L 155.20162 242.101089 
L 156.244936 241.605605 
L 157.288252 241.944913 
L 158.331567 241.752648 
L 159.374883 242.044162 
L 160.418199 241.156153 
L 161.461514 241.731095 
L 162.50483 241.662092 
L 163.548146 233.368896 
L 164.591462 221.811304 
L 165.634777 221.547283 
L 166.678093 219.029143 
L 167.721409 230.388384 
L 168.764724 238.9464 
L 169.80804 238.811054 
L 170.851356 173.391155 
L 171.894671 219.118426 
L 172.937987 218.134832 
L 173.981303 240.627353 
L 175.024618 203.130414 
L 176.067934 236.536324 
L 177.11125 236.880876 
L 178.154565 233.920332 
L 179.197881 240.372658 
L 180.241197 236.409884 
L 181.284512 204.276566 
L 182.327828 207.869501 
L 183.371144 199.508035 
L 184.414459 202.795673 
L 185.457775 236.151994 
L 186.501091 209.240877 
L 187.544406 230.828426 
L 188.587722 237.121926 
L 189.631038 217.846872 
L 190.674353 240.253825 
L 191.717669 184.9207 
L 192.760985 235.196308 
L 193.8043 233.00112 
L 194.847616 234.837725 
L 195.890932 240.482543 
L 196.934247 234.144417 
L 197.977563 234.872746 
L 199.020879 233.693804 
L 200.064194 241.294635 
L 201.10751 233.649756 
L 202.150826 227.129368 
L 203.194141 234.0978 
L 204.237457 238.316357 
L 205.280773 230.326582 
L 206.324089 241.262482 
L 207.367404 229.455411 
L 208.41072 230.913393 
L 209.454036 230.720121 
L 210.497351 237.227897 
L 211.540667 235.394223 
L 212.583983 240.656706 
L 213.627298 231.96632 
L 214.670614 239.545865 
L 215.71393 203.886546 
L 216.757245 240.185685 
L 217.800561 231.240948 
L 218.843877 238.351649 
L 219.887192 236.380453 
L 220.930508 225.822232 
L 221.973824 236.81362 
L 223.017139 240.675894 
L 224.060455 237.416506 
L 225.103771 213.150656 
L 226.147086 195.556371 
L 227.190402 233.94201 
L 228.233718 44.443636 
L 229.277033 141.52409 
L 230.320349 214.374174 
L 231.363665 241.148696 
L 232.40698 215.026199 
L 233.450296 237.64652 
L 234.493612 238.683412 
L 235.536927 241.028666 
L 236.580243 242.046973 
L 237.623559 238.471456 
L 238.666874 241.661204 
L 239.71019 234.721304 
L 240.753506 235.981195 
L 241.796821 242.059126 
L 242.840137 242.096989 
L 243.883453 237.712594 
L 244.926768 237.943154 
L 245.970084 238.837267 
L 247.0134 240.696029 
L 248.056715 238.479569 
L 249.100031 240.074763 
L 250.143347 238.178816 
L 251.186663 240.521423 
L 252.229978 240.427229 
L 253.273294 241.264561 
L 254.31661 239.915809 
L 255.359925 242.029881 
L 256.403241 237.032617 
L 257.446557 241.421437 
L 258.489872 237.719982 
L 259.533188 241.851191 
L 260.576504 238.06187 
L 261.619819 241.371167 
L 262.663135 241.777333 
L 263.706451 233.928042 
L 265.793082 239.66868 
L 266.836398 238.365792 
L 267.879713 241.78879 
L 268.923029 240.298569 
L 269.966345 242.024052 
L 271.00966 239.80267 
L 272.052976 240.901661 
L 273.096292 240.03789 
L 274.139607 235.930781 
L 275.182923 240.991202 
L 276.226239 240.367288 
L 277.269554 241.984721 
L 278.31287 240.545306 
L 279.356186 241.765904 
L 280.399501 241.642532 
L 281.442817 241.735727 
L 282.486133 241.978346 
L 283.529448 241.727397 
L 286.659395 241.892252 
L 287.702711 241.851174 
L 290.832658 242.045187 
L 291.875974 241.923837 
L 292.919289 242.068565 
L 296.049237 242.003246 
L 299.179184 242.065225 
L 365.951387 242.109224 
L 388.904332 242.111663 
L 388.904332 242.111663 
" clip-path="url(#p407797a22e)" style="fill: none; stroke: #c44e52; stroke-opacity: 0.3; stroke-width: 1.5; stroke-linecap: round"/>
   </g>
   <g id="line2d_18">
    <path d="M 54 242.116101 
L 158.331567 242.111893 
L 159.374883 241.766286 
L 160.418199 241.556838 
L 161.461514 241.963456 
L 162.50483 240.288177 
L 163.548146 241.818837 
L 164.591462 238.933101 
L 165.634777 240.398309 
L 166.678093 238.498345 
L 167.721409 233.523485 
L 168.764724 239.773938 
L 169.80804 233.95359 
L 170.851356 236.650124 
L 171.894671 236.886006 
L 172.937987 238.601196 
L 173.981303 235.227678 
L 175.024618 221.823111 
L 176.067934 232.289494 
L 177.11125 218.714156 
L 178.154565 237.03492 
L 179.197881 231.914236 
L 180.241197 241.909612 
L 181.284512 231.680887 
L 182.327828 237.710097 
L 183.371144 222.8187 
L 184.414459 237.529533 
L 185.457775 215.44429 
L 186.501091 225.077864 
L 187.544406 233.100695 
L 188.587722 235.877709 
L 189.631038 237.797099 
L 190.674353 240.943984 
L 191.717669 236.617066 
L 192.760985 240.371201 
L 193.8043 226.720141 
L 194.847616 233.554749 
L 195.890932 217.931302 
L 196.934247 227.912816 
L 197.977563 233.698444 
L 199.020879 232.846676 
L 200.064194 234.291334 
L 201.10751 240.518517 
L 202.150826 241.4124 
L 203.194141 240.339708 
L 204.237457 239.544903 
L 205.280773 239.028532 
L 206.324089 227.547356 
L 207.367404 239.202887 
L 208.41072 236.214299 
L 209.454036 220.848853 
L 210.497351 238.614078 
L 211.540667 240.480066 
L 212.583983 240.705827 
L 213.627298 239.540213 
L 214.670614 228.849816 
L 215.71393 237.538563 
L 216.757245 232.687926 
L 217.800561 230.216966 
L 218.843877 238.205319 
L 219.887192 236.904506 
L 220.930508 230.60214 
L 221.973824 241.862923 
L 223.017139 241.866128 
L 224.060455 226.669126 
L 225.103771 241.955016 
L 226.147086 224.031918 
L 227.190402 148.040668 
L 228.233718 44.443636 
L 229.277033 76.625708 
L 230.320349 180.313523 
L 231.363665 240.978338 
L 232.40698 219.446868 
L 233.450296 239.764403 
L 234.493612 231.084038 
L 235.536927 230.147819 
L 236.580243 241.469362 
L 237.623559 238.519645 
L 238.666874 227.682478 
L 239.71019 239.255933 
L 240.753506 239.611328 
L 241.796821 235.935616 
L 242.840137 241.206649 
L 243.883453 241.461589 
L 244.926768 238.939324 
L 247.0134 241.923925 
L 248.056715 240.946535 
L 249.100031 239.196838 
L 250.143347 239.787765 
L 251.186663 237.982589 
L 252.229978 241.272969 
L 253.273294 241.942531 
L 254.31661 241.796984 
L 255.359925 240.066802 
L 257.446557 240.94987 
L 258.489872 241.751514 
L 260.576504 240.056397 
L 261.619819 240.727841 
L 262.663135 241.550534 
L 263.706451 240.39406 
L 264.749766 240.28648 
L 265.793082 238.457414 
L 266.836398 241.119714 
L 267.879713 240.016841 
L 268.923029 240.418963 
L 269.966345 241.667668 
L 271.00966 241.029898 
L 272.052976 242.006993 
L 273.096292 241.636233 
L 274.139607 241.04382 
L 275.182923 241.383502 
L 276.226239 242.055272 
L 277.269554 241.928235 
L 278.31287 241.560212 
L 280.399501 241.862103 
L 281.442817 242.044835 
L 284.572764 242.024007 
L 285.61608 241.940366 
L 286.659395 242.107763 
L 305.439078 242.114326 
L 359.691493 242.114934 
L 388.904332 242.115341 
L 388.904332 242.115341 
" clip-path="url(#p407797a22e)" style="fill: none; stroke: #8172b3; stroke-opacity: 0.3; stroke-width: 1.5; stroke-linecap: round"/>
   </g>
   <g id="line2d_19">
    <path d="M 54 242.116148 
L 160.418199 242.1025 
L 161.461514 241.998331 
L 162.50483 241.721248 
L 163.548146 241.911984 
L 164.591462 241.528001 
L 165.634777 241.308128 
L 166.678093 241.777091 
L 167.721409 241.594403 
L 168.764724 241.707429 
L 169.80804 241.663287 
L 170.851356 238.33057 
L 171.894671 239.416587 
L 172.937987 237.258999 
L 173.981303 241.348424 
L 175.024618 237.950096 
L 176.067934 241.659427 
L 177.11125 236.748844 
L 178.154565 235.780165 
L 179.197881 241.253329 
L 180.241197 241.777761 
L 181.284512 240.105905 
L 182.327828 242.018047 
L 183.371144 237.771308 
L 184.414459 241.094037 
L 185.457775 230.902549 
L 186.501091 234.661863 
L 187.544406 236.583199 
L 188.587722 239.930684 
L 189.631038 239.000528 
L 192.760985 241.429127 
L 193.8043 241.444879 
L 194.847616 241.765491 
L 195.890932 237.147987 
L 196.934247 235.738653 
L 197.977563 239.302635 
L 199.020879 239.442034 
L 200.064194 241.058894 
L 201.10751 241.480132 
L 202.150826 240.888092 
L 203.194141 241.675104 
L 204.237457 235.530613 
L 205.280773 241.182798 
L 206.324089 240.604679 
L 207.367404 236.358928 
L 208.41072 239.642542 
L 209.454036 242.000875 
L 210.497351 241.636581 
L 211.540667 239.310398 
L 212.583983 239.449587 
L 213.627298 241.49806 
L 214.670614 225.681747 
L 215.71393 235.934147 
L 216.757245 240.426252 
L 217.800561 214.839648 
L 218.843877 235.402489 
L 219.887192 238.509687 
L 220.930508 229.949708 
L 221.973824 239.239465 
L 223.017139 239.296169 
L 224.060455 228.510626 
L 226.147086 214.451236 
L 227.190402 189.553549 
L 228.233718 44.443636 
L 229.277033 114.674943 
L 231.363665 240.302317 
L 232.40698 220.7734 
L 233.450296 237.6289 
L 234.493612 239.350976 
L 235.536927 230.816641 
L 236.580243 241.97276 
L 237.623559 241.239489 
L 238.666874 235.781443 
L 239.71019 235.805583 
L 240.753506 234.05729 
L 241.796821 237.548753 
L 242.840137 236.944698 
L 243.883453 241.521256 
L 244.926768 236.077358 
L 245.970084 241.476798 
L 247.0134 240.625338 
L 248.056715 241.490686 
L 249.100031 241.066523 
L 250.143347 240.933171 
L 251.186663 241.827534 
L 252.229978 241.99834 
L 253.273294 240.278609 
L 254.31661 241.907839 
L 255.359925 240.504413 
L 256.403241 240.58472 
L 257.446557 242.052603 
L 258.489872 241.006344 
L 259.533188 241.302304 
L 260.576504 241.212827 
L 261.619819 241.376315 
L 262.663135 241.842396 
L 263.706451 240.705393 
L 264.749766 241.884294 
L 265.793082 240.748781 
L 266.836398 241.393634 
L 267.879713 241.193628 
L 268.923029 240.637111 
L 269.966345 241.980329 
L 271.00966 242.04939 
L 272.052976 241.835528 
L 273.096292 242.040777 
L 274.139607 241.630214 
L 275.182923 241.648152 
L 276.226239 241.973919 
L 277.269554 241.897428 
L 278.31287 242.040005 
L 279.356186 241.810259 
L 281.442817 241.875867 
L 282.486133 242.114517 
L 283.529448 242.114358 
L 284.572764 241.961803 
L 286.659395 242.109079 
L 289.789342 242.077181 
L 300.222499 242.113951 
L 314.828919 242.114533 
L 388.904332 242.116135 
L 388.904332 242.116135 
" clip-path="url(#p407797a22e)" style="fill: none; stroke: #937860; stroke-opacity: 0.3; stroke-width: 1.5; stroke-linecap: round"/>
   </g>
   <g id="line2d_20">
    <path d="M 54 242.058838 
L 144.768464 242.032459 
L 145.811779 241.920623 
L 146.855095 241.963639 
L 147.898411 241.814137 
L 148.941726 241.960699 
L 149.985042 241.976251 
L 151.028358 241.634863 
L 152.071673 240.615737 
L 153.114989 241.371008 
L 154.158305 241.710945 
L 155.20162 241.155757 
L 156.244936 241.490641 
L 157.288252 240.091686 
L 158.331567 239.034451 
L 159.374883 236.051153 
L 160.418199 240.325171 
L 161.461514 237.636078 
L 162.50483 227.823111 
L 163.548146 203.100527 
L 164.591462 190.29579 
L 165.634777 222.252588 
L 166.678093 235.963878 
L 167.721409 231.0576 
L 168.764724 240.364761 
L 169.80804 235.267638 
L 170.851356 209.772766 
L 171.894671 166.453936 
L 172.937987 212.977549 
L 173.981303 179.845398 
L 175.024618 125.33736 
L 176.067934 221.38529 
L 177.11125 142.879445 
L 178.154565 191.539518 
L 179.197881 208.383159 
L 180.241197 215.726476 
L 181.284512 218.100992 
L 182.327828 85.773275 
L 183.371144 186.456116 
L 184.414459 219.020096 
L 185.457775 180.317221 
L 186.501091 67.147357 
L 188.587722 186.407436 
L 189.631038 107.589186 
L 190.674353 212.948351 
L 191.717669 241.203881 
L 192.760985 233.58305 
L 193.8043 220.293076 
L 194.847616 203.025602 
L 195.890932 170.217847 
L 196.934247 241.140263 
L 197.977563 235.8844 
L 199.020879 223.614772 
L 200.064194 238.776804 
L 201.10751 213.969186 
L 202.150826 240.467303 
L 203.194141 241.92339 
L 204.237457 214.213709 
L 205.280773 240.117894 
L 206.324089 237.760529 
L 207.367404 237.154338 
L 208.41072 233.492712 
L 209.454036 226.164187 
L 210.497351 231.691285 
L 211.540667 235.593262 
L 212.583983 213.344268 
L 213.627298 241.244254 
L 214.670614 240.996114 
L 215.71393 234.148553 
L 216.757245 216.24067 
L 217.800561 213.637437 
L 218.843877 240.584463 
L 219.887192 229.76907 
L 220.930508 233.802171 
L 221.973824 230.932985 
L 223.017139 237.812178 
L 224.060455 237.540053 
L 225.103771 234.258469 
L 226.147086 189.411233 
L 227.190402 223.572047 
L 228.233718 58.345355 
L 229.277033 44.443636 
L 230.320349 211.503514 
L 231.363665 239.561675 
L 232.40698 207.773067 
L 233.450296 189.302102 
L 234.493612 223.208432 
L 235.536927 236.52563 
L 236.580243 234.283202 
L 237.623559 241.30698 
L 238.666874 240.209671 
L 239.71019 232.343994 
L 240.753506 240.349963 
L 241.796821 235.786315 
L 242.840137 239.817532 
L 243.883453 239.542974 
L 244.926768 238.380473 
L 245.970084 233.855287 
L 247.0134 237.070497 
L 248.056715 235.881403 
L 249.100031 239.902701 
L 250.143347 240.235577 
L 251.186663 240.029024 
L 252.229978 240.258289 
L 253.273294 241.532506 
L 254.31661 237.721338 
L 255.359925 238.733925 
L 256.403241 241.294318 
L 257.446557 241.423993 
L 259.533188 240.101387 
L 260.576504 233.997869 
L 261.619819 239.6142 
L 262.663135 239.489321 
L 263.706451 240.012391 
L 264.749766 240.773563 
L 265.793082 242.056505 
L 266.836398 237.949993 
L 267.879713 230.829683 
L 268.923029 240.060065 
L 269.966345 242.066308 
L 271.00966 238.714325 
L 272.052976 238.591886 
L 273.096292 241.378742 
L 275.182923 241.567827 
L 276.226239 241.164927 
L 277.269554 241.657986 
L 278.31287 241.974124 
L 279.356186 241.145407 
L 280.399501 241.325812 
L 281.442817 241.910383 
L 282.486133 242.022652 
L 283.529448 241.958251 
L 284.572764 241.14297 
L 285.61608 241.385998 
L 286.659395 241.901735 
L 287.702711 241.857965 
L 288.746027 241.619228 
L 290.832658 241.89984 
L 291.875974 241.975132 
L 293.962605 241.827135 
L 296.049237 241.977712 
L 300.222499 241.981217 
L 303.352446 241.983684 
L 353.431599 242.087595 
L 388.904332 242.099864 
L 388.904332 242.099864 
" clip-path="url(#p407797a22e)" style="fill: none; stroke: #da8bc3; stroke-opacity: 0.3; stroke-width: 1.5; stroke-linecap: round"/>
   </g>
   <g id="line2d_21">
    <path d="M 54 241.99597 
L 122.858835 241.886065 
L 141.638517 241.672208 
L 144.768464 241.482667 
L 145.811779 241.752448 
L 149.985042 241.197707 
L 151.028358 241.52898 
L 152.071673 240.604432 
L 153.114989 241.37836 
L 154.158305 240.524282 
L 155.20162 241.671609 
L 156.244936 240.795515 
L 158.331567 241.076185 
L 159.374883 238.861094 
L 160.418199 238.651676 
L 161.461514 241.909554 
L 162.50483 240.803518 
L 163.548146 212.448782 
L 164.591462 230.541118 
L 165.634777 214.462434 
L 166.678093 226.769008 
L 168.764724 236.633857 
L 169.80804 193.822492 
L 170.851356 174.083471 
L 171.894671 232.189963 
L 173.981303 208.121304 
L 175.024618 44.443636 
L 176.067934 227.229465 
L 177.11125 194.955336 
L 178.154565 219.528978 
L 179.197881 230.388531 
L 180.241197 163.14558 
L 181.284512 231.857597 
L 182.327828 234.12526 
L 183.371144 188.366791 
L 184.414459 234.492966 
L 185.457775 194.82501 
L 186.501091 190.675046 
L 187.544406 237.640532 
L 189.631038 241.237376 
L 190.674353 231.591863 
L 191.717669 210.037352 
L 192.760985 211.269453 
L 193.8043 236.301021 
L 194.847616 221.640408 
L 195.890932 234.656233 
L 196.934247 238.978144 
L 197.977563 200.600856 
L 199.020879 233.436161 
L 200.064194 222.345262 
L 201.10751 233.769336 
L 202.150826 240.158728 
L 203.194141 241.301902 
L 204.237457 232.229434 
L 205.280773 236.218183 
L 206.324089 239.43773 
L 207.367404 241.001785 
L 208.41072 231.469745 
L 209.454036 233.058013 
L 210.497351 232.304713 
L 211.540667 241.360141 
L 212.583983 240.96053 
L 213.627298 237.289505 
L 214.670614 227.531936 
L 215.71393 239.300303 
L 216.757245 237.609115 
L 217.800561 241.419088 
L 218.843877 228.846301 
L 219.887192 231.841661 
L 220.930508 230.74723 
L 221.973824 227.56405 
L 223.017139 214.465674 
L 224.060455 203.818751 
L 225.103771 241.780945 
L 226.147086 168.816905 
L 227.190402 58.597336 
L 228.233718 77.258647 
L 229.277033 133.216827 
L 230.320349 148.630644 
L 231.363665 217.458711 
L 232.40698 220.281009 
L 233.450296 239.421241 
L 234.493612 239.54431 
L 235.536927 217.522349 
L 236.580243 236.840647 
L 237.623559 229.491283 
L 238.666874 241.471481 
L 239.71019 225.317625 
L 240.753506 239.513732 
L 241.796821 232.847934 
L 242.840137 233.157241 
L 243.883453 240.944061 
L 244.926768 228.578681 
L 245.970084 231.868223 
L 247.0134 237.296179 
L 248.056715 241.222268 
L 249.100031 240.210025 
L 250.143347 237.432861 
L 251.186663 240.115621 
L 252.229978 240.583186 
L 253.273294 242.079675 
L 254.31661 240.797873 
L 255.359925 241.547448 
L 256.403241 239.465697 
L 257.446557 239.8495 
L 258.489872 241.823941 
L 259.533188 235.104573 
L 260.576504 241.579159 
L 261.619819 226.304748 
L 262.663135 237.853118 
L 263.706451 239.109638 
L 264.749766 242.087691 
L 265.793082 241.421444 
L 266.836398 238.408453 
L 267.879713 238.628241 
L 268.923029 240.979819 
L 269.966345 241.039502 
L 271.00966 240.061995 
L 272.052976 242.03643 
L 273.096292 241.654203 
L 274.139607 240.089502 
L 275.182923 241.250743 
L 276.226239 242.103665 
L 277.269554 241.8677 
L 279.356186 241.747074 
L 280.399501 241.879975 
L 281.442817 241.172951 
L 282.486133 242.046155 
L 285.61608 241.842617 
L 286.659395 241.649787 
L 287.702711 241.773039 
L 288.746027 242.042176 
L 290.832658 242.01101 
L 291.875974 241.878828 
L 292.919289 242.070199 
L 304.395762 242.077002 
L 366.994702 242.101167 
L 388.904332 242.104801 
L 388.904332 242.104801 
" clip-path="url(#p407797a22e)" style="fill: none; stroke: #8c8c8c; stroke-opacity: 0.3; stroke-width: 1.5; stroke-linecap: round"/>
   </g>
   <g id="line2d_22">
    <path d="M 54 242.108959 
L 149.985042 242.050058 
L 152.071673 241.991434 
L 155.20162 242.041617 
L 156.244936 241.917403 
L 157.288252 242.090977 
L 158.331567 242.005053 
L 159.374883 241.744489 
L 160.418199 241.69022 
L 161.461514 240.484987 
L 162.50483 241.479344 
L 163.548146 237.897807 
L 164.591462 236.986423 
L 165.634777 238.688665 
L 166.678093 240.670852 
L 167.721409 239.980811 
L 168.764724 238.3393 
L 169.80804 223.693027 
L 170.851356 240.681444 
L 171.894671 236.924878 
L 172.937987 217.319833 
L 173.981303 238.249479 
L 176.067934 233.282697 
L 177.11125 240.471348 
L 178.154565 238.182803 
L 179.197881 237.149688 
L 180.241197 227.365312 
L 181.284512 236.795598 
L 182.327828 234.601022 
L 183.371144 235.253529 
L 184.414459 241.360054 
L 185.457775 231.207058 
L 186.501091 232.242929 
L 187.544406 233.035037 
L 188.587722 241.449167 
L 189.631038 241.587928 
L 190.674353 236.918252 
L 191.717669 241.099377 
L 192.760985 237.080749 
L 193.8043 237.244764 
L 194.847616 240.759628 
L 195.890932 236.728342 
L 196.934247 237.322136 
L 197.977563 242.06453 
L 199.020879 237.467103 
L 201.10751 242.019779 
L 202.150826 241.491125 
L 203.194141 242.068977 
L 204.237457 240.786508 
L 205.280773 241.796415 
L 206.324089 241.491364 
L 207.367404 241.024339 
L 208.41072 237.266433 
L 209.454036 240.762334 
L 210.497351 241.519607 
L 211.540667 241.628322 
L 212.583983 242.00841 
L 213.627298 241.016499 
L 214.670614 240.266216 
L 215.71393 240.696313 
L 216.757245 242.099461 
L 217.800561 240.612628 
L 218.843877 240.299644 
L 219.887192 240.212347 
L 220.930508 241.44749 
L 221.973824 241.551894 
L 223.017139 241.227729 
L 224.060455 231.763069 
L 225.103771 237.407243 
L 226.147086 185.219022 
L 227.190402 44.443636 
L 228.233718 56.516307 
L 229.277033 135.592236 
L 230.320349 165.877255 
L 231.363665 225.710926 
L 232.40698 235.205581 
L 233.450296 236.719043 
L 234.493612 241.90014 
L 235.536927 238.283919 
L 236.580243 242.092423 
L 237.623559 241.124774 
L 238.666874 242.114623 
L 239.71019 242.015113 
L 241.796821 240.112435 
L 242.840137 241.667452 
L 243.883453 239.80036 
L 244.926768 240.809755 
L 245.970084 241.551835 
L 247.0134 241.598477 
L 248.056715 242.114041 
L 250.143347 241.855946 
L 251.186663 242.034493 
L 252.229978 242.048496 
L 254.31661 241.809937 
L 255.359925 242.041506 
L 258.489872 242.050588 
L 259.533188 241.963887 
L 260.576504 242.107237 
L 262.663135 241.823823 
L 263.706451 242.075568 
L 288.746027 242.105544 
L 317.958866 242.112861 
L 388.904332 242.115255 
L 388.904332 242.115255 
" clip-path="url(#p407797a22e)" style="fill: none; stroke: #ccb974; stroke-opacity: 0.3; stroke-width: 1.5; stroke-linecap: round"/>
   </g>
   <g id="line2d_23">
    <path d="M 54 242.116034 
L 153.114989 242.064826 
L 154.158305 241.718499 
L 155.20162 242.090475 
L 158.331567 241.898207 
L 159.374883 242.054175 
L 160.418199 241.988104 
L 161.461514 241.724523 
L 162.50483 239.279296 
L 163.548146 241.025213 
L 164.591462 242.036943 
L 165.634777 230.176043 
L 166.678093 240.106558 
L 167.721409 228.73383 
L 168.764724 234.587221 
L 169.80804 239.725483 
L 170.851356 241.88272 
L 171.894671 241.14807 
L 172.937987 239.968403 
L 173.981303 232.600679 
L 175.024618 239.731042 
L 176.067934 231.759926 
L 177.11125 239.969595 
L 178.154565 241.463453 
L 179.197881 231.369346 
L 180.241197 239.635928 
L 181.284512 239.426532 
L 182.327828 237.924568 
L 183.371144 232.940777 
L 184.414459 233.640221 
L 185.457775 221.211976 
L 186.501091 228.823675 
L 187.544406 231.515335 
L 188.587722 240.911954 
L 189.631038 237.313268 
L 190.674353 236.621249 
L 191.717669 241.862611 
L 192.760985 241.338412 
L 193.8043 238.635302 
L 194.847616 234.747035 
L 195.890932 237.032946 
L 196.934247 228.153097 
L 197.977563 230.47581 
L 199.020879 229.680535 
L 200.064194 232.982514 
L 201.10751 237.44071 
L 202.150826 236.614326 
L 203.194141 227.273882 
L 204.237457 235.66565 
L 205.280773 232.764321 
L 206.324089 241.381365 
L 207.367404 235.956839 
L 208.41072 228.693974 
L 209.454036 227.642242 
L 210.497351 228.704464 
L 211.540667 240.431001 
L 212.583983 234.380103 
L 213.627298 233.550335 
L 214.670614 237.728393 
L 215.71393 233.702229 
L 216.757245 241.085167 
L 217.800561 241.006467 
L 218.843877 241.536399 
L 219.887192 241.112854 
L 220.930508 235.379108 
L 221.973824 239.134296 
L 223.017139 237.332776 
L 224.060455 241.224438 
L 225.103771 238.831471 
L 226.147086 237.138924 
L 227.190402 214.8402 
L 228.233718 44.443636 
L 229.277033 103.161054 
L 230.320349 106.613816 
L 231.363665 233.079 
L 232.40698 235.652823 
L 233.450296 235.88432 
L 234.493612 239.148316 
L 236.580243 227.270033 
L 237.623559 235.988888 
L 238.666874 240.335701 
L 239.71019 231.512833 
L 240.753506 240.598641 
L 241.796821 235.131242 
L 242.840137 240.76519 
L 243.883453 236.063636 
L 244.926768 239.335608 
L 245.970084 239.50839 
L 247.0134 236.514865 
L 248.056715 236.640283 
L 249.100031 231.308105 
L 250.143347 238.197284 
L 251.186663 241.615713 
L 252.229978 236.669368 
L 253.273294 236.051689 
L 254.31661 238.745382 
L 255.359925 232.340214 
L 256.403241 239.052404 
L 257.446557 240.579452 
L 258.489872 240.234769 
L 259.533188 240.028259 
L 260.576504 240.016254 
L 261.619819 240.344276 
L 262.663135 241.271575 
L 263.706451 241.023266 
L 264.749766 241.131054 
L 265.793082 241.467985 
L 266.836398 238.200002 
L 267.879713 236.55819 
L 268.923029 240.597039 
L 269.966345 241.646311 
L 271.00966 241.411143 
L 272.052976 240.245742 
L 273.096292 240.392965 
L 274.139607 240.876724 
L 275.182923 241.680151 
L 276.226239 242.052306 
L 277.269554 241.333206 
L 278.31287 241.260001 
L 279.356186 241.710793 
L 280.399501 242.027217 
L 291.875974 242.095967 
L 299.179184 242.109385 
L 388.904332 242.116175 
L 388.904332 242.116175 
" clip-path="url(#p407797a22e)" style="fill: none; stroke: #64b5cd; stroke-opacity: 0.3; stroke-width: 1.5; stroke-linecap: round"/>
   </g>
   <g id="line2d_24">
    <path d="M 54 242.111019 
L 153.114989 242.053082 
L 154.158305 241.546604 
L 155.20162 242.093198 
L 156.244936 242.022168 
L 157.288252 241.284204 
L 159.374883 242.029536 
L 160.418199 241.622531 
L 161.461514 238.871776 
L 162.50483 238.920155 
L 163.548146 233.612062 
L 164.591462 237.115719 
L 165.634777 236.335361 
L 166.678093 212.660596 
L 167.721409 229.719948 
L 168.764724 237.403444 
L 169.80804 236.301557 
L 170.851356 239.545482 
L 171.894671 227.157637 
L 172.937987 238.211439 
L 173.981303 194.731108 
L 175.024618 201.078324 
L 176.067934 222.832425 
L 177.11125 193.00494 
L 178.154565 208.346247 
L 179.197881 242.110288 
L 180.241197 209.23662 
L 181.284512 213.934226 
L 182.327828 242.042182 
L 183.371144 236.587682 
L 184.414459 200.781587 
L 185.457775 212.826923 
L 186.501091 241.321106 
L 187.544406 240.787886 
L 188.587722 233.411549 
L 189.631038 230.22739 
L 191.717669 191.548389 
L 192.760985 235.963407 
L 193.8043 213.742494 
L 194.847616 128.646209 
L 195.890932 193.403665 
L 196.934247 51.340682 
L 197.977563 129.376664 
L 199.020879 120.626845 
L 200.064194 178.33437 
L 201.10751 207.945881 
L 202.150826 189.299257 
L 203.194141 125.226541 
L 204.237457 96.185973 
L 205.280773 168.597687 
L 206.324089 215.731583 
L 207.367404 178.795289 
L 208.41072 67.524298 
L 209.454036 136.020181 
L 210.497351 169.926137 
L 211.540667 230.381151 
L 212.583983 234.225329 
L 214.670614 146.946004 
L 215.71393 167.749126 
L 216.757245 212.026436 
L 217.800561 238.454772 
L 218.843877 235.198435 
L 219.887192 212.781556 
L 220.930508 168.429165 
L 221.973824 198.870058 
L 223.017139 236.983081 
L 224.060455 208.757994 
L 226.147086 179.32205 
L 227.190402 177.282277 
L 228.233718 235.125076 
L 229.277033 131.176688 
L 230.320349 127.420279 
L 231.363665 182.04738 
L 232.40698 219.822503 
L 233.450296 238.807886 
L 234.493612 239.543762 
L 235.536927 236.043129 
L 236.580243 68.666337 
L 237.623559 44.443636 
L 238.666874 201.481864 
L 239.71019 234.559002 
L 240.753506 150.380584 
L 241.796821 156.442177 
L 242.840137 204.837081 
L 243.883453 211.444732 
L 244.926768 233.417331 
L 245.970084 230.544611 
L 247.0134 229.08229 
L 248.056715 230.339489 
L 249.100031 123.614128 
L 250.143347 198.334744 
L 251.186663 233.555461 
L 252.229978 212.887362 
L 253.273294 218.404744 
L 254.31661 240.083045 
L 255.359925 198.966762 
L 256.403241 133.213658 
L 257.446557 195.323341 
L 258.489872 233.235876 
L 259.533188 210.822556 
L 260.576504 201.137098 
L 261.619819 211.558322 
L 262.663135 197.651051 
L 263.706451 208.626849 
L 264.749766 236.02859 
L 265.793082 219.004138 
L 266.836398 185.931122 
L 267.879713 187.451292 
L 268.923029 212.528774 
L 269.966345 242.001679 
L 271.00966 232.524911 
L 272.052976 234.655959 
L 273.096292 227.403174 
L 274.139607 233.16416 
L 275.182923 237.457835 
L 276.226239 240.19533 
L 277.269554 235.634801 
L 278.31287 237.46175 
L 279.356186 238.116504 
L 280.399501 240.944671 
L 281.442817 241.867861 
L 282.486133 241.96046 
L 284.572764 241.658054 
L 285.61608 241.110633 
L 286.659395 241.264342 
L 287.702711 241.71696 
L 288.746027 241.881045 
L 289.789342 241.509978 
L 290.832658 241.554389 
L 291.875974 242.008348 
L 293.962605 241.996657 
L 295.005921 241.824172 
L 297.092552 242.037785 
L 301.265815 242.094361 
L 307.525709 242.11108 
L 325.262075 242.112732 
L 388.904332 242.115383 
L 388.904332 242.115383 
" clip-path="url(#p407797a22e)" style="fill: none; stroke: #4c72b0; stroke-opacity: 0.3; stroke-width: 1.5; stroke-linecap: round"/>
   </g>
   <g id="line2d_25">
    <path d="M 54 242.11537 
L 154.158305 242.06655 
L 155.20162 241.847553 
L 156.244936 242.090129 
L 157.288252 241.848486 
L 158.331567 241.29361 
L 159.374883 241.430293 
L 160.418199 238.348242 
L 161.461514 238.77919 
L 162.50483 239.760615 
L 163.548146 240.97578 
L 164.591462 241.761332 
L 165.634777 230.486864 
L 166.678093 224.950438 
L 167.721409 240.146882 
L 168.764724 237.067847 
L 169.80804 237.520579 
L 170.851356 238.907318 
L 171.894671 231.99028 
L 172.937987 240.344597 
L 173.981303 195.68003 
L 175.024618 223.978607 
L 176.067934 218.116155 
L 177.11125 210.176758 
L 178.154565 232.704333 
L 179.197881 223.27234 
L 180.241197 224.656597 
L 181.284512 230.995673 
L 182.327828 230.702966 
L 183.371144 234.098512 
L 184.414459 207.033846 
L 185.457775 212.263538 
L 186.501091 239.473116 
L 187.544406 237.497178 
L 188.587722 238.936867 
L 189.631038 241.727818 
L 190.674353 193.709562 
L 191.717669 231.216873 
L 192.760985 240.188378 
L 193.8043 207.449409 
L 194.847616 167.142948 
L 195.890932 152.318129 
L 196.934247 170.57203 
L 197.977563 157.996268 
L 199.020879 107.425113 
L 200.064194 145.82557 
L 201.10751 200.015826 
L 202.150826 213.826867 
L 203.194141 138.283526 
L 204.237457 96.890386 
L 205.280773 156.632145 
L 206.324089 235.501491 
L 207.367404 211.611809 
L 208.41072 170.933613 
L 209.454036 119.40507 
L 211.540667 241.300147 
L 212.583983 228.116467 
L 214.670614 172.810819 
L 215.71393 201.292596 
L 216.757245 217.074024 
L 217.800561 237.004867 
L 218.843877 240.397239 
L 220.930508 210.410476 
L 221.973824 228.408605 
L 223.017139 217.811383 
L 224.060455 237.676527 
L 226.147086 214.60363 
L 227.190402 220.796888 
L 228.233718 230.723304 
L 229.277033 194.181729 
L 230.320349 44.443636 
L 231.363665 185.807099 
L 232.40698 233.20116 
L 233.450296 218.433558 
L 234.493612 231.58928 
L 235.536927 202.268668 
L 236.580243 96.543561 
L 237.623559 156.370402 
L 238.666874 224.918459 
L 239.71019 210.619422 
L 240.753506 213.34596 
L 241.796821 208.184903 
L 242.840137 237.174457 
L 243.883453 223.428791 
L 244.926768 230.290774 
L 245.970084 236.117671 
L 247.0134 235.328858 
L 248.056715 235.179189 
L 249.100031 169.864913 
L 250.143347 200.069533 
L 251.186663 241.121546 
L 252.229978 181.57071 
L 253.273294 192.504758 
L 254.31661 229.721559 
L 255.359925 210.642501 
L 256.403241 194.424413 
L 257.446557 234.981812 
L 258.489872 235.649058 
L 259.533188 203.985478 
L 260.576504 218.717773 
L 261.619819 228.282405 
L 262.663135 222.72153 
L 263.706451 223.875075 
L 264.749766 234.487564 
L 265.793082 219.571177 
L 266.836398 202.454616 
L 267.879713 208.682265 
L 268.923029 216.636604 
L 269.966345 238.953385 
L 271.00966 235.631309 
L 272.052976 234.369305 
L 274.139607 238.02574 
L 275.182923 238.51018 
L 276.226239 241.329428 
L 277.269554 236.685209 
L 278.31287 237.578511 
L 279.356186 237.264862 
L 280.399501 240.621652 
L 281.442817 241.488436 
L 282.486133 241.141005 
L 283.529448 241.783812 
L 284.572764 241.993853 
L 285.61608 241.476121 
L 286.659395 241.609518 
L 287.702711 241.90858 
L 288.746027 241.853149 
L 290.832658 241.950852 
L 291.875974 241.890417 
L 293.962605 242.029608 
L 349.258336 242.115669 
L 388.904332 242.116025 
L 388.904332 242.116025 
" clip-path="url(#p407797a22e)" style="fill: none; stroke: #dd8452; stroke-opacity: 0.3; stroke-width: 1.5; stroke-linecap: round"/>
   </g>
   <g id="patch_3">
    <path d="M 54 252 
L 54 34.56 
" style="fill: none; stroke: #262626; stroke-width: 1.25; stroke-linejoin: miter; stroke-linecap: square"/>
   </g>
   <g id="patch_4">
    <path d="M 388.8 252 
L 388.8 34.56 
" style="fill: none; stroke: #262626; stroke-width: 1.25; stroke-linejoin: miter; stroke-linecap: square"/>
   </g>
   <g id="patch_5">
    <path d="M 54 252 
L 388.8 252 
" style="fill: none; stroke: #262626; stroke-width: 1.25; stroke-linejoin: miter; stroke-linecap: square"/>
   </g>
   <g id="patch_6">
    <path d="M 54 34.56 
L 388.8 34.56 
" style="fill: none; stroke: #262626; stroke-width: 1.25; stroke-linejoin: miter; stroke-linecap: square"/>
   </g>
   <g id="text_15">
    <!-- patient14_app05_second - Power spectrum -->
    <g style="fill: #262626" transform="translate(105.334688 28.56)scale(0.12 -0.12)">
     <defs>
      <path id="ArialMT-70" d="M 422 -1272 
L 422 3319 
L 934 3319 
L 934 2888 
Q 1116 3141 1344 3267 
Q 1572 3394 1897 3394 
Q 2322 3394 2647 3175 
Q 2972 2956 3137 2557 
Q 3303 2159 3303 1684 
Q 3303 1175 3120 767 
Q 2938 359 2589 142 
Q 2241 -75 1856 -75 
Q 1575 -75 1351 44 
Q 1128 163 984 344 
L 984 -1272 
L 422 -1272 
z
M 931 1641 
Q 931 1000 1190 694 
Q 1450 388 1819 388 
Q 2194 388 2461 705 
Q 2728 1022 2728 1688 
Q 2728 2322 2467 2637 
Q 2206 2953 1844 2953 
Q 1484 2953 1207 2617 
Q 931 2281 931 1641 
z
" transform="scale(0.015625)"/>
      <path id="ArialMT-61" d="M 2588 409 
Q 2275 144 1986 34 
Q 1697 -75 1366 -75 
Q 819 -75 525 192 
Q 231 459 231 875 
Q 231 1119 342 1320 
Q 453 1522 633 1644 
Q 813 1766 1038 1828 
Q 1203 1872 1538 1913 
Q 2219 1994 2541 2106 
Q 2544 2222 2544 2253 
Q 2544 2597 2384 2738 
Q 2169 2928 1744 2928 
Q 1347 2928 1158 2789 
Q 969 2650 878 2297 
L 328 2372 
Q 403 2725 575 2942 
Q 747 3159 1072 3276 
Q 1397 3394 1825 3394 
Q 2250 3394 2515 3294 
Q 2781 3194 2906 3042 
Q 3031 2891 3081 2659 
Q 3109 2516 3109 2141 
L 3109 1391 
Q 3109 606 3145 398 
Q 3181 191 3288 0 
L 2700 0 
Q 2613 175 2588 409 
z
M 2541 1666 
Q 2234 1541 1622 1453 
Q 1275 1403 1131 1340 
Q 988 1278 909 1158 
Q 831 1038 831 891 
Q 831 666 1001 516 
Q 1172 366 1500 366 
Q 1825 366 2078 508 
Q 2331 650 2450 897 
Q 2541 1088 2541 1459 
L 2541 1666 
z
" transform="scale(0.015625)"/>
      <path id="ArialMT-74" d="M 1650 503 
L 1731 6 
Q 1494 -44 1306 -44 
Q 1000 -44 831 53 
Q 663 150 594 308 
Q 525 466 525 972 
L 525 2881 
L 113 2881 
L 113 3319 
L 525 3319 
L 525 4141 
L 1084 4478 
L 1084 3319 
L 1650 3319 
L 1650 2881 
L 1084 2881 
L 1084 941 
Q 1084 700 1114 631 
Q 1144 563 1211 522 
Q 1278 481 1403 481 
Q 1497 481 1650 503 
z
" transform="scale(0.015625)"/>
      <path id="ArialMT-69" d="M 425 3934 
L 425 4581 
L 988 4581 
L 988 3934 
L 425 3934 
z
M 425 0 
L 425 3319 
L 988 3319 
L 988 0 
L 425 0 
z
" transform="scale(0.015625)"/>
      <path id="ArialMT-5f" d="M -97 -1272 
L -97 -866 
L 3631 -866 
L 3631 -1272 
L -97 -1272 
z
" transform="scale(0.015625)"/>
      <path id="ArialMT-73" d="M 197 991 
L 753 1078 
Q 800 744 1014 566 
Q 1228 388 1613 388 
Q 2000 388 2187 545 
Q 2375 703 2375 916 
Q 2375 1106 2209 1216 
Q 2094 1291 1634 1406 
Q 1016 1563 777 1677 
Q 538 1791 414 1992 
Q 291 2194 291 2438 
Q 291 2659 392 2848 
Q 494 3038 669 3163 
Q 800 3259 1026 3326 
Q 1253 3394 1513 3394 
Q 1903 3394 2198 3281 
Q 2494 3169 2634 2976 
Q 2775 2784 2828 2463 
L 2278 2388 
Q 2241 2644 2061 2787 
Q 1881 2931 1553 2931 
Q 1166 2931 1000 2803 
Q 834 2675 834 2503 
Q 834 2394 903 2306 
Q 972 2216 1119 2156 
Q 1203 2125 1616 2013 
Q 2213 1853 2448 1751 
Q 2684 1650 2818 1456 
Q 2953 1263 2953 975 
Q 2953 694 2789 445 
Q 2625 197 2315 61 
Q 2006 -75 1616 -75 
Q 969 -75 630 194 
Q 291 463 197 991 
z
" transform="scale(0.015625)"/>
      <path id="ArialMT-6f" d="M 213 1659 
Q 213 2581 725 3025 
Q 1153 3394 1769 3394 
Q 2453 3394 2887 2945 
Q 3322 2497 3322 1706 
Q 3322 1066 3130 698 
Q 2938 331 2570 128 
Q 2203 -75 1769 -75 
Q 1072 -75 642 372 
Q 213 819 213 1659 
z
M 791 1659 
Q 791 1022 1069 705 
Q 1347 388 1769 388 
Q 2188 388 2466 706 
Q 2744 1025 2744 1678 
Q 2744 2294 2464 2611 
Q 2184 2928 1769 2928 
Q 1347 2928 1069 2612 
Q 791 2297 791 1659 
z
" transform="scale(0.015625)"/>
      <path id="ArialMT-64" d="M 2575 0 
L 2575 419 
Q 2259 -75 1647 -75 
Q 1250 -75 917 144 
Q 584 363 401 755 
Q 219 1147 219 1656 
Q 219 2153 384 2558 
Q 550 2963 881 3178 
Q 1213 3394 1622 3394 
Q 1922 3394 2156 3267 
Q 2391 3141 2538 2938 
L 2538 4581 
L 3097 4581 
L 3097 0 
L 2575 0 
z
M 797 1656 
Q 797 1019 1065 703 
Q 1334 388 1700 388 
Q 2069 388 2326 689 
Q 2584 991 2584 1609 
Q 2584 2291 2321 2609 
Q 2059 2928 1675 2928 
Q 1300 2928 1048 2622 
Q 797 2316 797 1656 
z
" transform="scale(0.015625)"/>
      <path id="ArialMT-2d" d="M 203 1375 
L 203 1941 
L 1931 1941 
L 1931 1375 
L 203 1375 
z
" transform="scale(0.015625)"/>
      <path id="ArialMT-50" d="M 494 0 
L 494 4581 
L 2222 4581 
Q 2678 4581 2919 4538 
Q 3256 4481 3484 4323 
Q 3713 4166 3852 3881 
Q 3991 3597 3991 3256 
Q 3991 2672 3619 2267 
Q 3247 1863 2275 1863 
L 1100 1863 
L 1100 0 
L 494 0 
z
M 1100 2403 
L 2284 2403 
Q 2872 2403 3119 2622 
Q 3366 2841 3366 3238 
Q 3366 3525 3220 3729 
Q 3075 3934 2838 4000 
Q 2684 4041 2272 4041 
L 1100 4041 
L 1100 2403 
z
" transform="scale(0.015625)"/>
      <path id="ArialMT-77" d="M 1034 0 
L 19 3319 
L 600 3319 
L 1128 1403 
L 1325 691 
Q 1338 744 1497 1375 
L 2025 3319 
L 2603 3319 
L 3100 1394 
L 3266 759 
L 3456 1400 
L 4025 3319 
L 4572 3319 
L 3534 0 
L 2950 0 
L 2422 1988 
L 2294 2553 
L 1622 0 
L 1034 0 
z
" transform="scale(0.015625)"/>
      <path id="ArialMT-6d" d="M 422 0 
L 422 3319 
L 925 3319 
L 925 2853 
Q 1081 3097 1340 3245 
Q 1600 3394 1931 3394 
Q 2300 3394 2536 3241 
Q 2772 3088 2869 2813 
Q 3263 3394 3894 3394 
Q 4388 3394 4653 3120 
Q 4919 2847 4919 2278 
L 4919 0 
L 4359 0 
L 4359 2091 
Q 4359 2428 4304 2576 
Q 4250 2725 4106 2815 
Q 3963 2906 3769 2906 
Q 3419 2906 3187 2673 
Q 2956 2441 2956 1928 
L 2956 0 
L 2394 0 
L 2394 2156 
Q 2394 2531 2256 2718 
Q 2119 2906 1806 2906 
Q 1569 2906 1367 2781 
Q 1166 2656 1075 2415 
Q 984 2175 984 1722 
L 984 0 
L 422 0 
z
" transform="scale(0.015625)"/>
     </defs>
     <use xlink:href="#ArialMT-70"/>
     <use xlink:href="#ArialMT-61" x="55.615234"/>
     <use xlink:href="#ArialMT-74" x="111.230469"/>
     <use xlink:href="#ArialMT-69" x="139.013672"/>
     <use xlink:href="#ArialMT-65" x="161.230469"/>
     <use xlink:href="#ArialMT-6e" x="216.845703"/>
     <use xlink:href="#ArialMT-74" x="272.460938"/>
     <use xlink:href="#ArialMT-31" x="300.244141"/>
     <use xlink:href="#ArialMT-34" x="355.859375"/>
     <use xlink:href="#ArialMT-5f" x="411.474609"/>
     <use xlink:href="#ArialMT-61" x="467.089844"/>
     <use xlink:href="#ArialMT-70" x="522.705078"/>
     <use xlink:href="#ArialMT-70" x="578.320312"/>
     <use xlink:href="#ArialMT-30" x="633.935547"/>
     <use xlink:href="#ArialMT-35" x="689.550781"/>
     <use xlink:href="#ArialMT-5f" x="745.166016"/>
     <use xlink:href="#ArialMT-73" x="800.78125"/>
     <use xlink:href="#ArialMT-65" x="850.78125"/>
     <use xlink:href="#ArialMT-63" x="906.396484"/>
     <use xlink:href="#ArialMT-6f" x="956.396484"/>
     <use xlink:href="#ArialMT-6e" x="1012.011719"/>
     <use xlink:href="#ArialMT-64" x="1067.626953"/>
     <use xlink:href="#ArialMT-20" x="1123.242188"/>
     <use xlink:href="#ArialMT-2d" x="1151.025391"/>
     <use xlink:href="#ArialMT-20" x="1184.326172"/>
     <use xlink:href="#ArialMT-50" x="1212.109375"/>
     <use xlink:href="#ArialMT-6f" x="1278.808594"/>
     <use xlink:href="#ArialMT-77" x="1334.423828"/>
     <use xlink:href="#ArialMT-65" x="1406.640625"/>
     <use xlink:href="#ArialMT-72" x="1462.255859"/>
     <use xlink:href="#ArialMT-20" x="1495.556641"/>
     <use xlink:href="#ArialMT-73" x="1523.339844"/>
     <use xlink:href="#ArialMT-70" x="1573.339844"/>
     <use xlink:href="#ArialMT-65" x="1628.955078"/>
     <use xlink:href="#ArialMT-63" x="1684.570312"/>
     <use xlink:href="#ArialMT-74" x="1734.570312"/>
     <use xlink:href="#ArialMT-72" x="1762.353516"/>
     <use xlink:href="#ArialMT-75" x="1795.654297"/>
     <use xlink:href="#ArialMT-6d" x="1851.269531"/>
    </g>
   </g>
  </g>
 </g>
 <defs>
  <clipPath id="p407797a22e">
   <rect x="54" y="34.56" width="334.8" height="217.44"/>
  </clipPath>
 </defs>
</svg>
