<?xml version="1.0" encoding="utf-8" standalone="no"?>
<!DOCTYPE svg PUBLIC "-//W3C//DTD SVG 1.1//EN"
  "http://www.w3.org/Graphics/SVG/1.1/DTD/svg11.dtd">
<svg xmlns:xlink="http://www.w3.org/1999/xlink" width="432pt" height="288pt" viewBox="0 0 432 288" xmlns="http://www.w3.org/2000/svg" version="1.1">
 <metadata>
  <rdf:RDF xmlns:dc="http://purl.org/dc/elements/1.1/" xmlns:cc="http://creativecommons.org/ns#" xmlns:rdf="http://www.w3.org/1999/02/22-rdf-syntax-ns#">
   <cc:Work>
    <dc:type rdf:resource="http://purl.org/dc/dcmitype/StillImage"/>
    <dc:date>2022-07-08T13:41:49.206795</dc:date>
    <dc:format>image/svg+xml</dc:format>
    <dc:creator>
     <cc:Agent>
      <dc:title>Matplotlib v3.5.1, https://matplotlib.org/</dc:title>
     </cc:Agent>
    </dc:creator>
   </cc:Work>
  </rdf:RDF>
 </metadata>
 <defs>
  <style type="text/css">*{stroke-linejoin: round; stroke-linecap: butt}</style>
 </defs>
 <g id="figure_1">
  <g id="patch_1">
   <path d="M 0 288 
L 432 288 
L 432 0 
L 0 0 
z
" style="fill: #ffffff"/>
  </g>
  <g id="axes_1">
   <g id="patch_2">
    <path d="M 54 252 
L 388.8 252 
L 388.8 34.56 
L 54 34.56 
z
" style="fill: #ffffff"/>
   </g>
   <g id="matplotlib.axis_1">
    <g id="xtick_1">
     <g id="line2d_1">
      <defs>
       <path id="mb7f82836ae" d="M 0 0 
L 0 6 
" style="stroke: #262626; stroke-width: 1.25"/>
      </defs>
      <g>
       <use xlink:href="#mb7f82836ae" x="54" y="252" style="fill: #262626; stroke: #262626; stroke-width: 1.25"/>
      </g>
     </g>
     <g id="text_1">
      <!-- 0 -->
      <g style="fill: #262626" transform="translate(50.941484 269.373594)scale(0.11 -0.11)">
       <defs>
        <path id="ArialMT-30" d="M 266 2259 
Q 266 3072 433 3567 
Q 600 4063 929 4331 
Q 1259 4600 1759 4600 
Q 2128 4600 2406 4451 
Q 2684 4303 2865 4023 
Q 3047 3744 3150 3342 
Q 3253 2941 3253 2259 
Q 3253 1453 3087 958 
Q 2922 463 2592 192 
Q 2263 -78 1759 -78 
Q 1097 -78 719 397 
Q 266 969 266 2259 
z
M 844 2259 
Q 844 1131 1108 757 
Q 1372 384 1759 384 
Q 2147 384 2411 759 
Q 2675 1134 2675 2259 
Q 2675 3391 2411 3762 
Q 2147 4134 1753 4134 
Q 1366 4134 1134 3806 
Q 844 3388 844 2259 
z
" transform="scale(0.015625)"/>
       </defs>
       <use xlink:href="#ArialMT-30"/>
      </g>
     </g>
    </g>
    <g id="xtick_2">
     <g id="line2d_2">
      <g>
       <use xlink:href="#mb7f82836ae" x="109.8" y="252" style="fill: #262626; stroke: #262626; stroke-width: 1.25"/>
      </g>
     </g>
     <g id="text_2">
      <!-- 5 -->
      <g style="fill: #262626" transform="translate(106.741484 269.373594)scale(0.11 -0.11)">
       <defs>
        <path id="ArialMT-35" d="M 266 1200 
L 856 1250 
Q 922 819 1161 601 
Q 1400 384 1738 384 
Q 2144 384 2425 690 
Q 2706 997 2706 1503 
Q 2706 1984 2436 2262 
Q 2166 2541 1728 2541 
Q 1456 2541 1237 2417 
Q 1019 2294 894 2097 
L 366 2166 
L 809 4519 
L 3088 4519 
L 3088 3981 
L 1259 3981 
L 1013 2750 
Q 1425 3038 1878 3038 
Q 2478 3038 2890 2622 
Q 3303 2206 3303 1553 
Q 3303 931 2941 478 
Q 2500 -78 1738 -78 
Q 1113 -78 717 272 
Q 322 622 266 1200 
z
" transform="scale(0.015625)"/>
       </defs>
       <use xlink:href="#ArialMT-35"/>
      </g>
     </g>
    </g>
    <g id="xtick_3">
     <g id="line2d_3">
      <g>
       <use xlink:href="#mb7f82836ae" x="165.6" y="252" style="fill: #262626; stroke: #262626; stroke-width: 1.25"/>
      </g>
     </g>
     <g id="text_3">
      <!-- 10 -->
      <g style="fill: #262626" transform="translate(159.482969 269.373594)scale(0.11 -0.11)">
       <defs>
        <path id="ArialMT-31" d="M 2384 0 
L 1822 0 
L 1822 3584 
Q 1619 3391 1289 3197 
Q 959 3003 697 2906 
L 697 3450 
Q 1169 3672 1522 3987 
Q 1875 4303 2022 4600 
L 2384 4600 
L 2384 0 
z
" transform="scale(0.015625)"/>
       </defs>
       <use xlink:href="#ArialMT-31"/>
       <use xlink:href="#ArialMT-30" x="55.615234"/>
      </g>
     </g>
    </g>
    <g id="xtick_4">
     <g id="line2d_4">
      <g>
       <use xlink:href="#mb7f82836ae" x="221.4" y="252" style="fill: #262626; stroke: #262626; stroke-width: 1.25"/>
      </g>
     </g>
     <g id="text_4">
      <!-- 15 -->
      <g style="fill: #262626" transform="translate(215.282969 269.373594)scale(0.11 -0.11)">
       <use xlink:href="#ArialMT-31"/>
       <use xlink:href="#ArialMT-35" x="55.615234"/>
      </g>
     </g>
    </g>
    <g id="xtick_5">
     <g id="line2d_5">
      <g>
       <use xlink:href="#mb7f82836ae" x="277.2" y="252" style="fill: #262626; stroke: #262626; stroke-width: 1.25"/>
      </g>
     </g>
     <g id="text_5">
      <!-- 20 -->
      <g style="fill: #262626" transform="translate(271.082969 269.373594)scale(0.11 -0.11)">
       <defs>
        <path id="ArialMT-32" d="M 3222 541 
L 3222 0 
L 194 0 
Q 188 203 259 391 
Q 375 700 629 1000 
Q 884 1300 1366 1694 
Q 2113 2306 2375 2664 
Q 2638 3022 2638 3341 
Q 2638 3675 2398 3904 
Q 2159 4134 1775 4134 
Q 1369 4134 1125 3890 
Q 881 3647 878 3216 
L 300 3275 
Q 359 3922 746 4261 
Q 1134 4600 1788 4600 
Q 2447 4600 2831 4234 
Q 3216 3869 3216 3328 
Q 3216 3053 3103 2787 
Q 2991 2522 2730 2228 
Q 2469 1934 1863 1422 
Q 1356 997 1212 845 
Q 1069 694 975 541 
L 3222 541 
z
" transform="scale(0.015625)"/>
       </defs>
       <use xlink:href="#ArialMT-32"/>
       <use xlink:href="#ArialMT-30" x="55.615234"/>
      </g>
     </g>
    </g>
    <g id="xtick_6">
     <g id="line2d_6">
      <g>
       <use xlink:href="#mb7f82836ae" x="333" y="252" style="fill: #262626; stroke: #262626; stroke-width: 1.25"/>
      </g>
     </g>
     <g id="text_6">
      <!-- 25 -->
      <g style="fill: #262626" transform="translate(326.882969 269.373594)scale(0.11 -0.11)">
       <use xlink:href="#ArialMT-32"/>
       <use xlink:href="#ArialMT-35" x="55.615234"/>
      </g>
     </g>
    </g>
    <g id="xtick_7">
     <g id="line2d_7">
      <g>
       <use xlink:href="#mb7f82836ae" x="388.8" y="252" style="fill: #262626; stroke: #262626; stroke-width: 1.25"/>
      </g>
     </g>
     <g id="text_7">
      <!-- 30 -->
      <g style="fill: #262626" transform="translate(382.682969 269.373594)scale(0.11 -0.11)">
       <defs>
        <path id="ArialMT-33" d="M 269 1209 
L 831 1284 
Q 928 806 1161 595 
Q 1394 384 1728 384 
Q 2125 384 2398 659 
Q 2672 934 2672 1341 
Q 2672 1728 2419 1979 
Q 2166 2231 1775 2231 
Q 1616 2231 1378 2169 
L 1441 2663 
Q 1497 2656 1531 2656 
Q 1891 2656 2178 2843 
Q 2466 3031 2466 3422 
Q 2466 3731 2256 3934 
Q 2047 4138 1716 4138 
Q 1388 4138 1169 3931 
Q 950 3725 888 3313 
L 325 3413 
Q 428 3978 793 4289 
Q 1159 4600 1703 4600 
Q 2078 4600 2393 4439 
Q 2709 4278 2876 4000 
Q 3044 3722 3044 3409 
Q 3044 3113 2884 2869 
Q 2725 2625 2413 2481 
Q 2819 2388 3044 2092 
Q 3269 1797 3269 1353 
Q 3269 753 2831 336 
Q 2394 -81 1725 -81 
Q 1122 -81 723 278 
Q 325 638 269 1209 
z
" transform="scale(0.015625)"/>
       </defs>
       <use xlink:href="#ArialMT-33"/>
       <use xlink:href="#ArialMT-30" x="55.615234"/>
      </g>
     </g>
    </g>
    <g id="text_8">
     <!-- Frequency (Hz) -->
     <g style="fill: #262626" transform="translate(180.059063 284.295469)scale(0.12 -0.12)">
      <defs>
       <path id="ArialMT-46" d="M 525 0 
L 525 4581 
L 3616 4581 
L 3616 4041 
L 1131 4041 
L 1131 2622 
L 3281 2622 
L 3281 2081 
L 1131 2081 
L 1131 0 
L 525 0 
z
" transform="scale(0.015625)"/>
       <path id="ArialMT-72" d="M 416 0 
L 416 3319 
L 922 3319 
L 922 2816 
Q 1116 3169 1280 3281 
Q 1444 3394 1641 3394 
Q 1925 3394 2219 3213 
L 2025 2691 
Q 1819 2813 1613 2813 
Q 1428 2813 1281 2702 
Q 1134 2591 1072 2394 
Q 978 2094 978 1738 
L 978 0 
L 416 0 
z
" transform="scale(0.015625)"/>
       <path id="ArialMT-65" d="M 2694 1069 
L 3275 997 
Q 3138 488 2766 206 
Q 2394 -75 1816 -75 
Q 1088 -75 661 373 
Q 234 822 234 1631 
Q 234 2469 665 2931 
Q 1097 3394 1784 3394 
Q 2450 3394 2872 2941 
Q 3294 2488 3294 1666 
Q 3294 1616 3291 1516 
L 816 1516 
Q 847 969 1125 678 
Q 1403 388 1819 388 
Q 2128 388 2347 550 
Q 2566 713 2694 1069 
z
M 847 1978 
L 2700 1978 
Q 2663 2397 2488 2606 
Q 2219 2931 1791 2931 
Q 1403 2931 1139 2672 
Q 875 2413 847 1978 
z
" transform="scale(0.015625)"/>
       <path id="ArialMT-71" d="M 2538 -1272 
L 2538 353 
Q 2406 169 2170 47 
Q 1934 -75 1669 -75 
Q 1078 -75 651 397 
Q 225 869 225 1691 
Q 225 2191 398 2587 
Q 572 2984 901 3189 
Q 1231 3394 1625 3394 
Q 2241 3394 2594 2875 
L 2594 3319 
L 3100 3319 
L 3100 -1272 
L 2538 -1272 
z
M 803 1669 
Q 803 1028 1072 708 
Q 1341 388 1716 388 
Q 2075 388 2334 692 
Q 2594 997 2594 1619 
Q 2594 2281 2320 2615 
Q 2047 2950 1678 2950 
Q 1313 2950 1058 2639 
Q 803 2328 803 1669 
z
" transform="scale(0.015625)"/>
       <path id="ArialMT-75" d="M 2597 0 
L 2597 488 
Q 2209 -75 1544 -75 
Q 1250 -75 995 37 
Q 741 150 617 320 
Q 494 491 444 738 
Q 409 903 409 1263 
L 409 3319 
L 972 3319 
L 972 1478 
Q 972 1038 1006 884 
Q 1059 663 1231 536 
Q 1403 409 1656 409 
Q 1909 409 2131 539 
Q 2353 669 2445 892 
Q 2538 1116 2538 1541 
L 2538 3319 
L 3100 3319 
L 3100 0 
L 2597 0 
z
" transform="scale(0.015625)"/>
       <path id="ArialMT-6e" d="M 422 0 
L 422 3319 
L 928 3319 
L 928 2847 
Q 1294 3394 1984 3394 
Q 2284 3394 2536 3286 
Q 2788 3178 2913 3003 
Q 3038 2828 3088 2588 
Q 3119 2431 3119 2041 
L 3119 0 
L 2556 0 
L 2556 2019 
Q 2556 2363 2490 2533 
Q 2425 2703 2258 2804 
Q 2091 2906 1866 2906 
Q 1506 2906 1245 2678 
Q 984 2450 984 1813 
L 984 0 
L 422 0 
z
" transform="scale(0.015625)"/>
       <path id="ArialMT-63" d="M 2588 1216 
L 3141 1144 
Q 3050 572 2676 248 
Q 2303 -75 1759 -75 
Q 1078 -75 664 370 
Q 250 816 250 1647 
Q 250 2184 428 2587 
Q 606 2991 970 3192 
Q 1334 3394 1763 3394 
Q 2303 3394 2647 3120 
Q 2991 2847 3088 2344 
L 2541 2259 
Q 2463 2594 2264 2762 
Q 2066 2931 1784 2931 
Q 1359 2931 1093 2626 
Q 828 2322 828 1663 
Q 828 994 1084 691 
Q 1341 388 1753 388 
Q 2084 388 2306 591 
Q 2528 794 2588 1216 
z
" transform="scale(0.015625)"/>
       <path id="ArialMT-79" d="M 397 -1278 
L 334 -750 
Q 519 -800 656 -800 
Q 844 -800 956 -737 
Q 1069 -675 1141 -563 
Q 1194 -478 1313 -144 
Q 1328 -97 1363 -6 
L 103 3319 
L 709 3319 
L 1400 1397 
Q 1534 1031 1641 628 
Q 1738 1016 1872 1384 
L 2581 3319 
L 3144 3319 
L 1881 -56 
Q 1678 -603 1566 -809 
Q 1416 -1088 1222 -1217 
Q 1028 -1347 759 -1347 
Q 597 -1347 397 -1278 
z
" transform="scale(0.015625)"/>
       <path id="ArialMT-20" transform="scale(0.015625)"/>
       <path id="ArialMT-28" d="M 1497 -1347 
Q 1031 -759 709 28 
Q 388 816 388 1659 
Q 388 2403 628 3084 
Q 909 3875 1497 4659 
L 1900 4659 
Q 1522 4009 1400 3731 
Q 1209 3300 1100 2831 
Q 966 2247 966 1656 
Q 966 153 1900 -1347 
L 1497 -1347 
z
" transform="scale(0.015625)"/>
       <path id="ArialMT-48" d="M 513 0 
L 513 4581 
L 1119 4581 
L 1119 2700 
L 3500 2700 
L 3500 4581 
L 4106 4581 
L 4106 0 
L 3500 0 
L 3500 2159 
L 1119 2159 
L 1119 0 
L 513 0 
z
" transform="scale(0.015625)"/>
       <path id="ArialMT-7a" d="M 125 0 
L 125 456 
L 2238 2881 
Q 1878 2863 1603 2863 
L 250 2863 
L 250 3319 
L 2963 3319 
L 2963 2947 
L 1166 841 
L 819 456 
Q 1197 484 1528 484 
L 3063 484 
L 3063 0 
L 125 0 
z
" transform="scale(0.015625)"/>
       <path id="ArialMT-29" d="M 791 -1347 
L 388 -1347 
Q 1322 153 1322 1656 
Q 1322 2244 1188 2822 
Q 1081 3291 891 3722 
Q 769 4003 388 4659 
L 791 4659 
Q 1378 3875 1659 3084 
Q 1900 2403 1900 1659 
Q 1900 816 1576 28 
Q 1253 -759 791 -1347 
z
" transform="scale(0.015625)"/>
      </defs>
      <use xlink:href="#ArialMT-46"/>
      <use xlink:href="#ArialMT-72" x="61.083984"/>
      <use xlink:href="#ArialMT-65" x="94.384766"/>
      <use xlink:href="#ArialMT-71" x="150"/>
      <use xlink:href="#ArialMT-75" x="205.615234"/>
      <use xlink:href="#ArialMT-65" x="261.230469"/>
      <use xlink:href="#ArialMT-6e" x="316.845703"/>
      <use xlink:href="#ArialMT-63" x="372.460938"/>
      <use xlink:href="#ArialMT-79" x="422.460938"/>
      <use xlink:href="#ArialMT-20" x="472.460938"/>
      <use xlink:href="#ArialMT-28" x="500.244141"/>
      <use xlink:href="#ArialMT-48" x="533.544922"/>
      <use xlink:href="#ArialMT-7a" x="605.761719"/>
      <use xlink:href="#ArialMT-29" x="655.761719"/>
     </g>
    </g>
   </g>
   <g id="matplotlib.axis_2">
    <g id="ytick_1">
     <g id="line2d_8">
      <defs>
       <path id="m51cf36bf60" d="M 0 0 
L -6 0 
" style="stroke: #262626; stroke-width: 1.25"/>
      </defs>
      <g>
       <use xlink:href="#m51cf36bf60" x="54" y="242.116364" style="fill: #262626; stroke: #262626; stroke-width: 1.25"/>
      </g>
     </g>
     <g id="text_9">
      <!-- 0.0 -->
      <g style="fill: #262626" transform="translate(29.21 246.053161)scale(0.11 -0.11)">
       <defs>
        <path id="ArialMT-2e" d="M 581 0 
L 581 641 
L 1222 641 
L 1222 0 
L 581 0 
z
" transform="scale(0.015625)"/>
       </defs>
       <use xlink:href="#ArialMT-30"/>
       <use xlink:href="#ArialMT-2e" x="55.615234"/>
       <use xlink:href="#ArialMT-30" x="83.398438"/>
      </g>
     </g>
    </g>
    <g id="ytick_2">
     <g id="line2d_9">
      <g>
       <use xlink:href="#m51cf36bf60" x="54" y="202.581818" style="fill: #262626; stroke: #262626; stroke-width: 1.25"/>
      </g>
     </g>
     <g id="text_10">
      <!-- 0.2 -->
      <g style="fill: #262626" transform="translate(29.21 206.518615)scale(0.11 -0.11)">
       <use xlink:href="#ArialMT-30"/>
       <use xlink:href="#ArialMT-2e" x="55.615234"/>
       <use xlink:href="#ArialMT-32" x="83.398438"/>
      </g>
     </g>
    </g>
    <g id="ytick_3">
     <g id="line2d_10">
      <g>
       <use xlink:href="#m51cf36bf60" x="54" y="163.047273" style="fill: #262626; stroke: #262626; stroke-width: 1.25"/>
      </g>
     </g>
     <g id="text_11">
      <!-- 0.4 -->
      <g style="fill: #262626" transform="translate(29.21 166.98407)scale(0.11 -0.11)">
       <defs>
        <path id="ArialMT-34" d="M 2069 0 
L 2069 1097 
L 81 1097 
L 81 1613 
L 2172 4581 
L 2631 4581 
L 2631 1613 
L 3250 1613 
L 3250 1097 
L 2631 1097 
L 2631 0 
L 2069 0 
z
M 2069 1613 
L 2069 3678 
L 634 1613 
L 2069 1613 
z
" transform="scale(0.015625)"/>
       </defs>
       <use xlink:href="#ArialMT-30"/>
       <use xlink:href="#ArialMT-2e" x="55.615234"/>
       <use xlink:href="#ArialMT-34" x="83.398438"/>
      </g>
     </g>
    </g>
    <g id="ytick_4">
     <g id="line2d_11">
      <g>
       <use xlink:href="#m51cf36bf60" x="54" y="123.512727" style="fill: #262626; stroke: #262626; stroke-width: 1.25"/>
      </g>
     </g>
     <g id="text_12">
      <!-- 0.6 -->
      <g style="fill: #262626" transform="translate(29.21 127.449524)scale(0.11 -0.11)">
       <defs>
        <path id="ArialMT-36" d="M 3184 3459 
L 2625 3416 
Q 2550 3747 2413 3897 
Q 2184 4138 1850 4138 
Q 1581 4138 1378 3988 
Q 1113 3794 959 3422 
Q 806 3050 800 2363 
Q 1003 2672 1297 2822 
Q 1591 2972 1913 2972 
Q 2475 2972 2870 2558 
Q 3266 2144 3266 1488 
Q 3266 1056 3080 686 
Q 2894 316 2569 119 
Q 2244 -78 1831 -78 
Q 1128 -78 684 439 
Q 241 956 241 2144 
Q 241 3472 731 4075 
Q 1159 4600 1884 4600 
Q 2425 4600 2770 4297 
Q 3116 3994 3184 3459 
z
M 888 1484 
Q 888 1194 1011 928 
Q 1134 663 1356 523 
Q 1578 384 1822 384 
Q 2178 384 2434 671 
Q 2691 959 2691 1453 
Q 2691 1928 2437 2201 
Q 2184 2475 1800 2475 
Q 1419 2475 1153 2201 
Q 888 1928 888 1484 
z
" transform="scale(0.015625)"/>
       </defs>
       <use xlink:href="#ArialMT-30"/>
       <use xlink:href="#ArialMT-2e" x="55.615234"/>
       <use xlink:href="#ArialMT-36" x="83.398438"/>
      </g>
     </g>
    </g>
    <g id="ytick_5">
     <g id="line2d_12">
      <g>
       <use xlink:href="#m51cf36bf60" x="54" y="83.978182" style="fill: #262626; stroke: #262626; stroke-width: 1.25"/>
      </g>
     </g>
     <g id="text_13">
      <!-- 0.8 -->
      <g style="fill: #262626" transform="translate(29.21 87.914979)scale(0.11 -0.11)">
       <defs>
        <path id="ArialMT-38" d="M 1131 2484 
Q 781 2613 612 2850 
Q 444 3088 444 3419 
Q 444 3919 803 4259 
Q 1163 4600 1759 4600 
Q 2359 4600 2725 4251 
Q 3091 3903 3091 3403 
Q 3091 3084 2923 2848 
Q 2756 2613 2416 2484 
Q 2838 2347 3058 2040 
Q 3278 1734 3278 1309 
Q 3278 722 2862 322 
Q 2447 -78 1769 -78 
Q 1091 -78 675 323 
Q 259 725 259 1325 
Q 259 1772 486 2073 
Q 713 2375 1131 2484 
z
M 1019 3438 
Q 1019 3113 1228 2906 
Q 1438 2700 1772 2700 
Q 2097 2700 2305 2904 
Q 2513 3109 2513 3406 
Q 2513 3716 2298 3927 
Q 2084 4138 1766 4138 
Q 1444 4138 1231 3931 
Q 1019 3725 1019 3438 
z
M 838 1322 
Q 838 1081 952 856 
Q 1066 631 1291 507 
Q 1516 384 1775 384 
Q 2178 384 2440 643 
Q 2703 903 2703 1303 
Q 2703 1709 2433 1975 
Q 2163 2241 1756 2241 
Q 1359 2241 1098 1978 
Q 838 1716 838 1322 
z
" transform="scale(0.015625)"/>
       </defs>
       <use xlink:href="#ArialMT-30"/>
       <use xlink:href="#ArialMT-2e" x="55.615234"/>
       <use xlink:href="#ArialMT-38" x="83.398438"/>
      </g>
     </g>
    </g>
    <g id="ytick_6">
     <g id="line2d_13">
      <g>
       <use xlink:href="#m51cf36bf60" x="54" y="44.443636" style="fill: #262626; stroke: #262626; stroke-width: 1.25"/>
      </g>
     </g>
     <g id="text_14">
      <!-- 1.0 -->
      <g style="fill: #262626" transform="translate(29.21 48.380433)scale(0.11 -0.11)">
       <use xlink:href="#ArialMT-31"/>
       <use xlink:href="#ArialMT-2e" x="55.615234"/>
       <use xlink:href="#ArialMT-30" x="83.398438"/>
      </g>
     </g>
    </g>
   </g>
   <g id="line2d_14">
    <path d="M 54 242.116141 
L 155.454545 242.026055 
L 158.409532 241.99641 
L 159.394528 242.012263 
L 160.379523 241.569997 
L 161.364519 241.494393 
L 162.349515 240.573185 
L 163.33451 240.320707 
L 164.319506 241.07433 
L 165.304501 240.556248 
L 166.289497 239.75169 
L 167.274492 239.359632 
L 168.259488 237.968566 
L 169.244484 236.890243 
L 170.229479 240.37325 
L 171.214475 235.954657 
L 172.19947 235.520256 
L 173.184466 238.905975 
L 174.169462 240.726375 
L 175.154457 236.326219 
L 176.139453 237.440038 
L 177.124448 239.350808 
L 179.09444 241.765977 
L 180.079435 239.201053 
L 181.064431 238.401586 
L 182.049426 241.446688 
L 183.034422 236.726698 
L 184.019417 241.716973 
L 185.004413 241.596207 
L 185.989409 241.180863 
L 186.974404 239.795191 
L 187.9594 241.276285 
L 188.944395 241.352326 
L 189.929391 240.618677 
L 190.914387 239.667977 
L 191.899382 239.393402 
L 192.884378 241.263557 
L 193.869373 239.59971 
L 194.854369 236.21888 
L 195.839365 238.645976 
L 196.82436 239.054821 
L 197.809356 237.765093 
L 198.794351 238.448048 
L 199.779347 239.693671 
L 200.764342 237.540554 
L 201.749338 238.509374 
L 203.719329 239.778976 
L 204.704325 238.870324 
L 205.68932 238.673675 
L 206.674316 241.153345 
L 207.659312 242.022588 
L 208.644307 241.026377 
L 209.629303 241.12715 
L 210.614298 240.283548 
L 211.599294 241.989793 
L 212.584289 241.711296 
L 213.569285 239.633034 
L 214.554281 239.930809 
L 215.539276 239.789737 
L 216.524272 240.168332 
L 217.509267 239.44103 
L 218.494263 236.577231 
L 219.479259 240.158344 
L 220.464254 237.11088 
L 221.44925 241.050055 
L 222.434245 242.024682 
L 223.419241 241.275124 
L 224.404237 235.460688 
L 225.389232 225.276613 
L 226.374228 196.09343 
L 227.359223 200.802701 
L 228.344219 44.443636 
L 229.329214 231.020841 
L 230.31421 211.147835 
L 231.299206 230.579035 
L 232.284201 237.06881 
L 233.269197 240.32476 
L 234.254192 237.350332 
L 235.239188 241.139742 
L 236.224184 241.215733 
L 237.209179 240.409058 
L 238.194175 241.06699 
L 239.17917 241.225976 
L 240.164166 241.730552 
L 241.149162 241.095334 
L 242.134157 237.992178 
L 243.119153 241.024018 
L 244.104148 241.906921 
L 245.089144 241.654129 
L 246.074139 241.911832 
L 247.059135 241.810122 
L 248.044131 242.114493 
L 249.029126 241.937599 
L 250.014122 242.09755 
L 250.999117 241.855531 
L 251.984113 242.066614 
L 252.969109 241.764705 
L 253.954104 241.822208 
L 254.9391 242.02744 
L 255.924095 241.557408 
L 256.909091 242.076639 
L 257.894086 241.862753 
L 258.879082 242.113066 
L 259.864078 241.891991 
L 260.849073 241.42938 
L 261.834069 242.019012 
L 262.819064 241.893245 
L 263.80406 242.113827 
L 264.789056 242.112012 
L 265.774051 241.923076 
L 267.744042 241.997895 
L 272.66902 242.101832 
L 273.654016 241.929392 
L 274.639011 242.087746 
L 276.609003 241.970197 
L 279.563989 242.072715 
L 291.383936 242.070037 
L 301.233892 242.105529 
L 372.153575 242.114478 
L 388.8985 242.114868 
L 388.8985 242.114868 
" clip-path="url(#pd996aa2261)" style="fill: none; stroke: #4c72b0; stroke-opacity: 0.3; stroke-width: 1.5; stroke-linecap: round"/>
   </g>
   <g id="line2d_15">
    <path d="M 54 242.115211 
L 149.544572 242.102787 
L 150.529568 241.972237 
L 153.484554 242.100265 
L 155.454545 242.066478 
L 156.439541 242.107025 
L 158.409532 241.962302 
L 159.394528 240.851623 
L 160.379523 241.913917 
L 161.364519 241.233069 
L 162.349515 239.15622 
L 163.33451 241.170021 
L 164.319506 241.822461 
L 165.304501 234.062429 
L 166.289497 237.621782 
L 167.274492 230.547411 
L 168.259488 235.022292 
L 169.244484 227.82372 
L 170.229479 237.972546 
L 171.214475 238.421751 
L 172.19947 234.13802 
L 173.184466 228.76103 
L 174.169462 232.854146 
L 175.154457 233.261509 
L 176.139453 233.967041 
L 177.124448 241.550154 
L 178.109444 230.235716 
L 179.09444 239.147518 
L 180.079435 241.462925 
L 181.064431 226.725507 
L 182.049426 234.288225 
L 183.034422 227.03295 
L 184.019417 239.094183 
L 185.004413 241.440994 
L 185.989409 241.098191 
L 186.974404 237.104151 
L 188.944395 204.565892 
L 189.929391 237.27903 
L 190.914387 230.674465 
L 191.899382 226.440625 
L 192.884378 230.616167 
L 193.869373 239.852969 
L 194.854369 233.712853 
L 195.839365 218.908769 
L 196.82436 226.129123 
L 197.809356 237.908557 
L 198.794351 237.853205 
L 199.779347 240.917861 
L 200.764342 221.974753 
L 201.749338 223.237537 
L 202.734334 241.858968 
L 203.719329 241.877543 
L 205.68932 240.780065 
L 206.674316 240.815551 
L 207.659312 241.58828 
L 208.644307 239.465597 
L 209.629303 240.541253 
L 210.614298 240.426148 
L 211.599294 239.611717 
L 212.584289 240.924106 
L 213.569285 234.647506 
L 214.554281 236.603421 
L 215.539276 230.97198 
L 216.524272 223.117037 
L 217.509267 232.519465 
L 218.494263 237.551725 
L 219.479259 232.531958 
L 220.464254 237.70075 
L 221.44925 237.000027 
L 222.434245 241.084209 
L 223.419241 236.480982 
L 224.404237 239.89212 
L 225.389232 235.613016 
L 226.374228 221.073895 
L 227.359223 238.781192 
L 228.344219 44.443636 
L 229.329214 240.743616 
L 230.31421 208.488261 
L 231.299206 223.973986 
L 232.284201 232.639481 
L 233.269197 239.355749 
L 234.254192 240.87861 
L 235.239188 235.295773 
L 236.224184 236.519359 
L 237.209179 241.823333 
L 238.194175 239.125064 
L 239.17917 240.426582 
L 240.164166 237.940596 
L 241.149162 237.342673 
L 242.134157 239.579923 
L 243.119153 240.800245 
L 244.104148 241.810405 
L 245.089144 241.428876 
L 246.074139 241.744705 
L 247.059135 238.524286 
L 248.044131 241.708706 
L 249.029126 239.791832 
L 250.014122 237.23842 
L 250.999117 236.924078 
L 251.984113 235.800883 
L 252.969109 239.102164 
L 253.954104 239.652741 
L 254.9391 240.983371 
L 255.924095 242.079438 
L 256.909091 240.198258 
L 257.894086 242.108923 
L 258.879082 241.345666 
L 259.864078 241.228663 
L 260.849073 241.770028 
L 261.834069 241.554909 
L 262.819064 241.619202 
L 263.80406 241.041215 
L 264.789056 241.419674 
L 265.774051 242.080155 
L 266.759047 240.59519 
L 267.744042 241.134191 
L 268.729038 241.973305 
L 269.714034 241.824264 
L 270.699029 242.104754 
L 272.66902 241.693567 
L 273.654016 242.11254 
L 274.639011 241.879242 
L 275.624007 241.863237 
L 276.609003 241.236645 
L 277.593998 241.636224 
L 278.578994 241.541376 
L 279.563989 242.078178 
L 280.548985 242.002215 
L 282.518976 242.114952 
L 301.233892 242.113956 
L 348.51368 242.11623 
L 388.8985 242.116211 
L 388.8985 242.116211 
" clip-path="url(#pd996aa2261)" style="fill: none; stroke: #dd8452; stroke-opacity: 0.3; stroke-width: 1.5; stroke-linecap: round"/>
   </g>
   <g id="line2d_16">
    <path d="M 54 241.840568 
L 126.889673 241.730109 
L 148.559576 241.620903 
L 150.529568 241.424154 
L 152.499559 240.757641 
L 153.484554 239.996609 
L 154.46955 239.871108 
L 155.454545 238.844113 
L 156.439541 236.681808 
L 157.424537 233.40249 
L 158.409532 228.720046 
L 159.394528 232.315617 
L 160.379523 224.51805 
L 161.364519 212.680352 
L 162.349515 226.207288 
L 163.33451 228.815715 
L 164.319506 224.281389 
L 165.304501 212.460755 
L 166.289497 220.261236 
L 167.274492 216.65391 
L 168.259488 235.251416 
L 170.229479 241.042383 
L 172.19947 231.859908 
L 173.184466 220.331505 
L 174.169462 238.693699 
L 175.154457 225.358213 
L 176.139453 224.19643 
L 177.124448 238.670089 
L 178.109444 241.274026 
L 179.09444 238.901161 
L 180.079435 235.939872 
L 181.064431 212.693966 
L 182.049426 211.555377 
L 183.034422 234.371691 
L 184.019417 221.779974 
L 185.004413 187.062289 
L 185.989409 203.834294 
L 186.974404 113.494802 
L 187.9594 201.874514 
L 188.944395 174.387202 
L 189.929391 119.687268 
L 190.914387 153.49711 
L 191.899382 160.479786 
L 192.884378 169.316465 
L 193.869373 195.842678 
L 194.854369 130.067339 
L 195.839365 136.091752 
L 196.82436 191.558856 
L 197.809356 215.788691 
L 198.794351 215.004052 
L 199.779347 218.114545 
L 200.764342 215.736047 
L 201.749338 227.262901 
L 202.734334 186.121653 
L 203.719329 205.992356 
L 204.704325 216.041456 
L 205.68932 194.770295 
L 206.674316 203.320833 
L 207.659312 216.274615 
L 208.644307 234.57625 
L 209.629303 210.149234 
L 210.614298 231.531353 
L 211.599294 237.904075 
L 212.584289 226.540275 
L 213.569285 230.17492 
L 215.539276 240.189701 
L 216.524272 229.481598 
L 217.509267 187.514902 
L 218.494263 224.996775 
L 219.479259 226.127134 
L 220.464254 216.323998 
L 221.44925 189.378926 
L 222.434245 206.041796 
L 223.419241 213.00938 
L 224.404237 224.384022 
L 225.389232 206.262159 
L 226.374228 44.443636 
L 227.359223 48.218123 
L 228.344219 64.121631 
L 229.329214 164.463113 
L 230.31421 224.409728 
L 231.299206 194.380179 
L 232.284201 185.687578 
L 233.269197 202.575847 
L 234.254192 209.141585 
L 235.239188 201.49486 
L 236.224184 173.804447 
L 237.209179 181.463245 
L 238.194175 210.976994 
L 239.17917 215.115356 
L 240.164166 229.652689 
L 241.149162 227.000572 
L 243.119153 233.951214 
L 244.104148 220.690994 
L 245.089144 237.77458 
L 246.074139 234.014386 
L 247.059135 241.912992 
L 248.044131 233.100028 
L 249.029126 241.154268 
L 250.014122 237.646504 
L 250.999117 223.133486 
L 251.984113 227.447018 
L 252.969109 221.090123 
L 253.954104 223.041738 
L 254.9391 234.534845 
L 255.924095 226.056202 
L 256.909091 230.583729 
L 257.894086 234.344938 
L 258.879082 223.930653 
L 259.864078 240.261015 
L 260.849073 236.821896 
L 261.834069 239.765781 
L 262.819064 234.135041 
L 263.80406 236.665365 
L 264.789056 233.714171 
L 265.774051 237.646192 
L 266.759047 237.191558 
L 267.744042 240.712195 
L 269.714034 234.133298 
L 270.699029 230.826256 
L 271.684025 235.210722 
L 272.66902 225.515288 
L 273.654016 238.257547 
L 274.639011 231.60029 
L 276.609003 239.535126 
L 277.593998 239.184388 
L 278.578994 239.607597 
L 279.563989 238.685505 
L 280.548985 239.437082 
L 281.533981 239.415944 
L 282.518976 238.658748 
L 283.503972 239.508763 
L 284.488967 239.492733 
L 285.473963 238.915661 
L 286.458959 240.20205 
L 287.443954 240.331147 
L 288.42895 240.644011 
L 290.398941 240.407561 
L 291.383936 240.897959 
L 294.338923 240.973798 
L 295.323919 241.260561 
L 296.308914 240.863998 
L 297.29391 241.18619 
L 298.278906 241.328618 
L 301.233892 241.464494 
L 304.188879 241.600823 
L 307.143866 241.638621 
L 310.098853 241.730535 
L 314.038835 241.78843 
L 320.933804 241.880248 
L 365.258605 242.047027 
L 388.8985 242.072784 
L 388.8985 242.072784 
" clip-path="url(#pd996aa2261)" style="fill: none; stroke: #55a868; stroke-opacity: 0.3; stroke-width: 1.5; stroke-linecap: round"/>
   </g>
   <g id="line2d_17">
    <path d="M 54 242.116138 
L 156.439541 242.008195 
L 159.394528 241.95617 
L 160.379523 241.589552 
L 161.364519 241.420414 
L 162.349515 240.509902 
L 164.319506 241.217679 
L 165.304501 240.804201 
L 166.289497 239.909584 
L 167.274492 239.44136 
L 168.259488 238.721103 
L 169.244484 238.426496 
L 170.229479 240.247188 
L 171.214475 236.975035 
L 172.19947 236.51331 
L 173.184466 239.611321 
L 174.169462 239.702875 
L 175.154457 236.970993 
L 176.139453 238.173237 
L 177.124448 238.873477 
L 178.109444 240.394892 
L 179.09444 241.610916 
L 181.064431 238.228259 
L 182.049426 240.662395 
L 183.034422 237.430867 
L 184.019417 240.736761 
L 185.004413 241.432252 
L 185.989409 240.913243 
L 186.974404 239.917219 
L 187.9594 241.294089 
L 188.944395 241.695776 
L 189.929391 241.27201 
L 190.914387 239.649688 
L 191.899382 239.591279 
L 192.884378 241.309496 
L 193.869373 240.191599 
L 194.854369 236.109899 
L 195.839365 240.527819 
L 196.82436 240.463743 
L 197.809356 239.773321 
L 199.779347 240.554412 
L 200.764342 239.679371 
L 201.749338 239.576874 
L 202.734334 240.066632 
L 203.719329 239.641751 
L 204.704325 238.348347 
L 205.68932 239.070015 
L 206.674316 241.307985 
L 207.659312 242.092759 
L 208.644307 241.769715 
L 209.629303 241.202093 
L 210.614298 239.924022 
L 211.599294 241.99415 
L 212.584289 241.446243 
L 213.569285 240.037602 
L 214.554281 240.134945 
L 215.539276 241.003044 
L 216.524272 240.079593 
L 217.509267 240.117078 
L 218.494263 237.72905 
L 219.479259 239.831551 
L 220.464254 236.339683 
L 221.44925 241.17805 
L 222.434245 241.795113 
L 223.419241 241.651827 
L 224.404237 237.627464 
L 225.389232 223.618918 
L 226.374228 196.938102 
L 227.359223 201.297731 
L 228.344219 44.443636 
L 229.329214 235.561457 
L 230.31421 208.905984 
L 231.299206 227.958168 
L 232.284201 236.68826 
L 233.269197 240.25432 
L 234.254192 238.389849 
L 235.239188 241.494139 
L 236.224184 240.986501 
L 237.209179 240.318638 
L 239.17917 241.294827 
L 240.164166 241.78066 
L 241.149162 241.338939 
L 242.134157 238.835817 
L 243.119153 240.615859 
L 244.104148 241.674815 
L 245.089144 241.947046 
L 246.074139 241.830766 
L 248.044131 242.086261 
L 249.029126 241.921885 
L 250.014122 242.053017 
L 250.999117 241.838384 
L 251.984113 242.080498 
L 252.969109 241.626182 
L 253.954104 241.905449 
L 254.9391 241.868059 
L 255.924095 241.515392 
L 256.909091 242.10556 
L 257.894086 241.824265 
L 258.879082 242.066398 
L 260.849073 241.806838 
L 261.834069 241.951808 
L 268.729038 242.020649 
L 270.699029 242.027122 
L 275.624007 242.080576 
L 277.593998 242.070401 
L 283.503972 242.09491 
L 292.368932 242.080941 
L 307.143866 242.107275 
L 388.8985 242.114898 
L 388.8985 242.114898 
" clip-path="url(#pd996aa2261)" style="fill: none; stroke: #c44e52; stroke-opacity: 0.3; stroke-width: 1.5; stroke-linecap: round"/>
   </g>
   <g id="line2d_18">
    <path d="M 54 242.115793 
L 149.544572 242.096909 
L 150.529568 241.992646 
L 153.484554 242.045952 
L 155.454545 241.928929 
L 156.439541 242.057837 
L 157.424537 241.936793 
L 159.394528 240.998153 
L 160.379523 241.814229 
L 161.364519 242.030785 
L 162.349515 239.575542 
L 163.33451 239.371054 
L 164.319506 241.837841 
L 165.304501 237.82465 
L 166.289497 239.385547 
L 167.274492 235.584117 
L 168.259488 240.488263 
L 169.244484 231.670322 
L 170.229479 241.576999 
L 171.214475 232.12446 
L 172.19947 236.795487 
L 173.184466 239.73049 
L 174.169462 232.412916 
L 175.154457 238.369451 
L 176.139453 235.24926 
L 177.124448 241.427573 
L 178.109444 240.417938 
L 179.09444 239.751828 
L 180.079435 240.049916 
L 181.064431 232.794383 
L 182.049426 230.667029 
L 183.034422 237.751023 
L 184.019417 237.613486 
L 185.004413 241.943617 
L 185.989409 241.803332 
L 186.974404 240.444096 
L 187.9594 230.391826 
L 188.944395 210.968004 
L 189.929391 239.313577 
L 190.914387 228.871556 
L 191.899382 236.802534 
L 192.884378 240.174031 
L 193.869373 241.848241 
L 194.854369 241.273594 
L 195.839365 241.234131 
L 196.82436 241.506596 
L 197.809356 240.797504 
L 198.794351 239.223859 
L 199.779347 241.305908 
L 200.764342 236.96831 
L 201.749338 227.414975 
L 202.734334 241.529475 
L 204.704325 240.749912 
L 205.68932 235.543988 
L 206.674316 239.652228 
L 207.659312 241.079693 
L 208.644307 240.366344 
L 209.629303 241.630981 
L 210.614298 241.03874 
L 211.599294 241.720017 
L 212.584289 239.715313 
L 213.569285 233.272158 
L 214.554281 240.544035 
L 215.539276 241.476306 
L 216.524272 234.785071 
L 217.509267 241.183786 
L 218.494263 238.910422 
L 219.479259 241.037238 
L 220.464254 237.72747 
L 221.44925 241.375674 
L 222.434245 237.594132 
L 223.419241 229.8219 
L 224.404237 229.146812 
L 225.389232 230.300053 
L 226.374228 208.091757 
L 227.359223 229.846982 
L 228.344219 44.443636 
L 229.329214 236.617283 
L 230.31421 209.756686 
L 231.299206 231.891958 
L 232.284201 231.678542 
L 233.269197 237.270966 
L 234.254192 240.108438 
L 235.239188 241.017201 
L 236.224184 241.463933 
L 237.209179 241.559697 
L 238.194175 240.650967 
L 239.17917 242.068159 
L 240.164166 241.237386 
L 241.149162 241.029738 
L 242.134157 241.795244 
L 243.119153 241.01674 
L 244.104148 241.755314 
L 245.089144 241.952408 
L 246.074139 242.014233 
L 247.059135 240.142827 
L 248.044131 241.152664 
L 249.029126 241.060965 
L 250.014122 240.538153 
L 250.999117 241.212993 
L 251.984113 239.487068 
L 252.969109 241.032542 
L 253.954104 241.464225 
L 254.9391 240.918947 
L 255.924095 241.80412 
L 256.909091 241.685921 
L 257.894086 241.915035 
L 258.879082 241.791924 
L 259.864078 241.415193 
L 260.849073 241.232705 
L 261.834069 241.717092 
L 262.819064 241.383594 
L 263.80406 241.843998 
L 264.789056 242.045131 
L 265.774051 241.172853 
L 266.759047 241.892259 
L 267.744042 241.900556 
L 268.729038 242.048264 
L 270.699029 242.033913 
L 273.654016 241.666031 
L 274.639011 242.032596 
L 276.609003 242.114847 
L 281.533981 241.971863 
L 282.518976 242.072314 
L 285.473963 242.101065 
L 351.468667 242.115163 
L 388.8985 242.115733 
L 388.8985 242.115733 
" clip-path="url(#pd996aa2261)" style="fill: none; stroke: #8172b3; stroke-opacity: 0.3; stroke-width: 1.5; stroke-linecap: round"/>
   </g>
   <g id="line2d_19">
    <path d="M 54 241.985343 
L 148.559576 241.897563 
L 151.514563 241.624868 
L 152.499559 241.379102 
L 153.484554 240.902353 
L 154.46955 240.845381 
L 155.454545 240.044301 
L 156.439541 238.768009 
L 157.424537 236.792098 
L 158.409532 235.548707 
L 159.394528 238.78129 
L 161.364519 227.737945 
L 162.349515 237.167792 
L 163.33451 236.772498 
L 164.319506 234.181729 
L 165.304501 228.159312 
L 166.289497 237.387462 
L 167.274492 228.939422 
L 168.259488 238.378347 
L 169.244484 240.747695 
L 170.229479 237.232413 
L 171.214475 227.166165 
L 172.19947 223.627754 
L 173.184466 236.311089 
L 174.169462 227.408996 
L 175.154457 235.235517 
L 176.139453 222.556374 
L 177.124448 237.919289 
L 178.109444 235.90543 
L 179.09444 237.002668 
L 180.079435 241.451354 
L 181.064431 238.655252 
L 182.049426 219.080371 
L 183.034422 237.241646 
L 184.019417 231.70713 
L 185.004413 205.213557 
L 185.989409 224.277478 
L 186.974404 194.47232 
L 187.9594 213.481679 
L 188.944395 208.424287 
L 189.929391 217.181098 
L 190.914387 231.256826 
L 191.899382 203.891221 
L 192.884378 212.970628 
L 193.869373 224.71731 
L 194.854369 169.213938 
L 195.839365 132.536163 
L 196.82436 209.267206 
L 197.809356 206.907292 
L 198.794351 195.54227 
L 199.779347 221.636817 
L 200.764342 226.331026 
L 201.749338 206.864796 
L 202.734334 229.497226 
L 203.719329 225.499957 
L 204.704325 242.041356 
L 205.68932 240.674166 
L 206.674316 226.963404 
L 207.659312 238.572456 
L 208.644307 232.610571 
L 209.629303 232.698611 
L 210.614298 239.034457 
L 211.599294 237.402138 
L 212.584289 221.207087 
L 213.569285 239.751882 
L 214.554281 236.146875 
L 215.539276 239.001094 
L 216.524272 239.578636 
L 217.509267 219.720106 
L 218.494263 234.859788 
L 219.479259 229.202012 
L 220.464254 238.848271 
L 221.44925 214.527264 
L 222.434245 211.180962 
L 223.419241 222.79152 
L 224.404237 240.01759 
L 225.389232 217.586046 
L 226.374228 122.859536 
L 227.359223 44.443636 
L 228.344219 91.05874 
L 229.329214 174.699746 
L 230.31421 228.047286 
L 231.299206 204.619809 
L 232.284201 194.514722 
L 233.269197 181.633548 
L 234.254192 231.925654 
L 235.239188 234.916095 
L 236.224184 211.62384 
L 237.209179 208.295183 
L 238.194175 216.180052 
L 239.17917 238.32854 
L 240.164166 232.530414 
L 241.149162 239.739294 
L 242.134157 238.815248 
L 243.119153 241.943749 
L 244.104148 238.079393 
L 246.074139 241.361874 
L 247.059135 240.8726 
L 248.044131 224.472994 
L 249.029126 238.486862 
L 250.014122 237.176163 
L 250.999117 238.134244 
L 251.984113 232.153358 
L 252.969109 234.823576 
L 253.954104 227.781745 
L 254.9391 226.3128 
L 255.924095 228.07722 
L 256.909091 236.343636 
L 257.894086 224.840509 
L 259.864078 232.094987 
L 260.849073 233.257973 
L 261.834069 236.025687 
L 262.819064 241.168742 
L 263.80406 239.602312 
L 264.789056 239.941322 
L 265.774051 239.711872 
L 266.759047 232.787379 
L 267.744042 240.465606 
L 268.729038 231.340905 
L 269.714034 235.940078 
L 270.699029 233.467677 
L 271.684025 237.387098 
L 272.66902 232.135067 
L 273.654016 239.403747 
L 274.639011 237.936064 
L 275.624007 236.918876 
L 276.609003 237.037374 
L 277.593998 241.124497 
L 278.578994 238.984046 
L 279.563989 239.062082 
L 280.548985 240.126896 
L 281.533981 239.798461 
L 283.503972 239.878349 
L 284.488967 241.200916 
L 285.473963 240.365479 
L 287.443954 240.942729 
L 288.42895 241.19447 
L 290.398941 241.18184 
L 291.383936 241.558421 
L 292.368932 241.181678 
L 294.338923 241.52125 
L 295.323919 241.485526 
L 296.308914 241.665581 
L 297.29391 241.611384 
L 300.248897 241.708867 
L 315.023831 241.944267 
L 381.018535 242.088193 
L 388.8985 242.092036 
L 388.8985 242.092036 
" clip-path="url(#pd996aa2261)" style="fill: none; stroke: #937860; stroke-opacity: 0.3; stroke-width: 1.5; stroke-linecap: round"/>
   </g>
   <g id="line2d_20">
    <path d="M 54 228.004752 
L 62.86496 227.897727 
L 71.729921 227.568487 
L 79.609885 227.068709 
L 87.48985 226.339825 
L 94.384819 225.472839 
L 100.294793 224.517372 
L 106.204766 223.314116 
L 111.129744 222.07113 
L 115.069726 220.878007 
L 119.009709 219.463585 
L 122.949691 217.77052 
L 125.904678 216.270362 
L 128.859665 214.523108 
L 131.814651 212.463425 
L 133.784643 210.87628 
L 135.754634 209.081126 
L 137.724625 207.031255 
L 139.694616 204.672773 
L 141.664607 201.926048 
L 143.634598 198.696345 
L 145.60459 194.834977 
L 147.574581 190.133653 
L 148.559576 187.493723 
L 150.529568 181.014951 
L 151.514563 177.177514 
L 152.499559 172.838408 
L 154.46955 162.787725 
L 157.424537 142.161471 
L 159.394528 124.173627 
L 160.379523 114.672815 
L 161.364519 103.898539 
L 162.349515 94.879164 
L 164.319506 71.786396 
L 165.304501 62.530713 
L 166.289497 56.545891 
L 167.274492 48.713036 
L 168.259488 49.146095 
L 169.244484 49.002614 
L 170.229479 46.336239 
L 171.214475 44.443636 
L 172.19947 47.817069 
L 173.184466 56.066827 
L 174.169462 63.265934 
L 175.154457 64.763112 
L 176.139453 76.44432 
L 177.124448 81.923419 
L 178.109444 91.386115 
L 179.09444 99.178459 
L 180.079435 99.956582 
L 182.049426 113.531262 
L 183.034422 114.641794 
L 184.019417 122.008398 
L 185.004413 130.372488 
L 185.989409 133.941066 
L 186.974404 139.869209 
L 187.9594 135.907011 
L 188.944395 135.572057 
L 189.929391 141.221528 
L 190.914387 139.224063 
L 191.899382 145.275811 
L 192.884378 147.8735 
L 193.869373 147.402723 
L 194.854369 144.430179 
L 196.82436 153.629834 
L 197.809356 150.252803 
L 199.779347 153.731132 
L 200.764342 153.712029 
L 202.734334 157.830364 
L 203.719329 161.106345 
L 204.704325 162.743232 
L 206.674316 169.02398 
L 207.659312 167.246818 
L 208.644307 171.771586 
L 209.629303 168.009121 
L 210.614298 169.618691 
L 211.599294 172.793792 
L 212.584289 171.811799 
L 213.569285 173.303925 
L 214.554281 172.222384 
L 215.539276 174.241748 
L 216.524272 172.677317 
L 217.509267 173.834296 
L 218.494263 174.196519 
L 219.479259 177.583552 
L 220.464254 181.388339 
L 221.44925 180.712965 
L 222.434245 182.568518 
L 223.419241 179.658466 
L 224.404237 173.817588 
L 226.374228 185.766733 
L 227.359223 198.958383 
L 228.344219 180.256162 
L 229.329214 180.88308 
L 230.31421 187.890657 
L 231.299206 186.966477 
L 232.284201 181.308338 
L 233.269197 179.607961 
L 234.254192 179.287969 
L 235.239188 184.39708 
L 236.224184 183.928643 
L 237.209179 186.536964 
L 238.194175 184.51244 
L 239.17917 189.98395 
L 240.164166 188.551716 
L 241.149162 189.338363 
L 242.134157 191.749823 
L 243.119153 189.734783 
L 244.104148 188.337321 
L 245.089144 188.298108 
L 246.074139 185.870357 
L 247.059135 186.483355 
L 248.044131 186.721859 
L 249.029126 187.26685 
L 250.014122 187.681922 
L 250.999117 185.459763 
L 251.984113 186.122257 
L 252.969109 184.943707 
L 253.954104 188.109391 
L 254.9391 185.521323 
L 255.924095 186.314268 
L 256.909091 186.224134 
L 257.894086 185.984436 
L 258.879082 186.096508 
L 259.864078 185.118572 
L 260.849073 185.509808 
L 261.834069 184.980181 
L 263.80406 185.102175 
L 264.789056 183.941587 
L 265.774051 185.240056 
L 267.744042 185.291326 
L 268.729038 186.346755 
L 269.714034 186.260588 
L 270.699029 186.769559 
L 271.684025 188.104978 
L 272.66902 188.39305 
L 273.654016 189.733317 
L 274.639011 190.721486 
L 275.624007 192.577886 
L 276.609003 194.135618 
L 277.593998 195.997243 
L 278.578994 197.612002 
L 280.548985 201.554111 
L 282.518976 205.628055 
L 283.503972 207.307555 
L 285.473963 211.074033 
L 286.458959 212.523734 
L 287.443954 214.322595 
L 290.398941 218.514101 
L 292.368932 220.891338 
L 294.338923 223.002821 
L 296.308914 224.871571 
L 298.278906 226.495074 
L 301.233892 228.564349 
L 304.188879 230.2447 
L 307.143866 231.641424 
L 310.098853 232.799655 
L 314.038835 234.067897 
L 317.978817 235.094548 
L 322.903795 236.118378 
L 328.813769 237.076903 
L 335.708738 237.93239 
L 343.588703 238.672006 
L 353.438658 239.356808 
L 365.258605 239.948368 
L 381.018535 240.492974 
L 388.8985 240.695754 
L 388.8985 240.695754 
" clip-path="url(#pd996aa2261)" style="fill: none; stroke: #da8bc3; stroke-opacity: 0.3; stroke-width: 1.5; stroke-linecap: round"/>
   </g>
   <g id="line2d_21">
    <path d="M 54 228.003746 
L 62.86496 227.896822 
L 71.729921 227.567905 
L 79.609885 227.068646 
L 87.48985 226.340581 
L 94.384819 225.474672 
L 100.294793 224.520527 
L 106.204766 223.319153 
L 111.129744 222.078368 
L 115.069726 220.88761 
L 119.009709 219.476353 
L 122.949691 217.78774 
L 125.904678 216.292375 
L 128.859665 214.550982 
L 131.814651 212.50085 
L 133.784643 210.920841 
L 135.754634 209.132574 
L 137.724625 207.090979 
L 139.694616 204.740146 
L 141.664607 202.006171 
L 143.634598 198.785085 
L 145.60459 194.941619 
L 147.574581 190.28993 
L 148.559576 187.604519 
L 150.529568 181.212771 
L 152.499559 173.139386 
L 154.46955 162.884071 
L 155.454545 156.619843 
L 156.439541 149.637253 
L 157.424537 141.731147 
L 159.394528 122.893259 
L 161.364519 100.81793 
L 163.33451 76.70578 
L 164.319506 66.152171 
L 165.304501 56.853189 
L 166.289497 49.706273 
L 167.274492 46.619423 
L 168.259488 44.443636 
L 169.244484 46.56192 
L 170.229479 48.205131 
L 171.214475 53.841802 
L 172.19947 58.553234 
L 173.184466 64.934753 
L 174.169462 70.424864 
L 177.124448 92.074306 
L 178.109444 97.213602 
L 179.09444 102.982826 
L 180.079435 107.882854 
L 181.064431 111.590996 
L 182.049426 117.119461 
L 183.034422 120.395354 
L 184.019417 124.07973 
L 185.989409 129.585866 
L 186.974404 132.803369 
L 187.9594 135.485143 
L 188.944395 139.7426 
L 189.929391 140.965605 
L 190.914387 143.83295 
L 191.899382 144.804283 
L 192.884378 146.839452 
L 194.854369 151.949477 
L 196.82436 154.610281 
L 197.809356 156.739961 
L 199.779347 159.893341 
L 200.764342 160.983798 
L 201.749338 163.025286 
L 203.719329 165.05527 
L 205.68932 166.418107 
L 206.674316 167.861837 
L 207.659312 168.523965 
L 210.614298 172.446471 
L 211.599294 173.151858 
L 212.584289 174.852288 
L 213.569285 174.932902 
L 214.554281 175.6784 
L 215.539276 176.595146 
L 216.524272 176.429032 
L 217.509267 177.944772 
L 219.479259 178.924546 
L 220.464254 179.084866 
L 221.44925 180.555544 
L 222.434245 181.366825 
L 223.419241 182.450179 
L 224.404237 182.74259 
L 225.389232 180.505098 
L 226.374228 179.694671 
L 227.359223 180.752373 
L 228.344219 187.942064 
L 229.329214 183.526802 
L 230.31421 185.936489 
L 231.299206 185.387497 
L 232.284201 186.072115 
L 233.269197 185.660421 
L 235.239188 186.024966 
L 236.224184 186.482008 
L 238.194175 187.121758 
L 239.17917 187.000218 
L 241.149162 187.310003 
L 242.134157 187.061173 
L 243.119153 186.984784 
L 244.104148 187.616932 
L 246.074139 187.765197 
L 247.059135 187.841111 
L 248.044131 187.5273 
L 249.029126 187.811818 
L 250.999117 186.905008 
L 251.984113 186.750599 
L 252.969109 186.852258 
L 254.9391 186.468691 
L 255.924095 186.590345 
L 256.909091 186.052717 
L 257.894086 185.934273 
L 258.879082 185.70334 
L 259.864078 184.646896 
L 260.849073 184.609463 
L 261.834069 184.430432 
L 263.80406 184.358662 
L 264.789056 184.06145 
L 265.774051 184.114701 
L 266.759047 184.355018 
L 267.744042 184.197299 
L 268.729038 184.642684 
L 270.699029 185.877328 
L 271.684025 187.005945 
L 272.66902 187.720269 
L 273.654016 189.384759 
L 274.639011 190.526893 
L 278.578994 197.372263 
L 285.473963 210.724666 
L 288.42895 215.563413 
L 290.398941 218.355681 
L 292.368932 220.831362 
L 294.338923 222.968278 
L 296.308914 224.845826 
L 298.278906 226.48318 
L 300.248897 227.910878 
L 303.203883 229.714529 
L 306.15887 231.203354 
L 309.113857 232.440728 
L 312.068844 233.474745 
L 316.008826 234.614518 
L 319.948808 235.539613 
L 324.873786 236.472658 
L 330.78376 237.352172 
L 337.678729 238.143506 
L 346.543689 238.906467 
L 357.378641 239.581929 
L 370.183583 240.147292 
L 386.928508 240.652366 
L 388.8985 240.699577 
L 388.8985 240.699577 
" clip-path="url(#pd996aa2261)" style="fill: none; stroke: #8c8c8c; stroke-opacity: 0.3; stroke-width: 1.5; stroke-linecap: round"/>
   </g>
   <g id="line2d_22">
    <path d="M 54 228.080998 
L 62.86496 227.974608 
L 71.729921 227.64733 
L 79.609885 227.150549 
L 87.48985 226.42607 
L 94.384819 225.564382 
L 100.294793 224.614831 
L 106.204766 223.419152 
L 111.129744 222.184145 
L 115.069726 220.998827 
L 119.009709 219.593875 
L 122.949691 217.912567 
L 125.904678 216.423524 
L 128.859665 214.689109 
L 131.814651 212.647204 
L 133.784643 211.073872 
L 135.754634 209.292577 
L 137.724625 207.259487 
L 139.694616 204.917505 
L 141.664607 202.192292 
L 143.634598 198.983028 
L 145.60459 195.146874 
L 147.574581 190.500479 
L 149.544572 184.779638 
L 150.529568 181.419817 
L 151.514563 177.637924 
L 152.499559 173.400957 
L 153.484554 168.612259 
L 154.46955 163.190266 
L 155.454545 157.067857 
L 156.439541 150.112901 
L 157.424537 142.323197 
L 158.409532 133.6249 
L 160.379523 113.435301 
L 162.349515 90.365009 
L 164.319506 68.35931 
L 165.304501 58.616983 
L 166.289497 51.356333 
L 167.274492 47.246202 
L 168.259488 44.443636 
L 169.244484 45.517024 
L 170.229479 48.873605 
L 171.214475 53.860622 
L 172.19947 59.564064 
L 175.154457 79.405747 
L 176.139453 85.083086 
L 177.124448 92.043885 
L 178.109444 97.802525 
L 180.079435 107.137284 
L 182.049426 116.807086 
L 183.034422 119.841869 
L 184.019417 124.163577 
L 186.974404 133.044373 
L 187.9594 135.023617 
L 188.944395 137.615821 
L 189.929391 140.753487 
L 191.899382 145.438433 
L 193.869373 149.935937 
L 194.854369 150.592659 
L 196.82436 154.834426 
L 197.809356 156.870662 
L 198.794351 158.413913 
L 199.779347 159.731491 
L 201.749338 162.651221 
L 202.734334 163.128167 
L 204.704325 166.080985 
L 206.674316 167.875289 
L 207.659312 169.82905 
L 208.644307 170.992117 
L 209.629303 171.222042 
L 211.599294 172.920546 
L 212.584289 172.86961 
L 213.569285 174.638496 
L 214.554281 175.246051 
L 215.539276 176.38839 
L 216.524272 177.085725 
L 217.509267 177.938086 
L 218.494263 178.308843 
L 219.479259 179.498427 
L 220.464254 179.30977 
L 221.44925 179.644149 
L 222.434245 180.137374 
L 223.419241 180.860455 
L 224.404237 181.831468 
L 225.389232 182.162401 
L 226.374228 182.207839 
L 227.359223 181.227813 
L 228.344219 183.579685 
L 229.329214 182.772449 
L 230.31421 183.581079 
L 231.299206 184.559702 
L 232.284201 184.268468 
L 233.269197 185.25494 
L 234.254192 185.96226 
L 235.239188 186.105153 
L 236.224184 186.71123 
L 240.164166 187.556618 
L 241.149162 187.591327 
L 242.134157 187.978691 
L 244.104148 188.032358 
L 245.089144 187.740046 
L 246.074139 187.670592 
L 247.059135 187.79865 
L 248.044131 187.111453 
L 250.014122 187.585782 
L 251.984113 187.301124 
L 252.969109 186.994482 
L 254.9391 186.714536 
L 255.924095 186.357802 
L 256.909091 186.279122 
L 257.894086 185.846542 
L 258.879082 186.028564 
L 261.834069 185.318188 
L 262.819064 184.920222 
L 263.80406 184.7326 
L 264.789056 184.297919 
L 266.759047 184.419287 
L 269.714034 185.782848 
L 270.699029 186.834025 
L 271.684025 187.324394 
L 272.66902 188.603383 
L 273.654016 189.566278 
L 275.624007 192.554441 
L 277.593998 196.095839 
L 286.458959 212.62318 
L 288.42895 215.728847 
L 290.398941 218.503524 
L 292.368932 220.942698 
L 294.338923 223.094446 
L 296.308914 224.959983 
L 298.278906 226.577473 
L 301.233892 228.63103 
L 304.188879 230.316753 
L 307.143866 231.702545 
L 310.098853 232.859114 
L 314.038835 234.122385 
L 317.978817 235.140062 
L 322.903795 236.159622 
L 328.813769 237.112142 
L 335.708738 237.962304 
L 343.588703 238.697379 
L 353.438658 239.377744 
L 365.258605 239.965357 
L 381.018535 240.506211 
L 388.8985 240.707563 
L 388.8985 240.707563 
" clip-path="url(#pd996aa2261)" style="fill: none; stroke: #ccb974; stroke-opacity: 0.3; stroke-width: 1.5; stroke-linecap: round"/>
   </g>
   <g id="patch_3">
    <path d="M 54 252 
L 54 34.56 
" style="fill: none; stroke: #262626; stroke-width: 1.25; stroke-linejoin: miter; stroke-linecap: square"/>
   </g>
   <g id="patch_4">
    <path d="M 388.8 252 
L 388.8 34.56 
" style="fill: none; stroke: #262626; stroke-width: 1.25; stroke-linejoin: miter; stroke-linecap: square"/>
   </g>
   <g id="patch_5">
    <path d="M 54 252 
L 388.8 252 
" style="fill: none; stroke: #262626; stroke-width: 1.25; stroke-linejoin: miter; stroke-linecap: square"/>
   </g>
   <g id="patch_6">
    <path d="M 54 34.56 
L 388.8 34.56 
" style="fill: none; stroke: #262626; stroke-width: 1.25; stroke-linejoin: miter; stroke-linecap: square"/>
   </g>
   <g id="text_15">
    <!-- patient14_app06_phone - Power spectrum -->
    <g style="fill: #262626" transform="translate(107.998125 28.56)scale(0.12 -0.12)">
     <defs>
      <path id="ArialMT-70" d="M 422 -1272 
L 422 3319 
L 934 3319 
L 934 2888 
Q 1116 3141 1344 3267 
Q 1572 3394 1897 3394 
Q 2322 3394 2647 3175 
Q 2972 2956 3137 2557 
Q 3303 2159 3303 1684 
Q 3303 1175 3120 767 
Q 2938 359 2589 142 
Q 2241 -75 1856 -75 
Q 1575 -75 1351 44 
Q 1128 163 984 344 
L 984 -1272 
L 422 -1272 
z
M 931 1641 
Q 931 1000 1190 694 
Q 1450 388 1819 388 
Q 2194 388 2461 705 
Q 2728 1022 2728 1688 
Q 2728 2322 2467 2637 
Q 2206 2953 1844 2953 
Q 1484 2953 1207 2617 
Q 931 2281 931 1641 
z
" transform="scale(0.015625)"/>
      <path id="ArialMT-61" d="M 2588 409 
Q 2275 144 1986 34 
Q 1697 -75 1366 -75 
Q 819 -75 525 192 
Q 231 459 231 875 
Q 231 1119 342 1320 
Q 453 1522 633 1644 
Q 813 1766 1038 1828 
Q 1203 1872 1538 1913 
Q 2219 1994 2541 2106 
Q 2544 2222 2544 2253 
Q 2544 2597 2384 2738 
Q 2169 2928 1744 2928 
Q 1347 2928 1158 2789 
Q 969 2650 878 2297 
L 328 2372 
Q 403 2725 575 2942 
Q 747 3159 1072 3276 
Q 1397 3394 1825 3394 
Q 2250 3394 2515 3294 
Q 2781 3194 2906 3042 
Q 3031 2891 3081 2659 
Q 3109 2516 3109 2141 
L 3109 1391 
Q 3109 606 3145 398 
Q 3181 191 3288 0 
L 2700 0 
Q 2613 175 2588 409 
z
M 2541 1666 
Q 2234 1541 1622 1453 
Q 1275 1403 1131 1340 
Q 988 1278 909 1158 
Q 831 1038 831 891 
Q 831 666 1001 516 
Q 1172 366 1500 366 
Q 1825 366 2078 508 
Q 2331 650 2450 897 
Q 2541 1088 2541 1459 
L 2541 1666 
z
" transform="scale(0.015625)"/>
      <path id="ArialMT-74" d="M 1650 503 
L 1731 6 
Q 1494 -44 1306 -44 
Q 1000 -44 831 53 
Q 663 150 594 308 
Q 525 466 525 972 
L 525 2881 
L 113 2881 
L 113 3319 
L 525 3319 
L 525 4141 
L 1084 4478 
L 1084 3319 
L 1650 3319 
L 1650 2881 
L 1084 2881 
L 1084 941 
Q 1084 700 1114 631 
Q 1144 563 1211 522 
Q 1278 481 1403 481 
Q 1497 481 1650 503 
z
" transform="scale(0.015625)"/>
      <path id="ArialMT-69" d="M 425 3934 
L 425 4581 
L 988 4581 
L 988 3934 
L 425 3934 
z
M 425 0 
L 425 3319 
L 988 3319 
L 988 0 
L 425 0 
z
" transform="scale(0.015625)"/>
      <path id="ArialMT-5f" d="M -97 -1272 
L -97 -866 
L 3631 -866 
L 3631 -1272 
L -97 -1272 
z
" transform="scale(0.015625)"/>
      <path id="ArialMT-68" d="M 422 0 
L 422 4581 
L 984 4581 
L 984 2938 
Q 1378 3394 1978 3394 
Q 2347 3394 2619 3248 
Q 2891 3103 3008 2847 
Q 3125 2591 3125 2103 
L 3125 0 
L 2563 0 
L 2563 2103 
Q 2563 2525 2380 2717 
Q 2197 2909 1863 2909 
Q 1613 2909 1392 2779 
Q 1172 2650 1078 2428 
Q 984 2206 984 1816 
L 984 0 
L 422 0 
z
" transform="scale(0.015625)"/>
      <path id="ArialMT-6f" d="M 213 1659 
Q 213 2581 725 3025 
Q 1153 3394 1769 3394 
Q 2453 3394 2887 2945 
Q 3322 2497 3322 1706 
Q 3322 1066 3130 698 
Q 2938 331 2570 128 
Q 2203 -75 1769 -75 
Q 1072 -75 642 372 
Q 213 819 213 1659 
z
M 791 1659 
Q 791 1022 1069 705 
Q 1347 388 1769 388 
Q 2188 388 2466 706 
Q 2744 1025 2744 1678 
Q 2744 2294 2464 2611 
Q 2184 2928 1769 2928 
Q 1347 2928 1069 2612 
Q 791 2297 791 1659 
z
" transform="scale(0.015625)"/>
      <path id="ArialMT-2d" d="M 203 1375 
L 203 1941 
L 1931 1941 
L 1931 1375 
L 203 1375 
z
" transform="scale(0.015625)"/>
      <path id="ArialMT-50" d="M 494 0 
L 494 4581 
L 2222 4581 
Q 2678 4581 2919 4538 
Q 3256 4481 3484 4323 
Q 3713 4166 3852 3881 
Q 3991 3597 3991 3256 
Q 3991 2672 3619 2267 
Q 3247 1863 2275 1863 
L 1100 1863 
L 1100 0 
L 494 0 
z
M 1100 2403 
L 2284 2403 
Q 2872 2403 3119 2622 
Q 3366 2841 3366 3238 
Q 3366 3525 3220 3729 
Q 3075 3934 2838 4000 
Q 2684 4041 2272 4041 
L 1100 4041 
L 1100 2403 
z
" transform="scale(0.015625)"/>
      <path id="ArialMT-77" d="M 1034 0 
L 19 3319 
L 600 3319 
L 1128 1403 
L 1325 691 
Q 1338 744 1497 1375 
L 2025 3319 
L 2603 3319 
L 3100 1394 
L 3266 759 
L 3456 1400 
L 4025 3319 
L 4572 3319 
L 3534 0 
L 2950 0 
L 2422 1988 
L 2294 2553 
L 1622 0 
L 1034 0 
z
" transform="scale(0.015625)"/>
      <path id="ArialMT-73" d="M 197 991 
L 753 1078 
Q 800 744 1014 566 
Q 1228 388 1613 388 
Q 2000 388 2187 545 
Q 2375 703 2375 916 
Q 2375 1106 2209 1216 
Q 2094 1291 1634 1406 
Q 1016 1563 777 1677 
Q 538 1791 414 1992 
Q 291 2194 291 2438 
Q 291 2659 392 2848 
Q 494 3038 669 3163 
Q 800 3259 1026 3326 
Q 1253 3394 1513 3394 
Q 1903 3394 2198 3281 
Q 2494 3169 2634 2976 
Q 2775 2784 2828 2463 
L 2278 2388 
Q 2241 2644 2061 2787 
Q 1881 2931 1553 2931 
Q 1166 2931 1000 2803 
Q 834 2675 834 2503 
Q 834 2394 903 2306 
Q 972 2216 1119 2156 
Q 1203 2125 1616 2013 
Q 2213 1853 2448 1751 
Q 2684 1650 2818 1456 
Q 2953 1263 2953 975 
Q 2953 694 2789 445 
Q 2625 197 2315 61 
Q 2006 -75 1616 -75 
Q 969 -75 630 194 
Q 291 463 197 991 
z
" transform="scale(0.015625)"/>
      <path id="ArialMT-6d" d="M 422 0 
L 422 3319 
L 925 3319 
L 925 2853 
Q 1081 3097 1340 3245 
Q 1600 3394 1931 3394 
Q 2300 3394 2536 3241 
Q 2772 3088 2869 2813 
Q 3263 3394 3894 3394 
Q 4388 3394 4653 3120 
Q 4919 2847 4919 2278 
L 4919 0 
L 4359 0 
L 4359 2091 
Q 4359 2428 4304 2576 
Q 4250 2725 4106 2815 
Q 3963 2906 3769 2906 
Q 3419 2906 3187 2673 
Q 2956 2441 2956 1928 
L 2956 0 
L 2394 0 
L 2394 2156 
Q 2394 2531 2256 2718 
Q 2119 2906 1806 2906 
Q 1569 2906 1367 2781 
Q 1166 2656 1075 2415 
Q 984 2175 984 1722 
L 984 0 
L 422 0 
z
" transform="scale(0.015625)"/>
     </defs>
     <use xlink:href="#ArialMT-70"/>
     <use xlink:href="#ArialMT-61" x="55.615234"/>
     <use xlink:href="#ArialMT-74" x="111.230469"/>
     <use xlink:href="#ArialMT-69" x="139.013672"/>
     <use xlink:href="#ArialMT-65" x="161.230469"/>
     <use xlink:href="#ArialMT-6e" x="216.845703"/>
     <use xlink:href="#ArialMT-74" x="272.460938"/>
     <use xlink:href="#ArialMT-31" x="300.244141"/>
     <use xlink:href="#ArialMT-34" x="355.859375"/>
     <use xlink:href="#ArialMT-5f" x="411.474609"/>
     <use xlink:href="#ArialMT-61" x="467.089844"/>
     <use xlink:href="#ArialMT-70" x="522.705078"/>
     <use xlink:href="#ArialMT-70" x="578.320312"/>
     <use xlink:href="#ArialMT-30" x="633.935547"/>
     <use xlink:href="#ArialMT-36" x="689.550781"/>
     <use xlink:href="#ArialMT-5f" x="745.166016"/>
     <use xlink:href="#ArialMT-70" x="800.78125"/>
     <use xlink:href="#ArialMT-68" x="856.396484"/>
     <use xlink:href="#ArialMT-6f" x="912.011719"/>
     <use xlink:href="#ArialMT-6e" x="967.626953"/>
     <use xlink:href="#ArialMT-65" x="1023.242188"/>
     <use xlink:href="#ArialMT-20" x="1078.857422"/>
     <use xlink:href="#ArialMT-2d" x="1106.640625"/>
     <use xlink:href="#ArialMT-20" x="1139.941406"/>
     <use xlink:href="#ArialMT-50" x="1167.724609"/>
     <use xlink:href="#ArialMT-6f" x="1234.423828"/>
     <use xlink:href="#ArialMT-77" x="1290.039062"/>
     <use xlink:href="#ArialMT-65" x="1362.255859"/>
     <use xlink:href="#ArialMT-72" x="1417.871094"/>
     <use xlink:href="#ArialMT-20" x="1451.171875"/>
     <use xlink:href="#ArialMT-73" x="1478.955078"/>
     <use xlink:href="#ArialMT-70" x="1528.955078"/>
     <use xlink:href="#ArialMT-65" x="1584.570312"/>
     <use xlink:href="#ArialMT-63" x="1640.185547"/>
     <use xlink:href="#ArialMT-74" x="1690.185547"/>
     <use xlink:href="#ArialMT-72" x="1717.96875"/>
     <use xlink:href="#ArialMT-75" x="1751.269531"/>
     <use xlink:href="#ArialMT-6d" x="1806.884766"/>
    </g>
   </g>
  </g>
 </g>
 <defs>
  <clipPath id="pd996aa2261">
   <rect x="54" y="34.56" width="334.8" height="217.44"/>
  </clipPath>
 </defs>
</svg>
