<?xml version="1.0" encoding="utf-8" standalone="no"?>
<!DOCTYPE svg PUBLIC "-//W3C//DTD SVG 1.1//EN"
  "http://www.w3.org/Graphics/SVG/1.1/DTD/svg11.dtd">
<svg xmlns:xlink="http://www.w3.org/1999/xlink" width="432pt" height="288pt" viewBox="0 0 432 288" xmlns="http://www.w3.org/2000/svg" version="1.1">
 <metadata>
  <rdf:RDF xmlns:dc="http://purl.org/dc/elements/1.1/" xmlns:cc="http://creativecommons.org/ns#" xmlns:rdf="http://www.w3.org/1999/02/22-rdf-syntax-ns#">
   <cc:Work>
    <dc:type rdf:resource="http://purl.org/dc/dcmitype/StillImage"/>
    <dc:date>2022-07-08T13:28:13.258086</dc:date>
    <dc:format>image/svg+xml</dc:format>
    <dc:creator>
     <cc:Agent>
      <dc:title>Matplotlib v3.5.1, https://matplotlib.org/</dc:title>
     </cc:Agent>
    </dc:creator>
   </cc:Work>
  </rdf:RDF>
 </metadata>
 <defs>
  <style type="text/css">*{stroke-linejoin: round; stroke-linecap: butt}</style>
 </defs>
 <g id="figure_1">
  <g id="patch_1">
   <path d="M 0 288 
L 432 288 
L 432 0 
L 0 0 
z
" style="fill: #ffffff"/>
  </g>
  <g id="axes_1">
   <g id="patch_2">
    <path d="M 54 252 
L 388.8 252 
L 388.8 34.56 
L 54 34.56 
z
" style="fill: #ffffff"/>
   </g>
   <g id="matplotlib.axis_1">
    <g id="xtick_1">
     <g id="line2d_1">
      <defs>
       <path id="m218ab88baf" d="M 0 0 
L 0 6 
" style="stroke: #262626; stroke-width: 1.25"/>
      </defs>
      <g>
       <use xlink:href="#m218ab88baf" x="54" y="252" style="fill: #262626; stroke: #262626; stroke-width: 1.25"/>
      </g>
     </g>
     <g id="text_1">
      <!-- 0 -->
      <g style="fill: #262626" transform="translate(50.941484 269.373594)scale(0.11 -0.11)">
       <defs>
        <path id="ArialMT-30" d="M 266 2259 
Q 266 3072 433 3567 
Q 600 4063 929 4331 
Q 1259 4600 1759 4600 
Q 2128 4600 2406 4451 
Q 2684 4303 2865 4023 
Q 3047 3744 3150 3342 
Q 3253 2941 3253 2259 
Q 3253 1453 3087 958 
Q 2922 463 2592 192 
Q 2263 -78 1759 -78 
Q 1097 -78 719 397 
Q 266 969 266 2259 
z
M 844 2259 
Q 844 1131 1108 757 
Q 1372 384 1759 384 
Q 2147 384 2411 759 
Q 2675 1134 2675 2259 
Q 2675 3391 2411 3762 
Q 2147 4134 1753 4134 
Q 1366 4134 1134 3806 
Q 844 3388 844 2259 
z
" transform="scale(0.015625)"/>
       </defs>
       <use xlink:href="#ArialMT-30"/>
      </g>
     </g>
    </g>
    <g id="xtick_2">
     <g id="line2d_2">
      <g>
       <use xlink:href="#m218ab88baf" x="109.8" y="252" style="fill: #262626; stroke: #262626; stroke-width: 1.25"/>
      </g>
     </g>
     <g id="text_2">
      <!-- 5 -->
      <g style="fill: #262626" transform="translate(106.741484 269.373594)scale(0.11 -0.11)">
       <defs>
        <path id="ArialMT-35" d="M 266 1200 
L 856 1250 
Q 922 819 1161 601 
Q 1400 384 1738 384 
Q 2144 384 2425 690 
Q 2706 997 2706 1503 
Q 2706 1984 2436 2262 
Q 2166 2541 1728 2541 
Q 1456 2541 1237 2417 
Q 1019 2294 894 2097 
L 366 2166 
L 809 4519 
L 3088 4519 
L 3088 3981 
L 1259 3981 
L 1013 2750 
Q 1425 3038 1878 3038 
Q 2478 3038 2890 2622 
Q 3303 2206 3303 1553 
Q 3303 931 2941 478 
Q 2500 -78 1738 -78 
Q 1113 -78 717 272 
Q 322 622 266 1200 
z
" transform="scale(0.015625)"/>
       </defs>
       <use xlink:href="#ArialMT-35"/>
      </g>
     </g>
    </g>
    <g id="xtick_3">
     <g id="line2d_3">
      <g>
       <use xlink:href="#m218ab88baf" x="165.6" y="252" style="fill: #262626; stroke: #262626; stroke-width: 1.25"/>
      </g>
     </g>
     <g id="text_3">
      <!-- 10 -->
      <g style="fill: #262626" transform="translate(159.482969 269.373594)scale(0.11 -0.11)">
       <defs>
        <path id="ArialMT-31" d="M 2384 0 
L 1822 0 
L 1822 3584 
Q 1619 3391 1289 3197 
Q 959 3003 697 2906 
L 697 3450 
Q 1169 3672 1522 3987 
Q 1875 4303 2022 4600 
L 2384 4600 
L 2384 0 
z
" transform="scale(0.015625)"/>
       </defs>
       <use xlink:href="#ArialMT-31"/>
       <use xlink:href="#ArialMT-30" x="55.615234"/>
      </g>
     </g>
    </g>
    <g id="xtick_4">
     <g id="line2d_4">
      <g>
       <use xlink:href="#m218ab88baf" x="221.4" y="252" style="fill: #262626; stroke: #262626; stroke-width: 1.25"/>
      </g>
     </g>
     <g id="text_4">
      <!-- 15 -->
      <g style="fill: #262626" transform="translate(215.282969 269.373594)scale(0.11 -0.11)">
       <use xlink:href="#ArialMT-31"/>
       <use xlink:href="#ArialMT-35" x="55.615234"/>
      </g>
     </g>
    </g>
    <g id="xtick_5">
     <g id="line2d_5">
      <g>
       <use xlink:href="#m218ab88baf" x="277.2" y="252" style="fill: #262626; stroke: #262626; stroke-width: 1.25"/>
      </g>
     </g>
     <g id="text_5">
      <!-- 20 -->
      <g style="fill: #262626" transform="translate(271.082969 269.373594)scale(0.11 -0.11)">
       <defs>
        <path id="ArialMT-32" d="M 3222 541 
L 3222 0 
L 194 0 
Q 188 203 259 391 
Q 375 700 629 1000 
Q 884 1300 1366 1694 
Q 2113 2306 2375 2664 
Q 2638 3022 2638 3341 
Q 2638 3675 2398 3904 
Q 2159 4134 1775 4134 
Q 1369 4134 1125 3890 
Q 881 3647 878 3216 
L 300 3275 
Q 359 3922 746 4261 
Q 1134 4600 1788 4600 
Q 2447 4600 2831 4234 
Q 3216 3869 3216 3328 
Q 3216 3053 3103 2787 
Q 2991 2522 2730 2228 
Q 2469 1934 1863 1422 
Q 1356 997 1212 845 
Q 1069 694 975 541 
L 3222 541 
z
" transform="scale(0.015625)"/>
       </defs>
       <use xlink:href="#ArialMT-32"/>
       <use xlink:href="#ArialMT-30" x="55.615234"/>
      </g>
     </g>
    </g>
    <g id="xtick_6">
     <g id="line2d_6">
      <g>
       <use xlink:href="#m218ab88baf" x="333" y="252" style="fill: #262626; stroke: #262626; stroke-width: 1.25"/>
      </g>
     </g>
     <g id="text_6">
      <!-- 25 -->
      <g style="fill: #262626" transform="translate(326.882969 269.373594)scale(0.11 -0.11)">
       <use xlink:href="#ArialMT-32"/>
       <use xlink:href="#ArialMT-35" x="55.615234"/>
      </g>
     </g>
    </g>
    <g id="xtick_7">
     <g id="line2d_7">
      <g>
       <use xlink:href="#m218ab88baf" x="388.8" y="252" style="fill: #262626; stroke: #262626; stroke-width: 1.25"/>
      </g>
     </g>
     <g id="text_7">
      <!-- 30 -->
      <g style="fill: #262626" transform="translate(382.682969 269.373594)scale(0.11 -0.11)">
       <defs>
        <path id="ArialMT-33" d="M 269 1209 
L 831 1284 
Q 928 806 1161 595 
Q 1394 384 1728 384 
Q 2125 384 2398 659 
Q 2672 934 2672 1341 
Q 2672 1728 2419 1979 
Q 2166 2231 1775 2231 
Q 1616 2231 1378 2169 
L 1441 2663 
Q 1497 2656 1531 2656 
Q 1891 2656 2178 2843 
Q 2466 3031 2466 3422 
Q 2466 3731 2256 3934 
Q 2047 4138 1716 4138 
Q 1388 4138 1169 3931 
Q 950 3725 888 3313 
L 325 3413 
Q 428 3978 793 4289 
Q 1159 4600 1703 4600 
Q 2078 4600 2393 4439 
Q 2709 4278 2876 4000 
Q 3044 3722 3044 3409 
Q 3044 3113 2884 2869 
Q 2725 2625 2413 2481 
Q 2819 2388 3044 2092 
Q 3269 1797 3269 1353 
Q 3269 753 2831 336 
Q 2394 -81 1725 -81 
Q 1122 -81 723 278 
Q 325 638 269 1209 
z
" transform="scale(0.015625)"/>
       </defs>
       <use xlink:href="#ArialMT-33"/>
       <use xlink:href="#ArialMT-30" x="55.615234"/>
      </g>
     </g>
    </g>
    <g id="text_8">
     <!-- Frequency (Hz) -->
     <g style="fill: #262626" transform="translate(180.059063 284.295469)scale(0.12 -0.12)">
      <defs>
       <path id="ArialMT-46" d="M 525 0 
L 525 4581 
L 3616 4581 
L 3616 4041 
L 1131 4041 
L 1131 2622 
L 3281 2622 
L 3281 2081 
L 1131 2081 
L 1131 0 
L 525 0 
z
" transform="scale(0.015625)"/>
       <path id="ArialMT-72" d="M 416 0 
L 416 3319 
L 922 3319 
L 922 2816 
Q 1116 3169 1280 3281 
Q 1444 3394 1641 3394 
Q 1925 3394 2219 3213 
L 2025 2691 
Q 1819 2813 1613 2813 
Q 1428 2813 1281 2702 
Q 1134 2591 1072 2394 
Q 978 2094 978 1738 
L 978 0 
L 416 0 
z
" transform="scale(0.015625)"/>
       <path id="ArialMT-65" d="M 2694 1069 
L 3275 997 
Q 3138 488 2766 206 
Q 2394 -75 1816 -75 
Q 1088 -75 661 373 
Q 234 822 234 1631 
Q 234 2469 665 2931 
Q 1097 3394 1784 3394 
Q 2450 3394 2872 2941 
Q 3294 2488 3294 1666 
Q 3294 1616 3291 1516 
L 816 1516 
Q 847 969 1125 678 
Q 1403 388 1819 388 
Q 2128 388 2347 550 
Q 2566 713 2694 1069 
z
M 847 1978 
L 2700 1978 
Q 2663 2397 2488 2606 
Q 2219 2931 1791 2931 
Q 1403 2931 1139 2672 
Q 875 2413 847 1978 
z
" transform="scale(0.015625)"/>
       <path id="ArialMT-71" d="M 2538 -1272 
L 2538 353 
Q 2406 169 2170 47 
Q 1934 -75 1669 -75 
Q 1078 -75 651 397 
Q 225 869 225 1691 
Q 225 2191 398 2587 
Q 572 2984 901 3189 
Q 1231 3394 1625 3394 
Q 2241 3394 2594 2875 
L 2594 3319 
L 3100 3319 
L 3100 -1272 
L 2538 -1272 
z
M 803 1669 
Q 803 1028 1072 708 
Q 1341 388 1716 388 
Q 2075 388 2334 692 
Q 2594 997 2594 1619 
Q 2594 2281 2320 2615 
Q 2047 2950 1678 2950 
Q 1313 2950 1058 2639 
Q 803 2328 803 1669 
z
" transform="scale(0.015625)"/>
       <path id="ArialMT-75" d="M 2597 0 
L 2597 488 
Q 2209 -75 1544 -75 
Q 1250 -75 995 37 
Q 741 150 617 320 
Q 494 491 444 738 
Q 409 903 409 1263 
L 409 3319 
L 972 3319 
L 972 1478 
Q 972 1038 1006 884 
Q 1059 663 1231 536 
Q 1403 409 1656 409 
Q 1909 409 2131 539 
Q 2353 669 2445 892 
Q 2538 1116 2538 1541 
L 2538 3319 
L 3100 3319 
L 3100 0 
L 2597 0 
z
" transform="scale(0.015625)"/>
       <path id="ArialMT-6e" d="M 422 0 
L 422 3319 
L 928 3319 
L 928 2847 
Q 1294 3394 1984 3394 
Q 2284 3394 2536 3286 
Q 2788 3178 2913 3003 
Q 3038 2828 3088 2588 
Q 3119 2431 3119 2041 
L 3119 0 
L 2556 0 
L 2556 2019 
Q 2556 2363 2490 2533 
Q 2425 2703 2258 2804 
Q 2091 2906 1866 2906 
Q 1506 2906 1245 2678 
Q 984 2450 984 1813 
L 984 0 
L 422 0 
z
" transform="scale(0.015625)"/>
       <path id="ArialMT-63" d="M 2588 1216 
L 3141 1144 
Q 3050 572 2676 248 
Q 2303 -75 1759 -75 
Q 1078 -75 664 370 
Q 250 816 250 1647 
Q 250 2184 428 2587 
Q 606 2991 970 3192 
Q 1334 3394 1763 3394 
Q 2303 3394 2647 3120 
Q 2991 2847 3088 2344 
L 2541 2259 
Q 2463 2594 2264 2762 
Q 2066 2931 1784 2931 
Q 1359 2931 1093 2626 
Q 828 2322 828 1663 
Q 828 994 1084 691 
Q 1341 388 1753 388 
Q 2084 388 2306 591 
Q 2528 794 2588 1216 
z
" transform="scale(0.015625)"/>
       <path id="ArialMT-79" d="M 397 -1278 
L 334 -750 
Q 519 -800 656 -800 
Q 844 -800 956 -737 
Q 1069 -675 1141 -563 
Q 1194 -478 1313 -144 
Q 1328 -97 1363 -6 
L 103 3319 
L 709 3319 
L 1400 1397 
Q 1534 1031 1641 628 
Q 1738 1016 1872 1384 
L 2581 3319 
L 3144 3319 
L 1881 -56 
Q 1678 -603 1566 -809 
Q 1416 -1088 1222 -1217 
Q 1028 -1347 759 -1347 
Q 597 -1347 397 -1278 
z
" transform="scale(0.015625)"/>
       <path id="ArialMT-20" transform="scale(0.015625)"/>
       <path id="ArialMT-28" d="M 1497 -1347 
Q 1031 -759 709 28 
Q 388 816 388 1659 
Q 388 2403 628 3084 
Q 909 3875 1497 4659 
L 1900 4659 
Q 1522 4009 1400 3731 
Q 1209 3300 1100 2831 
Q 966 2247 966 1656 
Q 966 153 1900 -1347 
L 1497 -1347 
z
" transform="scale(0.015625)"/>
       <path id="ArialMT-48" d="M 513 0 
L 513 4581 
L 1119 4581 
L 1119 2700 
L 3500 2700 
L 3500 4581 
L 4106 4581 
L 4106 0 
L 3500 0 
L 3500 2159 
L 1119 2159 
L 1119 0 
L 513 0 
z
" transform="scale(0.015625)"/>
       <path id="ArialMT-7a" d="M 125 0 
L 125 456 
L 2238 2881 
Q 1878 2863 1603 2863 
L 250 2863 
L 250 3319 
L 2963 3319 
L 2963 2947 
L 1166 841 
L 819 456 
Q 1197 484 1528 484 
L 3063 484 
L 3063 0 
L 125 0 
z
" transform="scale(0.015625)"/>
       <path id="ArialMT-29" d="M 791 -1347 
L 388 -1347 
Q 1322 153 1322 1656 
Q 1322 2244 1188 2822 
Q 1081 3291 891 3722 
Q 769 4003 388 4659 
L 791 4659 
Q 1378 3875 1659 3084 
Q 1900 2403 1900 1659 
Q 1900 816 1576 28 
Q 1253 -759 791 -1347 
z
" transform="scale(0.015625)"/>
      </defs>
      <use xlink:href="#ArialMT-46"/>
      <use xlink:href="#ArialMT-72" x="61.083984"/>
      <use xlink:href="#ArialMT-65" x="94.384766"/>
      <use xlink:href="#ArialMT-71" x="150"/>
      <use xlink:href="#ArialMT-75" x="205.615234"/>
      <use xlink:href="#ArialMT-65" x="261.230469"/>
      <use xlink:href="#ArialMT-6e" x="316.845703"/>
      <use xlink:href="#ArialMT-63" x="372.460938"/>
      <use xlink:href="#ArialMT-79" x="422.460938"/>
      <use xlink:href="#ArialMT-20" x="472.460938"/>
      <use xlink:href="#ArialMT-28" x="500.244141"/>
      <use xlink:href="#ArialMT-48" x="533.544922"/>
      <use xlink:href="#ArialMT-7a" x="605.761719"/>
      <use xlink:href="#ArialMT-29" x="655.761719"/>
     </g>
    </g>
   </g>
   <g id="matplotlib.axis_2">
    <g id="ytick_1">
     <g id="line2d_8">
      <defs>
       <path id="ma2bc1895b2" d="M 0 0 
L -6 0 
" style="stroke: #262626; stroke-width: 1.25"/>
      </defs>
      <g>
       <use xlink:href="#ma2bc1895b2" x="54" y="242.116365" style="fill: #262626; stroke: #262626; stroke-width: 1.25"/>
      </g>
     </g>
     <g id="text_9">
      <!-- 0.0 -->
      <g style="fill: #262626" transform="translate(29.21 246.053162)scale(0.11 -0.11)">
       <defs>
        <path id="ArialMT-2e" d="M 581 0 
L 581 641 
L 1222 641 
L 1222 0 
L 581 0 
z
" transform="scale(0.015625)"/>
       </defs>
       <use xlink:href="#ArialMT-30"/>
       <use xlink:href="#ArialMT-2e" x="55.615234"/>
       <use xlink:href="#ArialMT-30" x="83.398438"/>
      </g>
     </g>
    </g>
    <g id="ytick_2">
     <g id="line2d_9">
      <g>
       <use xlink:href="#ma2bc1895b2" x="54" y="202.58182" style="fill: #262626; stroke: #262626; stroke-width: 1.25"/>
      </g>
     </g>
     <g id="text_10">
      <!-- 0.2 -->
      <g style="fill: #262626" transform="translate(29.21 206.518616)scale(0.11 -0.11)">
       <use xlink:href="#ArialMT-30"/>
       <use xlink:href="#ArialMT-2e" x="55.615234"/>
       <use xlink:href="#ArialMT-32" x="83.398438"/>
      </g>
     </g>
    </g>
    <g id="ytick_3">
     <g id="line2d_10">
      <g>
       <use xlink:href="#ma2bc1895b2" x="54" y="163.047274" style="fill: #262626; stroke: #262626; stroke-width: 1.25"/>
      </g>
     </g>
     <g id="text_11">
      <!-- 0.4 -->
      <g style="fill: #262626" transform="translate(29.21 166.984071)scale(0.11 -0.11)">
       <defs>
        <path id="ArialMT-34" d="M 2069 0 
L 2069 1097 
L 81 1097 
L 81 1613 
L 2172 4581 
L 2631 4581 
L 2631 1613 
L 3250 1613 
L 3250 1097 
L 2631 1097 
L 2631 0 
L 2069 0 
z
M 2069 1613 
L 2069 3678 
L 634 1613 
L 2069 1613 
z
" transform="scale(0.015625)"/>
       </defs>
       <use xlink:href="#ArialMT-30"/>
       <use xlink:href="#ArialMT-2e" x="55.615234"/>
       <use xlink:href="#ArialMT-34" x="83.398438"/>
      </g>
     </g>
    </g>
    <g id="ytick_4">
     <g id="line2d_11">
      <g>
       <use xlink:href="#ma2bc1895b2" x="54" y="123.512728" style="fill: #262626; stroke: #262626; stroke-width: 1.25"/>
      </g>
     </g>
     <g id="text_12">
      <!-- 0.6 -->
      <g style="fill: #262626" transform="translate(29.21 127.449525)scale(0.11 -0.11)">
       <defs>
        <path id="ArialMT-36" d="M 3184 3459 
L 2625 3416 
Q 2550 3747 2413 3897 
Q 2184 4138 1850 4138 
Q 1581 4138 1378 3988 
Q 1113 3794 959 3422 
Q 806 3050 800 2363 
Q 1003 2672 1297 2822 
Q 1591 2972 1913 2972 
Q 2475 2972 2870 2558 
Q 3266 2144 3266 1488 
Q 3266 1056 3080 686 
Q 2894 316 2569 119 
Q 2244 -78 1831 -78 
Q 1128 -78 684 439 
Q 241 956 241 2144 
Q 241 3472 731 4075 
Q 1159 4600 1884 4600 
Q 2425 4600 2770 4297 
Q 3116 3994 3184 3459 
z
M 888 1484 
Q 888 1194 1011 928 
Q 1134 663 1356 523 
Q 1578 384 1822 384 
Q 2178 384 2434 671 
Q 2691 959 2691 1453 
Q 2691 1928 2437 2201 
Q 2184 2475 1800 2475 
Q 1419 2475 1153 2201 
Q 888 1928 888 1484 
z
" transform="scale(0.015625)"/>
       </defs>
       <use xlink:href="#ArialMT-30"/>
       <use xlink:href="#ArialMT-2e" x="55.615234"/>
       <use xlink:href="#ArialMT-36" x="83.398438"/>
      </g>
     </g>
    </g>
    <g id="ytick_5">
     <g id="line2d_12">
      <g>
       <use xlink:href="#ma2bc1895b2" x="54" y="83.978182" style="fill: #262626; stroke: #262626; stroke-width: 1.25"/>
      </g>
     </g>
     <g id="text_13">
      <!-- 0.8 -->
      <g style="fill: #262626" transform="translate(29.21 87.914979)scale(0.11 -0.11)">
       <defs>
        <path id="ArialMT-38" d="M 1131 2484 
Q 781 2613 612 2850 
Q 444 3088 444 3419 
Q 444 3919 803 4259 
Q 1163 4600 1759 4600 
Q 2359 4600 2725 4251 
Q 3091 3903 3091 3403 
Q 3091 3084 2923 2848 
Q 2756 2613 2416 2484 
Q 2838 2347 3058 2040 
Q 3278 1734 3278 1309 
Q 3278 722 2862 322 
Q 2447 -78 1769 -78 
Q 1091 -78 675 323 
Q 259 725 259 1325 
Q 259 1772 486 2073 
Q 713 2375 1131 2484 
z
M 1019 3438 
Q 1019 3113 1228 2906 
Q 1438 2700 1772 2700 
Q 2097 2700 2305 2904 
Q 2513 3109 2513 3406 
Q 2513 3716 2298 3927 
Q 2084 4138 1766 4138 
Q 1444 4138 1231 3931 
Q 1019 3725 1019 3438 
z
M 838 1322 
Q 838 1081 952 856 
Q 1066 631 1291 507 
Q 1516 384 1775 384 
Q 2178 384 2440 643 
Q 2703 903 2703 1303 
Q 2703 1709 2433 1975 
Q 2163 2241 1756 2241 
Q 1359 2241 1098 1978 
Q 838 1716 838 1322 
z
" transform="scale(0.015625)"/>
       </defs>
       <use xlink:href="#ArialMT-30"/>
       <use xlink:href="#ArialMT-2e" x="55.615234"/>
       <use xlink:href="#ArialMT-38" x="83.398438"/>
      </g>
     </g>
    </g>
    <g id="ytick_6">
     <g id="line2d_13">
      <g>
       <use xlink:href="#ma2bc1895b2" x="54" y="44.443636" style="fill: #262626; stroke: #262626; stroke-width: 1.25"/>
      </g>
     </g>
     <g id="text_14">
      <!-- 1.0 -->
      <g style="fill: #262626" transform="translate(29.21 48.380433)scale(0.11 -0.11)">
       <use xlink:href="#ArialMT-31"/>
       <use xlink:href="#ArialMT-2e" x="55.615234"/>
       <use xlink:href="#ArialMT-30" x="83.398438"/>
      </g>
     </g>
    </g>
   </g>
   <g id="line2d_14">
    <path d="M 54 242.114518 
L 95.548771 242.106785 
L 98.041698 241.708832 
L 98.872673 241.18919 
L 99.703649 240.029625 
L 100.534624 239.769791 
L 101.365599 240.071707 
L 103.02755 235.602302 
L 103.858526 238.713955 
L 104.689501 240.527354 
L 105.520477 231.009499 
L 106.351452 241.086058 
L 107.182427 240.320931 
L 108.013403 215.549536 
L 108.844378 210.392587 
L 109.675354 196.799244 
L 110.506329 230.158125 
L 111.337305 238.827401 
L 112.16828 222.169698 
L 112.999255 193.750793 
L 113.830231 180.748466 
L 114.661206 211.703617 
L 115.492182 133.523549 
L 116.323157 199.645555 
L 117.154133 92.147945 
L 118.816083 234.033258 
L 119.647059 98.851847 
L 120.478034 187.62333 
L 121.30901 154.590426 
L 122.139985 44.443636 
L 123.801936 230.512976 
L 125.463887 213.531684 
L 126.294862 92.168897 
L 127.125838 220.441872 
L 127.956813 232.782283 
L 128.787789 219.768119 
L 129.618764 176.798278 
L 130.449739 223.179369 
L 131.280715 199.457159 
L 132.11169 239.177241 
L 133.773641 216.680516 
L 134.604617 218.938727 
L 135.435592 208.054136 
L 136.266567 216.458524 
L 137.097543 206.307256 
L 137.928518 241.006767 
L 138.759494 118.693832 
L 140.421445 241.978602 
L 141.25242 220.72478 
L 142.083395 235.717305 
L 142.914371 239.435711 
L 143.745346 207.153454 
L 144.576322 236.611587 
L 145.407297 202.556994 
L 146.238273 116.681178 
L 147.069248 129.69877 
L 147.900223 232.211338 
L 148.731199 227.436658 
L 149.562174 146.601545 
L 150.39315 219.459807 
L 151.224125 238.217192 
L 152.055101 114.852371 
L 152.886076 88.972458 
L 153.717051 197.371594 
L 154.548027 195.334205 
L 155.379002 204.36241 
L 156.209978 239.410697 
L 157.040953 219.364084 
L 157.871929 204.075039 
L 158.702904 223.502396 
L 159.533879 215.826026 
L 160.364855 166.449569 
L 161.19583 207.479178 
L 162.026806 235.300317 
L 162.857781 235.659586 
L 163.688757 216.715617 
L 164.519732 237.736887 
L 166.181683 178.709076 
L 167.012658 229.22126 
L 167.843634 197.064971 
L 168.674609 235.14072 
L 169.505585 234.160136 
L 170.33656 226.932046 
L 171.167535 241.298766 
L 171.998511 227.82406 
L 172.829486 237.622306 
L 174.491437 224.225735 
L 175.322413 207.355185 
L 176.984363 238.61531 
L 177.815339 235.55311 
L 178.646314 169.818609 
L 179.47729 191.716242 
L 180.308265 234.6282 
L 181.139241 241.596712 
L 181.970216 229.351642 
L 182.801191 226.111169 
L 183.632167 227.631684 
L 184.463142 230.449863 
L 185.294118 185.532469 
L 186.125093 205.409118 
L 186.956069 204.57102 
L 187.787044 241.709705 
L 188.618019 226.390083 
L 189.448995 241.521914 
L 190.27997 237.698429 
L 191.110946 240.324501 
L 191.941921 205.774128 
L 192.772897 232.605359 
L 193.603872 221.826052 
L 194.434847 212.777793 
L 195.265823 232.485268 
L 196.096798 237.909362 
L 196.927774 239.722358 
L 197.758749 239.398472 
L 198.589724 203.732046 
L 199.4207 211.56221 
L 200.251675 192.146167 
L 201.082651 232.480981 
L 201.913626 230.954127 
L 202.744602 225.689203 
L 203.575577 241.373148 
L 204.406552 240.235015 
L 205.237528 241.808415 
L 206.068503 238.151338 
L 206.899479 224.839642 
L 207.730454 240.069094 
L 208.56143 240.711715 
L 209.392405 237.512851 
L 210.22338 219.880181 
L 211.054356 241.983773 
L 211.885331 236.951792 
L 212.716307 234.48158 
L 213.547282 240.251944 
L 214.378258 240.258919 
L 215.209233 220.884518 
L 216.040208 240.584081 
L 216.871184 223.402567 
L 217.702159 237.371325 
L 218.533135 239.720328 
L 219.36411 239.763853 
L 220.195086 233.535122 
L 221.026061 240.469231 
L 221.857036 242.061813 
L 222.688012 240.439805 
L 223.518987 235.764528 
L 224.349963 232.741016 
L 225.180938 233.626648 
L 226.842889 240.057219 
L 227.673864 240.574999 
L 228.50484 240.391854 
L 229.335815 236.160891 
L 230.166791 241.157952 
L 230.997766 241.786755 
L 231.828742 234.794135 
L 232.659717 237.490955 
L 233.490692 233.843255 
L 234.321668 241.923264 
L 235.152643 241.203163 
L 235.983619 238.814372 
L 236.814594 234.459738 
L 237.64557 240.25706 
L 238.476545 236.034058 
L 239.30752 241.402475 
L 240.138496 241.321854 
L 240.969471 236.488008 
L 241.800447 235.172171 
L 242.631422 236.640321 
L 243.462398 241.986746 
L 244.293373 235.590427 
L 245.124348 235.058637 
L 245.955324 241.501806 
L 246.786299 241.806645 
L 247.617275 240.928722 
L 248.44825 239.350635 
L 249.279226 239.154756 
L 250.110201 225.649468 
L 250.941176 239.853393 
L 251.772152 236.009106 
L 252.603127 234.51513 
L 253.434103 237.348901 
L 254.265078 242.011716 
L 255.096054 239.879931 
L 255.927029 241.900543 
L 256.758004 238.446132 
L 257.58898 240.689137 
L 258.419955 240.395636 
L 259.250931 241.929347 
L 260.081906 235.364554 
L 260.912882 234.41569 
L 261.743857 220.963129 
L 262.574832 237.146301 
L 263.405808 238.130867 
L 264.236783 237.653062 
L 265.067759 236.105409 
L 265.898734 236.182041 
L 266.72971 232.227618 
L 267.560685 227.342666 
L 268.39166 216.02179 
L 269.222636 214.27154 
L 270.053611 232.004183 
L 270.884587 234.325585 
L 271.715562 227.811581 
L 272.546538 239.274799 
L 273.377513 234.413373 
L 274.208488 225.916345 
L 275.039464 226.63483 
L 275.870439 234.40026 
L 276.701415 206.032478 
L 277.53239 231.377742 
L 278.363366 241.433081 
L 279.194341 236.456878 
L 280.025316 239.714183 
L 281.687267 227.415199 
L 282.518243 238.974184 
L 283.349218 222.603248 
L 284.180194 230.162311 
L 285.011169 239.309633 
L 285.842144 238.96117 
L 286.67312 240.68469 
L 287.504095 241.702194 
L 288.335071 231.747526 
L 289.166046 231.437554 
L 289.997022 233.581349 
L 290.827997 241.993532 
L 291.658972 239.516508 
L 292.489948 239.999235 
L 293.320923 239.569643 
L 294.151899 237.681057 
L 294.982874 233.545089 
L 295.81385 236.839593 
L 296.644825 230.786715 
L 297.4758 234.962472 
L 298.306776 240.351753 
L 299.137751 237.220947 
L 299.968727 241.8476 
L 300.799702 240.509746 
L 301.630678 235.429856 
L 302.461653 235.978491 
L 303.292628 238.922091 
L 304.123604 237.376885 
L 304.954579 240.537253 
L 305.785555 241.081393 
L 306.61653 236.461417 
L 307.447506 240.773357 
L 308.278481 239.565276 
L 309.109456 240.93767 
L 309.940432 237.956059 
L 310.771407 240.488278 
L 311.602383 238.157412 
L 312.433358 241.074853 
L 313.264334 242.02036 
L 314.095309 240.872624 
L 314.926284 240.496693 
L 315.75726 237.112392 
L 316.588235 236.928754 
L 317.419211 241.913274 
L 318.250186 241.94279 
L 319.081162 240.189551 
L 319.912137 235.018493 
L 320.743112 238.1893 
L 321.574088 240.648894 
L 322.405063 241.437804 
L 323.236039 241.608866 
L 324.067014 239.921263 
L 324.89799 239.126954 
L 325.728965 240.150652 
L 326.55994 239.79176 
L 327.390916 239.169952 
L 328.221891 238.129616 
L 329.052867 241.32763 
L 329.883842 241.91866 
L 330.714818 241.847204 
L 331.545793 242.03227 
L 332.376768 241.288921 
L 333.207744 239.43139 
L 334.038719 240.059718 
L 335.70067 242.072191 
L 336.531646 242.100331 
L 337.362621 241.304658 
L 339.024572 240.439226 
L 339.855547 241.403846 
L 340.686523 241.129804 
L 341.517498 241.009307 
L 342.348474 241.81523 
L 343.179449 242.065467 
L 344.010424 241.94515 
L 344.8414 242.025989 
L 347.334326 241.575747 
L 348.165302 241.949791 
L 348.996277 241.968853 
L 349.827252 242.109826 
L 350.658228 241.568894 
L 353.151154 242.072642 
L 353.98213 241.913871 
L 355.64408 242.081102 
L 357.306031 242.104219 
L 358.137007 241.819916 
L 360.629933 242.030089 
L 361.460908 241.990258 
L 362.291884 242.076042 
L 363.122859 241.976483 
L 363.953835 242.098666 
L 388.883098 242.113234 
L 388.883098 242.113234 
" clip-path="url(#pa76912b245)" style="fill: none; stroke: #4c72b0; stroke-opacity: 0.3; stroke-width: 1.5; stroke-linecap: round"/>
   </g>
   <g id="line2d_15">
    <path d="M 54 242.102551 
L 96.379747 242.092771 
L 97.210722 241.873358 
L 99.703649 241.773065 
L 100.534624 242.027551 
L 102.196575 241.919274 
L 103.02755 241.44453 
L 103.858526 238.308145 
L 104.689501 240.995154 
L 105.520477 238.004172 
L 106.351452 223.965853 
L 107.182427 227.133753 
L 108.013403 240.944854 
L 108.844378 229.846196 
L 109.675354 237.654682 
L 110.506329 228.356961 
L 111.337305 185.9717 
L 112.16828 238.983901 
L 112.999255 160.069945 
L 113.830231 187.119324 
L 114.661206 159.020416 
L 115.492182 232.33007 
L 116.323157 156.917253 
L 117.154133 202.50554 
L 117.985108 230.665678 
L 118.816083 233.064203 
L 120.478034 192.903047 
L 121.30901 207.326262 
L 122.139985 203.9489 
L 122.970961 238.804456 
L 123.801936 239.488846 
L 124.632911 206.712428 
L 125.463887 44.443636 
L 126.294862 218.3052 
L 127.125838 225.323898 
L 127.956813 224.861122 
L 128.787789 241.976547 
L 129.618764 238.901468 
L 130.449739 136.915496 
L 131.280715 235.957798 
L 132.11169 194.593913 
L 132.942666 239.927177 
L 133.773641 235.436674 
L 134.604617 213.110758 
L 135.435592 224.457452 
L 136.266567 230.81545 
L 137.097543 204.835685 
L 137.928518 215.847245 
L 138.759494 220.640468 
L 139.590469 218.780986 
L 140.421445 237.534385 
L 141.25242 228.957627 
L 142.083395 223.977293 
L 142.914371 237.922343 
L 143.745346 238.754762 
L 144.576322 207.76184 
L 145.407297 228.631017 
L 146.238273 220.381988 
L 147.069248 188.35109 
L 147.900223 230.159764 
L 148.731199 235.417335 
L 149.562174 235.30847 
L 151.224125 150.507605 
L 152.055101 202.646497 
L 152.886076 189.989765 
L 153.717051 220.860514 
L 154.548027 201.437743 
L 156.209978 241.45185 
L 157.040953 187.984136 
L 157.871929 191.16232 
L 158.702904 200.168322 
L 159.533879 191.64335 
L 160.364855 134.352102 
L 161.19583 211.689632 
L 162.026806 221.160167 
L 162.857781 224.93957 
L 163.688757 233.276459 
L 164.519732 198.904915 
L 165.350707 235.695524 
L 166.181683 220.522646 
L 167.012658 177.651298 
L 167.843634 168.000914 
L 168.674609 230.237353 
L 169.505585 238.598438 
L 170.33656 241.833099 
L 171.167535 206.440655 
L 171.998511 189.225925 
L 172.829486 227.915666 
L 173.660462 239.565882 
L 174.491437 224.32368 
L 175.322413 223.839136 
L 176.153388 227.789081 
L 176.984363 117.100232 
L 177.815339 240.64221 
L 178.646314 229.690984 
L 179.47729 214.854932 
L 180.308265 211.216811 
L 181.139241 224.658999 
L 181.970216 217.380743 
L 182.801191 221.031404 
L 183.632167 195.298652 
L 184.463142 217.648378 
L 185.294118 221.878296 
L 186.125093 212.985657 
L 186.956069 221.452332 
L 187.787044 188.849713 
L 188.618019 185.973582 
L 189.448995 239.782266 
L 190.27997 240.873653 
L 191.110946 237.03543 
L 191.941921 229.500361 
L 192.772897 216.362265 
L 193.603872 236.034298 
L 194.434847 240.192279 
L 195.265823 230.823577 
L 196.096798 219.972022 
L 196.927774 231.281769 
L 197.758749 232.279598 
L 198.589724 235.291539 
L 199.4207 224.475651 
L 200.251675 211.441681 
L 201.082651 167.427397 
L 201.913626 230.144474 
L 202.744602 242.006045 
L 203.575577 231.705205 
L 204.406552 206.51779 
L 205.237528 240.943237 
L 206.899479 207.877849 
L 207.730454 223.727686 
L 208.56143 220.250437 
L 209.392405 196.003254 
L 210.22338 226.045229 
L 211.054356 227.099384 
L 211.885331 236.957862 
L 212.716307 238.174179 
L 213.547282 224.925422 
L 214.378258 237.6477 
L 215.209233 226.691223 
L 216.040208 194.955693 
L 216.871184 224.803153 
L 217.702159 240.33499 
L 218.533135 238.762808 
L 219.36411 224.614772 
L 220.195086 180.569222 
L 221.026061 239.219298 
L 221.857036 234.565121 
L 222.688012 207.326628 
L 223.518987 236.899336 
L 224.349963 215.936229 
L 226.011914 239.048378 
L 226.842889 228.9889 
L 227.673864 241.474215 
L 228.50484 234.189481 
L 229.335815 224.484696 
L 230.166791 235.967565 
L 230.997766 240.234687 
L 231.828742 221.033907 
L 232.659717 235.056653 
L 233.490692 239.167747 
L 234.321668 241.517279 
L 235.152643 217.982007 
L 235.983619 213.005107 
L 236.814594 236.356651 
L 237.64557 233.730019 
L 238.476545 238.995553 
L 239.30752 242.01319 
L 240.138496 223.856781 
L 240.969471 240.842159 
L 241.800447 232.6857 
L 242.631422 241.993367 
L 243.462398 238.636628 
L 244.293373 229.163317 
L 245.124348 238.417119 
L 245.955324 241.374215 
L 246.786299 221.448965 
L 247.617275 226.090415 
L 248.44825 237.122732 
L 249.279226 226.688504 
L 250.110201 229.727824 
L 250.941176 231.857654 
L 251.772152 238.162287 
L 253.434103 240.130638 
L 254.265078 232.173456 
L 255.096054 239.345198 
L 255.927029 226.773855 
L 256.758004 237.631066 
L 257.58898 240.991186 
L 259.250931 224.026987 
L 260.081906 241.107222 
L 260.912882 238.508265 
L 261.743857 240.551558 
L 262.574832 218.2035 
L 263.405808 232.924654 
L 264.236783 234.808143 
L 265.898734 241.788785 
L 266.72971 240.845015 
L 267.560685 239.354243 
L 268.39166 237.597384 
L 269.222636 227.901257 
L 270.053611 221.712014 
L 270.884587 206.435157 
L 272.546538 224.526946 
L 273.377513 228.24753 
L 274.208488 235.324977 
L 275.039464 237.741348 
L 275.870439 230.310701 
L 276.701415 241.994324 
L 277.53239 229.896927 
L 278.363366 215.18009 
L 279.194341 241.939109 
L 280.025316 236.533999 
L 280.856292 241.82777 
L 281.687267 229.464652 
L 282.518243 227.999262 
L 283.349218 236.88298 
L 284.180194 234.672895 
L 285.011169 239.490546 
L 285.842144 235.420181 
L 286.67312 212.0696 
L 287.504095 230.757153 
L 289.166046 238.82244 
L 289.997022 240.85249 
L 290.827997 237.194007 
L 291.658972 235.86202 
L 292.489948 232.865551 
L 293.320923 237.077626 
L 294.982874 241.871169 
L 295.81385 234.112315 
L 296.644825 241.826984 
L 297.4758 225.85079 
L 298.306776 230.856653 
L 299.137751 237.018597 
L 299.968727 241.320394 
L 300.799702 237.418922 
L 301.630678 241.364878 
L 302.461653 238.651553 
L 303.292628 239.793492 
L 304.123604 241.752495 
L 305.785555 232.041458 
L 306.61653 230.467398 
L 307.447506 238.487095 
L 308.278481 239.256299 
L 309.109456 241.689839 
L 310.771407 232.988447 
L 311.602383 239.819895 
L 312.433358 241.269694 
L 313.264334 240.249921 
L 314.095309 241.034481 
L 314.926284 239.321701 
L 315.75726 235.475731 
L 316.588235 240.164882 
L 317.419211 235.209031 
L 318.250186 234.962597 
L 319.081162 238.48211 
L 319.912137 239.96838 
L 320.743112 239.712203 
L 321.574088 241.798573 
L 322.405063 240.005599 
L 323.236039 241.494446 
L 324.067014 241.534779 
L 324.89799 241.124773 
L 325.728965 238.168087 
L 326.55994 238.565008 
L 327.390916 240.826536 
L 328.221891 241.062501 
L 329.052867 242.05554 
L 329.883842 241.470914 
L 330.714818 242.102173 
L 331.545793 240.709361 
L 332.376768 239.953828 
L 333.207744 240.978943 
L 334.038719 240.715497 
L 334.869695 241.94427 
L 335.70067 241.773281 
L 336.531646 241.038443 
L 337.362621 242.099968 
L 338.193596 241.76325 
L 339.024572 241.824595 
L 339.855547 240.85948 
L 340.686523 241.937183 
L 342.348474 241.973626 
L 343.179449 241.793866 
L 344.010424 242.079986 
L 344.8414 240.699427 
L 345.672375 241.955133 
L 346.503351 242.081521 
L 347.334326 241.830554 
L 348.165302 241.809815 
L 348.996277 242.063546 
L 349.827252 241.296996 
L 350.658228 242.079688 
L 351.489203 242.097805 
L 352.320179 241.933212 
L 353.151154 241.574299 
L 353.98213 242.096735 
L 354.813105 242.093191 
L 355.64408 241.96033 
L 356.475056 242.099838 
L 357.306031 241.996238 
L 358.967982 242.064324 
L 359.798958 241.782663 
L 361.460908 242.052763 
L 362.291884 241.953257 
L 363.122859 242.083315 
L 363.953835 241.94799 
L 364.78481 242.091909 
L 365.615786 242.097753 
L 366.446761 241.937117 
L 367.277736 242.064513 
L 368.108712 241.988351 
L 368.939687 241.751942 
L 369.770663 242.052139 
L 388.883098 242.107042 
L 388.883098 242.107042 
" clip-path="url(#pa76912b245)" style="fill: none; stroke: #dd8452; stroke-opacity: 0.3; stroke-width: 1.5; stroke-linecap: round"/>
   </g>
   <g id="line2d_16">
    <path d="M 54 242.105518 
L 102.196575 242.072711 
L 103.02755 240.696248 
L 103.858526 240.06086 
L 104.689501 238.063816 
L 105.520477 232.566546 
L 106.351452 222.457745 
L 107.182427 236.85522 
L 108.013403 225.180077 
L 108.844378 230.90524 
L 109.675354 239.283439 
L 110.506329 234.824261 
L 111.337305 197.697563 
L 112.16828 217.121418 
L 112.999255 223.871779 
L 113.830231 210.166148 
L 114.661206 145.045401 
L 115.492182 178.621947 
L 116.323157 224.002433 
L 117.154133 135.819556 
L 117.985108 165.376962 
L 118.816083 138.815782 
L 119.647059 188.508239 
L 120.478034 207.246677 
L 121.30901 206.550735 
L 122.139985 201.496955 
L 122.970961 207.867402 
L 123.801936 211.674182 
L 124.632911 198.468533 
L 125.463887 44.443636 
L 127.125838 236.336741 
L 127.956813 214.965575 
L 128.787789 236.42389 
L 129.618764 227.690235 
L 130.449739 106.752073 
L 131.280715 188.915503 
L 132.11169 241.510322 
L 132.942666 237.127982 
L 133.773641 240.437669 
L 134.604617 210.931642 
L 135.435592 232.970399 
L 136.266567 232.591694 
L 137.097543 217.140156 
L 137.928518 225.972072 
L 138.759494 185.685683 
L 139.590469 165.057892 
L 140.421445 239.177839 
L 141.25242 229.26639 
L 142.083395 226.595465 
L 142.914371 240.243573 
L 143.745346 214.973176 
L 144.576322 236.971894 
L 145.407297 235.696012 
L 146.238273 236.243109 
L 147.069248 163.273386 
L 147.900223 231.594693 
L 148.731199 240.340671 
L 149.562174 230.827607 
L 150.39315 224.490905 
L 151.224125 200.067136 
L 152.055101 142.853643 
L 152.886076 216.307403 
L 153.717051 190.437851 
L 154.548027 205.118489 
L 155.379002 214.633944 
L 156.209978 218.681469 
L 157.040953 169.657393 
L 157.871929 181.121008 
L 158.702904 236.614369 
L 159.533879 223.472097 
L 160.364855 115.904786 
L 161.19583 168.979975 
L 162.026806 237.106187 
L 162.857781 225.886089 
L 163.688757 234.854701 
L 164.519732 238.840529 
L 165.350707 226.608996 
L 166.181683 200.942358 
L 167.012658 216.450038 
L 167.843634 165.188375 
L 168.674609 224.461321 
L 169.505585 228.240148 
L 170.33656 233.073441 
L 171.167535 210.575213 
L 171.998511 210.542788 
L 172.829486 237.884084 
L 173.660462 239.434811 
L 174.491437 223.983215 
L 175.322413 213.895713 
L 176.153388 212.027577 
L 176.984363 161.054845 
L 177.815339 216.567624 
L 178.646314 172.062243 
L 179.47729 239.964004 
L 180.308265 226.631366 
L 181.139241 232.66317 
L 181.970216 206.361582 
L 182.801191 197.63399 
L 183.632167 187.334996 
L 184.463142 237.701697 
L 185.294118 233.912919 
L 186.125093 238.638411 
L 186.956069 181.889589 
L 187.787044 209.364106 
L 188.618019 194.956175 
L 189.448995 241.708293 
L 190.27997 239.542045 
L 191.110946 233.792311 
L 191.941921 186.223682 
L 192.772897 219.595819 
L 193.603872 236.969505 
L 194.434847 227.379693 
L 195.265823 242.020532 
L 196.096798 222.610528 
L 196.927774 236.470138 
L 197.758749 229.891406 
L 198.589724 208.397444 
L 199.4207 195.638972 
L 200.251675 195.908174 
L 201.082651 214.26208 
L 201.913626 236.635626 
L 202.744602 235.932158 
L 203.575577 240.892696 
L 204.406552 225.822374 
L 205.237528 238.83884 
L 206.068503 211.022956 
L 206.899479 196.08319 
L 207.730454 233.181346 
L 208.56143 227.60059 
L 209.392405 199.180189 
L 210.22338 200.021807 
L 211.054356 229.94655 
L 211.885331 234.432923 
L 212.716307 236.307256 
L 213.547282 223.150373 
L 214.378258 241.751347 
L 215.209233 203.154178 
L 216.040208 193.673427 
L 216.871184 211.16262 
L 217.702159 241.605894 
L 218.533135 229.83775 
L 219.36411 213.512452 
L 220.195086 189.373545 
L 221.026061 236.0627 
L 221.857036 238.274373 
L 222.688012 227.8294 
L 223.518987 241.780981 
L 224.349963 220.544858 
L 225.180938 207.539471 
L 226.011914 227.491399 
L 226.842889 230.840936 
L 227.673864 241.55633 
L 228.50484 234.059476 
L 229.335815 228.308372 
L 230.166791 233.106636 
L 230.997766 238.587286 
L 231.828742 232.714724 
L 232.659717 241.675258 
L 233.490692 238.953219 
L 234.321668 240.624604 
L 235.152643 226.773714 
L 235.983619 222.493094 
L 236.814594 232.967959 
L 237.64557 238.957919 
L 238.476545 239.584078 
L 239.30752 240.663761 
L 240.138496 234.853214 
L 240.969471 238.147536 
L 241.800447 236.801576 
L 242.631422 241.352952 
L 243.462398 242.015461 
L 244.293373 240.467811 
L 245.955324 239.902378 
L 246.786299 232.242054 
L 248.44825 239.368915 
L 249.279226 229.829321 
L 250.110201 239.035031 
L 250.941176 241.269612 
L 251.772152 232.608412 
L 252.603127 233.473826 
L 253.434103 232.584054 
L 254.265078 232.563264 
L 255.096054 235.647336 
L 255.927029 234.879285 
L 256.758004 238.166267 
L 257.58898 239.433779 
L 258.419955 240.047858 
L 259.250931 237.574282 
L 260.081906 239.928587 
L 260.912882 236.854159 
L 261.743857 235.704109 
L 262.574832 229.52477 
L 263.405808 240.175883 
L 264.236783 236.811973 
L 265.067759 241.917135 
L 265.898734 235.577989 
L 266.72971 237.454265 
L 267.560685 236.670543 
L 268.39166 227.813259 
L 269.222636 224.864742 
L 270.053611 234.303627 
L 270.884587 231.649185 
L 271.715562 232.955759 
L 272.546538 240.132264 
L 273.377513 241.583852 
L 274.208488 239.506184 
L 275.039464 236.907716 
L 275.870439 239.530213 
L 276.701415 220.450015 
L 277.53239 234.132173 
L 278.363366 234.040279 
L 279.194341 241.439695 
L 280.025316 241.782541 
L 280.856292 235.471025 
L 281.687267 210.648579 
L 282.518243 239.326357 
L 283.349218 234.967774 
L 284.180194 238.259022 
L 285.011169 240.846192 
L 285.842144 239.249147 
L 286.67312 215.899766 
L 287.504095 226.843955 
L 288.335071 223.018835 
L 289.166046 238.31602 
L 289.997022 231.71329 
L 290.827997 239.815109 
L 291.658972 231.326599 
L 292.489948 226.310748 
L 293.320923 229.537529 
L 294.151899 236.505938 
L 294.982874 237.884666 
L 295.81385 240.114208 
L 297.4758 223.749259 
L 298.306776 233.443077 
L 299.137751 235.738129 
L 299.968727 240.951201 
L 300.799702 232.561518 
L 301.630678 231.892005 
L 302.461653 238.451076 
L 303.292628 237.905999 
L 304.123604 240.102466 
L 304.954579 238.427542 
L 305.785555 232.383969 
L 306.61653 223.916688 
L 307.447506 235.384107 
L 308.278481 236.732192 
L 309.109456 238.771524 
L 309.940432 237.105053 
L 310.771407 237.700834 
L 311.602383 236.989072 
L 312.433358 241.538967 
L 313.264334 241.084369 
L 314.095309 241.461706 
L 314.926284 239.067497 
L 315.75726 230.797144 
L 316.588235 228.742296 
L 317.419211 237.678374 
L 318.250186 239.792222 
L 319.081162 240.091908 
L 319.912137 237.078501 
L 320.743112 241.501452 
L 321.574088 240.646508 
L 322.405063 238.084726 
L 323.236039 241.014037 
L 324.067014 240.598777 
L 324.89799 239.158117 
L 325.728965 241.286347 
L 326.55994 239.64858 
L 327.390916 241.851611 
L 328.221891 240.671971 
L 329.052867 242.08147 
L 329.883842 241.502891 
L 330.714818 241.824481 
L 332.376768 241.871455 
L 333.207744 241.502337 
L 334.038719 240.30608 
L 335.70067 241.950568 
L 336.531646 241.790362 
L 337.362621 241.466201 
L 338.193596 241.745938 
L 339.024572 241.643891 
L 340.686523 241.924109 
L 341.517498 241.661181 
L 342.348474 242.06579 
L 344.010424 241.95521 
L 344.8414 241.573573 
L 345.672375 241.952999 
L 348.996277 241.963077 
L 349.827252 241.27111 
L 351.489203 241.701582 
L 352.320179 242.046091 
L 353.151154 241.844397 
L 354.813105 242.019036 
L 355.64408 241.958362 
L 356.475056 242.113921 
L 358.137007 241.904398 
L 358.967982 241.74721 
L 359.798958 241.987408 
L 360.629933 241.958161 
L 361.460908 242.054029 
L 362.291884 241.852079 
L 363.122859 241.787809 
L 364.78481 242.086186 
L 366.446761 242.052576 
L 368.108712 242.007798 
L 368.939687 241.743214 
L 369.770663 241.942867 
L 371.432614 242.083593 
L 372.263589 242.030557 
L 373.92554 242.0689 
L 374.756515 242.021184 
L 376.418466 242.105871 
L 388.883098 242.115687 
L 388.883098 242.115687 
" clip-path="url(#pa76912b245)" style="fill: none; stroke: #55a868; stroke-opacity: 0.3; stroke-width: 1.5; stroke-linecap: round"/>
   </g>
   <g id="line2d_17">
    <path d="M 54 242.07411 
L 91.393894 241.999702 
L 93.055845 241.972484 
L 97.210722 241.99213 
L 98.872673 241.860302 
L 99.703649 241.18094 
L 100.534624 240.99644 
L 101.365599 241.021409 
L 102.196575 239.669474 
L 103.02755 240.997729 
L 103.858526 240.403228 
L 104.689501 241.196864 
L 105.520477 240.3655 
L 106.351452 241.694808 
L 107.182427 231.294118 
L 108.013403 236.968667 
L 108.844378 209.434122 
L 109.675354 187.960567 
L 110.506329 222.213181 
L 111.337305 240.393039 
L 112.16828 224.298636 
L 112.999255 138.62884 
L 113.830231 140.292182 
L 114.661206 230.12434 
L 115.492182 226.534068 
L 116.323157 199.667767 
L 117.154133 180.893182 
L 117.985108 232.376825 
L 118.816083 180.534698 
L 119.647059 174.548695 
L 120.478034 180.71571 
L 121.30901 224.989647 
L 122.970961 44.443636 
L 123.801936 140.096733 
L 124.632911 154.947126 
L 125.463887 207.413418 
L 126.294862 199.892205 
L 127.125838 236.231095 
L 127.956813 190.860821 
L 128.787789 235.083649 
L 129.618764 203.08321 
L 130.449739 238.813262 
L 131.280715 183.267635 
L 132.11169 194.907209 
L 132.942666 216.328807 
L 133.773641 225.587543 
L 134.604617 215.229953 
L 135.435592 236.135513 
L 136.266567 237.639375 
L 137.097543 225.790728 
L 137.928518 231.886174 
L 138.759494 227.7414 
L 139.590469 208.673055 
L 140.421445 240.588725 
L 141.25242 206.886197 
L 142.083395 230.974058 
L 142.914371 233.789422 
L 143.745346 206.652672 
L 144.576322 231.496113 
L 145.407297 227.158846 
L 146.238273 166.60917 
L 147.069248 227.435305 
L 147.900223 145.320693 
L 148.731199 239.497832 
L 149.562174 207.22419 
L 150.39315 226.585992 
L 151.224125 238.415136 
L 152.055101 202.783989 
L 152.886076 218.749044 
L 153.717051 220.270635 
L 154.548027 233.259131 
L 155.379002 229.2914 
L 156.209978 222.126682 
L 157.040953 236.812041 
L 157.871929 223.360178 
L 158.702904 241.954499 
L 159.533879 228.660877 
L 160.364855 230.830516 
L 161.19583 197.56534 
L 162.026806 241.301601 
L 162.857781 231.568346 
L 163.688757 240.546951 
L 164.519732 214.749394 
L 165.350707 238.400336 
L 166.181683 232.099448 
L 167.012658 231.475858 
L 167.843634 236.093184 
L 168.674609 232.257351 
L 169.505585 241.330262 
L 170.33656 236.119637 
L 171.167535 216.840614 
L 171.998511 239.049997 
L 172.829486 217.327769 
L 173.660462 238.103737 
L 174.491437 240.474703 
L 175.322413 232.26286 
L 176.153388 238.778123 
L 176.984363 226.033339 
L 177.815339 193.402491 
L 178.646314 239.659042 
L 179.47729 209.48422 
L 180.308265 234.463101 
L 181.139241 228.074836 
L 181.970216 235.880126 
L 182.801191 237.539264 
L 183.632167 233.977493 
L 185.294118 210.938863 
L 186.125093 207.60168 
L 186.956069 238.557588 
L 187.787044 232.035123 
L 188.618019 224.221949 
L 189.448995 238.688979 
L 190.27997 238.881529 
L 191.110946 238.751388 
L 191.941921 232.953032 
L 192.772897 238.43901 
L 193.603872 235.544837 
L 194.434847 233.66768 
L 195.265823 224.095791 
L 196.096798 233.865673 
L 196.927774 232.399582 
L 197.758749 238.422307 
L 198.589724 232.276276 
L 199.4207 233.377652 
L 200.251675 241.204081 
L 201.082651 241.130736 
L 201.913626 236.61323 
L 202.744602 238.634097 
L 203.575577 241.259066 
L 204.406552 241.085003 
L 205.237528 233.790551 
L 206.068503 235.004507 
L 206.899479 237.289814 
L 207.730454 223.251147 
L 208.56143 236.743352 
L 209.392405 235.669355 
L 210.22338 241.33307 
L 211.054356 234.278938 
L 211.885331 237.214414 
L 212.716307 241.943363 
L 213.547282 241.301586 
L 214.378258 229.106088 
L 215.209233 230.993121 
L 216.040208 239.868559 
L 216.871184 235.961196 
L 217.702159 234.581357 
L 218.533135 238.400236 
L 219.36411 240.297226 
L 220.195086 241.840726 
L 221.026061 241.966569 
L 221.857036 238.307261 
L 223.518987 233.474749 
L 224.349963 237.511699 
L 225.180938 239.815196 
L 226.011914 231.579567 
L 226.842889 240.213525 
L 227.673864 234.971175 
L 228.50484 241.284104 
L 229.335815 241.944916 
L 230.166791 238.043776 
L 230.997766 241.716182 
L 231.828742 238.505664 
L 232.659717 234.769042 
L 233.490692 240.679673 
L 234.321668 242.06646 
L 235.152643 239.498098 
L 235.983619 229.734376 
L 236.814594 235.58509 
L 237.64557 239.427119 
L 238.476545 229.724858 
L 239.30752 232.246045 
L 240.138496 241.012583 
L 240.969471 240.824711 
L 241.800447 228.40065 
L 242.631422 241.093033 
L 244.293373 227.786059 
L 245.124348 237.454982 
L 245.955324 240.707192 
L 246.786299 235.240895 
L 247.617275 241.10182 
L 248.44825 229.453488 
L 249.279226 239.572096 
L 250.110201 237.616758 
L 250.941176 238.4063 
L 251.772152 235.888094 
L 253.434103 240.307022 
L 254.265078 240.946728 
L 255.096054 235.395591 
L 255.927029 239.41868 
L 256.758004 239.075425 
L 257.58898 240.558596 
L 258.419955 238.872062 
L 259.250931 237.687615 
L 260.081906 237.702443 
L 260.912882 241.532034 
L 261.743857 239.108328 
L 262.574832 241.437456 
L 263.405808 233.20483 
L 264.236783 238.848997 
L 265.067759 237.949802 
L 265.898734 235.978578 
L 266.72971 241.996271 
L 267.560685 241.142807 
L 268.39166 237.833349 
L 269.222636 239.243469 
L 270.053611 235.409668 
L 270.884587 241.7064 
L 271.715562 235.556302 
L 272.546538 232.690348 
L 273.377513 241.037701 
L 274.208488 237.045921 
L 275.039464 240.973464 
L 275.870439 242.067432 
L 276.701415 241.755147 
L 277.53239 239.639172 
L 278.363366 230.04358 
L 279.194341 241.034712 
L 280.025316 236.900616 
L 280.856292 238.578032 
L 281.687267 237.35673 
L 282.518243 236.398382 
L 283.349218 239.109027 
L 284.180194 239.072757 
L 285.011169 240.848842 
L 285.842144 240.740507 
L 286.67312 240.294676 
L 287.504095 241.043229 
L 288.335071 235.34557 
L 289.166046 240.19673 
L 289.997022 242.011618 
L 291.658972 241.594546 
L 292.489948 239.780506 
L 293.320923 239.763094 
L 294.151899 241.615689 
L 294.982874 237.752065 
L 295.81385 240.61047 
L 296.644825 241.019063 
L 297.4758 239.526869 
L 298.306776 241.177732 
L 299.137751 239.525485 
L 299.968727 241.785574 
L 300.799702 240.990299 
L 301.630678 239.250838 
L 302.461653 240.371746 
L 303.292628 240.672234 
L 304.123604 239.621218 
L 304.954579 240.831364 
L 305.785555 241.03562 
L 306.61653 237.255954 
L 307.447506 240.425041 
L 308.278481 241.678009 
L 309.109456 241.080081 
L 309.940432 235.721486 
L 310.771407 237.100727 
L 311.602383 241.522576 
L 313.264334 240.301566 
L 314.095309 242.061139 
L 314.926284 241.278981 
L 315.75726 241.658676 
L 316.588235 239.474809 
L 317.419211 239.092826 
L 318.250186 240.491869 
L 319.081162 241.616532 
L 319.912137 240.187308 
L 320.743112 241.909295 
L 321.574088 241.615267 
L 322.405063 240.366005 
L 323.236039 241.897961 
L 324.067014 239.293834 
L 324.89799 240.50465 
L 325.728965 241.950734 
L 326.55994 239.403879 
L 327.390916 241.758404 
L 328.221891 241.118125 
L 329.052867 241.645934 
L 329.883842 241.844973 
L 330.714818 240.800323 
L 331.545793 241.720894 
L 332.376768 241.790936 
L 333.207744 239.993104 
L 334.038719 241.697812 
L 334.869695 242.011634 
L 335.70067 240.883841 
L 336.531646 241.692004 
L 337.362621 241.669756 
L 338.193596 241.926655 
L 339.024572 241.615116 
L 339.855547 241.060491 
L 340.686523 242.050126 
L 341.517498 241.233898 
L 342.348474 241.920679 
L 343.179449 242.084664 
L 344.010424 241.901355 
L 344.8414 241.897042 
L 345.672375 241.627876 
L 346.503351 241.725713 
L 347.334326 242.09862 
L 348.996277 241.906484 
L 349.827252 242.076301 
L 350.658228 241.843442 
L 351.489203 242.100155 
L 352.320179 242.110014 
L 353.151154 241.963414 
L 353.98213 242.111529 
L 354.813105 242.111676 
L 355.64408 241.864043 
L 357.306031 242.094863 
L 360.629933 242.061526 
L 362.291884 242.024769 
L 364.78481 242.024578 
L 366.446761 242.097142 
L 368.108712 242.080956 
L 374.756515 242.110991 
L 388.883098 242.11361 
L 388.883098 242.11361 
" clip-path="url(#pa76912b245)" style="fill: none; stroke: #c44e52; stroke-opacity: 0.3; stroke-width: 1.5; stroke-linecap: round"/>
   </g>
   <g id="line2d_18">
    <path d="M 54 242.112443 
L 94.717796 242.00722 
L 95.548771 241.89501 
L 96.379747 242.047749 
L 98.041698 241.709598 
L 98.872673 241.667907 
L 99.703649 241.905026 
L 100.534624 242.010956 
L 101.365599 241.951295 
L 102.196575 242.090217 
L 103.02755 238.588102 
L 103.858526 230.063204 
L 105.520477 242.091822 
L 106.351452 233.637559 
L 107.182427 241.411805 
L 108.013403 240.402836 
L 108.844378 209.393812 
L 110.506329 232.687495 
L 111.337305 240.693315 
L 112.16828 239.858455 
L 112.999255 181.106285 
L 113.830231 223.562766 
L 114.661206 199.402267 
L 115.492182 217.030595 
L 116.323157 166.36904 
L 117.154133 235.445418 
L 117.985108 199.477636 
L 118.816083 225.027276 
L 119.647059 234.152738 
L 120.478034 209.978662 
L 122.139985 110.8034 
L 122.970961 204.411318 
L 123.801936 230.345004 
L 124.632911 44.443636 
L 125.463887 200.258641 
L 126.294862 212.538558 
L 127.125838 232.152259 
L 127.956813 240.538326 
L 128.787789 224.382848 
L 129.618764 238.249636 
L 130.449739 218.301828 
L 131.280715 161.168163 
L 132.11169 170.841785 
L 132.942666 199.340716 
L 133.773641 171.769486 
L 134.604617 193.764238 
L 135.435592 238.808926 
L 136.266567 234.767253 
L 137.097543 210.42297 
L 137.928518 219.541805 
L 138.759494 241.238988 
L 139.590469 211.699156 
L 140.421445 206.148821 
L 141.25242 239.947119 
L 142.083395 241.927993 
L 142.914371 196.583441 
L 144.576322 237.716428 
L 145.407297 230.590835 
L 146.238273 169.696028 
L 147.069248 209.597265 
L 147.900223 195.760435 
L 148.731199 213.80437 
L 149.562174 221.827973 
L 150.39315 238.107113 
L 151.224125 241.366105 
L 152.055101 209.441743 
L 152.886076 223.72939 
L 153.717051 230.98164 
L 154.548027 221.328029 
L 155.379002 204.308923 
L 156.209978 202.631342 
L 157.040953 240.201728 
L 157.871929 222.431553 
L 158.702904 238.336848 
L 159.533879 234.842871 
L 160.364855 239.545774 
L 161.19583 207.028674 
L 162.026806 218.743598 
L 162.857781 202.573681 
L 163.688757 239.361267 
L 164.519732 204.773411 
L 165.350707 235.521517 
L 166.181683 227.774633 
L 167.012658 222.757814 
L 167.843634 236.628176 
L 168.674609 233.114044 
L 169.505585 230.375199 
L 170.33656 220.196992 
L 171.167535 234.626227 
L 172.829486 241.482757 
L 173.660462 221.61852 
L 174.491437 227.962168 
L 175.322413 222.264384 
L 176.153388 225.682036 
L 176.984363 226.616967 
L 177.815339 225.043236 
L 178.646314 226.375627 
L 179.47729 234.551673 
L 181.139241 239.201226 
L 181.970216 206.781766 
L 182.801191 225.220823 
L 183.632167 234.429602 
L 185.294118 235.408749 
L 186.125093 230.763558 
L 186.956069 211.205803 
L 187.787044 235.306362 
L 188.618019 239.155909 
L 189.448995 233.887832 
L 190.27997 241.767814 
L 191.110946 240.176488 
L 191.941921 223.16185 
L 192.772897 240.049158 
L 193.603872 238.212829 
L 194.434847 238.205422 
L 195.265823 226.412279 
L 196.096798 223.555211 
L 196.927774 241.318143 
L 197.758749 226.29089 
L 198.589724 237.223268 
L 199.4207 233.446849 
L 200.251675 234.840951 
L 201.082651 232.126425 
L 201.913626 238.882501 
L 203.575577 233.75603 
L 204.406552 225.819232 
L 205.237528 231.779423 
L 206.068503 230.630654 
L 206.899479 222.524429 
L 207.730454 223.245696 
L 208.56143 240.31723 
L 209.392405 227.052486 
L 210.22338 232.656036 
L 211.885331 239.611959 
L 212.716307 227.986023 
L 213.547282 225.769584 
L 214.378258 239.761775 
L 215.209233 238.013624 
L 216.040208 230.163928 
L 216.871184 235.471772 
L 217.702159 235.995089 
L 218.533135 236.248331 
L 219.36411 224.591238 
L 220.195086 231.180777 
L 221.026061 239.347193 
L 221.857036 228.045746 
L 223.518987 240.288989 
L 224.349963 221.582875 
L 225.180938 238.109063 
L 226.011914 237.371078 
L 226.842889 229.982862 
L 227.673864 238.740536 
L 228.50484 226.802608 
L 229.335815 236.406744 
L 230.166791 241.453316 
L 230.997766 235.107122 
L 231.828742 232.470994 
L 232.659717 241.959399 
L 233.490692 239.85054 
L 234.321668 235.852597 
L 235.152643 217.14321 
L 235.983619 232.990337 
L 236.814594 239.329566 
L 237.64557 229.571143 
L 238.476545 239.441514 
L 239.30752 241.157842 
L 240.138496 224.284879 
L 240.969471 223.956382 
L 241.800447 233.023538 
L 242.631422 236.663488 
L 243.462398 238.443693 
L 244.293373 229.697041 
L 245.124348 239.899201 
L 245.955324 235.450717 
L 246.786299 235.633872 
L 247.617275 232.347906 
L 248.44825 236.521136 
L 249.279226 221.392494 
L 250.110201 225.139583 
L 250.941176 237.893934 
L 251.772152 238.303482 
L 252.603127 241.326051 
L 253.434103 231.682215 
L 254.265078 241.845014 
L 255.096054 239.230145 
L 255.927029 239.415706 
L 256.758004 228.378368 
L 257.58898 231.082623 
L 258.419955 235.043429 
L 259.250931 236.440065 
L 260.081906 241.846825 
L 260.912882 237.112502 
L 261.743857 237.022967 
L 262.574832 237.300191 
L 263.405808 240.725832 
L 264.236783 238.910486 
L 265.067759 230.908404 
L 265.898734 235.463705 
L 266.72971 236.851996 
L 267.560685 242.02883 
L 268.39166 241.979381 
L 269.222636 236.556654 
L 270.053611 238.872135 
L 270.884587 228.631526 
L 272.546538 240.755577 
L 273.377513 238.126276 
L 274.208488 237.814887 
L 275.039464 241.783643 
L 275.870439 238.524298 
L 276.701415 238.881937 
L 277.53239 241.398785 
L 278.363366 233.6873 
L 279.194341 234.069297 
L 280.025316 225.450747 
L 280.856292 239.288743 
L 281.687267 240.551031 
L 282.518243 235.090916 
L 283.349218 242.082185 
L 284.180194 238.73071 
L 285.011169 240.844774 
L 285.842144 238.822015 
L 286.67312 235.011451 
L 287.504095 237.505735 
L 288.335071 228.414248 
L 289.166046 241.064062 
L 289.997022 241.280078 
L 290.827997 240.862146 
L 291.658972 242.082311 
L 292.489948 238.259957 
L 293.320923 236.847307 
L 294.151899 237.424707 
L 294.982874 238.704788 
L 295.81385 240.837307 
L 296.644825 235.644401 
L 297.4758 240.456972 
L 298.306776 241.621441 
L 299.137751 240.82767 
L 299.968727 238.546978 
L 300.799702 240.67001 
L 301.630678 239.135361 
L 302.461653 235.689972 
L 303.292628 237.774815 
L 304.123604 241.128263 
L 304.954579 240.324072 
L 305.785555 241.386367 
L 306.61653 242.009906 
L 307.447506 241.621428 
L 308.278481 238.128287 
L 309.109456 235.558154 
L 309.940432 240.204619 
L 310.771407 240.962336 
L 311.602383 229.061421 
L 312.433358 241.626604 
L 313.264334 242.077068 
L 314.095309 241.62981 
L 314.926284 242.032013 
L 315.75726 237.538787 
L 316.588235 241.721139 
L 317.419211 241.292214 
L 318.250186 233.400807 
L 319.081162 239.069426 
L 319.912137 241.522537 
L 320.743112 239.757529 
L 321.574088 241.618952 
L 322.405063 240.719738 
L 323.236039 241.452565 
L 324.067014 236.252857 
L 324.89799 239.655741 
L 325.728965 241.569464 
L 326.55994 241.170313 
L 327.390916 239.797414 
L 328.221891 241.700409 
L 329.052867 240.834114 
L 329.883842 241.875774 
L 330.714818 241.988312 
L 331.545793 240.591391 
L 332.376768 240.474294 
L 333.207744 239.660373 
L 334.038719 241.331404 
L 334.869695 240.423608 
L 335.70067 241.51253 
L 336.531646 241.700764 
L 337.362621 242.057152 
L 338.193596 241.230514 
L 339.024572 241.834368 
L 339.855547 241.961437 
L 340.686523 241.413529 
L 341.517498 241.464605 
L 342.348474 242.113877 
L 343.179449 241.908848 
L 344.010424 241.909642 
L 344.8414 241.505795 
L 345.672375 241.991062 
L 346.503351 241.987408 
L 347.334326 241.603556 
L 348.165302 241.917503 
L 348.996277 241.726113 
L 349.827252 242.107154 
L 352.320179 241.983965 
L 353.151154 242.071289 
L 353.98213 241.772029 
L 354.813105 241.8257 
L 355.64408 242.092212 
L 357.306031 242.046408 
L 359.798958 242.098268 
L 360.629933 241.989852 
L 362.291884 242.100218 
L 363.953835 241.999266 
L 364.78481 242.113312 
L 388.883098 242.109064 
L 388.883098 242.109064 
" clip-path="url(#pa76912b245)" style="fill: none; stroke: #8172b3; stroke-opacity: 0.3; stroke-width: 1.5; stroke-linecap: round"/>
   </g>
   <g id="line2d_19">
    <path d="M 54 242.115583 
L 100.534624 242.114434 
L 101.365599 241.720249 
L 102.196575 241.695355 
L 103.02755 241.170737 
L 103.858526 240.93332 
L 104.689501 236.38495 
L 105.520477 240.846548 
L 106.351452 241.731987 
L 107.182427 228.577475 
L 108.013403 239.153118 
L 108.844378 237.248534 
L 109.675354 237.334685 
L 110.506329 233.297388 
L 111.337305 240.313621 
L 112.16828 230.252388 
L 112.999255 234.983834 
L 113.830231 222.723243 
L 114.661206 225.638888 
L 115.492182 232.794212 
L 116.323157 223.249651 
L 117.154133 239.726431 
L 117.985108 224.02746 
L 118.816083 239.016161 
L 119.647059 224.314525 
L 120.478034 237.197141 
L 121.30901 239.626471 
L 122.139985 98.822897 
L 122.970961 186.500237 
L 123.801936 208.318368 
L 124.632911 221.699434 
L 125.463887 161.055881 
L 126.294862 213.32627 
L 127.125838 221.378774 
L 127.956813 193.804208 
L 128.787789 211.230463 
L 129.618764 193.861346 
L 131.280715 44.443636 
L 132.11169 198.440122 
L 132.942666 233.358692 
L 133.773641 194.525002 
L 134.604617 171.10306 
L 135.435592 178.091099 
L 137.097543 135.07382 
L 137.928518 209.759364 
L 138.759494 233.988766 
L 139.590469 204.404392 
L 140.421445 234.896178 
L 141.25242 230.777555 
L 142.083395 221.533414 
L 142.914371 229.089736 
L 143.745346 55.023801 
L 144.576322 193.945752 
L 145.407297 232.293168 
L 146.238273 182.691312 
L 147.069248 199.096995 
L 147.900223 218.416936 
L 148.731199 223.04075 
L 149.562174 235.894852 
L 150.39315 231.614205 
L 151.224125 229.591809 
L 152.055101 185.435254 
L 152.886076 190.455285 
L 153.717051 204.01794 
L 154.548027 234.243324 
L 155.379002 138.359866 
L 156.209978 151.386538 
L 157.040953 214.403678 
L 157.871929 230.400732 
L 158.702904 236.341276 
L 159.533879 227.18954 
L 160.364855 241.350486 
L 161.19583 185.749768 
L 162.857781 202.02736 
L 163.688757 229.929972 
L 164.519732 171.097513 
L 165.350707 202.873086 
L 167.012658 231.438202 
L 167.843634 236.077518 
L 168.674609 179.692543 
L 169.505585 193.476356 
L 170.33656 217.209206 
L 171.167535 209.253433 
L 171.998511 220.139221 
L 172.829486 209.589172 
L 173.660462 234.404683 
L 174.491437 235.329185 
L 175.322413 189.259624 
L 176.153388 240.371335 
L 176.984363 221.891177 
L 177.815339 160.187671 
L 178.646314 204.661035 
L 179.47729 199.303365 
L 180.308265 221.81232 
L 181.139241 209.386617 
L 181.970216 238.492875 
L 182.801191 237.676023 
L 183.632167 214.530186 
L 184.463142 221.981412 
L 185.294118 203.428069 
L 186.125093 199.721747 
L 186.956069 187.880842 
L 187.787044 217.734978 
L 188.618019 224.957439 
L 189.448995 240.907289 
L 190.27997 235.966491 
L 191.110946 226.198294 
L 191.941921 234.748183 
L 192.772897 232.209175 
L 193.603872 234.67121 
L 194.434847 230.100282 
L 195.265823 215.711708 
L 196.927774 237.794517 
L 197.758749 224.440641 
L 198.589724 239.211157 
L 200.251675 200.330093 
L 201.082651 240.343015 
L 201.913626 229.465156 
L 202.744602 213.614763 
L 203.575577 223.470773 
L 204.406552 199.882956 
L 205.237528 230.512866 
L 206.068503 230.05295 
L 206.899479 226.148222 
L 207.730454 241.840304 
L 209.392405 214.56128 
L 210.22338 204.138983 
L 211.054356 229.295505 
L 211.885331 234.718732 
L 212.716307 226.358885 
L 213.547282 225.910795 
L 214.378258 241.887768 
L 215.209233 232.105905 
L 216.040208 225.771028 
L 216.871184 227.440482 
L 217.702159 222.238259 
L 218.533135 241.998069 
L 219.36411 222.353515 
L 220.195086 225.67856 
L 221.026061 236.866964 
L 221.857036 223.5273 
L 222.688012 221.374856 
L 223.518987 241.488217 
L 224.349963 220.093193 
L 225.180938 217.810825 
L 226.011914 219.593375 
L 226.842889 226.656989 
L 227.673864 241.279653 
L 228.50484 218.617598 
L 229.335815 229.805036 
L 230.166791 231.273487 
L 230.997766 240.893464 
L 231.828742 233.82614 
L 232.659717 241.196858 
L 233.490692 241.283986 
L 234.321668 219.248892 
L 235.152643 231.164368 
L 235.983619 175.278411 
L 236.814594 235.176822 
L 237.64557 237.240928 
L 238.476545 235.974643 
L 239.30752 229.291159 
L 240.138496 239.971941 
L 240.969471 239.038871 
L 241.800447 230.035685 
L 242.631422 239.106805 
L 243.462398 232.449383 
L 244.293373 208.563693 
L 245.124348 230.574012 
L 245.955324 238.426629 
L 246.786299 231.767015 
L 247.617275 230.135377 
L 248.44825 222.911415 
L 249.279226 230.767676 
L 250.110201 235.377472 
L 250.941176 225.2869 
L 251.772152 223.928229 
L 252.603127 236.834796 
L 253.434103 231.906265 
L 254.265078 239.74296 
L 255.096054 229.191493 
L 255.927029 237.974907 
L 256.758004 238.250742 
L 257.58898 226.631587 
L 259.250931 237.563787 
L 260.081906 238.244141 
L 260.912882 232.897418 
L 261.743857 239.803354 
L 262.574832 241.165112 
L 263.405808 237.382169 
L 264.236783 240.946377 
L 265.067759 235.725867 
L 265.898734 234.648927 
L 266.72971 237.583338 
L 267.560685 241.048792 
L 268.39166 235.452712 
L 269.222636 241.304601 
L 270.053611 239.806539 
L 270.884587 236.759278 
L 271.715562 227.778602 
L 272.546538 240.758129 
L 273.377513 237.671868 
L 274.208488 239.772753 
L 275.039464 238.116734 
L 275.870439 241.28886 
L 276.701415 240.324421 
L 277.53239 235.257376 
L 278.363366 226.902544 
L 279.194341 234.525691 
L 280.025316 232.166045 
L 280.856292 240.99349 
L 281.687267 242.072274 
L 282.518243 227.34618 
L 283.349218 236.406128 
L 284.180194 239.273803 
L 285.011169 240.685988 
L 285.842144 238.790816 
L 286.67312 241.822773 
L 287.504095 241.530083 
L 288.335071 227.288907 
L 289.166046 238.62025 
L 289.997022 235.772927 
L 291.658972 239.325645 
L 292.489948 234.361676 
L 293.320923 239.909769 
L 294.151899 240.470488 
L 294.982874 230.423626 
L 295.81385 235.816343 
L 296.644825 239.343045 
L 297.4758 230.234893 
L 298.306776 238.184062 
L 299.137751 232.02905 
L 299.968727 240.65499 
L 300.799702 241.01265 
L 301.630678 238.325909 
L 302.461653 238.617723 
L 303.292628 240.378887 
L 304.123604 233.530049 
L 304.954579 229.565924 
L 305.785555 237.51152 
L 306.61653 237.449264 
L 307.447506 238.584107 
L 308.278481 233.985221 
L 309.109456 239.803888 
L 309.940432 239.823519 
L 310.771407 239.487423 
L 311.602383 240.396962 
L 312.433358 237.751756 
L 313.264334 239.264838 
L 314.095309 238.233769 
L 314.926284 240.339594 
L 315.75726 235.672071 
L 316.588235 241.900463 
L 317.419211 240.870303 
L 318.250186 241.029992 
L 319.081162 240.920481 
L 319.912137 242.029683 
L 320.743112 240.289313 
L 321.574088 237.880264 
L 322.405063 241.638068 
L 323.236039 241.062925 
L 324.067014 234.173286 
L 324.89799 240.450527 
L 325.728965 241.288826 
L 326.55994 241.670375 
L 327.390916 241.538589 
L 328.221891 240.697008 
L 329.052867 241.829128 
L 329.883842 239.239822 
L 330.714818 239.260433 
L 331.545793 237.749108 
L 332.376768 241.66561 
L 333.207744 236.441564 
L 334.038719 240.701457 
L 334.869695 241.65523 
L 336.531646 241.491764 
L 337.362621 241.314281 
L 338.193596 241.007446 
L 339.855547 239.022594 
L 340.686523 241.104009 
L 341.517498 240.687404 
L 342.348474 242.039623 
L 344.010424 241.916324 
L 344.8414 242.010855 
L 346.503351 240.455428 
L 347.334326 241.73872 
L 348.165302 241.874124 
L 348.996277 241.422364 
L 349.827252 241.869234 
L 350.658228 242.048222 
L 351.489203 241.92478 
L 352.320179 242.110334 
L 353.151154 241.795332 
L 353.98213 242.082098 
L 355.64408 242.059025 
L 356.475056 241.779984 
L 358.137007 242.105432 
L 358.967982 242.087018 
L 359.798958 241.714214 
L 360.629933 241.855719 
L 361.460908 242.112564 
L 364.78481 241.957905 
L 365.615786 241.886272 
L 366.446761 241.98141 
L 367.277736 241.89203 
L 368.108712 242.035517 
L 368.939687 241.979234 
L 370.601638 242.103226 
L 382.235294 242.089483 
L 388.883098 242.115997 
L 388.883098 242.115997 
" clip-path="url(#pa76912b245)" style="fill: none; stroke: #937860; stroke-opacity: 0.3; stroke-width: 1.5; stroke-linecap: round"/>
   </g>
   <g id="line2d_20">
    <path d="M 54 242.096051 
L 91.393894 242.011552 
L 93.055845 241.973071 
L 94.717796 241.945277 
L 98.872673 242.027136 
L 99.703649 241.320565 
L 100.534624 241.875544 
L 101.365599 241.296522 
L 102.196575 240.889709 
L 103.858526 237.035908 
L 104.689501 239.641358 
L 105.520477 237.344281 
L 106.351452 239.45789 
L 107.182427 230.871252 
L 108.013403 239.465249 
L 108.844378 230.242133 
L 109.675354 157.157616 
L 110.506329 217.778869 
L 111.337305 238.294708 
L 112.16828 231.561378 
L 113.830231 229.795679 
L 114.661206 193.903385 
L 115.492182 224.531265 
L 116.323157 150.759872 
L 117.154133 229.905447 
L 117.985108 205.040362 
L 118.816083 203.977525 
L 119.647059 205.073747 
L 120.478034 223.393734 
L 121.30901 218.669509 
L 122.139985 44.443636 
L 122.970961 147.126159 
L 123.801936 197.326328 
L 124.632911 235.406387 
L 125.463887 213.912052 
L 126.294862 226.387713 
L 127.125838 224.721074 
L 127.956813 239.420105 
L 128.787789 240.118809 
L 129.618764 170.067362 
L 130.449739 236.347606 
L 131.280715 204.545466 
L 132.11169 167.550654 
L 132.942666 219.560746 
L 133.773641 170.794009 
L 134.604617 216.169049 
L 135.435592 236.257906 
L 136.266567 172.559542 
L 137.097543 200.286292 
L 137.928518 238.718759 
L 138.759494 221.17957 
L 139.590469 186.713529 
L 140.421445 235.187525 
L 141.25242 213.885981 
L 142.083395 240.825086 
L 142.914371 238.198777 
L 143.745346 233.459672 
L 144.576322 241.364528 
L 145.407297 207.516863 
L 146.238273 232.11382 
L 147.069248 236.104561 
L 147.900223 212.841542 
L 148.731199 222.423662 
L 149.562174 229.254592 
L 150.39315 216.529329 
L 151.224125 230.6806 
L 152.055101 228.94761 
L 152.886076 235.670627 
L 153.717051 212.79432 
L 154.548027 240.623422 
L 155.379002 233.749662 
L 156.209978 241.950258 
L 157.040953 233.855308 
L 157.871929 216.912129 
L 158.702904 232.331723 
L 159.533879 217.460925 
L 160.364855 232.993501 
L 161.19583 234.292331 
L 162.026806 225.667402 
L 163.688757 237.822196 
L 164.519732 240.868787 
L 165.350707 229.938027 
L 166.181683 239.896976 
L 167.012658 221.177654 
L 167.843634 210.67819 
L 168.674609 204.058779 
L 169.505585 228.492846 
L 170.33656 241.696202 
L 171.167535 213.635473 
L 171.998511 239.183751 
L 172.829486 241.311565 
L 173.660462 213.409264 
L 174.491437 238.756656 
L 175.322413 211.596425 
L 176.153388 226.501478 
L 176.984363 224.762711 
L 177.815339 238.135072 
L 178.646314 225.658989 
L 179.47729 239.899864 
L 180.308265 208.181805 
L 181.139241 201.037937 
L 181.970216 237.815685 
L 182.801191 241.281166 
L 183.632167 223.771083 
L 184.463142 236.455866 
L 185.294118 224.167397 
L 186.125093 231.095969 
L 186.956069 241.23423 
L 187.787044 224.855298 
L 188.618019 240.942902 
L 189.448995 235.300408 
L 190.27997 242.063433 
L 191.110946 237.475232 
L 191.941921 239.861345 
L 192.772897 229.326231 
L 193.603872 237.964928 
L 194.434847 235.87794 
L 195.265823 237.280794 
L 196.096798 232.441605 
L 196.927774 239.48758 
L 197.758749 239.986448 
L 198.589724 241.555905 
L 199.4207 234.321072 
L 200.251675 237.018367 
L 201.082651 230.698349 
L 201.913626 225.702885 
L 202.744602 240.768273 
L 203.575577 229.142795 
L 204.406552 242.101982 
L 205.237528 233.925312 
L 206.068503 234.829569 
L 206.899479 238.433075 
L 207.730454 218.752454 
L 208.56143 236.196829 
L 209.392405 225.609854 
L 210.22338 235.703427 
L 211.054356 209.281389 
L 211.885331 236.352979 
L 212.716307 232.619819 
L 213.547282 235.42482 
L 214.378258 239.000007 
L 215.209233 237.181459 
L 216.040208 237.946466 
L 216.871184 222.44668 
L 217.702159 234.32816 
L 218.533135 223.700051 
L 219.36411 216.128782 
L 220.195086 232.704692 
L 221.026061 230.015705 
L 221.857036 241.21187 
L 222.688012 239.201955 
L 223.518987 229.104394 
L 224.349963 229.36183 
L 225.180938 228.450199 
L 226.011914 242.062376 
L 226.842889 230.350315 
L 227.673864 240.697343 
L 228.50484 236.818005 
L 229.335815 241.185837 
L 230.166791 241.600336 
L 230.997766 239.519709 
L 231.828742 234.893681 
L 232.659717 240.168663 
L 233.490692 235.948116 
L 234.321668 241.691472 
L 235.152643 239.64558 
L 235.983619 241.998859 
L 236.814594 242.075052 
L 237.64557 237.831012 
L 238.476545 238.935752 
L 239.30752 234.239655 
L 240.138496 239.821377 
L 240.969471 230.490706 
L 241.800447 237.835327 
L 242.631422 241.495798 
L 243.462398 223.622157 
L 244.293373 240.827643 
L 245.124348 234.283692 
L 245.955324 225.950371 
L 246.786299 225.509197 
L 248.44825 240.866098 
L 249.279226 241.204741 
L 250.110201 236.843696 
L 250.941176 241.399168 
L 251.772152 237.014251 
L 252.603127 240.060632 
L 253.434103 231.018157 
L 254.265078 236.546739 
L 255.096054 227.870406 
L 255.927029 235.388992 
L 256.758004 236.128463 
L 257.58898 241.842207 
L 258.419955 241.901207 
L 259.250931 239.078842 
L 260.081906 234.830797 
L 260.912882 228.504651 
L 261.743857 234.445465 
L 262.574832 233.019767 
L 263.405808 233.424994 
L 264.236783 240.605368 
L 265.067759 237.918674 
L 265.898734 241.87768 
L 266.72971 240.435942 
L 267.560685 233.200857 
L 268.39166 236.549622 
L 269.222636 223.24227 
L 270.053611 231.511933 
L 270.884587 227.943872 
L 271.715562 237.937068 
L 272.546538 236.469947 
L 273.377513 240.24988 
L 274.208488 242.055731 
L 275.039464 239.557401 
L 275.870439 238.634645 
L 276.701415 240.766148 
L 277.53239 238.220743 
L 278.363366 232.476941 
L 279.194341 238.711151 
L 280.025316 241.277268 
L 280.856292 240.276993 
L 281.687267 241.797221 
L 282.518243 241.999442 
L 283.349218 239.682151 
L 284.180194 238.147338 
L 285.011169 241.8155 
L 285.842144 241.259457 
L 286.67312 240.977146 
L 287.504095 237.089988 
L 288.335071 240.691601 
L 289.166046 239.184136 
L 289.997022 241.847604 
L 290.827997 240.149088 
L 291.658972 242.035229 
L 292.489948 241.888098 
L 293.320923 239.877654 
L 294.151899 240.83813 
L 294.982874 235.043453 
L 295.81385 237.663212 
L 296.644825 227.571012 
L 298.306776 235.029543 
L 299.137751 235.651309 
L 299.968727 240.436714 
L 300.799702 240.253722 
L 301.630678 241.773762 
L 302.461653 241.155007 
L 303.292628 239.314668 
L 304.123604 238.407835 
L 304.954579 223.87578 
L 305.785555 234.996959 
L 306.61653 230.966192 
L 307.447506 237.557329 
L 308.278481 239.653657 
L 309.109456 241.076206 
L 309.940432 239.032886 
L 310.771407 242.034849 
L 311.602383 241.469485 
L 312.433358 239.663285 
L 313.264334 241.819778 
L 314.095309 240.307681 
L 314.926284 240.677267 
L 316.588235 240.392491 
L 317.419211 241.666955 
L 318.250186 241.689629 
L 319.081162 242.077289 
L 319.912137 241.433642 
L 320.743112 241.934971 
L 321.574088 241.888532 
L 322.405063 241.681335 
L 323.236039 241.167495 
L 324.067014 240.917449 
L 324.89799 240.425209 
L 325.728965 241.118103 
L 326.55994 241.214029 
L 327.390916 240.113556 
L 328.221891 241.552378 
L 329.883842 241.680039 
L 330.714818 241.372974 
L 331.545793 241.194915 
L 333.207744 239.707836 
L 334.038719 240.905731 
L 334.869695 240.614145 
L 335.70067 240.481511 
L 337.362621 241.646954 
L 338.193596 241.635625 
L 339.024572 241.203124 
L 339.855547 241.636672 
L 340.686523 241.467684 
L 341.517498 241.538829 
L 342.348474 241.141851 
L 343.179449 241.412807 
L 344.010424 242.013632 
L 344.8414 241.773955 
L 345.672375 241.991901 
L 346.503351 241.823132 
L 347.334326 242.028051 
L 348.996277 242.018001 
L 363.953835 242.103653 
L 374.756515 242.116319 
L 378.911392 242.087112 
L 383.897245 242.105905 
L 387.221147 242.095033 
L 388.883098 242.114035 
L 388.883098 242.114035 
" clip-path="url(#pa76912b245)" style="fill: none; stroke: #da8bc3; stroke-opacity: 0.3; stroke-width: 1.5; stroke-linecap: round"/>
   </g>
   <g id="line2d_21">
    <path d="M 54 242.052612 
L 92.22487 241.969705 
L 93.055845 241.873776 
L 93.886821 241.926873 
L 94.717796 241.772994 
L 95.548771 241.482865 
L 96.379747 241.757466 
L 97.210722 241.799864 
L 98.041698 241.209277 
L 98.872673 240.842939 
L 99.703649 240.941217 
L 100.534624 241.871691 
L 101.365599 240.673872 
L 102.196575 241.128617 
L 103.02755 240.242285 
L 103.858526 230.174505 
L 104.689501 229.658915 
L 105.520477 241.947556 
L 106.351452 228.994315 
L 107.182427 224.949548 
L 108.013403 237.063625 
L 108.844378 211.925641 
L 109.675354 201.593335 
L 110.506329 231.292329 
L 111.337305 240.282585 
L 112.999255 226.858174 
L 113.830231 224.833336 
L 114.661206 231.989427 
L 115.492182 242.027525 
L 116.323157 180.918889 
L 117.154133 214.678284 
L 117.985108 207.471711 
L 118.816083 214.845649 
L 119.647059 229.292731 
L 120.478034 164.91498 
L 121.30901 77.912376 
L 122.139985 186.075895 
L 122.970961 148.68677 
L 123.801936 147.069349 
L 124.632911 82.444814 
L 125.463887 235.372148 
L 126.294862 214.364219 
L 127.125838 204.115872 
L 127.956813 231.812149 
L 128.787789 113.768548 
L 129.618764 227.599909 
L 130.449739 241.542047 
L 131.280715 151.573624 
L 132.11169 44.443636 
L 132.942666 119.538694 
L 133.773641 137.071561 
L 134.604617 74.052991 
L 135.435592 93.268684 
L 136.266567 53.77181 
L 137.097543 141.838519 
L 137.928518 136.3447 
L 138.759494 136.010879 
L 139.590469 230.183072 
L 140.421445 156.972806 
L 141.25242 212.237739 
L 142.083395 211.48646 
L 142.914371 241.330343 
L 143.745346 130.185742 
L 144.576322 229.158054 
L 145.407297 212.268999 
L 146.238273 130.726387 
L 147.069248 226.432185 
L 147.900223 196.671171 
L 148.731199 191.001375 
L 149.562174 174.407914 
L 150.39315 225.221559 
L 151.224125 184.863107 
L 152.055101 231.221918 
L 152.886076 225.762367 
L 153.717051 153.820308 
L 154.548027 225.584953 
L 155.379002 206.283848 
L 156.209978 232.455212 
L 157.040953 238.658526 
L 157.871929 174.663552 
L 158.702904 222.370356 
L 159.533879 234.203678 
L 160.364855 223.472796 
L 161.19583 221.767205 
L 162.026806 222.994354 
L 162.857781 194.934345 
L 163.688757 240.681304 
L 164.519732 200.371029 
L 165.350707 223.352503 
L 166.181683 207.555837 
L 167.012658 203.015761 
L 167.843634 236.027764 
L 168.674609 213.31805 
L 170.33656 231.968852 
L 171.167535 237.995783 
L 171.998511 234.1992 
L 172.829486 201.590522 
L 173.660462 236.474246 
L 174.491437 171.914618 
L 175.322413 227.815551 
L 176.153388 204.740686 
L 176.984363 231.826508 
L 177.815339 216.076745 
L 178.646314 235.88477 
L 179.47729 240.74616 
L 180.308265 179.066315 
L 181.970216 239.82826 
L 182.801191 202.204125 
L 183.632167 188.761408 
L 184.463142 230.518903 
L 185.294118 213.673956 
L 186.125093 194.055285 
L 186.956069 235.667643 
L 187.787044 212.805794 
L 188.618019 229.597619 
L 189.448995 241.096965 
L 190.27997 237.016438 
L 191.110946 227.77564 
L 192.772897 235.947445 
L 193.603872 233.008521 
L 194.434847 240.747011 
L 195.265823 187.201909 
L 196.096798 238.522241 
L 196.927774 235.223791 
L 197.758749 224.163002 
L 198.589724 225.062085 
L 199.4207 240.723323 
L 200.251675 234.03731 
L 201.082651 238.036132 
L 201.913626 241.048797 
L 202.744602 216.029525 
L 203.575577 241.964504 
L 204.406552 217.474845 
L 205.237528 224.780196 
L 206.068503 235.61594 
L 206.899479 224.185928 
L 207.730454 231.403498 
L 208.56143 218.737549 
L 209.392405 241.993751 
L 210.22338 205.013687 
L 211.054356 236.301719 
L 211.885331 211.278365 
L 212.716307 241.916753 
L 214.378258 225.452339 
L 215.209233 241.394094 
L 216.040208 202.663851 
L 216.871184 230.621401 
L 217.702159 223.82602 
L 218.533135 233.754938 
L 219.36411 231.917755 
L 220.195086 221.07534 
L 221.026061 232.189382 
L 221.857036 216.243676 
L 222.688012 239.116519 
L 223.518987 230.489493 
L 224.349963 241.915236 
L 225.180938 239.297118 
L 226.011914 223.567881 
L 226.842889 240.679954 
L 227.673864 210.855679 
L 228.50484 239.832925 
L 229.335815 234.430205 
L 230.166791 241.256177 
L 230.997766 231.611125 
L 231.828742 241.679576 
L 232.659717 228.294541 
L 233.490692 241.164598 
L 234.321668 239.17224 
L 235.152643 237.658397 
L 235.983619 240.467128 
L 236.814594 234.950564 
L 237.64557 239.548291 
L 238.476545 240.151599 
L 239.30752 240.364473 
L 240.138496 226.072663 
L 240.969471 238.167318 
L 241.800447 237.726584 
L 242.631422 227.552927 
L 243.462398 238.893212 
L 244.293373 226.10857 
L 245.124348 237.002477 
L 245.955324 239.248302 
L 246.786299 234.443359 
L 247.617275 231.721642 
L 248.44825 241.126197 
L 249.279226 237.823735 
L 250.110201 215.316333 
L 250.941176 239.205523 
L 251.772152 241.151826 
L 252.603127 230.47883 
L 253.434103 237.141215 
L 254.265078 219.862545 
L 255.096054 235.128885 
L 255.927029 226.810821 
L 256.758004 239.1098 
L 258.419955 239.779041 
L 259.250931 237.017533 
L 260.081906 236.126555 
L 260.912882 236.705468 
L 261.743857 228.601899 
L 262.574832 235.832529 
L 263.405808 236.891189 
L 264.236783 238.934398 
L 265.067759 240.570511 
L 265.898734 235.855864 
L 266.72971 240.895034 
L 267.560685 238.6487 
L 268.39166 233.717494 
L 269.222636 240.182527 
L 270.053611 217.373452 
L 270.884587 233.18653 
L 271.715562 209.194984 
L 272.546538 233.81195 
L 273.377513 224.249443 
L 274.208488 240.191149 
L 275.039464 240.415479 
L 275.870439 241.62562 
L 276.701415 238.772571 
L 277.53239 237.421905 
L 278.363366 238.323323 
L 279.194341 234.22069 
L 280.025316 234.365717 
L 280.856292 238.388521 
L 281.687267 233.523669 
L 282.518243 241.4321 
L 283.349218 239.415905 
L 284.180194 241.429091 
L 285.011169 236.84028 
L 285.842144 241.547035 
L 286.67312 231.800217 
L 287.504095 242.086514 
L 288.335071 239.958552 
L 289.166046 239.77595 
L 289.997022 241.452615 
L 290.827997 239.822154 
L 291.658972 239.6601 
L 292.489948 242.027942 
L 293.320923 241.353852 
L 294.151899 236.89012 
L 294.982874 240.024551 
L 295.81385 228.759178 
L 296.644825 233.927549 
L 297.4758 231.694768 
L 298.306776 227.040371 
L 299.137751 238.119871 
L 299.968727 233.16072 
L 300.799702 241.825338 
L 301.630678 241.519504 
L 302.461653 239.323176 
L 303.292628 239.995636 
L 304.123604 235.146718 
L 304.954579 241.603846 
L 305.785555 216.685969 
L 306.61653 227.461152 
L 307.447506 228.313927 
L 308.278481 229.649878 
L 309.109456 233.139073 
L 309.940432 241.327293 
L 310.771407 241.138346 
L 311.602383 239.875839 
L 312.433358 242.052538 
L 314.926284 237.649902 
L 315.75726 238.104429 
L 316.588235 240.837474 
L 317.419211 229.625713 
L 318.250186 238.156783 
L 319.081162 240.733441 
L 319.912137 240.661994 
L 320.743112 240.130361 
L 321.574088 241.717054 
L 322.405063 239.796292 
L 323.236039 240.924351 
L 324.067014 238.755476 
L 324.89799 241.132062 
L 325.728965 241.979332 
L 326.55994 238.499707 
L 327.390916 241.851413 
L 328.221891 241.587958 
L 329.052867 240.746498 
L 329.883842 240.652359 
L 330.714818 241.692647 
L 331.545793 241.927378 
L 332.376768 241.002579 
L 333.207744 240.967794 
L 334.038719 239.878028 
L 334.869695 241.471275 
L 335.70067 239.344192 
L 336.531646 240.931835 
L 337.362621 241.917315 
L 338.193596 241.036735 
L 339.024572 241.416295 
L 340.686523 241.616713 
L 341.517498 240.180455 
L 342.348474 241.557387 
L 343.179449 241.650375 
L 344.010424 240.679041 
L 345.672375 241.864007 
L 346.503351 242.026361 
L 347.334326 241.315292 
L 348.165302 242.058635 
L 349.827252 241.484168 
L 350.658228 241.9813 
L 351.489203 241.541302 
L 352.320179 242.081858 
L 372.263589 242.0957 
L 377.249442 242.113299 
L 378.911392 242.091499 
L 383.06627 242.107609 
L 387.221147 242.070935 
L 388.883098 242.111797 
L 388.883098 242.111797 
" clip-path="url(#pa76912b245)" style="fill: none; stroke: #8c8c8c; stroke-opacity: 0.3; stroke-width: 1.5; stroke-linecap: round"/>
   </g>
   <g id="line2d_22">
    <path d="M 54 242.099635 
L 93.886821 241.996197 
L 97.210722 241.941717 
L 98.041698 242.087884 
L 99.703649 241.196136 
L 100.534624 242.10517 
L 101.365599 241.764397 
L 102.196575 238.896754 
L 103.02755 238.015352 
L 103.858526 239.538466 
L 104.689501 241.476843 
L 105.520477 236.881039 
L 106.351452 240.180237 
L 107.182427 239.3446 
L 108.013403 213.325432 
L 108.844378 236.808653 
L 109.675354 213.723525 
L 110.506329 197.40571 
L 112.16828 215.577161 
L 112.999255 239.221635 
L 113.830231 241.121564 
L 114.661206 158.692612 
L 115.492182 109.363944 
L 116.323157 44.443636 
L 117.154133 237.024375 
L 117.985108 209.855529 
L 118.816083 212.594906 
L 119.647059 132.146069 
L 120.478034 202.936471 
L 121.30901 235.049903 
L 122.139985 240.060039 
L 122.970961 239.715343 
L 123.801936 66.564742 
L 124.632911 145.392018 
L 125.463887 185.055484 
L 126.294862 237.597001 
L 127.125838 230.811759 
L 127.956813 218.4872 
L 128.787789 180.373424 
L 129.618764 221.616923 
L 130.449739 234.186954 
L 131.280715 217.834071 
L 132.11169 214.680609 
L 132.942666 242.079158 
L 133.773641 130.258086 
L 134.604617 225.954174 
L 135.435592 231.887167 
L 136.266567 195.704342 
L 137.097543 201.761504 
L 137.928518 229.976057 
L 138.759494 214.761405 
L 139.590469 241.797138 
L 140.421445 167.221931 
L 141.25242 198.826379 
L 142.083395 207.482072 
L 142.914371 223.13054 
L 143.745346 182.119858 
L 144.576322 204.562751 
L 145.407297 200.884268 
L 146.238273 224.360888 
L 147.069248 224.123179 
L 147.900223 206.787178 
L 148.731199 217.121338 
L 149.562174 155.507244 
L 150.39315 176.132102 
L 151.224125 165.320542 
L 152.055101 195.003242 
L 152.886076 207.458333 
L 153.717051 166.054463 
L 154.548027 241.416177 
L 155.379002 240.73962 
L 156.209978 211.56238 
L 157.040953 189.521553 
L 157.871929 106.16695 
L 158.702904 184.002438 
L 159.533879 152.674074 
L 160.364855 137.464756 
L 161.19583 139.596487 
L 162.026806 203.832537 
L 162.857781 188.85423 
L 163.688757 238.190403 
L 164.519732 221.351183 
L 165.350707 231.73204 
L 166.181683 203.785331 
L 167.012658 144.051398 
L 167.843634 192.903777 
L 168.674609 156.980604 
L 169.505585 101.101696 
L 170.33656 185.179541 
L 171.167535 189.823865 
L 171.998511 208.474746 
L 172.829486 170.206729 
L 173.660462 237.681135 
L 174.491437 222.083171 
L 175.322413 230.058673 
L 176.153388 217.860017 
L 176.984363 212.299083 
L 177.815339 239.421591 
L 179.47729 223.101795 
L 180.308265 132.986716 
L 181.139241 242.01059 
L 181.970216 210.037259 
L 182.801191 117.364182 
L 183.632167 189.667941 
L 184.463142 206.975128 
L 185.294118 202.459863 
L 186.125093 181.614113 
L 186.956069 226.965815 
L 187.787044 214.200778 
L 188.618019 239.199989 
L 189.448995 226.407554 
L 190.27997 229.688337 
L 191.110946 225.780285 
L 191.941921 172.694162 
L 192.772897 182.454747 
L 193.603872 183.269086 
L 194.434847 168.335642 
L 195.265823 89.955062 
L 196.096798 208.208646 
L 197.758749 206.660613 
L 199.4207 239.004052 
L 200.251675 220.633625 
L 201.082651 182.288526 
L 201.913626 208.047673 
L 202.744602 190.769051 
L 203.575577 140.058848 
L 204.406552 175.726583 
L 205.237528 151.270723 
L 206.068503 226.699647 
L 206.899479 211.459886 
L 207.730454 220.822888 
L 208.56143 235.377905 
L 209.392405 236.183507 
L 210.22338 228.605107 
L 211.054356 236.189551 
L 211.885331 231.428 
L 212.716307 197.330011 
L 214.378258 205.864786 
L 215.209233 214.6748 
L 216.040208 153.875401 
L 216.871184 233.606248 
L 217.702159 234.825575 
L 218.533135 223.197883 
L 219.36411 232.280684 
L 220.195086 232.285845 
L 221.026061 240.803604 
L 221.857036 183.012657 
L 222.688012 217.284498 
L 223.518987 205.059595 
L 224.349963 204.527519 
L 225.180938 206.043769 
L 226.011914 215.133695 
L 226.842889 218.219382 
L 227.673864 206.665254 
L 228.50484 213.788806 
L 229.335815 218.937369 
L 230.166791 219.398685 
L 230.997766 189.058609 
L 231.828742 217.766614 
L 232.659717 220.461502 
L 233.490692 191.953195 
L 234.321668 207.681449 
L 235.983619 231.620609 
L 236.814594 216.614592 
L 237.64557 235.231865 
L 238.476545 224.161151 
L 239.30752 188.652684 
L 240.138496 235.98719 
L 240.969471 233.296331 
L 241.800447 228.986551 
L 242.631422 212.780652 
L 243.462398 241.577352 
L 244.293373 228.017303 
L 245.124348 238.562916 
L 245.955324 238.518576 
L 246.786299 225.282993 
L 247.617275 237.288392 
L 248.44825 232.836371 
L 249.279226 232.751631 
L 250.110201 224.433152 
L 250.941176 236.889639 
L 251.772152 237.891228 
L 252.603127 232.738623 
L 253.434103 238.813903 
L 254.265078 241.449301 
L 255.096054 241.976076 
L 255.927029 241.586894 
L 256.758004 236.265926 
L 257.58898 233.030783 
L 258.419955 231.755998 
L 259.250931 237.0692 
L 260.912882 220.824838 
L 261.743857 236.513559 
L 262.574832 238.50998 
L 263.405808 240.855386 
L 264.236783 240.282017 
L 265.067759 241.45428 
L 265.898734 225.788368 
L 266.72971 222.276396 
L 267.560685 230.761328 
L 268.39166 229.013479 
L 269.222636 208.306908 
L 270.053611 238.761158 
L 270.884587 238.6912 
L 271.715562 234.668001 
L 272.546538 241.867509 
L 273.377513 227.420214 
L 275.039464 229.084256 
L 275.870439 218.824704 
L 276.701415 220.096801 
L 277.53239 217.356173 
L 278.363366 232.422553 
L 279.194341 237.851666 
L 280.025316 239.665874 
L 280.856292 241.979949 
L 281.687267 241.982229 
L 282.518243 240.005914 
L 283.349218 234.486119 
L 284.180194 234.416992 
L 285.011169 231.914667 
L 285.842144 234.289011 
L 286.67312 230.174592 
L 287.504095 239.932668 
L 288.335071 238.958878 
L 289.166046 240.800758 
L 289.997022 239.956132 
L 290.827997 238.638133 
L 291.658972 241.489496 
L 292.489948 240.720389 
L 293.320923 241.080681 
L 294.151899 237.953132 
L 294.982874 241.992685 
L 295.81385 240.916103 
L 296.644825 241.792298 
L 297.4758 239.07643 
L 298.306776 241.030504 
L 299.137751 240.816865 
L 299.968727 237.521851 
L 300.799702 240.877931 
L 301.630678 236.452672 
L 302.461653 235.184156 
L 303.292628 240.91022 
L 304.123604 235.693039 
L 304.954579 229.469067 
L 305.785555 238.057986 
L 307.447506 239.81282 
L 308.278481 234.451803 
L 309.109456 227.706162 
L 309.940432 236.0313 
L 310.771407 236.465469 
L 311.602383 232.91536 
L 312.433358 226.257995 
L 313.264334 235.738176 
L 314.095309 241.625572 
L 314.926284 240.946579 
L 315.75726 241.076843 
L 316.588235 241.921713 
L 317.419211 230.462014 
L 318.250186 231.558115 
L 319.912137 240.44256 
L 320.743112 236.1855 
L 321.574088 234.252484 
L 322.405063 235.448573 
L 323.236039 241.864172 
L 324.067014 239.635902 
L 324.89799 242.084946 
L 325.728965 240.495825 
L 326.55994 239.578503 
L 327.390916 241.376519 
L 328.221891 240.807011 
L 329.052867 241.163925 
L 329.883842 241.291033 
L 330.714818 241.820438 
L 331.545793 241.783541 
L 332.376768 241.445906 
L 333.207744 241.313434 
L 334.038719 240.858353 
L 334.869695 241.238473 
L 335.70067 241.342605 
L 336.531646 241.76137 
L 337.362621 241.323326 
L 339.024572 241.980763 
L 339.855547 241.658055 
L 341.517498 241.699625 
L 344.010424 241.630715 
L 344.8414 241.303687 
L 345.672375 241.688566 
L 346.503351 241.325016 
L 347.334326 242.002278 
L 348.165302 241.35839 
L 348.996277 241.935905 
L 349.827252 242.089826 
L 351.489203 241.919303 
L 352.320179 242.069528 
L 353.98213 241.894618 
L 354.813105 242.036039 
L 356.475056 242.032344 
L 358.967982 241.946644 
L 360.629933 242.017323 
L 363.122859 241.966041 
L 363.953835 242.095314 
L 372.263589 242.075513 
L 376.418466 242.097771 
L 380.573343 242.095767 
L 385.559196 242.096551 
L 388.883098 242.104372 
L 388.883098 242.104372 
" clip-path="url(#pa76912b245)" style="fill: none; stroke: #ccb974; stroke-opacity: 0.3; stroke-width: 1.5; stroke-linecap: round"/>
   </g>
   <g id="patch_3">
    <path d="M 54 252 
L 54 34.56 
" style="fill: none; stroke: #262626; stroke-width: 1.25; stroke-linejoin: miter; stroke-linecap: square"/>
   </g>
   <g id="patch_4">
    <path d="M 388.8 252 
L 388.8 34.56 
" style="fill: none; stroke: #262626; stroke-width: 1.25; stroke-linejoin: miter; stroke-linecap: square"/>
   </g>
   <g id="patch_5">
    <path d="M 54 252 
L 388.8 252 
" style="fill: none; stroke: #262626; stroke-width: 1.25; stroke-linejoin: miter; stroke-linecap: square"/>
   </g>
   <g id="patch_6">
    <path d="M 54 34.56 
L 388.8 34.56 
" style="fill: none; stroke: #262626; stroke-width: 1.25; stroke-linejoin: miter; stroke-linecap: square"/>
   </g>
   <g id="text_15">
    <!-- patient06_app_post02_phone - Power spectrum -->
    <g style="fill: #262626" transform="translate(93.321562 28.56)scale(0.12 -0.12)">
     <defs>
      <path id="ArialMT-70" d="M 422 -1272 
L 422 3319 
L 934 3319 
L 934 2888 
Q 1116 3141 1344 3267 
Q 1572 3394 1897 3394 
Q 2322 3394 2647 3175 
Q 2972 2956 3137 2557 
Q 3303 2159 3303 1684 
Q 3303 1175 3120 767 
Q 2938 359 2589 142 
Q 2241 -75 1856 -75 
Q 1575 -75 1351 44 
Q 1128 163 984 344 
L 984 -1272 
L 422 -1272 
z
M 931 1641 
Q 931 1000 1190 694 
Q 1450 388 1819 388 
Q 2194 388 2461 705 
Q 2728 1022 2728 1688 
Q 2728 2322 2467 2637 
Q 2206 2953 1844 2953 
Q 1484 2953 1207 2617 
Q 931 2281 931 1641 
z
" transform="scale(0.015625)"/>
      <path id="ArialMT-61" d="M 2588 409 
Q 2275 144 1986 34 
Q 1697 -75 1366 -75 
Q 819 -75 525 192 
Q 231 459 231 875 
Q 231 1119 342 1320 
Q 453 1522 633 1644 
Q 813 1766 1038 1828 
Q 1203 1872 1538 1913 
Q 2219 1994 2541 2106 
Q 2544 2222 2544 2253 
Q 2544 2597 2384 2738 
Q 2169 2928 1744 2928 
Q 1347 2928 1158 2789 
Q 969 2650 878 2297 
L 328 2372 
Q 403 2725 575 2942 
Q 747 3159 1072 3276 
Q 1397 3394 1825 3394 
Q 2250 3394 2515 3294 
Q 2781 3194 2906 3042 
Q 3031 2891 3081 2659 
Q 3109 2516 3109 2141 
L 3109 1391 
Q 3109 606 3145 398 
Q 3181 191 3288 0 
L 2700 0 
Q 2613 175 2588 409 
z
M 2541 1666 
Q 2234 1541 1622 1453 
Q 1275 1403 1131 1340 
Q 988 1278 909 1158 
Q 831 1038 831 891 
Q 831 666 1001 516 
Q 1172 366 1500 366 
Q 1825 366 2078 508 
Q 2331 650 2450 897 
Q 2541 1088 2541 1459 
L 2541 1666 
z
" transform="scale(0.015625)"/>
      <path id="ArialMT-74" d="M 1650 503 
L 1731 6 
Q 1494 -44 1306 -44 
Q 1000 -44 831 53 
Q 663 150 594 308 
Q 525 466 525 972 
L 525 2881 
L 113 2881 
L 113 3319 
L 525 3319 
L 525 4141 
L 1084 4478 
L 1084 3319 
L 1650 3319 
L 1650 2881 
L 1084 2881 
L 1084 941 
Q 1084 700 1114 631 
Q 1144 563 1211 522 
Q 1278 481 1403 481 
Q 1497 481 1650 503 
z
" transform="scale(0.015625)"/>
      <path id="ArialMT-69" d="M 425 3934 
L 425 4581 
L 988 4581 
L 988 3934 
L 425 3934 
z
M 425 0 
L 425 3319 
L 988 3319 
L 988 0 
L 425 0 
z
" transform="scale(0.015625)"/>
      <path id="ArialMT-5f" d="M -97 -1272 
L -97 -866 
L 3631 -866 
L 3631 -1272 
L -97 -1272 
z
" transform="scale(0.015625)"/>
      <path id="ArialMT-6f" d="M 213 1659 
Q 213 2581 725 3025 
Q 1153 3394 1769 3394 
Q 2453 3394 2887 2945 
Q 3322 2497 3322 1706 
Q 3322 1066 3130 698 
Q 2938 331 2570 128 
Q 2203 -75 1769 -75 
Q 1072 -75 642 372 
Q 213 819 213 1659 
z
M 791 1659 
Q 791 1022 1069 705 
Q 1347 388 1769 388 
Q 2188 388 2466 706 
Q 2744 1025 2744 1678 
Q 2744 2294 2464 2611 
Q 2184 2928 1769 2928 
Q 1347 2928 1069 2612 
Q 791 2297 791 1659 
z
" transform="scale(0.015625)"/>
      <path id="ArialMT-73" d="M 197 991 
L 753 1078 
Q 800 744 1014 566 
Q 1228 388 1613 388 
Q 2000 388 2187 545 
Q 2375 703 2375 916 
Q 2375 1106 2209 1216 
Q 2094 1291 1634 1406 
Q 1016 1563 777 1677 
Q 538 1791 414 1992 
Q 291 2194 291 2438 
Q 291 2659 392 2848 
Q 494 3038 669 3163 
Q 800 3259 1026 3326 
Q 1253 3394 1513 3394 
Q 1903 3394 2198 3281 
Q 2494 3169 2634 2976 
Q 2775 2784 2828 2463 
L 2278 2388 
Q 2241 2644 2061 2787 
Q 1881 2931 1553 2931 
Q 1166 2931 1000 2803 
Q 834 2675 834 2503 
Q 834 2394 903 2306 
Q 972 2216 1119 2156 
Q 1203 2125 1616 2013 
Q 2213 1853 2448 1751 
Q 2684 1650 2818 1456 
Q 2953 1263 2953 975 
Q 2953 694 2789 445 
Q 2625 197 2315 61 
Q 2006 -75 1616 -75 
Q 969 -75 630 194 
Q 291 463 197 991 
z
" transform="scale(0.015625)"/>
      <path id="ArialMT-68" d="M 422 0 
L 422 4581 
L 984 4581 
L 984 2938 
Q 1378 3394 1978 3394 
Q 2347 3394 2619 3248 
Q 2891 3103 3008 2847 
Q 3125 2591 3125 2103 
L 3125 0 
L 2563 0 
L 2563 2103 
Q 2563 2525 2380 2717 
Q 2197 2909 1863 2909 
Q 1613 2909 1392 2779 
Q 1172 2650 1078 2428 
Q 984 2206 984 1816 
L 984 0 
L 422 0 
z
" transform="scale(0.015625)"/>
      <path id="ArialMT-2d" d="M 203 1375 
L 203 1941 
L 1931 1941 
L 1931 1375 
L 203 1375 
z
" transform="scale(0.015625)"/>
      <path id="ArialMT-50" d="M 494 0 
L 494 4581 
L 2222 4581 
Q 2678 4581 2919 4538 
Q 3256 4481 3484 4323 
Q 3713 4166 3852 3881 
Q 3991 3597 3991 3256 
Q 3991 2672 3619 2267 
Q 3247 1863 2275 1863 
L 1100 1863 
L 1100 0 
L 494 0 
z
M 1100 2403 
L 2284 2403 
Q 2872 2403 3119 2622 
Q 3366 2841 3366 3238 
Q 3366 3525 3220 3729 
Q 3075 3934 2838 4000 
Q 2684 4041 2272 4041 
L 1100 4041 
L 1100 2403 
z
" transform="scale(0.015625)"/>
      <path id="ArialMT-77" d="M 1034 0 
L 19 3319 
L 600 3319 
L 1128 1403 
L 1325 691 
Q 1338 744 1497 1375 
L 2025 3319 
L 2603 3319 
L 3100 1394 
L 3266 759 
L 3456 1400 
L 4025 3319 
L 4572 3319 
L 3534 0 
L 2950 0 
L 2422 1988 
L 2294 2553 
L 1622 0 
L 1034 0 
z
" transform="scale(0.015625)"/>
      <path id="ArialMT-6d" d="M 422 0 
L 422 3319 
L 925 3319 
L 925 2853 
Q 1081 3097 1340 3245 
Q 1600 3394 1931 3394 
Q 2300 3394 2536 3241 
Q 2772 3088 2869 2813 
Q 3263 3394 3894 3394 
Q 4388 3394 4653 3120 
Q 4919 2847 4919 2278 
L 4919 0 
L 4359 0 
L 4359 2091 
Q 4359 2428 4304 2576 
Q 4250 2725 4106 2815 
Q 3963 2906 3769 2906 
Q 3419 2906 3187 2673 
Q 2956 2441 2956 1928 
L 2956 0 
L 2394 0 
L 2394 2156 
Q 2394 2531 2256 2718 
Q 2119 2906 1806 2906 
Q 1569 2906 1367 2781 
Q 1166 2656 1075 2415 
Q 984 2175 984 1722 
L 984 0 
L 422 0 
z
" transform="scale(0.015625)"/>
     </defs>
     <use xlink:href="#ArialMT-70"/>
     <use xlink:href="#ArialMT-61" x="55.615234"/>
     <use xlink:href="#ArialMT-74" x="111.230469"/>
     <use xlink:href="#ArialMT-69" x="139.013672"/>
     <use xlink:href="#ArialMT-65" x="161.230469"/>
     <use xlink:href="#ArialMT-6e" x="216.845703"/>
     <use xlink:href="#ArialMT-74" x="272.460938"/>
     <use xlink:href="#ArialMT-30" x="300.244141"/>
     <use xlink:href="#ArialMT-36" x="355.859375"/>
     <use xlink:href="#ArialMT-5f" x="411.474609"/>
     <use xlink:href="#ArialMT-61" x="467.089844"/>
     <use xlink:href="#ArialMT-70" x="522.705078"/>
     <use xlink:href="#ArialMT-70" x="578.320312"/>
     <use xlink:href="#ArialMT-5f" x="633.935547"/>
     <use xlink:href="#ArialMT-70" x="689.550781"/>
     <use xlink:href="#ArialMT-6f" x="745.166016"/>
     <use xlink:href="#ArialMT-73" x="800.78125"/>
     <use xlink:href="#ArialMT-74" x="850.78125"/>
     <use xlink:href="#ArialMT-30" x="878.564453"/>
     <use xlink:href="#ArialMT-32" x="934.179688"/>
     <use xlink:href="#ArialMT-5f" x="989.794922"/>
     <use xlink:href="#ArialMT-70" x="1045.410156"/>
     <use xlink:href="#ArialMT-68" x="1101.025391"/>
     <use xlink:href="#ArialMT-6f" x="1156.640625"/>
     <use xlink:href="#ArialMT-6e" x="1212.255859"/>
     <use xlink:href="#ArialMT-65" x="1267.871094"/>
     <use xlink:href="#ArialMT-20" x="1323.486328"/>
     <use xlink:href="#ArialMT-2d" x="1351.269531"/>
     <use xlink:href="#ArialMT-20" x="1384.570312"/>
     <use xlink:href="#ArialMT-50" x="1412.353516"/>
     <use xlink:href="#ArialMT-6f" x="1479.052734"/>
     <use xlink:href="#ArialMT-77" x="1534.667969"/>
     <use xlink:href="#ArialMT-65" x="1606.884766"/>
     <use xlink:href="#ArialMT-72" x="1662.5"/>
     <use xlink:href="#ArialMT-20" x="1695.800781"/>
     <use xlink:href="#ArialMT-73" x="1723.583984"/>
     <use xlink:href="#ArialMT-70" x="1773.583984"/>
     <use xlink:href="#ArialMT-65" x="1829.199219"/>
     <use xlink:href="#ArialMT-63" x="1884.814453"/>
     <use xlink:href="#ArialMT-74" x="1934.814453"/>
     <use xlink:href="#ArialMT-72" x="1962.597656"/>
     <use xlink:href="#ArialMT-75" x="1995.898438"/>
     <use xlink:href="#ArialMT-6d" x="2051.513672"/>
    </g>
   </g>
  </g>
 </g>
 <defs>
  <clipPath id="pa76912b245">
   <rect x="54" y="34.56" width="334.8" height="217.44"/>
  </clipPath>
 </defs>
</svg>
