<?xml version="1.0" encoding="utf-8" standalone="no"?>
<!DOCTYPE svg PUBLIC "-//W3C//DTD SVG 1.1//EN"
  "http://www.w3.org/Graphics/SVG/1.1/DTD/svg11.dtd">
<svg xmlns:xlink="http://www.w3.org/1999/xlink" width="432pt" height="288pt" viewBox="0 0 432 288" xmlns="http://www.w3.org/2000/svg" version="1.1">
 <metadata>
  <rdf:RDF xmlns:dc="http://purl.org/dc/elements/1.1/" xmlns:cc="http://creativecommons.org/ns#" xmlns:rdf="http://www.w3.org/1999/02/22-rdf-syntax-ns#">
   <cc:Work>
    <dc:type rdf:resource="http://purl.org/dc/dcmitype/StillImage"/>
    <dc:date>2022-07-08T13:28:07.420933</dc:date>
    <dc:format>image/svg+xml</dc:format>
    <dc:creator>
     <cc:Agent>
      <dc:title>Matplotlib v3.5.1, https://matplotlib.org/</dc:title>
     </cc:Agent>
    </dc:creator>
   </cc:Work>
  </rdf:RDF>
 </metadata>
 <defs>
  <style type="text/css">*{stroke-linejoin: round; stroke-linecap: butt}</style>
 </defs>
 <g id="figure_1">
  <g id="patch_1">
   <path d="M 0 288 
L 432 288 
L 432 0 
L 0 0 
z
" style="fill: #ffffff"/>
  </g>
  <g id="axes_1">
   <g id="patch_2">
    <path d="M 54 252 
L 388.8 252 
L 388.8 34.56 
L 54 34.56 
z
" style="fill: #ffffff"/>
   </g>
   <g id="matplotlib.axis_1">
    <g id="xtick_1">
     <g id="line2d_1">
      <defs>
       <path id="m48c3a39908" d="M 0 0 
L 0 6 
" style="stroke: #262626; stroke-width: 1.25"/>
      </defs>
      <g>
       <use xlink:href="#m48c3a39908" x="54" y="252" style="fill: #262626; stroke: #262626; stroke-width: 1.25"/>
      </g>
     </g>
     <g id="text_1">
      <!-- 0 -->
      <g style="fill: #262626" transform="translate(50.941484 269.373594)scale(0.11 -0.11)">
       <defs>
        <path id="ArialMT-30" d="M 266 2259 
Q 266 3072 433 3567 
Q 600 4063 929 4331 
Q 1259 4600 1759 4600 
Q 2128 4600 2406 4451 
Q 2684 4303 2865 4023 
Q 3047 3744 3150 3342 
Q 3253 2941 3253 2259 
Q 3253 1453 3087 958 
Q 2922 463 2592 192 
Q 2263 -78 1759 -78 
Q 1097 -78 719 397 
Q 266 969 266 2259 
z
M 844 2259 
Q 844 1131 1108 757 
Q 1372 384 1759 384 
Q 2147 384 2411 759 
Q 2675 1134 2675 2259 
Q 2675 3391 2411 3762 
Q 2147 4134 1753 4134 
Q 1366 4134 1134 3806 
Q 844 3388 844 2259 
z
" transform="scale(0.015625)"/>
       </defs>
       <use xlink:href="#ArialMT-30"/>
      </g>
     </g>
    </g>
    <g id="xtick_2">
     <g id="line2d_2">
      <g>
       <use xlink:href="#m48c3a39908" x="109.8" y="252" style="fill: #262626; stroke: #262626; stroke-width: 1.25"/>
      </g>
     </g>
     <g id="text_2">
      <!-- 5 -->
      <g style="fill: #262626" transform="translate(106.741484 269.373594)scale(0.11 -0.11)">
       <defs>
        <path id="ArialMT-35" d="M 266 1200 
L 856 1250 
Q 922 819 1161 601 
Q 1400 384 1738 384 
Q 2144 384 2425 690 
Q 2706 997 2706 1503 
Q 2706 1984 2436 2262 
Q 2166 2541 1728 2541 
Q 1456 2541 1237 2417 
Q 1019 2294 894 2097 
L 366 2166 
L 809 4519 
L 3088 4519 
L 3088 3981 
L 1259 3981 
L 1013 2750 
Q 1425 3038 1878 3038 
Q 2478 3038 2890 2622 
Q 3303 2206 3303 1553 
Q 3303 931 2941 478 
Q 2500 -78 1738 -78 
Q 1113 -78 717 272 
Q 322 622 266 1200 
z
" transform="scale(0.015625)"/>
       </defs>
       <use xlink:href="#ArialMT-35"/>
      </g>
     </g>
    </g>
    <g id="xtick_3">
     <g id="line2d_3">
      <g>
       <use xlink:href="#m48c3a39908" x="165.6" y="252" style="fill: #262626; stroke: #262626; stroke-width: 1.25"/>
      </g>
     </g>
     <g id="text_3">
      <!-- 10 -->
      <g style="fill: #262626" transform="translate(159.482969 269.373594)scale(0.11 -0.11)">
       <defs>
        <path id="ArialMT-31" d="M 2384 0 
L 1822 0 
L 1822 3584 
Q 1619 3391 1289 3197 
Q 959 3003 697 2906 
L 697 3450 
Q 1169 3672 1522 3987 
Q 1875 4303 2022 4600 
L 2384 4600 
L 2384 0 
z
" transform="scale(0.015625)"/>
       </defs>
       <use xlink:href="#ArialMT-31"/>
       <use xlink:href="#ArialMT-30" x="55.615234"/>
      </g>
     </g>
    </g>
    <g id="xtick_4">
     <g id="line2d_4">
      <g>
       <use xlink:href="#m48c3a39908" x="221.4" y="252" style="fill: #262626; stroke: #262626; stroke-width: 1.25"/>
      </g>
     </g>
     <g id="text_4">
      <!-- 15 -->
      <g style="fill: #262626" transform="translate(215.282969 269.373594)scale(0.11 -0.11)">
       <use xlink:href="#ArialMT-31"/>
       <use xlink:href="#ArialMT-35" x="55.615234"/>
      </g>
     </g>
    </g>
    <g id="xtick_5">
     <g id="line2d_5">
      <g>
       <use xlink:href="#m48c3a39908" x="277.2" y="252" style="fill: #262626; stroke: #262626; stroke-width: 1.25"/>
      </g>
     </g>
     <g id="text_5">
      <!-- 20 -->
      <g style="fill: #262626" transform="translate(271.082969 269.373594)scale(0.11 -0.11)">
       <defs>
        <path id="ArialMT-32" d="M 3222 541 
L 3222 0 
L 194 0 
Q 188 203 259 391 
Q 375 700 629 1000 
Q 884 1300 1366 1694 
Q 2113 2306 2375 2664 
Q 2638 3022 2638 3341 
Q 2638 3675 2398 3904 
Q 2159 4134 1775 4134 
Q 1369 4134 1125 3890 
Q 881 3647 878 3216 
L 300 3275 
Q 359 3922 746 4261 
Q 1134 4600 1788 4600 
Q 2447 4600 2831 4234 
Q 3216 3869 3216 3328 
Q 3216 3053 3103 2787 
Q 2991 2522 2730 2228 
Q 2469 1934 1863 1422 
Q 1356 997 1212 845 
Q 1069 694 975 541 
L 3222 541 
z
" transform="scale(0.015625)"/>
       </defs>
       <use xlink:href="#ArialMT-32"/>
       <use xlink:href="#ArialMT-30" x="55.615234"/>
      </g>
     </g>
    </g>
    <g id="xtick_6">
     <g id="line2d_6">
      <g>
       <use xlink:href="#m48c3a39908" x="333" y="252" style="fill: #262626; stroke: #262626; stroke-width: 1.25"/>
      </g>
     </g>
     <g id="text_6">
      <!-- 25 -->
      <g style="fill: #262626" transform="translate(326.882969 269.373594)scale(0.11 -0.11)">
       <use xlink:href="#ArialMT-32"/>
       <use xlink:href="#ArialMT-35" x="55.615234"/>
      </g>
     </g>
    </g>
    <g id="xtick_7">
     <g id="line2d_7">
      <g>
       <use xlink:href="#m48c3a39908" x="388.8" y="252" style="fill: #262626; stroke: #262626; stroke-width: 1.25"/>
      </g>
     </g>
     <g id="text_7">
      <!-- 30 -->
      <g style="fill: #262626" transform="translate(382.682969 269.373594)scale(0.11 -0.11)">
       <defs>
        <path id="ArialMT-33" d="M 269 1209 
L 831 1284 
Q 928 806 1161 595 
Q 1394 384 1728 384 
Q 2125 384 2398 659 
Q 2672 934 2672 1341 
Q 2672 1728 2419 1979 
Q 2166 2231 1775 2231 
Q 1616 2231 1378 2169 
L 1441 2663 
Q 1497 2656 1531 2656 
Q 1891 2656 2178 2843 
Q 2466 3031 2466 3422 
Q 2466 3731 2256 3934 
Q 2047 4138 1716 4138 
Q 1388 4138 1169 3931 
Q 950 3725 888 3313 
L 325 3413 
Q 428 3978 793 4289 
Q 1159 4600 1703 4600 
Q 2078 4600 2393 4439 
Q 2709 4278 2876 4000 
Q 3044 3722 3044 3409 
Q 3044 3113 2884 2869 
Q 2725 2625 2413 2481 
Q 2819 2388 3044 2092 
Q 3269 1797 3269 1353 
Q 3269 753 2831 336 
Q 2394 -81 1725 -81 
Q 1122 -81 723 278 
Q 325 638 269 1209 
z
" transform="scale(0.015625)"/>
       </defs>
       <use xlink:href="#ArialMT-33"/>
       <use xlink:href="#ArialMT-30" x="55.615234"/>
      </g>
     </g>
    </g>
    <g id="text_8">
     <!-- Frequency (Hz) -->
     <g style="fill: #262626" transform="translate(180.059063 284.295469)scale(0.12 -0.12)">
      <defs>
       <path id="ArialMT-46" d="M 525 0 
L 525 4581 
L 3616 4581 
L 3616 4041 
L 1131 4041 
L 1131 2622 
L 3281 2622 
L 3281 2081 
L 1131 2081 
L 1131 0 
L 525 0 
z
" transform="scale(0.015625)"/>
       <path id="ArialMT-72" d="M 416 0 
L 416 3319 
L 922 3319 
L 922 2816 
Q 1116 3169 1280 3281 
Q 1444 3394 1641 3394 
Q 1925 3394 2219 3213 
L 2025 2691 
Q 1819 2813 1613 2813 
Q 1428 2813 1281 2702 
Q 1134 2591 1072 2394 
Q 978 2094 978 1738 
L 978 0 
L 416 0 
z
" transform="scale(0.015625)"/>
       <path id="ArialMT-65" d="M 2694 1069 
L 3275 997 
Q 3138 488 2766 206 
Q 2394 -75 1816 -75 
Q 1088 -75 661 373 
Q 234 822 234 1631 
Q 234 2469 665 2931 
Q 1097 3394 1784 3394 
Q 2450 3394 2872 2941 
Q 3294 2488 3294 1666 
Q 3294 1616 3291 1516 
L 816 1516 
Q 847 969 1125 678 
Q 1403 388 1819 388 
Q 2128 388 2347 550 
Q 2566 713 2694 1069 
z
M 847 1978 
L 2700 1978 
Q 2663 2397 2488 2606 
Q 2219 2931 1791 2931 
Q 1403 2931 1139 2672 
Q 875 2413 847 1978 
z
" transform="scale(0.015625)"/>
       <path id="ArialMT-71" d="M 2538 -1272 
L 2538 353 
Q 2406 169 2170 47 
Q 1934 -75 1669 -75 
Q 1078 -75 651 397 
Q 225 869 225 1691 
Q 225 2191 398 2587 
Q 572 2984 901 3189 
Q 1231 3394 1625 3394 
Q 2241 3394 2594 2875 
L 2594 3319 
L 3100 3319 
L 3100 -1272 
L 2538 -1272 
z
M 803 1669 
Q 803 1028 1072 708 
Q 1341 388 1716 388 
Q 2075 388 2334 692 
Q 2594 997 2594 1619 
Q 2594 2281 2320 2615 
Q 2047 2950 1678 2950 
Q 1313 2950 1058 2639 
Q 803 2328 803 1669 
z
" transform="scale(0.015625)"/>
       <path id="ArialMT-75" d="M 2597 0 
L 2597 488 
Q 2209 -75 1544 -75 
Q 1250 -75 995 37 
Q 741 150 617 320 
Q 494 491 444 738 
Q 409 903 409 1263 
L 409 3319 
L 972 3319 
L 972 1478 
Q 972 1038 1006 884 
Q 1059 663 1231 536 
Q 1403 409 1656 409 
Q 1909 409 2131 539 
Q 2353 669 2445 892 
Q 2538 1116 2538 1541 
L 2538 3319 
L 3100 3319 
L 3100 0 
L 2597 0 
z
" transform="scale(0.015625)"/>
       <path id="ArialMT-6e" d="M 422 0 
L 422 3319 
L 928 3319 
L 928 2847 
Q 1294 3394 1984 3394 
Q 2284 3394 2536 3286 
Q 2788 3178 2913 3003 
Q 3038 2828 3088 2588 
Q 3119 2431 3119 2041 
L 3119 0 
L 2556 0 
L 2556 2019 
Q 2556 2363 2490 2533 
Q 2425 2703 2258 2804 
Q 2091 2906 1866 2906 
Q 1506 2906 1245 2678 
Q 984 2450 984 1813 
L 984 0 
L 422 0 
z
" transform="scale(0.015625)"/>
       <path id="ArialMT-63" d="M 2588 1216 
L 3141 1144 
Q 3050 572 2676 248 
Q 2303 -75 1759 -75 
Q 1078 -75 664 370 
Q 250 816 250 1647 
Q 250 2184 428 2587 
Q 606 2991 970 3192 
Q 1334 3394 1763 3394 
Q 2303 3394 2647 3120 
Q 2991 2847 3088 2344 
L 2541 2259 
Q 2463 2594 2264 2762 
Q 2066 2931 1784 2931 
Q 1359 2931 1093 2626 
Q 828 2322 828 1663 
Q 828 994 1084 691 
Q 1341 388 1753 388 
Q 2084 388 2306 591 
Q 2528 794 2588 1216 
z
" transform="scale(0.015625)"/>
       <path id="ArialMT-79" d="M 397 -1278 
L 334 -750 
Q 519 -800 656 -800 
Q 844 -800 956 -737 
Q 1069 -675 1141 -563 
Q 1194 -478 1313 -144 
Q 1328 -97 1363 -6 
L 103 3319 
L 709 3319 
L 1400 1397 
Q 1534 1031 1641 628 
Q 1738 1016 1872 1384 
L 2581 3319 
L 3144 3319 
L 1881 -56 
Q 1678 -603 1566 -809 
Q 1416 -1088 1222 -1217 
Q 1028 -1347 759 -1347 
Q 597 -1347 397 -1278 
z
" transform="scale(0.015625)"/>
       <path id="ArialMT-20" transform="scale(0.015625)"/>
       <path id="ArialMT-28" d="M 1497 -1347 
Q 1031 -759 709 28 
Q 388 816 388 1659 
Q 388 2403 628 3084 
Q 909 3875 1497 4659 
L 1900 4659 
Q 1522 4009 1400 3731 
Q 1209 3300 1100 2831 
Q 966 2247 966 1656 
Q 966 153 1900 -1347 
L 1497 -1347 
z
" transform="scale(0.015625)"/>
       <path id="ArialMT-48" d="M 513 0 
L 513 4581 
L 1119 4581 
L 1119 2700 
L 3500 2700 
L 3500 4581 
L 4106 4581 
L 4106 0 
L 3500 0 
L 3500 2159 
L 1119 2159 
L 1119 0 
L 513 0 
z
" transform="scale(0.015625)"/>
       <path id="ArialMT-7a" d="M 125 0 
L 125 456 
L 2238 2881 
Q 1878 2863 1603 2863 
L 250 2863 
L 250 3319 
L 2963 3319 
L 2963 2947 
L 1166 841 
L 819 456 
Q 1197 484 1528 484 
L 3063 484 
L 3063 0 
L 125 0 
z
" transform="scale(0.015625)"/>
       <path id="ArialMT-29" d="M 791 -1347 
L 388 -1347 
Q 1322 153 1322 1656 
Q 1322 2244 1188 2822 
Q 1081 3291 891 3722 
Q 769 4003 388 4659 
L 791 4659 
Q 1378 3875 1659 3084 
Q 1900 2403 1900 1659 
Q 1900 816 1576 28 
Q 1253 -759 791 -1347 
z
" transform="scale(0.015625)"/>
      </defs>
      <use xlink:href="#ArialMT-46"/>
      <use xlink:href="#ArialMT-72" x="61.083984"/>
      <use xlink:href="#ArialMT-65" x="94.384766"/>
      <use xlink:href="#ArialMT-71" x="150"/>
      <use xlink:href="#ArialMT-75" x="205.615234"/>
      <use xlink:href="#ArialMT-65" x="261.230469"/>
      <use xlink:href="#ArialMT-6e" x="316.845703"/>
      <use xlink:href="#ArialMT-63" x="372.460938"/>
      <use xlink:href="#ArialMT-79" x="422.460938"/>
      <use xlink:href="#ArialMT-20" x="472.460938"/>
      <use xlink:href="#ArialMT-28" x="500.244141"/>
      <use xlink:href="#ArialMT-48" x="533.544922"/>
      <use xlink:href="#ArialMT-7a" x="605.761719"/>
      <use xlink:href="#ArialMT-29" x="655.761719"/>
     </g>
    </g>
   </g>
   <g id="matplotlib.axis_2">
    <g id="ytick_1">
     <g id="line2d_8">
      <defs>
       <path id="m4a34d26cf6" d="M 0 0 
L -6 0 
" style="stroke: #262626; stroke-width: 1.25"/>
      </defs>
      <g>
       <use xlink:href="#m4a34d26cf6" x="54" y="242.116364" style="fill: #262626; stroke: #262626; stroke-width: 1.25"/>
      </g>
     </g>
     <g id="text_9">
      <!-- 0.0 -->
      <g style="fill: #262626" transform="translate(29.21 246.053161)scale(0.11 -0.11)">
       <defs>
        <path id="ArialMT-2e" d="M 581 0 
L 581 641 
L 1222 641 
L 1222 0 
L 581 0 
z
" transform="scale(0.015625)"/>
       </defs>
       <use xlink:href="#ArialMT-30"/>
       <use xlink:href="#ArialMT-2e" x="55.615234"/>
       <use xlink:href="#ArialMT-30" x="83.398438"/>
      </g>
     </g>
    </g>
    <g id="ytick_2">
     <g id="line2d_9">
      <g>
       <use xlink:href="#m4a34d26cf6" x="54" y="202.581818" style="fill: #262626; stroke: #262626; stroke-width: 1.25"/>
      </g>
     </g>
     <g id="text_10">
      <!-- 0.2 -->
      <g style="fill: #262626" transform="translate(29.21 206.518615)scale(0.11 -0.11)">
       <use xlink:href="#ArialMT-30"/>
       <use xlink:href="#ArialMT-2e" x="55.615234"/>
       <use xlink:href="#ArialMT-32" x="83.398438"/>
      </g>
     </g>
    </g>
    <g id="ytick_3">
     <g id="line2d_10">
      <g>
       <use xlink:href="#m4a34d26cf6" x="54" y="163.047273" style="fill: #262626; stroke: #262626; stroke-width: 1.25"/>
      </g>
     </g>
     <g id="text_11">
      <!-- 0.4 -->
      <g style="fill: #262626" transform="translate(29.21 166.98407)scale(0.11 -0.11)">
       <defs>
        <path id="ArialMT-34" d="M 2069 0 
L 2069 1097 
L 81 1097 
L 81 1613 
L 2172 4581 
L 2631 4581 
L 2631 1613 
L 3250 1613 
L 3250 1097 
L 2631 1097 
L 2631 0 
L 2069 0 
z
M 2069 1613 
L 2069 3678 
L 634 1613 
L 2069 1613 
z
" transform="scale(0.015625)"/>
       </defs>
       <use xlink:href="#ArialMT-30"/>
       <use xlink:href="#ArialMT-2e" x="55.615234"/>
       <use xlink:href="#ArialMT-34" x="83.398438"/>
      </g>
     </g>
    </g>
    <g id="ytick_4">
     <g id="line2d_11">
      <g>
       <use xlink:href="#m4a34d26cf6" x="54" y="123.512727" style="fill: #262626; stroke: #262626; stroke-width: 1.25"/>
      </g>
     </g>
     <g id="text_12">
      <!-- 0.6 -->
      <g style="fill: #262626" transform="translate(29.21 127.449524)scale(0.11 -0.11)">
       <defs>
        <path id="ArialMT-36" d="M 3184 3459 
L 2625 3416 
Q 2550 3747 2413 3897 
Q 2184 4138 1850 4138 
Q 1581 4138 1378 3988 
Q 1113 3794 959 3422 
Q 806 3050 800 2363 
Q 1003 2672 1297 2822 
Q 1591 2972 1913 2972 
Q 2475 2972 2870 2558 
Q 3266 2144 3266 1488 
Q 3266 1056 3080 686 
Q 2894 316 2569 119 
Q 2244 -78 1831 -78 
Q 1128 -78 684 439 
Q 241 956 241 2144 
Q 241 3472 731 4075 
Q 1159 4600 1884 4600 
Q 2425 4600 2770 4297 
Q 3116 3994 3184 3459 
z
M 888 1484 
Q 888 1194 1011 928 
Q 1134 663 1356 523 
Q 1578 384 1822 384 
Q 2178 384 2434 671 
Q 2691 959 2691 1453 
Q 2691 1928 2437 2201 
Q 2184 2475 1800 2475 
Q 1419 2475 1153 2201 
Q 888 1928 888 1484 
z
" transform="scale(0.015625)"/>
       </defs>
       <use xlink:href="#ArialMT-30"/>
       <use xlink:href="#ArialMT-2e" x="55.615234"/>
       <use xlink:href="#ArialMT-36" x="83.398438"/>
      </g>
     </g>
    </g>
    <g id="ytick_5">
     <g id="line2d_12">
      <g>
       <use xlink:href="#m4a34d26cf6" x="54" y="83.978182" style="fill: #262626; stroke: #262626; stroke-width: 1.25"/>
      </g>
     </g>
     <g id="text_13">
      <!-- 0.8 -->
      <g style="fill: #262626" transform="translate(29.21 87.914979)scale(0.11 -0.11)">
       <defs>
        <path id="ArialMT-38" d="M 1131 2484 
Q 781 2613 612 2850 
Q 444 3088 444 3419 
Q 444 3919 803 4259 
Q 1163 4600 1759 4600 
Q 2359 4600 2725 4251 
Q 3091 3903 3091 3403 
Q 3091 3084 2923 2848 
Q 2756 2613 2416 2484 
Q 2838 2347 3058 2040 
Q 3278 1734 3278 1309 
Q 3278 722 2862 322 
Q 2447 -78 1769 -78 
Q 1091 -78 675 323 
Q 259 725 259 1325 
Q 259 1772 486 2073 
Q 713 2375 1131 2484 
z
M 1019 3438 
Q 1019 3113 1228 2906 
Q 1438 2700 1772 2700 
Q 2097 2700 2305 2904 
Q 2513 3109 2513 3406 
Q 2513 3716 2298 3927 
Q 2084 4138 1766 4138 
Q 1444 4138 1231 3931 
Q 1019 3725 1019 3438 
z
M 838 1322 
Q 838 1081 952 856 
Q 1066 631 1291 507 
Q 1516 384 1775 384 
Q 2178 384 2440 643 
Q 2703 903 2703 1303 
Q 2703 1709 2433 1975 
Q 2163 2241 1756 2241 
Q 1359 2241 1098 1978 
Q 838 1716 838 1322 
z
" transform="scale(0.015625)"/>
       </defs>
       <use xlink:href="#ArialMT-30"/>
       <use xlink:href="#ArialMT-2e" x="55.615234"/>
       <use xlink:href="#ArialMT-38" x="83.398438"/>
      </g>
     </g>
    </g>
    <g id="ytick_6">
     <g id="line2d_13">
      <g>
       <use xlink:href="#m4a34d26cf6" x="54" y="44.443636" style="fill: #262626; stroke: #262626; stroke-width: 1.25"/>
      </g>
     </g>
     <g id="text_14">
      <!-- 1.0 -->
      <g style="fill: #262626" transform="translate(29.21 48.380433)scale(0.11 -0.11)">
       <use xlink:href="#ArialMT-31"/>
       <use xlink:href="#ArialMT-2e" x="55.615234"/>
       <use xlink:href="#ArialMT-30" x="83.398438"/>
      </g>
     </g>
    </g>
   </g>
   <g id="line2d_14">
    <path d="M 54 242.109686 
L 95.841426 242.019983 
L 97.899201 241.697724 
L 98.585126 241.339085 
L 99.271051 240.815208 
L 99.956976 239.927207 
L 100.642901 239.283172 
L 101.328826 238.125191 
L 102.014751 236.38682 
L 102.700676 237.209937 
L 103.386601 237.673083 
L 104.072526 238.873898 
L 104.758451 237.850631 
L 105.444376 235.744549 
L 106.130301 229.543181 
L 106.816226 214.190291 
L 107.502151 195.300496 
L 108.188076 173.323096 
L 108.874001 140.440041 
L 109.559926 81.292634 
L 110.245851 44.443636 
L 110.931776 79.341577 
L 111.617701 86.104281 
L 112.303626 145.820773 
L 112.989551 192.922986 
L 113.675476 218.674033 
L 114.361401 215.568001 
L 115.047326 181.562941 
L 115.733251 129.77704 
L 116.419176 104.095284 
L 117.105101 111.372177 
L 118.476951 131.624762 
L 119.162876 128.258452 
L 119.848801 181.575104 
L 120.534726 199.375935 
L 121.220652 208.113039 
L 121.906577 205.649456 
L 122.592502 200.329802 
L 123.278427 192.336855 
L 123.964352 194.60092 
L 124.650277 207.981813 
L 125.336202 211.517043 
L 126.022127 226.897067 
L 126.708052 235.63396 
L 127.393977 240.51124 
L 128.079902 242.012923 
L 128.765827 242.01761 
L 129.451752 240.367117 
L 130.137677 240.974839 
L 130.823602 239.369627 
L 132.881377 218.451611 
L 133.567302 206.106284 
L 134.253227 196.264004 
L 134.939152 190.680401 
L 135.625077 192.261931 
L 136.311002 201.184915 
L 136.996927 206.64195 
L 137.682852 207.1964 
L 138.368777 209.119267 
L 139.054702 199.050485 
L 139.740627 195.222757 
L 140.426552 201.317611 
L 141.112477 192.681971 
L 141.798402 195.488947 
L 142.484327 202.281801 
L 143.170252 206.627391 
L 143.856177 202.40029 
L 144.542102 206.476733 
L 145.228027 208.771697 
L 145.913952 205.649739 
L 146.599877 208.669568 
L 147.285802 196.786496 
L 147.971727 200.123057 
L 148.657652 206.220931 
L 149.343577 209.58452 
L 150.029502 215.881651 
L 150.715427 219.977852 
L 151.401352 226.487628 
L 152.087277 224.156392 
L 152.773202 220.048675 
L 153.459127 217.827975 
L 154.145052 217.606558 
L 154.830977 220.760657 
L 155.516902 223.071862 
L 156.202827 223.740569 
L 157.574677 233.209215 
L 158.946527 236.346368 
L 159.632452 238.218203 
L 160.318377 237.486852 
L 161.004302 239.614926 
L 161.690227 238.256061 
L 162.376152 237.98933 
L 163.062077 239.554667 
L 163.748002 240.150066 
L 164.433927 241.619556 
L 165.119852 241.672 
L 165.805778 241.959663 
L 166.491703 241.764307 
L 167.177628 241.765186 
L 167.863553 241.442631 
L 168.549478 241.709382 
L 169.235403 241.777325 
L 169.921328 240.991833 
L 171.293178 241.748452 
L 171.979103 241.633478 
L 172.665028 241.794035 
L 173.350953 241.83485 
L 174.036878 241.217237 
L 174.722803 241.156763 
L 175.408728 240.876902 
L 176.094653 240.739217 
L 176.780578 241.370114 
L 177.466503 240.905169 
L 178.152428 240.982247 
L 178.838353 241.372886 
L 179.524278 241.513357 
L 180.210203 240.209416 
L 180.896128 241.381488 
L 181.582053 241.472579 
L 182.267978 240.458629 
L 182.953903 240.008591 
L 183.639828 239.944205 
L 184.325753 241.406644 
L 185.011678 241.81762 
L 187.069453 242.072598 
L 187.755378 241.872064 
L 188.441303 242.085842 
L 189.127228 242.059148 
L 189.813153 241.845652 
L 191.185003 241.862926 
L 191.870928 241.543773 
L 192.556853 241.497969 
L 193.242778 241.836419 
L 193.928703 242.034939 
L 196.672403 242.057427 
L 197.358328 241.535876 
L 198.044253 241.892712 
L 198.730178 241.686031 
L 200.787953 242.106708 
L 201.473878 242.11598 
L 202.159803 241.954555 
L 202.845728 241.983032 
L 203.531653 241.744309 
L 204.903503 241.688781 
L 205.589428 241.915582 
L 206.961278 241.851613 
L 207.647203 242.049175 
L 209.019053 242.107212 
L 211.076829 242.085622 
L 211.762754 241.971717 
L 213.134604 242.013888 
L 213.820529 241.894949 
L 214.506454 242.059591 
L 215.878304 241.998706 
L 217.250154 242.028051 
L 217.936079 241.77929 
L 218.622004 241.850885 
L 219.307929 242.047008 
L 220.679779 242.111007 
L 222.737554 241.963823 
L 223.423479 241.78448 
L 224.109404 241.922818 
L 224.795329 241.838057 
L 226.167179 242.100804 
L 230.282729 242.031678 
L 233.026429 241.986429 
L 233.712354 241.963142 
L 235.084204 242.113415 
L 239.199754 242.095166 
L 242.629379 242.002796 
L 243.315304 241.609399 
L 244.687154 242.095604 
L 245.373079 241.924978 
L 246.059004 241.903451 
L 246.744929 242.074235 
L 247.430854 242.030352 
L 248.116779 242.112227 
L 250.860479 241.871643 
L 251.546404 242.068194 
L 255.661955 242.004523 
L 258.405655 241.865309 
L 259.09158 241.973917 
L 260.46343 241.909981 
L 264.57898 242.0925 
L 265.95083 242.084297 
L 266.636755 241.950522 
L 267.32268 242.060207 
L 269.380455 241.871269 
L 272.81008 242.049072 
L 281.727105 242.096229 
L 282.41303 242.031473 
L 283.78488 242.111941 
L 285.15673 242.079126 
L 289.27228 242.064612 
L 291.330055 242.116098 
L 305.048556 242.091071 
L 307.106331 242.108974 
L 307.792256 242.036003 
L 308.478181 242.11245 
L 310.535956 241.962256 
L 311.221881 242.073508 
L 311.907806 242.008198 
L 313.279656 242.081189 
L 322.882606 242.074359 
L 324.940381 242.112698 
L 344.832207 242.108091 
L 364.724032 242.115397 
L 389.417333 242.115741 
L 389.417333 242.115741 
" clip-path="url(#p9d4e09e32a)" style="fill: none; stroke: #4c72b0; stroke-opacity: 0.3; stroke-width: 1.5; stroke-linecap: round"/>
   </g>
   <g id="line2d_15">
    <path d="M 54 242.116349 
L 95.155501 242.01392 
L 98.585126 241.749447 
L 99.956976 241.602364 
L 100.642901 241.402757 
L 101.328826 240.857456 
L 102.014751 238.470316 
L 102.700676 235.063438 
L 103.386601 234.083459 
L 104.072526 228.612067 
L 104.758451 227.295171 
L 105.444376 221.629953 
L 106.130301 217.433423 
L 106.816226 214.438849 
L 107.502151 227.971993 
L 108.188076 220.395601 
L 108.874001 233.138168 
L 109.559926 210.034805 
L 110.245851 207.910908 
L 110.931776 204.396439 
L 112.303626 175.594042 
L 112.989551 165.673889 
L 113.675476 137.510583 
L 114.361401 141.047608 
L 115.047326 113.306977 
L 115.733251 107.797476 
L 116.419176 138.271982 
L 117.105101 123.713479 
L 117.791026 172.748685 
L 118.476951 152.91578 
L 119.162876 129.572045 
L 119.848801 117.855194 
L 120.534726 130.437174 
L 121.220652 111.337434 
L 121.906577 84.364965 
L 122.592502 87.953804 
L 123.278427 44.443636 
L 123.964352 68.144104 
L 124.650277 75.917695 
L 126.022127 114.023666 
L 126.708052 97.488607 
L 127.393977 126.129913 
L 128.079902 125.626201 
L 128.765827 136.694228 
L 129.451752 167.500576 
L 130.137677 169.883298 
L 130.823602 150.244796 
L 131.509527 176.203031 
L 132.195452 178.042388 
L 132.881377 183.719054 
L 133.567302 153.438749 
L 134.253227 155.128459 
L 134.939152 158.314816 
L 135.625077 138.943016 
L 136.311002 126.600709 
L 136.996927 118.774899 
L 137.682852 136.086983 
L 138.368777 133.847747 
L 139.054702 136.70204 
L 139.740627 138.578453 
L 140.426552 124.783487 
L 141.112477 138.546174 
L 141.798402 140.184482 
L 142.484327 134.588039 
L 143.170252 125.854567 
L 143.856177 132.574602 
L 144.542102 141.220976 
L 145.913952 171.900588 
L 146.599877 157.869698 
L 147.285802 179.213879 
L 147.971727 179.087599 
L 148.657652 180.492675 
L 149.343577 187.520608 
L 150.029502 188.881049 
L 150.715427 184.375235 
L 152.087277 199.124808 
L 152.773202 204.588513 
L 153.459127 208.041793 
L 154.145052 198.80786 
L 154.830977 208.196831 
L 155.516902 198.725922 
L 156.202827 204.088445 
L 156.888752 204.629234 
L 157.574677 196.486583 
L 158.260602 191.60213 
L 158.946527 195.489669 
L 159.632452 200.274843 
L 160.318377 206.787066 
L 161.004302 202.692799 
L 161.690227 200.223053 
L 163.062077 218.585243 
L 163.748002 224.194521 
L 164.433927 216.837492 
L 165.119852 225.565196 
L 165.805778 225.898329 
L 166.491703 229.149255 
L 167.863553 224.264149 
L 168.549478 225.378929 
L 169.235403 218.578791 
L 169.921328 223.561545 
L 170.607253 215.536719 
L 171.293178 217.957023 
L 171.979103 219.862581 
L 172.665028 229.547695 
L 174.036878 231.681428 
L 174.722803 233.462721 
L 175.408728 233.201316 
L 176.094653 233.198216 
L 176.780578 232.351623 
L 177.466503 232.75045 
L 178.152428 234.731588 
L 178.838353 231.087731 
L 180.210203 236.858782 
L 180.896128 233.409967 
L 181.582053 232.895918 
L 182.267978 236.402858 
L 182.953903 237.337912 
L 183.639828 239.991968 
L 184.325753 238.984785 
L 185.011678 237.593222 
L 185.697603 239.533205 
L 186.383528 238.56994 
L 187.069453 239.138573 
L 187.755378 238.853627 
L 189.813153 234.435138 
L 190.499078 236.255105 
L 191.185003 237.019824 
L 191.870928 236.934484 
L 192.556853 238.656286 
L 193.928703 241.094297 
L 194.614628 240.373858 
L 195.300553 239.086144 
L 195.986478 240.699483 
L 196.672403 239.48333 
L 197.358328 241.325997 
L 198.044253 240.083747 
L 198.730178 240.397174 
L 199.416103 239.654034 
L 200.102028 239.571075 
L 201.473878 237.47996 
L 202.159803 237.17326 
L 202.845728 238.977522 
L 203.531653 239.243419 
L 204.217578 240.211528 
L 204.903503 239.599865 
L 205.589428 239.792832 
L 206.275353 240.849626 
L 206.961278 241.416319 
L 207.647203 240.882707 
L 208.333128 240.705195 
L 209.019053 240.702199 
L 210.390904 239.25466 
L 211.076829 239.250287 
L 211.762754 241.294535 
L 212.448679 240.117707 
L 213.134604 239.684751 
L 213.820529 240.705212 
L 214.506454 239.664871 
L 215.192379 239.746518 
L 216.564229 237.863816 
L 217.250154 239.206737 
L 217.936079 240.090155 
L 218.622004 241.568127 
L 219.307929 239.159628 
L 219.993854 240.994722 
L 220.679779 241.027841 
L 221.365704 241.754676 
L 222.051629 241.588754 
L 222.737554 240.741994 
L 223.423479 240.956731 
L 224.109404 240.847624 
L 224.795329 241.433897 
L 225.481254 241.041399 
L 226.167179 241.652128 
L 226.853104 240.53434 
L 227.539029 240.89582 
L 228.224954 240.400734 
L 228.910879 240.492601 
L 229.596804 240.206639 
L 230.282729 240.361082 
L 230.968654 240.305958 
L 231.654579 240.886049 
L 232.340504 241.997627 
L 233.026429 241.84109 
L 233.712354 241.05583 
L 234.398279 241.263722 
L 235.084204 241.094701 
L 235.770129 241.143645 
L 236.456054 241.588118 
L 237.141979 240.5249 
L 237.827904 241.294963 
L 238.513829 240.942214 
L 239.199754 241.539288 
L 239.885679 240.79609 
L 240.571604 241.146864 
L 241.257529 240.992327 
L 242.629379 241.233832 
L 243.315304 241.15383 
L 244.001229 240.948412 
L 244.687154 241.385035 
L 245.373079 240.969936 
L 246.059004 241.600476 
L 246.744929 240.943682 
L 247.430854 241.935288 
L 248.116779 241.633646 
L 249.488629 241.420176 
L 250.174554 242.08679 
L 250.860479 241.755893 
L 252.232329 241.901136 
L 252.918254 242.057806 
L 253.604179 241.947238 
L 254.290104 241.399754 
L 254.97603 239.590584 
L 255.661955 240.608551 
L 256.34788 239.520604 
L 257.033805 240.643241 
L 257.71973 240.637311 
L 258.405655 240.832934 
L 259.09158 241.511263 
L 259.777505 241.346126 
L 260.46343 241.840582 
L 261.149355 241.709327 
L 261.83528 241.842723 
L 262.521205 241.648034 
L 263.20713 241.601456 
L 263.893055 241.385769 
L 264.57898 241.707775 
L 265.264905 241.511263 
L 265.95083 241.498821 
L 266.636755 241.019489 
L 267.32268 241.350002 
L 268.008605 240.897667 
L 268.69453 241.038273 
L 269.380455 241.440954 
L 270.06638 241.060815 
L 270.752305 241.532531 
L 271.43823 241.061918 
L 272.124155 241.722456 
L 272.81008 241.593077 
L 273.496005 242.007713 
L 274.18193 241.985696 
L 274.867855 240.712124 
L 275.55378 240.443447 
L 276.239705 240.460846 
L 276.92563 241.428772 
L 277.611555 241.485907 
L 278.29748 241.658677 
L 278.983405 241.712727 
L 279.66933 241.910689 
L 281.04118 241.984783 
L 282.41303 241.558162 
L 283.098955 241.320229 
L 283.78488 241.291932 
L 284.470805 241.534624 
L 285.15673 241.511119 
L 285.842655 241.725634 
L 286.52858 241.630948 
L 288.586355 242.057673 
L 289.27228 241.998915 
L 289.958205 241.247257 
L 290.64413 241.239538 
L 291.330055 241.030629 
L 292.701905 241.811326 
L 293.38783 241.71395 
L 295.445605 242.037385 
L 296.13153 242.09849 
L 297.50338 242.040675 
L 298.189305 242.10152 
L 298.87523 241.829787 
L 300.247081 241.042758 
L 300.933006 240.812408 
L 301.618931 241.252582 
L 303.676706 241.400698 
L 305.048556 242.080804 
L 305.734481 242.015211 
L 306.420406 242.114867 
L 308.478181 241.93932 
L 309.164106 241.345215 
L 309.850031 241.426311 
L 310.535956 240.81454 
L 311.221881 241.399749 
L 311.907806 241.319044 
L 312.593731 241.51772 
L 313.965581 241.510913 
L 314.651506 241.748414 
L 315.337431 241.86289 
L 316.023356 241.723206 
L 316.709281 241.269995 
L 317.395206 241.763365 
L 318.081131 241.993106 
L 323.568531 241.990266 
L 324.254456 241.76638 
L 326.312231 242.016244 
L 327.684081 241.910564 
L 329.055931 242.072457 
L 331.799631 242.094832 
L 340.716656 242.098929 
L 343.460356 242.052167 
L 346.204057 242.115264 
L 353.749232 242.108916 
L 389.417333 242.115276 
L 389.417333 242.115276 
" clip-path="url(#p9d4e09e32a)" style="fill: none; stroke: #dd8452; stroke-opacity: 0.3; stroke-width: 1.5; stroke-linecap: round"/>
   </g>
   <g id="line2d_16">
    <path d="M 54 242.102115 
L 95.841426 242.030379 
L 96.527351 241.985031 
L 98.585126 242.106799 
L 99.271051 242.026192 
L 101.328826 240.802088 
L 102.014751 240.89993 
L 102.700676 241.717662 
L 104.072526 237.342115 
L 104.758451 229.860984 
L 105.444376 230.640757 
L 106.130301 230.005335 
L 106.816226 226.300695 
L 107.502151 221.129836 
L 108.188076 237.186673 
L 108.874001 214.006568 
L 109.559926 198.616255 
L 110.245851 192.808799 
L 110.931776 139.62195 
L 111.617701 119.683541 
L 112.303626 71.56988 
L 112.989551 101.551768 
L 113.675476 84.649129 
L 114.361401 102.490312 
L 115.047326 44.443636 
L 115.733251 71.184957 
L 116.419176 164.469306 
L 117.105101 120.965705 
L 117.791026 162.041752 
L 118.476951 142.922629 
L 119.162876 120.081485 
L 119.848801 190.05763 
L 120.534726 215.810543 
L 121.220652 229.418997 
L 121.906577 235.020364 
L 122.592502 191.196853 
L 123.278427 128.045727 
L 123.964352 149.081486 
L 124.650277 101.697478 
L 125.336202 157.889815 
L 126.022127 203.805976 
L 126.708052 185.060079 
L 127.393977 224.753477 
L 128.079902 204.475299 
L 128.765827 198.628964 
L 129.451752 224.425671 
L 130.137677 211.026163 
L 130.823602 147.345065 
L 131.509527 188.997083 
L 132.195452 195.663169 
L 132.881377 209.810789 
L 133.567302 151.047772 
L 134.253227 161.356102 
L 134.939152 165.273423 
L 135.625077 152.577531 
L 136.311002 162.275013 
L 136.996927 168.714276 
L 137.682852 207.448169 
L 138.368777 217.255907 
L 139.740627 226.507226 
L 140.426552 225.954978 
L 141.112477 234.706817 
L 141.798402 232.614799 
L 142.484327 221.400639 
L 143.170252 190.947769 
L 143.856177 191.176099 
L 144.542102 177.493316 
L 145.228027 196.244475 
L 145.913952 199.769509 
L 146.599877 167.001127 
L 147.285802 205.032352 
L 147.971727 211.695977 
L 148.657652 189.581811 
L 149.343577 213.078613 
L 150.029502 175.053886 
L 150.715427 175.676606 
L 151.401352 202.176283 
L 152.087277 217.549175 
L 152.773202 226.466854 
L 153.459127 241.31364 
L 154.145052 221.61007 
L 154.830977 234.902396 
L 155.516902 218.66852 
L 156.202827 225.660689 
L 156.888752 220.316432 
L 157.574677 195.993387 
L 158.260602 184.211413 
L 158.946527 196.553458 
L 159.632452 205.622625 
L 160.318377 228.419339 
L 161.004302 222.419829 
L 161.690227 218.63865 
L 162.376152 232.561054 
L 163.062077 236.96901 
L 163.748002 239.53957 
L 164.433927 224.666849 
L 165.119852 239.698319 
L 165.805778 237.245143 
L 166.491703 237.344074 
L 167.863553 211.606081 
L 168.549478 231.295672 
L 169.235403 185.800534 
L 169.921328 205.38721 
L 170.607253 155.845652 
L 171.293178 175.309753 
L 171.979103 185.705234 
L 172.665028 230.753793 
L 173.350953 229.002944 
L 174.036878 238.406704 
L 174.722803 236.248383 
L 175.408728 231.843096 
L 176.094653 233.345732 
L 176.780578 228.195567 
L 177.466503 226.672078 
L 178.152428 231.095644 
L 178.838353 212.912857 
L 179.524278 234.24984 
L 180.210203 237.708423 
L 180.896128 230.846315 
L 181.582053 229.804021 
L 182.267978 240.462234 
L 182.953903 240.774788 
L 183.639828 239.930058 
L 184.325753 239.87625 
L 185.011678 234.643557 
L 185.697603 239.681639 
L 186.383528 234.142126 
L 187.069453 226.259118 
L 187.755378 229.875944 
L 188.441303 218.555353 
L 189.127228 213.065383 
L 189.813153 223.349824 
L 190.499078 228.604237 
L 191.185003 235.383039 
L 191.870928 234.810678 
L 192.556853 236.576449 
L 193.928703 242.101745 
L 194.614628 238.653781 
L 195.300553 231.091685 
L 195.986478 240.142122 
L 196.672403 233.955252 
L 197.358328 241.618426 
L 198.044253 237.792785 
L 198.730178 238.521394 
L 199.416103 234.651795 
L 200.102028 232.868641 
L 200.787953 227.104429 
L 201.473878 220.172993 
L 202.159803 210.836249 
L 202.845728 232.51061 
L 203.531653 236.480877 
L 204.217578 235.972676 
L 204.903503 237.012401 
L 205.589428 236.214857 
L 206.961278 239.078979 
L 207.647203 230.891564 
L 208.333128 228.749758 
L 209.019053 225.751437 
L 209.704978 220.896184 
L 210.390904 217.049798 
L 211.076829 218.016282 
L 211.762754 240.000115 
L 212.448679 238.715639 
L 213.134604 233.680144 
L 213.820529 234.331059 
L 214.506454 228.063861 
L 215.192379 233.774455 
L 215.878304 229.18024 
L 216.564229 219.330284 
L 217.250154 224.059463 
L 218.622004 240.7309 
L 219.307929 229.746794 
L 219.993854 237.548696 
L 220.679779 238.110132 
L 221.365704 241.766145 
L 222.051629 240.655412 
L 222.737554 239.816338 
L 223.423479 241.61239 
L 224.795329 241.803938 
L 225.481254 241.216526 
L 226.167179 238.059817 
L 226.853104 230.509141 
L 227.539029 234.773171 
L 228.224954 221.585815 
L 228.910879 226.890145 
L 229.596804 223.947101 
L 230.282729 222.939233 
L 230.968654 221.251591 
L 231.654579 236.770423 
L 232.340504 240.583957 
L 233.026429 241.488482 
L 233.712354 235.634064 
L 234.398279 239.905495 
L 235.084204 239.348743 
L 235.770129 239.478 
L 237.141979 241.793094 
L 237.827904 235.165646 
L 238.513829 230.919926 
L 239.199754 232.473141 
L 239.885679 237.845291 
L 240.571604 241.918466 
L 241.257529 232.224687 
L 241.943454 240.309737 
L 242.629379 240.943243 
L 243.315304 234.536374 
L 244.001229 241.467154 
L 244.687154 241.497845 
L 245.373079 240.341068 
L 246.059004 237.456025 
L 246.744929 236.327246 
L 247.430854 241.949677 
L 248.116779 242.028729 
L 248.802704 239.805915 
L 249.488629 236.509618 
L 250.174554 231.780256 
L 250.860479 237.751317 
L 251.546404 237.943506 
L 252.232329 239.206316 
L 252.918254 239.999029 
L 253.604179 241.379527 
L 254.290104 239.160682 
L 254.97603 235.527872 
L 255.661955 239.210529 
L 256.34788 236.45333 
L 257.033805 236.411284 
L 257.71973 239.685273 
L 258.405655 238.810644 
L 259.09158 241.72134 
L 259.777505 240.656953 
L 260.46343 240.488487 
L 261.149355 238.951005 
L 261.83528 239.315895 
L 262.521205 235.204412 
L 263.893055 240.396457 
L 264.57898 241.453442 
L 265.264905 239.660499 
L 265.95083 240.280409 
L 266.636755 235.579186 
L 267.32268 238.081989 
L 268.008605 235.335075 
L 268.69453 235.97235 
L 269.380455 240.057762 
L 270.06638 239.165122 
L 270.752305 240.691987 
L 271.43823 240.651765 
L 272.124155 241.608965 
L 272.81008 241.360134 
L 273.496005 241.813183 
L 274.18193 241.796168 
L 275.55378 227.322757 
L 276.92563 240.524797 
L 277.611555 239.811655 
L 278.29748 241.647317 
L 278.983405 240.61117 
L 279.66933 240.610296 
L 280.355255 240.869179 
L 281.04118 241.749624 
L 281.727105 241.664579 
L 282.41303 241.859127 
L 283.098955 241.443216 
L 283.78488 241.264362 
L 284.470805 238.859269 
L 285.15673 235.755049 
L 285.842655 237.486808 
L 286.52858 238.711306 
L 287.214505 237.939162 
L 287.90043 236.104763 
L 288.586355 238.025262 
L 289.27228 239.293695 
L 289.958205 241.102209 
L 290.64413 241.487676 
L 291.330055 239.707074 
L 292.01598 241.026977 
L 292.701905 240.300368 
L 293.38783 241.632184 
L 294.073755 242.020416 
L 294.75968 240.464881 
L 295.445605 239.721764 
L 296.13153 239.68125 
L 296.817455 238.71001 
L 297.50338 239.956624 
L 298.189305 239.218157 
L 298.87523 237.356374 
L 299.561156 236.63747 
L 300.247081 232.226081 
L 300.933006 231.972525 
L 301.618931 237.59152 
L 302.304856 239.811473 
L 302.990781 241.330904 
L 303.676706 241.727955 
L 304.362631 241.690974 
L 305.048556 239.174285 
L 305.734481 241.131741 
L 306.420406 238.889797 
L 307.106331 240.587207 
L 307.792256 241.875255 
L 308.478181 241.081428 
L 309.164106 238.511377 
L 309.850031 239.651604 
L 310.535956 235.085164 
L 311.221881 237.74485 
L 311.907806 237.134352 
L 312.593731 239.515028 
L 313.279656 238.57162 
L 313.965581 238.530529 
L 314.651506 240.871792 
L 315.337431 241.091393 
L 316.023356 241.17234 
L 316.709281 239.645317 
L 317.395206 241.027562 
L 318.081131 241.691364 
L 318.767056 240.765759 
L 320.138906 239.97222 
L 320.824831 238.605127 
L 321.510756 238.555456 
L 322.196681 237.493352 
L 323.568531 242.035129 
L 324.254456 240.921093 
L 324.940381 241.507822 
L 325.626306 241.861351 
L 326.998156 241.214019 
L 327.684081 241.157821 
L 328.370006 241.806052 
L 329.055931 241.519243 
L 330.427781 241.430928 
L 331.113706 241.186931 
L 331.799631 241.76818 
L 332.485556 242.069057 
L 333.171481 242.10144 
L 333.857406 241.862961 
L 334.543331 242.104361 
L 336.601106 242.014995 
L 337.287031 242.114245 
L 337.972956 241.740636 
L 338.658881 241.549454 
L 339.344806 241.887642 
L 340.716656 242.060416 
L 341.402581 241.85714 
L 342.088506 242.035739 
L 342.774431 241.692327 
L 343.460356 241.804176 
L 344.146281 242.0922 
L 346.889982 242.051327 
L 350.319607 242.001709 
L 351.691457 242.002976 
L 353.749232 242.035018 
L 356.492932 242.064403 
L 359.236632 242.077946 
L 361.980332 242.107596 
L 368.153657 242.092705 
L 378.442532 242.106459 
L 389.417333 242.114876 
L 389.417333 242.114876 
" clip-path="url(#p9d4e09e32a)" style="fill: none; stroke: #55a868; stroke-opacity: 0.3; stroke-width: 1.5; stroke-linecap: round"/>
   </g>
   <g id="line2d_17">
    <path d="M 54 242.115355 
L 95.841426 242.007824 
L 97.899201 241.781546 
L 98.585126 241.417966 
L 99.271051 240.893475 
L 101.328826 237.622832 
L 102.014751 236.357808 
L 103.386601 238.250539 
L 104.072526 239.729782 
L 104.758451 238.857089 
L 105.444376 235.708395 
L 106.130301 228.87299 
L 106.816226 213.268023 
L 107.502151 191.956279 
L 108.188076 164.59473 
L 108.874001 132.206824 
L 109.559926 75.22511 
L 110.245851 44.443636 
L 110.931776 71.504451 
L 111.617701 89.032438 
L 112.303626 151.321042 
L 112.989551 197.616967 
L 113.675476 229.429167 
L 114.361401 227.532471 
L 115.047326 200.025684 
L 115.733251 148.153285 
L 116.419176 124.674161 
L 117.105101 127.47271 
L 117.791026 135.422282 
L 118.476951 132.549045 
L 119.162876 142.053457 
L 119.848801 177.401774 
L 120.534726 190.53118 
L 121.220652 207.979353 
L 121.906577 214.884284 
L 122.592502 219.130971 
L 123.278427 218.392204 
L 123.964352 221.588871 
L 124.650277 232.882424 
L 125.336202 234.873262 
L 126.022127 238.391357 
L 126.708052 240.314499 
L 127.393977 240.899512 
L 128.079902 238.317687 
L 128.765827 239.14535 
L 129.451752 239.645278 
L 130.137677 239.957586 
L 130.823602 238.627656 
L 131.509527 232.396048 
L 132.195452 225.061248 
L 132.881377 205.136044 
L 134.253227 183.17197 
L 134.939152 175.698373 
L 135.625077 166.043697 
L 136.311002 169.27162 
L 136.996927 180.547447 
L 137.682852 186.859476 
L 138.368777 189.035669 
L 139.054702 181.905969 
L 139.740627 177.388611 
L 140.426552 176.755789 
L 141.112477 165.278536 
L 141.798402 180.258176 
L 142.484327 185.616539 
L 143.170252 187.517441 
L 143.856177 184.742231 
L 144.542102 186.938999 
L 145.913952 196.345957 
L 146.599877 196.562678 
L 147.285802 186.353115 
L 147.971727 188.725483 
L 149.343577 197.240369 
L 150.029502 206.694958 
L 150.715427 206.717204 
L 151.401352 207.972243 
L 152.087277 208.045169 
L 152.773202 199.525901 
L 153.459127 202.57923 
L 154.145052 199.407005 
L 154.830977 206.360941 
L 155.516902 208.552809 
L 156.202827 210.370003 
L 156.888752 222.124426 
L 157.574677 227.571228 
L 158.260602 228.836544 
L 158.946527 231.009823 
L 159.632452 233.862868 
L 160.318377 230.830924 
L 161.004302 230.941575 
L 161.690227 228.966363 
L 162.376152 228.421751 
L 163.062077 227.675501 
L 163.748002 230.585308 
L 164.433927 232.427081 
L 165.119852 233.737497 
L 165.805778 234.333227 
L 166.491703 234.643961 
L 167.177628 233.901896 
L 167.863553 235.234153 
L 168.549478 237.887448 
L 169.235403 238.714615 
L 169.921328 239.97265 
L 171.979103 241.627766 
L 172.665028 241.121689 
L 173.350953 240.94733 
L 174.722803 239.077335 
L 175.408728 239.369133 
L 176.094653 240.026427 
L 176.780578 240.376987 
L 177.466503 240.971947 
L 178.152428 241.247715 
L 178.838353 240.607534 
L 179.524278 240.805201 
L 180.210203 240.208081 
L 180.896128 240.76258 
L 181.582053 240.562029 
L 182.267978 240.582704 
L 182.953903 241.278062 
L 185.011678 241.837646 
L 185.697603 241.534241 
L 186.383528 240.817169 
L 187.069453 240.539409 
L 187.755378 240.537542 
L 188.441303 239.721892 
L 189.813153 241.152013 
L 190.499078 241.820122 
L 191.185003 241.956807 
L 191.870928 241.82213 
L 192.556853 241.98577 
L 194.614628 242.058971 
L 195.300553 241.826156 
L 195.986478 241.742837 
L 196.672403 242.015888 
L 198.044253 241.875438 
L 198.730178 242.053048 
L 199.416103 242.089347 
L 200.102028 241.822938 
L 200.787953 241.963057 
L 201.473878 241.460013 
L 202.159803 241.360637 
L 202.845728 241.015056 
L 203.531653 241.112257 
L 204.217578 241.025304 
L 204.903503 241.23057 
L 205.589428 241.199854 
L 206.275353 241.462989 
L 207.647203 241.074653 
L 209.019053 241.059793 
L 210.390904 240.542945 
L 211.076829 240.817866 
L 211.762754 240.891274 
L 212.448679 241.109326 
L 213.134604 241.77779 
L 214.506454 241.935562 
L 215.192379 241.545608 
L 215.878304 241.53881 
L 216.564229 240.989369 
L 217.250154 240.775566 
L 217.936079 240.707086 
L 218.622004 239.774119 
L 219.307929 240.349928 
L 220.679779 240.311144 
L 221.365704 240.101123 
L 222.051629 240.23642 
L 222.737554 240.566229 
L 223.423479 240.328501 
L 224.109404 240.576397 
L 224.795329 241.048141 
L 225.481254 240.974897 
L 226.167179 241.489525 
L 226.853104 241.203517 
L 227.539029 241.513775 
L 228.224954 241.478242 
L 228.910879 241.302318 
L 229.596804 241.659483 
L 230.282729 241.172272 
L 230.968654 241.553553 
L 231.654579 241.707401 
L 233.712354 241.632817 
L 234.398279 241.662201 
L 235.770129 241.423985 
L 236.456054 241.293715 
L 237.827904 241.538496 
L 238.513829 241.876701 
L 239.199754 241.799106 
L 239.885679 242.013415 
L 241.257529 242.033485 
L 241.943454 242.075531 
L 243.315304 241.899227 
L 245.373079 242.049108 
L 246.059004 241.83198 
L 248.116779 241.757696 
L 248.802704 241.550524 
L 249.488629 241.15208 
L 250.174554 241.087429 
L 251.546404 241.285452 
L 252.232329 241.679942 
L 253.604179 241.629606 
L 254.290104 241.868011 
L 257.033805 242.035433 
L 257.71973 242.083748 
L 258.405655 241.922616 
L 259.09158 241.897818 
L 261.149355 241.381425 
L 261.83528 241.434066 
L 262.521205 241.671261 
L 265.95083 241.758468 
L 266.636755 241.775352 
L 267.32268 241.667783 
L 272.124155 241.840175 
L 272.81008 241.648541 
L 274.18193 241.593326 
L 274.867855 241.418724 
L 275.55378 240.960817 
L 276.239705 241.278516 
L 280.355255 242.019781 
L 281.04118 241.784926 
L 281.727105 241.921384 
L 282.41303 241.618642 
L 284.470805 241.82577 
L 288.586355 242.079789 
L 289.27228 242.001793 
L 289.958205 242.116031 
L 294.073755 242.030657 
L 295.445605 242.08025 
L 296.817455 242.095056 
L 302.304856 242.061774 
L 303.676706 242.031567 
L 307.106331 242.010422 
L 309.164106 242.064135 
L 313.965581 242.098024 
L 315.337431 242.099022 
L 372.269207 242.113092 
L 389.417333 242.115839 
L 389.417333 242.115839 
" clip-path="url(#p9d4e09e32a)" style="fill: none; stroke: #c44e52; stroke-opacity: 0.3; stroke-width: 1.5; stroke-linecap: round"/>
   </g>
   <g id="line2d_18">
    <path d="M 54 242.114955 
L 97.213276 242.008365 
L 99.956976 241.827046 
L 100.642901 241.345763 
L 101.328826 241.440434 
L 102.014751 239.924256 
L 102.700676 237.220772 
L 103.386601 236.608799 
L 104.072526 230.229793 
L 104.758451 225.96942 
L 105.444376 216.55722 
L 106.130301 215.481638 
L 106.816226 212.009165 
L 107.502151 222.593494 
L 108.188076 216.051127 
L 108.874001 231.434548 
L 109.559926 227.796299 
L 110.245851 221.372015 
L 110.931776 224.868575 
L 111.617701 216.85942 
L 112.303626 211.223634 
L 112.989551 198.440585 
L 113.675476 195.661926 
L 114.361401 209.580939 
L 115.047326 199.017456 
L 115.733251 183.140888 
L 116.419176 178.170587 
L 117.105101 157.507244 
L 117.791026 177.422691 
L 118.476951 130.794634 
L 119.162876 114.202263 
L 119.848801 79.69634 
L 120.534726 65.192791 
L 121.220652 69.088406 
L 121.906577 44.443636 
L 122.592502 96.000934 
L 123.278427 107.179427 
L 124.650277 179.400836 
L 125.336202 203.107549 
L 126.022127 212.107462 
L 126.708052 215.424825 
L 127.393977 209.146368 
L 128.079902 207.138221 
L 128.765827 204.489494 
L 129.451752 202.358609 
L 130.137677 204.296941 
L 130.823602 198.124069 
L 131.509527 206.53173 
L 132.195452 200.702357 
L 132.881377 208.135991 
L 133.567302 201.504794 
L 134.253227 201.360975 
L 134.939152 186.940419 
L 135.625077 181.822831 
L 136.311002 172.056359 
L 136.996927 169.051428 
L 137.682852 182.669378 
L 138.368777 175.78932 
L 139.054702 186.025195 
L 139.740627 203.184447 
L 140.426552 203.285552 
L 141.112477 223.906316 
L 141.798402 219.98621 
L 142.484327 220.111454 
L 143.170252 216.595441 
L 143.856177 226.36851 
L 144.542102 224.083949 
L 145.228027 223.537439 
L 145.913952 217.654562 
L 146.599877 213.929402 
L 147.285802 218.338618 
L 147.971727 212.660117 
L 148.657652 209.03342 
L 149.343577 214.861609 
L 150.029502 218.295335 
L 150.715427 219.207984 
L 151.401352 223.463453 
L 152.773202 229.730829 
L 153.459127 228.518824 
L 154.145052 231.406666 
L 154.830977 235.386172 
L 155.516902 230.657845 
L 156.202827 231.346085 
L 156.888752 226.099275 
L 157.574677 221.896683 
L 158.260602 221.084767 
L 159.632452 207.666271 
L 160.318377 209.719919 
L 161.004302 198.618136 
L 162.376152 201.404031 
L 163.062077 199.843878 
L 163.748002 202.896896 
L 164.433927 207.374962 
L 165.119852 205.837042 
L 165.805778 218.000104 
L 166.491703 223.347913 
L 167.177628 225.987945 
L 167.863553 229.529964 
L 168.549478 230.774471 
L 169.235403 233.433828 
L 169.921328 234.246154 
L 170.607253 229.590143 
L 171.293178 227.385495 
L 171.979103 230.895592 
L 172.665028 227.399018 
L 173.350953 221.130676 
L 174.036878 221.054159 
L 174.722803 218.48872 
L 175.408728 219.741292 
L 176.094653 216.425127 
L 176.780578 215.2168 
L 177.466503 215.617456 
L 178.152428 220.673563 
L 178.838353 214.914177 
L 179.524278 222.705664 
L 180.210203 222.174057 
L 180.896128 231.340231 
L 181.582053 232.408443 
L 182.267978 231.468794 
L 182.953903 231.601974 
L 183.639828 229.729681 
L 184.325753 233.686293 
L 185.011678 227.493004 
L 185.697603 227.023116 
L 187.069453 229.882199 
L 187.755378 229.479094 
L 188.441303 224.617427 
L 189.127228 236.701804 
L 189.813153 234.135273 
L 190.499078 234.947041 
L 191.185003 238.0456 
L 191.870928 239.840547 
L 192.556853 240.959796 
L 193.242778 241.053543 
L 193.928703 240.530208 
L 195.300553 240.711031 
L 195.986478 240.018293 
L 196.672403 237.874967 
L 197.358328 238.252453 
L 198.044253 237.57999 
L 199.416103 237.796094 
L 200.102028 236.305919 
L 200.787953 239.393491 
L 201.473878 236.829081 
L 202.159803 237.804001 
L 203.531653 236.855542 
L 204.217578 239.714867 
L 204.903503 239.546663 
L 205.589428 241.747363 
L 206.275353 241.797809 
L 206.961278 240.954142 
L 207.647203 241.732465 
L 208.333128 241.352507 
L 209.019053 241.389972 
L 209.704978 241.110198 
L 210.390904 240.337464 
L 211.076829 241.206337 
L 211.762754 240.898724 
L 212.448679 241.174878 
L 213.134604 241.707514 
L 213.820529 241.366591 
L 214.506454 239.732749 
L 215.192379 239.272328 
L 215.878304 237.45685 
L 216.564229 235.966121 
L 217.250154 236.760002 
L 217.936079 238.292767 
L 218.622004 237.972209 
L 219.307929 238.834969 
L 219.993854 240.213035 
L 220.679779 240.21798 
L 222.051629 240.927031 
L 222.737554 241.566735 
L 223.423479 241.878897 
L 224.109404 241.832614 
L 224.795329 242.020193 
L 225.481254 241.923964 
L 226.853104 242.018792 
L 227.539029 241.745482 
L 228.224954 241.209509 
L 228.910879 240.889469 
L 229.596804 240.774132 
L 230.968654 239.12118 
L 232.340504 239.497837 
L 233.026429 239.604984 
L 233.712354 241.238705 
L 234.398279 240.560751 
L 235.084204 241.584809 
L 236.456054 242.066406 
L 237.141979 242.049424 
L 237.827904 241.818388 
L 238.513829 241.148588 
L 239.199754 240.137878 
L 239.885679 238.874263 
L 240.571604 238.340704 
L 241.257529 239.837953 
L 241.943454 237.412013 
L 242.629379 237.813968 
L 243.315304 233.983404 
L 244.001229 237.710117 
L 244.687154 236.986886 
L 246.059004 236.972967 
L 246.744929 238.348229 
L 247.430854 240.118109 
L 248.116779 239.931926 
L 249.488629 240.907929 
L 250.174554 241.793488 
L 250.860479 242.042635 
L 251.546404 242.022479 
L 252.232329 241.801472 
L 252.918254 241.884923 
L 254.290104 241.139372 
L 254.97603 241.438213 
L 255.661955 241.369568 
L 256.34788 241.908493 
L 257.033805 241.759453 
L 258.405655 241.991072 
L 259.09158 241.666168 
L 259.777505 241.953827 
L 260.46343 241.752677 
L 261.149355 241.675761 
L 261.83528 241.343864 
L 262.521205 240.45653 
L 263.20713 240.738166 
L 263.893055 240.636353 
L 264.57898 241.316776 
L 265.264905 240.991049 
L 265.95083 241.244813 
L 266.636755 241.775462 
L 267.32268 241.679377 
L 268.008605 241.934481 
L 270.06638 241.761088 
L 270.752305 241.26467 
L 271.43823 241.304252 
L 272.124155 241.875796 
L 272.81008 241.182814 
L 273.496005 241.947322 
L 274.18193 241.317193 
L 275.55378 241.78129 
L 276.239705 241.006619 
L 276.92563 241.141713 
L 277.611555 240.838351 
L 278.29748 241.165028 
L 278.983405 240.744664 
L 279.66933 241.525773 
L 280.355255 240.599055 
L 282.41303 239.504639 
L 283.098955 239.445517 
L 283.78488 239.877588 
L 285.15673 239.887849 
L 285.842655 239.670337 
L 286.52858 240.506626 
L 287.90043 241.337539 
L 288.586355 240.022701 
L 289.27228 240.568787 
L 289.958205 238.657655 
L 290.64413 238.72278 
L 291.330055 238.95854 
L 292.01598 238.853553 
L 292.701905 239.47424 
L 293.38783 239.258295 
L 294.073755 240.122553 
L 294.75968 240.565602 
L 296.13153 240.493512 
L 296.817455 240.171137 
L 298.189305 240.139121 
L 298.87523 240.646054 
L 299.561156 240.898919 
L 300.247081 240.946895 
L 300.933006 241.628253 
L 301.618931 241.757229 
L 302.304856 241.766669 
L 302.990781 241.307452 
L 303.676706 241.168675 
L 304.362631 240.897649 
L 305.048556 240.889728 
L 305.734481 240.187094 
L 306.420406 239.725998 
L 307.792256 240.194403 
L 308.478181 240.269146 
L 309.164106 240.875249 
L 309.850031 240.572627 
L 310.535956 241.284481 
L 311.907806 241.25202 
L 312.593731 241.75325 
L 313.279656 241.946 
L 315.337431 242.102995 
L 318.081131 242.024679 
L 318.767056 242.101538 
L 319.452981 241.986393 
L 320.824831 242.028365 
L 321.510756 241.937753 
L 322.196681 242.078269 
L 322.882606 241.982722 
L 324.254456 242.089085 
L 324.940381 242.093181 
L 325.626306 241.900299 
L 326.998156 241.832417 
L 327.684081 241.981871 
L 328.370006 241.786952 
L 329.741856 241.986925 
L 330.427781 241.916043 
L 331.113706 241.995151 
L 331.799631 241.939564 
L 334.543331 242.111896 
L 337.287031 242.028669 
L 337.972956 241.916136 
L 339.344806 241.971469 
L 389.417333 242.115975 
L 389.417333 242.115975 
" clip-path="url(#p9d4e09e32a)" style="fill: none; stroke: #8172b3; stroke-opacity: 0.3; stroke-width: 1.5; stroke-linecap: round"/>
   </g>
   <g id="line2d_19">
    <path d="M 54 242.031318 
L 96.527351 241.933392 
L 97.213276 241.749337 
L 97.899201 241.695576 
L 99.271051 242.039447 
L 100.642901 241.765374 
L 101.328826 241.536226 
L 102.014751 240.890703 
L 102.700676 241.510012 
L 103.386601 240.844375 
L 104.072526 237.760504 
L 104.758451 230.010697 
L 105.444376 231.150604 
L 106.130301 225.75497 
L 106.816226 231.845397 
L 107.502151 224.426008 
L 108.188076 232.52693 
L 108.874001 196.979948 
L 109.559926 191.567918 
L 110.245851 209.043932 
L 110.931776 153.955171 
L 111.617701 192.770876 
L 112.303626 191.536408 
L 112.989551 149.275153 
L 113.675476 157.961355 
L 114.361401 226.71246 
L 115.047326 208.934326 
L 115.733251 141.187355 
L 116.419176 201.767219 
L 117.105101 103.359055 
L 117.791026 140.296196 
L 118.476951 89.385272 
L 119.162876 140.800182 
L 119.848801 99.206103 
L 121.220652 111.468966 
L 121.906577 44.443636 
L 122.592502 165.083428 
L 123.278427 174.910975 
L 123.964352 131.73243 
L 124.650277 197.067087 
L 125.336202 222.180546 
L 126.022127 207.73179 
L 126.708052 215.684797 
L 127.393977 219.947773 
L 128.079902 229.82262 
L 128.765827 213.735494 
L 129.451752 213.514458 
L 130.137677 203.943454 
L 130.823602 151.389789 
L 131.509527 163.834507 
L 132.195452 69.413533 
L 132.881377 163.380245 
L 133.567302 100.095444 
L 134.253227 97.093251 
L 134.939152 80.727854 
L 135.625077 158.107558 
L 136.311002 175.71909 
L 136.996927 188.372796 
L 137.682852 241.658608 
L 138.368777 233.517133 
L 139.054702 241.892021 
L 139.740627 241.00382 
L 140.426552 228.793769 
L 141.112477 205.231781 
L 141.798402 226.495337 
L 142.484327 210.352126 
L 143.170252 220.709032 
L 143.856177 237.863548 
L 144.542102 241.492297 
L 145.228027 238.579165 
L 145.913952 174.252658 
L 146.599877 165.047392 
L 147.285802 200.821008 
L 147.971727 152.055283 
L 148.657652 174.621787 
L 149.343577 213.927763 
L 150.029502 211.231885 
L 150.715427 218.407949 
L 151.401352 230.946938 
L 152.087277 235.637033 
L 152.773202 233.846666 
L 153.459127 234.530436 
L 154.145052 231.246129 
L 154.830977 236.305399 
L 155.516902 236.026094 
L 156.202827 240.550382 
L 156.888752 229.588926 
L 157.574677 225.211125 
L 158.260602 237.763451 
L 158.946527 217.015141 
L 159.632452 209.535237 
L 160.318377 237.613553 
L 161.004302 204.960688 
L 162.376152 222.695108 
L 163.062077 216.354998 
L 163.748002 213.599357 
L 164.433927 224.635024 
L 165.119852 197.076959 
L 166.491703 233.919199 
L 167.177628 209.000636 
L 167.863553 238.672506 
L 168.549478 241.114354 
L 169.235403 239.871844 
L 169.921328 236.141468 
L 170.607253 241.113822 
L 171.293178 226.260848 
L 171.979103 234.920869 
L 172.665028 238.671163 
L 173.350953 218.648902 
L 174.036878 227.875936 
L 174.722803 225.388405 
L 175.408728 234.44152 
L 176.094653 229.577571 
L 176.780578 204.442039 
L 177.466503 226.558204 
L 178.152428 227.967366 
L 178.838353 203.669781 
L 179.524278 226.306925 
L 180.210203 218.649553 
L 180.896128 239.47585 
L 181.582053 234.281668 
L 182.267978 238.709574 
L 182.953903 216.708683 
L 183.639828 234.818301 
L 184.325753 235.652545 
L 185.011678 224.188595 
L 186.383528 225.27787 
L 187.069453 230.347551 
L 187.755378 228.423155 
L 188.441303 175.20939 
L 189.127228 239.954961 
L 189.813153 235.696516 
L 190.499078 230.250516 
L 191.185003 221.615635 
L 191.870928 238.202136 
L 192.556853 227.262863 
L 193.242778 234.732659 
L 193.928703 205.56208 
L 194.614628 197.504615 
L 195.300553 225.704488 
L 195.986478 215.503131 
L 196.672403 203.104471 
L 197.358328 218.999943 
L 198.044253 216.874493 
L 198.730178 223.379198 
L 199.416103 222.898174 
L 200.102028 217.724391 
L 200.787953 227.419527 
L 201.473878 219.741648 
L 202.159803 224.306992 
L 202.845728 220.938441 
L 203.531653 213.030214 
L 204.217578 241.044154 
L 204.903503 237.300951 
L 205.589428 238.075046 
L 206.275353 221.791349 
L 206.961278 241.686101 
L 207.647203 231.756201 
L 208.333128 239.71078 
L 209.704978 235.33861 
L 210.390904 237.92154 
L 211.076829 236.129891 
L 211.762754 232.474873 
L 212.448679 230.894659 
L 213.134604 235.525563 
L 213.820529 236.200773 
L 214.506454 214.883475 
L 215.192379 232.955959 
L 215.878304 222.477885 
L 216.564229 208.085188 
L 217.250154 227.581572 
L 217.936079 238.839568 
L 218.622004 206.691191 
L 219.307929 226.281413 
L 219.993854 227.041816 
L 220.679779 238.529088 
L 221.365704 242.022826 
L 222.051629 231.298518 
L 222.737554 241.583597 
L 224.109404 230.941129 
L 224.795329 241.166288 
L 225.481254 229.287969 
L 226.167179 241.722171 
L 226.853104 236.55851 
L 227.539029 241.250244 
L 228.224954 238.999595 
L 228.910879 241.061766 
L 229.596804 239.795245 
L 230.282729 221.423887 
L 230.968654 228.193635 
L 231.654579 222.225567 
L 232.340504 233.348533 
L 233.026429 223.776821 
L 233.712354 229.037751 
L 234.398279 226.694653 
L 235.770129 219.89115 
L 236.456054 227.949319 
L 237.141979 223.02762 
L 237.827904 234.735117 
L 239.199754 238.59385 
L 239.885679 241.311541 
L 240.571604 239.017982 
L 241.943454 241.998744 
L 242.629379 239.612001 
L 243.315304 241.834346 
L 244.001229 228.543803 
L 244.687154 236.702636 
L 245.373079 240.452316 
L 246.059004 239.767605 
L 246.744929 240.238238 
L 247.430854 240.234979 
L 248.116779 224.097238 
L 248.802704 233.720407 
L 249.488629 217.074955 
L 250.174554 219.740631 
L 250.860479 235.240629 
L 251.546404 204.796758 
L 252.232329 240.045212 
L 252.918254 229.743876 
L 253.604179 227.584535 
L 254.290104 233.106191 
L 254.97603 224.820544 
L 255.661955 231.872012 
L 256.34788 236.78552 
L 257.033805 236.815119 
L 257.71973 240.281599 
L 258.405655 232.022056 
L 259.09158 241.562807 
L 259.777505 235.866599 
L 260.46343 240.21356 
L 261.149355 240.441547 
L 261.83528 234.431416 
L 262.521205 237.17698 
L 263.20713 240.75774 
L 263.893055 238.35074 
L 264.57898 238.651207 
L 265.264905 237.046127 
L 265.95083 237.658253 
L 266.636755 240.453786 
L 267.32268 237.949819 
L 268.008605 237.626999 
L 269.380455 239.082758 
L 270.06638 240.659576 
L 270.752305 231.897901 
L 271.43823 234.695251 
L 272.124155 230.702048 
L 272.81008 234.935771 
L 273.496005 236.959456 
L 274.18193 241.168996 
L 274.867855 239.612862 
L 275.55378 236.899421 
L 276.239705 237.81372 
L 276.92563 241.574721 
L 277.611555 237.924658 
L 278.29748 234.940206 
L 278.983405 236.468045 
L 279.66933 237.460908 
L 280.355255 242.055179 
L 281.04118 238.537831 
L 281.727105 239.344358 
L 282.41303 229.62141 
L 283.098955 235.635369 
L 283.78488 238.21908 
L 284.470805 241.394153 
L 285.15673 241.834056 
L 285.842655 235.133158 
L 286.52858 241.18436 
L 287.214505 239.491678 
L 287.90043 234.526871 
L 288.586355 231.494203 
L 289.27228 241.934658 
L 289.958205 237.376109 
L 290.64413 240.272072 
L 291.330055 241.829313 
L 292.01598 241.559469 
L 292.701905 241.924681 
L 293.38783 240.374953 
L 294.073755 241.15703 
L 294.75968 240.029456 
L 295.445605 238.511216 
L 296.13153 241.355172 
L 296.817455 240.693254 
L 297.50338 241.189835 
L 298.189305 240.614953 
L 298.87523 241.509032 
L 299.561156 241.432616 
L 300.247081 239.922616 
L 300.933006 242.079078 
L 301.618931 240.431346 
L 302.304856 241.517675 
L 302.990781 235.113818 
L 303.676706 237.029279 
L 304.362631 233.530622 
L 305.048556 237.237291 
L 305.734481 236.421242 
L 306.420406 229.496031 
L 307.106331 236.240763 
L 307.792256 236.81423 
L 309.164106 241.431568 
L 309.850031 239.337496 
L 310.535956 241.298157 
L 311.221881 241.356755 
L 311.907806 240.167854 
L 312.593731 241.623025 
L 313.279656 241.930413 
L 313.965581 241.508795 
L 314.651506 241.247844 
L 315.337431 241.952795 
L 316.023356 239.725531 
L 316.709281 240.996192 
L 317.395206 240.771811 
L 318.081131 239.820021 
L 318.767056 242.111143 
L 319.452981 239.457007 
L 320.138906 241.34995 
L 320.824831 241.558274 
L 321.510756 241.049327 
L 322.196681 241.726723 
L 322.882606 241.72006 
L 323.568531 241.970039 
L 324.254456 240.187602 
L 324.940381 241.188048 
L 325.626306 241.254324 
L 326.312231 242.051923 
L 326.998156 240.528036 
L 327.684081 241.553044 
L 328.370006 240.135866 
L 329.055931 241.384635 
L 329.741856 241.98108 
L 330.427781 240.660076 
L 331.113706 241.726932 
L 331.799631 239.909437 
L 332.485556 239.517748 
L 333.171481 240.234941 
L 333.857406 239.130485 
L 334.543331 241.911776 
L 335.229256 241.415252 
L 335.915181 241.635612 
L 336.601106 242.050788 
L 337.287031 242.037901 
L 337.972956 241.812995 
L 338.658881 242.056893 
L 339.344806 242.054429 
L 340.030731 241.904874 
L 340.716656 242.01123 
L 342.774431 241.853423 
L 344.146281 242.093676 
L 345.518132 241.875581 
L 347.575907 242.061649 
L 348.261832 241.920732 
L 351.005532 241.73175 
L 351.691457 241.899544 
L 352.377382 241.700103 
L 353.749232 242.105585 
L 354.435157 241.782734 
L 355.121082 242.038166 
L 357.864782 241.964834 
L 358.550707 242.113635 
L 361.980332 242.054441 
L 363.352182 242.113774 
L 364.724032 242.114682 
L 366.781807 242.114316 
L 389.417333 242.114895 
L 389.417333 242.114895 
" clip-path="url(#p9d4e09e32a)" style="fill: none; stroke: #937860; stroke-opacity: 0.3; stroke-width: 1.5; stroke-linecap: round"/>
   </g>
   <g id="line2d_20">
    <path d="M 54 242.102099 
L 95.841426 242.045128 
L 97.899201 241.691385 
L 99.271051 240.945981 
L 99.956976 240.34843 
L 100.642901 240.013495 
L 101.328826 239.13634 
L 102.014751 237.926841 
L 102.700676 238.475656 
L 103.386601 238.719934 
L 104.072526 239.582399 
L 104.758451 238.906562 
L 105.444376 237.694537 
L 106.130301 232.772419 
L 106.816226 220.657681 
L 107.502151 202.225787 
L 108.874001 147.764386 
L 109.559926 85.099898 
L 110.245851 44.443636 
L 110.931776 75.36262 
L 111.617701 92.628819 
L 112.989551 197.640525 
L 113.675476 220.84937 
L 114.361401 216.829752 
L 116.419176 118.456814 
L 117.105101 132.268982 
L 117.791026 113.10813 
L 118.476951 126.49004 
L 119.162876 142.960219 
L 119.848801 173.750165 
L 121.220652 207.908699 
L 121.906577 204.064858 
L 122.592502 207.646935 
L 123.278427 206.841213 
L 123.964352 211.805578 
L 124.650277 220.010803 
L 125.336202 219.069472 
L 126.022127 226.294827 
L 126.708052 234.838703 
L 127.393977 237.706709 
L 128.765827 240.550794 
L 129.451752 240.732173 
L 130.137677 239.977888 
L 130.823602 238.291851 
L 131.509527 233.809642 
L 132.195452 231.203264 
L 133.567302 212.411537 
L 134.939152 202.231896 
L 135.625077 207.282674 
L 136.311002 217.152976 
L 136.996927 218.809497 
L 137.682852 225.773722 
L 138.368777 226.081579 
L 139.054702 218.622146 
L 139.740627 213.472148 
L 140.426552 211.739698 
L 141.112477 208.110874 
L 141.798402 206.298529 
L 142.484327 205.92935 
L 143.170252 206.006996 
L 143.856177 207.450482 
L 144.542102 210.482932 
L 145.228027 210.550765 
L 145.913952 211.603537 
L 146.599877 211.616387 
L 147.285802 205.354793 
L 147.971727 205.028023 
L 148.657652 206.936737 
L 150.029502 219.44782 
L 150.715427 220.637508 
L 151.401352 226.19269 
L 152.087277 224.196932 
L 152.773202 224.171869 
L 153.459127 223.494119 
L 154.145052 225.270444 
L 154.830977 228.739901 
L 155.516902 229.155205 
L 156.202827 231.634263 
L 156.888752 234.945312 
L 157.574677 237.024525 
L 158.260602 237.747726 
L 158.946527 239.041722 
L 159.632452 239.90413 
L 161.004302 240.479515 
L 161.690227 239.81292 
L 163.748002 241.677582 
L 165.805778 242.107581 
L 167.177628 242.107277 
L 168.549478 241.829252 
L 169.235403 242.035407 
L 170.607253 242.112647 
L 173.350953 242.061481 
L 174.036878 241.923182 
L 174.722803 241.977859 
L 175.408728 241.735667 
L 177.466503 242.034251 
L 179.524278 242.097874 
L 180.210203 241.773808 
L 180.896128 241.695976 
L 181.582053 241.824989 
L 182.267978 241.349995 
L 182.953903 240.708886 
L 183.639828 241.731836 
L 185.011678 242.074989 
L 186.383528 241.86661 
L 187.755378 241.894318 
L 188.441303 241.525299 
L 189.127228 241.398436 
L 189.813153 241.039676 
L 190.499078 241.110992 
L 191.185003 241.612263 
L 193.242778 242.111612 
L 196.672403 242.01153 
L 197.358328 241.671451 
L 198.044253 241.725333 
L 198.730178 241.495258 
L 200.102028 241.937431 
L 200.787953 241.927233 
L 201.473878 241.779107 
L 202.159803 241.923153 
L 202.845728 241.73248 
L 204.217578 241.891633 
L 204.903503 241.625097 
L 205.589428 241.959876 
L 209.019053 241.876272 
L 209.704978 241.660272 
L 211.076829 241.872696 
L 211.762754 241.70098 
L 213.134604 241.869423 
L 213.820529 241.825858 
L 214.506454 241.548645 
L 215.192379 241.924924 
L 216.564229 241.901068 
L 218.622004 241.807081 
L 219.307929 241.997963 
L 219.993854 242.029332 
L 220.679779 241.855346 
L 221.365704 242.011104 
L 222.737554 242.027685 
L 224.795329 242.057147 
L 225.481254 241.927244 
L 228.910879 242.102163 
L 233.026429 242.10362 
L 233.712354 241.943293 
L 240.571604 242.072935 
L 241.943454 242.013352 
L 243.315304 241.420779 
L 244.001229 241.88494 
L 244.687154 241.812345 
L 245.373079 241.566315 
L 246.059004 241.482877 
L 248.116779 242.004049 
L 249.488629 241.816924 
L 250.860479 241.645909 
L 251.546404 241.965529 
L 253.604179 241.994198 
L 254.290104 241.987324 
L 255.661955 242.109053 
L 260.46343 242.03618 
L 263.20713 241.719804 
L 264.57898 241.95108 
L 265.264905 241.8984 
L 265.95083 242.07558 
L 268.008605 242.101287 
L 269.380455 242.02855 
L 272.124155 242.027156 
L 273.496005 242.000804 
L 274.867855 242.055361 
L 284.470805 242.036391 
L 285.15673 241.886813 
L 286.52858 241.933239 
L 287.90043 242.039537 
L 289.958205 242.08902 
L 292.701905 242.100199 
L 294.75968 242.060739 
L 300.247081 242.113438 
L 302.304856 242.06982 
L 303.676706 242.088191 
L 305.048556 242.061988 
L 307.106331 242.072319 
L 313.279656 242.079683 
L 316.709281 241.996028 
L 319.452981 242.014344 
L 324.940381 242.073076 
L 329.741856 242.063887 
L 333.857406 242.092381 
L 339.344806 242.105897 
L 355.121082 242.10905 
L 389.417333 242.115703 
L 389.417333 242.115703 
" clip-path="url(#p9d4e09e32a)" style="fill: none; stroke: #da8bc3; stroke-opacity: 0.3; stroke-width: 1.5; stroke-linecap: round"/>
   </g>
   <g id="line2d_21">
    <path d="M 54 242.11387 
L 96.527351 242.036815 
L 97.899201 241.9047 
L 99.271051 241.587266 
L 99.956976 241.300043 
L 100.642901 240.448079 
L 101.328826 240.19534 
L 102.014751 239.470395 
L 102.700676 235.110474 
L 103.386601 233.523577 
L 104.072526 226.891196 
L 104.758451 218.691609 
L 105.444376 205.458141 
L 106.130301 195.154156 
L 106.816226 189.607767 
L 107.502151 193.450394 
L 108.188076 189.553557 
L 108.874001 202.633561 
L 109.559926 199.561306 
L 110.245851 182.938746 
L 110.931776 178.263452 
L 111.617701 152.963861 
L 112.303626 145.563517 
L 112.989551 104.928816 
L 113.675476 84.715278 
L 114.361401 87.393205 
L 115.047326 44.443636 
L 115.733251 67.334963 
L 116.419176 48.122556 
L 117.105101 75.414775 
L 117.791026 82.852892 
L 118.476951 79.758055 
L 119.162876 88.757375 
L 119.848801 85.99837 
L 121.220652 103.079771 
L 121.906577 88.360748 
L 122.592502 114.938532 
L 123.278427 127.601546 
L 123.964352 147.407066 
L 124.650277 156.866483 
L 125.336202 146.346067 
L 126.708052 169.419121 
L 127.393977 191.352367 
L 128.079902 196.482992 
L 128.765827 212.711368 
L 129.451752 220.967957 
L 130.137677 224.210514 
L 130.823602 234.874322 
L 131.509527 233.019365 
L 132.195452 236.296801 
L 132.881377 233.820084 
L 133.567302 234.703803 
L 134.253227 234.020805 
L 134.939152 228.986667 
L 135.625077 225.333966 
L 136.311002 224.880394 
L 136.996927 220.556587 
L 137.682852 210.676237 
L 138.368777 207.154569 
L 139.054702 207.684565 
L 139.740627 210.573417 
L 140.426552 208.444918 
L 141.112477 214.890272 
L 141.798402 219.178664 
L 142.484327 221.878482 
L 143.170252 219.218935 
L 143.856177 225.543371 
L 144.542102 227.13941 
L 145.228027 231.211199 
L 146.599877 230.799865 
L 147.285802 234.646309 
L 147.971727 235.434474 
L 148.657652 236.836626 
L 149.343577 234.471743 
L 150.715427 231.848842 
L 151.401352 232.856876 
L 152.087277 234.981148 
L 152.773202 231.681536 
L 153.459127 229.961681 
L 154.145052 232.453992 
L 154.830977 230.598697 
L 155.516902 233.637878 
L 156.888752 226.602035 
L 157.574677 227.345606 
L 158.260602 222.016341 
L 158.946527 221.95831 
L 159.632452 224.47109 
L 160.318377 219.933266 
L 161.690227 217.185571 
L 162.376152 215.40788 
L 163.062077 215.881187 
L 163.748002 218.649929 
L 164.433927 217.500616 
L 165.119852 217.063762 
L 165.805778 216.13429 
L 166.491703 218.420677 
L 167.863553 224.38138 
L 168.549478 223.792327 
L 169.235403 222.870761 
L 169.921328 220.884955 
L 170.607253 222.474361 
L 171.293178 221.118828 
L 171.979103 226.271076 
L 172.665028 223.105636 
L 173.350953 225.054435 
L 174.036878 230.095281 
L 175.408728 232.090744 
L 176.094653 229.77176 
L 176.780578 229.126934 
L 177.466503 231.338572 
L 178.152428 229.547845 
L 178.838353 229.35621 
L 179.524278 228.823641 
L 180.210203 230.659127 
L 180.896128 230.652509 
L 181.582053 228.768091 
L 182.267978 232.433707 
L 182.953903 233.55696 
L 183.639828 232.53514 
L 184.325753 233.395607 
L 185.011678 231.414578 
L 185.697603 230.314064 
L 186.383528 231.997953 
L 187.069453 233.239387 
L 187.755378 235.378642 
L 188.441303 235.267449 
L 189.127228 237.041974 
L 190.499078 239.615443 
L 191.185003 240.09261 
L 191.870928 239.372295 
L 192.556853 239.43542 
L 193.242778 237.318704 
L 193.928703 237.142382 
L 194.614628 237.302627 
L 195.300553 239.018655 
L 195.986478 238.399958 
L 196.672403 239.099417 
L 197.358328 240.156153 
L 198.044253 240.079927 
L 198.730178 240.991648 
L 199.416103 241.038006 
L 200.787953 240.023812 
L 201.473878 240.644397 
L 202.159803 240.449334 
L 202.845728 240.855093 
L 203.531653 240.80514 
L 204.217578 240.326613 
L 204.903503 240.988561 
L 205.589428 240.515542 
L 206.275353 240.921259 
L 206.961278 240.894101 
L 207.647203 240.534773 
L 208.333128 241.423126 
L 209.019053 241.227218 
L 210.390904 241.902679 
L 211.076829 242.083375 
L 214.506454 241.710749 
L 215.192379 241.269224 
L 215.878304 241.195814 
L 216.564229 240.731464 
L 217.936079 241.300017 
L 218.622004 240.985238 
L 219.307929 240.138903 
L 219.993854 239.697809 
L 220.679779 240.81916 
L 221.365704 240.418423 
L 222.051629 240.667477 
L 222.737554 241.04079 
L 223.423479 240.83474 
L 224.109404 241.613154 
L 224.795329 241.413058 
L 225.481254 241.616306 
L 226.167179 241.588048 
L 226.853104 241.279891 
L 227.539029 241.573226 
L 228.224954 241.405671 
L 228.910879 240.626271 
L 229.596804 240.996858 
L 230.282729 240.962765 
L 230.968654 240.336957 
L 231.654579 241.179973 
L 232.340504 241.525093 
L 233.026429 241.68758 
L 233.712354 241.443442 
L 234.398279 241.673822 
L 235.770129 241.382341 
L 236.456054 241.268364 
L 237.141979 240.904658 
L 238.513829 240.429745 
L 239.885679 241.113003 
L 240.571604 241.055277 
L 241.257529 240.756302 
L 241.943454 241.146603 
L 242.629379 240.370516 
L 243.315304 241.053651 
L 244.001229 240.507488 
L 244.687154 241.038985 
L 246.744929 240.918336 
L 247.430854 241.529723 
L 248.116779 241.908501 
L 248.802704 241.970671 
L 249.488629 241.693031 
L 250.174554 241.873528 
L 250.860479 241.446368 
L 251.546404 242.044656 
L 252.232329 241.999248 
L 252.918254 241.652302 
L 253.604179 241.531626 
L 254.290104 241.546279 
L 254.97603 241.947925 
L 255.661955 241.794766 
L 257.033805 241.754965 
L 257.71973 241.510055 
L 258.405655 241.92564 
L 259.777505 241.832269 
L 260.46343 241.723728 
L 261.149355 241.351007 
L 262.521205 241.665105 
L 263.20713 241.364764 
L 263.893055 241.735239 
L 264.57898 241.913031 
L 265.264905 241.627434 
L 265.95083 241.978847 
L 268.008605 241.85482 
L 268.69453 241.519308 
L 270.06638 241.8166 
L 270.752305 241.783929 
L 271.43823 242.054891 
L 272.81008 241.914739 
L 273.496005 241.44748 
L 274.18193 241.66848 
L 277.611555 241.816086 
L 278.29748 241.71831 
L 278.983405 242.057492 
L 279.66933 241.952854 
L 280.355255 242.022435 
L 281.04118 241.970123 
L 281.727105 241.794722 
L 282.41303 241.949054 
L 283.098955 241.979377 
L 283.78488 241.779 
L 285.15673 241.249084 
L 285.842655 241.463245 
L 287.214505 241.443912 
L 287.90043 241.713699 
L 288.586355 241.848214 
L 289.958205 241.642647 
L 290.64413 241.819717 
L 291.330055 241.595922 
L 292.01598 241.77169 
L 292.701905 241.793579 
L 294.073755 241.669588 
L 295.445605 241.496507 
L 296.817455 241.759068 
L 297.50338 241.535081 
L 298.189305 241.72695 
L 299.561156 241.78865 
L 300.247081 241.942 
L 300.933006 241.536996 
L 302.304856 241.580941 
L 302.990781 241.849985 
L 303.676706 241.71718 
L 304.362631 241.398631 
L 305.048556 241.627309 
L 305.734481 241.496065 
L 306.420406 241.866591 
L 311.221881 242.003424 
L 312.593731 241.886706 
L 313.279656 241.876143 
L 313.965581 241.676592 
L 314.651506 241.662979 
L 315.337431 241.51936 
L 317.395206 241.880232 
L 318.081131 241.758955 
L 318.767056 241.909992 
L 319.452981 241.83228 
L 320.824831 241.926765 
L 322.882606 241.846463 
L 326.998156 242.028698 
L 339.344806 242.111236 
L 347.575907 242.092145 
L 359.236632 242.112192 
L 389.417333 242.116274 
L 389.417333 242.116274 
" clip-path="url(#p9d4e09e32a)" style="fill: none; stroke: #8c8c8c; stroke-opacity: 0.3; stroke-width: 1.5; stroke-linecap: round"/>
   </g>
   <g id="line2d_22">
    <path d="M 54 242.087021 
L 95.155501 242.016174 
L 97.213276 241.856752 
L 99.956976 242.034986 
L 100.642901 241.478102 
L 101.328826 241.136032 
L 103.386601 238.813289 
L 104.072526 237.943973 
L 104.758451 224.542109 
L 105.444376 227.750943 
L 106.130301 231.634248 
L 106.816226 228.268402 
L 107.502151 229.538664 
L 108.188076 217.66939 
L 108.874001 193.472612 
L 109.559926 186.248773 
L 110.245851 142.322924 
L 110.931776 168.220355 
L 111.617701 122.982695 
L 112.303626 170.305482 
L 112.989551 116.829748 
L 113.675476 112.635147 
L 114.361401 112.784115 
L 115.047326 44.443636 
L 115.733251 145.408398 
L 116.419176 162.394617 
L 117.105101 222.86514 
L 117.791026 180.411499 
L 118.476951 155.351806 
L 119.162876 167.402341 
L 120.534726 216.930341 
L 121.220652 195.369472 
L 121.906577 210.862553 
L 122.592502 178.372373 
L 123.278427 198.143075 
L 123.964352 230.236495 
L 124.650277 223.718278 
L 125.336202 214.716513 
L 126.022127 226.205322 
L 126.708052 225.754127 
L 127.393977 224.171153 
L 128.079902 183.257299 
L 128.765827 203.723952 
L 130.137677 179.69153 
L 130.823602 230.463962 
L 131.509527 210.576868 
L 132.195452 173.888518 
L 132.881377 178.397441 
L 133.567302 133.252861 
L 134.253227 132.041021 
L 135.625077 184.479706 
L 136.311002 184.241662 
L 136.996927 209.235656 
L 137.682852 157.2676 
L 138.368777 210.573947 
L 139.054702 238.807336 
L 139.740627 241.512705 
L 140.426552 235.383551 
L 141.112477 234.029959 
L 141.798402 234.035901 
L 142.484327 217.624146 
L 143.170252 155.299061 
L 143.856177 137.168517 
L 144.542102 172.149199 
L 145.228027 167.569867 
L 145.913952 170.126582 
L 146.599877 160.190326 
L 147.285802 176.122281 
L 147.971727 197.978004 
L 148.657652 205.990885 
L 149.343577 215.884507 
L 150.029502 187.794115 
L 150.715427 169.784491 
L 151.401352 213.078364 
L 152.087277 231.451004 
L 152.773202 197.674773 
L 153.459127 204.242947 
L 154.145052 202.068672 
L 154.830977 185.859359 
L 155.516902 210.278529 
L 156.202827 169.15338 
L 156.888752 145.611211 
L 157.574677 205.446074 
L 158.260602 202.675183 
L 158.946527 201.697711 
L 159.632452 226.963281 
L 160.318377 210.88776 
L 161.004302 215.044462 
L 161.690227 228.496129 
L 162.376152 223.047328 
L 163.062077 221.140709 
L 163.748002 218.052266 
L 164.433927 217.80911 
L 165.805778 193.701425 
L 166.491703 198.273552 
L 167.177628 207.070682 
L 167.863553 207.865552 
L 168.549478 217.873985 
L 169.235403 219.043619 
L 169.921328 196.91372 
L 170.607253 192.533716 
L 171.293178 175.567792 
L 171.979103 221.373185 
L 172.665028 195.440514 
L 173.350953 203.816538 
L 174.036878 224.427083 
L 174.722803 219.333092 
L 175.408728 222.27702 
L 176.094653 204.101975 
L 176.780578 190.666697 
L 177.466503 195.876723 
L 178.152428 186.484228 
L 178.838353 185.14371 
L 179.524278 193.633005 
L 180.210203 189.568511 
L 180.896128 183.734275 
L 182.267978 230.513873 
L 182.953903 212.685088 
L 183.639828 213.319177 
L 184.325753 229.356235 
L 185.697603 174.523841 
L 186.383528 183.28181 
L 187.069453 195.983224 
L 187.755378 213.063549 
L 188.441303 201.524468 
L 189.127228 228.173934 
L 189.813153 220.951134 
L 190.499078 229.687431 
L 191.185003 236.959838 
L 191.870928 240.285886 
L 192.556853 240.870211 
L 193.242778 235.913309 
L 193.928703 222.255405 
L 194.614628 228.490603 
L 195.300553 237.915094 
L 195.986478 232.960241 
L 196.672403 235.24404 
L 197.358328 241.452267 
L 198.044253 239.694012 
L 198.730178 240.137981 
L 199.416103 240.106003 
L 200.787953 228.581298 
L 201.473878 234.903983 
L 202.159803 233.924039 
L 202.845728 238.795708 
L 203.531653 236.406683 
L 204.217578 236.351779 
L 204.903503 239.004448 
L 205.589428 234.177675 
L 206.275353 237.966959 
L 206.961278 234.396161 
L 207.647203 232.056648 
L 208.333128 238.016914 
L 209.019053 237.34983 
L 209.704978 241.568671 
L 211.076829 232.775806 
L 211.762754 232.453 
L 212.448679 233.104557 
L 213.134604 234.614759 
L 213.820529 241.802164 
L 214.506454 230.92498 
L 215.192379 236.722258 
L 215.878304 234.685069 
L 216.564229 227.246692 
L 217.250154 234.108483 
L 217.936079 231.896914 
L 218.622004 230.264464 
L 219.307929 225.628828 
L 219.993854 213.67625 
L 220.679779 223.557704 
L 221.365704 212.24705 
L 222.051629 215.452307 
L 222.737554 229.051224 
L 223.423479 220.757703 
L 224.109404 238.437774 
L 224.795329 239.156433 
L 225.481254 238.162147 
L 226.167179 240.17403 
L 226.853104 237.467969 
L 227.539029 237.440308 
L 228.224954 233.69683 
L 228.910879 220.771929 
L 229.596804 228.552553 
L 230.282729 230.581139 
L 230.968654 216.763861 
L 231.654579 229.479651 
L 233.026429 240.198936 
L 233.712354 235.078109 
L 234.398279 233.668458 
L 235.084204 229.895437 
L 235.770129 229.396519 
L 236.456054 229.230195 
L 237.141979 226.49378 
L 237.827904 229.409746 
L 238.513829 225.511194 
L 239.199754 233.122644 
L 239.885679 236.56874 
L 240.571604 231.686551 
L 241.257529 233.105502 
L 241.943454 234.791927 
L 242.629379 226.708198 
L 243.315304 223.141651 
L 244.001229 215.974519 
L 244.687154 225.650148 
L 245.373079 225.816564 
L 246.059004 229.743198 
L 246.744929 227.497848 
L 247.430854 238.696218 
L 248.116779 241.790242 
L 248.802704 241.66569 
L 249.488629 239.600619 
L 250.174554 239.950777 
L 250.860479 239.133806 
L 251.546404 236.719955 
L 252.232329 240.137676 
L 252.918254 237.623933 
L 253.604179 235.628519 
L 254.290104 231.276796 
L 254.97603 239.302599 
L 255.661955 240.895902 
L 256.34788 241.943012 
L 257.033805 241.604348 
L 257.71973 240.409328 
L 258.405655 241.910499 
L 259.09158 241.038464 
L 259.777505 238.802952 
L 260.46343 234.910842 
L 261.149355 234.114602 
L 261.83528 233.521437 
L 262.521205 236.390238 
L 263.20713 233.068799 
L 264.57898 240.004431 
L 265.264905 233.765527 
L 265.95083 241.539989 
L 266.636755 241.38443 
L 267.32268 241.023493 
L 268.008605 241.100838 
L 268.69453 236.02362 
L 269.380455 238.203886 
L 270.06638 236.854977 
L 270.752305 239.512658 
L 271.43823 239.733502 
L 272.124155 240.737734 
L 272.81008 236.339694 
L 273.496005 230.314429 
L 274.867855 239.076398 
L 275.55378 235.434188 
L 276.239705 239.564882 
L 276.92563 240.203657 
L 277.611555 238.348103 
L 278.29748 232.091893 
L 278.983405 241.338502 
L 279.66933 237.376272 
L 280.355255 236.049422 
L 281.04118 238.756658 
L 281.727105 236.703259 
L 282.41303 241.444415 
L 283.098955 240.020621 
L 284.470805 232.584948 
L 285.15673 225.640973 
L 285.842655 231.764694 
L 286.52858 232.297268 
L 287.214505 229.57902 
L 287.90043 231.382082 
L 288.586355 231.60638 
L 289.27228 228.495617 
L 289.958205 227.109632 
L 290.64413 234.708464 
L 291.330055 234.119105 
L 292.01598 239.366902 
L 293.38783 239.577685 
L 294.073755 241.26702 
L 294.75968 239.453883 
L 295.445605 236.01375 
L 296.13153 238.455843 
L 296.817455 238.361872 
L 297.50338 232.006061 
L 298.189305 233.82944 
L 298.87523 237.54959 
L 299.561156 237.589225 
L 300.247081 239.110905 
L 300.933006 228.505444 
L 301.618931 230.92469 
L 302.304856 234.01367 
L 302.990781 240.138282 
L 303.676706 238.418168 
L 304.362631 235.385451 
L 305.048556 239.154418 
L 305.734481 238.298509 
L 306.420406 242.074794 
L 307.106331 241.335275 
L 307.792256 237.180893 
L 308.478181 240.65785 
L 309.164106 239.316725 
L 309.850031 240.01979 
L 310.535956 238.961085 
L 311.221881 241.784836 
L 311.907806 241.161381 
L 312.593731 239.567763 
L 313.279656 238.890687 
L 313.965581 237.411206 
L 314.651506 237.320332 
L 315.337431 232.945177 
L 316.023356 236.583882 
L 316.709281 237.619313 
L 317.395206 239.306403 
L 318.081131 235.369073 
L 318.767056 238.650712 
L 319.452981 237.366835 
L 320.138906 238.373149 
L 320.824831 239.825179 
L 321.510756 240.030541 
L 322.196681 241.197739 
L 323.568531 238.404249 
L 324.254456 240.949272 
L 324.940381 240.377653 
L 325.626306 240.038884 
L 326.312231 241.288542 
L 326.998156 241.79484 
L 327.684081 241.569433 
L 328.370006 241.599779 
L 329.055931 241.938302 
L 329.741856 241.772838 
L 330.427781 241.725956 
L 331.113706 240.994478 
L 331.799631 241.029309 
L 332.485556 240.741555 
L 333.171481 240.92101 
L 334.543331 241.769985 
L 335.229256 241.748456 
L 335.915181 241.999261 
L 337.972956 241.50518 
L 338.658881 242.015389 
L 339.344806 242.093011 
L 340.030731 241.393355 
L 340.716656 241.873522 
L 341.402581 241.50988 
L 342.088506 242.052443 
L 344.832207 242.113127 
L 347.575907 241.599987 
L 348.261832 241.522899 
L 349.633682 241.636951 
L 350.319607 242.111039 
L 354.435157 241.925645 
L 355.807007 241.452583 
L 357.864782 241.907724 
L 359.922557 242.109834 
L 362.666257 241.9818 
L 364.038107 242.070827 
L 369.525507 242.04106 
L 370.897357 241.974574 
L 372.269207 242.024172 
L 375.012907 242.11579 
L 379.814382 242.112434 
L 389.417333 242.115379 
L 389.417333 242.115379 
" clip-path="url(#p9d4e09e32a)" style="fill: none; stroke: #ccb974; stroke-opacity: 0.3; stroke-width: 1.5; stroke-linecap: round"/>
   </g>
   <g id="patch_3">
    <path d="M 54 252 
L 54 34.56 
" style="fill: none; stroke: #262626; stroke-width: 1.25; stroke-linejoin: miter; stroke-linecap: square"/>
   </g>
   <g id="patch_4">
    <path d="M 388.8 252 
L 388.8 34.56 
" style="fill: none; stroke: #262626; stroke-width: 1.25; stroke-linejoin: miter; stroke-linecap: square"/>
   </g>
   <g id="patch_5">
    <path d="M 54 252 
L 388.8 252 
" style="fill: none; stroke: #262626; stroke-width: 1.25; stroke-linejoin: miter; stroke-linecap: square"/>
   </g>
   <g id="patch_6">
    <path d="M 54 34.56 
L 388.8 34.56 
" style="fill: none; stroke: #262626; stroke-width: 1.25; stroke-linejoin: miter; stroke-linecap: square"/>
   </g>
   <g id="text_15">
    <!-- patient06_app04_phone - Power spectrum -->
    <g style="fill: #262626" transform="translate(107.998125 28.56)scale(0.12 -0.12)">
     <defs>
      <path id="ArialMT-70" d="M 422 -1272 
L 422 3319 
L 934 3319 
L 934 2888 
Q 1116 3141 1344 3267 
Q 1572 3394 1897 3394 
Q 2322 3394 2647 3175 
Q 2972 2956 3137 2557 
Q 3303 2159 3303 1684 
Q 3303 1175 3120 767 
Q 2938 359 2589 142 
Q 2241 -75 1856 -75 
Q 1575 -75 1351 44 
Q 1128 163 984 344 
L 984 -1272 
L 422 -1272 
z
M 931 1641 
Q 931 1000 1190 694 
Q 1450 388 1819 388 
Q 2194 388 2461 705 
Q 2728 1022 2728 1688 
Q 2728 2322 2467 2637 
Q 2206 2953 1844 2953 
Q 1484 2953 1207 2617 
Q 931 2281 931 1641 
z
" transform="scale(0.015625)"/>
      <path id="ArialMT-61" d="M 2588 409 
Q 2275 144 1986 34 
Q 1697 -75 1366 -75 
Q 819 -75 525 192 
Q 231 459 231 875 
Q 231 1119 342 1320 
Q 453 1522 633 1644 
Q 813 1766 1038 1828 
Q 1203 1872 1538 1913 
Q 2219 1994 2541 2106 
Q 2544 2222 2544 2253 
Q 2544 2597 2384 2738 
Q 2169 2928 1744 2928 
Q 1347 2928 1158 2789 
Q 969 2650 878 2297 
L 328 2372 
Q 403 2725 575 2942 
Q 747 3159 1072 3276 
Q 1397 3394 1825 3394 
Q 2250 3394 2515 3294 
Q 2781 3194 2906 3042 
Q 3031 2891 3081 2659 
Q 3109 2516 3109 2141 
L 3109 1391 
Q 3109 606 3145 398 
Q 3181 191 3288 0 
L 2700 0 
Q 2613 175 2588 409 
z
M 2541 1666 
Q 2234 1541 1622 1453 
Q 1275 1403 1131 1340 
Q 988 1278 909 1158 
Q 831 1038 831 891 
Q 831 666 1001 516 
Q 1172 366 1500 366 
Q 1825 366 2078 508 
Q 2331 650 2450 897 
Q 2541 1088 2541 1459 
L 2541 1666 
z
" transform="scale(0.015625)"/>
      <path id="ArialMT-74" d="M 1650 503 
L 1731 6 
Q 1494 -44 1306 -44 
Q 1000 -44 831 53 
Q 663 150 594 308 
Q 525 466 525 972 
L 525 2881 
L 113 2881 
L 113 3319 
L 525 3319 
L 525 4141 
L 1084 4478 
L 1084 3319 
L 1650 3319 
L 1650 2881 
L 1084 2881 
L 1084 941 
Q 1084 700 1114 631 
Q 1144 563 1211 522 
Q 1278 481 1403 481 
Q 1497 481 1650 503 
z
" transform="scale(0.015625)"/>
      <path id="ArialMT-69" d="M 425 3934 
L 425 4581 
L 988 4581 
L 988 3934 
L 425 3934 
z
M 425 0 
L 425 3319 
L 988 3319 
L 988 0 
L 425 0 
z
" transform="scale(0.015625)"/>
      <path id="ArialMT-5f" d="M -97 -1272 
L -97 -866 
L 3631 -866 
L 3631 -1272 
L -97 -1272 
z
" transform="scale(0.015625)"/>
      <path id="ArialMT-68" d="M 422 0 
L 422 4581 
L 984 4581 
L 984 2938 
Q 1378 3394 1978 3394 
Q 2347 3394 2619 3248 
Q 2891 3103 3008 2847 
Q 3125 2591 3125 2103 
L 3125 0 
L 2563 0 
L 2563 2103 
Q 2563 2525 2380 2717 
Q 2197 2909 1863 2909 
Q 1613 2909 1392 2779 
Q 1172 2650 1078 2428 
Q 984 2206 984 1816 
L 984 0 
L 422 0 
z
" transform="scale(0.015625)"/>
      <path id="ArialMT-6f" d="M 213 1659 
Q 213 2581 725 3025 
Q 1153 3394 1769 3394 
Q 2453 3394 2887 2945 
Q 3322 2497 3322 1706 
Q 3322 1066 3130 698 
Q 2938 331 2570 128 
Q 2203 -75 1769 -75 
Q 1072 -75 642 372 
Q 213 819 213 1659 
z
M 791 1659 
Q 791 1022 1069 705 
Q 1347 388 1769 388 
Q 2188 388 2466 706 
Q 2744 1025 2744 1678 
Q 2744 2294 2464 2611 
Q 2184 2928 1769 2928 
Q 1347 2928 1069 2612 
Q 791 2297 791 1659 
z
" transform="scale(0.015625)"/>
      <path id="ArialMT-2d" d="M 203 1375 
L 203 1941 
L 1931 1941 
L 1931 1375 
L 203 1375 
z
" transform="scale(0.015625)"/>
      <path id="ArialMT-50" d="M 494 0 
L 494 4581 
L 2222 4581 
Q 2678 4581 2919 4538 
Q 3256 4481 3484 4323 
Q 3713 4166 3852 3881 
Q 3991 3597 3991 3256 
Q 3991 2672 3619 2267 
Q 3247 1863 2275 1863 
L 1100 1863 
L 1100 0 
L 494 0 
z
M 1100 2403 
L 2284 2403 
Q 2872 2403 3119 2622 
Q 3366 2841 3366 3238 
Q 3366 3525 3220 3729 
Q 3075 3934 2838 4000 
Q 2684 4041 2272 4041 
L 1100 4041 
L 1100 2403 
z
" transform="scale(0.015625)"/>
      <path id="ArialMT-77" d="M 1034 0 
L 19 3319 
L 600 3319 
L 1128 1403 
L 1325 691 
Q 1338 744 1497 1375 
L 2025 3319 
L 2603 3319 
L 3100 1394 
L 3266 759 
L 3456 1400 
L 4025 3319 
L 4572 3319 
L 3534 0 
L 2950 0 
L 2422 1988 
L 2294 2553 
L 1622 0 
L 1034 0 
z
" transform="scale(0.015625)"/>
      <path id="ArialMT-73" d="M 197 991 
L 753 1078 
Q 800 744 1014 566 
Q 1228 388 1613 388 
Q 2000 388 2187 545 
Q 2375 703 2375 916 
Q 2375 1106 2209 1216 
Q 2094 1291 1634 1406 
Q 1016 1563 777 1677 
Q 538 1791 414 1992 
Q 291 2194 291 2438 
Q 291 2659 392 2848 
Q 494 3038 669 3163 
Q 800 3259 1026 3326 
Q 1253 3394 1513 3394 
Q 1903 3394 2198 3281 
Q 2494 3169 2634 2976 
Q 2775 2784 2828 2463 
L 2278 2388 
Q 2241 2644 2061 2787 
Q 1881 2931 1553 2931 
Q 1166 2931 1000 2803 
Q 834 2675 834 2503 
Q 834 2394 903 2306 
Q 972 2216 1119 2156 
Q 1203 2125 1616 2013 
Q 2213 1853 2448 1751 
Q 2684 1650 2818 1456 
Q 2953 1263 2953 975 
Q 2953 694 2789 445 
Q 2625 197 2315 61 
Q 2006 -75 1616 -75 
Q 969 -75 630 194 
Q 291 463 197 991 
z
" transform="scale(0.015625)"/>
      <path id="ArialMT-6d" d="M 422 0 
L 422 3319 
L 925 3319 
L 925 2853 
Q 1081 3097 1340 3245 
Q 1600 3394 1931 3394 
Q 2300 3394 2536 3241 
Q 2772 3088 2869 2813 
Q 3263 3394 3894 3394 
Q 4388 3394 4653 3120 
Q 4919 2847 4919 2278 
L 4919 0 
L 4359 0 
L 4359 2091 
Q 4359 2428 4304 2576 
Q 4250 2725 4106 2815 
Q 3963 2906 3769 2906 
Q 3419 2906 3187 2673 
Q 2956 2441 2956 1928 
L 2956 0 
L 2394 0 
L 2394 2156 
Q 2394 2531 2256 2718 
Q 2119 2906 1806 2906 
Q 1569 2906 1367 2781 
Q 1166 2656 1075 2415 
Q 984 2175 984 1722 
L 984 0 
L 422 0 
z
" transform="scale(0.015625)"/>
     </defs>
     <use xlink:href="#ArialMT-70"/>
     <use xlink:href="#ArialMT-61" x="55.615234"/>
     <use xlink:href="#ArialMT-74" x="111.230469"/>
     <use xlink:href="#ArialMT-69" x="139.013672"/>
     <use xlink:href="#ArialMT-65" x="161.230469"/>
     <use xlink:href="#ArialMT-6e" x="216.845703"/>
     <use xlink:href="#ArialMT-74" x="272.460938"/>
     <use xlink:href="#ArialMT-30" x="300.244141"/>
     <use xlink:href="#ArialMT-36" x="355.859375"/>
     <use xlink:href="#ArialMT-5f" x="411.474609"/>
     <use xlink:href="#ArialMT-61" x="467.089844"/>
     <use xlink:href="#ArialMT-70" x="522.705078"/>
     <use xlink:href="#ArialMT-70" x="578.320312"/>
     <use xlink:href="#ArialMT-30" x="633.935547"/>
     <use xlink:href="#ArialMT-34" x="689.550781"/>
     <use xlink:href="#ArialMT-5f" x="745.166016"/>
     <use xlink:href="#ArialMT-70" x="800.78125"/>
     <use xlink:href="#ArialMT-68" x="856.396484"/>
     <use xlink:href="#ArialMT-6f" x="912.011719"/>
     <use xlink:href="#ArialMT-6e" x="967.626953"/>
     <use xlink:href="#ArialMT-65" x="1023.242188"/>
     <use xlink:href="#ArialMT-20" x="1078.857422"/>
     <use xlink:href="#ArialMT-2d" x="1106.640625"/>
     <use xlink:href="#ArialMT-20" x="1139.941406"/>
     <use xlink:href="#ArialMT-50" x="1167.724609"/>
     <use xlink:href="#ArialMT-6f" x="1234.423828"/>
     <use xlink:href="#ArialMT-77" x="1290.039062"/>
     <use xlink:href="#ArialMT-65" x="1362.255859"/>
     <use xlink:href="#ArialMT-72" x="1417.871094"/>
     <use xlink:href="#ArialMT-20" x="1451.171875"/>
     <use xlink:href="#ArialMT-73" x="1478.955078"/>
     <use xlink:href="#ArialMT-70" x="1528.955078"/>
     <use xlink:href="#ArialMT-65" x="1584.570312"/>
     <use xlink:href="#ArialMT-63" x="1640.185547"/>
     <use xlink:href="#ArialMT-74" x="1690.185547"/>
     <use xlink:href="#ArialMT-72" x="1717.96875"/>
     <use xlink:href="#ArialMT-75" x="1751.269531"/>
     <use xlink:href="#ArialMT-6d" x="1806.884766"/>
    </g>
   </g>
  </g>
 </g>
 <defs>
  <clipPath id="p9d4e09e32a">
   <rect x="54" y="34.56" width="334.8" height="217.44"/>
  </clipPath>
 </defs>
</svg>
