<?xml version="1.0" encoding="utf-8" standalone="no"?>
<!DOCTYPE svg PUBLIC "-//W3C//DTD SVG 1.1//EN"
  "http://www.w3.org/Graphics/SVG/1.1/DTD/svg11.dtd">
<svg xmlns:xlink="http://www.w3.org/1999/xlink" width="432pt" height="288pt" viewBox="0 0 432 288" xmlns="http://www.w3.org/2000/svg" version="1.1">
 <metadata>
  <rdf:RDF xmlns:dc="http://purl.org/dc/elements/1.1/" xmlns:cc="http://creativecommons.org/ns#" xmlns:rdf="http://www.w3.org/1999/02/22-rdf-syntax-ns#">
   <cc:Work>
    <dc:type rdf:resource="http://purl.org/dc/dcmitype/StillImage"/>
    <dc:date>2022-07-08T13:41:47.781555</dc:date>
    <dc:format>image/svg+xml</dc:format>
    <dc:creator>
     <cc:Agent>
      <dc:title>Matplotlib v3.5.1, https://matplotlib.org/</dc:title>
     </cc:Agent>
    </dc:creator>
   </cc:Work>
  </rdf:RDF>
 </metadata>
 <defs>
  <style type="text/css">*{stroke-linejoin: round; stroke-linecap: butt}</style>
 </defs>
 <g id="figure_1">
  <g id="patch_1">
   <path d="M 0 288 
L 432 288 
L 432 0 
L 0 0 
z
" style="fill: #ffffff"/>
  </g>
  <g id="axes_1">
   <g id="patch_2">
    <path d="M 54 252 
L 388.8 252 
L 388.8 34.56 
L 54 34.56 
z
" style="fill: #ffffff"/>
   </g>
   <g id="matplotlib.axis_1">
    <g id="xtick_1">
     <g id="line2d_1">
      <defs>
       <path id="md150feb49e" d="M 0 0 
L 0 6 
" style="stroke: #262626; stroke-width: 1.25"/>
      </defs>
      <g>
       <use xlink:href="#md150feb49e" x="54" y="252" style="fill: #262626; stroke: #262626; stroke-width: 1.25"/>
      </g>
     </g>
     <g id="text_1">
      <!-- 0 -->
      <g style="fill: #262626" transform="translate(50.941484 269.373594)scale(0.11 -0.11)">
       <defs>
        <path id="ArialMT-30" d="M 266 2259 
Q 266 3072 433 3567 
Q 600 4063 929 4331 
Q 1259 4600 1759 4600 
Q 2128 4600 2406 4451 
Q 2684 4303 2865 4023 
Q 3047 3744 3150 3342 
Q 3253 2941 3253 2259 
Q 3253 1453 3087 958 
Q 2922 463 2592 192 
Q 2263 -78 1759 -78 
Q 1097 -78 719 397 
Q 266 969 266 2259 
z
M 844 2259 
Q 844 1131 1108 757 
Q 1372 384 1759 384 
Q 2147 384 2411 759 
Q 2675 1134 2675 2259 
Q 2675 3391 2411 3762 
Q 2147 4134 1753 4134 
Q 1366 4134 1134 3806 
Q 844 3388 844 2259 
z
" transform="scale(0.015625)"/>
       </defs>
       <use xlink:href="#ArialMT-30"/>
      </g>
     </g>
    </g>
    <g id="xtick_2">
     <g id="line2d_2">
      <g>
       <use xlink:href="#md150feb49e" x="109.8" y="252" style="fill: #262626; stroke: #262626; stroke-width: 1.25"/>
      </g>
     </g>
     <g id="text_2">
      <!-- 5 -->
      <g style="fill: #262626" transform="translate(106.741484 269.373594)scale(0.11 -0.11)">
       <defs>
        <path id="ArialMT-35" d="M 266 1200 
L 856 1250 
Q 922 819 1161 601 
Q 1400 384 1738 384 
Q 2144 384 2425 690 
Q 2706 997 2706 1503 
Q 2706 1984 2436 2262 
Q 2166 2541 1728 2541 
Q 1456 2541 1237 2417 
Q 1019 2294 894 2097 
L 366 2166 
L 809 4519 
L 3088 4519 
L 3088 3981 
L 1259 3981 
L 1013 2750 
Q 1425 3038 1878 3038 
Q 2478 3038 2890 2622 
Q 3303 2206 3303 1553 
Q 3303 931 2941 478 
Q 2500 -78 1738 -78 
Q 1113 -78 717 272 
Q 322 622 266 1200 
z
" transform="scale(0.015625)"/>
       </defs>
       <use xlink:href="#ArialMT-35"/>
      </g>
     </g>
    </g>
    <g id="xtick_3">
     <g id="line2d_3">
      <g>
       <use xlink:href="#md150feb49e" x="165.6" y="252" style="fill: #262626; stroke: #262626; stroke-width: 1.25"/>
      </g>
     </g>
     <g id="text_3">
      <!-- 10 -->
      <g style="fill: #262626" transform="translate(159.482969 269.373594)scale(0.11 -0.11)">
       <defs>
        <path id="ArialMT-31" d="M 2384 0 
L 1822 0 
L 1822 3584 
Q 1619 3391 1289 3197 
Q 959 3003 697 2906 
L 697 3450 
Q 1169 3672 1522 3987 
Q 1875 4303 2022 4600 
L 2384 4600 
L 2384 0 
z
" transform="scale(0.015625)"/>
       </defs>
       <use xlink:href="#ArialMT-31"/>
       <use xlink:href="#ArialMT-30" x="55.615234"/>
      </g>
     </g>
    </g>
    <g id="xtick_4">
     <g id="line2d_4">
      <g>
       <use xlink:href="#md150feb49e" x="221.4" y="252" style="fill: #262626; stroke: #262626; stroke-width: 1.25"/>
      </g>
     </g>
     <g id="text_4">
      <!-- 15 -->
      <g style="fill: #262626" transform="translate(215.282969 269.373594)scale(0.11 -0.11)">
       <use xlink:href="#ArialMT-31"/>
       <use xlink:href="#ArialMT-35" x="55.615234"/>
      </g>
     </g>
    </g>
    <g id="xtick_5">
     <g id="line2d_5">
      <g>
       <use xlink:href="#md150feb49e" x="277.2" y="252" style="fill: #262626; stroke: #262626; stroke-width: 1.25"/>
      </g>
     </g>
     <g id="text_5">
      <!-- 20 -->
      <g style="fill: #262626" transform="translate(271.082969 269.373594)scale(0.11 -0.11)">
       <defs>
        <path id="ArialMT-32" d="M 3222 541 
L 3222 0 
L 194 0 
Q 188 203 259 391 
Q 375 700 629 1000 
Q 884 1300 1366 1694 
Q 2113 2306 2375 2664 
Q 2638 3022 2638 3341 
Q 2638 3675 2398 3904 
Q 2159 4134 1775 4134 
Q 1369 4134 1125 3890 
Q 881 3647 878 3216 
L 300 3275 
Q 359 3922 746 4261 
Q 1134 4600 1788 4600 
Q 2447 4600 2831 4234 
Q 3216 3869 3216 3328 
Q 3216 3053 3103 2787 
Q 2991 2522 2730 2228 
Q 2469 1934 1863 1422 
Q 1356 997 1212 845 
Q 1069 694 975 541 
L 3222 541 
z
" transform="scale(0.015625)"/>
       </defs>
       <use xlink:href="#ArialMT-32"/>
       <use xlink:href="#ArialMT-30" x="55.615234"/>
      </g>
     </g>
    </g>
    <g id="xtick_6">
     <g id="line2d_6">
      <g>
       <use xlink:href="#md150feb49e" x="333" y="252" style="fill: #262626; stroke: #262626; stroke-width: 1.25"/>
      </g>
     </g>
     <g id="text_6">
      <!-- 25 -->
      <g style="fill: #262626" transform="translate(326.882969 269.373594)scale(0.11 -0.11)">
       <use xlink:href="#ArialMT-32"/>
       <use xlink:href="#ArialMT-35" x="55.615234"/>
      </g>
     </g>
    </g>
    <g id="xtick_7">
     <g id="line2d_7">
      <g>
       <use xlink:href="#md150feb49e" x="388.8" y="252" style="fill: #262626; stroke: #262626; stroke-width: 1.25"/>
      </g>
     </g>
     <g id="text_7">
      <!-- 30 -->
      <g style="fill: #262626" transform="translate(382.682969 269.373594)scale(0.11 -0.11)">
       <defs>
        <path id="ArialMT-33" d="M 269 1209 
L 831 1284 
Q 928 806 1161 595 
Q 1394 384 1728 384 
Q 2125 384 2398 659 
Q 2672 934 2672 1341 
Q 2672 1728 2419 1979 
Q 2166 2231 1775 2231 
Q 1616 2231 1378 2169 
L 1441 2663 
Q 1497 2656 1531 2656 
Q 1891 2656 2178 2843 
Q 2466 3031 2466 3422 
Q 2466 3731 2256 3934 
Q 2047 4138 1716 4138 
Q 1388 4138 1169 3931 
Q 950 3725 888 3313 
L 325 3413 
Q 428 3978 793 4289 
Q 1159 4600 1703 4600 
Q 2078 4600 2393 4439 
Q 2709 4278 2876 4000 
Q 3044 3722 3044 3409 
Q 3044 3113 2884 2869 
Q 2725 2625 2413 2481 
Q 2819 2388 3044 2092 
Q 3269 1797 3269 1353 
Q 3269 753 2831 336 
Q 2394 -81 1725 -81 
Q 1122 -81 723 278 
Q 325 638 269 1209 
z
" transform="scale(0.015625)"/>
       </defs>
       <use xlink:href="#ArialMT-33"/>
       <use xlink:href="#ArialMT-30" x="55.615234"/>
      </g>
     </g>
    </g>
    <g id="text_8">
     <!-- Frequency (Hz) -->
     <g style="fill: #262626" transform="translate(180.059063 284.295469)scale(0.12 -0.12)">
      <defs>
       <path id="ArialMT-46" d="M 525 0 
L 525 4581 
L 3616 4581 
L 3616 4041 
L 1131 4041 
L 1131 2622 
L 3281 2622 
L 3281 2081 
L 1131 2081 
L 1131 0 
L 525 0 
z
" transform="scale(0.015625)"/>
       <path id="ArialMT-72" d="M 416 0 
L 416 3319 
L 922 3319 
L 922 2816 
Q 1116 3169 1280 3281 
Q 1444 3394 1641 3394 
Q 1925 3394 2219 3213 
L 2025 2691 
Q 1819 2813 1613 2813 
Q 1428 2813 1281 2702 
Q 1134 2591 1072 2394 
Q 978 2094 978 1738 
L 978 0 
L 416 0 
z
" transform="scale(0.015625)"/>
       <path id="ArialMT-65" d="M 2694 1069 
L 3275 997 
Q 3138 488 2766 206 
Q 2394 -75 1816 -75 
Q 1088 -75 661 373 
Q 234 822 234 1631 
Q 234 2469 665 2931 
Q 1097 3394 1784 3394 
Q 2450 3394 2872 2941 
Q 3294 2488 3294 1666 
Q 3294 1616 3291 1516 
L 816 1516 
Q 847 969 1125 678 
Q 1403 388 1819 388 
Q 2128 388 2347 550 
Q 2566 713 2694 1069 
z
M 847 1978 
L 2700 1978 
Q 2663 2397 2488 2606 
Q 2219 2931 1791 2931 
Q 1403 2931 1139 2672 
Q 875 2413 847 1978 
z
" transform="scale(0.015625)"/>
       <path id="ArialMT-71" d="M 2538 -1272 
L 2538 353 
Q 2406 169 2170 47 
Q 1934 -75 1669 -75 
Q 1078 -75 651 397 
Q 225 869 225 1691 
Q 225 2191 398 2587 
Q 572 2984 901 3189 
Q 1231 3394 1625 3394 
Q 2241 3394 2594 2875 
L 2594 3319 
L 3100 3319 
L 3100 -1272 
L 2538 -1272 
z
M 803 1669 
Q 803 1028 1072 708 
Q 1341 388 1716 388 
Q 2075 388 2334 692 
Q 2594 997 2594 1619 
Q 2594 2281 2320 2615 
Q 2047 2950 1678 2950 
Q 1313 2950 1058 2639 
Q 803 2328 803 1669 
z
" transform="scale(0.015625)"/>
       <path id="ArialMT-75" d="M 2597 0 
L 2597 488 
Q 2209 -75 1544 -75 
Q 1250 -75 995 37 
Q 741 150 617 320 
Q 494 491 444 738 
Q 409 903 409 1263 
L 409 3319 
L 972 3319 
L 972 1478 
Q 972 1038 1006 884 
Q 1059 663 1231 536 
Q 1403 409 1656 409 
Q 1909 409 2131 539 
Q 2353 669 2445 892 
Q 2538 1116 2538 1541 
L 2538 3319 
L 3100 3319 
L 3100 0 
L 2597 0 
z
" transform="scale(0.015625)"/>
       <path id="ArialMT-6e" d="M 422 0 
L 422 3319 
L 928 3319 
L 928 2847 
Q 1294 3394 1984 3394 
Q 2284 3394 2536 3286 
Q 2788 3178 2913 3003 
Q 3038 2828 3088 2588 
Q 3119 2431 3119 2041 
L 3119 0 
L 2556 0 
L 2556 2019 
Q 2556 2363 2490 2533 
Q 2425 2703 2258 2804 
Q 2091 2906 1866 2906 
Q 1506 2906 1245 2678 
Q 984 2450 984 1813 
L 984 0 
L 422 0 
z
" transform="scale(0.015625)"/>
       <path id="ArialMT-63" d="M 2588 1216 
L 3141 1144 
Q 3050 572 2676 248 
Q 2303 -75 1759 -75 
Q 1078 -75 664 370 
Q 250 816 250 1647 
Q 250 2184 428 2587 
Q 606 2991 970 3192 
Q 1334 3394 1763 3394 
Q 2303 3394 2647 3120 
Q 2991 2847 3088 2344 
L 2541 2259 
Q 2463 2594 2264 2762 
Q 2066 2931 1784 2931 
Q 1359 2931 1093 2626 
Q 828 2322 828 1663 
Q 828 994 1084 691 
Q 1341 388 1753 388 
Q 2084 388 2306 591 
Q 2528 794 2588 1216 
z
" transform="scale(0.015625)"/>
       <path id="ArialMT-79" d="M 397 -1278 
L 334 -750 
Q 519 -800 656 -800 
Q 844 -800 956 -737 
Q 1069 -675 1141 -563 
Q 1194 -478 1313 -144 
Q 1328 -97 1363 -6 
L 103 3319 
L 709 3319 
L 1400 1397 
Q 1534 1031 1641 628 
Q 1738 1016 1872 1384 
L 2581 3319 
L 3144 3319 
L 1881 -56 
Q 1678 -603 1566 -809 
Q 1416 -1088 1222 -1217 
Q 1028 -1347 759 -1347 
Q 597 -1347 397 -1278 
z
" transform="scale(0.015625)"/>
       <path id="ArialMT-20" transform="scale(0.015625)"/>
       <path id="ArialMT-28" d="M 1497 -1347 
Q 1031 -759 709 28 
Q 388 816 388 1659 
Q 388 2403 628 3084 
Q 909 3875 1497 4659 
L 1900 4659 
Q 1522 4009 1400 3731 
Q 1209 3300 1100 2831 
Q 966 2247 966 1656 
Q 966 153 1900 -1347 
L 1497 -1347 
z
" transform="scale(0.015625)"/>
       <path id="ArialMT-48" d="M 513 0 
L 513 4581 
L 1119 4581 
L 1119 2700 
L 3500 2700 
L 3500 4581 
L 4106 4581 
L 4106 0 
L 3500 0 
L 3500 2159 
L 1119 2159 
L 1119 0 
L 513 0 
z
" transform="scale(0.015625)"/>
       <path id="ArialMT-7a" d="M 125 0 
L 125 456 
L 2238 2881 
Q 1878 2863 1603 2863 
L 250 2863 
L 250 3319 
L 2963 3319 
L 2963 2947 
L 1166 841 
L 819 456 
Q 1197 484 1528 484 
L 3063 484 
L 3063 0 
L 125 0 
z
" transform="scale(0.015625)"/>
       <path id="ArialMT-29" d="M 791 -1347 
L 388 -1347 
Q 1322 153 1322 1656 
Q 1322 2244 1188 2822 
Q 1081 3291 891 3722 
Q 769 4003 388 4659 
L 791 4659 
Q 1378 3875 1659 3084 
Q 1900 2403 1900 1659 
Q 1900 816 1576 28 
Q 1253 -759 791 -1347 
z
" transform="scale(0.015625)"/>
      </defs>
      <use xlink:href="#ArialMT-46"/>
      <use xlink:href="#ArialMT-72" x="61.083984"/>
      <use xlink:href="#ArialMT-65" x="94.384766"/>
      <use xlink:href="#ArialMT-71" x="150"/>
      <use xlink:href="#ArialMT-75" x="205.615234"/>
      <use xlink:href="#ArialMT-65" x="261.230469"/>
      <use xlink:href="#ArialMT-6e" x="316.845703"/>
      <use xlink:href="#ArialMT-63" x="372.460938"/>
      <use xlink:href="#ArialMT-79" x="422.460938"/>
      <use xlink:href="#ArialMT-20" x="472.460938"/>
      <use xlink:href="#ArialMT-28" x="500.244141"/>
      <use xlink:href="#ArialMT-48" x="533.544922"/>
      <use xlink:href="#ArialMT-7a" x="605.761719"/>
      <use xlink:href="#ArialMT-29" x="655.761719"/>
     </g>
    </g>
   </g>
   <g id="matplotlib.axis_2">
    <g id="ytick_1">
     <g id="line2d_8">
      <defs>
       <path id="m7690838a0c" d="M 0 0 
L -6 0 
" style="stroke: #262626; stroke-width: 1.25"/>
      </defs>
      <g>
       <use xlink:href="#m7690838a0c" x="54" y="242.116364" style="fill: #262626; stroke: #262626; stroke-width: 1.25"/>
      </g>
     </g>
     <g id="text_9">
      <!-- 0.0 -->
      <g style="fill: #262626" transform="translate(29.21 246.053161)scale(0.11 -0.11)">
       <defs>
        <path id="ArialMT-2e" d="M 581 0 
L 581 641 
L 1222 641 
L 1222 0 
L 581 0 
z
" transform="scale(0.015625)"/>
       </defs>
       <use xlink:href="#ArialMT-30"/>
       <use xlink:href="#ArialMT-2e" x="55.615234"/>
       <use xlink:href="#ArialMT-30" x="83.398438"/>
      </g>
     </g>
    </g>
    <g id="ytick_2">
     <g id="line2d_9">
      <g>
       <use xlink:href="#m7690838a0c" x="54" y="202.581818" style="fill: #262626; stroke: #262626; stroke-width: 1.25"/>
      </g>
     </g>
     <g id="text_10">
      <!-- 0.2 -->
      <g style="fill: #262626" transform="translate(29.21 206.518615)scale(0.11 -0.11)">
       <use xlink:href="#ArialMT-30"/>
       <use xlink:href="#ArialMT-2e" x="55.615234"/>
       <use xlink:href="#ArialMT-32" x="83.398438"/>
      </g>
     </g>
    </g>
    <g id="ytick_3">
     <g id="line2d_10">
      <g>
       <use xlink:href="#m7690838a0c" x="54" y="163.047273" style="fill: #262626; stroke: #262626; stroke-width: 1.25"/>
      </g>
     </g>
     <g id="text_11">
      <!-- 0.4 -->
      <g style="fill: #262626" transform="translate(29.21 166.98407)scale(0.11 -0.11)">
       <defs>
        <path id="ArialMT-34" d="M 2069 0 
L 2069 1097 
L 81 1097 
L 81 1613 
L 2172 4581 
L 2631 4581 
L 2631 1613 
L 3250 1613 
L 3250 1097 
L 2631 1097 
L 2631 0 
L 2069 0 
z
M 2069 1613 
L 2069 3678 
L 634 1613 
L 2069 1613 
z
" transform="scale(0.015625)"/>
       </defs>
       <use xlink:href="#ArialMT-30"/>
       <use xlink:href="#ArialMT-2e" x="55.615234"/>
       <use xlink:href="#ArialMT-34" x="83.398438"/>
      </g>
     </g>
    </g>
    <g id="ytick_4">
     <g id="line2d_11">
      <g>
       <use xlink:href="#m7690838a0c" x="54" y="123.512727" style="fill: #262626; stroke: #262626; stroke-width: 1.25"/>
      </g>
     </g>
     <g id="text_12">
      <!-- 0.6 -->
      <g style="fill: #262626" transform="translate(29.21 127.449524)scale(0.11 -0.11)">
       <defs>
        <path id="ArialMT-36" d="M 3184 3459 
L 2625 3416 
Q 2550 3747 2413 3897 
Q 2184 4138 1850 4138 
Q 1581 4138 1378 3988 
Q 1113 3794 959 3422 
Q 806 3050 800 2363 
Q 1003 2672 1297 2822 
Q 1591 2972 1913 2972 
Q 2475 2972 2870 2558 
Q 3266 2144 3266 1488 
Q 3266 1056 3080 686 
Q 2894 316 2569 119 
Q 2244 -78 1831 -78 
Q 1128 -78 684 439 
Q 241 956 241 2144 
Q 241 3472 731 4075 
Q 1159 4600 1884 4600 
Q 2425 4600 2770 4297 
Q 3116 3994 3184 3459 
z
M 888 1484 
Q 888 1194 1011 928 
Q 1134 663 1356 523 
Q 1578 384 1822 384 
Q 2178 384 2434 671 
Q 2691 959 2691 1453 
Q 2691 1928 2437 2201 
Q 2184 2475 1800 2475 
Q 1419 2475 1153 2201 
Q 888 1928 888 1484 
z
" transform="scale(0.015625)"/>
       </defs>
       <use xlink:href="#ArialMT-30"/>
       <use xlink:href="#ArialMT-2e" x="55.615234"/>
       <use xlink:href="#ArialMT-36" x="83.398438"/>
      </g>
     </g>
    </g>
    <g id="ytick_5">
     <g id="line2d_12">
      <g>
       <use xlink:href="#m7690838a0c" x="54" y="83.978182" style="fill: #262626; stroke: #262626; stroke-width: 1.25"/>
      </g>
     </g>
     <g id="text_13">
      <!-- 0.8 -->
      <g style="fill: #262626" transform="translate(29.21 87.914979)scale(0.11 -0.11)">
       <defs>
        <path id="ArialMT-38" d="M 1131 2484 
Q 781 2613 612 2850 
Q 444 3088 444 3419 
Q 444 3919 803 4259 
Q 1163 4600 1759 4600 
Q 2359 4600 2725 4251 
Q 3091 3903 3091 3403 
Q 3091 3084 2923 2848 
Q 2756 2613 2416 2484 
Q 2838 2347 3058 2040 
Q 3278 1734 3278 1309 
Q 3278 722 2862 322 
Q 2447 -78 1769 -78 
Q 1091 -78 675 323 
Q 259 725 259 1325 
Q 259 1772 486 2073 
Q 713 2375 1131 2484 
z
M 1019 3438 
Q 1019 3113 1228 2906 
Q 1438 2700 1772 2700 
Q 2097 2700 2305 2904 
Q 2513 3109 2513 3406 
Q 2513 3716 2298 3927 
Q 2084 4138 1766 4138 
Q 1444 4138 1231 3931 
Q 1019 3725 1019 3438 
z
M 838 1322 
Q 838 1081 952 856 
Q 1066 631 1291 507 
Q 1516 384 1775 384 
Q 2178 384 2440 643 
Q 2703 903 2703 1303 
Q 2703 1709 2433 1975 
Q 2163 2241 1756 2241 
Q 1359 2241 1098 1978 
Q 838 1716 838 1322 
z
" transform="scale(0.015625)"/>
       </defs>
       <use xlink:href="#ArialMT-30"/>
       <use xlink:href="#ArialMT-2e" x="55.615234"/>
       <use xlink:href="#ArialMT-38" x="83.398438"/>
      </g>
     </g>
    </g>
    <g id="ytick_6">
     <g id="line2d_13">
      <g>
       <use xlink:href="#m7690838a0c" x="54" y="44.443636" style="fill: #262626; stroke: #262626; stroke-width: 1.25"/>
      </g>
     </g>
     <g id="text_14">
      <!-- 1.0 -->
      <g style="fill: #262626" transform="translate(29.21 48.380433)scale(0.11 -0.11)">
       <use xlink:href="#ArialMT-31"/>
       <use xlink:href="#ArialMT-2e" x="55.615234"/>
       <use xlink:href="#ArialMT-30" x="83.398438"/>
      </g>
     </g>
    </g>
   </g>
   <g id="line2d_14">
    <path d="M 54 241.245867 
L 83.396049 241.134281 
L 104.393227 240.855446 
L 119.091251 240.453814 
L 129.58984 239.964492 
L 139.03857 239.298989 
L 147.437441 238.511158 
L 151.636877 237.894994 
L 153.736595 237.355749 
L 154.786453 236.903952 
L 155.836312 236.221083 
L 156.886171 235.376012 
L 157.93603 234.179402 
L 158.985889 232.402729 
L 160.035748 229.979395 
L 161.085607 226.655398 
L 163.185325 216.25133 
L 164.235183 208.757342 
L 166.334901 186.140401 
L 167.38476 178.396156 
L 169.484478 159.11979 
L 170.534337 146.448805 
L 171.584196 137.362747 
L 173.683913 115.530969 
L 174.733772 105.676995 
L 175.783631 104.521046 
L 176.83349 103.128851 
L 177.883349 96.608392 
L 178.933208 84.545341 
L 179.983067 84.001488 
L 181.032926 79.103937 
L 182.082785 67.228667 
L 183.132643 68.507361 
L 184.182502 70.201457 
L 185.232361 68.735452 
L 186.28222 63.795399 
L 187.332079 56.146683 
L 188.381938 56.011449 
L 189.431797 57.060875 
L 190.481656 50.193772 
L 191.531515 53.007102 
L 192.581373 51.481171 
L 193.631232 55.989768 
L 194.681091 47.565601 
L 195.73095 50.498733 
L 196.780809 49.438817 
L 198.880527 45.056098 
L 199.930386 46.130178 
L 200.980245 44.443636 
L 202.030103 49.930722 
L 203.079962 48.01349 
L 204.129821 50.058031 
L 205.17968 53.597287 
L 206.229539 50.578675 
L 207.279398 53.940748 
L 208.329257 61.545906 
L 209.379116 61.918689 
L 211.478833 60.788719 
L 212.528692 63.596242 
L 213.578551 66.821578 
L 214.62841 67.315346 
L 215.678269 69.994995 
L 216.728128 78.493417 
L 217.777987 80.892805 
L 218.827846 84.501031 
L 219.877705 83.980645 
L 220.927563 86.3546 
L 221.977422 87.759773 
L 223.027281 88.784228 
L 224.07714 98.166015 
L 225.126999 116.210018 
L 227.226717 72.418936 
L 228.276576 82.334579 
L 229.326435 114.38559 
L 230.376294 108.274838 
L 231.426152 118.156904 
L 232.476011 124.886425 
L 233.52587 130.402607 
L 234.575729 132.148719 
L 235.625588 133.027532 
L 236.675447 134.915368 
L 237.725306 139.027176 
L 238.775165 142.160474 
L 239.825024 143.012962 
L 240.874882 147.87914 
L 241.924741 151.781821 
L 242.9746 153.379141 
L 246.124177 162.409157 
L 249.273754 169.003682 
L 250.323612 172.603173 
L 251.373471 175.333966 
L 252.42333 177.131705 
L 253.473189 179.694923 
L 254.523048 181.130827 
L 255.572907 183.358308 
L 256.622766 184.58139 
L 257.672625 187.637894 
L 258.722484 189.070282 
L 259.772342 192.087773 
L 262.921919 198.587114 
L 263.971778 200.414233 
L 265.021637 203.266245 
L 267.121355 206.697085 
L 269.221072 211.959636 
L 270.270931 214.178946 
L 271.32079 215.705396 
L 273.420508 220.317912 
L 276.570085 226.219332 
L 278.669802 229.553617 
L 281.819379 233.612104 
L 283.919097 235.737716 
L 286.018815 237.356564 
L 288.118532 238.558919 
L 290.21825 239.479955 
L 292.317968 240.163437 
L 295.467545 240.852566 
L 299.66698 241.396477 
L 303.866416 241.692721 
L 310.165569 241.910829 
L 321.714017 242.040959 
L 355.309501 242.094098 
L 388.904986 242.10405 
L 388.904986 242.10405 
" clip-path="url(#pd577025b1d)" style="fill: none; stroke: #4c72b0; stroke-opacity: 0.3; stroke-width: 1.5; stroke-linecap: round"/>
   </g>
   <g id="line2d_15">
    <path d="M 54 241.242961 
L 83.396049 241.130663 
L 104.393227 240.849883 
L 119.091251 240.445078 
L 129.58984 239.951366 
L 139.03857 239.279188 
L 147.437441 238.47911 
L 151.636877 237.864728 
L 153.736595 237.301382 
L 154.786453 236.83619 
L 155.836312 236.224356 
L 156.886171 235.282845 
L 157.93603 234.101692 
L 158.985889 232.342015 
L 160.035748 229.749588 
L 161.085607 226.425115 
L 162.135466 221.69044 
L 163.185325 216.350903 
L 164.235183 208.619454 
L 165.285042 199.305604 
L 166.334901 188.953422 
L 167.38476 177.237142 
L 168.434619 167.159983 
L 170.534337 144.83405 
L 172.634055 126.396447 
L 174.733772 109.721635 
L 175.783631 103.719908 
L 176.83349 96.436728 
L 177.883349 92.196514 
L 178.933208 85.935511 
L 179.983067 82.755204 
L 181.032926 78.956789 
L 182.082785 73.047741 
L 183.132643 70.062975 
L 184.182502 64.826878 
L 185.232361 63.565287 
L 186.28222 61.303009 
L 187.332079 56.097208 
L 188.381938 55.588974 
L 189.431797 51.910917 
L 190.481656 50.233136 
L 191.531515 47.43906 
L 192.581373 48.622219 
L 193.631232 46.774039 
L 194.681091 46.911979 
L 195.73095 44.74283 
L 197.830668 44.443636 
L 198.880527 44.836192 
L 199.930386 46.299662 
L 200.980245 46.116708 
L 202.030103 47.332305 
L 203.079962 47.841153 
L 204.129821 48.848156 
L 205.17968 49.572923 
L 206.229539 51.318295 
L 207.279398 52.121829 
L 208.329257 54.285291 
L 209.379116 56.019116 
L 210.428975 58.06655 
L 212.528692 62.763839 
L 214.62841 67.903912 
L 217.777987 75.015871 
L 218.827846 78.852141 
L 219.877705 81.911734 
L 220.927563 84.186648 
L 221.977422 88.331762 
L 224.07714 92.620536 
L 225.126999 96.281418 
L 226.176858 104.807868 
L 227.226717 99.97406 
L 228.276576 107.61321 
L 229.326435 111.046606 
L 230.376294 112.613292 
L 231.426152 115.248153 
L 232.476011 119.532563 
L 233.52587 122.937853 
L 234.575729 126.854668 
L 235.625588 129.773432 
L 236.675447 133.367588 
L 237.725306 135.738629 
L 238.775165 139.170939 
L 239.825024 141.719252 
L 242.9746 151.30813 
L 244.024459 153.597301 
L 247.174036 162.439576 
L 250.323612 169.94304 
L 251.373471 172.54591 
L 252.42333 175.451484 
L 253.473189 177.704789 
L 254.523048 179.615426 
L 255.572907 182.485986 
L 256.622766 183.793267 
L 258.722484 188.751791 
L 260.822201 192.814122 
L 262.921919 197.719941 
L 266.071496 204.222848 
L 267.121355 206.67859 
L 269.221072 211.132142 
L 272.370649 218.031809 
L 277.619944 227.841358 
L 279.719661 230.985514 
L 280.76952 232.39854 
L 282.869238 234.682079 
L 284.968956 236.537365 
L 287.068674 237.976558 
L 289.168391 239.026123 
L 291.268109 239.827574 
L 294.417686 240.640602 
L 297.567262 241.158036 
L 301.766698 241.562061 
L 307.015992 241.822242 
L 315.414864 241.99139 
L 333.262465 242.075202 
L 388.904986 242.104011 
L 388.904986 242.104011 
" clip-path="url(#pd577025b1d)" style="fill: none; stroke: #dd8452; stroke-opacity: 0.3; stroke-width: 1.5; stroke-linecap: round"/>
   </g>
   <g id="line2d_16">
    <path d="M 54 241.240549 
L 83.396049 241.127941 
L 104.393227 240.846389 
L 119.091251 240.440479 
L 129.58984 239.945448 
L 139.03857 239.271844 
L 147.437441 238.467335 
L 150.587018 238.041336 
L 152.686736 237.607993 
L 154.786453 236.842271 
L 155.836312 236.222616 
L 156.886171 235.351715 
L 157.93603 234.08694 
L 158.985889 232.301144 
L 160.035748 229.787401 
L 161.085607 226.27399 
L 162.135466 221.693165 
L 163.185325 215.774246 
L 164.235183 208.170764 
L 165.285042 199.293925 
L 167.38476 177.504366 
L 169.484478 155.496895 
L 172.634055 125.994839 
L 173.683913 116.833619 
L 174.733772 108.721565 
L 175.783631 101.5719 
L 176.83349 96.894357 
L 177.883349 91.554091 
L 178.933208 85.578061 
L 179.983067 81.34494 
L 181.032926 76.45435 
L 184.182502 66.121844 
L 185.232361 63.056639 
L 186.28222 60.36044 
L 187.332079 58.470914 
L 188.381938 54.315895 
L 189.431797 53.723965 
L 190.481656 50.467688 
L 191.531515 48.985245 
L 192.581373 47.972607 
L 193.631232 48.638498 
L 194.681091 46.291696 
L 195.73095 46.500401 
L 196.780809 45.839958 
L 197.830668 44.727367 
L 198.880527 44.443636 
L 199.930386 45.346255 
L 200.980245 46.083729 
L 203.079962 47.993449 
L 204.129821 48.224666 
L 205.17968 49.463906 
L 206.229539 51.568235 
L 207.279398 51.585176 
L 208.329257 54.8161 
L 209.379116 57.042614 
L 210.428975 57.704907 
L 211.478833 59.846762 
L 212.528692 61.263473 
L 213.578551 64.862767 
L 214.62841 67.377333 
L 215.678269 69.323966 
L 218.827846 78.529404 
L 219.877705 81.140165 
L 220.927563 84.792788 
L 221.977422 87.708421 
L 224.07714 92.779819 
L 225.126999 94.698226 
L 226.176858 100.69332 
L 227.226717 102.741432 
L 228.276576 108.474026 
L 229.326435 110.260189 
L 230.376294 113.069246 
L 232.476011 119.766574 
L 233.52587 122.58344 
L 234.575729 126.229352 
L 235.625588 129.033754 
L 237.725306 135.983044 
L 238.775165 138.12719 
L 239.825024 141.779476 
L 241.924741 148.016419 
L 242.9746 150.545207 
L 244.024459 153.576553 
L 249.273754 167.037222 
L 250.323612 170.037852 
L 251.373471 172.566467 
L 252.42333 174.586004 
L 253.473189 177.444153 
L 259.772342 190.827536 
L 260.822201 193.549902 
L 262.921919 197.648683 
L 263.971778 200.186424 
L 267.121355 206.5987 
L 273.420508 220.173901 
L 276.570085 226.051617 
L 278.669802 229.463463 
L 280.76952 232.32974 
L 282.869238 234.732496 
L 284.968956 236.57291 
L 287.068674 237.96238 
L 289.168391 239.033846 
L 291.268109 239.823899 
L 293.367827 240.411663 
L 296.517404 241.012612 
L 300.716839 241.483266 
L 305.966134 241.784123 
L 314.365005 241.978686 
L 331.162747 242.071365 
L 388.904986 242.103992 
L 388.904986 242.103992 
" clip-path="url(#pd577025b1d)" style="fill: none; stroke: #55a868; stroke-opacity: 0.3; stroke-width: 1.5; stroke-linecap: round"/>
   </g>
   <g id="line2d_17">
    <path d="M 54 242.033493 
L 104.393227 241.923793 
L 125.390405 241.687291 
L 135.888993 241.379495 
L 142.188147 240.99535 
L 145.337723 240.651144 
L 148.4873 240.026028 
L 150.587018 239.331081 
L 152.686736 238.139797 
L 153.736595 237.251401 
L 154.786453 236.051797 
L 155.836312 234.369957 
L 156.886171 232.297246 
L 157.93603 229.760002 
L 158.985889 226.04888 
L 160.035748 221.290147 
L 161.085607 215.082739 
L 162.135466 206.705383 
L 164.235183 185.590398 
L 166.334901 159.957414 
L 167.38476 146.655238 
L 168.434619 137.43201 
L 169.484478 126.936032 
L 170.534337 108.956188 
L 171.584196 98.129594 
L 172.634055 92.955298 
L 174.733772 79.224804 
L 175.783631 77.093336 
L 176.83349 76.744827 
L 178.933208 64.055745 
L 179.983067 59.918685 
L 181.032926 59.916638 
L 182.082785 58.54203 
L 183.132643 60.088097 
L 184.182502 61.992166 
L 185.232361 62.031526 
L 186.28222 60.979753 
L 187.332079 54.713404 
L 188.381938 44.443636 
L 189.431797 50.958076 
L 190.481656 59.854093 
L 191.531515 65.546272 
L 192.581373 60.188529 
L 193.631232 59.60809 
L 194.681091 55.92327 
L 195.73095 49.816337 
L 196.780809 56.396562 
L 197.830668 58.731756 
L 198.880527 63.564526 
L 199.930386 65.243788 
L 200.980245 65.113637 
L 202.030103 65.357903 
L 203.079962 69.560313 
L 204.129821 71.154385 
L 205.17968 73.813104 
L 206.229539 77.64717 
L 207.279398 81.023004 
L 208.329257 82.266732 
L 209.379116 79.117003 
L 211.478833 88.009964 
L 212.528692 89.154973 
L 213.578551 93.15603 
L 214.62841 99.793268 
L 215.678269 102.403061 
L 216.728128 99.566639 
L 217.777987 101.903011 
L 218.827846 100.128795 
L 219.877705 102.485365 
L 220.927563 105.329788 
L 221.977422 114.692247 
L 223.027281 116.866506 
L 224.07714 119.842224 
L 225.126999 105.175592 
L 226.176858 83.182718 
L 227.226717 154.959025 
L 228.276576 119.972605 
L 229.326435 121.082267 
L 230.376294 139.613949 
L 231.426152 141.919609 
L 232.476011 138.694451 
L 233.52587 133.841777 
L 234.575729 138.42203 
L 235.625588 136.84846 
L 236.675447 139.467368 
L 237.725306 140.184988 
L 238.775165 143.333017 
L 239.825024 147.717229 
L 240.874882 146.394399 
L 241.924741 147.762365 
L 242.9746 149.541977 
L 244.024459 150.357872 
L 246.124177 152.832098 
L 248.223895 157.086184 
L 249.273754 157.713904 
L 250.323612 157.832359 
L 251.373471 159.504651 
L 252.42333 161.434184 
L 253.473189 162.816063 
L 255.572907 166.56136 
L 256.622766 168.693763 
L 257.672625 169.655472 
L 258.722484 171.521121 
L 259.772342 172.934964 
L 260.822201 176.192722 
L 261.87206 177.371105 
L 265.021637 184.604105 
L 266.071496 187.533277 
L 267.121355 191.051258 
L 268.171214 193.273103 
L 269.221072 195.973834 
L 270.270931 199.106523 
L 271.32079 203.420506 
L 272.370649 206.144341 
L 273.420508 209.255224 
L 275.520226 215.914329 
L 276.570085 218.535717 
L 278.669802 224.16694 
L 279.719661 226.617182 
L 281.819379 230.676675 
L 283.919097 233.798488 
L 286.018815 236.189605 
L 288.118532 237.99514 
L 290.21825 239.268587 
L 292.317968 240.138369 
L 294.417686 240.75115 
L 297.567262 241.314598 
L 300.716839 241.610272 
L 305.966134 241.822911 
L 315.414864 241.904134 
L 388.904986 242.032326 
L 388.904986 242.032326 
" clip-path="url(#pd577025b1d)" style="fill: none; stroke: #c44e52; stroke-opacity: 0.3; stroke-width: 1.5; stroke-linecap: round"/>
   </g>
   <g id="line2d_18">
    <path d="M 54 242.033888 
L 103.343368 241.927155 
L 124.340546 241.697098 
L 134.839135 241.403015 
L 141.138288 241.048206 
L 145.337723 240.599518 
L 147.437441 240.221832 
L 149.537159 239.633993 
L 150.587018 239.222836 
L 151.636877 238.687611 
L 152.686736 237.990738 
L 153.736595 237.062412 
L 154.786453 235.839116 
L 155.836312 234.195297 
L 156.886171 231.989353 
L 157.93603 229.172496 
L 158.985889 225.305173 
L 160.035748 220.406204 
L 161.085607 213.975446 
L 162.135466 205.930432 
L 163.185325 195.864161 
L 165.285042 170.562672 
L 167.38476 141.955194 
L 169.484478 117.65243 
L 170.534337 103.397644 
L 171.584196 92.606332 
L 174.733772 73.50593 
L 175.783631 68.218946 
L 177.883349 61.07412 
L 178.933208 56.89783 
L 179.983067 54.402175 
L 181.032926 53.567443 
L 182.082785 50.9264 
L 183.132643 50.258053 
L 184.182502 47.32419 
L 185.232361 48.808047 
L 186.28222 46.918232 
L 187.332079 45.578912 
L 188.381938 46.447396 
L 189.431797 45.313468 
L 190.481656 46.317497 
L 191.531515 44.443636 
L 192.581373 47.738289 
L 193.631232 47.657497 
L 194.681091 49.951177 
L 195.73095 49.660785 
L 197.830668 53.654684 
L 198.880527 54.100975 
L 199.930386 56.440037 
L 200.980245 57.489701 
L 202.030103 59.917621 
L 203.079962 61.014296 
L 204.129821 63.351084 
L 205.17968 66.456717 
L 206.229539 68.000682 
L 207.279398 71.027821 
L 213.578551 86.799282 
L 214.62841 90.145764 
L 215.678269 90.781515 
L 216.728128 94.830678 
L 217.777987 97.005153 
L 218.827846 100.751557 
L 219.877705 102.642323 
L 220.927563 105.479911 
L 221.977422 106.544563 
L 224.07714 112.70317 
L 225.126999 117.801394 
L 226.176858 113.56267 
L 227.226717 115.485058 
L 228.276576 116.763647 
L 229.326435 123.891917 
L 230.376294 125.984464 
L 231.426152 128.367752 
L 233.52587 132.177092 
L 234.575729 133.494055 
L 235.625588 135.407255 
L 236.675447 136.517495 
L 237.725306 138.75837 
L 238.775165 140.517429 
L 239.825024 141.874616 
L 240.874882 143.696037 
L 242.9746 146.684015 
L 245.074318 149.293781 
L 246.124177 150.567155 
L 247.174036 151.402942 
L 248.223895 153.8088 
L 249.273754 154.4975 
L 250.323612 156.619876 
L 251.373471 157.935882 
L 252.42333 158.832405 
L 253.473189 160.093856 
L 254.523048 162.235166 
L 255.572907 163.509594 
L 256.622766 165.506769 
L 258.722484 168.85804 
L 259.772342 170.801308 
L 261.87206 175.100967 
L 262.921919 177.339658 
L 266.071496 184.922842 
L 268.171214 191.311533 
L 272.370649 204.409919 
L 274.470367 211.443992 
L 277.619944 220.540045 
L 279.719661 225.686025 
L 281.819379 229.975752 
L 282.869238 231.7963 
L 284.968956 234.710668 
L 286.018815 235.89756 
L 288.118532 237.756229 
L 290.21825 239.087676 
L 292.317968 240.027143 
L 294.417686 240.66572 
L 296.517404 241.09785 
L 299.66698 241.48917 
L 303.866416 241.73803 
L 310.165569 241.861521 
L 332.212606 241.925206 
L 388.904986 242.026803 
L 388.904986 242.026803 
" clip-path="url(#pd577025b1d)" style="fill: none; stroke: #8172b3; stroke-opacity: 0.3; stroke-width: 1.5; stroke-linecap: round"/>
   </g>
   <g id="line2d_19">
    <path d="M 54 242.033515 
L 103.343368 241.926197 
L 124.340546 241.694796 
L 134.839135 241.398892 
L 141.138288 241.041556 
L 145.337723 240.589443 
L 147.437441 240.209057 
L 149.537159 239.62048 
L 150.587018 239.201903 
L 151.636877 238.661512 
L 152.686736 237.960797 
L 153.736595 237.037206 
L 154.786453 235.800224 
L 155.836312 234.169889 
L 156.886171 231.974234 
L 157.93603 229.042603 
L 158.985889 225.128987 
L 160.035748 220.098609 
L 161.085607 213.525155 
L 162.135466 205.386173 
L 163.185325 195.508666 
L 164.235183 183.960666 
L 169.484478 115.559585 
L 171.584196 93.964715 
L 173.683913 76.643886 
L 174.733772 70.626964 
L 175.783631 67.174484 
L 176.83349 62.795655 
L 177.883349 59.463799 
L 178.933208 57.500394 
L 181.032926 50.907616 
L 182.082785 50.035605 
L 183.132643 48.762184 
L 184.182502 48.682611 
L 185.232361 47.126105 
L 186.28222 46.725326 
L 187.332079 44.647081 
L 188.381938 44.443636 
L 189.431797 45.197596 
L 191.531515 47.436247 
L 192.581373 46.7562 
L 193.631232 47.161411 
L 194.681091 46.618022 
L 195.73095 47.939446 
L 196.780809 49.722243 
L 198.880527 53.743015 
L 200.980245 57.503208 
L 202.030103 58.797128 
L 203.079962 61.337216 
L 204.129821 63.442218 
L 205.17968 65.057564 
L 206.229539 67.014772 
L 207.279398 70.341634 
L 208.329257 73.261034 
L 209.379116 75.196089 
L 210.428975 78.05132 
L 211.478833 79.917325 
L 212.528692 83.537717 
L 213.578551 86.461273 
L 214.62841 88.517909 
L 215.678269 91.637889 
L 216.728128 93.745901 
L 217.777987 96.502523 
L 218.827846 98.734294 
L 219.877705 102.485457 
L 220.927563 104.267928 
L 223.027281 109.784208 
L 224.07714 111.557444 
L 225.126999 115.780099 
L 226.176858 117.818636 
L 227.226717 118.630552 
L 228.276576 120.276367 
L 229.326435 123.532411 
L 230.376294 125.117318 
L 233.52587 131.354203 
L 234.575729 133.053895 
L 235.625588 135.259081 
L 237.725306 138.100227 
L 238.775165 140.421104 
L 240.874882 142.695605 
L 241.924741 144.464622 
L 242.9746 145.901273 
L 244.024459 147.658208 
L 246.124177 150.291132 
L 247.174036 152.098798 
L 249.273754 154.576116 
L 250.323612 155.402488 
L 253.473189 160.356132 
L 254.523048 161.517917 
L 255.572907 163.464014 
L 256.622766 165.008617 
L 258.722484 168.815798 
L 259.772342 171.050038 
L 260.822201 172.657932 
L 262.921919 176.99729 
L 265.021637 182.193959 
L 268.171214 191.189148 
L 271.32079 201.040542 
L 273.420508 207.803671 
L 276.570085 217.443903 
L 278.669802 223.129344 
L 280.76952 227.916165 
L 281.819379 229.956186 
L 283.919097 233.292048 
L 286.018815 235.849263 
L 288.118532 237.729415 
L 290.21825 239.073566 
L 292.317968 240.006426 
L 294.417686 240.652937 
L 296.517404 241.088604 
L 299.66698 241.484641 
L 303.866416 241.736108 
L 311.215428 241.868172 
L 342.711195 241.951493 
L 388.904986 242.026471 
L 388.904986 242.026471 
" clip-path="url(#pd577025b1d)" style="fill: none; stroke: #937860; stroke-opacity: 0.3; stroke-width: 1.5; stroke-linecap: round"/>
   </g>
   <g id="line2d_20">
    <path d="M 54 241.837599 
L 89.695202 241.72386 
L 108.592662 241.468203 
L 119.091251 241.139905 
L 126.440263 240.713548 
L 131.689558 240.205752 
L 135.888993 239.572011 
L 139.03857 238.870329 
L 141.138288 238.229387 
L 143.238006 237.380493 
L 145.337723 236.242508 
L 146.387582 235.547416 
L 148.4873 233.670928 
L 149.537159 232.432833 
L 150.587018 230.950566 
L 151.636877 229.208815 
L 152.686736 226.998663 
L 153.736595 224.322555 
L 154.786453 221.088741 
L 155.836312 217.285254 
L 156.886171 212.236444 
L 157.93603 205.487508 
L 158.985889 197.682082 
L 160.035748 188.0201 
L 162.135466 165.834332 
L 163.185325 152.760878 
L 165.285042 120.039702 
L 168.434619 70.92286 
L 169.484478 58.364636 
L 170.534337 61.043073 
L 171.584196 62.29649 
L 172.634055 53.184659 
L 173.683913 49.857918 
L 174.733772 52.952219 
L 175.783631 49.887413 
L 176.83349 44.443636 
L 177.883349 51.103092 
L 178.933208 61.892478 
L 179.983067 63.429444 
L 181.032926 59.910075 
L 182.082785 61.505568 
L 183.132643 64.379609 
L 184.182502 59.004703 
L 185.232361 60.213778 
L 186.28222 65.478319 
L 187.332079 72.638801 
L 188.381938 82.946298 
L 189.431797 74.61415 
L 190.481656 72.744534 
L 191.531515 65.916314 
L 192.581373 75.52371 
L 193.631232 71.209218 
L 194.681091 83.94019 
L 195.73095 89.814349 
L 196.780809 88.389544 
L 197.830668 87.693642 
L 198.880527 89.869374 
L 199.930386 90.775046 
L 200.980245 96.402267 
L 203.079962 97.30958 
L 204.129821 100.631229 
L 205.17968 97.136952 
L 206.229539 103.119914 
L 207.279398 102.030844 
L 208.329257 102.119339 
L 209.379116 107.992418 
L 210.428975 108.581455 
L 211.478833 113.285121 
L 212.528692 116.880044 
L 213.578551 115.257853 
L 214.62841 116.470377 
L 215.678269 118.240737 
L 216.728128 118.801245 
L 217.777987 119.200738 
L 218.827846 124.849412 
L 219.877705 129.602249 
L 220.927563 132.63964 
L 221.977422 132.009034 
L 223.027281 137.681237 
L 225.126999 123.885112 
L 226.176858 171.002589 
L 227.226717 152.0021 
L 228.276576 176.075789 
L 229.326435 147.383758 
L 230.376294 145.129656 
L 231.426152 136.464626 
L 232.476011 136.861 
L 233.52587 144.997915 
L 234.575729 144.864633 
L 235.625588 154.561711 
L 236.675447 160.154044 
L 237.725306 157.993584 
L 239.825024 161.958433 
L 240.874882 164.100119 
L 241.924741 162.824055 
L 242.9746 164.97203 
L 244.024459 170.224757 
L 245.074318 169.978397 
L 246.124177 173.29416 
L 247.174036 175.511549 
L 248.223895 176.684588 
L 249.273754 178.619161 
L 250.323612 179.555068 
L 253.473189 184.916856 
L 256.622766 192.050854 
L 257.672625 192.478454 
L 259.772342 196.356525 
L 261.87206 200.296502 
L 262.921919 201.695851 
L 263.971778 203.765985 
L 265.021637 204.866811 
L 266.071496 207.899384 
L 268.171214 212.31087 
L 269.221072 213.672692 
L 270.270931 215.948627 
L 271.32079 218.524994 
L 272.370649 220.164249 
L 275.520226 225.955195 
L 276.570085 227.498245 
L 277.619944 229.592341 
L 278.669802 231.087271 
L 281.819379 234.803137 
L 283.919097 236.689351 
L 286.018815 238.081024 
L 288.118532 239.200049 
L 290.21825 240.00776 
L 292.317968 240.582499 
L 294.417686 241.016687 
L 297.567262 241.450009 
L 302.816557 241.815242 
L 309.11571 241.996617 
L 321.714017 242.094685 
L 373.157103 242.116283 
L 388.904986 242.116352 
L 388.904986 242.116352 
" clip-path="url(#pd577025b1d)" style="fill: none; stroke: #da8bc3; stroke-opacity: 0.3; stroke-width: 1.5; stroke-linecap: round"/>
   </g>
   <g id="line2d_21">
    <path d="M 54 241.823876 
L 88.645343 241.713943 
L 107.542803 241.463734 
L 119.091251 241.100712 
L 126.440263 240.660044 
L 131.689558 240.135795 
L 135.888993 239.482314 
L 139.03857 238.75775 
L 141.138288 238.098282 
L 143.238006 237.2286 
L 145.337723 236.058349 
L 146.387582 235.322586 
L 147.437441 234.441834 
L 148.4873 233.401105 
L 149.537159 232.154654 
L 150.587018 230.636782 
L 151.636877 228.795231 
L 152.686736 226.548813 
L 153.736595 223.800041 
L 154.786453 220.398641 
L 155.836312 216.218882 
L 156.886171 211.081675 
L 157.93603 204.532398 
L 158.985889 196.741184 
L 160.035748 187.035835 
L 161.085607 175.528778 
L 162.135466 162.442726 
L 164.235183 132.507058 
L 166.334901 100.041886 
L 168.434619 70.233615 
L 169.484478 60.272728 
L 170.534337 54.337032 
L 171.584196 52.241343 
L 172.634055 46.845964 
L 173.683913 44.443636 
L 174.733772 45.126789 
L 175.783631 45.668493 
L 176.83349 46.953464 
L 177.883349 48.94001 
L 178.933208 51.77431 
L 179.983067 54.967374 
L 181.032926 54.966902 
L 182.082785 56.868417 
L 183.132643 58.319334 
L 184.182502 61.937922 
L 185.232361 62.004477 
L 186.28222 65.015994 
L 187.332079 68.40949 
L 188.381938 67.436875 
L 189.431797 71.251572 
L 190.481656 71.77075 
L 191.531515 76.199182 
L 192.581373 73.781088 
L 193.631232 78.020979 
L 194.681091 77.961494 
L 195.73095 81.045662 
L 196.780809 81.542687 
L 197.830668 81.097162 
L 198.880527 84.86706 
L 199.930386 85.344577 
L 200.980245 87.782679 
L 203.079962 91.992071 
L 204.129821 94.408059 
L 205.17968 95.397288 
L 207.279398 98.742141 
L 208.329257 101.619531 
L 210.428975 105.056514 
L 213.578551 110.611342 
L 217.777987 120.37973 
L 218.827846 121.54449 
L 219.877705 121.355088 
L 220.927563 123.949311 
L 221.977422 126.985745 
L 223.027281 128.74955 
L 224.07714 133.239167 
L 225.126999 133.84284 
L 226.176858 126.100892 
L 227.226717 141.404288 
L 228.276576 134.179432 
L 229.326435 140.368715 
L 230.376294 144.641528 
L 231.426152 148.206629 
L 233.52587 150.37383 
L 234.575729 152.611275 
L 235.625588 153.349519 
L 236.675447 154.959117 
L 237.725306 157.01304 
L 238.775165 159.723908 
L 239.825024 161.30167 
L 241.924741 165.559713 
L 242.9746 167.293169 
L 244.024459 169.384815 
L 245.074318 170.510772 
L 246.124177 172.429536 
L 249.273754 177.516946 
L 250.323612 179.74832 
L 251.373471 181.609916 
L 252.42333 182.662994 
L 253.473189 184.733052 
L 256.622766 189.714669 
L 257.672625 191.917071 
L 261.87206 198.606016 
L 262.921919 201.095935 
L 263.971778 202.87072 
L 266.071496 206.946693 
L 267.121355 208.738993 
L 268.171214 210.979414 
L 269.221072 212.904883 
L 271.32079 217.200003 
L 274.470367 223.512693 
L 276.570085 227.333978 
L 279.719661 231.948876 
L 280.76952 233.28921 
L 282.869238 235.500221 
L 284.968956 237.260241 
L 287.068674 238.555901 
L 289.168391 239.541391 
L 291.268109 240.253343 
L 293.367827 240.778787 
L 296.517404 241.297663 
L 300.716839 241.68686 
L 305.966134 241.920558 
L 315.414864 242.064614 
L 339.561618 242.11344 
L 388.904986 242.116352 
L 388.904986 242.116352 
" clip-path="url(#pd577025b1d)" style="fill: none; stroke: #8c8c8c; stroke-opacity: 0.3; stroke-width: 1.5; stroke-linecap: round"/>
   </g>
   <g id="line2d_22">
    <path d="M 54 241.823273 
L 88.645343 241.712784 
L 107.542803 241.461172 
L 119.091251 241.095919 
L 126.440263 240.652359 
L 131.689558 240.124604 
L 135.888993 239.466644 
L 139.03857 238.736511 
L 141.138288 238.072607 
L 143.238006 237.198274 
L 145.337723 236.017842 
L 146.387582 235.271583 
L 147.437441 234.388116 
L 148.4873 233.337946 
L 149.537159 232.077662 
L 150.587018 230.555638 
L 151.636877 228.707451 
L 152.686736 226.44204 
L 153.736595 223.65653 
L 154.786453 220.229232 
L 155.836312 215.963577 
L 156.886171 210.750849 
L 157.93603 204.2811 
L 158.985889 196.439872 
L 160.035748 186.848168 
L 161.085607 175.498338 
L 162.135466 162.126254 
L 163.185325 147.114836 
L 166.334901 98.38598 
L 167.38476 82.831475 
L 168.434619 70.424064 
L 169.484478 59.5257 
L 170.534337 52.18546 
L 171.584196 47.33509 
L 172.634055 44.977664 
L 173.683913 44.443636 
L 174.733772 45.399528 
L 175.783631 44.747563 
L 176.83349 46.034984 
L 177.883349 46.258826 
L 178.933208 48.924082 
L 179.983067 50.670459 
L 181.032926 53.205955 
L 182.082785 54.594667 
L 183.132643 56.954352 
L 184.182502 58.849613 
L 186.28222 61.601651 
L 187.332079 64.719961 
L 188.381938 66.761184 
L 189.431797 67.80631 
L 190.481656 69.282753 
L 191.531515 70.184461 
L 192.581373 72.53872 
L 193.631232 74.016844 
L 194.681091 77.197907 
L 195.73095 79.184939 
L 196.780809 81.49522 
L 200.980245 87.664305 
L 202.030103 89.554969 
L 203.079962 91.147282 
L 204.129821 93.494356 
L 205.17968 95.517831 
L 206.229539 98.196654 
L 207.279398 100.483308 
L 208.329257 100.110638 
L 209.379116 102.539467 
L 210.428975 104.611014 
L 211.478833 107.872182 
L 212.528692 109.641741 
L 213.578551 110.043592 
L 214.62841 111.719442 
L 215.678269 114.936388 
L 216.728128 115.890223 
L 217.777987 118.699369 
L 223.027281 128.403478 
L 224.07714 131.682695 
L 225.126999 133.388267 
L 226.176858 132.507296 
L 227.226717 135.875013 
L 228.276576 136.165868 
L 229.326435 140.167384 
L 230.376294 141.411365 
L 231.426152 144.656959 
L 232.476011 146.323328 
L 233.52587 148.804089 
L 234.575729 150.942542 
L 235.625588 152.58554 
L 238.775165 158.461021 
L 241.924741 164.213186 
L 244.024459 168.222908 
L 245.074318 170.435326 
L 246.124177 172.026992 
L 247.174036 174.199439 
L 248.223895 175.733786 
L 249.273754 177.79615 
L 250.323612 179.162862 
L 251.373471 181.215762 
L 252.42333 182.976747 
L 253.473189 184.455587 
L 256.622766 190.159471 
L 257.672625 191.709607 
L 261.87206 199.181229 
L 262.921919 200.542243 
L 263.971778 202.397318 
L 266.071496 206.868402 
L 267.121355 208.779367 
L 269.221072 213.074555 
L 275.520226 225.31506 
L 278.669802 230.506341 
L 280.76952 233.252536 
L 282.869238 235.494461 
L 284.968956 237.211775 
L 287.068674 238.560597 
L 289.168391 239.530326 
L 291.268109 240.260298 
L 294.417686 240.981407 
L 297.567262 241.422125 
L 301.766698 241.750978 
L 308.065851 241.973086 
L 319.614299 242.087162 
L 358.459078 242.115965 
L 388.904986 242.116358 
L 388.904986 242.116358 
" clip-path="url(#pd577025b1d)" style="fill: none; stroke: #ccb974; stroke-opacity: 0.3; stroke-width: 1.5; stroke-linecap: round"/>
   </g>
   <g id="patch_3">
    <path d="M 54 252 
L 54 34.56 
" style="fill: none; stroke: #262626; stroke-width: 1.25; stroke-linejoin: miter; stroke-linecap: square"/>
   </g>
   <g id="patch_4">
    <path d="M 388.8 252 
L 388.8 34.56 
" style="fill: none; stroke: #262626; stroke-width: 1.25; stroke-linejoin: miter; stroke-linecap: square"/>
   </g>
   <g id="patch_5">
    <path d="M 54 252 
L 388.8 252 
" style="fill: none; stroke: #262626; stroke-width: 1.25; stroke-linejoin: miter; stroke-linecap: square"/>
   </g>
   <g id="patch_6">
    <path d="M 54 34.56 
L 388.8 34.56 
" style="fill: none; stroke: #262626; stroke-width: 1.25; stroke-linejoin: miter; stroke-linecap: square"/>
   </g>
   <g id="text_15">
    <!-- patient14_app03_phone - Power spectrum -->
    <g style="fill: #262626" transform="translate(107.998125 28.56)scale(0.12 -0.12)">
     <defs>
      <path id="ArialMT-70" d="M 422 -1272 
L 422 3319 
L 934 3319 
L 934 2888 
Q 1116 3141 1344 3267 
Q 1572 3394 1897 3394 
Q 2322 3394 2647 3175 
Q 2972 2956 3137 2557 
Q 3303 2159 3303 1684 
Q 3303 1175 3120 767 
Q 2938 359 2589 142 
Q 2241 -75 1856 -75 
Q 1575 -75 1351 44 
Q 1128 163 984 344 
L 984 -1272 
L 422 -1272 
z
M 931 1641 
Q 931 1000 1190 694 
Q 1450 388 1819 388 
Q 2194 388 2461 705 
Q 2728 1022 2728 1688 
Q 2728 2322 2467 2637 
Q 2206 2953 1844 2953 
Q 1484 2953 1207 2617 
Q 931 2281 931 1641 
z
" transform="scale(0.015625)"/>
      <path id="ArialMT-61" d="M 2588 409 
Q 2275 144 1986 34 
Q 1697 -75 1366 -75 
Q 819 -75 525 192 
Q 231 459 231 875 
Q 231 1119 342 1320 
Q 453 1522 633 1644 
Q 813 1766 1038 1828 
Q 1203 1872 1538 1913 
Q 2219 1994 2541 2106 
Q 2544 2222 2544 2253 
Q 2544 2597 2384 2738 
Q 2169 2928 1744 2928 
Q 1347 2928 1158 2789 
Q 969 2650 878 2297 
L 328 2372 
Q 403 2725 575 2942 
Q 747 3159 1072 3276 
Q 1397 3394 1825 3394 
Q 2250 3394 2515 3294 
Q 2781 3194 2906 3042 
Q 3031 2891 3081 2659 
Q 3109 2516 3109 2141 
L 3109 1391 
Q 3109 606 3145 398 
Q 3181 191 3288 0 
L 2700 0 
Q 2613 175 2588 409 
z
M 2541 1666 
Q 2234 1541 1622 1453 
Q 1275 1403 1131 1340 
Q 988 1278 909 1158 
Q 831 1038 831 891 
Q 831 666 1001 516 
Q 1172 366 1500 366 
Q 1825 366 2078 508 
Q 2331 650 2450 897 
Q 2541 1088 2541 1459 
L 2541 1666 
z
" transform="scale(0.015625)"/>
      <path id="ArialMT-74" d="M 1650 503 
L 1731 6 
Q 1494 -44 1306 -44 
Q 1000 -44 831 53 
Q 663 150 594 308 
Q 525 466 525 972 
L 525 2881 
L 113 2881 
L 113 3319 
L 525 3319 
L 525 4141 
L 1084 4478 
L 1084 3319 
L 1650 3319 
L 1650 2881 
L 1084 2881 
L 1084 941 
Q 1084 700 1114 631 
Q 1144 563 1211 522 
Q 1278 481 1403 481 
Q 1497 481 1650 503 
z
" transform="scale(0.015625)"/>
      <path id="ArialMT-69" d="M 425 3934 
L 425 4581 
L 988 4581 
L 988 3934 
L 425 3934 
z
M 425 0 
L 425 3319 
L 988 3319 
L 988 0 
L 425 0 
z
" transform="scale(0.015625)"/>
      <path id="ArialMT-5f" d="M -97 -1272 
L -97 -866 
L 3631 -866 
L 3631 -1272 
L -97 -1272 
z
" transform="scale(0.015625)"/>
      <path id="ArialMT-68" d="M 422 0 
L 422 4581 
L 984 4581 
L 984 2938 
Q 1378 3394 1978 3394 
Q 2347 3394 2619 3248 
Q 2891 3103 3008 2847 
Q 3125 2591 3125 2103 
L 3125 0 
L 2563 0 
L 2563 2103 
Q 2563 2525 2380 2717 
Q 2197 2909 1863 2909 
Q 1613 2909 1392 2779 
Q 1172 2650 1078 2428 
Q 984 2206 984 1816 
L 984 0 
L 422 0 
z
" transform="scale(0.015625)"/>
      <path id="ArialMT-6f" d="M 213 1659 
Q 213 2581 725 3025 
Q 1153 3394 1769 3394 
Q 2453 3394 2887 2945 
Q 3322 2497 3322 1706 
Q 3322 1066 3130 698 
Q 2938 331 2570 128 
Q 2203 -75 1769 -75 
Q 1072 -75 642 372 
Q 213 819 213 1659 
z
M 791 1659 
Q 791 1022 1069 705 
Q 1347 388 1769 388 
Q 2188 388 2466 706 
Q 2744 1025 2744 1678 
Q 2744 2294 2464 2611 
Q 2184 2928 1769 2928 
Q 1347 2928 1069 2612 
Q 791 2297 791 1659 
z
" transform="scale(0.015625)"/>
      <path id="ArialMT-2d" d="M 203 1375 
L 203 1941 
L 1931 1941 
L 1931 1375 
L 203 1375 
z
" transform="scale(0.015625)"/>
      <path id="ArialMT-50" d="M 494 0 
L 494 4581 
L 2222 4581 
Q 2678 4581 2919 4538 
Q 3256 4481 3484 4323 
Q 3713 4166 3852 3881 
Q 3991 3597 3991 3256 
Q 3991 2672 3619 2267 
Q 3247 1863 2275 1863 
L 1100 1863 
L 1100 0 
L 494 0 
z
M 1100 2403 
L 2284 2403 
Q 2872 2403 3119 2622 
Q 3366 2841 3366 3238 
Q 3366 3525 3220 3729 
Q 3075 3934 2838 4000 
Q 2684 4041 2272 4041 
L 1100 4041 
L 1100 2403 
z
" transform="scale(0.015625)"/>
      <path id="ArialMT-77" d="M 1034 0 
L 19 3319 
L 600 3319 
L 1128 1403 
L 1325 691 
Q 1338 744 1497 1375 
L 2025 3319 
L 2603 3319 
L 3100 1394 
L 3266 759 
L 3456 1400 
L 4025 3319 
L 4572 3319 
L 3534 0 
L 2950 0 
L 2422 1988 
L 2294 2553 
L 1622 0 
L 1034 0 
z
" transform="scale(0.015625)"/>
      <path id="ArialMT-73" d="M 197 991 
L 753 1078 
Q 800 744 1014 566 
Q 1228 388 1613 388 
Q 2000 388 2187 545 
Q 2375 703 2375 916 
Q 2375 1106 2209 1216 
Q 2094 1291 1634 1406 
Q 1016 1563 777 1677 
Q 538 1791 414 1992 
Q 291 2194 291 2438 
Q 291 2659 392 2848 
Q 494 3038 669 3163 
Q 800 3259 1026 3326 
Q 1253 3394 1513 3394 
Q 1903 3394 2198 3281 
Q 2494 3169 2634 2976 
Q 2775 2784 2828 2463 
L 2278 2388 
Q 2241 2644 2061 2787 
Q 1881 2931 1553 2931 
Q 1166 2931 1000 2803 
Q 834 2675 834 2503 
Q 834 2394 903 2306 
Q 972 2216 1119 2156 
Q 1203 2125 1616 2013 
Q 2213 1853 2448 1751 
Q 2684 1650 2818 1456 
Q 2953 1263 2953 975 
Q 2953 694 2789 445 
Q 2625 197 2315 61 
Q 2006 -75 1616 -75 
Q 969 -75 630 194 
Q 291 463 197 991 
z
" transform="scale(0.015625)"/>
      <path id="ArialMT-6d" d="M 422 0 
L 422 3319 
L 925 3319 
L 925 2853 
Q 1081 3097 1340 3245 
Q 1600 3394 1931 3394 
Q 2300 3394 2536 3241 
Q 2772 3088 2869 2813 
Q 3263 3394 3894 3394 
Q 4388 3394 4653 3120 
Q 4919 2847 4919 2278 
L 4919 0 
L 4359 0 
L 4359 2091 
Q 4359 2428 4304 2576 
Q 4250 2725 4106 2815 
Q 3963 2906 3769 2906 
Q 3419 2906 3187 2673 
Q 2956 2441 2956 1928 
L 2956 0 
L 2394 0 
L 2394 2156 
Q 2394 2531 2256 2718 
Q 2119 2906 1806 2906 
Q 1569 2906 1367 2781 
Q 1166 2656 1075 2415 
Q 984 2175 984 1722 
L 984 0 
L 422 0 
z
" transform="scale(0.015625)"/>
     </defs>
     <use xlink:href="#ArialMT-70"/>
     <use xlink:href="#ArialMT-61" x="55.615234"/>
     <use xlink:href="#ArialMT-74" x="111.230469"/>
     <use xlink:href="#ArialMT-69" x="139.013672"/>
     <use xlink:href="#ArialMT-65" x="161.230469"/>
     <use xlink:href="#ArialMT-6e" x="216.845703"/>
     <use xlink:href="#ArialMT-74" x="272.460938"/>
     <use xlink:href="#ArialMT-31" x="300.244141"/>
     <use xlink:href="#ArialMT-34" x="355.859375"/>
     <use xlink:href="#ArialMT-5f" x="411.474609"/>
     <use xlink:href="#ArialMT-61" x="467.089844"/>
     <use xlink:href="#ArialMT-70" x="522.705078"/>
     <use xlink:href="#ArialMT-70" x="578.320312"/>
     <use xlink:href="#ArialMT-30" x="633.935547"/>
     <use xlink:href="#ArialMT-33" x="689.550781"/>
     <use xlink:href="#ArialMT-5f" x="745.166016"/>
     <use xlink:href="#ArialMT-70" x="800.78125"/>
     <use xlink:href="#ArialMT-68" x="856.396484"/>
     <use xlink:href="#ArialMT-6f" x="912.011719"/>
     <use xlink:href="#ArialMT-6e" x="967.626953"/>
     <use xlink:href="#ArialMT-65" x="1023.242188"/>
     <use xlink:href="#ArialMT-20" x="1078.857422"/>
     <use xlink:href="#ArialMT-2d" x="1106.640625"/>
     <use xlink:href="#ArialMT-20" x="1139.941406"/>
     <use xlink:href="#ArialMT-50" x="1167.724609"/>
     <use xlink:href="#ArialMT-6f" x="1234.423828"/>
     <use xlink:href="#ArialMT-77" x="1290.039062"/>
     <use xlink:href="#ArialMT-65" x="1362.255859"/>
     <use xlink:href="#ArialMT-72" x="1417.871094"/>
     <use xlink:href="#ArialMT-20" x="1451.171875"/>
     <use xlink:href="#ArialMT-73" x="1478.955078"/>
     <use xlink:href="#ArialMT-70" x="1528.955078"/>
     <use xlink:href="#ArialMT-65" x="1584.570312"/>
     <use xlink:href="#ArialMT-63" x="1640.185547"/>
     <use xlink:href="#ArialMT-74" x="1690.185547"/>
     <use xlink:href="#ArialMT-72" x="1717.96875"/>
     <use xlink:href="#ArialMT-75" x="1751.269531"/>
     <use xlink:href="#ArialMT-6d" x="1806.884766"/>
    </g>
   </g>
  </g>
 </g>
 <defs>
  <clipPath id="pd577025b1d">
   <rect x="54" y="34.56" width="334.8" height="217.44"/>
  </clipPath>
 </defs>
</svg>
