<?xml version="1.0" encoding="utf-8" standalone="no"?>
<!DOCTYPE svg PUBLIC "-//W3C//DTD SVG 1.1//EN"
  "http://www.w3.org/Graphics/SVG/1.1/DTD/svg11.dtd">
<svg xmlns:xlink="http://www.w3.org/1999/xlink" width="432pt" height="288pt" viewBox="0 0 432 288" xmlns="http://www.w3.org/2000/svg" version="1.1">
 <metadata>
  <rdf:RDF xmlns:dc="http://purl.org/dc/elements/1.1/" xmlns:cc="http://creativecommons.org/ns#" xmlns:rdf="http://www.w3.org/1999/02/22-rdf-syntax-ns#">
   <cc:Work>
    <dc:type rdf:resource="http://purl.org/dc/dcmitype/StillImage"/>
    <dc:date>2022-07-08T13:41:47.525298</dc:date>
    <dc:format>image/svg+xml</dc:format>
    <dc:creator>
     <cc:Agent>
      <dc:title>Matplotlib v3.5.1, https://matplotlib.org/</dc:title>
     </cc:Agent>
    </dc:creator>
   </cc:Work>
  </rdf:RDF>
 </metadata>
 <defs>
  <style type="text/css">*{stroke-linejoin: round; stroke-linecap: butt}</style>
 </defs>
 <g id="figure_1">
  <g id="patch_1">
   <path d="M 0 288 
L 432 288 
L 432 0 
L 0 0 
z
" style="fill: #ffffff"/>
  </g>
  <g id="axes_1">
   <g id="patch_2">
    <path d="M 54 252 
L 388.8 252 
L 388.8 34.56 
L 54 34.56 
z
" style="fill: #ffffff"/>
   </g>
   <g id="matplotlib.axis_1">
    <g id="xtick_1">
     <g id="line2d_1">
      <defs>
       <path id="m7ac0263049" d="M 0 0 
L 0 6 
" style="stroke: #262626; stroke-width: 1.25"/>
      </defs>
      <g>
       <use xlink:href="#m7ac0263049" x="54" y="252" style="fill: #262626; stroke: #262626; stroke-width: 1.25"/>
      </g>
     </g>
     <g id="text_1">
      <!-- 0 -->
      <g style="fill: #262626" transform="translate(50.941484 269.373594)scale(0.11 -0.11)">
       <defs>
        <path id="ArialMT-30" d="M 266 2259 
Q 266 3072 433 3567 
Q 600 4063 929 4331 
Q 1259 4600 1759 4600 
Q 2128 4600 2406 4451 
Q 2684 4303 2865 4023 
Q 3047 3744 3150 3342 
Q 3253 2941 3253 2259 
Q 3253 1453 3087 958 
Q 2922 463 2592 192 
Q 2263 -78 1759 -78 
Q 1097 -78 719 397 
Q 266 969 266 2259 
z
M 844 2259 
Q 844 1131 1108 757 
Q 1372 384 1759 384 
Q 2147 384 2411 759 
Q 2675 1134 2675 2259 
Q 2675 3391 2411 3762 
Q 2147 4134 1753 4134 
Q 1366 4134 1134 3806 
Q 844 3388 844 2259 
z
" transform="scale(0.015625)"/>
       </defs>
       <use xlink:href="#ArialMT-30"/>
      </g>
     </g>
    </g>
    <g id="xtick_2">
     <g id="line2d_2">
      <g>
       <use xlink:href="#m7ac0263049" x="109.8" y="252" style="fill: #262626; stroke: #262626; stroke-width: 1.25"/>
      </g>
     </g>
     <g id="text_2">
      <!-- 5 -->
      <g style="fill: #262626" transform="translate(106.741484 269.373594)scale(0.11 -0.11)">
       <defs>
        <path id="ArialMT-35" d="M 266 1200 
L 856 1250 
Q 922 819 1161 601 
Q 1400 384 1738 384 
Q 2144 384 2425 690 
Q 2706 997 2706 1503 
Q 2706 1984 2436 2262 
Q 2166 2541 1728 2541 
Q 1456 2541 1237 2417 
Q 1019 2294 894 2097 
L 366 2166 
L 809 4519 
L 3088 4519 
L 3088 3981 
L 1259 3981 
L 1013 2750 
Q 1425 3038 1878 3038 
Q 2478 3038 2890 2622 
Q 3303 2206 3303 1553 
Q 3303 931 2941 478 
Q 2500 -78 1738 -78 
Q 1113 -78 717 272 
Q 322 622 266 1200 
z
" transform="scale(0.015625)"/>
       </defs>
       <use xlink:href="#ArialMT-35"/>
      </g>
     </g>
    </g>
    <g id="xtick_3">
     <g id="line2d_3">
      <g>
       <use xlink:href="#m7ac0263049" x="165.6" y="252" style="fill: #262626; stroke: #262626; stroke-width: 1.25"/>
      </g>
     </g>
     <g id="text_3">
      <!-- 10 -->
      <g style="fill: #262626" transform="translate(159.482969 269.373594)scale(0.11 -0.11)">
       <defs>
        <path id="ArialMT-31" d="M 2384 0 
L 1822 0 
L 1822 3584 
Q 1619 3391 1289 3197 
Q 959 3003 697 2906 
L 697 3450 
Q 1169 3672 1522 3987 
Q 1875 4303 2022 4600 
L 2384 4600 
L 2384 0 
z
" transform="scale(0.015625)"/>
       </defs>
       <use xlink:href="#ArialMT-31"/>
       <use xlink:href="#ArialMT-30" x="55.615234"/>
      </g>
     </g>
    </g>
    <g id="xtick_4">
     <g id="line2d_4">
      <g>
       <use xlink:href="#m7ac0263049" x="221.4" y="252" style="fill: #262626; stroke: #262626; stroke-width: 1.25"/>
      </g>
     </g>
     <g id="text_4">
      <!-- 15 -->
      <g style="fill: #262626" transform="translate(215.282969 269.373594)scale(0.11 -0.11)">
       <use xlink:href="#ArialMT-31"/>
       <use xlink:href="#ArialMT-35" x="55.615234"/>
      </g>
     </g>
    </g>
    <g id="xtick_5">
     <g id="line2d_5">
      <g>
       <use xlink:href="#m7ac0263049" x="277.2" y="252" style="fill: #262626; stroke: #262626; stroke-width: 1.25"/>
      </g>
     </g>
     <g id="text_5">
      <!-- 20 -->
      <g style="fill: #262626" transform="translate(271.082969 269.373594)scale(0.11 -0.11)">
       <defs>
        <path id="ArialMT-32" d="M 3222 541 
L 3222 0 
L 194 0 
Q 188 203 259 391 
Q 375 700 629 1000 
Q 884 1300 1366 1694 
Q 2113 2306 2375 2664 
Q 2638 3022 2638 3341 
Q 2638 3675 2398 3904 
Q 2159 4134 1775 4134 
Q 1369 4134 1125 3890 
Q 881 3647 878 3216 
L 300 3275 
Q 359 3922 746 4261 
Q 1134 4600 1788 4600 
Q 2447 4600 2831 4234 
Q 3216 3869 3216 3328 
Q 3216 3053 3103 2787 
Q 2991 2522 2730 2228 
Q 2469 1934 1863 1422 
Q 1356 997 1212 845 
Q 1069 694 975 541 
L 3222 541 
z
" transform="scale(0.015625)"/>
       </defs>
       <use xlink:href="#ArialMT-32"/>
       <use xlink:href="#ArialMT-30" x="55.615234"/>
      </g>
     </g>
    </g>
    <g id="xtick_6">
     <g id="line2d_6">
      <g>
       <use xlink:href="#m7ac0263049" x="333" y="252" style="fill: #262626; stroke: #262626; stroke-width: 1.25"/>
      </g>
     </g>
     <g id="text_6">
      <!-- 25 -->
      <g style="fill: #262626" transform="translate(326.882969 269.373594)scale(0.11 -0.11)">
       <use xlink:href="#ArialMT-32"/>
       <use xlink:href="#ArialMT-35" x="55.615234"/>
      </g>
     </g>
    </g>
    <g id="xtick_7">
     <g id="line2d_7">
      <g>
       <use xlink:href="#m7ac0263049" x="388.8" y="252" style="fill: #262626; stroke: #262626; stroke-width: 1.25"/>
      </g>
     </g>
     <g id="text_7">
      <!-- 30 -->
      <g style="fill: #262626" transform="translate(382.682969 269.373594)scale(0.11 -0.11)">
       <defs>
        <path id="ArialMT-33" d="M 269 1209 
L 831 1284 
Q 928 806 1161 595 
Q 1394 384 1728 384 
Q 2125 384 2398 659 
Q 2672 934 2672 1341 
Q 2672 1728 2419 1979 
Q 2166 2231 1775 2231 
Q 1616 2231 1378 2169 
L 1441 2663 
Q 1497 2656 1531 2656 
Q 1891 2656 2178 2843 
Q 2466 3031 2466 3422 
Q 2466 3731 2256 3934 
Q 2047 4138 1716 4138 
Q 1388 4138 1169 3931 
Q 950 3725 888 3313 
L 325 3413 
Q 428 3978 793 4289 
Q 1159 4600 1703 4600 
Q 2078 4600 2393 4439 
Q 2709 4278 2876 4000 
Q 3044 3722 3044 3409 
Q 3044 3113 2884 2869 
Q 2725 2625 2413 2481 
Q 2819 2388 3044 2092 
Q 3269 1797 3269 1353 
Q 3269 753 2831 336 
Q 2394 -81 1725 -81 
Q 1122 -81 723 278 
Q 325 638 269 1209 
z
" transform="scale(0.015625)"/>
       </defs>
       <use xlink:href="#ArialMT-33"/>
       <use xlink:href="#ArialMT-30" x="55.615234"/>
      </g>
     </g>
    </g>
    <g id="text_8">
     <!-- Frequency (Hz) -->
     <g style="fill: #262626" transform="translate(180.059063 284.295469)scale(0.12 -0.12)">
      <defs>
       <path id="ArialMT-46" d="M 525 0 
L 525 4581 
L 3616 4581 
L 3616 4041 
L 1131 4041 
L 1131 2622 
L 3281 2622 
L 3281 2081 
L 1131 2081 
L 1131 0 
L 525 0 
z
" transform="scale(0.015625)"/>
       <path id="ArialMT-72" d="M 416 0 
L 416 3319 
L 922 3319 
L 922 2816 
Q 1116 3169 1280 3281 
Q 1444 3394 1641 3394 
Q 1925 3394 2219 3213 
L 2025 2691 
Q 1819 2813 1613 2813 
Q 1428 2813 1281 2702 
Q 1134 2591 1072 2394 
Q 978 2094 978 1738 
L 978 0 
L 416 0 
z
" transform="scale(0.015625)"/>
       <path id="ArialMT-65" d="M 2694 1069 
L 3275 997 
Q 3138 488 2766 206 
Q 2394 -75 1816 -75 
Q 1088 -75 661 373 
Q 234 822 234 1631 
Q 234 2469 665 2931 
Q 1097 3394 1784 3394 
Q 2450 3394 2872 2941 
Q 3294 2488 3294 1666 
Q 3294 1616 3291 1516 
L 816 1516 
Q 847 969 1125 678 
Q 1403 388 1819 388 
Q 2128 388 2347 550 
Q 2566 713 2694 1069 
z
M 847 1978 
L 2700 1978 
Q 2663 2397 2488 2606 
Q 2219 2931 1791 2931 
Q 1403 2931 1139 2672 
Q 875 2413 847 1978 
z
" transform="scale(0.015625)"/>
       <path id="ArialMT-71" d="M 2538 -1272 
L 2538 353 
Q 2406 169 2170 47 
Q 1934 -75 1669 -75 
Q 1078 -75 651 397 
Q 225 869 225 1691 
Q 225 2191 398 2587 
Q 572 2984 901 3189 
Q 1231 3394 1625 3394 
Q 2241 3394 2594 2875 
L 2594 3319 
L 3100 3319 
L 3100 -1272 
L 2538 -1272 
z
M 803 1669 
Q 803 1028 1072 708 
Q 1341 388 1716 388 
Q 2075 388 2334 692 
Q 2594 997 2594 1619 
Q 2594 2281 2320 2615 
Q 2047 2950 1678 2950 
Q 1313 2950 1058 2639 
Q 803 2328 803 1669 
z
" transform="scale(0.015625)"/>
       <path id="ArialMT-75" d="M 2597 0 
L 2597 488 
Q 2209 -75 1544 -75 
Q 1250 -75 995 37 
Q 741 150 617 320 
Q 494 491 444 738 
Q 409 903 409 1263 
L 409 3319 
L 972 3319 
L 972 1478 
Q 972 1038 1006 884 
Q 1059 663 1231 536 
Q 1403 409 1656 409 
Q 1909 409 2131 539 
Q 2353 669 2445 892 
Q 2538 1116 2538 1541 
L 2538 3319 
L 3100 3319 
L 3100 0 
L 2597 0 
z
" transform="scale(0.015625)"/>
       <path id="ArialMT-6e" d="M 422 0 
L 422 3319 
L 928 3319 
L 928 2847 
Q 1294 3394 1984 3394 
Q 2284 3394 2536 3286 
Q 2788 3178 2913 3003 
Q 3038 2828 3088 2588 
Q 3119 2431 3119 2041 
L 3119 0 
L 2556 0 
L 2556 2019 
Q 2556 2363 2490 2533 
Q 2425 2703 2258 2804 
Q 2091 2906 1866 2906 
Q 1506 2906 1245 2678 
Q 984 2450 984 1813 
L 984 0 
L 422 0 
z
" transform="scale(0.015625)"/>
       <path id="ArialMT-63" d="M 2588 1216 
L 3141 1144 
Q 3050 572 2676 248 
Q 2303 -75 1759 -75 
Q 1078 -75 664 370 
Q 250 816 250 1647 
Q 250 2184 428 2587 
Q 606 2991 970 3192 
Q 1334 3394 1763 3394 
Q 2303 3394 2647 3120 
Q 2991 2847 3088 2344 
L 2541 2259 
Q 2463 2594 2264 2762 
Q 2066 2931 1784 2931 
Q 1359 2931 1093 2626 
Q 828 2322 828 1663 
Q 828 994 1084 691 
Q 1341 388 1753 388 
Q 2084 388 2306 591 
Q 2528 794 2588 1216 
z
" transform="scale(0.015625)"/>
       <path id="ArialMT-79" d="M 397 -1278 
L 334 -750 
Q 519 -800 656 -800 
Q 844 -800 956 -737 
Q 1069 -675 1141 -563 
Q 1194 -478 1313 -144 
Q 1328 -97 1363 -6 
L 103 3319 
L 709 3319 
L 1400 1397 
Q 1534 1031 1641 628 
Q 1738 1016 1872 1384 
L 2581 3319 
L 3144 3319 
L 1881 -56 
Q 1678 -603 1566 -809 
Q 1416 -1088 1222 -1217 
Q 1028 -1347 759 -1347 
Q 597 -1347 397 -1278 
z
" transform="scale(0.015625)"/>
       <path id="ArialMT-20" transform="scale(0.015625)"/>
       <path id="ArialMT-28" d="M 1497 -1347 
Q 1031 -759 709 28 
Q 388 816 388 1659 
Q 388 2403 628 3084 
Q 909 3875 1497 4659 
L 1900 4659 
Q 1522 4009 1400 3731 
Q 1209 3300 1100 2831 
Q 966 2247 966 1656 
Q 966 153 1900 -1347 
L 1497 -1347 
z
" transform="scale(0.015625)"/>
       <path id="ArialMT-48" d="M 513 0 
L 513 4581 
L 1119 4581 
L 1119 2700 
L 3500 2700 
L 3500 4581 
L 4106 4581 
L 4106 0 
L 3500 0 
L 3500 2159 
L 1119 2159 
L 1119 0 
L 513 0 
z
" transform="scale(0.015625)"/>
       <path id="ArialMT-7a" d="M 125 0 
L 125 456 
L 2238 2881 
Q 1878 2863 1603 2863 
L 250 2863 
L 250 3319 
L 2963 3319 
L 2963 2947 
L 1166 841 
L 819 456 
Q 1197 484 1528 484 
L 3063 484 
L 3063 0 
L 125 0 
z
" transform="scale(0.015625)"/>
       <path id="ArialMT-29" d="M 791 -1347 
L 388 -1347 
Q 1322 153 1322 1656 
Q 1322 2244 1188 2822 
Q 1081 3291 891 3722 
Q 769 4003 388 4659 
L 791 4659 
Q 1378 3875 1659 3084 
Q 1900 2403 1900 1659 
Q 1900 816 1576 28 
Q 1253 -759 791 -1347 
z
" transform="scale(0.015625)"/>
      </defs>
      <use xlink:href="#ArialMT-46"/>
      <use xlink:href="#ArialMT-72" x="61.083984"/>
      <use xlink:href="#ArialMT-65" x="94.384766"/>
      <use xlink:href="#ArialMT-71" x="150"/>
      <use xlink:href="#ArialMT-75" x="205.615234"/>
      <use xlink:href="#ArialMT-65" x="261.230469"/>
      <use xlink:href="#ArialMT-6e" x="316.845703"/>
      <use xlink:href="#ArialMT-63" x="372.460938"/>
      <use xlink:href="#ArialMT-79" x="422.460938"/>
      <use xlink:href="#ArialMT-20" x="472.460938"/>
      <use xlink:href="#ArialMT-28" x="500.244141"/>
      <use xlink:href="#ArialMT-48" x="533.544922"/>
      <use xlink:href="#ArialMT-7a" x="605.761719"/>
      <use xlink:href="#ArialMT-29" x="655.761719"/>
     </g>
    </g>
   </g>
   <g id="matplotlib.axis_2">
    <g id="ytick_1">
     <g id="line2d_8">
      <defs>
       <path id="m701fca83cc" d="M 0 0 
L -6 0 
" style="stroke: #262626; stroke-width: 1.25"/>
      </defs>
      <g>
       <use xlink:href="#m701fca83cc" x="54" y="242.116364" style="fill: #262626; stroke: #262626; stroke-width: 1.25"/>
      </g>
     </g>
     <g id="text_9">
      <!-- 0.0 -->
      <g style="fill: #262626" transform="translate(29.21 246.053161)scale(0.11 -0.11)">
       <defs>
        <path id="ArialMT-2e" d="M 581 0 
L 581 641 
L 1222 641 
L 1222 0 
L 581 0 
z
" transform="scale(0.015625)"/>
       </defs>
       <use xlink:href="#ArialMT-30"/>
       <use xlink:href="#ArialMT-2e" x="55.615234"/>
       <use xlink:href="#ArialMT-30" x="83.398438"/>
      </g>
     </g>
    </g>
    <g id="ytick_2">
     <g id="line2d_9">
      <g>
       <use xlink:href="#m701fca83cc" x="54" y="202.581818" style="fill: #262626; stroke: #262626; stroke-width: 1.25"/>
      </g>
     </g>
     <g id="text_10">
      <!-- 0.2 -->
      <g style="fill: #262626" transform="translate(29.21 206.518615)scale(0.11 -0.11)">
       <use xlink:href="#ArialMT-30"/>
       <use xlink:href="#ArialMT-2e" x="55.615234"/>
       <use xlink:href="#ArialMT-32" x="83.398438"/>
      </g>
     </g>
    </g>
    <g id="ytick_3">
     <g id="line2d_10">
      <g>
       <use xlink:href="#m701fca83cc" x="54" y="163.047273" style="fill: #262626; stroke: #262626; stroke-width: 1.25"/>
      </g>
     </g>
     <g id="text_11">
      <!-- 0.4 -->
      <g style="fill: #262626" transform="translate(29.21 166.98407)scale(0.11 -0.11)">
       <defs>
        <path id="ArialMT-34" d="M 2069 0 
L 2069 1097 
L 81 1097 
L 81 1613 
L 2172 4581 
L 2631 4581 
L 2631 1613 
L 3250 1613 
L 3250 1097 
L 2631 1097 
L 2631 0 
L 2069 0 
z
M 2069 1613 
L 2069 3678 
L 634 1613 
L 2069 1613 
z
" transform="scale(0.015625)"/>
       </defs>
       <use xlink:href="#ArialMT-30"/>
       <use xlink:href="#ArialMT-2e" x="55.615234"/>
       <use xlink:href="#ArialMT-34" x="83.398438"/>
      </g>
     </g>
    </g>
    <g id="ytick_4">
     <g id="line2d_11">
      <g>
       <use xlink:href="#m701fca83cc" x="54" y="123.512727" style="fill: #262626; stroke: #262626; stroke-width: 1.25"/>
      </g>
     </g>
     <g id="text_12">
      <!-- 0.6 -->
      <g style="fill: #262626" transform="translate(29.21 127.449524)scale(0.11 -0.11)">
       <defs>
        <path id="ArialMT-36" d="M 3184 3459 
L 2625 3416 
Q 2550 3747 2413 3897 
Q 2184 4138 1850 4138 
Q 1581 4138 1378 3988 
Q 1113 3794 959 3422 
Q 806 3050 800 2363 
Q 1003 2672 1297 2822 
Q 1591 2972 1913 2972 
Q 2475 2972 2870 2558 
Q 3266 2144 3266 1488 
Q 3266 1056 3080 686 
Q 2894 316 2569 119 
Q 2244 -78 1831 -78 
Q 1128 -78 684 439 
Q 241 956 241 2144 
Q 241 3472 731 4075 
Q 1159 4600 1884 4600 
Q 2425 4600 2770 4297 
Q 3116 3994 3184 3459 
z
M 888 1484 
Q 888 1194 1011 928 
Q 1134 663 1356 523 
Q 1578 384 1822 384 
Q 2178 384 2434 671 
Q 2691 959 2691 1453 
Q 2691 1928 2437 2201 
Q 2184 2475 1800 2475 
Q 1419 2475 1153 2201 
Q 888 1928 888 1484 
z
" transform="scale(0.015625)"/>
       </defs>
       <use xlink:href="#ArialMT-30"/>
       <use xlink:href="#ArialMT-2e" x="55.615234"/>
       <use xlink:href="#ArialMT-36" x="83.398438"/>
      </g>
     </g>
    </g>
    <g id="ytick_5">
     <g id="line2d_12">
      <g>
       <use xlink:href="#m701fca83cc" x="54" y="83.978182" style="fill: #262626; stroke: #262626; stroke-width: 1.25"/>
      </g>
     </g>
     <g id="text_13">
      <!-- 0.8 -->
      <g style="fill: #262626" transform="translate(29.21 87.914979)scale(0.11 -0.11)">
       <defs>
        <path id="ArialMT-38" d="M 1131 2484 
Q 781 2613 612 2850 
Q 444 3088 444 3419 
Q 444 3919 803 4259 
Q 1163 4600 1759 4600 
Q 2359 4600 2725 4251 
Q 3091 3903 3091 3403 
Q 3091 3084 2923 2848 
Q 2756 2613 2416 2484 
Q 2838 2347 3058 2040 
Q 3278 1734 3278 1309 
Q 3278 722 2862 322 
Q 2447 -78 1769 -78 
Q 1091 -78 675 323 
Q 259 725 259 1325 
Q 259 1772 486 2073 
Q 713 2375 1131 2484 
z
M 1019 3438 
Q 1019 3113 1228 2906 
Q 1438 2700 1772 2700 
Q 2097 2700 2305 2904 
Q 2513 3109 2513 3406 
Q 2513 3716 2298 3927 
Q 2084 4138 1766 4138 
Q 1444 4138 1231 3931 
Q 1019 3725 1019 3438 
z
M 838 1322 
Q 838 1081 952 856 
Q 1066 631 1291 507 
Q 1516 384 1775 384 
Q 2178 384 2440 643 
Q 2703 903 2703 1303 
Q 2703 1709 2433 1975 
Q 2163 2241 1756 2241 
Q 1359 2241 1098 1978 
Q 838 1716 838 1322 
z
" transform="scale(0.015625)"/>
       </defs>
       <use xlink:href="#ArialMT-30"/>
       <use xlink:href="#ArialMT-2e" x="55.615234"/>
       <use xlink:href="#ArialMT-38" x="83.398438"/>
      </g>
     </g>
    </g>
    <g id="ytick_6">
     <g id="line2d_13">
      <g>
       <use xlink:href="#m701fca83cc" x="54" y="44.443636" style="fill: #262626; stroke: #262626; stroke-width: 1.25"/>
      </g>
     </g>
     <g id="text_14">
      <!-- 1.0 -->
      <g style="fill: #262626" transform="translate(29.21 48.380433)scale(0.11 -0.11)">
       <use xlink:href="#ArialMT-31"/>
       <use xlink:href="#ArialMT-2e" x="55.615234"/>
       <use xlink:href="#ArialMT-30" x="83.398438"/>
      </g>
     </g>
    </g>
   </g>
   <g id="line2d_14">
    <path d="M 54 242.115555 
L 157.720461 242.09647 
L 158.926513 241.693112 
L 160.132565 241.886236 
L 162.544669 241.864924 
L 163.75072 241.383268 
L 166.162824 241.303191 
L 167.368876 239.358099 
L 168.574928 239.402499 
L 169.78098 239.864736 
L 170.987032 241.126997 
L 172.193084 224.524582 
L 173.399135 236.399249 
L 174.605187 241.252622 
L 175.811239 237.973468 
L 177.017291 239.432776 
L 178.223343 237.945315 
L 179.429395 220.936225 
L 180.635447 235.396781 
L 181.841499 226.583235 
L 183.04755 240.674854 
L 184.253602 238.589971 
L 185.459654 239.55793 
L 186.665706 240.732415 
L 187.871758 237.423976 
L 189.07781 238.241782 
L 190.283862 241.384403 
L 191.489914 241.393275 
L 192.695965 216.503036 
L 193.902017 233.450278 
L 195.108069 233.957421 
L 196.314121 239.728604 
L 197.520173 238.615701 
L 198.726225 240.487583 
L 199.932277 232.882545 
L 201.138329 239.728908 
L 202.34438 241.173309 
L 203.550432 240.410015 
L 204.756484 238.178898 
L 205.962536 233.820236 
L 207.168588 230.493268 
L 208.37464 240.80811 
L 209.580692 237.851352 
L 210.786744 240.802255 
L 211.992795 236.496858 
L 213.198847 241.092601 
L 214.404899 242.044877 
L 215.610951 239.003693 
L 216.817003 240.901495 
L 218.023055 240.900239 
L 219.229107 238.715107 
L 220.435159 240.530791 
L 221.64121 228.742598 
L 222.847262 232.247193 
L 224.053314 230.641193 
L 225.259366 211.168191 
L 226.465418 44.443636 
L 227.67147 127.710595 
L 228.877522 175.418809 
L 230.083573 228.278956 
L 231.289625 238.117094 
L 232.495677 234.441204 
L 233.701729 234.602721 
L 234.907781 235.371858 
L 236.113833 240.800072 
L 237.319885 241.016371 
L 238.525937 241.688144 
L 239.731988 241.637338 
L 240.93804 239.349779 
L 242.144092 241.436661 
L 243.350144 238.174726 
L 244.556196 240.458666 
L 245.762248 240.746626 
L 246.9683 236.002439 
L 248.174352 241.919189 
L 249.380403 239.519913 
L 250.586455 241.694317 
L 251.792507 241.916339 
L 252.998559 241.790995 
L 254.204611 241.90795 
L 255.410663 241.638667 
L 256.616715 241.874058 
L 257.822767 241.063133 
L 259.028818 241.48477 
L 260.23487 240.61493 
L 261.440922 241.295404 
L 262.646974 241.511361 
L 263.853026 241.89957 
L 265.059078 241.523765 
L 266.26513 242.116342 
L 267.471182 241.750996 
L 269.883285 241.997109 
L 271.089337 241.336747 
L 272.295389 242.027806 
L 273.501441 240.40381 
L 274.707493 241.599501 
L 275.913545 241.653121 
L 277.119597 242.06245 
L 295.210375 242.093491 
L 304.85879 242.114404 
L 354.306916 242.115558 
L 433 242.116146 
M 433 242.11636 
L -1 242.11636 
L -1 242.11636 
" clip-path="url(#p5d303abf96)" style="fill: none; stroke: #4c72b0; stroke-opacity: 0.3; stroke-width: 1.5; stroke-linecap: round"/>
   </g>
   <g id="line2d_15">
    <path d="M 54 242.114933 
L 157.720461 242.081773 
L 158.926513 241.955022 
L 160.132565 241.398286 
L 161.338617 242.039881 
L 162.544669 239.219387 
L 163.75072 239.938272 
L 164.956772 241.966028 
L 166.162824 233.715298 
L 167.368876 238.227659 
L 168.574928 236.378597 
L 169.78098 241.042732 
L 170.987032 240.276491 
L 172.193084 240.940741 
L 173.399135 241.037593 
L 174.605187 237.278106 
L 175.811239 236.201485 
L 177.017291 242.00389 
L 178.223343 240.384579 
L 179.429395 229.293554 
L 180.635447 227.212474 
L 181.841499 239.406267 
L 183.04755 237.934424 
L 184.253602 229.153579 
L 185.459654 240.195859 
L 186.665706 240.793767 
L 187.871758 239.586731 
L 189.07781 235.549573 
L 190.283862 237.028149 
L 191.489914 238.702059 
L 192.695965 225.954577 
L 193.902017 224.183719 
L 195.108069 236.454946 
L 196.314121 238.760584 
L 197.520173 241.441461 
L 198.726225 240.781212 
L 199.932277 238.799484 
L 201.138329 241.101591 
L 202.34438 241.958035 
L 203.550432 236.95224 
L 204.756484 241.679193 
L 205.962536 238.878392 
L 207.168588 235.728244 
L 208.37464 241.998857 
L 209.580692 236.946462 
L 210.786744 241.652199 
L 211.992795 239.44131 
L 213.198847 239.75711 
L 214.404899 241.535207 
L 215.610951 236.046918 
L 216.817003 241.200368 
L 218.023055 240.881822 
L 219.229107 241.461849 
L 220.435159 240.585625 
L 221.64121 233.236028 
L 222.847262 235.655375 
L 224.053314 237.163491 
L 225.259366 224.734969 
L 226.465418 44.443636 
L 227.67147 152.347719 
L 228.877522 183.210346 
L 230.083573 230.883966 
L 231.289625 236.617257 
L 233.701729 235.025103 
L 234.907781 240.004339 
L 236.113833 240.782572 
L 237.319885 240.741403 
L 238.525937 241.756917 
L 239.731988 242.108554 
L 240.93804 241.205104 
L 242.144092 241.665878 
L 243.350144 240.266448 
L 244.556196 241.927229 
L 245.762248 241.991166 
L 246.9683 241.412407 
L 248.174352 242.100829 
L 249.380403 241.521573 
L 250.586455 241.262668 
L 251.792507 241.76547 
L 252.998559 241.72821 
L 254.204611 241.171268 
L 255.410663 241.914382 
L 256.616715 242.007657 
L 257.822767 241.633686 
L 259.028818 241.096215 
L 260.23487 240.810985 
L 261.440922 241.628242 
L 262.646974 241.80784 
L 263.853026 241.672834 
L 265.059078 242.029989 
L 267.471182 242.061292 
L 268.677233 242.057632 
L 269.883285 241.870051 
L 271.089337 242.044828 
L 273.501441 241.740543 
L 277.119597 242.094024 
L 281.943804 242.069403 
L 354.306916 242.115354 
L 433 242.116106 
M 433 242.116362 
L -1 242.116362 
L -1 242.116362 
" clip-path="url(#p5d303abf96)" style="fill: none; stroke: #dd8452; stroke-opacity: 0.3; stroke-width: 1.5; stroke-linecap: round"/>
   </g>
   <g id="line2d_16">
    <path d="M 54 242.112293 
L 161.338617 242.009833 
L 163.75072 241.834784 
L 164.956772 242.105253 
L 167.368876 240.65986 
L 168.574928 242.055711 
L 172.193084 242.05365 
L 173.399135 240.048916 
L 174.605187 241.848951 
L 175.811239 241.760678 
L 177.017291 240.388052 
L 178.223343 241.368573 
L 179.429395 240.710267 
L 180.635447 239.79228 
L 181.841499 241.733359 
L 183.04755 239.874236 
L 184.253602 236.250947 
L 185.459654 241.351195 
L 186.665706 242.025078 
L 187.871758 241.832452 
L 189.07781 239.502006 
L 190.283862 241.046832 
L 191.489914 241.524445 
L 192.695965 228.416004 
L 193.902017 223.291487 
L 195.108069 237.732503 
L 196.314121 239.788176 
L 197.520173 233.674231 
L 198.726225 241.317376 
L 199.932277 240.992487 
L 201.138329 242.001332 
L 202.34438 241.609181 
L 203.550432 241.454051 
L 204.756484 241.515869 
L 205.962536 240.046811 
L 207.168588 235.389417 
L 208.37464 241.425672 
L 209.580692 238.986553 
L 210.786744 240.158163 
L 211.992795 241.676565 
L 213.198847 241.898508 
L 214.404899 240.259412 
L 215.610951 242.001532 
L 216.817003 240.762714 
L 218.023055 240.443949 
L 219.229107 241.239383 
L 220.435159 241.626243 
L 221.64121 239.376748 
L 222.847262 234.800003 
L 224.053314 236.31547 
L 225.259366 231.018284 
L 226.465418 44.443636 
L 228.877522 178.973741 
L 230.083573 235.832109 
L 231.289625 239.460063 
L 232.495677 239.212558 
L 233.701729 238.698473 
L 234.907781 241.619847 
L 236.113833 237.474921 
L 237.319885 241.613797 
L 238.525937 241.600905 
L 239.731988 241.286957 
L 240.93804 240.203541 
L 242.144092 239.52663 
L 244.556196 241.756525 
L 245.762248 240.551656 
L 246.9683 241.151257 
L 248.174352 242.064914 
L 249.380403 241.636786 
L 250.586455 241.531478 
L 251.792507 241.860115 
L 252.998559 241.991152 
L 255.410663 241.198754 
L 256.616715 240.951005 
L 257.822767 241.520545 
L 259.028818 241.63789 
L 260.23487 239.842754 
L 261.440922 239.265683 
L 262.646974 241.891371 
L 263.853026 241.56926 
L 266.26513 241.639097 
L 267.471182 241.761577 
L 268.677233 242.09876 
L 269.883285 241.844428 
L 271.089337 241.889022 
L 272.295389 242.106439 
L 273.501441 241.855284 
L 274.707493 242.099168 
L 275.913545 241.9929 
L 277.119597 241.728277 
L 278.325648 241.997444 
L 279.5317 242.107209 
L 320.537464 242.113713 
L 433 242.116042 
M 433 242.116363 
L -1 242.116363 
L -1 242.116363 
" clip-path="url(#p5d303abf96)" style="fill: none; stroke: #55a868; stroke-opacity: 0.3; stroke-width: 1.5; stroke-linecap: round"/>
   </g>
   <g id="line2d_17">
    <path d="M 54 242.115949 
L 154.102305 242.062434 
L 155.308357 241.915834 
L 156.514409 242.019328 
L 157.720461 241.93772 
L 158.926513 240.851179 
L 160.132565 240.632678 
L 161.338617 241.480364 
L 162.544669 239.104536 
L 163.75072 237.679348 
L 164.956772 235.639025 
L 167.368876 234.24772 
L 168.574928 233.12948 
L 170.987032 223.126649 
L 172.193084 213.64879 
L 173.399135 240.99346 
L 174.605187 236.902026 
L 175.811239 222.699044 
L 177.017291 238.230591 
L 178.223343 239.345937 
L 179.429395 221.187708 
L 180.635447 227.209564 
L 181.841499 211.72402 
L 183.04755 212.275767 
L 184.253602 198.946465 
L 185.459654 184.204563 
L 186.665706 236.887722 
L 187.871758 209.610575 
L 189.07781 190.747179 
L 190.283862 228.614564 
L 191.489914 237.833615 
L 192.695965 44.443636 
L 193.902017 124.765949 
L 195.108069 239.333041 
L 196.314121 241.83434 
L 197.520173 235.028629 
L 198.726225 241.818028 
L 199.932277 235.510572 
L 201.138329 234.633579 
L 202.34438 235.803394 
L 203.550432 223.868323 
L 204.756484 234.151375 
L 205.962536 231.895175 
L 207.168588 219.700905 
L 208.37464 231.008903 
L 209.580692 200.011473 
L 210.786744 203.886317 
L 211.992795 229.183294 
L 213.198847 240.646831 
L 214.404899 233.153895 
L 215.610951 216.849497 
L 216.817003 237.007616 
L 218.023055 241.26111 
L 219.229107 235.679737 
L 220.435159 239.275022 
L 222.847262 227.494872 
L 224.053314 216.077981 
L 225.259366 219.211889 
L 226.465418 67.64393 
L 227.67147 103.725181 
L 228.877522 147.165625 
L 230.083573 237.760394 
L 231.289625 238.421389 
L 232.495677 240.379858 
L 233.701729 241.533688 
L 234.907781 239.239615 
L 236.113833 223.229851 
L 237.319885 219.812117 
L 238.525937 232.616201 
L 239.731988 241.944952 
L 240.93804 237.022032 
L 242.144092 229.027719 
L 243.350144 240.668433 
L 244.556196 241.032222 
L 245.762248 239.270285 
L 246.9683 238.272518 
L 248.174352 236.861496 
L 249.380403 232.65976 
L 250.586455 234.84191 
L 251.792507 240.418166 
L 252.998559 236.488962 
L 254.204611 238.917824 
L 255.410663 237.991791 
L 256.616715 230.225525 
L 257.822767 237.937005 
L 259.028818 238.067558 
L 260.23487 235.956338 
L 261.440922 240.742409 
L 262.646974 237.182886 
L 263.853026 240.958832 
L 265.059078 237.286027 
L 266.26513 238.278087 
L 267.471182 238.608149 
L 268.677233 240.516882 
L 269.883285 235.630813 
L 271.089337 241.399346 
L 272.295389 240.950525 
L 273.501441 238.163668 
L 274.707493 241.175567 
L 275.913545 241.541517 
L 277.119597 240.690522 
L 278.325648 241.835258 
L 279.5317 241.361176 
L 280.737752 241.680143 
L 281.943804 241.873888 
L 283.149856 241.510371 
L 284.355908 241.965803 
L 285.56196 241.521039 
L 286.768012 241.605233 
L 287.974063 241.939799 
L 289.180115 242.07619 
L 290.386167 242.01922 
L 292.798271 242.11421 
L 300.034582 242.108119 
L 320.537464 242.115158 
L 433 242.11624 
M 433 242.116361 
L -1 242.116361 
L -1 242.116361 
" clip-path="url(#p5d303abf96)" style="fill: none; stroke: #c44e52; stroke-opacity: 0.3; stroke-width: 1.5; stroke-linecap: round"/>
   </g>
   <g id="line2d_18">
    <path d="M 54 242.114074 
L 157.720461 242.070894 
L 158.926513 241.839609 
L 160.132565 241.176116 
L 161.338617 241.380244 
L 162.544669 238.642296 
L 163.75072 236.888143 
L 164.956772 242.050318 
L 166.162824 219.181705 
L 167.368876 241.419235 
L 168.574928 241.200587 
L 169.78098 217.130764 
L 170.987032 219.145491 
L 172.193084 239.431633 
L 173.399135 237.295345 
L 174.605187 239.285971 
L 175.811239 229.372464 
L 177.017291 226.564048 
L 178.223343 216.202979 
L 179.429395 227.969298 
L 180.635447 221.559106 
L 181.841499 240.323019 
L 183.04755 228.946926 
L 184.253602 231.445341 
L 185.459654 227.403645 
L 186.665706 238.344249 
L 187.871758 226.411578 
L 189.07781 234.074527 
L 190.283862 228.565966 
L 191.489914 235.967524 
L 192.695965 217.009739 
L 193.902017 218.130502 
L 195.108069 237.55407 
L 196.314121 240.413014 
L 197.520173 237.288895 
L 198.726225 240.428923 
L 199.932277 240.402143 
L 201.138329 237.16538 
L 202.34438 241.855353 
L 203.550432 240.394726 
L 204.756484 231.793187 
L 205.962536 235.512941 
L 207.168588 236.564611 
L 208.37464 242.059821 
L 209.580692 240.466984 
L 210.786744 240.812291 
L 211.992795 229.0528 
L 213.198847 229.496003 
L 214.404899 235.511382 
L 215.610951 215.010509 
L 216.817003 239.628959 
L 218.023055 240.844431 
L 219.229107 241.199935 
L 220.435159 237.414565 
L 221.64121 235.414545 
L 222.847262 220.321877 
L 224.053314 239.276903 
L 225.259366 232.8848 
L 226.465418 113.375411 
L 227.67147 44.443636 
L 228.877522 182.704541 
L 230.083573 232.072581 
L 231.289625 237.144074 
L 232.495677 235.342869 
L 233.701729 241.826913 
L 234.907781 239.905305 
L 236.113833 241.526105 
L 237.319885 240.441784 
L 238.525937 240.033561 
L 239.731988 239.27659 
L 240.93804 241.492441 
L 242.144092 241.60819 
L 243.350144 241.164536 
L 244.556196 241.253337 
L 245.762248 239.220299 
L 246.9683 239.81275 
L 248.174352 241.42957 
L 249.380403 238.918791 
L 250.586455 240.888251 
L 251.792507 231.499519 
L 252.998559 239.782844 
L 254.204611 241.247848 
L 255.410663 240.683111 
L 256.616715 241.862772 
L 257.822767 238.928412 
L 259.028818 240.944507 
L 260.23487 242.02239 
L 261.440922 239.725082 
L 262.646974 239.461266 
L 263.853026 238.612621 
L 265.059078 240.064601 
L 266.26513 237.371465 
L 267.471182 240.832292 
L 268.677233 240.858417 
L 269.883285 241.779126 
L 271.089337 241.71531 
L 272.295389 239.814625 
L 273.501441 242.083829 
L 275.913545 241.333422 
L 277.119597 241.862803 
L 278.325648 242.083428 
L 279.5317 241.92292 
L 280.737752 242.106193 
L 281.943804 241.406449 
L 283.149856 241.969479 
L 284.355908 241.905272 
L 285.56196 242.077082 
L 287.974063 242.056353 
L 289.180115 242.010745 
L 290.386167 242.112002 
L 292.798271 242.082515 
L 304.85879 242.109534 
L 400.136888 242.115938 
L 433 242.116101 
M 433 242.116363 
L -1 242.116363 
L -1 242.116363 
" clip-path="url(#p5d303abf96)" style="fill: none; stroke: #8172b3; stroke-opacity: 0.3; stroke-width: 1.5; stroke-linecap: round"/>
   </g>
   <g id="line2d_19">
    <path d="M 54 242.111194 
L 160.132565 242.022288 
L 161.338617 241.750797 
L 162.544669 241.97928 
L 163.75072 241.556548 
L 164.956772 241.474703 
L 166.162824 239.353534 
L 167.368876 240.25782 
L 168.574928 240.444702 
L 169.78098 239.956702 
L 170.987032 241.250413 
L 172.193084 238.763224 
L 173.399135 241.809204 
L 174.605187 237.437203 
L 175.811239 240.229422 
L 177.017291 239.551595 
L 178.223343 236.522327 
L 179.429395 240.027891 
L 180.635447 237.021307 
L 181.841499 241.638872 
L 183.04755 240.402375 
L 184.253602 237.848653 
L 185.459654 241.505468 
L 186.665706 241.488645 
L 187.871758 242.051296 
L 189.07781 236.948939 
L 191.489914 242.038913 
L 192.695965 239.556494 
L 193.902017 237.810828 
L 195.108069 233.960373 
L 196.314121 238.383343 
L 197.520173 242.103094 
L 198.726225 240.865331 
L 199.932277 241.026916 
L 201.138329 241.604124 
L 202.34438 239.432098 
L 203.550432 240.485946 
L 204.756484 242.036507 
L 205.962536 240.631408 
L 207.168588 238.17587 
L 208.37464 240.612237 
L 209.580692 235.171371 
L 210.786744 237.684036 
L 211.992795 241.983048 
L 213.198847 242.048764 
L 214.404899 240.818961 
L 215.610951 241.629689 
L 216.817003 241.673238 
L 218.023055 237.20348 
L 219.229107 239.962095 
L 220.435159 241.883366 
L 221.64121 241.243926 
L 222.847262 225.04627 
L 224.053314 234.632314 
L 225.259366 235.721578 
L 226.465418 51.374646 
L 227.67147 44.443636 
L 228.877522 145.616909 
L 230.083573 230.360745 
L 231.289625 224.740611 
L 232.495677 235.241459 
L 233.701729 238.945234 
L 234.907781 237.172944 
L 236.113833 240.676721 
L 237.319885 242.095643 
L 239.731988 239.429082 
L 240.93804 242.004974 
L 242.144092 241.572448 
L 243.350144 240.735882 
L 244.556196 239.623271 
L 245.762248 241.098996 
L 246.9683 239.120488 
L 248.174352 240.238787 
L 249.380403 241.545863 
L 250.586455 241.846032 
L 251.792507 241.443491 
L 252.998559 241.207966 
L 254.204611 241.767514 
L 256.616715 241.953169 
L 257.822767 241.618277 
L 259.028818 241.403903 
L 260.23487 239.055419 
L 261.440922 237.34373 
L 262.646974 241.912319 
L 263.853026 241.9033 
L 265.059078 240.988475 
L 266.26513 240.675754 
L 267.471182 240.739432 
L 268.677233 241.995092 
L 269.883285 241.358473 
L 271.089337 241.747995 
L 272.295389 241.329236 
L 273.501441 242.025185 
L 274.707493 242.098576 
L 275.913545 241.989058 
L 277.119597 242.059655 
L 278.325648 241.895635 
L 279.5317 242.112902 
L 287.974063 242.095747 
L 300.034582 242.113191 
L 313.301153 242.113238 
L 433 242.115992 
M 433 242.116363 
L -1 242.116363 
L -1 242.116363 
" clip-path="url(#p5d303abf96)" style="fill: none; stroke: #937860; stroke-opacity: 0.3; stroke-width: 1.5; stroke-linecap: round"/>
   </g>
   <g id="line2d_20">
    <path d="M 54 242.114537 
L 152.896254 242.100413 
L 154.102305 241.926846 
L 156.514409 241.99871 
L 157.720461 238.867607 
L 158.926513 238.15418 
L 160.132565 241.163642 
L 161.338617 241.861042 
L 162.544669 239.020724 
L 163.75072 241.829265 
L 164.956772 223.063186 
L 166.162824 241.767954 
L 167.368876 225.475165 
L 168.574928 218.253646 
L 169.78098 189.092624 
L 170.987032 189.924655 
L 172.193084 186.858538 
L 173.399135 197.401909 
L 174.605187 240.645593 
L 175.811239 189.958283 
L 177.017291 239.657484 
L 178.223343 96.651715 
L 179.429395 221.125707 
L 180.635447 232.342517 
L 181.841499 170.684033 
L 183.04755 221.015737 
L 184.253602 235.915856 
L 185.459654 238.21628 
L 186.665706 214.55173 
L 187.871758 240.186421 
L 189.07781 207.187666 
L 190.283862 240.159905 
L 191.489914 199.24563 
L 192.695965 216.211576 
L 193.902017 175.901978 
L 195.108069 238.112366 
L 196.314121 231.805188 
L 197.520173 221.430611 
L 198.726225 184.52485 
L 199.932277 222.717419 
L 201.138329 223.522175 
L 202.34438 238.88773 
L 203.550432 228.78162 
L 204.756484 241.568382 
L 205.962536 231.996786 
L 207.168588 236.130492 
L 208.37464 240.930476 
L 209.580692 237.741763 
L 210.786744 232.818298 
L 211.992795 240.692551 
L 213.198847 209.03454 
L 214.404899 239.7902 
L 215.610951 221.439324 
L 216.817003 236.590647 
L 218.023055 218.043906 
L 219.229107 233.173523 
L 220.435159 187.392224 
L 221.64121 217.760866 
L 222.847262 238.926934 
L 224.053314 240.497626 
L 225.259366 213.524216 
L 226.465418 44.443636 
L 227.67147 176.623815 
L 228.877522 210.785102 
L 230.083573 237.836946 
L 231.289625 200.975367 
L 232.495677 189.092694 
L 233.701729 145.356348 
L 234.907781 207.525681 
L 236.113833 210.273692 
L 237.319885 210.646659 
L 238.525937 198.607009 
L 239.731988 237.812204 
L 240.93804 239.474003 
L 242.144092 234.708349 
L 243.350144 233.231071 
L 244.556196 239.165929 
L 245.762248 240.27013 
L 246.9683 241.529335 
L 248.174352 238.88533 
L 249.380403 237.772863 
L 250.586455 239.758297 
L 251.792507 241.473344 
L 252.998559 240.922474 
L 254.204611 233.274495 
L 255.410663 228.560324 
L 256.616715 240.05712 
L 257.822767 232.798198 
L 259.028818 237.817105 
L 260.23487 237.436331 
L 261.440922 217.05775 
L 262.646974 233.313438 
L 263.853026 225.813391 
L 265.059078 237.512925 
L 267.471182 229.807142 
L 268.677233 240.291761 
L 269.883285 239.758665 
L 271.089337 231.995209 
L 272.295389 240.987306 
L 273.501441 239.463217 
L 274.707493 241.18977 
L 275.913545 233.349454 
L 277.119597 241.00678 
L 278.325648 241.969295 
L 279.5317 241.178848 
L 280.737752 241.663262 
L 281.943804 241.569814 
L 283.149856 240.680032 
L 284.355908 241.957503 
L 285.56196 241.471665 
L 286.768012 241.593426 
L 287.974063 241.988506 
L 289.180115 242.070515 
L 290.386167 241.882972 
L 291.592219 242.096554 
L 309.682997 242.106686 
L 371.191643 242.114461 
L 433 242.115638 
M 433 242.116344 
L -1 242.116344 
L -1 242.116344 
" clip-path="url(#p5d303abf96)" style="fill: none; stroke: #da8bc3; stroke-opacity: 0.3; stroke-width: 1.5; stroke-linecap: round"/>
   </g>
   <g id="line2d_21">
    <path d="M 54 242.087113 
L 146.865994 242.057982 
L 150.48415 241.862167 
L 151.690202 242.046549 
L 152.896254 241.620896 
L 154.102305 242.042081 
L 155.308357 241.350379 
L 156.514409 241.715448 
L 157.720461 239.812825 
L 158.926513 239.684752 
L 160.132565 239.178026 
L 161.338617 234.816414 
L 162.544669 241.181512 
L 163.75072 226.336565 
L 164.956772 241.337425 
L 166.162824 233.100458 
L 167.368876 131.142566 
L 168.574928 236.613634 
L 169.78098 203.864287 
L 170.987032 197.062203 
L 172.193084 193.262041 
L 173.399135 225.713127 
L 174.605187 221.625275 
L 175.811239 74.325731 
L 177.017291 233.521804 
L 178.223343 216.421627 
L 179.429395 232.672566 
L 180.635447 219.892833 
L 181.841499 220.612487 
L 183.04755 208.897299 
L 184.253602 239.496562 
L 185.459654 235.95306 
L 186.665706 167.631657 
L 187.871758 167.328793 
L 189.07781 144.218379 
L 190.283862 44.443636 
L 191.489914 119.624184 
L 192.695965 131.231518 
L 193.902017 222.01036 
L 195.108069 239.376243 
L 196.314121 120.374 
L 198.726225 148.536005 
L 199.932277 175.133617 
L 201.138329 233.084359 
L 202.34438 232.923149 
L 203.550432 195.56239 
L 204.756484 196.159045 
L 205.962536 154.139511 
L 207.168588 151.151418 
L 208.37464 198.830158 
L 209.580692 227.978182 
L 210.786744 238.069285 
L 211.992795 239.691385 
L 213.198847 231.986742 
L 214.404899 176.766618 
L 215.610951 174.451657 
L 216.817003 210.842283 
L 218.023055 218.952609 
L 219.229107 237.406553 
L 220.435159 238.913315 
L 221.64121 181.209737 
L 222.847262 219.305339 
L 224.053314 184.702949 
L 225.259366 212.673439 
L 226.465418 80.617078 
L 227.67147 226.997908 
L 228.877522 226.127598 
L 230.083573 236.48949 
L 231.289625 220.523108 
L 232.495677 225.931151 
L 233.701729 238.760265 
L 234.907781 232.345641 
L 236.113833 208.388488 
L 237.319885 235.177427 
L 238.525937 219.456165 
L 239.731988 220.673434 
L 240.93804 240.054911 
L 242.144092 221.921939 
L 243.350144 233.572029 
L 244.556196 194.681941 
L 245.762248 225.709498 
L 246.9683 201.704627 
L 248.174352 200.569463 
L 249.380403 236.594207 
L 250.586455 233.84978 
L 251.792507 233.241235 
L 252.998559 227.696583 
L 254.204611 86.466895 
L 255.410663 199.275911 
L 256.616715 223.451697 
L 257.822767 222.430982 
L 259.028818 236.498071 
L 260.23487 226.671501 
L 261.440922 189.587268 
L 262.646974 223.441993 
L 263.853026 211.932457 
L 265.059078 235.503341 
L 266.26513 228.840663 
L 267.471182 211.792667 
L 268.677233 202.677619 
L 271.089337 240.947633 
L 272.295389 229.971625 
L 273.501441 213.128245 
L 274.707493 239.299836 
L 275.913545 240.441705 
L 277.119597 235.556664 
L 278.325648 241.016135 
L 279.5317 242.059251 
L 280.737752 241.826465 
L 281.943804 241.168294 
L 283.149856 241.554651 
L 284.355908 241.063715 
L 285.56196 242.104251 
L 286.768012 241.854179 
L 287.974063 241.782245 
L 290.386167 241.305765 
L 291.592219 241.95467 
L 292.798271 241.69723 
L 294.004323 241.713017 
L 295.210375 241.883731 
L 298.82853 241.949383 
L 300.034582 242.098881 
L 312.095101 242.087232 
L 339.834294 242.107065 
L 433 242.114551 
M 433 242.116327 
L -1 242.116327 
L -1 242.116327 
" clip-path="url(#p5d303abf96)" style="fill: none; stroke: #8c8c8c; stroke-opacity: 0.3; stroke-width: 1.5; stroke-linecap: round"/>
   </g>
   <g id="line2d_22">
    <path d="M 54 242.116364 
L 154.102305 242.072971 
L 155.308357 241.99688 
L 156.514409 242.089881 
L 157.720461 241.892549 
L 158.926513 242.067121 
L 160.132565 241.836291 
L 161.338617 242.048057 
L 162.544669 238.999291 
L 163.75072 236.564832 
L 164.956772 242.070345 
L 166.162824 231.718652 
L 167.368876 237.36169 
L 168.574928 237.733823 
L 169.78098 224.011573 
L 170.987032 235.728449 
L 172.193084 206.657147 
L 173.399135 219.249626 
L 174.605187 221.734934 
L 175.811239 241.429238 
L 177.017291 239.412907 
L 178.223343 233.457007 
L 179.429395 238.212762 
L 180.635447 239.783112 
L 181.841499 236.011336 
L 183.04755 239.348249 
L 184.253602 241.962947 
L 185.459654 241.816372 
L 186.665706 237.81437 
L 187.871758 237.423432 
L 189.07781 234.123351 
L 190.283862 225.425649 
L 191.489914 218.555525 
L 192.695965 236.156219 
L 193.902017 233.640771 
L 195.108069 233.049719 
L 196.314121 221.490469 
L 197.520173 227.026221 
L 198.726225 227.780545 
L 199.932277 238.477044 
L 201.138329 236.667876 
L 202.34438 239.794757 
L 203.550432 229.866527 
L 204.756484 232.97039 
L 205.962536 232.812524 
L 207.168588 240.162406 
L 208.37464 234.089644 
L 209.580692 241.531804 
L 210.786744 236.800991 
L 211.992795 236.070455 
L 213.198847 239.177749 
L 214.404899 235.55744 
L 215.610951 237.053053 
L 216.817003 239.91008 
L 218.023055 239.093371 
L 219.229107 240.804824 
L 220.435159 241.017365 
L 221.64121 235.28179 
L 222.847262 211.787122 
L 224.053314 229.677504 
L 225.259366 198.069518 
L 226.465418 44.443636 
L 227.67147 134.807552 
L 228.877522 180.679507 
L 230.083573 217.156127 
L 231.289625 239.66821 
L 232.495677 233.515629 
L 233.701729 239.987344 
L 234.907781 240.268989 
L 236.113833 239.0183 
L 237.319885 240.359122 
L 238.525937 235.229504 
L 239.731988 239.672727 
L 240.93804 240.201909 
L 242.144092 241.786996 
L 243.350144 238.387256 
L 244.556196 237.748636 
L 245.762248 240.742282 
L 246.9683 238.886164 
L 248.174352 238.268618 
L 249.380403 241.147966 
L 250.586455 240.437901 
L 251.792507 241.994051 
L 252.998559 239.275482 
L 254.204611 231.780319 
L 255.410663 238.844501 
L 256.616715 241.981119 
L 257.822767 240.496916 
L 259.028818 241.934355 
L 260.23487 240.621556 
L 261.440922 236.859289 
L 262.646974 241.202668 
L 263.853026 239.566126 
L 265.059078 241.63274 
L 267.471182 238.808992 
L 268.677233 240.004964 
L 269.883285 240.014037 
L 271.089337 242.087098 
L 272.295389 240.817558 
L 273.501441 238.651887 
L 274.707493 242.072037 
L 275.913545 242.013918 
L 277.119597 241.519716 
L 278.325648 242.033665 
L 279.5317 242.114007 
L 280.737752 242.081412 
L 281.943804 241.849815 
L 283.149856 242.043785 
L 304.85879 242.112526 
L 394.106628 242.116196 
L 433 242.116282 
M 433 242.116363 
L -1 242.116363 
L -1 242.116363 
" clip-path="url(#p5d303abf96)" style="fill: none; stroke: #ccb974; stroke-opacity: 0.3; stroke-width: 1.5; stroke-linecap: round"/>
   </g>
   <g id="line2d_23">
    <path d="M 54 242.116216 
L 152.896254 242.081831 
L 154.102305 241.965285 
L 155.308357 242.10172 
L 156.514409 242.076436 
L 157.720461 240.839336 
L 158.926513 240.671394 
L 160.132565 241.899407 
L 161.338617 239.085259 
L 162.544669 238.898519 
L 163.75072 232.57279 
L 164.956772 239.755912 
L 166.162824 234.80918 
L 167.368876 239.195688 
L 168.574928 235.582348 
L 169.78098 221.488554 
L 170.987032 216.872222 
L 172.193084 233.75098 
L 173.399135 241.933143 
L 174.605187 228.983659 
L 175.811239 231.626175 
L 177.017291 217.763281 
L 178.223343 234.259223 
L 179.429395 229.781648 
L 180.635447 237.246926 
L 181.841499 240.29655 
L 183.04755 238.657751 
L 184.253602 239.572642 
L 185.459654 240.961215 
L 186.665706 236.248567 
L 187.871758 242.048644 
L 189.07781 241.366136 
L 190.283862 237.973674 
L 191.489914 235.554055 
L 192.695965 238.629086 
L 193.902017 240.709509 
L 195.108069 238.095021 
L 196.314121 240.496513 
L 197.520173 239.52484 
L 198.726225 240.868899 
L 199.932277 241.992867 
L 201.138329 240.981802 
L 202.34438 241.495662 
L 203.550432 236.035916 
L 204.756484 241.96109 
L 205.962536 241.76756 
L 207.168588 239.296181 
L 208.37464 239.604535 
L 209.580692 235.769774 
L 210.786744 239.055154 
L 211.992795 239.031058 
L 213.198847 241.389607 
L 214.404899 239.840057 
L 215.610951 238.100138 
L 216.817003 241.795804 
L 218.023055 239.123953 
L 219.229107 239.231004 
L 220.435159 241.551854 
L 221.64121 241.059389 
L 222.847262 237.824909 
L 224.053314 233.704656 
L 225.259366 231.368382 
L 226.465418 103.185131 
L 227.67147 44.443636 
L 228.877522 158.612946 
L 230.083573 227.064288 
L 231.289625 237.062975 
L 232.495677 232.759723 
L 233.701729 237.434506 
L 234.907781 239.642935 
L 236.113833 240.781064 
L 237.319885 240.879539 
L 238.525937 242.078793 
L 239.731988 240.70512 
L 240.93804 241.005746 
L 242.144092 240.323109 
L 243.350144 239.897348 
L 244.556196 241.823871 
L 245.762248 241.275293 
L 246.9683 237.202419 
L 248.174352 238.868586 
L 249.380403 241.74684 
L 250.586455 240.481821 
L 251.792507 241.586998 
L 252.998559 241.975214 
L 254.204611 241.473714 
L 255.410663 241.445994 
L 256.616715 239.536536 
L 257.822767 242.039496 
L 259.028818 241.727012 
L 261.440922 240.560145 
L 262.646974 241.469496 
L 263.853026 239.959291 
L 265.059078 242.113013 
L 266.26513 241.036841 
L 267.471182 241.878722 
L 269.883285 242.058037 
L 271.089337 241.655229 
L 272.295389 241.958891 
L 298.82853 242.116344 
L 433 242.116339 
M 433 242.116363 
L -1 242.116363 
L -1 242.116363 
" clip-path="url(#p5d303abf96)" style="fill: none; stroke: #64b5cd; stroke-opacity: 0.3; stroke-width: 1.5; stroke-linecap: round"/>
   </g>
   <g id="line2d_24">
    <path d="M 54 242.116355 
L 152.896254 242.084409 
L 154.102305 241.871352 
L 155.308357 242.049691 
L 156.514409 241.4016 
L 157.720461 240.987736 
L 158.926513 239.863996 
L 160.132565 240.028275 
L 161.338617 239.149856 
L 162.544669 231.610875 
L 163.75072 212.695462 
L 164.956772 235.596626 
L 166.162824 219.664559 
L 167.368876 225.114057 
L 168.574928 232.017037 
L 169.78098 171.092292 
L 170.987032 55.845587 
L 172.193084 199.551495 
L 173.399135 231.76758 
L 174.605187 215.163923 
L 177.017291 227.433143 
L 178.223343 238.251687 
L 179.429395 237.935141 
L 180.635447 201.536685 
L 181.841499 233.794492 
L 183.04755 217.937745 
L 184.253602 231.599679 
L 185.459654 226.5011 
L 186.665706 212.819927 
L 187.871758 214.882088 
L 189.07781 240.810672 
L 190.283862 238.543742 
L 191.489914 223.624561 
L 192.695965 119.59283 
L 193.902017 191.281763 
L 195.108069 240.150192 
L 196.314121 200.643301 
L 197.520173 234.300656 
L 198.726225 239.450784 
L 199.932277 241.138469 
L 201.138329 233.216215 
L 202.34438 241.741926 
L 203.550432 206.121202 
L 204.756484 240.418822 
L 205.962536 238.252218 
L 207.168588 234.525922 
L 208.37464 236.549742 
L 209.580692 224.308672 
L 210.786744 241.046469 
L 211.992795 227.821771 
L 214.404899 237.444348 
L 215.610951 234.631124 
L 216.817003 238.944273 
L 218.023055 238.253816 
L 219.229107 241.429705 
L 220.435159 241.021768 
L 221.64121 241.750988 
L 222.847262 234.808428 
L 224.053314 224.830589 
L 225.259366 208.480461 
L 226.465418 44.443636 
L 227.67147 147.448625 
L 228.877522 198.636568 
L 230.083573 222.768405 
L 231.289625 231.083441 
L 232.495677 229.934513 
L 233.701729 239.298364 
L 234.907781 241.992866 
L 236.113833 238.836138 
L 237.319885 237.954902 
L 238.525937 240.805858 
L 239.731988 240.857299 
L 240.93804 233.334439 
L 242.144092 241.566955 
L 243.350144 233.533173 
L 244.556196 239.132137 
L 245.762248 235.637094 
L 246.9683 236.077683 
L 248.174352 240.330976 
L 249.380403 238.046452 
L 250.586455 238.766193 
L 251.792507 240.809677 
L 252.998559 238.394419 
L 254.204611 238.023332 
L 255.410663 240.55575 
L 256.616715 241.780949 
L 257.822767 241.836592 
L 259.028818 240.293795 
L 260.23487 241.32262 
L 261.440922 239.207896 
L 262.646974 240.995927 
L 263.853026 234.828651 
L 265.059078 240.691641 
L 266.26513 241.550706 
L 267.471182 241.35418 
L 268.677233 240.019382 
L 269.883285 240.146655 
L 271.089337 242.101812 
L 272.295389 241.186466 
L 273.501441 242.087426 
L 274.707493 241.924646 
L 275.913545 241.496584 
L 277.119597 242.112347 
L 278.325648 241.812033 
L 279.5317 241.642436 
L 280.737752 242.109614 
L 291.592219 242.089904 
L 302.446686 242.115265 
L 433 242.116151 
M 433 242.116342 
L -1 242.116342 
L -1 242.116342 
" clip-path="url(#p5d303abf96)" style="fill: none; stroke: #4c72b0; stroke-opacity: 0.3; stroke-width: 1.5; stroke-linecap: round"/>
   </g>
   <g id="line2d_25">
    <path d="M 54 242.108965 
L 146.865994 242.031067 
L 149.278098 241.904349 
L 152.896254 242.11097 
L 155.308357 241.525322 
L 156.514409 241.317074 
L 157.720461 241.383097 
L 158.926513 237.910098 
L 160.132565 230.047867 
L 161.338617 241.440446 
L 162.544669 222.422515 
L 163.75072 222.065355 
L 164.956772 240.822205 
L 166.162824 213.296973 
L 167.368876 222.403844 
L 168.574928 240.288931 
L 169.78098 223.081861 
L 170.987032 191.025619 
L 172.193084 221.301015 
L 173.399135 227.886815 
L 174.605187 228.076431 
L 175.811239 233.960314 
L 177.017291 216.605466 
L 178.223343 218.074271 
L 179.429395 190.368916 
L 180.635447 197.268399 
L 181.841499 230.829617 
L 183.04755 221.875721 
L 184.253602 203.550527 
L 185.459654 217.005865 
L 186.665706 240.565027 
L 187.871758 206.568512 
L 189.07781 234.808776 
L 190.283862 213.224259 
L 191.489914 228.406444 
L 192.695965 121.154042 
L 193.902017 200.177218 
L 195.108069 235.021449 
L 196.314121 219.102026 
L 197.520173 233.920812 
L 198.726225 240.734023 
L 199.932277 225.716573 
L 201.138329 223.739749 
L 202.34438 231.363866 
L 203.550432 180.989767 
L 204.756484 206.324557 
L 205.962536 224.85922 
L 207.168588 210.761137 
L 208.37464 239.737009 
L 209.580692 207.425164 
L 210.786744 232.072 
L 211.992795 237.67969 
L 213.198847 241.274391 
L 214.404899 221.311035 
L 215.610951 241.051501 
L 216.817003 235.116689 
L 218.023055 239.461705 
L 219.229107 240.806606 
L 220.435159 222.061944 
L 221.64121 228.911257 
L 222.847262 231.836752 
L 224.053314 232.545306 
L 225.259366 207.681425 
L 226.465418 77.964772 
L 227.67147 44.443636 
L 228.877522 163.52302 
L 230.083573 229.911604 
L 231.289625 220.959813 
L 232.495677 236.197277 
L 233.701729 225.826197 
L 234.907781 240.352674 
L 236.113833 238.028307 
L 237.319885 226.423325 
L 238.525937 233.312541 
L 239.731988 238.23178 
L 240.93804 236.474495 
L 242.144092 230.396084 
L 243.350144 241.263905 
L 244.556196 217.797887 
L 245.762248 235.143885 
L 246.9683 231.670401 
L 248.174352 239.903965 
L 249.380403 234.185242 
L 250.586455 236.823466 
L 251.792507 238.747584 
L 252.998559 236.946828 
L 254.204611 234.831398 
L 255.410663 230.686302 
L 256.616715 230.060689 
L 257.822767 239.442277 
L 259.028818 241.58557 
L 260.23487 234.313508 
L 261.440922 227.8019 
L 262.646974 238.972252 
L 263.853026 240.771853 
L 265.059078 241.107348 
L 266.26513 241.949088 
L 267.471182 239.48994 
L 268.677233 240.637678 
L 269.883285 239.965885 
L 271.089337 241.767255 
L 272.295389 241.534829 
L 273.501441 241.512999 
L 274.707493 241.992107 
L 277.119597 242.091422 
L 279.5317 241.801325 
L 280.737752 242.082319 
L 281.943804 242.101575 
L 283.149856 241.896539 
L 284.355908 242.10037 
L 290.386167 242.088257 
L 291.592219 241.901148 
L 292.798271 242.067784 
L 303.652738 242.116003 
L 324.15562 242.115469 
L 433 242.11622 
M 433 242.116352 
L -1 242.116352 
L -1 242.116352 
" clip-path="url(#p5d303abf96)" style="fill: none; stroke: #dd8452; stroke-opacity: 0.3; stroke-width: 1.5; stroke-linecap: round"/>
   </g>
   <g id="patch_3">
    <path d="M 54 252 
L 54 34.56 
" style="fill: none; stroke: #262626; stroke-width: 1.25; stroke-linejoin: miter; stroke-linecap: square"/>
   </g>
   <g id="patch_4">
    <path d="M 388.8 252 
L 388.8 34.56 
" style="fill: none; stroke: #262626; stroke-width: 1.25; stroke-linejoin: miter; stroke-linecap: square"/>
   </g>
   <g id="patch_5">
    <path d="M 54 252 
L 388.8 252 
" style="fill: none; stroke: #262626; stroke-width: 1.25; stroke-linejoin: miter; stroke-linecap: square"/>
   </g>
   <g id="patch_6">
    <path d="M 54 34.56 
L 388.8 34.56 
" style="fill: none; stroke: #262626; stroke-width: 1.25; stroke-linejoin: miter; stroke-linecap: square"/>
   </g>
   <g id="text_15">
    <!-- patient14_app01_second - Power spectrum -->
    <g style="fill: #262626" transform="translate(105.334688 28.56)scale(0.12 -0.12)">
     <defs>
      <path id="ArialMT-70" d="M 422 -1272 
L 422 3319 
L 934 3319 
L 934 2888 
Q 1116 3141 1344 3267 
Q 1572 3394 1897 3394 
Q 2322 3394 2647 3175 
Q 2972 2956 3137 2557 
Q 3303 2159 3303 1684 
Q 3303 1175 3120 767 
Q 2938 359 2589 142 
Q 2241 -75 1856 -75 
Q 1575 -75 1351 44 
Q 1128 163 984 344 
L 984 -1272 
L 422 -1272 
z
M 931 1641 
Q 931 1000 1190 694 
Q 1450 388 1819 388 
Q 2194 388 2461 705 
Q 2728 1022 2728 1688 
Q 2728 2322 2467 2637 
Q 2206 2953 1844 2953 
Q 1484 2953 1207 2617 
Q 931 2281 931 1641 
z
" transform="scale(0.015625)"/>
      <path id="ArialMT-61" d="M 2588 409 
Q 2275 144 1986 34 
Q 1697 -75 1366 -75 
Q 819 -75 525 192 
Q 231 459 231 875 
Q 231 1119 342 1320 
Q 453 1522 633 1644 
Q 813 1766 1038 1828 
Q 1203 1872 1538 1913 
Q 2219 1994 2541 2106 
Q 2544 2222 2544 2253 
Q 2544 2597 2384 2738 
Q 2169 2928 1744 2928 
Q 1347 2928 1158 2789 
Q 969 2650 878 2297 
L 328 2372 
Q 403 2725 575 2942 
Q 747 3159 1072 3276 
Q 1397 3394 1825 3394 
Q 2250 3394 2515 3294 
Q 2781 3194 2906 3042 
Q 3031 2891 3081 2659 
Q 3109 2516 3109 2141 
L 3109 1391 
Q 3109 606 3145 398 
Q 3181 191 3288 0 
L 2700 0 
Q 2613 175 2588 409 
z
M 2541 1666 
Q 2234 1541 1622 1453 
Q 1275 1403 1131 1340 
Q 988 1278 909 1158 
Q 831 1038 831 891 
Q 831 666 1001 516 
Q 1172 366 1500 366 
Q 1825 366 2078 508 
Q 2331 650 2450 897 
Q 2541 1088 2541 1459 
L 2541 1666 
z
" transform="scale(0.015625)"/>
      <path id="ArialMT-74" d="M 1650 503 
L 1731 6 
Q 1494 -44 1306 -44 
Q 1000 -44 831 53 
Q 663 150 594 308 
Q 525 466 525 972 
L 525 2881 
L 113 2881 
L 113 3319 
L 525 3319 
L 525 4141 
L 1084 4478 
L 1084 3319 
L 1650 3319 
L 1650 2881 
L 1084 2881 
L 1084 941 
Q 1084 700 1114 631 
Q 1144 563 1211 522 
Q 1278 481 1403 481 
Q 1497 481 1650 503 
z
" transform="scale(0.015625)"/>
      <path id="ArialMT-69" d="M 425 3934 
L 425 4581 
L 988 4581 
L 988 3934 
L 425 3934 
z
M 425 0 
L 425 3319 
L 988 3319 
L 988 0 
L 425 0 
z
" transform="scale(0.015625)"/>
      <path id="ArialMT-5f" d="M -97 -1272 
L -97 -866 
L 3631 -866 
L 3631 -1272 
L -97 -1272 
z
" transform="scale(0.015625)"/>
      <path id="ArialMT-73" d="M 197 991 
L 753 1078 
Q 800 744 1014 566 
Q 1228 388 1613 388 
Q 2000 388 2187 545 
Q 2375 703 2375 916 
Q 2375 1106 2209 1216 
Q 2094 1291 1634 1406 
Q 1016 1563 777 1677 
Q 538 1791 414 1992 
Q 291 2194 291 2438 
Q 291 2659 392 2848 
Q 494 3038 669 3163 
Q 800 3259 1026 3326 
Q 1253 3394 1513 3394 
Q 1903 3394 2198 3281 
Q 2494 3169 2634 2976 
Q 2775 2784 2828 2463 
L 2278 2388 
Q 2241 2644 2061 2787 
Q 1881 2931 1553 2931 
Q 1166 2931 1000 2803 
Q 834 2675 834 2503 
Q 834 2394 903 2306 
Q 972 2216 1119 2156 
Q 1203 2125 1616 2013 
Q 2213 1853 2448 1751 
Q 2684 1650 2818 1456 
Q 2953 1263 2953 975 
Q 2953 694 2789 445 
Q 2625 197 2315 61 
Q 2006 -75 1616 -75 
Q 969 -75 630 194 
Q 291 463 197 991 
z
" transform="scale(0.015625)"/>
      <path id="ArialMT-6f" d="M 213 1659 
Q 213 2581 725 3025 
Q 1153 3394 1769 3394 
Q 2453 3394 2887 2945 
Q 3322 2497 3322 1706 
Q 3322 1066 3130 698 
Q 2938 331 2570 128 
Q 2203 -75 1769 -75 
Q 1072 -75 642 372 
Q 213 819 213 1659 
z
M 791 1659 
Q 791 1022 1069 705 
Q 1347 388 1769 388 
Q 2188 388 2466 706 
Q 2744 1025 2744 1678 
Q 2744 2294 2464 2611 
Q 2184 2928 1769 2928 
Q 1347 2928 1069 2612 
Q 791 2297 791 1659 
z
" transform="scale(0.015625)"/>
      <path id="ArialMT-64" d="M 2575 0 
L 2575 419 
Q 2259 -75 1647 -75 
Q 1250 -75 917 144 
Q 584 363 401 755 
Q 219 1147 219 1656 
Q 219 2153 384 2558 
Q 550 2963 881 3178 
Q 1213 3394 1622 3394 
Q 1922 3394 2156 3267 
Q 2391 3141 2538 2938 
L 2538 4581 
L 3097 4581 
L 3097 0 
L 2575 0 
z
M 797 1656 
Q 797 1019 1065 703 
Q 1334 388 1700 388 
Q 2069 388 2326 689 
Q 2584 991 2584 1609 
Q 2584 2291 2321 2609 
Q 2059 2928 1675 2928 
Q 1300 2928 1048 2622 
Q 797 2316 797 1656 
z
" transform="scale(0.015625)"/>
      <path id="ArialMT-2d" d="M 203 1375 
L 203 1941 
L 1931 1941 
L 1931 1375 
L 203 1375 
z
" transform="scale(0.015625)"/>
      <path id="ArialMT-50" d="M 494 0 
L 494 4581 
L 2222 4581 
Q 2678 4581 2919 4538 
Q 3256 4481 3484 4323 
Q 3713 4166 3852 3881 
Q 3991 3597 3991 3256 
Q 3991 2672 3619 2267 
Q 3247 1863 2275 1863 
L 1100 1863 
L 1100 0 
L 494 0 
z
M 1100 2403 
L 2284 2403 
Q 2872 2403 3119 2622 
Q 3366 2841 3366 3238 
Q 3366 3525 3220 3729 
Q 3075 3934 2838 4000 
Q 2684 4041 2272 4041 
L 1100 4041 
L 1100 2403 
z
" transform="scale(0.015625)"/>
      <path id="ArialMT-77" d="M 1034 0 
L 19 3319 
L 600 3319 
L 1128 1403 
L 1325 691 
Q 1338 744 1497 1375 
L 2025 3319 
L 2603 3319 
L 3100 1394 
L 3266 759 
L 3456 1400 
L 4025 3319 
L 4572 3319 
L 3534 0 
L 2950 0 
L 2422 1988 
L 2294 2553 
L 1622 0 
L 1034 0 
z
" transform="scale(0.015625)"/>
      <path id="ArialMT-6d" d="M 422 0 
L 422 3319 
L 925 3319 
L 925 2853 
Q 1081 3097 1340 3245 
Q 1600 3394 1931 3394 
Q 2300 3394 2536 3241 
Q 2772 3088 2869 2813 
Q 3263 3394 3894 3394 
Q 4388 3394 4653 3120 
Q 4919 2847 4919 2278 
L 4919 0 
L 4359 0 
L 4359 2091 
Q 4359 2428 4304 2576 
Q 4250 2725 4106 2815 
Q 3963 2906 3769 2906 
Q 3419 2906 3187 2673 
Q 2956 2441 2956 1928 
L 2956 0 
L 2394 0 
L 2394 2156 
Q 2394 2531 2256 2718 
Q 2119 2906 1806 2906 
Q 1569 2906 1367 2781 
Q 1166 2656 1075 2415 
Q 984 2175 984 1722 
L 984 0 
L 422 0 
z
" transform="scale(0.015625)"/>
     </defs>
     <use xlink:href="#ArialMT-70"/>
     <use xlink:href="#ArialMT-61" x="55.615234"/>
     <use xlink:href="#ArialMT-74" x="111.230469"/>
     <use xlink:href="#ArialMT-69" x="139.013672"/>
     <use xlink:href="#ArialMT-65" x="161.230469"/>
     <use xlink:href="#ArialMT-6e" x="216.845703"/>
     <use xlink:href="#ArialMT-74" x="272.460938"/>
     <use xlink:href="#ArialMT-31" x="300.244141"/>
     <use xlink:href="#ArialMT-34" x="355.859375"/>
     <use xlink:href="#ArialMT-5f" x="411.474609"/>
     <use xlink:href="#ArialMT-61" x="467.089844"/>
     <use xlink:href="#ArialMT-70" x="522.705078"/>
     <use xlink:href="#ArialMT-70" x="578.320312"/>
     <use xlink:href="#ArialMT-30" x="633.935547"/>
     <use xlink:href="#ArialMT-31" x="689.550781"/>
     <use xlink:href="#ArialMT-5f" x="745.166016"/>
     <use xlink:href="#ArialMT-73" x="800.78125"/>
     <use xlink:href="#ArialMT-65" x="850.78125"/>
     <use xlink:href="#ArialMT-63" x="906.396484"/>
     <use xlink:href="#ArialMT-6f" x="956.396484"/>
     <use xlink:href="#ArialMT-6e" x="1012.011719"/>
     <use xlink:href="#ArialMT-64" x="1067.626953"/>
     <use xlink:href="#ArialMT-20" x="1123.242188"/>
     <use xlink:href="#ArialMT-2d" x="1151.025391"/>
     <use xlink:href="#ArialMT-20" x="1184.326172"/>
     <use xlink:href="#ArialMT-50" x="1212.109375"/>
     <use xlink:href="#ArialMT-6f" x="1278.808594"/>
     <use xlink:href="#ArialMT-77" x="1334.423828"/>
     <use xlink:href="#ArialMT-65" x="1406.640625"/>
     <use xlink:href="#ArialMT-72" x="1462.255859"/>
     <use xlink:href="#ArialMT-20" x="1495.556641"/>
     <use xlink:href="#ArialMT-73" x="1523.339844"/>
     <use xlink:href="#ArialMT-70" x="1573.339844"/>
     <use xlink:href="#ArialMT-65" x="1628.955078"/>
     <use xlink:href="#ArialMT-63" x="1684.570312"/>
     <use xlink:href="#ArialMT-74" x="1734.570312"/>
     <use xlink:href="#ArialMT-72" x="1762.353516"/>
     <use xlink:href="#ArialMT-75" x="1795.654297"/>
     <use xlink:href="#ArialMT-6d" x="1851.269531"/>
    </g>
   </g>
  </g>
 </g>
 <defs>
  <clipPath id="p5d303abf96">
   <rect x="54" y="34.56" width="334.8" height="217.44"/>
  </clipPath>
 </defs>
</svg>
