<?xml version="1.0" encoding="utf-8" standalone="no"?>
<!DOCTYPE svg PUBLIC "-//W3C//DTD SVG 1.1//EN"
  "http://www.w3.org/Graphics/SVG/1.1/DTD/svg11.dtd">
<svg xmlns:xlink="http://www.w3.org/1999/xlink" width="432pt" height="288pt" viewBox="0 0 432 288" xmlns="http://www.w3.org/2000/svg" version="1.1">
 <metadata>
  <rdf:RDF xmlns:dc="http://purl.org/dc/elements/1.1/" xmlns:cc="http://creativecommons.org/ns#" xmlns:rdf="http://www.w3.org/1999/02/22-rdf-syntax-ns#">
   <cc:Work>
    <dc:type rdf:resource="http://purl.org/dc/dcmitype/StillImage"/>
    <dc:date>2022-07-08T13:41:49.403067</dc:date>
    <dc:format>image/svg+xml</dc:format>
    <dc:creator>
     <cc:Agent>
      <dc:title>Matplotlib v3.5.1, https://matplotlib.org/</dc:title>
     </cc:Agent>
    </dc:creator>
   </cc:Work>
  </rdf:RDF>
 </metadata>
 <defs>
  <style type="text/css">*{stroke-linejoin: round; stroke-linecap: butt}</style>
 </defs>
 <g id="figure_1">
  <g id="patch_1">
   <path d="M 0 288 
L 432 288 
L 432 0 
L 0 0 
z
" style="fill: #ffffff"/>
  </g>
  <g id="axes_1">
   <g id="patch_2">
    <path d="M 54 252 
L 388.8 252 
L 388.8 34.56 
L 54 34.56 
z
" style="fill: #ffffff"/>
   </g>
   <g id="matplotlib.axis_1">
    <g id="xtick_1">
     <g id="line2d_1">
      <defs>
       <path id="m7e4f0bd8b5" d="M 0 0 
L 0 6 
" style="stroke: #262626; stroke-width: 1.25"/>
      </defs>
      <g>
       <use xlink:href="#m7e4f0bd8b5" x="54" y="252" style="fill: #262626; stroke: #262626; stroke-width: 1.25"/>
      </g>
     </g>
     <g id="text_1">
      <!-- 0 -->
      <g style="fill: #262626" transform="translate(50.941484 269.373594)scale(0.11 -0.11)">
       <defs>
        <path id="ArialMT-30" d="M 266 2259 
Q 266 3072 433 3567 
Q 600 4063 929 4331 
Q 1259 4600 1759 4600 
Q 2128 4600 2406 4451 
Q 2684 4303 2865 4023 
Q 3047 3744 3150 3342 
Q 3253 2941 3253 2259 
Q 3253 1453 3087 958 
Q 2922 463 2592 192 
Q 2263 -78 1759 -78 
Q 1097 -78 719 397 
Q 266 969 266 2259 
z
M 844 2259 
Q 844 1131 1108 757 
Q 1372 384 1759 384 
Q 2147 384 2411 759 
Q 2675 1134 2675 2259 
Q 2675 3391 2411 3762 
Q 2147 4134 1753 4134 
Q 1366 4134 1134 3806 
Q 844 3388 844 2259 
z
" transform="scale(0.015625)"/>
       </defs>
       <use xlink:href="#ArialMT-30"/>
      </g>
     </g>
    </g>
    <g id="xtick_2">
     <g id="line2d_2">
      <g>
       <use xlink:href="#m7e4f0bd8b5" x="109.8" y="252" style="fill: #262626; stroke: #262626; stroke-width: 1.25"/>
      </g>
     </g>
     <g id="text_2">
      <!-- 5 -->
      <g style="fill: #262626" transform="translate(106.741484 269.373594)scale(0.11 -0.11)">
       <defs>
        <path id="ArialMT-35" d="M 266 1200 
L 856 1250 
Q 922 819 1161 601 
Q 1400 384 1738 384 
Q 2144 384 2425 690 
Q 2706 997 2706 1503 
Q 2706 1984 2436 2262 
Q 2166 2541 1728 2541 
Q 1456 2541 1237 2417 
Q 1019 2294 894 2097 
L 366 2166 
L 809 4519 
L 3088 4519 
L 3088 3981 
L 1259 3981 
L 1013 2750 
Q 1425 3038 1878 3038 
Q 2478 3038 2890 2622 
Q 3303 2206 3303 1553 
Q 3303 931 2941 478 
Q 2500 -78 1738 -78 
Q 1113 -78 717 272 
Q 322 622 266 1200 
z
" transform="scale(0.015625)"/>
       </defs>
       <use xlink:href="#ArialMT-35"/>
      </g>
     </g>
    </g>
    <g id="xtick_3">
     <g id="line2d_3">
      <g>
       <use xlink:href="#m7e4f0bd8b5" x="165.6" y="252" style="fill: #262626; stroke: #262626; stroke-width: 1.25"/>
      </g>
     </g>
     <g id="text_3">
      <!-- 10 -->
      <g style="fill: #262626" transform="translate(159.482969 269.373594)scale(0.11 -0.11)">
       <defs>
        <path id="ArialMT-31" d="M 2384 0 
L 1822 0 
L 1822 3584 
Q 1619 3391 1289 3197 
Q 959 3003 697 2906 
L 697 3450 
Q 1169 3672 1522 3987 
Q 1875 4303 2022 4600 
L 2384 4600 
L 2384 0 
z
" transform="scale(0.015625)"/>
       </defs>
       <use xlink:href="#ArialMT-31"/>
       <use xlink:href="#ArialMT-30" x="55.615234"/>
      </g>
     </g>
    </g>
    <g id="xtick_4">
     <g id="line2d_4">
      <g>
       <use xlink:href="#m7e4f0bd8b5" x="221.4" y="252" style="fill: #262626; stroke: #262626; stroke-width: 1.25"/>
      </g>
     </g>
     <g id="text_4">
      <!-- 15 -->
      <g style="fill: #262626" transform="translate(215.282969 269.373594)scale(0.11 -0.11)">
       <use xlink:href="#ArialMT-31"/>
       <use xlink:href="#ArialMT-35" x="55.615234"/>
      </g>
     </g>
    </g>
    <g id="xtick_5">
     <g id="line2d_5">
      <g>
       <use xlink:href="#m7e4f0bd8b5" x="277.2" y="252" style="fill: #262626; stroke: #262626; stroke-width: 1.25"/>
      </g>
     </g>
     <g id="text_5">
      <!-- 20 -->
      <g style="fill: #262626" transform="translate(271.082969 269.373594)scale(0.11 -0.11)">
       <defs>
        <path id="ArialMT-32" d="M 3222 541 
L 3222 0 
L 194 0 
Q 188 203 259 391 
Q 375 700 629 1000 
Q 884 1300 1366 1694 
Q 2113 2306 2375 2664 
Q 2638 3022 2638 3341 
Q 2638 3675 2398 3904 
Q 2159 4134 1775 4134 
Q 1369 4134 1125 3890 
Q 881 3647 878 3216 
L 300 3275 
Q 359 3922 746 4261 
Q 1134 4600 1788 4600 
Q 2447 4600 2831 4234 
Q 3216 3869 3216 3328 
Q 3216 3053 3103 2787 
Q 2991 2522 2730 2228 
Q 2469 1934 1863 1422 
Q 1356 997 1212 845 
Q 1069 694 975 541 
L 3222 541 
z
" transform="scale(0.015625)"/>
       </defs>
       <use xlink:href="#ArialMT-32"/>
       <use xlink:href="#ArialMT-30" x="55.615234"/>
      </g>
     </g>
    </g>
    <g id="xtick_6">
     <g id="line2d_6">
      <g>
       <use xlink:href="#m7e4f0bd8b5" x="333" y="252" style="fill: #262626; stroke: #262626; stroke-width: 1.25"/>
      </g>
     </g>
     <g id="text_6">
      <!-- 25 -->
      <g style="fill: #262626" transform="translate(326.882969 269.373594)scale(0.11 -0.11)">
       <use xlink:href="#ArialMT-32"/>
       <use xlink:href="#ArialMT-35" x="55.615234"/>
      </g>
     </g>
    </g>
    <g id="xtick_7">
     <g id="line2d_7">
      <g>
       <use xlink:href="#m7e4f0bd8b5" x="388.8" y="252" style="fill: #262626; stroke: #262626; stroke-width: 1.25"/>
      </g>
     </g>
     <g id="text_7">
      <!-- 30 -->
      <g style="fill: #262626" transform="translate(382.682969 269.373594)scale(0.11 -0.11)">
       <defs>
        <path id="ArialMT-33" d="M 269 1209 
L 831 1284 
Q 928 806 1161 595 
Q 1394 384 1728 384 
Q 2125 384 2398 659 
Q 2672 934 2672 1341 
Q 2672 1728 2419 1979 
Q 2166 2231 1775 2231 
Q 1616 2231 1378 2169 
L 1441 2663 
Q 1497 2656 1531 2656 
Q 1891 2656 2178 2843 
Q 2466 3031 2466 3422 
Q 2466 3731 2256 3934 
Q 2047 4138 1716 4138 
Q 1388 4138 1169 3931 
Q 950 3725 888 3313 
L 325 3413 
Q 428 3978 793 4289 
Q 1159 4600 1703 4600 
Q 2078 4600 2393 4439 
Q 2709 4278 2876 4000 
Q 3044 3722 3044 3409 
Q 3044 3113 2884 2869 
Q 2725 2625 2413 2481 
Q 2819 2388 3044 2092 
Q 3269 1797 3269 1353 
Q 3269 753 2831 336 
Q 2394 -81 1725 -81 
Q 1122 -81 723 278 
Q 325 638 269 1209 
z
" transform="scale(0.015625)"/>
       </defs>
       <use xlink:href="#ArialMT-33"/>
       <use xlink:href="#ArialMT-30" x="55.615234"/>
      </g>
     </g>
    </g>
    <g id="text_8">
     <!-- Frequency (Hz) -->
     <g style="fill: #262626" transform="translate(180.059063 284.295469)scale(0.12 -0.12)">
      <defs>
       <path id="ArialMT-46" d="M 525 0 
L 525 4581 
L 3616 4581 
L 3616 4041 
L 1131 4041 
L 1131 2622 
L 3281 2622 
L 3281 2081 
L 1131 2081 
L 1131 0 
L 525 0 
z
" transform="scale(0.015625)"/>
       <path id="ArialMT-72" d="M 416 0 
L 416 3319 
L 922 3319 
L 922 2816 
Q 1116 3169 1280 3281 
Q 1444 3394 1641 3394 
Q 1925 3394 2219 3213 
L 2025 2691 
Q 1819 2813 1613 2813 
Q 1428 2813 1281 2702 
Q 1134 2591 1072 2394 
Q 978 2094 978 1738 
L 978 0 
L 416 0 
z
" transform="scale(0.015625)"/>
       <path id="ArialMT-65" d="M 2694 1069 
L 3275 997 
Q 3138 488 2766 206 
Q 2394 -75 1816 -75 
Q 1088 -75 661 373 
Q 234 822 234 1631 
Q 234 2469 665 2931 
Q 1097 3394 1784 3394 
Q 2450 3394 2872 2941 
Q 3294 2488 3294 1666 
Q 3294 1616 3291 1516 
L 816 1516 
Q 847 969 1125 678 
Q 1403 388 1819 388 
Q 2128 388 2347 550 
Q 2566 713 2694 1069 
z
M 847 1978 
L 2700 1978 
Q 2663 2397 2488 2606 
Q 2219 2931 1791 2931 
Q 1403 2931 1139 2672 
Q 875 2413 847 1978 
z
" transform="scale(0.015625)"/>
       <path id="ArialMT-71" d="M 2538 -1272 
L 2538 353 
Q 2406 169 2170 47 
Q 1934 -75 1669 -75 
Q 1078 -75 651 397 
Q 225 869 225 1691 
Q 225 2191 398 2587 
Q 572 2984 901 3189 
Q 1231 3394 1625 3394 
Q 2241 3394 2594 2875 
L 2594 3319 
L 3100 3319 
L 3100 -1272 
L 2538 -1272 
z
M 803 1669 
Q 803 1028 1072 708 
Q 1341 388 1716 388 
Q 2075 388 2334 692 
Q 2594 997 2594 1619 
Q 2594 2281 2320 2615 
Q 2047 2950 1678 2950 
Q 1313 2950 1058 2639 
Q 803 2328 803 1669 
z
" transform="scale(0.015625)"/>
       <path id="ArialMT-75" d="M 2597 0 
L 2597 488 
Q 2209 -75 1544 -75 
Q 1250 -75 995 37 
Q 741 150 617 320 
Q 494 491 444 738 
Q 409 903 409 1263 
L 409 3319 
L 972 3319 
L 972 1478 
Q 972 1038 1006 884 
Q 1059 663 1231 536 
Q 1403 409 1656 409 
Q 1909 409 2131 539 
Q 2353 669 2445 892 
Q 2538 1116 2538 1541 
L 2538 3319 
L 3100 3319 
L 3100 0 
L 2597 0 
z
" transform="scale(0.015625)"/>
       <path id="ArialMT-6e" d="M 422 0 
L 422 3319 
L 928 3319 
L 928 2847 
Q 1294 3394 1984 3394 
Q 2284 3394 2536 3286 
Q 2788 3178 2913 3003 
Q 3038 2828 3088 2588 
Q 3119 2431 3119 2041 
L 3119 0 
L 2556 0 
L 2556 2019 
Q 2556 2363 2490 2533 
Q 2425 2703 2258 2804 
Q 2091 2906 1866 2906 
Q 1506 2906 1245 2678 
Q 984 2450 984 1813 
L 984 0 
L 422 0 
z
" transform="scale(0.015625)"/>
       <path id="ArialMT-63" d="M 2588 1216 
L 3141 1144 
Q 3050 572 2676 248 
Q 2303 -75 1759 -75 
Q 1078 -75 664 370 
Q 250 816 250 1647 
Q 250 2184 428 2587 
Q 606 2991 970 3192 
Q 1334 3394 1763 3394 
Q 2303 3394 2647 3120 
Q 2991 2847 3088 2344 
L 2541 2259 
Q 2463 2594 2264 2762 
Q 2066 2931 1784 2931 
Q 1359 2931 1093 2626 
Q 828 2322 828 1663 
Q 828 994 1084 691 
Q 1341 388 1753 388 
Q 2084 388 2306 591 
Q 2528 794 2588 1216 
z
" transform="scale(0.015625)"/>
       <path id="ArialMT-79" d="M 397 -1278 
L 334 -750 
Q 519 -800 656 -800 
Q 844 -800 956 -737 
Q 1069 -675 1141 -563 
Q 1194 -478 1313 -144 
Q 1328 -97 1363 -6 
L 103 3319 
L 709 3319 
L 1400 1397 
Q 1534 1031 1641 628 
Q 1738 1016 1872 1384 
L 2581 3319 
L 3144 3319 
L 1881 -56 
Q 1678 -603 1566 -809 
Q 1416 -1088 1222 -1217 
Q 1028 -1347 759 -1347 
Q 597 -1347 397 -1278 
z
" transform="scale(0.015625)"/>
       <path id="ArialMT-20" transform="scale(0.015625)"/>
       <path id="ArialMT-28" d="M 1497 -1347 
Q 1031 -759 709 28 
Q 388 816 388 1659 
Q 388 2403 628 3084 
Q 909 3875 1497 4659 
L 1900 4659 
Q 1522 4009 1400 3731 
Q 1209 3300 1100 2831 
Q 966 2247 966 1656 
Q 966 153 1900 -1347 
L 1497 -1347 
z
" transform="scale(0.015625)"/>
       <path id="ArialMT-48" d="M 513 0 
L 513 4581 
L 1119 4581 
L 1119 2700 
L 3500 2700 
L 3500 4581 
L 4106 4581 
L 4106 0 
L 3500 0 
L 3500 2159 
L 1119 2159 
L 1119 0 
L 513 0 
z
" transform="scale(0.015625)"/>
       <path id="ArialMT-7a" d="M 125 0 
L 125 456 
L 2238 2881 
Q 1878 2863 1603 2863 
L 250 2863 
L 250 3319 
L 2963 3319 
L 2963 2947 
L 1166 841 
L 819 456 
Q 1197 484 1528 484 
L 3063 484 
L 3063 0 
L 125 0 
z
" transform="scale(0.015625)"/>
       <path id="ArialMT-29" d="M 791 -1347 
L 388 -1347 
Q 1322 153 1322 1656 
Q 1322 2244 1188 2822 
Q 1081 3291 891 3722 
Q 769 4003 388 4659 
L 791 4659 
Q 1378 3875 1659 3084 
Q 1900 2403 1900 1659 
Q 1900 816 1576 28 
Q 1253 -759 791 -1347 
z
" transform="scale(0.015625)"/>
      </defs>
      <use xlink:href="#ArialMT-46"/>
      <use xlink:href="#ArialMT-72" x="61.083984"/>
      <use xlink:href="#ArialMT-65" x="94.384766"/>
      <use xlink:href="#ArialMT-71" x="150"/>
      <use xlink:href="#ArialMT-75" x="205.615234"/>
      <use xlink:href="#ArialMT-65" x="261.230469"/>
      <use xlink:href="#ArialMT-6e" x="316.845703"/>
      <use xlink:href="#ArialMT-63" x="372.460938"/>
      <use xlink:href="#ArialMT-79" x="422.460938"/>
      <use xlink:href="#ArialMT-20" x="472.460938"/>
      <use xlink:href="#ArialMT-28" x="500.244141"/>
      <use xlink:href="#ArialMT-48" x="533.544922"/>
      <use xlink:href="#ArialMT-7a" x="605.761719"/>
      <use xlink:href="#ArialMT-29" x="655.761719"/>
     </g>
    </g>
   </g>
   <g id="matplotlib.axis_2">
    <g id="ytick_1">
     <g id="line2d_8">
      <defs>
       <path id="m0e236dc322" d="M 0 0 
L -6 0 
" style="stroke: #262626; stroke-width: 1.25"/>
      </defs>
      <g>
       <use xlink:href="#m0e236dc322" x="54" y="242.116364" style="fill: #262626; stroke: #262626; stroke-width: 1.25"/>
      </g>
     </g>
     <g id="text_9">
      <!-- 0.0 -->
      <g style="fill: #262626" transform="translate(29.21 246.053161)scale(0.11 -0.11)">
       <defs>
        <path id="ArialMT-2e" d="M 581 0 
L 581 641 
L 1222 641 
L 1222 0 
L 581 0 
z
" transform="scale(0.015625)"/>
       </defs>
       <use xlink:href="#ArialMT-30"/>
       <use xlink:href="#ArialMT-2e" x="55.615234"/>
       <use xlink:href="#ArialMT-30" x="83.398438"/>
      </g>
     </g>
    </g>
    <g id="ytick_2">
     <g id="line2d_9">
      <g>
       <use xlink:href="#m0e236dc322" x="54" y="202.581819" style="fill: #262626; stroke: #262626; stroke-width: 1.25"/>
      </g>
     </g>
     <g id="text_10">
      <!-- 0.2 -->
      <g style="fill: #262626" transform="translate(29.21 206.518615)scale(0.11 -0.11)">
       <use xlink:href="#ArialMT-30"/>
       <use xlink:href="#ArialMT-2e" x="55.615234"/>
       <use xlink:href="#ArialMT-32" x="83.398438"/>
      </g>
     </g>
    </g>
    <g id="ytick_3">
     <g id="line2d_10">
      <g>
       <use xlink:href="#m0e236dc322" x="54" y="163.047273" style="fill: #262626; stroke: #262626; stroke-width: 1.25"/>
      </g>
     </g>
     <g id="text_11">
      <!-- 0.4 -->
      <g style="fill: #262626" transform="translate(29.21 166.98407)scale(0.11 -0.11)">
       <defs>
        <path id="ArialMT-34" d="M 2069 0 
L 2069 1097 
L 81 1097 
L 81 1613 
L 2172 4581 
L 2631 4581 
L 2631 1613 
L 3250 1613 
L 3250 1097 
L 2631 1097 
L 2631 0 
L 2069 0 
z
M 2069 1613 
L 2069 3678 
L 634 1613 
L 2069 1613 
z
" transform="scale(0.015625)"/>
       </defs>
       <use xlink:href="#ArialMT-30"/>
       <use xlink:href="#ArialMT-2e" x="55.615234"/>
       <use xlink:href="#ArialMT-34" x="83.398438"/>
      </g>
     </g>
    </g>
    <g id="ytick_4">
     <g id="line2d_11">
      <g>
       <use xlink:href="#m0e236dc322" x="54" y="123.512727" style="fill: #262626; stroke: #262626; stroke-width: 1.25"/>
      </g>
     </g>
     <g id="text_12">
      <!-- 0.6 -->
      <g style="fill: #262626" transform="translate(29.21 127.449524)scale(0.11 -0.11)">
       <defs>
        <path id="ArialMT-36" d="M 3184 3459 
L 2625 3416 
Q 2550 3747 2413 3897 
Q 2184 4138 1850 4138 
Q 1581 4138 1378 3988 
Q 1113 3794 959 3422 
Q 806 3050 800 2363 
Q 1003 2672 1297 2822 
Q 1591 2972 1913 2972 
Q 2475 2972 2870 2558 
Q 3266 2144 3266 1488 
Q 3266 1056 3080 686 
Q 2894 316 2569 119 
Q 2244 -78 1831 -78 
Q 1128 -78 684 439 
Q 241 956 241 2144 
Q 241 3472 731 4075 
Q 1159 4600 1884 4600 
Q 2425 4600 2770 4297 
Q 3116 3994 3184 3459 
z
M 888 1484 
Q 888 1194 1011 928 
Q 1134 663 1356 523 
Q 1578 384 1822 384 
Q 2178 384 2434 671 
Q 2691 959 2691 1453 
Q 2691 1928 2437 2201 
Q 2184 2475 1800 2475 
Q 1419 2475 1153 2201 
Q 888 1928 888 1484 
z
" transform="scale(0.015625)"/>
       </defs>
       <use xlink:href="#ArialMT-30"/>
       <use xlink:href="#ArialMT-2e" x="55.615234"/>
       <use xlink:href="#ArialMT-36" x="83.398438"/>
      </g>
     </g>
    </g>
    <g id="ytick_5">
     <g id="line2d_12">
      <g>
       <use xlink:href="#m0e236dc322" x="54" y="83.978182" style="fill: #262626; stroke: #262626; stroke-width: 1.25"/>
      </g>
     </g>
     <g id="text_13">
      <!-- 0.8 -->
      <g style="fill: #262626" transform="translate(29.21 87.914979)scale(0.11 -0.11)">
       <defs>
        <path id="ArialMT-38" d="M 1131 2484 
Q 781 2613 612 2850 
Q 444 3088 444 3419 
Q 444 3919 803 4259 
Q 1163 4600 1759 4600 
Q 2359 4600 2725 4251 
Q 3091 3903 3091 3403 
Q 3091 3084 2923 2848 
Q 2756 2613 2416 2484 
Q 2838 2347 3058 2040 
Q 3278 1734 3278 1309 
Q 3278 722 2862 322 
Q 2447 -78 1769 -78 
Q 1091 -78 675 323 
Q 259 725 259 1325 
Q 259 1772 486 2073 
Q 713 2375 1131 2484 
z
M 1019 3438 
Q 1019 3113 1228 2906 
Q 1438 2700 1772 2700 
Q 2097 2700 2305 2904 
Q 2513 3109 2513 3406 
Q 2513 3716 2298 3927 
Q 2084 4138 1766 4138 
Q 1444 4138 1231 3931 
Q 1019 3725 1019 3438 
z
M 838 1322 
Q 838 1081 952 856 
Q 1066 631 1291 507 
Q 1516 384 1775 384 
Q 2178 384 2440 643 
Q 2703 903 2703 1303 
Q 2703 1709 2433 1975 
Q 2163 2241 1756 2241 
Q 1359 2241 1098 1978 
Q 838 1716 838 1322 
z
" transform="scale(0.015625)"/>
       </defs>
       <use xlink:href="#ArialMT-30"/>
       <use xlink:href="#ArialMT-2e" x="55.615234"/>
       <use xlink:href="#ArialMT-38" x="83.398438"/>
      </g>
     </g>
    </g>
    <g id="ytick_6">
     <g id="line2d_13">
      <g>
       <use xlink:href="#m0e236dc322" x="54" y="44.443636" style="fill: #262626; stroke: #262626; stroke-width: 1.25"/>
      </g>
     </g>
     <g id="text_14">
      <!-- 1.0 -->
      <g style="fill: #262626" transform="translate(29.21 48.380433)scale(0.11 -0.11)">
       <use xlink:href="#ArialMT-31"/>
       <use xlink:href="#ArialMT-2e" x="55.615234"/>
       <use xlink:href="#ArialMT-30" x="83.398438"/>
      </g>
     </g>
    </g>
   </g>
   <g id="line2d_14">
    <path d="M 54 242.114076 
L 158.409532 242.017073 
L 159.394528 241.997874 
L 160.379523 241.327528 
L 161.364519 241.2886 
L 162.349515 240.496379 
L 163.33451 237.488997 
L 164.319506 236.885227 
L 165.304501 239.88059 
L 166.289497 236.805002 
L 167.274492 236.645281 
L 168.259488 235.626866 
L 169.244484 238.087465 
L 170.229479 238.777149 
L 171.214475 226.623155 
L 172.19947 235.171745 
L 173.184466 237.211837 
L 174.169462 239.668071 
L 175.154457 241.794161 
L 176.139453 237.266418 
L 177.124448 237.881166 
L 178.109444 240.658752 
L 179.09444 241.924463 
L 180.079435 240.355437 
L 181.064431 239.20067 
L 182.049426 240.615261 
L 183.034422 241.737393 
L 184.019417 240.220311 
L 185.004413 239.667696 
L 185.989409 239.859518 
L 186.974404 241.072018 
L 187.9594 241.694917 
L 188.944395 241.728337 
L 189.929391 239.653534 
L 190.914387 240.663332 
L 191.899382 238.343946 
L 192.884378 241.649599 
L 193.869373 241.115228 
L 194.854369 241.932626 
L 195.839365 240.561733 
L 196.82436 239.685949 
L 198.794351 238.996299 
L 199.779347 233.421554 
L 200.764342 241.726594 
L 201.749338 238.926383 
L 202.734334 238.156499 
L 203.719329 240.109429 
L 204.704325 240.866319 
L 205.68932 241.839437 
L 206.674316 240.180944 
L 207.659312 241.839005 
L 208.644307 240.816475 
L 209.629303 241.410156 
L 210.614298 239.688621 
L 211.599294 241.733307 
L 212.584289 240.554857 
L 213.569285 241.925593 
L 214.554281 241.193238 
L 215.539276 239.45914 
L 216.524272 239.554797 
L 217.509267 240.86625 
L 218.494263 239.74494 
L 219.479259 241.959826 
L 220.464254 239.781164 
L 221.44925 241.707366 
L 222.434245 240.131637 
L 223.419241 229.151958 
L 224.404237 228.722853 
L 225.389232 237.874704 
L 226.374228 230.856777 
L 227.359223 238.985527 
L 228.344219 44.443636 
L 229.329214 237.44577 
L 230.31421 212.632476 
L 231.299206 230.219915 
L 232.284201 228.830956 
L 233.269197 226.049712 
L 234.254192 229.443027 
L 235.239188 239.278581 
L 236.224184 234.113108 
L 237.209179 238.043363 
L 238.194175 238.326001 
L 239.17917 239.277354 
L 240.164166 240.758099 
L 241.149162 238.498902 
L 242.134157 241.239048 
L 243.119153 242.094967 
L 244.104148 239.845129 
L 245.089144 239.778075 
L 246.074139 241.420385 
L 247.059135 241.181928 
L 248.044131 240.414011 
L 249.029126 242.015975 
L 250.014122 240.652664 
L 250.999117 240.113148 
L 251.984113 241.359616 
L 252.969109 239.934498 
L 253.954104 241.663929 
L 254.9391 241.824732 
L 255.924095 240.728142 
L 256.909091 241.919841 
L 257.894086 242.005308 
L 258.879082 241.55504 
L 259.864078 241.626174 
L 260.849073 242.050953 
L 261.834069 242.114548 
L 262.819064 242.012619 
L 263.80406 242.100114 
L 265.774051 241.959225 
L 266.759047 241.519502 
L 267.744042 242.027386 
L 268.729038 241.959911 
L 270.699029 242.057432 
L 273.654016 241.746373 
L 274.639011 241.941161 
L 279.563989 242.096074 
L 388.8985 242.115989 
L 388.8985 242.115989 
" clip-path="url(#p3fa206cb9b)" style="fill: none; stroke: #4c72b0; stroke-opacity: 0.3; stroke-width: 1.5; stroke-linecap: round"/>
   </g>
   <g id="line2d_15">
    <path d="M 54 242.111993 
L 154.46955 242.052523 
L 155.454545 241.913242 
L 156.439541 242.070936 
L 157.424537 241.941157 
L 161.364519 242.052202 
L 162.349515 242.061027 
L 163.33451 241.774406 
L 164.319506 240.857122 
L 165.304501 240.148347 
L 166.289497 242.10982 
L 167.274492 241.366808 
L 168.259488 241.442737 
L 169.244484 241.275536 
L 170.229479 239.717755 
L 171.214475 241.153763 
L 172.19947 240.235095 
L 173.184466 235.308932 
L 174.169462 227.20125 
L 175.154457 238.521329 
L 176.139453 231.2069 
L 177.124448 241.96139 
L 178.109444 239.889235 
L 179.09444 238.900986 
L 180.079435 239.701029 
L 181.064431 234.553996 
L 182.049426 239.903849 
L 183.034422 242.093832 
L 184.019417 241.748457 
L 185.004413 237.853221 
L 185.989409 237.748631 
L 186.974404 238.597997 
L 187.9594 239.098244 
L 188.944395 237.507472 
L 189.929391 241.332324 
L 190.914387 237.907833 
L 191.899382 241.263391 
L 192.884378 236.437148 
L 193.869373 240.597499 
L 194.854369 241.694466 
L 195.839365 235.517012 
L 197.809356 241.427208 
L 198.794351 240.175731 
L 199.779347 240.181516 
L 200.764342 242.014257 
L 201.749338 234.013557 
L 202.734334 239.468686 
L 203.719329 241.159903 
L 204.704325 239.885245 
L 205.68932 241.851444 
L 207.659312 241.579542 
L 208.644307 239.956463 
L 209.629303 239.01077 
L 210.614298 240.461657 
L 212.584289 238.647739 
L 213.569285 241.679876 
L 214.554281 241.131132 
L 215.539276 238.325536 
L 216.524272 240.225791 
L 217.509267 240.19911 
L 218.494263 240.98968 
L 219.479259 239.796588 
L 220.464254 239.208234 
L 221.44925 237.265951 
L 222.434245 240.377679 
L 223.419241 237.407526 
L 224.404237 239.70338 
L 225.389232 230.66251 
L 226.374228 181.54142 
L 227.359223 220.891001 
L 228.344219 44.443636 
L 229.329214 229.293879 
L 230.31421 201.832012 
L 231.299206 205.733235 
L 232.284201 236.932983 
L 233.269197 234.210931 
L 234.254192 235.422498 
L 235.239188 239.92291 
L 236.224184 235.223331 
L 237.209179 239.286977 
L 238.194175 238.834941 
L 239.17917 241.540696 
L 240.164166 241.568435 
L 241.149162 240.607608 
L 242.134157 240.69483 
L 243.119153 242.006523 
L 244.104148 241.456134 
L 245.089144 242.082883 
L 246.074139 241.886648 
L 247.059135 241.024957 
L 248.044131 241.782894 
L 249.029126 241.315349 
L 250.014122 241.424198 
L 250.999117 241.715262 
L 251.984113 241.204849 
L 252.969109 240.99684 
L 253.954104 241.808196 
L 254.9391 241.898002 
L 255.924095 241.828201 
L 256.909091 241.351301 
L 257.894086 241.823929 
L 258.879082 241.994084 
L 260.849073 242.014425 
L 261.834069 242.100807 
L 262.819064 241.980511 
L 263.80406 242.073735 
L 264.789056 241.779534 
L 265.774051 241.855573 
L 266.759047 242.04319 
L 267.744042 241.481811 
L 268.729038 242.108578 
L 269.714034 241.983301 
L 270.699029 242.106322 
L 273.654016 242.04157 
L 275.624007 242.110218 
L 276.609003 242.087758 
L 277.593998 241.939557 
L 279.563989 242.113406 
L 281.533981 242.059214 
L 283.503972 242.109354 
L 346.543689 242.115697 
L 388.8985 242.115994 
L 388.8985 242.115994 
" clip-path="url(#p3fa206cb9b)" style="fill: none; stroke: #dd8452; stroke-opacity: 0.3; stroke-width: 1.5; stroke-linecap: round"/>
   </g>
   <g id="line2d_16">
    <path d="M 54 242.11589 
L 161.364519 242.019145 
L 162.349515 241.992208 
L 163.33451 241.33702 
L 164.319506 241.174184 
L 165.304501 241.203623 
L 166.289497 242.098161 
L 167.274492 242.103127 
L 170.229479 241.815666 
L 171.214475 240.69437 
L 172.19947 240.554362 
L 173.184466 240.037427 
L 174.169462 241.798262 
L 175.154457 237.486783 
L 176.139453 235.728369 
L 177.124448 237.444965 
L 178.109444 241.892281 
L 179.09444 239.147341 
L 180.079435 241.954504 
L 181.064431 242.000619 
L 182.049426 239.461253 
L 183.034422 241.956101 
L 184.019417 240.344687 
L 185.004413 241.472614 
L 185.989409 237.248872 
L 186.974404 239.400209 
L 187.9594 239.812177 
L 188.944395 242.023553 
L 189.929391 242.023469 
L 190.914387 241.345174 
L 191.899382 234.189396 
L 192.884378 242.002658 
L 193.869373 236.807517 
L 194.854369 242.03607 
L 195.839365 240.258736 
L 196.82436 241.520886 
L 197.809356 240.953113 
L 198.794351 242.040864 
L 199.779347 236.658625 
L 200.764342 240.413898 
L 201.749338 241.374694 
L 202.734334 240.691961 
L 203.719329 239.736222 
L 204.704325 241.813213 
L 205.68932 241.771894 
L 206.674316 241.396747 
L 207.659312 241.735434 
L 208.644307 238.437556 
L 209.629303 237.017608 
L 210.614298 241.137868 
L 211.599294 241.464593 
L 212.584289 239.617901 
L 213.569285 241.987305 
L 214.554281 239.248248 
L 215.539276 242.047093 
L 216.524272 241.374727 
L 217.509267 240.40283 
L 218.494263 242.097623 
L 219.479259 238.173339 
L 220.464254 240.925688 
L 221.44925 235.880799 
L 222.434245 234.722566 
L 223.419241 225.99314 
L 224.404237 221.403389 
L 225.389232 207.028903 
L 226.374228 169.619006 
L 227.359223 236.307236 
L 228.344219 44.443636 
L 229.329214 217.967483 
L 230.31421 213.749889 
L 231.299206 219.009247 
L 232.284201 241.536079 
L 233.269197 241.827855 
L 234.254192 238.074639 
L 235.239188 238.677346 
L 237.209179 241.95263 
L 238.194175 238.777637 
L 239.17917 241.750356 
L 240.164166 241.580262 
L 241.149162 240.152759 
L 242.134157 239.37091 
L 243.119153 241.399089 
L 244.104148 239.347096 
L 245.089144 241.434414 
L 246.074139 241.533476 
L 247.059135 238.230965 
L 248.044131 240.809913 
L 249.029126 240.9236 
L 250.014122 240.854428 
L 250.999117 240.165351 
L 251.984113 240.95943 
L 252.969109 240.141289 
L 253.954104 240.985767 
L 254.9391 242.031069 
L 255.924095 240.759048 
L 256.909091 241.638361 
L 257.894086 241.497644 
L 258.879082 242.091473 
L 259.864078 242.081282 
L 260.849073 241.880978 
L 261.834069 240.350197 
L 262.819064 242.033436 
L 263.80406 241.602527 
L 264.789056 241.78231 
L 265.774051 241.543309 
L 266.759047 241.790424 
L 267.744042 241.626548 
L 269.714034 242.108071 
L 271.684025 241.966881 
L 272.66902 242.066225 
L 273.654016 241.941461 
L 274.639011 242.067596 
L 388.8985 242.116354 
L 388.8985 242.116354 
" clip-path="url(#p3fa206cb9b)" style="fill: none; stroke: #55a868; stroke-opacity: 0.3; stroke-width: 1.5; stroke-linecap: round"/>
   </g>
   <g id="line2d_17">
    <path d="M 54 242.113429 
L 154.46955 242.066701 
L 155.454545 241.959129 
L 156.439541 242.022575 
L 158.409532 241.725392 
L 159.394528 241.945606 
L 160.379523 240.656215 
L 161.364519 240.734958 
L 162.349515 238.945023 
L 163.33451 232.339965 
L 164.319506 228.208106 
L 165.304501 237.054743 
L 166.289497 233.74134 
L 167.274492 224.241588 
L 168.259488 236.191516 
L 169.244484 229.020646 
L 170.229479 226.454649 
L 171.214475 193.514295 
L 172.19947 217.189388 
L 173.184466 237.621414 
L 174.169462 228.602058 
L 175.154457 240.446454 
L 176.139453 228.870742 
L 177.124448 227.877458 
L 178.109444 239.566455 
L 179.09444 241.080871 
L 180.079435 234.766957 
L 181.064431 235.425737 
L 182.049426 237.975841 
L 183.034422 239.200741 
L 184.019417 241.657657 
L 185.004413 227.088107 
L 185.989409 240.390241 
L 186.974404 233.840651 
L 187.9594 241.955403 
L 188.944395 233.885826 
L 189.929391 239.256757 
L 190.914387 229.559838 
L 191.899382 242.074594 
L 192.884378 240.473643 
L 193.869373 228.86877 
L 194.854369 240.943595 
L 195.839365 241.165521 
L 196.82436 234.152983 
L 197.809356 238.421942 
L 198.794351 240.579148 
L 199.779347 230.442618 
L 200.764342 241.560522 
L 201.749338 230.302355 
L 202.734334 230.358833 
L 204.704325 240.952002 
L 205.68932 241.985401 
L 206.674316 238.971438 
L 207.659312 233.92671 
L 208.644307 237.044147 
L 209.629303 228.528121 
L 210.614298 234.148032 
L 211.599294 236.389462 
L 212.584289 238.264577 
L 213.569285 240.542524 
L 214.554281 240.407913 
L 215.539276 240.740603 
L 216.524272 240.698533 
L 217.509267 241.810481 
L 218.494263 239.387666 
L 219.479259 241.446874 
L 220.464254 241.307613 
L 222.434245 237.542888 
L 223.419241 242.016733 
L 224.404237 241.51266 
L 225.389232 230.91063 
L 226.374228 223.263719 
L 227.359223 221.886212 
L 228.344219 44.443636 
L 229.329214 227.853159 
L 230.31421 201.246193 
L 231.299206 227.941772 
L 232.284201 237.878644 
L 233.269197 234.177095 
L 234.254192 240.020973 
L 235.239188 242.034845 
L 236.224184 239.457346 
L 237.209179 238.469997 
L 238.194175 241.713463 
L 239.17917 242.051244 
L 240.164166 241.320621 
L 241.149162 241.289626 
L 242.134157 240.789995 
L 243.119153 241.831394 
L 244.104148 241.038897 
L 245.089144 240.78556 
L 246.074139 242.058961 
L 247.059135 240.122909 
L 248.044131 241.696623 
L 249.029126 240.204189 
L 250.014122 241.40849 
L 250.999117 241.028016 
L 251.984113 241.831801 
L 252.969109 241.974543 
L 253.954104 241.738679 
L 254.9391 241.280455 
L 255.924095 241.254782 
L 256.909091 241.051258 
L 257.894086 241.534274 
L 258.879082 241.857456 
L 259.864078 242.06022 
L 260.849073 242.006674 
L 262.819064 241.596259 
L 263.80406 241.376865 
L 265.774051 241.878678 
L 266.759047 241.238233 
L 267.744042 241.803569 
L 269.714034 242.098016 
L 270.699029 241.370177 
L 271.684025 241.736874 
L 272.66902 241.974171 
L 273.654016 241.938014 
L 274.639011 242.080796 
L 275.624007 241.947165 
L 276.609003 242.010386 
L 277.593998 241.917687 
L 278.578994 242.088693 
L 281.533981 242.0766 
L 282.518976 242.012405 
L 283.503972 242.110692 
L 284.488967 241.965313 
L 285.473963 242.116227 
L 296.308914 242.114908 
L 385.943513 242.116302 
L 388.8985 242.116305 
L 388.8985 242.116305 
" clip-path="url(#p3fa206cb9b)" style="fill: none; stroke: #c44e52; stroke-opacity: 0.3; stroke-width: 1.5; stroke-linecap: round"/>
   </g>
   <g id="line2d_18">
    <path d="M 54 242.116357 
L 159.394528 242.102169 
L 161.364519 241.304373 
L 162.349515 242.068774 
L 163.33451 241.833101 
L 164.319506 240.075414 
L 165.304501 237.352729 
L 166.289497 241.950255 
L 167.274492 238.899905 
L 168.259488 241.920201 
L 169.244484 238.260492 
L 170.229479 239.556434 
L 171.214475 232.869016 
L 172.19947 241.839605 
L 173.184466 238.697774 
L 174.169462 217.437598 
L 175.154457 236.895521 
L 176.139453 229.583044 
L 177.124448 233.682631 
L 178.109444 236.987617 
L 179.09444 241.975773 
L 180.079435 237.345062 
L 181.064431 236.002072 
L 182.049426 241.004236 
L 183.034422 239.672968 
L 184.019417 241.826953 
L 185.004413 229.827162 
L 185.989409 239.656983 
L 186.974404 236.930619 
L 187.9594 237.870306 
L 188.944395 234.956877 
L 189.929391 240.97681 
L 190.914387 231.427997 
L 191.899382 239.26521 
L 192.884378 234.737326 
L 193.869373 242.039527 
L 194.854369 241.902655 
L 195.839365 239.554449 
L 196.82436 241.611507 
L 197.809356 242.06642 
L 198.794351 241.215563 
L 199.779347 238.528036 
L 200.764342 239.259991 
L 201.749338 239.4681 
L 202.734334 241.800375 
L 203.719329 240.762126 
L 204.704325 238.52833 
L 205.68932 241.537273 
L 206.674316 239.62652 
L 207.659312 239.948038 
L 208.644307 240.999271 
L 209.629303 234.180328 
L 210.614298 237.045857 
L 211.599294 228.928603 
L 213.569285 240.443317 
L 214.554281 242.012845 
L 215.539276 237.972369 
L 216.524272 241.50626 
L 218.494263 238.463238 
L 219.479259 239.179245 
L 220.464254 236.515295 
L 221.44925 241.775888 
L 222.434245 241.793756 
L 223.419241 235.499441 
L 224.404237 239.640577 
L 225.389232 223.671257 
L 226.374228 188.661717 
L 227.359223 222.02178 
L 228.344219 44.443636 
L 229.329214 209.002921 
L 230.31421 220.496616 
L 231.299206 213.920838 
L 232.284201 240.934051 
L 233.269197 240.567505 
L 234.254192 242.091444 
L 236.224184 237.63641 
L 237.209179 241.678342 
L 238.194175 241.933886 
L 239.17917 237.591927 
L 240.164166 238.219168 
L 241.149162 241.649354 
L 242.134157 242.023383 
L 244.104148 241.792214 
L 245.089144 242.027241 
L 247.059135 242.075162 
L 248.044131 240.907579 
L 249.029126 241.638844 
L 250.014122 241.289219 
L 250.999117 241.105275 
L 251.984113 239.697636 
L 252.969109 241.394625 
L 253.954104 241.013947 
L 254.9391 241.704796 
L 255.924095 240.845897 
L 256.909091 241.538675 
L 257.894086 241.810085 
L 258.879082 241.861372 
L 259.864078 241.713165 
L 260.849073 241.056956 
L 261.834069 242.052981 
L 262.819064 241.468384 
L 263.80406 240.262968 
L 264.789056 240.151654 
L 265.774051 241.945132 
L 266.759047 240.583594 
L 267.744042 241.143968 
L 268.729038 240.895208 
L 269.714034 242.07822 
L 270.699029 241.720132 
L 271.684025 241.523186 
L 272.66902 241.868484 
L 273.654016 242.064698 
L 275.624007 241.678838 
L 276.609003 241.950043 
L 277.593998 242.093099 
L 278.578994 241.845766 
L 280.548985 242.09522 
L 286.458959 242.113443 
L 291.383936 242.09484 
L 301.233892 242.116362 
L 388.8985 242.116346 
L 388.8985 242.116346 
" clip-path="url(#p3fa206cb9b)" style="fill: none; stroke: #8172b3; stroke-opacity: 0.3; stroke-width: 1.5; stroke-linecap: round"/>
   </g>
   <g id="line2d_19">
    <path d="M 54 242.116363 
L 160.379523 242.01761 
L 161.364519 241.847252 
L 162.349515 241.938576 
L 163.33451 241.380932 
L 164.319506 241.913986 
L 165.304501 240.863142 
L 166.289497 242.019229 
L 167.274492 241.951097 
L 168.259488 240.403419 
L 169.244484 241.491063 
L 170.229479 239.136968 
L 171.214475 238.468314 
L 173.184466 241.723792 
L 174.169462 239.132356 
L 175.154457 239.229447 
L 176.139453 237.930181 
L 177.124448 241.259344 
L 178.109444 241.573454 
L 179.09444 239.465388 
L 180.079435 238.630929 
L 181.064431 240.525381 
L 182.049426 241.720412 
L 183.034422 241.479143 
L 184.019417 239.942441 
L 185.004413 241.249667 
L 185.989409 240.647987 
L 186.974404 239.129137 
L 187.9594 240.801477 
L 188.944395 241.099697 
L 189.929391 239.53918 
L 190.914387 241.538897 
L 191.899382 233.525999 
L 192.884378 241.096497 
L 193.869373 240.72405 
L 194.854369 241.68533 
L 195.839365 241.956426 
L 196.82436 238.507618 
L 197.809356 241.173152 
L 198.794351 242.000591 
L 199.779347 239.736943 
L 200.764342 241.617863 
L 201.749338 242.071475 
L 202.734334 240.330483 
L 203.719329 241.903944 
L 204.704325 242.028854 
L 205.68932 241.613205 
L 206.674316 241.771307 
L 207.659312 239.383501 
L 208.644307 240.996994 
L 209.629303 241.577729 
L 210.614298 237.5318 
L 211.599294 239.946388 
L 212.584289 239.999119 
L 213.569285 241.116084 
L 214.554281 240.664931 
L 215.539276 238.235636 
L 216.524272 242.000583 
L 217.509267 241.641584 
L 218.494263 241.84422 
L 219.479259 240.488335 
L 220.464254 238.897167 
L 221.44925 239.832378 
L 222.434245 238.306201 
L 223.419241 224.258775 
L 224.404237 228.616909 
L 225.389232 214.52522 
L 226.374228 196.768367 
L 227.359223 238.720729 
L 228.344219 44.443636 
L 229.329214 206.994582 
L 230.31421 217.244967 
L 231.299206 220.890026 
L 232.284201 241.667358 
L 233.269197 238.430911 
L 234.254192 238.589379 
L 235.239188 237.330136 
L 236.224184 241.593758 
L 237.209179 241.599539 
L 238.194175 240.025595 
L 239.17917 241.767491 
L 240.164166 241.274266 
L 241.149162 241.685472 
L 242.134157 239.594707 
L 243.119153 241.04588 
L 244.104148 240.215175 
L 245.089144 241.887514 
L 246.074139 241.710584 
L 247.059135 240.860405 
L 248.044131 241.865964 
L 249.029126 241.747589 
L 250.014122 241.418539 
L 250.999117 241.525458 
L 251.984113 239.202825 
L 252.969109 239.714779 
L 253.954104 240.499571 
L 254.9391 241.86631 
L 255.924095 240.917737 
L 256.909091 240.974711 
L 257.894086 241.660728 
L 258.879082 241.93037 
L 259.864078 240.891495 
L 260.849073 242.067858 
L 263.80406 241.818528 
L 264.789056 241.439218 
L 265.774051 241.986329 
L 266.759047 240.992309 
L 267.744042 240.973172 
L 268.729038 241.669158 
L 269.714034 242.049071 
L 270.699029 241.548144 
L 271.684025 241.932179 
L 272.66902 242.100286 
L 274.639011 242.030266 
L 275.624007 241.742786 
L 276.609003 242.028382 
L 310.098853 242.115947 
L 388.8985 242.116348 
L 388.8985 242.116348 
" clip-path="url(#p3fa206cb9b)" style="fill: none; stroke: #937860; stroke-opacity: 0.3; stroke-width: 1.5; stroke-linecap: round"/>
   </g>
   <g id="line2d_20">
    <path d="M 54 242.116327 
L 147.574581 242.077654 
L 148.559576 241.975936 
L 149.544572 242.012123 
L 150.529568 241.725806 
L 151.514563 241.84109 
L 152.499559 241.568277 
L 153.484554 241.858675 
L 154.46955 241.704753 
L 155.454545 241.267009 
L 157.424537 241.834318 
L 158.409532 239.251122 
L 159.394528 241.891994 
L 161.364519 239.120022 
L 162.349515 232.819246 
L 163.33451 228.024527 
L 164.319506 239.102848 
L 165.304501 229.864082 
L 166.289497 215.062051 
L 167.274492 215.738199 
L 168.259488 170.438179 
L 169.244484 186.524643 
L 170.229479 232.244849 
L 171.214475 195.916903 
L 172.19947 191.583858 
L 173.184466 228.122549 
L 174.169462 219.534061 
L 175.154457 221.093125 
L 176.139453 228.527769 
L 177.124448 213.160231 
L 178.109444 236.073663 
L 179.09444 207.990149 
L 180.079435 242.041752 
L 181.064431 227.890644 
L 182.049426 211.38325 
L 184.019417 238.605035 
L 185.004413 241.426249 
L 186.974404 224.882609 
L 187.9594 226.424011 
L 188.944395 210.071923 
L 189.929391 219.797465 
L 190.914387 219.590247 
L 191.899382 234.227347 
L 192.884378 241.001306 
L 193.869373 235.202411 
L 194.854369 184.848151 
L 195.839365 234.205074 
L 196.82436 238.573655 
L 197.809356 239.356705 
L 198.794351 235.887375 
L 199.779347 236.055996 
L 200.764342 238.113876 
L 201.749338 231.422105 
L 202.734334 238.561962 
L 203.719329 238.117886 
L 204.704325 236.507361 
L 206.674316 227.505025 
L 207.659312 241.410914 
L 208.644307 225.783508 
L 209.629303 239.75466 
L 210.614298 227.712464 
L 211.599294 238.919711 
L 212.584289 235.204697 
L 213.569285 229.808995 
L 214.554281 236.760921 
L 215.539276 214.646728 
L 216.524272 236.413448 
L 217.509267 236.496917 
L 218.494263 235.889302 
L 219.479259 234.621767 
L 220.464254 239.849999 
L 222.434245 186.657287 
L 223.419241 208.155027 
L 224.404237 198.183088 
L 225.389232 175.355653 
L 226.374228 192.134951 
L 227.359223 239.240786 
L 228.344219 44.443636 
L 229.329214 229.376647 
L 230.31421 241.574568 
L 231.299206 241.7919 
L 232.284201 238.800883 
L 233.269197 234.038768 
L 234.254192 236.969991 
L 235.239188 229.190847 
L 236.224184 237.166474 
L 237.209179 236.213013 
L 238.194175 236.790399 
L 239.17917 238.458019 
L 240.164166 238.622879 
L 241.149162 239.975853 
L 242.134157 236.673413 
L 243.119153 241.383753 
L 244.104148 240.282271 
L 245.089144 241.144221 
L 246.074139 235.788263 
L 247.059135 240.14055 
L 248.044131 239.798733 
L 249.029126 241.104269 
L 250.014122 240.991642 
L 250.999117 242.110675 
L 251.984113 240.70222 
L 252.969109 240.255497 
L 253.954104 241.185922 
L 255.924095 240.134631 
L 256.909091 241.250827 
L 257.894086 241.61622 
L 258.879082 236.740863 
L 259.864078 241.825852 
L 260.849073 242.073378 
L 261.834069 241.739811 
L 262.819064 241.76508 
L 263.80406 241.979105 
L 264.789056 240.701137 
L 265.774051 240.063777 
L 266.759047 241.968975 
L 267.744042 241.469965 
L 268.729038 241.3568 
L 269.714034 240.993475 
L 270.699029 241.980212 
L 271.684025 241.583626 
L 272.66902 241.636697 
L 273.654016 242.075562 
L 277.593998 241.731097 
L 279.563989 242.073619 
L 282.518976 242.064381 
L 283.503972 242.103802 
L 284.488967 241.974429 
L 285.473963 242.11079 
L 286.458959 241.892686 
L 287.443954 242.067889 
L 294.338923 242.095822 
L 364.27361 242.113967 
L 388.8985 242.114647 
L 388.8985 242.114647 
" clip-path="url(#p3fa206cb9b)" style="fill: none; stroke: #da8bc3; stroke-opacity: 0.3; stroke-width: 1.5; stroke-linecap: round"/>
   </g>
   <g id="line2d_21">
    <path d="M 54 242.116157 
L 149.544572 242.099224 
L 150.529568 241.958717 
L 151.514563 242.105818 
L 152.499559 242.108588 
L 153.484554 241.704444 
L 154.46955 242.033297 
L 155.454545 242.073466 
L 156.439541 241.247854 
L 158.409532 242.019216 
L 159.394528 241.594084 
L 160.379523 237.951087 
L 161.364519 236.034264 
L 162.349515 240.16877 
L 163.33451 241.42512 
L 164.319506 234.991842 
L 165.304501 233.156201 
L 166.289497 236.256614 
L 167.274492 206.611729 
L 168.259488 220.505169 
L 169.244484 232.138937 
L 170.229479 228.807056 
L 171.214475 183.80887 
L 172.19947 184.170564 
L 173.184466 194.560367 
L 174.169462 181.515186 
L 175.154457 151.410862 
L 177.124448 223.122325 
L 178.109444 187.276712 
L 179.09444 234.759835 
L 180.079435 237.434317 
L 181.064431 194.853459 
L 182.049426 239.49151 
L 183.034422 231.218516 
L 184.019417 226.077076 
L 185.004413 191.219196 
L 185.989409 217.641105 
L 186.974404 228.903819 
L 187.9594 187.365888 
L 188.944395 214.57713 
L 189.929391 202.716381 
L 190.914387 90.389698 
L 191.899382 199.161462 
L 192.884378 236.233777 
L 193.869373 213.272213 
L 194.854369 225.722183 
L 195.839365 168.195333 
L 196.82436 215.743648 
L 198.794351 240.281293 
L 199.779347 240.844058 
L 201.749338 224.087411 
L 202.734334 192.575381 
L 203.719329 225.729944 
L 204.704325 223.322838 
L 205.68932 228.944374 
L 206.674316 233.722116 
L 207.659312 229.711863 
L 208.644307 237.139383 
L 209.629303 235.057065 
L 210.614298 232.047165 
L 211.599294 234.964876 
L 212.584289 223.727511 
L 213.569285 238.339154 
L 214.554281 236.140175 
L 215.539276 238.249258 
L 216.524272 238.827144 
L 217.509267 241.550502 
L 218.494263 235.058689 
L 219.479259 235.7004 
L 220.464254 235.349538 
L 221.44925 231.121227 
L 222.434245 239.326815 
L 223.419241 231.286577 
L 224.404237 239.171318 
L 225.389232 225.318776 
L 226.374228 206.637531 
L 227.359223 235.98667 
L 228.344219 44.443636 
L 229.329214 222.192987 
L 230.31421 211.398233 
L 231.299206 225.104848 
L 232.284201 236.165539 
L 233.269197 237.669552 
L 234.254192 229.664398 
L 235.239188 227.05819 
L 237.209179 239.744125 
L 238.194175 240.032346 
L 239.17917 231.20935 
L 240.164166 231.930158 
L 241.149162 235.429717 
L 242.134157 241.945947 
L 243.119153 234.652985 
L 244.104148 225.324653 
L 245.089144 238.474074 
L 246.074139 236.353359 
L 247.059135 238.267561 
L 248.044131 233.341842 
L 249.029126 241.175723 
L 250.014122 234.380229 
L 250.999117 234.894933 
L 251.984113 238.687196 
L 252.969109 238.003148 
L 253.954104 233.006326 
L 254.9391 241.249982 
L 255.924095 239.111163 
L 256.909091 239.132778 
L 257.894086 238.803164 
L 258.879082 240.837157 
L 259.864078 231.591531 
L 260.849073 238.647883 
L 262.819064 242.109911 
L 263.80406 239.074675 
L 264.789056 233.729566 
L 265.774051 242.020064 
L 266.759047 239.988072 
L 267.744042 237.421036 
L 268.729038 240.199108 
L 269.714034 241.527463 
L 271.684025 239.284578 
L 272.66902 239.626527 
L 273.654016 242.088619 
L 274.639011 239.166682 
L 275.624007 239.690953 
L 276.609003 242.085571 
L 277.593998 238.669455 
L 278.578994 242.018784 
L 279.563989 242.05297 
L 280.548985 241.740826 
L 281.533981 241.898385 
L 282.518976 241.066506 
L 284.488967 242.08168 
L 286.458959 241.858059 
L 287.443954 242.091953 
L 288.42895 242.009992 
L 291.383936 242.105031 
L 293.353928 242.0484 
L 295.323919 242.102347 
L 346.543689 242.11529 
L 388.8985 242.115666 
L 388.8985 242.115666 
" clip-path="url(#p3fa206cb9b)" style="fill: none; stroke: #8c8c8c; stroke-opacity: 0.3; stroke-width: 1.5; stroke-linecap: round"/>
   </g>
   <g id="line2d_22">
    <path d="M 54 242.115505 
L 158.409532 242.06813 
L 159.394528 241.831878 
L 162.349515 241.815221 
L 163.33451 242.064799 
L 164.319506 241.955117 
L 165.304501 241.438359 
L 166.289497 238.917698 
L 167.274492 240.313505 
L 168.259488 241.409706 
L 169.244484 233.774223 
L 170.229479 240.777898 
L 171.214475 241.96631 
L 172.19947 239.422028 
L 173.184466 233.681597 
L 175.154457 237.044034 
L 176.139453 242.078586 
L 177.124448 240.911588 
L 178.109444 241.597408 
L 179.09444 240.450049 
L 180.079435 242.109392 
L 181.064431 240.309288 
L 182.049426 241.745684 
L 183.034422 239.625073 
L 184.019417 239.50547 
L 185.004413 241.03462 
L 185.989409 240.269566 
L 186.974404 240.976697 
L 187.9594 233.929712 
L 188.944395 235.701812 
L 189.929391 239.833332 
L 190.914387 240.134176 
L 192.884378 241.961572 
L 193.869373 241.870192 
L 194.854369 241.961252 
L 195.839365 240.959774 
L 196.82436 242.073797 
L 197.809356 241.979504 
L 198.794351 241.140312 
L 199.779347 240.713346 
L 200.764342 241.659231 
L 201.749338 241.219811 
L 202.734334 241.976103 
L 203.719329 241.571056 
L 204.704325 242.046852 
L 205.68932 241.827207 
L 206.674316 241.481904 
L 208.644307 241.359122 
L 209.629303 241.772063 
L 211.599294 240.833001 
L 212.584289 237.032218 
L 213.569285 240.505592 
L 214.554281 240.615808 
L 215.539276 241.751198 
L 216.524272 240.434476 
L 217.509267 240.86804 
L 218.494263 241.54984 
L 219.479259 242.092858 
L 220.464254 237.447902 
L 221.44925 241.740756 
L 222.434245 232.527622 
L 223.419241 233.469224 
L 224.404237 230.725874 
L 225.389232 226.854076 
L 226.374228 199.849032 
L 227.359223 234.955737 
L 228.344219 44.443636 
L 229.329214 229.629657 
L 230.31421 223.138226 
L 231.299206 233.159198 
L 232.284201 240.156594 
L 233.269197 240.709928 
L 234.254192 240.155825 
L 235.239188 240.12711 
L 236.224184 241.814124 
L 237.209179 240.652932 
L 238.194175 241.13437 
L 239.17917 241.446275 
L 240.164166 240.578884 
L 241.149162 241.836182 
L 242.134157 240.294559 
L 243.119153 241.456178 
L 244.104148 241.605281 
L 245.089144 241.587383 
L 246.074139 241.987119 
L 248.044131 241.690775 
L 249.029126 241.746243 
L 250.014122 242.089532 
L 250.999117 241.904317 
L 252.969109 242.075747 
L 254.9391 241.828298 
L 255.924095 242.052371 
L 256.909091 241.788016 
L 257.894086 241.97227 
L 258.879082 241.96906 
L 259.864078 242.084393 
L 260.849073 241.967223 
L 266.759047 242.0663 
L 267.744042 241.944428 
L 268.729038 242.100839 
L 271.684025 242.02826 
L 273.654016 242.068156 
L 276.609003 242.07332 
L 278.578994 242.087934 
L 285.473963 242.098987 
L 349.498676 242.115448 
L 388.8985 242.115927 
L 388.8985 242.115927 
" clip-path="url(#p3fa206cb9b)" style="fill: none; stroke: #ccb974; stroke-opacity: 0.3; stroke-width: 1.5; stroke-linecap: round"/>
   </g>
   <g id="line2d_23">
    <path d="M 54 242.113047 
L 154.46955 242.065523 
L 155.454545 241.936672 
L 157.424537 242.048981 
L 158.409532 241.982219 
L 159.394528 242.108052 
L 160.379523 241.24887 
L 161.364519 241.942715 
L 162.349515 241.387265 
L 163.33451 240.359218 
L 164.319506 238.905927 
L 165.304501 241.773426 
L 166.289497 240.414739 
L 167.274492 233.825891 
L 168.259488 240.394779 
L 169.244484 233.746178 
L 170.229479 237.797386 
L 171.214475 231.212671 
L 172.19947 217.570562 
L 173.184466 234.384142 
L 174.169462 229.91706 
L 175.154457 241.586851 
L 176.139453 242.096126 
L 177.124448 227.36315 
L 178.109444 238.078231 
L 179.09444 236.961274 
L 180.079435 240.619104 
L 181.064431 236.820558 
L 182.049426 240.918811 
L 183.034422 239.361685 
L 184.019417 241.677464 
L 185.004413 241.945043 
L 185.989409 241.710183 
L 186.974404 241.024707 
L 187.9594 241.520153 
L 188.944395 239.670775 
L 189.929391 240.841195 
L 190.914387 241.502632 
L 191.899382 238.119055 
L 192.884378 238.636657 
L 193.869373 239.43869 
L 194.854369 241.659608 
L 195.839365 241.894195 
L 196.82436 241.681331 
L 197.809356 239.120663 
L 198.794351 240.159187 
L 199.779347 241.841232 
L 200.764342 241.600639 
L 201.749338 239.819742 
L 202.734334 240.127307 
L 203.719329 241.805356 
L 204.704325 241.321017 
L 205.68932 240.700699 
L 206.674316 240.337437 
L 207.659312 240.554553 
L 208.644307 241.287542 
L 209.629303 241.329186 
L 210.614298 240.893648 
L 211.599294 239.537807 
L 212.584289 241.922658 
L 213.569285 241.471495 
L 214.554281 241.863048 
L 215.539276 240.807944 
L 216.524272 238.946533 
L 217.509267 240.817381 
L 218.494263 240.467442 
L 219.479259 237.630027 
L 220.464254 241.336144 
L 223.419241 230.646812 
L 224.404237 225.402401 
L 225.389232 222.041852 
L 226.374228 192.254272 
L 227.359223 205.142845 
L 228.344219 44.443636 
L 229.329214 233.805935 
L 230.31421 224.672775 
L 231.299206 230.675924 
L 232.284201 237.597451 
L 233.269197 241.157509 
L 234.254192 237.489908 
L 235.239188 241.121707 
L 236.224184 240.967165 
L 237.209179 241.914977 
L 238.194175 241.234926 
L 239.17917 240.955911 
L 240.164166 241.726966 
L 241.149162 241.687435 
L 243.119153 240.566921 
L 244.104148 242.098362 
L 245.089144 241.826185 
L 246.074139 241.827733 
L 247.059135 239.159939 
L 248.044131 241.406942 
L 249.029126 241.735526 
L 250.014122 240.923582 
L 250.999117 241.892457 
L 251.984113 239.54906 
L 252.969109 241.435571 
L 253.954104 241.07615 
L 254.9391 242.008117 
L 255.924095 241.779981 
L 256.909091 241.947345 
L 258.879082 241.479142 
L 259.864078 241.666042 
L 260.849073 242.009265 
L 263.80406 242.044618 
L 264.789056 242.104364 
L 265.774051 242.025234 
L 266.759047 241.460134 
L 268.729038 242.064873 
L 270.699029 241.909751 
L 271.684025 242.090458 
L 276.609003 242.084847 
L 282.518976 242.103764 
L 297.29391 242.112586 
L 358.363636 242.115504 
L 388.8985 242.115739 
L 388.8985 242.115739 
" clip-path="url(#p3fa206cb9b)" style="fill: none; stroke: #64b5cd; stroke-opacity: 0.3; stroke-width: 1.5; stroke-linecap: round"/>
   </g>
   <g id="line2d_24">
    <path d="M 54 242.114038 
L 153.484554 242.003534 
L 154.46955 241.902089 
L 155.454545 241.16547 
L 156.439541 241.532887 
L 157.424537 242.099836 
L 158.409532 241.842936 
L 159.394528 241.706431 
L 160.379523 239.53645 
L 161.364519 240.071783 
L 162.349515 241.779878 
L 163.33451 240.428385 
L 164.319506 240.907077 
L 165.304501 228.856091 
L 166.289497 241.958497 
L 167.274492 241.500861 
L 168.259488 235.325424 
L 169.244484 209.34271 
L 171.214475 238.778552 
L 172.19947 156.961105 
L 173.184466 226.755824 
L 174.169462 44.443636 
L 175.154457 234.463611 
L 176.139453 205.744219 
L 177.124448 189.859211 
L 178.109444 159.149628 
L 179.09444 210.670264 
L 180.079435 235.110225 
L 181.064431 240.96568 
L 182.049426 160.891213 
L 183.034422 216.786256 
L 184.019417 229.117841 
L 185.004413 219.621579 
L 185.989409 235.490922 
L 186.974404 241.541039 
L 187.9594 210.631118 
L 188.944395 167.078278 
L 189.929391 220.819181 
L 190.914387 142.285035 
L 191.899382 173.696379 
L 192.884378 218.374008 
L 193.869373 239.625601 
L 194.854369 237.56174 
L 195.839365 239.91503 
L 196.82436 239.146787 
L 197.809356 241.937691 
L 198.794351 240.1435 
L 199.779347 238.707116 
L 200.764342 237.593251 
L 201.749338 227.737726 
L 202.734334 234.825894 
L 203.719329 235.380398 
L 204.704325 230.561039 
L 205.68932 236.730733 
L 206.674316 230.209041 
L 207.659312 239.589519 
L 208.644307 233.817174 
L 209.629303 240.207065 
L 210.614298 230.199004 
L 211.599294 239.938331 
L 212.584289 236.790037 
L 213.569285 221.52183 
L 214.554281 239.421803 
L 215.539276 239.208114 
L 216.524272 240.457145 
L 217.509267 234.202844 
L 218.494263 240.955386 
L 219.479259 238.151269 
L 220.464254 236.513804 
L 221.44925 232.130841 
L 222.434245 239.478375 
L 223.419241 240.511055 
L 224.404237 241.914363 
L 225.389232 229.807261 
L 226.374228 222.823642 
L 227.359223 211.188911 
L 228.344219 207.212411 
L 229.329214 230.574488 
L 230.31421 220.957103 
L 231.299206 225.910456 
L 232.284201 237.319734 
L 233.269197 236.025142 
L 234.254192 241.472137 
L 235.239188 237.02481 
L 236.224184 241.427572 
L 237.209179 241.806879 
L 238.194175 241.606767 
L 239.17917 238.741132 
L 240.164166 238.247216 
L 241.149162 240.840457 
L 242.134157 240.558239 
L 243.119153 239.57791 
L 244.104148 241.531338 
L 245.089144 239.06335 
L 246.074139 241.948954 
L 247.059135 241.992299 
L 248.044131 238.607058 
L 249.029126 236.598437 
L 250.014122 239.222456 
L 250.999117 236.370719 
L 251.984113 242.006657 
L 252.969109 233.276802 
L 253.954104 240.314553 
L 254.9391 237.431684 
L 255.924095 238.567753 
L 256.909091 234.189172 
L 257.894086 241.888339 
L 258.879082 239.053672 
L 259.864078 241.192376 
L 260.849073 241.453022 
L 261.834069 240.607548 
L 262.819064 241.286557 
L 263.80406 239.593069 
L 264.789056 239.809775 
L 265.774051 240.960551 
L 266.759047 241.537472 
L 267.744042 241.747459 
L 268.729038 238.421123 
L 269.714034 241.931657 
L 270.699029 241.322919 
L 271.684025 241.74128 
L 272.66902 237.605084 
L 273.654016 241.751315 
L 274.639011 242.104161 
L 275.624007 241.72127 
L 277.593998 241.416966 
L 278.578994 242.079986 
L 280.548985 241.987113 
L 281.533981 241.697473 
L 283.503972 241.847953 
L 284.488967 242.088486 
L 285.473963 241.915493 
L 286.458959 242.086485 
L 288.42895 242.069712 
L 297.29391 242.11595 
L 304.188879 242.104347 
L 316.008826 242.114857 
L 388.8985 242.116016 
L 388.8985 242.116016 
" clip-path="url(#p3fa206cb9b)" style="fill: none; stroke: #4c72b0; stroke-opacity: 0.3; stroke-width: 1.5; stroke-linecap: round"/>
   </g>
   <g id="line2d_25">
    <path d="M 54 242.106028 
L 151.514563 242.083716 
L 152.499559 241.833301 
L 153.484554 242.043776 
L 154.46955 242.078105 
L 155.454545 240.42875 
L 156.439541 241.909236 
L 157.424537 241.212445 
L 158.409532 241.260651 
L 159.394528 241.177909 
L 160.379523 240.829908 
L 161.364519 239.676965 
L 162.349515 236.928985 
L 163.33451 229.521044 
L 164.319506 230.996398 
L 165.304501 235.188642 
L 166.289497 203.231655 
L 167.274492 241.581086 
L 168.259488 199.269374 
L 169.244484 123.88686 
L 170.229479 232.520184 
L 171.214475 235.068164 
L 172.19947 231.993456 
L 173.184466 195.712891 
L 174.169462 146.511343 
L 175.154457 228.860486 
L 176.139453 143.309451 
L 177.124448 215.269964 
L 178.109444 240.481008 
L 179.09444 186.604412 
L 180.079435 92.285599 
L 181.064431 89.885647 
L 182.049426 239.414334 
L 183.034422 216.208131 
L 184.019417 212.014346 
L 185.004413 182.344802 
L 185.989409 231.005723 
L 186.974404 214.638862 
L 187.9594 44.443636 
L 188.944395 82.161257 
L 189.929391 194.71145 
L 190.914387 76.928402 
L 191.899382 222.535452 
L 192.884378 175.036012 
L 193.869373 236.731874 
L 194.854369 234.29906 
L 195.839365 170.389711 
L 196.82436 233.133292 
L 197.809356 239.796701 
L 198.794351 240.723282 
L 199.779347 224.537226 
L 200.764342 224.046574 
L 201.749338 133.998381 
L 202.734334 198.614043 
L 204.704325 237.894401 
L 205.68932 231.795123 
L 206.674316 166.434227 
L 207.659312 225.226848 
L 208.644307 241.082172 
L 209.629303 190.447226 
L 210.614298 218.220118 
L 211.599294 191.955205 
L 212.584289 230.752703 
L 213.569285 194.164626 
L 214.554281 187.926217 
L 215.539276 221.978905 
L 216.524272 237.234671 
L 217.509267 238.503497 
L 218.494263 230.409276 
L 219.479259 214.858092 
L 220.464254 232.872791 
L 221.44925 196.133639 
L 222.434245 225.671278 
L 223.419241 232.682505 
L 224.404237 205.745394 
L 225.389232 186.415134 
L 226.374228 86.834428 
L 227.359223 139.053116 
L 228.344219 155.304727 
L 229.329214 230.811571 
L 230.31421 232.859444 
L 231.299206 191.469153 
L 232.284201 217.357611 
L 233.269197 209.751146 
L 234.254192 193.799463 
L 235.239188 236.609533 
L 236.224184 241.015855 
L 237.209179 194.156623 
L 238.194175 240.014605 
L 239.17917 220.274131 
L 240.164166 224.289109 
L 241.149162 211.127008 
L 242.134157 240.754736 
L 243.119153 239.18585 
L 244.104148 220.927657 
L 245.089144 230.888606 
L 246.074139 217.657305 
L 247.059135 211.073446 
L 248.044131 225.331301 
L 249.029126 222.626956 
L 250.014122 217.590322 
L 250.999117 230.521294 
L 251.984113 207.252036 
L 252.969109 223.450561 
L 253.954104 234.780693 
L 254.9391 240.051784 
L 255.924095 223.57251 
L 256.909091 240.352821 
L 257.894086 225.783947 
L 258.879082 229.583219 
L 259.864078 241.061124 
L 260.849073 241.509292 
L 261.834069 239.714807 
L 262.819064 239.971541 
L 263.80406 221.514382 
L 264.789056 233.425536 
L 265.774051 236.730708 
L 266.759047 227.652795 
L 267.744042 237.930925 
L 268.729038 240.959329 
L 269.714034 240.77635 
L 270.699029 241.752771 
L 271.684025 239.853681 
L 272.66902 239.768562 
L 274.639011 239.797691 
L 275.624007 240.248434 
L 276.609003 241.730458 
L 277.593998 241.48085 
L 278.578994 240.914562 
L 279.563989 242.00094 
L 280.548985 241.585315 
L 281.533981 241.829391 
L 282.518976 241.216421 
L 283.503972 241.727432 
L 284.488967 242.110604 
L 285.473963 242.01664 
L 287.443954 242.006249 
L 288.42895 241.931898 
L 290.398941 242.1148 
L 291.383936 242.001198 
L 292.368932 242.107415 
L 297.29391 242.049728 
L 301.233892 242.107484 
L 307.143866 242.088168 
L 316.008826 242.102256 
L 385.943513 242.112388 
L 388.8985 242.11254 
L 388.8985 242.11254 
" clip-path="url(#p3fa206cb9b)" style="fill: none; stroke: #dd8452; stroke-opacity: 0.3; stroke-width: 1.5; stroke-linecap: round"/>
   </g>
   <g id="patch_3">
    <path d="M 54 252 
L 54 34.56 
" style="fill: none; stroke: #262626; stroke-width: 1.25; stroke-linejoin: miter; stroke-linecap: square"/>
   </g>
   <g id="patch_4">
    <path d="M 388.8 252 
L 388.8 34.56 
" style="fill: none; stroke: #262626; stroke-width: 1.25; stroke-linejoin: miter; stroke-linecap: square"/>
   </g>
   <g id="patch_5">
    <path d="M 54 252 
L 388.8 252 
" style="fill: none; stroke: #262626; stroke-width: 1.25; stroke-linejoin: miter; stroke-linecap: square"/>
   </g>
   <g id="patch_6">
    <path d="M 54 34.56 
L 388.8 34.56 
" style="fill: none; stroke: #262626; stroke-width: 1.25; stroke-linejoin: miter; stroke-linecap: square"/>
   </g>
   <g id="text_15">
    <!-- patient14_app06_second - Power spectrum -->
    <g style="fill: #262626" transform="translate(105.334688 28.56)scale(0.12 -0.12)">
     <defs>
      <path id="ArialMT-70" d="M 422 -1272 
L 422 3319 
L 934 3319 
L 934 2888 
Q 1116 3141 1344 3267 
Q 1572 3394 1897 3394 
Q 2322 3394 2647 3175 
Q 2972 2956 3137 2557 
Q 3303 2159 3303 1684 
Q 3303 1175 3120 767 
Q 2938 359 2589 142 
Q 2241 -75 1856 -75 
Q 1575 -75 1351 44 
Q 1128 163 984 344 
L 984 -1272 
L 422 -1272 
z
M 931 1641 
Q 931 1000 1190 694 
Q 1450 388 1819 388 
Q 2194 388 2461 705 
Q 2728 1022 2728 1688 
Q 2728 2322 2467 2637 
Q 2206 2953 1844 2953 
Q 1484 2953 1207 2617 
Q 931 2281 931 1641 
z
" transform="scale(0.015625)"/>
      <path id="ArialMT-61" d="M 2588 409 
Q 2275 144 1986 34 
Q 1697 -75 1366 -75 
Q 819 -75 525 192 
Q 231 459 231 875 
Q 231 1119 342 1320 
Q 453 1522 633 1644 
Q 813 1766 1038 1828 
Q 1203 1872 1538 1913 
Q 2219 1994 2541 2106 
Q 2544 2222 2544 2253 
Q 2544 2597 2384 2738 
Q 2169 2928 1744 2928 
Q 1347 2928 1158 2789 
Q 969 2650 878 2297 
L 328 2372 
Q 403 2725 575 2942 
Q 747 3159 1072 3276 
Q 1397 3394 1825 3394 
Q 2250 3394 2515 3294 
Q 2781 3194 2906 3042 
Q 3031 2891 3081 2659 
Q 3109 2516 3109 2141 
L 3109 1391 
Q 3109 606 3145 398 
Q 3181 191 3288 0 
L 2700 0 
Q 2613 175 2588 409 
z
M 2541 1666 
Q 2234 1541 1622 1453 
Q 1275 1403 1131 1340 
Q 988 1278 909 1158 
Q 831 1038 831 891 
Q 831 666 1001 516 
Q 1172 366 1500 366 
Q 1825 366 2078 508 
Q 2331 650 2450 897 
Q 2541 1088 2541 1459 
L 2541 1666 
z
" transform="scale(0.015625)"/>
      <path id="ArialMT-74" d="M 1650 503 
L 1731 6 
Q 1494 -44 1306 -44 
Q 1000 -44 831 53 
Q 663 150 594 308 
Q 525 466 525 972 
L 525 2881 
L 113 2881 
L 113 3319 
L 525 3319 
L 525 4141 
L 1084 4478 
L 1084 3319 
L 1650 3319 
L 1650 2881 
L 1084 2881 
L 1084 941 
Q 1084 700 1114 631 
Q 1144 563 1211 522 
Q 1278 481 1403 481 
Q 1497 481 1650 503 
z
" transform="scale(0.015625)"/>
      <path id="ArialMT-69" d="M 425 3934 
L 425 4581 
L 988 4581 
L 988 3934 
L 425 3934 
z
M 425 0 
L 425 3319 
L 988 3319 
L 988 0 
L 425 0 
z
" transform="scale(0.015625)"/>
      <path id="ArialMT-5f" d="M -97 -1272 
L -97 -866 
L 3631 -866 
L 3631 -1272 
L -97 -1272 
z
" transform="scale(0.015625)"/>
      <path id="ArialMT-73" d="M 197 991 
L 753 1078 
Q 800 744 1014 566 
Q 1228 388 1613 388 
Q 2000 388 2187 545 
Q 2375 703 2375 916 
Q 2375 1106 2209 1216 
Q 2094 1291 1634 1406 
Q 1016 1563 777 1677 
Q 538 1791 414 1992 
Q 291 2194 291 2438 
Q 291 2659 392 2848 
Q 494 3038 669 3163 
Q 800 3259 1026 3326 
Q 1253 3394 1513 3394 
Q 1903 3394 2198 3281 
Q 2494 3169 2634 2976 
Q 2775 2784 2828 2463 
L 2278 2388 
Q 2241 2644 2061 2787 
Q 1881 2931 1553 2931 
Q 1166 2931 1000 2803 
Q 834 2675 834 2503 
Q 834 2394 903 2306 
Q 972 2216 1119 2156 
Q 1203 2125 1616 2013 
Q 2213 1853 2448 1751 
Q 2684 1650 2818 1456 
Q 2953 1263 2953 975 
Q 2953 694 2789 445 
Q 2625 197 2315 61 
Q 2006 -75 1616 -75 
Q 969 -75 630 194 
Q 291 463 197 991 
z
" transform="scale(0.015625)"/>
      <path id="ArialMT-6f" d="M 213 1659 
Q 213 2581 725 3025 
Q 1153 3394 1769 3394 
Q 2453 3394 2887 2945 
Q 3322 2497 3322 1706 
Q 3322 1066 3130 698 
Q 2938 331 2570 128 
Q 2203 -75 1769 -75 
Q 1072 -75 642 372 
Q 213 819 213 1659 
z
M 791 1659 
Q 791 1022 1069 705 
Q 1347 388 1769 388 
Q 2188 388 2466 706 
Q 2744 1025 2744 1678 
Q 2744 2294 2464 2611 
Q 2184 2928 1769 2928 
Q 1347 2928 1069 2612 
Q 791 2297 791 1659 
z
" transform="scale(0.015625)"/>
      <path id="ArialMT-64" d="M 2575 0 
L 2575 419 
Q 2259 -75 1647 -75 
Q 1250 -75 917 144 
Q 584 363 401 755 
Q 219 1147 219 1656 
Q 219 2153 384 2558 
Q 550 2963 881 3178 
Q 1213 3394 1622 3394 
Q 1922 3394 2156 3267 
Q 2391 3141 2538 2938 
L 2538 4581 
L 3097 4581 
L 3097 0 
L 2575 0 
z
M 797 1656 
Q 797 1019 1065 703 
Q 1334 388 1700 388 
Q 2069 388 2326 689 
Q 2584 991 2584 1609 
Q 2584 2291 2321 2609 
Q 2059 2928 1675 2928 
Q 1300 2928 1048 2622 
Q 797 2316 797 1656 
z
" transform="scale(0.015625)"/>
      <path id="ArialMT-2d" d="M 203 1375 
L 203 1941 
L 1931 1941 
L 1931 1375 
L 203 1375 
z
" transform="scale(0.015625)"/>
      <path id="ArialMT-50" d="M 494 0 
L 494 4581 
L 2222 4581 
Q 2678 4581 2919 4538 
Q 3256 4481 3484 4323 
Q 3713 4166 3852 3881 
Q 3991 3597 3991 3256 
Q 3991 2672 3619 2267 
Q 3247 1863 2275 1863 
L 1100 1863 
L 1100 0 
L 494 0 
z
M 1100 2403 
L 2284 2403 
Q 2872 2403 3119 2622 
Q 3366 2841 3366 3238 
Q 3366 3525 3220 3729 
Q 3075 3934 2838 4000 
Q 2684 4041 2272 4041 
L 1100 4041 
L 1100 2403 
z
" transform="scale(0.015625)"/>
      <path id="ArialMT-77" d="M 1034 0 
L 19 3319 
L 600 3319 
L 1128 1403 
L 1325 691 
Q 1338 744 1497 1375 
L 2025 3319 
L 2603 3319 
L 3100 1394 
L 3266 759 
L 3456 1400 
L 4025 3319 
L 4572 3319 
L 3534 0 
L 2950 0 
L 2422 1988 
L 2294 2553 
L 1622 0 
L 1034 0 
z
" transform="scale(0.015625)"/>
      <path id="ArialMT-6d" d="M 422 0 
L 422 3319 
L 925 3319 
L 925 2853 
Q 1081 3097 1340 3245 
Q 1600 3394 1931 3394 
Q 2300 3394 2536 3241 
Q 2772 3088 2869 2813 
Q 3263 3394 3894 3394 
Q 4388 3394 4653 3120 
Q 4919 2847 4919 2278 
L 4919 0 
L 4359 0 
L 4359 2091 
Q 4359 2428 4304 2576 
Q 4250 2725 4106 2815 
Q 3963 2906 3769 2906 
Q 3419 2906 3187 2673 
Q 2956 2441 2956 1928 
L 2956 0 
L 2394 0 
L 2394 2156 
Q 2394 2531 2256 2718 
Q 2119 2906 1806 2906 
Q 1569 2906 1367 2781 
Q 1166 2656 1075 2415 
Q 984 2175 984 1722 
L 984 0 
L 422 0 
z
" transform="scale(0.015625)"/>
     </defs>
     <use xlink:href="#ArialMT-70"/>
     <use xlink:href="#ArialMT-61" x="55.615234"/>
     <use xlink:href="#ArialMT-74" x="111.230469"/>
     <use xlink:href="#ArialMT-69" x="139.013672"/>
     <use xlink:href="#ArialMT-65" x="161.230469"/>
     <use xlink:href="#ArialMT-6e" x="216.845703"/>
     <use xlink:href="#ArialMT-74" x="272.460938"/>
     <use xlink:href="#ArialMT-31" x="300.244141"/>
     <use xlink:href="#ArialMT-34" x="355.859375"/>
     <use xlink:href="#ArialMT-5f" x="411.474609"/>
     <use xlink:href="#ArialMT-61" x="467.089844"/>
     <use xlink:href="#ArialMT-70" x="522.705078"/>
     <use xlink:href="#ArialMT-70" x="578.320312"/>
     <use xlink:href="#ArialMT-30" x="633.935547"/>
     <use xlink:href="#ArialMT-36" x="689.550781"/>
     <use xlink:href="#ArialMT-5f" x="745.166016"/>
     <use xlink:href="#ArialMT-73" x="800.78125"/>
     <use xlink:href="#ArialMT-65" x="850.78125"/>
     <use xlink:href="#ArialMT-63" x="906.396484"/>
     <use xlink:href="#ArialMT-6f" x="956.396484"/>
     <use xlink:href="#ArialMT-6e" x="1012.011719"/>
     <use xlink:href="#ArialMT-64" x="1067.626953"/>
     <use xlink:href="#ArialMT-20" x="1123.242188"/>
     <use xlink:href="#ArialMT-2d" x="1151.025391"/>
     <use xlink:href="#ArialMT-20" x="1184.326172"/>
     <use xlink:href="#ArialMT-50" x="1212.109375"/>
     <use xlink:href="#ArialMT-6f" x="1278.808594"/>
     <use xlink:href="#ArialMT-77" x="1334.423828"/>
     <use xlink:href="#ArialMT-65" x="1406.640625"/>
     <use xlink:href="#ArialMT-72" x="1462.255859"/>
     <use xlink:href="#ArialMT-20" x="1495.556641"/>
     <use xlink:href="#ArialMT-73" x="1523.339844"/>
     <use xlink:href="#ArialMT-70" x="1573.339844"/>
     <use xlink:href="#ArialMT-65" x="1628.955078"/>
     <use xlink:href="#ArialMT-63" x="1684.570312"/>
     <use xlink:href="#ArialMT-74" x="1734.570312"/>
     <use xlink:href="#ArialMT-72" x="1762.353516"/>
     <use xlink:href="#ArialMT-75" x="1795.654297"/>
     <use xlink:href="#ArialMT-6d" x="1851.269531"/>
    </g>
   </g>
  </g>
 </g>
 <defs>
  <clipPath id="p3fa206cb9b">
   <rect x="54" y="34.56" width="334.8" height="217.44"/>
  </clipPath>
 </defs>
</svg>
