<?xml version="1.0" encoding="utf-8" standalone="no"?>
<!DOCTYPE svg PUBLIC "-//W3C//DTD SVG 1.1//EN"
  "http://www.w3.org/Graphics/SVG/1.1/DTD/svg11.dtd">
<svg xmlns:xlink="http://www.w3.org/1999/xlink" width="432pt" height="288pt" viewBox="0 0 432 288" xmlns="http://www.w3.org/2000/svg" version="1.1">
 <metadata>
  <rdf:RDF xmlns:dc="http://purl.org/dc/elements/1.1/" xmlns:cc="http://creativecommons.org/ns#" xmlns:rdf="http://www.w3.org/1999/02/22-rdf-syntax-ns#">
   <cc:Work>
    <dc:type rdf:resource="http://purl.org/dc/dcmitype/StillImage"/>
    <dc:date>2022-07-08T13:41:47.983236</dc:date>
    <dc:format>image/svg+xml</dc:format>
    <dc:creator>
     <cc:Agent>
      <dc:title>Matplotlib v3.5.1, https://matplotlib.org/</dc:title>
     </cc:Agent>
    </dc:creator>
   </cc:Work>
  </rdf:RDF>
 </metadata>
 <defs>
  <style type="text/css">*{stroke-linejoin: round; stroke-linecap: butt}</style>
 </defs>
 <g id="figure_1">
  <g id="patch_1">
   <path d="M 0 288 
L 432 288 
L 432 0 
L 0 0 
z
" style="fill: #ffffff"/>
  </g>
  <g id="axes_1">
   <g id="patch_2">
    <path d="M 54 252 
L 388.8 252 
L 388.8 34.56 
L 54 34.56 
z
" style="fill: #ffffff"/>
   </g>
   <g id="matplotlib.axis_1">
    <g id="xtick_1">
     <g id="line2d_1">
      <defs>
       <path id="maaad3f1874" d="M 0 0 
L 0 6 
" style="stroke: #262626; stroke-width: 1.25"/>
      </defs>
      <g>
       <use xlink:href="#maaad3f1874" x="54" y="252" style="fill: #262626; stroke: #262626; stroke-width: 1.25"/>
      </g>
     </g>
     <g id="text_1">
      <!-- 0 -->
      <g style="fill: #262626" transform="translate(50.941484 269.373594)scale(0.11 -0.11)">
       <defs>
        <path id="ArialMT-30" d="M 266 2259 
Q 266 3072 433 3567 
Q 600 4063 929 4331 
Q 1259 4600 1759 4600 
Q 2128 4600 2406 4451 
Q 2684 4303 2865 4023 
Q 3047 3744 3150 3342 
Q 3253 2941 3253 2259 
Q 3253 1453 3087 958 
Q 2922 463 2592 192 
Q 2263 -78 1759 -78 
Q 1097 -78 719 397 
Q 266 969 266 2259 
z
M 844 2259 
Q 844 1131 1108 757 
Q 1372 384 1759 384 
Q 2147 384 2411 759 
Q 2675 1134 2675 2259 
Q 2675 3391 2411 3762 
Q 2147 4134 1753 4134 
Q 1366 4134 1134 3806 
Q 844 3388 844 2259 
z
" transform="scale(0.015625)"/>
       </defs>
       <use xlink:href="#ArialMT-30"/>
      </g>
     </g>
    </g>
    <g id="xtick_2">
     <g id="line2d_2">
      <g>
       <use xlink:href="#maaad3f1874" x="109.8" y="252" style="fill: #262626; stroke: #262626; stroke-width: 1.25"/>
      </g>
     </g>
     <g id="text_2">
      <!-- 5 -->
      <g style="fill: #262626" transform="translate(106.741484 269.373594)scale(0.11 -0.11)">
       <defs>
        <path id="ArialMT-35" d="M 266 1200 
L 856 1250 
Q 922 819 1161 601 
Q 1400 384 1738 384 
Q 2144 384 2425 690 
Q 2706 997 2706 1503 
Q 2706 1984 2436 2262 
Q 2166 2541 1728 2541 
Q 1456 2541 1237 2417 
Q 1019 2294 894 2097 
L 366 2166 
L 809 4519 
L 3088 4519 
L 3088 3981 
L 1259 3981 
L 1013 2750 
Q 1425 3038 1878 3038 
Q 2478 3038 2890 2622 
Q 3303 2206 3303 1553 
Q 3303 931 2941 478 
Q 2500 -78 1738 -78 
Q 1113 -78 717 272 
Q 322 622 266 1200 
z
" transform="scale(0.015625)"/>
       </defs>
       <use xlink:href="#ArialMT-35"/>
      </g>
     </g>
    </g>
    <g id="xtick_3">
     <g id="line2d_3">
      <g>
       <use xlink:href="#maaad3f1874" x="165.6" y="252" style="fill: #262626; stroke: #262626; stroke-width: 1.25"/>
      </g>
     </g>
     <g id="text_3">
      <!-- 10 -->
      <g style="fill: #262626" transform="translate(159.482969 269.373594)scale(0.11 -0.11)">
       <defs>
        <path id="ArialMT-31" d="M 2384 0 
L 1822 0 
L 1822 3584 
Q 1619 3391 1289 3197 
Q 959 3003 697 2906 
L 697 3450 
Q 1169 3672 1522 3987 
Q 1875 4303 2022 4600 
L 2384 4600 
L 2384 0 
z
" transform="scale(0.015625)"/>
       </defs>
       <use xlink:href="#ArialMT-31"/>
       <use xlink:href="#ArialMT-30" x="55.615234"/>
      </g>
     </g>
    </g>
    <g id="xtick_4">
     <g id="line2d_4">
      <g>
       <use xlink:href="#maaad3f1874" x="221.4" y="252" style="fill: #262626; stroke: #262626; stroke-width: 1.25"/>
      </g>
     </g>
     <g id="text_4">
      <!-- 15 -->
      <g style="fill: #262626" transform="translate(215.282969 269.373594)scale(0.11 -0.11)">
       <use xlink:href="#ArialMT-31"/>
       <use xlink:href="#ArialMT-35" x="55.615234"/>
      </g>
     </g>
    </g>
    <g id="xtick_5">
     <g id="line2d_5">
      <g>
       <use xlink:href="#maaad3f1874" x="277.2" y="252" style="fill: #262626; stroke: #262626; stroke-width: 1.25"/>
      </g>
     </g>
     <g id="text_5">
      <!-- 20 -->
      <g style="fill: #262626" transform="translate(271.082969 269.373594)scale(0.11 -0.11)">
       <defs>
        <path id="ArialMT-32" d="M 3222 541 
L 3222 0 
L 194 0 
Q 188 203 259 391 
Q 375 700 629 1000 
Q 884 1300 1366 1694 
Q 2113 2306 2375 2664 
Q 2638 3022 2638 3341 
Q 2638 3675 2398 3904 
Q 2159 4134 1775 4134 
Q 1369 4134 1125 3890 
Q 881 3647 878 3216 
L 300 3275 
Q 359 3922 746 4261 
Q 1134 4600 1788 4600 
Q 2447 4600 2831 4234 
Q 3216 3869 3216 3328 
Q 3216 3053 3103 2787 
Q 2991 2522 2730 2228 
Q 2469 1934 1863 1422 
Q 1356 997 1212 845 
Q 1069 694 975 541 
L 3222 541 
z
" transform="scale(0.015625)"/>
       </defs>
       <use xlink:href="#ArialMT-32"/>
       <use xlink:href="#ArialMT-30" x="55.615234"/>
      </g>
     </g>
    </g>
    <g id="xtick_6">
     <g id="line2d_6">
      <g>
       <use xlink:href="#maaad3f1874" x="333" y="252" style="fill: #262626; stroke: #262626; stroke-width: 1.25"/>
      </g>
     </g>
     <g id="text_6">
      <!-- 25 -->
      <g style="fill: #262626" transform="translate(326.882969 269.373594)scale(0.11 -0.11)">
       <use xlink:href="#ArialMT-32"/>
       <use xlink:href="#ArialMT-35" x="55.615234"/>
      </g>
     </g>
    </g>
    <g id="xtick_7">
     <g id="line2d_7">
      <g>
       <use xlink:href="#maaad3f1874" x="388.8" y="252" style="fill: #262626; stroke: #262626; stroke-width: 1.25"/>
      </g>
     </g>
     <g id="text_7">
      <!-- 30 -->
      <g style="fill: #262626" transform="translate(382.682969 269.373594)scale(0.11 -0.11)">
       <defs>
        <path id="ArialMT-33" d="M 269 1209 
L 831 1284 
Q 928 806 1161 595 
Q 1394 384 1728 384 
Q 2125 384 2398 659 
Q 2672 934 2672 1341 
Q 2672 1728 2419 1979 
Q 2166 2231 1775 2231 
Q 1616 2231 1378 2169 
L 1441 2663 
Q 1497 2656 1531 2656 
Q 1891 2656 2178 2843 
Q 2466 3031 2466 3422 
Q 2466 3731 2256 3934 
Q 2047 4138 1716 4138 
Q 1388 4138 1169 3931 
Q 950 3725 888 3313 
L 325 3413 
Q 428 3978 793 4289 
Q 1159 4600 1703 4600 
Q 2078 4600 2393 4439 
Q 2709 4278 2876 4000 
Q 3044 3722 3044 3409 
Q 3044 3113 2884 2869 
Q 2725 2625 2413 2481 
Q 2819 2388 3044 2092 
Q 3269 1797 3269 1353 
Q 3269 753 2831 336 
Q 2394 -81 1725 -81 
Q 1122 -81 723 278 
Q 325 638 269 1209 
z
" transform="scale(0.015625)"/>
       </defs>
       <use xlink:href="#ArialMT-33"/>
       <use xlink:href="#ArialMT-30" x="55.615234"/>
      </g>
     </g>
    </g>
    <g id="text_8">
     <!-- Frequency (Hz) -->
     <g style="fill: #262626" transform="translate(180.059063 284.295469)scale(0.12 -0.12)">
      <defs>
       <path id="ArialMT-46" d="M 525 0 
L 525 4581 
L 3616 4581 
L 3616 4041 
L 1131 4041 
L 1131 2622 
L 3281 2622 
L 3281 2081 
L 1131 2081 
L 1131 0 
L 525 0 
z
" transform="scale(0.015625)"/>
       <path id="ArialMT-72" d="M 416 0 
L 416 3319 
L 922 3319 
L 922 2816 
Q 1116 3169 1280 3281 
Q 1444 3394 1641 3394 
Q 1925 3394 2219 3213 
L 2025 2691 
Q 1819 2813 1613 2813 
Q 1428 2813 1281 2702 
Q 1134 2591 1072 2394 
Q 978 2094 978 1738 
L 978 0 
L 416 0 
z
" transform="scale(0.015625)"/>
       <path id="ArialMT-65" d="M 2694 1069 
L 3275 997 
Q 3138 488 2766 206 
Q 2394 -75 1816 -75 
Q 1088 -75 661 373 
Q 234 822 234 1631 
Q 234 2469 665 2931 
Q 1097 3394 1784 3394 
Q 2450 3394 2872 2941 
Q 3294 2488 3294 1666 
Q 3294 1616 3291 1516 
L 816 1516 
Q 847 969 1125 678 
Q 1403 388 1819 388 
Q 2128 388 2347 550 
Q 2566 713 2694 1069 
z
M 847 1978 
L 2700 1978 
Q 2663 2397 2488 2606 
Q 2219 2931 1791 2931 
Q 1403 2931 1139 2672 
Q 875 2413 847 1978 
z
" transform="scale(0.015625)"/>
       <path id="ArialMT-71" d="M 2538 -1272 
L 2538 353 
Q 2406 169 2170 47 
Q 1934 -75 1669 -75 
Q 1078 -75 651 397 
Q 225 869 225 1691 
Q 225 2191 398 2587 
Q 572 2984 901 3189 
Q 1231 3394 1625 3394 
Q 2241 3394 2594 2875 
L 2594 3319 
L 3100 3319 
L 3100 -1272 
L 2538 -1272 
z
M 803 1669 
Q 803 1028 1072 708 
Q 1341 388 1716 388 
Q 2075 388 2334 692 
Q 2594 997 2594 1619 
Q 2594 2281 2320 2615 
Q 2047 2950 1678 2950 
Q 1313 2950 1058 2639 
Q 803 2328 803 1669 
z
" transform="scale(0.015625)"/>
       <path id="ArialMT-75" d="M 2597 0 
L 2597 488 
Q 2209 -75 1544 -75 
Q 1250 -75 995 37 
Q 741 150 617 320 
Q 494 491 444 738 
Q 409 903 409 1263 
L 409 3319 
L 972 3319 
L 972 1478 
Q 972 1038 1006 884 
Q 1059 663 1231 536 
Q 1403 409 1656 409 
Q 1909 409 2131 539 
Q 2353 669 2445 892 
Q 2538 1116 2538 1541 
L 2538 3319 
L 3100 3319 
L 3100 0 
L 2597 0 
z
" transform="scale(0.015625)"/>
       <path id="ArialMT-6e" d="M 422 0 
L 422 3319 
L 928 3319 
L 928 2847 
Q 1294 3394 1984 3394 
Q 2284 3394 2536 3286 
Q 2788 3178 2913 3003 
Q 3038 2828 3088 2588 
Q 3119 2431 3119 2041 
L 3119 0 
L 2556 0 
L 2556 2019 
Q 2556 2363 2490 2533 
Q 2425 2703 2258 2804 
Q 2091 2906 1866 2906 
Q 1506 2906 1245 2678 
Q 984 2450 984 1813 
L 984 0 
L 422 0 
z
" transform="scale(0.015625)"/>
       <path id="ArialMT-63" d="M 2588 1216 
L 3141 1144 
Q 3050 572 2676 248 
Q 2303 -75 1759 -75 
Q 1078 -75 664 370 
Q 250 816 250 1647 
Q 250 2184 428 2587 
Q 606 2991 970 3192 
Q 1334 3394 1763 3394 
Q 2303 3394 2647 3120 
Q 2991 2847 3088 2344 
L 2541 2259 
Q 2463 2594 2264 2762 
Q 2066 2931 1784 2931 
Q 1359 2931 1093 2626 
Q 828 2322 828 1663 
Q 828 994 1084 691 
Q 1341 388 1753 388 
Q 2084 388 2306 591 
Q 2528 794 2588 1216 
z
" transform="scale(0.015625)"/>
       <path id="ArialMT-79" d="M 397 -1278 
L 334 -750 
Q 519 -800 656 -800 
Q 844 -800 956 -737 
Q 1069 -675 1141 -563 
Q 1194 -478 1313 -144 
Q 1328 -97 1363 -6 
L 103 3319 
L 709 3319 
L 1400 1397 
Q 1534 1031 1641 628 
Q 1738 1016 1872 1384 
L 2581 3319 
L 3144 3319 
L 1881 -56 
Q 1678 -603 1566 -809 
Q 1416 -1088 1222 -1217 
Q 1028 -1347 759 -1347 
Q 597 -1347 397 -1278 
z
" transform="scale(0.015625)"/>
       <path id="ArialMT-20" transform="scale(0.015625)"/>
       <path id="ArialMT-28" d="M 1497 -1347 
Q 1031 -759 709 28 
Q 388 816 388 1659 
Q 388 2403 628 3084 
Q 909 3875 1497 4659 
L 1900 4659 
Q 1522 4009 1400 3731 
Q 1209 3300 1100 2831 
Q 966 2247 966 1656 
Q 966 153 1900 -1347 
L 1497 -1347 
z
" transform="scale(0.015625)"/>
       <path id="ArialMT-48" d="M 513 0 
L 513 4581 
L 1119 4581 
L 1119 2700 
L 3500 2700 
L 3500 4581 
L 4106 4581 
L 4106 0 
L 3500 0 
L 3500 2159 
L 1119 2159 
L 1119 0 
L 513 0 
z
" transform="scale(0.015625)"/>
       <path id="ArialMT-7a" d="M 125 0 
L 125 456 
L 2238 2881 
Q 1878 2863 1603 2863 
L 250 2863 
L 250 3319 
L 2963 3319 
L 2963 2947 
L 1166 841 
L 819 456 
Q 1197 484 1528 484 
L 3063 484 
L 3063 0 
L 125 0 
z
" transform="scale(0.015625)"/>
       <path id="ArialMT-29" d="M 791 -1347 
L 388 -1347 
Q 1322 153 1322 1656 
Q 1322 2244 1188 2822 
Q 1081 3291 891 3722 
Q 769 4003 388 4659 
L 791 4659 
Q 1378 3875 1659 3084 
Q 1900 2403 1900 1659 
Q 1900 816 1576 28 
Q 1253 -759 791 -1347 
z
" transform="scale(0.015625)"/>
      </defs>
      <use xlink:href="#ArialMT-46"/>
      <use xlink:href="#ArialMT-72" x="61.083984"/>
      <use xlink:href="#ArialMT-65" x="94.384766"/>
      <use xlink:href="#ArialMT-71" x="150"/>
      <use xlink:href="#ArialMT-75" x="205.615234"/>
      <use xlink:href="#ArialMT-65" x="261.230469"/>
      <use xlink:href="#ArialMT-6e" x="316.845703"/>
      <use xlink:href="#ArialMT-63" x="372.460938"/>
      <use xlink:href="#ArialMT-79" x="422.460938"/>
      <use xlink:href="#ArialMT-20" x="472.460938"/>
      <use xlink:href="#ArialMT-28" x="500.244141"/>
      <use xlink:href="#ArialMT-48" x="533.544922"/>
      <use xlink:href="#ArialMT-7a" x="605.761719"/>
      <use xlink:href="#ArialMT-29" x="655.761719"/>
     </g>
    </g>
   </g>
   <g id="matplotlib.axis_2">
    <g id="ytick_1">
     <g id="line2d_8">
      <defs>
       <path id="m98f82cd0ac" d="M 0 0 
L -6 0 
" style="stroke: #262626; stroke-width: 1.25"/>
      </defs>
      <g>
       <use xlink:href="#m98f82cd0ac" x="54" y="242.116364" style="fill: #262626; stroke: #262626; stroke-width: 1.25"/>
      </g>
     </g>
     <g id="text_9">
      <!-- 0.0 -->
      <g style="fill: #262626" transform="translate(29.21 246.053161)scale(0.11 -0.11)">
       <defs>
        <path id="ArialMT-2e" d="M 581 0 
L 581 641 
L 1222 641 
L 1222 0 
L 581 0 
z
" transform="scale(0.015625)"/>
       </defs>
       <use xlink:href="#ArialMT-30"/>
       <use xlink:href="#ArialMT-2e" x="55.615234"/>
       <use xlink:href="#ArialMT-30" x="83.398438"/>
      </g>
     </g>
    </g>
    <g id="ytick_2">
     <g id="line2d_9">
      <g>
       <use xlink:href="#m98f82cd0ac" x="54" y="202.581818" style="fill: #262626; stroke: #262626; stroke-width: 1.25"/>
      </g>
     </g>
     <g id="text_10">
      <!-- 0.2 -->
      <g style="fill: #262626" transform="translate(29.21 206.518615)scale(0.11 -0.11)">
       <use xlink:href="#ArialMT-30"/>
       <use xlink:href="#ArialMT-2e" x="55.615234"/>
       <use xlink:href="#ArialMT-32" x="83.398438"/>
      </g>
     </g>
    </g>
    <g id="ytick_3">
     <g id="line2d_10">
      <g>
       <use xlink:href="#m98f82cd0ac" x="54" y="163.047273" style="fill: #262626; stroke: #262626; stroke-width: 1.25"/>
      </g>
     </g>
     <g id="text_11">
      <!-- 0.4 -->
      <g style="fill: #262626" transform="translate(29.21 166.98407)scale(0.11 -0.11)">
       <defs>
        <path id="ArialMT-34" d="M 2069 0 
L 2069 1097 
L 81 1097 
L 81 1613 
L 2172 4581 
L 2631 4581 
L 2631 1613 
L 3250 1613 
L 3250 1097 
L 2631 1097 
L 2631 0 
L 2069 0 
z
M 2069 1613 
L 2069 3678 
L 634 1613 
L 2069 1613 
z
" transform="scale(0.015625)"/>
       </defs>
       <use xlink:href="#ArialMT-30"/>
       <use xlink:href="#ArialMT-2e" x="55.615234"/>
       <use xlink:href="#ArialMT-34" x="83.398438"/>
      </g>
     </g>
    </g>
    <g id="ytick_4">
     <g id="line2d_11">
      <g>
       <use xlink:href="#m98f82cd0ac" x="54" y="123.512727" style="fill: #262626; stroke: #262626; stroke-width: 1.25"/>
      </g>
     </g>
     <g id="text_12">
      <!-- 0.6 -->
      <g style="fill: #262626" transform="translate(29.21 127.449524)scale(0.11 -0.11)">
       <defs>
        <path id="ArialMT-36" d="M 3184 3459 
L 2625 3416 
Q 2550 3747 2413 3897 
Q 2184 4138 1850 4138 
Q 1581 4138 1378 3988 
Q 1113 3794 959 3422 
Q 806 3050 800 2363 
Q 1003 2672 1297 2822 
Q 1591 2972 1913 2972 
Q 2475 2972 2870 2558 
Q 3266 2144 3266 1488 
Q 3266 1056 3080 686 
Q 2894 316 2569 119 
Q 2244 -78 1831 -78 
Q 1128 -78 684 439 
Q 241 956 241 2144 
Q 241 3472 731 4075 
Q 1159 4600 1884 4600 
Q 2425 4600 2770 4297 
Q 3116 3994 3184 3459 
z
M 888 1484 
Q 888 1194 1011 928 
Q 1134 663 1356 523 
Q 1578 384 1822 384 
Q 2178 384 2434 671 
Q 2691 959 2691 1453 
Q 2691 1928 2437 2201 
Q 2184 2475 1800 2475 
Q 1419 2475 1153 2201 
Q 888 1928 888 1484 
z
" transform="scale(0.015625)"/>
       </defs>
       <use xlink:href="#ArialMT-30"/>
       <use xlink:href="#ArialMT-2e" x="55.615234"/>
       <use xlink:href="#ArialMT-36" x="83.398438"/>
      </g>
     </g>
    </g>
    <g id="ytick_5">
     <g id="line2d_12">
      <g>
       <use xlink:href="#m98f82cd0ac" x="54" y="83.978182" style="fill: #262626; stroke: #262626; stroke-width: 1.25"/>
      </g>
     </g>
     <g id="text_13">
      <!-- 0.8 -->
      <g style="fill: #262626" transform="translate(29.21 87.914979)scale(0.11 -0.11)">
       <defs>
        <path id="ArialMT-38" d="M 1131 2484 
Q 781 2613 612 2850 
Q 444 3088 444 3419 
Q 444 3919 803 4259 
Q 1163 4600 1759 4600 
Q 2359 4600 2725 4251 
Q 3091 3903 3091 3403 
Q 3091 3084 2923 2848 
Q 2756 2613 2416 2484 
Q 2838 2347 3058 2040 
Q 3278 1734 3278 1309 
Q 3278 722 2862 322 
Q 2447 -78 1769 -78 
Q 1091 -78 675 323 
Q 259 725 259 1325 
Q 259 1772 486 2073 
Q 713 2375 1131 2484 
z
M 1019 3438 
Q 1019 3113 1228 2906 
Q 1438 2700 1772 2700 
Q 2097 2700 2305 2904 
Q 2513 3109 2513 3406 
Q 2513 3716 2298 3927 
Q 2084 4138 1766 4138 
Q 1444 4138 1231 3931 
Q 1019 3725 1019 3438 
z
M 838 1322 
Q 838 1081 952 856 
Q 1066 631 1291 507 
Q 1516 384 1775 384 
Q 2178 384 2440 643 
Q 2703 903 2703 1303 
Q 2703 1709 2433 1975 
Q 2163 2241 1756 2241 
Q 1359 2241 1098 1978 
Q 838 1716 838 1322 
z
" transform="scale(0.015625)"/>
       </defs>
       <use xlink:href="#ArialMT-30"/>
       <use xlink:href="#ArialMT-2e" x="55.615234"/>
       <use xlink:href="#ArialMT-38" x="83.398438"/>
      </g>
     </g>
    </g>
    <g id="ytick_6">
     <g id="line2d_13">
      <g>
       <use xlink:href="#m98f82cd0ac" x="54" y="44.443636" style="fill: #262626; stroke: #262626; stroke-width: 1.25"/>
      </g>
     </g>
     <g id="text_14">
      <!-- 1.0 -->
      <g style="fill: #262626" transform="translate(29.21 48.380433)scale(0.11 -0.11)">
       <use xlink:href="#ArialMT-31"/>
       <use xlink:href="#ArialMT-2e" x="55.615234"/>
       <use xlink:href="#ArialMT-30" x="83.398438"/>
      </g>
     </g>
    </g>
   </g>
   <g id="line2d_14">
    <path d="M 54 242.112755 
L 157.93603 242.072097 
L 161.085607 241.371717 
L 162.135466 241.890691 
L 163.185325 242.081872 
L 164.235183 239.929718 
L 165.285042 235.475453 
L 166.334901 228.921594 
L 167.38476 240.070733 
L 168.434619 241.290432 
L 169.484478 239.602029 
L 170.534337 236.628892 
L 171.584196 235.045035 
L 172.634055 237.545976 
L 173.683913 220.069446 
L 174.733772 234.327624 
L 175.783631 236.231866 
L 176.83349 233.942634 
L 177.883349 235.713318 
L 178.933208 234.076948 
L 179.983067 241.802932 
L 181.032926 235.326308 
L 182.082785 241.526438 
L 183.132643 223.778101 
L 184.182502 237.192575 
L 185.232361 226.28497 
L 186.28222 240.738895 
L 188.381938 224.379253 
L 189.431797 236.979733 
L 190.481656 237.858712 
L 191.531515 227.910592 
L 192.581373 235.622343 
L 193.631232 234.781588 
L 194.681091 240.457317 
L 195.73095 240.818953 
L 196.780809 241.395025 
L 197.830668 238.100922 
L 198.880527 237.973655 
L 199.930386 238.025793 
L 200.980245 240.867245 
L 202.030103 241.399872 
L 203.079962 238.54071 
L 204.129821 238.626059 
L 205.17968 240.333344 
L 206.229539 241.783552 
L 207.279398 241.912835 
L 208.329257 239.309618 
L 209.379116 241.202587 
L 210.428975 240.761671 
L 211.478833 241.971684 
L 212.528692 241.675868 
L 213.578551 241.072734 
L 214.62841 241.97412 
L 215.678269 237.072456 
L 216.728128 239.376333 
L 217.777987 241.330548 
L 218.827846 240.871449 
L 219.877705 241.59562 
L 220.927563 239.878425 
L 221.977422 241.072374 
L 223.027281 235.548397 
L 224.07714 234.553779 
L 225.126999 203.178931 
L 226.176858 63.213452 
L 227.226717 103.752483 
L 228.276576 44.443636 
L 229.326435 226.944239 
L 230.376294 241.242344 
L 231.426152 233.832938 
L 232.476011 234.208975 
L 233.52587 239.456332 
L 234.575729 236.900398 
L 235.625588 238.425861 
L 236.675447 241.465563 
L 237.725306 239.262012 
L 238.775165 241.453798 
L 239.825024 241.801043 
L 240.874882 240.61412 
L 241.924741 238.985827 
L 242.9746 241.817876 
L 244.024459 241.502616 
L 246.124177 242.062933 
L 247.174036 241.458665 
L 248.223895 239.854 
L 249.273754 240.484752 
L 250.323612 241.879375 
L 251.373471 241.734429 
L 252.42333 240.378368 
L 253.473189 241.334527 
L 254.523048 241.290428 
L 255.572907 242.11426 
L 256.622766 241.748635 
L 257.672625 241.602465 
L 258.722484 240.676553 
L 259.772342 241.923663 
L 262.921919 242.094561 
L 263.971778 241.058923 
L 265.021637 242.099821 
L 266.071496 241.380743 
L 267.121355 241.68841 
L 268.171214 241.776 
L 269.221072 240.237466 
L 270.270931 241.491045 
L 271.32079 241.443214 
L 272.370649 241.965028 
L 273.420508 241.900727 
L 275.520226 241.382887 
L 276.570085 241.927561 
L 277.619944 241.80039 
L 278.669802 241.82637 
L 279.719661 242.089224 
L 280.76952 241.944469 
L 281.819379 242.107125 
L 292.317968 242.099924 
L 350.060207 242.11619 
L 388.904986 242.116252 
L 388.904986 242.116252 
" clip-path="url(#pcb5bd03118)" style="fill: none; stroke: #4c72b0; stroke-opacity: 0.3; stroke-width: 1.5; stroke-linecap: round"/>
   </g>
   <g id="line2d_15">
    <path d="M 54 242.115183 
L 156.886171 242.01502 
L 157.93603 241.914371 
L 158.985889 242.044986 
L 160.035748 242.031673 
L 161.085607 241.90268 
L 162.135466 241.446164 
L 163.185325 241.489078 
L 164.235183 242.030638 
L 165.285042 240.63419 
L 166.334901 236.812278 
L 167.38476 240.153885 
L 168.434619 236.580229 
L 169.484478 235.085026 
L 170.534337 234.762928 
L 171.584196 236.468907 
L 172.634055 232.978247 
L 173.683913 241.380161 
L 174.733772 235.161437 
L 175.783631 236.368748 
L 177.883349 239.783338 
L 178.933208 234.82349 
L 179.983067 239.707099 
L 181.032926 240.223068 
L 182.082785 236.800187 
L 183.132643 238.553208 
L 184.182502 242.039696 
L 185.232361 235.850235 
L 186.28222 233.852663 
L 187.332079 238.827061 
L 188.381938 239.414901 
L 189.431797 236.319601 
L 190.481656 238.738707 
L 191.531515 232.59286 
L 192.581373 239.310626 
L 193.631232 238.600446 
L 194.681091 239.705123 
L 195.73095 239.945156 
L 196.780809 240.763716 
L 197.830668 241.032017 
L 198.880527 238.401398 
L 199.930386 241.757037 
L 200.980245 241.8556 
L 202.030103 241.792203 
L 204.129821 238.717221 
L 205.17968 240.582024 
L 206.229539 241.912088 
L 207.279398 242.045474 
L 208.329257 240.729925 
L 209.379116 241.916342 
L 210.428975 241.75502 
L 211.478833 239.167076 
L 212.528692 241.558285 
L 213.578551 241.635868 
L 214.62841 241.379629 
L 215.678269 240.002261 
L 216.728128 240.52908 
L 217.777987 241.911288 
L 218.827846 239.182045 
L 219.877705 241.36214 
L 220.927563 237.996864 
L 221.977422 241.111201 
L 223.027281 241.013983 
L 224.07714 237.481022 
L 225.126999 210.681001 
L 226.176858 115.751162 
L 227.226717 178.261999 
L 228.276576 44.443636 
L 229.326435 219.899303 
L 230.376294 240.788336 
L 231.426152 232.290383 
L 232.476011 235.949586 
L 233.52587 231.747209 
L 234.575729 238.459756 
L 235.625588 241.767206 
L 236.675447 238.062873 
L 237.725306 239.526665 
L 238.775165 241.990564 
L 239.825024 241.26318 
L 240.874882 241.142958 
L 241.924741 241.727782 
L 242.9746 241.769214 
L 244.024459 241.242841 
L 246.124177 241.854181 
L 247.174036 242.066592 
L 248.223895 241.710399 
L 249.273754 242.056081 
L 250.323612 241.208936 
L 252.42333 242.005912 
L 253.473189 241.522387 
L 254.523048 242.070568 
L 255.572907 242.049592 
L 256.622766 240.974734 
L 257.672625 241.953595 
L 258.722484 242.106628 
L 259.772342 241.77857 
L 260.822201 241.968887 
L 262.921919 242.115469 
L 263.971778 241.919019 
L 266.071496 242.072838 
L 267.121355 241.531655 
L 268.171214 241.83193 
L 270.270931 242.101689 
L 271.32079 241.883766 
L 274.470367 242.084074 
L 279.719661 242.035084 
L 282.869238 242.106754 
L 388.904986 242.116155 
L 388.904986 242.116155 
" clip-path="url(#pcb5bd03118)" style="fill: none; stroke: #dd8452; stroke-opacity: 0.3; stroke-width: 1.5; stroke-linecap: round"/>
   </g>
   <g id="line2d_16">
    <path d="M 54 242.115979 
L 161.085607 242.115953 
L 162.135466 241.81932 
L 163.185325 241.72266 
L 164.235183 241.756747 
L 165.285042 242.004996 
L 166.334901 241.440431 
L 167.38476 241.984915 
L 168.434619 239.834176 
L 169.484478 241.746519 
L 170.534337 239.516757 
L 171.584196 240.467539 
L 172.634055 238.490542 
L 173.683913 239.348535 
L 174.733772 229.93438 
L 175.783631 241.670712 
L 176.83349 241.238026 
L 177.883349 241.492998 
L 178.933208 237.459231 
L 179.983067 235.596996 
L 181.032926 239.415752 
L 182.082785 241.982311 
L 183.132643 234.622896 
L 184.182502 242.093553 
L 185.232361 237.732978 
L 186.28222 240.03475 
L 187.332079 240.179529 
L 188.381938 239.459733 
L 189.431797 240.708807 
L 190.481656 240.693427 
L 191.531515 235.588879 
L 192.581373 237.960019 
L 194.681091 241.890025 
L 195.73095 241.446692 
L 196.780809 239.381887 
L 197.830668 241.90128 
L 198.880527 240.155261 
L 199.930386 240.719756 
L 200.980245 239.803606 
L 202.030103 240.573479 
L 203.079962 240.539086 
L 204.129821 240.326173 
L 205.17968 238.922781 
L 206.229539 239.521641 
L 207.279398 236.507983 
L 208.329257 240.63926 
L 210.428975 241.140954 
L 211.478833 240.024514 
L 212.528692 237.958112 
L 213.578551 239.443437 
L 214.62841 239.904731 
L 215.678269 239.40021 
L 216.728128 240.953331 
L 217.777987 241.665075 
L 218.827846 237.298207 
L 219.877705 242.027583 
L 220.927563 234.799785 
L 221.977422 231.17491 
L 223.027281 239.095902 
L 224.07714 235.415836 
L 225.126999 211.645409 
L 226.176858 59.519834 
L 227.226717 152.311842 
L 228.276576 44.443636 
L 229.326435 227.943842 
L 230.376294 240.250317 
L 231.426152 235.625517 
L 232.476011 234.169733 
L 233.52587 239.676586 
L 234.575729 232.721747 
L 235.625588 241.233273 
L 236.675447 238.713176 
L 237.725306 240.845801 
L 238.775165 239.24098 
L 239.825024 241.344763 
L 240.874882 241.913155 
L 241.924741 238.900953 
L 242.9746 241.151007 
L 244.024459 241.890904 
L 245.074318 241.669942 
L 247.174036 242.112411 
L 248.223895 242.063009 
L 249.273754 240.933996 
L 250.323612 241.482792 
L 251.373471 240.889744 
L 252.42333 241.603029 
L 253.473189 242.000741 
L 254.523048 242.009575 
L 255.572907 241.105518 
L 256.622766 241.579759 
L 257.672625 241.551685 
L 258.722484 241.368349 
L 259.772342 241.518146 
L 260.822201 242.071669 
L 261.87206 240.893129 
L 263.971778 241.807642 
L 265.021637 241.706347 
L 266.071496 242.07745 
L 267.121355 239.355255 
L 268.171214 242.111128 
L 269.221072 241.934494 
L 271.32079 241.882152 
L 272.370649 241.356152 
L 273.420508 242.052989 
L 274.470367 241.668555 
L 275.520226 241.703169 
L 276.570085 242.114681 
L 277.619944 241.873356 
L 278.669802 242.060085 
L 279.719661 242.107526 
L 280.76952 241.973576 
L 281.819379 242.112324 
L 284.968956 242.112838 
L 346.91063 242.116354 
L 388.904986 242.116359 
L 388.904986 242.116359 
" clip-path="url(#pcb5bd03118)" style="fill: none; stroke: #55a868; stroke-opacity: 0.3; stroke-width: 1.5; stroke-linecap: round"/>
   </g>
   <g id="line2d_17">
    <path d="M 54 242.113247 
L 154.786453 242.075038 
L 155.836312 241.729447 
L 156.886171 241.761734 
L 157.93603 242.067034 
L 158.985889 241.374614 
L 161.085607 241.766646 
L 162.135466 240.001076 
L 163.185325 234.908731 
L 164.235183 238.213844 
L 165.285042 207.112175 
L 166.334901 228.913452 
L 167.38476 239.601077 
L 168.434619 222.152475 
L 169.484478 239.105492 
L 170.534337 202.17396 
L 171.584196 226.590101 
L 172.634055 182.458403 
L 173.683913 175.612263 
L 174.733772 236.918843 
L 175.783631 227.94117 
L 176.83349 232.16141 
L 177.883349 230.657755 
L 178.933208 185.15051 
L 179.983067 220.9225 
L 181.032926 188.722341 
L 182.082785 236.617051 
L 183.132643 217.275915 
L 184.182502 222.729309 
L 185.232361 174.414362 
L 186.28222 241.596659 
L 187.332079 241.462258 
L 188.381938 212.734995 
L 189.431797 241.587126 
L 190.481656 220.814762 
L 191.531515 155.006706 
L 192.581373 220.319516 
L 193.631232 219.969978 
L 194.681091 236.238508 
L 195.73095 233.39347 
L 196.780809 240.494815 
L 198.880527 231.227059 
L 199.930386 234.446586 
L 200.980245 228.415382 
L 202.030103 236.477864 
L 203.079962 239.843836 
L 204.129821 239.088498 
L 205.17968 227.716906 
L 206.229539 230.872918 
L 207.279398 241.513514 
L 208.329257 240.120546 
L 209.379116 232.477164 
L 210.428975 240.016379 
L 211.478833 238.461199 
L 212.528692 241.623281 
L 213.578551 237.979425 
L 214.62841 231.457188 
L 215.678269 235.867394 
L 216.728128 242.0743 
L 217.777987 228.483957 
L 218.827846 228.501845 
L 219.877705 235.727162 
L 220.927563 234.84757 
L 221.977422 241.714278 
L 223.027281 239.544593 
L 224.07714 241.127692 
L 225.126999 208.124871 
L 226.176858 69.464322 
L 227.226717 143.86843 
L 228.276576 44.443636 
L 229.326435 186.868082 
L 230.376294 216.498201 
L 231.426152 223.604428 
L 232.476011 223.691347 
L 233.52587 233.487883 
L 234.575729 234.708479 
L 235.625588 237.963844 
L 236.675447 241.742791 
L 237.725306 232.594964 
L 238.775165 240.537673 
L 239.825024 239.341576 
L 240.874882 235.205901 
L 241.924741 236.099979 
L 242.9746 237.298408 
L 244.024459 241.872317 
L 245.074318 242.039705 
L 246.124177 239.80187 
L 247.174036 240.425236 
L 248.223895 236.090357 
L 249.273754 241.228234 
L 251.373471 235.226237 
L 252.42333 239.890794 
L 253.473189 240.630581 
L 254.523048 240.733841 
L 255.572907 241.590293 
L 256.622766 241.487447 
L 257.672625 240.668797 
L 258.722484 240.059178 
L 259.772342 240.828567 
L 260.822201 241.373156 
L 261.87206 236.720647 
L 262.921919 240.981112 
L 263.971778 236.66389 
L 265.021637 240.628202 
L 266.071496 241.912939 
L 267.121355 240.632613 
L 268.171214 240.835753 
L 269.221072 238.946041 
L 270.270931 240.734889 
L 271.32079 241.92749 
L 272.370649 238.912459 
L 273.420508 241.393431 
L 274.470367 241.772075 
L 275.520226 241.501069 
L 276.570085 242.051527 
L 277.619944 241.530095 
L 278.669802 241.504074 
L 279.719661 241.788477 
L 280.76952 241.789103 
L 281.819379 241.417102 
L 282.869238 241.932363 
L 287.068674 242.07181 
L 288.118532 242.087231 
L 289.168391 241.986474 
L 291.268109 242.086024 
L 297.567262 242.095892 
L 388.904986 242.116208 
L 388.904986 242.116208 
" clip-path="url(#pcb5bd03118)" style="fill: none; stroke: #c44e52; stroke-opacity: 0.3; stroke-width: 1.5; stroke-linecap: round"/>
   </g>
   <g id="line2d_18">
    <path d="M 54 242.116337 
L 155.836312 242.063395 
L 157.93603 241.732668 
L 158.985889 242.097895 
L 160.035748 241.0217 
L 161.085607 240.928909 
L 162.135466 239.298165 
L 163.185325 238.351686 
L 164.235183 240.069826 
L 166.334901 227.970215 
L 167.38476 241.976923 
L 168.434619 231.072974 
L 169.484478 228.015036 
L 170.534337 205.021469 
L 171.584196 238.222942 
L 172.634055 217.280926 
L 173.683913 229.324341 
L 174.733772 230.328813 
L 175.783631 228.022377 
L 176.83349 238.513789 
L 177.883349 230.459827 
L 178.933208 218.574201 
L 179.983067 235.667729 
L 181.032926 239.776842 
L 182.082785 225.844317 
L 183.132643 233.316082 
L 184.182502 241.886898 
L 185.232361 225.977292 
L 186.28222 224.821645 
L 187.332079 234.078245 
L 188.381938 242.029272 
L 189.431797 241.578256 
L 190.481656 232.596859 
L 191.531515 240.271819 
L 192.581373 221.780327 
L 193.631232 240.728612 
L 194.681091 240.395373 
L 195.73095 240.579834 
L 196.780809 241.154644 
L 197.830668 239.327642 
L 198.880527 240.151968 
L 199.930386 240.270748 
L 200.980245 241.070661 
L 202.030103 240.80946 
L 203.079962 237.099016 
L 204.129821 238.070357 
L 205.17968 238.882187 
L 206.229539 241.511284 
L 207.279398 241.88172 
L 208.329257 239.285654 
L 209.379116 240.787638 
L 210.428975 240.072521 
L 211.478833 235.209165 
L 212.528692 241.69568 
L 213.578551 239.491141 
L 214.62841 241.175865 
L 215.678269 241.995798 
L 216.728128 239.100082 
L 217.777987 241.828096 
L 218.827846 230.376397 
L 219.877705 235.428805 
L 220.927563 237.95523 
L 221.977422 233.124483 
L 223.027281 239.95423 
L 224.07714 239.474581 
L 225.126999 188.54326 
L 226.176858 44.659762 
L 227.226717 169.693969 
L 228.276576 44.443636 
L 229.326435 231.475368 
L 230.376294 215.973838 
L 231.426152 236.186367 
L 232.476011 239.316277 
L 233.52587 219.599929 
L 234.575729 233.817716 
L 235.625588 237.197053 
L 236.675447 241.384136 
L 237.725306 240.805386 
L 238.775165 238.662814 
L 239.825024 241.048211 
L 240.874882 240.04132 
L 241.924741 241.192931 
L 242.9746 240.22483 
L 244.024459 241.379574 
L 245.074318 242.033785 
L 246.124177 241.317091 
L 247.174036 238.519626 
L 248.223895 242.011491 
L 249.273754 241.920038 
L 250.323612 241.047901 
L 251.373471 241.966627 
L 252.42333 241.955663 
L 253.473189 241.14932 
L 254.523048 241.527911 
L 255.572907 242.111444 
L 256.622766 241.74376 
L 257.672625 241.73564 
L 258.722484 241.513823 
L 259.772342 241.831434 
L 260.822201 240.715911 
L 261.87206 241.588186 
L 263.971778 242.023325 
L 266.071496 239.705213 
L 267.121355 240.865549 
L 268.171214 241.393327 
L 269.221072 240.508838 
L 270.270931 241.721376 
L 272.370649 242.065554 
L 274.470367 241.553655 
L 275.520226 241.821933 
L 276.570085 241.967352 
L 277.619944 241.734089 
L 280.76952 242.098051 
L 281.819379 241.964867 
L 287.068674 242.070697 
L 291.268109 242.09762 
L 299.66698 242.114651 
L 326.963311 242.115855 
L 388.904986 242.116266 
L 388.904986 242.116266 
" clip-path="url(#pcb5bd03118)" style="fill: none; stroke: #8172b3; stroke-opacity: 0.3; stroke-width: 1.5; stroke-linecap: round"/>
   </g>
   <g id="line2d_19">
    <path d="M 54 242.114685 
L 161.085607 242.090895 
L 162.135466 241.705242 
L 163.185325 242.098886 
L 164.235183 241.926152 
L 165.285042 241.173001 
L 166.334901 241.229952 
L 167.38476 240.777277 
L 168.434619 239.058235 
L 169.484478 241.605206 
L 170.534337 235.486919 
L 171.584196 241.312858 
L 172.634055 241.703889 
L 173.683913 239.330068 
L 174.733772 239.227448 
L 175.783631 233.395085 
L 176.83349 239.860286 
L 177.883349 236.808669 
L 178.933208 237.016411 
L 179.983067 236.102491 
L 181.032926 242.099647 
L 182.082785 241.893466 
L 183.132643 242.065977 
L 185.232361 240.928171 
L 186.28222 238.262883 
L 187.332079 240.560267 
L 188.381938 241.305114 
L 189.431797 240.026821 
L 190.481656 239.616999 
L 191.531515 241.486098 
L 192.581373 240.350896 
L 193.631232 238.660799 
L 194.681091 240.053103 
L 195.73095 239.842782 
L 196.780809 241.72026 
L 197.830668 241.409357 
L 198.880527 235.896319 
L 199.930386 240.916559 
L 200.980245 240.583436 
L 202.030103 239.561829 
L 203.079962 235.453898 
L 204.129821 240.390052 
L 205.17968 238.192167 
L 206.229539 240.039709 
L 207.279398 238.560537 
L 208.329257 240.999264 
L 209.379116 239.211487 
L 210.428975 240.995336 
L 211.478833 233.807802 
L 212.528692 240.202444 
L 213.578551 240.750974 
L 214.62841 241.159576 
L 215.678269 239.569371 
L 216.728128 240.830043 
L 217.777987 239.80958 
L 218.827846 240.538709 
L 219.877705 240.605002 
L 220.927563 232.12729 
L 221.977422 236.968939 
L 223.027281 230.654255 
L 224.07714 228.803337 
L 225.126999 205.012321 
L 226.176858 44.443636 
L 227.226717 132.860142 
L 228.276576 96.263118 
L 229.326435 203.02051 
L 230.376294 239.761604 
L 231.426152 233.935882 
L 232.476011 226.816082 
L 233.52587 233.357826 
L 234.575729 236.314046 
L 235.625588 241.002303 
L 236.675447 239.136451 
L 237.725306 239.592314 
L 238.775165 240.710499 
L 239.825024 240.962008 
L 240.874882 241.621003 
L 241.924741 240.079533 
L 242.9746 240.774087 
L 244.024459 241.865803 
L 245.074318 238.373289 
L 246.124177 241.674505 
L 247.174036 241.670643 
L 248.223895 240.743731 
L 249.273754 242.007306 
L 250.323612 240.663499 
L 251.373471 241.208513 
L 252.42333 240.941943 
L 253.473189 241.24552 
L 254.523048 241.725233 
L 255.572907 241.500434 
L 256.622766 242.080652 
L 257.672625 242.000107 
L 258.722484 241.418428 
L 259.772342 241.28589 
L 260.822201 242.054516 
L 261.87206 241.467225 
L 262.921919 240.420386 
L 263.971778 241.937147 
L 266.071496 242.030313 
L 267.121355 240.882293 
L 268.171214 241.441423 
L 269.221072 241.384633 
L 270.270931 242.080869 
L 271.32079 241.158263 
L 272.370649 242.088173 
L 273.420508 241.912963 
L 274.470367 242.107447 
L 275.520226 241.238949 
L 278.669802 242.096757 
L 279.719661 241.864227 
L 282.869238 242.057359 
L 288.118532 242.085085 
L 293.367827 242.091847 
L 300.716839 242.107163 
L 388.904986 242.11573 
L 388.904986 242.11573 
" clip-path="url(#pcb5bd03118)" style="fill: none; stroke: #937860; stroke-opacity: 0.3; stroke-width: 1.5; stroke-linecap: round"/>
   </g>
   <g id="line2d_20">
    <path d="M 54 242.112921 
L 149.537159 242.067067 
L 150.587018 241.972071 
L 151.636877 242.057789 
L 152.686736 241.777634 
L 153.736595 242.085052 
L 154.786453 241.325002 
L 155.836312 242.026071 
L 156.886171 239.810233 
L 157.93603 239.093167 
L 158.985889 240.957447 
L 160.035748 241.056025 
L 161.085607 236.779191 
L 162.135466 238.812022 
L 163.185325 170.906488 
L 164.235183 221.162947 
L 165.285042 222.730464 
L 166.334901 225.630216 
L 167.38476 226.710148 
L 168.434619 235.860555 
L 169.484478 112.44011 
L 170.534337 191.242119 
L 171.584196 191.044649 
L 172.634055 233.18535 
L 173.683913 172.117729 
L 174.733772 232.074143 
L 175.783631 212.569237 
L 176.83349 213.680892 
L 177.883349 202.178212 
L 178.933208 236.510273 
L 179.983067 211.787529 
L 181.032926 164.531643 
L 182.082785 222.410898 
L 183.132643 191.522276 
L 184.182502 236.930317 
L 185.232361 239.058138 
L 186.28222 240.573547 
L 187.332079 225.997627 
L 188.381938 179.73344 
L 189.431797 239.490378 
L 190.481656 203.58044 
L 191.531515 235.302392 
L 192.581373 203.01804 
L 193.631232 228.126359 
L 194.681091 205.818605 
L 195.73095 216.238327 
L 196.780809 241.98392 
L 197.830668 235.826092 
L 198.880527 237.299359 
L 200.980245 240.801594 
L 202.030103 132.265464 
L 203.079962 216.096888 
L 204.129821 229.420913 
L 205.17968 182.228084 
L 206.229539 227.911474 
L 207.279398 178.780221 
L 208.329257 236.493819 
L 209.379116 241.740371 
L 210.428975 236.980951 
L 211.478833 228.078106 
L 212.528692 230.934381 
L 213.578551 231.112268 
L 214.62841 213.769696 
L 215.678269 205.720004 
L 216.728128 239.997272 
L 217.777987 229.298461 
L 218.827846 213.212184 
L 219.877705 238.889392 
L 220.927563 220.279623 
L 221.977422 194.453475 
L 223.027281 229.095365 
L 224.07714 240.998423 
L 225.126999 218.998812 
L 226.176858 58.044664 
L 227.226717 44.443636 
L 229.326435 223.231343 
L 230.376294 185.067186 
L 231.426152 218.044663 
L 232.476011 207.571832 
L 233.52587 175.869266 
L 234.575729 236.41716 
L 235.625588 221.436361 
L 236.675447 239.07795 
L 237.725306 229.181434 
L 238.775165 236.525332 
L 239.825024 237.580779 
L 240.874882 239.626225 
L 241.924741 229.132486 
L 242.9746 240.708662 
L 244.024459 235.800972 
L 245.074318 227.856338 
L 246.124177 240.940556 
L 247.174036 230.546997 
L 248.223895 241.379258 
L 249.273754 230.902459 
L 250.323612 240.597376 
L 251.373471 232.07577 
L 252.42333 241.5261 
L 253.473189 228.890326 
L 254.523048 233.619527 
L 255.572907 239.843977 
L 256.622766 231.510474 
L 257.672625 240.403201 
L 258.722484 240.902087 
L 259.772342 238.014465 
L 260.822201 241.10539 
L 261.87206 241.401729 
L 262.921919 236.560174 
L 263.971778 239.835345 
L 265.021637 231.043563 
L 266.071496 239.246092 
L 267.121355 241.958141 
L 268.171214 240.960507 
L 269.221072 237.657845 
L 270.270931 239.169772 
L 271.32079 239.547767 
L 272.370649 240.334078 
L 273.420508 240.772469 
L 274.470367 241.708675 
L 275.520226 238.118744 
L 276.570085 241.991312 
L 277.619944 241.836565 
L 278.669802 241.253118 
L 279.719661 242.033924 
L 280.76952 241.545217 
L 281.819379 242.064667 
L 282.869238 241.495749 
L 283.919097 242.003695 
L 284.968956 241.831879 
L 286.018815 242.083844 
L 287.068674 241.995162 
L 289.168391 242.045764 
L 297.567262 242.061606 
L 299.66698 242.051008 
L 302.816557 242.082702 
L 326.963311 242.105327 
L 388.904986 242.113527 
L 388.904986 242.113527 
" clip-path="url(#pcb5bd03118)" style="fill: none; stroke: #da8bc3; stroke-opacity: 0.3; stroke-width: 1.5; stroke-linecap: round"/>
   </g>
   <g id="line2d_21">
    <path d="M 54 242.073383 
L 141.138288 241.967527 
L 143.238006 241.898348 
L 144.287865 241.956572 
L 145.337723 241.874164 
L 149.537159 242.014808 
L 150.587018 241.637419 
L 151.636877 241.55768 
L 152.686736 241.806993 
L 153.736595 241.283501 
L 154.786453 238.801994 
L 155.836312 241.071766 
L 156.886171 240.376492 
L 157.93603 241.461129 
L 158.985889 241.619331 
L 160.035748 239.60797 
L 161.085607 233.228612 
L 162.135466 216.825713 
L 163.185325 240.718113 
L 164.235183 239.53934 
L 165.285042 213.93707 
L 166.334901 232.284809 
L 167.38476 159.12911 
L 168.434619 159.00862 
L 169.484478 118.379048 
L 170.534337 231.324815 
L 171.584196 181.211617 
L 172.634055 87.682454 
L 173.683913 134.025581 
L 174.733772 231.344102 
L 175.783631 191.551873 
L 176.83349 234.712861 
L 177.883349 192.575004 
L 178.933208 238.4188 
L 179.983067 225.01786 
L 181.032926 188.478665 
L 182.082785 167.645685 
L 183.132643 227.087915 
L 184.182502 233.044417 
L 185.232361 139.869531 
L 186.28222 184.883298 
L 187.332079 197.499153 
L 188.381938 234.712443 
L 189.431797 231.394501 
L 190.481656 214.214962 
L 191.531515 174.463352 
L 192.581373 208.590935 
L 193.631232 210.407912 
L 194.681091 150.374775 
L 195.73095 224.915008 
L 196.780809 241.62833 
L 197.830668 233.406741 
L 198.880527 228.600306 
L 199.930386 237.410387 
L 200.980245 217.5948 
L 202.030103 213.946562 
L 203.079962 233.21341 
L 204.129821 238.851144 
L 205.17968 228.043238 
L 206.229539 213.733631 
L 207.279398 241.574248 
L 208.329257 220.399157 
L 209.379116 236.903297 
L 210.428975 172.322232 
L 211.478833 226.578433 
L 212.528692 192.970853 
L 213.578551 228.983583 
L 214.62841 231.036829 
L 215.678269 198.613732 
L 216.728128 235.818596 
L 217.777987 222.581282 
L 218.827846 239.352093 
L 219.877705 231.990961 
L 220.927563 235.536762 
L 221.977422 234.966274 
L 223.027281 229.913868 
L 224.07714 239.721639 
L 225.126999 170.00727 
L 226.176858 69.760916 
L 227.226717 151.241129 
L 228.276576 44.443636 
L 229.326435 230.460035 
L 230.376294 235.908725 
L 231.426152 230.076503 
L 232.476011 236.20107 
L 233.52587 198.434584 
L 234.575729 225.220687 
L 235.625588 242.085219 
L 236.675447 222.837017 
L 237.725306 231.349449 
L 238.775165 229.697268 
L 239.825024 237.783391 
L 240.874882 241.527716 
L 241.924741 238.142567 
L 242.9746 209.704494 
L 244.024459 239.26198 
L 245.074318 231.079106 
L 246.124177 233.575389 
L 247.174036 234.088497 
L 248.223895 235.123194 
L 249.273754 234.138836 
L 250.323612 233.499739 
L 251.373471 224.834864 
L 252.42333 239.634592 
L 253.473189 238.766084 
L 254.523048 232.449173 
L 255.572907 232.472162 
L 256.622766 226.034016 
L 257.672625 238.350354 
L 258.722484 241.881326 
L 259.772342 235.920959 
L 260.822201 240.794491 
L 261.87206 236.958787 
L 262.921919 240.314179 
L 263.971778 239.245308 
L 265.021637 240.146496 
L 266.071496 236.8949 
L 267.121355 239.877248 
L 268.171214 235.791893 
L 269.221072 238.643823 
L 270.270931 233.210055 
L 271.32079 240.143619 
L 272.370649 240.864362 
L 273.420508 236.21707 
L 274.470367 241.166107 
L 275.520226 239.194581 
L 276.570085 238.505116 
L 277.619944 239.678233 
L 278.669802 242.042929 
L 279.719661 242.092186 
L 281.819379 241.784643 
L 282.869238 242.055944 
L 283.919097 242.098811 
L 284.968956 241.846641 
L 286.018815 241.821948 
L 287.068674 242.000953 
L 289.168391 242.066745 
L 300.716839 242.081046 
L 304.916275 242.080115 
L 315.414864 242.102815 
L 339.561618 242.107671 
L 388.904986 242.112627 
L 388.904986 242.112627 
" clip-path="url(#pcb5bd03118)" style="fill: none; stroke: #8c8c8c; stroke-opacity: 0.3; stroke-width: 1.5; stroke-linecap: round"/>
   </g>
   <g id="line2d_22">
    <path d="M 54 242.115789 
L 153.736595 242.103197 
L 154.786453 241.933646 
L 155.836312 242.040778 
L 156.886171 241.959326 
L 157.93603 242.089401 
L 158.985889 241.874585 
L 160.035748 241.250834 
L 161.085607 241.93326 
L 162.135466 239.982051 
L 163.185325 241.530762 
L 164.235183 240.878476 
L 165.285042 237.535844 
L 166.334901 233.021038 
L 167.38476 241.74702 
L 168.434619 237.865385 
L 169.484478 238.416843 
L 170.534337 235.545051 
L 171.584196 239.934288 
L 172.634055 239.794426 
L 173.683913 240.915118 
L 174.733772 230.323805 
L 175.783631 241.7504 
L 177.883349 237.437155 
L 178.933208 241.379597 
L 179.983067 236.056712 
L 181.032926 239.194813 
L 182.082785 241.258472 
L 183.132643 241.201879 
L 184.182502 240.116556 
L 185.232361 235.448652 
L 186.28222 236.192959 
L 187.332079 223.046476 
L 188.381938 239.867259 
L 189.431797 240.560238 
L 191.531515 238.579764 
L 192.581373 241.323644 
L 193.631232 240.818126 
L 194.681091 240.720643 
L 195.73095 238.435317 
L 196.780809 240.677629 
L 197.830668 237.420494 
L 198.880527 241.692469 
L 199.930386 238.549239 
L 200.980245 238.608389 
L 202.030103 237.377974 
L 203.079962 240.95673 
L 204.129821 241.854848 
L 205.17968 241.765424 
L 206.229539 228.741558 
L 207.279398 241.969978 
L 208.329257 239.996065 
L 209.379116 240.070942 
L 210.428975 241.918284 
L 211.478833 238.984582 
L 212.528692 241.896276 
L 213.578551 240.831942 
L 214.62841 237.101089 
L 215.678269 238.078349 
L 216.728128 241.855785 
L 217.777987 241.896593 
L 218.827846 239.857211 
L 219.877705 236.474713 
L 220.927563 240.895103 
L 221.977422 240.863179 
L 223.027281 238.722834 
L 224.07714 220.874338 
L 225.126999 206.25613 
L 226.176858 61.298359 
L 227.226717 95.771468 
L 228.276576 44.443636 
L 229.326435 219.893658 
L 230.376294 241.465511 
L 231.426152 234.64399 
L 232.476011 238.827351 
L 233.52587 235.975688 
L 234.575729 240.32567 
L 235.625588 241.58638 
L 236.675447 240.012375 
L 237.725306 241.196901 
L 238.775165 240.196742 
L 239.825024 242.034544 
L 240.874882 241.549059 
L 241.924741 240.446581 
L 242.9746 241.95557 
L 245.074318 241.389795 
L 246.124177 241.88613 
L 247.174036 241.921701 
L 248.223895 242.096497 
L 249.273754 242.033867 
L 250.323612 242.109456 
L 251.373471 241.953153 
L 252.42333 241.984929 
L 254.523048 241.77635 
L 255.572907 242.084744 
L 262.921919 242.11624 
L 263.971778 242.036404 
L 266.071496 242.087104 
L 269.221072 242.040493 
L 270.270931 241.922499 
L 272.370649 242.087787 
L 273.420508 241.988646 
L 274.470367 242.10812 
L 388.904986 242.115762 
L 388.904986 242.115762 
" clip-path="url(#pcb5bd03118)" style="fill: none; stroke: #ccb974; stroke-opacity: 0.3; stroke-width: 1.5; stroke-linecap: round"/>
   </g>
   <g id="line2d_23">
    <path d="M 54 242.108074 
L 150.587018 242.05751 
L 151.636877 241.994438 
L 152.686736 242.082795 
L 153.736595 241.984881 
L 154.786453 241.708874 
L 155.836312 241.997071 
L 156.886171 241.812301 
L 157.93603 240.619296 
L 158.985889 241.229138 
L 160.035748 241.077818 
L 161.085607 239.645169 
L 162.135466 238.815942 
L 163.185325 231.069215 
L 164.235183 240.029442 
L 165.285042 240.013476 
L 166.334901 232.084792 
L 167.38476 226.90874 
L 168.434619 233.26883 
L 169.484478 237.797764 
L 170.534337 236.088975 
L 171.584196 225.893903 
L 172.634055 239.231439 
L 173.683913 233.533721 
L 174.733772 224.253463 
L 175.783631 239.357767 
L 176.83349 240.105562 
L 177.883349 232.936664 
L 178.933208 239.765278 
L 179.983067 241.15161 
L 181.032926 241.282155 
L 182.082785 239.84697 
L 183.132643 240.778666 
L 184.182502 239.108455 
L 185.232361 238.75897 
L 186.28222 240.466628 
L 187.332079 234.470488 
L 188.381938 241.282528 
L 189.431797 238.790497 
L 190.481656 229.703014 
L 191.531515 238.189051 
L 192.581373 235.328964 
L 193.631232 241.681433 
L 194.681091 242.016231 
L 195.73095 241.666939 
L 196.780809 241.568587 
L 197.830668 239.276506 
L 198.880527 240.194534 
L 199.930386 233.35727 
L 200.980245 238.71268 
L 202.030103 238.844983 
L 203.079962 238.168296 
L 204.129821 240.848011 
L 205.17968 241.134143 
L 206.229539 240.992838 
L 207.279398 241.974482 
L 208.329257 240.829611 
L 209.379116 240.805233 
L 210.428975 241.952369 
L 211.478833 237.622687 
L 212.528692 241.202768 
L 213.578551 238.268752 
L 214.62841 238.918474 
L 215.678269 241.891495 
L 216.728128 241.088774 
L 217.777987 241.751554 
L 218.827846 241.172254 
L 219.877705 234.322501 
L 220.927563 235.202301 
L 221.977422 239.075456 
L 223.027281 241.325381 
L 224.07714 239.026954 
L 225.126999 213.970976 
L 226.176858 44.443636 
L 227.226717 144.411967 
L 228.276576 82.772054 
L 229.326435 233.272475 
L 230.376294 222.547846 
L 231.426152 222.677203 
L 232.476011 234.789775 
L 233.52587 231.343017 
L 234.575729 226.984848 
L 235.625588 240.644726 
L 236.675447 241.04089 
L 237.725306 239.0801 
L 238.775165 241.45762 
L 239.825024 241.574293 
L 240.874882 240.046499 
L 241.924741 236.64874 
L 242.9746 240.138946 
L 244.024459 241.365042 
L 245.074318 239.509642 
L 246.124177 241.827171 
L 247.174036 241.958254 
L 248.223895 241.696767 
L 249.273754 241.862682 
L 250.323612 241.699405 
L 251.373471 241.052978 
L 252.42333 242.06874 
L 253.473189 241.931021 
L 254.523048 241.944809 
L 256.622766 242.107077 
L 257.672625 241.985791 
L 258.722484 241.74717 
L 259.772342 241.96065 
L 260.822201 241.748841 
L 261.87206 242.063662 
L 263.971778 241.906405 
L 265.021637 240.635652 
L 266.071496 241.941886 
L 267.121355 241.841967 
L 268.171214 241.477966 
L 271.32079 242.066403 
L 272.370649 241.764522 
L 273.420508 241.947777 
L 274.470367 241.914484 
L 275.520226 242.087258 
L 277.619944 241.967658 
L 278.669802 241.914936 
L 279.719661 242.068852 
L 283.919097 242.112709 
L 292.317968 242.108092 
L 318.56444 242.1151 
L 388.904986 242.116017 
L 388.904986 242.116017 
" clip-path="url(#pcb5bd03118)" style="fill: none; stroke: #64b5cd; stroke-opacity: 0.3; stroke-width: 1.5; stroke-linecap: round"/>
   </g>
   <g id="line2d_24">
    <path d="M 54 242.113249 
L 150.587018 242.026321 
L 151.636877 241.897602 
L 152.686736 242.041654 
L 153.736595 241.876788 
L 154.786453 241.380118 
L 155.836312 241.696384 
L 156.886171 241.331244 
L 157.93603 238.489588 
L 158.985889 241.538 
L 161.085607 232.400851 
L 162.135466 236.50834 
L 163.185325 210.200761 
L 164.235183 230.794013 
L 165.285042 224.680196 
L 166.334901 179.062791 
L 167.38476 211.384072 
L 169.484478 66.070966 
L 170.534337 238.643814 
L 171.584196 108.032025 
L 172.634055 200.202201 
L 173.683913 92.882245 
L 174.733772 112.383322 
L 176.83349 213.654551 
L 177.883349 225.99719 
L 178.933208 230.480327 
L 179.983067 232.191287 
L 181.032926 233.32441 
L 182.082785 183.232124 
L 183.132643 241.428032 
L 184.182502 180.805787 
L 185.232361 82.703056 
L 186.28222 105.862625 
L 187.332079 181.958159 
L 188.381938 206.706777 
L 189.431797 44.443636 
L 190.481656 136.577693 
L 191.531515 181.219482 
L 192.581373 45.269971 
L 193.631232 206.097545 
L 194.681091 160.389248 
L 195.73095 241.190609 
L 196.780809 239.952145 
L 197.830668 210.466569 
L 198.880527 148.528419 
L 199.930386 224.774382 
L 200.980245 195.403537 
L 202.030103 240.525576 
L 203.079962 238.044587 
L 204.129821 209.566506 
L 205.17968 239.211714 
L 206.229539 185.409946 
L 207.279398 188.438781 
L 208.329257 229.809262 
L 209.379116 237.868692 
L 210.428975 226.335487 
L 211.478833 236.699452 
L 212.528692 221.057375 
L 213.578551 229.245812 
L 214.62841 228.6934 
L 215.678269 198.059261 
L 216.728128 235.303423 
L 217.777987 240.598524 
L 218.827846 229.550668 
L 219.877705 239.119498 
L 220.927563 182.137161 
L 221.977422 215.579614 
L 223.027281 240.602793 
L 224.07714 214.388075 
L 225.126999 203.797785 
L 226.176858 218.068384 
L 227.226717 228.382982 
L 228.276576 65.176272 
L 229.326435 202.123476 
L 230.376294 217.303294 
L 231.426152 227.824958 
L 232.476011 239.576015 
L 233.52587 198.263105 
L 234.575729 223.551079 
L 235.625588 230.104722 
L 236.675447 234.029906 
L 237.725306 226.447077 
L 238.775165 236.174323 
L 239.825024 240.722052 
L 240.874882 237.826885 
L 241.924741 236.035174 
L 242.9746 232.591906 
L 244.024459 240.085876 
L 245.074318 238.31665 
L 246.124177 239.537088 
L 247.174036 231.97649 
L 248.223895 234.137642 
L 249.273754 242.00864 
L 250.323612 233.300749 
L 251.373471 233.821782 
L 252.42333 236.824185 
L 253.473189 237.489777 
L 254.523048 234.811761 
L 255.572907 237.551137 
L 256.622766 217.163492 
L 257.672625 240.127274 
L 258.722484 241.020777 
L 259.772342 225.029612 
L 260.822201 224.103754 
L 261.87206 242.096128 
L 262.921919 237.569125 
L 263.971778 240.509351 
L 265.021637 234.814941 
L 266.071496 241.857328 
L 267.121355 241.718664 
L 268.171214 240.188912 
L 269.221072 238.936107 
L 270.270931 241.537053 
L 271.32079 237.100328 
L 272.370649 238.325226 
L 273.420508 234.121644 
L 274.470367 240.133691 
L 275.520226 239.582904 
L 276.570085 242.001103 
L 277.619944 241.862822 
L 278.669802 241.578627 
L 279.719661 241.71419 
L 280.76952 241.710692 
L 281.819379 240.682003 
L 282.869238 241.211314 
L 283.919097 240.4338 
L 284.968956 242.072821 
L 286.018815 241.980983 
L 290.21825 242.057946 
L 291.268109 241.90562 
L 293.367827 242.052434 
L 294.417686 241.967172 
L 295.467545 242.113932 
L 296.517404 242.029344 
L 298.617121 242.08364 
L 304.916275 242.115706 
L 319.614299 242.114921 
L 388.904986 242.116065 
L 388.904986 242.116065 
" clip-path="url(#pcb5bd03118)" style="fill: none; stroke: #4c72b0; stroke-opacity: 0.3; stroke-width: 1.5; stroke-linecap: round"/>
   </g>
   <g id="line2d_25">
    <path d="M 54 242.1149 
L 149.537159 242.089219 
L 150.587018 241.945916 
L 151.636877 242.064767 
L 153.736595 242.054188 
L 154.786453 241.869293 
L 155.836312 242.014896 
L 156.886171 241.99865 
L 157.93603 241.238302 
L 158.985889 242.090059 
L 160.035748 240.968631 
L 161.085607 240.283437 
L 162.135466 241.237366 
L 164.235183 238.962728 
L 165.285042 228.882348 
L 166.334901 236.421674 
L 167.38476 220.449103 
L 168.434619 213.339381 
L 169.484478 199.535773 
L 170.534337 201.918594 
L 171.584196 208.5402 
L 172.634055 241.50582 
L 173.683913 221.107655 
L 174.733772 218.931375 
L 175.783631 220.92505 
L 176.83349 215.368862 
L 177.883349 230.259992 
L 178.933208 234.827111 
L 179.983067 240.056633 
L 181.032926 241.303663 
L 182.082785 202.140998 
L 183.132643 239.204711 
L 184.182502 233.511058 
L 185.232361 192.471499 
L 186.28222 239.867076 
L 187.332079 216.712681 
L 188.381938 234.602232 
L 189.431797 230.308539 
L 190.481656 235.354643 
L 191.531515 234.520998 
L 192.581373 210.027516 
L 193.631232 207.608253 
L 194.681091 239.751928 
L 195.73095 233.926205 
L 196.780809 218.100988 
L 197.830668 241.566727 
L 198.880527 212.488855 
L 199.930386 234.694902 
L 200.980245 240.08606 
L 202.030103 214.738098 
L 203.079962 235.008987 
L 204.129821 240.1901 
L 205.17968 241.879628 
L 206.229539 232.811512 
L 207.279398 213.485775 
L 208.329257 237.076161 
L 209.379116 226.688834 
L 210.428975 217.973609 
L 211.478833 241.418331 
L 212.528692 239.062977 
L 213.578551 235.808244 
L 214.62841 229.151236 
L 215.678269 231.994677 
L 216.728128 228.410189 
L 217.777987 240.584442 
L 218.827846 239.422448 
L 219.877705 230.732635 
L 220.927563 239.72554 
L 221.977422 230.411095 
L 223.027281 211.609997 
L 224.07714 237.414099 
L 225.126999 235.470293 
L 226.176858 198.756654 
L 227.226717 199.332291 
L 228.276576 44.443636 
L 229.326435 235.255983 
L 230.376294 231.842355 
L 231.426152 212.077078 
L 232.476011 238.621377 
L 233.52587 240.670306 
L 234.575729 228.925214 
L 235.625588 229.434725 
L 236.675447 239.487731 
L 237.725306 231.582195 
L 238.775165 226.937483 
L 239.825024 242.062493 
L 240.874882 240.783957 
L 241.924741 217.830836 
L 242.9746 241.397964 
L 244.024459 241.882265 
L 245.074318 241.827328 
L 246.124177 240.027541 
L 247.174036 239.515146 
L 248.223895 241.222792 
L 249.273754 239.693349 
L 250.323612 229.184481 
L 251.373471 230.056588 
L 252.42333 240.034367 
L 253.473189 241.787199 
L 254.523048 240.128439 
L 255.572907 241.267591 
L 256.622766 235.961697 
L 257.672625 241.541907 
L 258.722484 239.206303 
L 259.772342 233.562028 
L 260.822201 235.862497 
L 261.87206 241.496982 
L 262.921919 240.439966 
L 263.971778 241.772948 
L 265.021637 230.011912 
L 266.071496 240.342334 
L 267.121355 241.831725 
L 268.171214 234.247248 
L 269.221072 241.191626 
L 270.270931 241.713532 
L 271.32079 238.135116 
L 272.370649 238.258586 
L 273.420508 239.412049 
L 274.470367 241.231548 
L 275.520226 236.865549 
L 276.570085 242.025221 
L 277.619944 241.593555 
L 278.669802 241.540811 
L 279.719661 240.863247 
L 280.76952 240.637199 
L 281.819379 241.885902 
L 282.869238 241.391752 
L 283.919097 241.236136 
L 284.968956 241.709614 
L 286.018815 242.045738 
L 289.168391 242.048421 
L 290.21825 241.875382 
L 291.268109 242.101572 
L 296.517404 242.11563 
L 323.813735 242.111258 
L 388.904986 242.114873 
L 388.904986 242.114873 
" clip-path="url(#pcb5bd03118)" style="fill: none; stroke: #dd8452; stroke-opacity: 0.3; stroke-width: 1.5; stroke-linecap: round"/>
   </g>
   <g id="patch_3">
    <path d="M 54 252 
L 54 34.56 
" style="fill: none; stroke: #262626; stroke-width: 1.25; stroke-linejoin: miter; stroke-linecap: square"/>
   </g>
   <g id="patch_4">
    <path d="M 388.8 252 
L 388.8 34.56 
" style="fill: none; stroke: #262626; stroke-width: 1.25; stroke-linejoin: miter; stroke-linecap: square"/>
   </g>
   <g id="patch_5">
    <path d="M 54 252 
L 388.8 252 
" style="fill: none; stroke: #262626; stroke-width: 1.25; stroke-linejoin: miter; stroke-linecap: square"/>
   </g>
   <g id="patch_6">
    <path d="M 54 34.56 
L 388.8 34.56 
" style="fill: none; stroke: #262626; stroke-width: 1.25; stroke-linejoin: miter; stroke-linecap: square"/>
   </g>
   <g id="text_15">
    <!-- patient14_app03_second - Power spectrum -->
    <g style="fill: #262626" transform="translate(105.334688 28.56)scale(0.12 -0.12)">
     <defs>
      <path id="ArialMT-70" d="M 422 -1272 
L 422 3319 
L 934 3319 
L 934 2888 
Q 1116 3141 1344 3267 
Q 1572 3394 1897 3394 
Q 2322 3394 2647 3175 
Q 2972 2956 3137 2557 
Q 3303 2159 3303 1684 
Q 3303 1175 3120 767 
Q 2938 359 2589 142 
Q 2241 -75 1856 -75 
Q 1575 -75 1351 44 
Q 1128 163 984 344 
L 984 -1272 
L 422 -1272 
z
M 931 1641 
Q 931 1000 1190 694 
Q 1450 388 1819 388 
Q 2194 388 2461 705 
Q 2728 1022 2728 1688 
Q 2728 2322 2467 2637 
Q 2206 2953 1844 2953 
Q 1484 2953 1207 2617 
Q 931 2281 931 1641 
z
" transform="scale(0.015625)"/>
      <path id="ArialMT-61" d="M 2588 409 
Q 2275 144 1986 34 
Q 1697 -75 1366 -75 
Q 819 -75 525 192 
Q 231 459 231 875 
Q 231 1119 342 1320 
Q 453 1522 633 1644 
Q 813 1766 1038 1828 
Q 1203 1872 1538 1913 
Q 2219 1994 2541 2106 
Q 2544 2222 2544 2253 
Q 2544 2597 2384 2738 
Q 2169 2928 1744 2928 
Q 1347 2928 1158 2789 
Q 969 2650 878 2297 
L 328 2372 
Q 403 2725 575 2942 
Q 747 3159 1072 3276 
Q 1397 3394 1825 3394 
Q 2250 3394 2515 3294 
Q 2781 3194 2906 3042 
Q 3031 2891 3081 2659 
Q 3109 2516 3109 2141 
L 3109 1391 
Q 3109 606 3145 398 
Q 3181 191 3288 0 
L 2700 0 
Q 2613 175 2588 409 
z
M 2541 1666 
Q 2234 1541 1622 1453 
Q 1275 1403 1131 1340 
Q 988 1278 909 1158 
Q 831 1038 831 891 
Q 831 666 1001 516 
Q 1172 366 1500 366 
Q 1825 366 2078 508 
Q 2331 650 2450 897 
Q 2541 1088 2541 1459 
L 2541 1666 
z
" transform="scale(0.015625)"/>
      <path id="ArialMT-74" d="M 1650 503 
L 1731 6 
Q 1494 -44 1306 -44 
Q 1000 -44 831 53 
Q 663 150 594 308 
Q 525 466 525 972 
L 525 2881 
L 113 2881 
L 113 3319 
L 525 3319 
L 525 4141 
L 1084 4478 
L 1084 3319 
L 1650 3319 
L 1650 2881 
L 1084 2881 
L 1084 941 
Q 1084 700 1114 631 
Q 1144 563 1211 522 
Q 1278 481 1403 481 
Q 1497 481 1650 503 
z
" transform="scale(0.015625)"/>
      <path id="ArialMT-69" d="M 425 3934 
L 425 4581 
L 988 4581 
L 988 3934 
L 425 3934 
z
M 425 0 
L 425 3319 
L 988 3319 
L 988 0 
L 425 0 
z
" transform="scale(0.015625)"/>
      <path id="ArialMT-5f" d="M -97 -1272 
L -97 -866 
L 3631 -866 
L 3631 -1272 
L -97 -1272 
z
" transform="scale(0.015625)"/>
      <path id="ArialMT-73" d="M 197 991 
L 753 1078 
Q 800 744 1014 566 
Q 1228 388 1613 388 
Q 2000 388 2187 545 
Q 2375 703 2375 916 
Q 2375 1106 2209 1216 
Q 2094 1291 1634 1406 
Q 1016 1563 777 1677 
Q 538 1791 414 1992 
Q 291 2194 291 2438 
Q 291 2659 392 2848 
Q 494 3038 669 3163 
Q 800 3259 1026 3326 
Q 1253 3394 1513 3394 
Q 1903 3394 2198 3281 
Q 2494 3169 2634 2976 
Q 2775 2784 2828 2463 
L 2278 2388 
Q 2241 2644 2061 2787 
Q 1881 2931 1553 2931 
Q 1166 2931 1000 2803 
Q 834 2675 834 2503 
Q 834 2394 903 2306 
Q 972 2216 1119 2156 
Q 1203 2125 1616 2013 
Q 2213 1853 2448 1751 
Q 2684 1650 2818 1456 
Q 2953 1263 2953 975 
Q 2953 694 2789 445 
Q 2625 197 2315 61 
Q 2006 -75 1616 -75 
Q 969 -75 630 194 
Q 291 463 197 991 
z
" transform="scale(0.015625)"/>
      <path id="ArialMT-6f" d="M 213 1659 
Q 213 2581 725 3025 
Q 1153 3394 1769 3394 
Q 2453 3394 2887 2945 
Q 3322 2497 3322 1706 
Q 3322 1066 3130 698 
Q 2938 331 2570 128 
Q 2203 -75 1769 -75 
Q 1072 -75 642 372 
Q 213 819 213 1659 
z
M 791 1659 
Q 791 1022 1069 705 
Q 1347 388 1769 388 
Q 2188 388 2466 706 
Q 2744 1025 2744 1678 
Q 2744 2294 2464 2611 
Q 2184 2928 1769 2928 
Q 1347 2928 1069 2612 
Q 791 2297 791 1659 
z
" transform="scale(0.015625)"/>
      <path id="ArialMT-64" d="M 2575 0 
L 2575 419 
Q 2259 -75 1647 -75 
Q 1250 -75 917 144 
Q 584 363 401 755 
Q 219 1147 219 1656 
Q 219 2153 384 2558 
Q 550 2963 881 3178 
Q 1213 3394 1622 3394 
Q 1922 3394 2156 3267 
Q 2391 3141 2538 2938 
L 2538 4581 
L 3097 4581 
L 3097 0 
L 2575 0 
z
M 797 1656 
Q 797 1019 1065 703 
Q 1334 388 1700 388 
Q 2069 388 2326 689 
Q 2584 991 2584 1609 
Q 2584 2291 2321 2609 
Q 2059 2928 1675 2928 
Q 1300 2928 1048 2622 
Q 797 2316 797 1656 
z
" transform="scale(0.015625)"/>
      <path id="ArialMT-2d" d="M 203 1375 
L 203 1941 
L 1931 1941 
L 1931 1375 
L 203 1375 
z
" transform="scale(0.015625)"/>
      <path id="ArialMT-50" d="M 494 0 
L 494 4581 
L 2222 4581 
Q 2678 4581 2919 4538 
Q 3256 4481 3484 4323 
Q 3713 4166 3852 3881 
Q 3991 3597 3991 3256 
Q 3991 2672 3619 2267 
Q 3247 1863 2275 1863 
L 1100 1863 
L 1100 0 
L 494 0 
z
M 1100 2403 
L 2284 2403 
Q 2872 2403 3119 2622 
Q 3366 2841 3366 3238 
Q 3366 3525 3220 3729 
Q 3075 3934 2838 4000 
Q 2684 4041 2272 4041 
L 1100 4041 
L 1100 2403 
z
" transform="scale(0.015625)"/>
      <path id="ArialMT-77" d="M 1034 0 
L 19 3319 
L 600 3319 
L 1128 1403 
L 1325 691 
Q 1338 744 1497 1375 
L 2025 3319 
L 2603 3319 
L 3100 1394 
L 3266 759 
L 3456 1400 
L 4025 3319 
L 4572 3319 
L 3534 0 
L 2950 0 
L 2422 1988 
L 2294 2553 
L 1622 0 
L 1034 0 
z
" transform="scale(0.015625)"/>
      <path id="ArialMT-6d" d="M 422 0 
L 422 3319 
L 925 3319 
L 925 2853 
Q 1081 3097 1340 3245 
Q 1600 3394 1931 3394 
Q 2300 3394 2536 3241 
Q 2772 3088 2869 2813 
Q 3263 3394 3894 3394 
Q 4388 3394 4653 3120 
Q 4919 2847 4919 2278 
L 4919 0 
L 4359 0 
L 4359 2091 
Q 4359 2428 4304 2576 
Q 4250 2725 4106 2815 
Q 3963 2906 3769 2906 
Q 3419 2906 3187 2673 
Q 2956 2441 2956 1928 
L 2956 0 
L 2394 0 
L 2394 2156 
Q 2394 2531 2256 2718 
Q 2119 2906 1806 2906 
Q 1569 2906 1367 2781 
Q 1166 2656 1075 2415 
Q 984 2175 984 1722 
L 984 0 
L 422 0 
z
" transform="scale(0.015625)"/>
     </defs>
     <use xlink:href="#ArialMT-70"/>
     <use xlink:href="#ArialMT-61" x="55.615234"/>
     <use xlink:href="#ArialMT-74" x="111.230469"/>
     <use xlink:href="#ArialMT-69" x="139.013672"/>
     <use xlink:href="#ArialMT-65" x="161.230469"/>
     <use xlink:href="#ArialMT-6e" x="216.845703"/>
     <use xlink:href="#ArialMT-74" x="272.460938"/>
     <use xlink:href="#ArialMT-31" x="300.244141"/>
     <use xlink:href="#ArialMT-34" x="355.859375"/>
     <use xlink:href="#ArialMT-5f" x="411.474609"/>
     <use xlink:href="#ArialMT-61" x="467.089844"/>
     <use xlink:href="#ArialMT-70" x="522.705078"/>
     <use xlink:href="#ArialMT-70" x="578.320312"/>
     <use xlink:href="#ArialMT-30" x="633.935547"/>
     <use xlink:href="#ArialMT-33" x="689.550781"/>
     <use xlink:href="#ArialMT-5f" x="745.166016"/>
     <use xlink:href="#ArialMT-73" x="800.78125"/>
     <use xlink:href="#ArialMT-65" x="850.78125"/>
     <use xlink:href="#ArialMT-63" x="906.396484"/>
     <use xlink:href="#ArialMT-6f" x="956.396484"/>
     <use xlink:href="#ArialMT-6e" x="1012.011719"/>
     <use xlink:href="#ArialMT-64" x="1067.626953"/>
     <use xlink:href="#ArialMT-20" x="1123.242188"/>
     <use xlink:href="#ArialMT-2d" x="1151.025391"/>
     <use xlink:href="#ArialMT-20" x="1184.326172"/>
     <use xlink:href="#ArialMT-50" x="1212.109375"/>
     <use xlink:href="#ArialMT-6f" x="1278.808594"/>
     <use xlink:href="#ArialMT-77" x="1334.423828"/>
     <use xlink:href="#ArialMT-65" x="1406.640625"/>
     <use xlink:href="#ArialMT-72" x="1462.255859"/>
     <use xlink:href="#ArialMT-20" x="1495.556641"/>
     <use xlink:href="#ArialMT-73" x="1523.339844"/>
     <use xlink:href="#ArialMT-70" x="1573.339844"/>
     <use xlink:href="#ArialMT-65" x="1628.955078"/>
     <use xlink:href="#ArialMT-63" x="1684.570312"/>
     <use xlink:href="#ArialMT-74" x="1734.570312"/>
     <use xlink:href="#ArialMT-72" x="1762.353516"/>
     <use xlink:href="#ArialMT-75" x="1795.654297"/>
     <use xlink:href="#ArialMT-6d" x="1851.269531"/>
    </g>
   </g>
  </g>
 </g>
 <defs>
  <clipPath id="pcb5bd03118">
   <rect x="54" y="34.56" width="334.8" height="217.44"/>
  </clipPath>
 </defs>
</svg>
