<?xml version="1.0" encoding="utf-8" standalone="no"?>
<!DOCTYPE svg PUBLIC "-//W3C//DTD SVG 1.1//EN"
  "http://www.w3.org/Graphics/SVG/1.1/DTD/svg11.dtd">
<svg xmlns:xlink="http://www.w3.org/1999/xlink" width="432pt" height="288pt" viewBox="0 0 432 288" xmlns="http://www.w3.org/2000/svg" version="1.1">
 <metadata>
  <rdf:RDF xmlns:dc="http://purl.org/dc/elements/1.1/" xmlns:cc="http://creativecommons.org/ns#" xmlns:rdf="http://www.w3.org/1999/02/22-rdf-syntax-ns#">
   <cc:Work>
    <dc:type rdf:resource="http://purl.org/dc/dcmitype/StillImage"/>
    <dc:date>2022-07-08T13:28:06.001059</dc:date>
    <dc:format>image/svg+xml</dc:format>
    <dc:creator>
     <cc:Agent>
      <dc:title>Matplotlib v3.5.1, https://matplotlib.org/</dc:title>
     </cc:Agent>
    </dc:creator>
   </cc:Work>
  </rdf:RDF>
 </metadata>
 <defs>
  <style type="text/css">*{stroke-linejoin: round; stroke-linecap: butt}</style>
 </defs>
 <g id="figure_1">
  <g id="patch_1">
   <path d="M 0 288 
L 432 288 
L 432 0 
L 0 0 
z
" style="fill: #ffffff"/>
  </g>
  <g id="axes_1">
   <g id="patch_2">
    <path d="M 54 252 
L 388.8 252 
L 388.8 34.56 
L 54 34.56 
z
" style="fill: #ffffff"/>
   </g>
   <g id="matplotlib.axis_1">
    <g id="xtick_1">
     <g id="line2d_1">
      <defs>
       <path id="m72688f0bfe" d="M 0 0 
L 0 6 
" style="stroke: #262626; stroke-width: 1.25"/>
      </defs>
      <g>
       <use xlink:href="#m72688f0bfe" x="54" y="252" style="fill: #262626; stroke: #262626; stroke-width: 1.25"/>
      </g>
     </g>
     <g id="text_1">
      <!-- 0 -->
      <g style="fill: #262626" transform="translate(50.941484 269.373594)scale(0.11 -0.11)">
       <defs>
        <path id="ArialMT-30" d="M 266 2259 
Q 266 3072 433 3567 
Q 600 4063 929 4331 
Q 1259 4600 1759 4600 
Q 2128 4600 2406 4451 
Q 2684 4303 2865 4023 
Q 3047 3744 3150 3342 
Q 3253 2941 3253 2259 
Q 3253 1453 3087 958 
Q 2922 463 2592 192 
Q 2263 -78 1759 -78 
Q 1097 -78 719 397 
Q 266 969 266 2259 
z
M 844 2259 
Q 844 1131 1108 757 
Q 1372 384 1759 384 
Q 2147 384 2411 759 
Q 2675 1134 2675 2259 
Q 2675 3391 2411 3762 
Q 2147 4134 1753 4134 
Q 1366 4134 1134 3806 
Q 844 3388 844 2259 
z
" transform="scale(0.015625)"/>
       </defs>
       <use xlink:href="#ArialMT-30"/>
      </g>
     </g>
    </g>
    <g id="xtick_2">
     <g id="line2d_2">
      <g>
       <use xlink:href="#m72688f0bfe" x="109.8" y="252" style="fill: #262626; stroke: #262626; stroke-width: 1.25"/>
      </g>
     </g>
     <g id="text_2">
      <!-- 5 -->
      <g style="fill: #262626" transform="translate(106.741484 269.373594)scale(0.11 -0.11)">
       <defs>
        <path id="ArialMT-35" d="M 266 1200 
L 856 1250 
Q 922 819 1161 601 
Q 1400 384 1738 384 
Q 2144 384 2425 690 
Q 2706 997 2706 1503 
Q 2706 1984 2436 2262 
Q 2166 2541 1728 2541 
Q 1456 2541 1237 2417 
Q 1019 2294 894 2097 
L 366 2166 
L 809 4519 
L 3088 4519 
L 3088 3981 
L 1259 3981 
L 1013 2750 
Q 1425 3038 1878 3038 
Q 2478 3038 2890 2622 
Q 3303 2206 3303 1553 
Q 3303 931 2941 478 
Q 2500 -78 1738 -78 
Q 1113 -78 717 272 
Q 322 622 266 1200 
z
" transform="scale(0.015625)"/>
       </defs>
       <use xlink:href="#ArialMT-35"/>
      </g>
     </g>
    </g>
    <g id="xtick_3">
     <g id="line2d_3">
      <g>
       <use xlink:href="#m72688f0bfe" x="165.6" y="252" style="fill: #262626; stroke: #262626; stroke-width: 1.25"/>
      </g>
     </g>
     <g id="text_3">
      <!-- 10 -->
      <g style="fill: #262626" transform="translate(159.482969 269.373594)scale(0.11 -0.11)">
       <defs>
        <path id="ArialMT-31" d="M 2384 0 
L 1822 0 
L 1822 3584 
Q 1619 3391 1289 3197 
Q 959 3003 697 2906 
L 697 3450 
Q 1169 3672 1522 3987 
Q 1875 4303 2022 4600 
L 2384 4600 
L 2384 0 
z
" transform="scale(0.015625)"/>
       </defs>
       <use xlink:href="#ArialMT-31"/>
       <use xlink:href="#ArialMT-30" x="55.615234"/>
      </g>
     </g>
    </g>
    <g id="xtick_4">
     <g id="line2d_4">
      <g>
       <use xlink:href="#m72688f0bfe" x="221.4" y="252" style="fill: #262626; stroke: #262626; stroke-width: 1.25"/>
      </g>
     </g>
     <g id="text_4">
      <!-- 15 -->
      <g style="fill: #262626" transform="translate(215.282969 269.373594)scale(0.11 -0.11)">
       <use xlink:href="#ArialMT-31"/>
       <use xlink:href="#ArialMT-35" x="55.615234"/>
      </g>
     </g>
    </g>
    <g id="xtick_5">
     <g id="line2d_5">
      <g>
       <use xlink:href="#m72688f0bfe" x="277.2" y="252" style="fill: #262626; stroke: #262626; stroke-width: 1.25"/>
      </g>
     </g>
     <g id="text_5">
      <!-- 20 -->
      <g style="fill: #262626" transform="translate(271.082969 269.373594)scale(0.11 -0.11)">
       <defs>
        <path id="ArialMT-32" d="M 3222 541 
L 3222 0 
L 194 0 
Q 188 203 259 391 
Q 375 700 629 1000 
Q 884 1300 1366 1694 
Q 2113 2306 2375 2664 
Q 2638 3022 2638 3341 
Q 2638 3675 2398 3904 
Q 2159 4134 1775 4134 
Q 1369 4134 1125 3890 
Q 881 3647 878 3216 
L 300 3275 
Q 359 3922 746 4261 
Q 1134 4600 1788 4600 
Q 2447 4600 2831 4234 
Q 3216 3869 3216 3328 
Q 3216 3053 3103 2787 
Q 2991 2522 2730 2228 
Q 2469 1934 1863 1422 
Q 1356 997 1212 845 
Q 1069 694 975 541 
L 3222 541 
z
" transform="scale(0.015625)"/>
       </defs>
       <use xlink:href="#ArialMT-32"/>
       <use xlink:href="#ArialMT-30" x="55.615234"/>
      </g>
     </g>
    </g>
    <g id="xtick_6">
     <g id="line2d_6">
      <g>
       <use xlink:href="#m72688f0bfe" x="333" y="252" style="fill: #262626; stroke: #262626; stroke-width: 1.25"/>
      </g>
     </g>
     <g id="text_6">
      <!-- 25 -->
      <g style="fill: #262626" transform="translate(326.882969 269.373594)scale(0.11 -0.11)">
       <use xlink:href="#ArialMT-32"/>
       <use xlink:href="#ArialMT-35" x="55.615234"/>
      </g>
     </g>
    </g>
    <g id="xtick_7">
     <g id="line2d_7">
      <g>
       <use xlink:href="#m72688f0bfe" x="388.8" y="252" style="fill: #262626; stroke: #262626; stroke-width: 1.25"/>
      </g>
     </g>
     <g id="text_7">
      <!-- 30 -->
      <g style="fill: #262626" transform="translate(382.682969 269.373594)scale(0.11 -0.11)">
       <defs>
        <path id="ArialMT-33" d="M 269 1209 
L 831 1284 
Q 928 806 1161 595 
Q 1394 384 1728 384 
Q 2125 384 2398 659 
Q 2672 934 2672 1341 
Q 2672 1728 2419 1979 
Q 2166 2231 1775 2231 
Q 1616 2231 1378 2169 
L 1441 2663 
Q 1497 2656 1531 2656 
Q 1891 2656 2178 2843 
Q 2466 3031 2466 3422 
Q 2466 3731 2256 3934 
Q 2047 4138 1716 4138 
Q 1388 4138 1169 3931 
Q 950 3725 888 3313 
L 325 3413 
Q 428 3978 793 4289 
Q 1159 4600 1703 4600 
Q 2078 4600 2393 4439 
Q 2709 4278 2876 4000 
Q 3044 3722 3044 3409 
Q 3044 3113 2884 2869 
Q 2725 2625 2413 2481 
Q 2819 2388 3044 2092 
Q 3269 1797 3269 1353 
Q 3269 753 2831 336 
Q 2394 -81 1725 -81 
Q 1122 -81 723 278 
Q 325 638 269 1209 
z
" transform="scale(0.015625)"/>
       </defs>
       <use xlink:href="#ArialMT-33"/>
       <use xlink:href="#ArialMT-30" x="55.615234"/>
      </g>
     </g>
    </g>
    <g id="text_8">
     <!-- Frequency (Hz) -->
     <g style="fill: #262626" transform="translate(180.059063 284.295469)scale(0.12 -0.12)">
      <defs>
       <path id="ArialMT-46" d="M 525 0 
L 525 4581 
L 3616 4581 
L 3616 4041 
L 1131 4041 
L 1131 2622 
L 3281 2622 
L 3281 2081 
L 1131 2081 
L 1131 0 
L 525 0 
z
" transform="scale(0.015625)"/>
       <path id="ArialMT-72" d="M 416 0 
L 416 3319 
L 922 3319 
L 922 2816 
Q 1116 3169 1280 3281 
Q 1444 3394 1641 3394 
Q 1925 3394 2219 3213 
L 2025 2691 
Q 1819 2813 1613 2813 
Q 1428 2813 1281 2702 
Q 1134 2591 1072 2394 
Q 978 2094 978 1738 
L 978 0 
L 416 0 
z
" transform="scale(0.015625)"/>
       <path id="ArialMT-65" d="M 2694 1069 
L 3275 997 
Q 3138 488 2766 206 
Q 2394 -75 1816 -75 
Q 1088 -75 661 373 
Q 234 822 234 1631 
Q 234 2469 665 2931 
Q 1097 3394 1784 3394 
Q 2450 3394 2872 2941 
Q 3294 2488 3294 1666 
Q 3294 1616 3291 1516 
L 816 1516 
Q 847 969 1125 678 
Q 1403 388 1819 388 
Q 2128 388 2347 550 
Q 2566 713 2694 1069 
z
M 847 1978 
L 2700 1978 
Q 2663 2397 2488 2606 
Q 2219 2931 1791 2931 
Q 1403 2931 1139 2672 
Q 875 2413 847 1978 
z
" transform="scale(0.015625)"/>
       <path id="ArialMT-71" d="M 2538 -1272 
L 2538 353 
Q 2406 169 2170 47 
Q 1934 -75 1669 -75 
Q 1078 -75 651 397 
Q 225 869 225 1691 
Q 225 2191 398 2587 
Q 572 2984 901 3189 
Q 1231 3394 1625 3394 
Q 2241 3394 2594 2875 
L 2594 3319 
L 3100 3319 
L 3100 -1272 
L 2538 -1272 
z
M 803 1669 
Q 803 1028 1072 708 
Q 1341 388 1716 388 
Q 2075 388 2334 692 
Q 2594 997 2594 1619 
Q 2594 2281 2320 2615 
Q 2047 2950 1678 2950 
Q 1313 2950 1058 2639 
Q 803 2328 803 1669 
z
" transform="scale(0.015625)"/>
       <path id="ArialMT-75" d="M 2597 0 
L 2597 488 
Q 2209 -75 1544 -75 
Q 1250 -75 995 37 
Q 741 150 617 320 
Q 494 491 444 738 
Q 409 903 409 1263 
L 409 3319 
L 972 3319 
L 972 1478 
Q 972 1038 1006 884 
Q 1059 663 1231 536 
Q 1403 409 1656 409 
Q 1909 409 2131 539 
Q 2353 669 2445 892 
Q 2538 1116 2538 1541 
L 2538 3319 
L 3100 3319 
L 3100 0 
L 2597 0 
z
" transform="scale(0.015625)"/>
       <path id="ArialMT-6e" d="M 422 0 
L 422 3319 
L 928 3319 
L 928 2847 
Q 1294 3394 1984 3394 
Q 2284 3394 2536 3286 
Q 2788 3178 2913 3003 
Q 3038 2828 3088 2588 
Q 3119 2431 3119 2041 
L 3119 0 
L 2556 0 
L 2556 2019 
Q 2556 2363 2490 2533 
Q 2425 2703 2258 2804 
Q 2091 2906 1866 2906 
Q 1506 2906 1245 2678 
Q 984 2450 984 1813 
L 984 0 
L 422 0 
z
" transform="scale(0.015625)"/>
       <path id="ArialMT-63" d="M 2588 1216 
L 3141 1144 
Q 3050 572 2676 248 
Q 2303 -75 1759 -75 
Q 1078 -75 664 370 
Q 250 816 250 1647 
Q 250 2184 428 2587 
Q 606 2991 970 3192 
Q 1334 3394 1763 3394 
Q 2303 3394 2647 3120 
Q 2991 2847 3088 2344 
L 2541 2259 
Q 2463 2594 2264 2762 
Q 2066 2931 1784 2931 
Q 1359 2931 1093 2626 
Q 828 2322 828 1663 
Q 828 994 1084 691 
Q 1341 388 1753 388 
Q 2084 388 2306 591 
Q 2528 794 2588 1216 
z
" transform="scale(0.015625)"/>
       <path id="ArialMT-79" d="M 397 -1278 
L 334 -750 
Q 519 -800 656 -800 
Q 844 -800 956 -737 
Q 1069 -675 1141 -563 
Q 1194 -478 1313 -144 
Q 1328 -97 1363 -6 
L 103 3319 
L 709 3319 
L 1400 1397 
Q 1534 1031 1641 628 
Q 1738 1016 1872 1384 
L 2581 3319 
L 3144 3319 
L 1881 -56 
Q 1678 -603 1566 -809 
Q 1416 -1088 1222 -1217 
Q 1028 -1347 759 -1347 
Q 597 -1347 397 -1278 
z
" transform="scale(0.015625)"/>
       <path id="ArialMT-20" transform="scale(0.015625)"/>
       <path id="ArialMT-28" d="M 1497 -1347 
Q 1031 -759 709 28 
Q 388 816 388 1659 
Q 388 2403 628 3084 
Q 909 3875 1497 4659 
L 1900 4659 
Q 1522 4009 1400 3731 
Q 1209 3300 1100 2831 
Q 966 2247 966 1656 
Q 966 153 1900 -1347 
L 1497 -1347 
z
" transform="scale(0.015625)"/>
       <path id="ArialMT-48" d="M 513 0 
L 513 4581 
L 1119 4581 
L 1119 2700 
L 3500 2700 
L 3500 4581 
L 4106 4581 
L 4106 0 
L 3500 0 
L 3500 2159 
L 1119 2159 
L 1119 0 
L 513 0 
z
" transform="scale(0.015625)"/>
       <path id="ArialMT-7a" d="M 125 0 
L 125 456 
L 2238 2881 
Q 1878 2863 1603 2863 
L 250 2863 
L 250 3319 
L 2963 3319 
L 2963 2947 
L 1166 841 
L 819 456 
Q 1197 484 1528 484 
L 3063 484 
L 3063 0 
L 125 0 
z
" transform="scale(0.015625)"/>
       <path id="ArialMT-29" d="M 791 -1347 
L 388 -1347 
Q 1322 153 1322 1656 
Q 1322 2244 1188 2822 
Q 1081 3291 891 3722 
Q 769 4003 388 4659 
L 791 4659 
Q 1378 3875 1659 3084 
Q 1900 2403 1900 1659 
Q 1900 816 1576 28 
Q 1253 -759 791 -1347 
z
" transform="scale(0.015625)"/>
      </defs>
      <use xlink:href="#ArialMT-46"/>
      <use xlink:href="#ArialMT-72" x="61.083984"/>
      <use xlink:href="#ArialMT-65" x="94.384766"/>
      <use xlink:href="#ArialMT-71" x="150"/>
      <use xlink:href="#ArialMT-75" x="205.615234"/>
      <use xlink:href="#ArialMT-65" x="261.230469"/>
      <use xlink:href="#ArialMT-6e" x="316.845703"/>
      <use xlink:href="#ArialMT-63" x="372.460938"/>
      <use xlink:href="#ArialMT-79" x="422.460938"/>
      <use xlink:href="#ArialMT-20" x="472.460938"/>
      <use xlink:href="#ArialMT-28" x="500.244141"/>
      <use xlink:href="#ArialMT-48" x="533.544922"/>
      <use xlink:href="#ArialMT-7a" x="605.761719"/>
      <use xlink:href="#ArialMT-29" x="655.761719"/>
     </g>
    </g>
   </g>
   <g id="matplotlib.axis_2">
    <g id="ytick_1">
     <g id="line2d_8">
      <defs>
       <path id="m39083f12df" d="M 0 0 
L -6 0 
" style="stroke: #262626; stroke-width: 1.25"/>
      </defs>
      <g>
       <use xlink:href="#m39083f12df" x="54" y="242.116364" style="fill: #262626; stroke: #262626; stroke-width: 1.25"/>
      </g>
     </g>
     <g id="text_9">
      <!-- 0.0 -->
      <g style="fill: #262626" transform="translate(29.21 246.053161)scale(0.11 -0.11)">
       <defs>
        <path id="ArialMT-2e" d="M 581 0 
L 581 641 
L 1222 641 
L 1222 0 
L 581 0 
z
" transform="scale(0.015625)"/>
       </defs>
       <use xlink:href="#ArialMT-30"/>
       <use xlink:href="#ArialMT-2e" x="55.615234"/>
       <use xlink:href="#ArialMT-30" x="83.398438"/>
      </g>
     </g>
    </g>
    <g id="ytick_2">
     <g id="line2d_9">
      <g>
       <use xlink:href="#m39083f12df" x="54" y="202.581818" style="fill: #262626; stroke: #262626; stroke-width: 1.25"/>
      </g>
     </g>
     <g id="text_10">
      <!-- 0.2 -->
      <g style="fill: #262626" transform="translate(29.21 206.518615)scale(0.11 -0.11)">
       <use xlink:href="#ArialMT-30"/>
       <use xlink:href="#ArialMT-2e" x="55.615234"/>
       <use xlink:href="#ArialMT-32" x="83.398438"/>
      </g>
     </g>
    </g>
    <g id="ytick_3">
     <g id="line2d_10">
      <g>
       <use xlink:href="#m39083f12df" x="54" y="163.047273" style="fill: #262626; stroke: #262626; stroke-width: 1.25"/>
      </g>
     </g>
     <g id="text_11">
      <!-- 0.4 -->
      <g style="fill: #262626" transform="translate(29.21 166.98407)scale(0.11 -0.11)">
       <defs>
        <path id="ArialMT-34" d="M 2069 0 
L 2069 1097 
L 81 1097 
L 81 1613 
L 2172 4581 
L 2631 4581 
L 2631 1613 
L 3250 1613 
L 3250 1097 
L 2631 1097 
L 2631 0 
L 2069 0 
z
M 2069 1613 
L 2069 3678 
L 634 1613 
L 2069 1613 
z
" transform="scale(0.015625)"/>
       </defs>
       <use xlink:href="#ArialMT-30"/>
       <use xlink:href="#ArialMT-2e" x="55.615234"/>
       <use xlink:href="#ArialMT-34" x="83.398438"/>
      </g>
     </g>
    </g>
    <g id="ytick_4">
     <g id="line2d_11">
      <g>
       <use xlink:href="#m39083f12df" x="54" y="123.512727" style="fill: #262626; stroke: #262626; stroke-width: 1.25"/>
      </g>
     </g>
     <g id="text_12">
      <!-- 0.6 -->
      <g style="fill: #262626" transform="translate(29.21 127.449524)scale(0.11 -0.11)">
       <defs>
        <path id="ArialMT-36" d="M 3184 3459 
L 2625 3416 
Q 2550 3747 2413 3897 
Q 2184 4138 1850 4138 
Q 1581 4138 1378 3988 
Q 1113 3794 959 3422 
Q 806 3050 800 2363 
Q 1003 2672 1297 2822 
Q 1591 2972 1913 2972 
Q 2475 2972 2870 2558 
Q 3266 2144 3266 1488 
Q 3266 1056 3080 686 
Q 2894 316 2569 119 
Q 2244 -78 1831 -78 
Q 1128 -78 684 439 
Q 241 956 241 2144 
Q 241 3472 731 4075 
Q 1159 4600 1884 4600 
Q 2425 4600 2770 4297 
Q 3116 3994 3184 3459 
z
M 888 1484 
Q 888 1194 1011 928 
Q 1134 663 1356 523 
Q 1578 384 1822 384 
Q 2178 384 2434 671 
Q 2691 959 2691 1453 
Q 2691 1928 2437 2201 
Q 2184 2475 1800 2475 
Q 1419 2475 1153 2201 
Q 888 1928 888 1484 
z
" transform="scale(0.015625)"/>
       </defs>
       <use xlink:href="#ArialMT-30"/>
       <use xlink:href="#ArialMT-2e" x="55.615234"/>
       <use xlink:href="#ArialMT-36" x="83.398438"/>
      </g>
     </g>
    </g>
    <g id="ytick_5">
     <g id="line2d_12">
      <g>
       <use xlink:href="#m39083f12df" x="54" y="83.978182" style="fill: #262626; stroke: #262626; stroke-width: 1.25"/>
      </g>
     </g>
     <g id="text_13">
      <!-- 0.8 -->
      <g style="fill: #262626" transform="translate(29.21 87.914979)scale(0.11 -0.11)">
       <defs>
        <path id="ArialMT-38" d="M 1131 2484 
Q 781 2613 612 2850 
Q 444 3088 444 3419 
Q 444 3919 803 4259 
Q 1163 4600 1759 4600 
Q 2359 4600 2725 4251 
Q 3091 3903 3091 3403 
Q 3091 3084 2923 2848 
Q 2756 2613 2416 2484 
Q 2838 2347 3058 2040 
Q 3278 1734 3278 1309 
Q 3278 722 2862 322 
Q 2447 -78 1769 -78 
Q 1091 -78 675 323 
Q 259 725 259 1325 
Q 259 1772 486 2073 
Q 713 2375 1131 2484 
z
M 1019 3438 
Q 1019 3113 1228 2906 
Q 1438 2700 1772 2700 
Q 2097 2700 2305 2904 
Q 2513 3109 2513 3406 
Q 2513 3716 2298 3927 
Q 2084 4138 1766 4138 
Q 1444 4138 1231 3931 
Q 1019 3725 1019 3438 
z
M 838 1322 
Q 838 1081 952 856 
Q 1066 631 1291 507 
Q 1516 384 1775 384 
Q 2178 384 2440 643 
Q 2703 903 2703 1303 
Q 2703 1709 2433 1975 
Q 2163 2241 1756 2241 
Q 1359 2241 1098 1978 
Q 838 1716 838 1322 
z
" transform="scale(0.015625)"/>
       </defs>
       <use xlink:href="#ArialMT-30"/>
       <use xlink:href="#ArialMT-2e" x="55.615234"/>
       <use xlink:href="#ArialMT-38" x="83.398438"/>
      </g>
     </g>
    </g>
    <g id="ytick_6">
     <g id="line2d_13">
      <g>
       <use xlink:href="#m39083f12df" x="54" y="44.443636" style="fill: #262626; stroke: #262626; stroke-width: 1.25"/>
      </g>
     </g>
     <g id="text_14">
      <!-- 1.0 -->
      <g style="fill: #262626" transform="translate(29.21 48.380433)scale(0.11 -0.11)">
       <use xlink:href="#ArialMT-31"/>
       <use xlink:href="#ArialMT-2e" x="55.615234"/>
       <use xlink:href="#ArialMT-30" x="83.398438"/>
      </g>
     </g>
    </g>
   </g>
   <g id="line2d_14">
    <path d="M 54 242.109945 
L 97.790725 242.006816 
L 100.444709 240.738724 
L 101.7717 240.285296 
L 103.098692 239.112404 
L 104.425684 240.872074 
L 105.752675 235.074565 
L 107.079667 230.693742 
L 108.406659 202.838427 
L 109.73365 208.375862 
L 111.060642 236.918194 
L 112.387634 208.936731 
L 113.714625 195.701499 
L 115.041617 197.744324 
L 116.368609 207.308961 
L 117.6956 226.168398 
L 119.022592 84.300976 
L 120.349584 233.28027 
L 121.676576 161.249961 
L 123.003567 44.443636 
L 124.330559 112.09715 
L 125.657551 239.451178 
L 126.984542 127.718445 
L 129.638526 216.48612 
L 130.965517 240.630529 
L 132.292509 234.045154 
L 133.619501 142.83439 
L 134.946492 235.149418 
L 136.273484 241.100015 
L 137.600476 230.78548 
L 138.927467 130.220544 
L 140.254459 171.243018 
L 141.581451 161.48656 
L 142.908442 208.958094 
L 144.235434 233.372864 
L 145.562426 185.082917 
L 146.889417 159.763317 
L 148.216409 240.70269 
L 149.543401 236.802554 
L 150.870392 178.673899 
L 152.197384 174.353151 
L 153.524376 217.967352 
L 154.851367 136.991334 
L 156.178359 129.145163 
L 157.505351 130.075101 
L 158.832342 216.775804 
L 160.159334 122.566987 
L 161.486326 213.150832 
L 162.813317 200.720593 
L 164.140309 196.968386 
L 165.467301 217.475028 
L 166.794293 228.078385 
L 168.121284 201.716505 
L 169.448276 233.717976 
L 170.775268 241.456765 
L 172.102259 234.817406 
L 173.429251 225.064902 
L 174.756243 237.837242 
L 176.083234 207.238758 
L 177.410226 212.551342 
L 178.737218 196.202654 
L 180.064209 197.851507 
L 181.391201 198.94735 
L 182.718193 205.359416 
L 184.045184 94.997408 
L 185.372176 178.438784 
L 186.699168 228.98255 
L 188.026159 201.455164 
L 189.353151 120.592295 
L 190.680143 218.253688 
L 192.007134 191.799043 
L 193.334126 175.946345 
L 194.661118 192.04014 
L 195.988109 237.783794 
L 197.315101 242.018609 
L 198.642093 234.120602 
L 199.969084 238.512709 
L 201.296076 221.236467 
L 202.623068 233.553971 
L 203.950059 231.500899 
L 205.277051 227.117962 
L 206.604043 186.228553 
L 207.931034 240.691486 
L 209.258026 228.833059 
L 210.585018 180.120298 
L 211.91201 175.133853 
L 213.239001 240.546232 
L 214.565993 208.836059 
L 215.892985 211.675079 
L 217.219976 200.362521 
L 218.546968 236.525713 
L 219.87396 236.379283 
L 221.200951 200.541617 
L 222.527943 223.15643 
L 223.854935 235.887749 
L 225.181926 231.147465 
L 226.508918 221.811516 
L 227.83591 238.820021 
L 229.162901 221.919059 
L 230.489893 117.040708 
L 231.816885 231.79887 
L 233.143876 223.347555 
L 234.470868 229.725926 
L 235.79786 242.029582 
L 237.124851 238.281928 
L 238.451843 195.90632 
L 239.778835 210.426975 
L 241.105826 212.672822 
L 242.432818 233.994405 
L 243.75981 163.648693 
L 245.086801 237.77891 
L 246.413793 236.474933 
L 247.740785 209.872918 
L 249.067776 193.920071 
L 250.394768 237.21518 
L 251.72176 233.345849 
L 253.048751 235.669019 
L 254.375743 232.398054 
L 255.702735 239.513272 
L 257.029727 240.906593 
L 258.356718 234.370155 
L 259.68371 240.498169 
L 261.010702 230.497904 
L 262.337693 239.099724 
L 263.664685 233.944984 
L 264.991677 217.815352 
L 266.318668 233.010942 
L 267.64566 229.303475 
L 268.972652 226.822825 
L 270.299643 221.119413 
L 271.626635 227.121112 
L 272.953627 223.910866 
L 274.280618 217.612004 
L 275.60761 210.41633 
L 276.934602 241.01489 
L 278.261593 216.95693 
L 279.588585 241.655466 
L 280.915577 217.235336 
L 282.242568 238.538503 
L 283.56956 235.23579 
L 284.896552 241.552844 
L 286.223543 239.530884 
L 287.550535 236.952193 
L 288.877527 236.992112 
L 290.204518 225.257855 
L 291.53151 229.367796 
L 292.858502 239.593769 
L 294.185493 235.136769 
L 295.512485 217.400908 
L 296.839477 234.925963 
L 298.166468 235.583273 
L 299.49346 235.747025 
L 300.820452 219.982704 
L 302.147444 234.367998 
L 303.474435 240.687545 
L 304.801427 234.511349 
L 306.128419 230.761497 
L 307.45541 242.039002 
L 308.782402 234.918224 
L 310.109394 237.596524 
L 311.436385 235.429851 
L 312.763377 239.745466 
L 314.090369 241.453935 
L 315.41736 235.469761 
L 316.744352 233.985488 
L 318.071344 237.122727 
L 319.398335 241.38728 
L 320.725327 240.224753 
L 322.052319 233.33108 
L 323.37931 239.289655 
L 324.706302 239.982645 
L 326.033294 242.097026 
L 327.360285 231.481363 
L 328.687277 239.627272 
L 330.014269 239.550406 
L 331.34126 240.479573 
L 332.668252 237.890375 
L 333.995244 242.094043 
L 335.322235 240.637617 
L 336.649227 241.547848 
L 337.976219 242.000288 
L 339.30321 241.967919 
L 340.630202 241.789225 
L 341.957194 241.968591 
L 343.284185 241.70765 
L 344.611177 240.67651 
L 345.938169 241.771454 
L 347.265161 241.581231 
L 348.592152 241.701208 
L 349.919144 241.528767 
L 351.246136 241.728101 
L 352.573127 241.759517 
L 353.900119 241.656977 
L 356.554102 241.930657 
L 357.881094 241.694517 
L 359.208086 241.963544 
L 360.535077 241.987343 
L 361.862069 241.82027 
L 364.516052 242.043749 
L 365.843044 242.116245 
L 368.497027 242.101133 
L 389.728894 242.092504 
L 389.728894 242.092504 
" clip-path="url(#pee77c330ac)" style="fill: none; stroke: #4c72b0; stroke-opacity: 0.3; stroke-width: 1.5; stroke-linecap: round"/>
   </g>
   <g id="line2d_15">
    <path d="M 54 242.094456 
L 91.155767 242.012576 
L 95.136742 241.972962 
L 96.463734 242.075147 
L 99.117717 241.512074 
L 100.444709 240.87887 
L 101.7717 240.486927 
L 103.098692 234.759439 
L 104.425684 241.064088 
L 105.752675 213.524305 
L 107.079667 239.746469 
L 108.406659 176.009558 
L 109.73365 236.977707 
L 111.060642 192.031746 
L 112.387634 204.686017 
L 113.714625 72.372173 
L 115.041617 199.832989 
L 116.368609 240.085964 
L 117.6956 166.065021 
L 119.022592 44.443636 
L 120.349584 202.172265 
L 121.676576 212.663763 
L 123.003567 111.956868 
L 124.330559 206.932072 
L 125.657551 229.96967 
L 126.984542 202.918774 
L 128.311534 207.834591 
L 129.638526 227.172014 
L 130.965517 239.542699 
L 132.292509 241.115999 
L 133.619501 193.302724 
L 134.946492 238.982241 
L 136.273484 241.859041 
L 138.927467 167.386194 
L 140.254459 190.601443 
L 141.581451 204.881457 
L 142.908442 225.189146 
L 144.235434 221.372338 
L 145.562426 177.925661 
L 146.889417 184.639118 
L 148.216409 240.78633 
L 149.543401 241.481042 
L 150.870392 185.259959 
L 152.197384 116.900832 
L 153.524376 230.690017 
L 154.851367 166.420047 
L 156.178359 116.202597 
L 157.505351 123.971957 
L 158.832342 225.457175 
L 160.159334 163.54831 
L 161.486326 219.872839 
L 162.813317 219.11552 
L 164.140309 196.352115 
L 165.467301 215.532164 
L 166.794293 225.88248 
L 168.121284 205.409238 
L 169.448276 237.096131 
L 170.775268 242.023632 
L 172.102259 235.486299 
L 173.429251 230.118983 
L 174.756243 238.559216 
L 176.083234 209.317798 
L 177.410226 216.493166 
L 178.737218 207.474785 
L 180.064209 185.54238 
L 181.391201 185.249977 
L 182.718193 207.910839 
L 184.045184 120.518442 
L 185.372176 187.263318 
L 186.699168 231.757181 
L 188.026159 210.04764 
L 189.353151 150.928113 
L 190.680143 231.215105 
L 192.007134 189.765065 
L 193.334126 186.280993 
L 194.661118 191.352125 
L 195.988109 236.621659 
L 197.315101 241.612256 
L 198.642093 231.050644 
L 199.969084 239.678907 
L 201.296076 236.306427 
L 202.623068 238.602454 
L 203.950059 231.76603 
L 205.277051 226.281557 
L 206.604043 172.323174 
L 207.931034 236.058326 
L 209.258026 232.679427 
L 210.585018 186.577169 
L 211.91201 193.03179 
L 213.239001 234.510794 
L 214.565993 228.82931 
L 215.892985 218.815876 
L 217.219976 180.273104 
L 218.546968 226.048909 
L 219.87396 239.887204 
L 221.200951 186.115877 
L 223.854935 240.328869 
L 225.181926 237.039037 
L 226.508918 219.643544 
L 227.83591 240.403657 
L 229.162901 235.959951 
L 230.489893 189.07585 
L 231.816885 234.612229 
L 233.143876 231.077553 
L 234.470868 230.036705 
L 235.79786 242.089631 
L 237.124851 238.060149 
L 238.451843 192.029971 
L 239.778835 226.376997 
L 241.105826 220.843544 
L 242.432818 237.260222 
L 243.75981 170.236529 
L 245.086801 238.427064 
L 246.413793 239.495814 
L 247.740785 211.999967 
L 249.067776 199.277648 
L 250.394768 241.067479 
L 251.72176 233.298185 
L 253.048751 239.268504 
L 254.375743 226.352816 
L 255.702735 240.370953 
L 257.029727 240.688155 
L 258.356718 237.061136 
L 259.68371 240.227642 
L 261.010702 227.694563 
L 262.337693 240.073712 
L 263.664685 232.07163 
L 264.991677 222.548265 
L 266.318668 235.436713 
L 267.64566 233.746046 
L 268.972652 226.801471 
L 270.299643 225.446117 
L 271.626635 222.992324 
L 272.953627 225.224863 
L 274.280618 221.280044 
L 275.60761 212.732496 
L 276.934602 241.625358 
L 278.261593 212.420086 
L 279.588585 240.899349 
L 280.915577 220.212245 
L 282.242568 236.592243 
L 283.56956 237.8073 
L 284.896552 241.924455 
L 286.223543 240.503761 
L 287.550535 236.649599 
L 288.877527 235.484969 
L 290.204518 222.168883 
L 291.53151 226.652141 
L 292.858502 240.709212 
L 294.185493 235.315113 
L 295.512485 217.133308 
L 296.839477 237.884461 
L 298.166468 233.122177 
L 299.49346 238.537957 
L 300.820452 225.51544 
L 303.474435 240.182968 
L 304.801427 235.362377 
L 306.128419 229.556092 
L 307.45541 241.973937 
L 308.782402 232.41006 
L 310.109394 240.253401 
L 311.436385 238.003887 
L 312.763377 239.798648 
L 314.090369 241.382613 
L 315.41736 234.184681 
L 316.744352 232.933791 
L 318.071344 237.157782 
L 319.398335 240.736046 
L 320.725327 239.20017 
L 322.052319 234.594354 
L 323.37931 240.457486 
L 324.706302 239.969983 
L 326.033294 242.081259 
L 327.360285 232.365504 
L 328.687277 239.340103 
L 330.014269 240.367277 
L 331.34126 240.608968 
L 332.668252 237.871971 
L 333.995244 241.953431 
L 335.322235 240.29184 
L 336.649227 241.411504 
L 337.976219 242.039883 
L 339.30321 241.954557 
L 340.630202 241.740853 
L 341.957194 242.019271 
L 343.284185 241.481005 
L 344.611177 240.045977 
L 345.938169 241.590507 
L 349.919144 241.694051 
L 351.246136 241.648014 
L 352.573127 241.865512 
L 353.900119 241.586174 
L 355.227111 241.714246 
L 356.554102 242.017534 
L 357.881094 241.694438 
L 359.208086 242.01975 
L 360.535077 242.061103 
L 361.862069 241.773142 
L 365.843044 242.115194 
L 367.170036 242.053541 
L 369.824019 242.114115 
L 373.804994 242.047008 
L 377.785969 242.104095 
L 381.766944 242.03891 
L 384.420927 242.084581 
L 389.728894 242.092535 
L 389.728894 242.092535 
" clip-path="url(#pee77c330ac)" style="fill: none; stroke: #dd8452; stroke-opacity: 0.3; stroke-width: 1.5; stroke-linecap: round"/>
   </g>
   <g id="line2d_16">
    <path d="M 54 242.110381 
L 97.790725 242.058977 
L 100.444709 241.903148 
L 101.7717 241.206268 
L 103.098692 238.021184 
L 104.425684 239.592294 
L 105.752675 226.131528 
L 107.079667 241.424479 
L 108.406659 196.109647 
L 109.73365 239.702457 
L 111.060642 223.73007 
L 112.387634 215.873484 
L 113.714625 131.814782 
L 115.041617 170.498897 
L 116.368609 237.830359 
L 117.6956 195.340901 
L 119.022592 44.443636 
L 120.349584 199.904259 
L 121.676576 217.821658 
L 123.003567 101.000806 
L 124.330559 178.791582 
L 125.657551 227.065929 
L 126.984542 185.615605 
L 128.311534 179.342546 
L 129.638526 231.559773 
L 130.965517 238.681191 
L 132.292509 239.813583 
L 133.619501 201.669829 
L 134.946492 234.026466 
L 136.273484 242.106407 
L 137.600476 198.485722 
L 138.927467 161.503848 
L 140.254459 195.044006 
L 141.581451 199.194667 
L 142.908442 225.280355 
L 144.235434 223.218974 
L 145.562426 163.504626 
L 146.889417 191.266719 
L 148.216409 242.083451 
L 149.543401 239.02974 
L 150.870392 182.376544 
L 152.197384 89.067754 
L 153.524376 218.481654 
L 156.178359 73.301577 
L 157.505351 109.353516 
L 158.832342 223.787283 
L 160.159334 150.798581 
L 161.486326 224.310788 
L 162.813317 210.95974 
L 164.140309 178.589646 
L 165.467301 206.817456 
L 166.794293 224.497627 
L 168.121284 195.892393 
L 169.448276 232.366627 
L 170.775268 241.765475 
L 172.102259 237.072221 
L 173.429251 220.504991 
L 174.756243 236.805311 
L 176.083234 205.03291 
L 177.410226 208.339127 
L 178.737218 192.810763 
L 180.064209 172.069904 
L 181.391201 184.374511 
L 182.718193 201.672647 
L 184.045184 99.978919 
L 185.372176 185.735106 
L 186.699168 228.004853 
L 188.026159 198.376091 
L 189.353151 107.685243 
L 190.680143 231.637115 
L 193.334126 148.114049 
L 194.661118 186.507672 
L 195.988109 235.876907 
L 197.315101 241.908784 
L 198.642093 237.265383 
L 199.969084 235.953259 
L 201.296076 221.975937 
L 202.623068 231.14659 
L 203.950059 223.087207 
L 205.277051 224.489794 
L 206.604043 179.725635 
L 207.931034 239.720143 
L 209.258026 219.681981 
L 210.585018 171.251626 
L 211.91201 189.160914 
L 213.239001 240.657002 
L 214.565993 208.921782 
L 215.892985 213.564808 
L 217.219976 197.105341 
L 218.546968 232.501961 
L 219.87396 237.170449 
L 221.200951 196.243887 
L 222.527943 215.632217 
L 223.854935 237.50569 
L 225.181926 229.584504 
L 226.508918 218.482268 
L 227.83591 240.759506 
L 229.162901 230.393959 
L 230.489893 148.833694 
L 231.816885 230.579425 
L 233.143876 225.85048 
L 234.470868 224.953023 
L 235.79786 241.758153 
L 237.124851 238.944628 
L 238.451843 180.313061 
L 239.778835 224.587548 
L 241.105826 215.492718 
L 242.432818 236.621796 
L 243.75981 173.406724 
L 245.086801 239.309233 
L 246.413793 240.283322 
L 247.740785 196.617918 
L 249.067776 202.356011 
L 250.394768 240.350307 
L 251.72176 227.715655 
L 253.048751 241.130234 
L 254.375743 218.914008 
L 255.702735 240.904816 
L 257.029727 240.206499 
L 258.356718 237.290931 
L 259.68371 240.760053 
L 261.010702 226.151538 
L 262.337693 239.412242 
L 263.664685 227.521178 
L 264.991677 220.210612 
L 266.318668 233.645593 
L 267.64566 231.150209 
L 268.972652 225.366549 
L 270.299643 220.787816 
L 271.626635 218.484202 
L 272.953627 219.498435 
L 274.280618 217.377214 
L 275.60761 203.698699 
L 276.934602 240.64571 
L 278.261593 203.900925 
L 279.588585 241.186833 
L 280.915577 217.221716 
L 282.242568 237.785651 
L 283.56956 235.453429 
L 284.896552 242.037116 
L 286.223543 240.509869 
L 287.550535 236.042299 
L 288.877527 234.170426 
L 290.204518 217.425008 
L 291.53151 223.005581 
L 292.858502 240.196179 
L 294.185493 234.92105 
L 295.512485 215.917383 
L 296.839477 237.65809 
L 298.166468 231.116396 
L 299.49346 237.67036 
L 300.820452 222.025419 
L 302.147444 230.255774 
L 303.474435 239.814621 
L 304.801427 235.425776 
L 306.128419 226.979987 
L 307.45541 241.752713 
L 308.782402 230.871025 
L 310.109394 239.31776 
L 311.436385 236.74362 
L 312.763377 239.476398 
L 314.090369 241.505449 
L 315.41736 232.971606 
L 316.744352 230.991956 
L 319.398335 240.837919 
L 320.725327 238.806351 
L 322.052319 233.160109 
L 323.37931 240.214534 
L 324.706302 239.222669 
L 326.033294 242.041379 
L 327.360285 230.891764 
L 328.687277 239.256444 
L 330.014269 239.570489 
L 331.34126 240.306302 
L 332.668252 237.701611 
L 333.995244 241.929628 
L 335.322235 239.944592 
L 336.649227 241.465661 
L 337.976219 241.962139 
L 339.30321 241.935655 
L 340.630202 241.730719 
L 341.957194 242.006197 
L 343.284185 241.398116 
L 344.611177 239.630452 
L 345.938169 241.46353 
L 352.573127 241.797934 
L 353.900119 241.428708 
L 355.227111 241.653781 
L 356.554102 242.016742 
L 357.881094 241.581755 
L 359.208086 242.007851 
L 360.535077 242.058559 
L 361.862069 241.731405 
L 365.843044 242.115856 
L 367.170036 242.031534 
L 369.824019 242.113679 
L 373.804994 242.033786 
L 377.785969 242.101109 
L 381.766944 242.020968 
L 383.093936 242.112758 
L 388.401902 242.085028 
L 389.728894 242.094077 
L 389.728894 242.094077 
" clip-path="url(#pee77c330ac)" style="fill: none; stroke: #55a868; stroke-opacity: 0.3; stroke-width: 1.5; stroke-linecap: round"/>
   </g>
   <g id="line2d_17">
    <path d="M 54 242.115473 
L 92.482759 242.084749 
L 93.80975 241.976608 
L 95.136742 241.74899 
L 96.463734 242.062131 
L 97.790725 241.763382 
L 99.117717 237.8783 
L 100.444709 237.071578 
L 101.7717 238.576102 
L 103.098692 222.754605 
L 104.425684 229.853821 
L 105.752675 228.210242 
L 107.079667 229.549901 
L 108.406659 179.904466 
L 109.73365 181.350879 
L 111.060642 181.918718 
L 112.387634 104.415829 
L 113.714625 44.443636 
L 115.041617 190.374592 
L 116.368609 179.562467 
L 117.6956 159.089227 
L 119.022592 215.134604 
L 120.349584 234.055612 
L 121.676576 191.007762 
L 123.003567 226.680602 
L 124.330559 194.525121 
L 125.657551 154.090077 
L 126.984542 166.555471 
L 128.311534 136.774366 
L 129.638526 196.399288 
L 130.965517 228.000654 
L 132.292509 237.355735 
L 133.619501 194.111822 
L 134.946492 231.043839 
L 136.273484 220.937359 
L 137.600476 219.952182 
L 138.927467 219.771376 
L 140.254459 158.787001 
L 141.581451 182.90424 
L 142.908442 231.164568 
L 144.235434 220.460597 
L 145.562426 241.822786 
L 146.889417 203.163985 
L 148.216409 218.893287 
L 149.543401 205.058937 
L 150.870392 219.473537 
L 152.197384 231.264593 
L 153.524376 239.515077 
L 154.851367 228.990229 
L 156.178359 221.308608 
L 157.505351 235.018008 
L 158.832342 241.695568 
L 160.159334 230.94868 
L 161.486326 241.103538 
L 162.813317 239.355098 
L 164.140309 241.198881 
L 165.467301 237.876498 
L 166.794293 235.439426 
L 168.121284 236.664999 
L 169.448276 235.785715 
L 170.775268 238.532566 
L 172.102259 236.647487 
L 173.429251 237.145575 
L 174.756243 238.634134 
L 176.083234 240.944385 
L 177.410226 234.589781 
L 178.737218 232.62763 
L 180.064209 241.236827 
L 181.391201 241.094957 
L 182.718193 238.127607 
L 184.045184 229.515192 
L 185.372176 236.75968 
L 186.699168 238.45763 
L 188.026159 232.982595 
L 189.353151 235.488156 
L 190.680143 234.079925 
L 192.007134 240.404711 
L 193.334126 241.844024 
L 194.661118 235.660274 
L 195.988109 237.636264 
L 197.315101 236.716488 
L 198.642093 240.852521 
L 199.969084 239.791177 
L 201.296076 239.38188 
L 202.623068 237.409077 
L 203.950059 239.686821 
L 205.277051 241.01327 
L 206.604043 241.598625 
L 207.931034 239.937353 
L 209.258026 236.546704 
L 210.585018 240.953152 
L 211.91201 232.612697 
L 213.239001 230.466541 
L 214.565993 238.383165 
L 215.892985 240.075465 
L 217.219976 241.385302 
L 218.546968 240.561398 
L 219.87396 241.492126 
L 221.200951 240.747102 
L 222.527943 239.210165 
L 223.854935 242.086154 
L 225.181926 239.395185 
L 226.508918 241.662321 
L 227.83591 239.171719 
L 229.162901 238.052489 
L 230.489893 193.370273 
L 231.816885 239.741264 
L 233.143876 238.660026 
L 234.470868 241.90466 
L 235.79786 238.873857 
L 237.124851 241.37227 
L 238.451843 239.749995 
L 239.778835 236.83809 
L 241.105826 240.180556 
L 242.432818 236.388232 
L 243.75981 186.233562 
L 245.086801 227.257293 
L 246.413793 225.819257 
L 247.740785 235.559199 
L 249.067776 235.123907 
L 250.394768 238.328879 
L 251.72176 240.810092 
L 253.048751 228.771464 
L 254.375743 231.872194 
L 255.702735 236.602177 
L 257.029727 233.149906 
L 258.356718 239.385338 
L 259.68371 240.716885 
L 261.010702 241.380054 
L 262.337693 241.484773 
L 263.664685 239.224965 
L 264.991677 240.567309 
L 266.318668 241.534661 
L 267.64566 241.705474 
L 268.972652 238.27398 
L 270.299643 240.618737 
L 271.626635 240.050106 
L 272.953627 240.293162 
L 274.280618 242.081935 
L 275.60761 240.669426 
L 276.934602 239.703072 
L 278.261593 241.867631 
L 279.588585 239.75077 
L 280.915577 241.53726 
L 282.242568 242.001502 
L 284.896552 242.100286 
L 290.204518 241.63631 
L 291.53151 237.789614 
L 292.858502 241.730913 
L 294.185493 241.508899 
L 295.512485 241.830891 
L 299.49346 241.980782 
L 300.820452 241.902572 
L 302.147444 240.835117 
L 303.474435 240.034424 
L 304.801427 242.060635 
L 306.128419 241.380263 
L 307.45541 241.028477 
L 308.782402 241.522373 
L 310.109394 241.365767 
L 311.436385 241.761394 
L 312.763377 241.214344 
L 314.090369 242.008461 
L 316.744352 241.40924 
L 318.071344 241.699028 
L 319.398335 241.437698 
L 320.725327 241.96612 
L 322.052319 241.404886 
L 323.37931 241.853352 
L 324.706302 241.629872 
L 326.033294 241.993775 
L 328.687277 241.605604 
L 330.014269 242.109501 
L 331.34126 242.022546 
L 332.668252 240.457028 
L 333.995244 241.866187 
L 335.322235 242.044081 
L 336.649227 242.105564 
L 337.976219 241.981509 
L 341.957194 242.07644 
L 344.611177 241.952997 
L 345.938169 242.091987 
L 355.227111 242.100881 
L 359.208086 242.116137 
L 371.151011 242.108668 
L 389.728894 242.115005 
L 389.728894 242.115005 
" clip-path="url(#pee77c330ac)" style="fill: none; stroke: #c44e52; stroke-opacity: 0.3; stroke-width: 1.5; stroke-linecap: round"/>
   </g>
   <g id="line2d_18">
    <path d="M 54 241.97133 
L 81.866825 241.858739 
L 91.155767 241.712037 
L 92.482759 241.484996 
L 93.80975 241.710453 
L 95.136742 241.678239 
L 96.463734 241.887397 
L 97.790725 240.311928 
L 99.117717 240.469819 
L 100.444709 235.652889 
L 101.7717 238.297333 
L 103.098692 217.194818 
L 104.425684 225.302829 
L 105.752675 211.108155 
L 107.079667 199.384336 
L 108.406659 69.321193 
L 109.73365 44.443636 
L 111.060642 154.765945 
L 112.387634 116.265004 
L 113.714625 143.733637 
L 115.041617 216.441798 
L 116.368609 198.626097 
L 117.6956 129.29818 
L 119.022592 236.530396 
L 120.349584 239.014598 
L 121.676576 195.024111 
L 123.003567 179.522126 
L 124.330559 175.045222 
L 125.657551 228.116499 
L 126.984542 241.756723 
L 128.311534 219.286992 
L 129.638526 220.116204 
L 132.292509 231.768575 
L 133.619501 221.501733 
L 134.946492 235.02863 
L 136.273484 219.413592 
L 137.600476 237.170082 
L 138.927467 235.203594 
L 140.254459 227.24344 
L 141.581451 238.504873 
L 142.908442 237.655228 
L 144.235434 221.441053 
L 145.562426 236.697582 
L 146.889417 217.892831 
L 148.216409 219.075489 
L 149.543401 239.62374 
L 150.870392 241.273779 
L 152.197384 238.812144 
L 153.524376 234.484352 
L 154.851367 237.75633 
L 156.178359 215.690335 
L 157.505351 226.818147 
L 158.832342 232.829869 
L 160.159334 239.723371 
L 161.486326 240.910718 
L 162.813317 234.153896 
L 164.140309 235.748402 
L 165.467301 241.731196 
L 166.794293 235.573034 
L 168.121284 239.207707 
L 169.448276 232.177808 
L 170.775268 240.474493 
L 172.102259 235.129445 
L 173.429251 236.770706 
L 174.756243 235.678959 
L 176.083234 236.468419 
L 177.410226 240.17163 
L 178.737218 241.782427 
L 180.064209 240.289824 
L 181.391201 240.937015 
L 182.718193 233.786302 
L 184.045184 240.144289 
L 185.372176 238.449032 
L 186.699168 240.993578 
L 188.026159 240.462057 
L 189.353151 241.373044 
L 190.680143 234.746633 
L 192.007134 240.100722 
L 193.334126 234.747531 
L 194.661118 238.052812 
L 195.988109 239.475287 
L 197.315101 234.595956 
L 198.642093 241.349758 
L 199.969084 241.559014 
L 201.296076 241.58556 
L 202.623068 240.236703 
L 203.950059 238.347668 
L 205.277051 241.530417 
L 206.604043 241.429836 
L 207.931034 237.478439 
L 209.258026 240.642799 
L 210.585018 240.10101 
L 211.91201 237.543664 
L 213.239001 241.915744 
L 214.565993 236.624065 
L 215.892985 241.545303 
L 217.219976 236.07949 
L 219.87396 240.478399 
L 221.200951 241.580109 
L 222.527943 239.394296 
L 223.854935 240.030272 
L 225.181926 241.256143 
L 226.508918 236.886961 
L 227.83591 242.022182 
L 229.162901 235.866747 
L 230.489893 188.97139 
L 231.816885 228.525278 
L 233.143876 234.504078 
L 234.470868 234.240008 
L 235.79786 239.885358 
L 237.124851 241.290834 
L 238.451843 239.503901 
L 239.778835 219.719053 
L 241.105826 234.108137 
L 242.432818 232.624697 
L 243.75981 241.752545 
L 245.086801 235.395398 
L 246.413793 240.636875 
L 247.740785 239.012361 
L 249.067776 240.952874 
L 250.394768 240.57565 
L 251.72176 241.196715 
L 253.048751 241.103645 
L 254.375743 236.243853 
L 255.702735 237.864857 
L 257.029727 231.435168 
L 258.356718 237.199401 
L 259.68371 241.167259 
L 261.010702 239.311867 
L 262.337693 237.70671 
L 263.664685 233.554122 
L 264.991677 241.798226 
L 267.64566 240.929963 
L 268.972652 241.967593 
L 270.299643 238.926644 
L 271.626635 240.537665 
L 272.953627 239.985282 
L 274.280618 237.957206 
L 275.60761 241.443512 
L 276.934602 241.383969 
L 279.588585 240.257082 
L 280.915577 240.123256 
L 282.242568 240.408609 
L 283.56956 238.817554 
L 284.896552 241.418919 
L 286.223543 241.885423 
L 287.550535 241.830356 
L 288.877527 238.786148 
L 290.204518 240.532455 
L 291.53151 239.940502 
L 292.858502 242.042607 
L 294.185493 241.130797 
L 295.512485 241.689125 
L 296.839477 242.094602 
L 298.166468 241.415911 
L 299.49346 240.430845 
L 300.820452 237.973192 
L 302.147444 240.091578 
L 303.474435 241.746283 
L 304.801427 241.890043 
L 306.128419 240.212555 
L 307.45541 241.920364 
L 308.782402 241.970769 
L 310.109394 241.298136 
L 311.436385 241.945632 
L 312.763377 241.141139 
L 314.090369 242.056434 
L 315.41736 241.093436 
L 316.744352 241.443009 
L 318.071344 241.913297 
L 319.398335 242.071241 
L 320.725327 241.564413 
L 322.052319 241.721889 
L 323.37931 240.250888 
L 324.706302 241.280955 
L 326.033294 241.482098 
L 328.687277 242.108784 
L 332.668252 241.505587 
L 333.995244 241.758966 
L 335.322235 240.963735 
L 336.649227 242.024509 
L 337.976219 241.960525 
L 339.30321 242.092796 
L 343.284185 242.063928 
L 345.938169 241.861838 
L 348.592152 242.089365 
L 349.919144 241.920813 
L 351.246136 242.077547 
L 352.573127 242.013688 
L 355.227111 242.086459 
L 359.208086 242.056744 
L 360.535077 242.016444 
L 363.189061 242.116287 
L 379.112961 242.115059 
L 389.728894 242.114784 
L 389.728894 242.114784 
" clip-path="url(#pee77c330ac)" style="fill: none; stroke: #8172b3; stroke-opacity: 0.3; stroke-width: 1.5; stroke-linecap: round"/>
   </g>
   <g id="line2d_19">
    <path d="M 54 242.024492 
L 97.790725 241.949042 
L 99.117717 241.16468 
L 100.444709 240.757777 
L 101.7717 241.021231 
L 103.098692 228.582229 
L 104.425684 238.744672 
L 105.752675 203.239653 
L 107.079667 234.419178 
L 108.406659 177.886488 
L 109.73365 165.652768 
L 111.060642 233.338386 
L 112.387634 221.135428 
L 113.714625 232.129806 
L 115.041617 222.630268 
L 116.368609 227.3578 
L 117.6956 201.660057 
L 119.022592 229.568049 
L 120.349584 234.890117 
L 121.676576 229.841271 
L 123.003567 215.951153 
L 124.330559 234.023916 
L 125.657551 198.289002 
L 126.984542 225.714393 
L 128.311534 202.296878 
L 129.638526 239.540404 
L 130.965517 211.12041 
L 132.292509 241.623972 
L 133.619501 231.266326 
L 134.946492 238.203309 
L 136.273484 241.00355 
L 137.600476 233.751197 
L 138.927467 238.032819 
L 140.254459 228.27893 
L 141.581451 236.309655 
L 142.908442 240.730684 
L 144.235434 237.733483 
L 145.562426 234.36327 
L 146.889417 241.980966 
L 148.216409 232.191784 
L 149.543401 206.591116 
L 150.870392 234.335037 
L 152.197384 235.400308 
L 153.524376 227.340605 
L 154.851367 240.985724 
L 156.178359 233.973492 
L 157.505351 238.485069 
L 158.832342 234.309181 
L 160.159334 239.449689 
L 161.486326 240.116678 
L 162.813317 241.395897 
L 164.140309 237.825158 
L 165.467301 239.852295 
L 166.794293 236.212974 
L 168.121284 237.509815 
L 169.448276 217.800077 
L 170.775268 208.060196 
L 172.102259 241.030702 
L 173.429251 216.080136 
L 174.756243 226.456846 
L 176.083234 227.305122 
L 177.410226 233.441461 
L 180.064209 239.944513 
L 181.391201 221.479664 
L 182.718193 238.444877 
L 184.045184 237.697115 
L 185.372176 232.752197 
L 186.699168 240.824927 
L 188.026159 239.053241 
L 189.353151 200.963368 
L 190.680143 148.654112 
L 192.007134 175.250283 
L 193.334126 159.116144 
L 194.661118 210.447634 
L 195.988109 234.282396 
L 197.315101 237.521381 
L 198.642093 232.731116 
L 199.969084 230.385558 
L 201.296076 221.855293 
L 202.623068 217.277286 
L 203.950059 241.043243 
L 205.277051 238.574459 
L 206.604043 167.052746 
L 207.931034 239.40721 
L 209.258026 72.314603 
L 210.585018 237.465865 
L 211.91201 229.299377 
L 213.239001 229.671605 
L 214.565993 162.490716 
L 215.892985 236.005384 
L 217.219976 202.562047 
L 218.546968 231.271474 
L 219.87396 212.047806 
L 221.200951 228.76243 
L 222.527943 235.914492 
L 223.854935 203.767708 
L 225.181926 216.65789 
L 226.508918 220.539722 
L 227.83591 238.952468 
L 229.162901 225.646364 
L 230.489893 44.443636 
L 231.816885 223.056407 
L 233.143876 219.399338 
L 234.470868 234.898464 
L 235.79786 241.890144 
L 237.124851 241.400998 
L 238.451843 236.352265 
L 239.778835 225.396529 
L 241.105826 236.792441 
L 242.432818 237.128851 
L 243.75981 231.461932 
L 245.086801 237.549628 
L 246.413793 238.334019 
L 247.740785 241.735344 
L 249.067776 238.337241 
L 250.394768 240.56178 
L 251.72176 241.199826 
L 253.048751 238.359816 
L 254.375743 240.744496 
L 255.702735 239.871442 
L 257.029727 232.438179 
L 258.356718 241.286243 
L 259.68371 241.095541 
L 261.010702 241.562483 
L 262.337693 238.498406 
L 263.664685 239.901592 
L 264.991677 241.783723 
L 266.318668 241.792328 
L 267.64566 241.349889 
L 268.972652 240.754716 
L 270.299643 239.77144 
L 271.626635 240.485224 
L 272.953627 240.514912 
L 274.280618 232.239802 
L 275.60761 241.120846 
L 276.934602 242.088649 
L 278.261593 240.906142 
L 279.588585 238.589004 
L 280.915577 241.964544 
L 282.242568 239.004824 
L 283.56956 238.138848 
L 284.896552 241.86974 
L 286.223543 242.009769 
L 287.550535 240.529639 
L 288.877527 240.0115 
L 290.204518 242.097674 
L 291.53151 240.593295 
L 292.858502 241.13481 
L 294.185493 241.305515 
L 296.839477 239.611911 
L 298.166468 241.165946 
L 299.49346 240.723413 
L 300.820452 235.92606 
L 302.147444 241.343163 
L 303.474435 242.08664 
L 304.801427 239.546596 
L 306.128419 241.609851 
L 307.45541 241.646935 
L 310.109394 240.991584 
L 311.436385 241.284138 
L 312.763377 240.928276 
L 314.090369 241.395967 
L 315.41736 240.88487 
L 316.744352 242.059011 
L 318.071344 241.988298 
L 320.725327 242.072282 
L 323.37931 240.771727 
L 324.706302 241.846007 
L 326.033294 240.883679 
L 327.360285 241.911107 
L 328.687277 241.838603 
L 330.014269 241.361227 
L 331.34126 241.158113 
L 332.668252 241.999717 
L 333.995244 241.564959 
L 335.322235 241.351185 
L 336.649227 242.087987 
L 339.30321 241.978538 
L 340.630202 242.069968 
L 341.957194 241.907046 
L 344.611177 242.094917 
L 345.938169 242.098826 
L 347.265161 241.963701 
L 349.919144 242.079484 
L 360.535077 242.082186 
L 369.824019 242.10347 
L 383.093936 242.111476 
L 389.728894 242.107969 
L 389.728894 242.107969 
" clip-path="url(#pee77c330ac)" style="fill: none; stroke: #937860; stroke-opacity: 0.3; stroke-width: 1.5; stroke-linecap: round"/>
   </g>
   <g id="line2d_20">
    <path d="M 54 242.085465 
L 91.155767 242.01574 
L 99.117717 241.66511 
L 100.444709 241.313498 
L 101.7717 239.584791 
L 103.098692 238.800744 
L 104.425684 241.11438 
L 105.752675 240.380455 
L 107.079667 237.184757 
L 108.406659 239.590535 
L 109.73365 235.477408 
L 111.060642 228.31795 
L 112.387634 121.791424 
L 113.714625 218.925106 
L 115.041617 85.687764 
L 116.368609 44.443636 
L 117.6956 231.212126 
L 119.022592 201.874397 
L 120.349584 103.004103 
L 121.676576 137.624803 
L 123.003567 213.636912 
L 124.330559 139.731195 
L 125.657551 229.33261 
L 126.984542 222.132105 
L 128.311534 85.026663 
L 129.638526 52.930092 
L 130.965517 218.554678 
L 132.292509 146.951824 
L 133.619501 173.003959 
L 134.946492 150.42794 
L 136.273484 219.108417 
L 137.600476 172.080914 
L 138.927467 235.16527 
L 140.254459 209.073482 
L 141.581451 172.487389 
L 142.908442 182.340429 
L 144.235434 226.505239 
L 145.562426 154.725029 
L 146.889417 223.829058 
L 148.216409 219.56286 
L 149.543401 240.855042 
L 150.870392 227.844678 
L 152.197384 234.884835 
L 153.524376 83.623653 
L 154.851367 238.23982 
L 156.178359 207.152647 
L 157.505351 201.137836 
L 158.832342 236.771195 
L 160.159334 195.707943 
L 161.486326 206.704096 
L 162.813317 219.676476 
L 164.140309 198.440086 
L 165.467301 220.842211 
L 166.794293 229.826152 
L 168.121284 212.174557 
L 169.448276 202.56153 
L 172.102259 236.817812 
L 173.429251 236.592375 
L 174.756243 208.657288 
L 176.083234 199.920307 
L 177.410226 233.691725 
L 178.737218 240.25602 
L 180.064209 207.069083 
L 181.391201 220.384303 
L 182.718193 173.26671 
L 184.045184 232.24003 
L 185.372176 234.465991 
L 186.699168 217.766185 
L 188.026159 215.105052 
L 189.353151 234.568166 
L 190.680143 239.325719 
L 192.007134 240.324157 
L 193.334126 230.096672 
L 194.661118 215.846821 
L 195.988109 232.781735 
L 197.315101 217.964768 
L 198.642093 240.319633 
L 199.969084 233.908794 
L 201.296076 194.302038 
L 202.623068 234.378354 
L 203.950059 235.475426 
L 205.277051 219.759943 
L 206.604043 238.467306 
L 207.931034 240.845524 
L 209.258026 212.720769 
L 210.585018 236.41908 
L 211.91201 239.635867 
L 213.239001 238.474282 
L 214.565993 241.004612 
L 215.892985 230.605731 
L 217.219976 216.721024 
L 218.546968 231.601446 
L 219.87396 231.753592 
L 221.200951 233.432531 
L 222.527943 234.747509 
L 223.854935 231.315312 
L 225.181926 238.006109 
L 226.508918 233.213211 
L 227.83591 221.435148 
L 229.162901 229.855164 
L 230.489893 184.849805 
L 231.816885 228.836518 
L 233.143876 237.690998 
L 234.470868 219.286945 
L 235.79786 239.428145 
L 237.124851 238.331211 
L 238.451843 234.537187 
L 239.778835 238.342477 
L 241.105826 228.45124 
L 242.432818 240.296743 
L 243.75981 226.671091 
L 245.086801 239.529274 
L 246.413793 241.165895 
L 247.740785 240.859406 
L 249.067776 233.281901 
L 250.394768 237.393657 
L 251.72176 235.95824 
L 253.048751 217.991114 
L 254.375743 217.973929 
L 255.702735 234.962845 
L 257.029727 218.948272 
L 258.356718 224.343615 
L 259.68371 241.32299 
L 261.010702 235.611175 
L 262.337693 240.921543 
L 264.991677 240.932184 
L 266.318668 240.344236 
L 267.64566 237.525933 
L 268.972652 236.415476 
L 270.299643 242.019019 
L 271.626635 236.661615 
L 272.953627 239.338795 
L 274.280618 228.44973 
L 275.60761 220.775916 
L 276.934602 238.462868 
L 278.261593 239.931442 
L 279.588585 233.842751 
L 280.915577 241.393279 
L 282.242568 232.952169 
L 283.56956 235.470229 
L 284.896552 239.354075 
L 286.223543 225.877716 
L 287.550535 241.792987 
L 288.877527 222.744168 
L 290.204518 240.671055 
L 291.53151 224.563876 
L 292.858502 237.749622 
L 294.185493 240.650799 
L 295.512485 237.218489 
L 296.839477 241.090184 
L 298.166468 235.429131 
L 299.49346 242.069087 
L 300.820452 226.381831 
L 302.147444 241.042501 
L 303.474435 219.12872 
L 304.801427 231.875507 
L 306.128419 240.409449 
L 308.782402 235.25302 
L 311.436385 240.998311 
L 312.763377 239.363496 
L 314.090369 234.988401 
L 315.41736 236.181751 
L 316.744352 239.943552 
L 318.071344 235.416442 
L 319.398335 238.072636 
L 320.725327 241.171821 
L 322.052319 242.062651 
L 323.37931 229.365961 
L 324.706302 238.658905 
L 326.033294 241.356715 
L 327.360285 241.59919 
L 328.687277 240.203398 
L 330.014269 241.441103 
L 331.34126 240.651648 
L 332.668252 242.013157 
L 333.995244 241.258781 
L 335.322235 240.705672 
L 336.649227 241.952006 
L 337.976219 234.795398 
L 339.30321 241.980611 
L 340.630202 241.113924 
L 341.957194 241.131394 
L 343.284185 241.999884 
L 344.611177 241.800186 
L 345.938169 241.894953 
L 347.265161 241.810328 
L 348.592152 240.767587 
L 349.919144 241.614618 
L 351.246136 242.100688 
L 352.573127 241.866687 
L 353.900119 242.092154 
L 355.227111 242.089194 
L 356.554102 241.892881 
L 364.516052 242.03817 
L 365.843044 241.667729 
L 367.170036 241.929651 
L 368.497027 241.887105 
L 369.824019 242.052216 
L 372.478002 241.976686 
L 373.804994 242.11197 
L 389.728894 242.087178 
L 389.728894 242.087178 
" clip-path="url(#pee77c330ac)" style="fill: none; stroke: #da8bc3; stroke-opacity: 0.3; stroke-width: 1.5; stroke-linecap: round"/>
   </g>
   <g id="line2d_21">
    <path d="M 54 241.837188 
L 77.88585 241.733235 
L 91.155767 241.476085 
L 93.80975 241.441186 
L 96.463734 240.920058 
L 97.790725 241.178571 
L 99.117717 239.303296 
L 100.444709 240.111289 
L 101.7717 241.285269 
L 103.098692 237.612264 
L 104.425684 226.97003 
L 105.752675 233.885135 
L 107.079667 224.07789 
L 109.73365 171.293595 
L 111.060642 183.589376 
L 112.387634 217.786058 
L 113.714625 208.842658 
L 115.041617 178.533024 
L 116.368609 110.356099 
L 117.6956 166.975871 
L 119.022592 111.235403 
L 120.349584 240.408353 
L 121.676576 44.443636 
L 123.003567 194.61098 
L 124.330559 100.803172 
L 125.657551 171.495406 
L 126.984542 231.673979 
L 128.311534 185.27134 
L 129.638526 226.087535 
L 130.965517 178.959463 
L 132.292509 209.703044 
L 133.619501 180.471715 
L 134.946492 202.027844 
L 136.273484 205.422809 
L 137.600476 200.594018 
L 138.927467 237.254945 
L 140.254459 118.164466 
L 141.581451 151.470882 
L 142.908442 169.084128 
L 144.235434 230.269497 
L 145.562426 216.793062 
L 146.889417 212.583872 
L 148.216409 153.791323 
L 149.543401 239.434729 
L 150.870392 193.356652 
L 152.197384 164.979355 
L 153.524376 208.25149 
L 154.851367 235.633947 
L 156.178359 230.27199 
L 157.505351 240.683044 
L 158.832342 221.465837 
L 160.159334 234.724787 
L 161.486326 204.094071 
L 162.813317 227.737002 
L 164.140309 203.951247 
L 165.467301 240.435517 
L 166.794293 239.245194 
L 168.121284 219.121819 
L 169.448276 226.30355 
L 170.775268 218.085187 
L 172.102259 228.240548 
L 173.429251 219.009142 
L 174.756243 201.532506 
L 176.083234 234.645529 
L 177.410226 184.624277 
L 178.737218 238.874268 
L 180.064209 202.105782 
L 181.391201 203.705112 
L 182.718193 196.120321 
L 184.045184 233.17574 
L 185.372176 241.963301 
L 186.699168 241.659851 
L 188.026159 242.03021 
L 189.353151 226.664257 
L 190.680143 199.92837 
L 192.007134 241.701601 
L 193.334126 240.751725 
L 194.661118 221.208949 
L 195.988109 240.007857 
L 197.315101 218.216772 
L 198.642093 194.194024 
L 199.969084 241.712951 
L 201.296076 229.854866 
L 202.623068 242.023034 
L 203.950059 208.695096 
L 205.277051 220.306221 
L 206.604043 240.953679 
L 207.931034 230.311952 
L 209.258026 228.927581 
L 210.585018 238.446784 
L 211.91201 218.817824 
L 213.239001 237.341017 
L 214.565993 228.721907 
L 215.892985 240.363628 
L 217.219976 239.666079 
L 218.546968 222.315563 
L 219.87396 237.331564 
L 221.200951 235.472116 
L 222.527943 236.13729 
L 223.854935 226.830978 
L 225.181926 238.667439 
L 226.508918 242.028603 
L 227.83591 240.713037 
L 229.162901 226.993844 
L 230.489893 222.501885 
L 231.816885 235.77421 
L 233.143876 225.784956 
L 234.470868 234.115527 
L 235.79786 230.656269 
L 237.124851 206.448969 
L 238.451843 234.790266 
L 239.778835 224.039386 
L 241.105826 237.940558 
L 242.432818 235.799595 
L 243.75981 237.928945 
L 245.086801 238.276607 
L 246.413793 231.814379 
L 247.740785 239.351999 
L 249.067776 241.272745 
L 250.394768 217.649851 
L 251.72176 241.1591 
L 253.048751 236.454668 
L 254.375743 228.89299 
L 255.702735 237.429119 
L 257.029727 218.945856 
L 258.356718 241.681649 
L 259.68371 235.382993 
L 261.010702 227.992852 
L 262.337693 233.396762 
L 263.664685 235.776869 
L 264.991677 238.554798 
L 266.318668 236.532433 
L 267.64566 240.655141 
L 268.972652 238.851365 
L 270.299643 234.581296 
L 271.626635 238.99581 
L 272.953627 237.580462 
L 274.280618 236.494556 
L 275.60761 218.037412 
L 276.934602 241.141442 
L 278.261593 232.065959 
L 279.588585 229.543813 
L 280.915577 239.998234 
L 282.242568 235.212418 
L 283.56956 241.238501 
L 284.896552 241.737686 
L 286.223543 234.459944 
L 287.550535 239.198757 
L 288.877527 238.630098 
L 290.204518 240.025397 
L 291.53151 240.940381 
L 292.858502 241.115205 
L 294.185493 241.678281 
L 295.512485 235.852124 
L 296.839477 237.703797 
L 298.166468 241.686378 
L 299.49346 241.717904 
L 300.820452 239.163203 
L 302.147444 238.960989 
L 303.474435 225.426246 
L 304.801427 238.170987 
L 306.128419 239.585793 
L 307.45541 240.518293 
L 308.782402 241.192554 
L 310.109394 239.04817 
L 311.436385 237.624224 
L 314.090369 240.548396 
L 315.41736 241.821371 
L 316.744352 237.728759 
L 318.071344 239.001336 
L 319.398335 239.730134 
L 320.725327 236.625906 
L 322.052319 241.174951 
L 323.37931 235.828851 
L 324.706302 239.403529 
L 326.033294 239.599511 
L 327.360285 238.366496 
L 328.687277 239.856022 
L 330.014269 241.748468 
L 331.34126 240.791603 
L 332.668252 239.378782 
L 333.995244 241.157282 
L 335.322235 241.605038 
L 336.649227 240.742871 
L 337.976219 237.850377 
L 339.30321 241.726636 
L 340.630202 241.83124 
L 341.957194 239.929182 
L 343.284185 241.944361 
L 345.938169 242.044448 
L 347.265161 241.34857 
L 348.592152 241.524969 
L 349.919144 241.844231 
L 351.246136 242.026931 
L 353.900119 241.632643 
L 355.227111 241.891309 
L 357.881094 242.095646 
L 359.208086 241.330527 
L 360.535077 241.759841 
L 361.862069 242.049118 
L 363.189061 241.825227 
L 364.516052 242.023039 
L 367.170036 241.82122 
L 368.497027 242.100065 
L 369.824019 242.029731 
L 371.151011 242.095474 
L 372.478002 241.911893 
L 373.804994 242.08389 
L 377.785969 242.089312 
L 380.439952 242.10679 
L 389.728894 242.11462 
L 389.728894 242.11462 
" clip-path="url(#pee77c330ac)" style="fill: none; stroke: #8c8c8c; stroke-opacity: 0.3; stroke-width: 1.5; stroke-linecap: round"/>
   </g>
   <g id="line2d_22">
    <path d="M 54 241.979145 
L 85.8478 241.873863 
L 97.790725 241.726566 
L 99.117717 240.793056 
L 100.444709 239.311326 
L 101.7717 240.402614 
L 103.098692 239.161924 
L 104.425684 232.383019 
L 107.079667 231.899726 
L 108.406659 197.185013 
L 109.73365 204.582196 
L 111.060642 152.865292 
L 112.387634 229.120111 
L 113.714625 233.432628 
L 115.041617 236.72315 
L 116.368609 125.362665 
L 117.6956 196.410987 
L 119.022592 174.388258 
L 120.349584 240.641565 
L 121.676576 44.443636 
L 123.003567 159.059573 
L 124.330559 99.783881 
L 125.657551 145.549725 
L 126.984542 232.89768 
L 128.311534 181.367165 
L 129.638526 230.61247 
L 130.965517 153.571179 
L 132.292509 219.349869 
L 134.946492 179.927225 
L 136.273484 212.24121 
L 137.600476 195.870988 
L 138.927467 231.247604 
L 140.254459 131.586759 
L 141.581451 123.223706 
L 142.908442 161.170048 
L 144.235434 231.151713 
L 145.562426 224.493212 
L 146.889417 209.546953 
L 148.216409 166.846147 
L 149.543401 238.243905 
L 150.870392 194.825451 
L 152.197384 172.932488 
L 153.524376 210.505867 
L 154.851367 234.624727 
L 156.178359 231.533344 
L 157.505351 241.55062 
L 158.832342 219.809301 
L 160.159334 230.157419 
L 161.486326 197.89662 
L 162.813317 233.798273 
L 164.140309 206.081692 
L 165.467301 239.657634 
L 166.794293 239.639906 
L 168.121284 228.347551 
L 169.448276 228.068163 
L 170.775268 218.875955 
L 172.102259 233.016277 
L 173.429251 222.889307 
L 174.756243 197.668882 
L 176.083234 229.426232 
L 177.410226 175.341618 
L 178.737218 238.83516 
L 180.064209 214.089114 
L 181.391201 206.936024 
L 182.718193 209.871699 
L 184.045184 232.814116 
L 185.372176 241.88258 
L 186.699168 241.64365 
L 188.026159 240.819347 
L 189.353151 223.423931 
L 190.680143 203.634899 
L 192.007134 241.601121 
L 193.334126 241.1448 
L 194.661118 226.18037 
L 195.988109 240.28924 
L 197.315101 221.677538 
L 198.642093 190.451964 
L 199.969084 241.81097 
L 201.296076 229.627151 
L 202.623068 241.834882 
L 203.950059 212.383828 
L 205.277051 207.797591 
L 206.604043 241.648016 
L 207.931034 227.532132 
L 209.258026 202.854682 
L 210.585018 234.677555 
L 211.91201 218.262394 
L 213.239001 239.957605 
L 214.565993 226.92954 
L 215.892985 237.037377 
L 217.219976 238.057856 
L 218.546968 222.565837 
L 219.87396 236.135189 
L 221.200951 233.279025 
L 222.527943 235.005583 
L 223.854935 226.879921 
L 225.181926 239.253765 
L 226.508918 242.082746 
L 227.83591 241.524293 
L 229.162901 221.195289 
L 230.489893 213.829275 
L 231.816885 238.171368 
L 233.143876 219.145864 
L 234.470868 237.786702 
L 235.79786 228.402716 
L 237.124851 208.25287 
L 238.451843 238.774799 
L 239.778835 224.977034 
L 241.105826 237.809529 
L 242.432818 234.57549 
L 243.75981 236.154521 
L 245.086801 238.673083 
L 246.413793 233.654929 
L 247.740785 239.522841 
L 249.067776 241.943592 
L 250.394768 218.123247 
L 251.72176 241.099164 
L 253.048751 232.770079 
L 254.375743 234.012374 
L 255.702735 239.236159 
L 257.029727 221.229806 
L 258.356718 239.934923 
L 259.68371 236.859509 
L 261.010702 226.532173 
L 262.337693 233.285781 
L 263.664685 234.550952 
L 264.991677 238.894145 
L 266.318668 236.246405 
L 267.64566 241.616325 
L 268.972652 239.836126 
L 270.299643 233.661205 
L 271.626635 239.622205 
L 272.953627 238.593982 
L 274.280618 238.218677 
L 275.60761 228.940898 
L 276.934602 241.178782 
L 278.261593 232.658638 
L 279.588585 230.152216 
L 280.915577 239.988454 
L 282.242568 237.337283 
L 283.56956 241.155034 
L 284.896552 242.035533 
L 286.223543 237.295313 
L 287.550535 238.639467 
L 288.877527 238.938236 
L 290.204518 240.93465 
L 291.53151 241.83498 
L 292.858502 241.277566 
L 294.185493 241.275586 
L 295.512485 237.984397 
L 296.839477 238.883489 
L 298.166468 241.819834 
L 299.49346 240.834665 
L 300.820452 239.6038 
L 302.147444 238.785792 
L 303.474435 231.876687 
L 304.801427 238.69931 
L 306.128419 239.56932 
L 307.45541 239.111761 
L 308.782402 241.439069 
L 310.109394 240.005013 
L 311.436385 236.368688 
L 312.763377 240.023889 
L 314.090369 240.189034 
L 315.41736 241.911975 
L 316.744352 237.349067 
L 318.071344 240.100031 
L 319.398335 238.940911 
L 320.725327 235.690216 
L 322.052319 240.646112 
L 323.37931 237.071532 
L 324.706302 240.02314 
L 326.033294 240.071317 
L 327.360285 237.739957 
L 328.687277 238.607019 
L 330.014269 241.773599 
L 331.34126 241.147242 
L 332.668252 240.129813 
L 335.322235 241.665244 
L 336.649227 240.437547 
L 337.976219 239.57424 
L 339.30321 241.495888 
L 340.630202 241.669391 
L 341.957194 239.932689 
L 343.284185 241.755417 
L 344.611177 242.046942 
L 345.938169 242.044824 
L 347.265161 241.320757 
L 348.592152 241.358467 
L 349.919144 241.618901 
L 351.246136 241.995643 
L 352.573127 241.862792 
L 353.900119 241.50507 
L 355.227111 241.862591 
L 357.881094 242.065206 
L 359.208086 241.303084 
L 360.535077 241.778552 
L 361.862069 242.015608 
L 363.189061 241.814086 
L 364.516052 241.988513 
L 367.170036 241.853904 
L 368.497027 242.085389 
L 369.824019 242.00477 
L 371.151011 242.083462 
L 372.478002 241.927623 
L 373.804994 242.075281 
L 377.785969 242.095488 
L 381.766944 242.108581 
L 389.728894 242.115545 
L 389.728894 242.115545 
" clip-path="url(#pee77c330ac)" style="fill: none; stroke: #ccb974; stroke-opacity: 0.3; stroke-width: 1.5; stroke-linecap: round"/>
   </g>
   <g id="line2d_23">
    <path d="M 54 242.109773 
L 93.80975 242.047364 
L 95.136742 241.982103 
L 96.463734 242.048336 
L 97.790725 241.678306 
L 99.117717 241.185672 
L 100.444709 241.78921 
L 101.7717 237.568782 
L 103.098692 240.315005 
L 104.425684 237.48071 
L 105.752675 212.938359 
L 107.079667 229.754476 
L 108.406659 239.962699 
L 109.73365 240.882753 
L 111.060642 207.479043 
L 112.387634 88.809348 
L 113.714625 199.918352 
L 115.041617 179.997773 
L 116.368609 234.705091 
L 117.6956 191.263222 
L 119.022592 44.443636 
L 120.349584 230.102953 
L 121.676576 221.894829 
L 123.003567 224.45834 
L 124.330559 148.936399 
L 125.657551 232.144334 
L 126.984542 213.131442 
L 128.311534 208.124049 
L 129.638526 241.507796 
L 130.965517 241.707754 
L 132.292509 239.251047 
L 133.619501 208.471214 
L 134.946492 200.477672 
L 136.273484 210.957557 
L 137.600476 235.806074 
L 138.927467 217.84105 
L 140.254459 225.879155 
L 141.581451 233.125026 
L 142.908442 239.485512 
L 144.235434 175.263272 
L 145.562426 234.716345 
L 146.889417 197.943921 
L 148.216409 174.668413 
L 149.543401 227.886839 
L 150.870392 232.912862 
L 152.197384 224.708183 
L 153.524376 232.917032 
L 154.851367 227.586262 
L 156.178359 208.586258 
L 157.505351 230.435933 
L 158.832342 238.786439 
L 160.159334 241.125033 
L 161.486326 232.084929 
L 162.813317 221.506986 
L 164.140309 239.905189 
L 165.467301 238.525625 
L 166.794293 218.937749 
L 168.121284 240.787848 
L 169.448276 237.431942 
L 170.775268 225.441544 
L 172.102259 242.073609 
L 173.429251 240.664526 
L 174.756243 230.871065 
L 176.083234 232.768223 
L 177.410226 236.399441 
L 178.737218 238.054528 
L 180.064209 241.791025 
L 181.391201 236.934126 
L 182.718193 238.27296 
L 184.045184 237.487416 
L 185.372176 241.803482 
L 186.699168 231.16658 
L 188.026159 235.259503 
L 190.680143 241.184079 
L 192.007134 238.565431 
L 193.334126 231.291173 
L 194.661118 233.358118 
L 195.988109 241.853257 
L 197.315101 234.798039 
L 198.642093 239.239919 
L 199.969084 238.008581 
L 201.296076 233.544185 
L 202.623068 240.985818 
L 203.950059 241.940705 
L 205.277051 230.25183 
L 206.604043 241.579716 
L 207.931034 242.060979 
L 209.258026 239.986365 
L 210.585018 241.416674 
L 211.91201 241.533879 
L 213.239001 241.054859 
L 214.565993 237.886717 
L 215.892985 240.630517 
L 217.219976 238.644324 
L 218.546968 241.90523 
L 219.87396 239.418732 
L 221.200951 241.721748 
L 222.527943 238.492648 
L 223.854935 238.154014 
L 225.181926 240.933259 
L 226.508918 239.744557 
L 227.83591 236.304706 
L 230.489893 241.926215 
L 231.816885 236.999751 
L 233.143876 240.321519 
L 234.470868 238.59461 
L 235.79786 239.881487 
L 237.124851 238.608957 
L 238.451843 241.923574 
L 239.778835 237.22944 
L 241.105826 241.999961 
L 242.432818 241.118452 
L 243.75981 238.472244 
L 245.086801 241.205433 
L 246.413793 239.276831 
L 247.740785 239.096084 
L 249.067776 242.022099 
L 250.394768 241.617202 
L 251.72176 241.868647 
L 253.048751 240.131306 
L 254.375743 240.208424 
L 255.702735 237.839497 
L 257.029727 241.054235 
L 258.356718 238.848856 
L 259.68371 239.259927 
L 261.010702 239.884758 
L 262.337693 240.749156 
L 263.664685 238.008071 
L 264.991677 240.894829 
L 266.318668 240.645783 
L 267.64566 241.50052 
L 270.299643 242.028483 
L 271.626635 240.502678 
L 272.953627 241.777628 
L 274.280618 241.474087 
L 275.60761 242.024408 
L 276.934602 241.294046 
L 278.261593 241.189587 
L 279.588585 240.858195 
L 280.915577 240.955594 
L 282.242568 239.948663 
L 283.56956 238.010636 
L 284.896552 241.867011 
L 286.223543 240.763051 
L 287.550535 241.614848 
L 288.877527 240.398367 
L 290.204518 241.557005 
L 291.53151 239.887677 
L 292.858502 241.897027 
L 294.185493 239.433286 
L 295.512485 241.171697 
L 296.839477 240.65614 
L 298.166468 240.760703 
L 299.49346 240.674483 
L 300.820452 241.799021 
L 302.147444 240.838795 
L 303.474435 241.960837 
L 304.801427 238.716088 
L 306.128419 239.397254 
L 308.782402 241.895737 
L 310.109394 238.841709 
L 311.436385 242.100013 
L 312.763377 241.339288 
L 314.090369 241.236522 
L 315.41736 240.742819 
L 316.744352 241.253405 
L 318.071344 237.955224 
L 319.398335 241.099257 
L 322.052319 241.347251 
L 323.37931 241.926008 
L 326.033294 242.051176 
L 327.360285 240.619751 
L 328.687277 241.868429 
L 330.014269 242.031218 
L 332.668252 242.020449 
L 333.995244 241.649032 
L 335.322235 241.977916 
L 336.649227 242.028302 
L 337.976219 241.457827 
L 339.30321 242.067393 
L 340.630202 241.712022 
L 341.957194 242.064946 
L 344.611177 242.109424 
L 345.938169 241.873845 
L 347.265161 242.097078 
L 389.728894 242.114848 
L 389.728894 242.114848 
" clip-path="url(#pee77c330ac)" style="fill: none; stroke: #64b5cd; stroke-opacity: 0.3; stroke-width: 1.5; stroke-linecap: round"/>
   </g>
   <g id="line2d_24">
    <path d="M 54 242.092314 
L 91.155767 242.036262 
L 93.80975 241.972596 
L 96.463734 242.091556 
L 97.790725 241.588426 
L 99.117717 241.540004 
L 100.444709 239.686782 
L 101.7717 241.088065 
L 103.098692 231.511341 
L 104.425684 241.62202 
L 105.752675 230.871157 
L 107.079667 241.106333 
L 108.406659 211.264471 
L 109.73365 186.544399 
L 111.060642 177.374156 
L 112.387634 108.534804 
L 113.714625 151.959854 
L 115.041617 223.460596 
L 116.368609 64.883041 
L 117.6956 44.443636 
L 119.022592 103.205625 
L 120.349584 140.365745 
L 121.676576 64.694325 
L 123.003567 198.590594 
L 124.330559 214.576406 
L 125.657551 238.382529 
L 126.984542 229.21312 
L 128.311534 191.210284 
L 129.638526 167.364216 
L 130.965517 228.515975 
L 132.292509 204.646238 
L 133.619501 224.993044 
L 134.946492 205.526519 
L 136.273484 192.693081 
L 137.600476 223.927825 
L 138.927467 234.522399 
L 140.254459 213.549886 
L 141.581451 237.455301 
L 142.908442 238.525589 
L 144.235434 190.172818 
L 145.562426 183.772748 
L 146.889417 163.374658 
L 148.216409 177.179958 
L 149.543401 160.136623 
L 150.870392 212.735935 
L 152.197384 215.384785 
L 153.524376 208.36473 
L 154.851367 195.688871 
L 156.178359 206.086298 
L 157.505351 177.317207 
L 158.832342 240.568071 
L 160.159334 227.3142 
L 161.486326 226.039429 
L 162.813317 198.580361 
L 164.140309 239.77532 
L 165.467301 197.791716 
L 166.794293 148.572443 
L 168.121284 208.467021 
L 169.448276 209.346816 
L 170.775268 181.274911 
L 172.102259 233.349116 
L 173.429251 235.023418 
L 174.756243 200.627983 
L 176.083234 241.518268 
L 177.410226 237.014932 
L 178.737218 209.32791 
L 180.064209 237.803358 
L 181.391201 241.01804 
L 182.718193 204.326041 
L 184.045184 237.402815 
L 185.372176 240.140824 
L 186.699168 236.681933 
L 188.026159 231.250605 
L 189.353151 232.407212 
L 190.680143 242.026175 
L 192.007134 233.2802 
L 193.334126 210.384715 
L 194.661118 225.90487 
L 195.988109 235.716385 
L 197.315101 215.706591 
L 198.642093 219.108131 
L 199.969084 240.783761 
L 201.296076 195.75555 
L 202.623068 227.967606 
L 203.950059 236.442768 
L 205.277051 225.847608 
L 207.931034 239.521864 
L 209.258026 234.477409 
L 210.585018 233.39884 
L 211.91201 242.088544 
L 213.239001 241.2221 
L 214.565993 231.516987 
L 215.892985 241.894121 
L 217.219976 232.198359 
L 218.546968 241.421698 
L 219.87396 235.544262 
L 221.200951 241.467734 
L 222.527943 240.246352 
L 223.854935 234.051956 
L 225.181926 222.98361 
L 226.508918 234.413383 
L 227.83591 223.940763 
L 229.162901 226.111844 
L 230.489893 233.360584 
L 231.816885 225.589454 
L 233.143876 234.612269 
L 234.470868 221.925099 
L 235.79786 234.575525 
L 237.124851 227.652774 
L 238.451843 241.201636 
L 239.778835 231.79415 
L 241.105826 239.843228 
L 242.432818 237.383222 
L 243.75981 241.696211 
L 245.086801 240.591036 
L 246.413793 236.083784 
L 247.740785 235.267531 
L 249.067776 241.392223 
L 250.394768 237.971717 
L 251.72176 242.021838 
L 253.048751 237.026722 
L 254.375743 231.410033 
L 255.702735 228.769991 
L 257.029727 241.575029 
L 258.356718 234.463341 
L 261.010702 228.381074 
L 262.337693 238.469797 
L 263.664685 232.371517 
L 264.991677 240.384802 
L 267.64566 239.673145 
L 268.972652 238.911168 
L 270.299643 241.115965 
L 271.626635 239.665678 
L 272.953627 238.413583 
L 274.280618 241.486341 
L 275.60761 240.387197 
L 276.934602 239.693517 
L 278.261593 238.192557 
L 279.588585 237.774143 
L 280.915577 236.223228 
L 282.242568 239.114173 
L 283.56956 222.894951 
L 284.896552 235.855149 
L 286.223543 233.34396 
L 287.550535 239.196454 
L 288.877527 235.6984 
L 290.204518 239.677026 
L 291.53151 235.698426 
L 292.858502 241.94765 
L 294.185493 236.377909 
L 295.512485 238.661727 
L 296.839477 237.050615 
L 298.166468 242.089703 
L 299.49346 237.65334 
L 300.820452 241.355576 
L 302.147444 238.80981 
L 303.474435 239.610689 
L 304.801427 235.998304 
L 306.128419 231.78417 
L 307.45541 235.507817 
L 308.782402 242.034403 
L 310.109394 235.403701 
L 311.436385 241.024455 
L 312.763377 239.137734 
L 315.41736 237.681349 
L 316.744352 241.315251 
L 318.071344 229.216127 
L 319.398335 239.964942 
L 320.725327 240.971439 
L 322.052319 239.212091 
L 323.37931 240.295633 
L 324.706302 241.046686 
L 326.033294 241.649582 
L 327.360285 238.355712 
L 328.687277 241.628803 
L 330.014269 241.102083 
L 331.34126 242.046741 
L 332.668252 241.768144 
L 333.995244 239.949305 
L 335.322235 241.678969 
L 336.649227 241.469069 
L 337.976219 240.579302 
L 339.30321 242.034262 
L 340.630202 240.983573 
L 341.957194 241.600911 
L 343.284185 242.021946 
L 344.611177 242.027328 
L 345.938169 241.603777 
L 347.265161 242.066426 
L 348.592152 241.809913 
L 349.919144 241.98146 
L 352.573127 241.986637 
L 353.900119 241.758519 
L 355.227111 242.053852 
L 369.824019 242.102405 
L 389.728894 242.116115 
L 389.728894 242.116115 
" clip-path="url(#pee77c330ac)" style="fill: none; stroke: #4c72b0; stroke-opacity: 0.3; stroke-width: 1.5; stroke-linecap: round"/>
   </g>
   <g id="line2d_25">
    <path d="M 54 242.115801 
L 100.444709 242.104188 
L 101.7717 241.730632 
L 103.098692 241.875668 
L 104.425684 239.973729 
L 107.079667 232.461633 
L 108.406659 216.223624 
L 109.73365 223.534239 
L 111.060642 219.84081 
L 112.387634 82.425518 
L 113.714625 121.511657 
L 115.041617 214.9343 
L 116.368609 119.29813 
L 117.6956 54.633925 
L 119.022592 128.051311 
L 120.349584 133.044574 
L 121.676576 44.443636 
L 123.003567 207.72593 
L 124.330559 231.806458 
L 125.657551 230.256491 
L 126.984542 233.754138 
L 128.311534 198.222455 
L 129.638526 187.619261 
L 130.965517 229.24834 
L 132.292509 201.555948 
L 133.619501 222.414236 
L 134.946492 202.141462 
L 136.273484 200.611285 
L 137.600476 217.681444 
L 138.927467 226.640953 
L 140.254459 207.742175 
L 141.581451 236.167079 
L 142.908442 236.510062 
L 144.235434 159.057986 
L 145.562426 184.193891 
L 146.889417 170.542894 
L 148.216409 202.475196 
L 149.543401 172.491459 
L 150.870392 228.52405 
L 152.197384 189.654435 
L 153.524376 196.783701 
L 154.851367 188.999298 
L 156.178359 204.066578 
L 157.505351 165.939453 
L 158.832342 236.301998 
L 160.159334 224.593701 
L 161.486326 217.214983 
L 162.813317 196.167784 
L 164.140309 241.494038 
L 165.467301 205.083698 
L 166.794293 164.524877 
L 168.121284 205.789539 
L 169.448276 205.877352 
L 170.775268 172.076296 
L 172.102259 220.38704 
L 173.429251 235.305043 
L 174.756243 180.922825 
L 176.083234 239.385571 
L 177.410226 238.315532 
L 178.737218 201.606494 
L 180.064209 235.555079 
L 181.391201 238.707862 
L 182.718193 191.006497 
L 184.045184 232.890032 
L 185.372176 241.961698 
L 186.699168 229.412936 
L 188.026159 220.452289 
L 189.353151 234.295675 
L 190.680143 242.004071 
L 192.007134 235.465392 
L 193.334126 204.145318 
L 194.661118 222.104162 
L 195.988109 237.03288 
L 197.315101 210.503598 
L 198.642093 214.375372 
L 199.969084 241.536393 
L 201.296076 175.75425 
L 202.623068 217.148207 
L 203.950059 239.502326 
L 205.277051 223.988087 
L 206.604043 227.190565 
L 207.931034 237.875046 
L 209.258026 232.626294 
L 210.585018 229.976134 
L 211.91201 241.754274 
L 213.239001 237.553393 
L 214.565993 229.679032 
L 215.892985 241.263713 
L 217.219976 229.866649 
L 218.546968 241.111798 
L 219.87396 236.739023 
L 221.200951 239.962542 
L 222.527943 238.803417 
L 223.854935 225.426763 
L 225.181926 215.845924 
L 226.508918 236.808718 
L 227.83591 208.519754 
L 229.162901 219.678454 
L 230.489893 233.343487 
L 231.816885 223.31319 
L 233.143876 225.162056 
L 234.470868 224.058413 
L 235.79786 231.575033 
L 237.124851 216.254845 
L 238.451843 237.719675 
L 239.778835 235.276811 
L 241.105826 240.303884 
L 242.432818 238.684907 
L 243.75981 240.537697 
L 245.086801 240.856858 
L 246.413793 237.416266 
L 247.740785 232.533365 
L 249.067776 241.690242 
L 250.394768 236.682986 
L 251.72176 240.279157 
L 253.048751 236.227274 
L 254.375743 234.780503 
L 255.702735 221.23971 
L 257.029727 240.94304 
L 258.356718 231.821695 
L 259.68371 229.684017 
L 261.010702 226.38111 
L 262.337693 240.412219 
L 263.664685 229.175294 
L 264.991677 239.758857 
L 266.318668 239.86807 
L 267.64566 240.247942 
L 268.972652 238.223474 
L 270.299643 241.549482 
L 271.626635 239.17082 
L 272.953627 239.855681 
L 274.280618 238.619333 
L 275.60761 241.364224 
L 276.934602 239.031551 
L 278.261593 233.433378 
L 279.588585 233.388515 
L 280.915577 235.006883 
L 282.242568 235.735967 
L 283.56956 217.595405 
L 284.896552 234.344865 
L 286.223543 229.644385 
L 287.550535 237.299951 
L 288.877527 236.040719 
L 290.204518 238.621449 
L 291.53151 229.193109 
L 292.858502 241.921583 
L 294.185493 235.70767 
L 295.512485 236.333371 
L 296.839477 234.731936 
L 298.166468 241.623851 
L 299.49346 236.701775 
L 300.820452 241.647732 
L 302.147444 238.652404 
L 303.474435 238.720005 
L 304.801427 230.724955 
L 306.128419 231.987282 
L 307.45541 233.70728 
L 308.782402 241.916779 
L 310.109394 231.870096 
L 311.436385 241.097313 
L 314.090369 234.13638 
L 315.41736 236.057633 
L 316.744352 239.195271 
L 318.071344 228.696722 
L 319.398335 239.150038 
L 320.725327 241.341203 
L 322.052319 238.243742 
L 323.37931 239.867649 
L 324.706302 241.112535 
L 326.033294 241.962483 
L 327.360285 237.156592 
L 328.687277 241.790179 
L 330.014269 241.439286 
L 331.34126 242.037654 
L 332.668252 241.381906 
L 333.995244 239.10901 
L 335.322235 241.399101 
L 336.649227 240.985298 
L 337.976219 240.45292 
L 339.30321 241.741767 
L 340.630202 240.393897 
L 343.284185 241.969872 
L 344.611177 241.959216 
L 345.938169 241.018376 
L 347.265161 242.009273 
L 348.592152 241.874289 
L 349.919144 242.081314 
L 353.900119 241.716188 
L 355.227111 242.073041 
L 356.554102 242.051599 
L 357.881094 241.918654 
L 359.208086 242.068924 
L 360.535077 241.889499 
L 361.862069 242.113893 
L 385.747919 242.104247 
L 389.728894 242.116154 
L 389.728894 242.116154 
" clip-path="url(#pee77c330ac)" style="fill: none; stroke: #dd8452; stroke-opacity: 0.3; stroke-width: 1.5; stroke-linecap: round"/>
   </g>
   <g id="patch_3">
    <path d="M 54 252 
L 54 34.56 
" style="fill: none; stroke: #262626; stroke-width: 1.25; stroke-linejoin: miter; stroke-linecap: square"/>
   </g>
   <g id="patch_4">
    <path d="M 388.8 252 
L 388.8 34.56 
" style="fill: none; stroke: #262626; stroke-width: 1.25; stroke-linejoin: miter; stroke-linecap: square"/>
   </g>
   <g id="patch_5">
    <path d="M 54 252 
L 388.8 252 
" style="fill: none; stroke: #262626; stroke-width: 1.25; stroke-linejoin: miter; stroke-linecap: square"/>
   </g>
   <g id="patch_6">
    <path d="M 54 34.56 
L 388.8 34.56 
" style="fill: none; stroke: #262626; stroke-width: 1.25; stroke-linejoin: miter; stroke-linecap: square"/>
   </g>
   <g id="text_15">
    <!-- patient06_app01_second - Power spectrum -->
    <g style="fill: #262626" transform="translate(105.334688 28.56)scale(0.12 -0.12)">
     <defs>
      <path id="ArialMT-70" d="M 422 -1272 
L 422 3319 
L 934 3319 
L 934 2888 
Q 1116 3141 1344 3267 
Q 1572 3394 1897 3394 
Q 2322 3394 2647 3175 
Q 2972 2956 3137 2557 
Q 3303 2159 3303 1684 
Q 3303 1175 3120 767 
Q 2938 359 2589 142 
Q 2241 -75 1856 -75 
Q 1575 -75 1351 44 
Q 1128 163 984 344 
L 984 -1272 
L 422 -1272 
z
M 931 1641 
Q 931 1000 1190 694 
Q 1450 388 1819 388 
Q 2194 388 2461 705 
Q 2728 1022 2728 1688 
Q 2728 2322 2467 2637 
Q 2206 2953 1844 2953 
Q 1484 2953 1207 2617 
Q 931 2281 931 1641 
z
" transform="scale(0.015625)"/>
      <path id="ArialMT-61" d="M 2588 409 
Q 2275 144 1986 34 
Q 1697 -75 1366 -75 
Q 819 -75 525 192 
Q 231 459 231 875 
Q 231 1119 342 1320 
Q 453 1522 633 1644 
Q 813 1766 1038 1828 
Q 1203 1872 1538 1913 
Q 2219 1994 2541 2106 
Q 2544 2222 2544 2253 
Q 2544 2597 2384 2738 
Q 2169 2928 1744 2928 
Q 1347 2928 1158 2789 
Q 969 2650 878 2297 
L 328 2372 
Q 403 2725 575 2942 
Q 747 3159 1072 3276 
Q 1397 3394 1825 3394 
Q 2250 3394 2515 3294 
Q 2781 3194 2906 3042 
Q 3031 2891 3081 2659 
Q 3109 2516 3109 2141 
L 3109 1391 
Q 3109 606 3145 398 
Q 3181 191 3288 0 
L 2700 0 
Q 2613 175 2588 409 
z
M 2541 1666 
Q 2234 1541 1622 1453 
Q 1275 1403 1131 1340 
Q 988 1278 909 1158 
Q 831 1038 831 891 
Q 831 666 1001 516 
Q 1172 366 1500 366 
Q 1825 366 2078 508 
Q 2331 650 2450 897 
Q 2541 1088 2541 1459 
L 2541 1666 
z
" transform="scale(0.015625)"/>
      <path id="ArialMT-74" d="M 1650 503 
L 1731 6 
Q 1494 -44 1306 -44 
Q 1000 -44 831 53 
Q 663 150 594 308 
Q 525 466 525 972 
L 525 2881 
L 113 2881 
L 113 3319 
L 525 3319 
L 525 4141 
L 1084 4478 
L 1084 3319 
L 1650 3319 
L 1650 2881 
L 1084 2881 
L 1084 941 
Q 1084 700 1114 631 
Q 1144 563 1211 522 
Q 1278 481 1403 481 
Q 1497 481 1650 503 
z
" transform="scale(0.015625)"/>
      <path id="ArialMT-69" d="M 425 3934 
L 425 4581 
L 988 4581 
L 988 3934 
L 425 3934 
z
M 425 0 
L 425 3319 
L 988 3319 
L 988 0 
L 425 0 
z
" transform="scale(0.015625)"/>
      <path id="ArialMT-5f" d="M -97 -1272 
L -97 -866 
L 3631 -866 
L 3631 -1272 
L -97 -1272 
z
" transform="scale(0.015625)"/>
      <path id="ArialMT-73" d="M 197 991 
L 753 1078 
Q 800 744 1014 566 
Q 1228 388 1613 388 
Q 2000 388 2187 545 
Q 2375 703 2375 916 
Q 2375 1106 2209 1216 
Q 2094 1291 1634 1406 
Q 1016 1563 777 1677 
Q 538 1791 414 1992 
Q 291 2194 291 2438 
Q 291 2659 392 2848 
Q 494 3038 669 3163 
Q 800 3259 1026 3326 
Q 1253 3394 1513 3394 
Q 1903 3394 2198 3281 
Q 2494 3169 2634 2976 
Q 2775 2784 2828 2463 
L 2278 2388 
Q 2241 2644 2061 2787 
Q 1881 2931 1553 2931 
Q 1166 2931 1000 2803 
Q 834 2675 834 2503 
Q 834 2394 903 2306 
Q 972 2216 1119 2156 
Q 1203 2125 1616 2013 
Q 2213 1853 2448 1751 
Q 2684 1650 2818 1456 
Q 2953 1263 2953 975 
Q 2953 694 2789 445 
Q 2625 197 2315 61 
Q 2006 -75 1616 -75 
Q 969 -75 630 194 
Q 291 463 197 991 
z
" transform="scale(0.015625)"/>
      <path id="ArialMT-6f" d="M 213 1659 
Q 213 2581 725 3025 
Q 1153 3394 1769 3394 
Q 2453 3394 2887 2945 
Q 3322 2497 3322 1706 
Q 3322 1066 3130 698 
Q 2938 331 2570 128 
Q 2203 -75 1769 -75 
Q 1072 -75 642 372 
Q 213 819 213 1659 
z
M 791 1659 
Q 791 1022 1069 705 
Q 1347 388 1769 388 
Q 2188 388 2466 706 
Q 2744 1025 2744 1678 
Q 2744 2294 2464 2611 
Q 2184 2928 1769 2928 
Q 1347 2928 1069 2612 
Q 791 2297 791 1659 
z
" transform="scale(0.015625)"/>
      <path id="ArialMT-64" d="M 2575 0 
L 2575 419 
Q 2259 -75 1647 -75 
Q 1250 -75 917 144 
Q 584 363 401 755 
Q 219 1147 219 1656 
Q 219 2153 384 2558 
Q 550 2963 881 3178 
Q 1213 3394 1622 3394 
Q 1922 3394 2156 3267 
Q 2391 3141 2538 2938 
L 2538 4581 
L 3097 4581 
L 3097 0 
L 2575 0 
z
M 797 1656 
Q 797 1019 1065 703 
Q 1334 388 1700 388 
Q 2069 388 2326 689 
Q 2584 991 2584 1609 
Q 2584 2291 2321 2609 
Q 2059 2928 1675 2928 
Q 1300 2928 1048 2622 
Q 797 2316 797 1656 
z
" transform="scale(0.015625)"/>
      <path id="ArialMT-2d" d="M 203 1375 
L 203 1941 
L 1931 1941 
L 1931 1375 
L 203 1375 
z
" transform="scale(0.015625)"/>
      <path id="ArialMT-50" d="M 494 0 
L 494 4581 
L 2222 4581 
Q 2678 4581 2919 4538 
Q 3256 4481 3484 4323 
Q 3713 4166 3852 3881 
Q 3991 3597 3991 3256 
Q 3991 2672 3619 2267 
Q 3247 1863 2275 1863 
L 1100 1863 
L 1100 0 
L 494 0 
z
M 1100 2403 
L 2284 2403 
Q 2872 2403 3119 2622 
Q 3366 2841 3366 3238 
Q 3366 3525 3220 3729 
Q 3075 3934 2838 4000 
Q 2684 4041 2272 4041 
L 1100 4041 
L 1100 2403 
z
" transform="scale(0.015625)"/>
      <path id="ArialMT-77" d="M 1034 0 
L 19 3319 
L 600 3319 
L 1128 1403 
L 1325 691 
Q 1338 744 1497 1375 
L 2025 3319 
L 2603 3319 
L 3100 1394 
L 3266 759 
L 3456 1400 
L 4025 3319 
L 4572 3319 
L 3534 0 
L 2950 0 
L 2422 1988 
L 2294 2553 
L 1622 0 
L 1034 0 
z
" transform="scale(0.015625)"/>
      <path id="ArialMT-6d" d="M 422 0 
L 422 3319 
L 925 3319 
L 925 2853 
Q 1081 3097 1340 3245 
Q 1600 3394 1931 3394 
Q 2300 3394 2536 3241 
Q 2772 3088 2869 2813 
Q 3263 3394 3894 3394 
Q 4388 3394 4653 3120 
Q 4919 2847 4919 2278 
L 4919 0 
L 4359 0 
L 4359 2091 
Q 4359 2428 4304 2576 
Q 4250 2725 4106 2815 
Q 3963 2906 3769 2906 
Q 3419 2906 3187 2673 
Q 2956 2441 2956 1928 
L 2956 0 
L 2394 0 
L 2394 2156 
Q 2394 2531 2256 2718 
Q 2119 2906 1806 2906 
Q 1569 2906 1367 2781 
Q 1166 2656 1075 2415 
Q 984 2175 984 1722 
L 984 0 
L 422 0 
z
" transform="scale(0.015625)"/>
     </defs>
     <use xlink:href="#ArialMT-70"/>
     <use xlink:href="#ArialMT-61" x="55.615234"/>
     <use xlink:href="#ArialMT-74" x="111.230469"/>
     <use xlink:href="#ArialMT-69" x="139.013672"/>
     <use xlink:href="#ArialMT-65" x="161.230469"/>
     <use xlink:href="#ArialMT-6e" x="216.845703"/>
     <use xlink:href="#ArialMT-74" x="272.460938"/>
     <use xlink:href="#ArialMT-30" x="300.244141"/>
     <use xlink:href="#ArialMT-36" x="355.859375"/>
     <use xlink:href="#ArialMT-5f" x="411.474609"/>
     <use xlink:href="#ArialMT-61" x="467.089844"/>
     <use xlink:href="#ArialMT-70" x="522.705078"/>
     <use xlink:href="#ArialMT-70" x="578.320312"/>
     <use xlink:href="#ArialMT-30" x="633.935547"/>
     <use xlink:href="#ArialMT-31" x="689.550781"/>
     <use xlink:href="#ArialMT-5f" x="745.166016"/>
     <use xlink:href="#ArialMT-73" x="800.78125"/>
     <use xlink:href="#ArialMT-65" x="850.78125"/>
     <use xlink:href="#ArialMT-63" x="906.396484"/>
     <use xlink:href="#ArialMT-6f" x="956.396484"/>
     <use xlink:href="#ArialMT-6e" x="1012.011719"/>
     <use xlink:href="#ArialMT-64" x="1067.626953"/>
     <use xlink:href="#ArialMT-20" x="1123.242188"/>
     <use xlink:href="#ArialMT-2d" x="1151.025391"/>
     <use xlink:href="#ArialMT-20" x="1184.326172"/>
     <use xlink:href="#ArialMT-50" x="1212.109375"/>
     <use xlink:href="#ArialMT-6f" x="1278.808594"/>
     <use xlink:href="#ArialMT-77" x="1334.423828"/>
     <use xlink:href="#ArialMT-65" x="1406.640625"/>
     <use xlink:href="#ArialMT-72" x="1462.255859"/>
     <use xlink:href="#ArialMT-20" x="1495.556641"/>
     <use xlink:href="#ArialMT-73" x="1523.339844"/>
     <use xlink:href="#ArialMT-70" x="1573.339844"/>
     <use xlink:href="#ArialMT-65" x="1628.955078"/>
     <use xlink:href="#ArialMT-63" x="1684.570312"/>
     <use xlink:href="#ArialMT-74" x="1734.570312"/>
     <use xlink:href="#ArialMT-72" x="1762.353516"/>
     <use xlink:href="#ArialMT-75" x="1795.654297"/>
     <use xlink:href="#ArialMT-6d" x="1851.269531"/>
    </g>
   </g>
  </g>
 </g>
 <defs>
  <clipPath id="pee77c330ac">
   <rect x="54" y="34.56" width="334.8" height="217.44"/>
  </clipPath>
 </defs>
</svg>
