<?xml version="1.0" encoding="utf-8" standalone="no"?>
<!DOCTYPE svg PUBLIC "-//W3C//DTD SVG 1.1//EN"
  "http://www.w3.org/Graphics/SVG/1.1/DTD/svg11.dtd">
<svg xmlns:xlink="http://www.w3.org/1999/xlink" width="432pt" height="288pt" viewBox="0 0 432 288" xmlns="http://www.w3.org/2000/svg" version="1.1">
 <metadata>
  <rdf:RDF xmlns:dc="http://purl.org/dc/elements/1.1/" xmlns:cc="http://creativecommons.org/ns#" xmlns:rdf="http://www.w3.org/1999/02/22-rdf-syntax-ns#">
   <cc:Work>
    <dc:type rdf:resource="http://purl.org/dc/dcmitype/StillImage"/>
    <dc:date>2022-07-08T13:41:48.742140</dc:date>
    <dc:format>image/svg+xml</dc:format>
    <dc:creator>
     <cc:Agent>
      <dc:title>Matplotlib v3.5.1, https://matplotlib.org/</dc:title>
     </cc:Agent>
    </dc:creator>
   </cc:Work>
  </rdf:RDF>
 </metadata>
 <defs>
  <style type="text/css">*{stroke-linejoin: round; stroke-linecap: butt}</style>
 </defs>
 <g id="figure_1">
  <g id="patch_1">
   <path d="M 0 288 
L 432 288 
L 432 0 
L 0 0 
z
" style="fill: #ffffff"/>
  </g>
  <g id="axes_1">
   <g id="patch_2">
    <path d="M 54 252 
L 388.8 252 
L 388.8 34.56 
L 54 34.56 
z
" style="fill: #ffffff"/>
   </g>
   <g id="matplotlib.axis_1">
    <g id="xtick_1">
     <g id="line2d_1">
      <defs>
       <path id="mb8468359ec" d="M 0 0 
L 0 6 
" style="stroke: #262626; stroke-width: 1.25"/>
      </defs>
      <g>
       <use xlink:href="#mb8468359ec" x="54" y="252" style="fill: #262626; stroke: #262626; stroke-width: 1.25"/>
      </g>
     </g>
     <g id="text_1">
      <!-- 0 -->
      <g style="fill: #262626" transform="translate(50.941484 269.373594)scale(0.11 -0.11)">
       <defs>
        <path id="ArialMT-30" d="M 266 2259 
Q 266 3072 433 3567 
Q 600 4063 929 4331 
Q 1259 4600 1759 4600 
Q 2128 4600 2406 4451 
Q 2684 4303 2865 4023 
Q 3047 3744 3150 3342 
Q 3253 2941 3253 2259 
Q 3253 1453 3087 958 
Q 2922 463 2592 192 
Q 2263 -78 1759 -78 
Q 1097 -78 719 397 
Q 266 969 266 2259 
z
M 844 2259 
Q 844 1131 1108 757 
Q 1372 384 1759 384 
Q 2147 384 2411 759 
Q 2675 1134 2675 2259 
Q 2675 3391 2411 3762 
Q 2147 4134 1753 4134 
Q 1366 4134 1134 3806 
Q 844 3388 844 2259 
z
" transform="scale(0.015625)"/>
       </defs>
       <use xlink:href="#ArialMT-30"/>
      </g>
     </g>
    </g>
    <g id="xtick_2">
     <g id="line2d_2">
      <g>
       <use xlink:href="#mb8468359ec" x="109.8" y="252" style="fill: #262626; stroke: #262626; stroke-width: 1.25"/>
      </g>
     </g>
     <g id="text_2">
      <!-- 5 -->
      <g style="fill: #262626" transform="translate(106.741484 269.373594)scale(0.11 -0.11)">
       <defs>
        <path id="ArialMT-35" d="M 266 1200 
L 856 1250 
Q 922 819 1161 601 
Q 1400 384 1738 384 
Q 2144 384 2425 690 
Q 2706 997 2706 1503 
Q 2706 1984 2436 2262 
Q 2166 2541 1728 2541 
Q 1456 2541 1237 2417 
Q 1019 2294 894 2097 
L 366 2166 
L 809 4519 
L 3088 4519 
L 3088 3981 
L 1259 3981 
L 1013 2750 
Q 1425 3038 1878 3038 
Q 2478 3038 2890 2622 
Q 3303 2206 3303 1553 
Q 3303 931 2941 478 
Q 2500 -78 1738 -78 
Q 1113 -78 717 272 
Q 322 622 266 1200 
z
" transform="scale(0.015625)"/>
       </defs>
       <use xlink:href="#ArialMT-35"/>
      </g>
     </g>
    </g>
    <g id="xtick_3">
     <g id="line2d_3">
      <g>
       <use xlink:href="#mb8468359ec" x="165.6" y="252" style="fill: #262626; stroke: #262626; stroke-width: 1.25"/>
      </g>
     </g>
     <g id="text_3">
      <!-- 10 -->
      <g style="fill: #262626" transform="translate(159.482969 269.373594)scale(0.11 -0.11)">
       <defs>
        <path id="ArialMT-31" d="M 2384 0 
L 1822 0 
L 1822 3584 
Q 1619 3391 1289 3197 
Q 959 3003 697 2906 
L 697 3450 
Q 1169 3672 1522 3987 
Q 1875 4303 2022 4600 
L 2384 4600 
L 2384 0 
z
" transform="scale(0.015625)"/>
       </defs>
       <use xlink:href="#ArialMT-31"/>
       <use xlink:href="#ArialMT-30" x="55.615234"/>
      </g>
     </g>
    </g>
    <g id="xtick_4">
     <g id="line2d_4">
      <g>
       <use xlink:href="#mb8468359ec" x="221.4" y="252" style="fill: #262626; stroke: #262626; stroke-width: 1.25"/>
      </g>
     </g>
     <g id="text_4">
      <!-- 15 -->
      <g style="fill: #262626" transform="translate(215.282969 269.373594)scale(0.11 -0.11)">
       <use xlink:href="#ArialMT-31"/>
       <use xlink:href="#ArialMT-35" x="55.615234"/>
      </g>
     </g>
    </g>
    <g id="xtick_5">
     <g id="line2d_5">
      <g>
       <use xlink:href="#mb8468359ec" x="277.2" y="252" style="fill: #262626; stroke: #262626; stroke-width: 1.25"/>
      </g>
     </g>
     <g id="text_5">
      <!-- 20 -->
      <g style="fill: #262626" transform="translate(271.082969 269.373594)scale(0.11 -0.11)">
       <defs>
        <path id="ArialMT-32" d="M 3222 541 
L 3222 0 
L 194 0 
Q 188 203 259 391 
Q 375 700 629 1000 
Q 884 1300 1366 1694 
Q 2113 2306 2375 2664 
Q 2638 3022 2638 3341 
Q 2638 3675 2398 3904 
Q 2159 4134 1775 4134 
Q 1369 4134 1125 3890 
Q 881 3647 878 3216 
L 300 3275 
Q 359 3922 746 4261 
Q 1134 4600 1788 4600 
Q 2447 4600 2831 4234 
Q 3216 3869 3216 3328 
Q 3216 3053 3103 2787 
Q 2991 2522 2730 2228 
Q 2469 1934 1863 1422 
Q 1356 997 1212 845 
Q 1069 694 975 541 
L 3222 541 
z
" transform="scale(0.015625)"/>
       </defs>
       <use xlink:href="#ArialMT-32"/>
       <use xlink:href="#ArialMT-30" x="55.615234"/>
      </g>
     </g>
    </g>
    <g id="xtick_6">
     <g id="line2d_6">
      <g>
       <use xlink:href="#mb8468359ec" x="333" y="252" style="fill: #262626; stroke: #262626; stroke-width: 1.25"/>
      </g>
     </g>
     <g id="text_6">
      <!-- 25 -->
      <g style="fill: #262626" transform="translate(326.882969 269.373594)scale(0.11 -0.11)">
       <use xlink:href="#ArialMT-32"/>
       <use xlink:href="#ArialMT-35" x="55.615234"/>
      </g>
     </g>
    </g>
    <g id="xtick_7">
     <g id="line2d_7">
      <g>
       <use xlink:href="#mb8468359ec" x="388.8" y="252" style="fill: #262626; stroke: #262626; stroke-width: 1.25"/>
      </g>
     </g>
     <g id="text_7">
      <!-- 30 -->
      <g style="fill: #262626" transform="translate(382.682969 269.373594)scale(0.11 -0.11)">
       <defs>
        <path id="ArialMT-33" d="M 269 1209 
L 831 1284 
Q 928 806 1161 595 
Q 1394 384 1728 384 
Q 2125 384 2398 659 
Q 2672 934 2672 1341 
Q 2672 1728 2419 1979 
Q 2166 2231 1775 2231 
Q 1616 2231 1378 2169 
L 1441 2663 
Q 1497 2656 1531 2656 
Q 1891 2656 2178 2843 
Q 2466 3031 2466 3422 
Q 2466 3731 2256 3934 
Q 2047 4138 1716 4138 
Q 1388 4138 1169 3931 
Q 950 3725 888 3313 
L 325 3413 
Q 428 3978 793 4289 
Q 1159 4600 1703 4600 
Q 2078 4600 2393 4439 
Q 2709 4278 2876 4000 
Q 3044 3722 3044 3409 
Q 3044 3113 2884 2869 
Q 2725 2625 2413 2481 
Q 2819 2388 3044 2092 
Q 3269 1797 3269 1353 
Q 3269 753 2831 336 
Q 2394 -81 1725 -81 
Q 1122 -81 723 278 
Q 325 638 269 1209 
z
" transform="scale(0.015625)"/>
       </defs>
       <use xlink:href="#ArialMT-33"/>
       <use xlink:href="#ArialMT-30" x="55.615234"/>
      </g>
     </g>
    </g>
    <g id="text_8">
     <!-- Frequency (Hz) -->
     <g style="fill: #262626" transform="translate(180.059063 284.295469)scale(0.12 -0.12)">
      <defs>
       <path id="ArialMT-46" d="M 525 0 
L 525 4581 
L 3616 4581 
L 3616 4041 
L 1131 4041 
L 1131 2622 
L 3281 2622 
L 3281 2081 
L 1131 2081 
L 1131 0 
L 525 0 
z
" transform="scale(0.015625)"/>
       <path id="ArialMT-72" d="M 416 0 
L 416 3319 
L 922 3319 
L 922 2816 
Q 1116 3169 1280 3281 
Q 1444 3394 1641 3394 
Q 1925 3394 2219 3213 
L 2025 2691 
Q 1819 2813 1613 2813 
Q 1428 2813 1281 2702 
Q 1134 2591 1072 2394 
Q 978 2094 978 1738 
L 978 0 
L 416 0 
z
" transform="scale(0.015625)"/>
       <path id="ArialMT-65" d="M 2694 1069 
L 3275 997 
Q 3138 488 2766 206 
Q 2394 -75 1816 -75 
Q 1088 -75 661 373 
Q 234 822 234 1631 
Q 234 2469 665 2931 
Q 1097 3394 1784 3394 
Q 2450 3394 2872 2941 
Q 3294 2488 3294 1666 
Q 3294 1616 3291 1516 
L 816 1516 
Q 847 969 1125 678 
Q 1403 388 1819 388 
Q 2128 388 2347 550 
Q 2566 713 2694 1069 
z
M 847 1978 
L 2700 1978 
Q 2663 2397 2488 2606 
Q 2219 2931 1791 2931 
Q 1403 2931 1139 2672 
Q 875 2413 847 1978 
z
" transform="scale(0.015625)"/>
       <path id="ArialMT-71" d="M 2538 -1272 
L 2538 353 
Q 2406 169 2170 47 
Q 1934 -75 1669 -75 
Q 1078 -75 651 397 
Q 225 869 225 1691 
Q 225 2191 398 2587 
Q 572 2984 901 3189 
Q 1231 3394 1625 3394 
Q 2241 3394 2594 2875 
L 2594 3319 
L 3100 3319 
L 3100 -1272 
L 2538 -1272 
z
M 803 1669 
Q 803 1028 1072 708 
Q 1341 388 1716 388 
Q 2075 388 2334 692 
Q 2594 997 2594 1619 
Q 2594 2281 2320 2615 
Q 2047 2950 1678 2950 
Q 1313 2950 1058 2639 
Q 803 2328 803 1669 
z
" transform="scale(0.015625)"/>
       <path id="ArialMT-75" d="M 2597 0 
L 2597 488 
Q 2209 -75 1544 -75 
Q 1250 -75 995 37 
Q 741 150 617 320 
Q 494 491 444 738 
Q 409 903 409 1263 
L 409 3319 
L 972 3319 
L 972 1478 
Q 972 1038 1006 884 
Q 1059 663 1231 536 
Q 1403 409 1656 409 
Q 1909 409 2131 539 
Q 2353 669 2445 892 
Q 2538 1116 2538 1541 
L 2538 3319 
L 3100 3319 
L 3100 0 
L 2597 0 
z
" transform="scale(0.015625)"/>
       <path id="ArialMT-6e" d="M 422 0 
L 422 3319 
L 928 3319 
L 928 2847 
Q 1294 3394 1984 3394 
Q 2284 3394 2536 3286 
Q 2788 3178 2913 3003 
Q 3038 2828 3088 2588 
Q 3119 2431 3119 2041 
L 3119 0 
L 2556 0 
L 2556 2019 
Q 2556 2363 2490 2533 
Q 2425 2703 2258 2804 
Q 2091 2906 1866 2906 
Q 1506 2906 1245 2678 
Q 984 2450 984 1813 
L 984 0 
L 422 0 
z
" transform="scale(0.015625)"/>
       <path id="ArialMT-63" d="M 2588 1216 
L 3141 1144 
Q 3050 572 2676 248 
Q 2303 -75 1759 -75 
Q 1078 -75 664 370 
Q 250 816 250 1647 
Q 250 2184 428 2587 
Q 606 2991 970 3192 
Q 1334 3394 1763 3394 
Q 2303 3394 2647 3120 
Q 2991 2847 3088 2344 
L 2541 2259 
Q 2463 2594 2264 2762 
Q 2066 2931 1784 2931 
Q 1359 2931 1093 2626 
Q 828 2322 828 1663 
Q 828 994 1084 691 
Q 1341 388 1753 388 
Q 2084 388 2306 591 
Q 2528 794 2588 1216 
z
" transform="scale(0.015625)"/>
       <path id="ArialMT-79" d="M 397 -1278 
L 334 -750 
Q 519 -800 656 -800 
Q 844 -800 956 -737 
Q 1069 -675 1141 -563 
Q 1194 -478 1313 -144 
Q 1328 -97 1363 -6 
L 103 3319 
L 709 3319 
L 1400 1397 
Q 1534 1031 1641 628 
Q 1738 1016 1872 1384 
L 2581 3319 
L 3144 3319 
L 1881 -56 
Q 1678 -603 1566 -809 
Q 1416 -1088 1222 -1217 
Q 1028 -1347 759 -1347 
Q 597 -1347 397 -1278 
z
" transform="scale(0.015625)"/>
       <path id="ArialMT-20" transform="scale(0.015625)"/>
       <path id="ArialMT-28" d="M 1497 -1347 
Q 1031 -759 709 28 
Q 388 816 388 1659 
Q 388 2403 628 3084 
Q 909 3875 1497 4659 
L 1900 4659 
Q 1522 4009 1400 3731 
Q 1209 3300 1100 2831 
Q 966 2247 966 1656 
Q 966 153 1900 -1347 
L 1497 -1347 
z
" transform="scale(0.015625)"/>
       <path id="ArialMT-48" d="M 513 0 
L 513 4581 
L 1119 4581 
L 1119 2700 
L 3500 2700 
L 3500 4581 
L 4106 4581 
L 4106 0 
L 3500 0 
L 3500 2159 
L 1119 2159 
L 1119 0 
L 513 0 
z
" transform="scale(0.015625)"/>
       <path id="ArialMT-7a" d="M 125 0 
L 125 456 
L 2238 2881 
Q 1878 2863 1603 2863 
L 250 2863 
L 250 3319 
L 2963 3319 
L 2963 2947 
L 1166 841 
L 819 456 
Q 1197 484 1528 484 
L 3063 484 
L 3063 0 
L 125 0 
z
" transform="scale(0.015625)"/>
       <path id="ArialMT-29" d="M 791 -1347 
L 388 -1347 
Q 1322 153 1322 1656 
Q 1322 2244 1188 2822 
Q 1081 3291 891 3722 
Q 769 4003 388 4659 
L 791 4659 
Q 1378 3875 1659 3084 
Q 1900 2403 1900 1659 
Q 1900 816 1576 28 
Q 1253 -759 791 -1347 
z
" transform="scale(0.015625)"/>
      </defs>
      <use xlink:href="#ArialMT-46"/>
      <use xlink:href="#ArialMT-72" x="61.083984"/>
      <use xlink:href="#ArialMT-65" x="94.384766"/>
      <use xlink:href="#ArialMT-71" x="150"/>
      <use xlink:href="#ArialMT-75" x="205.615234"/>
      <use xlink:href="#ArialMT-65" x="261.230469"/>
      <use xlink:href="#ArialMT-6e" x="316.845703"/>
      <use xlink:href="#ArialMT-63" x="372.460938"/>
      <use xlink:href="#ArialMT-79" x="422.460938"/>
      <use xlink:href="#ArialMT-20" x="472.460938"/>
      <use xlink:href="#ArialMT-28" x="500.244141"/>
      <use xlink:href="#ArialMT-48" x="533.544922"/>
      <use xlink:href="#ArialMT-7a" x="605.761719"/>
      <use xlink:href="#ArialMT-29" x="655.761719"/>
     </g>
    </g>
   </g>
   <g id="matplotlib.axis_2">
    <g id="ytick_1">
     <g id="line2d_8">
      <defs>
       <path id="m5a5ffc9d70" d="M 0 0 
L -6 0 
" style="stroke: #262626; stroke-width: 1.25"/>
      </defs>
      <g>
       <use xlink:href="#m5a5ffc9d70" x="54" y="242.116364" style="fill: #262626; stroke: #262626; stroke-width: 1.25"/>
      </g>
     </g>
     <g id="text_9">
      <!-- 0.0 -->
      <g style="fill: #262626" transform="translate(29.21 246.053161)scale(0.11 -0.11)">
       <defs>
        <path id="ArialMT-2e" d="M 581 0 
L 581 641 
L 1222 641 
L 1222 0 
L 581 0 
z
" transform="scale(0.015625)"/>
       </defs>
       <use xlink:href="#ArialMT-30"/>
       <use xlink:href="#ArialMT-2e" x="55.615234"/>
       <use xlink:href="#ArialMT-30" x="83.398438"/>
      </g>
     </g>
    </g>
    <g id="ytick_2">
     <g id="line2d_9">
      <g>
       <use xlink:href="#m5a5ffc9d70" x="54" y="202.581818" style="fill: #262626; stroke: #262626; stroke-width: 1.25"/>
      </g>
     </g>
     <g id="text_10">
      <!-- 0.2 -->
      <g style="fill: #262626" transform="translate(29.21 206.518615)scale(0.11 -0.11)">
       <use xlink:href="#ArialMT-30"/>
       <use xlink:href="#ArialMT-2e" x="55.615234"/>
       <use xlink:href="#ArialMT-32" x="83.398438"/>
      </g>
     </g>
    </g>
    <g id="ytick_3">
     <g id="line2d_10">
      <g>
       <use xlink:href="#m5a5ffc9d70" x="54" y="163.047273" style="fill: #262626; stroke: #262626; stroke-width: 1.25"/>
      </g>
     </g>
     <g id="text_11">
      <!-- 0.4 -->
      <g style="fill: #262626" transform="translate(29.21 166.98407)scale(0.11 -0.11)">
       <defs>
        <path id="ArialMT-34" d="M 2069 0 
L 2069 1097 
L 81 1097 
L 81 1613 
L 2172 4581 
L 2631 4581 
L 2631 1613 
L 3250 1613 
L 3250 1097 
L 2631 1097 
L 2631 0 
L 2069 0 
z
M 2069 1613 
L 2069 3678 
L 634 1613 
L 2069 1613 
z
" transform="scale(0.015625)"/>
       </defs>
       <use xlink:href="#ArialMT-30"/>
       <use xlink:href="#ArialMT-2e" x="55.615234"/>
       <use xlink:href="#ArialMT-34" x="83.398438"/>
      </g>
     </g>
    </g>
    <g id="ytick_4">
     <g id="line2d_11">
      <g>
       <use xlink:href="#m5a5ffc9d70" x="54" y="123.512727" style="fill: #262626; stroke: #262626; stroke-width: 1.25"/>
      </g>
     </g>
     <g id="text_12">
      <!-- 0.6 -->
      <g style="fill: #262626" transform="translate(29.21 127.449524)scale(0.11 -0.11)">
       <defs>
        <path id="ArialMT-36" d="M 3184 3459 
L 2625 3416 
Q 2550 3747 2413 3897 
Q 2184 4138 1850 4138 
Q 1581 4138 1378 3988 
Q 1113 3794 959 3422 
Q 806 3050 800 2363 
Q 1003 2672 1297 2822 
Q 1591 2972 1913 2972 
Q 2475 2972 2870 2558 
Q 3266 2144 3266 1488 
Q 3266 1056 3080 686 
Q 2894 316 2569 119 
Q 2244 -78 1831 -78 
Q 1128 -78 684 439 
Q 241 956 241 2144 
Q 241 3472 731 4075 
Q 1159 4600 1884 4600 
Q 2425 4600 2770 4297 
Q 3116 3994 3184 3459 
z
M 888 1484 
Q 888 1194 1011 928 
Q 1134 663 1356 523 
Q 1578 384 1822 384 
Q 2178 384 2434 671 
Q 2691 959 2691 1453 
Q 2691 1928 2437 2201 
Q 2184 2475 1800 2475 
Q 1419 2475 1153 2201 
Q 888 1928 888 1484 
z
" transform="scale(0.015625)"/>
       </defs>
       <use xlink:href="#ArialMT-30"/>
       <use xlink:href="#ArialMT-2e" x="55.615234"/>
       <use xlink:href="#ArialMT-36" x="83.398438"/>
      </g>
     </g>
    </g>
    <g id="ytick_5">
     <g id="line2d_12">
      <g>
       <use xlink:href="#m5a5ffc9d70" x="54" y="83.978182" style="fill: #262626; stroke: #262626; stroke-width: 1.25"/>
      </g>
     </g>
     <g id="text_13">
      <!-- 0.8 -->
      <g style="fill: #262626" transform="translate(29.21 87.914979)scale(0.11 -0.11)">
       <defs>
        <path id="ArialMT-38" d="M 1131 2484 
Q 781 2613 612 2850 
Q 444 3088 444 3419 
Q 444 3919 803 4259 
Q 1163 4600 1759 4600 
Q 2359 4600 2725 4251 
Q 3091 3903 3091 3403 
Q 3091 3084 2923 2848 
Q 2756 2613 2416 2484 
Q 2838 2347 3058 2040 
Q 3278 1734 3278 1309 
Q 3278 722 2862 322 
Q 2447 -78 1769 -78 
Q 1091 -78 675 323 
Q 259 725 259 1325 
Q 259 1772 486 2073 
Q 713 2375 1131 2484 
z
M 1019 3438 
Q 1019 3113 1228 2906 
Q 1438 2700 1772 2700 
Q 2097 2700 2305 2904 
Q 2513 3109 2513 3406 
Q 2513 3716 2298 3927 
Q 2084 4138 1766 4138 
Q 1444 4138 1231 3931 
Q 1019 3725 1019 3438 
z
M 838 1322 
Q 838 1081 952 856 
Q 1066 631 1291 507 
Q 1516 384 1775 384 
Q 2178 384 2440 643 
Q 2703 903 2703 1303 
Q 2703 1709 2433 1975 
Q 2163 2241 1756 2241 
Q 1359 2241 1098 1978 
Q 838 1716 838 1322 
z
" transform="scale(0.015625)"/>
       </defs>
       <use xlink:href="#ArialMT-30"/>
       <use xlink:href="#ArialMT-2e" x="55.615234"/>
       <use xlink:href="#ArialMT-38" x="83.398438"/>
      </g>
     </g>
    </g>
    <g id="ytick_6">
     <g id="line2d_13">
      <g>
       <use xlink:href="#m5a5ffc9d70" x="54" y="44.443636" style="fill: #262626; stroke: #262626; stroke-width: 1.25"/>
      </g>
     </g>
     <g id="text_14">
      <!-- 1.0 -->
      <g style="fill: #262626" transform="translate(29.21 48.380433)scale(0.11 -0.11)">
       <use xlink:href="#ArialMT-31"/>
       <use xlink:href="#ArialMT-2e" x="55.615234"/>
       <use xlink:href="#ArialMT-30" x="83.398438"/>
      </g>
     </g>
    </g>
   </g>
   <g id="line2d_14">
    <path d="M 54 242.106048 
L 155.20162 242.051491 
L 157.288252 241.992432 
L 158.331567 242.101826 
L 159.374883 241.891853 
L 160.418199 242.088104 
L 161.461514 242.079583 
L 162.50483 241.881539 
L 164.591462 240.876156 
L 165.634777 241.326781 
L 166.678093 237.020348 
L 167.721409 236.010237 
L 168.764724 235.553949 
L 169.80804 239.765831 
L 170.851356 233.69287 
L 171.894671 241.518604 
L 172.937987 241.062364 
L 173.981303 241.183089 
L 175.024618 240.796774 
L 176.067934 237.421104 
L 177.11125 235.920029 
L 178.154565 237.873748 
L 179.197881 240.637314 
L 180.241197 240.066336 
L 181.284512 241.26293 
L 182.327828 237.880745 
L 183.371144 235.364389 
L 184.414459 237.815508 
L 185.457775 237.796889 
L 186.501091 240.016597 
L 187.544406 240.539503 
L 188.587722 239.022358 
L 189.631038 239.42438 
L 190.674353 238.282306 
L 191.717669 229.312735 
L 192.760985 238.200568 
L 193.8043 233.983123 
L 194.847616 238.181936 
L 195.890932 241.819053 
L 196.934247 240.88268 
L 197.977563 241.778475 
L 199.020879 240.169008 
L 200.064194 240.360265 
L 201.10751 238.723629 
L 202.150826 236.469562 
L 203.194141 241.594885 
L 204.237457 241.880656 
L 205.280773 240.681043 
L 206.324089 241.819449 
L 207.367404 238.354264 
L 208.41072 239.079007 
L 209.454036 236.349289 
L 210.497351 231.584013 
L 211.540667 238.535595 
L 212.583983 238.904915 
L 214.670614 241.571836 
L 215.71393 240.419023 
L 216.757245 240.516657 
L 217.800561 239.154191 
L 218.843877 241.338919 
L 219.887192 241.957337 
L 220.930508 241.847057 
L 221.973824 241.227359 
L 223.017139 241.125697 
L 224.060455 239.04349 
L 225.103771 239.650665 
L 226.147086 234.497342 
L 227.190402 215.723334 
L 228.233718 44.443636 
L 229.277033 57.879998 
L 230.320349 158.11919 
L 231.363665 219.282883 
L 232.40698 213.577803 
L 233.450296 220.12836 
L 234.493612 237.884519 
L 235.536927 235.216051 
L 236.580243 239.473501 
L 237.623559 241.831422 
L 238.666874 240.147025 
L 239.71019 240.183359 
L 240.753506 238.395588 
L 241.796821 238.332311 
L 242.840137 240.349999 
L 243.883453 237.741481 
L 244.926768 238.117186 
L 245.970084 241.356459 
L 247.0134 241.8142 
L 248.056715 241.044047 
L 249.100031 241.609621 
L 250.143347 239.741998 
L 251.186663 240.922312 
L 252.229978 241.555348 
L 253.273294 241.845067 
L 254.31661 241.159994 
L 256.403241 240.732461 
L 257.446557 241.829203 
L 258.489872 241.48822 
L 259.533188 241.612336 
L 260.576504 241.952507 
L 261.619819 241.659352 
L 262.663135 241.605751 
L 263.706451 241.418661 
L 264.749766 241.350119 
L 265.793082 241.730771 
L 266.836398 241.892656 
L 268.923029 241.645141 
L 269.966345 241.97737 
L 271.00966 241.60775 
L 272.052976 240.976267 
L 274.139607 241.713973 
L 275.182923 241.715107 
L 277.269554 241.8822 
L 282.486133 241.942214 
L 284.572764 242.070146 
L 288.746027 242.012058 
L 293.962605 242.067896 
L 326.305391 242.103521 
L 388.904332 242.112612 
L 388.904332 242.112612 
" clip-path="url(#pa26261c4b6)" style="fill: none; stroke: #4c72b0; stroke-opacity: 0.3; stroke-width: 1.5; stroke-linecap: round"/>
   </g>
   <g id="line2d_15">
    <path d="M 54 242.061818 
L 136.421938 241.952864 
L 148.941726 241.821962 
L 149.985042 241.696413 
L 151.028358 241.75564 
L 152.071673 242.037012 
L 153.114989 241.633682 
L 154.158305 240.878318 
L 156.244936 241.926373 
L 157.288252 240.233871 
L 158.331567 242.077094 
L 159.374883 241.160141 
L 160.418199 239.994419 
L 161.461514 239.764508 
L 162.50483 234.034782 
L 163.548146 241.975803 
L 164.591462 232.041544 
L 165.634777 239.501863 
L 166.678093 239.283674 
L 167.721409 236.343784 
L 168.764724 241.670239 
L 169.80804 237.099635 
L 170.851356 234.294446 
L 171.894671 238.471339 
L 172.937987 215.000917 
L 173.981303 235.993237 
L 175.024618 224.060461 
L 176.067934 226.238546 
L 177.11125 240.205574 
L 178.154565 229.852732 
L 179.197881 237.209914 
L 180.241197 238.679692 
L 181.284512 233.948847 
L 182.327828 222.874218 
L 183.371144 219.469374 
L 184.414459 234.355133 
L 185.457775 222.751811 
L 186.501091 240.533194 
L 187.544406 237.540919 
L 188.587722 238.687008 
L 189.631038 241.198055 
L 190.674353 234.047649 
L 191.717669 241.706789 
L 192.760985 229.582896 
L 193.8043 233.801768 
L 194.847616 222.918827 
L 195.890932 238.309494 
L 196.934247 241.851456 
L 197.977563 239.07489 
L 199.020879 227.457607 
L 200.064194 237.271426 
L 201.10751 231.200833 
L 202.150826 236.26956 
L 203.194141 236.596719 
L 204.237457 240.162667 
L 205.280773 235.011597 
L 206.324089 239.971621 
L 207.367404 236.365552 
L 208.41072 238.303487 
L 209.454036 241.186667 
L 210.497351 231.966726 
L 211.540667 218.724731 
L 212.583983 226.421463 
L 213.627298 237.690324 
L 214.670614 226.762035 
L 215.71393 239.579027 
L 216.757245 228.985699 
L 217.800561 237.806555 
L 218.843877 239.949028 
L 219.887192 231.456991 
L 220.930508 241.139767 
L 221.973824 240.858637 
L 223.017139 241.214236 
L 224.060455 219.608728 
L 225.103771 236.234536 
L 226.147086 239.57746 
L 227.190402 128.813731 
L 228.233718 108.445479 
L 229.277033 44.443636 
L 230.320349 146.20548 
L 231.363665 218.131986 
L 232.40698 235.813755 
L 233.450296 240.930968 
L 234.493612 241.584472 
L 235.536927 240.415672 
L 236.580243 238.406535 
L 237.623559 237.415798 
L 238.666874 241.896153 
L 240.753506 240.695938 
L 241.796821 240.473745 
L 242.840137 242.003009 
L 243.883453 234.401523 
L 244.926768 241.12647 
L 245.970084 225.227227 
L 247.0134 230.188019 
L 248.056715 240.877502 
L 249.100031 241.432975 
L 250.143347 240.163472 
L 251.186663 236.790702 
L 252.229978 241.506453 
L 253.273294 242.022496 
L 254.31661 237.102499 
L 255.359925 239.217191 
L 256.403241 240.900018 
L 257.446557 240.544737 
L 258.489872 237.921363 
L 259.533188 241.602627 
L 260.576504 240.588337 
L 261.619819 239.248465 
L 262.663135 234.198242 
L 263.706451 236.785092 
L 264.749766 240.541699 
L 265.793082 241.377791 
L 266.836398 241.726003 
L 267.879713 241.581817 
L 268.923029 239.783286 
L 269.966345 241.529086 
L 271.00966 241.368657 
L 272.052976 241.883429 
L 273.096292 241.347366 
L 274.139607 242.0655 
L 275.182923 241.667884 
L 276.226239 241.112858 
L 277.269554 240.847486 
L 278.31287 241.101054 
L 279.356186 241.635239 
L 280.399501 241.306206 
L 281.442817 241.627106 
L 285.61608 242.103013 
L 288.746027 241.9349 
L 290.832658 242.035346 
L 299.179184 242.104285 
L 317.958866 242.115782 
L 388.904332 242.11606 
L 388.904332 242.11606 
" clip-path="url(#pa26261c4b6)" style="fill: none; stroke: #dd8452; stroke-opacity: 0.3; stroke-width: 1.5; stroke-linecap: round"/>
   </g>
   <g id="line2d_16">
    <path d="M 54 242.061137 
L 129.118729 241.955298 
L 144.768464 241.748346 
L 146.855095 241.686281 
L 147.898411 241.562879 
L 149.985042 241.560041 
L 151.028358 241.391019 
L 152.071673 241.34729 
L 153.114989 241.592171 
L 154.158305 241.321892 
L 155.20162 240.782818 
L 157.288252 240.665631 
L 158.331567 240.104387 
L 160.418199 241.286297 
L 161.461514 237.024949 
L 162.50483 241.110656 
L 163.548146 238.526789 
L 164.591462 241.474025 
L 165.634777 227.527947 
L 166.678093 232.224935 
L 167.721409 238.504485 
L 168.764724 236.28761 
L 169.80804 231.318626 
L 170.851356 236.328788 
L 171.894671 228.282623 
L 172.937987 234.78226 
L 173.981303 239.03484 
L 175.024618 237.336531 
L 176.067934 234.719151 
L 177.11125 236.595362 
L 178.154565 237.970255 
L 179.197881 235.866816 
L 180.241197 229.595635 
L 181.284512 239.688681 
L 182.327828 236.861545 
L 184.414459 239.745584 
L 185.457775 219.528787 
L 186.501091 208.88297 
L 187.544406 229.963658 
L 188.587722 230.066041 
L 189.631038 236.922514 
L 190.674353 241.603226 
L 191.717669 235.742581 
L 192.760985 221.142543 
L 193.8043 225.27137 
L 194.847616 232.375156 
L 195.890932 211.745584 
L 196.934247 236.550701 
L 197.977563 234.008216 
L 199.020879 227.355682 
L 200.064194 234.919035 
L 201.10751 240.7237 
L 202.150826 224.028401 
L 203.194141 229.202275 
L 204.237457 216.510068 
L 205.280773 220.865064 
L 206.324089 227.66504 
L 207.367404 228.908085 
L 208.41072 231.447874 
L 209.454036 241.865022 
L 210.497351 227.042123 
L 211.540667 221.648705 
L 212.583983 205.241834 
L 214.670614 238.591613 
L 215.71393 225.063642 
L 216.757245 219.329545 
L 217.800561 236.055506 
L 218.843877 239.153494 
L 219.887192 217.46461 
L 220.930508 230.713665 
L 221.973824 230.350836 
L 223.017139 240.841716 
L 224.060455 240.654248 
L 225.103771 234.391549 
L 226.147086 194.680439 
L 227.190402 126.595827 
L 228.233718 44.443636 
L 229.277033 226.82796 
L 230.320349 241.437736 
L 231.363665 227.080421 
L 232.40698 222.731636 
L 233.450296 215.00102 
L 234.493612 228.897898 
L 235.536927 236.430269 
L 236.580243 237.470612 
L 237.623559 237.625782 
L 238.666874 238.888699 
L 239.71019 233.255691 
L 240.753506 236.27484 
L 241.796821 228.096765 
L 242.840137 229.726489 
L 243.883453 241.90379 
L 244.926768 235.656858 
L 245.970084 241.522965 
L 247.0134 233.359814 
L 248.056715 238.766771 
L 249.100031 240.868241 
L 250.143347 241.663153 
L 251.186663 242.083264 
L 252.229978 241.29761 
L 253.273294 240.96336 
L 254.31661 240.150241 
L 255.359925 241.902466 
L 256.403241 230.609065 
L 257.446557 241.626647 
L 258.489872 241.893755 
L 260.576504 241.930845 
L 261.619819 238.48553 
L 262.663135 231.624284 
L 263.706451 238.746857 
L 264.749766 240.143709 
L 265.793082 238.064351 
L 266.836398 240.289722 
L 267.879713 240.712642 
L 268.923029 238.581755 
L 269.966345 241.308973 
L 271.00966 241.975364 
L 273.096292 239.727644 
L 274.139607 241.729178 
L 275.182923 242.056109 
L 276.226239 241.19411 
L 277.269554 240.656467 
L 278.31287 239.273407 
L 279.356186 242.017052 
L 280.399501 239.712664 
L 281.442817 240.776486 
L 282.486133 241.674358 
L 283.529448 241.659935 
L 284.572764 242.004233 
L 286.659395 241.868475 
L 287.702711 241.966149 
L 289.789342 241.886548 
L 290.832658 241.967872 
L 293.962605 241.928217 
L 296.049237 242.00463 
L 321.088813 242.097499 
L 388.904332 242.112222 
L 388.904332 242.112222 
" clip-path="url(#pa26261c4b6)" style="fill: none; stroke: #55a868; stroke-opacity: 0.3; stroke-width: 1.5; stroke-linecap: round"/>
   </g>
   <g id="line2d_17">
    <path d="M 54 242.095926 
L 155.20162 242.014871 
L 157.288252 241.941208 
L 158.331567 242.048698 
L 159.374883 241.817757 
L 160.418199 242.054498 
L 161.461514 242.077192 
L 162.50483 241.933876 
L 163.548146 241.32408 
L 164.591462 241.052505 
L 165.634777 241.203235 
L 166.678093 236.568016 
L 167.721409 236.327321 
L 168.764724 234.56623 
L 169.80804 239.597263 
L 170.851356 234.601194 
L 171.894671 241.460472 
L 172.937987 241.711575 
L 173.981303 241.359231 
L 175.024618 240.675918 
L 176.067934 235.648842 
L 177.11125 236.933726 
L 178.154565 240.017408 
L 179.197881 241.495788 
L 180.241197 240.622072 
L 181.284512 241.134903 
L 182.327828 237.802203 
L 184.414459 239.972011 
L 185.457775 237.746853 
L 186.501091 239.272527 
L 187.544406 240.19568 
L 188.587722 238.565798 
L 189.631038 240.902674 
L 190.674353 238.547126 
L 191.717669 231.147368 
L 192.760985 237.004419 
L 193.8043 233.863658 
L 195.890932 241.541011 
L 196.934247 241.70627 
L 197.977563 241.419214 
L 199.020879 239.280524 
L 200.064194 240.967928 
L 201.10751 238.740144 
L 202.150826 237.854638 
L 203.194141 241.158176 
L 206.324089 241.800701 
L 207.367404 239.54492 
L 208.41072 240.739699 
L 209.454036 235.744932 
L 210.497351 233.157289 
L 211.540667 239.191462 
L 212.583983 238.29706 
L 213.627298 240.579137 
L 214.670614 241.882006 
L 215.71393 240.38774 
L 216.757245 239.702106 
L 217.800561 239.591402 
L 218.843877 240.991348 
L 219.887192 241.866416 
L 220.930508 241.999884 
L 223.017139 240.878907 
L 224.060455 237.234912 
L 225.103771 240.723205 
L 226.147086 233.062593 
L 227.190402 207.014146 
L 228.233718 45.574207 
L 229.277033 44.443636 
L 230.320349 149.628185 
L 231.363665 217.927079 
L 232.40698 209.374988 
L 233.450296 214.973713 
L 234.493612 235.770859 
L 235.536927 230.915706 
L 236.580243 239.435306 
L 237.623559 241.325462 
L 238.666874 239.337921 
L 239.71019 239.499493 
L 240.753506 237.297446 
L 241.796821 235.939216 
L 242.840137 238.551433 
L 243.883453 237.450126 
L 244.926768 237.387957 
L 245.970084 241.232514 
L 247.0134 241.564454 
L 248.056715 241.109275 
L 249.100031 241.253459 
L 250.143347 240.08481 
L 251.186663 241.278893 
L 252.229978 241.642384 
L 253.273294 241.390433 
L 254.31661 241.779851 
L 255.359925 240.785564 
L 256.403241 240.464298 
L 257.446557 241.72561 
L 258.489872 241.612601 
L 259.533188 241.37633 
L 260.576504 242.030023 
L 261.619819 241.733273 
L 266.836398 242.011735 
L 268.923029 241.722062 
L 269.966345 241.913745 
L 272.052976 241.205265 
L 273.096292 241.546508 
L 274.139607 241.626085 
L 275.182923 241.951158 
L 323.175444 242.102235 
L 388.904332 242.112354 
L 388.904332 242.112354 
" clip-path="url(#pa26261c4b6)" style="fill: none; stroke: #c44e52; stroke-opacity: 0.3; stroke-width: 1.5; stroke-linecap: round"/>
   </g>
   <g id="line2d_18">
    <path d="M 54 242.116364 
L 153.114989 242.010863 
L 154.158305 241.81765 
L 156.244936 242.013432 
L 157.288252 240.977137 
L 158.331567 241.924168 
L 160.418199 242.044814 
L 161.461514 241.14649 
L 162.50483 237.260702 
L 163.548146 239.449211 
L 164.591462 241.066828 
L 165.634777 238.732538 
L 166.678093 241.858091 
L 167.721409 233.573818 
L 168.764724 238.826405 
L 169.80804 241.507567 
L 170.851356 220.791116 
L 171.894671 236.922709 
L 172.937987 231.004492 
L 173.981303 201.809864 
L 175.024618 227.301829 
L 176.067934 224.26898 
L 177.11125 237.468935 
L 178.154565 234.504323 
L 179.197881 239.778239 
L 180.241197 236.062145 
L 181.284512 241.042118 
L 182.327828 213.615297 
L 183.371144 229.146199 
L 184.414459 224.334359 
L 186.501091 239.825397 
L 187.544406 239.747138 
L 188.587722 240.495773 
L 189.631038 240.157428 
L 190.674353 240.847357 
L 191.717669 230.377078 
L 192.760985 241.882725 
L 193.8043 228.054733 
L 194.847616 233.198675 
L 195.890932 236.603269 
L 196.934247 241.272052 
L 197.977563 239.854731 
L 199.020879 223.155481 
L 200.064194 241.253139 
L 201.10751 238.153192 
L 202.150826 241.271642 
L 203.194141 239.305327 
L 204.237457 241.461669 
L 205.280773 239.195995 
L 206.324089 242.104422 
L 207.367404 239.77459 
L 208.41072 240.099775 
L 209.454036 238.75483 
L 210.497351 235.859556 
L 211.540667 233.88367 
L 212.583983 236.171905 
L 213.627298 236.091946 
L 214.670614 235.620292 
L 215.71393 236.255386 
L 216.757245 241.081873 
L 218.843877 242.090918 
L 219.887192 239.558236 
L 220.930508 236.384272 
L 221.973824 238.928642 
L 223.017139 240.84709 
L 224.060455 236.431162 
L 225.103771 241.788191 
L 226.147086 178.322143 
L 227.190402 51.363127 
L 228.233718 44.742856 
L 229.277033 44.443636 
L 230.320349 152.562653 
L 231.363665 212.702231 
L 232.40698 229.07629 
L 233.450296 237.266981 
L 234.493612 238.252809 
L 235.536927 236.901676 
L 236.580243 241.64538 
L 237.623559 236.557728 
L 238.666874 238.955856 
L 239.71019 241.992083 
L 240.753506 237.623548 
L 241.796821 238.509022 
L 242.840137 239.945159 
L 243.883453 240.842802 
L 244.926768 240.278285 
L 245.970084 240.053045 
L 247.0134 235.971741 
L 248.056715 241.458959 
L 249.100031 240.592417 
L 250.143347 241.99542 
L 251.186663 237.74708 
L 252.229978 240.973473 
L 253.273294 240.392217 
L 254.31661 240.851162 
L 255.359925 237.501587 
L 256.403241 241.739839 
L 257.446557 240.995866 
L 258.489872 241.241533 
L 259.533188 240.010344 
L 261.619819 241.420535 
L 262.663135 240.687104 
L 263.706451 240.131972 
L 264.749766 242.022497 
L 265.793082 240.922773 
L 267.879713 241.874403 
L 268.923029 241.975469 
L 269.966345 241.191457 
L 272.052976 242.085304 
L 273.096292 242.06199 
L 274.139607 241.59028 
L 275.182923 242.075206 
L 276.226239 241.917964 
L 278.31287 241.896766 
L 279.356186 242.014958 
L 280.399501 241.766946 
L 281.442817 242.087809 
L 284.572764 242.069879 
L 285.61608 241.869083 
L 286.659395 242.057311 
L 296.049237 242.109579 
L 388.904332 242.116133 
L 388.904332 242.116133 
" clip-path="url(#pa26261c4b6)" style="fill: none; stroke: #8172b3; stroke-opacity: 0.3; stroke-width: 1.5; stroke-linecap: round"/>
   </g>
   <g id="line2d_19">
    <path d="M 54 242.113598 
L 149.985042 242.045497 
L 152.071673 241.940268 
L 153.114989 241.998966 
L 155.20162 241.752224 
L 156.244936 241.3758 
L 157.288252 241.674239 
L 159.374883 241.960194 
L 160.418199 242.046499 
L 162.50483 240.040431 
L 163.548146 237.017483 
L 164.591462 235.246519 
L 166.678093 237.806994 
L 167.721409 237.912791 
L 168.764724 240.728845 
L 169.80804 225.324245 
L 170.851356 226.994425 
L 171.894671 212.577458 
L 172.937987 209.521076 
L 173.981303 238.727993 
L 175.024618 238.00744 
L 176.067934 232.62327 
L 177.11125 240.625103 
L 178.154565 236.024572 
L 179.197881 237.361998 
L 180.241197 234.943698 
L 181.284512 225.717771 
L 182.327828 212.385235 
L 184.414459 239.53567 
L 185.457775 235.928301 
L 186.501091 226.78441 
L 187.544406 233.982126 
L 188.587722 239.103762 
L 189.631038 231.861818 
L 190.674353 227.405474 
L 191.717669 230.988491 
L 192.760985 194.238644 
L 193.8043 190.283171 
L 194.847616 223.781968 
L 195.890932 223.162178 
L 196.934247 233.271299 
L 197.977563 241.593802 
L 199.020879 214.459715 
L 200.064194 237.018673 
L 201.10751 232.394043 
L 202.150826 229.38392 
L 203.194141 227.023881 
L 204.237457 235.897384 
L 205.280773 230.399446 
L 206.324089 239.574058 
L 207.367404 234.656162 
L 208.41072 241.776893 
L 209.454036 225.05107 
L 210.497351 219.271849 
L 211.540667 204.200815 
L 212.583983 195.509498 
L 213.627298 218.88436 
L 214.670614 239.188263 
L 215.71393 239.829648 
L 216.757245 241.965854 
L 217.800561 229.336847 
L 218.843877 241.091975 
L 219.887192 238.884706 
L 220.930508 229.566407 
L 221.973824 215.184242 
L 223.017139 237.421186 
L 224.060455 238.963402 
L 225.103771 241.484215 
L 226.147086 211.826579 
L 227.190402 110.667232 
L 228.233718 44.443636 
L 229.277033 212.630756 
L 230.320349 238.30876 
L 231.363665 237.092622 
L 232.40698 227.970075 
L 233.450296 228.139283 
L 234.493612 225.376739 
L 235.536927 238.561359 
L 236.580243 234.675218 
L 237.623559 238.53656 
L 238.666874 239.103183 
L 239.71019 236.375682 
L 240.753506 235.426159 
L 241.796821 233.525336 
L 242.840137 221.265934 
L 243.883453 234.724871 
L 244.926768 233.442221 
L 245.970084 228.17479 
L 247.0134 236.477299 
L 248.056715 235.82552 
L 249.100031 241.060404 
L 250.143347 238.547847 
L 251.186663 241.367065 
L 252.229978 238.753358 
L 253.273294 237.029181 
L 254.31661 241.326956 
L 255.359925 240.317593 
L 256.403241 237.457483 
L 257.446557 240.750339 
L 259.533188 237.170769 
L 260.576504 242.058716 
L 262.663135 237.111399 
L 263.706451 238.274594 
L 264.749766 241.922155 
L 265.793082 240.927199 
L 266.836398 241.440682 
L 267.879713 241.788378 
L 268.923029 240.75881 
L 269.966345 241.793164 
L 271.00966 241.756428 
L 272.052976 240.710727 
L 273.096292 241.834452 
L 274.139607 241.869729 
L 275.182923 241.72936 
L 277.269554 241.77709 
L 278.31287 241.87981 
L 280.399501 240.935665 
L 281.442817 241.753911 
L 282.486133 242.066945 
L 283.529448 242.092466 
L 284.572764 241.976522 
L 285.61608 241.49362 
L 286.659395 241.970584 
L 287.702711 242.100245 
L 288.746027 241.999042 
L 291.875974 242.102274 
L 293.962605 242.072227 
L 296.049237 242.065743 
L 298.135868 242.055869 
L 302.309131 242.088129 
L 314.828919 242.102505 
L 353.431599 242.108609 
L 388.904332 242.111253 
L 388.904332 242.111253 
" clip-path="url(#pa26261c4b6)" style="fill: none; stroke: #937860; stroke-opacity: 0.3; stroke-width: 1.5; stroke-linecap: round"/>
   </g>
   <g id="line2d_20">
    <path d="M 54 242.089011 
L 155.20162 242.00959 
L 157.288252 241.818862 
L 158.331567 241.995927 
L 159.374883 241.569077 
L 160.418199 241.996855 
L 161.461514 242.100177 
L 162.50483 241.768502 
L 163.548146 240.440694 
L 164.591462 240.024011 
L 165.634777 240.770484 
L 166.678093 232.51337 
L 167.721409 229.33659 
L 168.764724 229.368291 
L 169.80804 240.148516 
L 170.851356 231.667272 
L 171.894671 241.659524 
L 172.937987 240.891867 
L 173.981303 240.889058 
L 176.067934 236.602797 
L 177.11125 234.090244 
L 178.154565 237.289478 
L 179.197881 239.422419 
L 180.241197 236.596114 
L 181.284512 239.817371 
L 182.327828 234.064773 
L 183.371144 233.249759 
L 184.414459 234.406016 
L 185.457775 236.219584 
L 186.501091 237.337445 
L 187.544406 240.705321 
L 188.587722 235.217429 
L 189.631038 240.601786 
L 190.674353 238.832234 
L 191.717669 227.187401 
L 192.760985 236.505237 
L 193.8043 232.177949 
L 194.847616 237.847195 
L 195.890932 242.020795 
L 196.934247 241.489274 
L 197.977563 242.089018 
L 199.020879 238.328948 
L 200.064194 241.113926 
L 201.10751 238.959025 
L 202.150826 237.28397 
L 203.194141 240.723792 
L 204.237457 241.303213 
L 205.280773 241.444344 
L 206.324089 241.849423 
L 207.367404 238.735271 
L 208.41072 240.199626 
L 209.454036 236.265161 
L 210.497351 233.506016 
L 211.540667 239.247202 
L 212.583983 236.849038 
L 214.670614 241.942014 
L 215.71393 238.676511 
L 217.800561 238.29224 
L 218.843877 241.337173 
L 219.887192 241.737322 
L 220.930508 241.995397 
L 221.973824 241.095766 
L 223.017139 239.816815 
L 224.060455 238.275837 
L 225.103771 240.612577 
L 226.147086 236.61795 
L 227.190402 214.742801 
L 228.233718 46.662131 
L 229.277033 44.443636 
L 231.363665 212.382866 
L 232.40698 205.272669 
L 233.450296 210.051479 
L 234.493612 234.664309 
L 235.536927 232.994574 
L 236.580243 236.640664 
L 237.623559 241.757008 
L 238.666874 237.879931 
L 239.71019 238.442474 
L 240.753506 237.016978 
L 241.796821 236.578191 
L 242.840137 239.897061 
L 243.883453 236.151498 
L 244.926768 236.777154 
L 245.970084 239.872731 
L 247.0134 239.791353 
L 248.056715 239.903349 
L 249.100031 240.657281 
L 250.143347 239.07485 
L 251.186663 240.63754 
L 252.229978 241.607501 
L 253.273294 240.91531 
L 254.31661 241.589449 
L 255.359925 240.163447 
L 257.446557 241.65029 
L 258.489872 241.958997 
L 259.533188 241.603217 
L 260.576504 241.774866 
L 261.619819 241.29618 
L 262.663135 241.500919 
L 263.706451 241.840394 
L 264.749766 241.739596 
L 265.793082 241.436759 
L 266.836398 241.701908 
L 267.879713 241.677396 
L 268.923029 241.453082 
L 269.966345 241.754031 
L 271.00966 241.196845 
L 272.052976 241.050835 
L 273.096292 241.957904 
L 274.139607 241.624837 
L 275.182923 242.075708 
L 276.226239 241.87596 
L 277.269554 242.101081 
L 279.356186 241.944074 
L 280.399501 241.931643 
L 281.442817 241.799119 
L 283.529448 242.072161 
L 287.702711 242.027288 
L 293.962605 242.059636 
L 301.265815 242.073736 
L 326.305391 242.100374 
L 388.904332 242.11152 
L 388.904332 242.11152 
" clip-path="url(#pa26261c4b6)" style="fill: none; stroke: #da8bc3; stroke-opacity: 0.3; stroke-width: 1.5; stroke-linecap: round"/>
   </g>
   <g id="line2d_21">
    <path d="M 54 242.114372 
L 153.114989 242.049287 
L 154.158305 242.000905 
L 156.244936 242.096509 
L 157.288252 241.760601 
L 158.331567 242.071455 
L 159.374883 242.098103 
L 161.461514 241.809976 
L 162.50483 239.870622 
L 163.548146 241.83619 
L 164.591462 241.251008 
L 165.634777 239.878001 
L 166.678093 241.242424 
L 167.721409 241.219274 
L 168.764724 241.679034 
L 169.80804 241.268423 
L 170.851356 239.460885 
L 171.894671 241.428375 
L 172.937987 231.18369 
L 173.981303 227.338106 
L 175.024618 233.369283 
L 176.067934 234.553436 
L 177.11125 241.994266 
L 178.154565 240.473333 
L 179.197881 237.5909 
L 180.241197 239.967222 
L 181.284512 241.304732 
L 182.327828 235.586703 
L 183.371144 234.519436 
L 184.414459 233.269159 
L 185.457775 233.637484 
L 186.501091 239.330111 
L 187.544406 240.758736 
L 188.587722 239.050569 
L 189.631038 240.212575 
L 190.674353 242.02823 
L 191.717669 231.578689 
L 192.760985 239.793415 
L 193.8043 234.823244 
L 194.847616 240.212737 
L 195.890932 237.993517 
L 196.934247 240.1727 
L 197.977563 241.773056 
L 199.020879 237.331325 
L 200.064194 240.437332 
L 201.10751 240.889736 
L 202.150826 240.7386 
L 203.194141 241.342438 
L 204.237457 239.601767 
L 205.280773 239.104162 
L 207.367404 242.088748 
L 208.41072 241.676722 
L 209.454036 236.827405 
L 210.497351 235.497175 
L 211.540667 241.541712 
L 212.583983 241.69153 
L 213.627298 240.187329 
L 214.670614 241.36034 
L 215.71393 238.951776 
L 216.757245 240.576454 
L 217.800561 241.707299 
L 218.843877 241.670378 
L 219.887192 241.047944 
L 220.930508 239.010595 
L 221.973824 241.670117 
L 223.017139 239.666645 
L 224.060455 238.218944 
L 225.103771 241.124358 
L 226.147086 200.92011 
L 227.190402 166.516816 
L 228.233718 44.443636 
L 229.277033 133.350792 
L 230.320349 190.219775 
L 231.363665 238.377871 
L 232.40698 237.17405 
L 233.450296 241.496231 
L 234.493612 241.064239 
L 235.536927 236.715107 
L 236.580243 240.537208 
L 237.623559 240.752714 
L 238.666874 241.749887 
L 239.71019 240.577325 
L 240.753506 241.187384 
L 241.796821 239.61941 
L 242.840137 240.339052 
L 243.883453 240.7261 
L 244.926768 239.605892 
L 245.970084 241.290555 
L 247.0134 241.648948 
L 248.056715 241.351598 
L 249.100031 241.467073 
L 250.143347 241.868506 
L 252.229978 241.70989 
L 253.273294 242.012753 
L 254.31661 242.024285 
L 255.359925 241.237464 
L 256.403241 240.972086 
L 257.446557 241.754078 
L 258.489872 239.80995 
L 259.533188 241.059723 
L 260.576504 242.107826 
L 261.619819 241.050261 
L 262.663135 241.950148 
L 263.706451 240.968937 
L 264.749766 242.021649 
L 265.793082 242.06379 
L 266.836398 241.769644 
L 267.879713 241.675718 
L 268.923029 242.087728 
L 269.966345 241.629465 
L 271.00966 241.960197 
L 273.096292 241.863688 
L 274.139607 242.029836 
L 275.182923 241.956171 
L 277.269554 242.088212 
L 278.31287 241.676956 
L 279.356186 242.063801 
L 281.442817 242.08312 
L 282.486133 241.947796 
L 283.529448 242.095564 
L 287.702711 242.091359 
L 295.005921 242.104194 
L 302.309131 242.111474 
L 353.431599 242.115096 
L 388.904332 242.115633 
L 388.904332 242.115633 
" clip-path="url(#pa26261c4b6)" style="fill: none; stroke: #8c8c8c; stroke-opacity: 0.3; stroke-width: 1.5; stroke-linecap: round"/>
   </g>
   <g id="line2d_22">
    <path d="M 54 242.115076 
L 154.158305 242.082932 
L 155.20162 241.891031 
L 157.288252 241.84963 
L 158.331567 241.142416 
L 159.374883 241.91479 
L 160.418199 241.985236 
L 161.461514 240.465253 
L 162.50483 240.191156 
L 163.548146 238.633894 
L 164.591462 237.83587 
L 165.634777 239.373316 
L 166.678093 241.938552 
L 167.721409 238.660846 
L 168.764724 240.217326 
L 169.80804 232.70069 
L 170.851356 237.500329 
L 171.894671 209.794158 
L 172.937987 233.193788 
L 173.981303 238.01098 
L 175.024618 236.911818 
L 176.067934 241.944513 
L 177.11125 236.336252 
L 178.154565 239.469818 
L 179.197881 241.561932 
L 180.241197 223.88487 
L 181.284512 233.833499 
L 182.327828 232.862501 
L 183.371144 227.801623 
L 184.414459 241.47272 
L 185.457775 226.08511 
L 186.501091 229.520741 
L 187.544406 239.549219 
L 188.587722 241.016548 
L 189.631038 229.427505 
L 190.674353 230.672172 
L 191.717669 234.566855 
L 192.760985 219.608102 
L 193.8043 225.784712 
L 194.847616 230.095141 
L 195.890932 221.625056 
L 196.934247 238.851776 
L 197.977563 241.274378 
L 199.020879 237.980174 
L 200.064194 239.396305 
L 201.10751 235.611296 
L 202.150826 222.559826 
L 203.194141 222.070421 
L 204.237457 214.269607 
L 205.280773 232.004517 
L 206.324089 239.344057 
L 207.367404 241.816704 
L 208.41072 240.682537 
L 209.454036 220.781381 
L 210.497351 222.347241 
L 211.540667 234.835653 
L 212.583983 233.848364 
L 213.627298 240.77937 
L 214.670614 241.914953 
L 215.71393 240.956047 
L 216.757245 241.481112 
L 217.800561 239.877008 
L 218.843877 235.15139 
L 219.887192 238.103224 
L 220.930508 237.119867 
L 221.973824 230.114081 
L 223.017139 241.499158 
L 224.060455 233.027675 
L 225.103771 238.380832 
L 226.147086 197.149614 
L 227.190402 137.532126 
L 228.233718 44.443636 
L 229.277033 177.061487 
L 230.320349 227.934157 
L 231.363665 240.223554 
L 232.40698 229.307846 
L 233.450296 240.772731 
L 234.493612 226.901895 
L 235.536927 227.531778 
L 236.580243 221.812853 
L 237.623559 237.169223 
L 238.666874 236.610855 
L 239.71019 231.018888 
L 240.753506 226.929892 
L 241.796821 237.949743 
L 242.840137 228.4098 
L 243.883453 238.470185 
L 245.970084 240.658528 
L 247.0134 241.474307 
L 248.056715 227.985387 
L 249.100031 238.130515 
L 250.143347 238.798441 
L 251.186663 236.528328 
L 252.229978 240.504226 
L 253.273294 237.609007 
L 254.31661 237.490577 
L 255.359925 239.991097 
L 256.403241 237.975886 
L 257.446557 241.135463 
L 258.489872 240.374109 
L 259.533188 239.269556 
L 260.576504 241.939383 
L 261.619819 241.959306 
L 262.663135 236.993079 
L 263.706451 241.91738 
L 264.749766 241.158262 
L 265.793082 241.931313 
L 266.836398 240.316955 
L 267.879713 239.662766 
L 268.923029 239.809714 
L 269.966345 241.299826 
L 271.00966 241.481161 
L 272.052976 240.178608 
L 273.096292 240.454976 
L 274.139607 240.430281 
L 275.182923 241.435214 
L 276.226239 241.83737 
L 278.31287 242.079938 
L 280.399501 241.81277 
L 281.442817 242.043971 
L 283.529448 241.896517 
L 284.572764 241.659403 
L 286.659395 242.044618 
L 290.832658 242.096409 
L 300.222499 242.108848 
L 388.904332 242.113045 
L 388.904332 242.113045 
" clip-path="url(#pa26261c4b6)" style="fill: none; stroke: #ccb974; stroke-opacity: 0.3; stroke-width: 1.5; stroke-linecap: round"/>
   </g>
   <g id="patch_3">
    <path d="M 54 252 
L 54 34.56 
" style="fill: none; stroke: #262626; stroke-width: 1.25; stroke-linejoin: miter; stroke-linecap: square"/>
   </g>
   <g id="patch_4">
    <path d="M 388.8 252 
L 388.8 34.56 
" style="fill: none; stroke: #262626; stroke-width: 1.25; stroke-linejoin: miter; stroke-linecap: square"/>
   </g>
   <g id="patch_5">
    <path d="M 54 252 
L 388.8 252 
" style="fill: none; stroke: #262626; stroke-width: 1.25; stroke-linejoin: miter; stroke-linecap: square"/>
   </g>
   <g id="patch_6">
    <path d="M 54 34.56 
L 388.8 34.56 
" style="fill: none; stroke: #262626; stroke-width: 1.25; stroke-linejoin: miter; stroke-linecap: square"/>
   </g>
   <g id="text_15">
    <!-- patient14_app05_phone - Power spectrum -->
    <g style="fill: #262626" transform="translate(107.998125 28.56)scale(0.12 -0.12)">
     <defs>
      <path id="ArialMT-70" d="M 422 -1272 
L 422 3319 
L 934 3319 
L 934 2888 
Q 1116 3141 1344 3267 
Q 1572 3394 1897 3394 
Q 2322 3394 2647 3175 
Q 2972 2956 3137 2557 
Q 3303 2159 3303 1684 
Q 3303 1175 3120 767 
Q 2938 359 2589 142 
Q 2241 -75 1856 -75 
Q 1575 -75 1351 44 
Q 1128 163 984 344 
L 984 -1272 
L 422 -1272 
z
M 931 1641 
Q 931 1000 1190 694 
Q 1450 388 1819 388 
Q 2194 388 2461 705 
Q 2728 1022 2728 1688 
Q 2728 2322 2467 2637 
Q 2206 2953 1844 2953 
Q 1484 2953 1207 2617 
Q 931 2281 931 1641 
z
" transform="scale(0.015625)"/>
      <path id="ArialMT-61" d="M 2588 409 
Q 2275 144 1986 34 
Q 1697 -75 1366 -75 
Q 819 -75 525 192 
Q 231 459 231 875 
Q 231 1119 342 1320 
Q 453 1522 633 1644 
Q 813 1766 1038 1828 
Q 1203 1872 1538 1913 
Q 2219 1994 2541 2106 
Q 2544 2222 2544 2253 
Q 2544 2597 2384 2738 
Q 2169 2928 1744 2928 
Q 1347 2928 1158 2789 
Q 969 2650 878 2297 
L 328 2372 
Q 403 2725 575 2942 
Q 747 3159 1072 3276 
Q 1397 3394 1825 3394 
Q 2250 3394 2515 3294 
Q 2781 3194 2906 3042 
Q 3031 2891 3081 2659 
Q 3109 2516 3109 2141 
L 3109 1391 
Q 3109 606 3145 398 
Q 3181 191 3288 0 
L 2700 0 
Q 2613 175 2588 409 
z
M 2541 1666 
Q 2234 1541 1622 1453 
Q 1275 1403 1131 1340 
Q 988 1278 909 1158 
Q 831 1038 831 891 
Q 831 666 1001 516 
Q 1172 366 1500 366 
Q 1825 366 2078 508 
Q 2331 650 2450 897 
Q 2541 1088 2541 1459 
L 2541 1666 
z
" transform="scale(0.015625)"/>
      <path id="ArialMT-74" d="M 1650 503 
L 1731 6 
Q 1494 -44 1306 -44 
Q 1000 -44 831 53 
Q 663 150 594 308 
Q 525 466 525 972 
L 525 2881 
L 113 2881 
L 113 3319 
L 525 3319 
L 525 4141 
L 1084 4478 
L 1084 3319 
L 1650 3319 
L 1650 2881 
L 1084 2881 
L 1084 941 
Q 1084 700 1114 631 
Q 1144 563 1211 522 
Q 1278 481 1403 481 
Q 1497 481 1650 503 
z
" transform="scale(0.015625)"/>
      <path id="ArialMT-69" d="M 425 3934 
L 425 4581 
L 988 4581 
L 988 3934 
L 425 3934 
z
M 425 0 
L 425 3319 
L 988 3319 
L 988 0 
L 425 0 
z
" transform="scale(0.015625)"/>
      <path id="ArialMT-5f" d="M -97 -1272 
L -97 -866 
L 3631 -866 
L 3631 -1272 
L -97 -1272 
z
" transform="scale(0.015625)"/>
      <path id="ArialMT-68" d="M 422 0 
L 422 4581 
L 984 4581 
L 984 2938 
Q 1378 3394 1978 3394 
Q 2347 3394 2619 3248 
Q 2891 3103 3008 2847 
Q 3125 2591 3125 2103 
L 3125 0 
L 2563 0 
L 2563 2103 
Q 2563 2525 2380 2717 
Q 2197 2909 1863 2909 
Q 1613 2909 1392 2779 
Q 1172 2650 1078 2428 
Q 984 2206 984 1816 
L 984 0 
L 422 0 
z
" transform="scale(0.015625)"/>
      <path id="ArialMT-6f" d="M 213 1659 
Q 213 2581 725 3025 
Q 1153 3394 1769 3394 
Q 2453 3394 2887 2945 
Q 3322 2497 3322 1706 
Q 3322 1066 3130 698 
Q 2938 331 2570 128 
Q 2203 -75 1769 -75 
Q 1072 -75 642 372 
Q 213 819 213 1659 
z
M 791 1659 
Q 791 1022 1069 705 
Q 1347 388 1769 388 
Q 2188 388 2466 706 
Q 2744 1025 2744 1678 
Q 2744 2294 2464 2611 
Q 2184 2928 1769 2928 
Q 1347 2928 1069 2612 
Q 791 2297 791 1659 
z
" transform="scale(0.015625)"/>
      <path id="ArialMT-2d" d="M 203 1375 
L 203 1941 
L 1931 1941 
L 1931 1375 
L 203 1375 
z
" transform="scale(0.015625)"/>
      <path id="ArialMT-50" d="M 494 0 
L 494 4581 
L 2222 4581 
Q 2678 4581 2919 4538 
Q 3256 4481 3484 4323 
Q 3713 4166 3852 3881 
Q 3991 3597 3991 3256 
Q 3991 2672 3619 2267 
Q 3247 1863 2275 1863 
L 1100 1863 
L 1100 0 
L 494 0 
z
M 1100 2403 
L 2284 2403 
Q 2872 2403 3119 2622 
Q 3366 2841 3366 3238 
Q 3366 3525 3220 3729 
Q 3075 3934 2838 4000 
Q 2684 4041 2272 4041 
L 1100 4041 
L 1100 2403 
z
" transform="scale(0.015625)"/>
      <path id="ArialMT-77" d="M 1034 0 
L 19 3319 
L 600 3319 
L 1128 1403 
L 1325 691 
Q 1338 744 1497 1375 
L 2025 3319 
L 2603 3319 
L 3100 1394 
L 3266 759 
L 3456 1400 
L 4025 3319 
L 4572 3319 
L 3534 0 
L 2950 0 
L 2422 1988 
L 2294 2553 
L 1622 0 
L 1034 0 
z
" transform="scale(0.015625)"/>
      <path id="ArialMT-73" d="M 197 991 
L 753 1078 
Q 800 744 1014 566 
Q 1228 388 1613 388 
Q 2000 388 2187 545 
Q 2375 703 2375 916 
Q 2375 1106 2209 1216 
Q 2094 1291 1634 1406 
Q 1016 1563 777 1677 
Q 538 1791 414 1992 
Q 291 2194 291 2438 
Q 291 2659 392 2848 
Q 494 3038 669 3163 
Q 800 3259 1026 3326 
Q 1253 3394 1513 3394 
Q 1903 3394 2198 3281 
Q 2494 3169 2634 2976 
Q 2775 2784 2828 2463 
L 2278 2388 
Q 2241 2644 2061 2787 
Q 1881 2931 1553 2931 
Q 1166 2931 1000 2803 
Q 834 2675 834 2503 
Q 834 2394 903 2306 
Q 972 2216 1119 2156 
Q 1203 2125 1616 2013 
Q 2213 1853 2448 1751 
Q 2684 1650 2818 1456 
Q 2953 1263 2953 975 
Q 2953 694 2789 445 
Q 2625 197 2315 61 
Q 2006 -75 1616 -75 
Q 969 -75 630 194 
Q 291 463 197 991 
z
" transform="scale(0.015625)"/>
      <path id="ArialMT-6d" d="M 422 0 
L 422 3319 
L 925 3319 
L 925 2853 
Q 1081 3097 1340 3245 
Q 1600 3394 1931 3394 
Q 2300 3394 2536 3241 
Q 2772 3088 2869 2813 
Q 3263 3394 3894 3394 
Q 4388 3394 4653 3120 
Q 4919 2847 4919 2278 
L 4919 0 
L 4359 0 
L 4359 2091 
Q 4359 2428 4304 2576 
Q 4250 2725 4106 2815 
Q 3963 2906 3769 2906 
Q 3419 2906 3187 2673 
Q 2956 2441 2956 1928 
L 2956 0 
L 2394 0 
L 2394 2156 
Q 2394 2531 2256 2718 
Q 2119 2906 1806 2906 
Q 1569 2906 1367 2781 
Q 1166 2656 1075 2415 
Q 984 2175 984 1722 
L 984 0 
L 422 0 
z
" transform="scale(0.015625)"/>
     </defs>
     <use xlink:href="#ArialMT-70"/>
     <use xlink:href="#ArialMT-61" x="55.615234"/>
     <use xlink:href="#ArialMT-74" x="111.230469"/>
     <use xlink:href="#ArialMT-69" x="139.013672"/>
     <use xlink:href="#ArialMT-65" x="161.230469"/>
     <use xlink:href="#ArialMT-6e" x="216.845703"/>
     <use xlink:href="#ArialMT-74" x="272.460938"/>
     <use xlink:href="#ArialMT-31" x="300.244141"/>
     <use xlink:href="#ArialMT-34" x="355.859375"/>
     <use xlink:href="#ArialMT-5f" x="411.474609"/>
     <use xlink:href="#ArialMT-61" x="467.089844"/>
     <use xlink:href="#ArialMT-70" x="522.705078"/>
     <use xlink:href="#ArialMT-70" x="578.320312"/>
     <use xlink:href="#ArialMT-30" x="633.935547"/>
     <use xlink:href="#ArialMT-35" x="689.550781"/>
     <use xlink:href="#ArialMT-5f" x="745.166016"/>
     <use xlink:href="#ArialMT-70" x="800.78125"/>
     <use xlink:href="#ArialMT-68" x="856.396484"/>
     <use xlink:href="#ArialMT-6f" x="912.011719"/>
     <use xlink:href="#ArialMT-6e" x="967.626953"/>
     <use xlink:href="#ArialMT-65" x="1023.242188"/>
     <use xlink:href="#ArialMT-20" x="1078.857422"/>
     <use xlink:href="#ArialMT-2d" x="1106.640625"/>
     <use xlink:href="#ArialMT-20" x="1139.941406"/>
     <use xlink:href="#ArialMT-50" x="1167.724609"/>
     <use xlink:href="#ArialMT-6f" x="1234.423828"/>
     <use xlink:href="#ArialMT-77" x="1290.039062"/>
     <use xlink:href="#ArialMT-65" x="1362.255859"/>
     <use xlink:href="#ArialMT-72" x="1417.871094"/>
     <use xlink:href="#ArialMT-20" x="1451.171875"/>
     <use xlink:href="#ArialMT-73" x="1478.955078"/>
     <use xlink:href="#ArialMT-70" x="1528.955078"/>
     <use xlink:href="#ArialMT-65" x="1584.570312"/>
     <use xlink:href="#ArialMT-63" x="1640.185547"/>
     <use xlink:href="#ArialMT-74" x="1690.185547"/>
     <use xlink:href="#ArialMT-72" x="1717.96875"/>
     <use xlink:href="#ArialMT-75" x="1751.269531"/>
     <use xlink:href="#ArialMT-6d" x="1806.884766"/>
    </g>
   </g>
  </g>
 </g>
 <defs>
  <clipPath id="pa26261c4b6">
   <rect x="54" y="34.56" width="334.8" height="217.44"/>
  </clipPath>
 </defs>
</svg>
