<?xml version="1.0" encoding="utf-8" standalone="no"?>
<!DOCTYPE svg PUBLIC "-//W3C//DTD SVG 1.1//EN"
  "http://www.w3.org/Graphics/SVG/1.1/DTD/svg11.dtd">
<svg xmlns:xlink="http://www.w3.org/1999/xlink" width="432pt" height="288pt" viewBox="0 0 432 288" xmlns="http://www.w3.org/2000/svg" version="1.1">
 <metadata>
  <rdf:RDF xmlns:dc="http://purl.org/dc/elements/1.1/" xmlns:cc="http://creativecommons.org/ns#" xmlns:rdf="http://www.w3.org/1999/02/22-rdf-syntax-ns#">
   <cc:Work>
    <dc:type rdf:resource="http://purl.org/dc/dcmitype/StillImage"/>
    <dc:date>2022-07-08T13:28:12.726800</dc:date>
    <dc:format>image/svg+xml</dc:format>
    <dc:creator>
     <cc:Agent>
      <dc:title>Matplotlib v3.5.1, https://matplotlib.org/</dc:title>
     </cc:Agent>
    </dc:creator>
   </cc:Work>
  </rdf:RDF>
 </metadata>
 <defs>
  <style type="text/css">*{stroke-linejoin: round; stroke-linecap: butt}</style>
 </defs>
 <g id="figure_1">
  <g id="patch_1">
   <path d="M 0 288 
L 432 288 
L 432 0 
L 0 0 
z
" style="fill: #ffffff"/>
  </g>
  <g id="axes_1">
   <g id="patch_2">
    <path d="M 54 252 
L 388.8 252 
L 388.8 34.56 
L 54 34.56 
z
" style="fill: #ffffff"/>
   </g>
   <g id="matplotlib.axis_1">
    <g id="xtick_1">
     <g id="line2d_1">
      <defs>
       <path id="ma757c470f2" d="M 0 0 
L 0 6 
" style="stroke: #262626; stroke-width: 1.25"/>
      </defs>
      <g>
       <use xlink:href="#ma757c470f2" x="54" y="252" style="fill: #262626; stroke: #262626; stroke-width: 1.25"/>
      </g>
     </g>
     <g id="text_1">
      <!-- 0 -->
      <g style="fill: #262626" transform="translate(50.941484 269.373594)scale(0.11 -0.11)">
       <defs>
        <path id="ArialMT-30" d="M 266 2259 
Q 266 3072 433 3567 
Q 600 4063 929 4331 
Q 1259 4600 1759 4600 
Q 2128 4600 2406 4451 
Q 2684 4303 2865 4023 
Q 3047 3744 3150 3342 
Q 3253 2941 3253 2259 
Q 3253 1453 3087 958 
Q 2922 463 2592 192 
Q 2263 -78 1759 -78 
Q 1097 -78 719 397 
Q 266 969 266 2259 
z
M 844 2259 
Q 844 1131 1108 757 
Q 1372 384 1759 384 
Q 2147 384 2411 759 
Q 2675 1134 2675 2259 
Q 2675 3391 2411 3762 
Q 2147 4134 1753 4134 
Q 1366 4134 1134 3806 
Q 844 3388 844 2259 
z
" transform="scale(0.015625)"/>
       </defs>
       <use xlink:href="#ArialMT-30"/>
      </g>
     </g>
    </g>
    <g id="xtick_2">
     <g id="line2d_2">
      <g>
       <use xlink:href="#ma757c470f2" x="109.8" y="252" style="fill: #262626; stroke: #262626; stroke-width: 1.25"/>
      </g>
     </g>
     <g id="text_2">
      <!-- 5 -->
      <g style="fill: #262626" transform="translate(106.741484 269.373594)scale(0.11 -0.11)">
       <defs>
        <path id="ArialMT-35" d="M 266 1200 
L 856 1250 
Q 922 819 1161 601 
Q 1400 384 1738 384 
Q 2144 384 2425 690 
Q 2706 997 2706 1503 
Q 2706 1984 2436 2262 
Q 2166 2541 1728 2541 
Q 1456 2541 1237 2417 
Q 1019 2294 894 2097 
L 366 2166 
L 809 4519 
L 3088 4519 
L 3088 3981 
L 1259 3981 
L 1013 2750 
Q 1425 3038 1878 3038 
Q 2478 3038 2890 2622 
Q 3303 2206 3303 1553 
Q 3303 931 2941 478 
Q 2500 -78 1738 -78 
Q 1113 -78 717 272 
Q 322 622 266 1200 
z
" transform="scale(0.015625)"/>
       </defs>
       <use xlink:href="#ArialMT-35"/>
      </g>
     </g>
    </g>
    <g id="xtick_3">
     <g id="line2d_3">
      <g>
       <use xlink:href="#ma757c470f2" x="165.6" y="252" style="fill: #262626; stroke: #262626; stroke-width: 1.25"/>
      </g>
     </g>
     <g id="text_3">
      <!-- 10 -->
      <g style="fill: #262626" transform="translate(159.482969 269.373594)scale(0.11 -0.11)">
       <defs>
        <path id="ArialMT-31" d="M 2384 0 
L 1822 0 
L 1822 3584 
Q 1619 3391 1289 3197 
Q 959 3003 697 2906 
L 697 3450 
Q 1169 3672 1522 3987 
Q 1875 4303 2022 4600 
L 2384 4600 
L 2384 0 
z
" transform="scale(0.015625)"/>
       </defs>
       <use xlink:href="#ArialMT-31"/>
       <use xlink:href="#ArialMT-30" x="55.615234"/>
      </g>
     </g>
    </g>
    <g id="xtick_4">
     <g id="line2d_4">
      <g>
       <use xlink:href="#ma757c470f2" x="221.4" y="252" style="fill: #262626; stroke: #262626; stroke-width: 1.25"/>
      </g>
     </g>
     <g id="text_4">
      <!-- 15 -->
      <g style="fill: #262626" transform="translate(215.282969 269.373594)scale(0.11 -0.11)">
       <use xlink:href="#ArialMT-31"/>
       <use xlink:href="#ArialMT-35" x="55.615234"/>
      </g>
     </g>
    </g>
    <g id="xtick_5">
     <g id="line2d_5">
      <g>
       <use xlink:href="#ma757c470f2" x="277.2" y="252" style="fill: #262626; stroke: #262626; stroke-width: 1.25"/>
      </g>
     </g>
     <g id="text_5">
      <!-- 20 -->
      <g style="fill: #262626" transform="translate(271.082969 269.373594)scale(0.11 -0.11)">
       <defs>
        <path id="ArialMT-32" d="M 3222 541 
L 3222 0 
L 194 0 
Q 188 203 259 391 
Q 375 700 629 1000 
Q 884 1300 1366 1694 
Q 2113 2306 2375 2664 
Q 2638 3022 2638 3341 
Q 2638 3675 2398 3904 
Q 2159 4134 1775 4134 
Q 1369 4134 1125 3890 
Q 881 3647 878 3216 
L 300 3275 
Q 359 3922 746 4261 
Q 1134 4600 1788 4600 
Q 2447 4600 2831 4234 
Q 3216 3869 3216 3328 
Q 3216 3053 3103 2787 
Q 2991 2522 2730 2228 
Q 2469 1934 1863 1422 
Q 1356 997 1212 845 
Q 1069 694 975 541 
L 3222 541 
z
" transform="scale(0.015625)"/>
       </defs>
       <use xlink:href="#ArialMT-32"/>
       <use xlink:href="#ArialMT-30" x="55.615234"/>
      </g>
     </g>
    </g>
    <g id="xtick_6">
     <g id="line2d_6">
      <g>
       <use xlink:href="#ma757c470f2" x="333" y="252" style="fill: #262626; stroke: #262626; stroke-width: 1.25"/>
      </g>
     </g>
     <g id="text_6">
      <!-- 25 -->
      <g style="fill: #262626" transform="translate(326.882969 269.373594)scale(0.11 -0.11)">
       <use xlink:href="#ArialMT-32"/>
       <use xlink:href="#ArialMT-35" x="55.615234"/>
      </g>
     </g>
    </g>
    <g id="xtick_7">
     <g id="line2d_7">
      <g>
       <use xlink:href="#ma757c470f2" x="388.8" y="252" style="fill: #262626; stroke: #262626; stroke-width: 1.25"/>
      </g>
     </g>
     <g id="text_7">
      <!-- 30 -->
      <g style="fill: #262626" transform="translate(382.682969 269.373594)scale(0.11 -0.11)">
       <defs>
        <path id="ArialMT-33" d="M 269 1209 
L 831 1284 
Q 928 806 1161 595 
Q 1394 384 1728 384 
Q 2125 384 2398 659 
Q 2672 934 2672 1341 
Q 2672 1728 2419 1979 
Q 2166 2231 1775 2231 
Q 1616 2231 1378 2169 
L 1441 2663 
Q 1497 2656 1531 2656 
Q 1891 2656 2178 2843 
Q 2466 3031 2466 3422 
Q 2466 3731 2256 3934 
Q 2047 4138 1716 4138 
Q 1388 4138 1169 3931 
Q 950 3725 888 3313 
L 325 3413 
Q 428 3978 793 4289 
Q 1159 4600 1703 4600 
Q 2078 4600 2393 4439 
Q 2709 4278 2876 4000 
Q 3044 3722 3044 3409 
Q 3044 3113 2884 2869 
Q 2725 2625 2413 2481 
Q 2819 2388 3044 2092 
Q 3269 1797 3269 1353 
Q 3269 753 2831 336 
Q 2394 -81 1725 -81 
Q 1122 -81 723 278 
Q 325 638 269 1209 
z
" transform="scale(0.015625)"/>
       </defs>
       <use xlink:href="#ArialMT-33"/>
       <use xlink:href="#ArialMT-30" x="55.615234"/>
      </g>
     </g>
    </g>
    <g id="text_8">
     <!-- Frequency (Hz) -->
     <g style="fill: #262626" transform="translate(180.059063 284.295469)scale(0.12 -0.12)">
      <defs>
       <path id="ArialMT-46" d="M 525 0 
L 525 4581 
L 3616 4581 
L 3616 4041 
L 1131 4041 
L 1131 2622 
L 3281 2622 
L 3281 2081 
L 1131 2081 
L 1131 0 
L 525 0 
z
" transform="scale(0.015625)"/>
       <path id="ArialMT-72" d="M 416 0 
L 416 3319 
L 922 3319 
L 922 2816 
Q 1116 3169 1280 3281 
Q 1444 3394 1641 3394 
Q 1925 3394 2219 3213 
L 2025 2691 
Q 1819 2813 1613 2813 
Q 1428 2813 1281 2702 
Q 1134 2591 1072 2394 
Q 978 2094 978 1738 
L 978 0 
L 416 0 
z
" transform="scale(0.015625)"/>
       <path id="ArialMT-65" d="M 2694 1069 
L 3275 997 
Q 3138 488 2766 206 
Q 2394 -75 1816 -75 
Q 1088 -75 661 373 
Q 234 822 234 1631 
Q 234 2469 665 2931 
Q 1097 3394 1784 3394 
Q 2450 3394 2872 2941 
Q 3294 2488 3294 1666 
Q 3294 1616 3291 1516 
L 816 1516 
Q 847 969 1125 678 
Q 1403 388 1819 388 
Q 2128 388 2347 550 
Q 2566 713 2694 1069 
z
M 847 1978 
L 2700 1978 
Q 2663 2397 2488 2606 
Q 2219 2931 1791 2931 
Q 1403 2931 1139 2672 
Q 875 2413 847 1978 
z
" transform="scale(0.015625)"/>
       <path id="ArialMT-71" d="M 2538 -1272 
L 2538 353 
Q 2406 169 2170 47 
Q 1934 -75 1669 -75 
Q 1078 -75 651 397 
Q 225 869 225 1691 
Q 225 2191 398 2587 
Q 572 2984 901 3189 
Q 1231 3394 1625 3394 
Q 2241 3394 2594 2875 
L 2594 3319 
L 3100 3319 
L 3100 -1272 
L 2538 -1272 
z
M 803 1669 
Q 803 1028 1072 708 
Q 1341 388 1716 388 
Q 2075 388 2334 692 
Q 2594 997 2594 1619 
Q 2594 2281 2320 2615 
Q 2047 2950 1678 2950 
Q 1313 2950 1058 2639 
Q 803 2328 803 1669 
z
" transform="scale(0.015625)"/>
       <path id="ArialMT-75" d="M 2597 0 
L 2597 488 
Q 2209 -75 1544 -75 
Q 1250 -75 995 37 
Q 741 150 617 320 
Q 494 491 444 738 
Q 409 903 409 1263 
L 409 3319 
L 972 3319 
L 972 1478 
Q 972 1038 1006 884 
Q 1059 663 1231 536 
Q 1403 409 1656 409 
Q 1909 409 2131 539 
Q 2353 669 2445 892 
Q 2538 1116 2538 1541 
L 2538 3319 
L 3100 3319 
L 3100 0 
L 2597 0 
z
" transform="scale(0.015625)"/>
       <path id="ArialMT-6e" d="M 422 0 
L 422 3319 
L 928 3319 
L 928 2847 
Q 1294 3394 1984 3394 
Q 2284 3394 2536 3286 
Q 2788 3178 2913 3003 
Q 3038 2828 3088 2588 
Q 3119 2431 3119 2041 
L 3119 0 
L 2556 0 
L 2556 2019 
Q 2556 2363 2490 2533 
Q 2425 2703 2258 2804 
Q 2091 2906 1866 2906 
Q 1506 2906 1245 2678 
Q 984 2450 984 1813 
L 984 0 
L 422 0 
z
" transform="scale(0.015625)"/>
       <path id="ArialMT-63" d="M 2588 1216 
L 3141 1144 
Q 3050 572 2676 248 
Q 2303 -75 1759 -75 
Q 1078 -75 664 370 
Q 250 816 250 1647 
Q 250 2184 428 2587 
Q 606 2991 970 3192 
Q 1334 3394 1763 3394 
Q 2303 3394 2647 3120 
Q 2991 2847 3088 2344 
L 2541 2259 
Q 2463 2594 2264 2762 
Q 2066 2931 1784 2931 
Q 1359 2931 1093 2626 
Q 828 2322 828 1663 
Q 828 994 1084 691 
Q 1341 388 1753 388 
Q 2084 388 2306 591 
Q 2528 794 2588 1216 
z
" transform="scale(0.015625)"/>
       <path id="ArialMT-79" d="M 397 -1278 
L 334 -750 
Q 519 -800 656 -800 
Q 844 -800 956 -737 
Q 1069 -675 1141 -563 
Q 1194 -478 1313 -144 
Q 1328 -97 1363 -6 
L 103 3319 
L 709 3319 
L 1400 1397 
Q 1534 1031 1641 628 
Q 1738 1016 1872 1384 
L 2581 3319 
L 3144 3319 
L 1881 -56 
Q 1678 -603 1566 -809 
Q 1416 -1088 1222 -1217 
Q 1028 -1347 759 -1347 
Q 597 -1347 397 -1278 
z
" transform="scale(0.015625)"/>
       <path id="ArialMT-20" transform="scale(0.015625)"/>
       <path id="ArialMT-28" d="M 1497 -1347 
Q 1031 -759 709 28 
Q 388 816 388 1659 
Q 388 2403 628 3084 
Q 909 3875 1497 4659 
L 1900 4659 
Q 1522 4009 1400 3731 
Q 1209 3300 1100 2831 
Q 966 2247 966 1656 
Q 966 153 1900 -1347 
L 1497 -1347 
z
" transform="scale(0.015625)"/>
       <path id="ArialMT-48" d="M 513 0 
L 513 4581 
L 1119 4581 
L 1119 2700 
L 3500 2700 
L 3500 4581 
L 4106 4581 
L 4106 0 
L 3500 0 
L 3500 2159 
L 1119 2159 
L 1119 0 
L 513 0 
z
" transform="scale(0.015625)"/>
       <path id="ArialMT-7a" d="M 125 0 
L 125 456 
L 2238 2881 
Q 1878 2863 1603 2863 
L 250 2863 
L 250 3319 
L 2963 3319 
L 2963 2947 
L 1166 841 
L 819 456 
Q 1197 484 1528 484 
L 3063 484 
L 3063 0 
L 125 0 
z
" transform="scale(0.015625)"/>
       <path id="ArialMT-29" d="M 791 -1347 
L 388 -1347 
Q 1322 153 1322 1656 
Q 1322 2244 1188 2822 
Q 1081 3291 891 3722 
Q 769 4003 388 4659 
L 791 4659 
Q 1378 3875 1659 3084 
Q 1900 2403 1900 1659 
Q 1900 816 1576 28 
Q 1253 -759 791 -1347 
z
" transform="scale(0.015625)"/>
      </defs>
      <use xlink:href="#ArialMT-46"/>
      <use xlink:href="#ArialMT-72" x="61.083984"/>
      <use xlink:href="#ArialMT-65" x="94.384766"/>
      <use xlink:href="#ArialMT-71" x="150"/>
      <use xlink:href="#ArialMT-75" x="205.615234"/>
      <use xlink:href="#ArialMT-65" x="261.230469"/>
      <use xlink:href="#ArialMT-6e" x="316.845703"/>
      <use xlink:href="#ArialMT-63" x="372.460938"/>
      <use xlink:href="#ArialMT-79" x="422.460938"/>
      <use xlink:href="#ArialMT-20" x="472.460938"/>
      <use xlink:href="#ArialMT-28" x="500.244141"/>
      <use xlink:href="#ArialMT-48" x="533.544922"/>
      <use xlink:href="#ArialMT-7a" x="605.761719"/>
      <use xlink:href="#ArialMT-29" x="655.761719"/>
     </g>
    </g>
   </g>
   <g id="matplotlib.axis_2">
    <g id="ytick_1">
     <g id="line2d_8">
      <defs>
       <path id="m73e6088b85" d="M 0 0 
L -6 0 
" style="stroke: #262626; stroke-width: 1.25"/>
      </defs>
      <g>
       <use xlink:href="#m73e6088b85" x="54" y="242.116364" style="fill: #262626; stroke: #262626; stroke-width: 1.25"/>
      </g>
     </g>
     <g id="text_9">
      <!-- 0.0 -->
      <g style="fill: #262626" transform="translate(29.21 246.053161)scale(0.11 -0.11)">
       <defs>
        <path id="ArialMT-2e" d="M 581 0 
L 581 641 
L 1222 641 
L 1222 0 
L 581 0 
z
" transform="scale(0.015625)"/>
       </defs>
       <use xlink:href="#ArialMT-30"/>
       <use xlink:href="#ArialMT-2e" x="55.615234"/>
       <use xlink:href="#ArialMT-30" x="83.398438"/>
      </g>
     </g>
    </g>
    <g id="ytick_2">
     <g id="line2d_9">
      <g>
       <use xlink:href="#m73e6088b85" x="54" y="202.581818" style="fill: #262626; stroke: #262626; stroke-width: 1.25"/>
      </g>
     </g>
     <g id="text_10">
      <!-- 0.2 -->
      <g style="fill: #262626" transform="translate(29.21 206.518615)scale(0.11 -0.11)">
       <use xlink:href="#ArialMT-30"/>
       <use xlink:href="#ArialMT-2e" x="55.615234"/>
       <use xlink:href="#ArialMT-32" x="83.398438"/>
      </g>
     </g>
    </g>
    <g id="ytick_3">
     <g id="line2d_10">
      <g>
       <use xlink:href="#m73e6088b85" x="54" y="163.047273" style="fill: #262626; stroke: #262626; stroke-width: 1.25"/>
      </g>
     </g>
     <g id="text_11">
      <!-- 0.4 -->
      <g style="fill: #262626" transform="translate(29.21 166.98407)scale(0.11 -0.11)">
       <defs>
        <path id="ArialMT-34" d="M 2069 0 
L 2069 1097 
L 81 1097 
L 81 1613 
L 2172 4581 
L 2631 4581 
L 2631 1613 
L 3250 1613 
L 3250 1097 
L 2631 1097 
L 2631 0 
L 2069 0 
z
M 2069 1613 
L 2069 3678 
L 634 1613 
L 2069 1613 
z
" transform="scale(0.015625)"/>
       </defs>
       <use xlink:href="#ArialMT-30"/>
       <use xlink:href="#ArialMT-2e" x="55.615234"/>
       <use xlink:href="#ArialMT-34" x="83.398438"/>
      </g>
     </g>
    </g>
    <g id="ytick_4">
     <g id="line2d_11">
      <g>
       <use xlink:href="#m73e6088b85" x="54" y="123.512727" style="fill: #262626; stroke: #262626; stroke-width: 1.25"/>
      </g>
     </g>
     <g id="text_12">
      <!-- 0.6 -->
      <g style="fill: #262626" transform="translate(29.21 127.449524)scale(0.11 -0.11)">
       <defs>
        <path id="ArialMT-36" d="M 3184 3459 
L 2625 3416 
Q 2550 3747 2413 3897 
Q 2184 4138 1850 4138 
Q 1581 4138 1378 3988 
Q 1113 3794 959 3422 
Q 806 3050 800 2363 
Q 1003 2672 1297 2822 
Q 1591 2972 1913 2972 
Q 2475 2972 2870 2558 
Q 3266 2144 3266 1488 
Q 3266 1056 3080 686 
Q 2894 316 2569 119 
Q 2244 -78 1831 -78 
Q 1128 -78 684 439 
Q 241 956 241 2144 
Q 241 3472 731 4075 
Q 1159 4600 1884 4600 
Q 2425 4600 2770 4297 
Q 3116 3994 3184 3459 
z
M 888 1484 
Q 888 1194 1011 928 
Q 1134 663 1356 523 
Q 1578 384 1822 384 
Q 2178 384 2434 671 
Q 2691 959 2691 1453 
Q 2691 1928 2437 2201 
Q 2184 2475 1800 2475 
Q 1419 2475 1153 2201 
Q 888 1928 888 1484 
z
" transform="scale(0.015625)"/>
       </defs>
       <use xlink:href="#ArialMT-30"/>
       <use xlink:href="#ArialMT-2e" x="55.615234"/>
       <use xlink:href="#ArialMT-36" x="83.398438"/>
      </g>
     </g>
    </g>
    <g id="ytick_5">
     <g id="line2d_12">
      <g>
       <use xlink:href="#m73e6088b85" x="54" y="83.978182" style="fill: #262626; stroke: #262626; stroke-width: 1.25"/>
      </g>
     </g>
     <g id="text_13">
      <!-- 0.8 -->
      <g style="fill: #262626" transform="translate(29.21 87.914979)scale(0.11 -0.11)">
       <defs>
        <path id="ArialMT-38" d="M 1131 2484 
Q 781 2613 612 2850 
Q 444 3088 444 3419 
Q 444 3919 803 4259 
Q 1163 4600 1759 4600 
Q 2359 4600 2725 4251 
Q 3091 3903 3091 3403 
Q 3091 3084 2923 2848 
Q 2756 2613 2416 2484 
Q 2838 2347 3058 2040 
Q 3278 1734 3278 1309 
Q 3278 722 2862 322 
Q 2447 -78 1769 -78 
Q 1091 -78 675 323 
Q 259 725 259 1325 
Q 259 1772 486 2073 
Q 713 2375 1131 2484 
z
M 1019 3438 
Q 1019 3113 1228 2906 
Q 1438 2700 1772 2700 
Q 2097 2700 2305 2904 
Q 2513 3109 2513 3406 
Q 2513 3716 2298 3927 
Q 2084 4138 1766 4138 
Q 1444 4138 1231 3931 
Q 1019 3725 1019 3438 
z
M 838 1322 
Q 838 1081 952 856 
Q 1066 631 1291 507 
Q 1516 384 1775 384 
Q 2178 384 2440 643 
Q 2703 903 2703 1303 
Q 2703 1709 2433 1975 
Q 2163 2241 1756 2241 
Q 1359 2241 1098 1978 
Q 838 1716 838 1322 
z
" transform="scale(0.015625)"/>
       </defs>
       <use xlink:href="#ArialMT-30"/>
       <use xlink:href="#ArialMT-2e" x="55.615234"/>
       <use xlink:href="#ArialMT-38" x="83.398438"/>
      </g>
     </g>
    </g>
    <g id="ytick_6">
     <g id="line2d_13">
      <g>
       <use xlink:href="#m73e6088b85" x="54" y="44.443636" style="fill: #262626; stroke: #262626; stroke-width: 1.25"/>
      </g>
     </g>
     <g id="text_14">
      <!-- 1.0 -->
      <g style="fill: #262626" transform="translate(29.21 48.380433)scale(0.11 -0.11)">
       <use xlink:href="#ArialMT-31"/>
       <use xlink:href="#ArialMT-2e" x="55.615234"/>
       <use xlink:href="#ArialMT-30" x="83.398438"/>
      </g>
     </g>
    </g>
   </g>
   <g id="line2d_14">
    <path d="M 54 237.537875 
L 62.159883 237.420627 
L 69.503778 237.088256 
L 75.215696 236.62752 
L 80.111626 236.023876 
L 84.191567 235.294024 
L 87.45552 234.49457 
L 90.719474 233.401443 
L 91.535462 232.931862 
L 93.167438 232.352814 
L 94.799415 231.220394 
L 95.615403 230.213666 
L 96.431392 229.609555 
L 97.24738 227.263665 
L 98.879357 229.534951 
L 99.695345 226.928563 
L 100.511333 225.487635 
L 101.327321 223.650334 
L 102.14331 222.389001 
L 102.959298 218.711469 
L 103.775286 205.836979 
L 104.591275 165.272226 
L 106.223251 208.052965 
L 107.03924 177.977033 
L 107.855228 129.166877 
L 108.671216 147.326269 
L 109.487204 141.851397 
L 110.303193 131.576872 
L 111.119181 172.840966 
L 111.935169 158.098294 
L 112.751158 44.443636 
L 113.567146 107.732461 
L 114.383134 70.609257 
L 115.199123 154.656465 
L 116.015111 141.400756 
L 116.831099 157.991445 
L 117.647087 183.703316 
L 118.463076 102.813324 
L 119.279064 118.951346 
L 120.095052 154.731345 
L 120.911041 112.586308 
L 121.727029 177.433287 
L 122.543017 125.708987 
L 123.359006 100.993883 
L 124.174994 113.801999 
L 124.990982 164.03468 
L 125.806971 204.932955 
L 126.622959 204.013877 
L 127.438947 182.960786 
L 128.254935 176.609982 
L 129.070924 160.698555 
L 129.886912 201.349612 
L 131.518889 234.900576 
L 132.334877 225.034065 
L 133.150865 205.321482 
L 134.782842 236.759214 
L 136.414818 228.989597 
L 137.230807 195.499673 
L 138.046795 214.871861 
L 138.862783 220.329388 
L 139.678772 228.139331 
L 140.49476 230.908042 
L 141.310748 222.416056 
L 142.126737 223.987662 
L 142.942725 207.84709 
L 143.758713 222.122566 
L 144.574701 213.808999 
L 145.39069 237.240593 
L 146.206678 230.966209 
L 147.022666 231.099182 
L 147.838655 229.541934 
L 148.654643 233.787425 
L 149.470631 240.659408 
L 150.28662 241.085401 
L 151.102608 208.658393 
L 151.918596 221.618362 
L 152.734584 219.320508 
L 153.550573 236.990051 
L 154.366561 203.047761 
L 155.182549 221.346261 
L 155.998538 201.862317 
L 156.814526 222.056296 
L 157.630514 224.834275 
L 158.446503 226.794493 
L 159.262491 222.02248 
L 160.894467 230.950076 
L 161.710456 238.843828 
L 162.526444 241.29875 
L 163.342432 240.209852 
L 164.158421 227.874608 
L 164.974409 238.397751 
L 165.790397 237.925479 
L 166.606386 239.898572 
L 167.422374 239.208831 
L 168.238362 223.022894 
L 169.05435 240.985803 
L 169.870339 236.172025 
L 170.686327 241.18286 
L 171.502315 242.003344 
L 172.318304 241.704099 
L 173.134292 231.817673 
L 173.95028 229.603275 
L 174.766269 233.115001 
L 175.582257 240.48685 
L 176.398245 240.803297 
L 177.214233 241.726428 
L 178.030222 241.133633 
L 178.84621 234.64276 
L 179.662198 239.217897 
L 180.478187 240.161237 
L 181.294175 240.623821 
L 182.110163 236.381431 
L 182.926152 238.292975 
L 183.74214 238.63901 
L 184.558128 240.508848 
L 186.190105 241.685505 
L 187.822081 241.155326 
L 188.63807 241.821556 
L 189.454058 242.031633 
L 190.270046 241.766039 
L 191.086035 241.705799 
L 191.902023 238.653123 
L 192.718011 240.269349 
L 193.534 240.99739 
L 194.349988 239.909994 
L 195.165976 238.210494 
L 195.981964 238.456823 
L 196.797953 241.79483 
L 197.613941 239.107247 
L 198.429929 237.39619 
L 199.245918 240.650512 
L 200.061906 235.632355 
L 200.877894 240.984641 
L 201.693883 239.990246 
L 202.509871 241.687195 
L 203.325859 238.973548 
L 204.141847 234.05527 
L 204.957836 239.240092 
L 205.773824 239.353324 
L 206.589812 241.857481 
L 207.405801 241.543999 
L 208.221789 241.793385 
L 209.853766 240.521182 
L 210.669754 241.119404 
L 211.485742 241.322987 
L 212.30173 241.878793 
L 213.117719 238.61976 
L 213.933707 231.37548 
L 214.749695 233.537434 
L 215.565684 239.00632 
L 216.381672 241.934014 
L 217.19766 242.083394 
L 218.013649 241.350456 
L 218.829637 239.533704 
L 219.645625 235.239167 
L 220.461613 235.91812 
L 221.277602 237.847777 
L 222.09359 238.732534 
L 222.909578 237.983809 
L 223.725567 234.17785 
L 224.541555 240.95018 
L 226.173532 241.546512 
L 227.805508 240.102136 
L 228.621496 237.644527 
L 229.437485 240.730714 
L 230.253473 242.046339 
L 231.069461 241.304074 
L 231.88545 239.397463 
L 232.701438 241.028035 
L 233.517426 241.009693 
L 234.333415 242.078533 
L 235.149403 240.797069 
L 235.965391 241.61858 
L 236.781379 241.326597 
L 237.597368 242.106727 
L 238.413356 240.797608 
L 240.045333 238.571367 
L 240.861321 239.611828 
L 241.677309 239.016595 
L 242.493298 241.429565 
L 244.125274 235.039865 
L 244.941262 239.736765 
L 245.757251 240.130045 
L 246.573239 241.919906 
L 247.389227 240.752309 
L 248.205216 240.370672 
L 249.021204 239.092398 
L 249.837192 241.527969 
L 250.653181 241.300792 
L 251.469169 241.816003 
L 252.285157 242.069836 
L 253.101146 241.501626 
L 253.917134 240.166979 
L 254.733122 240.328491 
L 255.54911 240.841707 
L 256.365099 240.760578 
L 257.181087 241.700018 
L 257.997075 241.700493 
L 258.813064 239.074632 
L 259.629052 238.239339 
L 260.44504 240.848024 
L 261.261029 241.466212 
L 262.077017 241.74504 
L 262.893005 239.674824 
L 263.708993 239.685609 
L 264.524982 241.194426 
L 265.34097 240.702897 
L 266.156958 241.61762 
L 266.972947 241.512421 
L 267.788935 240.194122 
L 268.604923 239.647329 
L 269.420912 239.617425 
L 270.2369 240.144826 
L 271.052888 241.736487 
L 271.868876 241.801394 
L 272.684865 240.63356 
L 273.500853 241.089575 
L 274.316841 238.772581 
L 275.13283 241.112452 
L 275.948818 241.00819 
L 276.764806 241.862426 
L 277.580795 241.092096 
L 278.396783 241.775473 
L 279.212771 241.78374 
L 280.028759 242.042299 
L 281.660736 242.045302 
L 282.476724 240.708833 
L 283.292713 241.678345 
L 284.108701 241.521496 
L 284.924689 239.64306 
L 285.740678 241.980878 
L 286.556666 242.059018 
L 287.372654 241.712452 
L 288.188642 242.089638 
L 289.004631 241.524817 
L 289.820619 241.42392 
L 290.636607 241.58866 
L 291.452596 241.624744 
L 292.268584 241.900923 
L 293.084572 241.40762 
L 293.900561 242.099385 
L 294.716549 240.96435 
L 295.532537 240.342809 
L 297.164514 241.896095 
L 297.980502 241.993272 
L 298.79649 240.918507 
L 299.612479 240.613956 
L 300.428467 241.742043 
L 301.244455 242.029683 
L 302.060444 241.543011 
L 302.876432 238.822204 
L 303.69242 240.290837 
L 304.508408 241.253001 
L 305.324397 242.003296 
L 306.140385 241.750555 
L 306.956373 240.646292 
L 308.58835 241.209041 
L 309.404338 242.093317 
L 310.220327 241.205212 
L 311.036315 241.584194 
L 311.852303 241.223642 
L 312.668291 241.130898 
L 313.48428 242.055038 
L 314.300268 241.739594 
L 315.116256 242.045831 
L 315.932245 241.965213 
L 316.748233 240.976444 
L 317.564221 241.849686 
L 318.38021 241.471854 
L 319.196198 242.08362 
L 320.012186 242.079732 
L 320.828175 241.176257 
L 321.644163 241.780837 
L 322.460151 241.526191 
L 323.276139 242.109963 
L 324.908116 241.137319 
L 325.724104 241.711359 
L 326.540093 241.616577 
L 327.356081 242.041108 
L 328.172069 242.113387 
L 328.988058 241.940764 
L 329.804046 241.574927 
L 330.620034 242.079613 
L 332.252011 241.621237 
L 333.067999 242.049413 
L 333.883987 242.009084 
L 334.699976 241.61046 
L 336.331952 241.763476 
L 337.147941 242.088178 
L 338.779917 241.820346 
L 339.595905 241.537818 
L 340.411894 241.958463 
L 341.227882 241.846111 
L 342.04387 242.095472 
L 342.859859 241.955314 
L 343.675847 241.697492 
L 346.9398 242.067531 
L 347.755788 241.880469 
L 353.467707 242.062194 
L 355.099683 242.027464 
L 356.73166 242.093743 
L 358.363636 242.031482 
L 360.811601 242.054145 
L 368.971484 242.070464 
L 376.315379 242.069956 
L 383.659274 242.076334 
L 389.371192 242.077143 
L 389.371192 242.077143 
" clip-path="url(#p8213097be4)" style="fill: none; stroke: #4c72b0; stroke-opacity: 0.3; stroke-width: 1.5; stroke-linecap: round"/>
   </g>
   <g id="line2d_15">
    <path d="M 54 242.024762 
L 88.271509 241.917434 
L 93.167438 241.816731 
L 93.983427 241.939871 
L 94.799415 241.889082 
L 95.615403 241.664132 
L 96.431392 241.308625 
L 98.879357 242.04896 
L 99.695345 241.34543 
L 100.511333 239.807702 
L 101.327321 241.716841 
L 102.14331 241.302874 
L 102.959298 239.917274 
L 103.775286 232.969348 
L 104.591275 195.616541 
L 105.407263 216.879565 
L 106.223251 208.00758 
L 107.03924 218.77943 
L 107.855228 196.258499 
L 108.671216 117.149652 
L 109.487204 206.07891 
L 110.303193 216.48625 
L 111.119181 185.185435 
L 111.935169 219.54809 
L 113.567146 71.266062 
L 114.383134 234.171608 
L 115.199123 216.043934 
L 116.015111 139.123928 
L 116.831099 233.965968 
L 117.647087 207.772096 
L 118.463076 241.99389 
L 119.279064 175.019921 
L 120.095052 146.931807 
L 120.911041 214.300009 
L 121.727029 224.369917 
L 122.543017 200.623646 
L 123.359006 214.072543 
L 124.174994 241.318227 
L 124.990982 241.798084 
L 125.806971 230.906541 
L 126.622959 182.411101 
L 127.438947 210.815789 
L 128.254935 120.686476 
L 129.070924 69.038248 
L 129.886912 86.991661 
L 130.7029 150.188384 
L 131.518889 121.525231 
L 132.334877 217.714405 
L 133.150865 215.536842 
L 133.966854 152.095252 
L 135.59883 239.947719 
L 136.414818 229.793097 
L 137.230807 176.493696 
L 138.046795 188.459432 
L 138.862783 218.638219 
L 139.678772 209.102817 
L 140.49476 239.707703 
L 141.310748 168.419659 
L 142.126737 158.282659 
L 142.942725 63.661281 
L 143.758713 199.923245 
L 144.574701 206.391534 
L 145.39069 169.078406 
L 146.206678 153.563986 
L 147.022666 232.304267 
L 147.838655 207.759537 
L 148.654643 190.551211 
L 149.470631 233.875653 
L 150.28662 193.440077 
L 151.102608 127.337364 
L 151.918596 209.671904 
L 152.734584 185.922645 
L 153.550573 179.126975 
L 154.366561 227.099688 
L 155.182549 112.219825 
L 155.998538 219.827245 
L 156.814526 221.81843 
L 157.630514 241.967424 
L 158.446503 186.409567 
L 159.262491 88.906294 
L 160.078479 119.664378 
L 160.894467 128.03444 
L 161.710456 150.708085 
L 162.526444 118.281363 
L 163.342432 207.501231 
L 164.974409 44.443636 
L 165.790397 222.315792 
L 166.606386 239.531389 
L 167.422374 143.034382 
L 168.238362 222.308338 
L 169.05435 134.914506 
L 169.870339 215.817136 
L 170.686327 169.892756 
L 171.502315 237.544991 
L 172.318304 204.98018 
L 173.134292 137.186799 
L 173.95028 227.700544 
L 174.766269 222.128171 
L 175.582257 220.814463 
L 176.398245 203.154815 
L 177.214233 189.778317 
L 178.030222 241.614826 
L 178.84621 234.746853 
L 179.662198 216.953971 
L 180.478187 188.062365 
L 181.294175 223.01084 
L 182.110163 228.082517 
L 182.926152 179.525174 
L 183.74214 234.995098 
L 184.558128 236.774449 
L 185.374117 198.417481 
L 186.190105 223.117028 
L 187.006093 216.821645 
L 187.822081 239.395614 
L 188.63807 227.207581 
L 189.454058 221.231975 
L 190.270046 240.850035 
L 191.086035 204.418449 
L 191.902023 233.179076 
L 192.718011 212.001616 
L 193.534 215.983304 
L 194.349988 230.445677 
L 195.165976 223.053034 
L 195.981964 239.735302 
L 196.797953 232.462195 
L 197.613941 178.128781 
L 199.245918 232.037218 
L 200.061906 239.595268 
L 200.877894 230.556242 
L 201.693883 233.341863 
L 202.509871 232.570309 
L 203.325859 216.900436 
L 204.141847 234.54036 
L 204.957836 197.16946 
L 205.773824 234.42551 
L 206.589812 197.557323 
L 207.405801 189.070885 
L 208.221789 164.849383 
L 209.037777 158.170623 
L 209.853766 214.575782 
L 210.669754 199.745689 
L 211.485742 193.695019 
L 212.30173 220.993276 
L 213.117719 116.058853 
L 214.749695 233.978626 
L 215.565684 232.003536 
L 217.19766 203.256063 
L 218.013649 169.332118 
L 218.829637 169.293345 
L 219.645625 238.809088 
L 220.461613 228.223194 
L 221.277602 113.356282 
L 222.09359 192.241416 
L 222.909578 205.920898 
L 223.725567 239.449865 
L 224.541555 235.063037 
L 225.357543 142.589356 
L 226.173532 204.459514 
L 226.98952 186.238684 
L 227.805508 230.258723 
L 228.621496 223.388912 
L 229.437485 218.12113 
L 230.253473 225.991501 
L 231.069461 225.641096 
L 231.88545 239.503572 
L 232.701438 236.565431 
L 233.517426 180.110888 
L 234.333415 218.630534 
L 235.149403 237.642849 
L 235.965391 221.94758 
L 236.781379 236.403784 
L 237.597368 240.498845 
L 238.413356 229.600956 
L 239.229344 231.356895 
L 240.045333 229.241305 
L 240.861321 218.410215 
L 241.677309 192.803211 
L 242.493298 238.566453 
L 243.309286 179.33587 
L 244.125274 203.072083 
L 244.941262 236.080617 
L 245.757251 171.551626 
L 247.389227 216.23131 
L 248.205216 214.315554 
L 249.021204 229.165802 
L 249.837192 223.656545 
L 250.653181 237.647457 
L 251.469169 220.285072 
L 252.285157 211.449026 
L 253.101146 210.058005 
L 253.917134 201.214673 
L 254.733122 237.695946 
L 255.54911 235.069938 
L 256.365099 234.95734 
L 257.181087 227.189951 
L 257.997075 228.147961 
L 258.813064 216.088762 
L 259.629052 233.80672 
L 260.44504 241.739105 
L 261.261029 208.060345 
L 262.077017 191.142255 
L 262.893005 238.26177 
L 263.708993 214.374336 
L 264.524982 237.026058 
L 265.34097 224.700633 
L 266.156958 237.008677 
L 266.972947 221.78082 
L 267.788935 232.158275 
L 268.604923 239.391985 
L 269.420912 235.35378 
L 270.2369 233.670043 
L 271.052888 238.012559 
L 271.868876 233.944813 
L 272.684865 232.385122 
L 273.500853 234.863001 
L 274.316841 231.701601 
L 275.13283 235.029352 
L 275.948818 239.174514 
L 276.764806 207.102978 
L 277.580795 236.147991 
L 278.396783 240.550783 
L 279.212771 233.825454 
L 280.028759 234.961539 
L 280.844748 237.859629 
L 281.660736 224.921315 
L 282.476724 241.673894 
L 283.292713 236.923865 
L 284.108701 191.183112 
L 284.924689 231.739834 
L 285.740678 235.839245 
L 286.556666 235.46074 
L 287.372654 211.606999 
L 288.188642 230.848697 
L 289.004631 234.052681 
L 289.820619 239.950641 
L 290.636607 241.327552 
L 291.452596 235.620911 
L 292.268584 217.217608 
L 293.084572 238.902268 
L 293.900561 219.134954 
L 294.716549 227.402908 
L 295.532537 221.909287 
L 296.348525 239.419249 
L 297.164514 232.588876 
L 297.980502 162.999222 
L 298.79649 231.002588 
L 299.612479 221.640167 
L 300.428467 231.884219 
L 301.244455 224.918311 
L 302.060444 216.717153 
L 302.876432 234.662706 
L 303.69242 214.830698 
L 304.508408 227.781489 
L 305.324397 213.037803 
L 306.140385 241.059367 
L 306.956373 228.249775 
L 307.772362 207.764004 
L 308.58835 233.793738 
L 309.404338 239.997365 
L 310.220327 240.612593 
L 311.036315 229.173934 
L 311.852303 230.681051 
L 312.668291 205.735404 
L 313.48428 210.013618 
L 314.300268 237.254175 
L 315.116256 232.716725 
L 315.932245 218.254278 
L 316.748233 235.412749 
L 317.564221 232.885903 
L 318.38021 215.446102 
L 319.196198 231.298667 
L 320.012186 232.242778 
L 320.828175 240.089246 
L 321.644163 238.540978 
L 322.460151 227.010816 
L 323.276139 231.870851 
L 324.092128 235.304928 
L 324.908116 239.805235 
L 325.724104 240.198506 
L 326.540093 241.224933 
L 327.356081 228.753329 
L 328.172069 226.406386 
L 328.988058 239.397068 
L 329.804046 238.051353 
L 330.620034 228.250014 
L 331.436022 236.992523 
L 332.252011 235.985126 
L 333.067999 231.336253 
L 333.883987 233.576324 
L 334.699976 236.686846 
L 335.515964 237.050792 
L 336.331952 237.147216 
L 337.147941 235.748299 
L 337.963929 226.006214 
L 338.779917 236.826992 
L 339.595905 238.352506 
L 340.411894 236.668348 
L 341.227882 240.023562 
L 342.04387 239.009574 
L 342.859859 239.899395 
L 343.675847 237.709143 
L 344.491835 240.511305 
L 345.307824 240.287622 
L 346.123812 239.549955 
L 346.9398 241.597429 
L 347.755788 241.646482 
L 348.571777 238.989848 
L 349.387765 240.106681 
L 350.203753 240.764933 
L 351.019742 241.774547 
L 351.83573 241.921906 
L 352.651718 239.627318 
L 353.467707 240.805621 
L 354.283695 241.350257 
L 355.099683 241.454734 
L 355.915671 241.344921 
L 356.73166 242.071471 
L 357.547648 241.586112 
L 358.363636 240.96455 
L 359.179625 241.969714 
L 359.995613 242.038703 
L 361.62759 241.715857 
L 362.443578 241.967369 
L 364.075554 241.819998 
L 365.707531 242.104968 
L 366.523519 241.85168 
L 367.339508 242.012906 
L 368.155496 241.877746 
L 369.787473 242.074893 
L 371.419449 242.074454 
L 375.499391 242.043281 
L 376.315379 241.986426 
L 377.947356 242.068802 
L 380.39532 242.064348 
L 381.211309 242.094544 
L 382.027297 242.006714 
L 384.475262 242.076356 
L 387.739215 242.108865 
L 388.555204 242.012912 
L 389.371192 242.081475 
L 389.371192 242.081475 
" clip-path="url(#p8213097be4)" style="fill: none; stroke: #dd8452; stroke-opacity: 0.3; stroke-width: 1.5; stroke-linecap: round"/>
   </g>
   <g id="line2d_16">
    <path d="M 54 242.072724 
L 96.431392 242.018901 
L 97.24738 241.960633 
L 98.879357 242.001544 
L 100.511333 242.037572 
L 101.327321 242.054149 
L 102.14331 241.284529 
L 102.959298 242.012549 
L 104.591275 241.862433 
L 105.407263 238.639678 
L 106.223251 241.354306 
L 107.03924 239.399489 
L 107.855228 240.248921 
L 108.671216 212.255775 
L 109.487204 237.644367 
L 110.303193 224.751911 
L 111.119181 175.34771 
L 111.935169 231.412452 
L 112.751158 241.543115 
L 113.567146 140.818824 
L 114.383134 218.706621 
L 115.199123 220.777149 
L 116.015111 137.821708 
L 116.831099 156.731136 
L 117.647087 229.799729 
L 118.463076 165.565843 
L 119.279064 117.838968 
L 120.095052 240.840949 
L 120.911041 44.443636 
L 121.727029 102.255354 
L 122.543017 234.854828 
L 123.359006 157.660855 
L 124.174994 223.697774 
L 124.990982 239.734611 
L 125.806971 182.901843 
L 126.622959 144.749386 
L 127.438947 231.439078 
L 128.254935 234.647335 
L 129.070924 213.888468 
L 129.886912 222.8986 
L 130.7029 238.822623 
L 131.518889 151.250164 
L 132.334877 240.280488 
L 133.150865 231.537648 
L 133.966854 202.044563 
L 134.782842 214.325191 
L 135.59883 237.035002 
L 136.414818 177.655304 
L 137.230807 172.788361 
L 138.046795 234.731082 
L 138.862783 237.115385 
L 139.678772 143.604355 
L 140.49476 238.37103 
L 141.310748 199.535081 
L 142.126737 226.076138 
L 142.942725 197.479328 
L 143.758713 231.66297 
L 144.574701 235.83263 
L 145.39069 198.83296 
L 146.206678 203.194815 
L 147.022666 236.816072 
L 147.838655 213.367429 
L 148.654643 175.609031 
L 149.470631 236.238715 
L 150.28662 237.876924 
L 151.102608 158.545387 
L 151.918596 215.948732 
L 152.734584 241.607859 
L 153.550573 206.863736 
L 154.366561 236.92472 
L 155.182549 236.920585 
L 155.998538 231.949467 
L 156.814526 240.655569 
L 157.630514 211.683918 
L 158.446503 230.647161 
L 159.262491 230.270123 
L 160.078479 188.912745 
L 160.894467 171.869149 
L 161.710456 239.932995 
L 162.526444 212.263968 
L 163.342432 216.749519 
L 164.158421 223.773654 
L 164.974409 215.834884 
L 166.606386 236.108877 
L 167.422374 163.022082 
L 168.238362 221.697855 
L 169.05435 205.574861 
L 169.870339 231.279993 
L 170.686327 241.335903 
L 171.502315 219.92264 
L 172.318304 236.849568 
L 173.134292 235.621899 
L 173.95028 236.76664 
L 174.766269 233.740401 
L 175.582257 216.59839 
L 176.398245 212.888319 
L 177.214233 237.718233 
L 178.030222 239.374935 
L 178.84621 211.054112 
L 179.662198 231.607778 
L 180.478187 224.783949 
L 181.294175 226.192153 
L 182.110163 240.252647 
L 182.926152 223.262532 
L 183.74214 236.510594 
L 184.558128 228.989816 
L 185.374117 217.217613 
L 187.006093 233.767103 
L 187.822081 233.18859 
L 188.63807 233.551794 
L 189.454058 235.537769 
L 190.270046 241.828956 
L 191.086035 220.682497 
L 191.902023 229.850977 
L 192.718011 229.636059 
L 193.534 235.447521 
L 194.349988 235.000525 
L 195.165976 233.265075 
L 195.981964 230.222007 
L 196.797953 199.853305 
L 197.613941 234.192943 
L 198.429929 237.187956 
L 199.245918 217.046751 
L 200.061906 230.731786 
L 200.877894 235.495136 
L 201.693883 233.947131 
L 202.509871 240.845583 
L 203.325859 225.840821 
L 204.141847 230.30539 
L 204.957836 241.101154 
L 205.773824 232.763075 
L 206.589812 232.465128 
L 207.405801 241.28743 
L 208.221789 242.10241 
L 209.037777 220.937162 
L 209.853766 241.421852 
L 210.669754 241.797298 
L 211.485742 237.813828 
L 212.30173 233.175451 
L 213.117719 234.059965 
L 213.933707 241.516667 
L 214.749695 237.836638 
L 215.565684 224.685063 
L 216.381672 232.737427 
L 217.19766 221.479448 
L 218.013649 237.473852 
L 218.829637 236.122543 
L 219.645625 225.329019 
L 220.461613 238.541017 
L 221.277602 227.383032 
L 222.09359 241.455111 
L 222.909578 233.214711 
L 223.725567 238.81356 
L 224.541555 238.58674 
L 225.357543 230.495646 
L 226.173532 234.892857 
L 226.98952 220.469864 
L 227.805508 237.960227 
L 228.621496 240.524093 
L 229.437485 224.750758 
L 230.253473 241.271934 
L 231.069461 235.837426 
L 232.701438 235.127259 
L 233.517426 223.418134 
L 234.333415 234.275191 
L 235.149403 238.571638 
L 235.965391 220.046258 
L 236.781379 239.038046 
L 237.597368 209.775783 
L 238.413356 235.121214 
L 240.045333 233.724516 
L 240.861321 231.739173 
L 241.677309 238.876195 
L 242.493298 240.933503 
L 243.309286 226.439031 
L 244.125274 238.492787 
L 244.941262 236.956131 
L 245.757251 240.635885 
L 246.573239 241.932221 
L 247.389227 233.776832 
L 248.205216 241.219335 
L 249.021204 241.159543 
L 249.837192 240.213645 
L 250.653181 240.279223 
L 251.469169 241.116213 
L 252.285157 229.954574 
L 253.101146 238.265575 
L 253.917134 218.542656 
L 254.733122 223.936274 
L 255.54911 234.396033 
L 256.365099 215.756753 
L 257.181087 241.008479 
L 257.997075 233.413341 
L 258.813064 241.044144 
L 259.629052 236.873043 
L 260.44504 238.486451 
L 261.261029 239.137911 
L 262.077017 237.508883 
L 262.893005 237.618186 
L 263.708993 238.441704 
L 264.524982 234.416229 
L 265.34097 239.129807 
L 266.156958 238.483799 
L 266.972947 239.609012 
L 267.788935 235.431529 
L 268.604923 241.064597 
L 270.2369 225.342708 
L 271.052888 235.566941 
L 271.868876 239.032906 
L 272.684865 224.329986 
L 273.500853 237.609657 
L 274.316841 232.386379 
L 275.13283 232.163133 
L 275.948818 236.72475 
L 276.764806 239.003148 
L 277.580795 236.71851 
L 278.396783 239.391972 
L 279.212771 240.773917 
L 280.028759 223.719293 
L 280.844748 238.750577 
L 281.660736 241.961114 
L 282.476724 236.956806 
L 283.292713 237.329642 
L 284.108701 230.743037 
L 284.924689 239.399493 
L 285.740678 242.002457 
L 286.556666 235.084803 
L 287.372654 231.311942 
L 288.188642 236.838022 
L 289.004631 238.008229 
L 289.820619 237.132137 
L 290.636607 237.078672 
L 291.452596 232.878599 
L 292.268584 239.917256 
L 293.900561 230.188395 
L 294.716549 241.74652 
L 295.532537 237.420851 
L 296.348525 241.669409 
L 297.164514 234.727676 
L 297.980502 226.632035 
L 298.79649 239.931375 
L 299.612479 238.880061 
L 300.428467 234.310207 
L 301.244455 241.282356 
L 302.060444 240.43811 
L 302.876432 240.886526 
L 304.508408 235.408565 
L 305.324397 241.473775 
L 306.140385 239.435747 
L 306.956373 238.418659 
L 307.772362 235.708947 
L 308.58835 237.530708 
L 309.404338 241.81457 
L 310.220327 233.876877 
L 311.036315 241.347933 
L 311.852303 238.438363 
L 312.668291 241.064913 
L 313.48428 237.379323 
L 314.300268 236.633176 
L 315.116256 241.795405 
L 315.932245 239.047029 
L 316.748233 241.773457 
L 317.564221 241.010578 
L 318.38021 239.625271 
L 320.012186 238.005575 
L 320.828175 240.702575 
L 321.644163 241.524403 
L 322.460151 241.976934 
L 323.276139 240.405816 
L 324.092128 240.323924 
L 324.908116 242.103172 
L 325.724104 242.016467 
L 326.540093 236.768511 
L 327.356081 241.091176 
L 328.172069 237.87909 
L 328.988058 240.225441 
L 329.804046 241.713703 
L 330.620034 241.897756 
L 331.436022 240.554732 
L 332.252011 242.097633 
L 333.067999 241.843622 
L 333.883987 239.608174 
L 334.699976 242.077868 
L 335.515964 241.889525 
L 336.331952 241.214899 
L 337.147941 241.553677 
L 337.963929 241.107372 
L 338.779917 242.026655 
L 339.595905 242.116312 
L 341.227882 241.625574 
L 342.04387 241.863809 
L 342.859859 241.177554 
L 343.675847 242.023843 
L 344.491835 241.173389 
L 345.307824 241.668536 
L 346.123812 241.742561 
L 346.9398 240.679547 
L 347.755788 241.536455 
L 348.571777 241.216241 
L 349.387765 241.704834 
L 350.203753 241.730243 
L 351.019742 241.932734 
L 354.283695 241.508787 
L 355.099683 242.090587 
L 358.363636 241.87132 
L 359.179625 242.037407 
L 359.995613 241.965924 
L 361.62759 242.107966 
L 362.443578 242.027975 
L 363.259566 242.103451 
L 364.075554 241.976465 
L 364.891543 242.11359 
L 366.523519 242.110974 
L 367.339508 242.109637 
L 368.155496 241.750231 
L 368.971484 242.066297 
L 371.419449 242.093287 
L 380.39532 242.113352 
L 389.371192 242.103332 
L 389.371192 242.103332 
" clip-path="url(#p8213097be4)" style="fill: none; stroke: #55a868; stroke-opacity: 0.3; stroke-width: 1.5; stroke-linecap: round"/>
   </g>
   <g id="line2d_17">
    <path d="M 54 237.352277 
L 62.159883 237.230142 
L 69.503778 236.883747 
L 75.215696 236.403032 
L 80.111626 235.772669 
L 84.191567 235.010878 
L 86.639532 234.427119 
L 89.903485 233.341768 
L 90.719474 233.005175 
L 91.535462 232.494892 
L 93.167438 231.878184 
L 94.799415 230.730988 
L 96.431392 228.911518 
L 97.24738 227.042915 
L 98.063368 228.071686 
L 98.879357 228.363741 
L 99.695345 225.797051 
L 101.327321 224.358883 
L 102.959298 219.01525 
L 103.775286 201.063925 
L 104.591275 152.464061 
L 105.407263 178.329188 
L 106.223251 196.877778 
L 107.03924 174.03187 
L 107.855228 136.237835 
L 108.671216 87.215126 
L 109.487204 96.20036 
L 110.303193 121.289972 
L 111.119181 156.776222 
L 111.935169 165.568001 
L 112.751158 44.443636 
L 113.567146 109.365707 
L 114.383134 110.335244 
L 115.199123 117.132741 
L 116.015111 72.95093 
L 116.831099 159.898532 
L 117.647087 194.465358 
L 118.463076 150.839075 
L 119.279064 87.930755 
L 120.095052 125.896772 
L 120.911041 128.520265 
L 121.727029 183.593827 
L 122.543017 91.378496 
L 123.359006 99.215414 
L 124.174994 144.491307 
L 124.990982 181.510868 
L 125.806971 197.900348 
L 126.622959 188.473998 
L 127.438947 145.236933 
L 128.254935 184.836733 
L 129.070924 176.302326 
L 129.886912 207.812952 
L 130.7029 229.608081 
L 131.518889 234.376232 
L 132.334877 227.231526 
L 133.150865 194.655613 
L 133.966854 236.928508 
L 134.782842 242.013982 
L 135.59883 229.422054 
L 136.414818 230.909537 
L 137.230807 224.914689 
L 138.046795 224.832573 
L 138.862783 207.704068 
L 139.678772 219.845053 
L 140.49476 199.804307 
L 141.310748 188.06809 
L 142.126737 200.901214 
L 142.942725 191.374346 
L 143.758713 219.460469 
L 144.574701 214.274003 
L 145.39069 233.635274 
L 146.206678 226.459109 
L 147.022666 225.38724 
L 147.838655 237.097948 
L 148.654643 240.77676 
L 149.470631 238.397229 
L 150.28662 240.243907 
L 151.102608 231.46244 
L 151.918596 230.69738 
L 152.734584 211.846508 
L 153.550573 235.177418 
L 154.366561 218.81135 
L 155.182549 218.979624 
L 155.998538 209.890825 
L 156.814526 202.868651 
L 157.630514 209.216222 
L 158.446503 227.935252 
L 159.262491 228.122407 
L 160.078479 230.360392 
L 160.894467 233.729296 
L 161.710456 240.679187 
L 162.526444 238.648187 
L 163.342432 236.073531 
L 164.158421 242.077626 
L 164.974409 238.292583 
L 165.790397 241.131943 
L 166.606386 233.528786 
L 167.422374 231.76847 
L 168.238362 234.008964 
L 169.05435 241.238279 
L 169.870339 237.382295 
L 170.686327 240.129946 
L 171.502315 236.120353 
L 172.318304 233.633169 
L 173.134292 234.89849 
L 173.95028 239.763013 
L 174.766269 241.72937 
L 175.582257 240.396135 
L 176.398245 240.172572 
L 177.214233 240.463711 
L 178.030222 241.699808 
L 178.84621 240.177082 
L 179.662198 241.771702 
L 180.478187 241.33444 
L 181.294175 242.026682 
L 182.110163 240.242288 
L 182.926152 237.433042 
L 183.74214 241.750022 
L 184.558128 240.753561 
L 185.374117 241.323812 
L 186.190105 241.008825 
L 187.006093 239.416764 
L 187.822081 241.756045 
L 188.63807 241.307353 
L 189.454058 241.985634 
L 190.270046 241.547692 
L 191.086035 238.312871 
L 191.902023 239.886714 
L 192.718011 240.002207 
L 193.534 240.290759 
L 194.349988 241.105679 
L 195.165976 240.979216 
L 195.981964 238.200248 
L 196.797953 239.173979 
L 197.613941 237.740792 
L 198.429929 240.739351 
L 199.245918 241.092522 
L 200.061906 237.493624 
L 200.877894 240.913963 
L 201.693883 241.557985 
L 202.509871 241.313992 
L 203.325859 241.91921 
L 204.141847 241.34196 
L 204.957836 238.555112 
L 205.773824 237.108286 
L 206.589812 240.867773 
L 207.405801 240.442552 
L 208.221789 239.409025 
L 209.037777 241.436181 
L 209.853766 239.142577 
L 210.669754 239.831514 
L 211.485742 237.47405 
L 212.30173 241.188401 
L 213.117719 241.586238 
L 213.933707 239.621122 
L 214.749695 241.542767 
L 215.565684 241.959953 
L 216.381672 242.077276 
L 217.19766 241.711908 
L 218.013649 239.111694 
L 218.829637 240.115452 
L 219.645625 238.515465 
L 220.461613 241.028348 
L 221.277602 241.666029 
L 222.09359 238.917889 
L 222.909578 238.687434 
L 223.725567 239.176982 
L 224.541555 241.899289 
L 225.357543 241.354566 
L 226.173532 237.550189 
L 226.98952 236.426909 
L 227.805508 239.750514 
L 228.621496 241.443767 
L 229.437485 240.41184 
L 231.069461 241.041392 
L 231.88545 240.687781 
L 233.517426 242.021557 
L 234.333415 241.291438 
L 235.149403 242.040001 
L 235.965391 241.387178 
L 236.781379 241.506067 
L 237.597368 242.03363 
L 238.413356 240.795155 
L 239.229344 241.346564 
L 240.045333 241.454501 
L 240.861321 240.987577 
L 241.677309 241.169543 
L 242.493298 241.75232 
L 243.309286 238.30186 
L 244.125274 240.884735 
L 244.941262 241.663679 
L 245.757251 241.210978 
L 246.573239 239.540993 
L 247.389227 238.772888 
L 248.205216 241.018396 
L 249.021204 240.022781 
L 250.653181 242.073424 
L 251.469169 241.152764 
L 252.285157 241.920347 
L 253.101146 242.101871 
L 253.917134 241.624804 
L 254.733122 240.436922 
L 255.54911 240.221897 
L 256.365099 241.953073 
L 257.181087 241.498069 
L 257.997075 239.588259 
L 258.813064 240.71847 
L 259.629052 240.051042 
L 260.44504 241.454242 
L 261.261029 241.776124 
L 262.077017 238.539302 
L 262.893005 239.268866 
L 263.708993 241.405616 
L 264.524982 240.953878 
L 265.34097 241.729433 
L 266.156958 241.870855 
L 266.972947 239.643201 
L 267.788935 239.735993 
L 268.604923 240.511216 
L 269.420912 239.749072 
L 270.2369 242.083349 
L 271.052888 240.846047 
L 271.868876 240.131034 
L 272.684865 239.730031 
L 273.500853 240.168209 
L 274.316841 241.252519 
L 275.13283 241.742598 
L 275.948818 240.578727 
L 276.764806 241.388411 
L 277.580795 241.791379 
L 278.396783 241.660961 
L 279.212771 241.211722 
L 280.028759 241.298377 
L 282.476724 241.921121 
L 284.108701 241.132848 
L 284.924689 241.947677 
L 285.740678 241.68038 
L 286.556666 242.084691 
L 288.188642 241.551874 
L 289.820619 241.449192 
L 290.636607 241.615139 
L 291.452596 241.997943 
L 292.268584 241.974565 
L 293.084572 239.756826 
L 293.900561 240.591941 
L 294.716549 240.110411 
L 295.532537 242.079669 
L 296.348525 241.897173 
L 297.980502 239.960977 
L 298.79649 239.10971 
L 299.612479 241.729949 
L 300.428467 242.037662 
L 301.244455 241.104718 
L 302.060444 241.940195 
L 302.876432 241.465934 
L 303.69242 241.947451 
L 304.508408 242.089146 
L 305.324397 241.667905 
L 306.140385 241.374533 
L 306.956373 241.316946 
L 307.772362 240.935521 
L 308.58835 242.058297 
L 309.404338 241.729064 
L 310.220327 241.706514 
L 311.036315 241.883635 
L 311.852303 241.59137 
L 312.668291 241.954814 
L 313.48428 241.788418 
L 314.300268 241.486888 
L 315.116256 241.43514 
L 315.932245 241.559936 
L 316.748233 241.391436 
L 317.564221 241.94797 
L 318.38021 241.925474 
L 320.012186 240.411659 
L 320.828175 241.468403 
L 321.644163 242.09294 
L 322.460151 241.794734 
L 324.908116 241.290912 
L 325.724104 242.072069 
L 327.356081 241.815043 
L 328.988058 241.557571 
L 329.804046 241.984901 
L 330.620034 241.788702 
L 331.436022 242.11311 
L 333.067999 241.876646 
L 333.883987 241.637093 
L 334.699976 241.617884 
L 335.515964 242.111859 
L 336.331952 241.965472 
L 337.147941 240.993231 
L 337.963929 241.734995 
L 339.595905 242.030457 
L 340.411894 242.028611 
L 342.04387 241.615967 
L 343.675847 241.937293 
L 345.307824 242.029604 
L 346.123812 241.87734 
L 346.9398 241.982774 
L 348.571777 242.042077 
L 349.387765 242.085091 
L 351.019742 241.925077 
L 351.83573 241.813037 
L 352.651718 242.008105 
L 354.283695 242.084795 
L 355.915671 241.991634 
L 357.547648 242.08552 
L 367.339508 242.063943 
L 380.39532 242.062164 
L 389.371192 242.07143 
L 389.371192 242.07143 
" clip-path="url(#p8213097be4)" style="fill: none; stroke: #c44e52; stroke-opacity: 0.3; stroke-width: 1.5; stroke-linecap: round"/>
   </g>
   <g id="line2d_18">
    <path d="M 54 241.079921 
L 72.767731 240.96811 
L 85.823544 240.712352 
L 91.535462 240.344291 
L 92.35145 239.975362 
L 93.167438 240.142665 
L 93.983427 239.841208 
L 94.799415 240.043646 
L 95.615403 239.477772 
L 96.431392 240.270483 
L 97.24738 240.778854 
L 98.063368 239.707019 
L 98.879357 235.697527 
L 99.695345 237.383961 
L 100.511333 232.320301 
L 101.327321 233.998418 
L 102.14331 231.896406 
L 103.775286 238.004055 
L 104.591275 238.517717 
L 105.407263 237.565551 
L 106.223251 122.89702 
L 107.03924 85.527117 
L 107.855228 197.693617 
L 108.671216 217.936624 
L 109.487204 217.352279 
L 110.303193 130.906107 
L 111.119181 118.925166 
L 111.935169 194.091408 
L 112.751158 122.885949 
L 113.567146 229.910353 
L 114.383134 114.749859 
L 115.199123 209.058917 
L 116.015111 233.825337 
L 116.831099 231.829117 
L 117.647087 232.109301 
L 118.463076 153.378864 
L 119.279064 221.276455 
L 120.095052 182.738247 
L 120.911041 211.249416 
L 121.727029 44.443636 
L 122.543017 163.830577 
L 123.359006 205.818485 
L 124.174994 216.154405 
L 124.990982 224.652414 
L 125.806971 236.758276 
L 126.622959 174.104783 
L 127.438947 91.154013 
L 128.254935 212.910176 
L 129.070924 160.369016 
L 129.886912 115.351335 
L 130.7029 198.598561 
L 131.518889 61.14016 
L 132.334877 171.255879 
L 133.150865 229.593247 
L 133.966854 197.799402 
L 134.782842 229.421241 
L 135.59883 237.929535 
L 136.414818 231.85515 
L 137.230807 170.787565 
L 138.046795 163.587208 
L 138.862783 166.812387 
L 139.678772 215.211118 
L 140.49476 166.06265 
L 141.310748 173.592092 
L 142.126737 214.209407 
L 142.942725 208.496478 
L 143.758713 198.217758 
L 144.574701 136.803427 
L 145.39069 203.156303 
L 146.206678 184.969567 
L 147.022666 188.344701 
L 147.838655 185.243616 
L 148.654643 241.091381 
L 149.470631 212.369209 
L 150.28662 241.361957 
L 152.734584 112.144722 
L 153.550573 196.406684 
L 154.366561 163.491361 
L 155.182549 228.399315 
L 156.814526 176.100408 
L 157.630514 240.564704 
L 158.446503 232.509593 
L 159.262491 204.206096 
L 160.078479 238.93243 
L 160.894467 221.644208 
L 161.710456 233.426235 
L 162.526444 237.455397 
L 163.342432 223.686285 
L 164.158421 114.883689 
L 164.974409 221.454851 
L 165.790397 238.785762 
L 166.606386 228.096696 
L 167.422374 167.832641 
L 168.238362 225.988972 
L 169.05435 240.397284 
L 169.870339 135.044279 
L 171.502315 229.996155 
L 172.318304 217.254785 
L 173.134292 234.7173 
L 173.95028 221.145253 
L 174.766269 210.070396 
L 175.582257 239.436614 
L 176.398245 204.805988 
L 177.214233 234.903597 
L 178.030222 240.373852 
L 178.84621 226.048079 
L 179.662198 174.025689 
L 180.478187 228.113789 
L 181.294175 236.374577 
L 182.110163 213.41185 
L 182.926152 240.571018 
L 183.74214 235.569945 
L 184.558128 237.935105 
L 185.374117 230.603937 
L 186.190105 237.977983 
L 187.006093 240.559237 
L 187.822081 225.051934 
L 188.63807 178.201355 
L 189.454058 222.574809 
L 190.270046 242.015789 
L 191.086035 235.728696 
L 191.902023 152.309466 
L 192.718011 221.544588 
L 193.534 234.237124 
L 194.349988 211.836852 
L 195.165976 214.360257 
L 195.981964 201.528815 
L 196.797953 194.737647 
L 197.613941 193.220795 
L 198.429929 229.421103 
L 199.245918 228.348905 
L 200.061906 241.931653 
L 200.877894 177.282638 
L 201.693883 192.851742 
L 202.509871 226.483567 
L 203.325859 199.869965 
L 204.141847 158.610967 
L 204.957836 218.295945 
L 205.773824 239.345177 
L 206.589812 218.546257 
L 207.405801 212.206899 
L 208.221789 180.37176 
L 209.037777 241.262555 
L 209.853766 197.966476 
L 210.669754 207.979274 
L 211.485742 207.517327 
L 212.30173 233.652558 
L 213.117719 207.386315 
L 213.933707 206.020996 
L 214.749695 195.390531 
L 215.565684 220.050278 
L 216.381672 237.762376 
L 217.19766 165.037319 
L 218.013649 194.06756 
L 218.829637 231.577808 
L 219.645625 222.491773 
L 220.461613 185.489364 
L 221.277602 114.224974 
L 222.09359 215.854475 
L 222.909578 241.367552 
L 223.725567 191.519918 
L 224.541555 201.633117 
L 225.357543 209.197177 
L 226.173532 234.657725 
L 226.98952 241.260445 
L 227.805508 240.926902 
L 228.621496 230.197758 
L 229.437485 209.818702 
L 231.069461 226.559684 
L 231.88545 231.193971 
L 232.701438 210.250664 
L 233.517426 239.777003 
L 234.333415 232.632209 
L 235.149403 203.149504 
L 235.965391 183.767516 
L 236.781379 233.526846 
L 237.597368 238.599282 
L 238.413356 241.309009 
L 239.229344 233.77521 
L 240.045333 229.520414 
L 240.861321 222.324424 
L 241.677309 237.557529 
L 242.493298 237.771236 
L 243.309286 207.857236 
L 244.125274 226.494176 
L 244.941262 232.990387 
L 245.757251 195.788429 
L 246.573239 180.993849 
L 247.389227 216.433514 
L 248.205216 229.205161 
L 249.021204 229.156849 
L 249.837192 241.009323 
L 250.653181 229.490349 
L 251.469169 236.299788 
L 252.285157 223.012971 
L 253.101146 213.54218 
L 253.917134 224.36058 
L 254.733122 231.193628 
L 255.54911 240.847401 
L 256.365099 221.200508 
L 257.997075 234.912979 
L 258.813064 233.240046 
L 259.629052 230.310092 
L 260.44504 215.189054 
L 261.261029 214.057616 
L 262.077017 237.918282 
L 262.893005 229.311878 
L 263.708993 235.572943 
L 264.524982 229.10076 
L 265.34097 242.009083 
L 266.156958 196.172557 
L 266.972947 205.5146 
L 267.788935 239.556423 
L 268.604923 241.6881 
L 269.420912 239.183698 
L 270.2369 229.565771 
L 271.052888 204.299894 
L 271.868876 230.484077 
L 272.684865 212.571501 
L 273.500853 198.57857 
L 274.316841 220.306598 
L 275.13283 213.392435 
L 275.948818 240.184667 
L 276.764806 216.742117 
L 277.580795 206.323268 
L 278.396783 233.809643 
L 279.212771 241.462116 
L 280.028759 238.886202 
L 280.844748 241.568264 
L 281.660736 242.107646 
L 282.476724 233.637505 
L 283.292713 232.22663 
L 284.108701 232.275194 
L 284.924689 239.302403 
L 285.740678 241.823715 
L 286.556666 233.471345 
L 288.188642 228.424745 
L 289.004631 229.305064 
L 289.820619 234.389704 
L 290.636607 240.426474 
L 291.452596 232.474531 
L 292.268584 203.110496 
L 293.084572 226.73604 
L 293.900561 231.837174 
L 294.716549 240.218715 
L 295.532537 240.577351 
L 296.348525 220.097213 
L 297.164514 221.141366 
L 298.79649 233.402117 
L 299.612479 232.131243 
L 300.428467 240.373736 
L 301.244455 233.152394 
L 302.060444 233.852731 
L 302.876432 236.691486 
L 303.69242 237.965281 
L 304.508408 229.497552 
L 305.324397 239.275262 
L 306.140385 241.513168 
L 306.956373 231.86069 
L 307.772362 234.779958 
L 308.58835 236.465718 
L 309.404338 225.327138 
L 310.220327 234.299079 
L 311.036315 236.370965 
L 311.852303 238.844603 
L 312.668291 230.183347 
L 313.48428 234.433461 
L 314.300268 231.965932 
L 315.116256 232.216622 
L 315.932245 237.293695 
L 316.748233 240.095322 
L 317.564221 239.613001 
L 318.38021 239.821162 
L 320.012186 241.720968 
L 321.644163 238.059427 
L 322.460151 235.160888 
L 323.276139 236.545595 
L 324.092128 241.157811 
L 324.908116 240.565236 
L 325.724104 240.870358 
L 326.540093 240.032692 
L 327.356081 240.673904 
L 328.172069 238.331478 
L 328.988058 241.40932 
L 329.804046 238.580056 
L 330.620034 239.204835 
L 331.436022 241.354153 
L 332.252011 240.567159 
L 333.067999 240.843394 
L 333.883987 241.806556 
L 334.699976 241.512757 
L 335.515964 241.754806 
L 336.331952 239.175196 
L 337.147941 239.591311 
L 337.963929 241.381625 
L 338.779917 241.646477 
L 339.595905 239.49711 
L 340.411894 236.441121 
L 341.227882 240.262883 
L 342.859859 242.098792 
L 343.675847 239.082866 
L 344.491835 238.443866 
L 345.307824 240.536765 
L 346.123812 241.978634 
L 346.9398 242.115066 
L 347.755788 241.030841 
L 348.571777 241.793502 
L 349.387765 240.192323 
L 351.019742 242.066249 
L 351.83573 241.85034 
L 352.651718 240.366173 
L 353.467707 241.661208 
L 354.283695 241.364625 
L 355.915671 242.084256 
L 356.73166 241.756826 
L 357.547648 242.02315 
L 358.363636 241.687046 
L 359.179625 242.012336 
L 360.811601 241.893295 
L 361.62759 242.089602 
L 362.443578 242.11547 
L 364.075554 241.867937 
L 365.707531 242.060839 
L 366.523519 241.916952 
L 369.787473 242.074347 
L 372.235437 242.060464 
L 373.867414 241.999907 
L 375.499391 242.045446 
L 376.315379 241.953437 
L 377.131367 242.085321 
L 379.579332 242.094941 
L 386.923227 242.069957 
L 389.371192 242.048955 
L 389.371192 242.048955 
" clip-path="url(#p8213097be4)" style="fill: none; stroke: #8172b3; stroke-opacity: 0.3; stroke-width: 1.5; stroke-linecap: round"/>
   </g>
   <g id="line2d_19">
    <path d="M 54 241.975043 
L 94.799415 241.87971 
L 97.24738 241.818214 
L 98.063368 242.034628 
L 98.879357 241.853426 
L 99.695345 241.307754 
L 100.511333 240.466501 
L 101.327321 241.915399 
L 102.14331 241.349252 
L 102.959298 240.05761 
L 103.775286 241.810582 
L 104.591275 233.331214 
L 105.407263 231.018786 
L 106.223251 234.209772 
L 107.03924 240.984489 
L 107.855228 235.476903 
L 108.671216 240.443113 
L 109.487204 228.463954 
L 110.303193 218.417108 
L 111.119181 233.560211 
L 111.935169 210.446284 
L 112.751158 233.229581 
L 113.567146 171.750456 
L 114.383134 217.719268 
L 115.199123 241.919965 
L 116.015111 179.653966 
L 116.831099 146.184834 
L 117.647087 211.009417 
L 118.463076 214.807085 
L 119.279064 169.072678 
L 120.095052 224.755328 
L 120.911041 199.207348 
L 121.727029 44.443636 
L 122.543017 237.481562 
L 123.359006 183.460983 
L 124.174994 232.73316 
L 124.990982 232.166347 
L 125.806971 152.685042 
L 126.622959 210.542291 
L 127.438947 223.675603 
L 128.254935 239.102814 
L 129.070924 214.77229 
L 129.886912 235.655942 
L 130.7029 209.628891 
L 131.518889 224.941607 
L 132.334877 219.746401 
L 133.150865 221.514893 
L 133.966854 184.069875 
L 134.782842 196.815595 
L 135.59883 239.216855 
L 136.414818 225.511752 
L 137.230807 235.483041 
L 138.046795 236.010302 
L 138.862783 231.460593 
L 139.678772 218.480896 
L 140.49476 239.151947 
L 141.310748 241.71297 
L 142.126737 234.046697 
L 142.942725 238.922594 
L 143.758713 241.572388 
L 144.574701 234.036485 
L 145.39069 213.736345 
L 146.206678 226.578598 
L 147.022666 172.863119 
L 147.838655 228.668798 
L 148.654643 235.185844 
L 149.470631 235.977461 
L 150.28662 197.675102 
L 151.102608 233.361065 
L 151.918596 217.753181 
L 152.734584 230.297725 
L 153.550573 208.519438 
L 154.366561 183.02196 
L 155.182549 222.556422 
L 155.998538 239.011127 
L 156.814526 222.857808 
L 157.630514 223.305812 
L 158.446503 233.617445 
L 159.262491 207.866902 
L 160.078479 240.761543 
L 160.894467 187.945552 
L 161.710456 218.037519 
L 162.526444 222.130246 
L 163.342432 230.5836 
L 164.158421 195.729909 
L 164.974409 213.422578 
L 165.790397 240.570562 
L 166.606386 239.059271 
L 167.422374 197.697519 
L 168.238362 230.047811 
L 169.05435 231.79619 
L 169.870339 217.67494 
L 170.686327 222.035035 
L 171.502315 237.801354 
L 172.318304 203.600096 
L 173.134292 237.388993 
L 173.95028 231.167805 
L 174.766269 192.077836 
L 175.582257 226.890339 
L 176.398245 227.629137 
L 177.214233 236.21941 
L 178.030222 231.936751 
L 178.84621 222.413693 
L 179.662198 220.868578 
L 180.478187 234.532121 
L 181.294175 207.43253 
L 182.110163 207.099299 
L 182.926152 240.346687 
L 183.74214 232.143368 
L 184.558128 237.944685 
L 185.374117 230.318139 
L 186.190105 237.157593 
L 187.006093 203.285812 
L 187.822081 241.266142 
L 188.63807 190.9221 
L 189.454058 225.104816 
L 190.270046 238.520348 
L 191.086035 235.613873 
L 191.902023 227.298397 
L 192.718011 233.988853 
L 193.534 237.38957 
L 194.349988 222.819881 
L 195.165976 227.900398 
L 195.981964 231.812983 
L 196.797953 227.262674 
L 197.613941 217.429396 
L 198.429929 237.01702 
L 199.245918 224.384237 
L 200.061906 227.622637 
L 200.877894 212.423604 
L 201.693883 215.994569 
L 202.509871 225.038807 
L 203.325859 221.771772 
L 204.141847 206.562498 
L 204.957836 225.278372 
L 205.773824 205.328718 
L 206.589812 217.795502 
L 207.405801 217.854448 
L 208.221789 210.222863 
L 209.037777 237.093119 
L 209.853766 207.487321 
L 210.669754 220.160919 
L 211.485742 227.491067 
L 212.30173 206.203152 
L 213.117719 233.10449 
L 213.933707 230.129209 
L 214.749695 230.339268 
L 215.565684 223.888926 
L 216.381672 241.958863 
L 217.19766 221.686934 
L 218.013649 233.952027 
L 218.829637 241.92258 
L 220.461613 229.51981 
L 221.277602 204.045928 
L 222.09359 238.817367 
L 222.909578 241.976422 
L 223.725567 224.156467 
L 224.541555 241.68881 
L 225.357543 239.898825 
L 226.173532 234.458938 
L 226.98952 238.192449 
L 227.805508 231.107946 
L 228.621496 234.548331 
L 229.437485 234.144786 
L 230.253473 231.694823 
L 231.069461 239.714606 
L 231.88545 238.921377 
L 232.701438 238.771632 
L 233.517426 240.400844 
L 234.333415 228.827342 
L 235.149403 236.100947 
L 235.965391 226.069223 
L 236.781379 219.855961 
L 237.597368 222.913152 
L 238.413356 234.058882 
L 239.229344 238.815515 
L 240.045333 236.36597 
L 240.861321 241.921714 
L 241.677309 240.02766 
L 242.493298 234.252484 
L 243.309286 236.766413 
L 244.125274 241.307256 
L 244.941262 237.532482 
L 245.757251 239.788882 
L 246.573239 224.581369 
L 247.389227 236.454521 
L 248.205216 222.892573 
L 249.021204 234.693301 
L 249.837192 241.027216 
L 250.653181 236.709957 
L 251.469169 240.80979 
L 252.285157 237.610376 
L 253.917134 232.806755 
L 254.733122 239.452924 
L 255.54911 230.785163 
L 256.365099 236.86358 
L 257.181087 238.722748 
L 257.997075 238.368262 
L 258.813064 239.786293 
L 259.629052 236.463792 
L 260.44504 232.670723 
L 261.261029 238.600801 
L 262.077017 229.337317 
L 262.893005 236.262744 
L 263.708993 241.777167 
L 264.524982 229.815881 
L 265.34097 230.528344 
L 266.156958 219.602363 
L 266.972947 230.574602 
L 267.788935 235.060792 
L 268.604923 221.664645 
L 270.2369 237.662752 
L 271.052888 230.913315 
L 271.868876 241.886693 
L 272.684865 225.712349 
L 273.500853 229.601186 
L 274.316841 238.844272 
L 275.13283 232.852903 
L 275.948818 234.878539 
L 276.764806 232.374184 
L 277.580795 234.535988 
L 278.396783 232.122394 
L 279.212771 236.749033 
L 280.028759 226.589136 
L 280.844748 240.723356 
L 281.660736 240.053309 
L 282.476724 239.85657 
L 283.292713 238.425603 
L 284.108701 238.384867 
L 284.924689 241.725038 
L 285.740678 241.551221 
L 286.556666 237.209251 
L 287.372654 238.928688 
L 288.188642 239.328833 
L 289.004631 241.693479 
L 289.820619 238.727296 
L 291.452596 240.360963 
L 292.268584 237.739504 
L 293.084572 237.580503 
L 293.900561 241.087217 
L 294.716549 232.883094 
L 295.532537 239.487866 
L 296.348525 235.54009 
L 297.164514 241.235678 
L 297.980502 239.621576 
L 298.79649 240.74566 
L 299.612479 240.391361 
L 300.428467 237.599032 
L 301.244455 240.684655 
L 302.060444 240.477638 
L 302.876432 238.623547 
L 303.69242 237.591727 
L 304.508408 242.112772 
L 306.140385 233.147142 
L 306.956373 238.515762 
L 307.772362 240.70126 
L 308.58835 239.528841 
L 309.404338 236.295605 
L 310.220327 240.18673 
L 311.036315 238.717018 
L 311.852303 236.035702 
L 312.668291 236.179308 
L 313.48428 238.901222 
L 314.300268 237.749525 
L 315.116256 232.990575 
L 315.932245 238.831007 
L 316.748233 239.838839 
L 317.564221 241.844554 
L 318.38021 238.954708 
L 319.196198 234.924879 
L 320.012186 235.974673 
L 320.828175 240.612194 
L 321.644163 240.885773 
L 322.460151 240.233293 
L 323.276139 239.918769 
L 324.092128 241.196441 
L 324.908116 241.141212 
L 325.724104 240.421668 
L 326.540093 241.049331 
L 327.356081 240.684531 
L 328.172069 236.694349 
L 328.988058 237.587688 
L 329.804046 241.318191 
L 330.620034 242.06866 
L 331.436022 242.045141 
L 332.252011 240.175471 
L 333.067999 241.220718 
L 333.883987 240.499425 
L 334.699976 241.868131 
L 335.515964 240.546457 
L 336.331952 241.926368 
L 337.147941 239.728105 
L 337.963929 241.180515 
L 338.779917 241.713436 
L 339.595905 240.617652 
L 340.411894 241.439929 
L 341.227882 239.024111 
L 342.04387 240.540813 
L 342.859859 241.498553 
L 343.675847 241.737207 
L 344.491835 240.908236 
L 345.307824 241.993937 
L 346.123812 242.08619 
L 346.9398 241.945041 
L 347.755788 241.478708 
L 348.571777 241.87949 
L 349.387765 241.531518 
L 351.019742 241.810025 
L 351.83573 241.355864 
L 352.651718 241.165682 
L 353.467707 242.005283 
L 354.283695 241.850365 
L 355.099683 242.013572 
L 357.547648 242.053885 
L 362.443578 242.102636 
L 364.891543 242.023338 
L 365.707531 242.082245 
L 366.523519 241.965987 
L 368.155496 242.109893 
L 375.499391 242.033614 
L 376.315379 241.978989 
L 377.131367 242.085895 
L 383.659274 242.089206 
L 385.29125 242.082592 
L 386.923227 242.049422 
L 388.555204 242.108052 
L 389.371192 242.074857 
L 389.371192 242.074857 
" clip-path="url(#p8213097be4)" style="fill: none; stroke: #937860; stroke-opacity: 0.3; stroke-width: 1.5; stroke-linecap: round"/>
   </g>
   <g id="line2d_20">
    <path d="M 54 237.609213 
L 62.159883 237.493179 
L 69.503778 237.16378 
L 75.215696 236.705995 
L 80.111626 236.104033 
L 84.191567 235.373579 
L 87.45552 234.578348 
L 90.719474 233.469241 
L 91.535462 232.967013 
L 93.167438 232.33613 
L 93.983427 231.881359 
L 94.799415 231.276865 
L 96.431392 229.585144 
L 97.24738 227.659397 
L 98.063368 228.67567 
L 98.879357 229.261924 
L 99.695345 226.671495 
L 100.511333 226.208705 
L 101.327321 226.040136 
L 102.14331 224.21058 
L 102.959298 220.855977 
L 103.775286 205.384345 
L 104.591275 166.418291 
L 105.407263 178.90037 
L 106.223251 207.934817 
L 107.03924 176.791505 
L 107.855228 130.09168 
L 108.671216 119.639394 
L 109.487204 99.099427 
L 110.303193 151.585478 
L 111.119181 194.271083 
L 111.935169 147.147066 
L 112.751158 44.443636 
L 113.567146 91.258523 
L 114.383134 168.145221 
L 115.199123 131.860546 
L 116.015111 86.830049 
L 116.831099 109.901865 
L 117.647087 168.067285 
L 118.463076 107.002745 
L 119.279064 112.717023 
L 120.095052 146.654367 
L 120.911041 153.648292 
L 121.727029 154.60729 
L 122.543017 151.131152 
L 123.359006 140.784116 
L 124.174994 177.518978 
L 124.990982 151.791906 
L 125.806971 173.536102 
L 126.622959 180.731054 
L 127.438947 152.678609 
L 128.254935 189.708584 
L 129.070924 177.626152 
L 129.886912 181.109263 
L 130.7029 209.875562 
L 131.518889 223.715145 
L 132.334877 234.49125 
L 133.150865 220.960197 
L 133.966854 229.464781 
L 134.782842 228.206551 
L 135.59883 237.009542 
L 136.414818 235.616407 
L 137.230807 220.71892 
L 138.046795 231.762206 
L 139.678772 199.763199 
L 140.49476 205.082131 
L 141.310748 206.201604 
L 142.126737 226.896171 
L 142.942725 191.152057 
L 144.574701 214.759524 
L 145.39069 241.561179 
L 146.206678 226.24696 
L 147.022666 234.962378 
L 147.838655 232.973873 
L 148.654643 241.907433 
L 149.470631 234.170524 
L 150.28662 241.540814 
L 151.102608 224.414222 
L 151.918596 220.62038 
L 153.550573 211.295714 
L 154.366561 210.663309 
L 155.182549 219.531555 
L 155.998538 205.106054 
L 156.814526 222.616676 
L 157.630514 222.034636 
L 158.446503 239.284397 
L 159.262491 235.01864 
L 160.078479 229.869686 
L 160.894467 210.614059 
L 161.710456 232.143123 
L 162.526444 240.600761 
L 163.342432 239.363706 
L 164.158421 233.988917 
L 164.974409 240.220008 
L 165.790397 240.487127 
L 166.606386 240.11353 
L 167.422374 236.665906 
L 168.238362 239.987995 
L 169.05435 240.762791 
L 169.870339 239.15693 
L 170.686327 239.245807 
L 171.502315 239.785073 
L 172.318304 239.202113 
L 173.134292 236.294096 
L 173.95028 239.839757 
L 175.582257 241.580984 
L 176.398245 240.735418 
L 177.214233 239.166882 
L 178.030222 240.501482 
L 178.84621 239.147265 
L 179.662198 241.020824 
L 180.478187 241.804018 
L 181.294175 241.125951 
L 182.110163 234.123635 
L 182.926152 240.141303 
L 183.74214 236.689218 
L 184.558128 240.073401 
L 185.374117 241.319222 
L 186.190105 242.096736 
L 187.006093 241.27178 
L 187.822081 241.906911 
L 188.63807 241.611785 
L 189.454058 242.09024 
L 190.270046 242.09924 
L 191.086035 239.723971 
L 191.902023 241.800236 
L 192.718011 240.368887 
L 193.534 237.238148 
L 194.349988 241.256926 
L 195.165976 240.811256 
L 195.981964 242.093192 
L 196.797953 242.085138 
L 197.613941 238.61315 
L 198.429929 238.011494 
L 199.245918 240.854249 
L 200.061906 240.355377 
L 200.877894 238.839869 
L 201.693883 241.710805 
L 202.509871 240.831292 
L 203.325859 241.784134 
L 204.141847 240.9451 
L 204.957836 241.085252 
L 205.773824 241.551652 
L 206.589812 241.068905 
L 207.405801 241.96764 
L 208.221789 239.949453 
L 209.037777 241.802813 
L 209.853766 240.846003 
L 210.669754 241.885397 
L 211.485742 241.019374 
L 212.30173 240.414605 
L 213.117719 239.24402 
L 213.933707 238.531382 
L 214.749695 237.257505 
L 215.565684 236.694076 
L 216.381672 241.00032 
L 217.19766 240.167097 
L 218.013649 241.621187 
L 218.829637 241.736761 
L 219.645625 240.712261 
L 220.461613 233.62172 
L 221.277602 239.677277 
L 222.09359 236.885203 
L 222.909578 239.867193 
L 223.725567 237.20515 
L 224.541555 241.134626 
L 226.173532 239.778057 
L 226.98952 241.950297 
L 227.805508 241.34575 
L 228.621496 241.804738 
L 229.437485 241.398397 
L 230.253473 240.230033 
L 231.88545 241.666095 
L 232.701438 242.031495 
L 233.517426 240.779019 
L 234.333415 241.606603 
L 235.149403 241.359117 
L 235.965391 241.32944 
L 236.781379 240.795797 
L 237.597368 241.170275 
L 238.413356 240.241795 
L 239.229344 240.710039 
L 240.045333 239.966124 
L 240.861321 238.27972 
L 241.677309 239.664267 
L 242.493298 241.564406 
L 244.125274 239.78491 
L 244.941262 241.87355 
L 245.757251 239.887702 
L 246.573239 241.956327 
L 247.389227 241.268163 
L 248.205216 241.775393 
L 249.021204 242.0928 
L 250.653181 242.066973 
L 251.469169 241.066798 
L 252.285157 241.876926 
L 253.101146 241.65412 
L 253.917134 241.649708 
L 254.733122 241.798447 
L 255.54911 241.364179 
L 256.365099 241.645325 
L 257.181087 241.572168 
L 257.997075 241.00541 
L 258.813064 241.463013 
L 259.629052 241.622594 
L 260.44504 239.434327 
L 261.261029 240.613735 
L 262.077017 241.331237 
L 262.893005 241.657308 
L 263.708993 241.314642 
L 264.524982 240.456786 
L 265.34097 241.930456 
L 266.156958 242.066068 
L 266.972947 241.257433 
L 267.788935 241.58173 
L 268.604923 242.064514 
L 269.420912 241.180067 
L 270.2369 241.727416 
L 271.052888 241.998097 
L 271.868876 241.577212 
L 272.684865 241.879631 
L 274.316841 242.06959 
L 275.13283 241.808699 
L 276.764806 242.099382 
L 277.580795 241.916277 
L 278.396783 241.24698 
L 279.212771 241.196491 
L 280.028759 241.561172 
L 280.844748 240.884834 
L 281.660736 239.688577 
L 282.476724 241.982744 
L 283.292713 241.876881 
L 284.108701 242.088842 
L 284.924689 241.221578 
L 285.740678 241.797705 
L 286.556666 242.03628 
L 287.372654 241.219162 
L 288.188642 241.519272 
L 289.004631 241.472302 
L 289.820619 241.939215 
L 291.452596 242.058809 
L 292.268584 241.968865 
L 293.084572 242.017628 
L 293.900561 241.691746 
L 294.716549 241.696602 
L 295.532537 241.861015 
L 296.348525 241.065474 
L 297.164514 241.354405 
L 297.980502 240.461801 
L 298.79649 241.632115 
L 301.244455 241.790983 
L 302.876432 241.447838 
L 303.69242 242.014186 
L 306.140385 241.88621 
L 306.956373 242.032355 
L 307.772362 241.875663 
L 308.58835 241.979472 
L 309.404338 241.565799 
L 310.220327 241.973729 
L 311.036315 241.681162 
L 311.852303 241.767605 
L 312.668291 241.61687 
L 313.48428 242.084787 
L 314.300268 241.472848 
L 315.116256 241.877109 
L 315.932245 241.289467 
L 316.748233 241.57328 
L 317.564221 242.056666 
L 318.38021 242.065142 
L 320.012186 241.639623 
L 320.828175 241.872904 
L 321.644163 241.626136 
L 322.460151 241.906578 
L 323.276139 241.791566 
L 324.092128 241.486774 
L 324.908116 241.488617 
L 325.724104 241.806351 
L 326.540093 241.675037 
L 327.356081 241.819783 
L 328.172069 241.292795 
L 328.988058 241.138035 
L 329.804046 241.7901 
L 330.620034 241.873609 
L 332.252011 241.619379 
L 333.883987 242.001495 
L 336.331952 241.937373 
L 337.147941 242.056099 
L 338.779917 241.95764 
L 341.227882 242.006489 
L 342.04387 241.967687 
L 342.859859 242.06167 
L 343.675847 241.973975 
L 345.307824 242.075498 
L 348.571777 242.08132 
L 351.019742 242.019433 
L 355.915671 241.98175 
L 360.811601 242.067064 
L 363.259566 242.052328 
L 366.523519 242.06257 
L 389.371192 242.079526 
L 389.371192 242.079526 
" clip-path="url(#p8213097be4)" style="fill: none; stroke: #da8bc3; stroke-opacity: 0.3; stroke-width: 1.5; stroke-linecap: round"/>
   </g>
   <g id="line2d_21">
    <path d="M 54 241.207418 
L 71.135754 241.093112 
L 83.375579 240.803794 
L 89.903485 240.436941 
L 90.719474 240.182367 
L 91.535462 240.201665 
L 92.35145 239.965153 
L 93.167438 239.987892 
L 93.983427 239.753499 
L 94.799415 239.742231 
L 95.615403 239.377513 
L 96.431392 240.328814 
L 97.24738 240.508603 
L 98.879357 237.930235 
L 99.695345 238.879755 
L 100.511333 230.247994 
L 101.327321 231.97328 
L 102.14331 232.406398 
L 102.959298 237.455555 
L 103.775286 233.761047 
L 104.591275 240.287567 
L 105.407263 224.775602 
L 106.223251 125.378073 
L 107.03924 69.481171 
L 107.855228 221.811982 
L 108.671216 191.445786 
L 109.487204 219.753412 
L 110.303193 158.954331 
L 111.119181 151.281706 
L 111.935169 129.759566 
L 112.751158 233.888172 
L 113.567146 224.938726 
L 114.383134 125.641316 
L 115.199123 214.995973 
L 116.015111 235.388908 
L 116.831099 218.335947 
L 117.647087 231.711008 
L 118.463076 230.080678 
L 119.279064 233.094885 
L 120.095052 172.2321 
L 120.911041 187.049716 
L 121.727029 94.282288 
L 122.543017 231.653056 
L 123.359006 91.470879 
L 124.174994 205.51474 
L 124.990982 199.327258 
L 125.806971 179.698992 
L 126.622959 228.797534 
L 127.438947 180.894358 
L 128.254935 163.08613 
L 129.070924 224.831167 
L 129.886912 226.856996 
L 130.7029 195.029888 
L 131.518889 195.845493 
L 132.334877 216.28235 
L 133.150865 216.567177 
L 133.966854 187.145719 
L 134.782842 230.211368 
L 135.59883 183.460025 
L 136.414818 174.624151 
L 137.230807 237.818866 
L 138.862783 228.739509 
L 139.678772 158.425416 
L 140.49476 162.900743 
L 141.310748 154.773582 
L 142.126737 231.897225 
L 142.942725 209.77275 
L 143.758713 218.308479 
L 144.574701 187.171094 
L 145.39069 226.857787 
L 146.206678 237.348841 
L 147.022666 228.230932 
L 147.838655 214.532957 
L 148.654643 210.745304 
L 149.470631 227.658277 
L 150.28662 207.60153 
L 151.102608 226.469041 
L 151.918596 202.569345 
L 152.734584 168.784767 
L 153.550573 148.79491 
L 154.366561 212.497384 
L 155.182549 225.639239 
L 155.998538 44.443636 
L 156.814526 170.538717 
L 157.630514 186.344131 
L 158.446503 240.466329 
L 159.262491 226.31 
L 160.078479 236.314855 
L 160.894467 189.753965 
L 161.710456 241.284395 
L 162.526444 240.726113 
L 163.342432 228.049739 
L 164.158421 236.016473 
L 164.974409 235.038369 
L 165.790397 240.017142 
L 166.606386 230.838895 
L 167.422374 230.48647 
L 168.238362 229.169921 
L 169.05435 241.777459 
L 169.870339 234.669899 
L 170.686327 235.992243 
L 171.502315 211.304102 
L 172.318304 229.753374 
L 173.134292 230.979924 
L 173.95028 239.322179 
L 174.766269 227.219993 
L 175.582257 242.041147 
L 176.398245 234.251976 
L 177.214233 239.596447 
L 178.030222 223.10858 
L 178.84621 224.052822 
L 179.662198 235.043253 
L 180.478187 219.993225 
L 181.294175 232.242243 
L 182.110163 232.744219 
L 182.926152 220.238309 
L 183.74214 231.60264 
L 184.558128 224.396709 
L 185.374117 241.017386 
L 186.190105 236.108737 
L 187.006093 185.645757 
L 187.822081 220.291482 
L 188.63807 225.726822 
L 189.454058 230.195314 
L 190.270046 238.901168 
L 191.086035 223.377759 
L 191.902023 219.494912 
L 192.718011 220.582064 
L 193.534 199.443945 
L 194.349988 225.286644 
L 195.165976 236.539821 
L 195.981964 236.702678 
L 196.797953 241.656941 
L 197.613941 233.567831 
L 198.429929 229.639885 
L 199.245918 223.952063 
L 200.061906 217.04539 
L 200.877894 240.916151 
L 201.693883 234.407583 
L 202.509871 230.864981 
L 203.325859 240.068968 
L 204.141847 239.801692 
L 204.957836 221.308848 
L 205.773824 228.753188 
L 206.589812 241.49088 
L 207.405801 235.098376 
L 208.221789 225.059506 
L 209.037777 241.731966 
L 209.853766 236.902046 
L 210.669754 234.86146 
L 211.485742 235.621508 
L 212.30173 233.062596 
L 213.117719 239.01277 
L 213.933707 230.818028 
L 214.749695 241.917149 
L 215.565684 235.448391 
L 216.381672 239.759706 
L 217.19766 233.403964 
L 218.013649 241.23662 
L 218.829637 238.574983 
L 219.645625 239.497893 
L 220.461613 207.479568 
L 222.09359 212.706162 
L 222.909578 226.738869 
L 223.725567 178.702987 
L 224.541555 233.495695 
L 225.357543 215.41204 
L 226.173532 220.913566 
L 226.98952 239.871729 
L 227.805508 231.051802 
L 228.621496 242.007016 
L 229.437485 240.868727 
L 230.253473 227.988656 
L 231.069461 240.219518 
L 231.88545 219.008389 
L 232.701438 241.676576 
L 233.517426 240.506741 
L 234.333415 230.493339 
L 235.149403 237.907424 
L 235.965391 239.72402 
L 236.781379 232.747292 
L 237.597368 236.101768 
L 238.413356 233.208298 
L 239.229344 224.346808 
L 240.045333 233.301589 
L 240.861321 229.818875 
L 241.677309 239.202064 
L 242.493298 236.452562 
L 243.309286 240.434672 
L 244.125274 240.394496 
L 244.941262 235.16421 
L 245.757251 241.435282 
L 246.573239 237.279738 
L 247.389227 239.181395 
L 248.205216 242.088677 
L 249.021204 233.7419 
L 249.837192 234.032559 
L 250.653181 230.024646 
L 251.469169 235.428139 
L 253.101146 241.983224 
L 253.917134 235.013022 
L 254.733122 237.254684 
L 255.54911 238.67958 
L 256.365099 229.474519 
L 257.181087 239.879493 
L 257.997075 241.690743 
L 258.813064 238.348666 
L 259.629052 232.584675 
L 260.44504 239.691738 
L 261.261029 224.71652 
L 262.077017 241.326398 
L 262.893005 239.829373 
L 263.708993 232.827069 
L 264.524982 219.764683 
L 265.34097 234.459572 
L 266.156958 241.761945 
L 266.972947 238.842654 
L 267.788935 241.045853 
L 268.604923 241.315095 
L 269.420912 238.347078 
L 270.2369 241.088505 
L 271.052888 234.443834 
L 271.868876 237.491686 
L 272.684865 235.60885 
L 273.500853 240.998056 
L 274.316841 237.618208 
L 275.13283 236.639272 
L 275.948818 240.974238 
L 276.764806 226.592229 
L 277.580795 241.197316 
L 278.396783 240.545195 
L 279.212771 238.010229 
L 280.028759 237.436259 
L 280.844748 239.854614 
L 281.660736 238.104648 
L 282.476724 236.087518 
L 283.292713 241.038149 
L 284.108701 224.343688 
L 284.924689 240.837667 
L 285.740678 225.297567 
L 286.556666 231.236052 
L 287.372654 228.125978 
L 288.188642 240.045013 
L 289.004631 240.367554 
L 289.820619 239.231084 
L 290.636607 240.115764 
L 291.452596 237.485622 
L 292.268584 239.264712 
L 293.084572 239.399645 
L 293.900561 239.273022 
L 294.716549 233.312816 
L 295.532537 239.583091 
L 296.348525 236.30181 
L 297.164514 240.741051 
L 297.980502 238.697935 
L 298.79649 231.949979 
L 299.612479 237.112927 
L 300.428467 235.357532 
L 301.244455 240.700937 
L 302.060444 238.322892 
L 302.876432 237.688077 
L 303.69242 242.058736 
L 304.508408 241.64989 
L 305.324397 241.719956 
L 306.140385 238.43994 
L 306.956373 240.189113 
L 307.772362 241.387433 
L 308.58835 236.565183 
L 309.404338 240.829724 
L 310.220327 241.29795 
L 311.036315 242.091278 
L 311.852303 240.076633 
L 312.668291 233.149632 
L 313.48428 236.487005 
L 314.300268 240.382791 
L 315.116256 240.412618 
L 315.932245 238.410618 
L 316.748233 234.657146 
L 317.564221 234.859196 
L 318.38021 240.1833 
L 319.196198 241.590745 
L 320.012186 239.494638 
L 320.828175 240.222349 
L 321.644163 241.449809 
L 322.460151 240.771729 
L 323.276139 241.188662 
L 324.092128 238.782915 
L 324.908116 239.257439 
L 325.724104 241.550258 
L 326.540093 235.355511 
L 327.356081 240.828333 
L 328.172069 236.689056 
L 328.988058 241.966981 
L 329.804046 241.987859 
L 330.620034 241.189693 
L 331.436022 241.674846 
L 332.252011 236.8053 
L 333.067999 240.795951 
L 333.883987 242.050049 
L 334.699976 240.561311 
L 335.515964 239.989298 
L 336.331952 241.964223 
L 337.147941 241.597859 
L 337.963929 242.020535 
L 338.779917 241.550175 
L 339.595905 241.346058 
L 340.411894 241.435435 
L 341.227882 241.970367 
L 342.04387 242.110098 
L 342.859859 241.827425 
L 343.675847 242.097985 
L 345.307824 242.081071 
L 346.123812 241.374589 
L 346.9398 242.099098 
L 348.571777 241.997629 
L 349.387765 241.995085 
L 350.203753 241.126819 
L 351.019742 242.01654 
L 351.83573 242.034031 
L 352.651718 241.48401 
L 353.467707 241.875139 
L 354.283695 241.861973 
L 355.099683 242.031313 
L 356.73166 241.889259 
L 357.547648 242.076625 
L 359.995613 242.090581 
L 360.811601 242.017452 
L 363.259566 242.114287 
L 364.075554 242.015847 
L 365.707531 242.109265 
L 370.603461 242.107986 
L 371.419449 242.012207 
L 373.051426 242.112735 
L 374.683402 242.09417 
L 387.739215 242.102467 
L 389.371192 242.099916 
L 389.371192 242.099916 
" clip-path="url(#p8213097be4)" style="fill: none; stroke: #8c8c8c; stroke-opacity: 0.3; stroke-width: 1.5; stroke-linecap: round"/>
   </g>
   <g id="line2d_22">
    <path d="M 54 241.872765 
L 87.45552 241.763523 
L 94.799415 241.626123 
L 96.431392 241.456277 
L 97.24738 241.645179 
L 98.063368 241.566479 
L 98.879357 241.909549 
L 99.695345 240.94879 
L 100.511333 240.381355 
L 101.327321 241.702709 
L 102.14331 240.194013 
L 102.959298 241.835679 
L 103.775286 238.62783 
L 104.591275 237.558321 
L 105.407263 238.366437 
L 106.223251 235.601879 
L 107.03924 234.47567 
L 107.855228 231.019691 
L 108.671216 237.364386 
L 109.487204 223.521265 
L 110.303193 240.912145 
L 111.119181 110.659542 
L 111.935169 237.851646 
L 112.751158 182.989294 
L 113.567146 219.729995 
L 114.383134 116.96339 
L 115.199123 186.955381 
L 116.015111 44.443636 
L 116.831099 198.317057 
L 117.647087 166.392464 
L 118.463076 144.584549 
L 119.279064 235.495687 
L 120.095052 228.447775 
L 120.911041 142.043654 
L 121.727029 132.04042 
L 122.543017 72.276735 
L 123.359006 198.086306 
L 124.174994 190.571013 
L 124.990982 179.49053 
L 125.806971 203.289975 
L 126.622959 215.842094 
L 127.438947 238.086747 
L 128.254935 219.330882 
L 129.070924 228.101351 
L 129.886912 90.286089 
L 130.7029 240.582607 
L 131.518889 154.607323 
L 132.334877 187.948051 
L 133.150865 240.697625 
L 133.966854 223.002919 
L 134.782842 187.335634 
L 135.59883 232.02645 
L 136.414818 73.560349 
L 137.230807 241.912632 
L 138.046795 223.577844 
L 138.862783 199.378819 
L 139.678772 233.052107 
L 140.49476 219.356511 
L 141.310748 180.832803 
L 142.126737 90.656711 
L 142.942725 190.917678 
L 143.758713 227.109857 
L 144.574701 222.697939 
L 145.39069 214.906852 
L 146.206678 227.069543 
L 147.022666 215.31057 
L 147.838655 232.198779 
L 148.654643 226.141289 
L 149.470631 229.846208 
L 150.28662 50.953656 
L 151.102608 240.362997 
L 151.918596 207.876957 
L 152.734584 208.805382 
L 153.550573 230.904653 
L 154.366561 241.764332 
L 155.998538 209.968548 
L 156.814526 205.605764 
L 157.630514 167.030748 
L 158.446503 156.898707 
L 159.262491 175.159592 
L 160.078479 189.782521 
L 160.894467 188.670713 
L 161.710456 208.774044 
L 162.526444 201.005703 
L 163.342432 232.433173 
L 164.158421 236.354635 
L 164.974409 195.331184 
L 165.790397 231.769887 
L 166.606386 240.776675 
L 167.422374 158.203819 
L 168.238362 207.766833 
L 169.05435 239.430888 
L 169.870339 240.86528 
L 170.686327 226.619993 
L 171.502315 236.71573 
L 172.318304 224.768788 
L 173.134292 237.334371 
L 173.95028 215.498937 
L 174.766269 217.848879 
L 175.582257 230.368216 
L 176.398245 235.668475 
L 177.214233 233.212548 
L 178.030222 229.509158 
L 178.84621 212.594728 
L 179.662198 223.257914 
L 180.478187 213.378594 
L 181.294175 242.114682 
L 182.110163 230.811486 
L 182.926152 195.01992 
L 183.74214 219.801207 
L 184.558128 238.900219 
L 185.374117 232.301209 
L 186.190105 221.800367 
L 187.006093 162.856211 
L 187.822081 172.682518 
L 188.63807 227.089797 
L 189.454058 193.582763 
L 190.270046 211.064773 
L 191.086035 214.240225 
L 191.902023 197.492615 
L 192.718011 209.151113 
L 193.534 152.806383 
L 194.349988 203.850551 
L 195.165976 232.744761 
L 195.981964 219.851387 
L 196.797953 228.461749 
L 197.613941 241.73058 
L 198.429929 222.962425 
L 199.245918 234.925993 
L 200.061906 222.005025 
L 200.877894 233.182342 
L 201.693883 241.631023 
L 202.509871 207.246658 
L 203.325859 230.193901 
L 204.141847 240.581238 
L 204.957836 227.522651 
L 205.773824 237.747293 
L 206.589812 241.223023 
L 207.405801 236.536806 
L 208.221789 197.009851 
L 209.037777 239.175766 
L 209.853766 237.441099 
L 210.669754 229.092138 
L 211.485742 217.702453 
L 212.30173 234.592879 
L 213.117719 241.655291 
L 213.933707 223.849915 
L 214.749695 226.031904 
L 215.565684 235.714892 
L 216.381672 235.57171 
L 217.19766 211.385804 
L 218.013649 234.378903 
L 218.829637 228.344845 
L 219.645625 238.258435 
L 220.461613 189.240814 
L 221.277602 192.945195 
L 222.09359 190.150435 
L 222.909578 233.456471 
L 223.725567 186.006885 
L 224.541555 238.609742 
L 225.357543 209.192672 
L 226.173532 227.709041 
L 226.98952 236.004345 
L 227.805508 237.605755 
L 228.621496 237.738272 
L 229.437485 234.244287 
L 230.253473 191.732088 
L 231.069461 239.499409 
L 231.88545 204.693119 
L 232.701438 235.182533 
L 233.517426 238.260909 
L 234.333415 216.508703 
L 235.149403 239.116271 
L 235.965391 237.422663 
L 236.781379 236.814885 
L 237.597368 238.35638 
L 238.413356 237.992033 
L 239.229344 233.047289 
L 240.045333 223.807228 
L 240.861321 238.791591 
L 241.677309 235.811515 
L 242.493298 234.735635 
L 243.309286 239.382478 
L 244.125274 230.964591 
L 244.941262 215.827024 
L 246.573239 232.922401 
L 247.389227 201.669367 
L 248.205216 240.12556 
L 249.021204 224.333706 
L 249.837192 238.934127 
L 250.653181 241.630674 
L 251.469169 223.488993 
L 252.285157 240.199973 
L 253.101146 241.630669 
L 253.917134 236.009746 
L 254.733122 240.281138 
L 255.54911 237.313843 
L 256.365099 237.30892 
L 257.997075 242.05235 
L 258.813064 241.452835 
L 259.629052 239.984794 
L 260.44504 240.179209 
L 261.261029 239.507076 
L 262.077017 241.865735 
L 263.708993 232.655885 
L 264.524982 209.980836 
L 265.34097 221.10733 
L 266.156958 238.204333 
L 266.972947 232.660657 
L 267.788935 238.014218 
L 268.604923 240.880727 
L 269.420912 239.995731 
L 270.2369 237.705241 
L 271.052888 239.352552 
L 271.868876 239.222507 
L 272.684865 239.401081 
L 273.500853 241.01918 
L 274.316841 239.629489 
L 275.13283 236.912431 
L 275.948818 239.034119 
L 276.764806 229.755663 
L 277.580795 229.055986 
L 278.396783 235.688334 
L 279.212771 236.434201 
L 280.028759 236.310627 
L 280.844748 240.948298 
L 281.660736 240.018824 
L 282.476724 238.628225 
L 283.292713 240.501725 
L 284.108701 219.956445 
L 284.924689 235.459808 
L 285.740678 214.875962 
L 286.556666 232.77011 
L 287.372654 235.48125 
L 288.188642 234.710517 
L 289.004631 236.288929 
L 289.820619 238.238772 
L 290.636607 237.360854 
L 291.452596 238.875953 
L 292.268584 230.612823 
L 293.084572 240.920165 
L 293.900561 237.587985 
L 294.716549 229.723858 
L 295.532537 241.712544 
L 296.348525 230.44674 
L 297.164514 238.994148 
L 297.980502 217.659973 
L 298.79649 233.740558 
L 299.612479 230.633803 
L 300.428467 221.270272 
L 301.244455 231.041164 
L 302.060444 227.712838 
L 302.876432 238.825346 
L 303.69242 239.59432 
L 304.508408 239.353758 
L 305.324397 234.263827 
L 306.140385 232.81256 
L 306.956373 240.20211 
L 308.58835 236.912975 
L 309.404338 240.887713 
L 310.220327 236.011386 
L 311.036315 241.566723 
L 311.852303 241.431245 
L 312.668291 228.920677 
L 313.48428 241.817523 
L 314.300268 239.835812 
L 315.116256 237.124475 
L 315.932245 236.170459 
L 316.748233 227.966927 
L 317.564221 239.007753 
L 318.38021 241.770712 
L 319.196198 236.175981 
L 320.012186 242.091566 
L 320.828175 240.115041 
L 321.644163 242.106669 
L 322.460151 241.470292 
L 323.276139 239.133722 
L 324.092128 240.421674 
L 324.908116 239.235596 
L 325.724104 239.997167 
L 326.540093 238.948062 
L 327.356081 238.948321 
L 328.172069 237.118863 
L 328.988058 240.151634 
L 329.804046 240.838119 
L 330.620034 241.12356 
L 331.436022 240.660976 
L 332.252011 236.351456 
L 333.067999 241.429513 
L 333.883987 242.028172 
L 334.699976 238.282941 
L 335.515964 241.038621 
L 336.331952 241.037963 
L 337.147941 241.853987 
L 337.963929 241.630041 
L 338.779917 241.560737 
L 339.595905 241.344349 
L 340.411894 241.899083 
L 341.227882 242.112222 
L 342.04387 241.393441 
L 342.859859 241.505621 
L 343.675847 241.88395 
L 344.491835 241.996021 
L 346.9398 241.774037 
L 347.755788 241.936876 
L 348.571777 241.621525 
L 349.387765 241.810784 
L 350.203753 241.408458 
L 351.019742 242.038118 
L 351.83573 241.686873 
L 352.651718 241.676657 
L 353.467707 241.052252 
L 354.283695 241.515218 
L 355.915671 241.584148 
L 356.73166 241.962208 
L 358.363636 242.03182 
L 359.179625 242.098716 
L 359.995613 241.996117 
L 360.811601 242.113994 
L 361.62759 242.01784 
L 362.443578 242.112161 
L 364.891543 241.998129 
L 367.339508 242.065941 
L 368.155496 241.910422 
L 368.971484 242.083813 
L 375.499391 242.091186 
L 376.315379 242.115398 
L 377.131367 241.970134 
L 378.763344 242.091456 
L 383.659274 242.061654 
L 388.555204 242.085423 
L 389.371192 242.023885 
L 389.371192 242.023885 
" clip-path="url(#p8213097be4)" style="fill: none; stroke: #ccb974; stroke-opacity: 0.3; stroke-width: 1.5; stroke-linecap: round"/>
   </g>
   <g id="patch_3">
    <path d="M 54 252 
L 54 34.56 
" style="fill: none; stroke: #262626; stroke-width: 1.25; stroke-linejoin: miter; stroke-linecap: square"/>
   </g>
   <g id="patch_4">
    <path d="M 388.8 252 
L 388.8 34.56 
" style="fill: none; stroke: #262626; stroke-width: 1.25; stroke-linejoin: miter; stroke-linecap: square"/>
   </g>
   <g id="patch_5">
    <path d="M 54 252 
L 388.8 252 
" style="fill: none; stroke: #262626; stroke-width: 1.25; stroke-linejoin: miter; stroke-linecap: square"/>
   </g>
   <g id="patch_6">
    <path d="M 54 34.56 
L 388.8 34.56 
" style="fill: none; stroke: #262626; stroke-width: 1.25; stroke-linejoin: miter; stroke-linecap: square"/>
   </g>
   <g id="text_15">
    <!-- patient06_app_post01_phone - Power spectrum -->
    <g style="fill: #262626" transform="translate(93.321562 28.56)scale(0.12 -0.12)">
     <defs>
      <path id="ArialMT-70" d="M 422 -1272 
L 422 3319 
L 934 3319 
L 934 2888 
Q 1116 3141 1344 3267 
Q 1572 3394 1897 3394 
Q 2322 3394 2647 3175 
Q 2972 2956 3137 2557 
Q 3303 2159 3303 1684 
Q 3303 1175 3120 767 
Q 2938 359 2589 142 
Q 2241 -75 1856 -75 
Q 1575 -75 1351 44 
Q 1128 163 984 344 
L 984 -1272 
L 422 -1272 
z
M 931 1641 
Q 931 1000 1190 694 
Q 1450 388 1819 388 
Q 2194 388 2461 705 
Q 2728 1022 2728 1688 
Q 2728 2322 2467 2637 
Q 2206 2953 1844 2953 
Q 1484 2953 1207 2617 
Q 931 2281 931 1641 
z
" transform="scale(0.015625)"/>
      <path id="ArialMT-61" d="M 2588 409 
Q 2275 144 1986 34 
Q 1697 -75 1366 -75 
Q 819 -75 525 192 
Q 231 459 231 875 
Q 231 1119 342 1320 
Q 453 1522 633 1644 
Q 813 1766 1038 1828 
Q 1203 1872 1538 1913 
Q 2219 1994 2541 2106 
Q 2544 2222 2544 2253 
Q 2544 2597 2384 2738 
Q 2169 2928 1744 2928 
Q 1347 2928 1158 2789 
Q 969 2650 878 2297 
L 328 2372 
Q 403 2725 575 2942 
Q 747 3159 1072 3276 
Q 1397 3394 1825 3394 
Q 2250 3394 2515 3294 
Q 2781 3194 2906 3042 
Q 3031 2891 3081 2659 
Q 3109 2516 3109 2141 
L 3109 1391 
Q 3109 606 3145 398 
Q 3181 191 3288 0 
L 2700 0 
Q 2613 175 2588 409 
z
M 2541 1666 
Q 2234 1541 1622 1453 
Q 1275 1403 1131 1340 
Q 988 1278 909 1158 
Q 831 1038 831 891 
Q 831 666 1001 516 
Q 1172 366 1500 366 
Q 1825 366 2078 508 
Q 2331 650 2450 897 
Q 2541 1088 2541 1459 
L 2541 1666 
z
" transform="scale(0.015625)"/>
      <path id="ArialMT-74" d="M 1650 503 
L 1731 6 
Q 1494 -44 1306 -44 
Q 1000 -44 831 53 
Q 663 150 594 308 
Q 525 466 525 972 
L 525 2881 
L 113 2881 
L 113 3319 
L 525 3319 
L 525 4141 
L 1084 4478 
L 1084 3319 
L 1650 3319 
L 1650 2881 
L 1084 2881 
L 1084 941 
Q 1084 700 1114 631 
Q 1144 563 1211 522 
Q 1278 481 1403 481 
Q 1497 481 1650 503 
z
" transform="scale(0.015625)"/>
      <path id="ArialMT-69" d="M 425 3934 
L 425 4581 
L 988 4581 
L 988 3934 
L 425 3934 
z
M 425 0 
L 425 3319 
L 988 3319 
L 988 0 
L 425 0 
z
" transform="scale(0.015625)"/>
      <path id="ArialMT-5f" d="M -97 -1272 
L -97 -866 
L 3631 -866 
L 3631 -1272 
L -97 -1272 
z
" transform="scale(0.015625)"/>
      <path id="ArialMT-6f" d="M 213 1659 
Q 213 2581 725 3025 
Q 1153 3394 1769 3394 
Q 2453 3394 2887 2945 
Q 3322 2497 3322 1706 
Q 3322 1066 3130 698 
Q 2938 331 2570 128 
Q 2203 -75 1769 -75 
Q 1072 -75 642 372 
Q 213 819 213 1659 
z
M 791 1659 
Q 791 1022 1069 705 
Q 1347 388 1769 388 
Q 2188 388 2466 706 
Q 2744 1025 2744 1678 
Q 2744 2294 2464 2611 
Q 2184 2928 1769 2928 
Q 1347 2928 1069 2612 
Q 791 2297 791 1659 
z
" transform="scale(0.015625)"/>
      <path id="ArialMT-73" d="M 197 991 
L 753 1078 
Q 800 744 1014 566 
Q 1228 388 1613 388 
Q 2000 388 2187 545 
Q 2375 703 2375 916 
Q 2375 1106 2209 1216 
Q 2094 1291 1634 1406 
Q 1016 1563 777 1677 
Q 538 1791 414 1992 
Q 291 2194 291 2438 
Q 291 2659 392 2848 
Q 494 3038 669 3163 
Q 800 3259 1026 3326 
Q 1253 3394 1513 3394 
Q 1903 3394 2198 3281 
Q 2494 3169 2634 2976 
Q 2775 2784 2828 2463 
L 2278 2388 
Q 2241 2644 2061 2787 
Q 1881 2931 1553 2931 
Q 1166 2931 1000 2803 
Q 834 2675 834 2503 
Q 834 2394 903 2306 
Q 972 2216 1119 2156 
Q 1203 2125 1616 2013 
Q 2213 1853 2448 1751 
Q 2684 1650 2818 1456 
Q 2953 1263 2953 975 
Q 2953 694 2789 445 
Q 2625 197 2315 61 
Q 2006 -75 1616 -75 
Q 969 -75 630 194 
Q 291 463 197 991 
z
" transform="scale(0.015625)"/>
      <path id="ArialMT-68" d="M 422 0 
L 422 4581 
L 984 4581 
L 984 2938 
Q 1378 3394 1978 3394 
Q 2347 3394 2619 3248 
Q 2891 3103 3008 2847 
Q 3125 2591 3125 2103 
L 3125 0 
L 2563 0 
L 2563 2103 
Q 2563 2525 2380 2717 
Q 2197 2909 1863 2909 
Q 1613 2909 1392 2779 
Q 1172 2650 1078 2428 
Q 984 2206 984 1816 
L 984 0 
L 422 0 
z
" transform="scale(0.015625)"/>
      <path id="ArialMT-2d" d="M 203 1375 
L 203 1941 
L 1931 1941 
L 1931 1375 
L 203 1375 
z
" transform="scale(0.015625)"/>
      <path id="ArialMT-50" d="M 494 0 
L 494 4581 
L 2222 4581 
Q 2678 4581 2919 4538 
Q 3256 4481 3484 4323 
Q 3713 4166 3852 3881 
Q 3991 3597 3991 3256 
Q 3991 2672 3619 2267 
Q 3247 1863 2275 1863 
L 1100 1863 
L 1100 0 
L 494 0 
z
M 1100 2403 
L 2284 2403 
Q 2872 2403 3119 2622 
Q 3366 2841 3366 3238 
Q 3366 3525 3220 3729 
Q 3075 3934 2838 4000 
Q 2684 4041 2272 4041 
L 1100 4041 
L 1100 2403 
z
" transform="scale(0.015625)"/>
      <path id="ArialMT-77" d="M 1034 0 
L 19 3319 
L 600 3319 
L 1128 1403 
L 1325 691 
Q 1338 744 1497 1375 
L 2025 3319 
L 2603 3319 
L 3100 1394 
L 3266 759 
L 3456 1400 
L 4025 3319 
L 4572 3319 
L 3534 0 
L 2950 0 
L 2422 1988 
L 2294 2553 
L 1622 0 
L 1034 0 
z
" transform="scale(0.015625)"/>
      <path id="ArialMT-6d" d="M 422 0 
L 422 3319 
L 925 3319 
L 925 2853 
Q 1081 3097 1340 3245 
Q 1600 3394 1931 3394 
Q 2300 3394 2536 3241 
Q 2772 3088 2869 2813 
Q 3263 3394 3894 3394 
Q 4388 3394 4653 3120 
Q 4919 2847 4919 2278 
L 4919 0 
L 4359 0 
L 4359 2091 
Q 4359 2428 4304 2576 
Q 4250 2725 4106 2815 
Q 3963 2906 3769 2906 
Q 3419 2906 3187 2673 
Q 2956 2441 2956 1928 
L 2956 0 
L 2394 0 
L 2394 2156 
Q 2394 2531 2256 2718 
Q 2119 2906 1806 2906 
Q 1569 2906 1367 2781 
Q 1166 2656 1075 2415 
Q 984 2175 984 1722 
L 984 0 
L 422 0 
z
" transform="scale(0.015625)"/>
     </defs>
     <use xlink:href="#ArialMT-70"/>
     <use xlink:href="#ArialMT-61" x="55.615234"/>
     <use xlink:href="#ArialMT-74" x="111.230469"/>
     <use xlink:href="#ArialMT-69" x="139.013672"/>
     <use xlink:href="#ArialMT-65" x="161.230469"/>
     <use xlink:href="#ArialMT-6e" x="216.845703"/>
     <use xlink:href="#ArialMT-74" x="272.460938"/>
     <use xlink:href="#ArialMT-30" x="300.244141"/>
     <use xlink:href="#ArialMT-36" x="355.859375"/>
     <use xlink:href="#ArialMT-5f" x="411.474609"/>
     <use xlink:href="#ArialMT-61" x="467.089844"/>
     <use xlink:href="#ArialMT-70" x="522.705078"/>
     <use xlink:href="#ArialMT-70" x="578.320312"/>
     <use xlink:href="#ArialMT-5f" x="633.935547"/>
     <use xlink:href="#ArialMT-70" x="689.550781"/>
     <use xlink:href="#ArialMT-6f" x="745.166016"/>
     <use xlink:href="#ArialMT-73" x="800.78125"/>
     <use xlink:href="#ArialMT-74" x="850.78125"/>
     <use xlink:href="#ArialMT-30" x="878.564453"/>
     <use xlink:href="#ArialMT-31" x="934.179688"/>
     <use xlink:href="#ArialMT-5f" x="989.794922"/>
     <use xlink:href="#ArialMT-70" x="1045.410156"/>
     <use xlink:href="#ArialMT-68" x="1101.025391"/>
     <use xlink:href="#ArialMT-6f" x="1156.640625"/>
     <use xlink:href="#ArialMT-6e" x="1212.255859"/>
     <use xlink:href="#ArialMT-65" x="1267.871094"/>
     <use xlink:href="#ArialMT-20" x="1323.486328"/>
     <use xlink:href="#ArialMT-2d" x="1351.269531"/>
     <use xlink:href="#ArialMT-20" x="1384.570312"/>
     <use xlink:href="#ArialMT-50" x="1412.353516"/>
     <use xlink:href="#ArialMT-6f" x="1479.052734"/>
     <use xlink:href="#ArialMT-77" x="1534.667969"/>
     <use xlink:href="#ArialMT-65" x="1606.884766"/>
     <use xlink:href="#ArialMT-72" x="1662.5"/>
     <use xlink:href="#ArialMT-20" x="1695.800781"/>
     <use xlink:href="#ArialMT-73" x="1723.583984"/>
     <use xlink:href="#ArialMT-70" x="1773.583984"/>
     <use xlink:href="#ArialMT-65" x="1829.199219"/>
     <use xlink:href="#ArialMT-63" x="1884.814453"/>
     <use xlink:href="#ArialMT-74" x="1934.814453"/>
     <use xlink:href="#ArialMT-72" x="1962.597656"/>
     <use xlink:href="#ArialMT-75" x="1995.898438"/>
     <use xlink:href="#ArialMT-6d" x="2051.513672"/>
    </g>
   </g>
  </g>
 </g>
 <defs>
  <clipPath id="p8213097be4">
   <rect x="54" y="34.56" width="334.8" height="217.44"/>
  </clipPath>
 </defs>
</svg>
