<?xml version="1.0" encoding="utf-8" standalone="no"?>
<!DOCTYPE svg PUBLIC "-//W3C//DTD SVG 1.1//EN"
  "http://www.w3.org/Graphics/SVG/1.1/DTD/svg11.dtd">
<svg xmlns:xlink="http://www.w3.org/1999/xlink" width="432pt" height="288pt" viewBox="0 0 432 288" xmlns="http://www.w3.org/2000/svg" version="1.1">
 <metadata>
  <rdf:RDF xmlns:dc="http://purl.org/dc/elements/1.1/" xmlns:cc="http://creativecommons.org/ns#" xmlns:rdf="http://www.w3.org/1999/02/22-rdf-syntax-ns#">
   <cc:Work>
    <dc:type rdf:resource="http://purl.org/dc/dcmitype/StillImage"/>
    <dc:date>2022-07-08T13:41:47.331995</dc:date>
    <dc:format>image/svg+xml</dc:format>
    <dc:creator>
     <cc:Agent>
      <dc:title>Matplotlib v3.5.1, https://matplotlib.org/</dc:title>
     </cc:Agent>
    </dc:creator>
   </cc:Work>
  </rdf:RDF>
 </metadata>
 <defs>
  <style type="text/css">*{stroke-linejoin: round; stroke-linecap: butt}</style>
 </defs>
 <g id="figure_1">
  <g id="patch_1">
   <path d="M 0 288 
L 432 288 
L 432 0 
L 0 0 
z
" style="fill: #ffffff"/>
  </g>
  <g id="axes_1">
   <g id="patch_2">
    <path d="M 54 252 
L 388.8 252 
L 388.8 34.56 
L 54 34.56 
z
" style="fill: #ffffff"/>
   </g>
   <g id="matplotlib.axis_1">
    <g id="xtick_1">
     <g id="line2d_1">
      <defs>
       <path id="m3d3f13adb6" d="M 0 0 
L 0 6 
" style="stroke: #262626; stroke-width: 1.25"/>
      </defs>
      <g>
       <use xlink:href="#m3d3f13adb6" x="54" y="252" style="fill: #262626; stroke: #262626; stroke-width: 1.25"/>
      </g>
     </g>
     <g id="text_1">
      <!-- 0 -->
      <g style="fill: #262626" transform="translate(50.941484 269.373594)scale(0.11 -0.11)">
       <defs>
        <path id="ArialMT-30" d="M 266 2259 
Q 266 3072 433 3567 
Q 600 4063 929 4331 
Q 1259 4600 1759 4600 
Q 2128 4600 2406 4451 
Q 2684 4303 2865 4023 
Q 3047 3744 3150 3342 
Q 3253 2941 3253 2259 
Q 3253 1453 3087 958 
Q 2922 463 2592 192 
Q 2263 -78 1759 -78 
Q 1097 -78 719 397 
Q 266 969 266 2259 
z
M 844 2259 
Q 844 1131 1108 757 
Q 1372 384 1759 384 
Q 2147 384 2411 759 
Q 2675 1134 2675 2259 
Q 2675 3391 2411 3762 
Q 2147 4134 1753 4134 
Q 1366 4134 1134 3806 
Q 844 3388 844 2259 
z
" transform="scale(0.015625)"/>
       </defs>
       <use xlink:href="#ArialMT-30"/>
      </g>
     </g>
    </g>
    <g id="xtick_2">
     <g id="line2d_2">
      <g>
       <use xlink:href="#m3d3f13adb6" x="109.8" y="252" style="fill: #262626; stroke: #262626; stroke-width: 1.25"/>
      </g>
     </g>
     <g id="text_2">
      <!-- 5 -->
      <g style="fill: #262626" transform="translate(106.741484 269.373594)scale(0.11 -0.11)">
       <defs>
        <path id="ArialMT-35" d="M 266 1200 
L 856 1250 
Q 922 819 1161 601 
Q 1400 384 1738 384 
Q 2144 384 2425 690 
Q 2706 997 2706 1503 
Q 2706 1984 2436 2262 
Q 2166 2541 1728 2541 
Q 1456 2541 1237 2417 
Q 1019 2294 894 2097 
L 366 2166 
L 809 4519 
L 3088 4519 
L 3088 3981 
L 1259 3981 
L 1013 2750 
Q 1425 3038 1878 3038 
Q 2478 3038 2890 2622 
Q 3303 2206 3303 1553 
Q 3303 931 2941 478 
Q 2500 -78 1738 -78 
Q 1113 -78 717 272 
Q 322 622 266 1200 
z
" transform="scale(0.015625)"/>
       </defs>
       <use xlink:href="#ArialMT-35"/>
      </g>
     </g>
    </g>
    <g id="xtick_3">
     <g id="line2d_3">
      <g>
       <use xlink:href="#m3d3f13adb6" x="165.6" y="252" style="fill: #262626; stroke: #262626; stroke-width: 1.25"/>
      </g>
     </g>
     <g id="text_3">
      <!-- 10 -->
      <g style="fill: #262626" transform="translate(159.482969 269.373594)scale(0.11 -0.11)">
       <defs>
        <path id="ArialMT-31" d="M 2384 0 
L 1822 0 
L 1822 3584 
Q 1619 3391 1289 3197 
Q 959 3003 697 2906 
L 697 3450 
Q 1169 3672 1522 3987 
Q 1875 4303 2022 4600 
L 2384 4600 
L 2384 0 
z
" transform="scale(0.015625)"/>
       </defs>
       <use xlink:href="#ArialMT-31"/>
       <use xlink:href="#ArialMT-30" x="55.615234"/>
      </g>
     </g>
    </g>
    <g id="xtick_4">
     <g id="line2d_4">
      <g>
       <use xlink:href="#m3d3f13adb6" x="221.4" y="252" style="fill: #262626; stroke: #262626; stroke-width: 1.25"/>
      </g>
     </g>
     <g id="text_4">
      <!-- 15 -->
      <g style="fill: #262626" transform="translate(215.282969 269.373594)scale(0.11 -0.11)">
       <use xlink:href="#ArialMT-31"/>
       <use xlink:href="#ArialMT-35" x="55.615234"/>
      </g>
     </g>
    </g>
    <g id="xtick_5">
     <g id="line2d_5">
      <g>
       <use xlink:href="#m3d3f13adb6" x="277.2" y="252" style="fill: #262626; stroke: #262626; stroke-width: 1.25"/>
      </g>
     </g>
     <g id="text_5">
      <!-- 20 -->
      <g style="fill: #262626" transform="translate(271.082969 269.373594)scale(0.11 -0.11)">
       <defs>
        <path id="ArialMT-32" d="M 3222 541 
L 3222 0 
L 194 0 
Q 188 203 259 391 
Q 375 700 629 1000 
Q 884 1300 1366 1694 
Q 2113 2306 2375 2664 
Q 2638 3022 2638 3341 
Q 2638 3675 2398 3904 
Q 2159 4134 1775 4134 
Q 1369 4134 1125 3890 
Q 881 3647 878 3216 
L 300 3275 
Q 359 3922 746 4261 
Q 1134 4600 1788 4600 
Q 2447 4600 2831 4234 
Q 3216 3869 3216 3328 
Q 3216 3053 3103 2787 
Q 2991 2522 2730 2228 
Q 2469 1934 1863 1422 
Q 1356 997 1212 845 
Q 1069 694 975 541 
L 3222 541 
z
" transform="scale(0.015625)"/>
       </defs>
       <use xlink:href="#ArialMT-32"/>
       <use xlink:href="#ArialMT-30" x="55.615234"/>
      </g>
     </g>
    </g>
    <g id="xtick_6">
     <g id="line2d_6">
      <g>
       <use xlink:href="#m3d3f13adb6" x="333" y="252" style="fill: #262626; stroke: #262626; stroke-width: 1.25"/>
      </g>
     </g>
     <g id="text_6">
      <!-- 25 -->
      <g style="fill: #262626" transform="translate(326.882969 269.373594)scale(0.11 -0.11)">
       <use xlink:href="#ArialMT-32"/>
       <use xlink:href="#ArialMT-35" x="55.615234"/>
      </g>
     </g>
    </g>
    <g id="xtick_7">
     <g id="line2d_7">
      <g>
       <use xlink:href="#m3d3f13adb6" x="388.8" y="252" style="fill: #262626; stroke: #262626; stroke-width: 1.25"/>
      </g>
     </g>
     <g id="text_7">
      <!-- 30 -->
      <g style="fill: #262626" transform="translate(382.682969 269.373594)scale(0.11 -0.11)">
       <defs>
        <path id="ArialMT-33" d="M 269 1209 
L 831 1284 
Q 928 806 1161 595 
Q 1394 384 1728 384 
Q 2125 384 2398 659 
Q 2672 934 2672 1341 
Q 2672 1728 2419 1979 
Q 2166 2231 1775 2231 
Q 1616 2231 1378 2169 
L 1441 2663 
Q 1497 2656 1531 2656 
Q 1891 2656 2178 2843 
Q 2466 3031 2466 3422 
Q 2466 3731 2256 3934 
Q 2047 4138 1716 4138 
Q 1388 4138 1169 3931 
Q 950 3725 888 3313 
L 325 3413 
Q 428 3978 793 4289 
Q 1159 4600 1703 4600 
Q 2078 4600 2393 4439 
Q 2709 4278 2876 4000 
Q 3044 3722 3044 3409 
Q 3044 3113 2884 2869 
Q 2725 2625 2413 2481 
Q 2819 2388 3044 2092 
Q 3269 1797 3269 1353 
Q 3269 753 2831 336 
Q 2394 -81 1725 -81 
Q 1122 -81 723 278 
Q 325 638 269 1209 
z
" transform="scale(0.015625)"/>
       </defs>
       <use xlink:href="#ArialMT-33"/>
       <use xlink:href="#ArialMT-30" x="55.615234"/>
      </g>
     </g>
    </g>
    <g id="text_8">
     <!-- Frequency (Hz) -->
     <g style="fill: #262626" transform="translate(180.059063 284.295469)scale(0.12 -0.12)">
      <defs>
       <path id="ArialMT-46" d="M 525 0 
L 525 4581 
L 3616 4581 
L 3616 4041 
L 1131 4041 
L 1131 2622 
L 3281 2622 
L 3281 2081 
L 1131 2081 
L 1131 0 
L 525 0 
z
" transform="scale(0.015625)"/>
       <path id="ArialMT-72" d="M 416 0 
L 416 3319 
L 922 3319 
L 922 2816 
Q 1116 3169 1280 3281 
Q 1444 3394 1641 3394 
Q 1925 3394 2219 3213 
L 2025 2691 
Q 1819 2813 1613 2813 
Q 1428 2813 1281 2702 
Q 1134 2591 1072 2394 
Q 978 2094 978 1738 
L 978 0 
L 416 0 
z
" transform="scale(0.015625)"/>
       <path id="ArialMT-65" d="M 2694 1069 
L 3275 997 
Q 3138 488 2766 206 
Q 2394 -75 1816 -75 
Q 1088 -75 661 373 
Q 234 822 234 1631 
Q 234 2469 665 2931 
Q 1097 3394 1784 3394 
Q 2450 3394 2872 2941 
Q 3294 2488 3294 1666 
Q 3294 1616 3291 1516 
L 816 1516 
Q 847 969 1125 678 
Q 1403 388 1819 388 
Q 2128 388 2347 550 
Q 2566 713 2694 1069 
z
M 847 1978 
L 2700 1978 
Q 2663 2397 2488 2606 
Q 2219 2931 1791 2931 
Q 1403 2931 1139 2672 
Q 875 2413 847 1978 
z
" transform="scale(0.015625)"/>
       <path id="ArialMT-71" d="M 2538 -1272 
L 2538 353 
Q 2406 169 2170 47 
Q 1934 -75 1669 -75 
Q 1078 -75 651 397 
Q 225 869 225 1691 
Q 225 2191 398 2587 
Q 572 2984 901 3189 
Q 1231 3394 1625 3394 
Q 2241 3394 2594 2875 
L 2594 3319 
L 3100 3319 
L 3100 -1272 
L 2538 -1272 
z
M 803 1669 
Q 803 1028 1072 708 
Q 1341 388 1716 388 
Q 2075 388 2334 692 
Q 2594 997 2594 1619 
Q 2594 2281 2320 2615 
Q 2047 2950 1678 2950 
Q 1313 2950 1058 2639 
Q 803 2328 803 1669 
z
" transform="scale(0.015625)"/>
       <path id="ArialMT-75" d="M 2597 0 
L 2597 488 
Q 2209 -75 1544 -75 
Q 1250 -75 995 37 
Q 741 150 617 320 
Q 494 491 444 738 
Q 409 903 409 1263 
L 409 3319 
L 972 3319 
L 972 1478 
Q 972 1038 1006 884 
Q 1059 663 1231 536 
Q 1403 409 1656 409 
Q 1909 409 2131 539 
Q 2353 669 2445 892 
Q 2538 1116 2538 1541 
L 2538 3319 
L 3100 3319 
L 3100 0 
L 2597 0 
z
" transform="scale(0.015625)"/>
       <path id="ArialMT-6e" d="M 422 0 
L 422 3319 
L 928 3319 
L 928 2847 
Q 1294 3394 1984 3394 
Q 2284 3394 2536 3286 
Q 2788 3178 2913 3003 
Q 3038 2828 3088 2588 
Q 3119 2431 3119 2041 
L 3119 0 
L 2556 0 
L 2556 2019 
Q 2556 2363 2490 2533 
Q 2425 2703 2258 2804 
Q 2091 2906 1866 2906 
Q 1506 2906 1245 2678 
Q 984 2450 984 1813 
L 984 0 
L 422 0 
z
" transform="scale(0.015625)"/>
       <path id="ArialMT-63" d="M 2588 1216 
L 3141 1144 
Q 3050 572 2676 248 
Q 2303 -75 1759 -75 
Q 1078 -75 664 370 
Q 250 816 250 1647 
Q 250 2184 428 2587 
Q 606 2991 970 3192 
Q 1334 3394 1763 3394 
Q 2303 3394 2647 3120 
Q 2991 2847 3088 2344 
L 2541 2259 
Q 2463 2594 2264 2762 
Q 2066 2931 1784 2931 
Q 1359 2931 1093 2626 
Q 828 2322 828 1663 
Q 828 994 1084 691 
Q 1341 388 1753 388 
Q 2084 388 2306 591 
Q 2528 794 2588 1216 
z
" transform="scale(0.015625)"/>
       <path id="ArialMT-79" d="M 397 -1278 
L 334 -750 
Q 519 -800 656 -800 
Q 844 -800 956 -737 
Q 1069 -675 1141 -563 
Q 1194 -478 1313 -144 
Q 1328 -97 1363 -6 
L 103 3319 
L 709 3319 
L 1400 1397 
Q 1534 1031 1641 628 
Q 1738 1016 1872 1384 
L 2581 3319 
L 3144 3319 
L 1881 -56 
Q 1678 -603 1566 -809 
Q 1416 -1088 1222 -1217 
Q 1028 -1347 759 -1347 
Q 597 -1347 397 -1278 
z
" transform="scale(0.015625)"/>
       <path id="ArialMT-20" transform="scale(0.015625)"/>
       <path id="ArialMT-28" d="M 1497 -1347 
Q 1031 -759 709 28 
Q 388 816 388 1659 
Q 388 2403 628 3084 
Q 909 3875 1497 4659 
L 1900 4659 
Q 1522 4009 1400 3731 
Q 1209 3300 1100 2831 
Q 966 2247 966 1656 
Q 966 153 1900 -1347 
L 1497 -1347 
z
" transform="scale(0.015625)"/>
       <path id="ArialMT-48" d="M 513 0 
L 513 4581 
L 1119 4581 
L 1119 2700 
L 3500 2700 
L 3500 4581 
L 4106 4581 
L 4106 0 
L 3500 0 
L 3500 2159 
L 1119 2159 
L 1119 0 
L 513 0 
z
" transform="scale(0.015625)"/>
       <path id="ArialMT-7a" d="M 125 0 
L 125 456 
L 2238 2881 
Q 1878 2863 1603 2863 
L 250 2863 
L 250 3319 
L 2963 3319 
L 2963 2947 
L 1166 841 
L 819 456 
Q 1197 484 1528 484 
L 3063 484 
L 3063 0 
L 125 0 
z
" transform="scale(0.015625)"/>
       <path id="ArialMT-29" d="M 791 -1347 
L 388 -1347 
Q 1322 153 1322 1656 
Q 1322 2244 1188 2822 
Q 1081 3291 891 3722 
Q 769 4003 388 4659 
L 791 4659 
Q 1378 3875 1659 3084 
Q 1900 2403 1900 1659 
Q 1900 816 1576 28 
Q 1253 -759 791 -1347 
z
" transform="scale(0.015625)"/>
      </defs>
      <use xlink:href="#ArialMT-46"/>
      <use xlink:href="#ArialMT-72" x="61.083984"/>
      <use xlink:href="#ArialMT-65" x="94.384766"/>
      <use xlink:href="#ArialMT-71" x="150"/>
      <use xlink:href="#ArialMT-75" x="205.615234"/>
      <use xlink:href="#ArialMT-65" x="261.230469"/>
      <use xlink:href="#ArialMT-6e" x="316.845703"/>
      <use xlink:href="#ArialMT-63" x="372.460938"/>
      <use xlink:href="#ArialMT-79" x="422.460938"/>
      <use xlink:href="#ArialMT-20" x="472.460938"/>
      <use xlink:href="#ArialMT-28" x="500.244141"/>
      <use xlink:href="#ArialMT-48" x="533.544922"/>
      <use xlink:href="#ArialMT-7a" x="605.761719"/>
      <use xlink:href="#ArialMT-29" x="655.761719"/>
     </g>
    </g>
   </g>
   <g id="matplotlib.axis_2">
    <g id="ytick_1">
     <g id="line2d_8">
      <defs>
       <path id="m0d850377c0" d="M 0 0 
L -6 0 
" style="stroke: #262626; stroke-width: 1.25"/>
      </defs>
      <g>
       <use xlink:href="#m0d850377c0" x="54" y="242.116364" style="fill: #262626; stroke: #262626; stroke-width: 1.25"/>
      </g>
     </g>
     <g id="text_9">
      <!-- 0.0 -->
      <g style="fill: #262626" transform="translate(29.21 246.053161)scale(0.11 -0.11)">
       <defs>
        <path id="ArialMT-2e" d="M 581 0 
L 581 641 
L 1222 641 
L 1222 0 
L 581 0 
z
" transform="scale(0.015625)"/>
       </defs>
       <use xlink:href="#ArialMT-30"/>
       <use xlink:href="#ArialMT-2e" x="55.615234"/>
       <use xlink:href="#ArialMT-30" x="83.398438"/>
      </g>
     </g>
    </g>
    <g id="ytick_2">
     <g id="line2d_9">
      <g>
       <use xlink:href="#m0d850377c0" x="54" y="202.581819" style="fill: #262626; stroke: #262626; stroke-width: 1.25"/>
      </g>
     </g>
     <g id="text_10">
      <!-- 0.2 -->
      <g style="fill: #262626" transform="translate(29.21 206.518615)scale(0.11 -0.11)">
       <use xlink:href="#ArialMT-30"/>
       <use xlink:href="#ArialMT-2e" x="55.615234"/>
       <use xlink:href="#ArialMT-32" x="83.398438"/>
      </g>
     </g>
    </g>
    <g id="ytick_3">
     <g id="line2d_10">
      <g>
       <use xlink:href="#m0d850377c0" x="54" y="163.047273" style="fill: #262626; stroke: #262626; stroke-width: 1.25"/>
      </g>
     </g>
     <g id="text_11">
      <!-- 0.4 -->
      <g style="fill: #262626" transform="translate(29.21 166.98407)scale(0.11 -0.11)">
       <defs>
        <path id="ArialMT-34" d="M 2069 0 
L 2069 1097 
L 81 1097 
L 81 1613 
L 2172 4581 
L 2631 4581 
L 2631 1613 
L 3250 1613 
L 3250 1097 
L 2631 1097 
L 2631 0 
L 2069 0 
z
M 2069 1613 
L 2069 3678 
L 634 1613 
L 2069 1613 
z
" transform="scale(0.015625)"/>
       </defs>
       <use xlink:href="#ArialMT-30"/>
       <use xlink:href="#ArialMT-2e" x="55.615234"/>
       <use xlink:href="#ArialMT-34" x="83.398438"/>
      </g>
     </g>
    </g>
    <g id="ytick_4">
     <g id="line2d_11">
      <g>
       <use xlink:href="#m0d850377c0" x="54" y="123.512727" style="fill: #262626; stroke: #262626; stroke-width: 1.25"/>
      </g>
     </g>
     <g id="text_12">
      <!-- 0.6 -->
      <g style="fill: #262626" transform="translate(29.21 127.449524)scale(0.11 -0.11)">
       <defs>
        <path id="ArialMT-36" d="M 3184 3459 
L 2625 3416 
Q 2550 3747 2413 3897 
Q 2184 4138 1850 4138 
Q 1581 4138 1378 3988 
Q 1113 3794 959 3422 
Q 806 3050 800 2363 
Q 1003 2672 1297 2822 
Q 1591 2972 1913 2972 
Q 2475 2972 2870 2558 
Q 3266 2144 3266 1488 
Q 3266 1056 3080 686 
Q 2894 316 2569 119 
Q 2244 -78 1831 -78 
Q 1128 -78 684 439 
Q 241 956 241 2144 
Q 241 3472 731 4075 
Q 1159 4600 1884 4600 
Q 2425 4600 2770 4297 
Q 3116 3994 3184 3459 
z
M 888 1484 
Q 888 1194 1011 928 
Q 1134 663 1356 523 
Q 1578 384 1822 384 
Q 2178 384 2434 671 
Q 2691 959 2691 1453 
Q 2691 1928 2437 2201 
Q 2184 2475 1800 2475 
Q 1419 2475 1153 2201 
Q 888 1928 888 1484 
z
" transform="scale(0.015625)"/>
       </defs>
       <use xlink:href="#ArialMT-30"/>
       <use xlink:href="#ArialMT-2e" x="55.615234"/>
       <use xlink:href="#ArialMT-36" x="83.398438"/>
      </g>
     </g>
    </g>
    <g id="ytick_5">
     <g id="line2d_12">
      <g>
       <use xlink:href="#m0d850377c0" x="54" y="83.978182" style="fill: #262626; stroke: #262626; stroke-width: 1.25"/>
      </g>
     </g>
     <g id="text_13">
      <!-- 0.8 -->
      <g style="fill: #262626" transform="translate(29.21 87.914979)scale(0.11 -0.11)">
       <defs>
        <path id="ArialMT-38" d="M 1131 2484 
Q 781 2613 612 2850 
Q 444 3088 444 3419 
Q 444 3919 803 4259 
Q 1163 4600 1759 4600 
Q 2359 4600 2725 4251 
Q 3091 3903 3091 3403 
Q 3091 3084 2923 2848 
Q 2756 2613 2416 2484 
Q 2838 2347 3058 2040 
Q 3278 1734 3278 1309 
Q 3278 722 2862 322 
Q 2447 -78 1769 -78 
Q 1091 -78 675 323 
Q 259 725 259 1325 
Q 259 1772 486 2073 
Q 713 2375 1131 2484 
z
M 1019 3438 
Q 1019 3113 1228 2906 
Q 1438 2700 1772 2700 
Q 2097 2700 2305 2904 
Q 2513 3109 2513 3406 
Q 2513 3716 2298 3927 
Q 2084 4138 1766 4138 
Q 1444 4138 1231 3931 
Q 1019 3725 1019 3438 
z
M 838 1322 
Q 838 1081 952 856 
Q 1066 631 1291 507 
Q 1516 384 1775 384 
Q 2178 384 2440 643 
Q 2703 903 2703 1303 
Q 2703 1709 2433 1975 
Q 2163 2241 1756 2241 
Q 1359 2241 1098 1978 
Q 838 1716 838 1322 
z
" transform="scale(0.015625)"/>
       </defs>
       <use xlink:href="#ArialMT-30"/>
       <use xlink:href="#ArialMT-2e" x="55.615234"/>
       <use xlink:href="#ArialMT-38" x="83.398438"/>
      </g>
     </g>
    </g>
    <g id="ytick_6">
     <g id="line2d_13">
      <g>
       <use xlink:href="#m0d850377c0" x="54" y="44.443636" style="fill: #262626; stroke: #262626; stroke-width: 1.25"/>
      </g>
     </g>
     <g id="text_14">
      <!-- 1.0 -->
      <g style="fill: #262626" transform="translate(29.21 48.380433)scale(0.11 -0.11)">
       <use xlink:href="#ArialMT-31"/>
       <use xlink:href="#ArialMT-2e" x="55.615234"/>
       <use xlink:href="#ArialMT-30" x="83.398438"/>
      </g>
     </g>
    </g>
   </g>
   <g id="line2d_14">
    <path d="M 54 242.101681 
L 148.072046 241.998705 
L 154.102305 241.887067 
L 155.308357 241.783617 
L 156.514409 241.8925 
L 157.720461 241.662428 
L 158.926513 241.840261 
L 160.132565 241.47762 
L 161.338617 241.513643 
L 162.544669 240.684233 
L 163.75072 241.304293 
L 164.956772 241.236546 
L 166.162824 241.808282 
L 167.368876 240.947464 
L 168.574928 239.024824 
L 169.78098 240.840594 
L 170.987032 239.928775 
L 172.193084 241.157466 
L 173.399135 241.785213 
L 174.605187 240.195309 
L 175.811239 240.160527 
L 177.017291 241.987319 
L 178.223343 240.325141 
L 179.429395 242.058095 
L 180.635447 240.952754 
L 181.841499 241.894516 
L 184.253602 238.218445 
L 185.459654 238.008989 
L 186.665706 241.280954 
L 187.871758 240.511065 
L 189.07781 241.688681 
L 190.283862 242.029033 
L 191.489914 241.147103 
L 192.695965 230.690272 
L 193.902017 228.95593 
L 195.108069 239.359787 
L 196.314121 241.16482 
L 197.520173 235.432933 
L 198.726225 240.849808 
L 199.932277 241.622281 
L 201.138329 241.461176 
L 202.34438 240.123918 
L 203.550432 233.917464 
L 204.756484 238.884989 
L 205.962536 240.16846 
L 207.168588 241.009774 
L 208.37464 241.112651 
L 209.580692 239.245554 
L 210.786744 242.078999 
L 211.992795 240.895831 
L 213.198847 240.014248 
L 214.404899 238.841994 
L 215.610951 239.78875 
L 216.817003 237.186295 
L 218.023055 239.945627 
L 220.435159 241.521339 
L 221.64121 240.567875 
L 222.847262 229.592012 
L 224.053314 230.591305 
L 225.259366 211.973785 
L 226.465418 44.443636 
L 227.67147 60.092806 
L 228.877522 169.595674 
L 230.083573 222.771927 
L 231.289625 240.238792 
L 232.495677 229.753109 
L 233.701729 239.605876 
L 234.907781 241.002944 
L 236.113833 238.262485 
L 237.319885 241.840589 
L 238.525937 241.672089 
L 239.731988 241.756026 
L 240.93804 238.359503 
L 242.144092 241.303817 
L 243.350144 241.385437 
L 244.556196 240.787019 
L 245.762248 241.942114 
L 246.9683 241.252402 
L 248.174352 242.00721 
L 249.380403 241.579884 
L 251.792507 241.977295 
L 252.998559 241.931188 
L 254.204611 242.107239 
L 256.616715 241.836066 
L 257.822767 241.90923 
L 259.028818 241.808612 
L 260.23487 242.021024 
L 261.440922 241.917792 
L 262.646974 241.634268 
L 265.059078 242.077139 
L 266.26513 241.818444 
L 271.089337 242.114769 
L 273.501441 241.947985 
L 274.707493 242.066728 
L 281.943804 242.049171 
L 289.180115 242.09435 
L 295.210375 242.101569 
L 333.804035 242.113298 
L 433 242.115948 
M 433 242.116361 
L -1 242.116361 
L -1 242.116361 
" clip-path="url(#p27b480d275)" style="fill: none; stroke: #4c72b0; stroke-opacity: 0.3; stroke-width: 1.5; stroke-linecap: round"/>
   </g>
   <g id="line2d_15">
    <path d="M 54 240.697751 
L 80.533141 240.585644 
L 101.036023 240.289459 
L 115.508646 239.863311 
L 125.157061 239.373012 
L 132.393372 238.798581 
L 139.629683 237.846392 
L 142.041787 237.420257 
L 143.247839 237.044644 
L 144.45389 236.975011 
L 146.865994 235.920397 
L 148.072046 236.033955 
L 149.278098 235.621118 
L 150.48415 234.634954 
L 151.690202 232.869565 
L 152.896254 233.82879 
L 154.102305 231.585169 
L 155.308357 232.014106 
L 156.514409 229.647212 
L 157.720461 226.702906 
L 158.926513 231.139074 
L 160.132565 218.913946 
L 161.338617 225.235217 
L 162.544669 192.297133 
L 163.75072 203.997024 
L 164.956772 187.302171 
L 166.162824 223.105438 
L 167.368876 147.753244 
L 168.574928 196.149992 
L 169.78098 175.193082 
L 170.987032 112.160976 
L 172.193084 226.329387 
L 173.399135 227.650384 
L 174.605187 213.813634 
L 175.811239 154.404375 
L 177.017291 173.613593 
L 178.223343 201.024245 
L 179.429395 168.632864 
L 180.635447 211.532347 
L 181.841499 185.33169 
L 183.04755 217.598473 
L 184.253602 202.164629 
L 185.459654 216.260156 
L 187.871758 239.016719 
L 189.07781 228.013059 
L 190.283862 240.224933 
L 191.489914 223.042782 
L 192.695965 224.765907 
L 193.902017 222.602561 
L 195.108069 225.276872 
L 196.314121 198.363222 
L 197.520173 220.684757 
L 198.726225 230.255138 
L 199.932277 238.5206 
L 202.34438 232.275834 
L 203.550432 241.850605 
L 204.756484 215.979038 
L 205.962536 239.324081 
L 207.168588 236.707049 
L 208.37464 240.270848 
L 209.580692 231.601499 
L 210.786744 240.798867 
L 211.992795 235.104693 
L 213.198847 232.968816 
L 214.404899 228.706437 
L 215.610951 227.197666 
L 218.023055 238.448343 
L 219.229107 232.143643 
L 220.435159 235.555923 
L 221.64121 231.947778 
L 222.847262 238.613629 
L 224.053314 220.648788 
L 225.259366 176.686533 
L 226.465418 102.976753 
L 227.67147 44.443636 
L 228.877522 150.421807 
L 230.083573 206.318031 
L 231.289625 234.899154 
L 232.495677 216.658188 
L 233.701729 227.838479 
L 234.907781 222.733479 
L 236.113833 226.189558 
L 237.319885 228.327985 
L 238.525937 229.361627 
L 239.731988 232.166386 
L 240.93804 232.529285 
L 242.144092 229.367126 
L 243.350144 238.331076 
L 244.556196 241.420087 
L 246.9683 238.840919 
L 248.174352 241.457384 
L 249.380403 235.920038 
L 250.586455 238.138674 
L 251.792507 232.136241 
L 252.998559 235.480673 
L 254.204611 227.039614 
L 255.410663 224.73156 
L 256.616715 232.278713 
L 257.822767 229.917437 
L 259.028818 224.789368 
L 260.23487 217.948551 
L 261.440922 239.237634 
L 262.646974 233.825435 
L 263.853026 236.029377 
L 265.059078 239.579459 
L 266.26513 233.334533 
L 267.471182 233.441233 
L 268.677233 231.85033 
L 269.883285 234.301962 
L 271.089337 238.202319 
L 272.295389 229.852338 
L 273.501441 235.40962 
L 274.707493 236.480087 
L 275.913545 232.798131 
L 277.119597 224.004981 
L 278.325648 234.855514 
L 279.5317 236.697211 
L 280.737752 236.129078 
L 281.943804 237.791666 
L 283.149856 239.041303 
L 284.355908 235.720391 
L 286.768012 239.369973 
L 287.974063 239.67639 
L 289.180115 239.537157 
L 290.386167 238.656009 
L 291.592219 239.575569 
L 292.798271 239.577121 
L 295.210375 240.461609 
L 296.416427 240.712759 
L 298.82853 240.329752 
L 301.240634 240.819928 
L 302.446686 240.961943 
L 303.652738 240.852993 
L 304.85879 241.011995 
L 308.476945 241.068986 
L 322.949568 241.52724 
L 347.070605 241.808803 
L 383.252161 241.965023 
L 433 242.043395 
M 433 242.115278 
L -1 242.115278 
L -1 242.115278 
" clip-path="url(#p27b480d275)" style="fill: none; stroke: #dd8452; stroke-opacity: 0.3; stroke-width: 1.5; stroke-linecap: round"/>
   </g>
   <g id="line2d_16">
    <path d="M 54 239.864039 
L 75.708934 239.752899 
L 93.799712 239.451822 
L 107.066282 239.037408 
L 117.920749 238.484788 
L 125.157061 237.9342 
L 131.18732 237.295622 
L 136.011527 236.584919 
L 140.835735 235.618998 
L 142.041787 235.216835 
L 143.247839 234.980312 
L 144.45389 234.513936 
L 145.659942 234.298734 
L 148.072046 233.463552 
L 149.278098 232.603776 
L 150.48415 232.121404 
L 151.690202 230.964668 
L 152.896254 227.896221 
L 154.102305 226.877444 
L 155.308357 226.172075 
L 156.514409 227.517891 
L 157.720461 227.651397 
L 158.926513 229.665514 
L 160.132565 226.265135 
L 161.338617 213.134104 
L 162.544669 184.837282 
L 163.75072 197.923756 
L 164.956772 196.674588 
L 166.162824 219.787304 
L 167.368876 156.938362 
L 168.574928 203.193182 
L 169.78098 44.443636 
L 170.987032 67.667455 
L 172.193084 170.278633 
L 173.399135 202.145582 
L 174.605187 239.24758 
L 175.811239 132.147587 
L 177.017291 71.233351 
L 178.223343 203.003114 
L 179.429395 193.343026 
L 180.635447 223.34316 
L 181.841499 213.91707 
L 183.04755 159.398615 
L 184.253602 163.714652 
L 185.459654 231.261202 
L 186.665706 159.942216 
L 187.871758 221.230527 
L 189.07781 239.460808 
L 190.283862 212.497209 
L 191.489914 141.573316 
L 192.695965 119.003158 
L 193.902017 208.844135 
L 195.108069 218.32704 
L 196.314121 188.460625 
L 197.520173 238.556835 
L 198.726225 224.894968 
L 199.932277 212.497305 
L 201.138329 207.027999 
L 202.34438 184.384228 
L 203.550432 197.243605 
L 204.756484 237.90621 
L 205.962536 196.988104 
L 207.168588 194.229422 
L 208.37464 240.513233 
L 209.580692 235.94939 
L 210.786744 193.864809 
L 211.992795 237.435448 
L 213.198847 198.781737 
L 214.404899 212.721596 
L 215.610951 208.22266 
L 216.817003 205.333033 
L 218.023055 229.587336 
L 219.229107 214.625834 
L 220.435159 215.23057 
L 221.64121 184.776129 
L 222.847262 231.373565 
L 224.053314 177.868843 
L 225.259366 161.778031 
L 226.465418 128.93473 
L 227.67147 199.291893 
L 228.877522 200.097344 
L 230.083573 198.437781 
L 231.289625 241.82787 
L 232.495677 224.434876 
L 233.701729 204.661977 
L 234.907781 226.965283 
L 236.113833 210.596255 
L 237.319885 238.486303 
L 238.525937 209.989268 
L 239.731988 224.379866 
L 240.93804 232.739266 
L 242.144092 227.086115 
L 243.350144 241.959946 
L 244.556196 233.5836 
L 245.762248 227.165884 
L 246.9683 238.839133 
L 249.380403 240.078601 
L 250.586455 234.998135 
L 252.998559 234.144135 
L 254.204611 222.718213 
L 255.410663 229.960747 
L 256.616715 225.584692 
L 257.822767 201.967592 
L 259.028818 187.615125 
L 260.23487 184.568922 
L 261.440922 229.745525 
L 262.646974 235.940748 
L 263.853026 208.967345 
L 265.059078 231.903903 
L 266.26513 216.266175 
L 267.471182 238.851212 
L 268.677233 225.161863 
L 269.883285 210.017753 
L 271.089337 235.200819 
L 272.295389 219.989161 
L 273.501441 234.698007 
L 274.707493 222.42769 
L 275.913545 220.235495 
L 277.119597 203.438817 
L 278.325648 224.626383 
L 279.5317 237.9297 
L 280.737752 229.798048 
L 281.943804 231.43172 
L 283.149856 239.413775 
L 284.355908 235.141002 
L 285.56196 234.955523 
L 286.768012 239.050097 
L 287.974063 239.14732 
L 289.180115 238.468337 
L 290.386167 238.263997 
L 291.592219 239.343165 
L 292.798271 238.956214 
L 294.004323 239.074186 
L 295.210375 240.213657 
L 296.416427 240.314024 
L 298.82853 239.73275 
L 300.034582 239.905305 
L 301.240634 240.570265 
L 302.446686 240.687431 
L 303.652738 240.411865 
L 304.85879 240.598161 
L 309.682997 240.69702 
L 310.889049 240.868069 
L 322.949568 241.307245 
L 325.361671 241.308016 
L 328.979827 241.413103 
L 347.070605 241.669316 
L 380.840058 241.884374 
L 433 242.008619 
M 433 242.11509 
L -1 242.11509 
L -1 242.11509 
" clip-path="url(#p27b480d275)" style="fill: none; stroke: #55a868; stroke-opacity: 0.3; stroke-width: 1.5; stroke-linecap: round"/>
   </g>
   <g id="line2d_17">
    <path d="M 54 242.112639 
L 161.338617 242.086697 
L 162.544669 241.950148 
L 163.75072 242.068139 
L 164.956772 242.073693 
L 166.162824 241.838904 
L 167.368876 241.104153 
L 168.574928 238.734499 
L 169.78098 241.431001 
L 170.987032 239.097606 
L 172.193084 240.979774 
L 173.399135 241.245619 
L 174.605187 241.30474 
L 175.811239 242.07352 
L 177.017291 240.683404 
L 179.429395 241.945836 
L 180.635447 241.630132 
L 181.841499 240.887488 
L 183.04755 239.039814 
L 184.253602 239.092223 
L 185.459654 239.326548 
L 186.665706 241.775127 
L 187.871758 241.23582 
L 189.07781 242.010455 
L 190.283862 242.115263 
L 191.489914 241.685951 
L 192.695965 231.774276 
L 193.902017 230.019411 
L 195.108069 239.95307 
L 196.314121 242.097639 
L 197.520173 238.718957 
L 198.726225 241.948041 
L 199.932277 241.099664 
L 201.138329 241.491101 
L 202.34438 241.22634 
L 203.550432 237.690896 
L 205.962536 240.770345 
L 207.168588 241.51651 
L 208.37464 241.889473 
L 209.580692 240.907216 
L 210.786744 241.906027 
L 211.992795 241.114687 
L 213.198847 239.315637 
L 214.404899 240.32432 
L 215.610951 240.266833 
L 216.817003 238.287936 
L 218.023055 241.845494 
L 219.229107 240.948622 
L 220.435159 241.64008 
L 221.64121 241.148581 
L 222.847262 227.861231 
L 224.053314 233.980565 
L 225.259366 212.377785 
L 226.465418 44.443636 
L 227.67147 76.526879 
L 228.877522 171.483811 
L 230.083573 218.100507 
L 231.289625 240.323983 
L 232.495677 228.216907 
L 233.701729 238.878474 
L 234.907781 240.222911 
L 236.113833 237.858544 
L 237.319885 241.699138 
L 238.525937 241.41701 
L 239.731988 241.677597 
L 240.93804 240.485655 
L 242.144092 241.030217 
L 243.350144 242.040765 
L 244.556196 241.70883 
L 245.762248 241.610216 
L 246.9683 241.684944 
L 248.174352 241.879008 
L 249.380403 241.652405 
L 250.586455 241.839199 
L 251.792507 241.456985 
L 252.998559 242.059458 
L 256.616715 242.023122 
L 259.028818 241.810142 
L 260.23487 241.792029 
L 261.440922 241.422455 
L 263.853026 242.015967 
L 266.26513 242.079879 
L 267.471182 242.112941 
L 269.883285 241.875775 
L 272.295389 242.102765 
L 277.119597 242.105939 
L 278.325648 242.008116 
L 280.737752 242.10704 
L 283.149856 242.109348 
L 291.592219 242.107599 
L 433 242.116012 
M 433 242.11636 
L -1 242.11636 
L -1 242.11636 
" clip-path="url(#p27b480d275)" style="fill: none; stroke: #c44e52; stroke-opacity: 0.3; stroke-width: 1.5; stroke-linecap: round"/>
   </g>
   <g id="line2d_18">
    <path d="M 54 242.115397 
L 154.102305 242.085654 
L 155.308357 241.935938 
L 156.514409 241.953714 
L 158.926513 241.522441 
L 160.132565 241.010777 
L 161.338617 240.665299 
L 162.544669 239.887488 
L 163.75072 241.967328 
L 164.956772 240.279231 
L 166.162824 235.024389 
L 167.368876 221.599723 
L 168.574928 240.830638 
L 169.78098 241.258481 
L 170.987032 239.008117 
L 173.399135 221.544871 
L 174.605187 221.675713 
L 175.811239 238.450972 
L 177.017291 238.573652 
L 178.223343 238.124625 
L 179.429395 216.769882 
L 180.635447 241.752008 
L 181.841499 223.158862 
L 183.04755 240.083467 
L 184.253602 236.248713 
L 185.459654 241.883691 
L 186.665706 223.917445 
L 187.871758 235.737609 
L 189.07781 236.19997 
L 190.283862 240.278579 
L 191.489914 238.341507 
L 192.695965 212.647163 
L 193.902017 238.530769 
L 195.108069 235.85918 
L 196.314121 240.290958 
L 197.520173 235.075614 
L 198.726225 239.570329 
L 199.932277 240.291148 
L 202.34438 235.230083 
L 203.550432 227.394415 
L 204.756484 237.162142 
L 205.962536 238.243685 
L 207.168588 237.461701 
L 208.37464 232.115511 
L 209.580692 236.246872 
L 210.786744 238.411869 
L 211.992795 237.389085 
L 213.198847 239.456693 
L 215.610951 231.746831 
L 216.817003 241.535266 
L 218.023055 234.424861 
L 220.435159 239.698902 
L 221.64121 239.780115 
L 222.847262 220.405404 
L 224.053314 229.19076 
L 225.259366 193.156925 
L 226.465418 44.443636 
L 227.67147 126.348419 
L 228.877522 195.533503 
L 230.083573 216.631761 
L 231.289625 241.008471 
L 232.495677 231.97597 
L 233.701729 238.077091 
L 234.907781 241.867702 
L 236.113833 241.558255 
L 237.319885 238.668962 
L 238.525937 239.406948 
L 239.731988 241.668175 
L 240.93804 239.00695 
L 242.144092 238.778618 
L 243.350144 241.387341 
L 244.556196 239.797547 
L 245.762248 239.001784 
L 246.9683 241.537743 
L 248.174352 239.843247 
L 249.380403 242.113317 
L 250.586455 240.336256 
L 251.792507 236.737779 
L 252.998559 242.087499 
L 254.204611 241.772856 
L 255.410663 239.275996 
L 256.616715 239.325776 
L 257.822767 242.037389 
L 259.028818 241.906234 
L 260.23487 239.079786 
L 261.440922 241.99969 
L 262.646974 239.515654 
L 263.853026 240.850024 
L 265.059078 241.996303 
L 266.26513 241.823169 
L 267.471182 241.242548 
L 268.677233 241.294993 
L 269.883285 240.76273 
L 271.089337 242.086129 
L 272.295389 239.98014 
L 273.501441 241.969215 
L 274.707493 241.955426 
L 275.913545 241.812272 
L 277.119597 241.083296 
L 278.325648 241.799674 
L 279.5317 242.076327 
L 281.943804 241.78048 
L 283.149856 242.001766 
L 284.355908 242.075433 
L 285.56196 242.019712 
L 287.974063 242.107653 
L 307.270893 242.114817 
L 433 242.116089 
M 433 242.11634 
L -1 242.11634 
L -1 242.11634 
" clip-path="url(#p27b480d275)" style="fill: none; stroke: #8172b3; stroke-opacity: 0.3; stroke-width: 1.5; stroke-linecap: round"/>
   </g>
   <g id="line2d_19">
    <path d="M 54 242.10323 
L 151.690202 242.011804 
L 152.896254 241.781949 
L 154.102305 241.759617 
L 155.308357 241.880382 
L 157.720461 241.744726 
L 158.926513 241.933303 
L 160.132565 241.374244 
L 161.338617 241.686143 
L 162.544669 238.026413 
L 163.75072 242.114538 
L 166.162824 234.82515 
L 167.368876 235.903642 
L 168.574928 231.198548 
L 169.78098 214.257259 
L 170.987032 176.474154 
L 172.193084 178.597352 
L 173.399135 208.400194 
L 174.605187 222.1837 
L 175.811239 231.773981 
L 177.017291 218.842358 
L 178.223343 233.166562 
L 179.429395 241.935211 
L 180.635447 240.768578 
L 181.841499 228.854211 
L 183.04755 208.430067 
L 184.253602 169.362871 
L 185.459654 204.11198 
L 186.665706 233.352634 
L 187.871758 182.354116 
L 189.07781 191.654085 
L 190.283862 213.225284 
L 191.489914 209.117949 
L 192.695965 44.443636 
L 193.902017 173.879261 
L 195.108069 169.050731 
L 196.314121 228.698912 
L 197.520173 147.405453 
L 198.726225 217.251212 
L 199.932277 222.970309 
L 201.138329 231.832554 
L 202.34438 224.755536 
L 203.550432 234.915425 
L 204.756484 236.003868 
L 205.962536 235.067813 
L 207.168588 214.873922 
L 208.37464 239.460012 
L 209.580692 224.648534 
L 210.786744 215.652982 
L 211.992795 236.502634 
L 213.198847 213.683892 
L 214.404899 222.445467 
L 215.610951 168.984916 
L 218.023055 236.968889 
L 219.229107 221.569703 
L 220.435159 229.346523 
L 221.64121 211.540433 
L 222.847262 233.870152 
L 224.053314 200.336338 
L 225.259366 163.288686 
L 226.465418 162.801063 
L 227.67147 96.067121 
L 228.877522 217.252479 
L 230.083573 213.571283 
L 231.289625 225.141503 
L 232.495677 217.631692 
L 233.701729 239.390278 
L 234.907781 235.433677 
L 236.113833 236.920632 
L 237.319885 238.221226 
L 238.525937 235.876366 
L 239.731988 231.951598 
L 240.93804 216.175207 
L 242.144092 238.112767 
L 243.350144 233.007968 
L 244.556196 240.559565 
L 245.762248 234.528415 
L 246.9683 239.840481 
L 248.174352 227.441494 
L 249.380403 241.518505 
L 250.586455 213.769347 
L 251.792507 229.092567 
L 252.998559 240.456312 
L 254.204611 240.167794 
L 255.410663 241.214366 
L 256.616715 202.834903 
L 257.822767 238.929114 
L 259.028818 234.174721 
L 260.23487 228.023336 
L 261.440922 240.887344 
L 262.646974 234.046956 
L 263.853026 241.156882 
L 265.059078 241.749299 
L 266.26513 241.316218 
L 267.471182 233.313888 
L 268.677233 235.318687 
L 269.883285 239.884207 
L 271.089337 241.63558 
L 272.295389 224.143962 
L 273.501441 237.566689 
L 274.707493 241.73096 
L 278.325648 240.967383 
L 279.5317 241.694616 
L 280.737752 241.442306 
L 281.943804 241.628593 
L 283.149856 240.521973 
L 284.355908 241.53429 
L 286.768012 242.08503 
L 287.974063 241.956653 
L 289.180115 242.110294 
L 297.622478 242.104398 
L 310.889049 242.11519 
L 433 242.116084 
M 433 242.116358 
L -1 242.116358 
L -1 242.116358 
" clip-path="url(#p27b480d275)" style="fill: none; stroke: #937860; stroke-opacity: 0.3; stroke-width: 1.5; stroke-linecap: round"/>
   </g>
   <g id="line2d_20">
    <path d="M 54 242.111642 
L 161.338617 242.02553 
L 162.544669 241.9496 
L 163.75072 242.051908 
L 164.956772 241.888452 
L 166.162824 242.03433 
L 167.368876 241.203678 
L 168.574928 236.852714 
L 169.78098 241.016199 
L 170.987032 239.893231 
L 172.193084 240.530586 
L 173.399135 240.46922 
L 174.605187 241.398865 
L 175.811239 241.933189 
L 178.223343 239.45358 
L 179.429395 240.962532 
L 180.635447 240.245065 
L 181.841499 241.679538 
L 183.04755 238.60651 
L 184.253602 240.030393 
L 185.459654 239.610846 
L 186.665706 241.582875 
L 187.871758 241.960752 
L 189.07781 240.847415 
L 190.283862 241.64208 
L 191.489914 241.791411 
L 192.695965 226.282031 
L 193.902017 223.192353 
L 195.108069 238.740084 
L 196.314121 241.734979 
L 197.520173 238.059711 
L 198.726225 242.034456 
L 199.932277 241.490525 
L 201.138329 241.711708 
L 202.34438 240.193182 
L 203.550432 236.331971 
L 204.756484 240.206578 
L 205.962536 239.113582 
L 207.168588 240.801482 
L 208.37464 242.032428 
L 209.580692 240.906979 
L 210.786744 241.858201 
L 211.992795 240.830589 
L 213.198847 239.054208 
L 214.404899 239.475301 
L 215.610951 240.810454 
L 216.817003 239.489317 
L 218.023055 241.82715 
L 219.229107 241.436308 
L 220.435159 241.874298 
L 221.64121 241.362484 
L 222.847262 234.686239 
L 224.053314 234.792967 
L 225.259366 203.562935 
L 226.465418 44.443636 
L 227.67147 78.708608 
L 228.877522 177.171036 
L 230.083573 217.156831 
L 231.289625 240.559989 
L 232.495677 233.044324 
L 233.701729 237.687167 
L 234.907781 239.842246 
L 236.113833 236.511151 
L 237.319885 240.769358 
L 238.525937 241.310638 
L 239.731988 241.627282 
L 240.93804 240.266568 
L 242.144092 240.634431 
L 243.350144 241.489738 
L 244.556196 241.475211 
L 245.762248 242.015403 
L 246.9683 241.778 
L 248.174352 242.06643 
L 249.380403 241.037265 
L 250.586455 241.840641 
L 251.792507 241.551021 
L 252.998559 242.027495 
L 254.204611 241.544851 
L 255.410663 242.012826 
L 256.616715 241.67213 
L 257.822767 242.089518 
L 259.028818 241.828134 
L 260.23487 241.922388 
L 261.440922 241.705613 
L 262.646974 242.032951 
L 263.853026 241.870224 
L 265.059078 242.050781 
L 266.26513 242.109241 
L 267.471182 241.744225 
L 268.677233 242.017764 
L 269.883285 241.928108 
L 271.089337 242.048713 
L 272.295389 241.863898 
L 273.501441 242.071017 
L 275.913545 242.046703 
L 283.149856 242.106897 
L 303.652738 242.111837 
L 433 242.115857 
M 433 242.116352 
L -1 242.116352 
L -1 242.116352 
" clip-path="url(#p27b480d275)" style="fill: none; stroke: #da8bc3; stroke-opacity: 0.3; stroke-width: 1.5; stroke-linecap: round"/>
   </g>
   <g id="line2d_21">
    <path d="M 54 242.112708 
L 157.720461 242.022254 
L 158.926513 241.895567 
L 160.132565 241.611059 
L 161.338617 241.801942 
L 162.544669 240.498373 
L 166.162824 242.075811 
L 167.368876 232.311708 
L 168.574928 241.183728 
L 169.78098 241.60754 
L 170.987032 240.614893 
L 172.193084 229.959252 
L 173.399135 236.569488 
L 174.605187 231.621535 
L 175.811239 238.633897 
L 177.017291 238.810417 
L 178.223343 242.050566 
L 179.429395 236.930339 
L 180.635447 239.400267 
L 181.841499 229.106824 
L 183.04755 240.376678 
L 184.253602 237.986338 
L 185.459654 240.481535 
L 186.665706 229.405539 
L 189.07781 239.25066 
L 190.283862 239.173673 
L 191.489914 241.298048 
L 192.695965 208.914264 
L 193.902017 242.036758 
L 195.108069 237.248774 
L 196.314121 242.002164 
L 197.520173 237.726296 
L 198.726225 225.80692 
L 199.932277 236.72534 
L 201.138329 236.373875 
L 202.34438 241.33636 
L 203.550432 236.785564 
L 204.756484 237.367746 
L 205.962536 239.751533 
L 207.168588 235.572549 
L 208.37464 236.798008 
L 209.580692 236.524634 
L 210.786744 241.85424 
L 211.992795 238.342226 
L 213.198847 241.260139 
L 214.404899 241.028776 
L 215.610951 237.121109 
L 216.817003 225.473411 
L 218.023055 241.122833 
L 219.229107 240.90671 
L 220.435159 238.24765 
L 221.64121 241.215751 
L 222.847262 218.715005 
L 224.053314 227.635767 
L 225.259366 209.667544 
L 226.465418 44.443636 
L 227.67147 88.608669 
L 228.877522 165.883954 
L 230.083573 217.269999 
L 231.289625 238.439614 
L 232.495677 228.959713 
L 233.701729 240.529501 
L 234.907781 241.565178 
L 236.113833 240.269992 
L 237.319885 240.593801 
L 238.525937 241.852938 
L 239.731988 239.587897 
L 240.93804 232.462873 
L 242.144092 239.299312 
L 243.350144 237.876616 
L 244.556196 234.793257 
L 245.762248 242.097289 
L 246.9683 241.761887 
L 248.174352 239.879434 
L 249.380403 241.617425 
L 250.586455 240.331407 
L 251.792507 239.823818 
L 252.998559 241.642441 
L 254.204611 240.759206 
L 255.410663 241.736671 
L 256.616715 239.13195 
L 257.822767 240.75215 
L 259.028818 240.459685 
L 260.23487 241.005864 
L 261.440922 237.475379 
L 262.646974 241.253869 
L 263.853026 241.653191 
L 265.059078 240.961766 
L 266.26513 241.75805 
L 267.471182 240.643404 
L 268.677233 241.583254 
L 271.089337 241.862256 
L 273.501441 241.769755 
L 274.707493 241.998957 
L 275.913545 242.099536 
L 277.119597 241.791254 
L 279.5317 241.821454 
L 280.737752 242.099461 
L 281.943804 242.000335 
L 284.355908 242.054682 
L 285.56196 242.00329 
L 287.974063 242.103471 
L 320.537464 242.113907 
L 433 242.115905 
M 433 242.116344 
L -1 242.116344 
L -1 242.116344 
" clip-path="url(#p27b480d275)" style="fill: none; stroke: #8c8c8c; stroke-opacity: 0.3; stroke-width: 1.5; stroke-linecap: round"/>
   </g>
   <g id="line2d_22">
    <path d="M 54 242.116253 
L 152.896254 242.026832 
L 154.102305 241.998491 
L 156.514409 241.638888 
L 157.720461 241.81772 
L 158.926513 241.701775 
L 160.132565 242.005815 
L 161.338617 241.376259 
L 162.544669 239.016234 
L 163.75072 240.174236 
L 166.162824 237.113048 
L 167.368876 234.655306 
L 168.574928 191.782968 
L 169.78098 232.236985 
L 170.987032 211.431804 
L 172.193084 230.526756 
L 173.399135 209.163077 
L 174.605187 225.119484 
L 175.811239 216.680029 
L 177.017291 206.747722 
L 178.223343 235.721168 
L 179.429395 240.654486 
L 180.635447 196.060616 
L 181.841499 239.728927 
L 183.04755 236.573548 
L 184.253602 193.764886 
L 185.459654 169.934735 
L 186.665706 197.782117 
L 187.871758 216.489814 
L 189.07781 179.35713 
L 190.283862 203.48066 
L 191.489914 220.931718 
L 192.695965 44.443636 
L 193.902017 214.621426 
L 195.108069 221.24438 
L 196.314121 214.657951 
L 197.520173 233.731799 
L 198.726225 114.142817 
L 199.932277 201.000223 
L 201.138329 235.672184 
L 202.34438 169.180675 
L 203.550432 230.163059 
L 204.756484 220.874662 
L 205.962536 228.847626 
L 207.168588 211.474011 
L 208.37464 235.979262 
L 209.580692 212.727001 
L 210.786744 146.939683 
L 211.992795 215.837169 
L 213.198847 236.156692 
L 214.404899 240.378673 
L 215.610951 169.162016 
L 216.817003 135.655252 
L 218.023055 238.639838 
L 219.229107 241.456382 
L 220.435159 221.369896 
L 221.64121 237.465167 
L 222.847262 225.352116 
L 224.053314 238.54113 
L 225.259366 221.356117 
L 226.465418 69.292372 
L 227.67147 187.555209 
L 228.877522 197.770109 
L 230.083573 231.802478 
L 231.289625 188.813721 
L 232.495677 197.617356 
L 233.701729 237.613654 
L 234.907781 234.425824 
L 236.113833 218.774701 
L 237.319885 204.923576 
L 238.525937 239.888147 
L 239.731988 195.986289 
L 240.93804 215.321213 
L 242.144092 237.964768 
L 243.350144 192.646184 
L 244.556196 199.872359 
L 245.762248 237.794128 
L 246.9683 241.97568 
L 248.174352 222.267955 
L 249.380403 221.282437 
L 250.586455 209.990259 
L 251.792507 241.956982 
L 252.998559 240.387435 
L 254.204611 189.423482 
L 255.410663 236.236856 
L 256.616715 234.986023 
L 257.822767 226.363067 
L 259.028818 207.072222 
L 260.23487 221.609101 
L 261.440922 224.214044 
L 262.646974 225.70996 
L 263.853026 237.925614 
L 265.059078 234.85853 
L 266.26513 236.365341 
L 267.471182 221.748389 
L 268.677233 235.345707 
L 269.883285 242.044701 
L 271.089337 239.190683 
L 272.295389 233.96329 
L 273.501441 241.989107 
L 274.707493 241.868402 
L 275.913545 241.262552 
L 277.119597 237.70295 
L 278.325648 241.151585 
L 279.5317 240.86642 
L 280.737752 241.895268 
L 281.943804 239.553225 
L 283.149856 240.087934 
L 284.355908 241.754684 
L 285.56196 239.389765 
L 286.768012 241.175619 
L 287.974063 242.064356 
L 289.180115 241.99863 
L 290.386167 241.810037 
L 292.798271 242.113439 
L 294.004323 241.852996 
L 295.210375 242.071361 
L 297.622478 242.079234 
L 302.446686 242.040527 
L 304.85879 242.087151 
L 314.507205 242.110148 
L 433 242.116202 
M 433 242.116364 
L -1 242.116364 
L -1 242.116364 
" clip-path="url(#p27b480d275)" style="fill: none; stroke: #ccb974; stroke-opacity: 0.3; stroke-width: 1.5; stroke-linecap: round"/>
   </g>
   <g id="patch_3">
    <path d="M 54 252 
L 54 34.56 
" style="fill: none; stroke: #262626; stroke-width: 1.25; stroke-linejoin: miter; stroke-linecap: square"/>
   </g>
   <g id="patch_4">
    <path d="M 388.8 252 
L 388.8 34.56 
" style="fill: none; stroke: #262626; stroke-width: 1.25; stroke-linejoin: miter; stroke-linecap: square"/>
   </g>
   <g id="patch_5">
    <path d="M 54 252 
L 388.8 252 
" style="fill: none; stroke: #262626; stroke-width: 1.25; stroke-linejoin: miter; stroke-linecap: square"/>
   </g>
   <g id="patch_6">
    <path d="M 54 34.56 
L 388.8 34.56 
" style="fill: none; stroke: #262626; stroke-width: 1.25; stroke-linejoin: miter; stroke-linecap: square"/>
   </g>
   <g id="text_15">
    <!-- patient14_app01_phone - Power spectrum -->
    <g style="fill: #262626" transform="translate(107.998125 28.56)scale(0.12 -0.12)">
     <defs>
      <path id="ArialMT-70" d="M 422 -1272 
L 422 3319 
L 934 3319 
L 934 2888 
Q 1116 3141 1344 3267 
Q 1572 3394 1897 3394 
Q 2322 3394 2647 3175 
Q 2972 2956 3137 2557 
Q 3303 2159 3303 1684 
Q 3303 1175 3120 767 
Q 2938 359 2589 142 
Q 2241 -75 1856 -75 
Q 1575 -75 1351 44 
Q 1128 163 984 344 
L 984 -1272 
L 422 -1272 
z
M 931 1641 
Q 931 1000 1190 694 
Q 1450 388 1819 388 
Q 2194 388 2461 705 
Q 2728 1022 2728 1688 
Q 2728 2322 2467 2637 
Q 2206 2953 1844 2953 
Q 1484 2953 1207 2617 
Q 931 2281 931 1641 
z
" transform="scale(0.015625)"/>
      <path id="ArialMT-61" d="M 2588 409 
Q 2275 144 1986 34 
Q 1697 -75 1366 -75 
Q 819 -75 525 192 
Q 231 459 231 875 
Q 231 1119 342 1320 
Q 453 1522 633 1644 
Q 813 1766 1038 1828 
Q 1203 1872 1538 1913 
Q 2219 1994 2541 2106 
Q 2544 2222 2544 2253 
Q 2544 2597 2384 2738 
Q 2169 2928 1744 2928 
Q 1347 2928 1158 2789 
Q 969 2650 878 2297 
L 328 2372 
Q 403 2725 575 2942 
Q 747 3159 1072 3276 
Q 1397 3394 1825 3394 
Q 2250 3394 2515 3294 
Q 2781 3194 2906 3042 
Q 3031 2891 3081 2659 
Q 3109 2516 3109 2141 
L 3109 1391 
Q 3109 606 3145 398 
Q 3181 191 3288 0 
L 2700 0 
Q 2613 175 2588 409 
z
M 2541 1666 
Q 2234 1541 1622 1453 
Q 1275 1403 1131 1340 
Q 988 1278 909 1158 
Q 831 1038 831 891 
Q 831 666 1001 516 
Q 1172 366 1500 366 
Q 1825 366 2078 508 
Q 2331 650 2450 897 
Q 2541 1088 2541 1459 
L 2541 1666 
z
" transform="scale(0.015625)"/>
      <path id="ArialMT-74" d="M 1650 503 
L 1731 6 
Q 1494 -44 1306 -44 
Q 1000 -44 831 53 
Q 663 150 594 308 
Q 525 466 525 972 
L 525 2881 
L 113 2881 
L 113 3319 
L 525 3319 
L 525 4141 
L 1084 4478 
L 1084 3319 
L 1650 3319 
L 1650 2881 
L 1084 2881 
L 1084 941 
Q 1084 700 1114 631 
Q 1144 563 1211 522 
Q 1278 481 1403 481 
Q 1497 481 1650 503 
z
" transform="scale(0.015625)"/>
      <path id="ArialMT-69" d="M 425 3934 
L 425 4581 
L 988 4581 
L 988 3934 
L 425 3934 
z
M 425 0 
L 425 3319 
L 988 3319 
L 988 0 
L 425 0 
z
" transform="scale(0.015625)"/>
      <path id="ArialMT-5f" d="M -97 -1272 
L -97 -866 
L 3631 -866 
L 3631 -1272 
L -97 -1272 
z
" transform="scale(0.015625)"/>
      <path id="ArialMT-68" d="M 422 0 
L 422 4581 
L 984 4581 
L 984 2938 
Q 1378 3394 1978 3394 
Q 2347 3394 2619 3248 
Q 2891 3103 3008 2847 
Q 3125 2591 3125 2103 
L 3125 0 
L 2563 0 
L 2563 2103 
Q 2563 2525 2380 2717 
Q 2197 2909 1863 2909 
Q 1613 2909 1392 2779 
Q 1172 2650 1078 2428 
Q 984 2206 984 1816 
L 984 0 
L 422 0 
z
" transform="scale(0.015625)"/>
      <path id="ArialMT-6f" d="M 213 1659 
Q 213 2581 725 3025 
Q 1153 3394 1769 3394 
Q 2453 3394 2887 2945 
Q 3322 2497 3322 1706 
Q 3322 1066 3130 698 
Q 2938 331 2570 128 
Q 2203 -75 1769 -75 
Q 1072 -75 642 372 
Q 213 819 213 1659 
z
M 791 1659 
Q 791 1022 1069 705 
Q 1347 388 1769 388 
Q 2188 388 2466 706 
Q 2744 1025 2744 1678 
Q 2744 2294 2464 2611 
Q 2184 2928 1769 2928 
Q 1347 2928 1069 2612 
Q 791 2297 791 1659 
z
" transform="scale(0.015625)"/>
      <path id="ArialMT-2d" d="M 203 1375 
L 203 1941 
L 1931 1941 
L 1931 1375 
L 203 1375 
z
" transform="scale(0.015625)"/>
      <path id="ArialMT-50" d="M 494 0 
L 494 4581 
L 2222 4581 
Q 2678 4581 2919 4538 
Q 3256 4481 3484 4323 
Q 3713 4166 3852 3881 
Q 3991 3597 3991 3256 
Q 3991 2672 3619 2267 
Q 3247 1863 2275 1863 
L 1100 1863 
L 1100 0 
L 494 0 
z
M 1100 2403 
L 2284 2403 
Q 2872 2403 3119 2622 
Q 3366 2841 3366 3238 
Q 3366 3525 3220 3729 
Q 3075 3934 2838 4000 
Q 2684 4041 2272 4041 
L 1100 4041 
L 1100 2403 
z
" transform="scale(0.015625)"/>
      <path id="ArialMT-77" d="M 1034 0 
L 19 3319 
L 600 3319 
L 1128 1403 
L 1325 691 
Q 1338 744 1497 1375 
L 2025 3319 
L 2603 3319 
L 3100 1394 
L 3266 759 
L 3456 1400 
L 4025 3319 
L 4572 3319 
L 3534 0 
L 2950 0 
L 2422 1988 
L 2294 2553 
L 1622 0 
L 1034 0 
z
" transform="scale(0.015625)"/>
      <path id="ArialMT-73" d="M 197 991 
L 753 1078 
Q 800 744 1014 566 
Q 1228 388 1613 388 
Q 2000 388 2187 545 
Q 2375 703 2375 916 
Q 2375 1106 2209 1216 
Q 2094 1291 1634 1406 
Q 1016 1563 777 1677 
Q 538 1791 414 1992 
Q 291 2194 291 2438 
Q 291 2659 392 2848 
Q 494 3038 669 3163 
Q 800 3259 1026 3326 
Q 1253 3394 1513 3394 
Q 1903 3394 2198 3281 
Q 2494 3169 2634 2976 
Q 2775 2784 2828 2463 
L 2278 2388 
Q 2241 2644 2061 2787 
Q 1881 2931 1553 2931 
Q 1166 2931 1000 2803 
Q 834 2675 834 2503 
Q 834 2394 903 2306 
Q 972 2216 1119 2156 
Q 1203 2125 1616 2013 
Q 2213 1853 2448 1751 
Q 2684 1650 2818 1456 
Q 2953 1263 2953 975 
Q 2953 694 2789 445 
Q 2625 197 2315 61 
Q 2006 -75 1616 -75 
Q 969 -75 630 194 
Q 291 463 197 991 
z
" transform="scale(0.015625)"/>
      <path id="ArialMT-6d" d="M 422 0 
L 422 3319 
L 925 3319 
L 925 2853 
Q 1081 3097 1340 3245 
Q 1600 3394 1931 3394 
Q 2300 3394 2536 3241 
Q 2772 3088 2869 2813 
Q 3263 3394 3894 3394 
Q 4388 3394 4653 3120 
Q 4919 2847 4919 2278 
L 4919 0 
L 4359 0 
L 4359 2091 
Q 4359 2428 4304 2576 
Q 4250 2725 4106 2815 
Q 3963 2906 3769 2906 
Q 3419 2906 3187 2673 
Q 2956 2441 2956 1928 
L 2956 0 
L 2394 0 
L 2394 2156 
Q 2394 2531 2256 2718 
Q 2119 2906 1806 2906 
Q 1569 2906 1367 2781 
Q 1166 2656 1075 2415 
Q 984 2175 984 1722 
L 984 0 
L 422 0 
z
" transform="scale(0.015625)"/>
     </defs>
     <use xlink:href="#ArialMT-70"/>
     <use xlink:href="#ArialMT-61" x="55.615234"/>
     <use xlink:href="#ArialMT-74" x="111.230469"/>
     <use xlink:href="#ArialMT-69" x="139.013672"/>
     <use xlink:href="#ArialMT-65" x="161.230469"/>
     <use xlink:href="#ArialMT-6e" x="216.845703"/>
     <use xlink:href="#ArialMT-74" x="272.460938"/>
     <use xlink:href="#ArialMT-31" x="300.244141"/>
     <use xlink:href="#ArialMT-34" x="355.859375"/>
     <use xlink:href="#ArialMT-5f" x="411.474609"/>
     <use xlink:href="#ArialMT-61" x="467.089844"/>
     <use xlink:href="#ArialMT-70" x="522.705078"/>
     <use xlink:href="#ArialMT-70" x="578.320312"/>
     <use xlink:href="#ArialMT-30" x="633.935547"/>
     <use xlink:href="#ArialMT-31" x="689.550781"/>
     <use xlink:href="#ArialMT-5f" x="745.166016"/>
     <use xlink:href="#ArialMT-70" x="800.78125"/>
     <use xlink:href="#ArialMT-68" x="856.396484"/>
     <use xlink:href="#ArialMT-6f" x="912.011719"/>
     <use xlink:href="#ArialMT-6e" x="967.626953"/>
     <use xlink:href="#ArialMT-65" x="1023.242188"/>
     <use xlink:href="#ArialMT-20" x="1078.857422"/>
     <use xlink:href="#ArialMT-2d" x="1106.640625"/>
     <use xlink:href="#ArialMT-20" x="1139.941406"/>
     <use xlink:href="#ArialMT-50" x="1167.724609"/>
     <use xlink:href="#ArialMT-6f" x="1234.423828"/>
     <use xlink:href="#ArialMT-77" x="1290.039062"/>
     <use xlink:href="#ArialMT-65" x="1362.255859"/>
     <use xlink:href="#ArialMT-72" x="1417.871094"/>
     <use xlink:href="#ArialMT-20" x="1451.171875"/>
     <use xlink:href="#ArialMT-73" x="1478.955078"/>
     <use xlink:href="#ArialMT-70" x="1528.955078"/>
     <use xlink:href="#ArialMT-65" x="1584.570312"/>
     <use xlink:href="#ArialMT-63" x="1640.185547"/>
     <use xlink:href="#ArialMT-74" x="1690.185547"/>
     <use xlink:href="#ArialMT-72" x="1717.96875"/>
     <use xlink:href="#ArialMT-75" x="1751.269531"/>
     <use xlink:href="#ArialMT-6d" x="1806.884766"/>
    </g>
   </g>
  </g>
 </g>
 <defs>
  <clipPath id="p27b480d275">
   <rect x="54" y="34.56" width="334.8" height="217.44"/>
  </clipPath>
 </defs>
</svg>
