<?xml version="1.0" encoding="utf-8" standalone="no"?>
<!DOCTYPE svg PUBLIC "-//W3C//DTD SVG 1.1//EN"
  "http://www.w3.org/Graphics/SVG/1.1/DTD/svg11.dtd">
<svg xmlns:xlink="http://www.w3.org/1999/xlink" width="432pt" height="288pt" viewBox="0 0 432 288" xmlns="http://www.w3.org/2000/svg" version="1.1">
 <metadata>
  <rdf:RDF xmlns:dc="http://purl.org/dc/elements/1.1/" xmlns:cc="http://creativecommons.org/ns#" xmlns:rdf="http://www.w3.org/1999/02/22-rdf-syntax-ns#">
   <cc:Work>
    <dc:type rdf:resource="http://purl.org/dc/dcmitype/StillImage"/>
    <dc:date>2022-07-08T13:28:06.873606</dc:date>
    <dc:format>image/svg+xml</dc:format>
    <dc:creator>
     <cc:Agent>
      <dc:title>Matplotlib v3.5.1, https://matplotlib.org/</dc:title>
     </cc:Agent>
    </dc:creator>
   </cc:Work>
  </rdf:RDF>
 </metadata>
 <defs>
  <style type="text/css">*{stroke-linejoin: round; stroke-linecap: butt}</style>
 </defs>
 <g id="figure_1">
  <g id="patch_1">
   <path d="M 0 288 
L 432 288 
L 432 0 
L 0 0 
z
" style="fill: #ffffff"/>
  </g>
  <g id="axes_1">
   <g id="patch_2">
    <path d="M 54 252 
L 388.8 252 
L 388.8 34.56 
L 54 34.56 
z
" style="fill: #ffffff"/>
   </g>
   <g id="matplotlib.axis_1">
    <g id="xtick_1">
     <g id="line2d_1">
      <defs>
       <path id="m93faca1fe4" d="M 0 0 
L 0 6 
" style="stroke: #262626; stroke-width: 1.25"/>
      </defs>
      <g>
       <use xlink:href="#m93faca1fe4" x="54" y="252" style="fill: #262626; stroke: #262626; stroke-width: 1.25"/>
      </g>
     </g>
     <g id="text_1">
      <!-- 0 -->
      <g style="fill: #262626" transform="translate(50.941484 269.373594)scale(0.11 -0.11)">
       <defs>
        <path id="ArialMT-30" d="M 266 2259 
Q 266 3072 433 3567 
Q 600 4063 929 4331 
Q 1259 4600 1759 4600 
Q 2128 4600 2406 4451 
Q 2684 4303 2865 4023 
Q 3047 3744 3150 3342 
Q 3253 2941 3253 2259 
Q 3253 1453 3087 958 
Q 2922 463 2592 192 
Q 2263 -78 1759 -78 
Q 1097 -78 719 397 
Q 266 969 266 2259 
z
M 844 2259 
Q 844 1131 1108 757 
Q 1372 384 1759 384 
Q 2147 384 2411 759 
Q 2675 1134 2675 2259 
Q 2675 3391 2411 3762 
Q 2147 4134 1753 4134 
Q 1366 4134 1134 3806 
Q 844 3388 844 2259 
z
" transform="scale(0.015625)"/>
       </defs>
       <use xlink:href="#ArialMT-30"/>
      </g>
     </g>
    </g>
    <g id="xtick_2">
     <g id="line2d_2">
      <g>
       <use xlink:href="#m93faca1fe4" x="109.8" y="252" style="fill: #262626; stroke: #262626; stroke-width: 1.25"/>
      </g>
     </g>
     <g id="text_2">
      <!-- 5 -->
      <g style="fill: #262626" transform="translate(106.741484 269.373594)scale(0.11 -0.11)">
       <defs>
        <path id="ArialMT-35" d="M 266 1200 
L 856 1250 
Q 922 819 1161 601 
Q 1400 384 1738 384 
Q 2144 384 2425 690 
Q 2706 997 2706 1503 
Q 2706 1984 2436 2262 
Q 2166 2541 1728 2541 
Q 1456 2541 1237 2417 
Q 1019 2294 894 2097 
L 366 2166 
L 809 4519 
L 3088 4519 
L 3088 3981 
L 1259 3981 
L 1013 2750 
Q 1425 3038 1878 3038 
Q 2478 3038 2890 2622 
Q 3303 2206 3303 1553 
Q 3303 931 2941 478 
Q 2500 -78 1738 -78 
Q 1113 -78 717 272 
Q 322 622 266 1200 
z
" transform="scale(0.015625)"/>
       </defs>
       <use xlink:href="#ArialMT-35"/>
      </g>
     </g>
    </g>
    <g id="xtick_3">
     <g id="line2d_3">
      <g>
       <use xlink:href="#m93faca1fe4" x="165.6" y="252" style="fill: #262626; stroke: #262626; stroke-width: 1.25"/>
      </g>
     </g>
     <g id="text_3">
      <!-- 10 -->
      <g style="fill: #262626" transform="translate(159.482969 269.373594)scale(0.11 -0.11)">
       <defs>
        <path id="ArialMT-31" d="M 2384 0 
L 1822 0 
L 1822 3584 
Q 1619 3391 1289 3197 
Q 959 3003 697 2906 
L 697 3450 
Q 1169 3672 1522 3987 
Q 1875 4303 2022 4600 
L 2384 4600 
L 2384 0 
z
" transform="scale(0.015625)"/>
       </defs>
       <use xlink:href="#ArialMT-31"/>
       <use xlink:href="#ArialMT-30" x="55.615234"/>
      </g>
     </g>
    </g>
    <g id="xtick_4">
     <g id="line2d_4">
      <g>
       <use xlink:href="#m93faca1fe4" x="221.4" y="252" style="fill: #262626; stroke: #262626; stroke-width: 1.25"/>
      </g>
     </g>
     <g id="text_4">
      <!-- 15 -->
      <g style="fill: #262626" transform="translate(215.282969 269.373594)scale(0.11 -0.11)">
       <use xlink:href="#ArialMT-31"/>
       <use xlink:href="#ArialMT-35" x="55.615234"/>
      </g>
     </g>
    </g>
    <g id="xtick_5">
     <g id="line2d_5">
      <g>
       <use xlink:href="#m93faca1fe4" x="277.2" y="252" style="fill: #262626; stroke: #262626; stroke-width: 1.25"/>
      </g>
     </g>
     <g id="text_5">
      <!-- 20 -->
      <g style="fill: #262626" transform="translate(271.082969 269.373594)scale(0.11 -0.11)">
       <defs>
        <path id="ArialMT-32" d="M 3222 541 
L 3222 0 
L 194 0 
Q 188 203 259 391 
Q 375 700 629 1000 
Q 884 1300 1366 1694 
Q 2113 2306 2375 2664 
Q 2638 3022 2638 3341 
Q 2638 3675 2398 3904 
Q 2159 4134 1775 4134 
Q 1369 4134 1125 3890 
Q 881 3647 878 3216 
L 300 3275 
Q 359 3922 746 4261 
Q 1134 4600 1788 4600 
Q 2447 4600 2831 4234 
Q 3216 3869 3216 3328 
Q 3216 3053 3103 2787 
Q 2991 2522 2730 2228 
Q 2469 1934 1863 1422 
Q 1356 997 1212 845 
Q 1069 694 975 541 
L 3222 541 
z
" transform="scale(0.015625)"/>
       </defs>
       <use xlink:href="#ArialMT-32"/>
       <use xlink:href="#ArialMT-30" x="55.615234"/>
      </g>
     </g>
    </g>
    <g id="xtick_6">
     <g id="line2d_6">
      <g>
       <use xlink:href="#m93faca1fe4" x="333" y="252" style="fill: #262626; stroke: #262626; stroke-width: 1.25"/>
      </g>
     </g>
     <g id="text_6">
      <!-- 25 -->
      <g style="fill: #262626" transform="translate(326.882969 269.373594)scale(0.11 -0.11)">
       <use xlink:href="#ArialMT-32"/>
       <use xlink:href="#ArialMT-35" x="55.615234"/>
      </g>
     </g>
    </g>
    <g id="xtick_7">
     <g id="line2d_7">
      <g>
       <use xlink:href="#m93faca1fe4" x="388.8" y="252" style="fill: #262626; stroke: #262626; stroke-width: 1.25"/>
      </g>
     </g>
     <g id="text_7">
      <!-- 30 -->
      <g style="fill: #262626" transform="translate(382.682969 269.373594)scale(0.11 -0.11)">
       <defs>
        <path id="ArialMT-33" d="M 269 1209 
L 831 1284 
Q 928 806 1161 595 
Q 1394 384 1728 384 
Q 2125 384 2398 659 
Q 2672 934 2672 1341 
Q 2672 1728 2419 1979 
Q 2166 2231 1775 2231 
Q 1616 2231 1378 2169 
L 1441 2663 
Q 1497 2656 1531 2656 
Q 1891 2656 2178 2843 
Q 2466 3031 2466 3422 
Q 2466 3731 2256 3934 
Q 2047 4138 1716 4138 
Q 1388 4138 1169 3931 
Q 950 3725 888 3313 
L 325 3413 
Q 428 3978 793 4289 
Q 1159 4600 1703 4600 
Q 2078 4600 2393 4439 
Q 2709 4278 2876 4000 
Q 3044 3722 3044 3409 
Q 3044 3113 2884 2869 
Q 2725 2625 2413 2481 
Q 2819 2388 3044 2092 
Q 3269 1797 3269 1353 
Q 3269 753 2831 336 
Q 2394 -81 1725 -81 
Q 1122 -81 723 278 
Q 325 638 269 1209 
z
" transform="scale(0.015625)"/>
       </defs>
       <use xlink:href="#ArialMT-33"/>
       <use xlink:href="#ArialMT-30" x="55.615234"/>
      </g>
     </g>
    </g>
    <g id="text_8">
     <!-- Frequency (Hz) -->
     <g style="fill: #262626" transform="translate(180.059063 284.295469)scale(0.12 -0.12)">
      <defs>
       <path id="ArialMT-46" d="M 525 0 
L 525 4581 
L 3616 4581 
L 3616 4041 
L 1131 4041 
L 1131 2622 
L 3281 2622 
L 3281 2081 
L 1131 2081 
L 1131 0 
L 525 0 
z
" transform="scale(0.015625)"/>
       <path id="ArialMT-72" d="M 416 0 
L 416 3319 
L 922 3319 
L 922 2816 
Q 1116 3169 1280 3281 
Q 1444 3394 1641 3394 
Q 1925 3394 2219 3213 
L 2025 2691 
Q 1819 2813 1613 2813 
Q 1428 2813 1281 2702 
Q 1134 2591 1072 2394 
Q 978 2094 978 1738 
L 978 0 
L 416 0 
z
" transform="scale(0.015625)"/>
       <path id="ArialMT-65" d="M 2694 1069 
L 3275 997 
Q 3138 488 2766 206 
Q 2394 -75 1816 -75 
Q 1088 -75 661 373 
Q 234 822 234 1631 
Q 234 2469 665 2931 
Q 1097 3394 1784 3394 
Q 2450 3394 2872 2941 
Q 3294 2488 3294 1666 
Q 3294 1616 3291 1516 
L 816 1516 
Q 847 969 1125 678 
Q 1403 388 1819 388 
Q 2128 388 2347 550 
Q 2566 713 2694 1069 
z
M 847 1978 
L 2700 1978 
Q 2663 2397 2488 2606 
Q 2219 2931 1791 2931 
Q 1403 2931 1139 2672 
Q 875 2413 847 1978 
z
" transform="scale(0.015625)"/>
       <path id="ArialMT-71" d="M 2538 -1272 
L 2538 353 
Q 2406 169 2170 47 
Q 1934 -75 1669 -75 
Q 1078 -75 651 397 
Q 225 869 225 1691 
Q 225 2191 398 2587 
Q 572 2984 901 3189 
Q 1231 3394 1625 3394 
Q 2241 3394 2594 2875 
L 2594 3319 
L 3100 3319 
L 3100 -1272 
L 2538 -1272 
z
M 803 1669 
Q 803 1028 1072 708 
Q 1341 388 1716 388 
Q 2075 388 2334 692 
Q 2594 997 2594 1619 
Q 2594 2281 2320 2615 
Q 2047 2950 1678 2950 
Q 1313 2950 1058 2639 
Q 803 2328 803 1669 
z
" transform="scale(0.015625)"/>
       <path id="ArialMT-75" d="M 2597 0 
L 2597 488 
Q 2209 -75 1544 -75 
Q 1250 -75 995 37 
Q 741 150 617 320 
Q 494 491 444 738 
Q 409 903 409 1263 
L 409 3319 
L 972 3319 
L 972 1478 
Q 972 1038 1006 884 
Q 1059 663 1231 536 
Q 1403 409 1656 409 
Q 1909 409 2131 539 
Q 2353 669 2445 892 
Q 2538 1116 2538 1541 
L 2538 3319 
L 3100 3319 
L 3100 0 
L 2597 0 
z
" transform="scale(0.015625)"/>
       <path id="ArialMT-6e" d="M 422 0 
L 422 3319 
L 928 3319 
L 928 2847 
Q 1294 3394 1984 3394 
Q 2284 3394 2536 3286 
Q 2788 3178 2913 3003 
Q 3038 2828 3088 2588 
Q 3119 2431 3119 2041 
L 3119 0 
L 2556 0 
L 2556 2019 
Q 2556 2363 2490 2533 
Q 2425 2703 2258 2804 
Q 2091 2906 1866 2906 
Q 1506 2906 1245 2678 
Q 984 2450 984 1813 
L 984 0 
L 422 0 
z
" transform="scale(0.015625)"/>
       <path id="ArialMT-63" d="M 2588 1216 
L 3141 1144 
Q 3050 572 2676 248 
Q 2303 -75 1759 -75 
Q 1078 -75 664 370 
Q 250 816 250 1647 
Q 250 2184 428 2587 
Q 606 2991 970 3192 
Q 1334 3394 1763 3394 
Q 2303 3394 2647 3120 
Q 2991 2847 3088 2344 
L 2541 2259 
Q 2463 2594 2264 2762 
Q 2066 2931 1784 2931 
Q 1359 2931 1093 2626 
Q 828 2322 828 1663 
Q 828 994 1084 691 
Q 1341 388 1753 388 
Q 2084 388 2306 591 
Q 2528 794 2588 1216 
z
" transform="scale(0.015625)"/>
       <path id="ArialMT-79" d="M 397 -1278 
L 334 -750 
Q 519 -800 656 -800 
Q 844 -800 956 -737 
Q 1069 -675 1141 -563 
Q 1194 -478 1313 -144 
Q 1328 -97 1363 -6 
L 103 3319 
L 709 3319 
L 1400 1397 
Q 1534 1031 1641 628 
Q 1738 1016 1872 1384 
L 2581 3319 
L 3144 3319 
L 1881 -56 
Q 1678 -603 1566 -809 
Q 1416 -1088 1222 -1217 
Q 1028 -1347 759 -1347 
Q 597 -1347 397 -1278 
z
" transform="scale(0.015625)"/>
       <path id="ArialMT-20" transform="scale(0.015625)"/>
       <path id="ArialMT-28" d="M 1497 -1347 
Q 1031 -759 709 28 
Q 388 816 388 1659 
Q 388 2403 628 3084 
Q 909 3875 1497 4659 
L 1900 4659 
Q 1522 4009 1400 3731 
Q 1209 3300 1100 2831 
Q 966 2247 966 1656 
Q 966 153 1900 -1347 
L 1497 -1347 
z
" transform="scale(0.015625)"/>
       <path id="ArialMT-48" d="M 513 0 
L 513 4581 
L 1119 4581 
L 1119 2700 
L 3500 2700 
L 3500 4581 
L 4106 4581 
L 4106 0 
L 3500 0 
L 3500 2159 
L 1119 2159 
L 1119 0 
L 513 0 
z
" transform="scale(0.015625)"/>
       <path id="ArialMT-7a" d="M 125 0 
L 125 456 
L 2238 2881 
Q 1878 2863 1603 2863 
L 250 2863 
L 250 3319 
L 2963 3319 
L 2963 2947 
L 1166 841 
L 819 456 
Q 1197 484 1528 484 
L 3063 484 
L 3063 0 
L 125 0 
z
" transform="scale(0.015625)"/>
       <path id="ArialMT-29" d="M 791 -1347 
L 388 -1347 
Q 1322 153 1322 1656 
Q 1322 2244 1188 2822 
Q 1081 3291 891 3722 
Q 769 4003 388 4659 
L 791 4659 
Q 1378 3875 1659 3084 
Q 1900 2403 1900 1659 
Q 1900 816 1576 28 
Q 1253 -759 791 -1347 
z
" transform="scale(0.015625)"/>
      </defs>
      <use xlink:href="#ArialMT-46"/>
      <use xlink:href="#ArialMT-72" x="61.083984"/>
      <use xlink:href="#ArialMT-65" x="94.384766"/>
      <use xlink:href="#ArialMT-71" x="150"/>
      <use xlink:href="#ArialMT-75" x="205.615234"/>
      <use xlink:href="#ArialMT-65" x="261.230469"/>
      <use xlink:href="#ArialMT-6e" x="316.845703"/>
      <use xlink:href="#ArialMT-63" x="372.460938"/>
      <use xlink:href="#ArialMT-79" x="422.460938"/>
      <use xlink:href="#ArialMT-20" x="472.460938"/>
      <use xlink:href="#ArialMT-28" x="500.244141"/>
      <use xlink:href="#ArialMT-48" x="533.544922"/>
      <use xlink:href="#ArialMT-7a" x="605.761719"/>
      <use xlink:href="#ArialMT-29" x="655.761719"/>
     </g>
    </g>
   </g>
   <g id="matplotlib.axis_2">
    <g id="ytick_1">
     <g id="line2d_8">
      <defs>
       <path id="m999147b714" d="M 0 0 
L -6 0 
" style="stroke: #262626; stroke-width: 1.25"/>
      </defs>
      <g>
       <use xlink:href="#m999147b714" x="54" y="242.116364" style="fill: #262626; stroke: #262626; stroke-width: 1.25"/>
      </g>
     </g>
     <g id="text_9">
      <!-- 0.0 -->
      <g style="fill: #262626" transform="translate(29.21 246.053161)scale(0.11 -0.11)">
       <defs>
        <path id="ArialMT-2e" d="M 581 0 
L 581 641 
L 1222 641 
L 1222 0 
L 581 0 
z
" transform="scale(0.015625)"/>
       </defs>
       <use xlink:href="#ArialMT-30"/>
       <use xlink:href="#ArialMT-2e" x="55.615234"/>
       <use xlink:href="#ArialMT-30" x="83.398438"/>
      </g>
     </g>
    </g>
    <g id="ytick_2">
     <g id="line2d_9">
      <g>
       <use xlink:href="#m999147b714" x="54" y="202.581819" style="fill: #262626; stroke: #262626; stroke-width: 1.25"/>
      </g>
     </g>
     <g id="text_10">
      <!-- 0.2 -->
      <g style="fill: #262626" transform="translate(29.21 206.518615)scale(0.11 -0.11)">
       <use xlink:href="#ArialMT-30"/>
       <use xlink:href="#ArialMT-2e" x="55.615234"/>
       <use xlink:href="#ArialMT-32" x="83.398438"/>
      </g>
     </g>
    </g>
    <g id="ytick_3">
     <g id="line2d_10">
      <g>
       <use xlink:href="#m999147b714" x="54" y="163.047273" style="fill: #262626; stroke: #262626; stroke-width: 1.25"/>
      </g>
     </g>
     <g id="text_11">
      <!-- 0.4 -->
      <g style="fill: #262626" transform="translate(29.21 166.98407)scale(0.11 -0.11)">
       <defs>
        <path id="ArialMT-34" d="M 2069 0 
L 2069 1097 
L 81 1097 
L 81 1613 
L 2172 4581 
L 2631 4581 
L 2631 1613 
L 3250 1613 
L 3250 1097 
L 2631 1097 
L 2631 0 
L 2069 0 
z
M 2069 1613 
L 2069 3678 
L 634 1613 
L 2069 1613 
z
" transform="scale(0.015625)"/>
       </defs>
       <use xlink:href="#ArialMT-30"/>
       <use xlink:href="#ArialMT-2e" x="55.615234"/>
       <use xlink:href="#ArialMT-34" x="83.398438"/>
      </g>
     </g>
    </g>
    <g id="ytick_4">
     <g id="line2d_11">
      <g>
       <use xlink:href="#m999147b714" x="54" y="123.512727" style="fill: #262626; stroke: #262626; stroke-width: 1.25"/>
      </g>
     </g>
     <g id="text_12">
      <!-- 0.6 -->
      <g style="fill: #262626" transform="translate(29.21 127.449524)scale(0.11 -0.11)">
       <defs>
        <path id="ArialMT-36" d="M 3184 3459 
L 2625 3416 
Q 2550 3747 2413 3897 
Q 2184 4138 1850 4138 
Q 1581 4138 1378 3988 
Q 1113 3794 959 3422 
Q 806 3050 800 2363 
Q 1003 2672 1297 2822 
Q 1591 2972 1913 2972 
Q 2475 2972 2870 2558 
Q 3266 2144 3266 1488 
Q 3266 1056 3080 686 
Q 2894 316 2569 119 
Q 2244 -78 1831 -78 
Q 1128 -78 684 439 
Q 241 956 241 2144 
Q 241 3472 731 4075 
Q 1159 4600 1884 4600 
Q 2425 4600 2770 4297 
Q 3116 3994 3184 3459 
z
M 888 1484 
Q 888 1194 1011 928 
Q 1134 663 1356 523 
Q 1578 384 1822 384 
Q 2178 384 2434 671 
Q 2691 959 2691 1453 
Q 2691 1928 2437 2201 
Q 2184 2475 1800 2475 
Q 1419 2475 1153 2201 
Q 888 1928 888 1484 
z
" transform="scale(0.015625)"/>
       </defs>
       <use xlink:href="#ArialMT-30"/>
       <use xlink:href="#ArialMT-2e" x="55.615234"/>
       <use xlink:href="#ArialMT-36" x="83.398438"/>
      </g>
     </g>
    </g>
    <g id="ytick_5">
     <g id="line2d_12">
      <g>
       <use xlink:href="#m999147b714" x="54" y="83.978182" style="fill: #262626; stroke: #262626; stroke-width: 1.25"/>
      </g>
     </g>
     <g id="text_13">
      <!-- 0.8 -->
      <g style="fill: #262626" transform="translate(29.21 87.914979)scale(0.11 -0.11)">
       <defs>
        <path id="ArialMT-38" d="M 1131 2484 
Q 781 2613 612 2850 
Q 444 3088 444 3419 
Q 444 3919 803 4259 
Q 1163 4600 1759 4600 
Q 2359 4600 2725 4251 
Q 3091 3903 3091 3403 
Q 3091 3084 2923 2848 
Q 2756 2613 2416 2484 
Q 2838 2347 3058 2040 
Q 3278 1734 3278 1309 
Q 3278 722 2862 322 
Q 2447 -78 1769 -78 
Q 1091 -78 675 323 
Q 259 725 259 1325 
Q 259 1772 486 2073 
Q 713 2375 1131 2484 
z
M 1019 3438 
Q 1019 3113 1228 2906 
Q 1438 2700 1772 2700 
Q 2097 2700 2305 2904 
Q 2513 3109 2513 3406 
Q 2513 3716 2298 3927 
Q 2084 4138 1766 4138 
Q 1444 4138 1231 3931 
Q 1019 3725 1019 3438 
z
M 838 1322 
Q 838 1081 952 856 
Q 1066 631 1291 507 
Q 1516 384 1775 384 
Q 2178 384 2440 643 
Q 2703 903 2703 1303 
Q 2703 1709 2433 1975 
Q 2163 2241 1756 2241 
Q 1359 2241 1098 1978 
Q 838 1716 838 1322 
z
" transform="scale(0.015625)"/>
       </defs>
       <use xlink:href="#ArialMT-30"/>
       <use xlink:href="#ArialMT-2e" x="55.615234"/>
       <use xlink:href="#ArialMT-38" x="83.398438"/>
      </g>
     </g>
    </g>
    <g id="ytick_6">
     <g id="line2d_13">
      <g>
       <use xlink:href="#m999147b714" x="54" y="44.443636" style="fill: #262626; stroke: #262626; stroke-width: 1.25"/>
      </g>
     </g>
     <g id="text_14">
      <!-- 1.0 -->
      <g style="fill: #262626" transform="translate(29.21 48.380433)scale(0.11 -0.11)">
       <use xlink:href="#ArialMT-31"/>
       <use xlink:href="#ArialMT-2e" x="55.615234"/>
       <use xlink:href="#ArialMT-30" x="83.398438"/>
      </g>
     </g>
    </g>
   </g>
   <g id="line2d_14">
    <path d="M 54 241.923336 
L 89.574016 241.812411 
L 98.46752 241.70066 
L 100.084521 241.916948 
L 100.893021 241.615643 
L 101.701521 240.84634 
L 102.510022 239.176243 
L 103.318522 236.947771 
L 104.935523 233.892118 
L 106.552524 231.132947 
L 107.361024 229.02216 
L 108.169524 233.778147 
L 109.786525 203.928521 
L 110.595025 177.84579 
L 111.403526 111.776612 
L 112.212026 69.497254 
L 113.020526 67.501298 
L 113.829027 104.298249 
L 114.637527 148.953831 
L 115.446028 147.538838 
L 116.254528 172.315896 
L 117.063028 192.940974 
L 117.871529 217.554793 
L 118.680029 228.03525 
L 119.488529 203.080963 
L 120.29703 143.480145 
L 121.10553 98.916017 
L 121.91403 44.443636 
L 122.722531 45.092979 
L 123.531031 67.616968 
L 124.339532 119.162373 
L 125.148032 182.516537 
L 125.956532 200.93337 
L 126.765033 216.177613 
L 127.573533 215.78398 
L 128.382033 187.711739 
L 129.190534 167.276131 
L 129.999034 143.507071 
L 130.807534 132.058214 
L 131.616035 127.817368 
L 132.424535 113.49224 
L 133.233035 140.240569 
L 134.041536 163.040266 
L 134.850036 174.994448 
L 135.658537 178.218469 
L 136.467037 189.75941 
L 137.275537 197.135847 
L 138.084038 186.764817 
L 138.892538 187.163566 
L 140.509539 153.513295 
L 141.318039 126.280492 
L 142.126539 141.175065 
L 143.74354 176.014763 
L 144.552041 200.084115 
L 145.360541 204.145181 
L 146.169041 212.06966 
L 146.977542 212.787945 
L 147.786042 209.700171 
L 149.403043 197.780469 
L 150.211543 201.062365 
L 151.020043 213.142559 
L 151.828544 207.945869 
L 152.637044 216.273247 
L 153.445545 219.442982 
L 154.254045 228.004062 
L 155.062545 232.812005 
L 155.871046 234.702426 
L 156.679546 236.939994 
L 157.488046 234.432727 
L 158.296547 234.037451 
L 159.105047 234.147707 
L 159.913547 232.700551 
L 161.530548 238.744444 
L 162.339049 238.957297 
L 163.147549 237.643905 
L 163.956049 238.392522 
L 164.76455 239.466303 
L 165.57305 240.024744 
L 167.190051 240.083188 
L 167.998551 239.636232 
L 168.807051 239.368812 
L 169.615552 236.867711 
L 170.424052 236.435653 
L 171.232553 237.961942 
L 172.041053 239.752274 
L 172.849553 240.318349 
L 173.658054 241.122486 
L 175.275054 241.211366 
L 176.892055 241.452384 
L 177.700555 241.206138 
L 179.317556 240.949773 
L 180.126057 241.498686 
L 180.934557 241.471115 
L 181.743057 240.818462 
L 182.551558 241.836572 
L 183.360058 241.875232 
L 184.168558 242.107176 
L 185.785559 241.760942 
L 186.594059 241.506391 
L 187.40256 241.889102 
L 188.21106 241.466808 
L 189.01956 241.777922 
L 189.828061 241.450218 
L 190.636561 241.567145 
L 191.445062 241.400843 
L 193.062062 241.797996 
L 193.870563 241.493322 
L 194.679063 241.97007 
L 195.487563 242.10201 
L 197.104564 241.914064 
L 200.338566 241.133114 
L 201.147066 241.588799 
L 201.955566 240.972948 
L 202.764067 240.702184 
L 203.572567 240.560253 
L 204.381067 240.891308 
L 205.189568 240.747695 
L 205.998068 240.232021 
L 206.806568 240.583046 
L 207.615069 240.466425 
L 208.423569 241.108154 
L 209.23207 240.54138 
L 210.04057 240.661105 
L 210.84907 240.632843 
L 211.657571 241.060737 
L 212.466071 240.738504 
L 214.083072 241.421559 
L 214.891572 241.112111 
L 215.700072 241.118002 
L 216.508573 240.899041 
L 217.317073 241.035595 
L 218.125574 240.570066 
L 219.742574 241.202219 
L 220.551075 240.989448 
L 221.359575 241.248175 
L 222.168075 241.220886 
L 222.976576 241.018762 
L 223.785076 240.956909 
L 224.593576 239.856583 
L 225.402077 240.427797 
L 226.210577 240.608877 
L 227.019078 241.162661 
L 228.636078 241.504626 
L 229.444579 241.865258 
L 230.253079 241.978127 
L 231.87008 241.078187 
L 232.67858 241.280093 
L 233.48708 241.128454 
L 234.295581 241.123573 
L 236.721082 241.495038 
L 237.529582 241.845826 
L 238.338083 241.617751 
L 239.146583 241.568062 
L 240.763584 241.251057 
L 242.380584 241.549572 
L 243.189085 241.85911 
L 245.614586 241.888127 
L 247.231587 242.003395 
L 249.657088 241.959053 
L 250.465588 241.756971 
L 251.274088 241.745311 
L 252.082589 242.057588 
L 254.50809 242.025955 
L 255.31659 241.847847 
L 256.933591 242.075351 
L 260.976093 241.588685 
L 261.784593 241.92393 
L 263.401594 241.990733 
L 265.018595 241.98085 
L 266.635595 242.094333 
L 268.252596 241.992532 
L 269.061096 242.094654 
L 273.103598 241.962755 
L 273.912099 242.075354 
L 287.656605 242.038639 
L 289.273605 242.115596 
L 290.890606 241.961084 
L 291.699106 242.102611 
L 379.017146 242.116228 
L 389.52765 242.115976 
L 389.52765 242.115976 
" clip-path="url(#p5d586a2112)" style="fill: none; stroke: #4c72b0; stroke-opacity: 0.3; stroke-width: 1.5; stroke-linecap: round"/>
   </g>
   <g id="line2d_15">
    <path d="M 54 242.071923 
L 76.63801 241.969546 
L 84.723014 241.751195 
L 88.765516 241.419779 
L 91.999517 241.02539 
L 95.233518 239.623326 
L 96.042019 239.853181 
L 96.850519 239.353399 
L 97.65902 238.594663 
L 98.46752 237.486932 
L 100.084521 237.095173 
L 100.893021 238.757069 
L 101.701521 237.865375 
L 102.510022 234.01557 
L 103.318522 233.240818 
L 104.127022 227.17656 
L 104.935523 236.42982 
L 105.744023 227.336086 
L 106.552524 190.503589 
L 107.361024 172.168809 
L 108.978025 44.443636 
L 109.786525 74.239625 
L 110.595025 131.66059 
L 111.403526 155.260919 
L 113.020526 236.145936 
L 113.829027 219.875215 
L 114.637527 206.473829 
L 115.446028 161.902428 
L 116.254528 171.231045 
L 117.063028 190.71204 
L 117.871529 171.759978 
L 118.680029 131.624866 
L 119.488529 141.906073 
L 120.29703 114.812213 
L 121.10553 157.83459 
L 121.91403 184.42349 
L 122.722531 220.604812 
L 123.531031 192.047307 
L 124.339532 207.846859 
L 125.148032 195.916747 
L 125.956532 170.988458 
L 126.765033 142.618353 
L 127.573533 157.429893 
L 128.382033 164.226265 
L 129.190534 153.071595 
L 129.999034 208.035563 
L 130.807534 173.321894 
L 131.616035 187.955467 
L 132.424535 214.908625 
L 133.233035 209.470036 
L 134.041536 220.326198 
L 134.850036 221.915889 
L 135.658537 198.55003 
L 136.467037 181.042198 
L 137.275537 184.833163 
L 138.084038 198.178432 
L 138.892538 193.767455 
L 139.701038 185.059633 
L 140.509539 144.624641 
L 142.126539 219.297494 
L 142.93504 219.244741 
L 143.74354 210.207939 
L 144.552041 212.643191 
L 145.360541 213.576419 
L 146.169041 225.138042 
L 146.977542 217.158361 
L 147.786042 211.982248 
L 148.594542 212.426836 
L 149.403043 218.121353 
L 150.211543 210.843441 
L 151.020043 210.372236 
L 151.828544 203.213012 
L 152.637044 234.08328 
L 153.445545 234.85906 
L 154.254045 223.832154 
L 155.062545 220.823458 
L 155.871046 225.41037 
L 156.679546 223.707153 
L 157.488046 208.784626 
L 158.296547 200.847794 
L 159.105047 182.074109 
L 159.913547 214.973738 
L 160.722048 217.858688 
L 161.530548 214.770255 
L 162.339049 216.702444 
L 163.147549 222.333522 
L 163.956049 231.446201 
L 164.76455 231.797448 
L 165.57305 227.214861 
L 166.38155 221.383001 
L 167.190051 223.850771 
L 167.998551 218.277616 
L 168.807051 217.478814 
L 170.424052 232.581472 
L 171.232553 223.158516 
L 172.041053 232.853681 
L 172.849553 237.622125 
L 173.658054 233.360889 
L 174.466554 236.861201 
L 175.275054 234.810042 
L 176.083555 235.499459 
L 176.892055 230.093394 
L 177.700555 223.134846 
L 178.509056 221.629364 
L 179.317556 226.588306 
L 180.126057 227.895374 
L 180.934557 235.86444 
L 181.743057 239.266798 
L 182.551558 232.05191 
L 183.360058 232.494573 
L 184.168558 235.756302 
L 184.977059 238.372457 
L 186.594059 235.625356 
L 187.40256 232.672632 
L 188.21106 235.733365 
L 189.01956 234.591426 
L 189.828061 232.388674 
L 190.636561 227.226326 
L 191.445062 233.858818 
L 192.253562 235.773773 
L 193.062062 232.763944 
L 193.870563 230.681857 
L 194.679063 232.21972 
L 195.487563 231.730949 
L 196.296064 236.661488 
L 197.104564 237.458756 
L 197.913064 236.511463 
L 198.721565 233.50977 
L 199.530065 235.123511 
L 200.338566 241.48263 
L 201.147066 240.184477 
L 201.955566 240.616232 
L 202.764067 242.034337 
L 203.572567 241.206724 
L 204.381067 242.106701 
L 205.189568 241.839278 
L 205.998068 239.706471 
L 206.806568 239.313239 
L 207.615069 239.39983 
L 208.423569 240.225715 
L 209.23207 239.158027 
L 210.04057 240.574596 
L 210.84907 239.50863 
L 211.657571 237.932869 
L 212.466071 241.292922 
L 214.083072 239.436445 
L 214.891572 240.652009 
L 215.700072 240.739995 
L 216.508573 240.462593 
L 217.317073 241.685383 
L 218.125574 239.590155 
L 218.934074 239.984712 
L 219.742574 241.531786 
L 220.551075 240.643228 
L 221.359575 241.545396 
L 222.168075 241.792973 
L 223.785076 241.914769 
L 224.593576 239.649259 
L 225.402077 240.969653 
L 226.210577 241.110971 
L 227.019078 240.850701 
L 227.827578 241.393733 
L 228.636078 241.58066 
L 229.444579 241.531336 
L 230.253079 240.949558 
L 231.061579 237.244446 
L 231.87008 242.087104 
L 232.67858 241.166919 
L 233.48708 240.8117 
L 234.295581 241.654857 
L 235.104081 242.050058 
L 235.912582 241.724975 
L 236.721082 241.751222 
L 237.529582 241.477426 
L 238.338083 239.828745 
L 239.146583 240.794922 
L 239.955083 240.123153 
L 240.763584 239.133473 
L 241.572084 238.400712 
L 242.380584 240.033049 
L 243.189085 240.629056 
L 243.997585 239.526172 
L 244.806085 241.350149 
L 245.614586 241.995196 
L 246.423086 239.861772 
L 247.231587 241.850783 
L 248.040087 241.3945 
L 248.848587 241.484469 
L 249.657088 240.263019 
L 250.465588 240.370266 
L 251.274088 239.713444 
L 252.082589 239.59928 
L 252.891089 240.367583 
L 253.699589 240.404998 
L 254.50809 239.652351 
L 255.31659 241.249535 
L 256.125091 241.997906 
L 256.933591 241.41171 
L 257.742091 241.4921 
L 258.550592 240.5422 
L 259.359092 241.827944 
L 260.167592 241.927969 
L 260.976093 240.739822 
L 261.784593 240.803151 
L 262.593093 241.125838 
L 263.401594 240.299333 
L 264.210094 241.994131 
L 265.018595 241.279598 
L 265.827095 242.037489 
L 266.635595 241.297414 
L 267.444096 242.008837 
L 268.252596 241.5582 
L 269.061096 242.066497 
L 269.869597 241.88158 
L 270.678097 241.127111 
L 271.486597 240.603371 
L 272.295098 241.655766 
L 273.103598 241.635819 
L 273.912099 240.336228 
L 275.529099 240.902885 
L 276.3376 240.891086 
L 277.1461 241.858746 
L 277.9546 241.951693 
L 278.763101 241.116747 
L 279.571601 241.789134 
L 280.380101 242.077224 
L 281.188602 241.941051 
L 282.805603 242.061295 
L 283.614103 241.077198 
L 284.422603 241.810352 
L 285.231104 242.106309 
L 286.039604 241.982984 
L 288.465105 242.107131 
L 290.082106 241.725722 
L 290.890606 241.665178 
L 291.699106 240.813656 
L 292.507607 241.498074 
L 293.316107 241.997216 
L 294.933108 241.965973 
L 296.550109 242.028209 
L 297.358609 241.987738 
L 298.167109 241.47718 
L 298.97561 241.301667 
L 299.78411 241.787473 
L 300.59261 241.682259 
L 301.401111 241.715058 
L 302.209611 241.879992 
L 303.018112 241.892311 
L 303.826612 241.382617 
L 304.635112 242.066673 
L 305.443613 241.985529 
L 306.252113 241.528004 
L 307.869114 242.115544 
L 310.294615 241.747491 
L 312.720116 242.10965 
L 314.337117 242.0443 
L 316.762618 242.069292 
L 317.571118 241.903946 
L 318.379618 242.048181 
L 320.80512 241.192417 
L 321.61362 241.63466 
L 322.42212 241.672942 
L 323.230621 241.920359 
L 324.039121 241.859366 
L 324.847621 242.037881 
L 328.890123 242.087125 
L 334.549626 242.116244 
L 335.358126 242.109873 
L 336.975127 241.921564 
L 337.783627 242.070167 
L 341.017629 242.114635 
L 344.25163 242.01593 
L 346.677131 242.115424 
L 356.379135 242.109823 
L 369.315141 242.114127 
L 375.783144 242.115785 
L 389.52765 242.114704 
L 389.52765 242.114704 
" clip-path="url(#p5d586a2112)" style="fill: none; stroke: #dd8452; stroke-opacity: 0.3; stroke-width: 1.5; stroke-linecap: round"/>
   </g>
   <g id="line2d_16">
    <path d="M 54 241.520498 
L 92.808017 241.511274 
L 93.616518 241.266354 
L 96.042019 241.265851 
L 96.850519 241.755706 
L 98.46752 241.537371 
L 99.27602 241.042957 
L 100.084521 240.21018 
L 100.893021 241.705017 
L 101.701521 241.417287 
L 102.510022 241.367279 
L 103.318522 241.880705 
L 104.127022 241.984104 
L 104.935523 232.608972 
L 105.744023 233.754437 
L 106.552524 193.311993 
L 107.361024 232.883217 
L 108.169524 208.313199 
L 108.978025 219.277508 
L 109.786525 187.626866 
L 110.595025 220.406484 
L 111.403526 184.085412 
L 112.212026 119.376729 
L 113.020526 220.446819 
L 113.829027 235.279456 
L 114.637527 232.605544 
L 115.446028 241.043198 
L 116.254528 217.063015 
L 117.063028 222.877401 
L 117.871529 221.906933 
L 118.680029 213.895206 
L 119.488529 181.595313 
L 120.29703 240.805858 
L 121.10553 203.40797 
L 121.91403 222.755706 
L 122.722531 236.068821 
L 123.531031 104.327318 
L 124.339532 184.107886 
L 125.148032 192.355677 
L 125.956532 176.577941 
L 126.765033 206.492164 
L 127.573533 202.033847 
L 128.382033 192.865194 
L 129.190534 128.632024 
L 129.999034 194.673316 
L 130.807534 117.3701 
L 131.616035 220.617511 
L 132.424535 193.927101 
L 133.233035 148.731531 
L 134.041536 113.706573 
L 134.850036 208.902636 
L 135.658537 235.302992 
L 136.467037 161.956179 
L 137.275537 180.554295 
L 138.084038 238.484488 
L 138.892538 163.923879 
L 139.701038 169.842244 
L 140.509539 44.443636 
L 141.318039 175.198976 
L 142.126539 186.177594 
L 142.93504 209.85611 
L 143.74354 210.388141 
L 144.552041 145.110255 
L 145.360541 158.508916 
L 146.169041 216.304786 
L 146.977542 225.510972 
L 147.786042 211.692393 
L 148.594542 241.167166 
L 149.403043 213.87363 
L 150.211543 237.192577 
L 151.020043 199.194345 
L 151.828544 201.213911 
L 152.637044 219.291862 
L 154.254045 104.332072 
L 155.062545 137.652158 
L 155.871046 187.719847 
L 156.679546 58.555972 
L 157.488046 115.88184 
L 158.296547 114.065279 
L 159.105047 96.073474 
L 159.913547 197.744582 
L 160.722048 111.409275 
L 161.530548 83.736014 
L 162.339049 105.025604 
L 163.147549 189.310496 
L 163.956049 204.053111 
L 164.76455 145.999338 
L 165.57305 149.802004 
L 166.38155 182.526278 
L 167.190051 192.428552 
L 167.998551 165.863959 
L 168.807051 151.312445 
L 169.615552 180.575852 
L 170.424052 216.438441 
L 171.232553 196.351788 
L 172.041053 206.344223 
L 173.658054 142.431715 
L 174.466554 225.683806 
L 175.275054 231.929487 
L 176.083555 197.044703 
L 177.700555 164.483722 
L 178.509056 228.053482 
L 179.317556 220.951946 
L 180.126057 212.624444 
L 180.934557 207.8831 
L 181.743057 216.444527 
L 182.551558 137.630655 
L 183.360058 188.277874 
L 184.168558 168.098182 
L 184.977059 185.901061 
L 185.785559 181.015629 
L 186.594059 198.873794 
L 187.40256 200.428485 
L 188.21106 213.094076 
L 189.01956 210.980132 
L 189.828061 203.850997 
L 190.636561 214.268043 
L 191.445062 220.269838 
L 192.253562 171.847134 
L 193.062062 114.943619 
L 193.870563 84.837637 
L 194.679063 119.082752 
L 195.487563 130.383561 
L 196.296064 193.996292 
L 197.104564 222.203941 
L 197.913064 176.306781 
L 198.721565 176.279116 
L 199.530065 228.799779 
L 200.338566 213.659599 
L 201.147066 172.372375 
L 201.955566 191.28544 
L 202.764067 228.268494 
L 203.572567 202.923464 
L 204.381067 194.840267 
L 205.189568 197.505219 
L 205.998068 189.228556 
L 206.806568 215.255605 
L 207.615069 202.516177 
L 208.423569 225.553952 
L 209.23207 197.831523 
L 210.04057 230.446448 
L 210.84907 235.489966 
L 211.657571 238.188225 
L 212.466071 228.685545 
L 213.274571 221.877104 
L 214.083072 240.424359 
L 214.891572 241.88991 
L 215.700072 241.527335 
L 216.508573 235.52507 
L 217.317073 232.504375 
L 218.125574 228.885887 
L 218.934074 229.730486 
L 219.742574 241.730528 
L 220.551075 231.78125 
L 221.359575 237.313201 
L 222.168075 240.295624 
L 222.976576 237.143466 
L 223.785076 240.007828 
L 224.593576 174.140057 
L 225.402077 221.357525 
L 226.210577 221.199761 
L 227.019078 235.140009 
L 227.827578 236.378738 
L 228.636078 236.505712 
L 229.444579 239.315098 
L 230.253079 212.412421 
L 231.061579 169.149073 
L 231.87008 232.084659 
L 232.67858 219.120294 
L 233.48708 210.819036 
L 234.295581 226.611405 
L 235.104081 237.300915 
L 235.912582 240.699352 
L 236.721082 235.900631 
L 237.529582 242.002489 
L 238.338083 236.749554 
L 239.146583 235.156829 
L 240.763584 218.566852 
L 241.572084 227.812172 
L 242.380584 240.604737 
L 243.189085 233.375182 
L 243.997585 237.794806 
L 244.806085 224.970231 
L 245.614586 231.001695 
L 246.423086 231.222793 
L 247.231587 240.140278 
L 248.040087 205.510256 
L 248.848587 236.284177 
L 249.657088 238.340993 
L 250.465588 229.09018 
L 251.274088 240.462323 
L 252.082589 235.314308 
L 252.891089 240.903902 
L 253.699589 238.389643 
L 254.50809 227.016465 
L 255.31659 238.976359 
L 256.125091 241.387415 
L 256.933591 233.536513 
L 257.742091 235.933661 
L 258.550592 240.376195 
L 259.359092 238.267652 
L 260.167592 238.249638 
L 260.976093 228.629416 
L 261.784593 237.882313 
L 262.593093 241.610441 
L 263.401594 238.284319 
L 264.210094 239.286765 
L 265.018595 233.673822 
L 265.827095 239.356583 
L 266.635595 241.981255 
L 267.444096 236.922109 
L 268.252596 236.624204 
L 269.061096 239.3358 
L 269.869597 238.466357 
L 271.486597 229.779086 
L 272.295098 229.343146 
L 273.103598 234.680639 
L 273.912099 237.45796 
L 274.720599 238.796887 
L 275.529099 239.270831 
L 277.1461 241.271864 
L 277.9546 241.042282 
L 278.763101 241.278525 
L 279.571601 240.328227 
L 280.380101 232.234043 
L 281.188602 237.482418 
L 281.997102 235.247636 
L 282.805603 237.772261 
L 283.614103 229.761083 
L 284.422603 233.745709 
L 285.231104 232.37894 
L 286.039604 241.05295 
L 286.848104 238.499339 
L 287.656605 237.357705 
L 288.465105 238.64412 
L 289.273605 241.57744 
L 290.082106 241.272636 
L 290.890606 230.48165 
L 291.699106 240.224672 
L 292.507607 240.657476 
L 293.316107 240.336116 
L 294.124608 241.916719 
L 294.933108 240.916185 
L 295.741608 240.668107 
L 296.550109 240.64978 
L 297.358609 234.680283 
L 298.167109 240.430449 
L 298.97561 238.235371 
L 299.78411 240.120972 
L 300.59261 240.776133 
L 301.401111 237.04737 
L 302.209611 239.727809 
L 303.018112 238.638235 
L 303.826612 238.817559 
L 304.635112 241.189376 
L 305.443613 241.590543 
L 306.252113 240.206175 
L 307.060613 242.056915 
L 307.869114 240.095061 
L 308.677614 239.892182 
L 309.486114 240.139075 
L 310.294615 239.664116 
L 311.103115 241.770251 
L 311.911616 238.026038 
L 312.720116 241.705133 
L 313.528616 241.986622 
L 314.337117 240.489673 
L 315.145617 239.94319 
L 315.954117 241.84791 
L 316.762618 240.0083 
L 317.571118 240.301031 
L 318.379618 240.27012 
L 319.188119 239.963955 
L 319.996619 240.403713 
L 320.80512 234.172052 
L 321.61362 240.635947 
L 322.42212 240.300773 
L 323.230621 241.978073 
L 324.039121 237.41942 
L 324.847621 241.969628 
L 326.464622 240.386616 
L 327.273122 240.470609 
L 328.081623 240.996488 
L 328.890123 241.846553 
L 329.698624 241.510675 
L 330.507124 240.591771 
L 331.315624 241.786904 
L 332.124125 242.107585 
L 332.932625 241.213902 
L 333.741125 241.779969 
L 334.549626 241.915882 
L 336.166626 240.586824 
L 336.975127 238.966799 
L 337.783627 241.722048 
L 338.592128 241.705247 
L 339.400628 241.886186 
L 341.017629 241.827702 
L 341.826129 241.689243 
L 342.634629 241.991602 
L 344.25163 241.299895 
L 345.06013 241.809581 
L 345.868631 240.990136 
L 346.677131 242.110762 
L 347.485631 241.950737 
L 349.911133 242.011156 
L 351.528133 242.098155 
L 354.762135 242.081131 
L 355.570635 241.852595 
L 356.379135 242.099713 
L 360.421637 242.005025 
L 362.038638 242.106517 
L 362.847138 241.995946 
L 366.08114 242.073715 
L 366.88964 242.005592 
L 369.315141 242.10654 
L 370.123642 242.014271 
L 370.932142 242.086748 
L 371.740642 242.01292 
L 373.357643 242.112903 
L 384.676648 242.088022 
L 388.71915 242.116112 
L 389.52765 242.111624 
L 389.52765 242.111624 
" clip-path="url(#p5d586a2112)" style="fill: none; stroke: #55a868; stroke-opacity: 0.3; stroke-width: 1.5; stroke-linecap: round"/>
   </g>
   <g id="line2d_17">
    <path d="M 54 241.738654 
L 79.872012 241.630714 
L 96.042019 241.425489 
L 97.65902 241.216763 
L 98.46752 241.23056 
L 99.27602 241.538811 
L 100.084521 241.631001 
L 100.893021 241.575684 
L 101.701521 241.093759 
L 104.935523 232.844045 
L 105.744023 230.211388 
L 106.552524 226.296066 
L 107.361024 227.703034 
L 108.169524 234.538209 
L 108.978025 220.66309 
L 109.786525 203.987543 
L 110.595025 178.666772 
L 111.403526 114.94988 
L 112.212026 77.051014 
L 113.020526 66.334849 
L 113.829027 69.324677 
L 114.637527 120.637269 
L 115.446028 128.704186 
L 117.063028 175.066892 
L 117.871529 205.892238 
L 118.680029 221.101128 
L 119.488529 201.325251 
L 120.29703 155.993612 
L 121.10553 95.032885 
L 121.91403 46.068179 
L 122.722531 44.700705 
L 123.531031 44.443636 
L 125.148032 172.017162 
L 125.956532 193.679531 
L 126.765033 209.06068 
L 127.573533 208.896213 
L 128.382033 173.401982 
L 129.190534 160.487655 
L 129.999034 123.399606 
L 130.807534 127.710376 
L 131.616035 105.367582 
L 132.424535 104.890618 
L 133.233035 124.854862 
L 134.041536 132.749949 
L 134.850036 148.400285 
L 135.658537 159.172183 
L 136.467037 177.106195 
L 137.275537 183.148495 
L 138.084038 178.629926 
L 138.892538 165.06058 
L 139.701038 158.068886 
L 140.509539 144.434232 
L 141.318039 120.340669 
L 142.126539 142.634483 
L 143.74354 173.203081 
L 144.552041 196.271866 
L 145.360541 194.533505 
L 146.169041 206.223185 
L 146.977542 212.4445 
L 147.786042 210.345643 
L 148.594542 203.44679 
L 149.403043 198.632067 
L 150.211543 198.329754 
L 151.020043 207.977356 
L 151.828544 203.537227 
L 153.445545 217.49332 
L 154.254045 223.932172 
L 155.062545 231.538913 
L 155.871046 232.165174 
L 156.679546 232.601268 
L 157.488046 231.60637 
L 158.296547 228.307329 
L 159.105047 227.022911 
L 159.913547 229.590806 
L 160.722048 229.554701 
L 161.530548 234.845459 
L 162.339049 238.294396 
L 163.147549 237.362684 
L 163.956049 237.699594 
L 164.76455 240.078898 
L 165.57305 239.115453 
L 166.38155 239.334387 
L 167.190051 240.405115 
L 167.998551 239.665033 
L 168.807051 238.714928 
L 169.615552 238.648021 
L 171.232553 238.768224 
L 172.041053 240.469968 
L 173.658054 241.680255 
L 175.275054 241.476481 
L 176.892055 241.523656 
L 177.700555 241.218757 
L 178.509056 241.707124 
L 179.317556 241.423302 
L 180.934557 241.965612 
L 182.551558 242.094075 
L 183.360058 241.508605 
L 184.168558 242.026034 
L 184.977059 241.938028 
L 185.785559 242.008208 
L 186.594059 241.801724 
L 188.21106 242.018339 
L 192.253562 241.937922 
L 193.062062 241.8522 
L 194.679063 242.038196 
L 195.487563 241.633696 
L 196.296064 241.735102 
L 197.104564 241.439384 
L 197.913064 241.597011 
L 198.721565 240.841401 
L 200.338566 240.958258 
L 201.147066 240.451166 
L 201.955566 240.149514 
L 202.764067 239.064984 
L 203.572567 238.393666 
L 204.381067 239.482468 
L 205.189568 240.347148 
L 205.998068 239.537971 
L 206.806568 239.688526 
L 207.615069 239.472037 
L 209.23207 241.050376 
L 210.04057 240.45815 
L 210.84907 240.344347 
L 211.657571 240.665299 
L 213.274571 240.551571 
L 214.083072 240.026739 
L 214.891572 239.787312 
L 215.700072 240.079336 
L 216.508573 240.208854 
L 217.317073 239.205525 
L 218.125574 239.407221 
L 218.934074 238.477033 
L 220.551075 240.005115 
L 221.359575 239.681175 
L 222.168075 239.654427 
L 222.976576 238.794219 
L 223.785076 238.211467 
L 224.593576 238.755139 
L 225.402077 239.021533 
L 226.210577 239.678591 
L 227.019078 240.485372 
L 227.827578 240.117914 
L 228.636078 240.102803 
L 229.444579 240.978486 
L 230.253079 241.470746 
L 231.061579 240.778258 
L 231.87008 240.461568 
L 232.67858 239.99692 
L 233.48708 240.483463 
L 235.104081 240.069693 
L 235.912582 240.480936 
L 237.529582 240.756875 
L 238.338083 240.930109 
L 241.572084 240.058576 
L 242.380584 240.590756 
L 243.189085 240.868161 
L 243.997585 240.857459 
L 244.806085 241.240603 
L 246.423086 240.538139 
L 247.231587 241.39502 
L 248.040087 241.771056 
L 249.657088 241.875913 
L 250.465588 241.558074 
L 252.891089 241.809518 
L 253.699589 241.484236 
L 255.31659 241.257514 
L 256.125091 241.683961 
L 256.933591 241.88681 
L 260.167592 241.789385 
L 260.976093 241.962789 
L 263.401594 241.71198 
L 264.210094 241.941113 
L 265.018595 241.807033 
L 267.444096 242.108597 
L 269.869597 242.039076 
L 270.678097 241.900609 
L 271.486597 242.005974 
L 273.103598 242.013856 
L 273.912099 242.073623 
L 275.529099 241.950152 
L 276.3376 241.979959 
L 277.1461 241.898437 
L 277.9546 242.038077 
L 278.763101 242.042084 
L 279.571601 241.917429 
L 284.422603 242.102626 
L 285.231104 241.953362 
L 286.848104 242.041448 
L 287.656605 241.934802 
L 289.273605 242.069144 
L 290.890606 242.041969 
L 292.507607 242.076556 
L 295.741608 242.020151 
L 297.358609 242.056736 
L 303.018112 242.042167 
L 304.635112 242.108118 
L 313.528616 242.017357 
L 315.954117 242.071584 
L 322.42212 242.0703 
L 323.230621 242.0108 
L 324.039121 242.098086 
L 327.273122 242.046769 
L 329.698624 242.090233 
L 332.932625 242.106889 
L 383.059647 242.116159 
L 389.52765 242.11597 
L 389.52765 242.11597 
" clip-path="url(#p5d586a2112)" style="fill: none; stroke: #c44e52; stroke-opacity: 0.3; stroke-width: 1.5; stroke-linecap: round"/>
   </g>
   <g id="line2d_18">
    <path d="M 54 241.864466 
L 71.787008 241.751086 
L 80.680512 241.513561 
L 86.340014 241.14572 
L 90.382516 240.574336 
L 91.999517 240.291541 
L 92.808017 239.900121 
L 93.616518 239.296231 
L 95.233518 238.513004 
L 96.042019 238.463561 
L 96.850519 238.220712 
L 98.46752 236.069016 
L 99.27602 235.504451 
L 100.084521 234.660895 
L 100.893021 235.463181 
L 101.701521 235.536682 
L 102.510022 231.015185 
L 103.318522 231.705545 
L 104.127022 228.826176 
L 104.935523 235.727161 
L 105.744023 231.114399 
L 106.552524 206.304088 
L 107.361024 176.039968 
L 108.978025 44.443636 
L 109.786525 56.387241 
L 110.595025 74.811566 
L 111.403526 104.942434 
L 112.212026 151.093242 
L 113.020526 212.792552 
L 113.829027 207.639854 
L 114.637527 209.752308 
L 115.446028 140.153178 
L 116.254528 119.259476 
L 117.063028 150.232033 
L 117.871529 150.43122 
L 118.680029 86.870706 
L 119.488529 82.583229 
L 120.29703 107.802497 
L 121.10553 78.899872 
L 121.91403 120.781329 
L 122.722531 188.938026 
L 123.531031 180.594147 
L 124.339532 211.679533 
L 125.148032 223.891501 
L 125.956532 202.939098 
L 126.765033 192.672893 
L 127.573533 142.95981 
L 128.382033 110.677768 
L 129.190534 113.151249 
L 129.999034 137.975012 
L 130.807534 137.645732 
L 131.616035 158.898639 
L 132.424535 176.203041 
L 133.233035 183.801473 
L 134.850036 211.466914 
L 135.658537 216.962599 
L 136.467037 209.928476 
L 137.275537 191.923978 
L 138.084038 195.577914 
L 138.892538 166.718904 
L 139.701038 176.786651 
L 140.509539 165.445445 
L 141.318039 177.091599 
L 142.126539 196.035381 
L 142.93504 219.202419 
L 143.74354 231.159835 
L 144.552041 236.280271 
L 145.360541 235.929062 
L 146.169041 230.12023 
L 146.977542 237.031513 
L 147.786042 235.990274 
L 148.594542 231.369511 
L 149.403043 217.384289 
L 150.211543 222.969244 
L 151.020043 231.271408 
L 151.828544 224.387857 
L 152.637044 222.960554 
L 153.445545 234.998279 
L 154.254045 233.670069 
L 155.871046 239.952491 
L 156.679546 240.654545 
L 157.488046 241.142827 
L 158.296547 238.990279 
L 159.105047 234.531919 
L 159.913547 240.154201 
L 160.722048 231.320062 
L 161.530548 236.844461 
L 162.339049 238.960059 
L 163.147549 237.004169 
L 163.956049 236.019709 
L 164.76455 239.596554 
L 166.38155 240.722756 
L 167.190051 237.211396 
L 167.998551 239.364962 
L 168.807051 237.695147 
L 169.615552 240.620084 
L 170.424052 231.018101 
L 171.232553 235.980471 
L 172.041053 235.512906 
L 172.849553 235.581751 
L 173.658054 241.154739 
L 174.466554 241.373599 
L 175.275054 241.932839 
L 176.083555 241.872708 
L 176.892055 241.438548 
L 177.700555 240.201746 
L 178.509056 241.5998 
L 179.317556 238.32144 
L 180.126057 238.164628 
L 180.934557 240.301868 
L 182.551558 232.684179 
L 183.360058 237.684971 
L 184.168558 236.20206 
L 184.977059 236.546286 
L 185.785559 235.770757 
L 186.594059 239.320099 
L 187.40256 240.9445 
L 188.21106 240.205447 
L 189.01956 237.000629 
L 189.828061 234.775841 
L 190.636561 230.259153 
L 191.445062 235.974697 
L 192.253562 233.354236 
L 193.062062 227.532633 
L 193.870563 230.265107 
L 194.679063 234.061898 
L 195.487563 226.888511 
L 196.296064 236.600393 
L 197.104564 235.394479 
L 197.913064 231.144946 
L 198.721565 238.330002 
L 199.530065 235.729149 
L 200.338566 229.18166 
L 201.147066 230.949115 
L 201.955566 233.689215 
L 203.572567 235.275255 
L 204.381067 234.489781 
L 205.189568 229.436879 
L 205.998068 230.215343 
L 206.806568 233.205228 
L 207.615069 235.276216 
L 208.423569 236.555385 
L 209.23207 230.542913 
L 210.04057 232.546873 
L 210.84907 232.309423 
L 211.657571 228.198621 
L 212.466071 227.919501 
L 213.274571 226.139711 
L 214.083072 228.371134 
L 214.891572 228.567072 
L 215.700072 228.948876 
L 216.508573 229.031843 
L 217.317073 233.951481 
L 218.125574 235.588519 
L 218.934074 236.56543 
L 219.742574 234.072924 
L 220.551075 230.777799 
L 221.359575 225.587576 
L 222.168075 228.634074 
L 222.976576 224.669493 
L 223.785076 232.934195 
L 224.593576 234.710211 
L 225.402077 232.587738 
L 226.210577 235.203824 
L 227.019078 236.478984 
L 227.827578 235.444974 
L 228.636078 236.432519 
L 229.444579 235.959713 
L 230.253079 232.616567 
L 231.061579 233.228039 
L 231.87008 236.449467 
L 232.67858 237.713003 
L 233.48708 236.962111 
L 234.295581 237.268458 
L 235.104081 237.921424 
L 235.912582 236.880428 
L 236.721082 238.603878 
L 237.529582 237.775822 
L 238.338083 239.29198 
L 239.146583 238.013766 
L 239.955083 239.662644 
L 240.763584 239.573064 
L 241.572084 237.071924 
L 242.380584 237.59484 
L 243.189085 234.947158 
L 243.997585 230.371372 
L 244.806085 237.714462 
L 245.614586 234.706398 
L 246.423086 235.209631 
L 247.231587 239.24671 
L 248.040087 240.099682 
L 248.848587 234.496143 
L 249.657088 236.391761 
L 250.465588 239.530168 
L 251.274088 240.532682 
L 252.891089 237.274114 
L 253.699589 235.00858 
L 254.50809 238.524914 
L 255.31659 241.119142 
L 256.125091 238.055761 
L 256.933591 240.036137 
L 257.742091 239.662741 
L 258.550592 240.239066 
L 259.359092 239.608382 
L 260.167592 239.605118 
L 260.976093 239.107007 
L 261.784593 239.51489 
L 262.593093 238.768477 
L 263.401594 239.76731 
L 264.210094 238.396423 
L 265.018595 239.820002 
L 265.827095 240.028404 
L 266.635595 239.674952 
L 267.444096 239.909488 
L 268.252596 240.500325 
L 269.061096 240.139057 
L 269.869597 240.189096 
L 270.678097 240.572363 
L 271.486597 240.245055 
L 272.295098 240.051749 
L 273.103598 240.95992 
L 273.912099 238.571633 
L 274.720599 241.453817 
L 275.529099 241.448839 
L 276.3376 240.721538 
L 277.1461 241.912406 
L 277.9546 240.759154 
L 278.763101 238.916945 
L 279.571601 241.510446 
L 280.380101 241.19896 
L 281.188602 240.066515 
L 281.997102 240.986478 
L 282.805603 241.151054 
L 283.614103 240.268935 
L 284.422603 240.741189 
L 285.231104 239.786545 
L 286.039604 240.941401 
L 286.848104 241.013309 
L 287.656605 241.577097 
L 289.273605 240.626878 
L 290.082106 241.200738 
L 290.890606 241.210873 
L 291.699106 239.61874 
L 292.507607 239.880542 
L 293.316107 240.925542 
L 294.124608 240.771448 
L 294.933108 240.050211 
L 295.741608 241.524743 
L 296.550109 240.100335 
L 297.358609 241.458415 
L 298.167109 241.793137 
L 299.78411 241.433663 
L 300.59261 241.928004 
L 301.401111 241.599173 
L 302.209611 241.814611 
L 303.018112 241.114368 
L 303.826612 241.417869 
L 304.635112 241.933284 
L 305.443613 241.841126 
L 306.252113 241.479219 
L 307.060613 242.02021 
L 309.486114 241.921609 
L 310.294615 241.831844 
L 311.103115 241.438499 
L 311.911616 242.062942 
L 312.720116 241.824047 
L 313.528616 242.066722 
L 315.145617 241.882062 
L 315.954117 242.055203 
L 316.762618 241.732579 
L 317.571118 241.599306 
L 318.379618 242.063558 
L 319.188119 241.776446 
L 319.996619 241.67991 
L 320.80512 242.09913 
L 321.61362 241.503522 
L 323.230621 242.043095 
L 324.039121 241.807608 
L 324.847621 241.777308 
L 325.656122 242.103058 
L 326.464622 241.662001 
L 327.273122 242.040243 
L 328.081623 242.084564 
L 328.890123 241.979103 
L 331.315624 242.05323 
L 332.932625 241.874343 
L 334.549626 242.102493 
L 337.783627 241.962791 
L 338.592128 242.109425 
L 342.634629 241.989334 
L 344.25163 242.105651 
L 345.06013 242.002851 
L 345.868631 242.116075 
L 364.464139 242.113006 
L 389.52765 242.114519 
L 389.52765 242.114519 
" clip-path="url(#p5d586a2112)" style="fill: none; stroke: #8172b3; stroke-opacity: 0.3; stroke-width: 1.5; stroke-linecap: round"/>
   </g>
   <g id="line2d_19">
    <path d="M 54 241.220905 
L 77.446511 241.106357 
L 91.999517 240.97769 
L 95.233518 240.396681 
L 96.042019 240.830799 
L 96.850519 240.545614 
L 97.65902 240.678871 
L 99.27602 239.900164 
L 100.084521 240.560787 
L 100.893021 242.031978 
L 101.701521 240.810966 
L 102.510022 241.660036 
L 103.318522 238.879195 
L 104.127022 239.245116 
L 104.935523 239.211635 
L 105.744023 221.722478 
L 106.552524 227.363291 
L 107.361024 237.606559 
L 108.169524 210.3438 
L 108.978025 224.306622 
L 109.786525 227.81202 
L 110.595025 221.954814 
L 111.403526 185.392832 
L 112.212026 211.996339 
L 113.020526 209.766681 
L 113.829027 157.896486 
L 114.637527 223.214063 
L 115.446028 212.730808 
L 116.254528 221.912637 
L 117.063028 186.639406 
L 117.871529 180.738759 
L 118.680029 190.082344 
L 119.488529 217.138355 
L 120.29703 191.186189 
L 121.10553 239.790597 
L 121.91403 197.795669 
L 122.722531 161.986913 
L 123.531031 219.245373 
L 124.339532 206.857068 
L 125.148032 198.428804 
L 125.956532 184.201879 
L 127.573533 231.597196 
L 128.382033 206.059737 
L 129.190534 239.669788 
L 129.999034 115.297821 
L 130.807534 136.640173 
L 131.616035 185.454353 
L 132.424535 152.876351 
L 133.233035 181.983662 
L 134.041536 235.411376 
L 134.850036 222.504972 
L 135.658537 129.804261 
L 136.467037 239.111454 
L 137.275537 204.287283 
L 138.084038 214.181204 
L 138.892538 239.116827 
L 139.701038 170.921333 
L 140.509539 92.901321 
L 141.318039 229.552456 
L 142.126539 143.598963 
L 142.93504 114.181954 
L 143.74354 108.519983 
L 144.552041 147.765043 
L 145.360541 209.034883 
L 146.169041 218.793337 
L 146.977542 221.631349 
L 147.786042 133.8802 
L 148.594542 166.673812 
L 149.403043 227.882424 
L 150.211543 219.234874 
L 151.020043 157.233496 
L 151.828544 228.331576 
L 152.637044 216.76812 
L 153.445545 130.746623 
L 154.254045 195.544066 
L 155.062545 226.599018 
L 155.871046 225.793746 
L 156.679546 229.611933 
L 157.488046 241.71633 
L 158.296547 233.744706 
L 159.105047 229.091148 
L 159.913547 210.44131 
L 160.722048 232.711005 
L 161.530548 238.32725 
L 162.339049 177.02904 
L 163.147549 226.409243 
L 163.956049 226.673484 
L 164.76455 131.125734 
L 165.57305 208.682986 
L 166.38155 212.697341 
L 167.190051 60.792831 
L 167.998551 217.07928 
L 168.807051 187.78651 
L 169.615552 130.286066 
L 170.424052 120.433432 
L 171.232553 122.982123 
L 172.041053 202.159206 
L 172.849553 216.030657 
L 173.658054 121.508318 
L 174.466554 92.302761 
L 175.275054 201.54704 
L 176.083555 139.2878 
L 176.892055 201.371881 
L 177.700555 232.461608 
L 178.509056 107.315594 
L 179.317556 186.529732 
L 180.126057 171.851517 
L 180.934557 44.443636 
L 181.743057 178.757347 
L 182.551558 214.07567 
L 183.360058 199.939689 
L 184.168558 228.469085 
L 184.977059 221.399402 
L 185.785559 200.237425 
L 186.594059 182.965676 
L 187.40256 179.597249 
L 188.21106 204.583338 
L 189.01956 192.210147 
L 189.828061 217.674681 
L 190.636561 235.16453 
L 191.445062 203.577427 
L 192.253562 221.255145 
L 193.062062 232.567964 
L 193.870563 229.307048 
L 194.679063 219.554237 
L 195.487563 230.085515 
L 196.296064 211.892552 
L 197.104564 222.375971 
L 197.913064 216.719772 
L 198.721565 198.327767 
L 199.530065 204.429055 
L 200.338566 231.5164 
L 201.147066 212.252846 
L 201.955566 189.024314 
L 202.764067 185.502539 
L 203.572567 103.382809 
L 204.381067 137.76532 
L 205.998068 227.172246 
L 206.806568 226.679009 
L 207.615069 237.058982 
L 208.423569 217.517321 
L 209.23207 241.045088 
L 210.04057 215.866251 
L 210.84907 195.917092 
L 211.657571 225.486319 
L 212.466071 222.518582 
L 213.274571 231.267534 
L 214.083072 216.451561 
L 214.891572 237.748375 
L 215.700072 226.474866 
L 216.508573 239.631897 
L 217.317073 210.507666 
L 218.125574 229.12323 
L 219.742574 227.764042 
L 220.551075 225.77267 
L 221.359575 240.155513 
L 222.168075 236.021554 
L 222.976576 240.917852 
L 223.785076 208.711446 
L 224.593576 199.743794 
L 225.402077 214.067527 
L 226.210577 217.672301 
L 227.019078 187.647162 
L 227.827578 214.499476 
L 228.636078 228.511162 
L 229.444579 229.714754 
L 230.253079 239.954093 
L 231.061579 210.704188 
L 231.87008 220.978833 
L 232.67858 219.472829 
L 233.48708 226.545496 
L 234.295581 218.048392 
L 235.104081 218.187521 
L 235.912582 225.828525 
L 236.721082 218.981874 
L 237.529582 231.226149 
L 238.338083 240.796105 
L 239.146583 235.768176 
L 239.955083 209.090047 
L 240.763584 228.225601 
L 241.572084 233.066631 
L 242.380584 208.682795 
L 243.189085 211.977479 
L 243.997585 242.038355 
L 244.806085 234.075316 
L 245.614586 237.844518 
L 246.423086 239.163177 
L 247.231587 234.599424 
L 248.040087 220.372331 
L 248.848587 231.554862 
L 249.657088 230.896781 
L 250.465588 241.134632 
L 251.274088 241.137355 
L 252.082589 241.420132 
L 252.891089 232.567154 
L 253.699589 229.510365 
L 254.50809 237.05425 
L 255.31659 232.200806 
L 256.125091 230.056185 
L 256.933591 238.309154 
L 257.742091 241.929256 
L 258.550592 233.371295 
L 259.359092 231.191398 
L 260.167592 236.855743 
L 261.784593 240.256052 
L 262.593093 241.774899 
L 263.401594 236.540846 
L 264.210094 241.01988 
L 265.018595 235.548836 
L 265.827095 232.328625 
L 266.635595 235.660853 
L 267.444096 240.985587 
L 268.252596 228.285982 
L 269.061096 240.499133 
L 269.869597 239.100635 
L 270.678097 225.403617 
L 271.486597 238.9489 
L 272.295098 238.239051 
L 273.103598 226.052787 
L 273.912099 228.285823 
L 274.720599 228.673409 
L 275.529099 233.992453 
L 276.3376 232.345051 
L 277.1461 219.509043 
L 277.9546 233.119552 
L 279.571601 231.892283 
L 280.380101 241.482415 
L 281.188602 232.703558 
L 281.997102 237.738958 
L 283.614103 238.752004 
L 284.422603 240.014951 
L 285.231104 233.110878 
L 286.039604 239.58932 
L 286.848104 240.633798 
L 287.656605 238.477082 
L 288.465105 240.276374 
L 289.273605 240.79661 
L 290.082106 241.098977 
L 290.890606 238.513629 
L 291.699106 232.159657 
L 293.316107 241.54509 
L 294.124608 240.192317 
L 294.933108 237.348959 
L 295.741608 231.058523 
L 296.550109 234.237007 
L 297.358609 240.875363 
L 298.167109 229.481295 
L 298.97561 233.45003 
L 299.78411 222.909789 
L 300.59261 222.949403 
L 301.401111 230.879958 
L 302.209611 232.836569 
L 303.018112 224.003265 
L 303.826612 241.335882 
L 304.635112 235.657247 
L 305.443613 239.852453 
L 306.252113 241.33722 
L 307.060613 237.774229 
L 307.869114 239.933714 
L 308.677614 234.796423 
L 309.486114 234.084273 
L 310.294615 241.699655 
L 311.103115 240.198372 
L 311.911616 235.569948 
L 312.720116 237.654282 
L 313.528616 236.064751 
L 314.337117 230.333145 
L 315.145617 241.109514 
L 315.954117 238.382776 
L 316.762618 227.47629 
L 317.571118 239.532747 
L 318.379618 239.729996 
L 319.188119 241.083028 
L 319.996619 235.797033 
L 320.80512 235.380143 
L 321.61362 236.455119 
L 322.42212 239.635451 
L 323.230621 230.843356 
L 324.039121 239.015032 
L 324.847621 241.606936 
L 325.656122 237.366366 
L 326.464622 235.046429 
L 327.273122 240.651747 
L 328.081623 240.923423 
L 328.890123 241.567639 
L 329.698624 241.815965 
L 330.507124 237.526403 
L 331.315624 241.588199 
L 332.124125 241.926351 
L 332.932625 241.508117 
L 334.549626 241.267782 
L 335.358126 240.00195 
L 336.166626 241.585094 
L 336.975127 237.923039 
L 337.783627 240.351327 
L 338.592128 242.029335 
L 339.400628 241.720816 
L 340.209128 238.925905 
L 341.017629 241.095247 
L 341.826129 241.417626 
L 342.634629 240.389817 
L 343.44313 240.948145 
L 344.25163 241.956143 
L 345.06013 240.186777 
L 346.677131 241.82712 
L 348.294132 241.638933 
L 349.102632 241.712691 
L 349.911133 241.234985 
L 350.719633 242.108333 
L 351.528133 241.817896 
L 352.336634 241.760039 
L 353.145134 241.976951 
L 353.953634 242.034349 
L 354.762135 241.824216 
L 359.613137 242.065281 
L 361.230138 242.097308 
L 362.038638 241.883367 
L 362.847138 242.078841 
L 363.655639 241.942728 
L 364.464139 242.112469 
L 365.272639 242.086498 
L 366.08114 241.719281 
L 366.88964 241.959621 
L 367.698141 242.015 
L 368.506641 241.89824 
L 369.315141 242.051792 
L 370.932142 241.954705 
L 371.740642 242.092691 
L 373.357643 241.999109 
L 374.974644 242.033332 
L 381.442647 242.033073 
L 385.485149 242.091821 
L 387.91065 242.057261 
L 389.52765 242.107574 
L 389.52765 242.107574 
" clip-path="url(#p5d586a2112)" style="fill: none; stroke: #937860; stroke-opacity: 0.3; stroke-width: 1.5; stroke-linecap: round"/>
   </g>
   <g id="line2d_20">
    <path d="M 54 242.075269 
L 99.27602 241.974634 
L 100.084521 241.853656 
L 103.318522 238.309535 
L 104.127022 238.743092 
L 104.935523 239.318542 
L 105.744023 239.007081 
L 106.552524 233.95294 
L 107.361024 227.374196 
L 108.169524 228.963362 
L 108.978025 200.640217 
L 110.595025 155.335526 
L 111.403526 80.049849 
L 113.020526 44.443636 
L 113.829027 79.56435 
L 114.637527 129.912135 
L 115.446028 150.540636 
L 116.254528 183.273409 
L 117.871529 224.581561 
L 118.680029 230.749145 
L 120.29703 163.661402 
L 121.10553 118.675721 
L 121.91403 83.22754 
L 122.722531 76.327788 
L 123.531031 92.318217 
L 124.339532 139.535394 
L 125.148032 203.138358 
L 125.956532 223.571936 
L 126.765033 232.350083 
L 127.573533 227.122875 
L 128.382033 201.212683 
L 129.190534 196.477595 
L 129.999034 170.66293 
L 130.807534 164.747228 
L 131.616035 157.611706 
L 132.424535 147.82045 
L 133.233035 172.6612 
L 134.041536 188.986084 
L 134.850036 199.077079 
L 135.658537 202.918062 
L 136.467037 218.647091 
L 137.275537 220.07313 
L 138.892538 198.499496 
L 139.701038 201.66274 
L 140.509539 198.147392 
L 141.318039 195.804925 
L 142.126539 195.538577 
L 142.93504 199.584585 
L 143.74354 203.047274 
L 144.552041 216.497146 
L 145.360541 214.612891 
L 146.169041 225.383584 
L 146.977542 226.691566 
L 147.786042 226.825616 
L 149.403043 220.280602 
L 150.211543 218.305302 
L 151.020043 222.034489 
L 151.828544 217.221105 
L 152.637044 228.42739 
L 153.445545 230.05147 
L 154.254045 236.889085 
L 155.062545 237.315227 
L 155.871046 238.842397 
L 156.679546 239.02888 
L 157.488046 238.189452 
L 158.296547 237.156734 
L 159.105047 237.510919 
L 159.913547 238.080136 
L 160.722048 239.881398 
L 161.530548 240.600174 
L 162.339049 240.883554 
L 163.147549 239.962914 
L 163.956049 241.223383 
L 164.76455 241.680272 
L 165.57305 241.298816 
L 166.38155 241.089234 
L 167.190051 241.402272 
L 167.998551 241.416917 
L 168.807051 240.764626 
L 170.424052 239.833014 
L 171.232553 239.850806 
L 172.041053 241.153468 
L 172.849553 241.857775 
L 174.466554 242.1142 
L 175.275054 241.800709 
L 176.083555 241.814307 
L 177.700555 241.310523 
L 178.509056 241.273452 
L 179.317556 241.362078 
L 180.126057 241.875852 
L 180.934557 242.044054 
L 181.743057 241.686419 
L 182.551558 241.818251 
L 183.360058 241.061307 
L 184.168558 241.610749 
L 184.977059 241.51268 
L 185.785559 241.962863 
L 186.594059 241.63516 
L 188.21106 241.740077 
L 189.01956 241.770449 
L 189.828061 241.309004 
L 190.636561 241.39881 
L 192.253562 241.037159 
L 193.062062 241.588498 
L 193.870563 241.786675 
L 195.487563 241.669551 
L 196.296064 241.234275 
L 197.104564 241.216672 
L 197.913064 241.317012 
L 198.721565 240.957822 
L 199.530065 240.197401 
L 200.338566 240.33896 
L 201.147066 240.816477 
L 201.955566 240.506142 
L 202.764067 240.589115 
L 203.572567 239.72194 
L 204.381067 240.67826 
L 205.998068 239.954203 
L 206.806568 240.155214 
L 207.615069 239.245622 
L 208.423569 238.806835 
L 209.23207 239.587996 
L 210.04057 238.877427 
L 211.657571 239.468688 
L 212.466071 239.498833 
L 213.274571 239.209552 
L 214.083072 239.551975 
L 214.891572 239.668101 
L 215.700072 239.53232 
L 216.508573 239.838739 
L 217.317073 238.493701 
L 218.125574 237.891341 
L 218.934074 238.14961 
L 219.742574 238.271792 
L 220.551075 238.846789 
L 221.359575 238.686848 
L 222.168075 238.736241 
L 222.976576 239.098855 
L 223.785076 239.741695 
L 224.593576 239.556377 
L 225.402077 239.235159 
L 226.210577 240.038026 
L 227.019078 240.237044 
L 227.827578 240.022128 
L 228.636078 240.946572 
L 229.444579 241.172794 
L 230.253079 240.593743 
L 231.061579 240.285559 
L 231.87008 240.495261 
L 232.67858 240.310625 
L 233.48708 240.746638 
L 234.295581 240.635942 
L 235.104081 240.878591 
L 236.721082 240.914195 
L 237.529582 240.399954 
L 239.146583 240.585229 
L 241.572084 240.024227 
L 242.380584 238.829092 
L 243.189085 240.297054 
L 243.997585 240.391006 
L 244.806085 240.235987 
L 245.614586 241.038783 
L 246.423086 240.542514 
L 247.231587 241.312217 
L 248.040087 241.770186 
L 248.848587 241.754755 
L 249.657088 241.358084 
L 250.465588 241.771469 
L 251.274088 241.747087 
L 252.082589 241.937539 
L 252.891089 241.3942 
L 254.50809 241.056656 
L 256.125091 241.452208 
L 257.742091 241.215157 
L 258.550592 241.699271 
L 259.359092 241.75126 
L 260.167592 241.915446 
L 261.784593 241.465051 
L 262.593093 241.610551 
L 263.401594 241.584635 
L 264.210094 242.021045 
L 265.018595 241.907228 
L 266.635595 242.054005 
L 269.061096 241.878869 
L 269.869597 242.023871 
L 271.486597 241.880291 
L 272.295098 242.026085 
L 276.3376 242.009864 
L 277.9546 242.080756 
L 279.571601 242.050123 
L 282.805603 242.006798 
L 285.231104 241.72348 
L 287.656605 242.029824 
L 289.273605 242.064589 
L 290.890606 241.953219 
L 291.699106 242.077668 
L 298.167109 242.074768 
L 305.443613 242.050177 
L 307.060613 242.070632 
L 309.486114 242.047925 
L 312.720116 242.100585 
L 315.145617 242.069656 
L 319.188119 242.109847 
L 346.677131 242.113011 
L 389.52765 242.116065 
L 389.52765 242.116065 
" clip-path="url(#p5d586a2112)" style="fill: none; stroke: #da8bc3; stroke-opacity: 0.3; stroke-width: 1.5; stroke-linecap: round"/>
   </g>
   <g id="line2d_21">
    <path d="M 54 241.414302 
L 79.063511 241.304243 
L 91.999517 241.187298 
L 93.616518 241.387722 
L 94.425018 241.339787 
L 96.042019 240.957803 
L 97.65902 240.883213 
L 98.46752 240.624035 
L 100.084521 239.472718 
L 100.893021 238.627236 
L 101.701521 239.084488 
L 102.510022 238.196968 
L 103.318522 236.65852 
L 104.127022 233.405718 
L 104.935523 234.703069 
L 105.744023 239.820707 
L 106.552524 241.639356 
L 107.361024 237.847729 
L 108.169524 215.731063 
L 108.978025 159.738587 
L 109.786525 129.92218 
L 110.595025 134.583161 
L 111.403526 101.915974 
L 112.212026 115.596097 
L 113.020526 121.80938 
L 113.829027 186.389484 
L 114.637527 183.85029 
L 115.446028 172.279685 
L 116.254528 143.403398 
L 117.063028 156.409137 
L 117.871529 122.853817 
L 118.680029 111.466776 
L 119.488529 57.548976 
L 120.29703 51.573276 
L 121.10553 60.322332 
L 121.91403 44.443636 
L 123.531031 91.614639 
L 124.339532 155.347911 
L 125.148032 206.658266 
L 125.956532 197.687773 
L 126.765033 168.200911 
L 127.573533 117.738393 
L 128.382033 83.978636 
L 129.190534 71.029144 
L 129.999034 66.403002 
L 130.807534 70.34662 
L 131.616035 81.738531 
L 132.424535 62.22812 
L 134.041536 148.218068 
L 134.850036 147.381407 
L 136.467037 169.29151 
L 137.275537 164.733967 
L 138.084038 153.793439 
L 138.892538 106.222569 
L 139.701038 94.530453 
L 140.509539 66.337823 
L 141.318039 104.446278 
L 142.126539 102.782384 
L 142.93504 142.568865 
L 143.74354 161.869513 
L 144.552041 195.552593 
L 145.360541 198.528083 
L 146.169041 205.682658 
L 146.977542 210.104054 
L 147.786042 216.672754 
L 148.594542 199.287886 
L 149.403043 196.128532 
L 150.211543 188.163604 
L 151.020043 191.234505 
L 151.828544 194.91152 
L 152.637044 214.563934 
L 153.445545 216.276572 
L 154.254045 229.550762 
L 155.062545 230.669979 
L 155.871046 236.776246 
L 156.679546 237.12625 
L 157.488046 227.053429 
L 158.296547 228.30961 
L 159.105047 228.272789 
L 159.913547 233.375161 
L 160.722048 234.230519 
L 161.530548 236.387058 
L 162.339049 236.299532 
L 163.147549 237.882872 
L 163.956049 241.0241 
L 164.76455 240.731792 
L 165.57305 238.572852 
L 166.38155 237.875185 
L 167.190051 239.590272 
L 167.998551 238.904839 
L 168.807051 235.363592 
L 169.615552 237.050206 
L 170.424052 235.028927 
L 171.232553 238.862172 
L 172.041053 239.742336 
L 172.849553 238.252277 
L 174.466554 240.127956 
L 175.275054 240.239864 
L 176.083555 239.937864 
L 176.892055 238.513798 
L 177.700555 238.12516 
L 178.509056 238.548398 
L 179.317556 239.194859 
L 180.934557 237.880939 
L 181.743057 238.957162 
L 182.551558 238.678924 
L 183.360058 241.147198 
L 184.977059 241.806388 
L 185.785559 241.44149 
L 186.594059 241.449173 
L 187.40256 241.77537 
L 188.21106 241.094407 
L 189.01956 240.091045 
L 189.828061 240.89476 
L 190.636561 239.907056 
L 191.445062 239.605748 
L 192.253562 241.440531 
L 193.062062 241.066935 
L 193.870563 241.281599 
L 194.679063 241.143661 
L 196.296064 241.912521 
L 197.104564 241.280135 
L 198.721565 241.912371 
L 201.147066 240.780644 
L 201.955566 241.16883 
L 202.764067 241.081798 
L 203.572567 241.763621 
L 204.381067 240.194091 
L 205.189568 240.856603 
L 205.998068 241.177249 
L 206.806568 241.203493 
L 207.615069 241.640387 
L 208.423569 241.878489 
L 209.23207 241.416501 
L 210.04057 241.847689 
L 210.84907 241.236256 
L 211.657571 241.354594 
L 212.466071 240.787349 
L 213.274571 240.616059 
L 214.083072 240.752883 
L 214.891572 241.100669 
L 215.700072 241.011394 
L 216.508573 240.543725 
L 217.317073 241.340601 
L 218.934074 241.902765 
L 219.742574 241.881064 
L 221.359575 241.017296 
L 222.168075 241.482983 
L 222.976576 240.339387 
L 223.785076 239.592504 
L 224.593576 239.824792 
L 225.402077 240.617151 
L 226.210577 240.273981 
L 227.019078 240.407635 
L 227.827578 240.673147 
L 228.636078 238.795559 
L 229.444579 239.140631 
L 230.253079 240.013047 
L 231.061579 239.925296 
L 231.87008 239.487542 
L 232.67858 240.147792 
L 233.48708 240.597678 
L 234.295581 241.369372 
L 235.104081 241.30316 
L 235.912582 240.921182 
L 236.721082 239.627929 
L 237.529582 240.776862 
L 238.338083 241.000738 
L 239.146583 241.844086 
L 240.763584 241.93742 
L 241.572084 241.734725 
L 242.380584 241.91964 
L 243.189085 241.456747 
L 243.997585 241.33432 
L 244.806085 241.719005 
L 245.614586 240.945563 
L 246.423086 240.959573 
L 247.231587 241.585676 
L 248.848587 241.967762 
L 249.657088 241.764584 
L 250.465588 241.19454 
L 251.274088 241.945809 
L 252.082589 241.623751 
L 252.891089 241.904405 
L 254.50809 241.338481 
L 255.31659 241.510569 
L 256.125091 241.087651 
L 256.933591 241.598013 
L 257.742091 241.602432 
L 258.550592 241.151035 
L 259.359092 241.709652 
L 260.167592 241.672697 
L 261.784593 241.923838 
L 262.593093 241.25168 
L 263.401594 241.889652 
L 264.210094 241.474748 
L 265.018595 241.91557 
L 265.827095 241.597168 
L 266.635595 241.496406 
L 268.252596 241.634793 
L 269.061096 241.944162 
L 269.869597 241.490609 
L 271.486597 241.99788 
L 272.295098 241.782783 
L 273.912099 241.688441 
L 274.720599 241.305752 
L 276.3376 241.573083 
L 277.9546 242.042659 
L 280.380101 241.936236 
L 281.188602 242.081528 
L 285.231104 242.028187 
L 286.848104 242.111633 
L 287.656605 241.867816 
L 290.890606 242.1035 
L 292.507607 241.876199 
L 293.316107 242.011191 
L 294.124608 241.976806 
L 294.933108 242.109363 
L 296.550109 241.995656 
L 297.358609 242.07915 
L 298.167109 241.994585 
L 299.78411 242.115308 
L 300.59261 242.039883 
L 303.018112 242.095451 
L 303.826612 242.022517 
L 306.252113 242.112438 
L 307.869114 242.085239 
L 310.294615 242.108195 
L 313.528616 241.796928 
L 315.145617 242.09795 
L 320.80512 242.084429 
L 321.61362 241.985877 
L 323.230621 242.104765 
L 328.890123 242.062933 
L 334.549626 242.016662 
L 340.209128 242.103337 
L 352.336634 242.092269 
L 363.655639 242.103734 
L 389.52765 242.112199 
L 389.52765 242.112199 
" clip-path="url(#p5d586a2112)" style="fill: none; stroke: #8c8c8c; stroke-opacity: 0.3; stroke-width: 1.5; stroke-linecap: round"/>
   </g>
   <g id="line2d_22">
    <path d="M 54 241.952864 
L 91.999517 242.058502 
L 93.616518 242.037934 
L 96.042019 241.89638 
L 96.850519 241.969315 
L 98.46752 241.553855 
L 99.27602 241.084248 
L 100.084521 240.769338 
L 100.893021 238.308225 
L 101.701521 241.05125 
L 102.510022 238.037619 
L 103.318522 241.409298 
L 104.127022 236.545147 
L 104.935523 236.292947 
L 105.744023 221.175793 
L 106.552524 234.155751 
L 107.361024 234.069929 
L 108.169524 222.926003 
L 108.978025 221.65376 
L 109.786525 237.811898 
L 110.595025 227.386226 
L 111.403526 235.29466 
L 112.212026 157.078215 
L 113.020526 131.410637 
L 113.829027 137.384896 
L 114.637527 195.333178 
L 115.446028 188.465381 
L 116.254528 186.177807 
L 117.063028 218.335454 
L 117.871529 114.722081 
L 118.680029 227.851634 
L 119.488529 238.03574 
L 120.29703 221.845646 
L 121.10553 44.443636 
L 121.91403 94.470868 
L 122.722531 47.942749 
L 123.531031 240.038078 
L 124.339532 233.65987 
L 125.148032 120.178957 
L 125.956532 79.427478 
L 126.765033 220.960141 
L 127.573533 217.597326 
L 128.382033 220.764454 
L 129.190534 176.447122 
L 129.999034 210.222622 
L 130.807534 162.888019 
L 131.616035 233.699702 
L 132.424535 237.962808 
L 133.233035 233.52827 
L 134.041536 179.94457 
L 134.850036 238.876442 
L 135.658537 230.126183 
L 136.467037 196.820808 
L 137.275537 204.830325 
L 138.084038 187.109913 
L 138.892538 203.165913 
L 139.701038 241.78406 
L 140.509539 174.377639 
L 141.318039 83.26854 
L 142.126539 166.505727 
L 142.93504 145.288966 
L 143.74354 214.168915 
L 144.552041 146.536958 
L 145.360541 219.673714 
L 146.169041 189.353738 
L 146.977542 200.168056 
L 147.786042 117.059215 
L 148.594542 219.923951 
L 149.403043 179.180781 
L 150.211543 215.974329 
L 151.020043 219.810281 
L 151.828544 236.717378 
L 152.637044 184.470788 
L 153.445545 195.784439 
L 154.254045 176.396884 
L 155.062545 219.050305 
L 155.871046 219.425874 
L 156.679546 185.648053 
L 157.488046 200.074864 
L 158.296547 235.720518 
L 159.105047 233.930125 
L 159.913547 223.116071 
L 160.722048 210.641139 
L 161.530548 188.827776 
L 162.339049 232.639796 
L 163.147549 208.527959 
L 163.956049 173.76852 
L 164.76455 174.923544 
L 165.57305 203.51091 
L 166.38155 217.871971 
L 167.190051 223.715601 
L 167.998551 206.844091 
L 168.807051 228.217081 
L 169.615552 211.834547 
L 170.424052 241.028233 
L 171.232553 233.62869 
L 172.041053 221.279325 
L 172.849553 233.199895 
L 173.658054 234.424731 
L 174.466554 182.877006 
L 175.275054 233.109938 
L 176.083555 224.868494 
L 176.892055 210.248628 
L 177.700555 228.341501 
L 178.509056 240.215819 
L 179.317556 221.51695 
L 180.126057 228.459548 
L 180.934557 209.102364 
L 181.743057 228.624445 
L 182.551558 227.914244 
L 183.360058 225.776783 
L 184.977059 220.819529 
L 185.785559 201.104702 
L 186.594059 184.7822 
L 187.40256 219.973254 
L 188.21106 207.86776 
L 189.01956 228.159162 
L 189.828061 221.512186 
L 190.636561 207.154514 
L 191.445062 232.153061 
L 192.253562 197.981892 
L 193.062062 227.821747 
L 193.870563 201.936797 
L 194.679063 204.039769 
L 195.487563 207.135494 
L 196.296064 214.806628 
L 197.104564 180.785958 
L 197.913064 199.211044 
L 198.721565 173.568 
L 199.530065 188.157893 
L 200.338566 215.562782 
L 201.147066 224.187244 
L 201.955566 220.161387 
L 202.764067 225.840877 
L 203.572567 220.512628 
L 204.381067 226.191899 
L 205.189568 238.765769 
L 205.998068 235.964725 
L 206.806568 241.12231 
L 207.615069 225.827591 
L 208.423569 227.140391 
L 209.23207 238.697352 
L 210.84907 221.012017 
L 211.657571 233.558499 
L 212.466071 236.705632 
L 213.274571 225.428665 
L 214.083072 230.874065 
L 214.891572 218.322136 
L 215.700072 237.490252 
L 216.508573 229.061771 
L 217.317073 214.509636 
L 218.125574 213.807607 
L 218.934074 235.442587 
L 219.742574 233.049889 
L 220.551075 234.039838 
L 221.359575 237.633385 
L 222.168075 221.735848 
L 222.976576 240.305091 
L 223.785076 241.793123 
L 224.593576 241.866722 
L 225.402077 230.503451 
L 226.210577 238.038169 
L 227.019078 241.530658 
L 227.827578 231.822732 
L 228.636078 235.260889 
L 229.444579 240.043838 
L 230.253079 241.855228 
L 231.061579 238.525029 
L 231.87008 238.887262 
L 232.67858 240.735407 
L 233.48708 241.195266 
L 234.295581 228.668646 
L 235.104081 240.110846 
L 235.912582 235.208455 
L 236.721082 241.971638 
L 237.529582 231.981214 
L 238.338083 236.277623 
L 239.146583 230.326084 
L 239.955083 234.663841 
L 240.763584 229.396564 
L 241.572084 234.26337 
L 242.380584 212.402286 
L 243.189085 220.634146 
L 243.997585 224.453695 
L 244.806085 240.776912 
L 245.614586 233.829859 
L 246.423086 233.652983 
L 247.231587 241.148011 
L 248.848587 240.047573 
L 249.657088 236.502057 
L 250.465588 239.969232 
L 251.274088 240.658896 
L 252.082589 233.041964 
L 252.891089 241.393968 
L 253.699589 239.932589 
L 254.50809 233.318518 
L 255.31659 238.446925 
L 256.125091 235.832914 
L 256.933591 231.325992 
L 257.742091 241.242652 
L 258.550592 238.271056 
L 259.359092 224.51013 
L 260.167592 234.840208 
L 260.976093 241.993726 
L 261.784593 227.294708 
L 262.593093 238.00575 
L 263.401594 238.058472 
L 264.210094 238.490309 
L 265.018595 230.70875 
L 265.827095 237.954758 
L 266.635595 238.554712 
L 267.444096 236.456948 
L 268.252596 241.328412 
L 269.061096 239.422872 
L 269.869597 234.54359 
L 270.678097 239.620902 
L 271.486597 237.654665 
L 272.295098 238.023089 
L 273.103598 239.603599 
L 273.912099 240.576354 
L 274.720599 238.917344 
L 275.529099 236.784826 
L 276.3376 241.159461 
L 277.1461 238.465684 
L 277.9546 242.077404 
L 278.763101 239.433704 
L 279.571601 241.24635 
L 280.380101 239.680236 
L 281.188602 238.669875 
L 281.997102 240.247136 
L 282.805603 237.108443 
L 283.614103 236.301328 
L 284.422603 238.427919 
L 285.231104 237.243595 
L 286.848104 239.751934 
L 287.656605 231.987927 
L 288.465105 240.447329 
L 289.273605 239.701919 
L 290.082106 239.843458 
L 290.890606 241.153059 
L 291.699106 241.953294 
L 292.507607 240.08856 
L 293.316107 240.629867 
L 294.124608 240.818198 
L 294.933108 241.140574 
L 295.741608 240.485142 
L 296.550109 238.61281 
L 297.358609 239.150016 
L 298.167109 237.513152 
L 298.97561 238.427492 
L 299.78411 238.57453 
L 300.59261 230.062586 
L 301.401111 241.390387 
L 302.209611 238.787942 
L 303.018112 240.958916 
L 303.826612 241.706949 
L 304.635112 237.564672 
L 305.443613 240.842966 
L 306.252113 231.989939 
L 307.060613 238.52053 
L 307.869114 237.95496 
L 308.677614 240.891395 
L 309.486114 235.519278 
L 310.294615 241.964777 
L 311.103115 240.457166 
L 311.911616 240.99066 
L 312.720116 241.318771 
L 313.528616 239.579984 
L 315.145617 241.785493 
L 315.954117 238.667617 
L 316.762618 241.264942 
L 317.571118 241.500881 
L 318.379618 241.591594 
L 319.188119 241.819951 
L 319.996619 240.018827 
L 321.61362 240.086202 
L 322.42212 242.034673 
L 323.230621 240.62981 
L 324.039121 241.815401 
L 324.847621 240.580124 
L 325.656122 241.994104 
L 326.464622 241.735883 
L 327.273122 241.932805 
L 328.081623 241.743008 
L 328.890123 241.102563 
L 329.698624 242.013841 
L 330.507124 240.939134 
L 331.315624 241.948035 
L 332.124125 241.990132 
L 332.932625 241.855515 
L 333.741125 241.36513 
L 334.549626 241.907615 
L 335.358126 241.895412 
L 336.166626 242.091199 
L 336.975127 241.817171 
L 339.400628 242.104672 
L 340.209128 241.82204 
L 341.017629 242.075351 
L 341.826129 241.837172 
L 342.634629 241.909541 
L 343.44313 241.862507 
L 344.25163 241.563409 
L 345.06013 241.941215 
L 346.677131 241.884907 
L 348.294132 242.031563 
L 349.102632 241.858124 
L 349.911133 242.109555 
L 351.528133 242.111263 
L 352.336634 241.608863 
L 353.145134 241.914508 
L 354.762135 241.766795 
L 355.570635 242.047659 
L 356.379135 241.829004 
L 357.187636 241.973691 
L 362.038638 242.064626 
L 365.272639 242.095319 
L 368.506641 242.106754 
L 370.123642 242.067376 
L 373.357643 242.115401 
L 375.783144 242.089764 
L 389.52765 242.092134 
L 389.52765 242.092134 
" clip-path="url(#p5d586a2112)" style="fill: none; stroke: #ccb974; stroke-opacity: 0.3; stroke-width: 1.5; stroke-linecap: round"/>
   </g>
   <g id="patch_3">
    <path d="M 54 252 
L 54 34.56 
" style="fill: none; stroke: #262626; stroke-width: 1.25; stroke-linejoin: miter; stroke-linecap: square"/>
   </g>
   <g id="patch_4">
    <path d="M 388.8 252 
L 388.8 34.56 
" style="fill: none; stroke: #262626; stroke-width: 1.25; stroke-linejoin: miter; stroke-linecap: square"/>
   </g>
   <g id="patch_5">
    <path d="M 54 252 
L 388.8 252 
" style="fill: none; stroke: #262626; stroke-width: 1.25; stroke-linejoin: miter; stroke-linecap: square"/>
   </g>
   <g id="patch_6">
    <path d="M 54 34.56 
L 388.8 34.56 
" style="fill: none; stroke: #262626; stroke-width: 1.25; stroke-linejoin: miter; stroke-linecap: square"/>
   </g>
   <g id="text_15">
    <!-- patient06_app03_phone - Power spectrum -->
    <g style="fill: #262626" transform="translate(107.998125 28.56)scale(0.12 -0.12)">
     <defs>
      <path id="ArialMT-70" d="M 422 -1272 
L 422 3319 
L 934 3319 
L 934 2888 
Q 1116 3141 1344 3267 
Q 1572 3394 1897 3394 
Q 2322 3394 2647 3175 
Q 2972 2956 3137 2557 
Q 3303 2159 3303 1684 
Q 3303 1175 3120 767 
Q 2938 359 2589 142 
Q 2241 -75 1856 -75 
Q 1575 -75 1351 44 
Q 1128 163 984 344 
L 984 -1272 
L 422 -1272 
z
M 931 1641 
Q 931 1000 1190 694 
Q 1450 388 1819 388 
Q 2194 388 2461 705 
Q 2728 1022 2728 1688 
Q 2728 2322 2467 2637 
Q 2206 2953 1844 2953 
Q 1484 2953 1207 2617 
Q 931 2281 931 1641 
z
" transform="scale(0.015625)"/>
      <path id="ArialMT-61" d="M 2588 409 
Q 2275 144 1986 34 
Q 1697 -75 1366 -75 
Q 819 -75 525 192 
Q 231 459 231 875 
Q 231 1119 342 1320 
Q 453 1522 633 1644 
Q 813 1766 1038 1828 
Q 1203 1872 1538 1913 
Q 2219 1994 2541 2106 
Q 2544 2222 2544 2253 
Q 2544 2597 2384 2738 
Q 2169 2928 1744 2928 
Q 1347 2928 1158 2789 
Q 969 2650 878 2297 
L 328 2372 
Q 403 2725 575 2942 
Q 747 3159 1072 3276 
Q 1397 3394 1825 3394 
Q 2250 3394 2515 3294 
Q 2781 3194 2906 3042 
Q 3031 2891 3081 2659 
Q 3109 2516 3109 2141 
L 3109 1391 
Q 3109 606 3145 398 
Q 3181 191 3288 0 
L 2700 0 
Q 2613 175 2588 409 
z
M 2541 1666 
Q 2234 1541 1622 1453 
Q 1275 1403 1131 1340 
Q 988 1278 909 1158 
Q 831 1038 831 891 
Q 831 666 1001 516 
Q 1172 366 1500 366 
Q 1825 366 2078 508 
Q 2331 650 2450 897 
Q 2541 1088 2541 1459 
L 2541 1666 
z
" transform="scale(0.015625)"/>
      <path id="ArialMT-74" d="M 1650 503 
L 1731 6 
Q 1494 -44 1306 -44 
Q 1000 -44 831 53 
Q 663 150 594 308 
Q 525 466 525 972 
L 525 2881 
L 113 2881 
L 113 3319 
L 525 3319 
L 525 4141 
L 1084 4478 
L 1084 3319 
L 1650 3319 
L 1650 2881 
L 1084 2881 
L 1084 941 
Q 1084 700 1114 631 
Q 1144 563 1211 522 
Q 1278 481 1403 481 
Q 1497 481 1650 503 
z
" transform="scale(0.015625)"/>
      <path id="ArialMT-69" d="M 425 3934 
L 425 4581 
L 988 4581 
L 988 3934 
L 425 3934 
z
M 425 0 
L 425 3319 
L 988 3319 
L 988 0 
L 425 0 
z
" transform="scale(0.015625)"/>
      <path id="ArialMT-5f" d="M -97 -1272 
L -97 -866 
L 3631 -866 
L 3631 -1272 
L -97 -1272 
z
" transform="scale(0.015625)"/>
      <path id="ArialMT-68" d="M 422 0 
L 422 4581 
L 984 4581 
L 984 2938 
Q 1378 3394 1978 3394 
Q 2347 3394 2619 3248 
Q 2891 3103 3008 2847 
Q 3125 2591 3125 2103 
L 3125 0 
L 2563 0 
L 2563 2103 
Q 2563 2525 2380 2717 
Q 2197 2909 1863 2909 
Q 1613 2909 1392 2779 
Q 1172 2650 1078 2428 
Q 984 2206 984 1816 
L 984 0 
L 422 0 
z
" transform="scale(0.015625)"/>
      <path id="ArialMT-6f" d="M 213 1659 
Q 213 2581 725 3025 
Q 1153 3394 1769 3394 
Q 2453 3394 2887 2945 
Q 3322 2497 3322 1706 
Q 3322 1066 3130 698 
Q 2938 331 2570 128 
Q 2203 -75 1769 -75 
Q 1072 -75 642 372 
Q 213 819 213 1659 
z
M 791 1659 
Q 791 1022 1069 705 
Q 1347 388 1769 388 
Q 2188 388 2466 706 
Q 2744 1025 2744 1678 
Q 2744 2294 2464 2611 
Q 2184 2928 1769 2928 
Q 1347 2928 1069 2612 
Q 791 2297 791 1659 
z
" transform="scale(0.015625)"/>
      <path id="ArialMT-2d" d="M 203 1375 
L 203 1941 
L 1931 1941 
L 1931 1375 
L 203 1375 
z
" transform="scale(0.015625)"/>
      <path id="ArialMT-50" d="M 494 0 
L 494 4581 
L 2222 4581 
Q 2678 4581 2919 4538 
Q 3256 4481 3484 4323 
Q 3713 4166 3852 3881 
Q 3991 3597 3991 3256 
Q 3991 2672 3619 2267 
Q 3247 1863 2275 1863 
L 1100 1863 
L 1100 0 
L 494 0 
z
M 1100 2403 
L 2284 2403 
Q 2872 2403 3119 2622 
Q 3366 2841 3366 3238 
Q 3366 3525 3220 3729 
Q 3075 3934 2838 4000 
Q 2684 4041 2272 4041 
L 1100 4041 
L 1100 2403 
z
" transform="scale(0.015625)"/>
      <path id="ArialMT-77" d="M 1034 0 
L 19 3319 
L 600 3319 
L 1128 1403 
L 1325 691 
Q 1338 744 1497 1375 
L 2025 3319 
L 2603 3319 
L 3100 1394 
L 3266 759 
L 3456 1400 
L 4025 3319 
L 4572 3319 
L 3534 0 
L 2950 0 
L 2422 1988 
L 2294 2553 
L 1622 0 
L 1034 0 
z
" transform="scale(0.015625)"/>
      <path id="ArialMT-73" d="M 197 991 
L 753 1078 
Q 800 744 1014 566 
Q 1228 388 1613 388 
Q 2000 388 2187 545 
Q 2375 703 2375 916 
Q 2375 1106 2209 1216 
Q 2094 1291 1634 1406 
Q 1016 1563 777 1677 
Q 538 1791 414 1992 
Q 291 2194 291 2438 
Q 291 2659 392 2848 
Q 494 3038 669 3163 
Q 800 3259 1026 3326 
Q 1253 3394 1513 3394 
Q 1903 3394 2198 3281 
Q 2494 3169 2634 2976 
Q 2775 2784 2828 2463 
L 2278 2388 
Q 2241 2644 2061 2787 
Q 1881 2931 1553 2931 
Q 1166 2931 1000 2803 
Q 834 2675 834 2503 
Q 834 2394 903 2306 
Q 972 2216 1119 2156 
Q 1203 2125 1616 2013 
Q 2213 1853 2448 1751 
Q 2684 1650 2818 1456 
Q 2953 1263 2953 975 
Q 2953 694 2789 445 
Q 2625 197 2315 61 
Q 2006 -75 1616 -75 
Q 969 -75 630 194 
Q 291 463 197 991 
z
" transform="scale(0.015625)"/>
      <path id="ArialMT-6d" d="M 422 0 
L 422 3319 
L 925 3319 
L 925 2853 
Q 1081 3097 1340 3245 
Q 1600 3394 1931 3394 
Q 2300 3394 2536 3241 
Q 2772 3088 2869 2813 
Q 3263 3394 3894 3394 
Q 4388 3394 4653 3120 
Q 4919 2847 4919 2278 
L 4919 0 
L 4359 0 
L 4359 2091 
Q 4359 2428 4304 2576 
Q 4250 2725 4106 2815 
Q 3963 2906 3769 2906 
Q 3419 2906 3187 2673 
Q 2956 2441 2956 1928 
L 2956 0 
L 2394 0 
L 2394 2156 
Q 2394 2531 2256 2718 
Q 2119 2906 1806 2906 
Q 1569 2906 1367 2781 
Q 1166 2656 1075 2415 
Q 984 2175 984 1722 
L 984 0 
L 422 0 
z
" transform="scale(0.015625)"/>
     </defs>
     <use xlink:href="#ArialMT-70"/>
     <use xlink:href="#ArialMT-61" x="55.615234"/>
     <use xlink:href="#ArialMT-74" x="111.230469"/>
     <use xlink:href="#ArialMT-69" x="139.013672"/>
     <use xlink:href="#ArialMT-65" x="161.230469"/>
     <use xlink:href="#ArialMT-6e" x="216.845703"/>
     <use xlink:href="#ArialMT-74" x="272.460938"/>
     <use xlink:href="#ArialMT-30" x="300.244141"/>
     <use xlink:href="#ArialMT-36" x="355.859375"/>
     <use xlink:href="#ArialMT-5f" x="411.474609"/>
     <use xlink:href="#ArialMT-61" x="467.089844"/>
     <use xlink:href="#ArialMT-70" x="522.705078"/>
     <use xlink:href="#ArialMT-70" x="578.320312"/>
     <use xlink:href="#ArialMT-30" x="633.935547"/>
     <use xlink:href="#ArialMT-33" x="689.550781"/>
     <use xlink:href="#ArialMT-5f" x="745.166016"/>
     <use xlink:href="#ArialMT-70" x="800.78125"/>
     <use xlink:href="#ArialMT-68" x="856.396484"/>
     <use xlink:href="#ArialMT-6f" x="912.011719"/>
     <use xlink:href="#ArialMT-6e" x="967.626953"/>
     <use xlink:href="#ArialMT-65" x="1023.242188"/>
     <use xlink:href="#ArialMT-20" x="1078.857422"/>
     <use xlink:href="#ArialMT-2d" x="1106.640625"/>
     <use xlink:href="#ArialMT-20" x="1139.941406"/>
     <use xlink:href="#ArialMT-50" x="1167.724609"/>
     <use xlink:href="#ArialMT-6f" x="1234.423828"/>
     <use xlink:href="#ArialMT-77" x="1290.039062"/>
     <use xlink:href="#ArialMT-65" x="1362.255859"/>
     <use xlink:href="#ArialMT-72" x="1417.871094"/>
     <use xlink:href="#ArialMT-20" x="1451.171875"/>
     <use xlink:href="#ArialMT-73" x="1478.955078"/>
     <use xlink:href="#ArialMT-70" x="1528.955078"/>
     <use xlink:href="#ArialMT-65" x="1584.570312"/>
     <use xlink:href="#ArialMT-63" x="1640.185547"/>
     <use xlink:href="#ArialMT-74" x="1690.185547"/>
     <use xlink:href="#ArialMT-72" x="1717.96875"/>
     <use xlink:href="#ArialMT-75" x="1751.269531"/>
     <use xlink:href="#ArialMT-6d" x="1806.884766"/>
    </g>
   </g>
  </g>
 </g>
 <defs>
  <clipPath id="p5d586a2112">
   <rect x="54" y="34.56" width="334.8" height="217.44"/>
  </clipPath>
 </defs>
</svg>
