<?xml version="1.0" encoding="utf-8" standalone="no"?>
<!DOCTYPE svg PUBLIC "-//W3C//DTD SVG 1.1//EN"
  "http://www.w3.org/Graphics/SVG/1.1/DTD/svg11.dtd">
<svg xmlns:xlink="http://www.w3.org/1999/xlink" width="432pt" height="288pt" viewBox="0 0 432 288" xmlns="http://www.w3.org/2000/svg" version="1.1">
 <metadata>
  <rdf:RDF xmlns:dc="http://purl.org/dc/elements/1.1/" xmlns:cc="http://creativecommons.org/ns#" xmlns:rdf="http://www.w3.org/1999/02/22-rdf-syntax-ns#">
   <cc:Work>
    <dc:type rdf:resource="http://purl.org/dc/dcmitype/StillImage"/>
    <dc:date>2022-07-08T13:41:48.392690</dc:date>
    <dc:format>image/svg+xml</dc:format>
    <dc:creator>
     <cc:Agent>
      <dc:title>Matplotlib v3.5.1, https://matplotlib.org/</dc:title>
     </cc:Agent>
    </dc:creator>
   </cc:Work>
  </rdf:RDF>
 </metadata>
 <defs>
  <style type="text/css">*{stroke-linejoin: round; stroke-linecap: butt}</style>
 </defs>
 <g id="figure_1">
  <g id="patch_1">
   <path d="M 0 288 
L 432 288 
L 432 0 
L 0 0 
z
" style="fill: #ffffff"/>
  </g>
  <g id="axes_1">
   <g id="patch_2">
    <path d="M 54 252 
L 388.8 252 
L 388.8 34.56 
L 54 34.56 
z
" style="fill: #ffffff"/>
   </g>
   <g id="matplotlib.axis_1">
    <g id="xtick_1">
     <g id="line2d_1">
      <defs>
       <path id="me4659e1ab3" d="M 0 0 
L 0 6 
" style="stroke: #262626; stroke-width: 1.25"/>
      </defs>
      <g>
       <use xlink:href="#me4659e1ab3" x="54" y="252" style="fill: #262626; stroke: #262626; stroke-width: 1.25"/>
      </g>
     </g>
     <g id="text_1">
      <!-- 0 -->
      <g style="fill: #262626" transform="translate(50.941484 269.373594)scale(0.11 -0.11)">
       <defs>
        <path id="ArialMT-30" d="M 266 2259 
Q 266 3072 433 3567 
Q 600 4063 929 4331 
Q 1259 4600 1759 4600 
Q 2128 4600 2406 4451 
Q 2684 4303 2865 4023 
Q 3047 3744 3150 3342 
Q 3253 2941 3253 2259 
Q 3253 1453 3087 958 
Q 2922 463 2592 192 
Q 2263 -78 1759 -78 
Q 1097 -78 719 397 
Q 266 969 266 2259 
z
M 844 2259 
Q 844 1131 1108 757 
Q 1372 384 1759 384 
Q 2147 384 2411 759 
Q 2675 1134 2675 2259 
Q 2675 3391 2411 3762 
Q 2147 4134 1753 4134 
Q 1366 4134 1134 3806 
Q 844 3388 844 2259 
z
" transform="scale(0.015625)"/>
       </defs>
       <use xlink:href="#ArialMT-30"/>
      </g>
     </g>
    </g>
    <g id="xtick_2">
     <g id="line2d_2">
      <g>
       <use xlink:href="#me4659e1ab3" x="109.8" y="252" style="fill: #262626; stroke: #262626; stroke-width: 1.25"/>
      </g>
     </g>
     <g id="text_2">
      <!-- 5 -->
      <g style="fill: #262626" transform="translate(106.741484 269.373594)scale(0.11 -0.11)">
       <defs>
        <path id="ArialMT-35" d="M 266 1200 
L 856 1250 
Q 922 819 1161 601 
Q 1400 384 1738 384 
Q 2144 384 2425 690 
Q 2706 997 2706 1503 
Q 2706 1984 2436 2262 
Q 2166 2541 1728 2541 
Q 1456 2541 1237 2417 
Q 1019 2294 894 2097 
L 366 2166 
L 809 4519 
L 3088 4519 
L 3088 3981 
L 1259 3981 
L 1013 2750 
Q 1425 3038 1878 3038 
Q 2478 3038 2890 2622 
Q 3303 2206 3303 1553 
Q 3303 931 2941 478 
Q 2500 -78 1738 -78 
Q 1113 -78 717 272 
Q 322 622 266 1200 
z
" transform="scale(0.015625)"/>
       </defs>
       <use xlink:href="#ArialMT-35"/>
      </g>
     </g>
    </g>
    <g id="xtick_3">
     <g id="line2d_3">
      <g>
       <use xlink:href="#me4659e1ab3" x="165.6" y="252" style="fill: #262626; stroke: #262626; stroke-width: 1.25"/>
      </g>
     </g>
     <g id="text_3">
      <!-- 10 -->
      <g style="fill: #262626" transform="translate(159.482969 269.373594)scale(0.11 -0.11)">
       <defs>
        <path id="ArialMT-31" d="M 2384 0 
L 1822 0 
L 1822 3584 
Q 1619 3391 1289 3197 
Q 959 3003 697 2906 
L 697 3450 
Q 1169 3672 1522 3987 
Q 1875 4303 2022 4600 
L 2384 4600 
L 2384 0 
z
" transform="scale(0.015625)"/>
       </defs>
       <use xlink:href="#ArialMT-31"/>
       <use xlink:href="#ArialMT-30" x="55.615234"/>
      </g>
     </g>
    </g>
    <g id="xtick_4">
     <g id="line2d_4">
      <g>
       <use xlink:href="#me4659e1ab3" x="221.4" y="252" style="fill: #262626; stroke: #262626; stroke-width: 1.25"/>
      </g>
     </g>
     <g id="text_4">
      <!-- 15 -->
      <g style="fill: #262626" transform="translate(215.282969 269.373594)scale(0.11 -0.11)">
       <use xlink:href="#ArialMT-31"/>
       <use xlink:href="#ArialMT-35" x="55.615234"/>
      </g>
     </g>
    </g>
    <g id="xtick_5">
     <g id="line2d_5">
      <g>
       <use xlink:href="#me4659e1ab3" x="277.2" y="252" style="fill: #262626; stroke: #262626; stroke-width: 1.25"/>
      </g>
     </g>
     <g id="text_5">
      <!-- 20 -->
      <g style="fill: #262626" transform="translate(271.082969 269.373594)scale(0.11 -0.11)">
       <defs>
        <path id="ArialMT-32" d="M 3222 541 
L 3222 0 
L 194 0 
Q 188 203 259 391 
Q 375 700 629 1000 
Q 884 1300 1366 1694 
Q 2113 2306 2375 2664 
Q 2638 3022 2638 3341 
Q 2638 3675 2398 3904 
Q 2159 4134 1775 4134 
Q 1369 4134 1125 3890 
Q 881 3647 878 3216 
L 300 3275 
Q 359 3922 746 4261 
Q 1134 4600 1788 4600 
Q 2447 4600 2831 4234 
Q 3216 3869 3216 3328 
Q 3216 3053 3103 2787 
Q 2991 2522 2730 2228 
Q 2469 1934 1863 1422 
Q 1356 997 1212 845 
Q 1069 694 975 541 
L 3222 541 
z
" transform="scale(0.015625)"/>
       </defs>
       <use xlink:href="#ArialMT-32"/>
       <use xlink:href="#ArialMT-30" x="55.615234"/>
      </g>
     </g>
    </g>
    <g id="xtick_6">
     <g id="line2d_6">
      <g>
       <use xlink:href="#me4659e1ab3" x="333" y="252" style="fill: #262626; stroke: #262626; stroke-width: 1.25"/>
      </g>
     </g>
     <g id="text_6">
      <!-- 25 -->
      <g style="fill: #262626" transform="translate(326.882969 269.373594)scale(0.11 -0.11)">
       <use xlink:href="#ArialMT-32"/>
       <use xlink:href="#ArialMT-35" x="55.615234"/>
      </g>
     </g>
    </g>
    <g id="xtick_7">
     <g id="line2d_7">
      <g>
       <use xlink:href="#me4659e1ab3" x="388.8" y="252" style="fill: #262626; stroke: #262626; stroke-width: 1.25"/>
      </g>
     </g>
     <g id="text_7">
      <!-- 30 -->
      <g style="fill: #262626" transform="translate(382.682969 269.373594)scale(0.11 -0.11)">
       <defs>
        <path id="ArialMT-33" d="M 269 1209 
L 831 1284 
Q 928 806 1161 595 
Q 1394 384 1728 384 
Q 2125 384 2398 659 
Q 2672 934 2672 1341 
Q 2672 1728 2419 1979 
Q 2166 2231 1775 2231 
Q 1616 2231 1378 2169 
L 1441 2663 
Q 1497 2656 1531 2656 
Q 1891 2656 2178 2843 
Q 2466 3031 2466 3422 
Q 2466 3731 2256 3934 
Q 2047 4138 1716 4138 
Q 1388 4138 1169 3931 
Q 950 3725 888 3313 
L 325 3413 
Q 428 3978 793 4289 
Q 1159 4600 1703 4600 
Q 2078 4600 2393 4439 
Q 2709 4278 2876 4000 
Q 3044 3722 3044 3409 
Q 3044 3113 2884 2869 
Q 2725 2625 2413 2481 
Q 2819 2388 3044 2092 
Q 3269 1797 3269 1353 
Q 3269 753 2831 336 
Q 2394 -81 1725 -81 
Q 1122 -81 723 278 
Q 325 638 269 1209 
z
" transform="scale(0.015625)"/>
       </defs>
       <use xlink:href="#ArialMT-33"/>
       <use xlink:href="#ArialMT-30" x="55.615234"/>
      </g>
     </g>
    </g>
    <g id="text_8">
     <!-- Frequency (Hz) -->
     <g style="fill: #262626" transform="translate(180.059063 284.295469)scale(0.12 -0.12)">
      <defs>
       <path id="ArialMT-46" d="M 525 0 
L 525 4581 
L 3616 4581 
L 3616 4041 
L 1131 4041 
L 1131 2622 
L 3281 2622 
L 3281 2081 
L 1131 2081 
L 1131 0 
L 525 0 
z
" transform="scale(0.015625)"/>
       <path id="ArialMT-72" d="M 416 0 
L 416 3319 
L 922 3319 
L 922 2816 
Q 1116 3169 1280 3281 
Q 1444 3394 1641 3394 
Q 1925 3394 2219 3213 
L 2025 2691 
Q 1819 2813 1613 2813 
Q 1428 2813 1281 2702 
Q 1134 2591 1072 2394 
Q 978 2094 978 1738 
L 978 0 
L 416 0 
z
" transform="scale(0.015625)"/>
       <path id="ArialMT-65" d="M 2694 1069 
L 3275 997 
Q 3138 488 2766 206 
Q 2394 -75 1816 -75 
Q 1088 -75 661 373 
Q 234 822 234 1631 
Q 234 2469 665 2931 
Q 1097 3394 1784 3394 
Q 2450 3394 2872 2941 
Q 3294 2488 3294 1666 
Q 3294 1616 3291 1516 
L 816 1516 
Q 847 969 1125 678 
Q 1403 388 1819 388 
Q 2128 388 2347 550 
Q 2566 713 2694 1069 
z
M 847 1978 
L 2700 1978 
Q 2663 2397 2488 2606 
Q 2219 2931 1791 2931 
Q 1403 2931 1139 2672 
Q 875 2413 847 1978 
z
" transform="scale(0.015625)"/>
       <path id="ArialMT-71" d="M 2538 -1272 
L 2538 353 
Q 2406 169 2170 47 
Q 1934 -75 1669 -75 
Q 1078 -75 651 397 
Q 225 869 225 1691 
Q 225 2191 398 2587 
Q 572 2984 901 3189 
Q 1231 3394 1625 3394 
Q 2241 3394 2594 2875 
L 2594 3319 
L 3100 3319 
L 3100 -1272 
L 2538 -1272 
z
M 803 1669 
Q 803 1028 1072 708 
Q 1341 388 1716 388 
Q 2075 388 2334 692 
Q 2594 997 2594 1619 
Q 2594 2281 2320 2615 
Q 2047 2950 1678 2950 
Q 1313 2950 1058 2639 
Q 803 2328 803 1669 
z
" transform="scale(0.015625)"/>
       <path id="ArialMT-75" d="M 2597 0 
L 2597 488 
Q 2209 -75 1544 -75 
Q 1250 -75 995 37 
Q 741 150 617 320 
Q 494 491 444 738 
Q 409 903 409 1263 
L 409 3319 
L 972 3319 
L 972 1478 
Q 972 1038 1006 884 
Q 1059 663 1231 536 
Q 1403 409 1656 409 
Q 1909 409 2131 539 
Q 2353 669 2445 892 
Q 2538 1116 2538 1541 
L 2538 3319 
L 3100 3319 
L 3100 0 
L 2597 0 
z
" transform="scale(0.015625)"/>
       <path id="ArialMT-6e" d="M 422 0 
L 422 3319 
L 928 3319 
L 928 2847 
Q 1294 3394 1984 3394 
Q 2284 3394 2536 3286 
Q 2788 3178 2913 3003 
Q 3038 2828 3088 2588 
Q 3119 2431 3119 2041 
L 3119 0 
L 2556 0 
L 2556 2019 
Q 2556 2363 2490 2533 
Q 2425 2703 2258 2804 
Q 2091 2906 1866 2906 
Q 1506 2906 1245 2678 
Q 984 2450 984 1813 
L 984 0 
L 422 0 
z
" transform="scale(0.015625)"/>
       <path id="ArialMT-63" d="M 2588 1216 
L 3141 1144 
Q 3050 572 2676 248 
Q 2303 -75 1759 -75 
Q 1078 -75 664 370 
Q 250 816 250 1647 
Q 250 2184 428 2587 
Q 606 2991 970 3192 
Q 1334 3394 1763 3394 
Q 2303 3394 2647 3120 
Q 2991 2847 3088 2344 
L 2541 2259 
Q 2463 2594 2264 2762 
Q 2066 2931 1784 2931 
Q 1359 2931 1093 2626 
Q 828 2322 828 1663 
Q 828 994 1084 691 
Q 1341 388 1753 388 
Q 2084 388 2306 591 
Q 2528 794 2588 1216 
z
" transform="scale(0.015625)"/>
       <path id="ArialMT-79" d="M 397 -1278 
L 334 -750 
Q 519 -800 656 -800 
Q 844 -800 956 -737 
Q 1069 -675 1141 -563 
Q 1194 -478 1313 -144 
Q 1328 -97 1363 -6 
L 103 3319 
L 709 3319 
L 1400 1397 
Q 1534 1031 1641 628 
Q 1738 1016 1872 1384 
L 2581 3319 
L 3144 3319 
L 1881 -56 
Q 1678 -603 1566 -809 
Q 1416 -1088 1222 -1217 
Q 1028 -1347 759 -1347 
Q 597 -1347 397 -1278 
z
" transform="scale(0.015625)"/>
       <path id="ArialMT-20" transform="scale(0.015625)"/>
       <path id="ArialMT-28" d="M 1497 -1347 
Q 1031 -759 709 28 
Q 388 816 388 1659 
Q 388 2403 628 3084 
Q 909 3875 1497 4659 
L 1900 4659 
Q 1522 4009 1400 3731 
Q 1209 3300 1100 2831 
Q 966 2247 966 1656 
Q 966 153 1900 -1347 
L 1497 -1347 
z
" transform="scale(0.015625)"/>
       <path id="ArialMT-48" d="M 513 0 
L 513 4581 
L 1119 4581 
L 1119 2700 
L 3500 2700 
L 3500 4581 
L 4106 4581 
L 4106 0 
L 3500 0 
L 3500 2159 
L 1119 2159 
L 1119 0 
L 513 0 
z
" transform="scale(0.015625)"/>
       <path id="ArialMT-7a" d="M 125 0 
L 125 456 
L 2238 2881 
Q 1878 2863 1603 2863 
L 250 2863 
L 250 3319 
L 2963 3319 
L 2963 2947 
L 1166 841 
L 819 456 
Q 1197 484 1528 484 
L 3063 484 
L 3063 0 
L 125 0 
z
" transform="scale(0.015625)"/>
       <path id="ArialMT-29" d="M 791 -1347 
L 388 -1347 
Q 1322 153 1322 1656 
Q 1322 2244 1188 2822 
Q 1081 3291 891 3722 
Q 769 4003 388 4659 
L 791 4659 
Q 1378 3875 1659 3084 
Q 1900 2403 1900 1659 
Q 1900 816 1576 28 
Q 1253 -759 791 -1347 
z
" transform="scale(0.015625)"/>
      </defs>
      <use xlink:href="#ArialMT-46"/>
      <use xlink:href="#ArialMT-72" x="61.083984"/>
      <use xlink:href="#ArialMT-65" x="94.384766"/>
      <use xlink:href="#ArialMT-71" x="150"/>
      <use xlink:href="#ArialMT-75" x="205.615234"/>
      <use xlink:href="#ArialMT-65" x="261.230469"/>
      <use xlink:href="#ArialMT-6e" x="316.845703"/>
      <use xlink:href="#ArialMT-63" x="372.460938"/>
      <use xlink:href="#ArialMT-79" x="422.460938"/>
      <use xlink:href="#ArialMT-20" x="472.460938"/>
      <use xlink:href="#ArialMT-28" x="500.244141"/>
      <use xlink:href="#ArialMT-48" x="533.544922"/>
      <use xlink:href="#ArialMT-7a" x="605.761719"/>
      <use xlink:href="#ArialMT-29" x="655.761719"/>
     </g>
    </g>
   </g>
   <g id="matplotlib.axis_2">
    <g id="ytick_1">
     <g id="line2d_8">
      <defs>
       <path id="m442d7eac77" d="M 0 0 
L -6 0 
" style="stroke: #262626; stroke-width: 1.25"/>
      </defs>
      <g>
       <use xlink:href="#m442d7eac77" x="54" y="242.116364" style="fill: #262626; stroke: #262626; stroke-width: 1.25"/>
      </g>
     </g>
     <g id="text_9">
      <!-- 0.0 -->
      <g style="fill: #262626" transform="translate(29.21 246.053161)scale(0.11 -0.11)">
       <defs>
        <path id="ArialMT-2e" d="M 581 0 
L 581 641 
L 1222 641 
L 1222 0 
L 581 0 
z
" transform="scale(0.015625)"/>
       </defs>
       <use xlink:href="#ArialMT-30"/>
       <use xlink:href="#ArialMT-2e" x="55.615234"/>
       <use xlink:href="#ArialMT-30" x="83.398438"/>
      </g>
     </g>
    </g>
    <g id="ytick_2">
     <g id="line2d_9">
      <g>
       <use xlink:href="#m442d7eac77" x="54" y="202.581818" style="fill: #262626; stroke: #262626; stroke-width: 1.25"/>
      </g>
     </g>
     <g id="text_10">
      <!-- 0.2 -->
      <g style="fill: #262626" transform="translate(29.21 206.518615)scale(0.11 -0.11)">
       <use xlink:href="#ArialMT-30"/>
       <use xlink:href="#ArialMT-2e" x="55.615234"/>
       <use xlink:href="#ArialMT-32" x="83.398438"/>
      </g>
     </g>
    </g>
    <g id="ytick_3">
     <g id="line2d_10">
      <g>
       <use xlink:href="#m442d7eac77" x="54" y="163.047273" style="fill: #262626; stroke: #262626; stroke-width: 1.25"/>
      </g>
     </g>
     <g id="text_11">
      <!-- 0.4 -->
      <g style="fill: #262626" transform="translate(29.21 166.98407)scale(0.11 -0.11)">
       <defs>
        <path id="ArialMT-34" d="M 2069 0 
L 2069 1097 
L 81 1097 
L 81 1613 
L 2172 4581 
L 2631 4581 
L 2631 1613 
L 3250 1613 
L 3250 1097 
L 2631 1097 
L 2631 0 
L 2069 0 
z
M 2069 1613 
L 2069 3678 
L 634 1613 
L 2069 1613 
z
" transform="scale(0.015625)"/>
       </defs>
       <use xlink:href="#ArialMT-30"/>
       <use xlink:href="#ArialMT-2e" x="55.615234"/>
       <use xlink:href="#ArialMT-34" x="83.398438"/>
      </g>
     </g>
    </g>
    <g id="ytick_4">
     <g id="line2d_11">
      <g>
       <use xlink:href="#m442d7eac77" x="54" y="123.512727" style="fill: #262626; stroke: #262626; stroke-width: 1.25"/>
      </g>
     </g>
     <g id="text_12">
      <!-- 0.6 -->
      <g style="fill: #262626" transform="translate(29.21 127.449524)scale(0.11 -0.11)">
       <defs>
        <path id="ArialMT-36" d="M 3184 3459 
L 2625 3416 
Q 2550 3747 2413 3897 
Q 2184 4138 1850 4138 
Q 1581 4138 1378 3988 
Q 1113 3794 959 3422 
Q 806 3050 800 2363 
Q 1003 2672 1297 2822 
Q 1591 2972 1913 2972 
Q 2475 2972 2870 2558 
Q 3266 2144 3266 1488 
Q 3266 1056 3080 686 
Q 2894 316 2569 119 
Q 2244 -78 1831 -78 
Q 1128 -78 684 439 
Q 241 956 241 2144 
Q 241 3472 731 4075 
Q 1159 4600 1884 4600 
Q 2425 4600 2770 4297 
Q 3116 3994 3184 3459 
z
M 888 1484 
Q 888 1194 1011 928 
Q 1134 663 1356 523 
Q 1578 384 1822 384 
Q 2178 384 2434 671 
Q 2691 959 2691 1453 
Q 2691 1928 2437 2201 
Q 2184 2475 1800 2475 
Q 1419 2475 1153 2201 
Q 888 1928 888 1484 
z
" transform="scale(0.015625)"/>
       </defs>
       <use xlink:href="#ArialMT-30"/>
       <use xlink:href="#ArialMT-2e" x="55.615234"/>
       <use xlink:href="#ArialMT-36" x="83.398438"/>
      </g>
     </g>
    </g>
    <g id="ytick_5">
     <g id="line2d_12">
      <g>
       <use xlink:href="#m442d7eac77" x="54" y="83.978182" style="fill: #262626; stroke: #262626; stroke-width: 1.25"/>
      </g>
     </g>
     <g id="text_13">
      <!-- 0.8 -->
      <g style="fill: #262626" transform="translate(29.21 87.914979)scale(0.11 -0.11)">
       <defs>
        <path id="ArialMT-38" d="M 1131 2484 
Q 781 2613 612 2850 
Q 444 3088 444 3419 
Q 444 3919 803 4259 
Q 1163 4600 1759 4600 
Q 2359 4600 2725 4251 
Q 3091 3903 3091 3403 
Q 3091 3084 2923 2848 
Q 2756 2613 2416 2484 
Q 2838 2347 3058 2040 
Q 3278 1734 3278 1309 
Q 3278 722 2862 322 
Q 2447 -78 1769 -78 
Q 1091 -78 675 323 
Q 259 725 259 1325 
Q 259 1772 486 2073 
Q 713 2375 1131 2484 
z
M 1019 3438 
Q 1019 3113 1228 2906 
Q 1438 2700 1772 2700 
Q 2097 2700 2305 2904 
Q 2513 3109 2513 3406 
Q 2513 3716 2298 3927 
Q 2084 4138 1766 4138 
Q 1444 4138 1231 3931 
Q 1019 3725 1019 3438 
z
M 838 1322 
Q 838 1081 952 856 
Q 1066 631 1291 507 
Q 1516 384 1775 384 
Q 2178 384 2440 643 
Q 2703 903 2703 1303 
Q 2703 1709 2433 1975 
Q 2163 2241 1756 2241 
Q 1359 2241 1098 1978 
Q 838 1716 838 1322 
z
" transform="scale(0.015625)"/>
       </defs>
       <use xlink:href="#ArialMT-30"/>
       <use xlink:href="#ArialMT-2e" x="55.615234"/>
       <use xlink:href="#ArialMT-38" x="83.398438"/>
      </g>
     </g>
    </g>
    <g id="ytick_6">
     <g id="line2d_13">
      <g>
       <use xlink:href="#m442d7eac77" x="54" y="44.443636" style="fill: #262626; stroke: #262626; stroke-width: 1.25"/>
      </g>
     </g>
     <g id="text_14">
      <!-- 1.0 -->
      <g style="fill: #262626" transform="translate(29.21 48.380433)scale(0.11 -0.11)">
       <use xlink:href="#ArialMT-31"/>
       <use xlink:href="#ArialMT-2e" x="55.615234"/>
       <use xlink:href="#ArialMT-30" x="83.398438"/>
      </g>
     </g>
    </g>
   </g>
   <g id="line2d_14">
    <path d="M 54 242.114247 
L 158.985527 242.070585 
L 160.139214 241.961403 
L 161.292901 242.025523 
L 162.446589 241.768799 
L 163.600276 241.949677 
L 164.753963 241.21566 
L 165.90765 241.48406 
L 167.061337 240.631372 
L 168.215024 241.719759 
L 169.368711 240.500572 
L 171.676085 240.96407 
L 172.829773 242.062413 
L 173.98346 241.279577 
L 175.137147 241.744997 
L 176.290834 239.891627 
L 177.444521 241.77035 
L 178.598208 240.363897 
L 179.751895 240.360748 
L 180.905582 241.762671 
L 182.059269 239.771192 
L 183.212957 241.72388 
L 184.366644 241.528272 
L 185.520331 234.509724 
L 186.674018 239.836924 
L 187.827705 236.984412 
L 188.981392 239.06209 
L 190.135079 235.833016 
L 191.288766 233.15171 
L 192.442453 239.579675 
L 193.596141 240.63135 
L 194.749828 239.006393 
L 195.903515 240.817533 
L 197.057202 242.039501 
L 198.210889 242.015071 
L 199.364576 241.47417 
L 200.518263 241.194228 
L 201.67195 241.345085 
L 202.825637 241.997848 
L 203.979325 241.304723 
L 205.133012 242.116243 
L 206.286699 241.888859 
L 208.594073 241.92978 
L 210.901447 241.678573 
L 212.055134 242.050345 
L 213.208822 241.278216 
L 214.362509 242.043755 
L 215.516196 242.022368 
L 216.669883 241.330169 
L 217.82357 241.681019 
L 218.977257 241.91521 
L 220.130944 239.475765 
L 221.284631 236.410531 
L 222.438318 241.964417 
L 223.592006 241.805292 
L 225.89938 198.537876 
L 227.053067 44.443636 
L 228.206754 193.51388 
L 229.360441 236.983991 
L 230.514128 238.681764 
L 231.667815 241.904486 
L 232.821502 240.088013 
L 233.97519 241.587714 
L 235.128877 240.048962 
L 236.282564 241.775342 
L 237.436251 241.298858 
L 238.589938 241.926435 
L 239.743625 242.087001 
L 240.897312 242.037408 
L 242.050999 241.813007 
L 243.204686 242.07964 
L 245.512061 241.92823 
L 246.665748 241.98474 
L 247.819435 241.6016 
L 250.126809 242.055885 
L 255.895245 242.089982 
L 258.202619 241.862239 
L 259.356306 242.105103 
L 260.509993 242.067918 
L 261.66368 241.881035 
L 262.817367 242.046929 
L 263.971054 242.098754 
L 265.124742 242.012584 
L 266.278429 241.715449 
L 267.432116 242.099467 
L 268.585803 242.0163 
L 269.73949 242.100532 
L 270.893177 242.037975 
L 274.354238 242.113076 
L 283.583735 242.114422 
L 433 242.116331 
M 433 242.116363 
L -1 242.116363 
L -1 242.116363 
" clip-path="url(#p89385e1463)" style="fill: none; stroke: #4c72b0; stroke-opacity: 0.3; stroke-width: 1.5; stroke-linecap: round"/>
   </g>
   <g id="line2d_15">
    <path d="M 54 242.115495 
L 152.063405 242.039735 
L 153.217092 241.968408 
L 154.370779 242.097917 
L 155.524466 241.226979 
L 156.678153 242.087039 
L 157.83184 241.582031 
L 158.985527 241.367949 
L 160.139214 232.777806 
L 161.292901 239.806566 
L 162.446589 232.877582 
L 163.600276 241.089933 
L 164.753963 234.572419 
L 165.90765 202.675027 
L 167.061337 124.983161 
L 168.215024 201.498927 
L 169.368711 231.871693 
L 170.522398 187.83068 
L 171.676085 154.649129 
L 172.829773 161.000743 
L 173.98346 145.671284 
L 175.137147 188.736404 
L 176.290834 224.568678 
L 177.444521 203.490769 
L 178.598208 240.531132 
L 179.751895 239.278848 
L 180.905582 158.122992 
L 182.059269 135.55777 
L 183.212957 186.051545 
L 184.366644 186.241593 
L 186.674018 44.443636 
L 187.827705 216.004709 
L 188.981392 196.713578 
L 190.135079 225.35829 
L 191.288766 159.948636 
L 192.442453 219.243314 
L 193.596141 235.833624 
L 194.749828 139.251519 
L 195.903515 210.83945 
L 197.057202 200.302764 
L 198.210889 233.318251 
L 199.364576 215.966915 
L 200.518263 231.330872 
L 201.67195 240.607019 
L 202.825637 215.73551 
L 203.979325 205.538451 
L 205.133012 225.169217 
L 206.286699 239.726302 
L 207.440386 190.269967 
L 208.594073 227.720025 
L 209.74776 231.887491 
L 210.901447 236.60901 
L 212.055134 213.191921 
L 214.362509 238.361821 
L 215.516196 233.475277 
L 216.669883 200.235612 
L 217.82357 241.092985 
L 218.977257 216.678043 
L 220.130944 212.129112 
L 221.284631 227.328229 
L 222.438318 218.565811 
L 223.592006 235.797749 
L 224.745693 181.649064 
L 225.89938 76.732836 
L 227.053067 76.33286 
L 228.206754 152.659334 
L 229.360441 238.454914 
L 230.514128 162.028908 
L 231.667815 194.949322 
L 232.821502 239.717263 
L 233.97519 212.848467 
L 235.128877 241.680614 
L 236.282564 186.291667 
L 237.436251 239.612103 
L 238.589938 203.229212 
L 239.743625 234.294386 
L 242.050999 215.556718 
L 243.204686 235.674071 
L 244.358374 212.431235 
L 245.512061 234.662906 
L 246.665748 229.428334 
L 247.819435 227.312558 
L 248.973122 214.836721 
L 250.126809 240.158766 
L 251.280496 240.29539 
L 252.434183 237.238207 
L 253.58787 240.778646 
L 254.741558 233.788967 
L 255.895245 234.138032 
L 257.048932 211.24588 
L 258.202619 239.616439 
L 259.356306 240.354036 
L 260.509993 236.501714 
L 261.66368 240.913995 
L 262.817367 237.241351 
L 263.971054 236.641935 
L 265.124742 225.351848 
L 266.278429 220.559803 
L 267.432116 240.928381 
L 268.585803 236.557704 
L 269.73949 235.40775 
L 270.893177 237.006502 
L 272.046864 239.954653 
L 273.200551 231.504398 
L 274.354238 237.986193 
L 275.507926 240.210871 
L 276.661613 241.401072 
L 277.8153 239.584305 
L 278.968987 241.398406 
L 280.122674 242.075353 
L 281.276361 241.698889 
L 282.430048 241.025186 
L 283.583735 241.26793 
L 284.737422 241.832893 
L 285.89111 242.054744 
L 287.044797 241.79678 
L 288.198484 242.105901 
L 292.813232 242.054683 
L 322.809097 242.110198 
L 418.565127 242.115375 
L 433 242.115514 
M 433 242.116316 
L -1 242.116316 
L -1 242.116316 
" clip-path="url(#p89385e1463)" style="fill: none; stroke: #dd8452; stroke-opacity: 0.3; stroke-width: 1.5; stroke-linecap: round"/>
   </g>
   <g id="line2d_16">
    <path d="M 54 242.115102 
L 154.370779 242.077348 
L 155.524466 241.971328 
L 157.83184 242.108875 
L 158.985527 242.063204 
L 160.139214 240.636391 
L 161.292901 241.676856 
L 162.446589 240.575939 
L 164.753963 241.016099 
L 165.90765 241.826479 
L 167.061337 236.444371 
L 168.215024 241.093519 
L 169.368711 234.424262 
L 170.522398 242.019792 
L 172.829773 239.389914 
L 173.98346 237.627751 
L 175.137147 239.862438 
L 176.290834 241.566234 
L 177.444521 238.925638 
L 178.598208 239.239268 
L 179.751895 233.708108 
L 180.905582 237.741729 
L 182.059269 236.397383 
L 183.212957 241.854405 
L 184.366644 229.685602 
L 185.520331 228.682045 
L 186.674018 234.106999 
L 187.827705 237.468541 
L 188.981392 233.622258 
L 190.135079 239.312034 
L 191.288766 229.628585 
L 192.442453 228.141159 
L 193.596141 241.438146 
L 194.749828 232.1429 
L 195.903515 238.275437 
L 197.057202 233.11625 
L 198.210889 232.752763 
L 199.364576 238.798168 
L 200.518263 238.802538 
L 201.67195 238.667959 
L 202.825637 240.489713 
L 203.979325 236.98822 
L 205.133012 240.52443 
L 206.286699 234.316334 
L 207.440386 237.972956 
L 208.594073 236.917063 
L 209.74776 237.886822 
L 210.901447 232.950413 
L 212.055134 233.899571 
L 213.208822 239.90153 
L 214.362509 235.43177 
L 215.516196 235.511252 
L 216.669883 241.643527 
L 217.82357 239.667333 
L 218.977257 240.238127 
L 220.130944 229.519056 
L 221.284631 198.053152 
L 222.438318 236.427433 
L 223.592006 232.000002 
L 224.745693 204.556152 
L 225.89938 140.00506 
L 227.053067 44.443636 
L 228.206754 137.413362 
L 229.360441 205.55187 
L 230.514128 231.064511 
L 231.667815 234.237827 
L 232.821502 233.487984 
L 233.97519 239.889094 
L 236.282564 230.733193 
L 237.436251 239.357188 
L 238.589938 242.03147 
L 239.743625 242.001857 
L 240.897312 240.985067 
L 242.050999 241.023816 
L 243.204686 241.47862 
L 244.358374 235.993018 
L 245.512061 241.831972 
L 246.665748 241.492614 
L 247.819435 241.275103 
L 248.973122 236.180764 
L 250.126809 241.802284 
L 251.280496 240.859157 
L 252.434183 237.171168 
L 253.58787 241.772112 
L 254.741558 241.455945 
L 255.895245 239.467333 
L 257.048932 241.605964 
L 258.202619 242.055746 
L 259.356306 239.134739 
L 260.509993 241.591304 
L 261.66368 240.988312 
L 262.817367 242.023308 
L 263.971054 239.818258 
L 265.124742 239.174622 
L 266.278429 242.084156 
L 267.432116 242.055359 
L 268.585803 241.736645 
L 269.73949 240.766325 
L 270.893177 240.878385 
L 272.046864 241.93965 
L 273.200551 240.55988 
L 274.354238 242.102085 
L 275.507926 241.615398 
L 276.661613 242.082007 
L 281.276361 242.029499 
L 282.430048 241.728633 
L 283.583735 242.112441 
L 284.737422 241.821354 
L 285.89111 242.070611 
L 292.813232 242.114066 
L 433 242.116306 
M 433 242.116363 
L -1 242.116363 
L -1 242.116363 
" clip-path="url(#p89385e1463)" style="fill: none; stroke: #55a868; stroke-opacity: 0.3; stroke-width: 1.5; stroke-linecap: round"/>
   </g>
   <g id="line2d_17">
    <path d="M 54 242.112633 
L 152.063405 242.03538 
L 153.217092 241.920243 
L 154.370779 241.668534 
L 155.524466 241.249938 
L 156.678153 240.358637 
L 157.83184 238.958912 
L 158.985527 236.536465 
L 160.139214 232.987899 
L 161.292901 227.484811 
L 162.446589 220.172287 
L 163.600276 208.62895 
L 164.753963 194.910001 
L 165.90765 179.091802 
L 168.215024 137.594133 
L 169.368711 123.314493 
L 170.522398 101.836449 
L 171.676085 92.176819 
L 172.829773 77.59908 
L 173.98346 71.954194 
L 175.137147 63.399127 
L 176.290834 55.675677 
L 177.444521 53.677896 
L 178.598208 44.443636 
L 179.751895 47.251149 
L 180.905582 46.700782 
L 182.059269 57.707252 
L 183.212957 60.267053 
L 184.366644 66.430192 
L 185.520331 65.749682 
L 186.674018 73.386537 
L 187.827705 68.690323 
L 188.981392 81.896693 
L 190.135079 82.442615 
L 191.288766 88.876777 
L 192.442453 96.089449 
L 193.596141 95.991598 
L 194.749828 105.288762 
L 195.903515 100.36676 
L 197.057202 106.819509 
L 198.210889 106.768352 
L 199.364576 109.474777 
L 200.518263 103.781144 
L 201.67195 103.997217 
L 202.825637 105.695581 
L 203.979325 112.763885 
L 205.133012 110.226155 
L 206.286699 114.380206 
L 207.440386 114.327446 
L 208.594073 114.907896 
L 209.74776 115.88569 
L 210.901447 119.987473 
L 212.055134 120.741414 
L 213.208822 122.658333 
L 214.362509 124.844093 
L 215.516196 129.707703 
L 216.669883 131.779236 
L 217.82357 136.130751 
L 218.977257 135.429833 
L 221.284631 145.092873 
L 222.438318 140.706739 
L 223.592006 143.487217 
L 224.745693 148.484194 
L 225.89938 154.02827 
L 227.053067 114.222951 
L 228.206754 142.989024 
L 229.360441 143.637125 
L 230.514128 148.66443 
L 231.667815 145.505913 
L 232.821502 149.825734 
L 233.97519 149.451433 
L 235.128877 150.923614 
L 236.282564 155.68477 
L 237.436251 153.7269 
L 238.589938 158.568342 
L 239.743625 156.209877 
L 240.897312 155.429672 
L 242.050999 156.233907 
L 244.358374 160.322772 
L 245.512061 158.965185 
L 246.665748 162.592704 
L 247.819435 163.746941 
L 248.973122 164.361062 
L 250.126809 165.437086 
L 251.280496 167.824558 
L 252.434183 167.580541 
L 253.58787 169.961823 
L 254.741558 170.068517 
L 255.895245 173.216587 
L 257.048932 173.216057 
L 258.202619 174.983253 
L 259.356306 176.252952 
L 261.66368 180.785433 
L 262.817367 181.696976 
L 263.971054 183.485778 
L 265.124742 188.016498 
L 266.278429 191.031127 
L 268.585803 199.236066 
L 269.73949 202.388321 
L 270.893177 206.738638 
L 272.046864 210.051806 
L 274.354238 219.146121 
L 276.661613 226.050562 
L 278.968987 231.286592 
L 280.122674 233.68589 
L 282.430048 236.957583 
L 284.737422 239.118781 
L 287.044797 240.365311 
L 289.352171 241.129267 
L 291.659545 241.523438 
L 295.120606 241.832915 
L 302.042729 242.053898 
L 313.5796 242.115621 
L 433 242.115709 
M 433 242.116298 
L -1 242.116298 
L -1 242.116298 
" clip-path="url(#p89385e1463)" style="fill: none; stroke: #c44e52; stroke-opacity: 0.3; stroke-width: 1.5; stroke-linecap: round"/>
   </g>
   <g id="line2d_18">
    <path d="M 54 242.112259 
L 152.063405 242.036267 
L 153.217092 241.914324 
L 154.370779 241.667534 
L 155.524466 241.189982 
L 156.678153 240.361956 
L 157.83184 238.870469 
L 158.985527 236.586663 
L 160.139214 232.655855 
L 161.292901 227.245485 
L 162.446589 218.68842 
L 163.600276 208.036523 
L 165.90765 177.558354 
L 168.215024 139.087441 
L 169.368711 118.294479 
L 170.522398 102.107258 
L 171.676085 84.237579 
L 172.829773 71.786417 
L 173.98346 60.613469 
L 175.137147 52.054204 
L 176.290834 50.652045 
L 177.444521 44.443636 
L 178.598208 46.740301 
L 179.751895 44.677094 
L 180.905582 51.365676 
L 182.059269 49.597421 
L 183.212957 56.023482 
L 184.366644 56.197659 
L 185.520331 64.314541 
L 186.674018 65.290271 
L 187.827705 75.251753 
L 188.981392 76.49147 
L 190.135079 83.78821 
L 191.288766 85.883584 
L 192.442453 88.366664 
L 193.596141 92.174487 
L 194.749828 94.1224 
L 195.903515 98.486098 
L 197.057202 98.963064 
L 198.210889 100.417182 
L 200.518263 104.626515 
L 201.67195 104.208575 
L 202.825637 107.005008 
L 203.979325 106.020612 
L 205.133012 108.865736 
L 206.286699 107.194889 
L 207.440386 110.866532 
L 208.594073 112.685269 
L 209.74776 115.273405 
L 210.901447 116.875307 
L 212.055134 119.627284 
L 213.208822 121.724496 
L 214.362509 125.81665 
L 215.516196 125.693011 
L 216.669883 129.250415 
L 218.977257 132.463555 
L 220.130944 133.517896 
L 221.284631 135.068299 
L 222.438318 138.7462 
L 223.592006 139.236981 
L 224.745693 139.561427 
L 225.89938 139.311081 
L 227.053067 142.833967 
L 228.206754 140.775539 
L 229.360441 142.886032 
L 230.514128 142.779167 
L 231.667815 147.416809 
L 232.821502 146.541101 
L 233.97519 148.059485 
L 235.128877 149.373066 
L 236.282564 152.03052 
L 237.436251 152.49033 
L 238.589938 151.643696 
L 239.743625 153.719274 
L 242.050999 157.215312 
L 244.358374 159.696026 
L 245.512061 161.551455 
L 246.665748 161.730301 
L 247.819435 161.505172 
L 248.973122 163.28354 
L 250.126809 164.831056 
L 251.280496 164.461466 
L 252.434183 165.808736 
L 253.58787 165.815576 
L 254.741558 168.919155 
L 255.895245 169.064049 
L 257.048932 170.235144 
L 258.202619 172.528585 
L 260.509993 175.595006 
L 261.66368 177.465242 
L 263.971054 184.086563 
L 265.124742 187.008193 
L 266.278429 190.434716 
L 269.73949 202.470381 
L 270.893177 206.382871 
L 272.046864 210.819411 
L 273.200551 214.796983 
L 277.8153 228.499742 
L 278.968987 231.162963 
L 281.276361 235.278612 
L 283.583735 237.995039 
L 284.737422 238.930643 
L 285.89111 239.708248 
L 288.198484 240.72042 
L 290.505858 241.302855 
L 292.813232 241.64169 
L 296.274294 241.891645 
L 303.196416 242.071177 
L 317.040662 242.114361 
L 433 242.115673 
M 433 242.116293 
L -1 242.116293 
L -1 242.116293 
" clip-path="url(#p89385e1463)" style="fill: none; stroke: #8172b3; stroke-opacity: 0.3; stroke-width: 1.5; stroke-linecap: round"/>
   </g>
   <g id="line2d_19">
    <path d="M 54 242.112186 
L 152.063405 242.032015 
L 153.217092 241.921565 
L 154.370779 241.67502 
L 155.524466 241.230134 
L 156.678153 240.359727 
L 157.83184 238.978667 
L 158.985527 236.45629 
L 160.139214 233.116533 
L 162.446589 220.184097 
L 164.753963 195.294378 
L 169.368711 119.63464 
L 170.522398 96.975514 
L 171.676085 87.429604 
L 172.829773 73.932837 
L 173.98346 65.36451 
L 175.137147 62.173514 
L 176.290834 49.519183 
L 177.444521 54.460666 
L 178.598208 45.936045 
L 179.751895 50.257742 
L 180.905582 44.443636 
L 182.059269 53.4746 
L 183.212957 55.104302 
L 184.366644 63.779552 
L 185.520331 61.499179 
L 186.674018 73.493595 
L 187.827705 68.928579 
L 188.981392 80.485651 
L 190.135079 79.40012 
L 191.288766 87.133982 
L 192.442453 91.762396 
L 193.596141 93.115126 
L 194.749828 98.560145 
L 195.903515 96.509895 
L 197.057202 101.832806 
L 198.210889 103.694292 
L 199.364576 104.381421 
L 200.518263 103.768412 
L 201.67195 106.909098 
L 202.825637 102.772036 
L 203.979325 111.0039 
L 205.133012 109.306444 
L 206.286699 116.293081 
L 207.440386 113.515159 
L 208.594073 114.11728 
L 209.74776 113.616947 
L 210.901447 116.762594 
L 212.055134 119.31173 
L 213.208822 121.264918 
L 214.362509 121.120868 
L 215.516196 128.421141 
L 216.669883 128.601546 
L 217.82357 131.708901 
L 218.977257 133.407979 
L 220.130944 136.683016 
L 221.284631 138.07546 
L 222.438318 136.540364 
L 223.592006 139.580006 
L 224.745693 145.000596 
L 225.89938 143.860866 
L 227.053067 148.790974 
L 228.206754 145.620736 
L 229.360441 147.954861 
L 230.514128 149.001473 
L 231.667815 145.259139 
L 232.821502 147.649054 
L 233.97519 147.543123 
L 235.128877 147.680411 
L 236.282564 146.597058 
L 237.436251 148.535982 
L 238.589938 153.976808 
L 239.743625 153.261661 
L 240.897312 153.836183 
L 242.050999 155.504781 
L 243.204686 156.666845 
L 244.358374 158.106001 
L 245.512061 158.758544 
L 247.819435 165.902336 
L 248.973122 165.599373 
L 250.126809 166.492295 
L 251.280496 170.095458 
L 252.434183 171.192142 
L 253.58787 172.485875 
L 254.741558 170.909386 
L 255.895245 173.439807 
L 257.048932 174.158398 
L 258.202619 173.731177 
L 259.356306 175.031787 
L 260.509993 177.958475 
L 261.66368 180.051546 
L 262.817367 180.64866 
L 263.971054 181.882245 
L 265.124742 185.750931 
L 267.432116 192.40812 
L 272.046864 209.523291 
L 274.354238 218.969193 
L 276.661613 226.194009 
L 280.122674 233.734303 
L 282.430048 236.962399 
L 284.737422 239.079441 
L 287.044797 240.362733 
L 289.352171 241.109669 
L 291.659545 241.505202 
L 295.120606 241.82523 
L 300.889042 242.033826 
L 310.118539 242.113275 
L 407.028256 242.115565 
L 433 242.115684 
M 433 242.116294 
L -1 242.116294 
L -1 242.116294 
" clip-path="url(#p89385e1463)" style="fill: none; stroke: #937860; stroke-opacity: 0.3; stroke-width: 1.5; stroke-linecap: round"/>
   </g>
   <g id="line2d_20">
    <path d="M 54 242.114863 
L 158.985527 242.039417 
L 160.139214 241.96524 
L 162.446589 241.422853 
L 163.600276 242.074317 
L 164.753963 241.930233 
L 165.90765 241.169461 
L 167.061337 241.952025 
L 168.215024 240.835515 
L 169.368711 242.072149 
L 170.522398 240.482311 
L 171.676085 241.672863 
L 172.829773 241.930689 
L 173.98346 241.5957 
L 175.137147 239.447404 
L 176.290834 241.139513 
L 177.444521 241.307492 
L 178.598208 242.076337 
L 179.751895 240.718012 
L 180.905582 241.391348 
L 182.059269 241.935199 
L 183.212957 241.550376 
L 184.366644 241.534374 
L 185.520331 240.121585 
L 186.674018 238.969203 
L 187.827705 238.231086 
L 188.981392 238.156151 
L 190.135079 242.021584 
L 191.288766 240.530463 
L 192.442453 240.606004 
L 193.596141 240.228506 
L 194.749828 239.726612 
L 195.903515 241.525875 
L 197.057202 241.677849 
L 199.364576 240.523042 
L 200.518263 240.477602 
L 201.67195 242.10176 
L 202.825637 241.611481 
L 203.979325 242.041657 
L 205.133012 241.854854 
L 206.286699 241.284162 
L 207.440386 241.208224 
L 208.594073 241.949219 
L 209.74776 241.740278 
L 210.901447 241.219575 
L 212.055134 241.804182 
L 213.208822 240.914109 
L 214.362509 241.680105 
L 217.82357 240.993868 
L 218.977257 242.062792 
L 220.130944 240.855809 
L 221.284631 239.067415 
L 222.438318 241.804074 
L 223.592006 241.837068 
L 224.745693 222.083697 
L 225.89938 194.157981 
L 227.053067 44.443636 
L 228.206754 186.39886 
L 229.360441 231.797679 
L 230.514128 230.211327 
L 231.667815 241.488405 
L 232.821502 238.641327 
L 233.97519 241.844538 
L 235.128877 240.449638 
L 236.282564 240.956003 
L 238.589938 241.186723 
L 239.743625 241.549814 
L 240.897312 241.497967 
L 242.050999 241.95134 
L 243.204686 242.112875 
L 246.665748 241.691671 
L 247.819435 242.109951 
L 250.126809 241.963608 
L 252.434183 242.056444 
L 254.741558 242.012535 
L 257.048932 241.558441 
L 258.202619 242.044258 
L 259.356306 241.901376 
L 260.509993 242.101965 
L 261.66368 241.748097 
L 262.817367 241.981116 
L 263.971054 242.078136 
L 265.124742 241.968897 
L 272.046864 242.116103 
L 274.354238 242.096209 
L 288.198484 242.115949 
L 388.569263 242.116288 
L 433 242.116322 
M 433 242.116364 
L -1 242.116364 
L -1 242.116364 
" clip-path="url(#p89385e1463)" style="fill: none; stroke: #da8bc3; stroke-opacity: 0.3; stroke-width: 1.5; stroke-linecap: round"/>
   </g>
   <g id="line2d_21">
    <path d="M 54 242.115753 
L 156.678153 242.062828 
L 157.83184 241.957463 
L 158.985527 242.107738 
L 160.139214 241.996182 
L 163.600276 242.070429 
L 164.753963 239.966943 
L 165.90765 241.829692 
L 167.061337 239.956081 
L 169.368711 241.544697 
L 170.522398 241.699703 
L 171.676085 240.382855 
L 172.829773 242.076422 
L 173.98346 239.760243 
L 175.137147 240.846243 
L 176.290834 239.998469 
L 177.444521 237.945848 
L 178.598208 237.671884 
L 179.751895 234.375478 
L 180.905582 240.692138 
L 182.059269 237.932357 
L 183.212957 241.459285 
L 184.366644 232.84983 
L 185.520331 235.293423 
L 186.674018 230.992384 
L 187.827705 241.767009 
L 188.981392 233.181673 
L 190.135079 238.472282 
L 191.288766 224.87359 
L 192.442453 238.377393 
L 193.596141 240.912004 
L 194.749828 232.46095 
L 195.903515 236.284451 
L 197.057202 241.622656 
L 198.210889 241.109355 
L 199.364576 238.977746 
L 200.518263 240.258759 
L 201.67195 237.191027 
L 202.825637 239.375144 
L 203.979325 238.470712 
L 205.133012 238.642934 
L 206.286699 238.43623 
L 207.440386 236.211712 
L 208.594073 240.810498 
L 209.74776 241.75045 
L 210.901447 239.163605 
L 212.055134 239.548539 
L 213.208822 241.836518 
L 214.362509 239.439346 
L 215.516196 237.855942 
L 216.669883 242.039681 
L 217.82357 238.296338 
L 218.977257 238.343622 
L 220.130944 237.936753 
L 221.284631 233.922359 
L 222.438318 238.433 
L 223.592006 239.076253 
L 224.745693 228.269975 
L 225.89938 162.047772 
L 227.053067 44.443636 
L 228.206754 207.731344 
L 229.360441 236.695336 
L 230.514128 233.907879 
L 231.667815 234.590235 
L 233.97519 242.080778 
L 235.128877 240.016007 
L 236.282564 241.532181 
L 238.589938 241.845554 
L 239.743625 239.532279 
L 240.897312 238.576174 
L 242.050999 241.091252 
L 243.204686 241.002337 
L 244.358374 240.7104 
L 245.512061 241.557008 
L 246.665748 241.069812 
L 247.819435 241.373896 
L 248.973122 240.304337 
L 250.126809 241.450032 
L 251.280496 241.959697 
L 252.434183 241.817 
L 253.58787 241.951261 
L 254.741558 240.648836 
L 255.895245 239.917058 
L 258.202619 241.686533 
L 259.356306 241.937068 
L 260.509993 242.020823 
L 261.66368 241.028818 
L 262.817367 240.941854 
L 265.124742 241.971144 
L 266.278429 242.100628 
L 267.432116 240.755075 
L 268.585803 241.930221 
L 270.893177 241.733189 
L 272.046864 241.556072 
L 273.200551 241.913084 
L 276.661613 241.888587 
L 277.8153 242.012168 
L 280.122674 241.975472 
L 281.276361 241.928249 
L 283.583735 242.048118 
L 298.581668 242.109363 
L 340.114404 242.116073 
L 433 242.116285 
M 433 242.116359 
L -1 242.116359 
L -1 242.116359 
" clip-path="url(#p89385e1463)" style="fill: none; stroke: #8c8c8c; stroke-opacity: 0.3; stroke-width: 1.5; stroke-linecap: round"/>
   </g>
   <g id="line2d_22">
    <path d="M 54 242.112039 
L 153.217092 242.015439 
L 156.678153 241.94755 
L 157.83184 240.899685 
L 158.985527 241.026054 
L 160.139214 241.564164 
L 161.292901 240.059849 
L 162.446589 240.858561 
L 163.600276 240.104686 
L 164.753963 231.310125 
L 165.90765 225.984018 
L 167.061337 235.34797 
L 168.215024 231.297064 
L 169.368711 239.630138 
L 170.522398 211.637796 
L 171.676085 216.23977 
L 172.829773 185.368532 
L 173.98346 179.134721 
L 175.137147 208.960912 
L 176.290834 203.99498 
L 177.444521 197.011467 
L 178.598208 207.034898 
L 179.751895 210.458342 
L 180.905582 200.88249 
L 182.059269 197.545396 
L 183.212957 189.3999 
L 184.366644 184.014864 
L 185.520331 207.871353 
L 186.674018 196.548904 
L 187.827705 219.823427 
L 188.981392 226.984953 
L 190.135079 241.466704 
L 191.288766 171.930312 
L 192.442453 225.491016 
L 193.596141 210.534931 
L 194.749828 231.345793 
L 195.903515 230.651901 
L 197.057202 238.353113 
L 198.210889 190.127111 
L 199.364576 219.159572 
L 200.518263 203.401152 
L 201.67195 229.056898 
L 202.825637 183.605287 
L 203.979325 210.577101 
L 205.133012 150.752456 
L 206.286699 167.837062 
L 207.440386 187.099663 
L 208.594073 195.89323 
L 209.74776 208.30569 
L 210.901447 188.70367 
L 212.055134 233.556329 
L 213.208822 223.419109 
L 214.362509 94.644721 
L 215.516196 202.088198 
L 216.669883 220.758568 
L 217.82357 190.474387 
L 218.977257 176.583083 
L 220.130944 180.100943 
L 221.284631 227.678125 
L 222.438318 209.673129 
L 223.592006 200.165799 
L 224.745693 230.830428 
L 225.89938 81.531689 
L 227.053067 44.443636 
L 228.206754 234.555918 
L 229.360441 133.946489 
L 230.514128 196.671234 
L 231.667815 232.606705 
L 232.821502 221.491898 
L 235.128877 192.434037 
L 236.282564 236.865236 
L 237.436251 214.046688 
L 238.589938 200.959066 
L 239.743625 220.708079 
L 240.897312 225.874101 
L 242.050999 202.603686 
L 243.204686 210.921345 
L 244.358374 215.216852 
L 245.512061 230.102773 
L 246.665748 216.641058 
L 247.819435 234.61611 
L 248.973122 229.73477 
L 250.126809 220.939463 
L 251.280496 218.47313 
L 252.434183 222.862799 
L 253.58787 229.838651 
L 254.741558 215.470224 
L 255.895245 210.813764 
L 257.048932 226.514741 
L 258.202619 222.575934 
L 259.356306 225.705557 
L 260.509993 221.913494 
L 261.66368 204.706905 
L 262.817367 232.723581 
L 263.971054 229.379626 
L 265.124742 222.448129 
L 266.278429 216.860259 
L 267.432116 218.46536 
L 268.585803 214.929419 
L 269.73949 221.36886 
L 270.893177 218.806244 
L 272.046864 226.870641 
L 273.200551 233.723818 
L 274.354238 239.393899 
L 275.507926 235.062398 
L 276.661613 234.987465 
L 277.8153 237.060553 
L 278.968987 235.931543 
L 280.122674 237.471871 
L 281.276361 239.746805 
L 282.430048 240.925299 
L 283.583735 240.242549 
L 284.737422 240.095805 
L 285.89111 241.171573 
L 288.198484 241.327978 
L 289.352171 241.863166 
L 307.811165 242.101656 
L 433 242.115968 
M 433 242.116362 
L -1 242.116362 
L -1 242.116362 
" clip-path="url(#p89385e1463)" style="fill: none; stroke: #ccb974; stroke-opacity: 0.3; stroke-width: 1.5; stroke-linecap: round"/>
   </g>
   <g id="line2d_23">
    <path d="M 54 242.114576 
L 158.985527 242.070462 
L 160.139214 241.814086 
L 162.446589 241.94375 
L 163.600276 241.771042 
L 164.753963 241.137973 
L 165.90765 240.650818 
L 167.061337 241.783692 
L 168.215024 240.847363 
L 169.368711 239.371506 
L 170.522398 241.803588 
L 171.676085 241.004397 
L 172.829773 240.065802 
L 173.98346 241.136553 
L 175.137147 242.041214 
L 176.290834 240.950708 
L 177.444521 242.088893 
L 178.598208 241.888244 
L 179.751895 240.719244 
L 180.905582 238.201246 
L 182.059269 240.888402 
L 183.212957 242.031738 
L 184.366644 241.29195 
L 185.520331 239.158154 
L 186.674018 240.584911 
L 187.827705 234.852883 
L 188.981392 240.488441 
L 190.135079 241.010725 
L 191.288766 240.880633 
L 192.442453 241.828328 
L 193.596141 241.173206 
L 194.749828 241.754907 
L 195.903515 241.136105 
L 197.057202 242.044059 
L 198.210889 241.830307 
L 199.364576 241.914473 
L 200.518263 240.81301 
L 201.67195 241.767448 
L 203.979325 242.00539 
L 205.133012 241.270778 
L 206.286699 241.005504 
L 207.440386 241.623301 
L 208.594073 241.942448 
L 209.74776 241.436104 
L 210.901447 241.856694 
L 212.055134 242.023673 
L 213.208822 241.229449 
L 214.362509 241.919366 
L 215.516196 241.554288 
L 216.669883 241.941523 
L 217.82357 241.145223 
L 218.977257 239.974455 
L 220.130944 240.822531 
L 221.284631 236.303591 
L 222.438318 241.803035 
L 223.592006 242.045567 
L 224.745693 231.11836 
L 225.89938 209.242194 
L 227.053067 44.443636 
L 228.206754 198.593224 
L 229.360441 232.935275 
L 230.514128 238.198037 
L 231.667815 241.953684 
L 232.821502 241.520341 
L 233.97519 241.920641 
L 235.128877 241.168968 
L 236.282564 241.607542 
L 237.436251 240.903441 
L 238.589938 241.911559 
L 239.743625 242.058583 
L 242.050999 241.685917 
L 243.204686 242.093715 
L 244.358374 241.930611 
L 245.512061 241.988525 
L 246.665748 241.918871 
L 247.819435 241.534033 
L 250.126809 242.062435 
L 252.434183 242.063493 
L 253.58787 241.989444 
L 255.895245 242.107799 
L 257.048932 241.797425 
L 258.202619 242.083499 
L 259.356306 242.098292 
L 260.509993 241.48579 
L 261.66368 242.073891 
L 262.817367 241.958824 
L 265.124742 242.045389 
L 266.278429 241.522141 
L 267.432116 242.026099 
L 268.585803 242.102744 
L 269.73949 241.933824 
L 270.893177 242.098012 
L 274.354238 242.070159 
L 277.8153 242.094604 
L 306.657478 242.115899 
L 433 242.116338 
M 433 242.116364 
L -1 242.116364 
L -1 242.116364 
" clip-path="url(#p89385e1463)" style="fill: none; stroke: #64b5cd; stroke-opacity: 0.3; stroke-width: 1.5; stroke-linecap: round"/>
   </g>
   <g id="line2d_24">
    <path d="M 54 242.116089 
L 154.370779 242.110785 
L 155.524466 241.838171 
L 156.678153 241.9892 
L 157.83184 241.675557 
L 158.985527 241.216331 
L 160.139214 237.820898 
L 161.292901 241.756199 
L 162.446589 239.417923 
L 163.600276 241.229693 
L 164.753963 238.556973 
L 165.90765 198.275665 
L 167.061337 209.854331 
L 168.215024 219.800017 
L 169.368711 232.588164 
L 170.522398 229.305718 
L 171.676085 240.634328 
L 172.829773 239.180863 
L 173.98346 227.894858 
L 175.137147 232.443953 
L 176.290834 230.202056 
L 177.444521 228.320351 
L 178.598208 220.852738 
L 179.751895 231.981241 
L 180.905582 234.305481 
L 182.059269 191.321392 
L 183.212957 235.465521 
L 184.366644 224.607914 
L 185.520331 199.501808 
L 186.674018 219.820603 
L 187.827705 234.109079 
L 188.981392 240.75486 
L 190.135079 229.054163 
L 191.288766 220.039485 
L 192.442453 236.949947 
L 193.596141 239.57386 
L 194.749828 237.842419 
L 195.903515 229.471564 
L 197.057202 236.556293 
L 198.210889 234.730845 
L 199.364576 240.454455 
L 200.518263 235.934825 
L 201.67195 239.371851 
L 202.825637 241.318589 
L 203.979325 221.375558 
L 205.133012 233.17872 
L 206.286699 240.089658 
L 207.440386 235.076438 
L 208.594073 241.431913 
L 209.74776 242.003073 
L 210.901447 241.951287 
L 212.055134 236.77858 
L 213.208822 239.118492 
L 214.362509 231.091637 
L 215.516196 241.064291 
L 216.669883 231.744193 
L 217.82357 240.084936 
L 218.977257 236.710446 
L 220.130944 235.120829 
L 221.284631 229.844936 
L 222.438318 241.966737 
L 223.592006 230.326345 
L 224.745693 228.723096 
L 225.89938 203.905226 
L 227.053067 44.443636 
L 228.206754 193.298685 
L 229.360441 235.762183 
L 230.514128 233.782211 
L 231.667815 239.17679 
L 232.821502 238.023206 
L 233.97519 236.363972 
L 235.128877 237.97422 
L 236.282564 240.807813 
L 237.436251 239.617727 
L 238.589938 237.844453 
L 239.743625 233.505349 
L 240.897312 241.201004 
L 242.050999 238.646722 
L 243.204686 238.347594 
L 244.358374 234.870406 
L 245.512061 229.685004 
L 246.665748 236.884791 
L 247.819435 229.349703 
L 248.973122 240.551934 
L 251.280496 240.144744 
L 252.434183 225.55264 
L 253.58787 236.157753 
L 254.741558 233.802248 
L 255.895245 237.259674 
L 257.048932 241.714338 
L 258.202619 230.340198 
L 259.356306 241.647652 
L 260.509993 236.445799 
L 261.66368 241.084853 
L 262.817367 241.986004 
L 263.971054 241.783313 
L 265.124742 241.943162 
L 266.278429 236.891056 
L 267.432116 238.639435 
L 268.585803 239.739189 
L 269.73949 240.344137 
L 270.893177 241.075936 
L 272.046864 240.945731 
L 273.200551 238.513358 
L 274.354238 241.468495 
L 275.507926 241.862841 
L 277.8153 241.607792 
L 278.968987 242.01343 
L 280.122674 241.345504 
L 281.276361 242.108144 
L 282.430048 241.889851 
L 283.583735 242.10564 
L 307.811165 242.113027 
L 433 242.11595 
M 433 242.116335 
L -1 242.116335 
L -1 242.116335 
" clip-path="url(#p89385e1463)" style="fill: none; stroke: #4c72b0; stroke-opacity: 0.3; stroke-width: 1.5; stroke-linecap: round"/>
   </g>
   <g id="line2d_25">
    <path d="M 54 242.115288 
L 155.524466 242.082807 
L 156.678153 241.908541 
L 157.83184 242.108458 
L 158.985527 241.351447 
L 160.139214 239.350759 
L 161.292901 241.728554 
L 162.446589 239.668755 
L 163.600276 241.421145 
L 164.753963 239.811611 
L 165.90765 238.870303 
L 167.061337 235.384298 
L 168.215024 215.306012 
L 169.368711 237.505506 
L 170.522398 241.635619 
L 171.676085 241.756279 
L 172.829773 238.045258 
L 173.98346 237.931393 
L 175.137147 233.848365 
L 176.290834 215.45264 
L 177.444521 224.014977 
L 178.598208 218.729009 
L 179.751895 221.075279 
L 180.905582 240.555617 
L 182.059269 204.5941 
L 183.212957 237.490939 
L 184.366644 227.857486 
L 185.520331 226.449634 
L 186.674018 218.419634 
L 187.827705 203.277016 
L 188.981392 235.196121 
L 190.135079 237.637022 
L 191.288766 180.804201 
L 192.442453 238.986509 
L 193.596141 230.568323 
L 194.749828 233.905769 
L 195.903515 221.482782 
L 197.057202 232.845444 
L 198.210889 240.871197 
L 199.364576 214.966428 
L 200.518263 227.021989 
L 201.67195 217.56157 
L 202.825637 231.353545 
L 203.979325 205.476234 
L 205.133012 231.576578 
L 206.286699 237.708252 
L 207.440386 208.461408 
L 208.594073 240.650496 
L 209.74776 240.068389 
L 210.901447 242.057685 
L 212.055134 235.997819 
L 213.208822 233.584436 
L 214.362509 241.767504 
L 215.516196 241.819286 
L 216.669883 219.015573 
L 217.82357 232.907477 
L 218.977257 238.286532 
L 220.130944 230.802892 
L 221.284631 235.775728 
L 222.438318 231.322988 
L 223.592006 232.376884 
L 224.745693 234.507413 
L 225.89938 44.443636 
L 227.053067 92.019785 
L 228.206754 197.149171 
L 229.360441 239.449986 
L 230.514128 237.080111 
L 231.667815 234.071158 
L 232.821502 242.09044 
L 233.97519 234.473272 
L 235.128877 236.798102 
L 237.436251 238.194469 
L 238.589938 237.112534 
L 239.743625 236.464451 
L 242.050999 241.818543 
L 243.204686 239.702695 
L 244.358374 233.506044 
L 245.512061 234.177407 
L 246.665748 239.2346 
L 247.819435 224.073265 
L 248.973122 233.906507 
L 250.126809 241.712161 
L 251.280496 234.118774 
L 252.434183 235.648032 
L 253.58787 241.47861 
L 254.741558 236.854449 
L 257.048932 241.365666 
L 258.202619 240.099305 
L 259.356306 241.062422 
L 260.509993 238.693107 
L 261.66368 241.081456 
L 262.817367 238.65504 
L 263.971054 238.624202 
L 265.124742 241.344935 
L 266.278429 241.321005 
L 267.432116 239.541022 
L 269.73949 241.950227 
L 272.046864 241.765245 
L 273.200551 238.71262 
L 274.354238 241.611042 
L 275.507926 241.515603 
L 276.661613 242.036191 
L 277.8153 241.695579 
L 278.968987 241.796466 
L 280.122674 241.448741 
L 281.276361 242.113061 
L 433 242.115371 
M 433 242.116298 
L -1 242.116298 
L -1 242.116298 
" clip-path="url(#p89385e1463)" style="fill: none; stroke: #dd8452; stroke-opacity: 0.3; stroke-width: 1.5; stroke-linecap: round"/>
   </g>
   <g id="patch_3">
    <path d="M 54 252 
L 54 34.56 
" style="fill: none; stroke: #262626; stroke-width: 1.25; stroke-linejoin: miter; stroke-linecap: square"/>
   </g>
   <g id="patch_4">
    <path d="M 388.8 252 
L 388.8 34.56 
" style="fill: none; stroke: #262626; stroke-width: 1.25; stroke-linejoin: miter; stroke-linecap: square"/>
   </g>
   <g id="patch_5">
    <path d="M 54 252 
L 388.8 252 
" style="fill: none; stroke: #262626; stroke-width: 1.25; stroke-linejoin: miter; stroke-linecap: square"/>
   </g>
   <g id="patch_6">
    <path d="M 54 34.56 
L 388.8 34.56 
" style="fill: none; stroke: #262626; stroke-width: 1.25; stroke-linejoin: miter; stroke-linecap: square"/>
   </g>
   <g id="text_15">
    <!-- patient14_app04 - Power spectrum -->
    <g style="fill: #262626" transform="translate(128.0175 28.56)scale(0.12 -0.12)">
     <defs>
      <path id="ArialMT-70" d="M 422 -1272 
L 422 3319 
L 934 3319 
L 934 2888 
Q 1116 3141 1344 3267 
Q 1572 3394 1897 3394 
Q 2322 3394 2647 3175 
Q 2972 2956 3137 2557 
Q 3303 2159 3303 1684 
Q 3303 1175 3120 767 
Q 2938 359 2589 142 
Q 2241 -75 1856 -75 
Q 1575 -75 1351 44 
Q 1128 163 984 344 
L 984 -1272 
L 422 -1272 
z
M 931 1641 
Q 931 1000 1190 694 
Q 1450 388 1819 388 
Q 2194 388 2461 705 
Q 2728 1022 2728 1688 
Q 2728 2322 2467 2637 
Q 2206 2953 1844 2953 
Q 1484 2953 1207 2617 
Q 931 2281 931 1641 
z
" transform="scale(0.015625)"/>
      <path id="ArialMT-61" d="M 2588 409 
Q 2275 144 1986 34 
Q 1697 -75 1366 -75 
Q 819 -75 525 192 
Q 231 459 231 875 
Q 231 1119 342 1320 
Q 453 1522 633 1644 
Q 813 1766 1038 1828 
Q 1203 1872 1538 1913 
Q 2219 1994 2541 2106 
Q 2544 2222 2544 2253 
Q 2544 2597 2384 2738 
Q 2169 2928 1744 2928 
Q 1347 2928 1158 2789 
Q 969 2650 878 2297 
L 328 2372 
Q 403 2725 575 2942 
Q 747 3159 1072 3276 
Q 1397 3394 1825 3394 
Q 2250 3394 2515 3294 
Q 2781 3194 2906 3042 
Q 3031 2891 3081 2659 
Q 3109 2516 3109 2141 
L 3109 1391 
Q 3109 606 3145 398 
Q 3181 191 3288 0 
L 2700 0 
Q 2613 175 2588 409 
z
M 2541 1666 
Q 2234 1541 1622 1453 
Q 1275 1403 1131 1340 
Q 988 1278 909 1158 
Q 831 1038 831 891 
Q 831 666 1001 516 
Q 1172 366 1500 366 
Q 1825 366 2078 508 
Q 2331 650 2450 897 
Q 2541 1088 2541 1459 
L 2541 1666 
z
" transform="scale(0.015625)"/>
      <path id="ArialMT-74" d="M 1650 503 
L 1731 6 
Q 1494 -44 1306 -44 
Q 1000 -44 831 53 
Q 663 150 594 308 
Q 525 466 525 972 
L 525 2881 
L 113 2881 
L 113 3319 
L 525 3319 
L 525 4141 
L 1084 4478 
L 1084 3319 
L 1650 3319 
L 1650 2881 
L 1084 2881 
L 1084 941 
Q 1084 700 1114 631 
Q 1144 563 1211 522 
Q 1278 481 1403 481 
Q 1497 481 1650 503 
z
" transform="scale(0.015625)"/>
      <path id="ArialMT-69" d="M 425 3934 
L 425 4581 
L 988 4581 
L 988 3934 
L 425 3934 
z
M 425 0 
L 425 3319 
L 988 3319 
L 988 0 
L 425 0 
z
" transform="scale(0.015625)"/>
      <path id="ArialMT-5f" d="M -97 -1272 
L -97 -866 
L 3631 -866 
L 3631 -1272 
L -97 -1272 
z
" transform="scale(0.015625)"/>
      <path id="ArialMT-2d" d="M 203 1375 
L 203 1941 
L 1931 1941 
L 1931 1375 
L 203 1375 
z
" transform="scale(0.015625)"/>
      <path id="ArialMT-50" d="M 494 0 
L 494 4581 
L 2222 4581 
Q 2678 4581 2919 4538 
Q 3256 4481 3484 4323 
Q 3713 4166 3852 3881 
Q 3991 3597 3991 3256 
Q 3991 2672 3619 2267 
Q 3247 1863 2275 1863 
L 1100 1863 
L 1100 0 
L 494 0 
z
M 1100 2403 
L 2284 2403 
Q 2872 2403 3119 2622 
Q 3366 2841 3366 3238 
Q 3366 3525 3220 3729 
Q 3075 3934 2838 4000 
Q 2684 4041 2272 4041 
L 1100 4041 
L 1100 2403 
z
" transform="scale(0.015625)"/>
      <path id="ArialMT-6f" d="M 213 1659 
Q 213 2581 725 3025 
Q 1153 3394 1769 3394 
Q 2453 3394 2887 2945 
Q 3322 2497 3322 1706 
Q 3322 1066 3130 698 
Q 2938 331 2570 128 
Q 2203 -75 1769 -75 
Q 1072 -75 642 372 
Q 213 819 213 1659 
z
M 791 1659 
Q 791 1022 1069 705 
Q 1347 388 1769 388 
Q 2188 388 2466 706 
Q 2744 1025 2744 1678 
Q 2744 2294 2464 2611 
Q 2184 2928 1769 2928 
Q 1347 2928 1069 2612 
Q 791 2297 791 1659 
z
" transform="scale(0.015625)"/>
      <path id="ArialMT-77" d="M 1034 0 
L 19 3319 
L 600 3319 
L 1128 1403 
L 1325 691 
Q 1338 744 1497 1375 
L 2025 3319 
L 2603 3319 
L 3100 1394 
L 3266 759 
L 3456 1400 
L 4025 3319 
L 4572 3319 
L 3534 0 
L 2950 0 
L 2422 1988 
L 2294 2553 
L 1622 0 
L 1034 0 
z
" transform="scale(0.015625)"/>
      <path id="ArialMT-73" d="M 197 991 
L 753 1078 
Q 800 744 1014 566 
Q 1228 388 1613 388 
Q 2000 388 2187 545 
Q 2375 703 2375 916 
Q 2375 1106 2209 1216 
Q 2094 1291 1634 1406 
Q 1016 1563 777 1677 
Q 538 1791 414 1992 
Q 291 2194 291 2438 
Q 291 2659 392 2848 
Q 494 3038 669 3163 
Q 800 3259 1026 3326 
Q 1253 3394 1513 3394 
Q 1903 3394 2198 3281 
Q 2494 3169 2634 2976 
Q 2775 2784 2828 2463 
L 2278 2388 
Q 2241 2644 2061 2787 
Q 1881 2931 1553 2931 
Q 1166 2931 1000 2803 
Q 834 2675 834 2503 
Q 834 2394 903 2306 
Q 972 2216 1119 2156 
Q 1203 2125 1616 2013 
Q 2213 1853 2448 1751 
Q 2684 1650 2818 1456 
Q 2953 1263 2953 975 
Q 2953 694 2789 445 
Q 2625 197 2315 61 
Q 2006 -75 1616 -75 
Q 969 -75 630 194 
Q 291 463 197 991 
z
" transform="scale(0.015625)"/>
      <path id="ArialMT-6d" d="M 422 0 
L 422 3319 
L 925 3319 
L 925 2853 
Q 1081 3097 1340 3245 
Q 1600 3394 1931 3394 
Q 2300 3394 2536 3241 
Q 2772 3088 2869 2813 
Q 3263 3394 3894 3394 
Q 4388 3394 4653 3120 
Q 4919 2847 4919 2278 
L 4919 0 
L 4359 0 
L 4359 2091 
Q 4359 2428 4304 2576 
Q 4250 2725 4106 2815 
Q 3963 2906 3769 2906 
Q 3419 2906 3187 2673 
Q 2956 2441 2956 1928 
L 2956 0 
L 2394 0 
L 2394 2156 
Q 2394 2531 2256 2718 
Q 2119 2906 1806 2906 
Q 1569 2906 1367 2781 
Q 1166 2656 1075 2415 
Q 984 2175 984 1722 
L 984 0 
L 422 0 
z
" transform="scale(0.015625)"/>
     </defs>
     <use xlink:href="#ArialMT-70"/>
     <use xlink:href="#ArialMT-61" x="55.615234"/>
     <use xlink:href="#ArialMT-74" x="111.230469"/>
     <use xlink:href="#ArialMT-69" x="139.013672"/>
     <use xlink:href="#ArialMT-65" x="161.230469"/>
     <use xlink:href="#ArialMT-6e" x="216.845703"/>
     <use xlink:href="#ArialMT-74" x="272.460938"/>
     <use xlink:href="#ArialMT-31" x="300.244141"/>
     <use xlink:href="#ArialMT-34" x="355.859375"/>
     <use xlink:href="#ArialMT-5f" x="411.474609"/>
     <use xlink:href="#ArialMT-61" x="467.089844"/>
     <use xlink:href="#ArialMT-70" x="522.705078"/>
     <use xlink:href="#ArialMT-70" x="578.320312"/>
     <use xlink:href="#ArialMT-30" x="633.935547"/>
     <use xlink:href="#ArialMT-34" x="689.550781"/>
     <use xlink:href="#ArialMT-20" x="745.166016"/>
     <use xlink:href="#ArialMT-2d" x="772.949219"/>
     <use xlink:href="#ArialMT-20" x="806.25"/>
     <use xlink:href="#ArialMT-50" x="834.033203"/>
     <use xlink:href="#ArialMT-6f" x="900.732422"/>
     <use xlink:href="#ArialMT-77" x="956.347656"/>
     <use xlink:href="#ArialMT-65" x="1028.564453"/>
     <use xlink:href="#ArialMT-72" x="1084.179688"/>
     <use xlink:href="#ArialMT-20" x="1117.480469"/>
     <use xlink:href="#ArialMT-73" x="1145.263672"/>
     <use xlink:href="#ArialMT-70" x="1195.263672"/>
     <use xlink:href="#ArialMT-65" x="1250.878906"/>
     <use xlink:href="#ArialMT-63" x="1306.494141"/>
     <use xlink:href="#ArialMT-74" x="1356.494141"/>
     <use xlink:href="#ArialMT-72" x="1384.277344"/>
     <use xlink:href="#ArialMT-75" x="1417.578125"/>
     <use xlink:href="#ArialMT-6d" x="1473.193359"/>
    </g>
   </g>
  </g>
 </g>
 <defs>
  <clipPath id="p89385e1463">
   <rect x="54" y="34.56" width="334.8" height="217.44"/>
  </clipPath>
 </defs>
</svg>
