<?xml version="1.0" encoding="utf-8" standalone="no"?>
<!DOCTYPE svg PUBLIC "-//W3C//DTD SVG 1.1//EN"
  "http://www.w3.org/Graphics/SVG/1.1/DTD/svg11.dtd">
<svg xmlns:xlink="http://www.w3.org/1999/xlink" width="432pt" height="288pt" viewBox="0 0 432 288" xmlns="http://www.w3.org/2000/svg" version="1.1">
 <metadata>
  <rdf:RDF xmlns:dc="http://purl.org/dc/elements/1.1/" xmlns:cc="http://creativecommons.org/ns#" xmlns:rdf="http://www.w3.org/1999/02/22-rdf-syntax-ns#">
   <cc:Work>
    <dc:type rdf:resource="http://purl.org/dc/dcmitype/StillImage"/>
    <dc:date>2022-07-08T13:41:48.489487</dc:date>
    <dc:format>image/svg+xml</dc:format>
    <dc:creator>
     <cc:Agent>
      <dc:title>Matplotlib v3.5.1, https://matplotlib.org/</dc:title>
     </cc:Agent>
    </dc:creator>
   </cc:Work>
  </rdf:RDF>
 </metadata>
 <defs>
  <style type="text/css">*{stroke-linejoin: round; stroke-linecap: butt}</style>
 </defs>
 <g id="figure_1">
  <g id="patch_1">
   <path d="M 0 288 
L 432 288 
L 432 0 
L 0 0 
z
" style="fill: #ffffff"/>
  </g>
  <g id="axes_1">
   <g id="patch_2">
    <path d="M 54 252 
L 388.8 252 
L 388.8 34.56 
L 54 34.56 
z
" style="fill: #ffffff"/>
   </g>
   <g id="matplotlib.axis_1">
    <g id="xtick_1">
     <g id="line2d_1">
      <defs>
       <path id="m11ac955091" d="M 0 0 
L 0 6 
" style="stroke: #262626; stroke-width: 1.25"/>
      </defs>
      <g>
       <use xlink:href="#m11ac955091" x="54" y="252" style="fill: #262626; stroke: #262626; stroke-width: 1.25"/>
      </g>
     </g>
     <g id="text_1">
      <!-- 0 -->
      <g style="fill: #262626" transform="translate(50.941484 269.373594)scale(0.11 -0.11)">
       <defs>
        <path id="ArialMT-30" d="M 266 2259 
Q 266 3072 433 3567 
Q 600 4063 929 4331 
Q 1259 4600 1759 4600 
Q 2128 4600 2406 4451 
Q 2684 4303 2865 4023 
Q 3047 3744 3150 3342 
Q 3253 2941 3253 2259 
Q 3253 1453 3087 958 
Q 2922 463 2592 192 
Q 2263 -78 1759 -78 
Q 1097 -78 719 397 
Q 266 969 266 2259 
z
M 844 2259 
Q 844 1131 1108 757 
Q 1372 384 1759 384 
Q 2147 384 2411 759 
Q 2675 1134 2675 2259 
Q 2675 3391 2411 3762 
Q 2147 4134 1753 4134 
Q 1366 4134 1134 3806 
Q 844 3388 844 2259 
z
" transform="scale(0.015625)"/>
       </defs>
       <use xlink:href="#ArialMT-30"/>
      </g>
     </g>
    </g>
    <g id="xtick_2">
     <g id="line2d_2">
      <g>
       <use xlink:href="#m11ac955091" x="109.8" y="252" style="fill: #262626; stroke: #262626; stroke-width: 1.25"/>
      </g>
     </g>
     <g id="text_2">
      <!-- 5 -->
      <g style="fill: #262626" transform="translate(106.741484 269.373594)scale(0.11 -0.11)">
       <defs>
        <path id="ArialMT-35" d="M 266 1200 
L 856 1250 
Q 922 819 1161 601 
Q 1400 384 1738 384 
Q 2144 384 2425 690 
Q 2706 997 2706 1503 
Q 2706 1984 2436 2262 
Q 2166 2541 1728 2541 
Q 1456 2541 1237 2417 
Q 1019 2294 894 2097 
L 366 2166 
L 809 4519 
L 3088 4519 
L 3088 3981 
L 1259 3981 
L 1013 2750 
Q 1425 3038 1878 3038 
Q 2478 3038 2890 2622 
Q 3303 2206 3303 1553 
Q 3303 931 2941 478 
Q 2500 -78 1738 -78 
Q 1113 -78 717 272 
Q 322 622 266 1200 
z
" transform="scale(0.015625)"/>
       </defs>
       <use xlink:href="#ArialMT-35"/>
      </g>
     </g>
    </g>
    <g id="xtick_3">
     <g id="line2d_3">
      <g>
       <use xlink:href="#m11ac955091" x="165.6" y="252" style="fill: #262626; stroke: #262626; stroke-width: 1.25"/>
      </g>
     </g>
     <g id="text_3">
      <!-- 10 -->
      <g style="fill: #262626" transform="translate(159.482969 269.373594)scale(0.11 -0.11)">
       <defs>
        <path id="ArialMT-31" d="M 2384 0 
L 1822 0 
L 1822 3584 
Q 1619 3391 1289 3197 
Q 959 3003 697 2906 
L 697 3450 
Q 1169 3672 1522 3987 
Q 1875 4303 2022 4600 
L 2384 4600 
L 2384 0 
z
" transform="scale(0.015625)"/>
       </defs>
       <use xlink:href="#ArialMT-31"/>
       <use xlink:href="#ArialMT-30" x="55.615234"/>
      </g>
     </g>
    </g>
    <g id="xtick_4">
     <g id="line2d_4">
      <g>
       <use xlink:href="#m11ac955091" x="221.4" y="252" style="fill: #262626; stroke: #262626; stroke-width: 1.25"/>
      </g>
     </g>
     <g id="text_4">
      <!-- 15 -->
      <g style="fill: #262626" transform="translate(215.282969 269.373594)scale(0.11 -0.11)">
       <use xlink:href="#ArialMT-31"/>
       <use xlink:href="#ArialMT-35" x="55.615234"/>
      </g>
     </g>
    </g>
    <g id="xtick_5">
     <g id="line2d_5">
      <g>
       <use xlink:href="#m11ac955091" x="277.2" y="252" style="fill: #262626; stroke: #262626; stroke-width: 1.25"/>
      </g>
     </g>
     <g id="text_5">
      <!-- 20 -->
      <g style="fill: #262626" transform="translate(271.082969 269.373594)scale(0.11 -0.11)">
       <defs>
        <path id="ArialMT-32" d="M 3222 541 
L 3222 0 
L 194 0 
Q 188 203 259 391 
Q 375 700 629 1000 
Q 884 1300 1366 1694 
Q 2113 2306 2375 2664 
Q 2638 3022 2638 3341 
Q 2638 3675 2398 3904 
Q 2159 4134 1775 4134 
Q 1369 4134 1125 3890 
Q 881 3647 878 3216 
L 300 3275 
Q 359 3922 746 4261 
Q 1134 4600 1788 4600 
Q 2447 4600 2831 4234 
Q 3216 3869 3216 3328 
Q 3216 3053 3103 2787 
Q 2991 2522 2730 2228 
Q 2469 1934 1863 1422 
Q 1356 997 1212 845 
Q 1069 694 975 541 
L 3222 541 
z
" transform="scale(0.015625)"/>
       </defs>
       <use xlink:href="#ArialMT-32"/>
       <use xlink:href="#ArialMT-30" x="55.615234"/>
      </g>
     </g>
    </g>
    <g id="xtick_6">
     <g id="line2d_6">
      <g>
       <use xlink:href="#m11ac955091" x="333" y="252" style="fill: #262626; stroke: #262626; stroke-width: 1.25"/>
      </g>
     </g>
     <g id="text_6">
      <!-- 25 -->
      <g style="fill: #262626" transform="translate(326.882969 269.373594)scale(0.11 -0.11)">
       <use xlink:href="#ArialMT-32"/>
       <use xlink:href="#ArialMT-35" x="55.615234"/>
      </g>
     </g>
    </g>
    <g id="xtick_7">
     <g id="line2d_7">
      <g>
       <use xlink:href="#m11ac955091" x="388.8" y="252" style="fill: #262626; stroke: #262626; stroke-width: 1.25"/>
      </g>
     </g>
     <g id="text_7">
      <!-- 30 -->
      <g style="fill: #262626" transform="translate(382.682969 269.373594)scale(0.11 -0.11)">
       <defs>
        <path id="ArialMT-33" d="M 269 1209 
L 831 1284 
Q 928 806 1161 595 
Q 1394 384 1728 384 
Q 2125 384 2398 659 
Q 2672 934 2672 1341 
Q 2672 1728 2419 1979 
Q 2166 2231 1775 2231 
Q 1616 2231 1378 2169 
L 1441 2663 
Q 1497 2656 1531 2656 
Q 1891 2656 2178 2843 
Q 2466 3031 2466 3422 
Q 2466 3731 2256 3934 
Q 2047 4138 1716 4138 
Q 1388 4138 1169 3931 
Q 950 3725 888 3313 
L 325 3413 
Q 428 3978 793 4289 
Q 1159 4600 1703 4600 
Q 2078 4600 2393 4439 
Q 2709 4278 2876 4000 
Q 3044 3722 3044 3409 
Q 3044 3113 2884 2869 
Q 2725 2625 2413 2481 
Q 2819 2388 3044 2092 
Q 3269 1797 3269 1353 
Q 3269 753 2831 336 
Q 2394 -81 1725 -81 
Q 1122 -81 723 278 
Q 325 638 269 1209 
z
" transform="scale(0.015625)"/>
       </defs>
       <use xlink:href="#ArialMT-33"/>
       <use xlink:href="#ArialMT-30" x="55.615234"/>
      </g>
     </g>
    </g>
    <g id="text_8">
     <!-- Frequency (Hz) -->
     <g style="fill: #262626" transform="translate(180.059063 284.295469)scale(0.12 -0.12)">
      <defs>
       <path id="ArialMT-46" d="M 525 0 
L 525 4581 
L 3616 4581 
L 3616 4041 
L 1131 4041 
L 1131 2622 
L 3281 2622 
L 3281 2081 
L 1131 2081 
L 1131 0 
L 525 0 
z
" transform="scale(0.015625)"/>
       <path id="ArialMT-72" d="M 416 0 
L 416 3319 
L 922 3319 
L 922 2816 
Q 1116 3169 1280 3281 
Q 1444 3394 1641 3394 
Q 1925 3394 2219 3213 
L 2025 2691 
Q 1819 2813 1613 2813 
Q 1428 2813 1281 2702 
Q 1134 2591 1072 2394 
Q 978 2094 978 1738 
L 978 0 
L 416 0 
z
" transform="scale(0.015625)"/>
       <path id="ArialMT-65" d="M 2694 1069 
L 3275 997 
Q 3138 488 2766 206 
Q 2394 -75 1816 -75 
Q 1088 -75 661 373 
Q 234 822 234 1631 
Q 234 2469 665 2931 
Q 1097 3394 1784 3394 
Q 2450 3394 2872 2941 
Q 3294 2488 3294 1666 
Q 3294 1616 3291 1516 
L 816 1516 
Q 847 969 1125 678 
Q 1403 388 1819 388 
Q 2128 388 2347 550 
Q 2566 713 2694 1069 
z
M 847 1978 
L 2700 1978 
Q 2663 2397 2488 2606 
Q 2219 2931 1791 2931 
Q 1403 2931 1139 2672 
Q 875 2413 847 1978 
z
" transform="scale(0.015625)"/>
       <path id="ArialMT-71" d="M 2538 -1272 
L 2538 353 
Q 2406 169 2170 47 
Q 1934 -75 1669 -75 
Q 1078 -75 651 397 
Q 225 869 225 1691 
Q 225 2191 398 2587 
Q 572 2984 901 3189 
Q 1231 3394 1625 3394 
Q 2241 3394 2594 2875 
L 2594 3319 
L 3100 3319 
L 3100 -1272 
L 2538 -1272 
z
M 803 1669 
Q 803 1028 1072 708 
Q 1341 388 1716 388 
Q 2075 388 2334 692 
Q 2594 997 2594 1619 
Q 2594 2281 2320 2615 
Q 2047 2950 1678 2950 
Q 1313 2950 1058 2639 
Q 803 2328 803 1669 
z
" transform="scale(0.015625)"/>
       <path id="ArialMT-75" d="M 2597 0 
L 2597 488 
Q 2209 -75 1544 -75 
Q 1250 -75 995 37 
Q 741 150 617 320 
Q 494 491 444 738 
Q 409 903 409 1263 
L 409 3319 
L 972 3319 
L 972 1478 
Q 972 1038 1006 884 
Q 1059 663 1231 536 
Q 1403 409 1656 409 
Q 1909 409 2131 539 
Q 2353 669 2445 892 
Q 2538 1116 2538 1541 
L 2538 3319 
L 3100 3319 
L 3100 0 
L 2597 0 
z
" transform="scale(0.015625)"/>
       <path id="ArialMT-6e" d="M 422 0 
L 422 3319 
L 928 3319 
L 928 2847 
Q 1294 3394 1984 3394 
Q 2284 3394 2536 3286 
Q 2788 3178 2913 3003 
Q 3038 2828 3088 2588 
Q 3119 2431 3119 2041 
L 3119 0 
L 2556 0 
L 2556 2019 
Q 2556 2363 2490 2533 
Q 2425 2703 2258 2804 
Q 2091 2906 1866 2906 
Q 1506 2906 1245 2678 
Q 984 2450 984 1813 
L 984 0 
L 422 0 
z
" transform="scale(0.015625)"/>
       <path id="ArialMT-63" d="M 2588 1216 
L 3141 1144 
Q 3050 572 2676 248 
Q 2303 -75 1759 -75 
Q 1078 -75 664 370 
Q 250 816 250 1647 
Q 250 2184 428 2587 
Q 606 2991 970 3192 
Q 1334 3394 1763 3394 
Q 2303 3394 2647 3120 
Q 2991 2847 3088 2344 
L 2541 2259 
Q 2463 2594 2264 2762 
Q 2066 2931 1784 2931 
Q 1359 2931 1093 2626 
Q 828 2322 828 1663 
Q 828 994 1084 691 
Q 1341 388 1753 388 
Q 2084 388 2306 591 
Q 2528 794 2588 1216 
z
" transform="scale(0.015625)"/>
       <path id="ArialMT-79" d="M 397 -1278 
L 334 -750 
Q 519 -800 656 -800 
Q 844 -800 956 -737 
Q 1069 -675 1141 -563 
Q 1194 -478 1313 -144 
Q 1328 -97 1363 -6 
L 103 3319 
L 709 3319 
L 1400 1397 
Q 1534 1031 1641 628 
Q 1738 1016 1872 1384 
L 2581 3319 
L 3144 3319 
L 1881 -56 
Q 1678 -603 1566 -809 
Q 1416 -1088 1222 -1217 
Q 1028 -1347 759 -1347 
Q 597 -1347 397 -1278 
z
" transform="scale(0.015625)"/>
       <path id="ArialMT-20" transform="scale(0.015625)"/>
       <path id="ArialMT-28" d="M 1497 -1347 
Q 1031 -759 709 28 
Q 388 816 388 1659 
Q 388 2403 628 3084 
Q 909 3875 1497 4659 
L 1900 4659 
Q 1522 4009 1400 3731 
Q 1209 3300 1100 2831 
Q 966 2247 966 1656 
Q 966 153 1900 -1347 
L 1497 -1347 
z
" transform="scale(0.015625)"/>
       <path id="ArialMT-48" d="M 513 0 
L 513 4581 
L 1119 4581 
L 1119 2700 
L 3500 2700 
L 3500 4581 
L 4106 4581 
L 4106 0 
L 3500 0 
L 3500 2159 
L 1119 2159 
L 1119 0 
L 513 0 
z
" transform="scale(0.015625)"/>
       <path id="ArialMT-7a" d="M 125 0 
L 125 456 
L 2238 2881 
Q 1878 2863 1603 2863 
L 250 2863 
L 250 3319 
L 2963 3319 
L 2963 2947 
L 1166 841 
L 819 456 
Q 1197 484 1528 484 
L 3063 484 
L 3063 0 
L 125 0 
z
" transform="scale(0.015625)"/>
       <path id="ArialMT-29" d="M 791 -1347 
L 388 -1347 
Q 1322 153 1322 1656 
Q 1322 2244 1188 2822 
Q 1081 3291 891 3722 
Q 769 4003 388 4659 
L 791 4659 
Q 1378 3875 1659 3084 
Q 1900 2403 1900 1659 
Q 1900 816 1576 28 
Q 1253 -759 791 -1347 
z
" transform="scale(0.015625)"/>
      </defs>
      <use xlink:href="#ArialMT-46"/>
      <use xlink:href="#ArialMT-72" x="61.083984"/>
      <use xlink:href="#ArialMT-65" x="94.384766"/>
      <use xlink:href="#ArialMT-71" x="150"/>
      <use xlink:href="#ArialMT-75" x="205.615234"/>
      <use xlink:href="#ArialMT-65" x="261.230469"/>
      <use xlink:href="#ArialMT-6e" x="316.845703"/>
      <use xlink:href="#ArialMT-63" x="372.460938"/>
      <use xlink:href="#ArialMT-79" x="422.460938"/>
      <use xlink:href="#ArialMT-20" x="472.460938"/>
      <use xlink:href="#ArialMT-28" x="500.244141"/>
      <use xlink:href="#ArialMT-48" x="533.544922"/>
      <use xlink:href="#ArialMT-7a" x="605.761719"/>
      <use xlink:href="#ArialMT-29" x="655.761719"/>
     </g>
    </g>
   </g>
   <g id="matplotlib.axis_2">
    <g id="ytick_1">
     <g id="line2d_8">
      <defs>
       <path id="mfde82524da" d="M 0 0 
L -6 0 
" style="stroke: #262626; stroke-width: 1.25"/>
      </defs>
      <g>
       <use xlink:href="#mfde82524da" x="54" y="242.116364" style="fill: #262626; stroke: #262626; stroke-width: 1.25"/>
      </g>
     </g>
     <g id="text_9">
      <!-- 0.0 -->
      <g style="fill: #262626" transform="translate(29.21 246.053161)scale(0.11 -0.11)">
       <defs>
        <path id="ArialMT-2e" d="M 581 0 
L 581 641 
L 1222 641 
L 1222 0 
L 581 0 
z
" transform="scale(0.015625)"/>
       </defs>
       <use xlink:href="#ArialMT-30"/>
       <use xlink:href="#ArialMT-2e" x="55.615234"/>
       <use xlink:href="#ArialMT-30" x="83.398438"/>
      </g>
     </g>
    </g>
    <g id="ytick_2">
     <g id="line2d_9">
      <g>
       <use xlink:href="#mfde82524da" x="54" y="202.581818" style="fill: #262626; stroke: #262626; stroke-width: 1.25"/>
      </g>
     </g>
     <g id="text_10">
      <!-- 0.2 -->
      <g style="fill: #262626" transform="translate(29.21 206.518615)scale(0.11 -0.11)">
       <use xlink:href="#ArialMT-30"/>
       <use xlink:href="#ArialMT-2e" x="55.615234"/>
       <use xlink:href="#ArialMT-32" x="83.398438"/>
      </g>
     </g>
    </g>
    <g id="ytick_3">
     <g id="line2d_10">
      <g>
       <use xlink:href="#mfde82524da" x="54" y="163.047273" style="fill: #262626; stroke: #262626; stroke-width: 1.25"/>
      </g>
     </g>
     <g id="text_11">
      <!-- 0.4 -->
      <g style="fill: #262626" transform="translate(29.21 166.98407)scale(0.11 -0.11)">
       <defs>
        <path id="ArialMT-34" d="M 2069 0 
L 2069 1097 
L 81 1097 
L 81 1613 
L 2172 4581 
L 2631 4581 
L 2631 1613 
L 3250 1613 
L 3250 1097 
L 2631 1097 
L 2631 0 
L 2069 0 
z
M 2069 1613 
L 2069 3678 
L 634 1613 
L 2069 1613 
z
" transform="scale(0.015625)"/>
       </defs>
       <use xlink:href="#ArialMT-30"/>
       <use xlink:href="#ArialMT-2e" x="55.615234"/>
       <use xlink:href="#ArialMT-34" x="83.398438"/>
      </g>
     </g>
    </g>
    <g id="ytick_4">
     <g id="line2d_11">
      <g>
       <use xlink:href="#mfde82524da" x="54" y="123.512727" style="fill: #262626; stroke: #262626; stroke-width: 1.25"/>
      </g>
     </g>
     <g id="text_12">
      <!-- 0.6 -->
      <g style="fill: #262626" transform="translate(29.21 127.449524)scale(0.11 -0.11)">
       <defs>
        <path id="ArialMT-36" d="M 3184 3459 
L 2625 3416 
Q 2550 3747 2413 3897 
Q 2184 4138 1850 4138 
Q 1581 4138 1378 3988 
Q 1113 3794 959 3422 
Q 806 3050 800 2363 
Q 1003 2672 1297 2822 
Q 1591 2972 1913 2972 
Q 2475 2972 2870 2558 
Q 3266 2144 3266 1488 
Q 3266 1056 3080 686 
Q 2894 316 2569 119 
Q 2244 -78 1831 -78 
Q 1128 -78 684 439 
Q 241 956 241 2144 
Q 241 3472 731 4075 
Q 1159 4600 1884 4600 
Q 2425 4600 2770 4297 
Q 3116 3994 3184 3459 
z
M 888 1484 
Q 888 1194 1011 928 
Q 1134 663 1356 523 
Q 1578 384 1822 384 
Q 2178 384 2434 671 
Q 2691 959 2691 1453 
Q 2691 1928 2437 2201 
Q 2184 2475 1800 2475 
Q 1419 2475 1153 2201 
Q 888 1928 888 1484 
z
" transform="scale(0.015625)"/>
       </defs>
       <use xlink:href="#ArialMT-30"/>
       <use xlink:href="#ArialMT-2e" x="55.615234"/>
       <use xlink:href="#ArialMT-36" x="83.398438"/>
      </g>
     </g>
    </g>
    <g id="ytick_5">
     <g id="line2d_12">
      <g>
       <use xlink:href="#mfde82524da" x="54" y="83.978182" style="fill: #262626; stroke: #262626; stroke-width: 1.25"/>
      </g>
     </g>
     <g id="text_13">
      <!-- 0.8 -->
      <g style="fill: #262626" transform="translate(29.21 87.914979)scale(0.11 -0.11)">
       <defs>
        <path id="ArialMT-38" d="M 1131 2484 
Q 781 2613 612 2850 
Q 444 3088 444 3419 
Q 444 3919 803 4259 
Q 1163 4600 1759 4600 
Q 2359 4600 2725 4251 
Q 3091 3903 3091 3403 
Q 3091 3084 2923 2848 
Q 2756 2613 2416 2484 
Q 2838 2347 3058 2040 
Q 3278 1734 3278 1309 
Q 3278 722 2862 322 
Q 2447 -78 1769 -78 
Q 1091 -78 675 323 
Q 259 725 259 1325 
Q 259 1772 486 2073 
Q 713 2375 1131 2484 
z
M 1019 3438 
Q 1019 3113 1228 2906 
Q 1438 2700 1772 2700 
Q 2097 2700 2305 2904 
Q 2513 3109 2513 3406 
Q 2513 3716 2298 3927 
Q 2084 4138 1766 4138 
Q 1444 4138 1231 3931 
Q 1019 3725 1019 3438 
z
M 838 1322 
Q 838 1081 952 856 
Q 1066 631 1291 507 
Q 1516 384 1775 384 
Q 2178 384 2440 643 
Q 2703 903 2703 1303 
Q 2703 1709 2433 1975 
Q 2163 2241 1756 2241 
Q 1359 2241 1098 1978 
Q 838 1716 838 1322 
z
" transform="scale(0.015625)"/>
       </defs>
       <use xlink:href="#ArialMT-30"/>
       <use xlink:href="#ArialMT-2e" x="55.615234"/>
       <use xlink:href="#ArialMT-38" x="83.398438"/>
      </g>
     </g>
    </g>
    <g id="ytick_6">
     <g id="line2d_13">
      <g>
       <use xlink:href="#mfde82524da" x="54" y="44.443636" style="fill: #262626; stroke: #262626; stroke-width: 1.25"/>
      </g>
     </g>
     <g id="text_14">
      <!-- 1.0 -->
      <g style="fill: #262626" transform="translate(29.21 48.380433)scale(0.11 -0.11)">
       <use xlink:href="#ArialMT-31"/>
       <use xlink:href="#ArialMT-2e" x="55.615234"/>
       <use xlink:href="#ArialMT-30" x="83.398438"/>
      </g>
     </g>
    </g>
   </g>
   <g id="line2d_14">
    <path d="M 54 242.092667 
L 157.83184 242.091446 
L 158.985527 241.870182 
L 161.292901 242.013049 
L 162.446589 241.208084 
L 164.753963 241.695627 
L 165.90765 239.071195 
L 167.061337 239.831283 
L 168.215024 241.523836 
L 169.368711 204.347033 
L 170.522398 240.268293 
L 171.676085 233.363754 
L 172.829773 221.945913 
L 173.98346 238.109069 
L 175.137147 222.496101 
L 176.290834 239.892848 
L 177.444521 239.515675 
L 178.598208 238.95715 
L 179.751895 229.079206 
L 180.905582 241.443999 
L 182.059269 239.647402 
L 183.212957 235.423766 
L 184.366644 230.016239 
L 185.520331 225.181446 
L 186.674018 223.051546 
L 187.827705 222.146013 
L 188.981392 240.272099 
L 190.135079 225.315425 
L 191.288766 233.169902 
L 192.442453 231.116943 
L 193.596141 200.208076 
L 194.749828 210.017859 
L 195.903515 240.133235 
L 197.057202 240.708382 
L 198.210889 235.516386 
L 199.364576 241.376557 
L 200.518263 240.719614 
L 202.825637 234.820504 
L 203.979325 241.168035 
L 205.133012 235.212241 
L 206.286699 236.75619 
L 207.440386 240.159021 
L 208.594073 234.699825 
L 209.74776 239.296271 
L 210.901447 241.556885 
L 212.055134 241.886054 
L 213.208822 239.504357 
L 214.362509 239.755412 
L 215.516196 241.138317 
L 216.669883 235.280911 
L 217.82357 236.787303 
L 218.977257 239.076936 
L 220.130944 240.274254 
L 221.284631 227.467696 
L 222.438318 238.449678 
L 223.592006 241.924025 
L 224.745693 207.189878 
L 225.89938 205.677862 
L 227.053067 44.443636 
L 228.206754 191.799361 
L 229.360441 231.915317 
L 230.514128 228.26164 
L 231.667815 240.32225 
L 232.821502 241.520908 
L 233.97519 241.403162 
L 236.282564 237.042936 
L 237.436251 241.647825 
L 238.589938 238.191383 
L 239.743625 237.283203 
L 240.897312 236.998891 
L 242.050999 240.744533 
L 243.204686 240.001659 
L 244.358374 241.457004 
L 245.512061 236.015674 
L 246.665748 236.739747 
L 247.819435 233.950647 
L 248.973122 236.119077 
L 250.126809 235.297477 
L 251.280496 236.240096 
L 252.434183 241.07176 
L 253.58787 241.53424 
L 254.741558 241.760541 
L 255.895245 239.232375 
L 257.048932 240.422166 
L 258.202619 241.400392 
L 259.356306 233.991901 
L 260.509993 233.137449 
L 261.66368 239.345311 
L 262.817367 240.234545 
L 263.971054 236.701723 
L 265.124742 240.1417 
L 266.278429 240.949177 
L 267.432116 238.677178 
L 268.585803 235.349982 
L 269.73949 237.487362 
L 270.893177 241.141806 
L 273.200551 241.404501 
L 274.354238 241.329581 
L 275.507926 241.57771 
L 276.661613 241.62733 
L 277.8153 241.326681 
L 278.968987 242.012979 
L 280.122674 241.249534 
L 281.276361 241.852287 
L 282.430048 241.401384 
L 283.583735 241.998245 
L 284.737422 241.815137 
L 285.89111 242.042552 
L 287.044797 241.983771 
L 288.198484 242.075283 
L 290.505858 242.035606 
L 295.120606 242.094609 
L 298.581668 242.049063 
L 303.196416 242.102347 
L 311.272226 242.098249 
L 433 242.114922 
M 433 242.116351 
L -1 242.116351 
L -1 242.116351 
" clip-path="url(#pb2bb56cc8d)" style="fill: none; stroke: #4c72b0; stroke-opacity: 0.3; stroke-width: 1.5; stroke-linecap: round"/>
   </g>
   <g id="line2d_15">
    <path d="M 54 242.111569 
L 154.370779 242.002486 
L 155.524466 241.904836 
L 156.678153 241.930074 
L 157.83184 242.076988 
L 158.985527 242.000975 
L 160.139214 240.91627 
L 161.292901 241.832418 
L 162.446589 239.544805 
L 163.600276 240.146103 
L 164.753963 236.134584 
L 165.90765 236.137288 
L 167.061337 226.929527 
L 168.215024 237.806068 
L 169.368711 239.129113 
L 170.522398 235.493855 
L 171.676085 241.733447 
L 172.829773 227.663303 
L 173.98346 223.483241 
L 175.137147 237.03957 
L 176.290834 233.0376 
L 177.444521 236.354726 
L 178.598208 241.294811 
L 179.751895 234.891339 
L 180.905582 238.002156 
L 182.059269 240.597493 
L 183.212957 240.427151 
L 184.366644 241.65481 
L 185.520331 226.205589 
L 186.674018 236.513318 
L 187.827705 231.756305 
L 188.981392 226.14402 
L 190.135079 226.170947 
L 191.288766 205.014393 
L 192.442453 239.918301 
L 193.596141 241.2283 
L 194.749828 239.43097 
L 195.903515 229.700441 
L 197.057202 232.047169 
L 198.210889 224.050396 
L 199.364576 237.857235 
L 200.518263 240.767803 
L 201.67195 233.355575 
L 202.825637 233.237692 
L 203.979325 235.819651 
L 205.133012 239.139357 
L 206.286699 238.871927 
L 207.440386 234.658017 
L 208.594073 235.018438 
L 209.74776 240.204604 
L 210.901447 233.367747 
L 212.055134 237.976138 
L 213.208822 235.860709 
L 214.362509 232.285039 
L 215.516196 238.030833 
L 216.669883 238.326709 
L 217.82357 236.86517 
L 218.977257 235.796987 
L 220.130944 237.345516 
L 221.284631 234.58986 
L 222.438318 233.776925 
L 223.592006 232.074873 
L 224.745693 201.334228 
L 225.89938 162.80884 
L 227.053067 44.443636 
L 228.206754 193.244164 
L 229.360441 197.490693 
L 230.514128 219.830213 
L 231.667815 235.330393 
L 232.821502 240.544161 
L 233.97519 235.679098 
L 235.128877 238.737112 
L 236.282564 236.743788 
L 237.436251 236.784453 
L 238.589938 235.909185 
L 239.743625 241.522697 
L 240.897312 241.847423 
L 242.050999 239.857455 
L 243.204686 236.150024 
L 244.358374 240.447425 
L 245.512061 234.249882 
L 246.665748 241.594891 
L 247.819435 240.006746 
L 248.973122 240.211474 
L 250.126809 241.652747 
L 251.280496 238.498853 
L 252.434183 236.188471 
L 253.58787 237.038041 
L 254.741558 241.300789 
L 255.895245 241.225683 
L 259.356306 241.763053 
L 260.509993 240.829139 
L 261.66368 238.761337 
L 262.817367 241.789622 
L 263.971054 240.760444 
L 265.124742 241.556047 
L 266.278429 242.049873 
L 267.432116 242.067972 
L 268.585803 241.969253 
L 269.73949 239.682322 
L 270.893177 241.526887 
L 272.046864 240.954479 
L 273.200551 241.444574 
L 274.354238 241.188791 
L 275.507926 242.036283 
L 277.8153 242.02904 
L 278.968987 241.902677 
L 280.122674 240.894236 
L 281.276361 242.090078 
L 282.430048 241.90647 
L 283.583735 241.492808 
L 284.737422 242.061851 
L 285.89111 242.096553 
L 287.044797 241.782694 
L 288.198484 242.017802 
L 291.659545 242.101571 
L 300.889042 242.085785 
L 355.112336 242.113026 
L 433 242.115399 
M 433 242.116324 
L -1 242.116324 
L -1 242.116324 
" clip-path="url(#pb2bb56cc8d)" style="fill: none; stroke: #dd8452; stroke-opacity: 0.3; stroke-width: 1.5; stroke-linecap: round"/>
   </g>
   <g id="line2d_16">
    <path d="M 54 242.114338 
L 158.985527 242.101041 
L 160.139214 241.833422 
L 161.292901 241.904878 
L 162.446589 240.835539 
L 163.600276 241.905037 
L 164.753963 240.676251 
L 165.90765 242.099669 
L 167.061337 241.255564 
L 168.215024 241.92402 
L 169.368711 240.308165 
L 170.522398 235.604436 
L 171.676085 241.64409 
L 172.829773 242.040371 
L 173.98346 240.742156 
L 175.137147 241.83222 
L 176.290834 242.108636 
L 177.444521 237.450347 
L 178.598208 240.280784 
L 179.751895 241.353353 
L 180.905582 239.079999 
L 182.059269 237.469016 
L 183.212957 241.663846 
L 184.366644 240.914498 
L 185.520331 234.492379 
L 186.674018 239.129974 
L 187.827705 238.242559 
L 190.135079 239.510833 
L 191.288766 238.724247 
L 192.442453 241.642399 
L 193.596141 239.784116 
L 195.903515 241.62544 
L 197.057202 241.379304 
L 198.210889 239.080249 
L 199.364576 240.772977 
L 200.518263 241.741271 
L 201.67195 239.531923 
L 202.825637 241.166097 
L 203.979325 241.982595 
L 205.133012 240.392375 
L 206.286699 241.952107 
L 207.440386 240.417044 
L 208.594073 241.641271 
L 209.74776 241.073852 
L 210.901447 240.36456 
L 212.055134 241.546348 
L 213.208822 241.490441 
L 214.362509 240.151766 
L 215.516196 240.835392 
L 216.669883 240.325466 
L 217.82357 241.457925 
L 218.977257 240.379524 
L 220.130944 240.451676 
L 221.284631 228.110632 
L 222.438318 235.707721 
L 223.592006 235.086586 
L 224.745693 221.872653 
L 225.89938 175.90103 
L 227.053067 44.443636 
L 228.206754 193.473421 
L 229.360441 222.602627 
L 230.514128 233.486956 
L 231.667815 237.975544 
L 232.821502 237.494301 
L 233.97519 240.80717 
L 235.128877 242.096068 
L 236.282564 240.987221 
L 237.436251 241.729308 
L 238.589938 241.770517 
L 239.743625 240.10796 
L 240.897312 240.992801 
L 242.050999 241.067287 
L 243.204686 239.868184 
L 244.358374 242.047011 
L 245.512061 240.130444 
L 246.665748 241.424282 
L 247.819435 239.284275 
L 250.126809 241.73338 
L 252.434183 241.732065 
L 253.58787 241.330633 
L 254.741558 240.794359 
L 255.895245 239.908249 
L 257.048932 242.041698 
L 258.202619 241.392316 
L 259.356306 241.69376 
L 260.509993 241.55392 
L 261.66368 242.089093 
L 262.817367 241.110407 
L 263.971054 240.286082 
L 265.124742 241.285089 
L 266.278429 240.798967 
L 267.432116 241.859695 
L 268.585803 241.762438 
L 269.73949 242.090658 
L 270.893177 241.983483 
L 272.046864 241.103719 
L 273.200551 241.874946 
L 274.354238 242.03282 
L 275.507926 241.944709 
L 277.8153 242.103677 
L 281.276361 241.989983 
L 282.430048 242.065192 
L 283.583735 242.012337 
L 287.044797 242.109163 
L 312.425913 242.114734 
L 433 242.116299 
M 433 242.116364 
L -1 242.116364 
L -1 242.116364 
" clip-path="url(#pb2bb56cc8d)" style="fill: none; stroke: #55a868; stroke-opacity: 0.3; stroke-width: 1.5; stroke-linecap: round"/>
   </g>
   <g id="line2d_17">
    <path d="M 54 242.116364 
L 154.370779 242.087253 
L 155.524466 241.697246 
L 156.678153 241.822582 
L 157.83184 241.711857 
L 158.985527 241.713158 
L 160.139214 241.132487 
L 161.292901 241.304919 
L 162.446589 240.231218 
L 163.600276 240.509881 
L 164.753963 232.023905 
L 165.90765 215.916848 
L 167.061337 240.913694 
L 168.215024 233.306613 
L 169.368711 228.042148 
L 170.522398 238.11155 
L 171.676085 234.083151 
L 172.829773 237.712038 
L 173.98346 235.337428 
L 175.137147 235.076269 
L 176.290834 182.399074 
L 177.444521 198.1816 
L 178.598208 216.345905 
L 179.751895 215.049969 
L 180.905582 239.452074 
L 182.059269 233.495587 
L 183.212957 202.833241 
L 184.366644 229.677649 
L 185.520331 189.871902 
L 186.674018 213.127551 
L 187.827705 203.798517 
L 188.981392 232.814806 
L 190.135079 213.476409 
L 191.288766 209.343223 
L 192.442453 210.529326 
L 193.596141 240.423609 
L 194.749828 223.743258 
L 195.903515 226.030755 
L 197.057202 233.61161 
L 198.210889 237.355388 
L 199.364576 226.092889 
L 200.518263 207.055604 
L 201.67195 234.374821 
L 202.825637 236.990228 
L 203.979325 232.745294 
L 205.133012 239.797959 
L 206.286699 239.929325 
L 207.440386 234.753418 
L 208.594073 232.784811 
L 209.74776 238.562759 
L 210.901447 231.284546 
L 212.055134 239.798035 
L 213.208822 239.18092 
L 214.362509 241.31915 
L 215.516196 238.180325 
L 216.669883 232.615811 
L 217.82357 240.324827 
L 218.977257 239.168614 
L 220.130944 232.010254 
L 221.284631 235.890789 
L 223.592006 241.978544 
L 224.745693 236.246451 
L 225.89938 194.523212 
L 227.053067 44.443636 
L 228.206754 167.920451 
L 229.360441 232.597451 
L 230.514128 223.436293 
L 231.667815 241.781283 
L 232.821502 213.895658 
L 233.97519 208.6188 
L 235.128877 241.435639 
L 236.282564 218.673089 
L 237.436251 223.001442 
L 238.589938 228.773934 
L 239.743625 233.052601 
L 240.897312 226.541228 
L 242.050999 237.582004 
L 243.204686 229.883643 
L 244.358374 238.885231 
L 245.512061 235.348413 
L 246.665748 233.522193 
L 247.819435 240.467094 
L 248.973122 241.005323 
L 250.126809 241.385229 
L 251.280496 241.64062 
L 252.434183 237.703228 
L 253.58787 235.392032 
L 254.741558 225.957758 
L 255.895245 224.402054 
L 257.048932 236.648446 
L 258.202619 234.521201 
L 259.356306 224.178006 
L 261.66368 241.876877 
L 262.817367 241.753157 
L 263.971054 230.748775 
L 265.124742 239.202763 
L 266.278429 237.984006 
L 267.432116 240.040057 
L 268.585803 241.586339 
L 269.73949 241.509484 
L 270.893177 240.388849 
L 272.046864 238.77027 
L 273.200551 239.728097 
L 274.354238 241.555584 
L 275.507926 242.068016 
L 276.661613 239.48221 
L 277.8153 240.765643 
L 278.968987 241.115545 
L 280.122674 241.758119 
L 282.430048 240.378425 
L 283.583735 242.076698 
L 284.737422 241.546534 
L 285.89111 241.796296 
L 287.044797 241.82986 
L 288.198484 242.047589 
L 290.505858 242.101656 
L 318.194349 242.11416 
L 433 242.116258 
M 433 242.116363 
L -1 242.116363 
L -1 242.116363 
" clip-path="url(#pb2bb56cc8d)" style="fill: none; stroke: #c44e52; stroke-opacity: 0.3; stroke-width: 1.5; stroke-linecap: round"/>
   </g>
   <g id="line2d_18">
    <path d="M 54 242.115397 
L 155.524466 242.106349 
L 156.678153 241.858193 
L 157.83184 242.112468 
L 158.985527 241.994185 
L 161.292901 241.370317 
L 162.446589 241.863861 
L 163.600276 241.848271 
L 164.753963 237.343379 
L 165.90765 240.740258 
L 167.061337 222.963756 
L 168.215024 241.258053 
L 169.368711 240.949281 
L 170.522398 239.299035 
L 171.676085 241.505321 
L 172.829773 240.789894 
L 173.98346 228.379982 
L 175.137147 230.032354 
L 176.290834 236.526784 
L 177.444521 216.160257 
L 178.598208 239.058258 
L 179.751895 225.724291 
L 180.905582 241.624808 
L 182.059269 235.010968 
L 183.212957 235.590347 
L 184.366644 225.671888 
L 185.520331 237.573739 
L 186.674018 229.230927 
L 187.827705 238.431774 
L 188.981392 231.027735 
L 190.135079 239.785758 
L 191.288766 241.847929 
L 192.442453 235.046513 
L 193.596141 223.372716 
L 194.749828 208.812143 
L 197.057202 237.666931 
L 198.210889 232.622507 
L 199.364576 238.106062 
L 200.518263 240.605885 
L 201.67195 236.999998 
L 202.825637 232.285723 
L 205.133012 241.106712 
L 207.440386 232.861962 
L 209.74776 241.566867 
L 210.901447 241.495473 
L 212.055134 240.779978 
L 213.208822 241.902945 
L 214.362509 241.074319 
L 215.516196 227.077641 
L 216.669883 238.804571 
L 217.82357 237.364964 
L 218.977257 241.138433 
L 220.130944 240.117696 
L 221.284631 239.936343 
L 222.438318 229.505606 
L 223.592006 233.985388 
L 224.745693 187.538168 
L 225.89938 161.039294 
L 227.053067 44.443636 
L 228.206754 223.349776 
L 229.360441 212.599808 
L 230.514128 237.833283 
L 231.667815 234.351298 
L 232.821502 238.170223 
L 233.97519 229.557777 
L 235.128877 239.236962 
L 236.282564 241.0663 
L 237.436251 226.019847 
L 239.743625 239.859416 
L 240.897312 239.700948 
L 243.204686 230.009151 
L 244.358374 238.176871 
L 245.512061 242.109136 
L 246.665748 241.202906 
L 247.819435 240.797206 
L 248.973122 241.220299 
L 250.126809 241.957472 
L 251.280496 239.33418 
L 252.434183 241.242158 
L 253.58787 241.874697 
L 254.741558 234.74171 
L 255.895245 239.238267 
L 257.048932 238.326149 
L 258.202619 241.5669 
L 259.356306 237.0057 
L 260.509993 241.217155 
L 261.66368 241.80466 
L 262.817367 239.563615 
L 263.971054 238.791944 
L 265.124742 238.970826 
L 266.278429 242.052472 
L 267.432116 240.918928 
L 269.73949 241.90613 
L 270.893177 241.815423 
L 272.046864 240.812617 
L 273.200551 242.101548 
L 275.507926 241.985449 
L 276.661613 241.445334 
L 277.8153 241.283455 
L 278.968987 241.553054 
L 280.122674 242.00328 
L 281.276361 241.793826 
L 282.430048 241.185644 
L 283.583735 242.114175 
L 284.737422 241.719328 
L 285.89111 242.010224 
L 287.044797 241.866338 
L 288.198484 242.056729 
L 299.735355 242.11563 
L 433 242.116339 
M 433 242.116363 
L -1 242.116363 
L -1 242.116363 
" clip-path="url(#pb2bb56cc8d)" style="fill: none; stroke: #8172b3; stroke-opacity: 0.3; stroke-width: 1.5; stroke-linecap: round"/>
   </g>
   <g id="line2d_19">
    <path d="M 54 242.116341 
L 160.139214 242.06386 
L 161.292901 241.757715 
L 162.446589 241.878978 
L 163.600276 242.115192 
L 165.90765 241.906875 
L 167.061337 238.484986 
L 168.215024 241.780493 
L 169.368711 241.11207 
L 170.522398 239.581183 
L 171.676085 242.095603 
L 172.829773 239.738306 
L 173.98346 241.744145 
L 175.137147 234.178015 
L 176.290834 241.468494 
L 177.444521 233.984788 
L 178.598208 241.62364 
L 179.751895 236.855673 
L 180.905582 241.587817 
L 182.059269 241.135583 
L 183.212957 241.710595 
L 186.674018 241.230643 
L 187.827705 241.898809 
L 188.981392 240.206633 
L 190.135079 241.352228 
L 191.288766 239.769139 
L 192.442453 241.045769 
L 193.596141 239.691631 
L 194.749828 239.941414 
L 195.903515 238.182639 
L 197.057202 241.809674 
L 198.210889 241.606834 
L 199.364576 240.893303 
L 200.518263 241.646947 
L 201.67195 241.653502 
L 202.825637 240.885847 
L 203.979325 236.583303 
L 205.133012 238.900731 
L 206.286699 240.54004 
L 207.440386 241.902883 
L 208.594073 241.518651 
L 210.901447 242.07237 
L 212.055134 239.980713 
L 213.208822 241.78033 
L 214.362509 237.721796 
L 215.516196 237.66396 
L 216.669883 241.725584 
L 217.82357 238.276596 
L 218.977257 240.616955 
L 220.130944 238.12253 
L 222.438318 234.521329 
L 223.592006 231.713384 
L 224.745693 218.054256 
L 225.89938 172.107885 
L 227.053067 44.443636 
L 228.206754 206.544124 
L 229.360441 215.994874 
L 231.667815 241.049017 
L 232.821502 241.986537 
L 233.97519 239.629301 
L 235.128877 240.042714 
L 236.282564 239.835531 
L 237.436251 238.379592 
L 238.589938 239.12499 
L 239.743625 242.104775 
L 240.897312 242.064483 
L 242.050999 241.250531 
L 243.204686 241.335901 
L 244.358374 239.77066 
L 245.512061 241.973693 
L 246.665748 240.271404 
L 247.819435 241.162661 
L 248.973122 240.440741 
L 250.126809 241.357043 
L 251.280496 241.848382 
L 252.434183 241.15208 
L 253.58787 240.813689 
L 254.741558 241.87762 
L 255.895245 241.334911 
L 258.202619 241.565475 
L 259.356306 239.387477 
L 260.509993 241.929428 
L 261.66368 241.177413 
L 262.817367 241.235216 
L 263.971054 241.100004 
L 265.124742 240.279884 
L 266.278429 241.221109 
L 267.432116 241.624241 
L 268.585803 241.467924 
L 269.73949 241.76275 
L 270.893177 241.754339 
L 272.046864 241.972719 
L 273.200551 241.695513 
L 274.354238 242.077903 
L 275.507926 242.090054 
L 276.661613 241.75841 
L 277.8153 241.942395 
L 285.89111 242.083604 
L 295.120606 242.113596 
L 416.257753 242.116352 
L 433 242.116355 
M 433 242.116363 
L -1 242.116363 
L -1 242.116363 
" clip-path="url(#pb2bb56cc8d)" style="fill: none; stroke: #937860; stroke-opacity: 0.3; stroke-width: 1.5; stroke-linecap: round"/>
   </g>
   <g id="line2d_20">
    <path d="M 54 242.094138 
L 146.294969 242.006948 
L 150.909717 241.886043 
L 155.524466 242.111545 
L 156.678153 241.711377 
L 157.83184 241.815419 
L 158.985527 240.160123 
L 160.139214 241.750266 
L 161.292901 238.090527 
L 162.446589 240.842789 
L 163.600276 236.110645 
L 164.753963 239.725214 
L 165.90765 237.155647 
L 167.061337 216.420335 
L 168.215024 240.839923 
L 171.676085 230.844566 
L 172.829773 221.595253 
L 173.98346 229.147224 
L 175.137147 233.312661 
L 176.290834 239.439495 
L 177.444521 237.865192 
L 178.598208 223.44707 
L 179.751895 237.97368 
L 180.905582 225.037583 
L 182.059269 198.647699 
L 183.212957 221.561604 
L 184.366644 238.505874 
L 185.520331 223.614556 
L 186.674018 186.400794 
L 187.827705 240.305659 
L 188.981392 228.663764 
L 190.135079 239.042242 
L 191.288766 238.259184 
L 192.442453 240.986692 
L 193.596141 238.99265 
L 194.749828 224.741948 
L 195.903515 216.282114 
L 197.057202 236.316753 
L 198.210889 241.420947 
L 199.364576 238.029431 
L 200.518263 240.779982 
L 201.67195 229.56306 
L 202.825637 239.738368 
L 203.979325 238.179175 
L 205.133012 241.345782 
L 206.286699 242.098423 
L 207.440386 241.904448 
L 208.594073 231.143063 
L 209.74776 232.626245 
L 210.901447 241.577792 
L 212.055134 239.858885 
L 213.208822 221.957144 
L 214.362509 238.847654 
L 215.516196 235.656125 
L 216.669883 237.860292 
L 217.82357 231.678906 
L 218.977257 221.958346 
L 220.130944 236.611618 
L 221.284631 230.403887 
L 222.438318 238.91282 
L 223.592006 234.480891 
L 224.745693 239.829931 
L 225.89938 219.898182 
L 227.053067 44.443636 
L 228.206754 232.632145 
L 229.360441 216.251955 
L 230.514128 230.395472 
L 231.667815 233.603061 
L 232.821502 224.352174 
L 233.97519 236.630594 
L 235.128877 240.847674 
L 236.282564 241.815301 
L 237.436251 240.000563 
L 238.589938 231.194095 
L 239.743625 241.678211 
L 240.897312 239.512813 
L 242.050999 240.142114 
L 243.204686 241.087421 
L 244.358374 240.48463 
L 245.512061 239.206392 
L 246.665748 241.865688 
L 247.819435 239.505714 
L 248.973122 237.566909 
L 250.126809 241.01195 
L 252.434183 240.180965 
L 253.58787 240.927948 
L 254.741558 242.002718 
L 255.895245 240.68381 
L 257.048932 242.015325 
L 258.202619 239.891822 
L 259.356306 240.134915 
L 260.509993 240.747115 
L 261.66368 241.824719 
L 262.817367 242.105007 
L 263.971054 241.96799 
L 265.124742 236.974877 
L 266.278429 241.424242 
L 267.432116 241.726113 
L 268.585803 238.126229 
L 269.73949 242.057136 
L 270.893177 241.464031 
L 272.046864 241.629414 
L 273.200551 242.011928 
L 274.354238 241.961532 
L 275.507926 241.603873 
L 276.661613 241.983003 
L 278.968987 241.971945 
L 280.122674 241.905603 
L 283.583735 242.061652 
L 284.737422 241.876325 
L 285.89111 242.08608 
L 288.198484 242.097718 
L 295.120606 242.114492 
L 423.179876 242.116113 
L 433 242.116138 
M 433 242.116363 
L -1 242.116363 
L -1 242.116363 
" clip-path="url(#pb2bb56cc8d)" style="fill: none; stroke: #da8bc3; stroke-opacity: 0.3; stroke-width: 1.5; stroke-linecap: round"/>
   </g>
   <g id="line2d_21">
    <path d="M 54 242.113063 
L 153.217092 242.036117 
L 154.370779 241.830035 
L 155.524466 241.888461 
L 156.678153 241.716724 
L 157.83184 242.083109 
L 158.985527 240.582815 
L 160.139214 241.604972 
L 162.446589 241.837492 
L 163.600276 238.381232 
L 164.753963 237.680515 
L 165.90765 239.498764 
L 167.061337 210.207271 
L 168.215024 225.677283 
L 169.368711 211.752217 
L 170.522398 233.316547 
L 171.676085 239.199744 
L 172.829773 234.858589 
L 173.98346 190.548695 
L 175.137147 229.854834 
L 176.290834 192.919071 
L 177.444521 234.417852 
L 178.598208 231.245634 
L 179.751895 221.352349 
L 180.905582 240.144851 
L 182.059269 215.915093 
L 183.212957 237.879559 
L 184.366644 239.495555 
L 185.520331 226.78408 
L 186.674018 210.555143 
L 187.827705 223.838289 
L 188.981392 232.537505 
L 190.135079 158.834451 
L 191.288766 221.542811 
L 192.442453 230.577906 
L 193.596141 224.051667 
L 194.749828 233.379474 
L 195.903515 219.207101 
L 197.057202 213.94805 
L 198.210889 183.755229 
L 199.364576 210.551604 
L 200.518263 230.728254 
L 201.67195 238.965352 
L 202.825637 234.652663 
L 203.979325 216.872779 
L 205.133012 240.21705 
L 206.286699 229.013238 
L 207.440386 203.152458 
L 208.594073 235.510525 
L 209.74776 228.429858 
L 210.901447 216.677531 
L 212.055134 217.596218 
L 213.208822 222.679771 
L 214.362509 234.974052 
L 215.516196 239.35534 
L 216.669883 229.771783 
L 217.82357 226.098306 
L 218.977257 223.515692 
L 220.130944 229.572349 
L 221.284631 224.75092 
L 222.438318 164.059598 
L 223.592006 195.834435 
L 224.745693 191.189002 
L 225.89938 173.146737 
L 227.053067 120.570397 
L 228.206754 44.443636 
L 229.360441 233.540144 
L 230.514128 234.065767 
L 231.667815 213.977985 
L 232.821502 239.857376 
L 233.97519 220.314629 
L 235.128877 235.589138 
L 236.282564 229.361226 
L 237.436251 238.318463 
L 238.589938 240.015275 
L 239.743625 242.099402 
L 240.897312 233.752628 
L 242.050999 204.323465 
L 243.204686 192.527784 
L 244.358374 228.191289 
L 245.512061 237.061139 
L 246.665748 236.2311 
L 247.819435 212.439285 
L 248.973122 237.519918 
L 250.126809 234.38098 
L 251.280496 196.213956 
L 252.434183 240.386999 
L 253.58787 220.373259 
L 254.741558 222.040282 
L 255.895245 226.148649 
L 257.048932 241.759784 
L 258.202619 233.278823 
L 260.509993 208.637063 
L 261.66368 238.906662 
L 262.817367 239.773167 
L 263.971054 241.975166 
L 265.124742 235.431065 
L 266.278429 232.755375 
L 267.432116 233.23181 
L 268.585803 236.682793 
L 269.73949 242.042233 
L 270.893177 240.667354 
L 272.046864 238.852129 
L 273.200551 239.83162 
L 274.354238 242.033047 
L 275.507926 235.128412 
L 276.661613 239.409837 
L 277.8153 241.62167 
L 278.968987 241.697305 
L 280.122674 240.505781 
L 281.276361 240.633413 
L 282.430048 241.726942 
L 283.583735 241.335722 
L 284.737422 240.039191 
L 285.89111 241.395621 
L 287.044797 242.033661 
L 288.198484 242.048082 
L 289.352171 241.726639 
L 290.505858 242.056199 
L 291.659545 242.10912 
L 293.966919 241.994572 
L 297.427981 242.077037 
L 300.889042 242.092491 
L 305.50379 242.098644 
L 311.272226 242.092567 
L 336.653343 242.105267 
L 433 242.112413 
M 433 242.116037 
L -1 242.116037 
L -1 242.116037 
" clip-path="url(#pb2bb56cc8d)" style="fill: none; stroke: #8c8c8c; stroke-opacity: 0.3; stroke-width: 1.5; stroke-linecap: round"/>
   </g>
   <g id="line2d_22">
    <path d="M 54 242.114978 
L 160.139214 242.053501 
L 161.292901 241.456314 
L 162.446589 240.335635 
L 163.600276 241.288465 
L 164.753963 241.375489 
L 165.90765 241.943943 
L 167.061337 241.290585 
L 168.215024 238.517808 
L 169.368711 240.355313 
L 170.522398 239.312037 
L 171.676085 242.00147 
L 172.829773 239.266727 
L 173.98346 232.682087 
L 175.137147 241.365802 
L 176.290834 237.394022 
L 177.444521 241.75839 
L 178.598208 241.066513 
L 179.751895 240.599628 
L 180.905582 237.990216 
L 182.059269 238.42404 
L 183.212957 231.583825 
L 184.366644 237.550893 
L 185.520331 240.827381 
L 186.674018 240.786867 
L 187.827705 237.061835 
L 188.981392 241.852117 
L 190.135079 237.326414 
L 191.288766 235.820562 
L 192.442453 241.659937 
L 193.596141 241.799002 
L 194.749828 240.355866 
L 195.903515 241.479189 
L 197.057202 241.139817 
L 198.210889 241.364225 
L 199.364576 240.188556 
L 202.825637 242.002239 
L 203.979325 241.689937 
L 205.133012 241.025078 
L 206.286699 241.091052 
L 207.440386 240.239297 
L 208.594073 241.787238 
L 209.74776 241.884378 
L 210.901447 241.368807 
L 212.055134 241.622331 
L 213.208822 240.385803 
L 214.362509 239.378546 
L 215.516196 240.675521 
L 217.82357 241.355503 
L 218.977257 240.492915 
L 220.130944 238.855539 
L 221.284631 239.328706 
L 222.438318 241.342094 
L 223.592006 234.573361 
L 224.745693 220.462207 
L 225.89938 142.94476 
L 227.053067 44.443636 
L 228.206754 196.875531 
L 229.360441 228.274246 
L 230.514128 230.897126 
L 231.667815 240.127066 
L 232.821502 239.923753 
L 233.97519 241.934074 
L 235.128877 240.624027 
L 236.282564 240.085161 
L 237.436251 242.020695 
L 239.743625 242.090026 
L 240.897312 241.939228 
L 243.204686 240.911302 
L 244.358374 242.115324 
L 247.819435 241.722459 
L 250.126809 241.978702 
L 251.280496 241.486945 
L 252.434183 242.046773 
L 253.58787 241.501786 
L 254.741558 241.876749 
L 255.895245 241.55491 
L 257.048932 242.101759 
L 259.356306 241.590494 
L 260.509993 241.613042 
L 261.66368 242.11086 
L 265.124742 241.988352 
L 266.278429 241.844341 
L 267.432116 241.982954 
L 270.893177 242.104084 
L 272.046864 241.847711 
L 273.200551 242.069318 
L 275.507926 242.096984 
L 276.661613 241.97358 
L 277.8153 242.105402 
L 281.276361 242.093303 
L 290.505858 242.112576 
L 326.270159 242.116234 
L 433 242.116289 
M 433 242.116359 
L -1 242.116359 
L -1 242.116359 
" clip-path="url(#pb2bb56cc8d)" style="fill: none; stroke: #ccb974; stroke-opacity: 0.3; stroke-width: 1.5; stroke-linecap: round"/>
   </g>
   <g id="line2d_23">
    <path d="M 54 242.111445 
L 154.370779 242.041863 
L 155.524466 241.418538 
L 156.678153 242.042342 
L 157.83184 241.194499 
L 158.985527 242.114755 
L 160.139214 241.707232 
L 161.292901 239.437868 
L 162.446589 239.692888 
L 163.600276 239.320919 
L 164.753963 230.334725 
L 165.90765 238.246287 
L 167.061337 234.110033 
L 168.215024 224.865155 
L 169.368711 238.558433 
L 170.522398 241.449681 
L 171.676085 222.209904 
L 172.829773 230.103348 
L 173.98346 233.552321 
L 175.137147 238.934469 
L 176.290834 223.52902 
L 177.444521 230.276091 
L 178.598208 240.55703 
L 179.751895 228.724928 
L 180.905582 234.307259 
L 182.059269 235.768376 
L 183.212957 215.403586 
L 184.366644 226.464257 
L 185.520331 221.512516 
L 186.674018 230.357995 
L 187.827705 219.893079 
L 188.981392 226.00844 
L 190.135079 234.556649 
L 191.288766 240.397891 
L 192.442453 221.150844 
L 193.596141 241.27641 
L 194.749828 235.28276 
L 195.903515 214.106942 
L 197.057202 229.932979 
L 198.210889 218.691024 
L 199.364576 240.96129 
L 200.518263 238.216551 
L 201.67195 229.71774 
L 202.825637 228.199507 
L 203.979325 236.047084 
L 205.133012 235.335271 
L 206.286699 238.811837 
L 207.440386 235.033922 
L 208.594073 227.328121 
L 209.74776 240.812532 
L 210.901447 224.25379 
L 212.055134 240.795028 
L 213.208822 238.887698 
L 214.362509 220.001358 
L 215.516196 230.794589 
L 216.669883 233.909689 
L 217.82357 239.33821 
L 218.977257 231.349275 
L 220.130944 228.209461 
L 221.284631 231.108717 
L 222.438318 236.118999 
L 223.592006 237.441886 
L 224.745693 234.061323 
L 227.053067 44.443636 
L 228.206754 151.883507 
L 229.360441 237.290305 
L 230.514128 233.874884 
L 231.667815 216.819733 
L 232.821502 239.153511 
L 233.97519 234.043061 
L 235.128877 239.191449 
L 236.282564 240.150208 
L 237.436251 233.285273 
L 238.589938 242.023599 
L 239.743625 236.67467 
L 240.897312 238.724379 
L 242.050999 236.878535 
L 243.204686 240.302146 
L 244.358374 232.345165 
L 245.512061 235.580846 
L 246.665748 237.83282 
L 247.819435 230.490396 
L 248.973122 241.235104 
L 250.126809 238.649331 
L 251.280496 239.303389 
L 252.434183 238.047305 
L 253.58787 239.32778 
L 254.741558 235.180633 
L 255.895245 239.013201 
L 257.048932 241.632781 
L 258.202619 229.228361 
L 259.356306 241.944662 
L 260.509993 239.388061 
L 261.66368 237.686886 
L 262.817367 238.962221 
L 263.971054 232.109932 
L 265.124742 240.748046 
L 266.278429 240.016743 
L 267.432116 240.451766 
L 268.585803 238.974198 
L 269.73949 238.192508 
L 270.893177 241.397661 
L 272.046864 240.793968 
L 274.354238 241.317461 
L 275.507926 241.852615 
L 276.661613 241.592124 
L 277.8153 241.179676 
L 278.968987 241.837146 
L 280.122674 241.176596 
L 281.276361 241.911412 
L 282.430048 241.983667 
L 284.737422 241.61288 
L 288.198484 242.093354 
L 292.813232 242.097453 
L 300.889042 242.107095 
L 382.800827 242.116057 
L 433 242.116164 
M 433 242.116351 
L -1 242.116351 
L -1 242.116351 
" clip-path="url(#pb2bb56cc8d)" style="fill: none; stroke: #64b5cd; stroke-opacity: 0.3; stroke-width: 1.5; stroke-linecap: round"/>
   </g>
   <g id="line2d_24">
    <path d="M 54 242.116059 
L 154.370779 242.108847 
L 155.524466 241.652346 
L 156.678153 242.098393 
L 157.83184 241.607247 
L 158.985527 236.880822 
L 160.139214 241.932857 
L 161.292901 240.307942 
L 162.446589 230.773514 
L 163.600276 240.414962 
L 164.753963 216.370185 
L 165.90765 209.657806 
L 167.061337 235.909326 
L 168.215024 189.82521 
L 169.368711 239.763401 
L 170.522398 232.443572 
L 171.676085 151.431944 
L 172.829773 227.250231 
L 173.98346 196.846752 
L 175.137147 172.373978 
L 176.290834 186.071982 
L 177.444521 126.534648 
L 178.598208 215.00351 
L 179.751895 186.909037 
L 180.905582 209.853085 
L 182.059269 226.027111 
L 183.212957 216.257145 
L 184.366644 44.443636 
L 185.520331 150.190711 
L 186.674018 190.802717 
L 187.827705 86.197462 
L 188.981392 202.312979 
L 190.135079 203.887452 
L 191.288766 167.557345 
L 192.442453 156.375472 
L 193.596141 224.111494 
L 194.749828 220.440928 
L 195.903515 144.341776 
L 197.057202 198.20837 
L 198.210889 119.369124 
L 199.364576 226.682075 
L 200.518263 223.056927 
L 201.67195 180.125393 
L 202.825637 205.195737 
L 203.979325 218.873813 
L 205.133012 181.151489 
L 206.286699 230.13465 
L 207.440386 189.304808 
L 208.594073 197.571975 
L 209.74776 235.10159 
L 210.901447 161.278131 
L 212.055134 232.553662 
L 213.208822 232.474653 
L 214.362509 173.979709 
L 215.516196 166.688111 
L 216.669883 196.700495 
L 217.82357 232.245803 
L 218.977257 193.607754 
L 220.130944 212.20952 
L 221.284631 233.67618 
L 222.438318 183.810142 
L 223.592006 197.504566 
L 224.745693 235.486904 
L 225.89938 214.996555 
L 227.053067 164.525936 
L 229.360441 238.723449 
L 230.514128 232.243187 
L 231.667815 202.822399 
L 232.821502 234.557235 
L 233.97519 212.690772 
L 235.128877 236.782768 
L 236.282564 227.782724 
L 237.436251 212.625113 
L 238.589938 238.399421 
L 239.743625 234.061891 
L 240.897312 235.676238 
L 242.050999 220.60634 
L 243.204686 236.141443 
L 244.358374 199.056054 
L 245.512061 221.731186 
L 246.665748 221.097715 
L 247.819435 199.981289 
L 248.973122 242.079999 
L 250.126809 214.677666 
L 251.280496 202.399787 
L 252.434183 233.733432 
L 253.58787 224.71305 
L 254.741558 227.399748 
L 255.895245 236.268143 
L 257.048932 240.007737 
L 258.202619 195.408282 
L 259.356306 240.827002 
L 260.509993 221.248162 
L 261.66368 210.431235 
L 262.817367 235.22688 
L 263.971054 191.041208 
L 265.124742 239.880398 
L 266.278429 240.520426 
L 267.432116 227.603445 
L 268.585803 231.437654 
L 269.73949 218.695244 
L 270.893177 238.224249 
L 272.046864 232.785967 
L 273.200551 240.46648 
L 274.354238 236.584735 
L 275.507926 237.438612 
L 276.661613 241.868319 
L 277.8153 234.50616 
L 278.968987 240.241303 
L 280.122674 237.362669 
L 281.276361 240.842175 
L 282.430048 241.68251 
L 283.583735 238.127767 
L 284.737422 239.767167 
L 285.89111 240.294871 
L 287.044797 241.916856 
L 289.352171 241.356774 
L 290.505858 241.833561 
L 291.659545 242.008239 
L 295.120606 242.092923 
L 297.427981 242.105012 
L 302.042729 242.067311 
L 306.657478 242.115905 
L 355.112336 242.115981 
L 433 242.11623 
M 433 242.116354 
L -1 242.116354 
L -1 242.116354 
" clip-path="url(#pb2bb56cc8d)" style="fill: none; stroke: #4c72b0; stroke-opacity: 0.3; stroke-width: 1.5; stroke-linecap: round"/>
   </g>
   <g id="line2d_25">
    <path d="M 54 242.113025 
L 154.370779 242.057136 
L 155.524466 241.51986 
L 156.678153 242.094727 
L 157.83184 241.834284 
L 158.985527 237.850296 
L 160.139214 240.483902 
L 161.292901 238.333326 
L 162.446589 239.361604 
L 163.600276 241.225166 
L 164.753963 207.971759 
L 165.90765 218.056222 
L 167.061337 229.553002 
L 168.215024 195.192164 
L 169.368711 227.38962 
L 170.522398 216.024805 
L 171.676085 193.925764 
L 172.829773 188.985862 
L 173.98346 197.817831 
L 175.137147 213.525871 
L 176.290834 202.383621 
L 177.444521 151.017101 
L 178.598208 225.899609 
L 179.751895 188.001115 
L 180.905582 160.682376 
L 182.059269 203.538646 
L 183.212957 214.36253 
L 184.366644 44.443636 
L 185.520331 171.00754 
L 186.674018 221.265382 
L 187.827705 118.624535 
L 188.981392 114.471725 
L 190.135079 229.716239 
L 191.288766 217.499369 
L 192.442453 201.047276 
L 193.596141 237.955878 
L 194.749828 229.429721 
L 195.903515 121.677598 
L 197.057202 197.529506 
L 198.210889 137.131422 
L 199.364576 195.14889 
L 200.518263 214.690456 
L 201.67195 76.723434 
L 202.825637 228.196555 
L 203.979325 188.977645 
L 205.133012 165.824735 
L 206.286699 238.930047 
L 207.440386 203.056036 
L 208.594073 212.731957 
L 209.74776 238.294285 
L 210.901447 172.060444 
L 212.055134 241.319792 
L 213.208822 241.894318 
L 214.362509 206.094125 
L 215.516196 211.214813 
L 216.669883 236.517409 
L 217.82357 214.930679 
L 218.977257 213.40881 
L 220.130944 216.429615 
L 221.284631 238.545119 
L 222.438318 233.316191 
L 223.592006 234.649159 
L 224.745693 223.240046 
L 225.89938 143.054931 
L 227.053067 233.257466 
L 228.206754 218.853023 
L 229.360441 233.824675 
L 230.514128 237.608867 
L 231.667815 182.70585 
L 232.821502 225.481587 
L 233.97519 168.993939 
L 235.128877 227.002647 
L 236.282564 230.751366 
L 237.436251 148.351557 
L 238.589938 230.745772 
L 239.743625 225.977377 
L 240.897312 218.65911 
L 242.050999 205.553266 
L 243.204686 240.461591 
L 244.358374 181.763838 
L 245.512061 192.033795 
L 246.665748 222.475143 
L 247.819435 185.596867 
L 248.973122 228.916819 
L 250.126809 216.645524 
L 251.280496 202.910604 
L 252.434183 226.990011 
L 253.58787 230.960793 
L 254.741558 224.087894 
L 255.895245 223.156067 
L 257.048932 238.811257 
L 258.202619 166.146862 
L 259.356306 232.463391 
L 260.509993 236.370919 
L 261.66368 199.333483 
L 262.817367 236.277666 
L 263.971054 195.390355 
L 265.124742 234.372304 
L 266.278429 239.568436 
L 267.432116 230.133427 
L 268.585803 214.280205 
L 269.73949 204.180715 
L 270.893177 241.134803 
L 272.046864 234.831169 
L 273.200551 233.193354 
L 274.354238 238.443715 
L 275.507926 239.568467 
L 276.661613 241.547523 
L 277.8153 232.111554 
L 278.968987 240.278357 
L 280.122674 234.397977 
L 281.276361 241.443365 
L 282.430048 241.564769 
L 283.583735 234.686889 
L 284.737422 240.745952 
L 285.89111 240.719191 
L 287.044797 241.728217 
L 289.352171 241.227082 
L 291.659545 241.954017 
L 292.813232 242.053481 
L 293.966919 241.981024 
L 295.120606 242.099942 
L 298.581668 242.041841 
L 303.196416 242.080594 
L 315.886975 242.110317 
L 379.339766 242.11498 
L 433 242.115594 
M 433 242.116312 
L -1 242.116312 
L -1 242.116312 
" clip-path="url(#pb2bb56cc8d)" style="fill: none; stroke: #dd8452; stroke-opacity: 0.3; stroke-width: 1.5; stroke-linecap: round"/>
   </g>
   <g id="patch_3">
    <path d="M 54 252 
L 54 34.56 
" style="fill: none; stroke: #262626; stroke-width: 1.25; stroke-linejoin: miter; stroke-linecap: square"/>
   </g>
   <g id="patch_4">
    <path d="M 388.8 252 
L 388.8 34.56 
" style="fill: none; stroke: #262626; stroke-width: 1.25; stroke-linejoin: miter; stroke-linecap: square"/>
   </g>
   <g id="patch_5">
    <path d="M 54 252 
L 388.8 252 
" style="fill: none; stroke: #262626; stroke-width: 1.25; stroke-linejoin: miter; stroke-linecap: square"/>
   </g>
   <g id="patch_6">
    <path d="M 54 34.56 
L 388.8 34.56 
" style="fill: none; stroke: #262626; stroke-width: 1.25; stroke-linejoin: miter; stroke-linecap: square"/>
   </g>
   <g id="text_15">
    <!-- patient14_app04_second - Power spectrum -->
    <g style="fill: #262626" transform="translate(105.334688 28.56)scale(0.12 -0.12)">
     <defs>
      <path id="ArialMT-70" d="M 422 -1272 
L 422 3319 
L 934 3319 
L 934 2888 
Q 1116 3141 1344 3267 
Q 1572 3394 1897 3394 
Q 2322 3394 2647 3175 
Q 2972 2956 3137 2557 
Q 3303 2159 3303 1684 
Q 3303 1175 3120 767 
Q 2938 359 2589 142 
Q 2241 -75 1856 -75 
Q 1575 -75 1351 44 
Q 1128 163 984 344 
L 984 -1272 
L 422 -1272 
z
M 931 1641 
Q 931 1000 1190 694 
Q 1450 388 1819 388 
Q 2194 388 2461 705 
Q 2728 1022 2728 1688 
Q 2728 2322 2467 2637 
Q 2206 2953 1844 2953 
Q 1484 2953 1207 2617 
Q 931 2281 931 1641 
z
" transform="scale(0.015625)"/>
      <path id="ArialMT-61" d="M 2588 409 
Q 2275 144 1986 34 
Q 1697 -75 1366 -75 
Q 819 -75 525 192 
Q 231 459 231 875 
Q 231 1119 342 1320 
Q 453 1522 633 1644 
Q 813 1766 1038 1828 
Q 1203 1872 1538 1913 
Q 2219 1994 2541 2106 
Q 2544 2222 2544 2253 
Q 2544 2597 2384 2738 
Q 2169 2928 1744 2928 
Q 1347 2928 1158 2789 
Q 969 2650 878 2297 
L 328 2372 
Q 403 2725 575 2942 
Q 747 3159 1072 3276 
Q 1397 3394 1825 3394 
Q 2250 3394 2515 3294 
Q 2781 3194 2906 3042 
Q 3031 2891 3081 2659 
Q 3109 2516 3109 2141 
L 3109 1391 
Q 3109 606 3145 398 
Q 3181 191 3288 0 
L 2700 0 
Q 2613 175 2588 409 
z
M 2541 1666 
Q 2234 1541 1622 1453 
Q 1275 1403 1131 1340 
Q 988 1278 909 1158 
Q 831 1038 831 891 
Q 831 666 1001 516 
Q 1172 366 1500 366 
Q 1825 366 2078 508 
Q 2331 650 2450 897 
Q 2541 1088 2541 1459 
L 2541 1666 
z
" transform="scale(0.015625)"/>
      <path id="ArialMT-74" d="M 1650 503 
L 1731 6 
Q 1494 -44 1306 -44 
Q 1000 -44 831 53 
Q 663 150 594 308 
Q 525 466 525 972 
L 525 2881 
L 113 2881 
L 113 3319 
L 525 3319 
L 525 4141 
L 1084 4478 
L 1084 3319 
L 1650 3319 
L 1650 2881 
L 1084 2881 
L 1084 941 
Q 1084 700 1114 631 
Q 1144 563 1211 522 
Q 1278 481 1403 481 
Q 1497 481 1650 503 
z
" transform="scale(0.015625)"/>
      <path id="ArialMT-69" d="M 425 3934 
L 425 4581 
L 988 4581 
L 988 3934 
L 425 3934 
z
M 425 0 
L 425 3319 
L 988 3319 
L 988 0 
L 425 0 
z
" transform="scale(0.015625)"/>
      <path id="ArialMT-5f" d="M -97 -1272 
L -97 -866 
L 3631 -866 
L 3631 -1272 
L -97 -1272 
z
" transform="scale(0.015625)"/>
      <path id="ArialMT-73" d="M 197 991 
L 753 1078 
Q 800 744 1014 566 
Q 1228 388 1613 388 
Q 2000 388 2187 545 
Q 2375 703 2375 916 
Q 2375 1106 2209 1216 
Q 2094 1291 1634 1406 
Q 1016 1563 777 1677 
Q 538 1791 414 1992 
Q 291 2194 291 2438 
Q 291 2659 392 2848 
Q 494 3038 669 3163 
Q 800 3259 1026 3326 
Q 1253 3394 1513 3394 
Q 1903 3394 2198 3281 
Q 2494 3169 2634 2976 
Q 2775 2784 2828 2463 
L 2278 2388 
Q 2241 2644 2061 2787 
Q 1881 2931 1553 2931 
Q 1166 2931 1000 2803 
Q 834 2675 834 2503 
Q 834 2394 903 2306 
Q 972 2216 1119 2156 
Q 1203 2125 1616 2013 
Q 2213 1853 2448 1751 
Q 2684 1650 2818 1456 
Q 2953 1263 2953 975 
Q 2953 694 2789 445 
Q 2625 197 2315 61 
Q 2006 -75 1616 -75 
Q 969 -75 630 194 
Q 291 463 197 991 
z
" transform="scale(0.015625)"/>
      <path id="ArialMT-6f" d="M 213 1659 
Q 213 2581 725 3025 
Q 1153 3394 1769 3394 
Q 2453 3394 2887 2945 
Q 3322 2497 3322 1706 
Q 3322 1066 3130 698 
Q 2938 331 2570 128 
Q 2203 -75 1769 -75 
Q 1072 -75 642 372 
Q 213 819 213 1659 
z
M 791 1659 
Q 791 1022 1069 705 
Q 1347 388 1769 388 
Q 2188 388 2466 706 
Q 2744 1025 2744 1678 
Q 2744 2294 2464 2611 
Q 2184 2928 1769 2928 
Q 1347 2928 1069 2612 
Q 791 2297 791 1659 
z
" transform="scale(0.015625)"/>
      <path id="ArialMT-64" d="M 2575 0 
L 2575 419 
Q 2259 -75 1647 -75 
Q 1250 -75 917 144 
Q 584 363 401 755 
Q 219 1147 219 1656 
Q 219 2153 384 2558 
Q 550 2963 881 3178 
Q 1213 3394 1622 3394 
Q 1922 3394 2156 3267 
Q 2391 3141 2538 2938 
L 2538 4581 
L 3097 4581 
L 3097 0 
L 2575 0 
z
M 797 1656 
Q 797 1019 1065 703 
Q 1334 388 1700 388 
Q 2069 388 2326 689 
Q 2584 991 2584 1609 
Q 2584 2291 2321 2609 
Q 2059 2928 1675 2928 
Q 1300 2928 1048 2622 
Q 797 2316 797 1656 
z
" transform="scale(0.015625)"/>
      <path id="ArialMT-2d" d="M 203 1375 
L 203 1941 
L 1931 1941 
L 1931 1375 
L 203 1375 
z
" transform="scale(0.015625)"/>
      <path id="ArialMT-50" d="M 494 0 
L 494 4581 
L 2222 4581 
Q 2678 4581 2919 4538 
Q 3256 4481 3484 4323 
Q 3713 4166 3852 3881 
Q 3991 3597 3991 3256 
Q 3991 2672 3619 2267 
Q 3247 1863 2275 1863 
L 1100 1863 
L 1100 0 
L 494 0 
z
M 1100 2403 
L 2284 2403 
Q 2872 2403 3119 2622 
Q 3366 2841 3366 3238 
Q 3366 3525 3220 3729 
Q 3075 3934 2838 4000 
Q 2684 4041 2272 4041 
L 1100 4041 
L 1100 2403 
z
" transform="scale(0.015625)"/>
      <path id="ArialMT-77" d="M 1034 0 
L 19 3319 
L 600 3319 
L 1128 1403 
L 1325 691 
Q 1338 744 1497 1375 
L 2025 3319 
L 2603 3319 
L 3100 1394 
L 3266 759 
L 3456 1400 
L 4025 3319 
L 4572 3319 
L 3534 0 
L 2950 0 
L 2422 1988 
L 2294 2553 
L 1622 0 
L 1034 0 
z
" transform="scale(0.015625)"/>
      <path id="ArialMT-6d" d="M 422 0 
L 422 3319 
L 925 3319 
L 925 2853 
Q 1081 3097 1340 3245 
Q 1600 3394 1931 3394 
Q 2300 3394 2536 3241 
Q 2772 3088 2869 2813 
Q 3263 3394 3894 3394 
Q 4388 3394 4653 3120 
Q 4919 2847 4919 2278 
L 4919 0 
L 4359 0 
L 4359 2091 
Q 4359 2428 4304 2576 
Q 4250 2725 4106 2815 
Q 3963 2906 3769 2906 
Q 3419 2906 3187 2673 
Q 2956 2441 2956 1928 
L 2956 0 
L 2394 0 
L 2394 2156 
Q 2394 2531 2256 2718 
Q 2119 2906 1806 2906 
Q 1569 2906 1367 2781 
Q 1166 2656 1075 2415 
Q 984 2175 984 1722 
L 984 0 
L 422 0 
z
" transform="scale(0.015625)"/>
     </defs>
     <use xlink:href="#ArialMT-70"/>
     <use xlink:href="#ArialMT-61" x="55.615234"/>
     <use xlink:href="#ArialMT-74" x="111.230469"/>
     <use xlink:href="#ArialMT-69" x="139.013672"/>
     <use xlink:href="#ArialMT-65" x="161.230469"/>
     <use xlink:href="#ArialMT-6e" x="216.845703"/>
     <use xlink:href="#ArialMT-74" x="272.460938"/>
     <use xlink:href="#ArialMT-31" x="300.244141"/>
     <use xlink:href="#ArialMT-34" x="355.859375"/>
     <use xlink:href="#ArialMT-5f" x="411.474609"/>
     <use xlink:href="#ArialMT-61" x="467.089844"/>
     <use xlink:href="#ArialMT-70" x="522.705078"/>
     <use xlink:href="#ArialMT-70" x="578.320312"/>
     <use xlink:href="#ArialMT-30" x="633.935547"/>
     <use xlink:href="#ArialMT-34" x="689.550781"/>
     <use xlink:href="#ArialMT-5f" x="745.166016"/>
     <use xlink:href="#ArialMT-73" x="800.78125"/>
     <use xlink:href="#ArialMT-65" x="850.78125"/>
     <use xlink:href="#ArialMT-63" x="906.396484"/>
     <use xlink:href="#ArialMT-6f" x="956.396484"/>
     <use xlink:href="#ArialMT-6e" x="1012.011719"/>
     <use xlink:href="#ArialMT-64" x="1067.626953"/>
     <use xlink:href="#ArialMT-20" x="1123.242188"/>
     <use xlink:href="#ArialMT-2d" x="1151.025391"/>
     <use xlink:href="#ArialMT-20" x="1184.326172"/>
     <use xlink:href="#ArialMT-50" x="1212.109375"/>
     <use xlink:href="#ArialMT-6f" x="1278.808594"/>
     <use xlink:href="#ArialMT-77" x="1334.423828"/>
     <use xlink:href="#ArialMT-65" x="1406.640625"/>
     <use xlink:href="#ArialMT-72" x="1462.255859"/>
     <use xlink:href="#ArialMT-20" x="1495.556641"/>
     <use xlink:href="#ArialMT-73" x="1523.339844"/>
     <use xlink:href="#ArialMT-70" x="1573.339844"/>
     <use xlink:href="#ArialMT-65" x="1628.955078"/>
     <use xlink:href="#ArialMT-63" x="1684.570312"/>
     <use xlink:href="#ArialMT-74" x="1734.570312"/>
     <use xlink:href="#ArialMT-72" x="1762.353516"/>
     <use xlink:href="#ArialMT-75" x="1795.654297"/>
     <use xlink:href="#ArialMT-6d" x="1851.269531"/>
    </g>
   </g>
  </g>
 </g>
 <defs>
  <clipPath id="pb2bb56cc8d">
   <rect x="54" y="34.56" width="334.8" height="217.44"/>
  </clipPath>
 </defs>
</svg>
