<?xml version="1.0" encoding="utf-8" standalone="no"?>
<!DOCTYPE svg PUBLIC "-//W3C//DTD SVG 1.1//EN"
  "http://www.w3.org/Graphics/SVG/1.1/DTD/svg11.dtd">
<svg xmlns:xlink="http://www.w3.org/1999/xlink" width="432pt" height="288pt" viewBox="0 0 432 288" xmlns="http://www.w3.org/2000/svg" version="1.1">
 <metadata>
  <rdf:RDF xmlns:dc="http://purl.org/dc/elements/1.1/" xmlns:cc="http://creativecommons.org/ns#" xmlns:rdf="http://www.w3.org/1999/02/22-rdf-syntax-ns#">
   <cc:Work>
    <dc:type rdf:resource="http://purl.org/dc/dcmitype/StillImage"/>
    <dc:date>2022-07-08T13:41:48.232660</dc:date>
    <dc:format>image/svg+xml</dc:format>
    <dc:creator>
     <cc:Agent>
      <dc:title>Matplotlib v3.5.1, https://matplotlib.org/</dc:title>
     </cc:Agent>
    </dc:creator>
   </cc:Work>
  </rdf:RDF>
 </metadata>
 <defs>
  <style type="text/css">*{stroke-linejoin: round; stroke-linecap: butt}</style>
 </defs>
 <g id="figure_1">
  <g id="patch_1">
   <path d="M 0 288 
L 432 288 
L 432 0 
L 0 0 
z
" style="fill: #ffffff"/>
  </g>
  <g id="axes_1">
   <g id="patch_2">
    <path d="M 54 252 
L 388.8 252 
L 388.8 34.56 
L 54 34.56 
z
" style="fill: #ffffff"/>
   </g>
   <g id="matplotlib.axis_1">
    <g id="xtick_1">
     <g id="line2d_1">
      <defs>
       <path id="mf5ca189b94" d="M 0 0 
L 0 6 
" style="stroke: #262626; stroke-width: 1.25"/>
      </defs>
      <g>
       <use xlink:href="#mf5ca189b94" x="54" y="252" style="fill: #262626; stroke: #262626; stroke-width: 1.25"/>
      </g>
     </g>
     <g id="text_1">
      <!-- 0 -->
      <g style="fill: #262626" transform="translate(50.941484 269.373594)scale(0.11 -0.11)">
       <defs>
        <path id="ArialMT-30" d="M 266 2259 
Q 266 3072 433 3567 
Q 600 4063 929 4331 
Q 1259 4600 1759 4600 
Q 2128 4600 2406 4451 
Q 2684 4303 2865 4023 
Q 3047 3744 3150 3342 
Q 3253 2941 3253 2259 
Q 3253 1453 3087 958 
Q 2922 463 2592 192 
Q 2263 -78 1759 -78 
Q 1097 -78 719 397 
Q 266 969 266 2259 
z
M 844 2259 
Q 844 1131 1108 757 
Q 1372 384 1759 384 
Q 2147 384 2411 759 
Q 2675 1134 2675 2259 
Q 2675 3391 2411 3762 
Q 2147 4134 1753 4134 
Q 1366 4134 1134 3806 
Q 844 3388 844 2259 
z
" transform="scale(0.015625)"/>
       </defs>
       <use xlink:href="#ArialMT-30"/>
      </g>
     </g>
    </g>
    <g id="xtick_2">
     <g id="line2d_2">
      <g>
       <use xlink:href="#mf5ca189b94" x="109.8" y="252" style="fill: #262626; stroke: #262626; stroke-width: 1.25"/>
      </g>
     </g>
     <g id="text_2">
      <!-- 5 -->
      <g style="fill: #262626" transform="translate(106.741484 269.373594)scale(0.11 -0.11)">
       <defs>
        <path id="ArialMT-35" d="M 266 1200 
L 856 1250 
Q 922 819 1161 601 
Q 1400 384 1738 384 
Q 2144 384 2425 690 
Q 2706 997 2706 1503 
Q 2706 1984 2436 2262 
Q 2166 2541 1728 2541 
Q 1456 2541 1237 2417 
Q 1019 2294 894 2097 
L 366 2166 
L 809 4519 
L 3088 4519 
L 3088 3981 
L 1259 3981 
L 1013 2750 
Q 1425 3038 1878 3038 
Q 2478 3038 2890 2622 
Q 3303 2206 3303 1553 
Q 3303 931 2941 478 
Q 2500 -78 1738 -78 
Q 1113 -78 717 272 
Q 322 622 266 1200 
z
" transform="scale(0.015625)"/>
       </defs>
       <use xlink:href="#ArialMT-35"/>
      </g>
     </g>
    </g>
    <g id="xtick_3">
     <g id="line2d_3">
      <g>
       <use xlink:href="#mf5ca189b94" x="165.6" y="252" style="fill: #262626; stroke: #262626; stroke-width: 1.25"/>
      </g>
     </g>
     <g id="text_3">
      <!-- 10 -->
      <g style="fill: #262626" transform="translate(159.482969 269.373594)scale(0.11 -0.11)">
       <defs>
        <path id="ArialMT-31" d="M 2384 0 
L 1822 0 
L 1822 3584 
Q 1619 3391 1289 3197 
Q 959 3003 697 2906 
L 697 3450 
Q 1169 3672 1522 3987 
Q 1875 4303 2022 4600 
L 2384 4600 
L 2384 0 
z
" transform="scale(0.015625)"/>
       </defs>
       <use xlink:href="#ArialMT-31"/>
       <use xlink:href="#ArialMT-30" x="55.615234"/>
      </g>
     </g>
    </g>
    <g id="xtick_4">
     <g id="line2d_4">
      <g>
       <use xlink:href="#mf5ca189b94" x="221.4" y="252" style="fill: #262626; stroke: #262626; stroke-width: 1.25"/>
      </g>
     </g>
     <g id="text_4">
      <!-- 15 -->
      <g style="fill: #262626" transform="translate(215.282969 269.373594)scale(0.11 -0.11)">
       <use xlink:href="#ArialMT-31"/>
       <use xlink:href="#ArialMT-35" x="55.615234"/>
      </g>
     </g>
    </g>
    <g id="xtick_5">
     <g id="line2d_5">
      <g>
       <use xlink:href="#mf5ca189b94" x="277.2" y="252" style="fill: #262626; stroke: #262626; stroke-width: 1.25"/>
      </g>
     </g>
     <g id="text_5">
      <!-- 20 -->
      <g style="fill: #262626" transform="translate(271.082969 269.373594)scale(0.11 -0.11)">
       <defs>
        <path id="ArialMT-32" d="M 3222 541 
L 3222 0 
L 194 0 
Q 188 203 259 391 
Q 375 700 629 1000 
Q 884 1300 1366 1694 
Q 2113 2306 2375 2664 
Q 2638 3022 2638 3341 
Q 2638 3675 2398 3904 
Q 2159 4134 1775 4134 
Q 1369 4134 1125 3890 
Q 881 3647 878 3216 
L 300 3275 
Q 359 3922 746 4261 
Q 1134 4600 1788 4600 
Q 2447 4600 2831 4234 
Q 3216 3869 3216 3328 
Q 3216 3053 3103 2787 
Q 2991 2522 2730 2228 
Q 2469 1934 1863 1422 
Q 1356 997 1212 845 
Q 1069 694 975 541 
L 3222 541 
z
" transform="scale(0.015625)"/>
       </defs>
       <use xlink:href="#ArialMT-32"/>
       <use xlink:href="#ArialMT-30" x="55.615234"/>
      </g>
     </g>
    </g>
    <g id="xtick_6">
     <g id="line2d_6">
      <g>
       <use xlink:href="#mf5ca189b94" x="333" y="252" style="fill: #262626; stroke: #262626; stroke-width: 1.25"/>
      </g>
     </g>
     <g id="text_6">
      <!-- 25 -->
      <g style="fill: #262626" transform="translate(326.882969 269.373594)scale(0.11 -0.11)">
       <use xlink:href="#ArialMT-32"/>
       <use xlink:href="#ArialMT-35" x="55.615234"/>
      </g>
     </g>
    </g>
    <g id="xtick_7">
     <g id="line2d_7">
      <g>
       <use xlink:href="#mf5ca189b94" x="388.8" y="252" style="fill: #262626; stroke: #262626; stroke-width: 1.25"/>
      </g>
     </g>
     <g id="text_7">
      <!-- 30 -->
      <g style="fill: #262626" transform="translate(382.682969 269.373594)scale(0.11 -0.11)">
       <defs>
        <path id="ArialMT-33" d="M 269 1209 
L 831 1284 
Q 928 806 1161 595 
Q 1394 384 1728 384 
Q 2125 384 2398 659 
Q 2672 934 2672 1341 
Q 2672 1728 2419 1979 
Q 2166 2231 1775 2231 
Q 1616 2231 1378 2169 
L 1441 2663 
Q 1497 2656 1531 2656 
Q 1891 2656 2178 2843 
Q 2466 3031 2466 3422 
Q 2466 3731 2256 3934 
Q 2047 4138 1716 4138 
Q 1388 4138 1169 3931 
Q 950 3725 888 3313 
L 325 3413 
Q 428 3978 793 4289 
Q 1159 4600 1703 4600 
Q 2078 4600 2393 4439 
Q 2709 4278 2876 4000 
Q 3044 3722 3044 3409 
Q 3044 3113 2884 2869 
Q 2725 2625 2413 2481 
Q 2819 2388 3044 2092 
Q 3269 1797 3269 1353 
Q 3269 753 2831 336 
Q 2394 -81 1725 -81 
Q 1122 -81 723 278 
Q 325 638 269 1209 
z
" transform="scale(0.015625)"/>
       </defs>
       <use xlink:href="#ArialMT-33"/>
       <use xlink:href="#ArialMT-30" x="55.615234"/>
      </g>
     </g>
    </g>
    <g id="text_8">
     <!-- Frequency (Hz) -->
     <g style="fill: #262626" transform="translate(180.059063 284.295469)scale(0.12 -0.12)">
      <defs>
       <path id="ArialMT-46" d="M 525 0 
L 525 4581 
L 3616 4581 
L 3616 4041 
L 1131 4041 
L 1131 2622 
L 3281 2622 
L 3281 2081 
L 1131 2081 
L 1131 0 
L 525 0 
z
" transform="scale(0.015625)"/>
       <path id="ArialMT-72" d="M 416 0 
L 416 3319 
L 922 3319 
L 922 2816 
Q 1116 3169 1280 3281 
Q 1444 3394 1641 3394 
Q 1925 3394 2219 3213 
L 2025 2691 
Q 1819 2813 1613 2813 
Q 1428 2813 1281 2702 
Q 1134 2591 1072 2394 
Q 978 2094 978 1738 
L 978 0 
L 416 0 
z
" transform="scale(0.015625)"/>
       <path id="ArialMT-65" d="M 2694 1069 
L 3275 997 
Q 3138 488 2766 206 
Q 2394 -75 1816 -75 
Q 1088 -75 661 373 
Q 234 822 234 1631 
Q 234 2469 665 2931 
Q 1097 3394 1784 3394 
Q 2450 3394 2872 2941 
Q 3294 2488 3294 1666 
Q 3294 1616 3291 1516 
L 816 1516 
Q 847 969 1125 678 
Q 1403 388 1819 388 
Q 2128 388 2347 550 
Q 2566 713 2694 1069 
z
M 847 1978 
L 2700 1978 
Q 2663 2397 2488 2606 
Q 2219 2931 1791 2931 
Q 1403 2931 1139 2672 
Q 875 2413 847 1978 
z
" transform="scale(0.015625)"/>
       <path id="ArialMT-71" d="M 2538 -1272 
L 2538 353 
Q 2406 169 2170 47 
Q 1934 -75 1669 -75 
Q 1078 -75 651 397 
Q 225 869 225 1691 
Q 225 2191 398 2587 
Q 572 2984 901 3189 
Q 1231 3394 1625 3394 
Q 2241 3394 2594 2875 
L 2594 3319 
L 3100 3319 
L 3100 -1272 
L 2538 -1272 
z
M 803 1669 
Q 803 1028 1072 708 
Q 1341 388 1716 388 
Q 2075 388 2334 692 
Q 2594 997 2594 1619 
Q 2594 2281 2320 2615 
Q 2047 2950 1678 2950 
Q 1313 2950 1058 2639 
Q 803 2328 803 1669 
z
" transform="scale(0.015625)"/>
       <path id="ArialMT-75" d="M 2597 0 
L 2597 488 
Q 2209 -75 1544 -75 
Q 1250 -75 995 37 
Q 741 150 617 320 
Q 494 491 444 738 
Q 409 903 409 1263 
L 409 3319 
L 972 3319 
L 972 1478 
Q 972 1038 1006 884 
Q 1059 663 1231 536 
Q 1403 409 1656 409 
Q 1909 409 2131 539 
Q 2353 669 2445 892 
Q 2538 1116 2538 1541 
L 2538 3319 
L 3100 3319 
L 3100 0 
L 2597 0 
z
" transform="scale(0.015625)"/>
       <path id="ArialMT-6e" d="M 422 0 
L 422 3319 
L 928 3319 
L 928 2847 
Q 1294 3394 1984 3394 
Q 2284 3394 2536 3286 
Q 2788 3178 2913 3003 
Q 3038 2828 3088 2588 
Q 3119 2431 3119 2041 
L 3119 0 
L 2556 0 
L 2556 2019 
Q 2556 2363 2490 2533 
Q 2425 2703 2258 2804 
Q 2091 2906 1866 2906 
Q 1506 2906 1245 2678 
Q 984 2450 984 1813 
L 984 0 
L 422 0 
z
" transform="scale(0.015625)"/>
       <path id="ArialMT-63" d="M 2588 1216 
L 3141 1144 
Q 3050 572 2676 248 
Q 2303 -75 1759 -75 
Q 1078 -75 664 370 
Q 250 816 250 1647 
Q 250 2184 428 2587 
Q 606 2991 970 3192 
Q 1334 3394 1763 3394 
Q 2303 3394 2647 3120 
Q 2991 2847 3088 2344 
L 2541 2259 
Q 2463 2594 2264 2762 
Q 2066 2931 1784 2931 
Q 1359 2931 1093 2626 
Q 828 2322 828 1663 
Q 828 994 1084 691 
Q 1341 388 1753 388 
Q 2084 388 2306 591 
Q 2528 794 2588 1216 
z
" transform="scale(0.015625)"/>
       <path id="ArialMT-79" d="M 397 -1278 
L 334 -750 
Q 519 -800 656 -800 
Q 844 -800 956 -737 
Q 1069 -675 1141 -563 
Q 1194 -478 1313 -144 
Q 1328 -97 1363 -6 
L 103 3319 
L 709 3319 
L 1400 1397 
Q 1534 1031 1641 628 
Q 1738 1016 1872 1384 
L 2581 3319 
L 3144 3319 
L 1881 -56 
Q 1678 -603 1566 -809 
Q 1416 -1088 1222 -1217 
Q 1028 -1347 759 -1347 
Q 597 -1347 397 -1278 
z
" transform="scale(0.015625)"/>
       <path id="ArialMT-20" transform="scale(0.015625)"/>
       <path id="ArialMT-28" d="M 1497 -1347 
Q 1031 -759 709 28 
Q 388 816 388 1659 
Q 388 2403 628 3084 
Q 909 3875 1497 4659 
L 1900 4659 
Q 1522 4009 1400 3731 
Q 1209 3300 1100 2831 
Q 966 2247 966 1656 
Q 966 153 1900 -1347 
L 1497 -1347 
z
" transform="scale(0.015625)"/>
       <path id="ArialMT-48" d="M 513 0 
L 513 4581 
L 1119 4581 
L 1119 2700 
L 3500 2700 
L 3500 4581 
L 4106 4581 
L 4106 0 
L 3500 0 
L 3500 2159 
L 1119 2159 
L 1119 0 
L 513 0 
z
" transform="scale(0.015625)"/>
       <path id="ArialMT-7a" d="M 125 0 
L 125 456 
L 2238 2881 
Q 1878 2863 1603 2863 
L 250 2863 
L 250 3319 
L 2963 3319 
L 2963 2947 
L 1166 841 
L 819 456 
Q 1197 484 1528 484 
L 3063 484 
L 3063 0 
L 125 0 
z
" transform="scale(0.015625)"/>
       <path id="ArialMT-29" d="M 791 -1347 
L 388 -1347 
Q 1322 153 1322 1656 
Q 1322 2244 1188 2822 
Q 1081 3291 891 3722 
Q 769 4003 388 4659 
L 791 4659 
Q 1378 3875 1659 3084 
Q 1900 2403 1900 1659 
Q 1900 816 1576 28 
Q 1253 -759 791 -1347 
z
" transform="scale(0.015625)"/>
      </defs>
      <use xlink:href="#ArialMT-46"/>
      <use xlink:href="#ArialMT-72" x="61.083984"/>
      <use xlink:href="#ArialMT-65" x="94.384766"/>
      <use xlink:href="#ArialMT-71" x="150"/>
      <use xlink:href="#ArialMT-75" x="205.615234"/>
      <use xlink:href="#ArialMT-65" x="261.230469"/>
      <use xlink:href="#ArialMT-6e" x="316.845703"/>
      <use xlink:href="#ArialMT-63" x="372.460938"/>
      <use xlink:href="#ArialMT-79" x="422.460938"/>
      <use xlink:href="#ArialMT-20" x="472.460938"/>
      <use xlink:href="#ArialMT-28" x="500.244141"/>
      <use xlink:href="#ArialMT-48" x="533.544922"/>
      <use xlink:href="#ArialMT-7a" x="605.761719"/>
      <use xlink:href="#ArialMT-29" x="655.761719"/>
     </g>
    </g>
   </g>
   <g id="matplotlib.axis_2">
    <g id="ytick_1">
     <g id="line2d_8">
      <defs>
       <path id="m9ff63a6c55" d="M 0 0 
L -6 0 
" style="stroke: #262626; stroke-width: 1.25"/>
      </defs>
      <g>
       <use xlink:href="#m9ff63a6c55" x="54" y="242.11651" style="fill: #262626; stroke: #262626; stroke-width: 1.25"/>
      </g>
     </g>
     <g id="text_9">
      <!-- 0.0 -->
      <g style="fill: #262626" transform="translate(29.21 246.053307)scale(0.11 -0.11)">
       <defs>
        <path id="ArialMT-2e" d="M 581 0 
L 581 641 
L 1222 641 
L 1222 0 
L 581 0 
z
" transform="scale(0.015625)"/>
       </defs>
       <use xlink:href="#ArialMT-30"/>
       <use xlink:href="#ArialMT-2e" x="55.615234"/>
       <use xlink:href="#ArialMT-30" x="83.398438"/>
      </g>
     </g>
    </g>
    <g id="ytick_2">
     <g id="line2d_9">
      <g>
       <use xlink:href="#m9ff63a6c55" x="54" y="202.581935" style="fill: #262626; stroke: #262626; stroke-width: 1.25"/>
      </g>
     </g>
     <g id="text_10">
      <!-- 0.2 -->
      <g style="fill: #262626" transform="translate(29.21 206.518732)scale(0.11 -0.11)">
       <use xlink:href="#ArialMT-30"/>
       <use xlink:href="#ArialMT-2e" x="55.615234"/>
       <use xlink:href="#ArialMT-32" x="83.398438"/>
      </g>
     </g>
    </g>
    <g id="ytick_3">
     <g id="line2d_10">
      <g>
       <use xlink:href="#m9ff63a6c55" x="54" y="163.04736" style="fill: #262626; stroke: #262626; stroke-width: 1.25"/>
      </g>
     </g>
     <g id="text_11">
      <!-- 0.4 -->
      <g style="fill: #262626" transform="translate(29.21 166.984157)scale(0.11 -0.11)">
       <defs>
        <path id="ArialMT-34" d="M 2069 0 
L 2069 1097 
L 81 1097 
L 81 1613 
L 2172 4581 
L 2631 4581 
L 2631 1613 
L 3250 1613 
L 3250 1097 
L 2631 1097 
L 2631 0 
L 2069 0 
z
M 2069 1613 
L 2069 3678 
L 634 1613 
L 2069 1613 
z
" transform="scale(0.015625)"/>
       </defs>
       <use xlink:href="#ArialMT-30"/>
       <use xlink:href="#ArialMT-2e" x="55.615234"/>
       <use xlink:href="#ArialMT-34" x="83.398438"/>
      </g>
     </g>
    </g>
    <g id="ytick_4">
     <g id="line2d_11">
      <g>
       <use xlink:href="#m9ff63a6c55" x="54" y="123.512786" style="fill: #262626; stroke: #262626; stroke-width: 1.25"/>
      </g>
     </g>
     <g id="text_12">
      <!-- 0.6 -->
      <g style="fill: #262626" transform="translate(29.21 127.449583)scale(0.11 -0.11)">
       <defs>
        <path id="ArialMT-36" d="M 3184 3459 
L 2625 3416 
Q 2550 3747 2413 3897 
Q 2184 4138 1850 4138 
Q 1581 4138 1378 3988 
Q 1113 3794 959 3422 
Q 806 3050 800 2363 
Q 1003 2672 1297 2822 
Q 1591 2972 1913 2972 
Q 2475 2972 2870 2558 
Q 3266 2144 3266 1488 
Q 3266 1056 3080 686 
Q 2894 316 2569 119 
Q 2244 -78 1831 -78 
Q 1128 -78 684 439 
Q 241 956 241 2144 
Q 241 3472 731 4075 
Q 1159 4600 1884 4600 
Q 2425 4600 2770 4297 
Q 3116 3994 3184 3459 
z
M 888 1484 
Q 888 1194 1011 928 
Q 1134 663 1356 523 
Q 1578 384 1822 384 
Q 2178 384 2434 671 
Q 2691 959 2691 1453 
Q 2691 1928 2437 2201 
Q 2184 2475 1800 2475 
Q 1419 2475 1153 2201 
Q 888 1928 888 1484 
z
" transform="scale(0.015625)"/>
       </defs>
       <use xlink:href="#ArialMT-30"/>
       <use xlink:href="#ArialMT-2e" x="55.615234"/>
       <use xlink:href="#ArialMT-36" x="83.398438"/>
      </g>
     </g>
    </g>
    <g id="ytick_5">
     <g id="line2d_12">
      <g>
       <use xlink:href="#m9ff63a6c55" x="54" y="83.978211" style="fill: #262626; stroke: #262626; stroke-width: 1.25"/>
      </g>
     </g>
     <g id="text_13">
      <!-- 0.8 -->
      <g style="fill: #262626" transform="translate(29.21 87.915008)scale(0.11 -0.11)">
       <defs>
        <path id="ArialMT-38" d="M 1131 2484 
Q 781 2613 612 2850 
Q 444 3088 444 3419 
Q 444 3919 803 4259 
Q 1163 4600 1759 4600 
Q 2359 4600 2725 4251 
Q 3091 3903 3091 3403 
Q 3091 3084 2923 2848 
Q 2756 2613 2416 2484 
Q 2838 2347 3058 2040 
Q 3278 1734 3278 1309 
Q 3278 722 2862 322 
Q 2447 -78 1769 -78 
Q 1091 -78 675 323 
Q 259 725 259 1325 
Q 259 1772 486 2073 
Q 713 2375 1131 2484 
z
M 1019 3438 
Q 1019 3113 1228 2906 
Q 1438 2700 1772 2700 
Q 2097 2700 2305 2904 
Q 2513 3109 2513 3406 
Q 2513 3716 2298 3927 
Q 2084 4138 1766 4138 
Q 1444 4138 1231 3931 
Q 1019 3725 1019 3438 
z
M 838 1322 
Q 838 1081 952 856 
Q 1066 631 1291 507 
Q 1516 384 1775 384 
Q 2178 384 2440 643 
Q 2703 903 2703 1303 
Q 2703 1709 2433 1975 
Q 2163 2241 1756 2241 
Q 1359 2241 1098 1978 
Q 838 1716 838 1322 
z
" transform="scale(0.015625)"/>
       </defs>
       <use xlink:href="#ArialMT-30"/>
       <use xlink:href="#ArialMT-2e" x="55.615234"/>
       <use xlink:href="#ArialMT-38" x="83.398438"/>
      </g>
     </g>
    </g>
    <g id="ytick_6">
     <g id="line2d_13">
      <g>
       <use xlink:href="#m9ff63a6c55" x="54" y="44.443636" style="fill: #262626; stroke: #262626; stroke-width: 1.25"/>
      </g>
     </g>
     <g id="text_14">
      <!-- 1.0 -->
      <g style="fill: #262626" transform="translate(29.21 48.380433)scale(0.11 -0.11)">
       <use xlink:href="#ArialMT-31"/>
       <use xlink:href="#ArialMT-2e" x="55.615234"/>
       <use xlink:href="#ArialMT-30" x="83.398438"/>
      </g>
     </g>
    </g>
   </g>
   <g id="line2d_14">
    <path d="M 54 242.116008 
L 147.448656 242.007794 
L 150.909717 241.878877 
L 153.217092 241.504819 
L 154.370779 241.118031 
L 155.524466 240.470085 
L 156.678153 239.379722 
L 157.83184 237.621849 
L 158.985527 234.941556 
L 160.139214 231.059166 
L 161.292901 225.491813 
L 162.446589 218.02276 
L 163.600276 206.486392 
L 165.90765 178.996837 
L 168.215024 139.874233 
L 169.368711 126.043588 
L 170.522398 107.400332 
L 171.676085 93.268771 
L 172.829773 80.919855 
L 173.98346 73.118535 
L 175.137147 63.611984 
L 176.290834 56.280776 
L 177.444521 50.22287 
L 178.598208 46.687454 
L 179.751895 44.443636 
L 180.905582 47.855169 
L 182.059269 48.975393 
L 183.212957 51.273615 
L 184.366644 52.281333 
L 185.520331 55.159739 
L 186.674018 57.3879 
L 187.827705 61.417386 
L 188.981392 68.918765 
L 190.135079 71.963475 
L 191.288766 73.88485 
L 192.442453 81.83316 
L 193.596141 86.425897 
L 194.749828 91.795541 
L 195.903515 93.834984 
L 197.057202 97.104073 
L 198.210889 103.298378 
L 199.364576 105.361572 
L 200.518263 109.738151 
L 201.67195 111.178663 
L 202.825637 110.69256 
L 203.979325 115.005352 
L 205.133012 116.399338 
L 206.286699 118.514081 
L 207.440386 119.937845 
L 208.594073 119.552291 
L 209.74776 120.175124 
L 210.901447 120.552893 
L 213.208822 123.795312 
L 214.362509 123.229425 
L 216.669883 121.717572 
L 217.82357 122.389428 
L 218.977257 124.431443 
L 220.130944 127.300811 
L 221.284631 127.376414 
L 222.438318 130.859426 
L 223.592006 132.626171 
L 224.745693 139.754367 
L 225.89938 142.502838 
L 227.053067 151.437358 
L 228.206754 132.380514 
L 229.360441 142.337921 
L 230.514128 141.523565 
L 231.667815 148.147538 
L 232.821502 147.727474 
L 233.97519 151.230854 
L 235.128877 152.855645 
L 236.282564 151.603208 
L 237.436251 154.757615 
L 238.589938 155.948779 
L 239.743625 159.35457 
L 240.897312 159.895974 
L 242.050999 160.945633 
L 243.204686 161.224136 
L 244.358374 160.639416 
L 245.512061 163.124134 
L 246.665748 162.95311 
L 247.819435 163.790402 
L 250.126809 163.545301 
L 251.280496 163.888715 
L 252.434183 165.710925 
L 253.58787 165.243654 
L 254.741558 165.699622 
L 255.895245 166.683902 
L 257.048932 168.904223 
L 258.202619 169.583213 
L 262.817367 180.328716 
L 263.971054 184.749327 
L 265.124742 187.485874 
L 266.278429 191.930997 
L 267.432116 195.878434 
L 268.585803 198.761702 
L 269.73949 203.777664 
L 272.046864 211.79117 
L 274.354238 219.800533 
L 276.661613 226.211712 
L 277.8153 228.992379 
L 278.968987 231.477602 
L 280.122674 233.439931 
L 281.276361 235.161168 
L 282.430048 236.60019 
L 283.583735 237.797065 
L 284.737422 238.771879 
L 285.89111 239.518093 
L 287.044797 240.116945 
L 289.352171 240.933313 
L 291.659545 241.433425 
L 295.120606 241.813211 
L 299.735355 242.017028 
L 308.964852 242.110746 
L 363.188146 242.114285 
L 433 242.114849 
M 433 242.116305 
L -1 242.116305 
L -1 242.116305 
" clip-path="url(#p7959c58c1b)" style="fill: none; stroke: #4c72b0; stroke-opacity: 0.3; stroke-width: 1.5; stroke-linecap: round"/>
   </g>
   <g id="line2d_15">
    <path d="M 54 242.115903 
L 146.294969 242.01399 
L 150.909717 241.866719 
L 153.217092 241.491776 
L 154.370779 241.091791 
L 155.524466 240.414999 
L 156.678153 239.310993 
L 157.83184 237.571584 
L 158.985527 234.844941 
L 160.139214 230.818829 
L 161.292901 224.853401 
L 162.446589 216.884199 
L 163.600276 205.862123 
L 164.753963 192.308444 
L 165.90765 176.609097 
L 170.522398 104.339356 
L 172.829773 76.512427 
L 173.98346 66.941946 
L 176.290834 52.273888 
L 177.444521 48.34746 
L 178.598208 45.038007 
L 179.751895 44.443636 
L 180.905582 44.793417 
L 182.059269 44.956792 
L 183.212957 46.38645 
L 184.366644 48.165381 
L 185.520331 50.779796 
L 186.674018 53.760634 
L 187.827705 58.371417 
L 188.981392 63.637606 
L 190.135079 67.857671 
L 192.442453 77.494447 
L 194.749828 87.141704 
L 195.903515 90.718195 
L 197.057202 94.980593 
L 198.210889 98.710479 
L 199.364576 101.732502 
L 201.67195 108.583689 
L 202.825637 110.166278 
L 203.979325 112.305602 
L 205.133012 114.110526 
L 206.286699 115.486947 
L 207.440386 116.530807 
L 208.594073 117.10846 
L 210.901447 118.499461 
L 212.055134 118.528566 
L 213.208822 119.704879 
L 214.362509 120.393057 
L 215.516196 120.842201 
L 217.82357 122.294556 
L 221.284631 126.94342 
L 222.438318 128.972149 
L 224.745693 132.149202 
L 225.89938 132.624523 
L 227.053067 139.978272 
L 228.206754 139.595524 
L 229.360441 141.849446 
L 235.128877 150.891001 
L 236.282564 152.027561 
L 237.436251 153.838664 
L 239.743625 156.598268 
L 240.897312 157.39389 
L 242.050999 158.34757 
L 243.204686 158.447872 
L 244.358374 159.043185 
L 245.512061 159.815834 
L 246.665748 160.263343 
L 247.819435 160.268102 
L 250.126809 161.285566 
L 251.280496 161.636795 
L 252.434183 162.347774 
L 253.58787 163.386916 
L 254.741558 163.869473 
L 258.202619 168.628607 
L 259.356306 170.579579 
L 261.66368 176.020383 
L 263.971054 182.500259 
L 265.124742 186.066832 
L 267.432116 194.154409 
L 270.893177 207.109763 
L 274.354238 219.112175 
L 276.661613 225.821819 
L 277.8153 228.591498 
L 278.968987 231.053447 
L 280.122674 233.172858 
L 281.276361 234.966892 
L 282.430048 236.428821 
L 283.583735 237.667281 
L 284.737422 238.639718 
L 285.89111 239.430277 
L 287.044797 240.046138 
L 289.352171 240.901033 
L 291.659545 241.40926 
L 295.120606 241.807634 
L 299.735355 242.016477 
L 307.811165 242.10756 
L 348.190214 242.114455 
L 433 242.11482 
M 433 242.1163 
L -1 242.1163 
L -1 242.1163 
" clip-path="url(#p7959c58c1b)" style="fill: none; stroke: #dd8452; stroke-opacity: 0.3; stroke-width: 1.5; stroke-linecap: round"/>
   </g>
   <g id="line2d_16">
    <path d="M 54 242.115873 
L 146.294969 242.01461 
L 150.909717 241.867535 
L 153.217092 241.495167 
L 154.370779 241.093784 
L 155.524466 240.419849 
L 156.678153 239.323372 
L 157.83184 237.586267 
L 158.985527 234.896643 
L 160.139214 230.942207 
L 161.292901 225.08246 
L 162.446589 217.184529 
L 163.600276 206.251629 
L 164.753963 192.807082 
L 167.061337 159.054872 
L 169.368711 122.667497 
L 170.522398 105.832895 
L 172.829773 78.071228 
L 173.98346 68.000628 
L 175.137147 60.432287 
L 176.290834 54.050077 
L 177.444521 49.683211 
L 178.598208 47.021785 
L 179.751895 45.206191 
L 180.905582 44.443636 
L 182.059269 45.081127 
L 183.212957 47.526513 
L 185.520331 51.803184 
L 186.674018 56.452106 
L 187.827705 60.20777 
L 190.135079 68.994271 
L 192.442453 78.029062 
L 193.596141 83.013078 
L 197.057202 95.793789 
L 198.210889 99.115082 
L 199.364576 103.017063 
L 200.518263 106.509246 
L 201.67195 108.902859 
L 202.825637 110.661318 
L 203.979325 112.6306 
L 206.286699 115.26569 
L 207.440386 117.094685 
L 208.594073 117.286147 
L 209.74776 118.282873 
L 210.901447 118.646234 
L 212.055134 119.8584 
L 213.208822 121.395211 
L 214.362509 120.986626 
L 215.516196 121.961608 
L 216.669883 122.550045 
L 217.82357 123.537676 
L 218.977257 125.066976 
L 220.130944 126.210302 
L 221.284631 127.620246 
L 222.438318 128.796962 
L 223.592006 131.374614 
L 224.745693 131.987891 
L 225.89938 133.40569 
L 227.053067 138.176825 
L 228.206754 140.718002 
L 229.360441 141.86793 
L 230.514128 144.112042 
L 231.667815 145.607211 
L 232.821502 147.846654 
L 235.128877 151.597394 
L 236.282564 153.10018 
L 237.436251 154.078505 
L 238.589938 155.735747 
L 239.743625 156.404583 
L 240.897312 157.335199 
L 242.050999 157.841878 
L 243.204686 158.719749 
L 245.512061 159.717196 
L 246.665748 160.133997 
L 247.819435 160.25818 
L 248.973122 161.137357 
L 250.126809 160.772337 
L 251.280496 161.081676 
L 252.434183 162.249535 
L 253.58787 163.15917 
L 255.895245 165.394129 
L 257.048932 167.06691 
L 258.202619 168.511166 
L 259.356306 171.057562 
L 260.509993 173.185073 
L 262.817367 178.835915 
L 265.124742 186.305423 
L 266.278429 189.935348 
L 268.585803 198.072251 
L 269.73949 202.698401 
L 274.354238 218.972759 
L 275.507926 222.556871 
L 277.8153 228.582192 
L 278.968987 231.046218 
L 280.122674 233.182475 
L 281.276361 234.942195 
L 282.430048 236.441703 
L 283.583735 237.640307 
L 284.737422 238.631118 
L 285.89111 239.414344 
L 287.044797 240.030031 
L 289.352171 240.889467 
L 291.659545 241.40718 
L 293.966919 241.707783 
L 297.427981 241.940323 
L 303.196416 242.077096 
L 318.194349 242.115542 
L 433 242.114846 
M 433 242.116303 
L -1 242.116303 
L -1 242.116303 
" clip-path="url(#p7959c58c1b)" style="fill: none; stroke: #55a868; stroke-opacity: 0.3; stroke-width: 1.5; stroke-linecap: round"/>
   </g>
   <g id="line2d_17">
    <path d="M 54 242.116048 
L 147.448656 242.009145 
L 150.909717 241.881244 
L 153.217092 241.506609 
L 154.370779 241.123643 
L 155.524466 240.476914 
L 156.678153 239.400123 
L 157.83184 237.624828 
L 158.985527 234.999856 
L 160.139214 231.179528 
L 161.292901 225.681736 
L 162.446589 218.394033 
L 163.600276 206.91685 
L 165.90765 179.334876 
L 168.215024 140.072349 
L 169.368711 125.701277 
L 170.522398 106.637003 
L 172.829773 81.922241 
L 173.98346 74.520221 
L 175.137147 65.667526 
L 176.290834 55.453235 
L 177.444521 48.026387 
L 178.598208 46.939849 
L 179.751895 44.443636 
L 180.905582 47.694077 
L 183.212957 53.024237 
L 184.366644 52.440577 
L 185.520331 55.733783 
L 186.674018 55.906215 
L 187.827705 62.265541 
L 188.981392 69.541015 
L 191.288766 74.88251 
L 192.442453 82.66935 
L 194.749828 93.924269 
L 195.903515 94.797436 
L 197.057202 97.563092 
L 198.210889 103.927761 
L 199.364576 106.197526 
L 200.518263 109.038053 
L 201.67195 110.665816 
L 202.825637 108.555384 
L 203.979325 113.739313 
L 205.133012 114.612801 
L 206.286699 116.37018 
L 207.440386 120.04062 
L 208.594073 119.114029 
L 209.74776 119.289241 
L 210.901447 119.247551 
L 212.055134 121.627553 
L 213.208822 122.297149 
L 214.362509 123.290312 
L 215.516196 122.061007 
L 216.669883 121.347248 
L 217.82357 122.531606 
L 218.977257 124.193047 
L 220.130944 128.293166 
L 221.284631 125.498567 
L 222.438318 131.130468 
L 223.592006 132.034943 
L 224.745693 142.763196 
L 225.89938 145.394702 
L 227.053067 149.234936 
L 228.206754 127.801557 
L 229.360441 139.630248 
L 230.514128 139.647816 
L 231.667815 149.036483 
L 232.821502 146.992172 
L 233.97519 151.356388 
L 235.128877 152.247415 
L 236.282564 150.79504 
L 237.436251 154.653249 
L 238.589938 155.9275 
L 239.743625 158.825908 
L 240.897312 160.034667 
L 242.050999 160.987301 
L 243.204686 161.045088 
L 244.358374 160.441577 
L 245.512061 162.911086 
L 246.665748 162.199587 
L 247.819435 163.620045 
L 248.973122 163.391615 
L 250.126809 163.409757 
L 251.280496 163.222592 
L 252.434183 165.859284 
L 253.58787 166.180387 
L 254.741558 166.340222 
L 255.895245 166.952457 
L 257.048932 169.673022 
L 258.202619 170.300203 
L 259.356306 172.235607 
L 262.817367 180.570482 
L 263.971054 184.39241 
L 265.124742 187.03651 
L 266.278429 192.244003 
L 268.585803 198.356663 
L 269.73949 203.211133 
L 270.893177 207.153237 
L 273.200551 215.998245 
L 275.507926 222.931768 
L 276.661613 226.23993 
L 278.968987 231.445353 
L 280.122674 233.444188 
L 281.276361 235.146881 
L 282.430048 236.594086 
L 283.583735 237.797243 
L 284.737422 238.775896 
L 285.89111 239.518143 
L 288.198484 240.561908 
L 290.505858 241.222954 
L 292.813232 241.586488 
L 296.274294 241.884858 
L 302.042729 242.060989 
L 314.733287 242.116353 
L 433 242.114861 
M 433 242.116308 
L -1 242.116308 
L -1 242.116308 
" clip-path="url(#p7959c58c1b)" style="fill: none; stroke: #c44e52; stroke-opacity: 0.3; stroke-width: 1.5; stroke-linecap: round"/>
   </g>
   <g id="line2d_18">
    <path d="M 54 242.115865 
L 146.294969 242.013836 
L 150.909717 241.866084 
L 153.217092 241.492676 
L 154.370779 241.093991 
L 155.524466 240.423797 
L 156.678153 239.324073 
L 157.83184 237.59371 
L 158.985527 234.882948 
L 160.139214 230.895577 
L 161.292901 224.90503 
L 162.446589 216.97403 
L 163.600276 205.878599 
L 164.753963 192.279773 
L 165.90765 176.681606 
L 170.522398 105.063175 
L 172.829773 76.591574 
L 173.98346 66.899516 
L 175.137147 59.563334 
L 176.290834 53.005023 
L 177.444521 49.407365 
L 178.598208 45.319283 
L 179.751895 44.443636 
L 180.905582 45.105471 
L 182.059269 44.659818 
L 184.366644 49.033865 
L 185.520331 51.123772 
L 186.674018 54.597819 
L 188.981392 64.083696 
L 193.596141 82.702693 
L 194.749828 88.180591 
L 195.903515 92.193904 
L 197.057202 95.732241 
L 198.210889 98.657697 
L 200.518263 105.703476 
L 201.67195 108.817139 
L 202.825637 110.456463 
L 203.979325 111.551795 
L 205.133012 114.098188 
L 206.286699 115.066202 
L 207.440386 116.537727 
L 208.594073 116.809791 
L 209.74776 117.891222 
L 210.901447 118.566456 
L 212.055134 118.758814 
L 213.208822 119.721858 
L 215.516196 121.433228 
L 216.669883 121.782842 
L 218.977257 124.620034 
L 220.130944 125.703538 
L 222.438318 129.034412 
L 223.592006 131.129126 
L 224.745693 131.319531 
L 225.89938 132.379202 
L 227.053067 140.219649 
L 229.360441 142.507852 
L 230.514128 144.136875 
L 231.667815 145.385548 
L 233.97519 149.239667 
L 235.128877 151.352194 
L 236.282564 152.40355 
L 237.436251 153.916682 
L 238.589938 155.725877 
L 239.743625 156.699886 
L 242.050999 158.001592 
L 243.204686 158.330246 
L 244.358374 159.104912 
L 245.512061 159.612858 
L 246.665748 160.652173 
L 247.819435 160.169612 
L 248.973122 160.682469 
L 250.126809 160.981446 
L 251.280496 161.958462 
L 252.434183 162.396128 
L 254.741558 164.087841 
L 255.895245 165.315447 
L 258.202619 168.868935 
L 259.356306 170.950659 
L 260.509993 173.367812 
L 262.817367 179.08183 
L 266.278429 189.956119 
L 268.585803 198.32698 
L 273.200551 215.181357 
L 275.507926 222.496905 
L 276.661613 225.68977 
L 277.8153 228.550324 
L 278.968987 231.019239 
L 280.122674 233.170978 
L 281.276361 234.932477 
L 282.430048 236.424777 
L 283.583735 237.652779 
L 284.737422 238.63826 
L 285.89111 239.419334 
L 287.044797 240.03716 
L 289.352171 240.89391 
L 291.659545 241.409669 
L 295.120606 241.806954 
L 299.735355 242.017015 
L 307.811165 242.107592 
L 348.190214 242.114488 
L 433 242.114834 
M 433 242.116301 
L -1 242.116301 
L -1 242.116301 
" clip-path="url(#p7959c58c1b)" style="fill: none; stroke: #8172b3; stroke-opacity: 0.3; stroke-width: 1.5; stroke-linecap: round"/>
   </g>
   <g id="line2d_19">
    <path d="M 54 242.115887 
L 146.294969 242.014795 
L 150.909717 241.868595 
L 153.217092 241.496667 
L 154.370779 241.094197 
L 155.524466 240.418704 
L 156.678153 239.325563 
L 157.83184 237.583382 
L 158.985527 234.899776 
L 160.139214 230.915325 
L 161.292901 225.10586 
L 162.446589 217.129104 
L 163.600276 206.392962 
L 164.753963 192.975256 
L 167.061337 159.354511 
L 169.368711 122.600547 
L 170.522398 105.388042 
L 172.829773 78.910023 
L 173.98346 68.806067 
L 175.137147 60.910346 
L 176.290834 53.902685 
L 177.444521 49.78383 
L 178.598208 47.5097 
L 179.751895 46.091358 
L 180.905582 44.443636 
L 182.059269 45.761421 
L 184.366644 49.365116 
L 185.520331 52.307464 
L 186.674018 56.612767 
L 187.827705 60.428782 
L 188.981392 65.149988 
L 190.135079 69.328575 
L 193.596141 83.16833 
L 198.210889 99.733828 
L 200.518263 106.555285 
L 203.979325 113.78883 
L 205.133012 114.707672 
L 206.286699 116.093341 
L 207.440386 117.192674 
L 208.594073 117.944581 
L 210.901447 118.987661 
L 213.208822 121.257182 
L 214.362509 121.250781 
L 216.669883 122.812459 
L 217.82357 123.801808 
L 218.977257 125.039807 
L 220.130944 125.968351 
L 221.284631 127.837239 
L 222.438318 129.234633 
L 223.592006 131.558284 
L 225.89938 133.666306 
L 227.053067 137.629869 
L 228.206754 140.245578 
L 229.360441 141.4188 
L 230.514128 144.128632 
L 231.667815 145.900317 
L 232.821502 148.084 
L 235.128877 151.504231 
L 236.282564 153.252057 
L 237.436251 154.398882 
L 238.589938 155.708933 
L 242.050999 158.625373 
L 243.204686 159.08455 
L 244.358374 159.81768 
L 245.512061 159.912151 
L 246.665748 160.174165 
L 247.819435 160.610252 
L 248.973122 161.384342 
L 250.126809 161.52493 
L 251.280496 161.364457 
L 253.58787 163.507667 
L 254.741558 164.394 
L 255.895245 165.662391 
L 258.202619 168.6757 
L 260.509993 173.463344 
L 261.66368 176.220628 
L 263.971054 182.678144 
L 265.124742 186.183681 
L 269.73949 202.852439 
L 273.200551 215.322692 
L 275.507926 222.676903 
L 277.8153 228.656646 
L 278.968987 231.102108 
L 280.122674 233.211683 
L 281.276361 234.982569 
L 282.430048 236.459534 
L 283.583735 237.669187 
L 284.737422 238.644745 
L 285.89111 239.426818 
L 287.044797 240.04094 
L 289.352171 240.898316 
L 291.659545 241.407944 
L 293.966919 241.709064 
L 297.427981 241.940595 
L 303.196416 242.077127 
L 318.194349 242.115554 
L 433 242.114845 
M 433 242.116303 
L -1 242.116303 
L -1 242.116303 
" clip-path="url(#p7959c58c1b)" style="fill: none; stroke: #937860; stroke-opacity: 0.3; stroke-width: 1.5; stroke-linecap: round"/>
   </g>
   <g id="line2d_20">
    <path d="M 54 242.116064 
L 147.448656 242.010421 
L 150.909717 241.882174 
L 152.063405 241.753606 
L 153.217092 241.508106 
L 154.370779 241.124725 
L 155.524466 240.498063 
L 156.678153 239.405553 
L 157.83184 237.665556 
L 158.985527 235.044664 
L 160.139214 231.440104 
L 161.292901 225.82695 
L 162.446589 218.708604 
L 163.600276 206.758623 
L 165.90765 180.602934 
L 167.061337 160.09117 
L 168.215024 142.104348 
L 169.368711 126.617112 
L 170.522398 108.049895 
L 172.829773 83.801066 
L 173.98346 76.863936 
L 175.137147 66.186636 
L 176.290834 59.508014 
L 177.444521 48.419705 
L 179.751895 44.443636 
L 180.905582 48.251118 
L 182.059269 50.351955 
L 183.212957 56.013151 
L 184.366644 52.382649 
L 185.520331 56.541518 
L 186.674018 57.432423 
L 187.827705 60.768167 
L 188.981392 69.628079 
L 190.135079 73.24956 
L 191.288766 73.940113 
L 192.442453 82.863117 
L 194.749828 94.702115 
L 195.903515 97.735636 
L 197.057202 97.758523 
L 198.210889 105.89218 
L 199.364576 107.689389 
L 200.518263 111.772624 
L 201.67195 112.71016 
L 202.825637 110.93338 
L 203.979325 113.290256 
L 205.133012 117.180821 
L 206.286699 117.537769 
L 207.440386 121.500063 
L 208.594073 119.990201 
L 209.74776 119.805204 
L 210.901447 120.39169 
L 212.055134 123.109168 
L 213.208822 123.825928 
L 214.362509 124.411817 
L 215.516196 122.79221 
L 216.669883 122.059454 
L 217.82357 123.980033 
L 218.977257 126.993497 
L 220.130944 128.436836 
L 221.284631 127.383055 
L 222.438318 131.408964 
L 223.592006 132.884503 
L 224.745693 140.859758 
L 225.89938 144.473957 
L 227.053067 157.051726 
L 228.206754 130.889603 
L 229.360441 141.602849 
L 230.514128 140.806266 
L 231.667815 148.791708 
L 232.821502 147.640897 
L 233.97519 152.409575 
L 235.128877 154.195939 
L 236.282564 152.174481 
L 237.436251 156.751677 
L 238.589938 156.137693 
L 239.743625 160.162566 
L 240.897312 160.244538 
L 242.050999 160.833988 
L 243.204686 161.731444 
L 244.358374 161.440459 
L 245.512061 163.297632 
L 246.665748 162.80836 
L 247.819435 163.141649 
L 248.973122 163.261447 
L 250.126809 163.714727 
L 251.280496 163.063094 
L 252.434183 166.656387 
L 253.58787 166.047862 
L 254.741558 166.935956 
L 255.895245 167.600359 
L 257.048932 170.39951 
L 258.202619 170.55264 
L 259.356306 172.478001 
L 260.509993 175.885949 
L 261.66368 177.513013 
L 262.817367 181.122111 
L 263.971054 185.135833 
L 265.124742 187.857547 
L 267.432116 196.06973 
L 268.585803 198.769248 
L 269.73949 203.744177 
L 270.893177 207.462004 
L 273.200551 216.065296 
L 275.507926 223.255879 
L 276.661613 226.365326 
L 278.968987 231.549699 
L 280.122674 233.55566 
L 281.276361 235.204517 
L 282.430048 236.64086 
L 283.583735 237.835997 
L 284.737422 238.78515 
L 285.89111 239.524144 
L 288.198484 240.590694 
L 290.505858 241.229625 
L 292.813232 241.594109 
L 296.274294 241.886217 
L 302.042729 242.061353 
L 314.733287 242.116364 
L 433 242.114906 
M 433 242.116313 
L -1 242.116313 
L -1 242.116313 
" clip-path="url(#p7959c58c1b)" style="fill: none; stroke: #da8bc3; stroke-opacity: 0.3; stroke-width: 1.5; stroke-linecap: round"/>
   </g>
   <g id="line2d_21">
    <path d="M 54 242.115847 
L 146.294969 242.013834 
L 150.909717 241.866663 
L 153.217092 241.493259 
L 154.370779 241.091368 
L 155.524466 240.420843 
L 156.678153 239.323945 
L 157.83184 237.610596 
L 158.985527 234.8758 
L 160.139214 230.875783 
L 161.292901 224.931298 
L 162.446589 217.037894 
L 163.600276 206.324244 
L 164.753963 192.431829 
L 165.90765 176.905122 
L 170.522398 105.269716 
L 172.829773 78.741625 
L 173.98346 67.367272 
L 176.290834 53.308221 
L 178.598208 46.079715 
L 179.751895 45.862063 
L 180.905582 44.443636 
L 182.059269 46.675042 
L 183.212957 46.797978 
L 184.366644 48.681919 
L 185.520331 49.961636 
L 186.674018 54.843998 
L 188.981392 63.52234 
L 191.288766 73.506954 
L 192.442453 78.823268 
L 195.903515 92.239398 
L 198.210889 99.745837 
L 199.364576 101.990602 
L 200.518263 106.161358 
L 201.67195 108.842612 
L 202.825637 111.16204 
L 203.979325 113.134418 
L 205.133012 114.189606 
L 206.286699 115.5638 
L 207.440386 116.508758 
L 208.594073 117.889686 
L 209.74776 117.940094 
L 210.901447 119.139834 
L 212.055134 118.494322 
L 213.208822 119.223472 
L 214.362509 120.288592 
L 215.516196 121.567016 
L 216.669883 123.061174 
L 217.82357 123.268101 
L 218.977257 124.869058 
L 220.130944 125.129338 
L 222.438318 129.186228 
L 223.592006 131.039467 
L 224.745693 130.182237 
L 225.89938 131.681355 
L 227.053067 139.322799 
L 228.206754 142.74726 
L 229.360441 142.538832 
L 230.514128 144.343554 
L 231.667815 145.343988 
L 232.821502 147.626533 
L 233.97519 148.978965 
L 235.128877 151.14827 
L 237.436251 154.539481 
L 240.897312 157.337813 
L 242.050999 157.99375 
L 243.204686 158.300523 
L 244.358374 159.540854 
L 245.512061 159.576793 
L 246.665748 160.222363 
L 247.819435 159.791278 
L 248.973122 160.757172 
L 250.126809 160.83992 
L 251.280496 161.24546 
L 252.434183 162.148469 
L 253.58787 163.239921 
L 254.741558 164.018095 
L 257.048932 166.697277 
L 258.202619 168.644188 
L 259.356306 170.809962 
L 261.66368 176.233711 
L 262.817367 179.313611 
L 265.124742 186.291061 
L 267.432116 194.448467 
L 273.200551 215.391313 
L 275.507926 222.619268 
L 277.8153 228.588545 
L 278.968987 231.067355 
L 280.122674 233.184336 
L 281.276361 234.950008 
L 282.430048 236.407184 
L 283.583735 237.645552 
L 284.737422 238.622092 
L 285.89111 239.408299 
L 287.044797 240.032477 
L 289.352171 240.892553 
L 291.659545 241.405273 
L 295.120606 241.807226 
L 299.735355 242.018009 
L 308.964852 242.110984 
L 366.649207 242.114298 
L 433 242.114838 
M 433 242.116301 
L -1 242.116301 
L -1 242.116301 
" clip-path="url(#p7959c58c1b)" style="fill: none; stroke: #8c8c8c; stroke-opacity: 0.3; stroke-width: 1.5; stroke-linecap: round"/>
   </g>
   <g id="line2d_22">
    <path d="M 54 242.115885 
L 146.294969 242.014588 
L 150.909717 241.868149 
L 153.217092 241.494937 
L 154.370779 241.093651 
L 155.524466 240.419605 
L 156.678153 239.321906 
L 157.83184 237.577156 
L 158.985527 234.89577 
L 160.139214 230.939918 
L 161.292901 225.062489 
L 162.446589 217.026322 
L 163.600276 205.996355 
L 164.753963 192.646007 
L 167.061337 159.05614 
L 170.522398 105.223275 
L 171.676085 90.582631 
L 172.829773 77.649478 
L 173.98346 68.186465 
L 175.137147 60.329669 
L 176.290834 54.516306 
L 177.444521 49.908197 
L 178.598208 47.054219 
L 179.751895 44.545413 
L 180.905582 44.852818 
L 182.059269 44.443636 
L 183.212957 48.087709 
L 184.366644 49.420052 
L 185.520331 53.297529 
L 186.674018 56.656554 
L 187.827705 60.699206 
L 188.981392 65.418911 
L 190.135079 69.351998 
L 191.288766 73.778759 
L 192.442453 77.50014 
L 193.596141 82.977836 
L 195.903515 91.891658 
L 197.057202 95.699047 
L 198.210889 99.009492 
L 199.364576 102.954434 
L 201.67195 109.015325 
L 202.825637 110.412786 
L 205.133012 114.588055 
L 206.286699 115.334362 
L 207.440386 117.292565 
L 208.594073 117.190032 
L 209.74776 118.709594 
L 210.901447 118.522681 
L 212.055134 120.182805 
L 213.208822 121.622613 
L 214.362509 121.234801 
L 216.669883 122.178172 
L 217.82357 124.1826 
L 220.130944 126.540404 
L 221.284631 128.399438 
L 222.438318 129.080915 
L 223.592006 131.580205 
L 225.89938 133.7552 
L 227.053067 136.601441 
L 228.206754 140.191603 
L 229.360441 141.441297 
L 230.514128 144.371631 
L 231.667815 145.523629 
L 232.821502 148.086318 
L 235.128877 151.667442 
L 236.282564 153.394056 
L 237.436251 154.400112 
L 238.589938 155.871034 
L 240.897312 157.228868 
L 242.050999 158.126572 
L 243.204686 159.174404 
L 244.358374 159.346608 
L 245.512061 159.993758 
L 247.819435 160.665636 
L 248.973122 161.202567 
L 250.126809 161.355994 
L 251.280496 161.63786 
L 254.741558 164.192072 
L 255.895245 165.865653 
L 258.202619 168.726012 
L 261.66368 176.052305 
L 262.817367 179.035178 
L 266.278429 189.926618 
L 268.585803 198.318698 
L 272.046864 211.271661 
L 275.507926 222.586487 
L 277.8153 228.587485 
L 278.968987 231.089649 
L 280.122674 233.196917 
L 281.276361 234.976319 
L 282.430048 236.477205 
L 283.583735 237.678258 
L 284.737422 238.64463 
L 285.89111 239.431154 
L 288.198484 240.522383 
L 290.505858 241.187966 
L 292.813232 241.58151 
L 296.274294 241.883349 
L 302.042729 242.062297 
L 314.733287 242.11625 
L 433 242.11484 
M 433 242.116302 
L -1 242.116302 
L -1 242.116302 
" clip-path="url(#p7959c58c1b)" style="fill: none; stroke: #ccb974; stroke-opacity: 0.3; stroke-width: 1.5; stroke-linecap: round"/>
   </g>
   <g id="patch_3">
    <path d="M 54 252 
L 54 34.56 
" style="fill: none; stroke: #262626; stroke-width: 1.25; stroke-linejoin: miter; stroke-linecap: square"/>
   </g>
   <g id="patch_4">
    <path d="M 388.8 252 
L 388.8 34.56 
" style="fill: none; stroke: #262626; stroke-width: 1.25; stroke-linejoin: miter; stroke-linecap: square"/>
   </g>
   <g id="patch_5">
    <path d="M 54 252 
L 388.8 252 
" style="fill: none; stroke: #262626; stroke-width: 1.25; stroke-linejoin: miter; stroke-linecap: square"/>
   </g>
   <g id="patch_6">
    <path d="M 54 34.56 
L 388.8 34.56 
" style="fill: none; stroke: #262626; stroke-width: 1.25; stroke-linejoin: miter; stroke-linecap: square"/>
   </g>
   <g id="text_15">
    <!-- patient14_app04_phone - Power spectrum -->
    <g style="fill: #262626" transform="translate(107.998125 28.56)scale(0.12 -0.12)">
     <defs>
      <path id="ArialMT-70" d="M 422 -1272 
L 422 3319 
L 934 3319 
L 934 2888 
Q 1116 3141 1344 3267 
Q 1572 3394 1897 3394 
Q 2322 3394 2647 3175 
Q 2972 2956 3137 2557 
Q 3303 2159 3303 1684 
Q 3303 1175 3120 767 
Q 2938 359 2589 142 
Q 2241 -75 1856 -75 
Q 1575 -75 1351 44 
Q 1128 163 984 344 
L 984 -1272 
L 422 -1272 
z
M 931 1641 
Q 931 1000 1190 694 
Q 1450 388 1819 388 
Q 2194 388 2461 705 
Q 2728 1022 2728 1688 
Q 2728 2322 2467 2637 
Q 2206 2953 1844 2953 
Q 1484 2953 1207 2617 
Q 931 2281 931 1641 
z
" transform="scale(0.015625)"/>
      <path id="ArialMT-61" d="M 2588 409 
Q 2275 144 1986 34 
Q 1697 -75 1366 -75 
Q 819 -75 525 192 
Q 231 459 231 875 
Q 231 1119 342 1320 
Q 453 1522 633 1644 
Q 813 1766 1038 1828 
Q 1203 1872 1538 1913 
Q 2219 1994 2541 2106 
Q 2544 2222 2544 2253 
Q 2544 2597 2384 2738 
Q 2169 2928 1744 2928 
Q 1347 2928 1158 2789 
Q 969 2650 878 2297 
L 328 2372 
Q 403 2725 575 2942 
Q 747 3159 1072 3276 
Q 1397 3394 1825 3394 
Q 2250 3394 2515 3294 
Q 2781 3194 2906 3042 
Q 3031 2891 3081 2659 
Q 3109 2516 3109 2141 
L 3109 1391 
Q 3109 606 3145 398 
Q 3181 191 3288 0 
L 2700 0 
Q 2613 175 2588 409 
z
M 2541 1666 
Q 2234 1541 1622 1453 
Q 1275 1403 1131 1340 
Q 988 1278 909 1158 
Q 831 1038 831 891 
Q 831 666 1001 516 
Q 1172 366 1500 366 
Q 1825 366 2078 508 
Q 2331 650 2450 897 
Q 2541 1088 2541 1459 
L 2541 1666 
z
" transform="scale(0.015625)"/>
      <path id="ArialMT-74" d="M 1650 503 
L 1731 6 
Q 1494 -44 1306 -44 
Q 1000 -44 831 53 
Q 663 150 594 308 
Q 525 466 525 972 
L 525 2881 
L 113 2881 
L 113 3319 
L 525 3319 
L 525 4141 
L 1084 4478 
L 1084 3319 
L 1650 3319 
L 1650 2881 
L 1084 2881 
L 1084 941 
Q 1084 700 1114 631 
Q 1144 563 1211 522 
Q 1278 481 1403 481 
Q 1497 481 1650 503 
z
" transform="scale(0.015625)"/>
      <path id="ArialMT-69" d="M 425 3934 
L 425 4581 
L 988 4581 
L 988 3934 
L 425 3934 
z
M 425 0 
L 425 3319 
L 988 3319 
L 988 0 
L 425 0 
z
" transform="scale(0.015625)"/>
      <path id="ArialMT-5f" d="M -97 -1272 
L -97 -866 
L 3631 -866 
L 3631 -1272 
L -97 -1272 
z
" transform="scale(0.015625)"/>
      <path id="ArialMT-68" d="M 422 0 
L 422 4581 
L 984 4581 
L 984 2938 
Q 1378 3394 1978 3394 
Q 2347 3394 2619 3248 
Q 2891 3103 3008 2847 
Q 3125 2591 3125 2103 
L 3125 0 
L 2563 0 
L 2563 2103 
Q 2563 2525 2380 2717 
Q 2197 2909 1863 2909 
Q 1613 2909 1392 2779 
Q 1172 2650 1078 2428 
Q 984 2206 984 1816 
L 984 0 
L 422 0 
z
" transform="scale(0.015625)"/>
      <path id="ArialMT-6f" d="M 213 1659 
Q 213 2581 725 3025 
Q 1153 3394 1769 3394 
Q 2453 3394 2887 2945 
Q 3322 2497 3322 1706 
Q 3322 1066 3130 698 
Q 2938 331 2570 128 
Q 2203 -75 1769 -75 
Q 1072 -75 642 372 
Q 213 819 213 1659 
z
M 791 1659 
Q 791 1022 1069 705 
Q 1347 388 1769 388 
Q 2188 388 2466 706 
Q 2744 1025 2744 1678 
Q 2744 2294 2464 2611 
Q 2184 2928 1769 2928 
Q 1347 2928 1069 2612 
Q 791 2297 791 1659 
z
" transform="scale(0.015625)"/>
      <path id="ArialMT-2d" d="M 203 1375 
L 203 1941 
L 1931 1941 
L 1931 1375 
L 203 1375 
z
" transform="scale(0.015625)"/>
      <path id="ArialMT-50" d="M 494 0 
L 494 4581 
L 2222 4581 
Q 2678 4581 2919 4538 
Q 3256 4481 3484 4323 
Q 3713 4166 3852 3881 
Q 3991 3597 3991 3256 
Q 3991 2672 3619 2267 
Q 3247 1863 2275 1863 
L 1100 1863 
L 1100 0 
L 494 0 
z
M 1100 2403 
L 2284 2403 
Q 2872 2403 3119 2622 
Q 3366 2841 3366 3238 
Q 3366 3525 3220 3729 
Q 3075 3934 2838 4000 
Q 2684 4041 2272 4041 
L 1100 4041 
L 1100 2403 
z
" transform="scale(0.015625)"/>
      <path id="ArialMT-77" d="M 1034 0 
L 19 3319 
L 600 3319 
L 1128 1403 
L 1325 691 
Q 1338 744 1497 1375 
L 2025 3319 
L 2603 3319 
L 3100 1394 
L 3266 759 
L 3456 1400 
L 4025 3319 
L 4572 3319 
L 3534 0 
L 2950 0 
L 2422 1988 
L 2294 2553 
L 1622 0 
L 1034 0 
z
" transform="scale(0.015625)"/>
      <path id="ArialMT-73" d="M 197 991 
L 753 1078 
Q 800 744 1014 566 
Q 1228 388 1613 388 
Q 2000 388 2187 545 
Q 2375 703 2375 916 
Q 2375 1106 2209 1216 
Q 2094 1291 1634 1406 
Q 1016 1563 777 1677 
Q 538 1791 414 1992 
Q 291 2194 291 2438 
Q 291 2659 392 2848 
Q 494 3038 669 3163 
Q 800 3259 1026 3326 
Q 1253 3394 1513 3394 
Q 1903 3394 2198 3281 
Q 2494 3169 2634 2976 
Q 2775 2784 2828 2463 
L 2278 2388 
Q 2241 2644 2061 2787 
Q 1881 2931 1553 2931 
Q 1166 2931 1000 2803 
Q 834 2675 834 2503 
Q 834 2394 903 2306 
Q 972 2216 1119 2156 
Q 1203 2125 1616 2013 
Q 2213 1853 2448 1751 
Q 2684 1650 2818 1456 
Q 2953 1263 2953 975 
Q 2953 694 2789 445 
Q 2625 197 2315 61 
Q 2006 -75 1616 -75 
Q 969 -75 630 194 
Q 291 463 197 991 
z
" transform="scale(0.015625)"/>
      <path id="ArialMT-6d" d="M 422 0 
L 422 3319 
L 925 3319 
L 925 2853 
Q 1081 3097 1340 3245 
Q 1600 3394 1931 3394 
Q 2300 3394 2536 3241 
Q 2772 3088 2869 2813 
Q 3263 3394 3894 3394 
Q 4388 3394 4653 3120 
Q 4919 2847 4919 2278 
L 4919 0 
L 4359 0 
L 4359 2091 
Q 4359 2428 4304 2576 
Q 4250 2725 4106 2815 
Q 3963 2906 3769 2906 
Q 3419 2906 3187 2673 
Q 2956 2441 2956 1928 
L 2956 0 
L 2394 0 
L 2394 2156 
Q 2394 2531 2256 2718 
Q 2119 2906 1806 2906 
Q 1569 2906 1367 2781 
Q 1166 2656 1075 2415 
Q 984 2175 984 1722 
L 984 0 
L 422 0 
z
" transform="scale(0.015625)"/>
     </defs>
     <use xlink:href="#ArialMT-70"/>
     <use xlink:href="#ArialMT-61" x="55.615234"/>
     <use xlink:href="#ArialMT-74" x="111.230469"/>
     <use xlink:href="#ArialMT-69" x="139.013672"/>
     <use xlink:href="#ArialMT-65" x="161.230469"/>
     <use xlink:href="#ArialMT-6e" x="216.845703"/>
     <use xlink:href="#ArialMT-74" x="272.460938"/>
     <use xlink:href="#ArialMT-31" x="300.244141"/>
     <use xlink:href="#ArialMT-34" x="355.859375"/>
     <use xlink:href="#ArialMT-5f" x="411.474609"/>
     <use xlink:href="#ArialMT-61" x="467.089844"/>
     <use xlink:href="#ArialMT-70" x="522.705078"/>
     <use xlink:href="#ArialMT-70" x="578.320312"/>
     <use xlink:href="#ArialMT-30" x="633.935547"/>
     <use xlink:href="#ArialMT-34" x="689.550781"/>
     <use xlink:href="#ArialMT-5f" x="745.166016"/>
     <use xlink:href="#ArialMT-70" x="800.78125"/>
     <use xlink:href="#ArialMT-68" x="856.396484"/>
     <use xlink:href="#ArialMT-6f" x="912.011719"/>
     <use xlink:href="#ArialMT-6e" x="967.626953"/>
     <use xlink:href="#ArialMT-65" x="1023.242188"/>
     <use xlink:href="#ArialMT-20" x="1078.857422"/>
     <use xlink:href="#ArialMT-2d" x="1106.640625"/>
     <use xlink:href="#ArialMT-20" x="1139.941406"/>
     <use xlink:href="#ArialMT-50" x="1167.724609"/>
     <use xlink:href="#ArialMT-6f" x="1234.423828"/>
     <use xlink:href="#ArialMT-77" x="1290.039062"/>
     <use xlink:href="#ArialMT-65" x="1362.255859"/>
     <use xlink:href="#ArialMT-72" x="1417.871094"/>
     <use xlink:href="#ArialMT-20" x="1451.171875"/>
     <use xlink:href="#ArialMT-73" x="1478.955078"/>
     <use xlink:href="#ArialMT-70" x="1528.955078"/>
     <use xlink:href="#ArialMT-65" x="1584.570312"/>
     <use xlink:href="#ArialMT-63" x="1640.185547"/>
     <use xlink:href="#ArialMT-74" x="1690.185547"/>
     <use xlink:href="#ArialMT-72" x="1717.96875"/>
     <use xlink:href="#ArialMT-75" x="1751.269531"/>
     <use xlink:href="#ArialMT-6d" x="1806.884766"/>
    </g>
   </g>
  </g>
 </g>
 <defs>
  <clipPath id="p7959c58c1b">
   <rect x="54" y="34.56" width="334.8" height="217.44"/>
  </clipPath>
 </defs>
</svg>
