<?xml version="1.0" encoding="utf-8" standalone="no"?>
<!DOCTYPE svg PUBLIC "-//W3C//DTD SVG 1.1//EN"
  "http://www.w3.org/Graphics/SVG/1.1/DTD/svg11.dtd">
<svg xmlns:xlink="http://www.w3.org/1999/xlink" width="432pt" height="288pt" viewBox="0 0 432 288" xmlns="http://www.w3.org/2000/svg" version="1.1">
 <metadata>
  <rdf:RDF xmlns:dc="http://purl.org/dc/elements/1.1/" xmlns:cc="http://creativecommons.org/ns#" xmlns:rdf="http://www.w3.org/1999/02/22-rdf-syntax-ns#">
   <cc:Work>
    <dc:type rdf:resource="http://purl.org/dc/dcmitype/StillImage"/>
    <dc:date>2022-07-08T13:41:49.304483</dc:date>
    <dc:format>image/svg+xml</dc:format>
    <dc:creator>
     <cc:Agent>
      <dc:title>Matplotlib v3.5.1, https://matplotlib.org/</dc:title>
     </cc:Agent>
    </dc:creator>
   </cc:Work>
  </rdf:RDF>
 </metadata>
 <defs>
  <style type="text/css">*{stroke-linejoin: round; stroke-linecap: butt}</style>
 </defs>
 <g id="figure_1">
  <g id="patch_1">
   <path d="M 0 288 
L 432 288 
L 432 0 
L 0 0 
z
" style="fill: #ffffff"/>
  </g>
  <g id="axes_1">
   <g id="patch_2">
    <path d="M 54 252 
L 388.8 252 
L 388.8 34.56 
L 54 34.56 
z
" style="fill: #ffffff"/>
   </g>
   <g id="matplotlib.axis_1">
    <g id="xtick_1">
     <g id="line2d_1">
      <defs>
       <path id="m83c82b4446" d="M 0 0 
L 0 6 
" style="stroke: #262626; stroke-width: 1.25"/>
      </defs>
      <g>
       <use xlink:href="#m83c82b4446" x="54" y="252" style="fill: #262626; stroke: #262626; stroke-width: 1.25"/>
      </g>
     </g>
     <g id="text_1">
      <!-- 0 -->
      <g style="fill: #262626" transform="translate(50.941484 269.373594)scale(0.11 -0.11)">
       <defs>
        <path id="ArialMT-30" d="M 266 2259 
Q 266 3072 433 3567 
Q 600 4063 929 4331 
Q 1259 4600 1759 4600 
Q 2128 4600 2406 4451 
Q 2684 4303 2865 4023 
Q 3047 3744 3150 3342 
Q 3253 2941 3253 2259 
Q 3253 1453 3087 958 
Q 2922 463 2592 192 
Q 2263 -78 1759 -78 
Q 1097 -78 719 397 
Q 266 969 266 2259 
z
M 844 2259 
Q 844 1131 1108 757 
Q 1372 384 1759 384 
Q 2147 384 2411 759 
Q 2675 1134 2675 2259 
Q 2675 3391 2411 3762 
Q 2147 4134 1753 4134 
Q 1366 4134 1134 3806 
Q 844 3388 844 2259 
z
" transform="scale(0.015625)"/>
       </defs>
       <use xlink:href="#ArialMT-30"/>
      </g>
     </g>
    </g>
    <g id="xtick_2">
     <g id="line2d_2">
      <g>
       <use xlink:href="#m83c82b4446" x="109.8" y="252" style="fill: #262626; stroke: #262626; stroke-width: 1.25"/>
      </g>
     </g>
     <g id="text_2">
      <!-- 5 -->
      <g style="fill: #262626" transform="translate(106.741484 269.373594)scale(0.11 -0.11)">
       <defs>
        <path id="ArialMT-35" d="M 266 1200 
L 856 1250 
Q 922 819 1161 601 
Q 1400 384 1738 384 
Q 2144 384 2425 690 
Q 2706 997 2706 1503 
Q 2706 1984 2436 2262 
Q 2166 2541 1728 2541 
Q 1456 2541 1237 2417 
Q 1019 2294 894 2097 
L 366 2166 
L 809 4519 
L 3088 4519 
L 3088 3981 
L 1259 3981 
L 1013 2750 
Q 1425 3038 1878 3038 
Q 2478 3038 2890 2622 
Q 3303 2206 3303 1553 
Q 3303 931 2941 478 
Q 2500 -78 1738 -78 
Q 1113 -78 717 272 
Q 322 622 266 1200 
z
" transform="scale(0.015625)"/>
       </defs>
       <use xlink:href="#ArialMT-35"/>
      </g>
     </g>
    </g>
    <g id="xtick_3">
     <g id="line2d_3">
      <g>
       <use xlink:href="#m83c82b4446" x="165.6" y="252" style="fill: #262626; stroke: #262626; stroke-width: 1.25"/>
      </g>
     </g>
     <g id="text_3">
      <!-- 10 -->
      <g style="fill: #262626" transform="translate(159.482969 269.373594)scale(0.11 -0.11)">
       <defs>
        <path id="ArialMT-31" d="M 2384 0 
L 1822 0 
L 1822 3584 
Q 1619 3391 1289 3197 
Q 959 3003 697 2906 
L 697 3450 
Q 1169 3672 1522 3987 
Q 1875 4303 2022 4600 
L 2384 4600 
L 2384 0 
z
" transform="scale(0.015625)"/>
       </defs>
       <use xlink:href="#ArialMT-31"/>
       <use xlink:href="#ArialMT-30" x="55.615234"/>
      </g>
     </g>
    </g>
    <g id="xtick_4">
     <g id="line2d_4">
      <g>
       <use xlink:href="#m83c82b4446" x="221.4" y="252" style="fill: #262626; stroke: #262626; stroke-width: 1.25"/>
      </g>
     </g>
     <g id="text_4">
      <!-- 15 -->
      <g style="fill: #262626" transform="translate(215.282969 269.373594)scale(0.11 -0.11)">
       <use xlink:href="#ArialMT-31"/>
       <use xlink:href="#ArialMT-35" x="55.615234"/>
      </g>
     </g>
    </g>
    <g id="xtick_5">
     <g id="line2d_5">
      <g>
       <use xlink:href="#m83c82b4446" x="277.2" y="252" style="fill: #262626; stroke: #262626; stroke-width: 1.25"/>
      </g>
     </g>
     <g id="text_5">
      <!-- 20 -->
      <g style="fill: #262626" transform="translate(271.082969 269.373594)scale(0.11 -0.11)">
       <defs>
        <path id="ArialMT-32" d="M 3222 541 
L 3222 0 
L 194 0 
Q 188 203 259 391 
Q 375 700 629 1000 
Q 884 1300 1366 1694 
Q 2113 2306 2375 2664 
Q 2638 3022 2638 3341 
Q 2638 3675 2398 3904 
Q 2159 4134 1775 4134 
Q 1369 4134 1125 3890 
Q 881 3647 878 3216 
L 300 3275 
Q 359 3922 746 4261 
Q 1134 4600 1788 4600 
Q 2447 4600 2831 4234 
Q 3216 3869 3216 3328 
Q 3216 3053 3103 2787 
Q 2991 2522 2730 2228 
Q 2469 1934 1863 1422 
Q 1356 997 1212 845 
Q 1069 694 975 541 
L 3222 541 
z
" transform="scale(0.015625)"/>
       </defs>
       <use xlink:href="#ArialMT-32"/>
       <use xlink:href="#ArialMT-30" x="55.615234"/>
      </g>
     </g>
    </g>
    <g id="xtick_6">
     <g id="line2d_6">
      <g>
       <use xlink:href="#m83c82b4446" x="333" y="252" style="fill: #262626; stroke: #262626; stroke-width: 1.25"/>
      </g>
     </g>
     <g id="text_6">
      <!-- 25 -->
      <g style="fill: #262626" transform="translate(326.882969 269.373594)scale(0.11 -0.11)">
       <use xlink:href="#ArialMT-32"/>
       <use xlink:href="#ArialMT-35" x="55.615234"/>
      </g>
     </g>
    </g>
    <g id="xtick_7">
     <g id="line2d_7">
      <g>
       <use xlink:href="#m83c82b4446" x="388.8" y="252" style="fill: #262626; stroke: #262626; stroke-width: 1.25"/>
      </g>
     </g>
     <g id="text_7">
      <!-- 30 -->
      <g style="fill: #262626" transform="translate(382.682969 269.373594)scale(0.11 -0.11)">
       <defs>
        <path id="ArialMT-33" d="M 269 1209 
L 831 1284 
Q 928 806 1161 595 
Q 1394 384 1728 384 
Q 2125 384 2398 659 
Q 2672 934 2672 1341 
Q 2672 1728 2419 1979 
Q 2166 2231 1775 2231 
Q 1616 2231 1378 2169 
L 1441 2663 
Q 1497 2656 1531 2656 
Q 1891 2656 2178 2843 
Q 2466 3031 2466 3422 
Q 2466 3731 2256 3934 
Q 2047 4138 1716 4138 
Q 1388 4138 1169 3931 
Q 950 3725 888 3313 
L 325 3413 
Q 428 3978 793 4289 
Q 1159 4600 1703 4600 
Q 2078 4600 2393 4439 
Q 2709 4278 2876 4000 
Q 3044 3722 3044 3409 
Q 3044 3113 2884 2869 
Q 2725 2625 2413 2481 
Q 2819 2388 3044 2092 
Q 3269 1797 3269 1353 
Q 3269 753 2831 336 
Q 2394 -81 1725 -81 
Q 1122 -81 723 278 
Q 325 638 269 1209 
z
" transform="scale(0.015625)"/>
       </defs>
       <use xlink:href="#ArialMT-33"/>
       <use xlink:href="#ArialMT-30" x="55.615234"/>
      </g>
     </g>
    </g>
    <g id="text_8">
     <!-- Frequency (Hz) -->
     <g style="fill: #262626" transform="translate(180.059063 284.295469)scale(0.12 -0.12)">
      <defs>
       <path id="ArialMT-46" d="M 525 0 
L 525 4581 
L 3616 4581 
L 3616 4041 
L 1131 4041 
L 1131 2622 
L 3281 2622 
L 3281 2081 
L 1131 2081 
L 1131 0 
L 525 0 
z
" transform="scale(0.015625)"/>
       <path id="ArialMT-72" d="M 416 0 
L 416 3319 
L 922 3319 
L 922 2816 
Q 1116 3169 1280 3281 
Q 1444 3394 1641 3394 
Q 1925 3394 2219 3213 
L 2025 2691 
Q 1819 2813 1613 2813 
Q 1428 2813 1281 2702 
Q 1134 2591 1072 2394 
Q 978 2094 978 1738 
L 978 0 
L 416 0 
z
" transform="scale(0.015625)"/>
       <path id="ArialMT-65" d="M 2694 1069 
L 3275 997 
Q 3138 488 2766 206 
Q 2394 -75 1816 -75 
Q 1088 -75 661 373 
Q 234 822 234 1631 
Q 234 2469 665 2931 
Q 1097 3394 1784 3394 
Q 2450 3394 2872 2941 
Q 3294 2488 3294 1666 
Q 3294 1616 3291 1516 
L 816 1516 
Q 847 969 1125 678 
Q 1403 388 1819 388 
Q 2128 388 2347 550 
Q 2566 713 2694 1069 
z
M 847 1978 
L 2700 1978 
Q 2663 2397 2488 2606 
Q 2219 2931 1791 2931 
Q 1403 2931 1139 2672 
Q 875 2413 847 1978 
z
" transform="scale(0.015625)"/>
       <path id="ArialMT-71" d="M 2538 -1272 
L 2538 353 
Q 2406 169 2170 47 
Q 1934 -75 1669 -75 
Q 1078 -75 651 397 
Q 225 869 225 1691 
Q 225 2191 398 2587 
Q 572 2984 901 3189 
Q 1231 3394 1625 3394 
Q 2241 3394 2594 2875 
L 2594 3319 
L 3100 3319 
L 3100 -1272 
L 2538 -1272 
z
M 803 1669 
Q 803 1028 1072 708 
Q 1341 388 1716 388 
Q 2075 388 2334 692 
Q 2594 997 2594 1619 
Q 2594 2281 2320 2615 
Q 2047 2950 1678 2950 
Q 1313 2950 1058 2639 
Q 803 2328 803 1669 
z
" transform="scale(0.015625)"/>
       <path id="ArialMT-75" d="M 2597 0 
L 2597 488 
Q 2209 -75 1544 -75 
Q 1250 -75 995 37 
Q 741 150 617 320 
Q 494 491 444 738 
Q 409 903 409 1263 
L 409 3319 
L 972 3319 
L 972 1478 
Q 972 1038 1006 884 
Q 1059 663 1231 536 
Q 1403 409 1656 409 
Q 1909 409 2131 539 
Q 2353 669 2445 892 
Q 2538 1116 2538 1541 
L 2538 3319 
L 3100 3319 
L 3100 0 
L 2597 0 
z
" transform="scale(0.015625)"/>
       <path id="ArialMT-6e" d="M 422 0 
L 422 3319 
L 928 3319 
L 928 2847 
Q 1294 3394 1984 3394 
Q 2284 3394 2536 3286 
Q 2788 3178 2913 3003 
Q 3038 2828 3088 2588 
Q 3119 2431 3119 2041 
L 3119 0 
L 2556 0 
L 2556 2019 
Q 2556 2363 2490 2533 
Q 2425 2703 2258 2804 
Q 2091 2906 1866 2906 
Q 1506 2906 1245 2678 
Q 984 2450 984 1813 
L 984 0 
L 422 0 
z
" transform="scale(0.015625)"/>
       <path id="ArialMT-63" d="M 2588 1216 
L 3141 1144 
Q 3050 572 2676 248 
Q 2303 -75 1759 -75 
Q 1078 -75 664 370 
Q 250 816 250 1647 
Q 250 2184 428 2587 
Q 606 2991 970 3192 
Q 1334 3394 1763 3394 
Q 2303 3394 2647 3120 
Q 2991 2847 3088 2344 
L 2541 2259 
Q 2463 2594 2264 2762 
Q 2066 2931 1784 2931 
Q 1359 2931 1093 2626 
Q 828 2322 828 1663 
Q 828 994 1084 691 
Q 1341 388 1753 388 
Q 2084 388 2306 591 
Q 2528 794 2588 1216 
z
" transform="scale(0.015625)"/>
       <path id="ArialMT-79" d="M 397 -1278 
L 334 -750 
Q 519 -800 656 -800 
Q 844 -800 956 -737 
Q 1069 -675 1141 -563 
Q 1194 -478 1313 -144 
Q 1328 -97 1363 -6 
L 103 3319 
L 709 3319 
L 1400 1397 
Q 1534 1031 1641 628 
Q 1738 1016 1872 1384 
L 2581 3319 
L 3144 3319 
L 1881 -56 
Q 1678 -603 1566 -809 
Q 1416 -1088 1222 -1217 
Q 1028 -1347 759 -1347 
Q 597 -1347 397 -1278 
z
" transform="scale(0.015625)"/>
       <path id="ArialMT-20" transform="scale(0.015625)"/>
       <path id="ArialMT-28" d="M 1497 -1347 
Q 1031 -759 709 28 
Q 388 816 388 1659 
Q 388 2403 628 3084 
Q 909 3875 1497 4659 
L 1900 4659 
Q 1522 4009 1400 3731 
Q 1209 3300 1100 2831 
Q 966 2247 966 1656 
Q 966 153 1900 -1347 
L 1497 -1347 
z
" transform="scale(0.015625)"/>
       <path id="ArialMT-48" d="M 513 0 
L 513 4581 
L 1119 4581 
L 1119 2700 
L 3500 2700 
L 3500 4581 
L 4106 4581 
L 4106 0 
L 3500 0 
L 3500 2159 
L 1119 2159 
L 1119 0 
L 513 0 
z
" transform="scale(0.015625)"/>
       <path id="ArialMT-7a" d="M 125 0 
L 125 456 
L 2238 2881 
Q 1878 2863 1603 2863 
L 250 2863 
L 250 3319 
L 2963 3319 
L 2963 2947 
L 1166 841 
L 819 456 
Q 1197 484 1528 484 
L 3063 484 
L 3063 0 
L 125 0 
z
" transform="scale(0.015625)"/>
       <path id="ArialMT-29" d="M 791 -1347 
L 388 -1347 
Q 1322 153 1322 1656 
Q 1322 2244 1188 2822 
Q 1081 3291 891 3722 
Q 769 4003 388 4659 
L 791 4659 
Q 1378 3875 1659 3084 
Q 1900 2403 1900 1659 
Q 1900 816 1576 28 
Q 1253 -759 791 -1347 
z
" transform="scale(0.015625)"/>
      </defs>
      <use xlink:href="#ArialMT-46"/>
      <use xlink:href="#ArialMT-72" x="61.083984"/>
      <use xlink:href="#ArialMT-65" x="94.384766"/>
      <use xlink:href="#ArialMT-71" x="150"/>
      <use xlink:href="#ArialMT-75" x="205.615234"/>
      <use xlink:href="#ArialMT-65" x="261.230469"/>
      <use xlink:href="#ArialMT-6e" x="316.845703"/>
      <use xlink:href="#ArialMT-63" x="372.460938"/>
      <use xlink:href="#ArialMT-79" x="422.460938"/>
      <use xlink:href="#ArialMT-20" x="472.460938"/>
      <use xlink:href="#ArialMT-28" x="500.244141"/>
      <use xlink:href="#ArialMT-48" x="533.544922"/>
      <use xlink:href="#ArialMT-7a" x="605.761719"/>
      <use xlink:href="#ArialMT-29" x="655.761719"/>
     </g>
    </g>
   </g>
   <g id="matplotlib.axis_2">
    <g id="ytick_1">
     <g id="line2d_8">
      <defs>
       <path id="md87328aebd" d="M 0 0 
L -6 0 
" style="stroke: #262626; stroke-width: 1.25"/>
      </defs>
      <g>
       <use xlink:href="#md87328aebd" x="54" y="242.116364" style="fill: #262626; stroke: #262626; stroke-width: 1.25"/>
      </g>
     </g>
     <g id="text_9">
      <!-- 0.0 -->
      <g style="fill: #262626" transform="translate(29.21 246.053161)scale(0.11 -0.11)">
       <defs>
        <path id="ArialMT-2e" d="M 581 0 
L 581 641 
L 1222 641 
L 1222 0 
L 581 0 
z
" transform="scale(0.015625)"/>
       </defs>
       <use xlink:href="#ArialMT-30"/>
       <use xlink:href="#ArialMT-2e" x="55.615234"/>
       <use xlink:href="#ArialMT-30" x="83.398438"/>
      </g>
     </g>
    </g>
    <g id="ytick_2">
     <g id="line2d_9">
      <g>
       <use xlink:href="#md87328aebd" x="54" y="202.581818" style="fill: #262626; stroke: #262626; stroke-width: 1.25"/>
      </g>
     </g>
     <g id="text_10">
      <!-- 0.2 -->
      <g style="fill: #262626" transform="translate(29.21 206.518615)scale(0.11 -0.11)">
       <use xlink:href="#ArialMT-30"/>
       <use xlink:href="#ArialMT-2e" x="55.615234"/>
       <use xlink:href="#ArialMT-32" x="83.398438"/>
      </g>
     </g>
    </g>
    <g id="ytick_3">
     <g id="line2d_10">
      <g>
       <use xlink:href="#md87328aebd" x="54" y="163.047273" style="fill: #262626; stroke: #262626; stroke-width: 1.25"/>
      </g>
     </g>
     <g id="text_11">
      <!-- 0.4 -->
      <g style="fill: #262626" transform="translate(29.21 166.98407)scale(0.11 -0.11)">
       <defs>
        <path id="ArialMT-34" d="M 2069 0 
L 2069 1097 
L 81 1097 
L 81 1613 
L 2172 4581 
L 2631 4581 
L 2631 1613 
L 3250 1613 
L 3250 1097 
L 2631 1097 
L 2631 0 
L 2069 0 
z
M 2069 1613 
L 2069 3678 
L 634 1613 
L 2069 1613 
z
" transform="scale(0.015625)"/>
       </defs>
       <use xlink:href="#ArialMT-30"/>
       <use xlink:href="#ArialMT-2e" x="55.615234"/>
       <use xlink:href="#ArialMT-34" x="83.398438"/>
      </g>
     </g>
    </g>
    <g id="ytick_4">
     <g id="line2d_11">
      <g>
       <use xlink:href="#md87328aebd" x="54" y="123.512727" style="fill: #262626; stroke: #262626; stroke-width: 1.25"/>
      </g>
     </g>
     <g id="text_12">
      <!-- 0.6 -->
      <g style="fill: #262626" transform="translate(29.21 127.449524)scale(0.11 -0.11)">
       <defs>
        <path id="ArialMT-36" d="M 3184 3459 
L 2625 3416 
Q 2550 3747 2413 3897 
Q 2184 4138 1850 4138 
Q 1581 4138 1378 3988 
Q 1113 3794 959 3422 
Q 806 3050 800 2363 
Q 1003 2672 1297 2822 
Q 1591 2972 1913 2972 
Q 2475 2972 2870 2558 
Q 3266 2144 3266 1488 
Q 3266 1056 3080 686 
Q 2894 316 2569 119 
Q 2244 -78 1831 -78 
Q 1128 -78 684 439 
Q 241 956 241 2144 
Q 241 3472 731 4075 
Q 1159 4600 1884 4600 
Q 2425 4600 2770 4297 
Q 3116 3994 3184 3459 
z
M 888 1484 
Q 888 1194 1011 928 
Q 1134 663 1356 523 
Q 1578 384 1822 384 
Q 2178 384 2434 671 
Q 2691 959 2691 1453 
Q 2691 1928 2437 2201 
Q 2184 2475 1800 2475 
Q 1419 2475 1153 2201 
Q 888 1928 888 1484 
z
" transform="scale(0.015625)"/>
       </defs>
       <use xlink:href="#ArialMT-30"/>
       <use xlink:href="#ArialMT-2e" x="55.615234"/>
       <use xlink:href="#ArialMT-36" x="83.398438"/>
      </g>
     </g>
    </g>
    <g id="ytick_5">
     <g id="line2d_12">
      <g>
       <use xlink:href="#md87328aebd" x="54" y="83.978182" style="fill: #262626; stroke: #262626; stroke-width: 1.25"/>
      </g>
     </g>
     <g id="text_13">
      <!-- 0.8 -->
      <g style="fill: #262626" transform="translate(29.21 87.914979)scale(0.11 -0.11)">
       <defs>
        <path id="ArialMT-38" d="M 1131 2484 
Q 781 2613 612 2850 
Q 444 3088 444 3419 
Q 444 3919 803 4259 
Q 1163 4600 1759 4600 
Q 2359 4600 2725 4251 
Q 3091 3903 3091 3403 
Q 3091 3084 2923 2848 
Q 2756 2613 2416 2484 
Q 2838 2347 3058 2040 
Q 3278 1734 3278 1309 
Q 3278 722 2862 322 
Q 2447 -78 1769 -78 
Q 1091 -78 675 323 
Q 259 725 259 1325 
Q 259 1772 486 2073 
Q 713 2375 1131 2484 
z
M 1019 3438 
Q 1019 3113 1228 2906 
Q 1438 2700 1772 2700 
Q 2097 2700 2305 2904 
Q 2513 3109 2513 3406 
Q 2513 3716 2298 3927 
Q 2084 4138 1766 4138 
Q 1444 4138 1231 3931 
Q 1019 3725 1019 3438 
z
M 838 1322 
Q 838 1081 952 856 
Q 1066 631 1291 507 
Q 1516 384 1775 384 
Q 2178 384 2440 643 
Q 2703 903 2703 1303 
Q 2703 1709 2433 1975 
Q 2163 2241 1756 2241 
Q 1359 2241 1098 1978 
Q 838 1716 838 1322 
z
" transform="scale(0.015625)"/>
       </defs>
       <use xlink:href="#ArialMT-30"/>
       <use xlink:href="#ArialMT-2e" x="55.615234"/>
       <use xlink:href="#ArialMT-38" x="83.398438"/>
      </g>
     </g>
    </g>
    <g id="ytick_6">
     <g id="line2d_13">
      <g>
       <use xlink:href="#md87328aebd" x="54" y="44.443636" style="fill: #262626; stroke: #262626; stroke-width: 1.25"/>
      </g>
     </g>
     <g id="text_14">
      <!-- 1.0 -->
      <g style="fill: #262626" transform="translate(29.21 48.380433)scale(0.11 -0.11)">
       <use xlink:href="#ArialMT-31"/>
       <use xlink:href="#ArialMT-2e" x="55.615234"/>
       <use xlink:href="#ArialMT-30" x="83.398438"/>
      </g>
     </g>
    </g>
   </g>
   <g id="line2d_14">
    <path d="M 54 242.116305 
L 161.364519 242.044863 
L 162.349515 241.833613 
L 163.33451 241.391476 
L 164.319506 240.784206 
L 165.304501 241.816109 
L 166.289497 241.430791 
L 167.274492 241.569374 
L 168.259488 241.989805 
L 169.244484 240.215865 
L 170.229479 240.691556 
L 171.214475 238.854352 
L 172.19947 239.599735 
L 173.184466 242.072954 
L 174.169462 240.756447 
L 175.154457 241.720147 
L 176.139453 242.109748 
L 177.124448 240.543262 
L 178.109444 241.86206 
L 179.09444 240.599448 
L 180.079435 241.190074 
L 181.064431 240.956811 
L 182.049426 241.383096 
L 183.034422 240.795136 
L 184.019417 239.818803 
L 185.004413 241.10628 
L 185.989409 235.456848 
L 186.974404 241.773413 
L 187.9594 240.517709 
L 188.944395 239.617199 
L 189.929391 239.761448 
L 190.914387 235.361531 
L 192.884378 241.104708 
L 193.869373 241.297256 
L 194.854369 241.887668 
L 195.839365 241.82266 
L 196.82436 242.022106 
L 197.809356 238.556728 
L 198.794351 241.763748 
L 200.764342 241.929281 
L 201.749338 240.543381 
L 202.734334 238.209922 
L 203.719329 241.484601 
L 204.704325 242.011849 
L 205.68932 241.974567 
L 206.674316 240.811593 
L 207.659312 241.668853 
L 208.644307 241.732288 
L 209.629303 241.228688 
L 210.614298 241.357015 
L 211.599294 242.081516 
L 212.584289 240.17806 
L 213.569285 242.099406 
L 214.554281 240.528054 
L 215.539276 241.427335 
L 216.524272 242.079315 
L 217.509267 241.59221 
L 218.494263 240.867136 
L 219.479259 241.961689 
L 220.464254 241.819759 
L 221.44925 241.496326 
L 222.434245 238.994105 
L 223.419241 227.368444 
L 224.404237 223.608913 
L 225.389232 223.977337 
L 226.374228 215.871779 
L 227.359223 240.818937 
L 228.344219 44.443636 
L 229.329214 225.912556 
L 230.31421 225.774901 
L 231.299206 236.668956 
L 232.284201 232.786762 
L 233.269197 232.884436 
L 234.254192 234.302971 
L 235.239188 238.860502 
L 236.224184 235.961276 
L 237.209179 238.34104 
L 238.194175 235.586081 
L 239.17917 240.338112 
L 240.164166 237.389661 
L 241.149162 237.932716 
L 242.134157 238.774359 
L 243.119153 240.03525 
L 244.104148 241.054347 
L 245.089144 241.046251 
L 246.074139 241.845187 
L 247.059135 241.017033 
L 248.044131 241.455563 
L 249.029126 241.55145 
L 250.014122 241.304642 
L 251.984113 241.605994 
L 253.954104 241.674053 
L 255.924095 242.063222 
L 258.879082 241.430211 
L 259.864078 240.769717 
L 260.849073 241.729957 
L 261.834069 241.721572 
L 263.80406 241.979482 
L 264.789056 241.947051 
L 265.774051 242.106004 
L 267.744042 241.794942 
L 268.729038 242.048407 
L 269.714034 242.10146 
L 270.699029 241.910042 
L 271.684025 242.07786 
L 274.639011 242.075485 
L 277.593998 242.100658 
L 388.8985 242.115767 
L 388.8985 242.115767 
" clip-path="url(#p69167b7820)" style="fill: none; stroke: #4c72b0; stroke-opacity: 0.3; stroke-width: 1.5; stroke-linecap: round"/>
   </g>
   <g id="line2d_15">
    <path d="M 54 242.110367 
L 151.514563 242.098307 
L 152.499559 241.930863 
L 153.484554 242.066189 
L 159.394528 242.007016 
L 160.379523 241.213999 
L 161.364519 241.998975 
L 162.349515 241.965685 
L 163.33451 239.156803 
L 164.319506 241.920146 
L 165.304501 226.544941 
L 166.289497 235.873771 
L 167.274492 238.925998 
L 168.259488 239.897138 
L 169.244484 240.024644 
L 170.229479 233.974436 
L 171.214475 234.167542 
L 172.19947 214.477898 
L 173.184466 233.793773 
L 174.169462 220.032459 
L 175.154457 241.850411 
L 176.139453 208.233256 
L 177.124448 235.383234 
L 178.109444 232.056629 
L 179.09444 239.575693 
L 180.079435 216.576094 
L 181.064431 240.668521 
L 182.049426 235.509208 
L 183.034422 222.32781 
L 184.019417 237.393934 
L 185.004413 228.558228 
L 185.989409 229.269519 
L 186.974404 217.907612 
L 187.9594 211.493769 
L 188.944395 224.831578 
L 189.929391 235.505687 
L 190.914387 222.343831 
L 191.899382 230.16294 
L 192.884378 235.649166 
L 193.869373 225.155068 
L 194.854369 240.630264 
L 195.839365 219.190428 
L 196.82436 226.7179 
L 197.809356 238.441805 
L 198.794351 240.255864 
L 199.779347 235.054968 
L 200.764342 242.096754 
L 201.749338 239.676853 
L 202.734334 231.695256 
L 203.719329 239.229909 
L 204.704325 238.913347 
L 205.68932 240.51974 
L 206.674316 241.509998 
L 208.644307 233.603487 
L 209.629303 231.689428 
L 210.614298 234.591893 
L 211.599294 240.13875 
L 212.584289 238.552888 
L 213.569285 241.56119 
L 214.554281 236.656467 
L 215.539276 235.529175 
L 216.524272 241.890171 
L 217.509267 240.217392 
L 218.494263 239.628456 
L 219.479259 224.194786 
L 220.464254 241.530312 
L 221.44925 240.216308 
L 222.434245 241.926005 
L 223.419241 240.473654 
L 224.404237 234.8905 
L 225.389232 230.547094 
L 226.374228 209.368045 
L 227.359223 209.667239 
L 228.344219 44.443636 
L 229.329214 200.93654 
L 230.31421 177.380629 
L 232.284201 239.858084 
L 233.269197 231.935216 
L 234.254192 241.701118 
L 235.239188 240.765 
L 236.224184 236.498857 
L 237.209179 239.135875 
L 238.194175 219.959586 
L 239.17917 235.515198 
L 240.164166 235.619937 
L 241.149162 238.417782 
L 243.119153 240.854589 
L 244.104148 238.772676 
L 245.089144 239.095141 
L 246.074139 236.659484 
L 247.059135 233.811349 
L 248.044131 242.099914 
L 249.029126 237.804721 
L 250.014122 241.585823 
L 250.999117 239.164974 
L 251.984113 240.362176 
L 252.969109 239.668902 
L 253.954104 239.539995 
L 254.9391 240.902806 
L 255.924095 241.195508 
L 256.909091 240.578481 
L 257.894086 240.735997 
L 258.879082 240.376748 
L 259.864078 238.599503 
L 260.849073 232.881404 
L 261.834069 241.518227 
L 262.819064 238.613183 
L 263.80406 241.053697 
L 264.789056 240.793985 
L 265.774051 241.570801 
L 266.759047 241.286687 
L 267.744042 241.642684 
L 268.729038 241.233191 
L 269.714034 241.698441 
L 270.699029 239.224605 
L 272.66902 241.654301 
L 274.639011 241.745328 
L 275.624007 241.756392 
L 276.609003 241.368569 
L 277.593998 241.765075 
L 279.563989 242.113833 
L 280.548985 241.789708 
L 281.533981 242.063998 
L 282.518976 241.574535 
L 283.503972 242.036557 
L 285.473963 241.935577 
L 287.443954 242.101682 
L 388.8985 242.115782 
L 388.8985 242.115782 
" clip-path="url(#p69167b7820)" style="fill: none; stroke: #dd8452; stroke-opacity: 0.3; stroke-width: 1.5; stroke-linecap: round"/>
   </g>
   <g id="line2d_16">
    <path d="M 54 242.116349 
L 162.349515 242.116325 
L 163.33451 241.555428 
L 164.319506 241.666584 
L 165.304501 241.56072 
L 166.289497 242.110843 
L 167.274492 241.906456 
L 168.259488 240.705379 
L 169.244484 242.02331 
L 170.229479 241.751886 
L 171.214475 240.822321 
L 172.19947 240.696101 
L 173.184466 237.609109 
L 174.169462 239.459524 
L 175.154457 239.306388 
L 176.139453 238.668777 
L 177.124448 240.634297 
L 178.109444 242.110108 
L 179.09444 241.153113 
L 180.079435 241.931662 
L 181.064431 240.76591 
L 182.049426 240.221806 
L 183.034422 241.890358 
L 184.019417 240.014936 
L 185.004413 241.531212 
L 185.989409 239.196547 
L 186.974404 241.30471 
L 187.9594 238.228287 
L 188.944395 241.129741 
L 189.929391 238.808886 
L 190.914387 241.035008 
L 191.899382 238.135577 
L 192.884378 241.288812 
L 193.869373 239.662509 
L 194.854369 240.766881 
L 195.839365 240.94691 
L 196.82436 242.097915 
L 197.809356 240.446921 
L 198.794351 241.229428 
L 199.779347 239.803659 
L 200.764342 241.04113 
L 201.749338 236.860081 
L 202.734334 241.750983 
L 203.719329 239.151116 
L 204.704325 241.838355 
L 205.68932 240.162184 
L 206.674316 240.593017 
L 207.659312 241.8703 
L 208.644307 232.563335 
L 209.629303 235.739639 
L 210.614298 239.655627 
L 211.599294 241.800753 
L 213.569285 240.138045 
L 214.554281 240.068715 
L 215.539276 240.889088 
L 216.524272 241.401215 
L 217.509267 234.52312 
L 218.494263 239.676914 
L 219.479259 240.520033 
L 220.464254 235.959529 
L 221.44925 223.528264 
L 222.434245 233.645891 
L 223.419241 233.25489 
L 224.404237 225.327518 
L 225.389232 225.677087 
L 226.374228 187.143384 
L 227.359223 241.649919 
L 228.344219 44.443636 
L 229.329214 233.69568 
L 230.31421 220.342642 
L 231.299206 227.863302 
L 232.284201 228.998816 
L 233.269197 237.005469 
L 234.254192 231.353057 
L 235.239188 229.768694 
L 236.224184 235.728862 
L 237.209179 238.70349 
L 238.194175 234.526453 
L 239.17917 241.95447 
L 240.164166 233.534747 
L 241.149162 237.551957 
L 242.134157 233.787542 
L 243.119153 236.620378 
L 244.104148 237.85229 
L 245.089144 241.895572 
L 246.074139 239.89327 
L 247.059135 239.713268 
L 248.044131 242.094794 
L 249.029126 240.942786 
L 250.014122 240.860403 
L 250.999117 241.429591 
L 251.984113 241.180174 
L 252.969109 240.666168 
L 253.954104 241.149777 
L 254.9391 240.930519 
L 255.924095 241.467566 
L 256.909091 239.650486 
L 257.894086 241.812061 
L 258.879082 240.357905 
L 259.864078 239.309684 
L 260.849073 240.711688 
L 261.834069 240.463009 
L 262.819064 241.291729 
L 263.80406 241.477934 
L 264.789056 241.228357 
L 265.774051 241.868704 
L 266.759047 241.618178 
L 267.744042 240.107837 
L 268.729038 242.039537 
L 269.714034 241.986375 
L 270.699029 241.656867 
L 271.684025 241.857846 
L 272.66902 241.686397 
L 273.654016 241.660415 
L 274.639011 241.365442 
L 275.624007 241.890894 
L 276.609003 241.990644 
L 277.593998 241.941903 
L 278.578994 242.095332 
L 282.518976 241.848765 
L 283.503972 242.09509 
L 284.488967 242.034605 
L 286.458959 242.108368 
L 294.338923 242.10247 
L 313.053839 242.114962 
L 388.8985 242.116145 
L 388.8985 242.116145 
" clip-path="url(#p69167b7820)" style="fill: none; stroke: #55a868; stroke-opacity: 0.3; stroke-width: 1.5; stroke-linecap: round"/>
   </g>
   <g id="line2d_17">
    <path d="M 54 242.115511 
L 156.439541 242.024011 
L 157.424537 241.954427 
L 159.394528 242.008646 
L 160.379523 241.29283 
L 161.364519 241.814181 
L 162.349515 240.350184 
L 163.33451 239.981916 
L 164.319506 241.146726 
L 166.289497 237.04311 
L 167.274492 238.567369 
L 168.259488 233.588455 
L 169.244484 237.373776 
L 170.229479 235.490097 
L 171.214475 236.111742 
L 172.19947 228.140663 
L 173.184466 237.819144 
L 174.169462 234.302458 
L 175.154457 234.923941 
L 176.139453 233.426068 
L 177.124448 240.066058 
L 178.109444 239.89992 
L 179.09444 241.058784 
L 180.079435 241.889983 
L 181.064431 239.421596 
L 182.049426 238.707625 
L 183.034422 241.668642 
L 184.019417 240.850208 
L 185.004413 236.208224 
L 185.989409 239.066671 
L 186.974404 234.431008 
L 187.9594 235.769707 
L 188.944395 239.117446 
L 189.929391 233.588964 
L 190.914387 231.759123 
L 191.899382 227.666661 
L 192.884378 234.390979 
L 193.869373 230.124877 
L 194.854369 221.565561 
L 195.839365 231.205727 
L 196.82436 228.932996 
L 197.809356 229.396137 
L 198.794351 232.600489 
L 199.779347 224.946896 
L 200.764342 234.971817 
L 201.749338 223.060426 
L 202.734334 232.521368 
L 203.719329 230.96703 
L 204.704325 220.328032 
L 205.68932 221.155312 
L 206.674316 232.279018 
L 207.659312 234.990415 
L 208.644307 233.706128 
L 209.629303 241.748347 
L 210.614298 238.324773 
L 211.599294 241.19323 
L 212.584289 239.281149 
L 213.569285 240.39582 
L 214.554281 240.928848 
L 215.539276 238.610749 
L 216.524272 240.313295 
L 217.509267 238.578644 
L 218.494263 238.760665 
L 219.479259 237.502419 
L 220.464254 240.881902 
L 221.44925 239.021978 
L 222.434245 241.49284 
L 223.419241 237.794765 
L 224.404237 230.795367 
L 225.389232 218.570633 
L 226.374228 204.581874 
L 227.359223 197.520474 
L 228.344219 44.443636 
L 229.329214 222.219069 
L 230.31421 206.988163 
L 231.299206 230.168888 
L 232.284201 241.547153 
L 233.269197 241.333119 
L 234.254192 237.790127 
L 235.239188 235.169008 
L 236.224184 241.213305 
L 237.209179 234.5783 
L 238.194175 242.104843 
L 239.17917 239.537335 
L 240.164166 241.343091 
L 241.149162 240.546569 
L 242.134157 239.063129 
L 243.119153 239.006087 
L 244.104148 240.642653 
L 245.089144 241.856943 
L 246.074139 240.978567 
L 247.059135 241.827768 
L 248.044131 242.024653 
L 249.029126 241.087609 
L 250.014122 240.528977 
L 250.999117 241.699675 
L 251.984113 241.326436 
L 252.969109 241.905579 
L 253.954104 241.213378 
L 254.9391 239.68038 
L 255.924095 242.08215 
L 256.909091 239.85161 
L 257.894086 241.08993 
L 258.879082 240.978237 
L 259.864078 241.735584 
L 260.849073 240.990529 
L 261.834069 241.497606 
L 262.819064 241.116168 
L 263.80406 241.780631 
L 264.789056 241.748676 
L 265.774051 240.899646 
L 266.759047 240.496521 
L 267.744042 241.43027 
L 268.729038 239.319384 
L 269.714034 241.248894 
L 272.66902 241.941399 
L 273.654016 240.763688 
L 274.639011 242.014794 
L 277.593998 242.028965 
L 278.578994 241.918656 
L 285.473963 242.043768 
L 288.42895 242.057759 
L 293.353928 242.105403 
L 309.113857 242.10667 
L 388.8985 242.113242 
L 388.8985 242.113242 
" clip-path="url(#p69167b7820)" style="fill: none; stroke: #c44e52; stroke-opacity: 0.3; stroke-width: 1.5; stroke-linecap: round"/>
   </g>
   <g id="line2d_18">
    <path d="M 54 242.115657 
L 148.559576 242.047828 
L 151.514563 241.880696 
L 153.484554 242.021721 
L 154.46955 241.709566 
L 156.439541 241.734078 
L 160.379523 241.175399 
L 161.364519 241.743933 
L 162.349515 241.567669 
L 163.33451 240.58899 
L 164.319506 235.254156 
L 165.304501 227.521233 
L 166.289497 239.571913 
L 167.274492 198.172553 
L 168.259488 240.30444 
L 169.244484 226.501497 
L 170.229479 239.247267 
L 171.214475 235.301022 
L 172.19947 237.672675 
L 173.184466 202.869021 
L 174.169462 229.928805 
L 175.154457 69.544853 
L 177.124448 236.316703 
L 178.109444 231.208079 
L 179.09444 193.720048 
L 180.079435 140.284749 
L 181.064431 202.729719 
L 182.049426 239.648771 
L 183.034422 238.244261 
L 184.019417 212.400486 
L 185.004413 214.767284 
L 185.989409 233.004931 
L 186.974404 223.012086 
L 187.9594 240.06901 
L 188.944395 233.236238 
L 189.929391 196.693102 
L 190.914387 219.862215 
L 191.899382 236.077829 
L 192.884378 164.164684 
L 193.869373 194.266546 
L 194.854369 95.585196 
L 195.839365 198.551059 
L 196.82436 221.968105 
L 197.809356 197.570283 
L 198.794351 217.089128 
L 199.779347 141.505907 
L 200.764342 189.77137 
L 201.749338 135.610278 
L 202.734334 237.282768 
L 203.719329 168.726411 
L 204.704325 239.96143 
L 205.68932 206.697272 
L 206.674316 188.356134 
L 207.659312 226.066036 
L 208.644307 232.974518 
L 209.629303 199.638074 
L 210.614298 222.406881 
L 211.599294 212.355259 
L 212.584289 236.622374 
L 213.569285 179.931989 
L 214.554281 176.232441 
L 215.539276 229.859589 
L 216.524272 240.70677 
L 217.509267 226.204446 
L 218.494263 233.381508 
L 219.479259 189.47406 
L 220.464254 229.58436 
L 221.44925 239.08341 
L 222.434245 223.389785 
L 223.419241 223.993815 
L 224.404237 236.144007 
L 225.389232 59.103166 
L 226.374228 221.732781 
L 227.359223 226.437555 
L 228.344219 44.443636 
L 229.329214 218.795511 
L 230.31421 201.170588 
L 231.299206 235.892836 
L 232.284201 232.116443 
L 233.269197 227.081807 
L 234.254192 238.478074 
L 235.239188 200.22614 
L 236.224184 233.230529 
L 237.209179 177.143239 
L 238.194175 237.364967 
L 239.17917 223.495872 
L 240.164166 235.891971 
L 241.149162 225.624971 
L 242.134157 221.476284 
L 243.119153 189.331056 
L 244.104148 225.076107 
L 245.089144 195.81059 
L 246.074139 237.736938 
L 247.059135 239.222561 
L 248.044131 210.806278 
L 249.029126 232.10157 
L 250.014122 234.910923 
L 250.999117 229.428483 
L 251.984113 237.666983 
L 252.969109 235.922757 
L 253.954104 232.356725 
L 254.9391 218.581527 
L 255.924095 227.641724 
L 256.909091 212.784263 
L 257.894086 219.131104 
L 258.879082 233.795468 
L 259.864078 194.826186 
L 260.849073 214.043455 
L 261.834069 222.397918 
L 262.819064 233.614013 
L 263.80406 233.296413 
L 264.789056 220.465443 
L 265.774051 239.454204 
L 266.759047 224.662168 
L 267.744042 238.836891 
L 268.729038 229.268928 
L 269.714034 227.882099 
L 270.699029 220.975767 
L 271.684025 235.001238 
L 272.66902 230.145206 
L 273.654016 233.279807 
L 274.639011 241.982079 
L 275.624007 233.879554 
L 276.609003 236.437055 
L 277.593998 234.222014 
L 278.578994 235.966282 
L 279.563989 239.59345 
L 280.548985 240.815055 
L 281.533981 241.852178 
L 282.518976 239.825491 
L 283.503972 242.034367 
L 284.488967 239.913449 
L 285.473963 241.586633 
L 286.458959 242.034224 
L 287.443954 241.373326 
L 288.42895 242.009226 
L 289.413945 242.03578 
L 290.398941 241.670676 
L 291.383936 242.002356 
L 294.338923 242.085191 
L 295.323919 242.025506 
L 296.308914 242.082098 
L 297.29391 242.02383 
L 299.263901 242.100679 
L 314.038835 242.105725 
L 380.033539 242.112862 
L 388.8985 242.11313 
L 388.8985 242.11313 
" clip-path="url(#p69167b7820)" style="fill: none; stroke: #8172b3; stroke-opacity: 0.3; stroke-width: 1.5; stroke-linecap: round"/>
   </g>
   <g id="line2d_19">
    <path d="M 54 242.01748 
L 150.529568 241.922595 
L 152.499559 241.860822 
L 154.46955 241.249665 
L 155.454545 241.265919 
L 156.439541 240.72958 
L 157.424537 240.029884 
L 159.394528 240.302873 
L 160.379523 237.233032 
L 161.364519 237.147514 
L 162.349515 235.123805 
L 163.33451 237.856352 
L 164.319506 238.633506 
L 165.304501 241.548181 
L 166.289497 241.218864 
L 167.274492 239.494232 
L 168.259488 234.655236 
L 169.244484 238.179454 
L 170.229479 239.606683 
L 171.214475 236.218308 
L 172.19947 239.402033 
L 173.184466 229.085497 
L 174.169462 239.476817 
L 175.154457 186.236808 
L 176.139453 217.756686 
L 177.124448 236.788583 
L 178.109444 227.230815 
L 179.09444 210.424441 
L 180.079435 145.00029 
L 181.064431 209.7562 
L 182.049426 215.55053 
L 183.034422 232.51725 
L 184.019417 210.426319 
L 185.004413 216.947051 
L 185.989409 224.684803 
L 186.974404 224.960139 
L 187.9594 227.221302 
L 188.944395 232.356911 
L 189.929391 202.876199 
L 190.914387 233.757368 
L 192.884378 197.352784 
L 193.869373 201.861326 
L 194.854369 150.111262 
L 195.839365 201.330168 
L 196.82436 214.001833 
L 197.809356 223.637033 
L 198.794351 219.515005 
L 199.779347 176.895361 
L 200.764342 220.610342 
L 201.749338 207.850638 
L 202.734334 240.955637 
L 203.719329 193.374743 
L 204.704325 237.472601 
L 205.68932 190.819104 
L 206.674316 228.355558 
L 207.659312 227.527806 
L 208.644307 238.348236 
L 209.629303 222.598737 
L 210.614298 236.130569 
L 211.599294 223.482997 
L 212.584289 228.351019 
L 213.569285 237.37552 
L 214.554281 220.642579 
L 215.539276 238.0065 
L 216.524272 234.167615 
L 217.509267 231.104409 
L 218.494263 215.783127 
L 219.479259 216.16996 
L 220.464254 223.938612 
L 221.44925 224.605265 
L 222.434245 238.283789 
L 223.419241 241.925252 
L 224.404237 241.910477 
L 225.389232 228.60339 
L 226.374228 44.443636 
L 227.359223 156.355599 
L 228.344219 187.141271 
L 229.329214 185.691439 
L 230.31421 229.084514 
L 231.299206 185.422614 
L 232.284201 179.350342 
L 233.269197 233.415611 
L 234.254192 225.759293 
L 235.239188 161.761719 
L 236.224184 235.357543 
L 237.209179 132.76437 
L 238.194175 233.899464 
L 239.17917 192.368058 
L 240.164166 221.236699 
L 241.149162 215.645544 
L 242.134157 239.318836 
L 243.119153 220.5678 
L 244.104148 237.775561 
L 245.089144 218.131448 
L 246.074139 241.089202 
L 247.059135 235.678872 
L 248.044131 238.561153 
L 250.014122 241.864876 
L 250.999117 238.633882 
L 251.984113 234.357653 
L 252.969109 237.183513 
L 253.954104 240.913661 
L 254.9391 210.509781 
L 255.924095 236.839338 
L 256.909091 211.725659 
L 257.894086 239.553599 
L 258.879082 240.954741 
L 259.864078 236.09707 
L 260.849073 215.04359 
L 261.834069 234.885245 
L 262.819064 235.75848 
L 263.80406 236.436955 
L 264.789056 227.850347 
L 265.774051 241.627177 
L 266.759047 228.045561 
L 267.744042 239.324483 
L 269.714034 224.955366 
L 270.699029 223.430469 
L 271.684025 233.560267 
L 272.66902 226.576546 
L 273.654016 239.832185 
L 274.639011 240.56533 
L 275.624007 241.680757 
L 276.609003 239.933417 
L 277.593998 241.618463 
L 278.578994 240.182522 
L 279.563989 240.39108 
L 280.548985 241.496638 
L 281.533981 240.959046 
L 282.518976 240.690548 
L 283.503972 241.301404 
L 284.488967 240.383608 
L 285.473963 241.488315 
L 286.458959 241.520838 
L 287.443954 241.739011 
L 288.42895 241.576919 
L 289.413945 241.897055 
L 290.398941 241.409857 
L 291.383936 242.05903 
L 292.368932 241.816592 
L 293.353928 241.928596 
L 294.338923 241.923745 
L 295.323919 241.793717 
L 298.278906 241.894858 
L 300.248897 241.886156 
L 306.15887 241.977134 
L 308.128861 242.016273 
L 311.083848 242.006256 
L 318.963813 242.048288 
L 388.8985 242.101431 
L 388.8985 242.101431 
" clip-path="url(#p69167b7820)" style="fill: none; stroke: #937860; stroke-opacity: 0.3; stroke-width: 1.5; stroke-linecap: round"/>
   </g>
   <g id="line2d_20">
    <path d="M 54 242.116223 
L 160.379523 242.023147 
L 161.364519 241.9622 
L 162.349515 241.682354 
L 163.33451 240.800544 
L 164.319506 240.426191 
L 165.304501 241.717185 
L 166.289497 240.619793 
L 167.274492 241.025044 
L 168.259488 240.128335 
L 169.244484 241.73669 
L 170.229479 240.299094 
L 171.214475 237.508001 
L 172.19947 240.506367 
L 173.184466 241.713244 
L 174.169462 241.01739 
L 175.154457 241.687788 
L 176.139453 240.462513 
L 177.124448 239.702948 
L 178.109444 241.979066 
L 179.09444 241.062089 
L 180.079435 241.841553 
L 181.064431 240.634229 
L 182.049426 241.945026 
L 183.034422 241.730348 
L 184.019417 240.320762 
L 185.004413 239.652465 
L 185.989409 239.851652 
L 186.974404 241.692598 
L 187.9594 241.902431 
L 188.944395 239.550138 
L 189.929391 240.295741 
L 190.914387 241.277248 
L 191.899382 240.751038 
L 192.884378 241.7125 
L 193.869373 241.445431 
L 194.854369 241.984917 
L 195.839365 242.008364 
L 196.82436 241.296192 
L 197.809356 239.882656 
L 198.794351 241.272395 
L 199.779347 241.150949 
L 200.764342 242.06691 
L 201.749338 241.953005 
L 202.734334 240.966397 
L 203.719329 241.293655 
L 204.704325 242.04415 
L 205.68932 241.869763 
L 206.674316 241.129119 
L 207.659312 241.822383 
L 208.644307 241.112498 
L 209.629303 239.250809 
L 210.614298 241.859752 
L 212.584289 241.699488 
L 213.569285 242.104512 
L 214.554281 240.727947 
L 215.539276 241.920702 
L 216.524272 242.070393 
L 217.509267 241.908329 
L 218.494263 240.939702 
L 219.479259 241.013504 
L 220.464254 241.984306 
L 221.44925 241.684587 
L 222.434245 238.879287 
L 223.419241 233.969466 
L 224.404237 230.976482 
L 225.389232 233.214716 
L 226.374228 215.779383 
L 227.359223 239.121744 
L 228.344219 44.443636 
L 229.329214 232.059798 
L 230.31421 215.069342 
L 231.299206 229.843265 
L 232.284201 233.845086 
L 233.269197 232.395887 
L 234.254192 230.624237 
L 235.239188 237.016356 
L 236.224184 234.987845 
L 237.209179 236.418701 
L 238.194175 236.05215 
L 239.17917 239.719651 
L 240.164166 238.312306 
L 241.149162 236.472362 
L 242.134157 238.226911 
L 243.119153 239.682369 
L 244.104148 240.669576 
L 245.089144 240.759607 
L 246.074139 241.416338 
L 247.059135 241.509786 
L 248.044131 240.905575 
L 250.999117 241.74558 
L 251.984113 241.50502 
L 252.969109 242.048112 
L 253.954104 241.835416 
L 254.9391 242.03377 
L 255.924095 241.982494 
L 256.909091 241.497303 
L 257.894086 241.900991 
L 259.864078 241.652362 
L 260.849073 242.032981 
L 261.834069 241.918777 
L 262.819064 242.033131 
L 263.80406 241.863116 
L 264.789056 242.058197 
L 265.774051 242.110207 
L 266.759047 242.004028 
L 267.744042 241.729317 
L 268.729038 242.001541 
L 271.684025 242.114505 
L 276.609003 242.112918 
L 336.693733 242.115523 
L 388.8985 242.115994 
L 388.8985 242.115994 
" clip-path="url(#p69167b7820)" style="fill: none; stroke: #da8bc3; stroke-opacity: 0.3; stroke-width: 1.5; stroke-linecap: round"/>
   </g>
   <g id="line2d_21">
    <path d="M 54 242.115609 
L 162.349515 242.084652 
L 164.319506 241.871243 
L 165.304501 241.468 
L 166.289497 241.969614 
L 168.259488 241.620289 
L 169.244484 240.921948 
L 170.229479 241.547358 
L 171.214475 242.019988 
L 172.19947 241.145949 
L 173.184466 241.991345 
L 174.169462 239.040238 
L 175.154457 241.102411 
L 176.139453 239.749457 
L 177.124448 241.638526 
L 178.109444 241.450481 
L 179.09444 242.022135 
L 180.079435 240.459666 
L 181.064431 239.399802 
L 182.049426 240.379986 
L 183.034422 241.617003 
L 184.019417 242.018276 
L 185.004413 241.076409 
L 185.989409 238.054799 
L 186.974404 240.346682 
L 187.9594 241.337862 
L 188.944395 236.190876 
L 189.929391 241.95065 
L 190.914387 227.018679 
L 192.884378 238.915048 
L 193.869373 241.787955 
L 194.854369 241.587188 
L 195.839365 237.555815 
L 196.82436 241.513519 
L 197.809356 240.704031 
L 198.794351 241.398127 
L 200.764342 241.877114 
L 201.749338 240.580771 
L 202.734334 237.581636 
L 203.719329 241.796394 
L 204.704325 241.275647 
L 205.68932 240.503382 
L 207.659312 242.049253 
L 208.644307 241.58592 
L 209.629303 240.691165 
L 210.614298 241.983649 
L 211.599294 241.40266 
L 213.569285 241.82924 
L 214.554281 241.810077 
L 215.539276 241.482052 
L 216.524272 241.865571 
L 217.509267 241.987935 
L 218.494263 241.331753 
L 219.479259 241.464334 
L 220.464254 241.017645 
L 221.44925 238.65835 
L 222.434245 241.928738 
L 223.419241 229.380107 
L 224.404237 235.871342 
L 225.389232 227.453432 
L 226.374228 208.154744 
L 227.359223 239.93297 
L 228.344219 44.443636 
L 229.329214 228.87913 
L 230.31421 217.91872 
L 231.299206 231.865607 
L 232.284201 240.556973 
L 233.269197 241.906612 
L 234.254192 238.873471 
L 235.239188 241.463066 
L 236.224184 240.800884 
L 239.17917 242.074254 
L 240.164166 241.807081 
L 241.149162 242.096453 
L 242.134157 241.564073 
L 243.119153 241.876707 
L 244.104148 241.231274 
L 245.089144 241.337859 
L 246.074139 241.954344 
L 248.044131 242.079069 
L 249.029126 241.862148 
L 250.014122 241.521922 
L 250.999117 242.068471 
L 251.984113 241.667186 
L 252.969109 242.009491 
L 253.954104 241.782715 
L 254.9391 242.068122 
L 257.894086 241.942138 
L 258.879082 241.437292 
L 259.864078 241.477353 
L 261.834069 241.964288 
L 265.774051 242.115784 
L 267.744042 241.878944 
L 268.729038 242.037908 
L 271.684025 242.083216 
L 272.66902 242.013944 
L 274.639011 242.105341 
L 281.533981 242.106409 
L 311.083848 242.11616 
L 388.8985 242.116311 
L 388.8985 242.116311 
" clip-path="url(#p69167b7820)" style="fill: none; stroke: #8c8c8c; stroke-opacity: 0.3; stroke-width: 1.5; stroke-linecap: round"/>
   </g>
   <g id="line2d_22">
    <path d="M 54 242.112681 
L 160.379523 242.100471 
L 161.364519 241.569737 
L 162.349515 242.112648 
L 164.319506 241.801159 
L 165.304501 240.896908 
L 166.289497 240.759826 
L 167.274492 241.566452 
L 168.259488 241.900693 
L 169.244484 240.231187 
L 170.229479 242.115789 
L 171.214475 241.726699 
L 172.19947 241.464227 
L 173.184466 239.420323 
L 174.169462 240.99455 
L 175.154457 242.033898 
L 177.124448 236.930591 
L 178.109444 238.759326 
L 179.09444 238.209554 
L 180.079435 242.099817 
L 181.064431 240.095556 
L 182.049426 241.261002 
L 183.034422 239.46312 
L 184.019417 241.904609 
L 185.004413 238.204399 
L 185.989409 237.555872 
L 186.974404 235.359732 
L 187.9594 240.826403 
L 188.944395 239.898174 
L 189.929391 241.56713 
L 190.914387 237.079292 
L 191.899382 238.029532 
L 192.884378 233.226088 
L 193.869373 241.645902 
L 194.854369 236.288183 
L 195.839365 225.373151 
L 196.82436 239.429348 
L 197.809356 239.876262 
L 198.794351 240.628575 
L 199.779347 240.066885 
L 200.764342 241.169522 
L 201.749338 240.881138 
L 202.734334 232.128661 
L 203.719329 241.282046 
L 204.704325 241.943001 
L 205.68932 240.807064 
L 206.674316 240.53956 
L 207.659312 240.807509 
L 208.644307 230.303455 
L 209.629303 240.266802 
L 210.614298 232.303535 
L 211.599294 237.27246 
L 212.584289 240.924339 
L 213.569285 242.104739 
L 214.554281 236.476584 
L 215.539276 241.320626 
L 216.524272 234.630575 
L 217.509267 240.453268 
L 218.494263 236.916534 
L 219.479259 241.400804 
L 220.464254 241.686028 
L 221.44925 239.81408 
L 222.434245 241.916818 
L 223.419241 227.226856 
L 224.404237 239.748208 
L 225.389232 238.289388 
L 226.374228 220.21295 
L 227.359223 238.375146 
L 228.344219 44.443636 
L 229.329214 236.77732 
L 230.31421 232.278004 
L 231.299206 237.557392 
L 232.284201 239.31395 
L 233.269197 237.504432 
L 234.254192 225.524624 
L 235.239188 241.265222 
L 236.224184 241.376418 
L 237.209179 236.527226 
L 238.194175 240.237205 
L 239.17917 239.327228 
L 240.164166 227.36774 
L 241.149162 241.423982 
L 242.134157 241.320349 
L 243.119153 235.079948 
L 244.104148 235.504653 
L 245.089144 238.668059 
L 246.074139 241.070285 
L 247.059135 240.782571 
L 248.044131 237.652256 
L 249.029126 242.009403 
L 250.014122 238.60692 
L 250.999117 239.824591 
L 251.984113 239.947751 
L 252.969109 240.504558 
L 253.954104 240.54364 
L 254.9391 242.103149 
L 255.924095 240.283136 
L 256.909091 240.784033 
L 257.894086 239.750296 
L 258.879082 237.792819 
L 259.864078 240.915051 
L 260.849073 238.903665 
L 261.834069 242.115154 
L 262.819064 241.891931 
L 263.80406 240.842069 
L 264.789056 241.426402 
L 265.774051 241.645339 
L 266.759047 240.635717 
L 267.744042 238.909226 
L 268.729038 242.009175 
L 270.699029 241.618704 
L 271.684025 241.769424 
L 272.66902 241.158156 
L 273.654016 241.741226 
L 274.639011 241.497363 
L 275.624007 242.087013 
L 276.609003 242.05331 
L 277.593998 241.786275 
L 278.578994 241.810831 
L 279.563989 242.104623 
L 282.518976 241.768649 
L 283.503972 241.825112 
L 284.488967 242.054796 
L 285.473963 241.970428 
L 287.443954 242.073723 
L 289.413945 242.095968 
L 293.353928 242.101115 
L 304.188879 242.114413 
L 388.8985 242.115955 
L 388.8985 242.115955 
" clip-path="url(#p69167b7820)" style="fill: none; stroke: #ccb974; stroke-opacity: 0.3; stroke-width: 1.5; stroke-linecap: round"/>
   </g>
   <g id="line2d_23">
    <path d="M 54 242.11602 
L 156.439541 242.01581 
L 159.394528 241.844551 
L 160.379523 241.415899 
L 161.364519 241.568291 
L 162.349515 240.967784 
L 163.33451 240.066145 
L 164.319506 237.843118 
L 165.304501 240.570804 
L 166.289497 240.698796 
L 167.274492 238.734057 
L 168.259488 241.901945 
L 169.244484 237.962137 
L 170.229479 233.065254 
L 171.214475 231.032446 
L 172.19947 232.676698 
L 173.184466 242.075163 
L 174.169462 233.698886 
L 175.154457 240.676764 
L 176.139453 240.880974 
L 177.124448 237.80564 
L 178.109444 237.26886 
L 179.09444 237.832507 
L 180.079435 235.594771 
L 181.064431 240.722382 
L 182.049426 239.655846 
L 183.034422 241.445544 
L 184.019417 237.705172 
L 185.004413 241.68327 
L 185.989409 237.052456 
L 186.974404 241.070548 
L 187.9594 239.761582 
L 188.944395 240.828626 
L 189.929391 239.961434 
L 190.914387 241.676784 
L 191.899382 239.184449 
L 192.884378 242.064724 
L 193.869373 241.870281 
L 194.854369 241.877089 
L 195.839365 241.676817 
L 196.82436 240.85742 
L 197.809356 240.378872 
L 199.779347 238.421739 
L 200.764342 241.96591 
L 201.749338 240.824732 
L 202.734334 238.634835 
L 203.719329 238.165605 
L 204.704325 240.418634 
L 205.68932 241.876635 
L 206.674316 239.51063 
L 207.659312 240.458992 
L 208.644307 241.800895 
L 209.629303 241.500294 
L 210.614298 237.844891 
L 211.599294 241.673526 
L 212.584289 241.297846 
L 213.569285 241.949751 
L 214.554281 241.043183 
L 215.539276 241.200073 
L 216.524272 240.457824 
L 217.509267 241.370879 
L 218.494263 239.49276 
L 219.479259 239.966798 
L 220.464254 240.914266 
L 221.44925 241.39927 
L 222.434245 240.006872 
L 223.419241 229.323602 
L 224.404237 230.854294 
L 225.389232 233.634217 
L 226.374228 232.194055 
L 227.359223 232.853655 
L 228.344219 44.443636 
L 229.329214 238.946219 
L 230.31421 214.130577 
L 231.299206 233.728862 
L 232.284201 234.350913 
L 233.269197 238.151041 
L 234.254192 239.821446 
L 235.239188 240.694281 
L 236.224184 233.201617 
L 237.209179 241.250481 
L 238.194175 235.40797 
L 239.17917 240.042216 
L 240.164166 240.413663 
L 241.149162 240.034535 
L 242.134157 240.741514 
L 243.119153 241.904005 
L 244.104148 238.482633 
L 245.089144 241.342186 
L 246.074139 238.954825 
L 247.059135 240.523942 
L 248.044131 241.199904 
L 249.029126 241.46669 
L 250.014122 240.460053 
L 250.999117 240.91597 
L 252.969109 240.653294 
L 254.9391 241.954221 
L 256.909091 242.00003 
L 257.894086 241.646074 
L 258.879082 241.974374 
L 259.864078 241.64616 
L 260.849073 242.090469 
L 262.819064 242.056985 
L 263.80406 242.077585 
L 264.789056 241.868701 
L 266.759047 242.050883 
L 268.729038 241.902934 
L 270.699029 242.091754 
L 275.624007 242.05989 
L 276.609003 242.112067 
L 277.593998 241.999841 
L 278.578994 242.110071 
L 290.398941 242.112428 
L 388.8985 242.116188 
L 388.8985 242.116188 
" clip-path="url(#p69167b7820)" style="fill: none; stroke: #64b5cd; stroke-opacity: 0.3; stroke-width: 1.5; stroke-linecap: round"/>
   </g>
   <g id="line2d_24">
    <path d="M 54 242.116351 
L 151.514563 242.115096 
L 152.499559 241.821314 
L 154.46955 242.00504 
L 155.454545 241.895682 
L 156.439541 242.050202 
L 157.424537 242.042102 
L 159.394528 241.722071 
L 160.379523 236.222518 
L 161.364519 240.846217 
L 162.349515 239.637123 
L 163.33451 236.255136 
L 164.319506 240.621034 
L 165.304501 200.006732 
L 166.289497 238.525116 
L 167.274492 235.366279 
L 168.259488 228.733822 
L 169.244484 239.869051 
L 171.214475 190.068617 
L 172.19947 199.989 
L 173.184466 187.881236 
L 174.169462 59.866864 
L 175.154457 234.56041 
L 176.139453 181.271957 
L 177.124448 225.597221 
L 178.109444 220.985753 
L 179.09444 203.981699 
L 180.079435 199.37705 
L 181.064431 216.670037 
L 182.049426 209.807297 
L 183.034422 205.542964 
L 184.019417 232.927332 
L 185.004413 203.808682 
L 185.989409 221.824118 
L 186.974404 217.527753 
L 187.9594 180.055307 
L 188.944395 227.263622 
L 189.929391 241.544932 
L 190.914387 196.815479 
L 191.899382 237.040007 
L 192.884378 173.400519 
L 193.869373 220.138019 
L 194.854369 237.598548 
L 195.839365 217.067095 
L 197.809356 234.353168 
L 198.794351 228.210409 
L 199.779347 233.653887 
L 200.764342 228.213953 
L 201.749338 241.557673 
L 202.734334 236.565546 
L 203.719329 223.50338 
L 204.704325 241.118029 
L 205.68932 239.895443 
L 206.674316 226.932126 
L 207.659312 226.536842 
L 208.644307 195.500036 
L 209.629303 235.732998 
L 210.614298 240.47564 
L 211.599294 236.889895 
L 212.584289 236.267439 
L 213.569285 230.326023 
L 214.554281 236.916389 
L 215.539276 239.99479 
L 216.524272 241.619536 
L 217.509267 235.486686 
L 218.494263 240.09681 
L 219.479259 188.810406 
L 220.464254 241.822178 
L 221.44925 238.281048 
L 222.434245 242.003551 
L 223.419241 221.035899 
L 224.404237 225.062139 
L 225.389232 170.170702 
L 226.374228 215.766086 
L 227.359223 188.944214 
L 228.344219 44.443636 
L 230.31421 228.962259 
L 231.299206 228.981633 
L 232.284201 239.53242 
L 233.269197 236.14418 
L 234.254192 198.962404 
L 235.239188 224.94337 
L 236.224184 237.313491 
L 237.209179 233.711901 
L 238.194175 226.599245 
L 239.17917 214.945756 
L 240.164166 218.972986 
L 241.149162 232.402315 
L 242.134157 222.065451 
L 243.119153 238.727685 
L 244.104148 240.899078 
L 245.089144 240.564463 
L 246.074139 234.626922 
L 247.059135 241.813498 
L 248.044131 240.100498 
L 249.029126 230.307209 
L 250.014122 239.92682 
L 250.999117 240.419785 
L 251.984113 237.432604 
L 252.969109 237.116249 
L 253.954104 214.58028 
L 254.9391 240.926519 
L 256.909091 227.79099 
L 257.894086 240.416343 
L 258.879082 236.027683 
L 259.864078 238.615762 
L 260.849073 235.009666 
L 261.834069 238.173813 
L 262.819064 231.27545 
L 263.80406 240.605969 
L 264.789056 237.071745 
L 265.774051 236.591101 
L 266.759047 240.924209 
L 267.744042 238.907987 
L 268.729038 239.650745 
L 269.714034 239.110659 
L 270.699029 240.987467 
L 271.684025 236.941238 
L 272.66902 240.119522 
L 273.654016 241.787489 
L 274.639011 240.282145 
L 275.624007 239.460478 
L 276.609003 241.623663 
L 277.593998 238.243112 
L 278.578994 240.343524 
L 279.563989 240.818076 
L 280.548985 241.052134 
L 282.518976 242.042113 
L 284.488967 241.910577 
L 285.473963 242.081393 
L 287.443954 242.087447 
L 289.413945 241.950016 
L 290.398941 242.097674 
L 291.383936 241.91605 
L 292.368932 242.046409 
L 293.353928 241.920123 
L 294.338923 242.09915 
L 295.323919 241.975465 
L 297.29391 242.09298 
L 306.15887 242.105117 
L 323.888791 242.112729 
L 388.8985 242.115891 
L 388.8985 242.115891 
" clip-path="url(#p69167b7820)" style="fill: none; stroke: #4c72b0; stroke-opacity: 0.3; stroke-width: 1.5; stroke-linecap: round"/>
   </g>
   <g id="line2d_25">
    <path d="M 54 242.115309 
L 154.46955 242.103003 
L 155.454545 241.912859 
L 156.439541 242.111986 
L 158.409532 242.036824 
L 159.394528 242.077129 
L 160.379523 241.812725 
L 161.364519 241.159049 
L 162.349515 241.663287 
L 163.33451 239.48212 
L 164.319506 238.283643 
L 165.304501 240.150724 
L 166.289497 234.244946 
L 167.274492 241.743265 
L 168.259488 234.255888 
L 169.244484 218.456207 
L 170.229479 238.242374 
L 171.214475 240.478635 
L 172.19947 241.079076 
L 173.184466 232.28482 
L 174.169462 233.62374 
L 175.154457 237.552361 
L 177.124448 227.365131 
L 178.109444 239.479284 
L 179.09444 229.77913 
L 180.079435 234.29458 
L 181.064431 224.318778 
L 182.049426 237.944352 
L 183.034422 238.665493 
L 184.019417 237.091774 
L 185.004413 222.61357 
L 185.989409 217.035318 
L 186.974404 238.679124 
L 187.9594 224.572125 
L 188.944395 230.612938 
L 189.929391 241.150454 
L 190.914387 220.97939 
L 191.899382 240.942679 
L 192.884378 215.635669 
L 193.869373 237.202965 
L 194.854369 236.308431 
L 195.839365 225.050251 
L 196.82436 230.440495 
L 197.809356 239.287986 
L 199.779347 242.030799 
L 200.764342 237.299938 
L 201.749338 230.805512 
L 202.734334 226.831158 
L 203.719329 240.62756 
L 204.704325 241.072892 
L 205.68932 240.885858 
L 206.674316 232.668182 
L 207.659312 240.534764 
L 208.644307 239.172225 
L 209.629303 234.947605 
L 210.614298 233.760442 
L 211.599294 230.882327 
L 212.584289 239.397432 
L 213.569285 239.870311 
L 214.554281 239.746042 
L 215.539276 241.96397 
L 216.524272 238.824641 
L 217.509267 241.934338 
L 218.494263 241.167798 
L 219.479259 232.233631 
L 220.464254 239.882268 
L 221.44925 234.249834 
L 222.434245 239.533164 
L 223.419241 235.975424 
L 224.404237 236.910075 
L 225.389232 204.600323 
L 226.374228 148.074958 
L 227.359223 184.758471 
L 228.344219 44.443636 
L 229.329214 219.087433 
L 230.31421 203.324102 
L 231.299206 204.07512 
L 232.284201 238.246117 
L 233.269197 229.542758 
L 234.254192 238.333558 
L 235.239188 240.903128 
L 236.224184 238.230399 
L 237.209179 240.087555 
L 238.194175 240.496349 
L 239.17917 238.092091 
L 240.164166 233.800133 
L 241.149162 238.458661 
L 242.134157 240.957785 
L 243.119153 241.779019 
L 244.104148 237.837444 
L 245.089144 242.077931 
L 246.074139 238.067855 
L 247.059135 233.349497 
L 248.044131 241.368271 
L 249.029126 234.311633 
L 250.014122 237.842422 
L 250.999117 240.928388 
L 251.984113 233.400761 
L 252.969109 236.739556 
L 253.954104 235.442012 
L 254.9391 241.881589 
L 255.924095 232.533798 
L 256.909091 241.416781 
L 257.894086 240.355242 
L 258.879082 238.757465 
L 259.864078 242.106677 
L 260.849073 241.045608 
L 261.834069 240.30162 
L 262.819064 239.413027 
L 263.80406 240.559345 
L 264.789056 241.894744 
L 265.774051 239.659255 
L 266.759047 238.418749 
L 267.744042 241.126734 
L 268.729038 241.149628 
L 269.714034 240.623467 
L 270.699029 242.104707 
L 271.684025 241.65046 
L 272.66902 241.363201 
L 273.654016 240.421525 
L 274.639011 242.107619 
L 275.624007 241.864015 
L 276.609003 242.025999 
L 277.593998 241.747279 
L 278.578994 241.907894 
L 279.563989 241.905931 
L 281.533981 242.063439 
L 289.413945 242.053002 
L 291.383936 242.088235 
L 298.278906 242.113588 
L 316.008826 242.115761 
L 388.8985 242.116123 
L 388.8985 242.116123 
" clip-path="url(#p69167b7820)" style="fill: none; stroke: #dd8452; stroke-opacity: 0.3; stroke-width: 1.5; stroke-linecap: round"/>
   </g>
   <g id="patch_3">
    <path d="M 54 252 
L 54 34.56 
" style="fill: none; stroke: #262626; stroke-width: 1.25; stroke-linejoin: miter; stroke-linecap: square"/>
   </g>
   <g id="patch_4">
    <path d="M 388.8 252 
L 388.8 34.56 
" style="fill: none; stroke: #262626; stroke-width: 1.25; stroke-linejoin: miter; stroke-linecap: square"/>
   </g>
   <g id="patch_5">
    <path d="M 54 252 
L 388.8 252 
" style="fill: none; stroke: #262626; stroke-width: 1.25; stroke-linejoin: miter; stroke-linecap: square"/>
   </g>
   <g id="patch_6">
    <path d="M 54 34.56 
L 388.8 34.56 
" style="fill: none; stroke: #262626; stroke-width: 1.25; stroke-linejoin: miter; stroke-linecap: square"/>
   </g>
   <g id="text_15">
    <!-- patient14_app06 - Power spectrum -->
    <g style="fill: #262626" transform="translate(128.0175 28.56)scale(0.12 -0.12)">
     <defs>
      <path id="ArialMT-70" d="M 422 -1272 
L 422 3319 
L 934 3319 
L 934 2888 
Q 1116 3141 1344 3267 
Q 1572 3394 1897 3394 
Q 2322 3394 2647 3175 
Q 2972 2956 3137 2557 
Q 3303 2159 3303 1684 
Q 3303 1175 3120 767 
Q 2938 359 2589 142 
Q 2241 -75 1856 -75 
Q 1575 -75 1351 44 
Q 1128 163 984 344 
L 984 -1272 
L 422 -1272 
z
M 931 1641 
Q 931 1000 1190 694 
Q 1450 388 1819 388 
Q 2194 388 2461 705 
Q 2728 1022 2728 1688 
Q 2728 2322 2467 2637 
Q 2206 2953 1844 2953 
Q 1484 2953 1207 2617 
Q 931 2281 931 1641 
z
" transform="scale(0.015625)"/>
      <path id="ArialMT-61" d="M 2588 409 
Q 2275 144 1986 34 
Q 1697 -75 1366 -75 
Q 819 -75 525 192 
Q 231 459 231 875 
Q 231 1119 342 1320 
Q 453 1522 633 1644 
Q 813 1766 1038 1828 
Q 1203 1872 1538 1913 
Q 2219 1994 2541 2106 
Q 2544 2222 2544 2253 
Q 2544 2597 2384 2738 
Q 2169 2928 1744 2928 
Q 1347 2928 1158 2789 
Q 969 2650 878 2297 
L 328 2372 
Q 403 2725 575 2942 
Q 747 3159 1072 3276 
Q 1397 3394 1825 3394 
Q 2250 3394 2515 3294 
Q 2781 3194 2906 3042 
Q 3031 2891 3081 2659 
Q 3109 2516 3109 2141 
L 3109 1391 
Q 3109 606 3145 398 
Q 3181 191 3288 0 
L 2700 0 
Q 2613 175 2588 409 
z
M 2541 1666 
Q 2234 1541 1622 1453 
Q 1275 1403 1131 1340 
Q 988 1278 909 1158 
Q 831 1038 831 891 
Q 831 666 1001 516 
Q 1172 366 1500 366 
Q 1825 366 2078 508 
Q 2331 650 2450 897 
Q 2541 1088 2541 1459 
L 2541 1666 
z
" transform="scale(0.015625)"/>
      <path id="ArialMT-74" d="M 1650 503 
L 1731 6 
Q 1494 -44 1306 -44 
Q 1000 -44 831 53 
Q 663 150 594 308 
Q 525 466 525 972 
L 525 2881 
L 113 2881 
L 113 3319 
L 525 3319 
L 525 4141 
L 1084 4478 
L 1084 3319 
L 1650 3319 
L 1650 2881 
L 1084 2881 
L 1084 941 
Q 1084 700 1114 631 
Q 1144 563 1211 522 
Q 1278 481 1403 481 
Q 1497 481 1650 503 
z
" transform="scale(0.015625)"/>
      <path id="ArialMT-69" d="M 425 3934 
L 425 4581 
L 988 4581 
L 988 3934 
L 425 3934 
z
M 425 0 
L 425 3319 
L 988 3319 
L 988 0 
L 425 0 
z
" transform="scale(0.015625)"/>
      <path id="ArialMT-5f" d="M -97 -1272 
L -97 -866 
L 3631 -866 
L 3631 -1272 
L -97 -1272 
z
" transform="scale(0.015625)"/>
      <path id="ArialMT-2d" d="M 203 1375 
L 203 1941 
L 1931 1941 
L 1931 1375 
L 203 1375 
z
" transform="scale(0.015625)"/>
      <path id="ArialMT-50" d="M 494 0 
L 494 4581 
L 2222 4581 
Q 2678 4581 2919 4538 
Q 3256 4481 3484 4323 
Q 3713 4166 3852 3881 
Q 3991 3597 3991 3256 
Q 3991 2672 3619 2267 
Q 3247 1863 2275 1863 
L 1100 1863 
L 1100 0 
L 494 0 
z
M 1100 2403 
L 2284 2403 
Q 2872 2403 3119 2622 
Q 3366 2841 3366 3238 
Q 3366 3525 3220 3729 
Q 3075 3934 2838 4000 
Q 2684 4041 2272 4041 
L 1100 4041 
L 1100 2403 
z
" transform="scale(0.015625)"/>
      <path id="ArialMT-6f" d="M 213 1659 
Q 213 2581 725 3025 
Q 1153 3394 1769 3394 
Q 2453 3394 2887 2945 
Q 3322 2497 3322 1706 
Q 3322 1066 3130 698 
Q 2938 331 2570 128 
Q 2203 -75 1769 -75 
Q 1072 -75 642 372 
Q 213 819 213 1659 
z
M 791 1659 
Q 791 1022 1069 705 
Q 1347 388 1769 388 
Q 2188 388 2466 706 
Q 2744 1025 2744 1678 
Q 2744 2294 2464 2611 
Q 2184 2928 1769 2928 
Q 1347 2928 1069 2612 
Q 791 2297 791 1659 
z
" transform="scale(0.015625)"/>
      <path id="ArialMT-77" d="M 1034 0 
L 19 3319 
L 600 3319 
L 1128 1403 
L 1325 691 
Q 1338 744 1497 1375 
L 2025 3319 
L 2603 3319 
L 3100 1394 
L 3266 759 
L 3456 1400 
L 4025 3319 
L 4572 3319 
L 3534 0 
L 2950 0 
L 2422 1988 
L 2294 2553 
L 1622 0 
L 1034 0 
z
" transform="scale(0.015625)"/>
      <path id="ArialMT-73" d="M 197 991 
L 753 1078 
Q 800 744 1014 566 
Q 1228 388 1613 388 
Q 2000 388 2187 545 
Q 2375 703 2375 916 
Q 2375 1106 2209 1216 
Q 2094 1291 1634 1406 
Q 1016 1563 777 1677 
Q 538 1791 414 1992 
Q 291 2194 291 2438 
Q 291 2659 392 2848 
Q 494 3038 669 3163 
Q 800 3259 1026 3326 
Q 1253 3394 1513 3394 
Q 1903 3394 2198 3281 
Q 2494 3169 2634 2976 
Q 2775 2784 2828 2463 
L 2278 2388 
Q 2241 2644 2061 2787 
Q 1881 2931 1553 2931 
Q 1166 2931 1000 2803 
Q 834 2675 834 2503 
Q 834 2394 903 2306 
Q 972 2216 1119 2156 
Q 1203 2125 1616 2013 
Q 2213 1853 2448 1751 
Q 2684 1650 2818 1456 
Q 2953 1263 2953 975 
Q 2953 694 2789 445 
Q 2625 197 2315 61 
Q 2006 -75 1616 -75 
Q 969 -75 630 194 
Q 291 463 197 991 
z
" transform="scale(0.015625)"/>
      <path id="ArialMT-6d" d="M 422 0 
L 422 3319 
L 925 3319 
L 925 2853 
Q 1081 3097 1340 3245 
Q 1600 3394 1931 3394 
Q 2300 3394 2536 3241 
Q 2772 3088 2869 2813 
Q 3263 3394 3894 3394 
Q 4388 3394 4653 3120 
Q 4919 2847 4919 2278 
L 4919 0 
L 4359 0 
L 4359 2091 
Q 4359 2428 4304 2576 
Q 4250 2725 4106 2815 
Q 3963 2906 3769 2906 
Q 3419 2906 3187 2673 
Q 2956 2441 2956 1928 
L 2956 0 
L 2394 0 
L 2394 2156 
Q 2394 2531 2256 2718 
Q 2119 2906 1806 2906 
Q 1569 2906 1367 2781 
Q 1166 2656 1075 2415 
Q 984 2175 984 1722 
L 984 0 
L 422 0 
z
" transform="scale(0.015625)"/>
     </defs>
     <use xlink:href="#ArialMT-70"/>
     <use xlink:href="#ArialMT-61" x="55.615234"/>
     <use xlink:href="#ArialMT-74" x="111.230469"/>
     <use xlink:href="#ArialMT-69" x="139.013672"/>
     <use xlink:href="#ArialMT-65" x="161.230469"/>
     <use xlink:href="#ArialMT-6e" x="216.845703"/>
     <use xlink:href="#ArialMT-74" x="272.460938"/>
     <use xlink:href="#ArialMT-31" x="300.244141"/>
     <use xlink:href="#ArialMT-34" x="355.859375"/>
     <use xlink:href="#ArialMT-5f" x="411.474609"/>
     <use xlink:href="#ArialMT-61" x="467.089844"/>
     <use xlink:href="#ArialMT-70" x="522.705078"/>
     <use xlink:href="#ArialMT-70" x="578.320312"/>
     <use xlink:href="#ArialMT-30" x="633.935547"/>
     <use xlink:href="#ArialMT-36" x="689.550781"/>
     <use xlink:href="#ArialMT-20" x="745.166016"/>
     <use xlink:href="#ArialMT-2d" x="772.949219"/>
     <use xlink:href="#ArialMT-20" x="806.25"/>
     <use xlink:href="#ArialMT-50" x="834.033203"/>
     <use xlink:href="#ArialMT-6f" x="900.732422"/>
     <use xlink:href="#ArialMT-77" x="956.347656"/>
     <use xlink:href="#ArialMT-65" x="1028.564453"/>
     <use xlink:href="#ArialMT-72" x="1084.179688"/>
     <use xlink:href="#ArialMT-20" x="1117.480469"/>
     <use xlink:href="#ArialMT-73" x="1145.263672"/>
     <use xlink:href="#ArialMT-70" x="1195.263672"/>
     <use xlink:href="#ArialMT-65" x="1250.878906"/>
     <use xlink:href="#ArialMT-63" x="1306.494141"/>
     <use xlink:href="#ArialMT-74" x="1356.494141"/>
     <use xlink:href="#ArialMT-72" x="1384.277344"/>
     <use xlink:href="#ArialMT-75" x="1417.578125"/>
     <use xlink:href="#ArialMT-6d" x="1473.193359"/>
    </g>
   </g>
  </g>
 </g>
 <defs>
  <clipPath id="p69167b7820">
   <rect x="54" y="34.56" width="334.8" height="217.44"/>
  </clipPath>
 </defs>
</svg>
