<?xml version="1.0" encoding="utf-8" standalone="no"?>
<!DOCTYPE svg PUBLIC "-//W3C//DTD SVG 1.1//EN"
  "http://www.w3.org/Graphics/SVG/1.1/DTD/svg11.dtd">
<svg xmlns:xlink="http://www.w3.org/1999/xlink" width="432pt" height="288pt" viewBox="0 0 432 288" xmlns="http://www.w3.org/2000/svg" version="1.1">
 <metadata>
  <rdf:RDF xmlns:dc="http://purl.org/dc/elements/1.1/" xmlns:cc="http://creativecommons.org/ns#" xmlns:rdf="http://www.w3.org/1999/02/22-rdf-syntax-ns#">
   <cc:Work>
    <dc:type rdf:resource="http://purl.org/dc/dcmitype/StillImage"/>
    <dc:date>2022-07-08T13:41:47.881605</dc:date>
    <dc:format>image/svg+xml</dc:format>
    <dc:creator>
     <cc:Agent>
      <dc:title>Matplotlib v3.5.1, https://matplotlib.org/</dc:title>
     </cc:Agent>
    </dc:creator>
   </cc:Work>
  </rdf:RDF>
 </metadata>
 <defs>
  <style type="text/css">*{stroke-linejoin: round; stroke-linecap: butt}</style>
 </defs>
 <g id="figure_1">
  <g id="patch_1">
   <path d="M 0 288 
L 432 288 
L 432 0 
L 0 0 
z
" style="fill: #ffffff"/>
  </g>
  <g id="axes_1">
   <g id="patch_2">
    <path d="M 54 252 
L 388.8 252 
L 388.8 34.56 
L 54 34.56 
z
" style="fill: #ffffff"/>
   </g>
   <g id="matplotlib.axis_1">
    <g id="xtick_1">
     <g id="line2d_1">
      <defs>
       <path id="mbbaa19a462" d="M 0 0 
L 0 6 
" style="stroke: #262626; stroke-width: 1.25"/>
      </defs>
      <g>
       <use xlink:href="#mbbaa19a462" x="54" y="252" style="fill: #262626; stroke: #262626; stroke-width: 1.25"/>
      </g>
     </g>
     <g id="text_1">
      <!-- 0 -->
      <g style="fill: #262626" transform="translate(50.941484 269.373594)scale(0.11 -0.11)">
       <defs>
        <path id="ArialMT-30" d="M 266 2259 
Q 266 3072 433 3567 
Q 600 4063 929 4331 
Q 1259 4600 1759 4600 
Q 2128 4600 2406 4451 
Q 2684 4303 2865 4023 
Q 3047 3744 3150 3342 
Q 3253 2941 3253 2259 
Q 3253 1453 3087 958 
Q 2922 463 2592 192 
Q 2263 -78 1759 -78 
Q 1097 -78 719 397 
Q 266 969 266 2259 
z
M 844 2259 
Q 844 1131 1108 757 
Q 1372 384 1759 384 
Q 2147 384 2411 759 
Q 2675 1134 2675 2259 
Q 2675 3391 2411 3762 
Q 2147 4134 1753 4134 
Q 1366 4134 1134 3806 
Q 844 3388 844 2259 
z
" transform="scale(0.015625)"/>
       </defs>
       <use xlink:href="#ArialMT-30"/>
      </g>
     </g>
    </g>
    <g id="xtick_2">
     <g id="line2d_2">
      <g>
       <use xlink:href="#mbbaa19a462" x="109.8" y="252" style="fill: #262626; stroke: #262626; stroke-width: 1.25"/>
      </g>
     </g>
     <g id="text_2">
      <!-- 5 -->
      <g style="fill: #262626" transform="translate(106.741484 269.373594)scale(0.11 -0.11)">
       <defs>
        <path id="ArialMT-35" d="M 266 1200 
L 856 1250 
Q 922 819 1161 601 
Q 1400 384 1738 384 
Q 2144 384 2425 690 
Q 2706 997 2706 1503 
Q 2706 1984 2436 2262 
Q 2166 2541 1728 2541 
Q 1456 2541 1237 2417 
Q 1019 2294 894 2097 
L 366 2166 
L 809 4519 
L 3088 4519 
L 3088 3981 
L 1259 3981 
L 1013 2750 
Q 1425 3038 1878 3038 
Q 2478 3038 2890 2622 
Q 3303 2206 3303 1553 
Q 3303 931 2941 478 
Q 2500 -78 1738 -78 
Q 1113 -78 717 272 
Q 322 622 266 1200 
z
" transform="scale(0.015625)"/>
       </defs>
       <use xlink:href="#ArialMT-35"/>
      </g>
     </g>
    </g>
    <g id="xtick_3">
     <g id="line2d_3">
      <g>
       <use xlink:href="#mbbaa19a462" x="165.6" y="252" style="fill: #262626; stroke: #262626; stroke-width: 1.25"/>
      </g>
     </g>
     <g id="text_3">
      <!-- 10 -->
      <g style="fill: #262626" transform="translate(159.482969 269.373594)scale(0.11 -0.11)">
       <defs>
        <path id="ArialMT-31" d="M 2384 0 
L 1822 0 
L 1822 3584 
Q 1619 3391 1289 3197 
Q 959 3003 697 2906 
L 697 3450 
Q 1169 3672 1522 3987 
Q 1875 4303 2022 4600 
L 2384 4600 
L 2384 0 
z
" transform="scale(0.015625)"/>
       </defs>
       <use xlink:href="#ArialMT-31"/>
       <use xlink:href="#ArialMT-30" x="55.615234"/>
      </g>
     </g>
    </g>
    <g id="xtick_4">
     <g id="line2d_4">
      <g>
       <use xlink:href="#mbbaa19a462" x="221.4" y="252" style="fill: #262626; stroke: #262626; stroke-width: 1.25"/>
      </g>
     </g>
     <g id="text_4">
      <!-- 15 -->
      <g style="fill: #262626" transform="translate(215.282969 269.373594)scale(0.11 -0.11)">
       <use xlink:href="#ArialMT-31"/>
       <use xlink:href="#ArialMT-35" x="55.615234"/>
      </g>
     </g>
    </g>
    <g id="xtick_5">
     <g id="line2d_5">
      <g>
       <use xlink:href="#mbbaa19a462" x="277.2" y="252" style="fill: #262626; stroke: #262626; stroke-width: 1.25"/>
      </g>
     </g>
     <g id="text_5">
      <!-- 20 -->
      <g style="fill: #262626" transform="translate(271.082969 269.373594)scale(0.11 -0.11)">
       <defs>
        <path id="ArialMT-32" d="M 3222 541 
L 3222 0 
L 194 0 
Q 188 203 259 391 
Q 375 700 629 1000 
Q 884 1300 1366 1694 
Q 2113 2306 2375 2664 
Q 2638 3022 2638 3341 
Q 2638 3675 2398 3904 
Q 2159 4134 1775 4134 
Q 1369 4134 1125 3890 
Q 881 3647 878 3216 
L 300 3275 
Q 359 3922 746 4261 
Q 1134 4600 1788 4600 
Q 2447 4600 2831 4234 
Q 3216 3869 3216 3328 
Q 3216 3053 3103 2787 
Q 2991 2522 2730 2228 
Q 2469 1934 1863 1422 
Q 1356 997 1212 845 
Q 1069 694 975 541 
L 3222 541 
z
" transform="scale(0.015625)"/>
       </defs>
       <use xlink:href="#ArialMT-32"/>
       <use xlink:href="#ArialMT-30" x="55.615234"/>
      </g>
     </g>
    </g>
    <g id="xtick_6">
     <g id="line2d_6">
      <g>
       <use xlink:href="#mbbaa19a462" x="333" y="252" style="fill: #262626; stroke: #262626; stroke-width: 1.25"/>
      </g>
     </g>
     <g id="text_6">
      <!-- 25 -->
      <g style="fill: #262626" transform="translate(326.882969 269.373594)scale(0.11 -0.11)">
       <use xlink:href="#ArialMT-32"/>
       <use xlink:href="#ArialMT-35" x="55.615234"/>
      </g>
     </g>
    </g>
    <g id="xtick_7">
     <g id="line2d_7">
      <g>
       <use xlink:href="#mbbaa19a462" x="388.8" y="252" style="fill: #262626; stroke: #262626; stroke-width: 1.25"/>
      </g>
     </g>
     <g id="text_7">
      <!-- 30 -->
      <g style="fill: #262626" transform="translate(382.682969 269.373594)scale(0.11 -0.11)">
       <defs>
        <path id="ArialMT-33" d="M 269 1209 
L 831 1284 
Q 928 806 1161 595 
Q 1394 384 1728 384 
Q 2125 384 2398 659 
Q 2672 934 2672 1341 
Q 2672 1728 2419 1979 
Q 2166 2231 1775 2231 
Q 1616 2231 1378 2169 
L 1441 2663 
Q 1497 2656 1531 2656 
Q 1891 2656 2178 2843 
Q 2466 3031 2466 3422 
Q 2466 3731 2256 3934 
Q 2047 4138 1716 4138 
Q 1388 4138 1169 3931 
Q 950 3725 888 3313 
L 325 3413 
Q 428 3978 793 4289 
Q 1159 4600 1703 4600 
Q 2078 4600 2393 4439 
Q 2709 4278 2876 4000 
Q 3044 3722 3044 3409 
Q 3044 3113 2884 2869 
Q 2725 2625 2413 2481 
Q 2819 2388 3044 2092 
Q 3269 1797 3269 1353 
Q 3269 753 2831 336 
Q 2394 -81 1725 -81 
Q 1122 -81 723 278 
Q 325 638 269 1209 
z
" transform="scale(0.015625)"/>
       </defs>
       <use xlink:href="#ArialMT-33"/>
       <use xlink:href="#ArialMT-30" x="55.615234"/>
      </g>
     </g>
    </g>
    <g id="text_8">
     <!-- Frequency (Hz) -->
     <g style="fill: #262626" transform="translate(180.059063 284.295469)scale(0.12 -0.12)">
      <defs>
       <path id="ArialMT-46" d="M 525 0 
L 525 4581 
L 3616 4581 
L 3616 4041 
L 1131 4041 
L 1131 2622 
L 3281 2622 
L 3281 2081 
L 1131 2081 
L 1131 0 
L 525 0 
z
" transform="scale(0.015625)"/>
       <path id="ArialMT-72" d="M 416 0 
L 416 3319 
L 922 3319 
L 922 2816 
Q 1116 3169 1280 3281 
Q 1444 3394 1641 3394 
Q 1925 3394 2219 3213 
L 2025 2691 
Q 1819 2813 1613 2813 
Q 1428 2813 1281 2702 
Q 1134 2591 1072 2394 
Q 978 2094 978 1738 
L 978 0 
L 416 0 
z
" transform="scale(0.015625)"/>
       <path id="ArialMT-65" d="M 2694 1069 
L 3275 997 
Q 3138 488 2766 206 
Q 2394 -75 1816 -75 
Q 1088 -75 661 373 
Q 234 822 234 1631 
Q 234 2469 665 2931 
Q 1097 3394 1784 3394 
Q 2450 3394 2872 2941 
Q 3294 2488 3294 1666 
Q 3294 1616 3291 1516 
L 816 1516 
Q 847 969 1125 678 
Q 1403 388 1819 388 
Q 2128 388 2347 550 
Q 2566 713 2694 1069 
z
M 847 1978 
L 2700 1978 
Q 2663 2397 2488 2606 
Q 2219 2931 1791 2931 
Q 1403 2931 1139 2672 
Q 875 2413 847 1978 
z
" transform="scale(0.015625)"/>
       <path id="ArialMT-71" d="M 2538 -1272 
L 2538 353 
Q 2406 169 2170 47 
Q 1934 -75 1669 -75 
Q 1078 -75 651 397 
Q 225 869 225 1691 
Q 225 2191 398 2587 
Q 572 2984 901 3189 
Q 1231 3394 1625 3394 
Q 2241 3394 2594 2875 
L 2594 3319 
L 3100 3319 
L 3100 -1272 
L 2538 -1272 
z
M 803 1669 
Q 803 1028 1072 708 
Q 1341 388 1716 388 
Q 2075 388 2334 692 
Q 2594 997 2594 1619 
Q 2594 2281 2320 2615 
Q 2047 2950 1678 2950 
Q 1313 2950 1058 2639 
Q 803 2328 803 1669 
z
" transform="scale(0.015625)"/>
       <path id="ArialMT-75" d="M 2597 0 
L 2597 488 
Q 2209 -75 1544 -75 
Q 1250 -75 995 37 
Q 741 150 617 320 
Q 494 491 444 738 
Q 409 903 409 1263 
L 409 3319 
L 972 3319 
L 972 1478 
Q 972 1038 1006 884 
Q 1059 663 1231 536 
Q 1403 409 1656 409 
Q 1909 409 2131 539 
Q 2353 669 2445 892 
Q 2538 1116 2538 1541 
L 2538 3319 
L 3100 3319 
L 3100 0 
L 2597 0 
z
" transform="scale(0.015625)"/>
       <path id="ArialMT-6e" d="M 422 0 
L 422 3319 
L 928 3319 
L 928 2847 
Q 1294 3394 1984 3394 
Q 2284 3394 2536 3286 
Q 2788 3178 2913 3003 
Q 3038 2828 3088 2588 
Q 3119 2431 3119 2041 
L 3119 0 
L 2556 0 
L 2556 2019 
Q 2556 2363 2490 2533 
Q 2425 2703 2258 2804 
Q 2091 2906 1866 2906 
Q 1506 2906 1245 2678 
Q 984 2450 984 1813 
L 984 0 
L 422 0 
z
" transform="scale(0.015625)"/>
       <path id="ArialMT-63" d="M 2588 1216 
L 3141 1144 
Q 3050 572 2676 248 
Q 2303 -75 1759 -75 
Q 1078 -75 664 370 
Q 250 816 250 1647 
Q 250 2184 428 2587 
Q 606 2991 970 3192 
Q 1334 3394 1763 3394 
Q 2303 3394 2647 3120 
Q 2991 2847 3088 2344 
L 2541 2259 
Q 2463 2594 2264 2762 
Q 2066 2931 1784 2931 
Q 1359 2931 1093 2626 
Q 828 2322 828 1663 
Q 828 994 1084 691 
Q 1341 388 1753 388 
Q 2084 388 2306 591 
Q 2528 794 2588 1216 
z
" transform="scale(0.015625)"/>
       <path id="ArialMT-79" d="M 397 -1278 
L 334 -750 
Q 519 -800 656 -800 
Q 844 -800 956 -737 
Q 1069 -675 1141 -563 
Q 1194 -478 1313 -144 
Q 1328 -97 1363 -6 
L 103 3319 
L 709 3319 
L 1400 1397 
Q 1534 1031 1641 628 
Q 1738 1016 1872 1384 
L 2581 3319 
L 3144 3319 
L 1881 -56 
Q 1678 -603 1566 -809 
Q 1416 -1088 1222 -1217 
Q 1028 -1347 759 -1347 
Q 597 -1347 397 -1278 
z
" transform="scale(0.015625)"/>
       <path id="ArialMT-20" transform="scale(0.015625)"/>
       <path id="ArialMT-28" d="M 1497 -1347 
Q 1031 -759 709 28 
Q 388 816 388 1659 
Q 388 2403 628 3084 
Q 909 3875 1497 4659 
L 1900 4659 
Q 1522 4009 1400 3731 
Q 1209 3300 1100 2831 
Q 966 2247 966 1656 
Q 966 153 1900 -1347 
L 1497 -1347 
z
" transform="scale(0.015625)"/>
       <path id="ArialMT-48" d="M 513 0 
L 513 4581 
L 1119 4581 
L 1119 2700 
L 3500 2700 
L 3500 4581 
L 4106 4581 
L 4106 0 
L 3500 0 
L 3500 2159 
L 1119 2159 
L 1119 0 
L 513 0 
z
" transform="scale(0.015625)"/>
       <path id="ArialMT-7a" d="M 125 0 
L 125 456 
L 2238 2881 
Q 1878 2863 1603 2863 
L 250 2863 
L 250 3319 
L 2963 3319 
L 2963 2947 
L 1166 841 
L 819 456 
Q 1197 484 1528 484 
L 3063 484 
L 3063 0 
L 125 0 
z
" transform="scale(0.015625)"/>
       <path id="ArialMT-29" d="M 791 -1347 
L 388 -1347 
Q 1322 153 1322 1656 
Q 1322 2244 1188 2822 
Q 1081 3291 891 3722 
Q 769 4003 388 4659 
L 791 4659 
Q 1378 3875 1659 3084 
Q 1900 2403 1900 1659 
Q 1900 816 1576 28 
Q 1253 -759 791 -1347 
z
" transform="scale(0.015625)"/>
      </defs>
      <use xlink:href="#ArialMT-46"/>
      <use xlink:href="#ArialMT-72" x="61.083984"/>
      <use xlink:href="#ArialMT-65" x="94.384766"/>
      <use xlink:href="#ArialMT-71" x="150"/>
      <use xlink:href="#ArialMT-75" x="205.615234"/>
      <use xlink:href="#ArialMT-65" x="261.230469"/>
      <use xlink:href="#ArialMT-6e" x="316.845703"/>
      <use xlink:href="#ArialMT-63" x="372.460938"/>
      <use xlink:href="#ArialMT-79" x="422.460938"/>
      <use xlink:href="#ArialMT-20" x="472.460938"/>
      <use xlink:href="#ArialMT-28" x="500.244141"/>
      <use xlink:href="#ArialMT-48" x="533.544922"/>
      <use xlink:href="#ArialMT-7a" x="605.761719"/>
      <use xlink:href="#ArialMT-29" x="655.761719"/>
     </g>
    </g>
   </g>
   <g id="matplotlib.axis_2">
    <g id="ytick_1">
     <g id="line2d_8">
      <defs>
       <path id="m4059920c6f" d="M 0 0 
L -6 0 
" style="stroke: #262626; stroke-width: 1.25"/>
      </defs>
      <g>
       <use xlink:href="#m4059920c6f" x="54" y="242.116364" style="fill: #262626; stroke: #262626; stroke-width: 1.25"/>
      </g>
     </g>
     <g id="text_9">
      <!-- 0.0 -->
      <g style="fill: #262626" transform="translate(29.21 246.053161)scale(0.11 -0.11)">
       <defs>
        <path id="ArialMT-2e" d="M 581 0 
L 581 641 
L 1222 641 
L 1222 0 
L 581 0 
z
" transform="scale(0.015625)"/>
       </defs>
       <use xlink:href="#ArialMT-30"/>
       <use xlink:href="#ArialMT-2e" x="55.615234"/>
       <use xlink:href="#ArialMT-30" x="83.398438"/>
      </g>
     </g>
    </g>
    <g id="ytick_2">
     <g id="line2d_9">
      <g>
       <use xlink:href="#m4059920c6f" x="54" y="202.581818" style="fill: #262626; stroke: #262626; stroke-width: 1.25"/>
      </g>
     </g>
     <g id="text_10">
      <!-- 0.2 -->
      <g style="fill: #262626" transform="translate(29.21 206.518615)scale(0.11 -0.11)">
       <use xlink:href="#ArialMT-30"/>
       <use xlink:href="#ArialMT-2e" x="55.615234"/>
       <use xlink:href="#ArialMT-32" x="83.398438"/>
      </g>
     </g>
    </g>
    <g id="ytick_3">
     <g id="line2d_10">
      <g>
       <use xlink:href="#m4059920c6f" x="54" y="163.047273" style="fill: #262626; stroke: #262626; stroke-width: 1.25"/>
      </g>
     </g>
     <g id="text_11">
      <!-- 0.4 -->
      <g style="fill: #262626" transform="translate(29.21 166.98407)scale(0.11 -0.11)">
       <defs>
        <path id="ArialMT-34" d="M 2069 0 
L 2069 1097 
L 81 1097 
L 81 1613 
L 2172 4581 
L 2631 4581 
L 2631 1613 
L 3250 1613 
L 3250 1097 
L 2631 1097 
L 2631 0 
L 2069 0 
z
M 2069 1613 
L 2069 3678 
L 634 1613 
L 2069 1613 
z
" transform="scale(0.015625)"/>
       </defs>
       <use xlink:href="#ArialMT-30"/>
       <use xlink:href="#ArialMT-2e" x="55.615234"/>
       <use xlink:href="#ArialMT-34" x="83.398438"/>
      </g>
     </g>
    </g>
    <g id="ytick_4">
     <g id="line2d_11">
      <g>
       <use xlink:href="#m4059920c6f" x="54" y="123.512727" style="fill: #262626; stroke: #262626; stroke-width: 1.25"/>
      </g>
     </g>
     <g id="text_12">
      <!-- 0.6 -->
      <g style="fill: #262626" transform="translate(29.21 127.449524)scale(0.11 -0.11)">
       <defs>
        <path id="ArialMT-36" d="M 3184 3459 
L 2625 3416 
Q 2550 3747 2413 3897 
Q 2184 4138 1850 4138 
Q 1581 4138 1378 3988 
Q 1113 3794 959 3422 
Q 806 3050 800 2363 
Q 1003 2672 1297 2822 
Q 1591 2972 1913 2972 
Q 2475 2972 2870 2558 
Q 3266 2144 3266 1488 
Q 3266 1056 3080 686 
Q 2894 316 2569 119 
Q 2244 -78 1831 -78 
Q 1128 -78 684 439 
Q 241 956 241 2144 
Q 241 3472 731 4075 
Q 1159 4600 1884 4600 
Q 2425 4600 2770 4297 
Q 3116 3994 3184 3459 
z
M 888 1484 
Q 888 1194 1011 928 
Q 1134 663 1356 523 
Q 1578 384 1822 384 
Q 2178 384 2434 671 
Q 2691 959 2691 1453 
Q 2691 1928 2437 2201 
Q 2184 2475 1800 2475 
Q 1419 2475 1153 2201 
Q 888 1928 888 1484 
z
" transform="scale(0.015625)"/>
       </defs>
       <use xlink:href="#ArialMT-30"/>
       <use xlink:href="#ArialMT-2e" x="55.615234"/>
       <use xlink:href="#ArialMT-36" x="83.398438"/>
      </g>
     </g>
    </g>
    <g id="ytick_5">
     <g id="line2d_12">
      <g>
       <use xlink:href="#m4059920c6f" x="54" y="83.978182" style="fill: #262626; stroke: #262626; stroke-width: 1.25"/>
      </g>
     </g>
     <g id="text_13">
      <!-- 0.8 -->
      <g style="fill: #262626" transform="translate(29.21 87.914979)scale(0.11 -0.11)">
       <defs>
        <path id="ArialMT-38" d="M 1131 2484 
Q 781 2613 612 2850 
Q 444 3088 444 3419 
Q 444 3919 803 4259 
Q 1163 4600 1759 4600 
Q 2359 4600 2725 4251 
Q 3091 3903 3091 3403 
Q 3091 3084 2923 2848 
Q 2756 2613 2416 2484 
Q 2838 2347 3058 2040 
Q 3278 1734 3278 1309 
Q 3278 722 2862 322 
Q 2447 -78 1769 -78 
Q 1091 -78 675 323 
Q 259 725 259 1325 
Q 259 1772 486 2073 
Q 713 2375 1131 2484 
z
M 1019 3438 
Q 1019 3113 1228 2906 
Q 1438 2700 1772 2700 
Q 2097 2700 2305 2904 
Q 2513 3109 2513 3406 
Q 2513 3716 2298 3927 
Q 2084 4138 1766 4138 
Q 1444 4138 1231 3931 
Q 1019 3725 1019 3438 
z
M 838 1322 
Q 838 1081 952 856 
Q 1066 631 1291 507 
Q 1516 384 1775 384 
Q 2178 384 2440 643 
Q 2703 903 2703 1303 
Q 2703 1709 2433 1975 
Q 2163 2241 1756 2241 
Q 1359 2241 1098 1978 
Q 838 1716 838 1322 
z
" transform="scale(0.015625)"/>
       </defs>
       <use xlink:href="#ArialMT-30"/>
       <use xlink:href="#ArialMT-2e" x="55.615234"/>
       <use xlink:href="#ArialMT-38" x="83.398438"/>
      </g>
     </g>
    </g>
    <g id="ytick_6">
     <g id="line2d_13">
      <g>
       <use xlink:href="#m4059920c6f" x="54" y="44.443636" style="fill: #262626; stroke: #262626; stroke-width: 1.25"/>
      </g>
     </g>
     <g id="text_14">
      <!-- 1.0 -->
      <g style="fill: #262626" transform="translate(29.21 48.380433)scale(0.11 -0.11)">
       <use xlink:href="#ArialMT-31"/>
       <use xlink:href="#ArialMT-2e" x="55.615234"/>
       <use xlink:href="#ArialMT-30" x="83.398438"/>
      </g>
     </g>
    </g>
   </g>
   <g id="line2d_14">
    <path d="M 54 242.116152 
L 161.085607 242.069934 
L 162.135466 241.907933 
L 163.185325 242.044644 
L 164.235183 242.006243 
L 165.285042 241.565265 
L 166.334901 238.053732 
L 167.38476 241.715077 
L 168.434619 241.370798 
L 169.484478 241.685831 
L 170.534337 236.629186 
L 171.584196 239.181563 
L 172.634055 240.596031 
L 173.683913 238.83373 
L 174.733772 233.750332 
L 175.783631 240.316377 
L 176.83349 240.412171 
L 177.883349 241.6739 
L 178.933208 237.138087 
L 179.983067 240.713213 
L 181.032926 241.92877 
L 182.082785 238.294325 
L 183.132643 232.218054 
L 184.182502 240.359702 
L 185.232361 233.235642 
L 186.28222 239.529436 
L 187.332079 241.261945 
L 188.381938 234.239878 
L 189.431797 237.976628 
L 190.481656 237.48753 
L 191.531515 230.480946 
L 192.581373 235.437013 
L 193.631232 238.626536 
L 194.681091 238.73555 
L 195.73095 237.378082 
L 196.780809 241.311102 
L 197.830668 239.849978 
L 198.880527 240.39131 
L 199.930386 241.69441 
L 200.980245 241.811342 
L 202.030103 240.45291 
L 203.079962 240.911806 
L 204.129821 242.112385 
L 205.17968 242.003716 
L 206.229539 241.465323 
L 207.279398 242.078798 
L 208.329257 241.96383 
L 209.379116 241.56045 
L 210.428975 241.732186 
L 211.478833 240.592583 
L 212.528692 241.75584 
L 213.578551 240.254255 
L 214.62841 238.040857 
L 215.678269 241.613946 
L 216.728128 241.432313 
L 217.777987 241.747798 
L 218.827846 241.424202 
L 219.877705 239.937083 
L 221.977422 236.027543 
L 223.027281 234.701549 
L 224.07714 233.832496 
L 225.126999 202.343429 
L 226.176858 44.443636 
L 227.226717 95.236176 
L 228.276576 134.704097 
L 229.326435 239.000271 
L 231.426152 238.925992 
L 232.476011 234.06458 
L 233.52587 237.882854 
L 234.575729 235.723813 
L 235.625588 241.032846 
L 236.675447 241.216401 
L 237.725306 241.917409 
L 238.775165 242.029831 
L 240.874882 241.508777 
L 241.924741 241.040833 
L 242.9746 241.217687 
L 244.024459 241.800319 
L 245.074318 241.274456 
L 246.124177 242.086437 
L 248.223895 242.100359 
L 250.323612 242.023493 
L 251.373471 241.528794 
L 252.42333 241.198134 
L 253.473189 241.685692 
L 254.523048 241.757825 
L 255.572907 241.598917 
L 256.622766 241.929339 
L 257.672625 242.094822 
L 258.722484 241.887509 
L 259.772342 242.034554 
L 260.822201 242.049108 
L 261.87206 241.877465 
L 262.921919 242.063309 
L 263.971778 241.762316 
L 265.021637 241.760315 
L 266.071496 241.982757 
L 268.171214 241.85583 
L 269.221072 242.059965 
L 270.270931 241.806596 
L 271.32079 241.924745 
L 273.420508 241.901013 
L 274.470367 242.081053 
L 278.669802 242.10586 
L 283.919097 242.072187 
L 288.118532 242.102631 
L 326.963311 242.115578 
L 388.904986 242.116184 
L 388.904986 242.116184 
" clip-path="url(#p145c079528)" style="fill: none; stroke: #4c72b0; stroke-opacity: 0.3; stroke-width: 1.5; stroke-linecap: round"/>
   </g>
   <g id="line2d_15">
    <path d="M 54 242.114249 
L 149.537159 242.099902 
L 150.587018 241.958583 
L 151.636877 242.078531 
L 153.736595 242.114307 
L 154.786453 241.922922 
L 155.836312 242.094604 
L 156.886171 241.733284 
L 157.93603 241.538951 
L 158.985889 241.853441 
L 160.035748 241.458229 
L 161.085607 241.266975 
L 162.135466 241.914659 
L 163.185325 241.395661 
L 164.235183 242.048351 
L 165.285042 241.688747 
L 166.334901 226.563122 
L 167.38476 236.294423 
L 168.434619 227.539476 
L 169.484478 235.515954 
L 170.534337 221.487954 
L 171.584196 239.031488 
L 172.634055 242.024066 
L 173.683913 232.397522 
L 174.733772 239.906909 
L 175.783631 201.544012 
L 176.83349 233.992944 
L 177.883349 238.037945 
L 178.933208 231.361243 
L 179.983067 238.713408 
L 181.032926 239.138527 
L 182.082785 235.764865 
L 183.132643 236.806814 
L 184.182502 240.837421 
L 185.232361 214.47551 
L 186.28222 238.887847 
L 187.332079 232.744389 
L 188.381938 222.456966 
L 189.431797 226.37536 
L 190.481656 197.83983 
L 191.531515 219.776424 
L 192.581373 235.984053 
L 193.631232 220.720418 
L 194.681091 240.690346 
L 195.73095 241.5658 
L 196.780809 237.883501 
L 197.830668 235.432541 
L 198.880527 238.60742 
L 199.930386 240.365001 
L 200.980245 231.102552 
L 202.030103 241.97819 
L 203.079962 239.552266 
L 204.129821 242.027873 
L 205.17968 238.411789 
L 206.229539 236.916694 
L 207.279398 239.710186 
L 208.329257 238.070922 
L 209.379116 234.261992 
L 210.428975 238.961912 
L 211.478833 239.644731 
L 212.528692 238.240215 
L 213.578551 239.933829 
L 214.62841 237.376831 
L 215.678269 240.647701 
L 216.728128 241.244341 
L 217.777987 236.165089 
L 218.827846 241.748506 
L 219.877705 241.297091 
L 220.927563 233.735186 
L 221.977422 241.342962 
L 223.027281 241.463557 
L 224.07714 239.559997 
L 225.126999 207.159147 
L 226.176858 161.632407 
L 227.226717 179.712053 
L 228.276576 44.443636 
L 229.326435 210.289296 
L 230.376294 241.030094 
L 231.426152 225.769148 
L 232.476011 234.909235 
L 233.52587 234.137386 
L 234.575729 229.252238 
L 235.625588 237.312231 
L 236.675447 240.289989 
L 237.725306 238.875117 
L 238.775165 237.199494 
L 239.825024 240.188293 
L 240.874882 235.296678 
L 241.924741 240.797615 
L 242.9746 240.916717 
L 244.024459 240.875294 
L 245.074318 241.149053 
L 246.124177 242.084987 
L 247.174036 240.577505 
L 248.223895 233.53042 
L 249.273754 240.960192 
L 250.323612 241.319673 
L 251.373471 240.785872 
L 252.42333 241.415907 
L 253.473189 240.14473 
L 254.523048 241.386838 
L 255.572907 240.855236 
L 256.622766 240.160881 
L 257.672625 241.230041 
L 258.722484 237.457621 
L 259.772342 237.31933 
L 260.822201 241.712287 
L 261.87206 240.957736 
L 262.921919 241.711374 
L 263.971778 242.079978 
L 265.021637 241.866651 
L 266.071496 239.452309 
L 267.121355 240.196311 
L 268.171214 241.300851 
L 269.221072 240.271467 
L 270.270931 239.9201 
L 271.32079 240.174988 
L 272.370649 241.869506 
L 273.420508 242.072749 
L 274.470367 241.708681 
L 275.520226 241.02702 
L 276.570085 241.93735 
L 277.619944 242.002408 
L 279.719661 241.765433 
L 280.76952 242.113106 
L 281.819379 241.666659 
L 282.869238 242.063244 
L 283.919097 241.886127 
L 286.018815 242.063526 
L 300.716839 242.108835 
L 388.904986 242.11582 
L 388.904986 242.11582 
" clip-path="url(#p145c079528)" style="fill: none; stroke: #dd8452; stroke-opacity: 0.3; stroke-width: 1.5; stroke-linecap: round"/>
   </g>
   <g id="line2d_16">
    <path d="M 54 242.116193 
L 155.836312 242.068452 
L 156.886171 241.841059 
L 157.93603 242.032494 
L 158.985889 241.944034 
L 160.035748 242.112685 
L 161.085607 242.064845 
L 163.185325 240.795404 
L 165.285042 241.999336 
L 166.334901 238.833536 
L 167.38476 240.825235 
L 168.434619 233.805406 
L 169.484478 236.464182 
L 170.534337 237.656465 
L 171.584196 241.976983 
L 172.634055 240.185374 
L 173.683913 241.090781 
L 174.733772 239.068348 
L 175.783631 239.968233 
L 176.83349 239.199504 
L 177.883349 241.927694 
L 178.933208 225.200269 
L 179.983067 238.97351 
L 181.032926 234.967483 
L 182.082785 239.270524 
L 183.132643 225.090255 
L 184.182502 227.097524 
L 185.232361 236.015311 
L 186.28222 237.135477 
L 187.332079 241.81016 
L 188.381938 239.742836 
L 189.431797 232.572158 
L 190.481656 241.008922 
L 191.531515 217.139472 
L 193.631232 241.372337 
L 194.681091 237.172759 
L 195.73095 241.921274 
L 196.780809 236.956221 
L 197.830668 235.669232 
L 198.880527 238.023624 
L 199.930386 242.062343 
L 200.980245 239.969873 
L 202.030103 238.275323 
L 203.079962 228.588727 
L 204.129821 237.443715 
L 205.17968 236.910591 
L 206.229539 241.716345 
L 207.279398 235.920837 
L 208.329257 237.208408 
L 209.379116 240.214455 
L 210.428975 242.087301 
L 211.478833 240.53954 
L 212.528692 237.819916 
L 213.578551 235.618222 
L 214.62841 241.857577 
L 215.678269 240.886404 
L 216.728128 240.071918 
L 217.777987 240.877182 
L 218.827846 235.945664 
L 219.877705 235.655209 
L 220.927563 233.162096 
L 221.977422 217.563632 
L 223.027281 233.772619 
L 224.07714 226.761933 
L 225.126999 226.813376 
L 226.176858 58.152241 
L 227.226717 139.605098 
L 228.276576 44.443636 
L 229.326435 239.456446 
L 230.376294 237.206875 
L 231.426152 236.067925 
L 232.476011 229.810259 
L 233.52587 227.526028 
L 234.575729 213.389277 
L 235.625588 241.085477 
L 236.675447 233.888939 
L 237.725306 236.630154 
L 238.775165 235.529326 
L 239.825024 240.90166 
L 240.874882 231.463192 
L 241.924741 238.592865 
L 242.9746 241.549656 
L 244.024459 241.046294 
L 245.074318 236.348861 
L 246.124177 241.838246 
L 247.174036 235.410152 
L 248.223895 236.588499 
L 249.273754 240.971482 
L 250.323612 239.383002 
L 251.373471 239.618143 
L 252.42333 241.710036 
L 253.473189 240.579552 
L 254.523048 241.499326 
L 255.572907 241.286124 
L 256.622766 240.812048 
L 257.672625 240.463236 
L 258.722484 241.499594 
L 259.772342 235.319809 
L 260.822201 240.392002 
L 261.87206 236.380605 
L 262.921919 240.716704 
L 263.971778 240.107298 
L 265.021637 239.927676 
L 266.071496 240.48048 
L 267.121355 234.605818 
L 268.171214 240.468087 
L 269.221072 242.002751 
L 270.270931 236.464706 
L 271.32079 238.978771 
L 272.370649 241.94455 
L 273.420508 241.727013 
L 274.470367 241.792712 
L 275.520226 239.479867 
L 276.570085 241.131226 
L 277.619944 241.527917 
L 278.669802 241.602096 
L 280.76952 242.05967 
L 281.819379 241.884906 
L 282.869238 242.068725 
L 290.21825 242.109566 
L 312.265287 242.113876 
L 388.904986 242.116141 
L 388.904986 242.116141 
" clip-path="url(#p145c079528)" style="fill: none; stroke: #55a868; stroke-opacity: 0.3; stroke-width: 1.5; stroke-linecap: round"/>
   </g>
   <g id="line2d_17">
    <path d="M 54 242.116362 
L 134.839135 242.00826 
L 147.437441 241.84614 
L 150.587018 241.623919 
L 152.686736 241.20266 
L 153.736595 240.814415 
L 154.786453 240.217519 
L 155.836312 239.295133 
L 156.886171 238.030139 
L 157.93603 236.304954 
L 158.985889 233.699225 
L 160.035748 230.163532 
L 161.085607 224.497022 
L 162.135466 217.437383 
L 163.185325 207.627942 
L 164.235183 195.884249 
L 165.285042 185.788607 
L 166.334901 172.591462 
L 167.38476 154.45135 
L 171.584196 93.470876 
L 172.634055 86.079327 
L 173.683913 80.899539 
L 174.733772 76.709568 
L 175.783631 60.475861 
L 176.83349 55.783142 
L 177.883349 50.47455 
L 178.933208 52.479667 
L 179.983067 50.580592 
L 181.032926 49.230225 
L 182.082785 54.699761 
L 183.132643 50.08249 
L 184.182502 44.443636 
L 185.232361 45.435994 
L 186.28222 51.710617 
L 187.332079 57.125102 
L 188.381938 63.208441 
L 189.431797 59.539797 
L 190.481656 62.308558 
L 191.531515 62.463065 
L 192.581373 69.439528 
L 193.631232 68.975982 
L 194.681091 79.816646 
L 195.73095 82.463787 
L 196.780809 86.66424 
L 197.830668 90.152333 
L 198.880527 91.54886 
L 199.930386 97.042051 
L 200.980245 104.167545 
L 202.030103 102.02778 
L 203.079962 107.136772 
L 204.129821 111.26175 
L 205.17968 110.909678 
L 206.229539 115.164897 
L 207.279398 115.901194 
L 208.329257 119.442685 
L 209.379116 124.237071 
L 210.428975 121.621551 
L 211.478833 123.678744 
L 212.528692 124.636109 
L 214.62841 125.745955 
L 215.678269 126.322055 
L 216.728128 128.791089 
L 217.777987 131.705039 
L 218.827846 133.173926 
L 219.877705 134.355809 
L 220.927563 135.812838 
L 221.977422 130.762002 
L 223.027281 132.659745 
L 224.07714 134.27373 
L 225.126999 147.268776 
L 226.176858 130.958276 
L 227.226717 108.530495 
L 228.276576 114.535594 
L 229.326435 144.582442 
L 230.376294 136.741552 
L 231.426152 147.210594 
L 232.476011 150.589468 
L 233.52587 149.570399 
L 234.575729 154.159133 
L 235.625588 148.43579 
L 236.675447 145.752988 
L 237.725306 150.553447 
L 238.775165 150.783509 
L 239.825024 150.437386 
L 240.874882 154.403734 
L 241.924741 159.716987 
L 242.9746 160.720302 
L 244.024459 157.979522 
L 245.074318 159.236123 
L 246.124177 159.177291 
L 247.174036 158.613505 
L 248.223895 161.801586 
L 250.323612 166.466402 
L 251.373471 166.291612 
L 252.42333 165.614346 
L 253.473189 167.3125 
L 254.523048 169.480288 
L 255.572907 169.133465 
L 256.622766 172.194065 
L 257.672625 174.678943 
L 258.722484 175.689505 
L 259.772342 175.561268 
L 260.822201 177.81327 
L 261.87206 178.40516 
L 262.921919 181.639489 
L 263.971778 185.763558 
L 265.021637 187.242968 
L 266.071496 190.364871 
L 267.121355 192.262721 
L 268.171214 196.522306 
L 270.270931 202.68198 
L 271.32079 207.42268 
L 272.370649 210.856211 
L 273.420508 213.333924 
L 275.520226 220.317637 
L 276.570085 223.144125 
L 277.619944 226.423066 
L 280.76952 232.97673 
L 283.919097 237.391341 
L 284.968956 238.399203 
L 286.018815 239.220669 
L 288.118532 240.46221 
L 289.168391 240.90971 
L 291.268109 241.493877 
L 293.367827 241.82932 
L 296.517404 242.050911 
L 301.766698 242.108085 
L 331.162747 242.089266 
L 388.904986 242.102379 
L 388.904986 242.102379 
" clip-path="url(#p145c079528)" style="fill: none; stroke: #c44e52; stroke-opacity: 0.3; stroke-width: 1.5; stroke-linecap: round"/>
   </g>
   <g id="line2d_18">
    <path d="M 54 242.116319 
L 134.839135 242.009302 
L 148.4873 241.804199 
L 150.587018 241.626766 
L 152.686736 241.213521 
L 153.736595 240.830688 
L 154.786453 240.244839 
L 155.836312 239.389221 
L 156.886171 238.099168 
L 157.93603 236.293966 
L 158.985889 233.50609 
L 160.035748 229.773208 
L 161.085607 224.806112 
L 162.135466 217.593157 
L 164.235183 197.352527 
L 165.285042 183.773704 
L 166.334901 168.014452 
L 167.38476 154.184707 
L 169.484478 122.952063 
L 170.534337 107.853687 
L 171.584196 94.666966 
L 173.683913 75.273096 
L 174.733772 68.376916 
L 175.783631 62.258676 
L 176.83349 53.404977 
L 177.883349 52.370842 
L 178.933208 51.882423 
L 179.983067 45.592297 
L 181.032926 47.427486 
L 182.082785 46.411898 
L 183.132643 44.443636 
L 184.182502 48.295056 
L 185.232361 49.222861 
L 186.28222 49.806124 
L 187.332079 56.176273 
L 188.381938 55.432966 
L 189.431797 58.03783 
L 190.481656 62.4615 
L 191.531515 66.085 
L 192.581373 68.957532 
L 193.631232 71.367214 
L 194.681091 76.18577 
L 195.73095 82.922151 
L 196.780809 84.637115 
L 197.830668 87.044261 
L 198.880527 95.163663 
L 199.930386 94.618126 
L 200.980245 97.542442 
L 202.030103 102.760096 
L 203.079962 105.326565 
L 205.17968 111.902147 
L 206.229539 114.161449 
L 207.279398 115.770974 
L 208.329257 116.879757 
L 209.379116 119.566574 
L 210.428975 122.811265 
L 211.478833 121.995589 
L 212.528692 124.140535 
L 213.578551 125.520108 
L 214.62841 125.79075 
L 215.678269 127.865659 
L 216.728128 128.730114 
L 217.777987 127.784799 
L 218.827846 128.84971 
L 219.877705 128.686728 
L 220.927563 130.324733 
L 221.977422 133.414003 
L 223.027281 132.11593 
L 224.07714 132.425892 
L 225.126999 132.232763 
L 226.176858 136.902424 
L 227.226717 137.123303 
L 228.276576 139.645641 
L 229.326435 137.440554 
L 230.376294 138.454291 
L 231.426152 138.473391 
L 232.476011 140.524675 
L 233.52587 143.469831 
L 234.575729 143.066109 
L 236.675447 147.083757 
L 237.725306 147.781016 
L 238.775165 149.467375 
L 239.825024 150.943299 
L 241.924741 152.878439 
L 242.9746 153.917895 
L 244.024459 156.07621 
L 245.074318 157.650384 
L 246.124177 157.35555 
L 248.223895 161.278457 
L 249.273754 161.172486 
L 250.323612 163.266538 
L 251.373471 164.516986 
L 252.42333 164.920928 
L 253.473189 166.478224 
L 254.523048 167.166821 
L 255.572907 169.440239 
L 256.622766 170.82782 
L 257.672625 171.532248 
L 258.722484 173.94154 
L 260.822201 176.743547 
L 261.87206 179.739426 
L 262.921919 182.241989 
L 263.971778 184.096834 
L 265.021637 187.016784 
L 266.071496 189.260982 
L 267.121355 192.881427 
L 268.171214 195.589195 
L 269.221072 198.982139 
L 270.270931 202.973929 
L 274.470367 216.665516 
L 277.619944 225.492943 
L 278.669802 228.310298 
L 279.719661 230.564592 
L 281.819379 234.410025 
L 282.869238 235.954633 
L 284.968956 238.275232 
L 286.018815 239.156749 
L 288.118532 240.426093 
L 290.21825 241.212164 
L 292.317968 241.679392 
L 294.417686 241.935915 
L 298.617121 242.102918 
L 308.065851 242.07124 
L 329.063029 242.085341 
L 388.904986 242.101857 
L 388.904986 242.101857 
" clip-path="url(#p145c079528)" style="fill: none; stroke: #8172b3; stroke-opacity: 0.3; stroke-width: 1.5; stroke-linecap: round"/>
   </g>
   <g id="line2d_19">
    <path d="M 54 242.116336 
L 134.839135 242.009009 
L 147.437441 241.849767 
L 150.587018 241.623482 
L 152.686736 241.207669 
L 153.736595 240.827129 
L 154.786453 240.254924 
L 155.836312 239.371453 
L 156.886171 238.082608 
L 157.93603 236.171065 
L 158.985889 233.490112 
L 160.035748 229.808968 
L 161.085607 224.069314 
L 162.135466 217.555366 
L 163.185325 209.011472 
L 166.334901 170.534358 
L 168.434619 137.905204 
L 170.534337 108.12431 
L 172.634055 83.012251 
L 173.683913 75.118949 
L 174.733772 69.238023 
L 175.783631 61.67326 
L 176.83349 61.691944 
L 177.883349 51.378684 
L 178.933208 48.750877 
L 179.983067 52.491479 
L 181.032926 44.443636 
L 182.082785 47.904367 
L 183.132643 50.011311 
L 184.182502 46.402064 
L 185.232361 46.166188 
L 186.28222 51.769058 
L 187.332079 50.202642 
L 188.381938 58.601863 
L 189.431797 61.408764 
L 190.481656 62.831687 
L 191.531515 67.997684 
L 192.581373 68.619736 
L 193.631232 74.44254 
L 194.681091 78.256222 
L 195.73095 80.218339 
L 197.830668 91.333693 
L 198.880527 89.085254 
L 199.930386 96.453593 
L 200.980245 102.408512 
L 202.030103 100.88973 
L 203.079962 106.622371 
L 204.129821 109.711092 
L 205.17968 110.648207 
L 206.229539 115.414454 
L 207.279398 116.200304 
L 208.329257 119.472122 
L 209.379116 120.208328 
L 210.428975 118.749205 
L 211.478833 124.456928 
L 212.528692 122.005366 
L 213.578551 122.820598 
L 214.62841 126.014196 
L 215.678269 126.502927 
L 216.728128 126.320235 
L 217.777987 129.121927 
L 218.827846 128.784208 
L 219.877705 129.846574 
L 220.927563 130.279451 
L 221.977422 128.703514 
L 223.027281 132.572223 
L 224.07714 130.800399 
L 225.126999 127.557292 
L 226.176858 136.850659 
L 227.226717 134.585416 
L 228.276576 140.581926 
L 229.326435 138.38624 
L 230.376294 138.424023 
L 232.476011 140.592968 
L 233.52587 138.577269 
L 234.575729 143.055445 
L 235.625588 143.307261 
L 236.675447 144.339587 
L 237.725306 146.890955 
L 238.775165 147.599855 
L 239.825024 147.980425 
L 240.874882 150.744629 
L 241.924741 153.045273 
L 242.9746 154.277752 
L 244.024459 154.056444 
L 245.074318 155.246841 
L 246.124177 158.67057 
L 247.174036 158.898856 
L 248.223895 159.681651 
L 249.273754 161.708441 
L 250.323612 162.311947 
L 251.373471 163.595015 
L 252.42333 165.055737 
L 253.473189 166.182584 
L 254.523048 167.71292 
L 255.572907 168.171537 
L 256.622766 170.277143 
L 257.672625 173.091499 
L 258.722484 174.156841 
L 259.772342 175.971227 
L 260.822201 178.303462 
L 261.87206 178.66574 
L 262.921919 180.00274 
L 263.971778 183.674214 
L 265.021637 186.127785 
L 266.071496 189.989999 
L 267.121355 191.94791 
L 268.171214 196.607145 
L 270.270931 202.199071 
L 271.32079 205.768246 
L 272.370649 209.856608 
L 277.619944 226.141628 
L 278.669802 228.259506 
L 280.76952 232.801724 
L 282.869238 235.8772 
L 283.919097 237.292857 
L 286.018815 239.127708 
L 287.068674 239.878536 
L 289.168391 240.881227 
L 291.268109 241.479473 
L 293.367827 241.816491 
L 296.517404 242.051699 
L 301.766698 242.108338 
L 333.262465 242.090039 
L 388.904986 242.102035 
L 388.904986 242.102035 
" clip-path="url(#p145c079528)" style="fill: none; stroke: #937860; stroke-opacity: 0.3; stroke-width: 1.5; stroke-linecap: round"/>
   </g>
   <g id="line2d_20">
    <path d="M 54 242.116356 
L 151.636877 242.031171 
L 153.736595 241.868962 
L 154.786453 241.680955 
L 155.836312 241.355031 
L 156.886171 240.802479 
L 157.93603 239.868755 
L 158.985889 238.293657 
L 160.035748 235.679237 
L 161.085607 231.475075 
L 162.135466 224.983504 
L 163.185325 215.41335 
L 164.235183 202.062103 
L 165.285042 184.680579 
L 167.38476 141.188874 
L 169.484478 97.815618 
L 170.534337 79.785206 
L 171.584196 65.02376 
L 172.634055 54.001697 
L 173.683913 47.163853 
L 174.733772 44.443636 
L 175.783631 44.839223 
L 176.83349 46.622961 
L 177.883349 48.15466 
L 178.933208 48.684963 
L 179.983067 48.535047 
L 181.032926 48.587132 
L 182.082785 49.568143 
L 183.132643 51.668522 
L 184.182502 54.637849 
L 189.431797 71.613726 
L 193.631232 84.063521 
L 194.681091 86.079339 
L 195.73095 87.225657 
L 196.780809 88.0307 
L 197.830668 89.203385 
L 198.880527 91.086026 
L 203.079962 100.64801 
L 206.229539 109.135802 
L 207.279398 110.70543 
L 209.379116 112.371277 
L 210.428975 113.926258 
L 212.528692 117.920638 
L 214.62841 120.311142 
L 215.678269 122.173521 
L 217.777987 127.882879 
L 218.827846 129.252374 
L 219.877705 128.762105 
L 220.927563 127.924786 
L 221.977422 129.084396 
L 223.027281 133.186146 
L 224.07714 138.403485 
L 225.126999 141.155336 
L 226.176858 138.962402 
L 228.276576 126.678406 
L 229.326435 124.940581 
L 230.376294 128.923941 
L 232.476011 142.862827 
L 233.52587 146.165234 
L 234.575729 146.492063 
L 235.625588 146.074025 
L 236.675447 146.697171 
L 237.725306 148.307451 
L 238.775165 149.610831 
L 239.825024 149.751649 
L 240.874882 149.276976 
L 241.924741 149.518996 
L 242.9746 151.182552 
L 244.024459 153.640786 
L 245.074318 155.606098 
L 246.124177 156.412785 
L 247.174036 156.588003 
L 248.223895 157.1925 
L 249.273754 158.682628 
L 250.323612 160.477301 
L 251.373471 161.627172 
L 252.42333 161.843478 
L 253.473189 161.818541 
L 254.523048 162.54035 
L 255.572907 164.333193 
L 256.622766 166.595029 
L 257.672625 168.45459 
L 259.772342 170.714911 
L 260.822201 172.440742 
L 261.87206 175.06153 
L 263.971778 181.057084 
L 266.071496 186.513877 
L 267.121355 189.913505 
L 271.32079 205.712839 
L 273.420508 213.253558 
L 275.520226 221.054597 
L 276.570085 224.389468 
L 277.619944 227.240928 
L 279.719661 232.005263 
L 280.76952 233.997322 
L 281.819379 235.649189 
L 282.869238 236.949393 
L 283.919097 237.974514 
L 286.018815 239.548755 
L 287.068674 240.145813 
L 288.118532 240.601669 
L 290.21825 241.179224 
L 293.367827 241.69316 
L 296.517404 241.913242 
L 302.816557 242.069627 
L 317.514581 242.114827 
L 388.904986 242.116362 
L 388.904986 242.116362 
" clip-path="url(#p145c079528)" style="fill: none; stroke: #da8bc3; stroke-opacity: 0.3; stroke-width: 1.5; stroke-linecap: round"/>
   </g>
   <g id="line2d_21">
    <path d="M 54 242.116364 
L 151.636877 242.031801 
L 153.736595 241.862844 
L 154.786453 241.677508 
L 155.836312 241.358533 
L 156.886171 240.811248 
L 157.93603 239.878838 
L 158.985889 238.312489 
L 160.035748 235.736819 
L 161.085607 231.619257 
L 162.135466 225.26849 
L 163.185325 215.909838 
L 164.235183 202.888092 
L 165.285042 185.99008 
L 167.38476 143.564036 
L 169.484478 100.890332 
L 170.534337 83.559375 
L 171.584196 69.817904 
L 172.634055 59.520632 
L 173.683913 52.230386 
L 174.733772 47.508975 
L 175.783631 45.017392 
L 176.83349 44.443636 
L 177.883349 45.3847 
L 178.933208 47.318009 
L 182.082785 54.687854 
L 184.182502 60.111007 
L 187.332079 68.816227 
L 190.481656 76.200584 
L 193.631232 84.468332 
L 194.681091 86.604754 
L 196.780809 90.293616 
L 197.830668 92.496946 
L 200.980245 100.218182 
L 202.030103 102.346828 
L 204.129821 105.80356 
L 207.279398 110.569949 
L 209.379116 114.229718 
L 211.478833 118.133069 
L 212.528692 119.802687 
L 218.827846 128.410423 
L 220.927563 130.60948 
L 224.07714 135.059621 
L 225.126999 135.77291 
L 226.176858 136.0237 
L 227.226717 136.444659 
L 228.276576 137.694809 
L 229.326435 139.922822 
L 230.376294 142.599318 
L 231.426152 144.882806 
L 232.476011 146.230985 
L 233.52587 146.760094 
L 234.575729 147.076779 
L 235.625588 147.758009 
L 236.675447 148.932719 
L 237.725306 150.290452 
L 238.775165 151.446621 
L 241.924741 154.038015 
L 245.074318 157.646406 
L 248.223895 160.160089 
L 252.42333 164.246453 
L 253.473189 165.180105 
L 254.523048 166.28542 
L 256.622766 169.029844 
L 258.722484 172.003192 
L 259.772342 173.647651 
L 260.822201 175.529484 
L 262.921919 180.02823 
L 265.021637 185.324229 
L 267.121355 191.703333 
L 270.270931 202.901723 
L 274.470367 218.10274 
L 276.570085 224.742956 
L 277.619944 227.603131 
L 278.669802 230.135312 
L 279.719661 232.336243 
L 280.76952 234.209177 
L 281.819379 235.771845 
L 282.869238 237.058691 
L 283.919097 238.111975 
L 284.968956 238.969661 
L 286.018815 239.660399 
L 288.118532 240.633502 
L 290.21825 241.221697 
L 292.317968 241.582129 
L 295.467545 241.868528 
L 300.716839 242.045924 
L 312.265287 242.111119 
L 388.904986 242.116364 
L 388.904986 242.116364 
" clip-path="url(#p145c079528)" style="fill: none; stroke: #8c8c8c; stroke-opacity: 0.3; stroke-width: 1.5; stroke-linecap: round"/>
   </g>
   <g id="line2d_22">
    <path d="M 54 242.116363 
L 151.636877 242.031417 
L 153.736595 241.864246 
L 154.786453 241.676321 
L 155.836312 241.351354 
L 156.886171 240.80003 
L 157.93603 239.873709 
L 158.985889 238.324054 
L 160.035748 235.75934 
L 161.085607 231.622378 
L 162.135466 225.218769 
L 163.185325 215.815671 
L 164.235183 202.819054 
L 165.285042 186.021168 
L 167.38476 143.573355 
L 169.484478 100.119217 
L 170.534337 82.402872 
L 171.584196 68.487438 
L 172.634055 58.255597 
L 173.683913 51.219577 
L 174.733772 46.864353 
L 175.783631 44.751626 
L 176.83349 44.443636 
L 177.883349 45.442527 
L 178.933208 47.257261 
L 179.983067 49.531849 
L 182.082785 54.861621 
L 185.232361 63.290609 
L 190.481656 76.34209 
L 194.681091 85.424524 
L 196.780809 90.811339 
L 197.830668 93.059398 
L 202.030103 100.507662 
L 205.17968 106.974791 
L 207.279398 110.733658 
L 209.379116 114.039558 
L 211.478833 116.984231 
L 213.578551 120.522303 
L 215.678269 124.231884 
L 217.777987 127.225214 
L 223.027281 134.29001 
L 225.126999 137.194023 
L 226.176858 138.73856 
L 227.226717 139.99717 
L 228.276576 140.765939 
L 230.376294 141.55687 
L 231.426152 142.363746 
L 232.476011 143.678442 
L 234.575729 146.757579 
L 235.625588 147.978218 
L 238.775165 151.193578 
L 240.874882 153.405511 
L 244.024459 156.065737 
L 247.174036 159.302343 
L 250.323612 161.986648 
L 255.572907 167.479305 
L 256.622766 168.809957 
L 258.722484 171.933517 
L 260.822201 175.4113 
L 261.87206 177.463941 
L 262.921919 179.843002 
L 265.021637 185.382098 
L 267.121355 191.591455 
L 269.221072 198.789138 
L 274.470367 218.022822 
L 276.570085 224.716792 
L 277.619944 227.61106 
L 278.669802 230.14247 
L 279.719661 232.323112 
L 280.76952 234.186987 
L 281.819379 235.763068 
L 282.869238 237.07055 
L 283.919097 238.131203 
L 284.968956 238.978741 
L 286.018815 239.654328 
L 288.118532 240.625292 
L 290.21825 241.223583 
L 292.317968 241.578228 
L 295.467545 241.869265 
L 300.716839 242.046164 
L 312.265287 242.111155 
L 388.904986 242.116363 
L 388.904986 242.116363 
" clip-path="url(#p145c079528)" style="fill: none; stroke: #ccb974; stroke-opacity: 0.3; stroke-width: 1.5; stroke-linecap: round"/>
   </g>
   <g id="line2d_23">
    <path d="M 54 242.114505 
L 153.736595 242.090749 
L 154.786453 241.976321 
L 156.886171 242.006993 
L 158.985889 241.553667 
L 160.035748 241.977467 
L 161.085607 240.854167 
L 162.135466 241.350712 
L 163.185325 241.656437 
L 164.235183 241.587441 
L 165.285042 240.582486 
L 166.334901 236.732936 
L 167.38476 241.432411 
L 169.484478 241.577987 
L 170.534337 240.987505 
L 171.584196 234.889554 
L 172.634055 240.225306 
L 173.683913 235.687814 
L 174.733772 234.97908 
L 175.783631 240.974239 
L 176.83349 238.1043 
L 177.883349 237.186298 
L 178.933208 229.517099 
L 179.983067 238.196792 
L 181.032926 240.638075 
L 183.132643 233.95843 
L 184.182502 237.391306 
L 185.232361 237.884216 
L 186.28222 240.507263 
L 187.332079 240.600866 
L 188.381938 234.621136 
L 189.431797 241.183431 
L 190.481656 240.855121 
L 191.531515 238.060475 
L 192.581373 241.184263 
L 193.631232 241.603947 
L 194.681091 241.169571 
L 195.73095 239.684704 
L 196.780809 240.178055 
L 197.830668 234.450982 
L 198.880527 240.819977 
L 199.930386 241.209943 
L 200.980245 240.734453 
L 202.030103 240.771163 
L 203.079962 241.045325 
L 204.129821 240.006142 
L 205.17968 241.834516 
L 206.229539 239.891345 
L 207.279398 241.412309 
L 208.329257 242.082193 
L 209.379116 240.496133 
L 210.428975 241.072539 
L 211.478833 239.777004 
L 212.528692 240.663676 
L 213.578551 241.854077 
L 214.62841 240.088311 
L 215.678269 241.922878 
L 216.728128 240.124541 
L 217.777987 241.572143 
L 218.827846 239.190712 
L 219.877705 241.548436 
L 220.927563 239.194582 
L 221.977422 235.878541 
L 223.027281 239.725614 
L 224.07714 235.19901 
L 225.126999 218.282668 
L 226.176858 44.443636 
L 227.226717 108.288339 
L 228.276576 147.124153 
L 229.326435 232.238699 
L 230.376294 238.876411 
L 231.426152 239.167985 
L 232.476011 238.059767 
L 233.52587 232.222797 
L 234.575729 237.776038 
L 235.625588 241.507901 
L 236.675447 241.542385 
L 237.725306 241.985282 
L 239.825024 241.743942 
L 240.874882 240.877102 
L 241.924741 240.605547 
L 244.024459 241.441228 
L 245.074318 240.627632 
L 246.124177 241.846885 
L 247.174036 241.986528 
L 248.223895 241.416801 
L 249.273754 241.931307 
L 250.323612 241.340832 
L 251.373471 241.844242 
L 252.42333 241.485534 
L 253.473189 241.952507 
L 254.523048 241.847066 
L 257.672625 241.99418 
L 258.722484 241.806007 
L 260.822201 242.019838 
L 263.971778 242.006409 
L 265.021637 241.990357 
L 266.071496 242.106613 
L 269.221072 242.095414 
L 271.32079 241.862479 
L 272.370649 242.059555 
L 275.520226 242.096211 
L 276.570085 242.010834 
L 278.669802 242.040602 
L 290.21825 242.116163 
L 388.904986 242.116354 
L 388.904986 242.116354 
" clip-path="url(#p145c079528)" style="fill: none; stroke: #64b5cd; stroke-opacity: 0.3; stroke-width: 1.5; stroke-linecap: round"/>
   </g>
   <g id="line2d_24">
    <path d="M 54 242.08579 
L 137.988711 241.982381 
L 149.537159 241.935312 
L 150.587018 241.04131 
L 151.636877 241.841241 
L 152.686736 241.795253 
L 153.736595 241.995373 
L 154.786453 240.376227 
L 155.836312 241.983717 
L 156.886171 239.559909 
L 157.93603 238.521264 
L 158.985889 241.316165 
L 160.035748 238.954923 
L 161.085607 235.756315 
L 162.135466 241.000041 
L 163.185325 236.804389 
L 164.235183 240.754851 
L 165.285042 237.397971 
L 166.334901 182.883529 
L 167.38476 204.04732 
L 168.434619 80.827231 
L 169.484478 129.954653 
L 170.534337 73.822346 
L 171.584196 190.541054 
L 172.634055 227.374414 
L 173.683913 218.623708 
L 174.733772 213.378611 
L 175.783631 106.770651 
L 176.83349 214.307321 
L 177.883349 238.062182 
L 178.933208 44.443636 
L 179.983067 195.384519 
L 181.032926 196.827066 
L 182.082785 237.038696 
L 183.132643 212.055195 
L 184.182502 233.498697 
L 185.232361 171.847092 
L 186.28222 197.37951 
L 187.332079 135.718078 
L 188.381938 242.109891 
L 189.431797 238.280855 
L 190.481656 170.032662 
L 191.531515 168.622725 
L 192.581373 156.179276 
L 193.631232 238.358298 
L 194.681091 227.174614 
L 195.73095 232.16821 
L 196.780809 241.1283 
L 197.830668 228.540347 
L 198.880527 219.338897 
L 199.930386 219.767319 
L 202.030103 199.688079 
L 203.079962 228.850928 
L 204.129821 232.279065 
L 205.17968 229.232317 
L 206.229539 219.014114 
L 207.279398 235.277545 
L 208.329257 228.668476 
L 209.379116 233.924807 
L 210.428975 235.838735 
L 211.478833 240.004283 
L 212.528692 225.971584 
L 213.578551 240.701359 
L 214.62841 169.287651 
L 215.678269 224.279533 
L 216.728128 230.087024 
L 217.777987 233.360631 
L 218.827846 221.806913 
L 219.877705 239.021 
L 220.927563 230.568557 
L 221.977422 228.737149 
L 223.027281 231.72508 
L 224.07714 199.838831 
L 225.126999 150.835223 
L 226.176858 71.689425 
L 227.226717 47.241373 
L 228.276576 161.977958 
L 229.326435 241.765888 
L 230.376294 224.516702 
L 231.426152 239.109428 
L 232.476011 237.611308 
L 233.52587 231.628053 
L 234.575729 206.147415 
L 235.625588 235.194002 
L 236.675447 238.821771 
L 237.725306 241.284178 
L 238.775165 234.07697 
L 239.825024 175.618653 
L 240.874882 236.892259 
L 241.924741 235.218045 
L 242.9746 224.968699 
L 244.024459 230.077961 
L 245.074318 221.91946 
L 246.124177 237.89797 
L 247.174036 241.383054 
L 249.273754 239.850369 
L 250.323612 237.58783 
L 251.373471 209.976408 
L 252.42333 236.444823 
L 253.473189 227.147712 
L 254.523048 241.90517 
L 255.572907 240.532982 
L 256.622766 230.105841 
L 257.672625 241.156538 
L 258.722484 232.638792 
L 259.772342 242.100153 
L 260.822201 238.892351 
L 261.87206 225.384945 
L 263.971778 240.833922 
L 265.021637 230.359158 
L 266.071496 240.88425 
L 267.121355 230.681438 
L 268.171214 241.7439 
L 269.221072 229.056222 
L 270.270931 235.616312 
L 271.32079 240.646722 
L 272.370649 234.808173 
L 273.420508 240.326978 
L 275.520226 241.82694 
L 276.570085 240.512318 
L 277.619944 240.594795 
L 278.669802 241.642509 
L 279.719661 241.576756 
L 280.76952 241.867322 
L 281.819379 239.628414 
L 282.869238 242.008433 
L 283.919097 241.960764 
L 284.968956 241.5178 
L 286.018815 241.519213 
L 287.068674 242.091859 
L 290.21825 242.00164 
L 291.268109 241.871124 
L 292.317968 242.065974 
L 293.367827 242.095876 
L 294.417686 241.998352 
L 296.517404 242.111927 
L 301.766698 242.104415 
L 332.212606 242.113132 
L 388.904986 242.11496 
L 388.904986 242.11496 
" clip-path="url(#p145c079528)" style="fill: none; stroke: #4c72b0; stroke-opacity: 0.3; stroke-width: 1.5; stroke-linecap: round"/>
   </g>
   <g id="line2d_25">
    <path d="M 54 242.114956 
L 153.736595 242.095682 
L 154.786453 242.000361 
L 158.985889 242.048823 
L 161.085607 241.685331 
L 162.135466 241.482247 
L 163.185325 241.789254 
L 164.235183 240.969834 
L 165.285042 239.840795 
L 166.334901 235.353725 
L 167.38476 231.423528 
L 168.434619 233.118959 
L 169.484478 225.417079 
L 170.534337 230.792565 
L 171.584196 239.533876 
L 172.634055 240.244888 
L 173.683913 238.990934 
L 174.733772 236.530979 
L 175.783631 235.432981 
L 176.83349 236.282153 
L 177.883349 239.379978 
L 178.933208 234.175386 
L 179.983067 236.626482 
L 181.032926 240.066387 
L 182.082785 235.439596 
L 183.132643 240.0615 
L 184.182502 238.771597 
L 185.232361 235.637233 
L 186.28222 236.841064 
L 187.332079 221.183512 
L 188.381938 234.357042 
L 189.431797 240.526719 
L 190.481656 234.432048 
L 191.531515 225.071253 
L 192.581373 232.057255 
L 193.631232 239.941279 
L 194.681091 240.79308 
L 195.73095 235.286348 
L 196.780809 240.214789 
L 197.830668 241.39996 
L 198.880527 238.128654 
L 199.930386 235.727875 
L 200.980245 238.69349 
L 202.030103 232.83879 
L 203.079962 231.972213 
L 204.129821 233.556982 
L 205.17968 240.042054 
L 206.229539 241.31474 
L 207.279398 233.882987 
L 208.329257 238.565804 
L 209.379116 237.259751 
L 210.428975 240.806305 
L 211.478833 237.76403 
L 212.528692 241.345056 
L 213.578551 238.641261 
L 214.62841 230.046482 
L 215.678269 240.89823 
L 216.728128 235.69022 
L 217.777987 242.08791 
L 218.827846 241.597163 
L 219.877705 231.958364 
L 220.927563 233.560604 
L 221.977422 226.926319 
L 223.027281 231.160325 
L 224.07714 232.440719 
L 225.126999 218.324967 
L 226.176858 149.494539 
L 227.226717 178.169176 
L 228.276576 44.443636 
L 229.326435 219.039458 
L 230.376294 237.644573 
L 231.426152 229.626822 
L 232.476011 239.749487 
L 233.52587 227.11331 
L 234.575729 236.124558 
L 235.625588 234.971151 
L 236.675447 239.730154 
L 237.725306 235.609185 
L 238.775165 232.881333 
L 239.825024 234.860952 
L 240.874882 238.599992 
L 241.924741 239.885962 
L 242.9746 241.90854 
L 244.024459 240.435073 
L 245.074318 241.65083 
L 246.124177 241.384648 
L 247.174036 238.784481 
L 248.223895 242.061091 
L 249.273754 241.161833 
L 250.323612 241.501211 
L 251.373471 239.835444 
L 252.42333 241.190682 
L 253.473189 241.396277 
L 254.523048 242.038712 
L 255.572907 241.84577 
L 256.622766 240.050486 
L 257.672625 242.056764 
L 258.722484 239.375683 
L 259.772342 239.631296 
L 260.822201 241.910997 
L 261.87206 240.719322 
L 262.921919 235.140323 
L 263.971778 241.77375 
L 265.021637 241.694312 
L 266.071496 241.968481 
L 267.121355 238.446129 
L 268.171214 241.473986 
L 269.221072 241.28815 
L 270.270931 241.733864 
L 272.370649 241.17839 
L 273.420508 241.358298 
L 274.470367 242.053054 
L 275.520226 241.870628 
L 277.619944 242.106744 
L 278.669802 241.693673 
L 280.76952 242.067515 
L 281.819379 241.917318 
L 283.919097 242.045981 
L 287.068674 242.090284 
L 325.913452 242.114476 
L 388.904986 242.115723 
L 388.904986 242.115723 
" clip-path="url(#p145c079528)" style="fill: none; stroke: #dd8452; stroke-opacity: 0.3; stroke-width: 1.5; stroke-linecap: round"/>
   </g>
   <g id="patch_3">
    <path d="M 54 252 
L 54 34.56 
" style="fill: none; stroke: #262626; stroke-width: 1.25; stroke-linejoin: miter; stroke-linecap: square"/>
   </g>
   <g id="patch_4">
    <path d="M 388.8 252 
L 388.8 34.56 
" style="fill: none; stroke: #262626; stroke-width: 1.25; stroke-linejoin: miter; stroke-linecap: square"/>
   </g>
   <g id="patch_5">
    <path d="M 54 252 
L 388.8 252 
" style="fill: none; stroke: #262626; stroke-width: 1.25; stroke-linejoin: miter; stroke-linecap: square"/>
   </g>
   <g id="patch_6">
    <path d="M 54 34.56 
L 388.8 34.56 
" style="fill: none; stroke: #262626; stroke-width: 1.25; stroke-linejoin: miter; stroke-linecap: square"/>
   </g>
   <g id="text_15">
    <!-- patient14_app03 - Power spectrum -->
    <g style="fill: #262626" transform="translate(128.0175 28.56)scale(0.12 -0.12)">
     <defs>
      <path id="ArialMT-70" d="M 422 -1272 
L 422 3319 
L 934 3319 
L 934 2888 
Q 1116 3141 1344 3267 
Q 1572 3394 1897 3394 
Q 2322 3394 2647 3175 
Q 2972 2956 3137 2557 
Q 3303 2159 3303 1684 
Q 3303 1175 3120 767 
Q 2938 359 2589 142 
Q 2241 -75 1856 -75 
Q 1575 -75 1351 44 
Q 1128 163 984 344 
L 984 -1272 
L 422 -1272 
z
M 931 1641 
Q 931 1000 1190 694 
Q 1450 388 1819 388 
Q 2194 388 2461 705 
Q 2728 1022 2728 1688 
Q 2728 2322 2467 2637 
Q 2206 2953 1844 2953 
Q 1484 2953 1207 2617 
Q 931 2281 931 1641 
z
" transform="scale(0.015625)"/>
      <path id="ArialMT-61" d="M 2588 409 
Q 2275 144 1986 34 
Q 1697 -75 1366 -75 
Q 819 -75 525 192 
Q 231 459 231 875 
Q 231 1119 342 1320 
Q 453 1522 633 1644 
Q 813 1766 1038 1828 
Q 1203 1872 1538 1913 
Q 2219 1994 2541 2106 
Q 2544 2222 2544 2253 
Q 2544 2597 2384 2738 
Q 2169 2928 1744 2928 
Q 1347 2928 1158 2789 
Q 969 2650 878 2297 
L 328 2372 
Q 403 2725 575 2942 
Q 747 3159 1072 3276 
Q 1397 3394 1825 3394 
Q 2250 3394 2515 3294 
Q 2781 3194 2906 3042 
Q 3031 2891 3081 2659 
Q 3109 2516 3109 2141 
L 3109 1391 
Q 3109 606 3145 398 
Q 3181 191 3288 0 
L 2700 0 
Q 2613 175 2588 409 
z
M 2541 1666 
Q 2234 1541 1622 1453 
Q 1275 1403 1131 1340 
Q 988 1278 909 1158 
Q 831 1038 831 891 
Q 831 666 1001 516 
Q 1172 366 1500 366 
Q 1825 366 2078 508 
Q 2331 650 2450 897 
Q 2541 1088 2541 1459 
L 2541 1666 
z
" transform="scale(0.015625)"/>
      <path id="ArialMT-74" d="M 1650 503 
L 1731 6 
Q 1494 -44 1306 -44 
Q 1000 -44 831 53 
Q 663 150 594 308 
Q 525 466 525 972 
L 525 2881 
L 113 2881 
L 113 3319 
L 525 3319 
L 525 4141 
L 1084 4478 
L 1084 3319 
L 1650 3319 
L 1650 2881 
L 1084 2881 
L 1084 941 
Q 1084 700 1114 631 
Q 1144 563 1211 522 
Q 1278 481 1403 481 
Q 1497 481 1650 503 
z
" transform="scale(0.015625)"/>
      <path id="ArialMT-69" d="M 425 3934 
L 425 4581 
L 988 4581 
L 988 3934 
L 425 3934 
z
M 425 0 
L 425 3319 
L 988 3319 
L 988 0 
L 425 0 
z
" transform="scale(0.015625)"/>
      <path id="ArialMT-5f" d="M -97 -1272 
L -97 -866 
L 3631 -866 
L 3631 -1272 
L -97 -1272 
z
" transform="scale(0.015625)"/>
      <path id="ArialMT-2d" d="M 203 1375 
L 203 1941 
L 1931 1941 
L 1931 1375 
L 203 1375 
z
" transform="scale(0.015625)"/>
      <path id="ArialMT-50" d="M 494 0 
L 494 4581 
L 2222 4581 
Q 2678 4581 2919 4538 
Q 3256 4481 3484 4323 
Q 3713 4166 3852 3881 
Q 3991 3597 3991 3256 
Q 3991 2672 3619 2267 
Q 3247 1863 2275 1863 
L 1100 1863 
L 1100 0 
L 494 0 
z
M 1100 2403 
L 2284 2403 
Q 2872 2403 3119 2622 
Q 3366 2841 3366 3238 
Q 3366 3525 3220 3729 
Q 3075 3934 2838 4000 
Q 2684 4041 2272 4041 
L 1100 4041 
L 1100 2403 
z
" transform="scale(0.015625)"/>
      <path id="ArialMT-6f" d="M 213 1659 
Q 213 2581 725 3025 
Q 1153 3394 1769 3394 
Q 2453 3394 2887 2945 
Q 3322 2497 3322 1706 
Q 3322 1066 3130 698 
Q 2938 331 2570 128 
Q 2203 -75 1769 -75 
Q 1072 -75 642 372 
Q 213 819 213 1659 
z
M 791 1659 
Q 791 1022 1069 705 
Q 1347 388 1769 388 
Q 2188 388 2466 706 
Q 2744 1025 2744 1678 
Q 2744 2294 2464 2611 
Q 2184 2928 1769 2928 
Q 1347 2928 1069 2612 
Q 791 2297 791 1659 
z
" transform="scale(0.015625)"/>
      <path id="ArialMT-77" d="M 1034 0 
L 19 3319 
L 600 3319 
L 1128 1403 
L 1325 691 
Q 1338 744 1497 1375 
L 2025 3319 
L 2603 3319 
L 3100 1394 
L 3266 759 
L 3456 1400 
L 4025 3319 
L 4572 3319 
L 3534 0 
L 2950 0 
L 2422 1988 
L 2294 2553 
L 1622 0 
L 1034 0 
z
" transform="scale(0.015625)"/>
      <path id="ArialMT-73" d="M 197 991 
L 753 1078 
Q 800 744 1014 566 
Q 1228 388 1613 388 
Q 2000 388 2187 545 
Q 2375 703 2375 916 
Q 2375 1106 2209 1216 
Q 2094 1291 1634 1406 
Q 1016 1563 777 1677 
Q 538 1791 414 1992 
Q 291 2194 291 2438 
Q 291 2659 392 2848 
Q 494 3038 669 3163 
Q 800 3259 1026 3326 
Q 1253 3394 1513 3394 
Q 1903 3394 2198 3281 
Q 2494 3169 2634 2976 
Q 2775 2784 2828 2463 
L 2278 2388 
Q 2241 2644 2061 2787 
Q 1881 2931 1553 2931 
Q 1166 2931 1000 2803 
Q 834 2675 834 2503 
Q 834 2394 903 2306 
Q 972 2216 1119 2156 
Q 1203 2125 1616 2013 
Q 2213 1853 2448 1751 
Q 2684 1650 2818 1456 
Q 2953 1263 2953 975 
Q 2953 694 2789 445 
Q 2625 197 2315 61 
Q 2006 -75 1616 -75 
Q 969 -75 630 194 
Q 291 463 197 991 
z
" transform="scale(0.015625)"/>
      <path id="ArialMT-6d" d="M 422 0 
L 422 3319 
L 925 3319 
L 925 2853 
Q 1081 3097 1340 3245 
Q 1600 3394 1931 3394 
Q 2300 3394 2536 3241 
Q 2772 3088 2869 2813 
Q 3263 3394 3894 3394 
Q 4388 3394 4653 3120 
Q 4919 2847 4919 2278 
L 4919 0 
L 4359 0 
L 4359 2091 
Q 4359 2428 4304 2576 
Q 4250 2725 4106 2815 
Q 3963 2906 3769 2906 
Q 3419 2906 3187 2673 
Q 2956 2441 2956 1928 
L 2956 0 
L 2394 0 
L 2394 2156 
Q 2394 2531 2256 2718 
Q 2119 2906 1806 2906 
Q 1569 2906 1367 2781 
Q 1166 2656 1075 2415 
Q 984 2175 984 1722 
L 984 0 
L 422 0 
z
" transform="scale(0.015625)"/>
     </defs>
     <use xlink:href="#ArialMT-70"/>
     <use xlink:href="#ArialMT-61" x="55.615234"/>
     <use xlink:href="#ArialMT-74" x="111.230469"/>
     <use xlink:href="#ArialMT-69" x="139.013672"/>
     <use xlink:href="#ArialMT-65" x="161.230469"/>
     <use xlink:href="#ArialMT-6e" x="216.845703"/>
     <use xlink:href="#ArialMT-74" x="272.460938"/>
     <use xlink:href="#ArialMT-31" x="300.244141"/>
     <use xlink:href="#ArialMT-34" x="355.859375"/>
     <use xlink:href="#ArialMT-5f" x="411.474609"/>
     <use xlink:href="#ArialMT-61" x="467.089844"/>
     <use xlink:href="#ArialMT-70" x="522.705078"/>
     <use xlink:href="#ArialMT-70" x="578.320312"/>
     <use xlink:href="#ArialMT-30" x="633.935547"/>
     <use xlink:href="#ArialMT-33" x="689.550781"/>
     <use xlink:href="#ArialMT-20" x="745.166016"/>
     <use xlink:href="#ArialMT-2d" x="772.949219"/>
     <use xlink:href="#ArialMT-20" x="806.25"/>
     <use xlink:href="#ArialMT-50" x="834.033203"/>
     <use xlink:href="#ArialMT-6f" x="900.732422"/>
     <use xlink:href="#ArialMT-77" x="956.347656"/>
     <use xlink:href="#ArialMT-65" x="1028.564453"/>
     <use xlink:href="#ArialMT-72" x="1084.179688"/>
     <use xlink:href="#ArialMT-20" x="1117.480469"/>
     <use xlink:href="#ArialMT-73" x="1145.263672"/>
     <use xlink:href="#ArialMT-70" x="1195.263672"/>
     <use xlink:href="#ArialMT-65" x="1250.878906"/>
     <use xlink:href="#ArialMT-63" x="1306.494141"/>
     <use xlink:href="#ArialMT-74" x="1356.494141"/>
     <use xlink:href="#ArialMT-72" x="1384.277344"/>
     <use xlink:href="#ArialMT-75" x="1417.578125"/>
     <use xlink:href="#ArialMT-6d" x="1473.193359"/>
    </g>
   </g>
  </g>
 </g>
 <defs>
  <clipPath id="p145c079528">
   <rect x="54" y="34.56" width="334.8" height="217.44"/>
  </clipPath>
 </defs>
</svg>
