<?xml version="1.0" encoding="utf-8" standalone="no"?>
<!DOCTYPE svg PUBLIC "-//W3C//DTD SVG 1.1//EN"
  "http://www.w3.org/Graphics/SVG/1.1/DTD/svg11.dtd">
<svg xmlns:xlink="http://www.w3.org/1999/xlink" width="432pt" height="288pt" viewBox="0 0 432 288" xmlns="http://www.w3.org/2000/svg" version="1.1">
 <metadata>
  <rdf:RDF xmlns:dc="http://purl.org/dc/elements/1.1/" xmlns:cc="http://creativecommons.org/ns#" xmlns:rdf="http://www.w3.org/1999/02/22-rdf-syntax-ns#">
   <cc:Work>
    <dc:type rdf:resource="http://purl.org/dc/dcmitype/StillImage"/>
    <dc:date>2022-07-08T09:35:09.778797</dc:date>
    <dc:format>image/svg+xml</dc:format>
    <dc:creator>
     <cc:Agent>
      <dc:title>Matplotlib v3.5.1, https://matplotlib.org/</dc:title>
     </cc:Agent>
    </dc:creator>
   </cc:Work>
  </rdf:RDF>
 </metadata>
 <defs>
  <style type="text/css">*{stroke-linejoin: round; stroke-linecap: butt}</style>
 </defs>
 <g id="figure_1">
  <g id="patch_1">
   <path d="M 0 288 
L 432 288 
L 432 0 
L 0 0 
z
" style="fill: #ffffff"/>
  </g>
  <g id="axes_1">
   <g id="patch_2">
    <path d="M 54 252 
L 388.8 252 
L 388.8 34.56 
L 54 34.56 
z
" style="fill: #ffffff"/>
   </g>
   <g id="matplotlib.axis_1">
    <g id="xtick_1">
     <g id="line2d_1">
      <defs>
       <path id="m409ea1b351" d="M 0 0 
L 0 6 
" style="stroke: #262626; stroke-width: 1.25"/>
      </defs>
      <g>
       <use xlink:href="#m409ea1b351" x="69.253143" y="252" style="fill: #262626; stroke: #262626; stroke-width: 1.25"/>
      </g>
     </g>
     <g id="text_1">
      <!-- 1 -->
      <g style="fill: #262626" transform="translate(66.194627 269.373594)scale(0.11 -0.11)">
       <defs>
        <path id="ArialMT-31" d="M 2384 0 
L 1822 0 
L 1822 3584 
Q 1619 3391 1289 3197 
Q 959 3003 697 2906 
L 697 3450 
Q 1169 3672 1522 3987 
Q 1875 4303 2022 4600 
L 2384 4600 
L 2384 0 
z
" transform="scale(0.015625)"/>
       </defs>
       <use xlink:href="#ArialMT-31"/>
      </g>
     </g>
    </g>
    <g id="xtick_2">
     <g id="line2d_2">
      <g>
       <use xlink:href="#m409ea1b351" x="107.368731" y="252" style="fill: #262626; stroke: #262626; stroke-width: 1.25"/>
      </g>
     </g>
     <g id="text_2">
      <!-- 2 -->
      <g style="fill: #262626" transform="translate(104.310216 269.373594)scale(0.11 -0.11)">
       <defs>
        <path id="ArialMT-32" d="M 3222 541 
L 3222 0 
L 194 0 
Q 188 203 259 391 
Q 375 700 629 1000 
Q 884 1300 1366 1694 
Q 2113 2306 2375 2664 
Q 2638 3022 2638 3341 
Q 2638 3675 2398 3904 
Q 2159 4134 1775 4134 
Q 1369 4134 1125 3890 
Q 881 3647 878 3216 
L 300 3275 
Q 359 3922 746 4261 
Q 1134 4600 1788 4600 
Q 2447 4600 2831 4234 
Q 3216 3869 3216 3328 
Q 3216 3053 3103 2787 
Q 2991 2522 2730 2228 
Q 2469 1934 1863 1422 
Q 1356 997 1212 845 
Q 1069 694 975 541 
L 3222 541 
z
" transform="scale(0.015625)"/>
       </defs>
       <use xlink:href="#ArialMT-32"/>
      </g>
     </g>
    </g>
    <g id="xtick_3">
     <g id="line2d_3">
      <g>
       <use xlink:href="#m409ea1b351" x="145.48432" y="252" style="fill: #262626; stroke: #262626; stroke-width: 1.25"/>
      </g>
     </g>
     <g id="text_3">
      <!-- 3 -->
      <g style="fill: #262626" transform="translate(142.425804 269.373594)scale(0.11 -0.11)">
       <defs>
        <path id="ArialMT-33" d="M 269 1209 
L 831 1284 
Q 928 806 1161 595 
Q 1394 384 1728 384 
Q 2125 384 2398 659 
Q 2672 934 2672 1341 
Q 2672 1728 2419 1979 
Q 2166 2231 1775 2231 
Q 1616 2231 1378 2169 
L 1441 2663 
Q 1497 2656 1531 2656 
Q 1891 2656 2178 2843 
Q 2466 3031 2466 3422 
Q 2466 3731 2256 3934 
Q 2047 4138 1716 4138 
Q 1388 4138 1169 3931 
Q 950 3725 888 3313 
L 325 3413 
Q 428 3978 793 4289 
Q 1159 4600 1703 4600 
Q 2078 4600 2393 4439 
Q 2709 4278 2876 4000 
Q 3044 3722 3044 3409 
Q 3044 3113 2884 2869 
Q 2725 2625 2413 2481 
Q 2819 2388 3044 2092 
Q 3269 1797 3269 1353 
Q 3269 753 2831 336 
Q 2394 -81 1725 -81 
Q 1122 -81 723 278 
Q 325 638 269 1209 
z
" transform="scale(0.015625)"/>
       </defs>
       <use xlink:href="#ArialMT-33"/>
      </g>
     </g>
    </g>
    <g id="xtick_4">
     <g id="line2d_4">
      <g>
       <use xlink:href="#m409ea1b351" x="183.599909" y="252" style="fill: #262626; stroke: #262626; stroke-width: 1.25"/>
      </g>
     </g>
     <g id="text_4">
      <!-- 4 -->
      <g style="fill: #262626" transform="translate(180.541393 269.373594)scale(0.11 -0.11)">
       <defs>
        <path id="ArialMT-34" d="M 2069 0 
L 2069 1097 
L 81 1097 
L 81 1613 
L 2172 4581 
L 2631 4581 
L 2631 1613 
L 3250 1613 
L 3250 1097 
L 2631 1097 
L 2631 0 
L 2069 0 
z
M 2069 1613 
L 2069 3678 
L 634 1613 
L 2069 1613 
z
" transform="scale(0.015625)"/>
       </defs>
       <use xlink:href="#ArialMT-34"/>
      </g>
     </g>
    </g>
    <g id="xtick_5">
     <g id="line2d_5">
      <g>
       <use xlink:href="#m409ea1b351" x="221.715497" y="252" style="fill: #262626; stroke: #262626; stroke-width: 1.25"/>
      </g>
     </g>
     <g id="text_5">
      <!-- 5 -->
      <g style="fill: #262626" transform="translate(218.656982 269.373594)scale(0.11 -0.11)">
       <defs>
        <path id="ArialMT-35" d="M 266 1200 
L 856 1250 
Q 922 819 1161 601 
Q 1400 384 1738 384 
Q 2144 384 2425 690 
Q 2706 997 2706 1503 
Q 2706 1984 2436 2262 
Q 2166 2541 1728 2541 
Q 1456 2541 1237 2417 
Q 1019 2294 894 2097 
L 366 2166 
L 809 4519 
L 3088 4519 
L 3088 3981 
L 1259 3981 
L 1013 2750 
Q 1425 3038 1878 3038 
Q 2478 3038 2890 2622 
Q 3303 2206 3303 1553 
Q 3303 931 2941 478 
Q 2500 -78 1738 -78 
Q 1113 -78 717 272 
Q 322 622 266 1200 
z
" transform="scale(0.015625)"/>
       </defs>
       <use xlink:href="#ArialMT-35"/>
      </g>
     </g>
    </g>
    <g id="xtick_6">
     <g id="line2d_6">
      <g>
       <use xlink:href="#m409ea1b351" x="259.831086" y="252" style="fill: #262626; stroke: #262626; stroke-width: 1.25"/>
      </g>
     </g>
     <g id="text_6">
      <!-- 6 -->
      <g style="fill: #262626" transform="translate(256.77257 269.373594)scale(0.11 -0.11)">
       <defs>
        <path id="ArialMT-36" d="M 3184 3459 
L 2625 3416 
Q 2550 3747 2413 3897 
Q 2184 4138 1850 4138 
Q 1581 4138 1378 3988 
Q 1113 3794 959 3422 
Q 806 3050 800 2363 
Q 1003 2672 1297 2822 
Q 1591 2972 1913 2972 
Q 2475 2972 2870 2558 
Q 3266 2144 3266 1488 
Q 3266 1056 3080 686 
Q 2894 316 2569 119 
Q 2244 -78 1831 -78 
Q 1128 -78 684 439 
Q 241 956 241 2144 
Q 241 3472 731 4075 
Q 1159 4600 1884 4600 
Q 2425 4600 2770 4297 
Q 3116 3994 3184 3459 
z
M 888 1484 
Q 888 1194 1011 928 
Q 1134 663 1356 523 
Q 1578 384 1822 384 
Q 2178 384 2434 671 
Q 2691 959 2691 1453 
Q 2691 1928 2437 2201 
Q 2184 2475 1800 2475 
Q 1419 2475 1153 2201 
Q 888 1928 888 1484 
z
" transform="scale(0.015625)"/>
       </defs>
       <use xlink:href="#ArialMT-36"/>
      </g>
     </g>
    </g>
    <g id="xtick_7">
     <g id="line2d_7">
      <g>
       <use xlink:href="#m409ea1b351" x="297.946674" y="252" style="fill: #262626; stroke: #262626; stroke-width: 1.25"/>
      </g>
     </g>
     <g id="text_7">
      <!-- 7 -->
      <g style="fill: #262626" transform="translate(294.888159 269.373594)scale(0.11 -0.11)">
       <defs>
        <path id="ArialMT-37" d="M 303 3981 
L 303 4522 
L 3269 4522 
L 3269 4084 
Q 2831 3619 2401 2847 
Q 1972 2075 1738 1259 
Q 1569 684 1522 0 
L 944 0 
Q 953 541 1156 1306 
Q 1359 2072 1739 2783 
Q 2119 3494 2547 3981 
L 303 3981 
z
" transform="scale(0.015625)"/>
       </defs>
       <use xlink:href="#ArialMT-37"/>
      </g>
     </g>
    </g>
    <g id="xtick_8">
     <g id="line2d_8">
      <g>
       <use xlink:href="#m409ea1b351" x="336.062263" y="252" style="fill: #262626; stroke: #262626; stroke-width: 1.25"/>
      </g>
     </g>
     <g id="text_8">
      <!-- 8 -->
      <g style="fill: #262626" transform="translate(333.003747 269.373594)scale(0.11 -0.11)">
       <defs>
        <path id="ArialMT-38" d="M 1131 2484 
Q 781 2613 612 2850 
Q 444 3088 444 3419 
Q 444 3919 803 4259 
Q 1163 4600 1759 4600 
Q 2359 4600 2725 4251 
Q 3091 3903 3091 3403 
Q 3091 3084 2923 2848 
Q 2756 2613 2416 2484 
Q 2838 2347 3058 2040 
Q 3278 1734 3278 1309 
Q 3278 722 2862 322 
Q 2447 -78 1769 -78 
Q 1091 -78 675 323 
Q 259 725 259 1325 
Q 259 1772 486 2073 
Q 713 2375 1131 2484 
z
M 1019 3438 
Q 1019 3113 1228 2906 
Q 1438 2700 1772 2700 
Q 2097 2700 2305 2904 
Q 2513 3109 2513 3406 
Q 2513 3716 2298 3927 
Q 2084 4138 1766 4138 
Q 1444 4138 1231 3931 
Q 1019 3725 1019 3438 
z
M 838 1322 
Q 838 1081 952 856 
Q 1066 631 1291 507 
Q 1516 384 1775 384 
Q 2178 384 2440 643 
Q 2703 903 2703 1303 
Q 2703 1709 2433 1975 
Q 2163 2241 1756 2241 
Q 1359 2241 1098 1978 
Q 838 1716 838 1322 
z
" transform="scale(0.015625)"/>
       </defs>
       <use xlink:href="#ArialMT-38"/>
      </g>
     </g>
    </g>
    <g id="xtick_9">
     <g id="line2d_9">
      <g>
       <use xlink:href="#m409ea1b351" x="374.177852" y="252" style="fill: #262626; stroke: #262626; stroke-width: 1.25"/>
      </g>
     </g>
     <g id="text_9">
      <!-- 9 -->
      <g style="fill: #262626" transform="translate(371.119336 269.373594)scale(0.11 -0.11)">
       <defs>
        <path id="ArialMT-39" d="M 350 1059 
L 891 1109 
Q 959 728 1153 556 
Q 1347 384 1650 384 
Q 1909 384 2104 503 
Q 2300 622 2425 820 
Q 2550 1019 2634 1356 
Q 2719 1694 2719 2044 
Q 2719 2081 2716 2156 
Q 2547 1888 2255 1720 
Q 1963 1553 1622 1553 
Q 1053 1553 659 1965 
Q 266 2378 266 3053 
Q 266 3750 677 4175 
Q 1088 4600 1706 4600 
Q 2153 4600 2523 4359 
Q 2894 4119 3086 3673 
Q 3278 3228 3278 2384 
Q 3278 1506 3087 986 
Q 2897 466 2520 194 
Q 2144 -78 1638 -78 
Q 1100 -78 759 220 
Q 419 519 350 1059 
z
M 2653 3081 
Q 2653 3566 2395 3850 
Q 2138 4134 1775 4134 
Q 1400 4134 1122 3828 
Q 844 3522 844 3034 
Q 844 2597 1108 2323 
Q 1372 2050 1759 2050 
Q 2150 2050 2401 2323 
Q 2653 2597 2653 3081 
z
" transform="scale(0.015625)"/>
       </defs>
       <use xlink:href="#ArialMT-39"/>
      </g>
     </g>
    </g>
    <g id="text_10">
     <!-- Time -->
     <g style="fill: #262626" transform="translate(208.292812 284.149219)scale(0.12 -0.12)">
      <defs>
       <path id="ArialMT-54" d="M 1659 0 
L 1659 4041 
L 150 4041 
L 150 4581 
L 3781 4581 
L 3781 4041 
L 2266 4041 
L 2266 0 
L 1659 0 
z
" transform="scale(0.015625)"/>
       <path id="ArialMT-69" d="M 425 3934 
L 425 4581 
L 988 4581 
L 988 3934 
L 425 3934 
z
M 425 0 
L 425 3319 
L 988 3319 
L 988 0 
L 425 0 
z
" transform="scale(0.015625)"/>
       <path id="ArialMT-6d" d="M 422 0 
L 422 3319 
L 925 3319 
L 925 2853 
Q 1081 3097 1340 3245 
Q 1600 3394 1931 3394 
Q 2300 3394 2536 3241 
Q 2772 3088 2869 2813 
Q 3263 3394 3894 3394 
Q 4388 3394 4653 3120 
Q 4919 2847 4919 2278 
L 4919 0 
L 4359 0 
L 4359 2091 
Q 4359 2428 4304 2576 
Q 4250 2725 4106 2815 
Q 3963 2906 3769 2906 
Q 3419 2906 3187 2673 
Q 2956 2441 2956 1928 
L 2956 0 
L 2394 0 
L 2394 2156 
Q 2394 2531 2256 2718 
Q 2119 2906 1806 2906 
Q 1569 2906 1367 2781 
Q 1166 2656 1075 2415 
Q 984 2175 984 1722 
L 984 0 
L 422 0 
z
" transform="scale(0.015625)"/>
       <path id="ArialMT-65" d="M 2694 1069 
L 3275 997 
Q 3138 488 2766 206 
Q 2394 -75 1816 -75 
Q 1088 -75 661 373 
Q 234 822 234 1631 
Q 234 2469 665 2931 
Q 1097 3394 1784 3394 
Q 2450 3394 2872 2941 
Q 3294 2488 3294 1666 
Q 3294 1616 3291 1516 
L 816 1516 
Q 847 969 1125 678 
Q 1403 388 1819 388 
Q 2128 388 2347 550 
Q 2566 713 2694 1069 
z
M 847 1978 
L 2700 1978 
Q 2663 2397 2488 2606 
Q 2219 2931 1791 2931 
Q 1403 2931 1139 2672 
Q 875 2413 847 1978 
z
" transform="scale(0.015625)"/>
      </defs>
      <use xlink:href="#ArialMT-54"/>
      <use xlink:href="#ArialMT-69" x="57.333984"/>
      <use xlink:href="#ArialMT-6d" x="79.550781"/>
      <use xlink:href="#ArialMT-65" x="162.851562"/>
     </g>
    </g>
   </g>
   <g id="matplotlib.axis_2">
    <g id="ytick_1">
     <g id="line2d_10">
      <defs>
       <path id="m3ae8fb3f7d" d="M 0 0 
L -6 0 
" style="stroke: #262626; stroke-width: 1.25"/>
      </defs>
      <g>
       <use xlink:href="#m3ae8fb3f7d" x="54" y="238.023896" style="fill: #262626; stroke: #262626; stroke-width: 1.25"/>
      </g>
     </g>
     <g id="text_11">
      <!-- −0.15 -->
      <g style="fill: #262626" transform="translate(16.668281 241.960693)scale(0.11 -0.11)">
       <defs>
        <path id="ArialMT-2212" d="M 3381 1997 
L 356 1997 
L 356 2522 
L 3381 2522 
L 3381 1997 
z
" transform="scale(0.015625)"/>
        <path id="ArialMT-30" d="M 266 2259 
Q 266 3072 433 3567 
Q 600 4063 929 4331 
Q 1259 4600 1759 4600 
Q 2128 4600 2406 4451 
Q 2684 4303 2865 4023 
Q 3047 3744 3150 3342 
Q 3253 2941 3253 2259 
Q 3253 1453 3087 958 
Q 2922 463 2592 192 
Q 2263 -78 1759 -78 
Q 1097 -78 719 397 
Q 266 969 266 2259 
z
M 844 2259 
Q 844 1131 1108 757 
Q 1372 384 1759 384 
Q 2147 384 2411 759 
Q 2675 1134 2675 2259 
Q 2675 3391 2411 3762 
Q 2147 4134 1753 4134 
Q 1366 4134 1134 3806 
Q 844 3388 844 2259 
z
" transform="scale(0.015625)"/>
        <path id="ArialMT-2e" d="M 581 0 
L 581 641 
L 1222 641 
L 1222 0 
L 581 0 
z
" transform="scale(0.015625)"/>
       </defs>
       <use xlink:href="#ArialMT-2212"/>
       <use xlink:href="#ArialMT-30" x="58.398438"/>
       <use xlink:href="#ArialMT-2e" x="114.013672"/>
       <use xlink:href="#ArialMT-31" x="141.796875"/>
       <use xlink:href="#ArialMT-35" x="197.412109"/>
      </g>
     </g>
    </g>
    <g id="ytick_2">
     <g id="line2d_11">
      <g>
       <use xlink:href="#m3ae8fb3f7d" x="54" y="205.92123" style="fill: #262626; stroke: #262626; stroke-width: 1.25"/>
      </g>
     </g>
     <g id="text_12">
      <!-- −0.10 -->
      <g style="fill: #262626" transform="translate(16.668281 209.858027)scale(0.11 -0.11)">
       <use xlink:href="#ArialMT-2212"/>
       <use xlink:href="#ArialMT-30" x="58.398438"/>
       <use xlink:href="#ArialMT-2e" x="114.013672"/>
       <use xlink:href="#ArialMT-31" x="141.796875"/>
       <use xlink:href="#ArialMT-30" x="197.412109"/>
      </g>
     </g>
    </g>
    <g id="ytick_3">
     <g id="line2d_12">
      <g>
       <use xlink:href="#m3ae8fb3f7d" x="54" y="173.818564" style="fill: #262626; stroke: #262626; stroke-width: 1.25"/>
      </g>
     </g>
     <g id="text_13">
      <!-- −0.05 -->
      <g style="fill: #262626" transform="translate(16.668281 177.755361)scale(0.11 -0.11)">
       <use xlink:href="#ArialMT-2212"/>
       <use xlink:href="#ArialMT-30" x="58.398438"/>
       <use xlink:href="#ArialMT-2e" x="114.013672"/>
       <use xlink:href="#ArialMT-30" x="141.796875"/>
       <use xlink:href="#ArialMT-35" x="197.412109"/>
      </g>
     </g>
    </g>
    <g id="ytick_4">
     <g id="line2d_13">
      <g>
       <use xlink:href="#m3ae8fb3f7d" x="54" y="141.715898" style="fill: #262626; stroke: #262626; stroke-width: 1.25"/>
      </g>
     </g>
     <g id="text_14">
      <!-- 0.00 -->
      <g style="fill: #262626" transform="translate(23.092969 145.652695)scale(0.11 -0.11)">
       <use xlink:href="#ArialMT-30"/>
       <use xlink:href="#ArialMT-2e" x="55.615234"/>
       <use xlink:href="#ArialMT-30" x="83.398438"/>
       <use xlink:href="#ArialMT-30" x="139.013672"/>
      </g>
     </g>
    </g>
    <g id="ytick_5">
     <g id="line2d_14">
      <g>
       <use xlink:href="#m3ae8fb3f7d" x="54" y="109.613232" style="fill: #262626; stroke: #262626; stroke-width: 1.25"/>
      </g>
     </g>
     <g id="text_15">
      <!-- 0.05 -->
      <g style="fill: #262626" transform="translate(23.092969 113.550029)scale(0.11 -0.11)">
       <use xlink:href="#ArialMT-30"/>
       <use xlink:href="#ArialMT-2e" x="55.615234"/>
       <use xlink:href="#ArialMT-30" x="83.398438"/>
       <use xlink:href="#ArialMT-35" x="139.013672"/>
      </g>
     </g>
    </g>
    <g id="ytick_6">
     <g id="line2d_15">
      <g>
       <use xlink:href="#m3ae8fb3f7d" x="54" y="77.510566" style="fill: #262626; stroke: #262626; stroke-width: 1.25"/>
      </g>
     </g>
     <g id="text_16">
      <!-- 0.10 -->
      <g style="fill: #262626" transform="translate(23.092969 81.447363)scale(0.11 -0.11)">
       <use xlink:href="#ArialMT-30"/>
       <use xlink:href="#ArialMT-2e" x="55.615234"/>
       <use xlink:href="#ArialMT-31" x="83.398438"/>
       <use xlink:href="#ArialMT-30" x="139.013672"/>
      </g>
     </g>
    </g>
    <g id="ytick_7">
     <g id="line2d_16">
      <g>
       <use xlink:href="#m3ae8fb3f7d" x="54" y="45.407901" style="fill: #262626; stroke: #262626; stroke-width: 1.25"/>
      </g>
     </g>
     <g id="text_17">
      <!-- 0.15 -->
      <g style="fill: #262626" transform="translate(23.092969 49.344697)scale(0.11 -0.11)">
       <use xlink:href="#ArialMT-30"/>
       <use xlink:href="#ArialMT-2e" x="55.615234"/>
       <use xlink:href="#ArialMT-31" x="83.398438"/>
       <use xlink:href="#ArialMT-35" x="139.013672"/>
      </g>
     </g>
    </g>
    <g id="text_18">
     <!-- Accelerometer -->
     <g style="fill: #262626" transform="translate(10.283281 181.958438)rotate(-90)scale(0.12 -0.12)">
      <defs>
       <path id="ArialMT-41" d="M -9 0 
L 1750 4581 
L 2403 4581 
L 4278 0 
L 3588 0 
L 3053 1388 
L 1138 1388 
L 634 0 
L -9 0 
z
M 1313 1881 
L 2866 1881 
L 2388 3150 
Q 2169 3728 2063 4100 
Q 1975 3659 1816 3225 
L 1313 1881 
z
" transform="scale(0.015625)"/>
       <path id="ArialMT-63" d="M 2588 1216 
L 3141 1144 
Q 3050 572 2676 248 
Q 2303 -75 1759 -75 
Q 1078 -75 664 370 
Q 250 816 250 1647 
Q 250 2184 428 2587 
Q 606 2991 970 3192 
Q 1334 3394 1763 3394 
Q 2303 3394 2647 3120 
Q 2991 2847 3088 2344 
L 2541 2259 
Q 2463 2594 2264 2762 
Q 2066 2931 1784 2931 
Q 1359 2931 1093 2626 
Q 828 2322 828 1663 
Q 828 994 1084 691 
Q 1341 388 1753 388 
Q 2084 388 2306 591 
Q 2528 794 2588 1216 
z
" transform="scale(0.015625)"/>
       <path id="ArialMT-6c" d="M 409 0 
L 409 4581 
L 972 4581 
L 972 0 
L 409 0 
z
" transform="scale(0.015625)"/>
       <path id="ArialMT-72" d="M 416 0 
L 416 3319 
L 922 3319 
L 922 2816 
Q 1116 3169 1280 3281 
Q 1444 3394 1641 3394 
Q 1925 3394 2219 3213 
L 2025 2691 
Q 1819 2813 1613 2813 
Q 1428 2813 1281 2702 
Q 1134 2591 1072 2394 
Q 978 2094 978 1738 
L 978 0 
L 416 0 
z
" transform="scale(0.015625)"/>
       <path id="ArialMT-6f" d="M 213 1659 
Q 213 2581 725 3025 
Q 1153 3394 1769 3394 
Q 2453 3394 2887 2945 
Q 3322 2497 3322 1706 
Q 3322 1066 3130 698 
Q 2938 331 2570 128 
Q 2203 -75 1769 -75 
Q 1072 -75 642 372 
Q 213 819 213 1659 
z
M 791 1659 
Q 791 1022 1069 705 
Q 1347 388 1769 388 
Q 2188 388 2466 706 
Q 2744 1025 2744 1678 
Q 2744 2294 2464 2611 
Q 2184 2928 1769 2928 
Q 1347 2928 1069 2612 
Q 791 2297 791 1659 
z
" transform="scale(0.015625)"/>
       <path id="ArialMT-74" d="M 1650 503 
L 1731 6 
Q 1494 -44 1306 -44 
Q 1000 -44 831 53 
Q 663 150 594 308 
Q 525 466 525 972 
L 525 2881 
L 113 2881 
L 113 3319 
L 525 3319 
L 525 4141 
L 1084 4478 
L 1084 3319 
L 1650 3319 
L 1650 2881 
L 1084 2881 
L 1084 941 
Q 1084 700 1114 631 
Q 1144 563 1211 522 
Q 1278 481 1403 481 
Q 1497 481 1650 503 
z
" transform="scale(0.015625)"/>
      </defs>
      <use xlink:href="#ArialMT-41"/>
      <use xlink:href="#ArialMT-63" x="66.699219"/>
      <use xlink:href="#ArialMT-63" x="116.699219"/>
      <use xlink:href="#ArialMT-65" x="166.699219"/>
      <use xlink:href="#ArialMT-6c" x="222.314453"/>
      <use xlink:href="#ArialMT-65" x="244.53125"/>
      <use xlink:href="#ArialMT-72" x="300.146484"/>
      <use xlink:href="#ArialMT-6f" x="333.447266"/>
      <use xlink:href="#ArialMT-6d" x="389.0625"/>
      <use xlink:href="#ArialMT-65" x="472.363281"/>
      <use xlink:href="#ArialMT-74" x="527.978516"/>
      <use xlink:href="#ArialMT-65" x="555.761719"/>
      <use xlink:href="#ArialMT-72" x="611.376953"/>
     </g>
    </g>
   </g>
   <g id="line2d_17">
    <path d="M 69.218182 196.575921 
L 69.687155 100.668851 
L 69.968539 57.901691 
L 70.156128 51.937465 
L 70.343718 65.742147 
L 70.718896 132.738497 
L 71.094075 193.337981 
L 71.281664 200.934161 
L 71.375459 197.526523 
L 71.563048 177.8623 
L 72.219611 88.637249 
L 72.313405 89.223394 
L 72.500995 105.677798 
L 73.251352 224.586265 
L 73.345146 223.78724 
L 73.532736 205.022394 
L 74.376888 64.468518 
L 74.470682 68.276257 
L 74.658271 91.095781 
L 75.408629 208.213253 
L 75.502423 207.492826 
L 75.690013 192.418621 
L 76.534164 76.461036 
L 76.627959 77.038209 
L 76.815548 90.568009 
L 77.190727 150.913167 
L 77.565906 202.894754 
L 77.6597 206.883149 
L 77.753495 206.00174 
L 77.941084 189.633876 
L 78.410057 100.25154 
L 78.691441 66.098314 
L 78.785236 64.786571 
L 78.879031 69.065294 
L 79.06662 92.593664 
L 79.723183 204.328343 
L 79.816977 207.301613 
L 79.910772 205.209985 
L 80.098361 187.547652 
L 80.754924 97.333319 
L 80.848718 95.610753 
L 80.942513 98.351654 
L 81.130102 115.867764 
L 81.880459 207.004967 
L 81.974254 204.933755 
L 82.161843 188.034914 
L 83.005995 68.852495 
L 83.09979 70.293657 
L 83.287379 86.244611 
L 84.131531 195.717187 
L 84.225326 192.314394 
L 84.412915 172.59233 
L 85.069478 75.322986 
L 85.163272 73.660957 
L 85.257067 77.206266 
L 85.444656 98.899192 
L 86.195013 224.265498 
L 86.288808 225.136806 
L 86.476397 211.803782 
L 86.851576 145.047047 
L 87.226754 86.206227 
L 87.414344 79.677513 
L 87.601933 91.513624 
L 87.977112 151.422481 
L 88.35229 202.37143 
L 88.446085 206.070328 
L 88.53988 205.03605 
L 88.727469 188.891353 
L 89.102647 118.165939 
L 89.477826 58.061528 
L 89.571621 53.329669 
L 89.665415 53.929984 
L 89.853005 70.67027 
L 90.228183 144.628017 
L 90.603362 208.520643 
L 90.790951 216.764798 
L 90.884746 213.786855 
L 91.072335 195.325551 
L 91.822692 88.885624 
L 91.916487 87.115846 
L 92.010282 89.444033 
L 92.197871 105.232733 
L 92.948228 199.451837 
L 93.042023 200.247179 
L 93.135817 196.929703 
L 93.323407 178.902124 
L 94.073764 77.351826 
L 94.167558 76.673443 
L 94.355148 87.779415 
L 94.730326 142.922681 
L 95.105505 189.408946 
L 95.1993 193.160923 
L 95.293094 193.055975 
L 95.480684 182.146938 
L 96.231041 108.460047 
L 96.324835 109.102647 
L 96.512425 120.031879 
L 97.262782 192.040424 
L 97.356577 191.237668 
L 97.544166 178.823928 
L 97.919344 123.931422 
L 98.294523 77.770319 
L 98.388318 74.589269 
L 98.482112 75.74472 
L 98.669702 90.59093 
L 99.513853 194.515536 
L 99.607648 191.640799 
L 99.795237 174.700698 
L 100.545595 86.873517 
L 100.639389 87.263171 
L 100.826979 98.523698 
L 101.202157 148.389514 
L 101.577336 194.257318 
L 101.764925 202.293588 
L 101.85872 201.441566 
L 102.046309 190.376652 
L 102.421488 143.695874 
L 102.796666 102.684538 
L 102.984255 97.560368 
L 103.07805 99.892201 
L 103.265639 113.525764 
L 104.015997 185.953524 
L 104.109791 184.18135 
L 104.297381 169.897692 
L 105.047738 84.521502 
L 105.141532 86.096702 
L 105.329122 101.436189 
L 106.079479 196.636002 
L 106.173274 196.280526 
L 106.360863 183.427157 
L 107.205015 85.194865 
L 107.298809 86.833073 
L 107.486399 100.542312 
L 108.33055 195.850851 
L 108.424345 195.989451 
L 108.611934 186.656218 
L 108.987113 140.470927 
L 109.362292 95.370157 
L 109.549881 88.305529 
L 109.643676 90.199097 
L 109.831265 104.556721 
L 110.675417 200.788083 
L 110.769211 198.210746 
L 110.956801 181.52955 
L 111.707158 83.130693 
L 111.800953 83.137202 
L 111.988542 96.277949 
L 112.36372 157.680933 
L 112.738899 207.638365 
L 112.832694 210.394861 
L 112.926488 208.141554 
L 113.114078 189.048537 
L 113.958229 60.390386 
L 114.052024 64.874875 
L 114.239613 89.110893 
L 114.896176 205.975959 
L 114.989971 209.385405 
L 115.083765 207.38238 
L 115.271355 188.464842 
L 116.021712 72.806325 
L 116.115506 72.968322 
L 116.303096 88.453277 
L 116.678274 159.551473 
L 117.053453 219.326678 
L 117.147248 224.120205 
L 117.241042 223.787232 
L 117.428631 208.368102 
L 117.80381 140.08361 
L 118.178989 84.196305 
L 118.272783 79.706567 
L 118.366578 79.813903 
L 118.554167 92.781975 
L 119.398319 187.764082 
L 119.492114 185.570114 
L 119.679703 171.363833 
L 120.523855 83.114615 
L 120.61765 84.847457 
L 120.805239 98.759154 
L 121.180417 154.876891 
L 121.555596 203.424887 
L 121.743185 207.922887 
L 121.930775 195.405322 
L 122.305953 134.226485 
L 122.681132 81.411152 
L 122.774926 77.49943 
L 122.868721 78.373609 
L 123.05631 93.785076 
L 123.900462 200.870167 
L 124.088052 189.842266 
L 124.46323 134.45306 
L 124.838409 88.413734 
L 124.932203 84.875165 
L 125.025998 85.281601 
L 125.213587 97.364186 
L 125.588766 150.433865 
L 125.963945 195.692604 
L 126.151534 200.180674 
L 126.339123 189.807614 
L 126.714302 137.784916 
L 127.08948 89.787068 
L 127.27707 84.122879 
L 127.370864 87.255904 
L 127.558454 104.426617 
L 128.308811 196.501582 
L 128.402605 196.184291 
L 128.590195 183.961491 
L 129.059168 116.65959 
L 129.340552 89.824344 
L 129.434347 88.012341 
L 129.528141 90.243268 
L 129.71573 105.919967 
L 130.466088 196.297108 
L 130.559882 195.858039 
L 130.747472 183.344229 
L 131.591623 90.077978 
L 131.685418 92.447268 
L 131.873007 107.017496 
L 132.52957 177.417243 
L 132.623365 179.761629 
L 132.717159 179.14076 
L 132.904749 169.873506 
L 133.7489 101.893626 
L 133.842695 102.3 
L 134.030284 110.688208 
L 134.405463 149.023832 
L 134.780642 185.602724 
L 134.968231 191.506386 
L 135.062025 190.182868 
L 135.249615 179.076166 
L 135.624793 133.864155 
L 135.999972 94.110988 
L 136.187561 90.126918 
L 136.375151 100.309766 
L 136.656535 137.69463 
L 137.125508 204.741571 
L 137.313097 210.757816 
L 137.500686 198.218226 
L 137.78207 150.362948 
L 138.251044 68.521785 
L 138.344838 63.425049 
L 138.438633 63.863052 
L 138.626222 80.661592 
L 139.470374 199.526917 
L 139.657963 187.864571 
L 140.126937 118.034379 
L 140.40832 88.374262 
L 140.502115 84.968353 
L 140.59591 85.233505 
L 140.783499 96.313111 
L 141.158678 147.284531 
L 141.533856 195.159684 
L 141.721446 202.566761 
L 141.81524 200.734016 
L 142.00283 186.637196 
L 142.753187 99.941892 
L 142.846981 99.342665 
L 143.034571 108.734003 
L 143.409749 154.119427 
L 143.784928 188.33181 
L 143.878723 189.454593 
L 143.972517 186.968777 
L 144.160106 171.860567 
L 144.910464 82.589265 
L 145.004258 82.319049 
L 145.191848 93.513286 
L 145.567026 146.275514 
L 145.942205 186.531814 
L 146.035999 188.166357 
L 146.129794 185.819745 
L 146.317383 170.424845 
L 146.973946 95.000627 
L 147.067741 93.91323 
L 147.161535 96.747237 
L 147.349125 113.105624 
L 148.099482 199.99072 
L 148.193276 199.300057 
L 148.380866 186.781326 
L 148.849839 119.206981 
L 149.131223 89.965018 
L 149.225018 86.788274 
L 149.318812 87.430974 
L 149.506401 99.628285 
L 150.350553 192.874097 
L 150.444348 191.438088 
L 150.631937 178.266966 
L 151.476089 92.829676 
L 151.569884 95.234408 
L 151.757473 109.690985 
L 152.601625 197.5281 
L 152.69542 194.252369 
L 152.883009 175.927681 
L 153.633366 67.444847 
L 153.727161 67.830926 
L 153.91475 83.935319 
L 154.383723 174.076864 
L 154.665107 210.682196 
L 154.758902 213.875857 
L 154.852696 212.151022 
L 155.040286 195.513539 
L 155.790643 93.940434 
L 155.884438 92.348043 
L 155.978232 94.523347 
L 156.165822 108.905189 
L 156.916179 193.481693 
L 157.009973 194.090351 
L 157.197563 183.984973 
L 157.478947 145.946315 
L 157.94792 78.25745 
L 158.135509 70.236717 
L 158.229304 72.071171 
L 158.416893 86.555493 
L 159.35484 195.643919 
L 159.448634 194.569327 
L 159.636224 183.655092 
L 160.480375 112.81048 
L 160.667965 121.726361 
L 161.043143 163.779871 
L 161.324527 189.978944 
L 161.418322 193.234471 
L 161.512117 192.931493 
L 161.699706 181.467465 
L 162.074884 128.165786 
L 162.450063 81.885661 
L 162.543858 78.083871 
L 162.637652 78.33971 
L 162.825242 90.669154 
L 163.294215 159.146894 
L 163.575599 186.910405 
L 163.669393 189.20511 
L 163.763188 187.606516 
L 163.950777 173.673017 
L 164.701135 87.394062 
L 164.794929 86.947405 
L 164.982519 97.142019 
L 165.357697 148.859033 
L 165.732876 197.731397 
L 165.920465 204.752717 
L 166.01426 202.464387 
L 166.201849 186.934863 
L 167.046001 87.64628 
L 167.139795 89.896089 
L 167.327385 105.366719 
L 168.077742 194.806586 
L 168.171537 194.301131 
L 168.359126 181.124729 
L 169.109483 84.28543 
L 169.203278 84.514374 
L 169.390867 98.92894 
L 170.235019 210.025503 
L 170.422608 196.811234 
L 170.797787 129.451957 
L 171.172965 68.452927 
L 171.360555 60.794854 
L 171.454349 64.115153 
L 171.641939 83.723003 
L 172.48609 211.368002 
L 172.579885 211.928769 
L 172.767474 200.580628 
L 173.142653 143.880829 
L 173.517832 93.438724 
L 173.705421 88.486591 
L 173.89301 100.043227 
L 174.268189 155.191542 
L 174.643367 200.006272 
L 174.737162 202.726623 
L 174.830957 201.155997 
L 175.018546 185.633927 
L 175.862698 74.287128 
L 175.956493 76.392524 
L 176.144082 93.09508 
L 176.894439 193.398564 
L 176.988234 193.608727 
L 177.175823 181.540534 
L 178.019975 87.821017 
L 178.207564 100.243446 
L 178.582743 158.241377 
L 178.957921 203.495948 
L 179.051716 205.945164 
L 179.145511 204.145562 
L 179.3331 188.731795 
L 180.177252 81.221576 
L 180.271046 82.104016 
L 180.458636 95.768251 
L 180.833814 155.423641 
L 181.208993 208.159524 
L 181.396582 213.562891 
L 181.584171 200.656719 
L 181.865555 152.977052 
L 182.428323 56.295798 
L 182.522118 53.065858 
L 182.615913 55.259733 
L 182.803502 75.213609 
L 183.647654 217.653847 
L 183.741448 216.250108 
L 183.929038 198.868848 
L 184.679395 86.724729 
L 184.77319 85.813839 
L 184.960779 97.414897 
L 185.335957 154.025026 
L 185.711136 195.764623 
L 185.804931 196.885601 
L 185.898725 193.663904 
L 186.086315 175.607114 
L 186.742877 87.189645 
L 186.836672 84.305078 
L 186.930466 85.457212 
L 187.118056 99.061648 
L 187.962208 194.782948 
L 188.056002 193.047234 
L 188.243592 179.206609 
L 189.087743 91.671128 
L 189.181538 93.30777 
L 189.369127 105.3199 
L 190.307074 193.524153 
L 190.400868 191.210769 
L 190.588458 177.280672 
L 191.338815 94.446471 
L 191.43261 94.962466 
L 191.620199 107.548984 
L 192.370556 191.211726 
L 192.464351 188.978761 
L 192.65194 171.707278 
L 193.402297 76.274201 
L 193.496092 79.284692 
L 193.683681 98.643822 
L 194.434038 199.920101 
L 194.527833 199.371863 
L 194.715422 187.454212 
L 195.559574 104.175246 
L 195.653369 103.961162 
L 195.840958 110.366766 
L 196.216137 140.535625 
L 196.68511 173.896773 
L 196.778905 175.95336 
L 196.872699 175.889021 
L 197.060289 169.271465 
L 197.341673 145.856182 
L 197.810646 103.105454 
L 197.998235 99.080358 
L 198.09203 101.555953 
L 198.279619 115.154709 
L 199.029976 185.819981 
L 199.123771 184.052191 
L 199.31136 170.858677 
L 199.967923 101.979861 
L 200.061717 100.543723 
L 200.155512 102.619363 
L 200.343101 116.370919 
L 201.093458 189.860405 
L 201.187253 188.824967 
L 201.374842 177.292173 
L 201.843816 117.923235 
L 202.1252 90.676622 
L 202.312789 86.239435 
L 202.500378 94.538036 
L 202.781762 125.808839 
L 203.250735 182.05941 
L 203.438325 189.237319 
L 203.532119 188.024543 
L 203.719709 176.753178 
L 204.470066 109.086487 
L 204.56386 109.133163 
L 204.75145 117.391403 
L 205.595602 178.7821 
L 205.689396 176.820134 
L 205.876986 165.668939 
L 206.814932 89.829484 
L 207.002521 97.919952 
L 207.283905 128.490778 
L 207.846673 194.671454 
L 207.940468 197.810237 
L 208.034263 197.430509 
L 208.221852 186.270535 
L 208.59703 136.256335 
L 208.972209 95.923659 
L 209.066004 93.658407 
L 209.159798 95.334362 
L 209.347388 109.874688 
L 210.097745 198.609741 
L 210.191539 197.669729 
L 210.379129 183.163756 
L 210.848102 105.284811 
L 211.129486 73.209903 
L 211.223281 70.591548 
L 211.317075 72.590717 
L 211.504665 89.505102 
L 212.348816 202.500114 
L 212.442611 201.289863 
L 212.6302 187.712658 
L 213.474352 90.07637 
L 213.568147 90.974897 
L 213.755736 103.214479 
L 214.599888 196.417777 
L 214.693683 196.212091 
L 214.881272 186.223291 
L 215.25645 140.265342 
L 215.631629 96.670214 
L 215.819218 89.565501 
L 215.913013 91.110092 
L 216.100602 104.209707 
L 216.944754 190.306741 
L 217.132343 178.024976 
L 217.507522 121.103552 
L 217.882701 78.642554 
L 217.976495 77.655908 
L 218.07029 81.289587 
L 218.257879 101.182698 
L 219.008236 209.103073 
L 219.102031 210.048501 
L 219.28962 200.136383 
L 219.664799 150.475434 
L 220.039978 105.83549 
L 220.227567 98.21655 
L 220.321362 98.822332 
L 220.508951 108.001344 
L 221.353103 175.160111 
L 221.446897 173.344872 
L 221.634487 160.694166 
L 222.384844 83.238378 
L 222.478638 84.713665 
L 222.666228 99.963252 
L 223.51038 210.570418 
L 223.604174 208.200061 
L 223.791764 190.957085 
L 224.635915 84.322192 
L 224.72971 87.561251 
L 224.917299 105.991925 
L 225.667657 205.125077 
L 225.761451 204.462193 
L 225.94904 190.173085 
L 226.324219 128.194498 
L 226.699398 76.908453 
L 226.886987 72.21608 
L 227.074576 83.229243 
L 227.449755 134.274811 
L 227.824933 179.813338 
L 228.012523 187.922044 
L 228.106317 187.578994 
L 228.293907 178.939177 
L 228.76288 133.101211 
L 229.044264 113.713728 
L 229.138059 111.832498 
L 229.231853 112.657025 
L 229.419442 122.145689 
L 230.1698 186.835974 
L 230.263594 186.779137 
L 230.451184 177.152608 
L 230.826362 130.869563 
L 231.201541 90.36657 
L 231.295335 87.065509 
L 231.38913 87.344306 
L 231.576719 98.399951 
L 231.951898 147.850266 
L 232.327077 187.990838 
L 232.420871 190.661372 
L 232.514666 189.630487 
L 232.702255 176.926526 
L 233.546407 86.778862 
L 233.640202 89.993603 
L 233.827791 107.698209 
L 234.578148 200.231601 
L 234.671943 199.333557 
L 234.859532 186.111175 
L 235.703684 90.012998 
L 235.797479 91.096482 
L 235.985068 103.400795 
L 236.454041 166.449356 
L 236.735425 194.245745 
L 236.82922 197.578352 
L 236.923014 197.362442 
L 237.110604 186.411815 
L 237.485782 135.390507 
L 237.860961 89.466349 
L 238.04855 84.12002 
L 238.142345 87.084197 
L 238.329934 103.324142 
L 239.080291 193.107241 
L 239.174086 193.101632 
L 239.361675 181.208279 
L 239.736854 125.118616 
L 240.112032 79.130655 
L 240.205827 76.516343 
L 240.299622 78.427348 
L 240.487211 95.222007 
L 241.331363 210.252283 
L 241.425158 208.258483 
L 241.612747 192.228635 
L 242.363104 95.257213 
L 242.456899 93.915173 
L 242.550693 96.248394 
L 242.738283 110.519406 
L 243.48864 188.643616 
L 243.582435 189.412306 
L 243.676229 187.08075 
L 243.863818 173.840153 
L 244.801765 83.580928 
L 244.989354 92.897956 
L 245.270738 126.582008 
L 245.739711 187.157401 
L 245.927301 194.045018 
L 246.021095 191.757889 
L 246.208685 176.083714 
L 246.959042 80.682113 
L 247.052837 81.337206 
L 247.240426 96.81423 
L 247.615604 166.498802 
L 247.990783 221.298221 
L 248.084578 223.398584 
L 248.178372 219.674095 
L 248.365962 195.887694 
L 249.116319 69.554618 
L 249.210113 72.524674 
L 249.397703 94.623148 
L 250.054265 203.384343 
L 250.14806 205.818678 
L 250.241855 203.343923 
L 250.429444 185.444385 
L 251.273596 66.850995 
L 251.36739 65.413477 
L 251.461185 67.782398 
L 251.648774 83.666008 
L 252.023953 149.053745 
L 252.492926 226.458412 
L 252.680515 231.733729 
L 252.868105 216.45642 
L 253.149489 162.361569 
L 253.618462 66.359511 
L 253.806051 54.488256 
L 253.899846 56.786907 
L 254.087435 76.576323 
L 254.931587 206.077627 
L 255.025382 204.157822 
L 255.212971 187.536185 
L 255.963328 92.6922 
L 256.057123 94.216386 
L 256.244712 110.265141 
L 256.995069 210.796192 
L 257.088864 209.252608 
L 257.276453 191.493451 
L 258.120605 72.245505 
L 258.308194 86.824629 
L 259.152346 196.691796 
L 259.339936 183.794486 
L 259.715114 122.941662 
L 260.090293 73.969693 
L 260.184087 70.698924 
L 260.277882 71.8446 
L 260.465471 86.731185 
L 260.934445 165.511167 
L 261.309623 209.309788 
L 261.403418 211.478808 
L 261.497212 209.67294 
L 261.684802 195.016809 
L 262.622748 86.332672 
L 262.810338 97.131808 
L 263.185516 151.300925 
L 263.560695 199.890909 
L 263.654489 204.006212 
L 263.748284 203.734941 
L 263.935873 189.9178 
L 264.311052 125.719367 
L 264.686231 73.405268 
L 264.780025 70.636776 
L 264.87382 73.079825 
L 265.061409 92.652078 
L 265.811766 209.895425 
L 265.905561 210.324476 
L 266.09315 197.729075 
L 266.562124 125.607679 
L 266.843507 94.363678 
L 267.031097 89.968623 
L 267.218686 99.533694 
L 267.593865 145.992863 
L 267.969043 185.347152 
L 268.062838 187.799922 
L 268.156633 186.277268 
L 268.344222 171.377996 
L 269.188374 69.618608 
L 269.375963 82.966814 
L 269.751142 145.449835 
L 270.12632 198.325354 
L 270.31391 205.045231 
L 270.407704 202.86852 
L 270.595293 189.101729 
L 271.439445 100.388799 
L 271.53324 101.010376 
L 271.720829 112.87777 
L 272.096008 166.443516 
L 272.471186 208.75545 
L 272.564981 210.043936 
L 272.658776 206.557534 
L 272.846365 185.88316 
L 273.690517 60.762886 
L 273.784312 64.43307 
L 273.971901 85.439855 
L 274.722258 203.563297 
L 274.816053 205.6483 
L 274.909847 203.37691 
L 275.097437 187.145342 
L 275.941588 83.470326 
L 276.035383 84.424535 
L 276.222972 96.796782 
L 277.067124 190.229785 
L 277.160919 189.312185 
L 277.348508 177.132622 
L 278.19266 95.790231 
L 278.380249 105.588236 
L 278.755428 150.883653 
L 279.130607 186.878857 
L 279.224401 189.250108 
L 279.318196 188.373648 
L 279.505785 177.345824 
L 280.349937 95.489856 
L 280.443732 97.521961 
L 280.631321 112.000842 
L 281.475473 209.681438 
L 281.569267 207.495834 
L 281.756857 191.12297 
L 282.22583 109.900198 
L 282.507214 74.15859 
L 282.601009 70.178743 
L 282.694803 70.952392 
L 282.882392 86.353543 
L 283.726544 202.512446 
L 283.820339 199.673505 
L 284.007928 180.920201 
L 284.758285 70.703579 
L 284.85208 68.903999 
L 284.945875 71.315695 
L 285.133464 87.593166 
L 286.071411 200.185073 
L 286.165205 197.380718 
L 286.352795 181.978831 
L 287.103152 96.867789 
L 287.196946 96.210484 
L 287.384536 105.421772 
L 287.66592 139.680778 
L 288.134893 198.472056 
L 288.322482 203.312205 
L 288.510071 192.56158 
L 288.791455 152.581178 
L 289.260429 82.658234 
L 289.448018 77.358811 
L 289.635607 91.217038 
L 290.010786 160.203727 
L 290.385964 220.854518 
L 290.479759 225.598096 
L 290.573554 224.822633 
L 290.761143 206.985891 
L 291.136322 128.330149 
L 291.5115 62.509656 
L 291.69909 56.95194 
L 291.886679 72.324298 
L 292.355652 158.980119 
L 292.637036 195.224789 
L 292.730831 198.880821 
L 292.824625 197.788685 
L 293.012215 182.35808 
L 293.856366 72.906602 
L 293.950161 75.31908 
L 294.13775 92.389632 
L 294.888108 194.510859 
L 294.981902 195.123695 
L 295.169492 183.852848 
L 295.919849 94.463471 
L 296.013643 94.978012 
L 296.201233 109.271373 
L 296.576411 175.260495 
L 296.95159 235.543885 
L 297.139179 242.116364 
L 297.326768 226.959216 
L 297.608152 168.74783 
L 298.17092 48.012331 
L 298.264715 44.443636 
L 298.35851 47.830243 
L 298.546099 73.972485 
L 299.296456 218.771141 
L 299.390251 215.980212 
L 299.57784 191.859257 
L 300.328197 52.031805 
L 300.421992 52.012951 
L 300.609581 68.211694 
L 301.078554 158.746131 
L 301.359938 198.510375 
L 301.547528 204.418719 
L 301.735117 192.897418 
L 302.110296 136.854416 
L 302.485474 88.207901 
L 302.673063 83.080516 
L 302.860653 93.556416 
L 303.142037 131.732323 
L 303.61101 199.515838 
L 303.798599 208.189819 
L 303.892394 206.659669 
L 304.079983 192.477078 
L 304.83034 102.47723 
L 304.924135 102.233495 
L 305.111724 113.111947 
L 305.862082 192.901182 
L 305.955876 191.845995 
L 306.143465 177.993848 
L 306.612439 105.033549 
L 306.893823 74.500099 
L 306.987617 71.659133 
L 307.081412 73.066494 
L 307.269001 88.03494 
L 307.737975 164.788492 
L 308.019358 199.447486 
L 308.206948 204.785255 
L 308.394537 193.990897 
L 308.675921 154.414315 
L 309.144894 84.98045 
L 309.332484 77.767958 
L 309.426278 80.730042 
L 309.613867 99.155542 
L 310.364225 208.194891 
L 310.458019 208.164233 
L 310.645609 193.293741 
L 311.020787 124.514427 
L 311.395966 70.898786 
L 311.48976 68.402555 
L 311.583555 71.153308 
L 311.771144 90.956633 
L 312.521502 201.666195 
L 312.615296 201.523376 
L 312.802886 188.531994 
L 313.553243 98.769952 
L 313.647037 98.846399 
L 313.834627 110.33338 
L 314.678779 196.48473 
L 314.772573 193.774945 
L 314.960162 178.424138 
L 315.804314 87.854776 
L 315.898109 89.954617 
L 316.085698 104.088441 
L 316.92985 191.923191 
L 317.023645 189.45963 
L 317.211234 174.320152 
L 318.055386 77.319657 
L 318.149181 78.988289 
L 318.33677 93.241773 
L 319.274716 198.541045 
L 319.462306 188.682458 
L 319.837484 140.993748 
L 320.212663 99.925856 
L 320.306457 96.539189 
L 320.400252 96.708217 
L 320.587841 107.373277 
L 321.056815 167.222131 
L 321.338199 192.009914 
L 321.431993 194.249434 
L 321.525788 193.079143 
L 321.713377 181.18611 
L 322.651324 91.830922 
L 322.838913 99.157767 
L 323.120297 126.482628 
L 323.683065 181.390309 
L 323.77686 183.737279 
L 323.870654 183.231609 
L 324.058243 173.884512 
L 324.433422 133.128387 
L 324.808601 100.023534 
L 324.902395 97.987492 
L 324.99619 99.124229 
L 325.183779 110.521822 
L 326.027931 190.09655 
L 326.121726 188.145878 
L 326.309315 174.996226 
L 327.059672 95.3688 
L 327.153467 94.921794 
L 327.341056 104.370721 
L 327.716235 150.649757 
L 328.091413 187.053925 
L 328.185208 188.644675 
L 328.279003 186.540369 
L 328.466592 171.971552 
L 329.216949 84.735529 
L 329.310744 84.638647 
L 329.498333 96.0998 
L 329.873512 150.619283 
L 330.24869 195.660557 
L 330.342485 198.497067 
L 330.43628 197.087165 
L 330.623869 182.25841 
L 331.374226 90.009204 
L 331.468021 90.640364 
L 331.65561 103.892774 
L 332.499762 199.262864 
L 332.593557 197.090914 
L 332.781146 182.544071 
L 333.625298 92.770499 
L 333.719092 94.394703 
L 333.906682 106.807634 
L 334.750833 184.879029 
L 334.844628 183.284537 
L 335.032217 171.566347 
L 335.876369 88.005157 
L 335.970164 88.479147 
L 336.157753 98.923124 
L 336.532932 144.999165 
L 336.90811 184.263167 
L 337.0957 188.433238 
L 337.283289 180.678884 
L 337.658468 142.291507 
L 338.033646 108.055849 
L 338.221235 103.511261 
L 338.31503 105.174351 
L 338.502619 115.722613 
L 339.346771 183.699297 
L 339.440566 182.65822 
L 339.628155 172.57516 
L 340.003334 130.629014 
L 340.378512 96.11332 
L 340.472307 94.148362 
L 340.566102 95.749825 
L 340.753691 109.576679 
L 341.597843 205.194709 
L 341.785432 193.363341 
L 342.160611 131.523229 
L 342.535789 78.80426 
L 342.629584 75.515551 
L 342.723379 77.251856 
L 342.910968 94.768525 
L 343.661325 197.551184 
L 343.75512 196.574197 
L 343.942709 182.248174 
L 344.786861 78.01327 
L 344.880656 77.8904 
L 345.068245 87.974275 
L 345.349629 123.525026 
L 345.912397 198.879292 
L 346.099986 203.770633 
L 346.287575 194.314651 
L 346.662754 146.336282 
L 347.037932 102.973144 
L 347.225522 97.212423 
L 347.319316 99.236437 
L 347.506906 112.045822 
L 348.351058 190.300479 
L 348.444852 188.580566 
L 348.632442 175.961034 
L 349.476593 87.061587 
L 349.570388 88.536796 
L 349.757977 101.971323 
L 350.602129 193.072549 
L 350.695924 190.828008 
L 350.883513 176.225018 
L 351.63387 95.907739 
L 351.727665 96.823778 
L 351.915254 109.02404 
L 352.665611 182.648593 
L 352.759406 181.248184 
L 352.946995 168.657848 
L 353.791147 88.099431 
L 353.884942 90.065917 
L 354.072531 102.852671 
L 354.541504 164.084092 
L 354.916683 199.224574 
L 355.010478 201.026759 
L 355.104272 199.38855 
L 355.291862 185.947732 
L 355.760835 117.130831 
L 356.042219 88.698486 
L 356.136013 86.946966 
L 356.229808 89.807506 
L 356.417397 108.714115 
L 357.167755 213.697456 
L 357.261549 211.157841 
L 357.449139 190.793504 
L 358.29329 57.215282 
L 358.387085 61.088992 
L 358.574674 84.30292 
L 359.325032 217.987715 
L 359.418826 219.517264 
L 359.512621 215.771683 
L 359.70021 194.311542 
L 360.450567 76.831851 
L 360.544362 75.136166 
L 360.638157 77.710615 
L 360.825746 94.051106 
L 361.669898 192.002485 
L 361.763692 190.918363 
L 361.951282 178.865034 
L 362.32646 129.098205 
L 362.701639 86.649799 
L 362.795434 83.03031 
L 362.889228 83.169258 
L 363.076817 94.848188 
L 363.451996 150.786056 
L 363.827175 202.461897 
L 364.014764 209.361532 
L 364.108559 206.689039 
L 364.296148 190.089153 
L 365.046505 95.64556 
L 365.1403 95.706066 
L 365.327889 107.783698 
L 366.172041 200.396227 
L 366.265836 197.322199 
L 366.453425 179.874201 
L 367.297577 64.551111 
L 367.391371 64.828517 
L 367.578961 78.197049 
L 367.954139 140.667068 
L 368.329318 194.208 
L 368.423112 198.176849 
L 368.516907 197.308568 
L 368.704496 181.872604 
L 369.454854 85.093247 
L 369.548648 86.619697 
L 369.736238 102.136523 
L 370.580389 201.133048 
L 370.674184 199.317411 
L 370.861773 186.12182 
L 371.705925 97.340799 
L 371.79972 98.00684 
L 371.987309 109.205595 
L 372.362488 157.350095 
L 372.737666 195.967857 
L 372.831461 198.294351 
L 372.925256 196.895107 
L 373.112845 183.244643 
L 373.581818 113.38364 
L 373.581818 113.38364 
" clip-path="url(#pa434b5562f)" style="fill: none; stroke: #4c72b0; stroke-width: 1.5; stroke-linecap: round"/>
   </g>
   <g id="patch_3">
    <path d="M 54 252 
L 54 34.56 
" style="fill: none; stroke: #262626; stroke-width: 1.25; stroke-linejoin: miter; stroke-linecap: square"/>
   </g>
   <g id="patch_4">
    <path d="M 388.8 252 
L 388.8 34.56 
" style="fill: none; stroke: #262626; stroke-width: 1.25; stroke-linejoin: miter; stroke-linecap: square"/>
   </g>
   <g id="patch_5">
    <path d="M 54 252 
L 388.8 252 
" style="fill: none; stroke: #262626; stroke-width: 1.25; stroke-linejoin: miter; stroke-linecap: square"/>
   </g>
   <g id="patch_6">
    <path d="M 54 34.56 
L 388.8 34.56 
" style="fill: none; stroke: #262626; stroke-width: 1.25; stroke-linejoin: miter; stroke-linecap: square"/>
   </g>
  </g>
 </g>
 <defs>
  <clipPath id="pa434b5562f">
   <rect x="54" y="34.56" width="334.8" height="217.44"/>
  </clipPath>
 </defs>
</svg>
